<?xml version="1.0" encoding="UTF-8"?>
<svg xmlns="http://www.w3.org/2000/svg" xmlns:xlink="http://www.w3.org/1999/xlink" width="84pt" height="30pt" viewBox="0 0 84 30" version="1.1">
<defs>
<clipPath id="clip1">
  <path d="M 56 0.65625 L 83.84375 0.65625 L 83.84375 30 L 56 30 Z M 56 0.65625 "/>
</clipPath>
</defs>
<g id="surface1">
<path style=" stroke:none;fill-rule:nonzero;fill:rgb(12.612915%,33.842468%,68.222046%);fill-opacity:1;" d="M 0 29.503906 L 15.046875 29.503906 C 19.027344 29.503906 22.484375 28.648438 24.933594 26.488281 C 27.386719 24.328125 28.890625 20.835938 28.890625 15.410156 C 28.890625 9.589844 27.488281 6.050781 25.152344 3.957031 C 22.820312 1.859375 19.476562 1.15625 15.488281 1.15625 L 0 1.15625 L 0 7.277344 L 13.121094 7.277344 C 15.109375 7.265625 16.46875 7.972656 17.234375 9.335938 C 18.003906 10.691406 18.234375 12.613281 18.238281 15.121094 C 18.234375 17.542969 18.023438 19.449219 17.273438 20.804688 C 16.519531 22.167969 15.167969 22.894531 13.160156 22.882812 L 10.171875 22.882812 L 10.171875 12.847656 L 0 12.847656 L 0 29.503906 "/>
<path style=" stroke:none;fill-rule:nonzero;fill:rgb(12.612915%,33.842468%,68.222046%);fill-opacity:1;" d="M 31.101562 29.503906 L 41.273438 29.503906 L 41.273438 19.21875 L 53.945312 19.21875 L 53.945312 12.847656 L 41.273438 12.847656 L 41.273438 7.277344 L 53.945312 7.277344 L 53.945312 1.15625 L 31.101562 1.15625 L 31.101562 29.503906 "/>
<g clip-path="url(#clip1)" clip-rule="nonzero">
<path style=" stroke:none;fill-rule:nonzero;fill:rgb(12.612915%,33.842468%,68.222046%);fill-opacity:1;" d="M 60.949219 4.234375 C 57.941406 6.609375 56.042969 10.144531 56.039062 14.914062 C 56.042969 20.007812 57.871094 23.75 60.835938 26.25 C 63.796875 28.75 67.925781 30 72.53125 30 C 76.847656 30 80.257812 29.5625 83.84375 28.5 L 83.84375 15.417969 L 75.203125 15.417969 L 75.203125 23.039062 L 75.011719 23.113281 C 74.285156 23.390625 73.378906 23.378906 72.613281 23.382812 C 70.386719 23.386719 68.796875 22.457031 67.824219 21.011719 C 66.84375 19.570312 66.453125 17.648438 66.453125 15.617188 C 66.449219 12.921875 67.363281 10.808594 68.988281 9.398438 C 70.609375 7.984375 72.90625 7.277344 75.628906 7.277344 C 78.410156 7.277344 80.601562 7.902344 82.164062 8.726562 L 82.164062 1.671875 C 79.59375 1.042969 77.636719 0.660156 72.53125 0.65625 C 68.085938 0.65625 63.953125 1.859375 60.949219 4.234375 "/>
</g>
</g>
</svg>
