<?xml version="1.0" encoding="UTF-8" standalone="no"?>
<!-- Created with Inkscape (http://www.inkscape.org/) -->

<svg
   xmlns:dc="http://purl.org/dc/elements/1.1/"
   xmlns:cc="http://creativecommons.org/ns#"
   xmlns:rdf="http://www.w3.org/1999/02/22-rdf-syntax-ns#"
   xmlns:svg="http://www.w3.org/2000/svg"
   xmlns="http://www.w3.org/2000/svg"
   xmlns:sodipodi="http://sodipodi.sourceforge.net/DTD/sodipodi-0.dtd"
   xmlns:inkscape="http://www.inkscape.org/namespaces/inkscape"
   version="1.1"
   id="svg2"
   xml:space="preserve"
   width="338.29333"
   height="69.440002"
   viewBox="0 0 338.29333 69.440002"
   sodipodi:docname="dfg_long.svg"
   inkscape:version="0.92.3 (2405546, 2018-03-11)"><metadata
     id="metadata8"><rdf:RDF><cc:Work
         rdf:about=""><dc:format>image/svg+xml</dc:format><dc:type
           rdf:resource="http://purl.org/dc/dcmitype/StillImage" /><dc:title></dc:title></cc:Work></rdf:RDF></metadata><defs
     id="defs6" /><sodipodi:namedview
     pagecolor="#ffffff"
     bordercolor="#666666"
     borderopacity="1"
     objecttolerance="10"
     gridtolerance="10"
     guidetolerance="10"
     inkscape:pageopacity="0"
     inkscape:pageshadow="2"
     inkscape:window-width="1920"
     inkscape:window-height="1025"
     id="namedview4"
     showgrid="false"
     inkscape:zoom="2.1342425"
     inkscape:cx="175.83929"
     inkscape:cy="47.32523"
     inkscape:window-x="0"
     inkscape:window-y="27"
     inkscape:window-maximized="1"
     inkscape:current-layer="g10" /><g
     id="g10"
     inkscape:groupmode="layer"
     inkscape:label="ink_ext_XXXXXX"
     transform="matrix(1.3333333,0,0,-1.3333333,0,69.44)"><path
       inkscape:connector-curvature="0"
       id="path14"
       style="fill:#2056ae;fill-opacity:1;fill-rule:nonzero;stroke:none;stroke-width:0.1"
       d="m 0,22.9133 h 15.048 c 3.979,0 7.436,0.8543 9.8872,3.0152 2.4511,2.1606 3.9539,5.6528 3.957,11.0754 -0.002,5.8242 -1.4043,9.3613 -3.7383,11.4563 -2.334,2.0964 -5.6758,2.8007 -9.6637,2.7996 v 0.0011 H 0 v -6.1222 h 10.4691 2.6508 c 1.9879,0.0109 3.3469,-0.6942 4.1149,-2.0586 0.7703,-1.3535 1.0011,-3.2793 1.0039,-5.786 -0.0028,-2.423 -0.2137,-4.3273 -0.9668,-5.682 -0.752,-1.3621 -2.102,-2.0918 -4.1117,-2.0797 h -2.9891 v 10.034 H 0 V 22.9133" /><path
       inkscape:connector-curvature="0"
       id="path16"
       style="fill:#2056ae;fill-opacity:1;fill-rule:nonzero;stroke:none;stroke-width:0.1"
       d="m 31.1012,22.9133 h 10.1703 v 10.2832 h 12.6719 v 6.3699 H 41.2715 v 5.5723 h 12.6719 v 6.1222 H 31.1012 V 22.9133" /><path
       inkscape:connector-curvature="0"
       id="path18"
       style="fill:#2056ae;fill-opacity:1;fill-rule:nonzero;stroke:none;stroke-width:0.1"
       d="M 60.9473,48.1828 C 57.9426,45.8059 56.043,42.2715 56.0391,37.5012 56.043,32.4094 57.8711,28.666 60.834,26.166 c 2.9648,-2.4988 7.0918,-3.75 11.6992,-3.75 4.3152,0.0012 7.7246,0.4356 11.3125,1.5 v 13.0801 h -8.6426 v -7.618 l -0.1914,-0.0746 c -0.7265,-0.2769 -1.6328,-0.2652 -2.3984,-0.2691 -2.2285,-0.0063 -3.8164,0.9258 -4.791,2.3699 -0.9766,1.4426 -1.3692,3.3645 -1.3711,5.3926 -0.002,2.6965 0.914,4.8086 2.5371,6.2207 1.6222,1.4133 3.9172,2.1211 6.6387,2.1211 2.7832,0 4.9765,-0.6258 6.5371,-1.4481 v 7.0528 c -2.5703,0.6277 -4.5262,1.0125 -9.6309,1.0144 h -0.0019 c -4.4454,0 -8.5782,-1.2012 -11.584,-3.575" /><path
       inkscape:connector-curvature="0"
       id="path20"
       style="fill:#2056ae;fill-opacity:1;fill-rule:nonzero;stroke:none;stroke-width:0.1"
       d="m 99.3523,41.7559 h 0.8287 c 3.08,-0.0684 4.661,1.3984 4.741,4.3984 -0.024,1.5773 -0.42,2.6895 -1.189,3.3379 -0.783,0.6183 -1.755,0.923 -2.916,0.9133 h -1.4647 z m -0.991,9.539 h 2.5007 c 1.794,-0.0195 3.092,-0.5019 3.893,-1.4453 0.782,-0.948 1.168,-2.1992 1.158,-3.7508 -0.018,-1.8633 -0.565,-3.2043 -1.639,-4.0207 -1.059,-0.8086 -2.442,-1.2121 -4.147,-1.2121 h -1.7657 v 10.4289" /><path
       inkscape:connector-curvature="0"
       id="path22"
       style="fill:#2056ae;fill-opacity:1;fill-rule:nonzero;stroke:none;stroke-width:0.1"
       d="m 112.818,45.207 c 0,0.7012 -0.141,1.3125 -0.424,1.836 -0.298,0.5293 -0.788,0.8027 -1.467,0.8222 -0.666,-0.0195 -1.193,-0.2988 -1.58,-0.8359 -0.397,-0.5438 -0.595,-1.1504 -0.595,-1.8223 z m 0.443,-4.1035 c -0.693,-0.2707 -1.407,-0.4101 -2.142,-0.4199 -1.207,0.0242 -2.071,0.4082 -2.595,1.1531 -0.518,0.7297 -0.773,1.6762 -0.763,2.8391 0.01,1.1875 0.299,2.1484 0.869,2.8828 0.551,0.7297 1.298,1.0996 2.24,1.1094 1.031,-0.0196 1.785,-0.3946 2.261,-1.1239 0.452,-0.716 0.679,-1.6007 0.679,-2.6562 v -0.4816 h -5.058 c 0,-0.8301 0.208,-1.5125 0.623,-2.0489 0.405,-0.5722 1.01,-0.8613 1.812,-0.8711 0.359,0 0.736,0.0657 1.132,0.1973 0.397,0.1074 0.711,0.2316 0.942,0.373 v -0.9531" /><path
       inkscape:connector-curvature="0"
       id="path24"
       style="fill:#2056ae;fill-opacity:1;fill-rule:nonzero;stroke:none;stroke-width:0.1"
       d="m 121.537,42.6602 c -0.01,-0.5782 0.011,-1.1758 0.063,-1.7942 h -0.883 v 1.3567 h -0.029 c -0.066,-0.1653 -0.158,-0.3329 -0.275,-0.5028 -0.113,-0.1808 -0.262,-0.3508 -0.445,-0.5109 -0.184,-0.1504 -0.411,-0.2695 -0.685,-0.3574 -0.268,-0.1114 -0.595,-0.168 -0.981,-0.168 -0.895,0.0098 -1.539,0.2891 -1.935,0.8398 -0.395,0.5391 -0.589,1.2383 -0.579,2.0938 v 4.8683 h 0.903 v -4.632 c 0,-0.7305 0.14,-1.3008 0.418,-1.7097 0.274,-0.4387 0.72,-0.6575 1.338,-0.6575 0.415,0 0.767,0.0899 1.054,0.2696 0.293,0.1711 0.515,0.3898 0.666,0.6582 0.174,0.2773 0.295,0.5761 0.36,0.8984 0.072,0.3164 0.107,0.6348 0.107,0.957 v 4.216 h 0.903 v -5.8253" /><path
       inkscape:connector-curvature="0"
       id="path26"
       style="fill:#2056ae;fill-opacity:1;fill-rule:nonzero;stroke:none;stroke-width:0.1"
       d="m 127.274,47.6836 h -1.678 v -4.9414 c 0,-0.3496 0.077,-0.6445 0.233,-0.884 0.142,-0.2488 0.392,-0.3719 0.751,-0.3719 0.33,0 0.611,0.0606 0.842,0.1817 l 0.057,-0.7742 c -0.108,-0.0383 -0.258,-0.0821 -0.452,-0.1301 -0.202,-0.0528 -0.423,-0.0801 -0.663,-0.0801 -0.395,0 -0.708,0.0703 -0.938,0.2117 -0.222,0.1418 -0.389,0.3254 -0.501,0.5551 -0.099,0.2383 -0.162,0.5059 -0.191,0.8027 -0.028,0.3016 -0.043,0.6278 -0.043,0.9774 v 4.4531 h -1.446 v 0.8019 h 1.446 v 1.8387 l 0.905,0.3281 v -2.1668 h 1.678 v -0.8019" /><path
       inkscape:connector-curvature="0"
       id="path28"
       style="fill:#2056ae;fill-opacity:1;fill-rule:nonzero;stroke:none;stroke-width:0.1"
       d="m 128.512,41.9688 c 0.56,-0.3125 1.2,-0.4727 1.921,-0.4825 0.456,0 0.841,0.1231 1.157,0.3719 0.31,0.2297 0.471,0.5578 0.48,0.9867 -0.009,0.4531 -0.188,0.8086 -0.537,1.0672 -0.348,0.2481 -0.759,0.4719 -1.229,0.6719 -0.222,0.1074 -0.434,0.2207 -0.636,0.3437 -0.202,0.1211 -0.396,0.2551 -0.579,0.4004 -0.165,0.1621 -0.302,0.3469 -0.41,0.5567 -0.104,0.1992 -0.156,0.4328 -0.156,0.7011 0.01,0.7598 0.259,1.2969 0.748,1.6145 0.476,0.3113 1.027,0.4676 1.653,0.4676 0.212,0 0.487,-0.0196 0.826,-0.0586 0.334,-0.0574 0.665,-0.1524 0.995,-0.2821 l -0.085,-0.8195 c -0.533,0.2285 -1.08,0.3477 -1.641,0.3574 -0.472,0 -0.847,-0.0879 -1.125,-0.2625 -0.146,-0.0929 -0.259,-0.2199 -0.339,-0.38 -0.085,-0.1563 -0.128,-0.3653 -0.128,-0.6289 0,-0.1551 0.054,-0.3047 0.163,-0.4454 0.103,-0.1308 0.242,-0.25 0.417,-0.3574 0.175,-0.1023 0.372,-0.207 0.594,-0.3144 0.221,-0.1024 0.438,-0.2118 0.65,-0.3282 0.481,-0.2109 0.9,-0.4902 1.259,-0.8406 0.358,-0.3508 0.542,-0.8351 0.552,-1.4543 0,-0.3992 -0.079,-0.7324 -0.233,-1.0008 -0.165,-0.2773 -0.372,-0.5011 -0.621,-0.6718 -0.541,-0.3313 -1.114,-0.4973 -1.721,-0.4973 -0.71,0 -1.397,0.1211 -2.059,0.3613 l 0.084,0.9239" /><path
       inkscape:connector-curvature="0"
       id="path30"
       style="fill:#2056ae;fill-opacity:1;fill-rule:nonzero;stroke:none;stroke-width:0.1"
       d="m 139.694,47.4777 c -0.523,0.2489 -1.05,0.3778 -1.584,0.3875 -0.886,-0.0097 -1.565,-0.3027 -2.037,-0.8769 -0.495,-0.5906 -0.742,-1.3613 -0.742,-2.3125 0,-0.8875 0.243,-1.6317 0.729,-2.2313 0.471,-0.63 1.122,-0.9484 1.952,-0.9582 0.57,0 1.126,0.1145 1.669,0.3438 l 0.084,-0.8789 c -0.598,-0.1875 -1.229,-0.2774 -1.893,-0.2676 -1.186,0.0242 -2.07,0.4277 -2.649,1.2109 -0.589,0.7696 -0.883,1.6965 -0.883,2.7813 0.01,1.207 0.346,2.168 1.01,2.8828 0.66,0.7297 1.538,1.0996 2.635,1.1094 0.453,0 0.828,-0.034 1.13,-0.1016 0.156,-0.0293 0.29,-0.0605 0.403,-0.0937 0.108,-0.0391 0.191,-0.0723 0.247,-0.1016 l -0.071,-0.8934" /><path
       inkscape:connector-curvature="0"
       id="path32"
       style="fill:#2056ae;fill-opacity:1;fill-rule:nonzero;stroke:none;stroke-width:0.1"
       d="m 141.528,52.0762 h 0.904 V 47.207 h 0.028 c 0.203,0.4258 0.502,0.7793 0.897,1.0606 0.396,0.2578 0.862,0.3906 1.399,0.4004 0.984,-0.0098 1.655,-0.3094 2.014,-0.8985 0.348,-0.5976 0.517,-1.3789 0.507,-2.3418 V 40.866 h -0.903 v 4.552 c 0,0.3359 -0.019,0.6554 -0.057,0.957 -0.042,0.2871 -0.125,0.541 -0.248,0.7598 -0.23,0.4777 -0.715,0.7207 -1.45,0.7304 -0.793,-0.0195 -1.359,-0.3339 -1.699,-0.9422 -0.335,-0.6085 -0.498,-1.2667 -0.488,-1.9726 V 40.866 h -0.904 v 11.2102" /><path
       inkscape:connector-curvature="0"
       id="path34"
       style="fill:#2056ae;fill-opacity:1;fill-rule:nonzero;stroke:none;stroke-width:0.1"
       d="m 154.343,45.207 c 0,0.7012 -0.142,1.3125 -0.425,1.836 -0.298,0.5293 -0.787,0.8027 -1.467,0.8222 -0.666,-0.0195 -1.192,-0.2988 -1.58,-0.8359 -0.396,-0.5438 -0.595,-1.1504 -0.595,-1.8223 z m 0.442,-4.1035 c -0.692,-0.2707 -1.406,-0.4101 -2.141,-0.4199 -1.207,0.0242 -2.072,0.4082 -2.595,1.1531 -0.519,0.7297 -0.774,1.6762 -0.764,2.8391 0.01,1.1875 0.299,2.1484 0.869,2.8828 0.551,0.7297 1.298,1.0996 2.241,1.1094 1.031,-0.0196 1.785,-0.3946 2.26,-1.1239 0.452,-0.716 0.679,-1.6007 0.679,-2.6562 v -0.4816 h -5.058 c 0,-0.8301 0.208,-1.5125 0.623,-2.0489 0.406,-0.5722 1.01,-0.8613 1.812,-0.8711 0.359,0 0.736,0.0657 1.133,0.1973 0.396,0.1074 0.711,0.2316 0.941,0.373 v -0.9531" /><path
       inkscape:connector-curvature="0"
       id="path36"
       style="fill:#2056ae;fill-opacity:1;fill-rule:nonzero;stroke:none;stroke-width:0.1"
       d="m 98.3176,33.3594 h 4.8004 v -0.8895 h -3.8094 v -3.7304 h 3.6324 v -0.8887 h -3.6324 v -4.9199 h -0.991 v 10.4285" /><path
       inkscape:connector-curvature="0"
       id="path38"
       style="fill:#2056ae;fill-opacity:1;fill-rule:nonzero;stroke:none;stroke-width:0.1"
       d="m 105.402,26.7402 c 0,-0.9074 0.213,-1.6562 0.638,-2.2461 0.406,-0.6191 1.012,-0.9343 1.815,-0.9433 0.803,0.009 1.417,0.3242 1.843,0.9433 0.406,0.5899 0.61,1.3387 0.61,2.2461 0,0.9121 -0.204,1.6711 -0.61,2.2754 -0.426,0.5996 -1.04,0.9043 -1.843,0.9141 -0.803,-0.0098 -1.409,-0.3145 -1.815,-0.9141 -0.425,-0.6043 -0.638,-1.3633 -0.638,-2.2754 z m -0.991,0 c 0,1.0852 0.28,2.0118 0.841,2.7801 0.556,0.7883 1.422,1.1926 2.6,1.2121 1.196,-0.0195 2.074,-0.4238 2.634,-1.2121 0.542,-0.7683 0.813,-1.6949 0.813,-2.7801 0,-1.0656 -0.271,-1.9871 -0.813,-2.7656 -0.56,-0.793 -1.438,-1.2019 -2.634,-1.2266 -1.178,0.0247 -2.044,0.4336 -2.6,1.2266 -0.561,0.7785 -0.841,1.7 -0.841,2.7656" /><path
       inkscape:connector-curvature="0"
       id="path40"
       style="fill:#2056ae;fill-opacity:1;fill-rule:nonzero;stroke:none;stroke-width:0.1"
       d="m 113.293,28.8496 c 0,0.7051 -0.019,1.2715 -0.057,1.7 h 0.905 v -1.459 h 0.027 c 0.175,0.4477 0.42,0.8293 0.736,1.1457 0.311,0.3203 0.698,0.4864 1.159,0.4961 0.241,-0.0097 0.453,-0.039 0.636,-0.0871 v -0.9781 c -0.202,0.0586 -0.424,0.0879 -0.664,0.0879 -0.358,-0.0102 -0.653,-0.0996 -0.884,-0.2707 -0.231,-0.1797 -0.42,-0.4239 -0.565,-0.7305 -0.138,-0.3016 -0.234,-0.6258 -0.29,-0.9715 -0.067,-0.3703 -0.1,-0.7304 -0.1,-1.0812 v -3.7703 h -0.903 v 5.9187" /><path
       inkscape:connector-curvature="0"
       id="path42"
       style="fill:#2056ae;fill-opacity:1;fill-rule:nonzero;stroke:none;stroke-width:0.1"
       d="m 117.703,24.0332 c 0.561,-0.3125 1.2,-0.4734 1.921,-0.4824 0.456,0 0.842,0.1238 1.157,0.3722 0.311,0.2286 0.471,0.5575 0.481,0.9864 -0.01,0.4527 -0.189,0.8086 -0.537,1.0664 -0.349,0.2488 -0.759,0.4726 -1.23,0.6726 -0.222,0.1067 -0.433,0.2215 -0.636,0.3426 -0.202,0.1223 -0.395,0.2563 -0.579,0.4028 -0.165,0.1597 -0.301,0.3457 -0.41,0.5546 -0.103,0.2 -0.155,0.4336 -0.155,0.702 0.01,0.7598 0.259,1.298 0.748,1.6144 0.475,0.3114 1.026,0.4676 1.652,0.4676 0.212,0 0.488,-0.0195 0.826,-0.0586 0.334,-0.0578 0.665,-0.1523 0.996,-0.2824 l -0.085,-0.8191 c -0.534,0.2285 -1.081,0.3476 -1.642,0.3574 -0.472,0 -0.847,-0.0867 -1.125,-0.2625 -0.146,-0.093 -0.259,-0.2188 -0.339,-0.3801 -0.085,-0.1562 -0.128,-0.3652 -0.128,-0.6277 0,-0.1563 0.055,-0.3047 0.163,-0.4465 0.104,-0.1316 0.242,-0.2512 0.417,-0.3574 0.175,-0.1024 0.372,-0.2071 0.594,-0.3145 0.222,-0.1023 0.438,-0.2121 0.65,-0.3293 0.482,-0.2086 0.901,-0.489 1.259,-0.8394 0.359,-0.3508 0.542,-0.836 0.552,-1.4543 0,-0.3992 -0.078,-0.7332 -0.232,-1.0008 -0.166,-0.2774 -0.373,-0.502 -0.622,-0.6723 -0.541,-0.3308 -1.114,-0.4969 -1.72,-0.4969 -0.71,0 -1.398,0.1204 -2.06,0.3614 l 0.084,0.9238" /><path
       inkscape:connector-curvature="0"
       id="path44"
       style="fill:#2056ae;fill-opacity:1;fill-rule:nonzero;stroke:none;stroke-width:0.1"
       d="m 128.886,29.5422 c -0.524,0.2488 -1.051,0.3777 -1.584,0.3875 -0.887,-0.0098 -1.566,-0.3016 -2.037,-0.8777 -0.495,-0.5903 -0.743,-1.3606 -0.743,-2.3118 0,-0.8875 0.244,-1.632 0.729,-2.2312 0.472,-0.6289 1.122,-0.9492 1.952,-0.9582 0.57,0 1.126,0.1144 1.669,0.3437 l 0.084,-0.8789 c -0.598,-0.1875 -1.228,-0.2773 -1.893,-0.2676 -1.186,0.0247 -2.07,0.429 -2.649,1.2122 -0.589,0.7683 -0.883,1.6953 -0.883,2.78 0.01,1.2063 0.346,2.1672 1.01,2.8828 0.66,0.7297 1.538,1.0997 2.636,1.1094 0.452,0 0.828,-0.034 1.13,-0.1015 0.155,-0.0293 0.29,-0.0606 0.402,-0.0938 0.108,-0.0391 0.191,-0.0723 0.247,-0.1016 l -0.07,-0.8933" /><path
       inkscape:connector-curvature="0"
       id="path46"
       style="fill:#2056ae;fill-opacity:1;fill-rule:nonzero;stroke:none;stroke-width:0.1"
       d="m 130.72,34.1406 h 0.903 v -4.8691 h 0.028 c 0.203,0.4269 0.502,0.7805 0.898,1.0605 0.395,0.2571 0.861,0.3907 1.398,0.4004 0.985,-0.0097 1.656,-0.3094 2.014,-0.8984 0.349,-0.5977 0.518,-1.3789 0.508,-2.3418 v -4.5613 h -0.904 v 4.5515 c 0,0.336 -0.018,0.6555 -0.056,0.9571 -0.042,0.2871 -0.125,0.541 -0.248,0.7597 -0.231,0.4778 -0.715,0.7207 -1.45,0.7305 -0.793,-0.0195 -1.36,-0.3328 -1.7,-0.9426 -0.335,-0.6082 -0.498,-1.2664 -0.488,-1.9723 v -4.0839 h -0.903 v 11.2097" /><path
       inkscape:connector-curvature="0"
       id="path48"
       style="fill:#2056ae;fill-opacity:1;fill-rule:nonzero;stroke:none;stroke-width:0.1"
       d="m 144.781,24.7258 c -0.01,-0.5793 0.011,-1.1778 0.063,-1.7949 h -0.883 v 1.3562 h -0.028 c -0.067,-0.1648 -0.159,-0.3332 -0.276,-0.5027 -0.113,-0.1797 -0.261,-0.3508 -0.445,-0.511 -0.184,-0.1504 -0.411,-0.2695 -0.685,-0.3574 -0.268,-0.1113 -0.595,-0.168 -0.981,-0.168 -0.895,0.0098 -1.539,0.2903 -1.935,0.8399 -0.395,0.5402 -0.589,1.2375 -0.579,2.0937 v 4.868 h 0.904 V 25.918 c 0,-0.7313 0.139,-1.3008 0.418,-1.7102 0.273,-0.4383 0.719,-0.657 1.337,-0.657 0.415,0 0.767,0.0898 1.054,0.2695 0.293,0.1707 0.515,0.3899 0.666,0.6582 0.174,0.2774 0.295,0.5774 0.36,0.8985 0.072,0.3164 0.107,0.6359 0.107,0.957 v 4.2156 h 0.903 v -5.8238" /><path
       inkscape:connector-curvature="0"
       id="path50"
       style="fill:#2056ae;fill-opacity:1;fill-rule:nonzero;stroke:none;stroke-width:0.1"
       d="m 147.345,28.7629 c 0,0.5828 -0.019,1.1785 -0.057,1.7867 h 0.882 v -1.3562 h 0.028 c 0.084,0.1796 0.186,0.3593 0.303,0.539 0.113,0.1809 0.257,0.343 0.431,0.4895 0.183,0.1601 0.409,0.2871 0.677,0.3789 0.273,0.0879 0.595,0.1316 0.966,0.1316 0.908,-0.0097 1.56,-0.2898 1.954,-0.8398 0.377,-0.5352 0.565,-1.2305 0.565,-2.0867 v -4.875 h -0.904 v 4.6394 c 0,0.7254 -0.129,1.3027 -0.389,1.7317 -0.283,0.4089 -0.738,0.6179 -1.365,0.6277 -0.812,-0.0195 -1.383,-0.3164 -1.713,-0.8906 -0.17,-0.2735 -0.29,-0.5684 -0.362,-0.8848 -0.075,-0.3309 -0.113,-0.6672 -0.113,-1.0078 v -4.2156 h -0.903 v 5.832" /><path
       inkscape:connector-curvature="0"
       id="path52"
       style="fill:#2056ae;fill-opacity:1;fill-rule:nonzero;stroke:none;stroke-width:0.1"
       d="m 156.21,26.7402 c -0.011,-0.78 0.152,-1.4636 0.488,-2.0488 0.331,-0.6199 0.879,-0.9394 1.645,-0.959 0.822,0.0196 1.405,0.3489 1.751,0.9883 0.33,0.6191 0.496,1.2922 0.496,2.0195 0,0.9512 -0.154,1.7168 -0.461,2.2969 -0.321,0.5859 -0.898,0.8828 -1.73,0.8926 -0.434,0 -0.789,-0.0945 -1.062,-0.2852 -0.279,-0.1757 -0.506,-0.4238 -0.681,-0.7461 -0.156,-0.2976 -0.271,-0.6367 -0.347,-1.0164 -0.067,-0.3808 -0.099,-0.7621 -0.099,-1.1418 z m 5.283,-3.1828 c 0,-1.0847 -0.255,-1.9918 -0.764,-2.7215 -0.532,-0.7343 -1.429,-1.1113 -2.691,-1.1308 -0.485,0.0097 -0.931,0.0625 -1.336,0.1594 -0.395,0.1023 -0.695,0.1812 -0.897,0.2402 l 0.078,0.9355 c 0.608,-0.3363 1.333,-0.5136 2.173,-0.5332 0.59,0.0094 1.051,0.1192 1.387,0.3282 0.349,0.1992 0.606,0.4785 0.772,0.8378 0.174,0.3594 0.285,0.7723 0.332,1.2391 0.039,0.4668 0.057,0.9688 0.057,1.5086 h -0.029 c -0.522,-1.0125 -1.269,-1.5094 -2.24,-1.4898 -1.159,0.0293 -1.97,0.457 -2.431,1.2839 -0.245,0.3801 -0.415,0.7883 -0.509,1.2266 -0.118,0.4375 -0.176,0.8703 -0.176,1.2988 -0.01,1.1868 0.227,2.1426 0.714,2.868 0.48,0.7395 1.255,1.1145 2.325,1.1242 0.484,0 0.911,-0.0554 1.278,-0.1668 0.354,-0.1359 0.695,-0.425 1.026,-0.8691 h 0.028 v 0.8555 l 0.903,-0.0024 v -6.9922" /><path
       inkscape:connector-curvature="0"
       id="path54"
       style="fill:#2056ae;fill-opacity:1;fill-rule:nonzero;stroke:none;stroke-width:0.1"
       d="m 163.402,24.0332 c 0.561,-0.3125 1.201,-0.4734 1.921,-0.4824 0.456,0 0.842,0.1238 1.157,0.3722 0.311,0.2286 0.471,0.5575 0.481,0.9864 -0.01,0.4527 -0.189,0.8086 -0.537,1.0664 -0.349,0.2488 -0.759,0.4726 -1.23,0.6726 -0.221,0.1067 -0.433,0.2215 -0.635,0.3426 -0.203,0.1223 -0.396,0.2563 -0.58,0.4028 -0.165,0.1597 -0.301,0.3457 -0.41,0.5546 -0.103,0.2 -0.155,0.4336 -0.155,0.702 0.01,0.7598 0.259,1.298 0.748,1.6144 0.476,0.3114 1.026,0.4676 1.652,0.4676 0.212,0 0.488,-0.0195 0.827,-0.0586 0.334,-0.0578 0.665,-0.1523 0.995,-0.2824 l -0.085,-0.8191 c -0.533,0.2285 -1.08,0.3476 -1.642,0.3574 -0.471,0 -0.846,-0.0867 -1.125,-0.2625 -0.145,-0.093 -0.259,-0.2188 -0.339,-0.3801 -0.085,-0.1562 -0.128,-0.3652 -0.128,-0.6277 0,-0.1563 0.055,-0.3047 0.163,-0.4465 0.104,-0.1316 0.243,-0.2512 0.417,-0.3574 0.175,-0.1024 0.373,-0.2071 0.594,-0.3145 0.222,-0.1023 0.439,-0.2121 0.651,-0.3293 0.481,-0.2086 0.9,-0.489 1.258,-0.8394 0.359,-0.3508 0.542,-0.836 0.552,-1.4543 0,-0.3992 -0.078,-0.7332 -0.232,-1.0008 -0.165,-0.2774 -0.372,-0.502 -0.621,-0.6723 -0.541,-0.3308 -1.115,-0.4969 -1.721,-0.4969 -0.71,0 -1.398,0.1204 -2.06,0.3614 l 0.084,0.9238" /><path
       inkscape:connector-curvature="0"
       id="path56"
       style="fill:#2056ae;fill-opacity:1;fill-rule:nonzero;stroke:none;stroke-width:0.1"
       d="m 170.339,26.7402 c -0.011,-0.78 0.152,-1.4636 0.488,-2.0488 0.331,-0.6199 0.879,-0.9394 1.645,-0.959 0.822,0.0196 1.405,0.3489 1.751,0.9883 0.33,0.6191 0.496,1.2922 0.496,2.0195 0,0.9512 -0.155,1.7168 -0.461,2.2969 -0.321,0.5859 -0.898,0.8828 -1.73,0.8926 -0.434,0 -0.789,-0.0945 -1.062,-0.2852 -0.279,-0.1757 -0.506,-0.4238 -0.681,-0.7461 -0.156,-0.2976 -0.271,-0.6367 -0.347,-1.0164 -0.067,-0.3808 -0.099,-0.7621 -0.099,-1.1418 z m 5.283,-3.1828 c 0,-1.0847 -0.255,-1.9918 -0.764,-2.7215 -0.532,-0.7343 -1.429,-1.1113 -2.691,-1.1308 -0.485,0.0097 -0.931,0.0625 -1.336,0.1594 -0.395,0.1023 -0.695,0.1812 -0.897,0.2402 l 0.078,0.9355 c 0.608,-0.3363 1.333,-0.5136 2.173,-0.5332 0.589,0.0094 1.051,0.1192 1.387,0.3282 0.349,0.1992 0.606,0.4785 0.772,0.8378 0.174,0.3594 0.285,0.7723 0.332,1.2391 0.039,0.4668 0.057,0.9688 0.057,1.5086 h -0.029 c -0.522,-1.0125 -1.269,-1.5094 -2.24,-1.4898 -1.159,0.0293 -1.97,0.457 -2.431,1.2839 -0.245,0.3801 -0.415,0.7883 -0.51,1.2266 -0.117,0.4375 -0.175,0.8703 -0.175,1.2988 -0.01,1.1868 0.227,2.1426 0.714,2.868 0.48,0.7395 1.254,1.1145 2.325,1.1242 0.484,0 0.911,-0.0554 1.278,-0.1668 0.354,-0.1359 0.695,-0.425 1.025,-0.8691 h 0.029 v 0.8555 l 0.903,-0.0024 v -6.9922" /><path
       inkscape:connector-curvature="0"
       id="path58"
       style="fill:#2056ae;fill-opacity:1;fill-rule:nonzero;stroke:none;stroke-width:0.1"
       d="m 182.601,27.2727 c 0,0.6992 -0.142,1.3113 -0.425,1.8347 -0.298,0.5293 -0.787,0.8028 -1.467,0.8223 -0.666,-0.0195 -1.192,-0.2977 -1.58,-0.8367 -0.397,-0.5434 -0.595,-1.1504 -0.595,-1.8203 z m 0.442,-4.1055 c -0.692,-0.2695 -1.406,-0.4094 -2.142,-0.4192 -1.207,0.0247 -2.071,0.4094 -2.594,1.1536 -0.519,0.7293 -0.774,1.6757 -0.764,2.8386 0.01,1.1868 0.299,2.1477 0.869,2.8828 0.551,0.7297 1.298,1.0997 2.24,1.1094 1.032,-0.0195 1.786,-0.3945 2.261,-1.1242 0.452,-0.7144 0.679,-1.6004 0.679,-2.6559 v -0.4816 h -5.058 c 0,-0.8293 0.208,-1.5129 0.623,-2.05 0.406,-0.5699 1.01,-0.8609 1.812,-0.8699 0.359,0 0.736,0.0652 1.133,0.1972 0.396,0.1075 0.711,0.2317 0.941,0.3731 v -0.9539" /><path
       inkscape:connector-curvature="0"
       id="path60"
       style="fill:#2056ae;fill-opacity:1;fill-rule:nonzero;stroke:none;stroke-width:0.1"
       d="m 194.627,22.9309 v 5.0703 c 0,0.282 -0.02,0.5429 -0.059,0.782 -0.059,0.2285 -0.155,0.4285 -0.288,0.5988 -0.118,0.1754 -0.282,0.3145 -0.494,0.4168 -0.211,0.0871 -0.474,0.1309 -0.789,0.1309 -0.53,0 -1.003,-0.2188 -1.415,-0.657 -0.423,-0.4582 -0.64,-1.1672 -0.649,-2.1262 v -4.2156 h -0.904 v 5.0703 c 0,0.282 -0.022,0.5429 -0.066,0.782 -0.059,0.2285 -0.155,0.4285 -0.287,0.5988 -0.118,0.1754 -0.283,0.3145 -0.494,0.4168 -0.212,0.0871 -0.475,0.1309 -0.789,0.1309 -0.532,0 -1.003,-0.2188 -1.416,-0.657 -0.423,-0.4582 -0.639,-1.1672 -0.649,-2.1262 v -4.2156 h -0.905 v 5.8308 c 0,0.584 -0.019,1.1797 -0.057,1.7879 h 0.909 v -1.2848 l 0.029,-0.0136 c 0.068,0.1402 0.163,0.2957 0.284,0.4668 0.097,0.1699 0.235,0.3277 0.414,0.4746 0.18,0.1504 0.402,0.282 0.669,0.3933 0.267,0.0977 0.599,0.1465 0.996,0.1465 0.18,0 0.374,-0.0195 0.582,-0.0586 0.199,-0.039 0.397,-0.1191 0.597,-0.2402 0.198,-0.1113 0.373,-0.2715 0.523,-0.4797 0.146,-0.2176 0.25,-0.4937 0.313,-0.8289 h 0.029 c 0.188,0.4563 0.492,0.8359 0.909,1.1414 0.407,0.3012 0.913,0.4563 1.52,0.466 0.77,-0.0097 1.364,-0.248 1.781,-0.716 0.407,-0.4617 0.611,-1.075 0.611,-1.8387 v -5.2468 h -0.905" /><path
       inkscape:connector-curvature="0"
       id="path62"
       style="fill:#2056ae;fill-opacity:1;fill-rule:nonzero;stroke:none;stroke-width:0.1"
       d="m 202.523,27.2727 c 0,0.6992 -0.141,1.3113 -0.424,1.8347 -0.298,0.5293 -0.787,0.8028 -1.467,0.8223 -0.666,-0.0195 -1.193,-0.2977 -1.58,-0.8367 -0.397,-0.5434 -0.595,-1.1504 -0.595,-1.8203 z m 0.443,-4.1055 c -0.693,-0.2695 -1.406,-0.4094 -2.142,-0.4192 -1.207,0.0247 -2.071,0.4094 -2.595,1.1536 -0.518,0.7293 -0.773,1.6757 -0.763,2.8386 0.01,1.1868 0.299,2.1477 0.869,2.8828 0.551,0.7297 1.298,1.0997 2.24,1.1094 1.031,-0.0195 1.785,-0.3945 2.261,-1.1242 0.452,-0.7144 0.679,-1.6004 0.679,-2.6559 v -0.4816 h -5.058 c 0,-0.8293 0.208,-1.5129 0.623,-2.05 0.405,-0.5699 1.01,-0.8609 1.812,-0.8699 0.359,0 0.736,0.0652 1.132,0.1972 0.397,0.1075 0.711,0.2317 0.942,0.3731 v -0.9539" /><path
       inkscape:connector-curvature="0"
       id="path64"
       style="fill:#2056ae;fill-opacity:1;fill-rule:nonzero;stroke:none;stroke-width:0.1"
       d="m 205.494,30.5496 h 0.903 v -7.6187 h -0.903 z m 0.903,2.0363 h -0.903 v 1.2539 h 0.903 v -1.2539" /><path
       inkscape:connector-curvature="0"
       id="path66"
       style="fill:#2056ae;fill-opacity:1;fill-rule:nonzero;stroke:none;stroke-width:0.1"
       d="m 208.814,28.7629 c 0,0.5828 -0.018,1.1785 -0.056,1.7867 h 0.882 v -1.3562 h 0.028 c 0.084,0.1796 0.186,0.3593 0.303,0.539 0.113,0.1809 0.257,0.343 0.43,0.4895 0.184,0.1601 0.41,0.2871 0.678,0.3789 0.273,0.0879 0.595,0.1316 0.966,0.1316 0.908,-0.0097 1.559,-0.2898 1.954,-0.8398 0.377,-0.5352 0.564,-1.2305 0.564,-2.0867 v -4.875 h -0.903 v 4.6394 c 0,0.7254 -0.13,1.3027 -0.389,1.7317 -0.284,0.4089 -0.739,0.6179 -1.366,0.6277 -0.811,-0.0195 -1.383,-0.3164 -1.713,-0.8906 -0.17,-0.2735 -0.29,-0.5684 -0.361,-0.8848 -0.075,-0.3309 -0.113,-0.6672 -0.113,-1.0078 v -4.2156 h -0.904 v 5.832" /><path
       inkscape:connector-curvature="0"
       id="path68"
       style="fill:#2056ae;fill-opacity:1;fill-rule:nonzero;stroke:none;stroke-width:0.1"
       d="m 216.561,24.0332 c 0.56,-0.3125 1.2,-0.4734 1.92,-0.4824 0.457,0 0.842,0.1238 1.158,0.3722 0.31,0.2286 0.47,0.5575 0.48,0.9864 -0.01,0.4527 -0.188,0.8086 -0.537,1.0664 -0.349,0.2488 -0.759,0.4726 -1.229,0.6726 -0.222,0.1067 -0.434,0.2215 -0.636,0.3426 -0.202,0.1223 -0.396,0.2563 -0.579,0.4028 -0.165,0.1597 -0.302,0.3457 -0.41,0.5546 -0.104,0.2 -0.156,0.4336 -0.156,0.702 0.01,0.7598 0.259,1.298 0.748,1.6144 0.476,0.3114 1.027,0.4676 1.653,0.4676 0.212,0 0.487,-0.0195 0.826,-0.0586 0.334,-0.0578 0.665,-0.1523 0.995,-0.2824 l -0.085,-0.8191 c -0.533,0.2285 -1.08,0.3476 -1.642,0.3574 -0.471,0 -0.846,-0.0867 -1.125,-0.2625 -0.145,-0.093 -0.258,-0.2188 -0.338,-0.3801 -0.085,-0.1562 -0.128,-0.3652 -0.128,-0.6277 0,-0.1563 0.054,-0.3047 0.163,-0.4465 0.103,-0.1316 0.242,-0.2512 0.417,-0.3574 0.174,-0.1024 0.372,-0.2071 0.593,-0.3145 0.222,-0.1023 0.439,-0.2121 0.651,-0.3293 0.481,-0.2086 0.9,-0.489 1.259,-0.8394 0.358,-0.3508 0.542,-0.836 0.551,-1.4543 0,-0.3992 -0.078,-0.7332 -0.232,-1.0008 -0.165,-0.2774 -0.372,-0.502 -0.621,-0.6723 -0.541,-0.3308 -1.114,-0.4969 -1.721,-0.4969 -0.71,0 -1.397,0.1204 -2.059,0.3614 l 0.084,0.9238" /><path
       inkscape:connector-curvature="0"
       id="path70"
       style="fill:#2056ae;fill-opacity:1;fill-rule:nonzero;stroke:none;stroke-width:0.1"
       d="m 227.743,29.5422 c -0.523,0.2488 -1.051,0.3777 -1.584,0.3875 -0.887,-0.0098 -1.565,-0.3016 -2.037,-0.8777 -0.495,-0.5903 -0.742,-1.3606 -0.742,-2.3118 0,-0.8875 0.243,-1.632 0.728,-2.2312 0.472,-0.6289 1.122,-0.9492 1.953,-0.9582 0.57,0 1.126,0.1144 1.668,0.3437 l 0.084,-0.8789 c -0.597,-0.1875 -1.228,-0.2773 -1.892,-0.2676 -1.187,0.0247 -2.07,0.429 -2.65,1.2122 -0.588,0.7683 -0.882,1.6953 -0.882,2.78 0.009,1.2063 0.345,2.1672 1.009,2.8828 0.661,0.7297 1.539,1.0997 2.636,1.1094 0.452,0 0.828,-0.034 1.13,-0.1015 0.155,-0.0293 0.29,-0.0606 0.402,-0.0938 0.109,-0.0391 0.192,-0.0723 0.247,-0.1016 l -0.07,-0.8933" /><path
       inkscape:connector-curvature="0"
       id="path72"
       style="fill:#2056ae;fill-opacity:1;fill-rule:nonzero;stroke:none;stroke-width:0.1"
       d="m 229.576,34.1406 h 0.903 v -4.8691 h 0.029 c 0.203,0.4269 0.502,0.7805 0.897,1.0605 0.396,0.2571 0.862,0.3907 1.399,0.4004 0.984,-0.0097 1.655,-0.3094 2.013,-0.8984 0.349,-0.5977 0.518,-1.3789 0.508,-2.3418 v -4.5613 h -0.903 v 4.5515 c 0,0.336 -0.019,0.6555 -0.057,0.9571 -0.042,0.2871 -0.125,0.541 -0.248,0.7597 -0.23,0.4778 -0.715,0.7207 -1.45,0.7305 -0.793,-0.0195 -1.359,-0.3328 -1.699,-0.9426 -0.335,-0.6082 -0.498,-1.2664 -0.489,-1.9723 v -4.0839 h -0.903 v 11.2097" /><path
       inkscape:connector-curvature="0"
       id="path74"
       style="fill:#2056ae;fill-opacity:1;fill-rule:nonzero;stroke:none;stroke-width:0.1"
       d="m 242.041,26.7703 h -0.262 c -0.396,0 -0.793,-0.0105 -1.189,-0.0301 -0.415,-0.0379 -0.793,-0.1242 -1.133,-0.2558 -0.34,-0.1172 -0.611,-0.2996 -0.813,-0.5489 -0.223,-0.2539 -0.333,-0.5898 -0.333,-1.0097 0,-0.4871 0.155,-0.8367 0.466,-1.0457 0.288,-0.2199 0.645,-0.3293 1.07,-0.3293 0.533,0 0.953,0.1094 1.259,0.3293 0.303,0.209 0.522,0.4578 0.659,0.7461 0.141,0.3125 0.222,0.6172 0.241,0.9148 0.023,0.3117 0.035,0.5684 0.035,0.7676 z m 0.084,-2.6199 h -0.028 c -0.212,-0.4453 -0.537,-0.7871 -0.975,-1.0242 -0.434,-0.2422 -0.891,-0.3684 -1.371,-0.3782 -0.514,0.0098 -0.929,0.095 -1.244,0.2551 -0.33,0.15 -0.582,0.3399 -0.756,0.5684 -0.308,0.4949 -0.451,0.9375 -0.432,1.3262 0,0.6367 0.149,1.1386 0.446,1.5078 0.292,0.3687 0.664,0.6336 1.117,0.7949 0.452,0.1648 0.944,0.2742 1.476,0.3269 0.524,0.0293 1.026,0.0442 1.506,0.0442 h 0.177 v 0.3894 c 0.029,1.3125 -0.532,1.9688 -1.685,1.9688 -0.763,0.0098 -1.488,-0.2 -2.172,-0.6317 v 0.9137 c 0.683,0.3274 1.406,0.5012 2.169,0.5207 1.747,0.0188 2.611,-0.9265 2.591,-2.8386 v -3.3645 c -0.014,-0.5789 0.011,-1.1121 0.077,-1.5984 h -0.896 v 1.2195" /><path
       inkscape:connector-curvature="0"
       id="path76"
       style="fill:#2056ae;fill-opacity:1;fill-rule:nonzero;stroke:none;stroke-width:0.1"
       d="m 245.982,29.7473 h -1.49 v 0.8023 h 1.49 v 0.5551 c 0,0.4082 0.019,0.8074 0.057,1.1961 0.019,0.3801 0.092,0.718 0.219,1.0148 0.122,0.3114 0.319,0.5567 0.593,0.7371 0.257,0.175 0.618,0.2629 1.079,0.2629 0.155,0 0.314,-0.0051 0.479,-0.0148 0.165,-0.0293 0.289,-0.0731 0.374,-0.1309 l -0.056,-0.8242 c -0.204,0.1113 -0.444,0.168 -0.722,0.168 -0.303,0 -0.531,-0.0711 -0.687,-0.2117 -0.166,-0.1614 -0.276,-0.3555 -0.333,-0.584 -0.056,-0.2285 -0.085,-0.4731 -0.085,-0.7309 -0.009,-0.2672 -0.014,-0.5254 -0.014,-0.773 v -0.6645 h 1.664 v -0.8023 h -1.664 v -6.8164 h -0.904 v 6.8164" /><path
       inkscape:connector-curvature="0"
       id="path78"
       style="fill:#2056ae;fill-opacity:1;fill-rule:nonzero;stroke:none;stroke-width:0.1"
       d="m 253.513,29.7473 h -1.679 v -4.9399 c 0,-0.3511 0.077,-0.6453 0.233,-0.8844 0.142,-0.2484 0.392,-0.3722 0.751,-0.3722 0.33,0 0.612,0.0605 0.842,0.1824 l 0.057,-0.7754 c -0.108,-0.0387 -0.258,-0.0816 -0.451,-0.1297 -0.203,-0.0539 -0.424,-0.0801 -0.663,-0.0801 -0.396,0 -0.708,0.0704 -0.939,0.2122 -0.222,0.1406 -0.389,0.3261 -0.501,0.5546 -0.099,0.2383 -0.162,0.5055 -0.19,0.8028 -0.029,0.3015 -0.043,0.6277 -0.043,0.9773 v 4.4524 h -1.447 v 0.8023 h 1.447 v 1.8391 l 0.904,0.3281 v -2.1672 h 1.679 v -0.8023" /><text
       transform="scale(1,-1)"
       style="font-variant:normal;font-weight:300;font-size:11px;font-family:Frutiger;-inkscape-font-specification:Frutiger-Light;writing-mode:lr-tb;fill:#6ba2dc;fill-opacity:1;fill-rule:nonzero;stroke:none"
       id="text84"
       x="97.460899"
       y="-2.7503901"><tspan
         x="97.460899 105.40524 110.90523 114.56734 123.7314 129.2314 135.34859 138.40523 144.52243 150.02243 154.30368 159.80368 165.30368 168.76755 173.64938 179.76755 182.8232 187.70601 193.8232 199.94136 206.05954 212.17673 217.67673 221.33974 223.78407 229.90128"
         y="-2.7503901"
         sodipodi:role="line"
         id="tspan82">German Research Foundation</tspan></text>
</g></svg>