<?xml version="1.0" encoding="UTF-8" standalone="no"?>
<!-- Created with Inkscape (http://www.inkscape.org/) -->

<svg
   xmlns:dc="http://purl.org/dc/elements/1.1/"
   xmlns:cc="http://creativecommons.org/ns#"
   xmlns:rdf="http://www.w3.org/1999/02/22-rdf-syntax-ns#"
   xmlns:svg="http://www.w3.org/2000/svg"
   xmlns="http://www.w3.org/2000/svg"
   xmlns:sodipodi="http://sodipodi.sourceforge.net/DTD/sodipodi-0.dtd"
   xmlns:inkscape="http://www.inkscape.org/namespaces/inkscape"
   id="svg2"
   version="1.1"
   inkscape:version="0.92.3 (2405546, 2018-03-11)"
   width="501.25"
   height="125"
   xml:space="preserve"
   sodipodi:docname="hgs_hire_inverted.svg"><metadata
     id="metadata8"><rdf:RDF><cc:Work
         rdf:about=""><dc:format>image/svg+xml</dc:format><dc:type
           rdf:resource="http://purl.org/dc/dcmitype/StillImage" /><dc:title /></cc:Work></rdf:RDF></metadata><defs
     id="defs6" /><sodipodi:namedview
     pagecolor="#ffffff"
     bordercolor="#666666"
     borderopacity="1"
     objecttolerance="10"
     gridtolerance="10"
     guidetolerance="10"
     inkscape:pageopacity="0"
     inkscape:pageshadow="2"
     inkscape:window-width="1920"
     inkscape:window-height="1052"
     id="namedview4"
     showgrid="false"
     inkscape:zoom="2.1329585"
     inkscape:cx="190.79383"
     inkscape:cy="-0.55102508"
     inkscape:window-x="1920"
     inkscape:window-y="0"
     inkscape:window-maximized="1"
     inkscape:current-layer="g10" /><g
     id="g10"
     inkscape:groupmode="layer"
     inkscape:label="logo-hgs-hire"
     transform="matrix(1.25,0,0,-1.25,0,125)"><g
       id="g12"
       transform="scale(0.1,0.1)"><g
         id="g16"
         transform="scale(10,10)"
         style="fill:#00589c;fill-opacity:1"><text
   transform="matrix(1,0,0,-1,22.982,47.9246)"
   id="text18"
   style="line-height:0%;fill:#00589c;fill-opacity:1"><tspan
     style="font-variant:normal;font-weight:normal;font-size:38px;line-height:1.25;font-family:Arial;-inkscape-font-specification:Arial;writing-mode:lr-tb;fill:#00589c;fill-opacity:1;fill-rule:nonzero;stroke:none"
     x="0 28.195995 58.519989 84.625984 98.039978 126.23598 137.55997 165.75597"
     y="0"
     sodipodi:role="line"
     id="tspan20">HGS-HIRe</tspan></text>

</g><path
         d="m 260.805,479.246 0,271.906 35.984,0 0,-111.968 139.953,0 0,111.968 35.985,0 0,-271.906 -35.985,0 0,127.953 -139.953,0 0,-127.953 -35.984,0 z m 407.976,106.953 0,32 114.969,0 0,-100.609 c -18.023,-13.824 -35.992,-24.61 -54.812,-31.703 -18.856,-6.973 -38.149,-10.641 -57.969,-10.641 -26.793,0 -51.055,5.711 -72.906,17.141 -21.93,11.711 -38.356,27.945 -49.5,49.562 -11.387,21.723 -16.719,45.774 -16.719,72.453 0,26.719 5.535,51.11 16.609,74.016 10.879,23.191 27.02,39.93 47.813,51.047 20.66,11.383 44.757,16.687 71.875,16.687 19.597,0.032 37.5,-3.214 53.406,-9.64 15.672,-6.184 28.375,-15.383 37.406,-26.86 9.004,-11.273 15.914,-26.437 20.625,-44.906 l -33.109,-8.891 c -4.274,13.899 -9.125,24.571 -15.188,32.407 -6.199,8.172 -14.699,14.117 -25.937,18.828 -11.399,4.758 -23.703,7.062 -37.422,7.062 -16.445,0.032 -30.617,-2.492 -42.594,-7.468 -12.14,-4.793 -21.648,-11.539 -29,-19.672 -7.508,-8.047 -13.058,-17.043 -17.14,-26.75 -7.024,-16.422 -10.36,-34.907 -10.36,-54.469 -0.328,-23.977 4.164,-44.313 12.5,-60.563 8.172,-16.234 20.461,-28.304 36.391,-36.187 15.644,-7.809 32.851,-11.813 50.75,-11.813 15.363,0.004 30.765,3.004 45.578,9.016 14.754,6.008 26.055,12.422 33.703,19.234 l 0,50.719 -78.969,0 z m 164.239,-18.984 33.984,3 c 1.254,-13.656 5.269,-24.883 11.062,-33.641 5.786,-8.527 14.805,-15.828 27.016,-21.234 12.188,-5.106 25.941,-8.11 41.203,-8.11 13.461,0.004 25.516,2.047 35.891,6.141 10.332,4.395 18.114,9.727 23.174,16.875 4.95,7.145 7.59,14.895 7.59,23.25 -0.31,8.738 -2.46,15.899 -7.37,22.234 -5.11,6.504 -12.996,11.657 -24.222,15.969 -7.309,3.024 -23.118,7.258 -47.75,13.25 -24.821,6.086 -41.953,11.645 -51.985,16.969 -13.187,6.91 -22.672,15.242 -29.047,25.328 -6.558,10.094 -9.562,21.391 -9.562,33.891 -0.328,13.773 3.875,26.578 11.625,38.515 7.555,12.145 19.082,21.016 33.969,27.203 14.691,6.329 31.429,9.297 49.64,9.297 19.977,0.032 37.739,-3.242 53.063,-9.718 15.229,-6.2 27.099,-15.993 35.339,-28.563 8.04,-12.437 12.68,-26.797 13.3,-42.703 l -34.98,-3 c -2.15,17.172 -8.03,30.094 -18.581,38.844 -10.672,8.836 -26.133,13.14 -46.734,13.14 -21.668,0.032 -37.102,-3.984 -46.922,-11.953 -10.047,-7.945 -14.719,-17.558 -14.719,-28.797 -0.328,-9.468 3.469,-17.777 10.406,-24.078 6.703,-5.996 24.672,-12.761 53.516,-19.375 28.539,-6.508 48.711,-12.371 59.614,-17.297 15.66,-7.074 27.52,-16.492 35.07,-27.656 7.35,-11.074 11.33,-24.012 11.33,-38.562 -0.31,-14.149 -4.12,-28.008 -12.34,-40.766 -8.42,-12.57 -20.05,-22.688 -35.46,-29.781 -15.445,-6.973 -32.745,-10.641 -52.027,-10.641 -24.461,0 -44.902,3.586 -61.422,10.75 -16.734,7.258 -29.464,17.961 -38.859,32.359 -9.656,14.704 -14.324,30.692 -14.812,48.86 z m 255.06,-6 0,33.984 103.96,0 0,-33.984 -103.96,0 z m 153.12,-81.969 0,271.906 35.99,0 0,-111.968 139.95,0 0,111.968 35.99,0 0,-271.906 -35.99,0 0,127.953 -139.95,0 0,-127.953 -35.99,0 z m 285.02,0 0,271.906 35.99,0 0,-271.906 -35.99,0 z m 110.19,0 0,271.906 119.87,0 c 23.77,0.032 42.33,-2.445 54.85,-7.328 12.27,-4.734 22.5,-13.484 29.98,-25.828 7.25,-12.25 11.22,-25.976 11.22,-40.922 -0.31,-19.195 -6.2,-35.48 -18.58,-48.687 -12.5,-12.922 -31.52,-21.606 -57.41,-25.188 9.18,-4.558 16.7,-9.078 21.63,-13.515 10.3,-9.438 20.36,-21.727 29.66,-36.297 l 46.73,-74.141 -44.84,0 -35.69,56.688 c -10.56,16.445 -19.02,28.847 -25.77,37.515 -6.96,8.942 -12.79,14.742 -18.12,18.203 -5.51,3.664 -10.76,5.883 -16.28,7.25 -4.14,0.977 -10.68,1.297 -19.88,1.297 l -41.39,0 0,-120.953 -35.98,0 z m 35.98,152.938 76.74,0 c 16.07,0.019 29.04,1.679 38.2,5.046 8.85,3.368 16.11,8.743 20.87,16.141 4.5,7.695 7.14,15.445 7.14,24.125 -0.3,12.969 -4.61,23.172 -13.84,31.359 -9.26,8.329 -23.81,12.297 -43.73,12.297 l -85.38,0 0,-88.968 z M 2048,543.23 l 34.25,-4 c -5.74,-20.265 -15.62,-36.007 -30.45,-47.203 -14.94,-11.117 -33.76,-16.781 -56.81,-16.781 -29.22,0 -52.05,8.828 -69.05,26.484 -17.17,17.836 -25.5,42.442 -25.5,74.329 0,33.039 8.6,58.57 25.78,76.781 16.93,18.351 39.49,27.328 66.91,27.328 26.3,0.023 48.2,-8.922 65.01,-26.766 16.58,-17.562 25.22,-42.953 25.22,-75.328 -0.31,-1.914 -0.06,-4.922 -0.18,-8.859 l -148.75,0 c 0.93,-21.637 7.49,-38.227 18.7,-49.735 10.99,-11.246 25.2,-17.25 41.95,-17.25 12.27,0.004 23.13,3.258 31.94,9.782 8.63,6.597 15.82,16.926 20.98,31.218 z m -112.57,52.969 112.95,0 c -1.84,16.711 -5.84,29.211 -12.94,37.547 -10.93,13.125 -25.09,19.438 -42.48,19.438 -15.92,0.019 -29,-5.168 -39.72,-15.5 -11,-10.149 -16.67,-24.164 -17.81,-41.485 z"
         style="fill:#00589c;stroke:#00589c;stroke-opacity:1;stroke-width:10;stroke-linecap:butt;stroke-linejoin:miter;stroke-miterlimit:4;stroke-dasharray:none;fill-opacity:1"
         id="path22" /><g
         id="g24"
         transform="scale(10,10)"><text
   transform="matrix(1,0,0,-1,23.8152,21.5605)"
   id="text26"
   style="line-height:0%;fill:#00589c;fill-opacity:1"><tspan
     style="font-variant:normal;font-weight:normal;font-size:14px;line-height:1.25;font-family:Arial;-inkscape-font-specification:Arial;writing-mode:lr-tb;fill:#00589c;fill-opacity:1;fill-rule:nonzero;stroke:none"
     x="0 10.108 17.892 21 32.661999 40.445999 48.23 51.338001 55.23 62.23 66.122002 77.014 81.676003 89.459999 97.244003 105.028 112.812 116.704 124.488 128.38 137.718 144.718 152.502 160.286 168.07001 171.17799 175.07001 178.96201 186.746 191.408 195.3 205.408 213.192 220.976 225.638 233.422 241.20599 245.09801 252.882 260.66599 268.45001 272.34259 276.23401 284.01801 291.802 295.694 305.802 313.58679 320.58679 328.37079 336.15479 340.81677 347.81677"
     y="0"
     sodipodi:role="line"
     id="tspan28">Helmholtz Graduate School for Hadron and Ion Research</tspan></text>

</g><path
         d="m 2366.95,713.301 c 0,-4.301 -4.3,-5.406 -7.8,-6.004 -4.65,12.906 -8.75,19.344 -16.82,23.219 -6.69,4.629 -15.5,2.199 -22.42,2.199 -5.03,-0.801 -12.81,-8.203 -13.22,-8.203 -15.65,0 -29.19,-53.797 -31.23,-62.864 -1.71,-12.683 -6.9,-23.234 -9.41,-35.632 -3.99,-19.727 -8.21,-28.633 11.21,-28.633 20.23,-3.852 47.09,-0.403 65.47,-0.403 8.68,0 -8.04,-9.812 -8.06,-9.824 -6.31,-2.101 -18.24,-1.027 -25.17,-2.183 -4.44,4.992 -27.03,-2.059 -34.13,-3.004 -30.69,-4.098 -14.71,-39.739 -22.33,-60.055 -6.98,-18.617 8.28,-175.762 6.6,-175.976 -20.99,27.625 -18.88,78.503 -20.21,111.113 -0.71,17.637 0.21,36.219 1.6,54.648 1.46,19.285 11.77,49.539 3.8,67.266 -8.96,-3.235 -23.72,-4.699 -32.63,-2.598 -7.16,1.68 -13.72,-2.195 -21.02,0 -3.16,0.946 -25.62,19.414 -9.61,19.414 14.52,0 32.43,-2.152 49.65,-1.394 12.64,0.554 13.8,-3.172 19.82,3.797 4.08,4.726 5.1,26.523 4.4,30.933 -2.04,13.008 12.16,25.375 9.61,38.133 -1.48,7.391 10.65,48.004 17.02,52.254 14.32,21.543 20.46,29.629 46.04,29.629 19.89,-1.379 37.32,-13.07 38.84,-35.832"
         style="fill:#e6af11;fill-opacity:1;fill-rule:nonzero;stroke:none"
         id="path30" /><path
         d="m 2366.95,713.301 c 0,-4.301 -4.3,-5.406 -7.8,-6.004 -4.65,12.906 -8.75,19.344 -16.82,23.219 -6.69,4.629 -15.5,2.199 -22.42,2.199 -5.03,-0.801 -12.81,-8.203 -13.22,-8.203 -15.65,0 -29.19,-53.797 -31.23,-62.864 -1.71,-12.683 -6.9,-23.234 -9.41,-35.632 -3.99,-19.727 -8.21,-28.633 11.21,-28.633 20.23,-3.852 47.09,-0.403 65.47,-0.403 8.68,0 -8.04,-9.812 -8.06,-9.824 -6.31,-2.101 -18.24,-1.027 -25.17,-2.183 -4.44,4.992 -27.03,-2.059 -34.13,-3.004 -30.69,-4.098 -14.71,-39.739 -22.33,-60.055 -6.98,-18.617 8.28,-175.762 6.6,-175.976 -20.99,27.625 -18.88,78.503 -20.21,111.113 -0.71,17.637 0.21,36.219 1.6,54.648 1.46,19.285 11.77,49.539 3.8,67.266 -8.96,-3.235 -23.72,-4.699 -32.63,-2.598 -7.16,1.68 -13.72,-2.195 -21.02,0 -3.16,0.946 -25.62,19.414 -9.61,19.414 14.52,0 32.43,-2.152 49.65,-1.394 12.64,0.554 13.8,-3.172 19.82,3.797 4.08,4.726 5.1,26.523 4.4,30.933 -2.04,13.008 12.16,25.375 9.61,38.133 -1.48,7.391 10.65,48.004 17.02,52.254 14.32,21.543 20.46,29.629 46.04,29.629 19.89,-1.379 37.32,-13.07 38.84,-35.832"
         style="fill:none;stroke:#e6af11;stroke-opacity:1;stroke-width:15;stroke-linecap:butt;stroke-linejoin:miter;stroke-miterlimit:4;stroke-dasharray:none"
         id="path32" /><path
         d="m 2496.85,560.09 c -5.3,-20.77 -7.35,-62.703 -30.43,-73.481 -10.7,-4.988 -27.36,-36.257 -45.24,-29.824 -18.63,-16.629 -34.37,-9.629 -51.25,8.203 -15.33,29.258 9,62.825 9,90.293 0,14.84 18.37,36.074 16.42,45.84 -1.9,9.461 13.6,15.676 18.85,22.242 11.38,14.215 15.36,2.832 30.2,11.395 29.56,-20.879 42.37,-34.508 52.45,-74.668 m -13.02,-11.418 c 11.59,14.496 -16.14,69.574 -39.03,71.269 -22.54,1.668 -10.45,-18.957 -19.92,-19.418 -9.04,-0.441 -18.08,-8.691 -22.73,-15.418 -4.3,-6.226 -3.92,-26.429 -8.9,-29.222 -6.1,-3.418 -9.17,-21.606 -11.52,-28.832 -3.98,-12.285 -11.17,-44.746 -2.4,-56.153 6.09,-7.91 47.85,-15.312 47.85,-0.898 12.14,6.023 23.56,12.605 35.83,26.426 3.38,4.652 34.52,47.094 20.82,52.246"
         style="fill:#e6af11;fill-opacity:1;fill-rule:nonzero;stroke:none"
         id="path34" /><path
         d="m 2496.85,560.09 c -5.3,-20.77 -7.35,-62.703 -30.43,-73.481 -10.7,-4.988 -27.36,-36.257 -45.24,-29.824 -18.63,-16.629 -34.37,-9.629 -51.25,8.203 -15.33,29.258 9,62.825 9,90.293 0,14.84 18.37,36.074 16.42,45.84 -1.9,9.461 13.6,15.676 18.85,22.242 11.38,14.215 15.36,2.832 30.2,11.395 29.56,-20.879 42.37,-34.508 52.45,-74.668 m -13.02,-11.418 c 11.59,14.496 -16.14,69.574 -39.03,71.269 -22.54,1.668 -10.45,-18.957 -19.92,-19.418 -9.04,-0.441 -18.08,-8.691 -22.73,-15.418 -4.3,-6.226 -3.92,-26.429 -8.9,-29.222 -6.1,-3.418 -9.17,-21.606 -11.52,-28.832 -3.98,-12.285 -11.17,-44.746 -2.4,-56.153 6.09,-7.91 47.85,-15.312 47.85,-0.898 12.14,6.023 23.56,12.605 35.83,26.426 3.38,4.652 34.52,47.094 20.82,52.246"
         style="fill:none;stroke:#e6af11;stroke-opacity:1;stroke-width:15;stroke-linecap:butt;stroke-linejoin:miter;stroke-miterlimit:4;stroke-dasharray:none"
         id="path36" /><path
         d="m 2683.72,622.977 c -4.75,-7.329 -40.22,-23.918 -50.25,-28.93 -14.23,-7.098 -28,-30.082 -35.04,-42.145 -9.86,-16.89 -13.52,-29.804 -19.88,-44.945 -4.6,-10.98 -5.52,-21.352 -6.35,-33.727 -0.6,-8.992 14.64,-19.546 -3.8,-17.617 0.27,-1.199 0.54,-2.398 0.8,-3.601 -19.74,0.82 -9.33,104.097 -11.41,125.722 -1.49,15.434 -6.6,23.434 -6.6,39.434 0,31.379 13.66,-1.598 15.45,-15.449 2.87,-22.211 -3.31,-56.883 7.56,-72.637 4.71,21.809 33.53,42.727 34.64,56.559 0.65,8.129 66.54,53.425 74.88,37.336"
         style="fill:#e6af11;fill-opacity:1;fill-rule:nonzero;stroke:none"
         id="path38" /><path
         d="m 2683.72,622.977 c -4.75,-7.329 -40.22,-23.918 -50.25,-28.93 -14.23,-7.098 -28,-30.082 -35.04,-42.145 -9.86,-16.89 -13.52,-29.804 -19.88,-44.945 -4.6,-10.98 -5.52,-21.352 -6.35,-33.727 -0.6,-8.992 14.64,-19.546 -3.8,-17.617 0.27,-1.199 0.54,-2.398 0.8,-3.601 -19.74,0.82 -9.33,104.097 -11.41,125.722 -1.49,15.434 -6.6,23.434 -6.6,39.434 0,31.379 13.66,-1.598 15.45,-15.449 2.87,-22.211 -3.31,-56.883 7.56,-72.637 4.71,21.809 33.53,42.727 34.64,56.559 0.65,8.129 66.54,53.425 74.88,37.336"
         style="fill:none;stroke:#e6af11;stroke-opacity:1;stroke-width:15;stroke-linecap:butt;stroke-linejoin:miter;stroke-miterlimit:4;stroke-dasharray:none"
         id="path40" /><path
         d="m 2996.54,673.477 c 3.53,0.742 21.01,3.105 21.01,-2.207 0,-7.598 -68.73,-10.176 -79.57,-10.407 -12.76,-0.265 -25.71,-5.468 -38.14,-2.8 -34.61,7.414 -29.78,-16.895 -28.22,-39.247 0.2,-3 -3.17,-38.48 0.8,-42.632 7.68,-8.063 44.74,2.191 52.85,2.593 25.81,1.289 66.31,5.711 91.48,0 -9.21,-11.789 -47.54,-13.125 -59.85,-14.011 -17.3,-1.246 -37.88,-0.887 -53.86,-2 -5.74,-0.403 -19.91,-0.836 -24.82,-3.801 -15.36,-9.258 -5.05,-26.781 -11.15,-44.82 -7.19,-21.219 -7.68,-50.637 -12.67,-74.899 -1.87,0.598 -5.83,1.777 -7.41,2.602 4.28,29.773 5.93,50.14 3.51,82.332 -1.9,25.371 7.3,43.023 -25.43,37.984 -7.06,-1.09 -14.47,3.844 -7.31,12.414 4.78,5.777 20.16,1.774 26.86,1.113 12.63,-1.242 10.58,5.664 10.58,15.106 0,17.285 4.44,54.578 -13.86,63.262 -5.45,2.582 -22.62,-10.696 -19.08,8.054 3.14,16.52 26.77,11.535 40.5,12.352 20.38,1.211 40.74,-1.328 59.9,1.613 10.18,1.567 62.35,5.059 73.88,-2.601"
         style="fill:#e6af11;fill-opacity:1;fill-rule:nonzero;stroke:none"
         id="path42" /><path
         d="m 2996.54,673.477 c 3.53,0.742 21.01,3.105 21.01,-2.207 0,-7.598 -68.73,-10.176 -79.57,-10.407 -12.76,-0.265 -25.71,-5.468 -38.14,-2.8 -34.61,7.414 -29.78,-16.895 -28.22,-39.247 0.2,-3 -3.17,-38.48 0.8,-42.632 7.68,-8.063 44.74,2.191 52.85,2.593 25.81,1.289 66.31,5.711 91.48,0 -9.21,-11.789 -47.54,-13.125 -59.85,-14.011 -17.3,-1.246 -37.88,-0.887 -53.86,-2 -5.74,-0.403 -19.91,-0.836 -24.82,-3.801 -15.36,-9.258 -5.05,-26.781 -11.15,-44.82 -7.19,-21.219 -7.68,-50.637 -12.67,-74.899 -1.87,0.598 -5.83,1.777 -7.41,2.602 4.28,29.773 5.93,50.14 3.51,82.332 -1.9,25.371 7.3,43.023 -25.43,37.984 -7.06,-1.09 -14.47,3.844 -7.31,12.414 4.78,5.777 20.16,1.774 26.86,1.113 12.63,-1.242 10.58,5.664 10.58,15.106 0,17.285 4.44,54.578 -13.86,63.262 -5.45,2.582 -22.62,-10.696 -19.08,8.054 3.14,16.52 26.77,11.535 40.5,12.352 20.38,1.211 40.74,-1.328 59.9,1.613 10.18,1.567 62.35,5.059 73.88,-2.601"
         style="fill:none;stroke:#e6af11;stroke-opacity:1;stroke-width:15;stroke-linecap:butt;stroke-linejoin:miter;stroke-miterlimit:4;stroke-dasharray:none"
         id="path44" /><path
         d="m 3304.17,563.879 c 0,-10.027 -55.27,-6.781 -57.85,-13.215 2.69,-6.809 18.76,-47.687 17.52,-53.051 -2.83,-12.164 29.05,-40.515 36.73,-49.449 -32.51,-17.273 -69.78,77.66 -72.26,102.5 -30.26,-7.094 -65.23,-9.402 -94.99,-9.402 -9.2,0 -13.62,-0.91 -21.03,1.898 -11.23,4.25 -38.18,-37.265 -44.39,-45.285 -8.88,-11.457 -31.45,-45.668 -47.4,-38.902 0.51,4.648 2.12,12.746 3.21,15.824 11.05,0.308 28.5,13.547 30.43,23.418 9.17,5.23 27.3,29.926 32.03,41.043 3.4,8.004 -8.23,8.203 -0.31,15.312 6.8,6.094 7.25,1.172 13.31,5.508 6.26,4.481 13.75,13.695 17.62,13.215 6.45,6.004 7.45,10.207 3.01,12.605 17.28,4.825 21.64,42.836 37.64,45.243 1.28,6.086 1.89,8.363 7.4,10.617 -0.37,14.199 16.68,41.832 27.83,49.25 24.04,-18.164 27.16,-53.121 36.44,-82.485 2.62,-8.312 15.12,-21.488 7.8,-32.031 10.19,-23.992 47.81,-10.558 67.26,-12.613 m -77.87,10.215 c -6.56,17.105 -12.05,52.019 -24.22,68.66 -22.86,30.914 -32.07,-24.996 -48.95,-33.629 -1.22,-0.625 -28.47,-35.016 -28.53,-35.832 -0.91,-13.457 12.74,-16.02 25.82,-16.02 12.26,0 24.08,1.129 36.65,2.004 18.9,1.313 39.71,-5.031 39.23,14.817"
         style="fill:#e6af11;fill-opacity:1;fill-rule:nonzero;stroke:none"
         id="path46" /><path
         d="m 3304.17,563.879 c 0,-10.027 -55.27,-6.781 -57.85,-13.215 2.69,-6.809 18.76,-47.687 17.52,-53.051 -2.83,-12.164 29.05,-40.515 36.73,-49.449 -32.51,-17.273 -69.78,77.66 -72.26,102.5 -30.26,-7.094 -65.23,-9.402 -94.99,-9.402 -9.2,0 -13.62,-0.91 -21.03,1.898 -11.23,4.25 -38.18,-37.265 -44.39,-45.285 -8.88,-11.457 -31.45,-45.668 -47.4,-38.902 0.51,4.648 2.12,12.746 3.21,15.824 11.05,0.308 28.5,13.547 30.43,23.418 9.17,5.23 27.3,29.926 32.03,41.043 3.4,8.004 -8.23,8.203 -0.31,15.312 6.8,6.094 7.25,1.172 13.31,5.508 6.26,4.481 13.75,13.695 17.62,13.215 6.45,6.004 7.45,10.207 3.01,12.605 17.28,4.825 21.64,42.836 37.64,45.243 1.28,6.086 1.89,8.363 7.4,10.617 -0.37,14.199 16.68,41.832 27.83,49.25 24.04,-18.164 27.16,-53.121 36.44,-82.485 2.62,-8.312 15.12,-21.488 7.8,-32.031 10.19,-23.992 47.81,-10.558 67.26,-12.613 m -77.87,10.215 c -6.56,17.105 -12.05,52.019 -24.22,68.66 -22.86,30.914 -32.07,-24.996 -48.95,-33.629 -1.22,-0.625 -28.47,-35.016 -28.53,-35.832 -0.91,-13.457 12.74,-16.02 25.82,-16.02 12.26,0 24.08,1.129 36.65,2.004 18.9,1.313 39.71,-5.031 39.23,14.817"
         style="fill:none;stroke:#e6af11;stroke-opacity:1;stroke-width:15;stroke-linecap:butt;stroke-linejoin:miter;stroke-miterlimit:4;stroke-dasharray:none"
         id="path48" /><path
         d="m 3395.04,669.395 c -4.86,-10.258 0.14,-28.372 -4.3,-39.336 -7.29,-18.012 -5.65,-33.946 -5.5,-48.75 0.25,-25.231 -9.46,-74.664 -4,-103.704 5.18,-4.683 3.16,-4.011 3.2,-8.601 4.53,-4.68 14.69,4.316 1.2,-11.613 -15.48,5.16 -26.41,66.078 -20.53,74.468 9.26,13.2 3.31,56.149 3.31,72.875 0,16.141 0.57,23.016 -3.6,35.637 3.93,0.961 12.07,17.207 6.41,24.219 1.69,3.711 19.77,21.379 23.81,4.805"
         style="fill:#e6af11;fill-opacity:1;fill-rule:nonzero;stroke:none"
         id="path50" /><path
         d="m 3395.04,669.395 c -4.86,-10.258 0.14,-28.372 -4.3,-39.336 -7.29,-18.012 -5.65,-33.946 -5.5,-48.75 0.25,-25.231 -9.46,-74.664 -4,-103.704 5.18,-4.683 3.16,-4.011 3.2,-8.601 4.53,-4.68 14.69,4.316 1.2,-11.613 -15.48,5.16 -26.41,66.078 -20.53,74.468 9.26,13.2 3.31,56.149 3.31,72.875 0,16.141 0.57,23.016 -3.6,35.637 3.93,0.961 12.07,17.207 6.41,24.219 1.69,3.711 19.77,21.379 23.81,4.805"
         style="fill:none;stroke:#e6af11;stroke-opacity:1;stroke-width:15;stroke-linecap:butt;stroke-linejoin:miter;stroke-miterlimit:4;stroke-dasharray:none"
         id="path52" /><path
         d="m 3755.86,490.488 c 9.29,-25.644 -58.78,-25.84 -67.66,-31.035 -4.97,4.602 -26.19,10.918 -32.23,9.813 -11.72,-2.125 -17.82,10.605 -28.04,10.605 -15.7,0 -41.26,31.363 -51.25,41.047 -12.21,11.855 -27.46,31.117 -43.83,36.434 -13.27,-7.594 -20.45,4.89 -10.22,14.816 13.24,12.844 34.27,-7.383 55.26,0 7.56,0.855 89.89,7.383 89.89,20.82 33.28,8.637 1.2,32.879 -13.52,39.985 -11.96,5.777 -26.46,5.195 -38.03,10.062 -24.42,10.266 -55.34,0.996 -80.98,4.199 -40.83,5.106 -29.98,-52.546 -31.63,-82.078 -2.41,-18.519 8.56,-103.379 -11.42,-105.703 6.55,21.465 -6.2,47.949 -6.2,63.867 0,11.782 6.2,24.942 6.2,37.637 0,13.621 -2.62,25.473 2.8,38.633 -9.7,2.922 -4.18,16.195 -5.4,26.426 -1.74,14.609 -2.28,11.586 -13.01,14.218 -7.28,1.782 -14.31,-7.351 -15.62,-7.011 -8.05,6.507 -16.58,11.625 -4.3,19.82 9.43,6.293 25.34,-1.117 33.74,5.41 18.62,14.485 14.33,-4.894 32.22,3.805 15.49,-2.492 31.42,-1.278 47.45,-2.406 25.05,-1.762 57.97,1.093 73.47,-13.016 0,1.734 0,3.473 0,5.207 16.99,-5.234 36.32,-11.352 45.87,-25.727 16.53,-24.89 -8.81,-40.824 -28.25,-48.945 -4.92,-2.055 -13.01,-2.742 -18.62,-4.605 -4.82,-1.746 -11.55,-1.957 -15.82,-3.953 -11.71,-5.473 -10.62,0.16 -18.11,-3.458 -14.76,-7.128 -31.64,-0.96 -48.75,-5.199 9.15,-11.125 18.85,-20.769 30.33,-29.527 4.06,-3.102 4.95,-8.106 8.71,-11.52 5.57,-5.562 1.13,-10.855 10.71,-11.203 7.24,-0.265 6.57,-1.285 11.7,-6.511 16.08,-16.336 49.48,-16.668 58.67,-28.125 10.54,4.335 56.48,9.621 64.46,6.601 5.01,3.813 7.7,5.473 11.41,10.617"
         style="fill:#e6af11;fill-opacity:1;fill-rule:nonzero;stroke:none"
         id="path54" /><path
         d="m 3755.86,490.488 c 9.29,-25.644 -58.78,-25.84 -67.66,-31.035 -4.97,4.602 -26.19,10.918 -32.23,9.813 -11.72,-2.125 -17.82,10.605 -28.04,10.605 -15.7,0 -41.26,31.363 -51.25,41.047 -12.21,11.855 -27.46,31.117 -43.83,36.434 -13.27,-7.594 -20.45,4.89 -10.22,14.816 13.24,12.844 34.27,-7.383 55.26,0 7.56,0.855 89.89,7.383 89.89,20.82 33.28,8.637 1.2,32.879 -13.52,39.985 -11.96,5.777 -26.46,5.195 -38.03,10.062 -24.42,10.266 -55.34,0.996 -80.98,4.199 -40.83,5.106 -29.98,-52.546 -31.63,-82.078 -2.41,-18.519 8.56,-103.379 -11.42,-105.703 6.55,21.465 -6.2,47.949 -6.2,63.867 0,11.782 6.2,24.942 6.2,37.637 0,13.621 -2.62,25.473 2.8,38.633 -9.7,2.922 -4.18,16.195 -5.4,26.426 -1.74,14.609 -2.28,11.586 -13.01,14.218 -7.28,1.782 -14.31,-7.351 -15.62,-7.011 -8.05,6.507 -16.58,11.625 -4.3,19.82 9.43,6.293 25.34,-1.117 33.74,5.41 18.62,14.485 14.33,-4.894 32.22,3.805 15.49,-2.492 31.42,-1.278 47.45,-2.406 25.05,-1.762 57.97,1.093 73.47,-13.016 0,1.734 0,3.473 0,5.207 16.99,-5.234 36.32,-11.352 45.87,-25.727 16.53,-24.89 -8.81,-40.824 -28.25,-48.945 -4.92,-2.055 -13.01,-2.742 -18.62,-4.605 -4.82,-1.746 -11.55,-1.957 -15.82,-3.953 -11.71,-5.473 -10.62,0.16 -18.11,-3.458 -14.76,-7.128 -31.64,-0.96 -48.75,-5.199 9.15,-11.125 18.85,-20.769 30.33,-29.527 4.06,-3.102 4.95,-8.106 8.71,-11.52 5.57,-5.562 1.13,-10.855 10.71,-11.203 7.24,-0.265 6.57,-1.285 11.7,-6.511 16.08,-16.336 49.48,-16.668 58.67,-28.125 10.54,4.335 56.48,9.621 64.46,6.601 5.01,3.813 7.7,5.473 11.41,10.617"
         style="fill:none;stroke:#e6af11;stroke-opacity:1;stroke-width:15;stroke-linecap:butt;stroke-linejoin:miter;stroke-miterlimit:4;stroke-dasharray:none"
         id="path56" /><path
         d="m 256.02,392.883 c 194.55,-0.383 389.148,-3.957 583.585,-10.492 154.829,-5.196 309.195,17.113 464.175,3.332 177.77,-15.821 358.5,6.535 537.91,17.019 182.39,10.656 366.27,19.746 549.06,12.199 153.97,-6.355 305.43,-41.726 458.34,-56.789 114.96,-11.316 233.41,-3.132 348.93,-3.152 122.08,-0.02 235.68,2.859 356.34,25.676 29.95,5.664 208.53,46.797 220.6,12.207"
         style="fill:none;stroke:#e6af11;stroke-opacity:1;stroke-width:30;stroke-linecap:butt;stroke-linejoin:miter;stroke-miterlimit:4;stroke-dasharray:none"
         id="path58" /></g></g></svg>