<?xml version="1.0" encoding="UTF-8" standalone="no"?>
<svg
   xmlns:dc="http://purl.org/dc/elements/1.1/"
   xmlns:cc="http://creativecommons.org/ns#"
   xmlns:rdf="http://www.w3.org/1999/02/22-rdf-syntax-ns#"
   xmlns:svg="http://www.w3.org/2000/svg"
   xmlns="http://www.w3.org/2000/svg"
   xmlns:sodipodi="http://sodipodi.sourceforge.net/DTD/sodipodi-0.dtd"
   xmlns:inkscape="http://www.inkscape.org/namespaces/inkscape"
   viewBox="0 0 209.33333 84"
   height="84"
   width="209.33333"
   xml:space="preserve"
   id="svg2"
   version="1.1"
   sodipodi:docname="tud_logo.svg"
   inkscape:version="0.92.3 (2405546, 2018-03-11)"><sodipodi:namedview
     pagecolor="#ffffff"
     bordercolor="#666666"
     borderopacity="1"
     objecttolerance="10"
     gridtolerance="10"
     guidetolerance="10"
     inkscape:pageopacity="0"
     inkscape:pageshadow="2"
     inkscape:window-width="1920"
     inkscape:window-height="1052"
     id="namedview1039"
     showgrid="false"
     inkscape:zoom="3.4227708"
     inkscape:cx="92.356453"
     inkscape:cy="46.935609"
     inkscape:window-x="1920"
     inkscape:window-y="0"
     inkscape:window-maximized="1"
     inkscape:current-layer="svg2" /><metadata
     id="metadata8"><rdf:RDF><cc:Work
         rdf:about=""><dc:format>image/svg+xml</dc:format><dc:type
           rdf:resource="http://purl.org/dc/dcmitype/StillImage" /></cc:Work></rdf:RDF></metadata><defs
     id="defs6" /><path
     id="path16"
     style="fill:#231f20;fill-opacity:1;fill-rule:nonzero;stroke:none;stroke-width:0.13333333"
     d="m 61.100532,69.849467 c -0.682267,-0.282267 -1.872933,-0.634933 -3.112,-0.963467 0.04067,0.685867 0.126,1.314 0.245867,1.870254 0.957333,-0.253187 1.914533,-0.55412 2.866133,-0.906787 z m -3.136533,-1.550533 c 1.534933,0.4032 3.202666,0.889066 3.847999,1.276533 0.5464,-0.218133 1.091067,-0.4536 1.632267,-0.707733 -0.974933,-0.524 -3.278133,-1.252134 -5.458266,-1.8636 -0.024,0.448 -0.0308,0.880266 -0.022,1.2948 z m 3.946399,1.841733 c -0.024,0.01347 -0.04893,0.02333 -0.07547,0.02907 -1.717734,0.673493 -3.4568,1.179226 -5.188,1.536 -0.02613,0.01041 -0.05427,0.01615 -0.0844,0.01771 -1.595867,0.32448 -3.184933,0.52344 -4.7432,0.610934 -0.02613,0.0063 -0.05373,0.0083 -0.0824,0.0047 -5.225466,0.282813 -10.106266,-0.680213 -13.7672,-2.324 l -0.125466,-0.0572 c -0.03547,-0.0079 -0.06773,-0.02347 -0.09533,-0.04387 -6.229199,-2.886933 -9.039066,-8.003066 -2.9468,-12.128533 -0.625066,-1.0448 -1.450533,-2.0136 -2.258399,-3.065733 -0.2588,-0.3364 -0.5208,-0.685867 -0.780667,-1.052 -0.4824,1.280133 -0.538533,2.104133 0.273867,3.259867 0.09333,0.1328 0.06,0.268266 -0.026,0.354666 l -4.344267,5.204667 c -0.114,0.137067 -0.303067,0.140667 -0.4224,0.01 -21.7296795,-23.8136 3.033333,-59.9375986 32.945332,-49.543332 0.1828,0.06307 0.247867,0.244266 0.1484,0.4104 l -4.690666,7.7724 c -0.04787,0.104266 -0.1536,0.1808 -0.304667,0.152133 -1.456666,-0.2724 -2.348933,-0.188533 -2.976533,0.415067 1.35,0.2344 2.743733,0.590133 4.177067,1.0776 1.279733,-1.413467 2.638,-2.723867 4.104666,-3.895734 0.01933,-0.0188 0.0412,-0.03547 0.0652,-0.04907 0.076,-0.04733 0.154133,-0.05253 0.2224,-0.03013 0.0692,0.01773 0.131733,0.06453 0.170267,0.145867 0.01307,0.02387 0.0224,0.04893 0.02813,0.076 l 2.697333,7.9172 c 0.0276,0.06253 0.03387,0.133333 0.01053,0.2 -0.0224,0.06613 -0.07093,0.118266 -0.1308,0.151066 -0.088,0.05773 -0.174934,0.1156 -0.262,0.174934 0.554133,1.669866 4.4208,13.296399 5.612533,16.426533 0.374,0.980266 1.1964,2.764133 1.210933,3.8032 0.01453,1.059866 -0.719733,1.549466 -2.229733,1.658266 -0.750533,0.721867 -0.864,0.983867 -0.4588,1.520933 0.804667,1.065067 0.359867,1.546267 -0.536533,2.262934 0.869866,0.702666 0.672933,1.969333 0.243333,1.9896 -0.628667,0.0292 -0.867733,0.225466 -1.225067,0.726533 2.7568,2.7104 0.478134,5.022933 -3.1916,5.797467 -1.160933,0.245333 -2.5,0.358266 -3.943733,0.307733 -0.0027,0.01467 -0.0063,0.02973 -0.01093,0.04533 -0.495333,1.5532 -0.776133,3.0516 -0.893333,4.4224 2.460933,0.687067 5.368799,1.593733 6.133333,2.235467 0.02613,0.01773 0.04947,0.04053 0.0688,0.06613 0.05827,0.06827 0.074,0.145333 0.06147,0.216133 -0.0084,0.07133 -0.04587,0.140667 -0.120266,0.190134 -0.02347,0.01667 -0.0496,0.03067 -0.0772,0.04013 -0.721867,0.351467 -1.45,0.671333 -2.181734,0.9604 z M 36.173999,59.500534 c 0.014,0.0312 0.02387,0.06453 0.02653,0.09893 0.176,0.6688 0.2552,1.390134 0.203067,2.1912 1.708933,-1.170933 1.286,-3.128133 0.781867,-4.0532 -0.438134,0.2932 -0.885467,0.572934 -1.341734,0.8396 0.129734,0.297867 0.2412,0.6052 0.330267,0.923467 z m -0.446933,0.5568 c -1.240134,0.7864 -1.8192,1.686933 -1.918267,2.587467 0.8224,-0.101067 1.480267,-0.2828 2.0016,-0.521867 0.086,-0.752667 0.048,-1.433333 -0.08333,-2.0656 z m -1.918267,3.152 c 0.03813,0.361467 0.148533,0.718267 0.318267,1.0636 3.9188,-0.06773 6.856266,-3.971333 4.740133,-7.7568 -0.3984,0.312 -0.804133,0.614133 -1.218267,0.9036 0.787467,1.425067 1.445867,5.180267 -3.840133,5.7896 z m 0.644267,1.611466 c 0.3136,0.448 0.7256,0.8672 1.206266,1.239067 5.720934,-1.621333 6.911467,-6.414533 4.654667,-10.750533 -0.328533,0.291733 -0.662933,0.5756 -1.002533,0.852133 2.396933,4.1468 -0.732267,8.380667 -4.8584,8.659333 z m 1.793333,1.648 c 0.542667,0.340534 1.145733,0.623867 1.776533,0.828134 7.0448,-3.563067 5.3484,-10.836 3.739067,-13.343867 -0.333867,0.330267 -0.672933,0.6532 -1.0172,0.9688 2.421333,4.516667 1.304667,9.674533 -4.4984,11.546933 z M 58.259865,37.813601 c 2.4604,-0.9548 5.485467,-1.407866 7.8448,-0.668266 -1.057733,-3.112 -2.1552,-6.394267 -2.766667,-8.229734 -0.02293,3.168267 -1.462,6.1568 -4.565599,7.4156 -0.1156,0.507867 -0.2844,1.002134 -0.512534,1.4824 z m -0.897866,0.468133 c 0.01147,-0.0312 0.0292,-0.0604 0.05413,-0.08693 0.4068,-0.666667 0.676533,-1.362 0.831733,-2.088 0.0011,-0.03133 0.0073,-0.062 0.0188,-0.0912 0.130667,-0.6552 0.169334,-1.3344 0.131734,-2.041066 -0.0072,-0.0308 -0.0099,-0.06307 -0.0052,-0.0948 -0.03227,-0.510934 -0.1036,-1.036534 -0.2072,-1.5756 -0.3548,0.4068 -0.703734,0.821866 -1.046934,1.2448 0.155734,1.8084 -0.267733,3.779733 -2.178666,5.540133 0.05893,0.562 0.06253,1.111466 0.01613,1.645866 1.061467,-0.773466 1.840667,-1.589066 2.385467,-2.4532 z m -14.447467,16.7276 c 0.1636,-0.597333 0.481334,-1.130133 0.907867,-1.554133 -0.197333,-0.413067 -0.321867,-0.8344 -0.407333,-1.2364 -0.408267,0.452533 -0.8244,0.895733 -1.248934,1.328133 0.254667,0.380667 0.515067,0.878 0.7484,1.4624 z m 1.353734,-1.929067 c 0.338533,-0.239066 0.7208,-0.419333 1.1328,-0.5272 -0.219867,-0.589066 -0.404134,-1.288 -0.490667,-2.068666 -0.335867,0.4068 -0.677067,0.807733 -1.0224,1.203066 0.07293,0.458934 0.181333,0.934934 0.380267,1.3928 z m -13.4188,2.137467 c 0,-0.6584 0.212,-1.324533 0.528667,-2.105733 -1.394267,-2.0776 -2.674534,-4.7208 -3.095334,-8.686 -0.0068,-0.0276 -0.0104,-0.05627 -0.0088,-0.0844 -0.03853,-0.376 -0.06933,-0.764533 -0.09173,-1.1656 -0.0072,-0.0296 -0.0099,-0.06093 -0.0052,-0.09373 -0.0073,-0.133334 -0.01307,-0.267734 -0.01827,-0.404134 -0.04893,-1.2828 0.03293,-2.5792 0.238134,-3.8656 -0.0021,-0.0376 0.0041,-0.07347 0.01707,-0.106266 0.06307,-0.383334 0.1376,-0.766134 0.2224,-1.146934 -4e-4,-0.03853 0.0073,-0.0776 0.0256,-0.114533 0.8312,-3.628133 2.640667,-7.107333 5.268267,-9.896933 0.01813,-0.02707 0.04107,-0.05093 0.0676,-0.0708 0.7756,-0.815067 1.621466,-1.5708 2.533866,-2.252533 l 0.0172,-0.01307 c 1.428134,-1.065067 3.019334,-1.950533 4.757334,-2.602666 0.01827,-0.0099 0.03747,-0.0172 0.05627,-0.02133 2.1292,-0.792666 4.4776,-1.235866 7.0172,-1.235866 0.1484,-0.0152 0.297333,-0.01413 0.442667,0.0047 0.936933,0.0192 1.899466,0.09787 2.8864,0.242667 0.438133,-0.563467 0.979733,-0.859867 1.638133,-0.968667 -0.05733,-0.01627 -0.114667,-0.03133 -0.171867,-0.04693 -0.01107,-0.0021 -0.02147,-0.0047 -0.03133,-0.0079 -1.223467,-0.3224 -2.449467,-0.5192 -3.668267,-0.600933 l -0.0192,-5.33e-4 c -6.470799,-0.424 -12.715599,2.421866 -17.028666,7.163466 l -0.01253,0.0136 c -0.871333,0.959333 -1.663467,1.9968 -2.362933,3.099467 -0.0073,0.01453 -0.01573,0.0276 -0.0256,0.04067 -0.645867,1.023334 -1.211467,2.1036 -1.685334,3.231734 -0.0027,0.0073 -0.0057,0.01347 -0.0089,0.0208 -0.465067,1.1084 -0.8416,2.2636 -1.1192,3.455733 -1.071333,4.604133 -0.6688,9.755733 1.8156,14.969866 l 0.0041,0.0072 c 0.514534,1.079733 1.118267,2.160933 1.816667,3.2412 z m 1.0516,-2.333333 c 0.0244,0.0244 0.04427,0.05253 0.05773,0.0844 0.202667,0.296266 0.407334,0.580666 0.611467,0.856133 1.102133,-0.8504 2.140666,-1.754133 3.126133,-2.703067 -0.486,-0.25 -0.928133,-0.473999 -1.335467,-0.702533 -0.758266,0.766133 -1.277066,1.112933 -2.574533,1.097333 -0.211866,-0.0021 -0.3276,-0.162533 -0.264533,-0.364533 0.2328,-0.743333 0.01413,-2.519333 -5.33e-4,-3.4412 -0.105734,-0.179733 -0.209867,-0.371333 -0.313467,-0.575466 -0.345867,0.07187 -0.767733,0.09627 -1.3428,0.09627 -0.320267,0 -0.426,-0.271333 -0.189067,-0.487466 0.8688,-0.7916 0.738534,-1.926 0.921334,-3.385467 -0.4968,0.262 -1.395734,0.888133 -1.742667,1.136 0.428667,3.8344 1.6828,6.377066 3.0464,8.3896 z m 2.7312,3.635333 C 46.112532,48.837468 50.695865,34.849468 60.966665,26.036001 l -1.518266,-0.305733 c -0.298934,-0.06627 -0.298934,-0.05947 -0.2672,-0.397467 l 0.248533,-2.133866 c -9.488,9.690666 -14.783866,25.590666 -25.536533,32.339599 0.255733,0.328667 0.504133,0.6536 0.739067,0.9812 z M 61.344265,21.385468 c -0.433867,0.3796 -0.858267,0.771867 -1.274933,1.177067 l -0.313067,2.6468 1.760933,0.3636 c 0.322934,-0.266134 0.652134,-0.527067 0.986934,-0.783334 l -0.233867,-0.688 c -0.504133,0.171867 -1.051467,-0.09693 -1.223333,-0.601599 -0.171867,-0.504134 0.0968,-1.0516 0.601466,-1.223467 z M 36.334932,51.273467 c -1.0792,1.060934 -2.2172,2.066134 -3.426533,2.999467 l 0.08067,0.1052 c 0.186,0.242667 0.3724,0.480667 0.5568,0.7156 5.651066,-3.526533 9.780666,-9.664533 13.884399,-16.160933 3.556667,-5.630133 7.292134,-11.926533 12.141067,-16.670266 0.01987,-0.02867 0.04373,-0.0516 0.0708,-0.06933 0.490666,-0.477067 0.992266,-0.938534 1.5068,-1.3812 l -0.4296,-1.262 c -1.874,1.5344 -3.5772,3.311466 -5.157333,5.221333 -0.0156,0.0276 -0.036,0.05213 -0.0604,0.07293 -3.040667,3.6896 -5.628134,7.869333 -8.109467,11.757333 -1.306133,2.0468 -2.631733,4.105733 -4.0276,6.112933 -0.01347,0.0308 -0.03227,0.0568 -0.05467,0.0792 -0.565067,0.8104 -1.1416,1.612534 -1.733867,2.4016 -0.01453,0.02867 -0.0328,0.05253 -0.05467,0.0724 -0.4276,0.568667 -0.863466,1.1312 -1.308266,1.685334 -0.0136,0.0256 -0.0328,0.04907 -0.0568,0.0704 -0.650534,0.8072 -1.3208,1.5968 -2.015067,2.364 -0.0172,0.02707 -0.03853,0.05053 -0.06413,0.0704 -0.5516,0.6072 -1.118267,1.199466 -1.702,1.775999 z m -0.2152,-0.564666 c 0.419867,-0.416667 0.831334,-0.8416 1.233334,-1.273333 -2.617067,-0.4276 -4.058267,-1.661467 -4.634267,-3.2084 -0.3604,0.345333 -0.645333,0.578133 -0.970933,0.731733 0.0828,0.160533 0.166133,0.311467 0.250533,0.4548 0.0328,0.03013 0.05893,0.0708 0.0724,0.1208 1.0568,1.733867 2.2344,2.239067 4.048933,3.1744 z m 1.6928,-1.773867 c 0.430134,-0.476133 0.851467,-0.960933 1.263467,-1.452666 -4.802,1.364666 -7.837466,-6.2088 0.368267,-9.317734 -0.5912,-0.2 -1.185867,-0.4172 -1.766667,-0.669733 -5.3328,2.388 -7.112533,10.502133 0.134933,11.440133 z m 2.0052,-2.3568 c 0.4208,-0.524 0.8328,-1.056266 1.237467,-1.593733 0.1932,-1.416667 -0.1724,-2.995333 -1.940133,-3.786533 -0.502534,0.2584 -0.9572,0.568266 -1.327067,0.938533 2.6032,0.418267 2.549467,3.693867 0.192667,3.693867 -1.953067,0 -1.851467,-2.419867 -1.0052,-3.6 0.012,-0.02147 0.02667,-0.04173 0.04387,-0.05893 l 0.0072,-0.0093 c 0.418267,-0.5396 1.041734,-1.057867 1.913067,-1.500533 0.0276,-0.02187 0.05987,-0.03907 0.09587,-0.04787 0.6348,-0.312533 1.3968,-0.586533 2.300933,-0.801067 0.0324,-0.01467 0.06773,-0.02347 0.1048,-0.024 0.5432,-0.124933 1.1364,-0.228666 1.783333,-0.307333 -0.5032,-0.227067 -1.0688,-0.4312 -1.679733,-0.633333 -0.397467,-0.131734 -0.807333,-0.261467 -1.224533,-0.3952 -8.848933,2.8588 -5.2948,10.661333 -0.502534,8.125466 z m 1.8416,-2.4084 c 0.391734,-0.5348 0.776134,-1.075466 1.155734,-1.6208 -0.109334,-0.549466 -0.708267,-1.547866 -1.4296,-2.163466 -0.545334,0.1328 -1.097467,0.301466 -1.619867,0.514533 1.368267,0.7864 1.856267,2.050533 1.893733,3.269733 z m 1.5568,-2.201466 c 0.407334,-0.593734 0.808934,-1.192267 1.206267,-1.793734 -0.0984,-0.07613 -0.202133,-0.149066 -0.311467,-0.219333 -0.571333,0.04747 -1.294266,0.133333 -2.061466,0.2844 0.5032,0.513467 0.936533,1.1692 1.166666,1.728667 z m 1.5156,-2.264134 c 0.4104,-0.626533 0.817734,-1.256266 1.2224,-1.887466 -1.547333,-0.359334 -4.357733,-0.164534 -6.1088,-0.126534 0.609334,0.209867 1.237467,0.412934 1.876,0.6244 0.940667,0.311467 1.836534,0.644267 2.5688,1.090667 0.0312,0.012 0.0588,0.0292 0.0812,0.05053 0.1256,0.07867 0.245867,0.161467 0.3604,0.2484 z m 1.540667,-2.385333 c 0.289067,-0.452133 0.577066,-0.9052 0.8656,-1.3584 -1.7172,-0.5364 -4.4948,-0.409333 -6.1844,-0.3844 -2.063467,0.03133 -4.210933,0.048 -5.8896,-0.373866 0.871467,0.803066 1.9448,1.382266 3.137067,1.875466 0.843733,0.140667 2.951066,0.01307 3.671866,-0.0068 1.576534,-0.04213 3.3052,-0.05253 4.399467,0.248 z m 1.176,-1.847466 c 0.244266,-0.384934 0.489066,-0.768667 0.733866,-1.152534 -2.201999,-0.844266 -5.739599,-0.5532 -8.005199,-0.547466 -2.630134,0.0073 -5.2812,-0.169734 -6.990133,-1.612 0.260933,0.864666 0.636533,1.585466 1.104799,2.198 2.520267,1.080666 7.372267,0.5224 10.342667,0.668133 1.049467,0.0516 2.0224,0.172933 2.814,0.445867 z m 1.0412,-1.633867 c 0.254133,-0.3968 0.508266,-0.792667 0.763466,-1.186933 -0.877066,-0.286934 -1.731733,-0.481734 -2.578533,-0.612 -0.0292,0 -0.05787,-0.0047 -0.08547,-0.01307 -2.2224,-0.332267 -4.3948,-0.230667 -6.783867,-0.214 -1.483333,0.01093 -2.869733,-0.04373 -4.087467,-0.430267 -0.0328,-0.0036 -0.06507,-0.014 -0.09533,-0.03013 -1.0036,-0.334933 -1.889067,-0.9032 -2.6156,-1.8568 -0.07293,0.0948 -0.1448,0.190133 -0.216133,0.2864 0.02653,0.464667 0.07547,0.8996 0.145733,1.307867 1.423467,1.862 4.166667,2.129733 7.2396,2.121866 2.426667,-0.0063 5.998533,-0.315066 8.313601,0.627067 z m 6.8276,-9.645333 c 0.2692,-0.3228 0.542666,-0.641067 0.8188,-0.9552 -1.4792,-0.49 -2.914134,-0.835867 -4.301067,-1.05 -0.02347,-5.33e-4 -0.04587,-0.0041 -0.0688,-0.0104 -0.6464,-0.0984 -1.2828,-0.1672 -1.908267,-0.209867 0.242667,0.342667 0.385867,0.838 0.356134,1.517734 0.3308,0.2812 0.520933,0.686399 0.563066,1.106266 0.407867,-0.2516 0.952134,-0.329733 1.566667,-0.1276 0.507333,-1.129733 2.0224,-1.304266 2.973467,-0.270933 z m -31.106266,33.456799 5.136933,-3.839067 c -0.2448,-0.4396 -0.474933,-0.878666 -0.690533,-1.318266 l -4.293734,2.618266 c -0.319333,0.1948 -0.611466,-0.2844 -0.292266,-0.4792 l 4.342666,-2.6484 c -0.1728,-0.371866 -0.335866,-0.7432 -0.488533,-1.114533 l -5.8984,2.743733 c 0.607867,1.364534 1.333867,2.713467 2.183867,4.037467 z m 5.416666,-3.347867 -5.1088,3.818667 c 0.8552,1.280267 1.8276,2.536533 2.923867,3.76 l 4.007867,-4.8016 c -0.265067,-0.362 -0.519334,-0.724533 -0.763067,-1.087467 l -3.822933,3.7812 c -0.266134,0.2636 -0.660934,-0.135866 -0.3948,-0.398933 l 3.902666,-3.859867 c -0.261466,-0.403733 -0.509333,-0.807866 -0.7448,-1.212 z m -7.824,-1.204666 5.913067,-2.750533 c -0.148933,-0.387067 -0.288,-0.772934 -0.4156,-1.1584 l -4.830267,1.4188 c -0.3588,0.104666 -0.5172,-0.433867 -0.157733,-0.539067 l 4.8172,-1.415067 c -0.160933,-0.522933 -0.302133,-1.045333 -0.424533,-1.565733 l -6.411467,1.3688 c 0.361467,1.557333 0.862,3.107866 1.509333,4.6412 z m -1.6312,-5.189067 6.410934,-1.3688 c -0.09587,-0.455733 -0.177067,-0.910933 -0.2448,-1.362533 l -5.1052,0.478133 c -0.3724,0.03547 -0.424934,-0.523466 -0.05267,-0.558266 l 5.0824,-0.476534 c -0.0636,-0.510533 -0.108933,-1.017733 -0.136533,-1.520933 l -6.549467,-0.131733 c 0.05213,1.6416 0.246934,3.293733 0.595333,4.940666 z m -0.607333,-5.502133 6.537067,0.1312 c -0.0136,-0.4468 -0.0136,-0.89 -5.34e-4,-1.330133 l -5.058933,-0.5584 c -0.371867,-0.04107 -0.3104,-0.598934 0.06147,-0.558267 l 5.021333,0.5552 c 0.03133,-0.562 0.08333,-1.1188 0.156267,-1.6688 L 19.9036,37.662534 c -0.2416,1.560934 -0.3572,3.145734 -0.338534,4.742667 z m 0.429734,-5.2964 6.367733,1.310933 c 0.06867,-0.434266 0.150533,-0.862933 0.244266,-1.288533 l -4.878133,-1.5364 c -0.3568,-0.111466 -0.188,-0.647466 0.168667,-0.534933 l 4.8376,1.523467 c 0.104666,-0.4224 0.221333,-0.840667 0.35,-1.254134 l -5.868267,-2.9292 c -0.532267,1.5312 -0.9432,3.1052 -1.221866,4.7088 z m 1.412533,-5.2416 5.853066,2.9224 c 0.142667,-0.4208 0.298,-0.836533 0.464667,-1.246933 l -4.473467,-2.7416 c -0.3188,-0.195867 -0.02507,-0.674 0.2932,-0.478133 l 4.401067,2.697333 c 0.195333,-0.447333 0.404667,-0.886933 0.6276,-1.3176 l -5.264667,-4.013067 c -0.735333,1.342667 -1.371866,2.740134 -1.901466,4.1776 z m 2.178133,-4.673466 5.2552,4.006266 c 0.191067,-0.3484 0.391067,-0.691733 0.599467,-1.028666 l -3.857867,-3.7 c -0.269733,-0.2588 0.1188,-0.664 0.389067,-0.404667 l 3.776,3.6208 c 0.282933,-0.4328 0.580266,-0.856267 0.890666,-1.268667 l -4.430666,-5.116666 c -0.9688,1.2312 -1.8464,2.533333 -2.621867,3.8916 z m 2.979067,-4.336933 4.422933,5.109333 c 0.2776,-0.350534 0.5652,-0.692134 0.861467,-1.024534 l -3.2792,-4.508266 c -0.220267,-0.302133 0.233866,-0.632267 0.453733,-0.329733 l 3.211467,4.414666 c 0.326533,-0.349467 0.664,-0.689067 1.010933,-1.0172 l -3.490133,-6.012533 c -1.1464,1.0432 -2.213067,2.170267 -3.1912,3.368267 z m 3.618266,-3.750534 3.486,6.0052 c 0.302,-0.2724 0.610933,-0.536 0.926533,-0.791733 l -2.296933,-5.288533 c -0.149466,-0.343734 0.3656,-0.5672 0.514667,-0.223867 l 2.238,5.153067 c 0.400533,-0.3088 0.810933,-0.6036 1.230133,-0.8844 l -2.2952,-6.820267 c -1.342266,0.852533 -2.6136,1.8068 -3.8032,2.850533 z m 4.2932,-3.154133 2.2912,6.807733 c 0.361467,-0.2292 0.7292,-0.447866 1.102533,-0.655733 l -1.356133,-5.6848 c -0.08707,-0.364133 0.4588,-0.4944 0.545733,-0.130267 l 1.321334,5.538534 c 0.4,-0.2088 0.805733,-0.406267 1.2172,-0.5912 l -0.99,-7.377067 c -1.437067,0.5912 -2.8172,1.2928 -4.131867,2.0928 z m 4.669333,-2.307333 0.988,7.359866 c 0.4292,-0.1792 0.864,-0.344266 1.304134,-0.4964 l -0.201467,-6.140533 c -0.012,-0.373467 0.5484,-0.3928 0.560933,-0.01827 l 0.195734,5.976534 c 0.4308,-0.135334 0.866133,-0.2572 1.3052,-0.364534 l 0.522933,-7.693733 c -1.612,0.330133 -3.173467,0.793733 -4.675467,1.377067 z m 5.245867,-1.488 -0.521867,7.673466 c 0.502534,-0.108933 1.009867,-0.199066 1.520267,-0.269866 l 0.927067,-6.064534 c 0.05627,-0.369866 0.611466,-0.2844 0.554666,0.08533 l -0.902533,5.907866 c 0.3948,-0.04373 0.7916,-0.07547 1.19,-0.09587 l 1.984933,-7.707734 c -1.622933,0.02707 -3.209866,0.188534 -4.752533,0.471334 z m 5.333333,-0.475067 -1.9808,7.690667 c 0.508933,-0.01093 1.019333,-0.0027 1.531733,0.026 l 1.8964,-6.0672 c 0.111467,-0.356667 0.647467,-0.1896 0.535467,0.167733 l -1.856267,5.939067 c 0.464534,0.03907 0.930667,0.09427 1.397334,0.1672 l 3.232266,-7.528134 c -1.6124,-0.262533 -3.2004,-0.390666 -4.756133,-0.395333 z m 5.324933,0.4928 -3.231733,7.528133 c 0.420267,0.078 0.840667,0.169734 1.2604,0.275467 l 3.171867,-6.122933 c 0.171866,-0.331734 0.670266,-0.074 0.4984,0.2584 l -3.115067,6.013466 c 0.5484,0.154667 1.0964,0.3344 1.642133,0.5396 l 4.402134,-7.2948 c -1.559867,-0.524933 -3.104134,-0.9208 -4.628134,-1.197333 z M 44.869732,29.088001 c -0.0052,0.04747 -0.02133,0.09373 -0.05,0.1328 -0.03067,0.04227 -0.07493,0.07613 -0.134266,0.0948 -0.01467,0.0052 -0.03027,0.0084 -0.04693,0.012 -0.471333,0.08173 -0.949466,0.06933 -1.411466,-0.0224 -0.05,0.0464 -0.1052,0.09067 -0.1656,0.1328 0.07973,0.5328 0.352533,1.216134 0.983333,1.807334 0.421867,0.014 0.8416,0.0364 1.261467,0.07027 l 1.2692,-5.1516 c -1.3796,-0.406133 -1.760934,-2.854666 0.098,-3.170266 -0.01467,-0.401067 0.1552,-0.7588 0.428667,-1.038 -0.979733,0.0604 -1.9276,0.190133 -2.841733,0.382267 l 0.261467,2.875599 c 0.0099,0.03227 0.012,0.0656 0.0093,0.0984 l 0.0276,0.3052 c 0.03387,0.3724 -0.524933,0.423467 -0.5588,0.05053 l -0.02027,-0.2204 -1.156266,-0.820267 c -0.301067,0.2552 -0.492267,0.635467 -0.492267,1.060933 0,0.766134 0.6224,1.3896 1.390133,1.3896 0.1396,0 0.274534,-0.0208 0.4016,-0.05933 l -0.0093,-0.101067 c -0.03387,-0.3724 0.524933,-0.422933 0.5588,-0.05053 l 0.02653,0.286933 c 0.0047,0.0224 0.0068,0.04427 0.0057,0.06613 l 0.164133,1.800533 c 0.0025,0.02707 0.0025,0.048 9.33e-4,0.06773 z m -2.086933,-5.177599 0.165067,0.116666 c 0.01987,0.0104 0.03813,0.024 0.0552,0.0396 l 0.909466,0.6448 -0.204133,-2.248933 c -0.731867,0.176 -1.440667,0.392667 -2.126133,0.6468 -1.456267,1.588533 -1.290534,3.268266 -0.383867,4.391733 0.0308,0.02493 0.05573,0.05573 0.07453,0.0896 0.7188,0.8312 1.852134,1.331733 3.013467,1.218667 l -0.111867,-1.223867 c -0.145866,0.03427 -0.297466,0.05307 -0.4532,0.05307 -1.0776,0 -1.951066,-0.874 -1.951066,-1.950534 0,-0.5552 0.231333,-1.0552 0.602133,-1.409866 -0.138533,-0.230267 0.1432,-0.557333 0.4104,-0.367733 z m -0.247867,5.194266 c -0.602133,-0.230667 -1.152133,-0.5968 -1.591733,-1.058267 -1.973467,0.5052 -3.6844,-0.968266 -4.3348,-2.174533 -0.6772,0.523467 -1.315733,1.089067 -1.913067,1.690667 l 1.201067,0.318666 c 0.01453,0.0032 0.02907,0.0068 0.0432,0.01147 l 0.304667,0.0808 c 0.04427,0.0031 0.08907,0.01667 0.1308,0.04533 0.04267,0.02547 0.0744,0.0588 0.09627,0.09627 1.4256,1.6136 4.792267,1.640667 6.0636,0.9896 z m -1.990133,-1.55 c -0.75,-1.0916 -0.9276,-2.550533 0.0093,-4.029733 -1.251466,0.55 -2.417733,1.226133 -3.491066,2.006266 0.5052,1.022934 1.910933,2.26 3.481733,2.023467 z m -4.475467,0.9532 -0.06,-0.01573 c -0.194266,0.575066 -0.1708,1.7792 -0.01973,2.386 1.0948,0.326 2.369733,0.382266 3.811467,0.371866 1.200533,-0.0079 2.343733,-0.0364 3.465066,-0.02187 -0.4036,-0.5068 -0.624933,-1.0432 -0.724933,-1.515067 -1.6724,0.668133 -4.978667,0.450933 -6.471867,-1.2052 z m 0.954667,8.684267 c -0.360933,-0.179067 -0.714133,-0.374934 -1.054667,-0.592134 -0.417733,0.300534 -0.798533,0.5948 -1.145866,0.882267 -0.01307,0.01307 -0.02653,0.02507 -0.04173,0.03547 -0.7396,0.6156 -1.325466,1.203067 -1.791599,1.761467 -0.012,0.01867 -0.02613,0.03533 -0.04173,0.05107 -0.210933,0.2552 -0.395733,0.504133 -0.559866,0.747866 -0.012,0.0292 -0.02973,0.0568 -0.05307,0.08013 -0.6604,1.006266 -0.951067,1.91 -1.1,2.716266 -0.220933,1.192667 -0.0548,2.730134 -0.748,3.780667 1.087067,-0.06453 1.3896,-0.3692 2.052133,-1.035867 -0.6636,-2.984933 1.479733,-6.8224 4.4844,-8.427199 z m 0.333333,5.465199 c -0.074,0.109334 -0.1412,0.223334 -0.201066,0.342667 -0.645867,1.282267 0.04893,2.268267 0.8244,2.268267 1.7516,0 1.648,-2.512534 -0.623334,-2.610934 z m -3.173466,-5.367733 c -0.976533,-0.762533 -2.024533,-1.6104 -2.5688,-2.726533 -0.09213,0.631733 -0.04107,1.226 0.09013,1.772933 l 0.0047,0.02027 c 0.2276,0.9276 0.686,1.716666 1.069333,2.310933 0.392134,-0.443733 0.856267,-0.9036 1.404667,-1.3776 z m -2.061467,11.307333 c 0.05267,0.784267 0.125467,1.574934 0.0156,2.348933 0.8984,-0.06253 1.238,-0.323999 1.726533,-0.819866 -0.656133,-0.409333 -1.220799,-0.868133 -1.742133,-1.529067 z m -0.278133,-10.415733 -1.092667,0.552133 0.570267,1.2188 c 0.210933,-0.102666 0.425467,-0.183866 0.640133,-0.2396 0.133334,-0.195866 0.279734,-0.394266 0.440667,-0.595866 -0.200533,-0.309334 -0.388667,-0.6208 -0.5584,-0.935467 z m -3.101067,4.9808 c 0.0136,0.2312 0.0292,0.458267 0.04853,0.681733 0.5276,-0.380133 1.385333,-0.963066 1.9052,-1.1224 0.130133,-0.679733 0.355733,-1.421866 0.787466,-2.2244 -0.04427,0.0228 -0.08853,0.0468 -0.1328,0.0708 -0.01253,0.0083 -0.0256,0.0156 -0.03907,0.02187 -1.2084,0.692667 -2.318267,2.088 -2.569334,2.5724 z m 0.107334,-3.558933 c -0.1068,0.871866 -0.1552,1.746933 -0.142667,2.617733 0.273867,-0.354133 0.637467,-0.7672 1.056667,-1.157733 z m 0.3208,-1.873867 c -0.074,0.337467 -0.1396,0.676 -0.196267,1.015067 l 1.2176,1.944266 c 0.204267,-0.1656 0.4172,-0.321866 0.636,-0.461466 -0.977067,-2.0244 -1.1724,-1.599467 0.764,-2.549467 -0.1432,-0.3088 -0.2656,-0.6224 -0.362,-0.9412 -0.520267,0.1224 -1.3572,0.498 -2.059333,0.9928 z m 3.116666,-7.239066 c -1.342133,1.980666 -2.331733,4.1776 -2.926533,6.45 0.6036,-0.356267 1.2484,-0.632267 1.7344,-0.748 -0.1688,-0.8588 -0.129733,-1.761867 0.223467,-2.7364 0.121333,-0.336 0.486933,-0.3 0.540533,0.05253 0.2208,1.4292 1.650533,2.546933 2.764133,3.413067 0.2656,-0.216134 0.55,-0.435867 0.852533,-0.6568 -1.616666,-1.182267 -2.869733,-2.935334 -3.188533,-5.7744 z m 1.962,-2.464667 c -0.305733,0.328133 -0.6,0.666133 -0.8828,1.013067 0.561467,0.778133 1.233333,1.288533 2.010933,1.620266 -0.1016,-0.69 -0.107866,-1.6796 0.09013,-2.3104 z m 15.771333,-1.856667 c -0.2536,0.151467 -0.571333,0.245734 -0.955733,0.255734 -0.109334,0.794266 -0.207734,1.644266 -0.09213,2.430666 l 1.4864,-1.601066 c -0.266133,-0.355734 -0.4052,-0.7292 -0.438533,-1.085334 z m -1.658267,1.705734 c -0.419866,-0.103734 -0.831866,-0.234934 -1.006266,-0.6688 -0.0776,-0.1932 0.542133,-0.09693 0.618266,-0.09533 0.151467,0.0041 0.300934,-0.03333 0.449467,-0.07867 0.03387,-0.309867 0.076,-0.618134 0.118133,-0.9224 0.0011,-0.0077 0.0021,-0.01613 0.0037,-0.02493 0.014,-0.1 0.02813,-0.199466 0.04107,-0.298933 0.05053,-0.369867 0.6032,-0.295867 0.5568,0.07187 1.654667,-0.1376 1.329734,-2.502667 -0.4208,-2.1552 -0.366666,0.07333 -0.476133,-0.4776 -0.108933,-0.550533 0.396933,-0.07867 0.741733,-0.06093 1.0328,0.026 -0.1828,-2.373467 -3.821866,-0.924534 -1.748933,0.855733 0.2844,0.2432 -0.0812,0.669333 -0.365067,0.425466 -0.3636,-0.311866 -0.597333,-0.621333 -0.728667,-0.917199 -1.291066,0.198 -0.916133,1.787066 -0.09373,2.073466 l 0.01093,-0.04627 c 0.0896,-0.363066 0.634934,-0.2292 0.545334,0.1348 l -0.07187,0.290134 c -0.0021,0.012 -0.0052,0.02453 -0.0089,0.03693 l -1.315067,5.338133 c 0.229734,0.02387 0.459334,0.05253 0.6896,0.08533 l 1.940667,-2.090534 c -0.120934,-0.4844 -0.152667,-0.985466 -0.138534,-1.489066 z m 2.771334,1.933333 c -0.309334,-0.429733 -0.4208,-1.062 -0.316667,-1.56 0.05307,-0.256267 0.304667,0.152667 0.354133,0.200533 0.172934,0.169334 0.409334,0.274534 0.642134,0.3724 0.4724,-0.677066 0.952666,-1.3468 1.443866,-2.0072 0.5536,-0.745333 1.118134,-1.474533 1.697867,-2.183866 -0.961467,-1.150533 -2.591733,-0.4964 -2.139067,1.321333 0.09013,0.363467 -0.454666,0.498933 -0.5448,0.135333 -0.101066,-0.404666 -0.121333,-0.766133 -0.0792,-1.080666 -1.229066,-0.406267 -2.106666,0.713066 -1.3432,1.829733 0.2552,-0.2412 0.644267,0.130133 0.3948,0.398933 l -2.185866,2.354667 c -0.01827,0.02867 -0.04173,0.0536 -0.0688,0.07347 l -1.762534,1.899466 c 0.767734,0.139067 1.544267,0.333334 2.342267,0.602 0.514533,-0.7916 1.035333,-1.5776 1.565067,-2.356133 z m -2.478667,15.725466 c 3.119333,-1.2412 4.106267,-3.7672 3.9568,-5.778666 -0.709867,1.0432 -1.393733,2.065066 -2.055733,3.0344 -0.6256,0.915066 -1.257334,1.833333 -1.901067,2.744266 z m 6.205733,-7.129733 c 1.324534,-1.3484 1.747867,-2.798933 1.745867,-4.19 -0.726133,0.921867 -1.427067,1.868667 -2.104667,2.818667 0.1572,0.462 0.276,0.919866 0.3588,1.371333 z m 4.052134,-5.0244 c 1.421333,-1.167733 1.982266,-2.367733 1.946266,-3.840133 -0.760933,0.697333 -1.496266,1.45 -2.209333,2.240133 0.119733,0.544267 0.209333,1.0776 0.263067,1.6 z m -0.0204,2.287467 c 2.888533,-1.3568 4.119866,-4.455733 3.847466,-7.690667 -0.457867,0.3412 -0.9068,0.704267 -1.348,1.087067 0.1896,1.989067 -0.5172,3.540533 -2.4296,4.991067 0.02333,0.550533 0.0025,1.088533 -0.06987,1.612533 z m -11.364,12.082266 c 0.01093,-0.002 0.0224,-0.0031 0.03387,-0.0036 3.2948,-0.3204 6.180134,-2.9412 6.771867,-6.4276 0,-0.0292 0.0041,-0.0584 0.01453,-0.08653 0.1104,-0.697867 0.128667,-1.429067 0.0412,-2.182267 -0.0084,-0.02867 -0.01253,-0.05827 -0.0104,-0.088 -0.05733,-0.4448 -0.150533,-0.897333 -0.284933,-1.354666 -0.342267,0.486933 -0.678667,0.9724 -1.009867,1.455733 0.4812,2.478667 -0.6584,5.9484 -4.9928,7.260933 -0.35,0.488534 -0.704666,0.973467 -1.063466,1.4536 0.167733,-0.0031 0.3344,-0.01293 0.5,-0.0276 z m -12.119333,9.966667 c 0.0089,0.01307 0.0172,0.02707 0.024,0.04173 0.05787,0.102533 0.114,0.206267 0.168266,0.310933 1.101467,-0.645333 2.1468,-1.373466 3.1452,-2.1704 0.01253,-0.0124 0.02613,-0.02333 0.0412,-0.03333 0.469867,-0.376 0.9292,-0.768133 1.378667,-1.172933 0.0192,-0.02387 0.0416,-0.04373 0.0672,-0.0604 0.455733,-0.412934 0.9016,-0.8396 1.338533,-1.278134 0.01613,-0.0208 0.03547,-0.04053 0.05627,-0.05667 0.5848,-0.589067 1.1536,-1.2 1.7088,-1.828667 0.01987,-0.03853 0.048,-0.06987 0.08173,-0.0932 0.499067,-0.567733 0.986534,-1.1496 1.465734,-1.741733 0.01813,-0.0412 0.04573,-0.07347 0.07853,-0.0984 0.426667,-0.530267 0.845867,-1.069867 1.259467,-1.6156 0.03693,-0.05 0.03333,-0.036 0.06827,-0.09013 0.462933,-0.614134 0.9192,-1.235467 1.3692,-1.863067 0.01413,-0.03387 0.03547,-0.06453 0.06453,-0.09067 1.65,-2.304666 3.224,-4.6796 4.806267,-6.977066 0.01253,-0.0276 0.0292,-0.05147 0.04947,-0.0724 0.450533,-0.6536 0.9016,-1.3 1.3552,-1.938 0.0136,-0.02867 0.0324,-0.05413 0.0548,-0.07547 0.780666,-1.095333 1.570266,-2.161466 2.378533,-3.181333 0.07613,-0.09627 0.152667,-0.192133 0.2292,-0.287467 0.01613,-0.03173 0.038,-0.0588 0.06413,-0.08013 0.472934,-0.586 0.952,-1.156267 1.44,-1.705733 0.01573,-0.0256 0.03547,-0.04693 0.0584,-0.0652 0.8724,-0.979067 1.772934,-1.8932 2.712533,-2.721867 0.01867,-0.02333 0.0416,-0.04373 0.0672,-0.05933 0.590534,-0.517734 1.196267,-1.000534 1.820267,-1.445334 0.02187,-0.02133 0.04733,-0.0396 0.07493,-0.05307 l 0.0896,-0.06253 c 0.01413,-0.012 0.02973,-0.02293 0.04693,-0.0328 0.08693,-0.0604 0.174933,-0.120266 0.263066,-0.179733 l -0.540666,-1.5864 c -0.3052,0.235333 -0.6052,0.476 -0.901067,0.719733 -0.01453,0.0156 -0.03067,0.0292 -0.04893,0.0412 -10.573467,8.7812 -15.094266,23.033867 -26.792666,30.868266 0.161866,0.242667 0.315066,0.4864 0.4572,0.735334 z m 10.095333,1.036533 c 0.0188,0.0031 0.03747,0.0083 0.0552,0.01453 0.231333,0.0588 0.4724,0.0896 0.721333,0.0896 0.704667,0 1.351067,-0.248933 1.856267,-0.6636 0.0099,-0.0099 0.0208,-0.01813 0.03173,-0.02653 0.635467,-0.5364 1.039067,-1.339067 1.039067,-2.236933 0,-0.433867 -0.09427,-0.845867 -0.263467,-1.2156 -0.01307,-0.02093 -0.02347,-0.04227 -0.03133,-0.06573 -0.474934,-0.973866 -1.474934,-1.6452 -2.632267,-1.6452 -0.146266,0 -0.2896,0.01093 -0.430133,0.0312 l -0.05987,0.0099 c -0.533866,0.0896 -1.019333,0.324 -1.4136,0.662 l -0.04067,0.03493 c -0.6036,0.535867 -0.983867,1.3176 -0.983867,2.188534 0,1.347866 0.911467,2.4828 2.1516,2.822933 z m -7.5776,10.626 c 0.856267,-0.301067 1.618267,-0.671867 2.294267,-1.092667 0.02453,-0.02293 0.05267,-0.0412 0.08493,-0.05373 0.642133,-0.407734 1.2068,-0.861467 1.701067,-1.344267 0.01613,-0.02187 0.03533,-0.04107 0.0572,-0.0568 2.507866,-2.49 3.188,-5.744266 3.117733,-7.59 -0.577067,-0.190666 -1.087467,-0.5292 -1.486933,-0.969333 0.301466,3.258933 -0.740667,7.1896 -5.480267,9.5568 -0.0744,0.04067 -0.0932,0.04733 -0.1312,0.05107 -0.0292,0.002 -0.09013,0.0011 -0.168267,-0.02707 -0.8052,-0.2552 -1.629733,-0.6776 -2.3604,-1.2136 -0.09213,-0.06307 -0.09213,-0.0656 -0.173466,-0.1312 -0.6516,-0.504667 -1.217734,-1.1 -1.612534,-1.7448 -0.0468,-0.07507 -0.04427,-0.06933 -0.0728,-0.124 -0.936533,-1.6344 -0.759466,-3.567733 1.883334,-5.151067 -0.130267,-0.421866 -0.301067,-0.822933 -0.5032,-1.210933 -5.394267,3.686533 -3.2568,8.2552 2.850533,11.1016 z m 2.542667,-0.585467 c -0.549467,0.338 -1.152,0.644267 -1.811467,0.91 3.229733,1.36088 7.385467,2.197853 11.836,2.124413 -2.6224,-1.019266 -7.501067,-2.555746 -10.024533,-3.034413 z M 42.313999,67.374 c -0.359333,0.344267 -0.7536,0.672934 -1.183733,0.980667 3.141066,0.684933 8.717599,2.51564 10.681199,3.418773 1.2,-0.06928 2.418267,-0.204693 3.644267,-0.414066 -3.3588,-1.142707 -10.136,-3.258307 -13.141733,-3.985374 z m 3.433867,-7.996933 c 0.02867,1.9032 -0.657734,5.029733 -2.975467,7.531733 3.4948,0.8808 11.024933,3.257334 13.7916,4.2412 0.375066,-0.0776 0.750533,-0.163026 1.126133,-0.254693 -0.480267,-2.21304 -0.434933,-5.455707 0.663467,-8.958906 -3.1364,-0.201467 -6.707734,-1.164534 -10.0088,-3.194267 -0.5776,0.424533 -1.2912,0.675067 -2.063067,0.675067 -0.1812,0 -0.359866,-0.0136 -0.533866,-0.04013 z m -0.01973,-7.626533 c 0.07133,0.2516 0.151067,0.486933 0.235867,0.7052 0.1048,-0.0088 0.210533,-0.01413 0.317733,-0.01413 0.553733,0 1.0776,0.128666 1.5428,0.3584 0.352533,-1.5036 -1.130267,-2.1588 -2.0964,-1.049467 z m 2.010933,-2.807866 c 2.4984,0.604266 3.352667,3.813066 1.777067,5.678133 0.1636,0.404666 0.2536,0.845866 0.2536,1.3084 0,0.9432 -0.373867,1.798933 -0.9812,2.426 4.892133,2.952666 10.3568,3.515066 13.969866,2.753066 3.776,-0.797866 5.132267,-2.8156 2.749467,-5.004666 -0.4136,-0.380134 0.713467,-1.4172 1.542667,-1.514534 0.0932,-0.5412 -0.129734,-0.922933 -0.5672,-1.1464 -1.176,-0.1104 -3.056267,0.507867 -4.299467,0.7876 -0.07293,0.243734 -0.433333,0.306667 -0.528667,0.0088 -0.1292,-0.404666 0.2068,-1.025066 0.2948,-1.213066 0.1708,-0.364534 0.633867,-0.1244 0.4724,0.198533 -0.05733,0.115067 -0.119733,0.266133 -0.166666,0.413467 1.290133,-0.304134 3.002133,-0.852534 4.225466,-0.758267 0.302667,-0.222933 1.1084,-0.823467 0.937067,-1.226133 -0.048,-0.111467 -0.1376,-0.2432 -0.282267,-0.435334 -0.602666,-0.797466 -0.346933,-1.356266 0.209334,-1.952666 -0.959334,-0.1224 -2.177067,0.0021 -2.822934,0.719867 -0.3724,0.414533 -1.038,-0.688534 -1.1088,-0.850534 -0.266666,-0.61 -0.223466,-1.420933 0.706667,-2.281333 0.274533,-0.254667 0.655733,0.157333 0.381333,0.411467 -0.742266,0.687066 -0.932266,1.430266 -0.232266,2.131333 l 0.03173,0.0312 c 1.003067,-0.825467 2.407333,-0.914 3.635333,-0.626533 l 0.01053,0.002 0.0093,-4e-4 c 2.126,-0.139067 1.9568,-0.9964 1.4052,-2.555734 -0.217733,-0.614666 -0.512533,-1.330266 -0.824533,-2.149066 -0.4552,-1.196267 -1.3,-3.630134 -2.202534,-6.277067 -2.421866,-0.951066 -5.865066,-0.3932 -8.511466,0.7828 -0.652133,1.0256 -1.6104,1.9876 -2.946933,2.886 -0.649467,3.6172 -3.611467,6.3604 -7.047867,6.791067 z m -0.554133,-0.088 0.07027,-0.524 c -0.213467,0.01053 -0.4292,0.012 -0.645867,0.0037 -0.389066,0.512 -0.783333,1.0192 -1.1848,1.518667 0.01813,0.436 0.06973,0.849599 0.145734,1.235999 1.189599,-0.989599 3.454799,-0.329733 2.752666,2.010934 0.362533,0.262 0.671867,0.592133 0.910933,0.970266 1.2412,-1.752533 0.179734,-4.587999 -2.247866,-4.664533 -0.374,-0.012 -0.3568,-0.572933 0.01707,-0.561466 0.06147,0.0021 0.122,0.0052 0.181867,0.0104 z m 9.743733,-20.125467 c 0,0.289067 -0.234933,0.523467 -0.524,0.523467 -0.2896,0 -0.524,-0.2344 -0.524,-0.523467 0,-0.289066 0.2344,-0.524 0.524,-0.524 0.289067,0 0.524,0.234934 0.524,0.524 z m 1.509334,-1.734933 c 0,0.3224 -0.262,0.583867 -0.5844,0.583867 -0.3224,0 -0.584267,-0.261467 -0.584267,-0.583867 0,-0.322933 0.261867,-0.584933 0.584267,-0.584933 0.3224,0 0.5844,0.262 0.5844,0.584933 z m -2.971334,3.604133 c 0,0.2552 -0.2068,0.462 -0.462533,0.462 -0.2552,0 -0.4624,-0.2068 -0.4624,-0.462 0,-0.255733 0.2072,-0.462933 0.4624,-0.462933 0.255733,0 0.462533,0.2072 0.462533,0.462933 z M 39.433332,25.552135 c 0,0.312933 -0.253066,0.566666 -0.5656,0.566666 -0.312,0 -0.5656,-0.253733 -0.5656,-0.566666 0,-0.312534 0.2536,-0.5652 0.5656,-0.5652 0.312534,0 0.5656,0.252666 0.5656,0.5652 z m 6.8484,31.386399 c 0.5568,0 1.008933,-0.4516 1.008933,-1.009333 0,-0.557334 -0.452133,-1.009467 -1.008933,-1.009467 -0.5572,0 -1.009333,0.452133 -1.009333,1.009467 0,0.557733 0.452133,1.009333 1.009333,1.009333 z m 0,0.561467 c -0.8672,0 -1.5708,-0.703067 -1.5708,-1.5708 0,-0.867734 0.7036,-1.5704 1.5708,-1.5704 0.866667,0 1.5704,0.702666 1.5704,1.5704 0,0.867733 -0.703733,1.5708 -1.5704,1.5708 z m 21.654666,-8.698933 c 0.0063,5.33e-4 0.01307,0.0011 0.01987,0.0016 l -0.0093,4e-4 z m -8.289999,-6.314134 c -0.148534,-0.475466 -0.207334,-1.004666 -0.166667,-1.6588 -0.853733,0.257867 -1.659467,0.642667 -2.349067,1.1844 0.259467,0.0864 0.630267,0.193734 1.092267,0.286934 0.4088,0.08173 0.887467,0.152666 1.423467,0.187466 z m 0.408266,-1.8124 c -0.07133,0.789467 0.0068,1.348934 0.1932,1.8348 0.357867,0.0032 0.736533,-0.0104 1.131333,-0.0484 -0.1828,-0.255733 -0.310933,-0.600533 -0.343733,-0.9828 -0.03187,-0.371333 0.02907,-0.7224 0.1552,-1.001066 -0.381333,0.0448 -0.762,0.110933 -1.136,0.197466 z m 2.349467,-0.842266 c 0.378133,-0.02187 0.781866,-0.04627 1.038533,0.02507 0.185467,0.012 0.270933,0.150534 0.2672,0.287467 -0.0052,0.3364 -0.439067,0.514533 -0.776,0.624933 0.05467,0.160534 0.09213,0.336534 0.107867,0.521467 0.06707,0.791067 -0.265734,1.5004 -0.7704,1.614 -0.01667,0.0057 -0.03533,0.0104 -0.05467,0.0136 -0.6208,0.102 -1.343733,0.153067 -2.089067,0.140533 -0.0536,0.01467 -0.111466,0.01467 -0.164533,-0.0041 -1.159466,-0.03333 -2.3604,-0.221867 -3.310933,-0.612533 -0.01773,0.0188 -0.02667,0.0292 -0.02667,0.0292 -0.239466,0.288 -0.670266,-0.07133 -0.4312,-0.359334 0.0063,-0.0073 0.06507,-0.07653 0.1792,-0.186533 0.01613,-0.02027 0.03493,-0.038 0.05573,-0.05307 0.6192,-0.576533 2.4916,-1.9932 5.974933,-2.040666"
     inkscape:connector-curvature="0" /><path
     id="path18"
     style="fill:none;stroke:#231f20;stroke-width:0.03893333;stroke-linecap:butt;stroke-linejoin:miter;stroke-miterlimit:3.86370993;stroke-dasharray:none;stroke-opacity:1"
     d="m 61.100532,69.849467 c -0.682267,-0.282267 -1.872933,-0.634933 -3.112,-0.963467 0.04067,0.685867 0.126,1.314 0.245867,1.870254 0.957333,-0.253187 1.914533,-0.55412 2.866133,-0.906787 z"
     inkscape:connector-curvature="0" /><path
     id="path20"
     style="fill:none;stroke:#231f20;stroke-width:0.03893333;stroke-linecap:butt;stroke-linejoin:miter;stroke-miterlimit:3.86370993;stroke-dasharray:none;stroke-opacity:1"
     d="m 57.963999,68.298934 c 1.534933,0.4032 3.202666,0.889066 3.847999,1.276533 0.5464,-0.218133 1.091067,-0.4536 1.632267,-0.707733 -0.974933,-0.524 -3.278133,-1.252134 -5.458266,-1.8636 -0.024,0.448 -0.0308,0.880266 -0.022,1.2948 z"
     inkscape:connector-curvature="0" /><path
     id="path22"
     style="fill:none;stroke:#231f20;stroke-width:0.03893333;stroke-linecap:butt;stroke-linejoin:miter;stroke-miterlimit:3.86370993;stroke-dasharray:none;stroke-opacity:1"
     d="m 61.910398,70.140667 c -0.024,0.01347 -0.04893,0.02333 -0.07547,0.02907 -1.717734,0.673493 -3.4568,1.179226 -5.188,1.536 -0.02613,0.01041 -0.05427,0.01615 -0.0844,0.01771 -1.595867,0.32448 -3.184933,0.52344 -4.7432,0.610934 -0.02613,0.0063 -0.05373,0.0083 -0.0824,0.0047 -5.225466,0.282813 -10.106266,-0.680213 -13.7672,-2.324 l -0.125466,-0.0572 c -0.03547,-0.0079 -0.06773,-0.02347 -0.09533,-0.04387 -6.229199,-2.886933 -9.039066,-8.003066 -2.9468,-12.128533 -0.625066,-1.0448 -1.450533,-2.0136 -2.258399,-3.065733 -0.2588,-0.3364 -0.5208,-0.685867 -0.780667,-1.052 -0.4824,1.280133 -0.538533,2.104133 0.273867,3.259867 0.09333,0.1328 0.06,0.268266 -0.026,0.354666 l -4.344267,5.204667 c -0.114,0.137067 -0.303067,0.140667 -0.4224,0.01 -21.7296795,-23.8136 3.033333,-59.9375986 32.945332,-49.543332 0.1828,0.06307 0.247867,0.244266 0.1484,0.4104 l -4.690666,7.7724 c -0.04787,0.104266 -0.1536,0.1808 -0.304667,0.152133 -1.456666,-0.2724 -2.348933,-0.188533 -2.976533,0.415067 1.35,0.2344 2.743733,0.590133 4.177067,1.0776 1.279733,-1.413467 2.638,-2.723867 4.104666,-3.895734 0.01933,-0.0188 0.0412,-0.03547 0.0652,-0.04907 0.076,-0.04733 0.154133,-0.05253 0.2224,-0.03013 0.0692,0.01773 0.131733,0.06453 0.170267,0.145867 0.01307,0.02387 0.0224,0.04893 0.02813,0.076 l 2.697333,7.9172 c 0.0276,0.06253 0.03387,0.133333 0.01053,0.2 -0.0224,0.06613 -0.07093,0.118266 -0.1308,0.151066 -0.088,0.05773 -0.174934,0.1156 -0.262,0.174934 0.554133,1.669866 4.4208,13.296399 5.612533,16.426533 0.374,0.980266 1.1964,2.764133 1.210933,3.8032 0.01453,1.059866 -0.719733,1.549466 -2.229733,1.658266 -0.750533,0.721867 -0.864,0.983867 -0.4588,1.520933 0.804667,1.065067 0.359867,1.546267 -0.536533,2.262934 0.869866,0.702666 0.672933,1.969333 0.243333,1.9896 -0.628667,0.0292 -0.867733,0.225466 -1.225067,0.726533 2.7568,2.7104 0.478134,5.022933 -3.1916,5.797467 -1.160933,0.245333 -2.5,0.358266 -3.943733,0.307733 -0.0027,0.01467 -0.0063,0.02973 -0.01093,0.04533 -0.495333,1.5532 -0.776133,3.0516 -0.893333,4.4224 2.460933,0.687067 5.368799,1.593733 6.133333,2.235467 0.02613,0.01773 0.04947,0.04053 0.0688,0.06613 0.05827,0.06827 0.074,0.145333 0.06147,0.216133 -0.0084,0.07133 -0.04587,0.140667 -0.120266,0.190134 -0.02347,0.01667 -0.0496,0.03067 -0.0772,0.04013 -0.721867,0.351467 -1.45,0.671333 -2.181734,0.9604 z"
     inkscape:connector-curvature="0" /><path
     id="path24"
     style="fill:none;stroke:#231f20;stroke-width:0.03893333;stroke-linecap:butt;stroke-linejoin:miter;stroke-miterlimit:3.86370993;stroke-dasharray:none;stroke-opacity:1"
     d="m 36.173999,59.500534 c 0.014,0.0312 0.02387,0.06453 0.02653,0.09893 0.176,0.6688 0.2552,1.390134 0.203067,2.1912 1.708933,-1.170933 1.286,-3.128133 0.781867,-4.0532 -0.438134,0.2932 -0.885467,0.572934 -1.341734,0.8396 0.129734,0.297867 0.2412,0.6052 0.330267,0.923467 z"
     inkscape:connector-curvature="0" /><path
     id="path26"
     style="fill:none;stroke:#231f20;stroke-width:0.03893333;stroke-linecap:butt;stroke-linejoin:miter;stroke-miterlimit:3.86370993;stroke-dasharray:none;stroke-opacity:1"
     d="m 35.727066,60.057334 c -1.240134,0.7864 -1.8192,1.686933 -1.918267,2.587467 0.8224,-0.101067 1.480267,-0.2828 2.0016,-0.521867 0.086,-0.752667 0.048,-1.433333 -0.08333,-2.0656 z"
     inkscape:connector-curvature="0" /><path
     id="path28"
     style="fill:none;stroke:#231f20;stroke-width:0.03893333;stroke-linecap:butt;stroke-linejoin:miter;stroke-miterlimit:3.86370993;stroke-dasharray:none;stroke-opacity:1"
     d="m 33.808799,63.209334 c 0.03813,0.361467 0.148533,0.718267 0.318267,1.0636 3.9188,-0.06773 6.856266,-3.971333 4.740133,-7.7568 -0.3984,0.312 -0.804133,0.614133 -1.218267,0.9036 0.787467,1.425067 1.445867,5.180267 -3.840133,5.7896 z"
     inkscape:connector-curvature="0" /><path
     id="path30"
     style="fill:none;stroke:#231f20;stroke-width:0.03893333;stroke-linecap:butt;stroke-linejoin:miter;stroke-miterlimit:3.86370993;stroke-dasharray:none;stroke-opacity:1"
     d="m 34.453066,64.8208 c 0.3136,0.448 0.7256,0.8672 1.206266,1.239067 5.720934,-1.621333 6.911467,-6.414533 4.654667,-10.750533 -0.328533,0.291733 -0.662933,0.5756 -1.002533,0.852133 2.396933,4.1468 -0.732267,8.380667 -4.8584,8.659333 z"
     inkscape:connector-curvature="0" /><path
     id="path32"
     style="fill:none;stroke:#231f20;stroke-width:0.03893333;stroke-linecap:butt;stroke-linejoin:miter;stroke-miterlimit:3.86370993;stroke-dasharray:none;stroke-opacity:1"
     d="m 36.246399,66.4688 c 0.542667,0.340534 1.145733,0.623867 1.776533,0.828134 7.0448,-3.563067 5.3484,-10.836 3.739067,-13.343867 -0.333867,0.330267 -0.672933,0.6532 -1.0172,0.9688 2.421333,4.516667 1.304667,9.674533 -4.4984,11.546933 z"
     inkscape:connector-curvature="0" /><path
     id="path34"
     style="fill:none;stroke:#231f20;stroke-width:0.03893333;stroke-linecap:butt;stroke-linejoin:miter;stroke-miterlimit:3.86370993;stroke-dasharray:none;stroke-opacity:1"
     d="m 58.259865,37.813601 c 2.4604,-0.9548 5.485467,-1.407866 7.8448,-0.668266 -1.057733,-3.112 -2.1552,-6.394267 -2.766667,-8.229734 -0.02293,3.168267 -1.462,6.1568 -4.565599,7.4156 -0.1156,0.507867 -0.2844,1.002133 -0.512534,1.4824 z"
     inkscape:connector-curvature="0" /><path
     id="path36"
     style="fill:none;stroke:#231f20;stroke-width:0.03893333;stroke-linecap:butt;stroke-linejoin:miter;stroke-miterlimit:3.86370993;stroke-dasharray:none;stroke-opacity:1"
     d="m 57.361999,38.281734 c 0.01147,-0.0312 0.0292,-0.0604 0.05413,-0.08693 0.4068,-0.666667 0.676533,-1.362 0.831733,-2.088 0.0011,-0.03133 0.0073,-0.062 0.0188,-0.0912 0.130667,-0.6552 0.169334,-1.3344 0.131734,-2.041066 -0.0072,-0.0308 -0.0099,-0.06307 -0.0052,-0.0948 -0.03227,-0.510934 -0.1036,-1.036534 -0.2072,-1.5756 -0.3548,0.4068 -0.703734,0.821866 -1.046934,1.2448 0.155734,1.8084 -0.267733,3.779733 -2.178666,5.540133 0.05893,0.562 0.06253,1.111466 0.01613,1.645866 1.061467,-0.773466 1.840667,-1.589066 2.385467,-2.4532 z"
     inkscape:connector-curvature="0" /><path
     id="path38"
     style="fill:none;stroke:#231f20;stroke-width:0.03893333;stroke-linecap:butt;stroke-linejoin:miter;stroke-miterlimit:3.86370993;stroke-dasharray:none;stroke-opacity:1"
     d="m 42.914532,55.009334 c 0.1636,-0.597333 0.481334,-1.130133 0.907867,-1.554133 -0.197333,-0.413067 -0.321867,-0.8344 -0.407333,-1.2364 -0.408267,0.452533 -0.8244,0.895733 -1.248934,1.328133 0.254667,0.380667 0.515067,0.878 0.7484,1.4624 z"
     inkscape:connector-curvature="0" /><path
     id="path40"
     style="fill:none;stroke:#231f20;stroke-width:0.03893333;stroke-linecap:butt;stroke-linejoin:miter;stroke-miterlimit:3.86370993;stroke-dasharray:none;stroke-opacity:1"
     d="m 44.268266,53.080267 c 0.338533,-0.239066 0.7208,-0.419333 1.1328,-0.5272 -0.219867,-0.589066 -0.404134,-1.288 -0.490667,-2.068666 -0.335867,0.4068 -0.677067,0.807733 -1.0224,1.203066 0.07293,0.458934 0.181333,0.934934 0.380267,1.3928 z"
     inkscape:connector-curvature="0" /><path
     id="path42"
     style="fill:none;stroke:#231f20;stroke-width:0.03893333;stroke-linecap:butt;stroke-linejoin:miter;stroke-miterlimit:3.86370993;stroke-dasharray:none;stroke-opacity:1"
     d="m 30.849466,55.217734 c 0,-0.6584 0.212,-1.324533 0.528667,-2.105733 -1.394267,-2.0776 -2.674534,-4.7208 -3.095334,-8.686 -0.0068,-0.0276 -0.0104,-0.05627 -0.0088,-0.0844 -0.03853,-0.376 -0.06933,-0.764533 -0.09173,-1.1656 -0.0072,-0.0296 -0.0099,-0.06093 -0.0052,-0.09373 -0.0073,-0.133334 -0.01307,-0.267734 -0.01827,-0.404134 -0.04893,-1.2828 0.03293,-2.5792 0.238134,-3.8656 -0.0021,-0.0376 0.0041,-0.07347 0.01707,-0.106266 0.06307,-0.383334 0.1376,-0.766134 0.2224,-1.146934 -4e-4,-0.03853 0.0073,-0.0776 0.0256,-0.114533 0.8312,-3.628133 2.640667,-7.107333 5.268267,-9.896933 0.01813,-0.02707 0.04107,-0.05093 0.0676,-0.0708 0.7756,-0.815067 1.621466,-1.5708 2.533866,-2.252533 l 0.0172,-0.01307 c 1.428134,-1.065067 3.019334,-1.950533 4.757334,-2.602666 0.01827,-0.0099 0.03747,-0.0172 0.05627,-0.02133 2.1292,-0.792666 4.4776,-1.235866 7.0172,-1.235866 0.1484,-0.0152 0.297333,-0.01413 0.442667,0.0047 0.936933,0.0192 1.899466,0.09787 2.8864,0.242667 0.438133,-0.563467 0.979733,-0.859867 1.638133,-0.968667 -0.05733,-0.01627 -0.114667,-0.03133 -0.171867,-0.04693 -0.01107,-0.0021 -0.02147,-0.0047 -0.03133,-0.0079 -1.223467,-0.3224 -2.449467,-0.5192 -3.668267,-0.600933 l -0.0192,-5.33e-4 c -6.470799,-0.424 -12.715599,2.421866 -17.028666,7.163466 l -0.01253,0.0136 c -0.871333,0.959333 -1.663467,1.9968 -2.362933,3.099467 -0.0073,0.01453 -0.01573,0.0276 -0.0256,0.04067 -0.645867,1.023334 -1.211467,2.1036 -1.685334,3.231734 -0.0027,0.0073 -0.0057,0.01347 -0.0089,0.0208 -0.465067,1.1084 -0.8416,2.2636 -1.1192,3.455733 -1.071333,4.604133 -0.6688,9.755733 1.8156,14.969866 l 0.0041,0.0072 c 0.514534,1.079733 1.118267,2.160933 1.816667,3.2412 z"
     inkscape:connector-curvature="0" /><path
     id="path44"
     style="fill:none;stroke:#231f20;stroke-width:0.03893333;stroke-linecap:butt;stroke-linejoin:miter;stroke-miterlimit:3.86370993;stroke-dasharray:none;stroke-opacity:1"
     d="m 31.901066,52.884401 c 0.0244,0.0244 0.04427,0.05253 0.05773,0.0844 0.202667,0.296266 0.407334,0.580666 0.611467,0.856133 1.102133,-0.8504 2.140666,-1.754133 3.126133,-2.703067 -0.486,-0.25 -0.928133,-0.473999 -1.335467,-0.702533 -0.758266,0.766133 -1.277066,1.112933 -2.574533,1.097333 -0.211866,-0.0021 -0.3276,-0.162533 -0.264533,-0.364533 0.2328,-0.743333 0.01413,-2.519333 -5.33e-4,-3.4412 -0.105734,-0.179733 -0.209867,-0.371333 -0.313467,-0.575466 -0.345867,0.07187 -0.767733,0.09627 -1.3428,0.09627 -0.320267,0 -0.426,-0.271333 -0.189067,-0.487466 0.8688,-0.7916 0.738534,-1.926 0.921334,-3.385467 -0.4968,0.262 -1.395734,0.888133 -1.742667,1.136 0.428667,3.8344 1.6828,6.377066 3.0464,8.3896 z"
     inkscape:connector-curvature="0" /><path
     id="path46"
     style="fill:none;stroke:#231f20;stroke-width:0.03893333;stroke-linecap:butt;stroke-linejoin:miter;stroke-miterlimit:3.86370993;stroke-dasharray:none;stroke-opacity:1"
     d="M 34.632266,56.519734 C 46.112532,48.837468 50.695865,34.849468 60.966665,26.036001 l -1.518266,-0.305733 c -0.298934,-0.06627 -0.298934,-0.05947 -0.2672,-0.397467 l 0.248533,-2.133866 c -9.488,9.690666 -14.783866,25.590666 -25.536533,32.339599 0.255733,0.328667 0.504133,0.6536 0.739067,0.9812 z"
     inkscape:connector-curvature="0" /><path
     id="path48"
     style="fill:none;stroke:#231f20;stroke-width:0.03893333;stroke-linecap:butt;stroke-linejoin:miter;stroke-miterlimit:3.86370993;stroke-dasharray:none;stroke-opacity:1"
     d="m 61.344265,21.385468 c -0.433867,0.3796 -0.858267,0.771867 -1.274933,1.177067 l -0.313067,2.6468 1.760933,0.3636 c 0.322934,-0.266134 0.652134,-0.527067 0.986934,-0.783334 l -0.233867,-0.688 c -0.504133,0.171867 -1.051467,-0.09693 -1.223333,-0.601599 -0.171867,-0.504134 0.0968,-1.0516 0.601466,-1.223467 z"
     inkscape:connector-curvature="0" /><path
     id="path50"
     style="fill:none;stroke:#231f20;stroke-width:0.03893333;stroke-linecap:butt;stroke-linejoin:miter;stroke-miterlimit:3.86370993;stroke-dasharray:none;stroke-opacity:1"
     d="m 36.334932,51.273467 c -1.0792,1.060934 -2.2172,2.066134 -3.426533,2.999467 l 0.08067,0.1052 c 0.186,0.242667 0.3724,0.480667 0.5568,0.7156 5.651066,-3.526533 9.780666,-9.664533 13.884399,-16.160933 3.556667,-5.630133 7.292134,-11.926533 12.141067,-16.670266 0.01987,-0.02867 0.04373,-0.0516 0.0708,-0.06933 0.490666,-0.477067 0.992266,-0.938534 1.5068,-1.3812 l -0.4296,-1.262 c -1.874,1.5344 -3.5772,3.311466 -5.157333,5.221333 -0.0156,0.0276 -0.036,0.05213 -0.0604,0.07293 -3.040667,3.6896 -5.628134,7.869333 -8.109467,11.757333 -1.306133,2.0468 -2.631733,4.105733 -4.0276,6.112933 -0.01347,0.0308 -0.03227,0.0568 -0.05467,0.0792 -0.565067,0.8104 -1.1416,1.612534 -1.733867,2.4016 -0.01453,0.02867 -0.0328,0.05253 -0.05467,0.0724 -0.4276,0.568667 -0.863466,1.1312 -1.308266,1.685334 -0.0136,0.0256 -0.0328,0.04907 -0.0568,0.0704 -0.650534,0.8072 -1.3208,1.5968 -2.015067,2.364 -0.0172,0.02707 -0.03853,0.05053 -0.06413,0.0704 -0.5516,0.6072 -1.118267,1.199466 -1.702,1.775999 z"
     inkscape:connector-curvature="0" /><path
     id="path52"
     style="fill:none;stroke:#231f20;stroke-width:0.03893333;stroke-linecap:butt;stroke-linejoin:miter;stroke-miterlimit:3.86370993;stroke-dasharray:none;stroke-opacity:1"
     d="m 36.119732,50.708801 c 0.419867,-0.416667 0.831334,-0.8416 1.233334,-1.273333 -2.617067,-0.4276 -4.058267,-1.661467 -4.634267,-3.2084 -0.3604,0.345333 -0.645333,0.578133 -0.970933,0.731733 0.0828,0.160533 0.166133,0.311467 0.250533,0.4548 0.0328,0.03013 0.05893,0.0708 0.0724,0.1208 1.0568,1.733867 2.2344,2.239067 4.048933,3.1744 z"
     inkscape:connector-curvature="0" /><path
     id="path54"
     style="fill:none;stroke:#231f20;stroke-width:0.03893333;stroke-linecap:butt;stroke-linejoin:miter;stroke-miterlimit:3.86370993;stroke-dasharray:none;stroke-opacity:1"
     d="m 37.812532,48.934934 c 0.430134,-0.476133 0.851467,-0.960933 1.263467,-1.452666 -4.802,1.364666 -7.837466,-6.2088 0.368267,-9.317734 -0.5912,-0.2 -1.185867,-0.4172 -1.766667,-0.669733 -5.3328,2.388 -7.112533,10.502133 0.134933,11.440133 z"
     inkscape:connector-curvature="0" /><path
     id="path56"
     style="fill:none;stroke:#231f20;stroke-width:0.03893333;stroke-linecap:butt;stroke-linejoin:miter;stroke-miterlimit:3.86370993;stroke-dasharray:none;stroke-opacity:1"
     d="m 39.817732,46.578134 c 0.4208,-0.524 0.8328,-1.056266 1.237467,-1.593733 0.1932,-1.416667 -0.1724,-2.995333 -1.940133,-3.786533 -0.502534,0.2584 -0.9572,0.568266 -1.327067,0.938533 2.6032,0.418267 2.549467,3.693867 0.192667,3.693867 -1.953067,0 -1.851467,-2.419867 -1.0052,-3.6 0.012,-0.02147 0.02667,-0.04173 0.04387,-0.05893 l 0.0072,-0.0093 c 0.418267,-0.5396 1.041734,-1.057867 1.913067,-1.500533 0.0276,-0.02187 0.05987,-0.03907 0.09587,-0.04787 0.6348,-0.312533 1.3968,-0.586533 2.300933,-0.801067 0.0324,-0.01467 0.06773,-0.02347 0.1048,-0.024 0.5432,-0.124933 1.1364,-0.228666 1.783333,-0.307333 -0.5032,-0.227067 -1.0688,-0.4312 -1.679733,-0.633333 -0.397467,-0.131734 -0.807333,-0.261467 -1.224533,-0.3952 -8.848933,2.8588 -5.2948,10.661333 -0.502534,8.125466 z"
     inkscape:connector-curvature="0" /><path
     id="path58"
     style="fill:none;stroke:#231f20;stroke-width:0.03893333;stroke-linecap:butt;stroke-linejoin:miter;stroke-miterlimit:3.86370993;stroke-dasharray:none;stroke-opacity:1"
     d="m 41.659332,44.169734 c 0.391734,-0.5348 0.776134,-1.075466 1.155734,-1.6208 -0.109334,-0.549466 -0.708267,-1.547866 -1.4296,-2.163466 -0.545334,0.1328 -1.097467,0.301466 -1.619867,0.514533 1.368267,0.7864 1.856267,2.050533 1.893733,3.269733 z"
     inkscape:connector-curvature="0" /><path
     id="path60"
     style="fill:none;stroke:#231f20;stroke-width:0.03893333;stroke-linecap:butt;stroke-linejoin:miter;stroke-miterlimit:3.86370993;stroke-dasharray:none;stroke-opacity:1"
     d="m 43.216132,41.968268 c 0.407334,-0.593734 0.808934,-1.192267 1.206267,-1.793734 -0.0984,-0.07613 -0.202133,-0.149066 -0.311467,-0.219333 -0.571333,0.04747 -1.294266,0.133333 -2.061466,0.2844 0.5032,0.513467 0.936533,1.1692 1.166666,1.728667 z"
     inkscape:connector-curvature="0" /><path
     id="path62"
     style="fill:none;stroke:#231f20;stroke-width:0.03893333;stroke-linecap:butt;stroke-linejoin:miter;stroke-miterlimit:3.86370993;stroke-dasharray:none;stroke-opacity:1"
     d="m 44.731732,39.704134 c 0.4104,-0.626533 0.817734,-1.256266 1.2224,-1.887466 -1.547333,-0.359334 -4.357733,-0.164534 -6.1088,-0.126534 0.609334,0.209867 1.237467,0.412934 1.876,0.6244 0.940667,0.311467 1.836534,0.644267 2.5688,1.090667 0.0312,0.012 0.0588,0.0292 0.0812,0.05053 0.1256,0.07867 0.245867,0.161467 0.3604,0.2484 z"
     inkscape:connector-curvature="0" /><path
     id="path64"
     style="fill:none;stroke:#231f20;stroke-width:0.03893333;stroke-linecap:butt;stroke-linejoin:miter;stroke-miterlimit:3.86370993;stroke-dasharray:none;stroke-opacity:1"
     d="m 46.272399,37.318801 c 0.289067,-0.452133 0.577066,-0.9052 0.8656,-1.3584 -1.7172,-0.5364 -4.4948,-0.409333 -6.1844,-0.3844 -2.063467,0.03133 -4.210933,0.048 -5.8896,-0.373866 0.871467,0.803066 1.9448,1.382266 3.137067,1.875466 0.843733,0.140667 2.951066,0.01307 3.671866,-0.0068 1.576534,-0.04213 3.3052,-0.05253 4.399467,0.248 z"
     inkscape:connector-curvature="0" /><path
     id="path66"
     style="fill:none;stroke:#231f20;stroke-width:0.03893333;stroke-linecap:butt;stroke-linejoin:miter;stroke-miterlimit:3.86370993;stroke-dasharray:none;stroke-opacity:1"
     d="m 47.448399,35.471335 c 0.244266,-0.384934 0.489066,-0.768667 0.733866,-1.152534 -2.201999,-0.844266 -5.739599,-0.5532 -8.005199,-0.547466 -2.630134,0.0073 -5.2812,-0.169734 -6.990133,-1.612 0.260933,0.864666 0.636533,1.585466 1.104799,2.198 2.520267,1.080666 7.372267,0.5224 10.342667,0.668133 1.049467,0.0516 2.0224,0.172933 2.814,0.445867 z"
     inkscape:connector-curvature="0" /><path
     id="path68"
     style="fill:none;stroke:#231f20;stroke-width:0.03893333;stroke-linecap:butt;stroke-linejoin:miter;stroke-miterlimit:3.86370993;stroke-dasharray:none;stroke-opacity:1"
     d="m 48.489599,33.837468 c 0.254133,-0.3968 0.508266,-0.792667 0.763466,-1.186933 -0.877066,-0.286934 -1.731733,-0.481734 -2.578533,-0.612 -0.0292,0 -0.05787,-0.0047 -0.08547,-0.01307 -2.2224,-0.332267 -4.3948,-0.230667 -6.783867,-0.214 -1.483333,0.01093 -2.869733,-0.04373 -4.087467,-0.430267 -0.0328,-0.0036 -0.06507,-0.014 -0.09533,-0.03013 -1.0036,-0.334933 -1.889067,-0.9032 -2.6156,-1.8568 -0.07293,0.0948 -0.1448,0.190133 -0.216133,0.2864 0.02653,0.464667 0.07547,0.8996 0.145733,1.307867 1.423467,1.862 4.166667,2.129733 7.2396,2.121866 2.426667,-0.0063 5.998533,-0.315066 8.313601,0.627067 z"
     inkscape:connector-curvature="0" /><path
     id="path70"
     style="fill:none;stroke:#231f20;stroke-width:0.03893333;stroke-linecap:butt;stroke-linejoin:miter;stroke-miterlimit:3.86370993;stroke-dasharray:none;stroke-opacity:1"
     d="m 55.317199,24.192135 c 0.2692,-0.3228 0.542666,-0.641067 0.8188,-0.9552 -1.4792,-0.49 -2.914134,-0.835867 -4.301067,-1.05 -0.02347,-5.33e-4 -0.04587,-0.0041 -0.0688,-0.0104 -0.6464,-0.0984 -1.2828,-0.1672 -1.908267,-0.209867 0.242667,0.342667 0.385867,0.838 0.356134,1.517734 0.3308,0.2812 0.520933,0.686399 0.563066,1.106266 0.407867,-0.2516 0.952134,-0.329733 1.566667,-0.1276 0.507333,-1.129733 2.0224,-1.304266 2.973467,-0.270933 z"
     inkscape:connector-curvature="0" /><path
     id="path72"
     style="fill:none;stroke:#231f20;stroke-width:0.03893333;stroke-linecap:butt;stroke-linejoin:miter;stroke-miterlimit:3.86370993;stroke-dasharray:none;stroke-opacity:1"
     d="m 24.210933,57.648934 5.136933,-3.839067 c -0.2448,-0.4396 -0.474933,-0.878666 -0.690533,-1.318266 l -4.293734,2.618266 c -0.319333,0.1948 -0.611466,-0.2844 -0.292266,-0.4792 l 4.342666,-2.6484 c -0.1728,-0.371866 -0.335866,-0.7432 -0.488533,-1.114533 l -5.8984,2.743733 c 0.607867,1.364534 1.333867,2.713467 2.183867,4.037467 z"
     inkscape:connector-curvature="0" /><path
     id="path74"
     style="fill:none;stroke:#231f20;stroke-width:0.03893333;stroke-linecap:butt;stroke-linejoin:miter;stroke-miterlimit:3.86370993;stroke-dasharray:none;stroke-opacity:1"
     d="m 29.627599,54.301067 -5.1088,3.818667 c 0.8552,1.280267 1.8276,2.536533 2.923867,3.76 l 4.007867,-4.8016 c -0.265067,-0.362 -0.519334,-0.724533 -0.763067,-1.087467 l -3.822933,3.7812 c -0.266134,0.2636 -0.660934,-0.135866 -0.3948,-0.398933 l 3.902666,-3.859867 c -0.261466,-0.403733 -0.509333,-0.807866 -0.7448,-1.212 z"
     inkscape:connector-curvature="0" /><path
     id="path76"
     style="fill:none;stroke:#231f20;stroke-width:0.03893333;stroke-linecap:butt;stroke-linejoin:miter;stroke-miterlimit:3.86370993;stroke-dasharray:none;stroke-opacity:1"
     d="m 21.803599,53.096401 5.913067,-2.750533 c -0.148933,-0.387067 -0.288,-0.772934 -0.4156,-1.1584 l -4.830267,1.4188 c -0.3588,0.104666 -0.5172,-0.433867 -0.157733,-0.539067 l 4.8172,-1.415067 c -0.160933,-0.522933 -0.302133,-1.045333 -0.424533,-1.565733 l -6.411467,1.3688 c 0.361467,1.557333 0.862,3.107866 1.509333,4.6412 z"
     inkscape:connector-curvature="0" /><path
     id="path78"
     style="fill:none;stroke:#231f20;stroke-width:0.03893333;stroke-linecap:butt;stroke-linejoin:miter;stroke-miterlimit:3.86370993;stroke-dasharray:none;stroke-opacity:1"
     d="m 20.172399,47.907334 6.410934,-1.3688 c -0.09587,-0.455733 -0.177067,-0.910933 -0.2448,-1.362533 l -5.1052,0.478133 c -0.3724,0.03547 -0.424934,-0.523466 -0.05267,-0.558266 l 5.0824,-0.476534 c -0.0636,-0.510533 -0.108933,-1.017733 -0.136533,-1.520933 l -6.549467,-0.131733 c 0.05213,1.6416 0.246934,3.293733 0.595333,4.940666 z"
     inkscape:connector-curvature="0" /><path
     id="path80"
     style="fill:none;stroke:#231f20;stroke-width:0.03893333;stroke-linecap:butt;stroke-linejoin:miter;stroke-miterlimit:3.86370993;stroke-dasharray:none;stroke-opacity:1"
     d="m 19.565066,42.405201 6.537067,0.1312 c -0.0136,-0.4468 -0.0136,-0.89 -5.34e-4,-1.330133 l -5.058933,-0.5584 c -0.371867,-0.04107 -0.3104,-0.598934 0.06147,-0.558267 l 5.021333,0.5552 c 0.03133,-0.562 0.08333,-1.1188 0.156267,-1.6688 L 19.9036,37.662534 c -0.2416,1.560934 -0.3572,3.145734 -0.338534,4.742667 z"
     inkscape:connector-curvature="0" /><path
     id="path82"
     style="fill:none;stroke:#231f20;stroke-width:0.03893333;stroke-linecap:butt;stroke-linejoin:miter;stroke-miterlimit:3.86370993;stroke-dasharray:none;stroke-opacity:1"
     d="m 19.9948,37.108801 6.367733,1.310933 c 0.06867,-0.434266 0.150533,-0.862933 0.244266,-1.288533 l -4.878133,-1.5364 c -0.3568,-0.111466 -0.188,-0.647466 0.168667,-0.534933 l 4.8376,1.523467 c 0.104666,-0.4224 0.221333,-0.840667 0.35,-1.254134 l -5.868267,-2.9292 c -0.532267,1.5312 -0.9432,3.1052 -1.221866,4.7088 z"
     inkscape:connector-curvature="0" /><path
     id="path84"
     style="fill:none;stroke:#231f20;stroke-width:0.03893333;stroke-linecap:butt;stroke-linejoin:miter;stroke-miterlimit:3.86370993;stroke-dasharray:none;stroke-opacity:1"
     d="m 21.407333,31.867201 5.853066,2.9224 c 0.142667,-0.4208 0.298,-0.836533 0.464667,-1.246933 l -4.473467,-2.7416 c -0.3188,-0.195867 -0.02507,-0.674 0.2932,-0.478133 l 4.401067,2.697333 c 0.195333,-0.447333 0.404667,-0.886933 0.6276,-1.3176 l -5.264667,-4.013067 c -0.735333,1.342667 -1.371866,2.740134 -1.901466,4.1776 z"
     inkscape:connector-curvature="0" /><path
     id="path86"
     style="fill:none;stroke:#231f20;stroke-width:0.03893333;stroke-linecap:butt;stroke-linejoin:miter;stroke-miterlimit:3.86370993;stroke-dasharray:none;stroke-opacity:1"
     d="m 23.585466,27.193735 5.2552,4.006266 c 0.191067,-0.3484 0.391067,-0.691733 0.599467,-1.028666 l -3.857867,-3.7 c -0.269733,-0.2588 0.1188,-0.664 0.389067,-0.404667 l 3.776,3.6208 c 0.282933,-0.4328 0.580266,-0.856267 0.890666,-1.268667 l -4.430666,-5.116666 c -0.9688,1.2312 -1.8464,2.533333 -2.621867,3.8916 z"
     inkscape:connector-curvature="0" /><path
     id="path88"
     style="fill:none;stroke:#231f20;stroke-width:0.03893333;stroke-linecap:butt;stroke-linejoin:miter;stroke-miterlimit:3.86370993;stroke-dasharray:none;stroke-opacity:1"
     d="m 26.564533,22.856802 4.422933,5.109333 c 0.2776,-0.350534 0.5652,-0.692134 0.861467,-1.024534 l -3.2792,-4.508266 c -0.220267,-0.302133 0.233866,-0.632267 0.453733,-0.329733 l 3.211467,4.414666 c 0.326533,-0.349467 0.664,-0.689067 1.010933,-1.0172 l -3.490133,-6.012533 c -1.1464,1.0432 -2.213067,2.170267 -3.1912,3.368267 z"
     inkscape:connector-curvature="0" /><path
     id="path90"
     style="fill:none;stroke:#231f20;stroke-width:0.03893333;stroke-linecap:butt;stroke-linejoin:miter;stroke-miterlimit:3.86370993;stroke-dasharray:none;stroke-opacity:1"
     d="m 30.182799,19.106268 3.486,6.0052 c 0.302,-0.2724 0.610933,-0.536 0.926533,-0.791733 l -2.296933,-5.288533 c -0.149466,-0.343734 0.3656,-0.5672 0.514667,-0.223867 l 2.238,5.153067 c 0.400533,-0.3088 0.810933,-0.6036 1.230133,-0.8844 l -2.2952,-6.820267 c -1.342266,0.852533 -2.6136,1.8068 -3.8032,2.850533 z"
     inkscape:connector-curvature="0" /><path
     id="path92"
     style="fill:none;stroke:#231f20;stroke-width:0.03893333;stroke-linecap:butt;stroke-linejoin:miter;stroke-miterlimit:3.86370993;stroke-dasharray:none;stroke-opacity:1"
     d="m 34.475999,15.952135 2.2912,6.807733 c 0.361467,-0.2292 0.7292,-0.447866 1.102533,-0.655733 l -1.356133,-5.6848 c -0.08707,-0.364133 0.4588,-0.4944 0.545733,-0.130267 l 1.321334,5.538534 c 0.4,-0.2088 0.805733,-0.406267 1.2172,-0.5912 l -0.99,-7.377067 c -1.437067,0.5912 -2.8172,1.2928 -4.131867,2.0928 z"
     inkscape:connector-curvature="0" /><path
     id="path94"
     style="fill:none;stroke:#231f20;stroke-width:0.03893333;stroke-linecap:butt;stroke-linejoin:miter;stroke-miterlimit:3.86370993;stroke-dasharray:none;stroke-opacity:1"
     d="m 39.145332,13.644802 0.988,7.359866 c 0.4292,-0.1792 0.864,-0.344266 1.304134,-0.4964 l -0.201467,-6.140533 c -0.012,-0.373467 0.5484,-0.3928 0.560933,-0.01827 l 0.195734,5.976534 c 0.4308,-0.135334 0.866133,-0.2572 1.3052,-0.364534 l 0.522933,-7.693733 c -1.612,0.330133 -3.173467,0.793733 -4.675467,1.377067 z"
     inkscape:connector-curvature="0" /><path
     id="path96"
     style="fill:none;stroke:#231f20;stroke-width:0.03893333;stroke-linecap:butt;stroke-linejoin:miter;stroke-miterlimit:3.86370993;stroke-dasharray:none;stroke-opacity:1"
     d="m 44.391199,12.156802 -0.521867,7.673466 c 0.502534,-0.108933 1.009867,-0.199066 1.520267,-0.269866 l 0.927067,-6.064534 c 0.05627,-0.369866 0.611466,-0.2844 0.554666,0.08533 l -0.902533,5.907866 c 0.3948,-0.04373 0.7916,-0.07547 1.19,-0.09587 l 1.984933,-7.707734 c -1.622933,0.02707 -3.209866,0.188534 -4.752533,0.471334 z"
     inkscape:connector-curvature="0" /><path
     id="path98"
     style="fill:none;stroke:#231f20;stroke-width:0.03893333;stroke-linecap:butt;stroke-linejoin:miter;stroke-miterlimit:3.86370993;stroke-dasharray:none;stroke-opacity:1"
     d="m 49.724532,11.681735 -1.9808,7.690667 c 0.508933,-0.01093 1.019333,-0.0027 1.531733,0.026 l 1.8964,-6.0672 c 0.111467,-0.356667 0.647467,-0.1896 0.535467,0.167733 l -1.856267,5.939067 c 0.464534,0.03907 0.930667,0.09427 1.397334,0.1672 l 3.232266,-7.528134 c -1.6124,-0.262533 -3.2004,-0.390666 -4.756133,-0.395333 z"
     inkscape:connector-curvature="0" /><path
     id="path100"
     style="fill:none;stroke:#231f20;stroke-width:0.03893333;stroke-linecap:butt;stroke-linejoin:miter;stroke-miterlimit:3.86370993;stroke-dasharray:none;stroke-opacity:1"
     d="m 55.049465,12.174535 -3.231733,7.528133 c 0.420267,0.078 0.840667,0.169734 1.2604,0.275467 l 3.171867,-6.122933 c 0.171866,-0.331734 0.670266,-0.074 0.4984,0.2584 l -3.115067,6.013466 c 0.5484,0.154667 1.0964,0.3344 1.642133,0.5396 l 4.402134,-7.2948 c -1.559867,-0.524933 -3.104134,-0.9208 -4.628134,-1.197333 z"
     inkscape:connector-curvature="0" /><path
     id="path102"
     style="fill:none;stroke:#231f20;stroke-width:0.03893333;stroke-linecap:butt;stroke-linejoin:miter;stroke-miterlimit:3.86370993;stroke-dasharray:none;stroke-opacity:1"
     d="m 44.869732,29.088001 c -0.0052,0.04747 -0.02133,0.09373 -0.05,0.1328 -0.03067,0.04227 -0.07493,0.07613 -0.134266,0.0948 -0.01467,0.0052 -0.03027,0.0084 -0.04693,0.012 -0.471333,0.08173 -0.949466,0.06933 -1.411466,-0.0224 -0.05,0.0464 -0.1052,0.09067 -0.1656,0.1328 0.07973,0.5328 0.352533,1.216134 0.983333,1.807334 0.421867,0.014 0.8416,0.0364 1.261467,0.07027 l 1.2692,-5.1516 c -1.3796,-0.406133 -1.760934,-2.854666 0.098,-3.170266 -0.01467,-0.401067 0.1552,-0.7588 0.428667,-1.038 -0.979733,0.0604 -1.9276,0.190133 -2.841733,0.382267 l 0.261467,2.875599 c 0.0099,0.03227 0.012,0.0656 0.0093,0.0984 l 0.0276,0.3052 c 0.03387,0.3724 -0.524933,0.423467 -0.5588,0.05053 l -0.02027,-0.2204 -1.156266,-0.820267 c -0.301067,0.2552 -0.492267,0.635467 -0.492267,1.060933 0,0.766134 0.6224,1.3896 1.390133,1.3896 0.1396,0 0.274534,-0.0208 0.4016,-0.05933 l -0.0093,-0.101067 c -0.03387,-0.3724 0.524933,-0.422933 0.5588,-0.05053 l 0.02653,0.286933 c 0.0047,0.0224 0.0068,0.04427 0.0057,0.06613 l 0.164133,1.800533 c 0.0025,0.02707 0.0025,0.048 9.33e-4,0.06773 z"
     inkscape:connector-curvature="0" /><path
     id="path104"
     style="fill:none;stroke:#231f20;stroke-width:0.03893333;stroke-linecap:butt;stroke-linejoin:miter;stroke-miterlimit:3.86370993;stroke-dasharray:none;stroke-opacity:1"
     d="m 42.782799,23.910402 0.165067,0.116666 c 0.01987,0.0104 0.03813,0.024 0.0552,0.0396 l 0.909466,0.6448 -0.204133,-2.248933 c -0.731867,0.176 -1.440667,0.392667 -2.126133,0.6468 -1.456267,1.588533 -1.290534,3.268266 -0.383867,4.391733 0.0308,0.02493 0.05573,0.05573 0.07453,0.0896 0.7188,0.8312 1.852134,1.331733 3.013467,1.218667 l -0.111867,-1.223867 c -0.145866,0.03427 -0.297466,0.05307 -0.4532,0.05307 -1.0776,0 -1.951066,-0.874 -1.951066,-1.950534 0,-0.5552 0.231333,-1.0552 0.602133,-1.409866 -0.138533,-0.230267 0.1432,-0.557333 0.4104,-0.367733 z"
     inkscape:connector-curvature="0" /><path
     id="path106"
     style="fill:none;stroke:#231f20;stroke-width:0.03893333;stroke-linecap:butt;stroke-linejoin:miter;stroke-miterlimit:3.86370993;stroke-dasharray:none;stroke-opacity:1"
     d="m 42.534932,29.104668 c -0.602133,-0.230667 -1.152133,-0.5968 -1.591733,-1.058267 -1.973467,0.5052 -3.6844,-0.968266 -4.3348,-2.174533 -0.6772,0.523467 -1.315733,1.089067 -1.913067,1.690667 l 1.201067,0.318666 c 0.01453,0.0032 0.02907,0.0068 0.0432,0.01147 l 0.304667,0.0808 c 0.04427,0.0031 0.08907,0.01667 0.1308,0.04533 0.04267,0.02547 0.0744,0.0588 0.09627,0.09627 1.4256,1.6136 4.792267,1.640667 6.0636,0.9896 z"
     inkscape:connector-curvature="0" /><path
     id="path108"
     style="fill:none;stroke:#231f20;stroke-width:0.03893333;stroke-linecap:butt;stroke-linejoin:miter;stroke-miterlimit:3.86370993;stroke-dasharray:none;stroke-opacity:1"
     d="m 40.544799,27.554668 c -0.75,-1.0916 -0.9276,-2.550533 0.0093,-4.029733 -1.251466,0.55 -2.417733,1.226133 -3.491066,2.006266 0.5052,1.022934 1.910933,2.26 3.481733,2.023467 z"
     inkscape:connector-curvature="0" /><path
     id="path110"
     style="fill:none;stroke:#231f20;stroke-width:0.03893333;stroke-linecap:butt;stroke-linejoin:miter;stroke-miterlimit:3.86370993;stroke-dasharray:none;stroke-opacity:1"
     d="m 36.069332,28.507868 -0.06,-0.01573 c -0.194266,0.575066 -0.1708,1.7792 -0.01973,2.386 1.0948,0.326 2.369733,0.382266 3.811467,0.371866 1.200533,-0.0079 2.343733,-0.0364 3.465066,-0.02187 -0.4036,-0.5068 -0.624933,-1.0432 -0.724933,-1.515067 -1.6724,0.668133 -4.978667,0.450933 -6.471867,-1.2052 z"
     inkscape:connector-curvature="0" /><path
     id="path112"
     style="fill:none;stroke:#231f20;stroke-width:0.03893333;stroke-linecap:butt;stroke-linejoin:miter;stroke-miterlimit:3.86370993;stroke-dasharray:none;stroke-opacity:1"
     d="m 37.023999,37.192135 c -0.360933,-0.179067 -0.714133,-0.374934 -1.054667,-0.592134 -0.417733,0.300534 -0.798533,0.5948 -1.145866,0.882267 -0.01307,0.01307 -0.02653,0.02507 -0.04173,0.03547 -0.7396,0.6156 -1.325466,1.203067 -1.791599,1.761467 -0.012,0.01867 -0.02613,0.03533 -0.04173,0.05107 -0.210933,0.2552 -0.395733,0.504133 -0.559866,0.747866 -0.012,0.0292 -0.02973,0.0568 -0.05307,0.08013 -0.6604,1.006266 -0.951067,1.91 -1.1,2.716266 -0.220933,1.192667 -0.0548,2.730134 -0.748,3.780667 1.087067,-0.06453 1.3896,-0.3692 2.052133,-1.035867 -0.6636,-2.984933 1.479733,-6.8224 4.4844,-8.427199 z"
     inkscape:connector-curvature="0" /><path
     id="path114"
     style="fill:none;stroke:#231f20;stroke-width:0.03893333;stroke-linecap:butt;stroke-linejoin:miter;stroke-miterlimit:3.86370993;stroke-dasharray:none;stroke-opacity:1"
     d="m 37.357332,42.657334 c -0.074,0.109334 -0.1412,0.223334 -0.201066,0.342667 -0.645867,1.282267 0.04893,2.268267 0.8244,2.268267 1.7516,0 1.648,-2.512534 -0.623334,-2.610934 z"
     inkscape:connector-curvature="0" /><path
     id="path116"
     style="fill:none;stroke:#231f20;stroke-width:0.03893333;stroke-linecap:butt;stroke-linejoin:miter;stroke-miterlimit:3.86370993;stroke-dasharray:none;stroke-opacity:1"
     d="m 34.183866,37.289601 c -0.976533,-0.762533 -2.024533,-1.6104 -2.5688,-2.726533 -0.09213,0.631733 -0.04107,1.226 0.09013,1.772933 l 0.0047,0.02027 c 0.2276,0.9276 0.686,1.716666 1.069333,2.310933 0.392134,-0.443733 0.856267,-0.9036 1.404667,-1.3776 z"
     inkscape:connector-curvature="0" /><path
     id="path118"
     style="fill:none;stroke:#231f20;stroke-width:0.03893333;stroke-linecap:butt;stroke-linejoin:miter;stroke-miterlimit:3.86370993;stroke-dasharray:none;stroke-opacity:1"
     d="m 32.122399,48.596934 c 0.05267,0.784267 0.125467,1.574934 0.0156,2.348933 0.8984,-0.06253 1.238,-0.323999 1.726533,-0.819866 -0.656133,-0.409333 -1.220799,-0.868133 -1.742133,-1.529067 z"
     inkscape:connector-curvature="0" /><path
     id="path120"
     style="fill:none;stroke:#231f20;stroke-width:0.03893333;stroke-linecap:butt;stroke-linejoin:miter;stroke-miterlimit:3.86370993;stroke-dasharray:none;stroke-opacity:1"
     d="m 31.844266,38.181201 -1.092667,0.552133 0.570267,1.2188 c 0.210933,-0.102666 0.425467,-0.183866 0.640133,-0.2396 0.133334,-0.195866 0.279734,-0.394266 0.440667,-0.595866 -0.200533,-0.309334 -0.388667,-0.6208 -0.5584,-0.935467 z"
     inkscape:connector-curvature="0" /><path
     id="path122"
     style="fill:none;stroke:#231f20;stroke-width:0.03893333;stroke-linecap:butt;stroke-linejoin:miter;stroke-miterlimit:3.86370993;stroke-dasharray:none;stroke-opacity:1"
     d="m 28.743199,43.162001 c 0.0136,0.2312 0.0292,0.458267 0.04853,0.681733 0.5276,-0.380133 1.385333,-0.963066 1.9052,-1.1224 0.130133,-0.679733 0.355733,-1.421866 0.787466,-2.2244 -0.04427,0.0228 -0.08853,0.0468 -0.1328,0.0708 -0.01253,0.0083 -0.0256,0.0156 -0.03907,0.02187 -1.2084,0.692667 -2.318267,2.088 -2.569334,2.5724 z"
     inkscape:connector-curvature="0" /><path
     id="path124"
     style="fill:none;stroke:#231f20;stroke-width:0.03893333;stroke-linecap:butt;stroke-linejoin:miter;stroke-miterlimit:3.86370993;stroke-dasharray:none;stroke-opacity:1"
     d="m 28.850533,39.603068 c -0.1068,0.871866 -0.1552,1.746933 -0.142667,2.617733 0.273867,-0.354133 0.637467,-0.7672 1.056667,-1.157733 z"
     inkscape:connector-curvature="0" /><path
     id="path126"
     style="fill:none;stroke:#231f20;stroke-width:0.03893333;stroke-linecap:butt;stroke-linejoin:miter;stroke-miterlimit:3.86370993;stroke-dasharray:none;stroke-opacity:1"
     d="m 29.171333,37.729201 c -0.074,0.337467 -0.1396,0.676 -0.196267,1.015067 l 1.2176,1.944266 c 0.204267,-0.1656 0.4172,-0.321866 0.636,-0.461466 -0.977067,-2.0244 -1.1724,-1.599467 0.764,-2.549467 -0.1432,-0.3088 -0.2656,-0.6224 -0.362,-0.9412 -0.520267,0.1224 -1.3572,0.498 -2.059333,0.9928 z"
     inkscape:connector-curvature="0" /><path
     id="path128"
     style="fill:none;stroke:#231f20;stroke-width:0.03893333;stroke-linecap:butt;stroke-linejoin:miter;stroke-miterlimit:3.86370993;stroke-dasharray:none;stroke-opacity:1"
     d="m 32.287999,30.490135 c -1.342133,1.980666 -2.331733,4.1776 -2.926533,6.45 0.6036,-0.356267 1.2484,-0.632267 1.7344,-0.748 -0.1688,-0.8588 -0.129733,-1.761867 0.223467,-2.7364 0.121333,-0.336 0.486933,-0.3 0.540533,0.05253 0.2208,1.4292 1.650533,2.546933 2.764133,3.413067 0.2656,-0.216134 0.55,-0.435867 0.852533,-0.6568 -1.616666,-1.182267 -2.869733,-2.935334 -3.188533,-5.7744 z"
     inkscape:connector-curvature="0" /><path
     id="path130"
     style="fill:none;stroke:#231f20;stroke-width:0.03893333;stroke-linecap:butt;stroke-linejoin:miter;stroke-miterlimit:3.86370993;stroke-dasharray:none;stroke-opacity:1"
     d="m 34.249999,28.025468 c -0.305733,0.328133 -0.6,0.666133 -0.8828,1.013067 0.561467,0.778133 1.233333,1.288533 2.010933,1.620266 -0.1016,-0.69 -0.107866,-1.6796 0.09013,-2.3104 z"
     inkscape:connector-curvature="0" /><path
     id="path132"
     style="fill:none;stroke:#231f20;stroke-width:0.03893333;stroke-linecap:butt;stroke-linejoin:miter;stroke-miterlimit:3.86370993;stroke-dasharray:none;stroke-opacity:1"
     d="m 50.021332,26.168801 c -0.2536,0.151467 -0.571333,0.245734 -0.955733,0.255734 -0.109334,0.794266 -0.207734,1.644266 -0.09213,2.430666 l 1.4864,-1.601066 c -0.266133,-0.355734 -0.4052,-0.7292 -0.438533,-1.085334 z"
     inkscape:connector-curvature="0" /><path
     id="path134"
     style="fill:none;stroke:#231f20;stroke-width:0.03893333;stroke-linecap:butt;stroke-linejoin:miter;stroke-miterlimit:3.86370993;stroke-dasharray:none;stroke-opacity:1"
     d="m 48.363065,27.874535 c -0.419866,-0.103734 -0.831866,-0.234934 -1.006266,-0.6688 -0.0776,-0.1932 0.542133,-0.09693 0.618266,-0.09533 0.151467,0.0041 0.300934,-0.03333 0.449467,-0.07867 0.03387,-0.309867 0.076,-0.618134 0.118133,-0.9224 0.0011,-0.0077 0.0021,-0.01613 0.0037,-0.02493 0.014,-0.1 0.02813,-0.199466 0.04107,-0.298933 0.05053,-0.369867 0.6032,-0.295867 0.5568,0.07187 1.654667,-0.1376 1.329734,-2.502667 -0.4208,-2.1552 -0.366666,0.07333 -0.476133,-0.4776 -0.108933,-0.550533 0.396933,-0.07867 0.741733,-0.06093 1.0328,0.026 -0.1828,-2.373467 -3.821866,-0.924534 -1.748933,0.855733 0.2844,0.2432 -0.0812,0.669333 -0.365067,0.425466 -0.3636,-0.311866 -0.597333,-0.621333 -0.728667,-0.917199 -1.291066,0.198 -0.916133,1.787066 -0.09373,2.073466 l 0.01093,-0.04627 c 0.0896,-0.363066 0.634934,-0.2292 0.545334,0.1348 l -0.07187,0.290134 c -0.0021,0.012 -0.0052,0.02453 -0.0089,0.03693 l -1.315067,5.338133 c 0.229734,0.02387 0.459334,0.05253 0.6896,0.08533 l 1.940667,-2.090534 c -0.120934,-0.4844 -0.152667,-0.985466 -0.138534,-1.489066 z"
     inkscape:connector-curvature="0" /><path
     id="path136"
     style="fill:none;stroke:#231f20;stroke-width:0.03893333;stroke-linecap:butt;stroke-linejoin:miter;stroke-miterlimit:3.86370993;stroke-dasharray:none;stroke-opacity:1"
     d="m 51.134399,29.807868 c -0.309334,-0.429733 -0.4208,-1.062 -0.316667,-1.56 0.05307,-0.256267 0.304667,0.152667 0.354133,0.200533 0.172934,0.169334 0.409334,0.274534 0.642134,0.3724 0.4724,-0.677066 0.952666,-1.3468 1.443866,-2.0072 0.5536,-0.745333 1.118134,-1.474533 1.697867,-2.183866 -0.961467,-1.150533 -2.591733,-0.4964 -2.139067,1.321333 0.09013,0.363467 -0.454666,0.498933 -0.5448,0.135333 -0.101066,-0.404666 -0.121333,-0.766133 -0.0792,-1.080666 -1.229066,-0.406267 -2.106666,0.713066 -1.3432,1.829733 0.2552,-0.2412 0.644267,0.130133 0.3948,0.398933 l -2.185866,2.354667 c -0.01827,0.02867 -0.04173,0.0536 -0.0688,0.07347 l -1.762534,1.899466 c 0.767734,0.139067 1.544267,0.333334 2.342267,0.602 0.514533,-0.7916 1.035333,-1.5776 1.565067,-2.356133 z"
     inkscape:connector-curvature="0" /><path
     id="path138"
     style="fill:none;stroke:#231f20;stroke-width:0.03893333;stroke-linecap:butt;stroke-linejoin:miter;stroke-miterlimit:3.86370993;stroke-dasharray:none;stroke-opacity:1"
     d="m 48.655732,45.533334 c 3.119333,-1.2412 4.106267,-3.7672 3.9568,-5.778666 -0.709867,1.0432 -1.393733,2.065066 -2.055733,3.0344 -0.6256,0.915066 -1.257334,1.833333 -1.901067,2.744266 z"
     inkscape:connector-curvature="0" /><path
     id="path140"
     style="fill:none;stroke:#231f20;stroke-width:0.03893333;stroke-linecap:butt;stroke-linejoin:miter;stroke-miterlimit:3.86370993;stroke-dasharray:none;stroke-opacity:1"
     d="m 54.861465,38.403601 c 1.324534,-1.3484 1.747867,-2.798933 1.745867,-4.19 -0.726133,0.921867 -1.427067,1.868667 -2.104667,2.818667 0.1572,0.462 0.276,0.919866 0.3588,1.371333 z"
     inkscape:connector-curvature="0" /><path
     id="path142"
     style="fill:none;stroke:#231f20;stroke-width:0.03893333;stroke-linecap:butt;stroke-linejoin:miter;stroke-miterlimit:3.86370993;stroke-dasharray:none;stroke-opacity:1"
     d="m 58.913599,33.379201 c 1.421333,-1.167733 1.982266,-2.367733 1.946266,-3.840133 -0.760933,0.697333 -1.496266,1.45 -2.209333,2.240133 0.119733,0.544267 0.209333,1.0776 0.263067,1.6 z"
     inkscape:connector-curvature="0" /><path
     id="path144"
     style="fill:none;stroke:#231f20;stroke-width:0.03893333;stroke-linecap:butt;stroke-linejoin:miter;stroke-miterlimit:3.86370993;stroke-dasharray:none;stroke-opacity:1"
     d="m 58.893199,35.666668 c 2.888533,-1.3568 4.119866,-4.455733 3.847466,-7.690667 -0.457867,0.3412 -0.9068,0.704267 -1.348,1.087067 0.1896,1.989067 -0.5172,3.540533 -2.4296,4.991067 0.02333,0.550533 0.0025,1.088533 -0.06987,1.612533 z"
     inkscape:connector-curvature="0" /><path
     id="path146"
     style="fill:none;stroke:#231f20;stroke-width:0.03893333;stroke-linecap:butt;stroke-linejoin:miter;stroke-miterlimit:3.86370993;stroke-dasharray:none;stroke-opacity:1"
     d="m 47.529199,47.748934 c 0.01093,-0.002 0.0224,-0.0031 0.03387,-0.0036 3.2948,-0.3204 6.180134,-2.9412 6.771867,-6.4276 0,-0.0292 0.0041,-0.0584 0.01453,-0.08653 0.1104,-0.697867 0.128667,-1.429067 0.0412,-2.182267 -0.0084,-0.02867 -0.01253,-0.05827 -0.0104,-0.088 -0.05733,-0.4448 -0.150533,-0.897333 -0.284933,-1.354666 -0.342267,0.486933 -0.678667,0.9724 -1.009867,1.455733 0.4812,2.478667 -0.6584,5.9484 -4.9928,7.260933 -0.35,0.488534 -0.704666,0.973467 -1.063466,1.4536 0.167733,-0.0031 0.3344,-0.01293 0.5,-0.0276 z"
     inkscape:connector-curvature="0" /><path
     id="path148"
     style="fill:none;stroke:#231f20;stroke-width:0.03893333;stroke-linecap:butt;stroke-linejoin:miter;stroke-miterlimit:3.86370993;stroke-dasharray:none;stroke-opacity:1"
     d="m 35.409866,57.715601 c 0.0089,0.01307 0.0172,0.02707 0.024,0.04173 0.05787,0.102533 0.114,0.206267 0.168266,0.310933 1.101467,-0.645333 2.1468,-1.373466 3.1452,-2.1704 0.01253,-0.0124 0.02613,-0.02333 0.0412,-0.03333 0.469867,-0.376 0.9292,-0.768133 1.378667,-1.172933 0.0192,-0.02387 0.0416,-0.04373 0.0672,-0.0604 0.455733,-0.412934 0.9016,-0.8396 1.338533,-1.278134 0.01613,-0.0208 0.03547,-0.04053 0.05627,-0.05667 0.5848,-0.589067 1.1536,-1.2 1.7088,-1.828667 0.01987,-0.03853 0.048,-0.06987 0.08173,-0.0932 0.499067,-0.567733 0.986534,-1.1496 1.465734,-1.741733 0.01813,-0.0412 0.04573,-0.07347 0.07853,-0.0984 0.426667,-0.530267 0.845867,-1.069867 1.259467,-1.6156 0.03693,-0.05 0.03333,-0.036 0.06827,-0.09013 0.462933,-0.614134 0.9192,-1.235467 1.3692,-1.863067 0.01413,-0.03387 0.03547,-0.06453 0.06453,-0.09067 1.65,-2.304666 3.224,-4.6796 4.806267,-6.977066 0.01253,-0.0276 0.0292,-0.05147 0.04947,-0.0724 0.450533,-0.6536 0.9016,-1.3 1.3552,-1.938 0.0136,-0.02867 0.0324,-0.05413 0.0548,-0.07547 0.780666,-1.095333 1.570266,-2.161466 2.378533,-3.181333 0.07613,-0.09627 0.152667,-0.192133 0.2292,-0.287467 0.01613,-0.03173 0.038,-0.0588 0.06413,-0.08013 0.472934,-0.586 0.952,-1.156267 1.44,-1.705733 0.01573,-0.0256 0.03547,-0.04693 0.0584,-0.0652 0.8724,-0.979067 1.772934,-1.8932 2.712533,-2.721867 0.01867,-0.02333 0.0416,-0.04373 0.0672,-0.05933 0.590534,-0.517734 1.196267,-1.000534 1.820267,-1.445334 0.02187,-0.02133 0.04733,-0.0396 0.07493,-0.05307 l 0.0896,-0.06253 c 0.01413,-0.012 0.02973,-0.02293 0.04693,-0.0328 0.08693,-0.0604 0.174933,-0.120266 0.263066,-0.179733 l -0.540666,-1.5864 c -0.3052,0.235333 -0.6052,0.476 -0.901067,0.719733 -0.01453,0.0156 -0.03067,0.0292 -0.04893,0.0412 -10.573467,8.7812 -15.094266,23.033867 -26.792666,30.868266 0.161866,0.242667 0.315066,0.4864 0.4572,0.735334 z"
     inkscape:connector-curvature="0" /><path
     id="path150"
     style="fill:none;stroke:#231f20;stroke-width:0.03893333;stroke-linecap:butt;stroke-linejoin:miter;stroke-miterlimit:3.86370993;stroke-dasharray:none;stroke-opacity:1"
     d="m 45.505199,58.752134 c 0.0188,0.0031 0.03747,0.0083 0.0552,0.01453 0.231333,0.0588 0.4724,0.0896 0.721333,0.0896 0.704667,0 1.351067,-0.248933 1.856267,-0.6636 0.0099,-0.0099 0.0208,-0.01813 0.03173,-0.02653 0.635467,-0.5364 1.039067,-1.339067 1.039067,-2.236933 0,-0.433867 -0.09427,-0.845867 -0.263467,-1.2156 -0.01307,-0.02093 -0.02347,-0.04227 -0.03133,-0.06573 -0.474934,-0.973866 -1.474934,-1.6452 -2.632267,-1.6452 -0.146266,0 -0.2896,0.01093 -0.430133,0.0312 l -0.05987,0.0099 c -0.533866,0.0896 -1.019333,0.324 -1.4136,0.662 l -0.04067,0.03493 c -0.6036,0.535867 -0.983867,1.3176 -0.983867,2.188534 0,1.347866 0.911467,2.4828 2.1516,2.822933 z"
     inkscape:connector-curvature="0" /><path
     id="path152"
     style="fill:none;stroke:#231f20;stroke-width:0.03893333;stroke-linecap:butt;stroke-linejoin:miter;stroke-miterlimit:3.86370993;stroke-dasharray:none;stroke-opacity:1"
     d="m 37.927599,69.378134 c 0.856267,-0.301067 1.618267,-0.671867 2.294267,-1.092667 0.02453,-0.02293 0.05267,-0.0412 0.08493,-0.05373 0.642133,-0.407734 1.2068,-0.861467 1.701067,-1.344267 0.01613,-0.02187 0.03533,-0.04107 0.0572,-0.0568 2.507866,-2.49 3.188,-5.744266 3.117733,-7.59 -0.577067,-0.190666 -1.087467,-0.5292 -1.486933,-0.969333 0.301466,3.258933 -0.740667,7.1896 -5.480267,9.5568 -0.0744,0.04067 -0.0932,0.04733 -0.1312,0.05107 -0.0292,0.002 -0.09013,0.0011 -0.168267,-0.02707 -0.8052,-0.2552 -1.629733,-0.6776 -2.3604,-1.2136 -0.09213,-0.06307 -0.09213,-0.0656 -0.173466,-0.1312 -0.6516,-0.504667 -1.217734,-1.1 -1.612534,-1.7448 -0.0468,-0.07507 -0.04427,-0.06933 -0.0728,-0.124 -0.936533,-1.6344 -0.759466,-3.567733 1.883334,-5.151067 -0.130267,-0.421866 -0.301067,-0.822933 -0.5032,-1.210933 -5.394267,3.686533 -3.2568,8.2552 2.850533,11.1016 z"
     inkscape:connector-curvature="0" /><path
     id="path154"
     style="fill:none;stroke:#231f20;stroke-width:0.03893333;stroke-linecap:butt;stroke-linejoin:miter;stroke-miterlimit:3.86370993;stroke-dasharray:none;stroke-opacity:1"
     d="m 40.470266,68.792667 c -0.549467,0.338 -1.152,0.644267 -1.811467,0.91 3.229733,1.36088 7.385467,2.197853 11.836,2.124413 -2.6224,-1.019266 -7.501067,-2.555746 -10.024533,-3.034413 z"
     inkscape:connector-curvature="0" /><path
     id="path156"
     style="fill:none;stroke:#231f20;stroke-width:0.03893333;stroke-linecap:butt;stroke-linejoin:miter;stroke-miterlimit:3.86370993;stroke-dasharray:none;stroke-opacity:1"
     d="m 42.313999,67.374 c -0.359333,0.344267 -0.7536,0.672934 -1.183733,0.980667 3.141066,0.684933 8.717599,2.51564 10.681199,3.418773 1.2,-0.06928 2.418267,-0.204693 3.644267,-0.414066 -3.3588,-1.142707 -10.136,-3.258307 -13.141733,-3.985374 z"
     inkscape:connector-curvature="0" /><path
     id="path158"
     style="fill:none;stroke:#231f20;stroke-width:0.03893333;stroke-linecap:butt;stroke-linejoin:miter;stroke-miterlimit:3.86370993;stroke-dasharray:none;stroke-opacity:1"
     d="m 45.747866,59.377067 c 0.02867,1.9032 -0.657734,5.029733 -2.975467,7.531733 3.4948,0.8808 11.024933,3.257334 13.7916,4.2412 0.375066,-0.0776 0.750533,-0.163026 1.126133,-0.254693 -0.480267,-2.21304 -0.434933,-5.455707 0.663467,-8.958906 -3.1364,-0.201467 -6.707734,-1.164534 -10.0088,-3.194267 -0.5776,0.424533 -1.2912,0.675067 -2.063067,0.675067 -0.1812,0 -0.359866,-0.0136 -0.533866,-0.04013 z"
     inkscape:connector-curvature="0" /><path
     id="path160"
     style="fill:none;stroke:#231f20;stroke-width:0.03893333;stroke-linecap:butt;stroke-linejoin:miter;stroke-miterlimit:3.86370993;stroke-dasharray:none;stroke-opacity:1"
     d="m 45.728132,51.750534 c 0.07133,0.2516 0.151067,0.486933 0.235867,0.7052 0.1048,-0.0088 0.210533,-0.01413 0.317733,-0.01413 0.553733,0 1.0776,0.128666 1.5428,0.3584 0.352533,-1.5036 -1.130267,-2.1588 -2.0964,-1.049467 z"
     inkscape:connector-curvature="0" /><path
     id="path162"
     style="fill:none;stroke:#231f20;stroke-width:0.03893333;stroke-linecap:butt;stroke-linejoin:miter;stroke-miterlimit:3.86370993;stroke-dasharray:none;stroke-opacity:1"
     d="m 47.739065,48.942668 c 2.4984,0.604266 3.352667,3.813066 1.777067,5.678133 0.1636,0.404666 0.2536,0.845866 0.2536,1.3084 0,0.9432 -0.373867,1.798933 -0.9812,2.426 4.892133,2.952666 10.3568,3.515066 13.969866,2.753066 3.776,-0.797866 5.132267,-2.8156 2.749467,-5.004666 -0.4136,-0.380134 0.713467,-1.4172 1.542667,-1.514534 0.0932,-0.5412 -0.129734,-0.922933 -0.5672,-1.1464 -1.176,-0.1104 -3.056267,0.507867 -4.299467,0.7876 -0.07293,0.243734 -0.433333,0.306667 -0.528667,0.0088 -0.1292,-0.404666 0.2068,-1.025066 0.2948,-1.213066 0.1708,-0.364534 0.633867,-0.1244 0.4724,0.198533 -0.05733,0.115067 -0.119733,0.266133 -0.166666,0.413467 1.290133,-0.304134 3.002133,-0.852534 4.225466,-0.758267 0.302667,-0.222933 1.1084,-0.823467 0.937067,-1.226133 -0.048,-0.111467 -0.1376,-0.2432 -0.282267,-0.435334 -0.602666,-0.797466 -0.346933,-1.356266 0.209334,-1.952666 -0.959334,-0.1224 -2.177067,0.0021 -2.822934,0.719867 -0.3724,0.414533 -1.038,-0.688534 -1.1088,-0.850534 -0.266666,-0.61 -0.223466,-1.420933 0.706667,-2.281333 0.274533,-0.254667 0.655733,0.157333 0.381333,0.411467 -0.742266,0.687066 -0.932266,1.430266 -0.232266,2.131333 l 0.03173,0.0312 c 1.003067,-0.825467 2.407333,-0.914 3.635333,-0.626533 l 0.01053,0.002 0.0093,-4e-4 c 2.126,-0.139067 1.9568,-0.9964 1.4052,-2.555734 -0.217733,-0.614666 -0.512533,-1.330266 -0.824533,-2.149066 -0.4552,-1.196267 -1.3,-3.630134 -2.202534,-6.277067 -2.421866,-0.951066 -5.865066,-0.3932 -8.511466,0.7828 -0.652133,1.0256 -1.6104,1.9876 -2.946933,2.886 -0.649467,3.6172 -3.611467,6.3604 -7.047867,6.791067 z"
     inkscape:connector-curvature="0" /><path
     id="path164"
     style="fill:none;stroke:#231f20;stroke-width:0.03893333;stroke-linecap:butt;stroke-linejoin:miter;stroke-miterlimit:3.86370993;stroke-dasharray:none;stroke-opacity:1"
     d="m 47.184932,48.854668 0.07027,-0.524 c -0.213467,0.01053 -0.4292,0.012 -0.645867,0.0037 -0.389066,0.512 -0.783333,1.0192 -1.1848,1.518667 0.01813,0.436 0.06973,0.849599 0.145734,1.235999 1.189599,-0.989599 3.454799,-0.329733 2.752666,2.010934 0.362533,0.262 0.671867,0.592133 0.910933,0.970266 1.2412,-1.752533 0.179734,-4.587999 -2.247866,-4.664533 -0.374,-0.012 -0.3568,-0.572933 0.01707,-0.561466 0.06147,0.0021 0.122,0.0052 0.181867,0.0104 z"
     inkscape:connector-curvature="0" /><path
     id="path166"
     style="fill:none;stroke:#231f20;stroke-width:0.03893333;stroke-linecap:butt;stroke-linejoin:miter;stroke-miterlimit:3.86370993;stroke-dasharray:none;stroke-opacity:1"
     d="m 56.928665,28.729201 c 0,0.289067 -0.234933,0.523467 -0.524,0.523467 -0.2896,0 -0.524,-0.2344 -0.524,-0.523467 0,-0.289066 0.2344,-0.524 0.524,-0.524 0.289067,0 0.524,0.234934 0.524,0.524 z"
     inkscape:connector-curvature="0" /><path
     id="path168"
     style="fill:none;stroke:#231f20;stroke-width:0.03893333;stroke-linecap:butt;stroke-linejoin:miter;stroke-miterlimit:3.86370993;stroke-dasharray:none;stroke-opacity:1"
     d="m 58.437999,26.994268 c 0,0.3224 -0.262,0.583867 -0.5844,0.583867 -0.3224,0 -0.584267,-0.261467 -0.584267,-0.583867 0,-0.322933 0.261867,-0.584933 0.584267,-0.584933 0.3224,0 0.5844,0.262 0.5844,0.584933 z"
     inkscape:connector-curvature="0" /><path
     id="path170"
     style="fill:none;stroke:#231f20;stroke-width:0.03893333;stroke-linecap:butt;stroke-linejoin:miter;stroke-miterlimit:3.86370993;stroke-dasharray:none;stroke-opacity:1"
     d="m 55.466665,30.598401 c 0,0.2552 -0.2068,0.462 -0.462533,0.462 -0.2552,0 -0.4624,-0.2068 -0.4624,-0.462 0,-0.255733 0.2072,-0.462933 0.4624,-0.462933 0.255733,0 0.462533,0.2072 0.462533,0.462933 z"
     inkscape:connector-curvature="0" /><path
     id="path172"
     style="fill:none;stroke:#231f20;stroke-width:0.03893333;stroke-linecap:butt;stroke-linejoin:miter;stroke-miterlimit:3.86370993;stroke-dasharray:none;stroke-opacity:1"
     d="m 39.433332,25.552135 c 0,0.312933 -0.253066,0.566666 -0.5656,0.566666 -0.312,0 -0.5656,-0.253733 -0.5656,-0.566666 0,-0.312534 0.2536,-0.5652 0.5656,-0.5652 0.312534,0 0.5656,0.252666 0.5656,0.5652 z"
     inkscape:connector-curvature="0" /><path
     id="path174"
     style="fill:none;stroke:#231f20;stroke-width:0.03893333;stroke-linecap:butt;stroke-linejoin:miter;stroke-miterlimit:3.86370993;stroke-dasharray:none;stroke-opacity:1"
     d="m 46.281732,56.938534 c 0.5568,0 1.008933,-0.4516 1.008933,-1.009333 0,-0.557334 -0.452133,-1.009467 -1.008933,-1.009467 -0.5572,0 -1.009333,0.452133 -1.009333,1.009467 0,0.557733 0.452133,1.009333 1.009333,1.009333 z"
     inkscape:connector-curvature="0" /><path
     id="path176"
     style="fill:none;stroke:#231f20;stroke-width:0.03893333;stroke-linecap:butt;stroke-linejoin:miter;stroke-miterlimit:3.86370993;stroke-dasharray:none;stroke-opacity:1"
     d="m 46.281732,57.500001 c -0.8672,0 -1.5708,-0.703067 -1.5708,-1.5708 0,-0.867734 0.7036,-1.5704 1.5708,-1.5704 0.866667,0 1.5704,0.702666 1.5704,1.5704 0,0.867733 -0.703733,1.5708 -1.5704,1.5708 z"
     inkscape:connector-curvature="0" /><path
     id="path178"
     style="fill:none;stroke:#231f20;stroke-width:0.03893333;stroke-linecap:butt;stroke-linejoin:miter;stroke-miterlimit:3.86370993;stroke-dasharray:none;stroke-opacity:1"
     d="m 67.936398,48.801068 c 0.0063,5.33e-4 0.01307,0.0011 0.01987,0.0016 l -0.0093,4e-4 z"
     inkscape:connector-curvature="0" /><path
     id="path180"
     style="fill:none;stroke:#231f20;stroke-width:0.03893333;stroke-linecap:butt;stroke-linejoin:miter;stroke-miterlimit:3.86370993;stroke-dasharray:none;stroke-opacity:1"
     d="m 59.646399,42.486934 c -0.148534,-0.475466 -0.207334,-1.004666 -0.166667,-1.6588 -0.853733,0.257867 -1.659467,0.642667 -2.349067,1.1844 0.259467,0.0864 0.630267,0.193734 1.092267,0.286934 0.4088,0.08173 0.887467,0.152666 1.423467,0.187466 z"
     inkscape:connector-curvature="0" /><path
     id="path182"
     style="fill:none;stroke:#231f20;stroke-width:0.03893333;stroke-linecap:butt;stroke-linejoin:miter;stroke-miterlimit:3.86370993;stroke-dasharray:none;stroke-opacity:1"
     d="m 60.054665,40.674534 c -0.07133,0.789467 0.0068,1.348934 0.1932,1.8348 0.357867,0.0032 0.736533,-0.0104 1.131333,-0.0484 -0.1828,-0.255733 -0.310933,-0.600533 -0.343733,-0.9828 -0.03187,-0.371333 0.02907,-0.7224 0.1552,-1.001066 -0.381333,0.0448 -0.762,0.110933 -1.136,0.197466 z"
     inkscape:connector-curvature="0" /><path
     id="path184"
     style="fill:none;stroke:#231f20;stroke-width:0.03893333;stroke-linecap:butt;stroke-linejoin:miter;stroke-miterlimit:3.86370993;stroke-dasharray:none;stroke-opacity:1"
     d="m 62.404132,39.832268 c 0.378133,-0.02187 0.781866,-0.04627 1.038533,0.02507 0.185467,0.012 0.270933,0.150534 0.2672,0.287467 -0.0052,0.3364 -0.439067,0.514533 -0.776,0.624933 0.05467,0.160534 0.09213,0.336534 0.107867,0.521467 0.06707,0.791067 -0.265734,1.5004 -0.7704,1.614 -0.01667,0.0057 -0.03533,0.0104 -0.05467,0.0136 -0.6208,0.102 -1.343733,0.153067 -2.089067,0.140533 -0.0536,0.01467 -0.111466,0.01467 -0.164533,-0.0041 -1.159466,-0.03333 -2.3604,-0.221867 -3.310933,-0.612533 -0.01773,0.0188 -0.02667,0.0292 -0.02667,0.0292 -0.239466,0.288 -0.670266,-0.07133 -0.4312,-0.359334 0.0063,-0.0073 0.06507,-0.07653 0.1792,-0.186533 0.01613,-0.02027 0.03493,-0.038 0.05573,-0.05307 0.6192,-0.576533 2.4916,-1.9932 5.974933,-2.040666 z"
     inkscape:connector-curvature="0" /><path
     id="path186"
     style="fill:#231f20;fill-opacity:1;fill-rule:nonzero;stroke:none;stroke-width:0.13333333"
     d="m 82.467731,18.577602 v 0.9948 h 3.165067 v 9.775466 h 1.188 v -9.775466 h 3.182266 v -0.9948 z m 9.951067,0 v 10.770266 h 5.855733 v -0.995733 h -4.650533 v -4.085467 h 4.210933 v -0.995333 h -4.210933 v -3.698933 h 4.650533 v -0.9948 z m 13.791602,0.677066 c 1.03333,0 1.9432,0.207867 2.79066,0.770267 l 0.4568,-0.863467 c -1.01093,-0.528666 -2.012,-0.819866 -3.24746,-0.819866 -3.18387,0 -5.6916,2.2944 -5.6916,5.5808 0,3.505199 2.50466,5.580266 5.6916,5.580266 1.09013,0 2.24586,-0.419867 3.19893,-0.9568 l -0.4276,-0.767733 c -0.84107,0.4672 -1.8172,0.813066 -2.77133,0.813066 -2.61614,0 -4.46254,-2.082933 -4.46254,-4.668799 0,-2.586 1.8464,-4.667734 4.46254,-4.667734 z m 5.9756,-0.677066 v 10.770266 h 1.20613 v -5.1604 h 5.86987 v 5.1604 h 1.19786 V 18.577602 H 119.262 v 4.6328 h -5.86987 v -4.6328 z m 13.36613,-0.247334 -1.2516,0.318667 v 10.698933 h 1.15053 l -0.005,-9.246266 6.33226,9.482799 1.27027,-0.350533 V 18.577602 h -1.12027 l -0.0208,9.239599 z m 11.85987,0.247334 v 10.770266 h 1.19733 V 18.577602 Z m 7.33733,10.112533 c -0.83733,0 -1.69733,-0.3652 -2.29333,-0.759867 l -0.47867,0.782267 c 0.868,0.521866 1.72933,0.7948 2.85067,0.7948 2.34133,0 3.43066,-1.468267 3.43066,-3.035467 0,-1.6412 -1.16533,-2.333333 -2.39733,-2.924933 l -0.904,-0.433333 c -0.78533,-0.395867 -1.62,-0.910934 -1.62,-1.9256 0,-1.3968 1.15067,-2.027067 2.13867,-2.027067 1.00666,0 1.66133,0.3536 2.28266,0.7568 l 0.41467,-0.790667 c -0.832,-0.482266 -1.74667,-0.783866 -2.76,-0.783866 -1.9,0 -3.20933,1.150533 -3.20933,2.7656 0,2.2532 1.648,2.660933 3.23466,3.425599 0.872,0.421334 1.59067,0.947867 1.59067,2.0484 0,1.2912 -0.948,2.107334 -2.28,2.107334 z M 156.576,19.254668 c 1.03466,0 1.944,0.207867 2.792,0.770267 l 0.456,-0.863467 c -1.01067,-0.528666 -2.012,-0.819866 -3.248,-0.819866 -3.18267,0 -5.69067,2.2944 -5.69067,5.5808 0,3.505199 2.50533,5.580266 5.69067,5.580266 1.09066,0 2.24666,-0.419867 3.2,-0.9568 l -0.428,-0.767733 c -0.84134,0.4672 -1.81734,0.813066 -2.772,0.813066 -2.61467,0 -4.46134,-2.082933 -4.46134,-4.668799 0,-2.586 1.84667,-4.667734 4.46134,-4.667734 z m 6.33333,-0.677066 v 10.770266 h 1.20533 v -5.1604 h 5.87067 v 5.1604 h 1.19733 V 18.577602 h -1.19733 v 4.6328 h -5.87067 v -4.6328 z m 12.112,0 v 10.770266 h 5.86533 V 28.352135 H 176.236 v -4.085467 h 4.212 v -0.9948 h -4.212 v -3.699466 h 4.65066 v -0.9948 z M 92.077064,43.458801 v -7.063466 h -1.2052 l -5.33e-4,6.889066 c 0,2.416133 -1.165067,3.178667 -3.0244,3.178667 -2.0376,0 -2.898533,-1.112 -2.898533,-3.178667 v -6.889066 h -1.2396 l 0.03133,7.167199 c 0,2.456267 1.445867,3.791067 4.1068,3.791067 2.0228,0 4.230133,-0.647867 4.230133,-3.8948 z m 4.6604,-7.302 -1.251466,0.318134 v 10.699066 h 1.150933 l -0.0052,-9.245867 6.332269,9.4828 1.2704,-0.350533 v -10.6568 h -1.11987 l -0.0213,9.2396 z m 11.276136,0.238534 v 10.778666 h 1.20573 V 36.395335 Z m 4.70666,-0.1656 -1.16973,0.369733 4.11253,10.574533 h 1.19 l 4.13814,-10.558933 -1.14334,-0.383333 -3.55826,9.666666 z m 10.59694,0.1656 v 10.778666 h 5.8552 v -0.9948 h -4.64947 v -4.085467 h 4.20213 v -0.995866 h -4.20213 v -3.707734 h 4.64947 v -0.994799 z m 11.32546,5.256266 h -1.43533 v -4.322933 h 1.73533 c 1.85734,0 2.412,0.907733 2.412,2.1484 0,1.715066 -1.34,2.174533 -2.712,2.174533 z m 0.60534,-5.247466 -3.25534,-0.0083 v 10.7864 h 1.21467 v -4.641067 h 0.98733 c 0.796,0 1.20667,0.292667 1.67467,0.8656 l 0.464,0.592667 2.52933,3.445866 1.052,-0.629733 -2.132,-2.821333 c -0.41866,-0.520267 -0.992,-1.5276 -1.68,-1.6916 l 0.0107,-0.2224 c 1.48533,-0.2 2.35333,-1.061467 2.35333,-2.799067 0,-1.754667 -1.18933,-2.877066 -3.21866,-2.877066 z m 8.97066,10.185466 c -0.83733,0 -1.696,-0.364667 -2.292,-0.758933 l -0.48,0.781866 c 0.86934,0.521867 1.72934,0.794267 2.85067,0.794267 2.34267,0 3.43067,-1.4672 3.43067,-3.034933 0,-1.640667 -1.164,-2.333334 -2.396,-2.924934 l -0.90534,-0.433866 c -0.78533,-0.395334 -1.62,-0.91 -1.62,-1.924534 0,-1.396933 1.152,-2.028133 2.14,-2.028133 1.00534,0 1.66,0.354133 2.28267,0.757333 l 0.41467,-0.790666 c -0.832,-0.482267 -1.748,-0.783333 -2.76134,-0.783333 -1.89866,0 -3.20933,1.149999 -3.20933,2.765599 0,2.252134 1.64933,2.66 3.23467,3.4256 0.872,0.420267 1.59066,0.947334 1.59066,2.0484 0,1.290667 -0.94666,2.106267 -2.28,2.106267 z m 6.74267,-10.194266 v 10.778666 h 1.20533 V 36.395335 Z m 3.56,0 v 0.994799 h 3.16667 v 9.783867 h 1.188 v -9.783867 h 3.18266 v -0.994799 z m 12.99467,1.085866 1.98266,5.3308 H 165.472 Z m 4.89733,9.563067 -4.26267,-10.648933 H 166.888 l -4.39067,10.648399 1.19067,0.416667 1.448,-3.776 h 4.688 l 1.40666,3.783333 z m -1.78667,-11.3328 h -1.084 v 1.408267 h 1.084 z m -5.10266,1.408267 v -1.408267 h -1.07467 v 1.408267 z m 7.99466,-0.7244 v 0.994799 h 3.164 v 9.783867 h 1.18934 v -9.783867 h 3.18133 V 36.395335 Z M 86.524531,64.058267 h -1.5756 v -8.904133 l 1.8208,0.0073 c 2.988667,0 4.949067,1.5292 4.949067,4.375467 0,2.8276 -1.996934,4.521333 -5.194267,4.521333 z m 0.500533,-9.8468 -3.291199,0.0104 V 64.9916 h 2.924933 c 3.731333,0 6.201066,-1.892133 6.201066,-5.533733 0,-2.633866 -1.5072,-5.2464 -5.8348,-5.2464 z m 12.519734,1.0864 1.982262,5.331867 H 97.498931 Z M 104.4412,64.862 100.17866,54.213067 h -1.262529 l -4.390667,10.6484 1.190134,0.416667 1.448933,-3.776 h 4.687069 l 1.4068,3.783333 z m 5.51613,-5.392266 h -1.436 v -4.3228 h 1.73653 c 1.85574,0 2.4104,0.9072 2.4104,2.148933 0,1.714534 -1.3396,2.173867 -2.71093,2.173867 z m 0.6052,-5.2468 -3.25573,-0.0093 v 10.786933 h 1.21453 V 60.3599 h 0.98707 c 0.7968,0 1.2072,0.292267 1.67546,0.864667 l 0.46307,0.5932 2.53013,3.445333 1.05107,-0.629733 -2.13173,-2.821333 c -0.4188,-0.519867 -0.9912,-1.5276 -1.67974,-1.6912 l 0.0109,-0.2224 c 1.486,-0.2 2.35266,-1.060934 2.35266,-2.799467 0,-1.754133 -1.18853,-2.876 -3.21773,-2.876 z m 11.3072,-0.0011 h -1.3156 l -3.01293,10.653067 1.15933,0.310533 2.538,-9.3532 2.7328,9.159333 h 1.35267 l 2.77813,-9.179599 2.50253,9.372933 1.14267,-0.309467 -2.9968,-10.6536 h -1.32293 l -2.78174,9.386934 z m 15.01293,10.1552 c -0.83733,0 -1.696,-0.364533 -2.292,-0.759333 l -0.47866,0.7828 c 0.868,0.5208 1.728,0.7932 2.84933,0.7932 2.34267,0 3.43067,-1.4672 3.43067,-3.0344 0,-1.641067 -1.164,-2.333333 -2.396,-2.924933 l -0.90534,-0.4344 c -0.784,-0.3948 -1.61866,-0.909867 -1.61866,-1.924534 0,-1.3968 1.15066,-2.027066 2.13866,-2.027066 1.00534,0 1.66134,0.353733 2.28267,0.7568 l 0.41467,-0.790667 c -0.832,-0.481733 -1.748,-0.783867 -2.76134,-0.783867 -1.89866,0 -3.20933,1.150534 -3.20933,2.765734 0,2.253066 1.64933,2.659866 3.23467,3.425466 0.872,0.421334 1.59066,0.947867 1.59066,2.0484 0,1.291734 -0.94666,2.1068 -2.28,2.1068 z m 5.51467,-10.1552 v 0.994267 h 3.164 V 64.9916 h 1.18933 v -9.775466 h 3.18134 v -0.994267 z m 13.13733,1.085467 1.98267,5.3312 h -4.028 z m 4.896,9.563466 -4.26266,-10.648933 h -1.26267 L 150.516,64.8708 l 1.19066,0.416134 1.448,-3.776 h 4.68667 l 1.40667,3.783333 z m 5.248,-0.812533 h -1.576 v -8.904133 l 1.82134,0.0073 c 2.988,0 4.948,1.5292 4.948,4.375467 0,2.8276 -1.996,4.521333 -5.19334,4.521333 z m 0.5,-9.8468 -3.29066,0.0104 V 64.9916 h 2.924 c 3.732,0 6.20133,-1.892133 6.20133,-5.533733 0,-2.633866 -1.50667,-5.2464 -5.83467,-5.2464 z m 7.30134,0.0104 v 0.994267 h 3.164 V 64.9916 h 1.18933 v -9.775466 h 3.18133 V 54.221867 H 173.48"
     inkscape:connector-curvature="0" /></svg>