<?xml version="1.0" encoding="UTF-8" standalone="no"?>
<!-- Created with Inkscape (http://www.inkscape.org/) -->

<svg
   xmlns:dc="http://purl.org/dc/elements/1.1/"
   xmlns:cc="http://creativecommons.org/ns#"
   xmlns:rdf="http://www.w3.org/1999/02/22-rdf-syntax-ns#"
   xmlns:svg="http://www.w3.org/2000/svg"
   xmlns="http://www.w3.org/2000/svg"
   xmlns:sodipodi="http://sodipodi.sourceforge.net/DTD/sodipodi-0.dtd"
   xmlns:inkscape="http://www.inkscape.org/namespaces/inkscape"
   id="svg2"
   version="1.1"
   inkscape:version="0.92.3 (2405546, 2018-03-11)"
   width="501.25"
   height="125"
   xml:space="preserve"
   sodipodi:docname="hgs_hire_inverted_new.svg"
   inkscape:export-filename="/home/lukas/Dropbox/work_presentations/_support/hgs_hire_inverted_new.png.png"
   inkscape:export-xdpi="96"
   inkscape:export-ydpi="96"><metadata
     id="metadata8"><rdf:RDF><cc:Work
         rdf:about=""><dc:format>image/svg+xml</dc:format><dc:type
           rdf:resource="http://purl.org/dc/dcmitype/StillImage" /><dc:title></dc:title></cc:Work></rdf:RDF></metadata><defs
     id="defs6" /><sodipodi:namedview
     pagecolor="#ffffff"
     bordercolor="#666666"
     borderopacity="1"
     objecttolerance="10"
     gridtolerance="10"
     guidetolerance="10"
     inkscape:pageopacity="0"
     inkscape:pageshadow="2"
     inkscape:window-width="1920"
     inkscape:window-height="1052"
     id="namedview4"
     showgrid="false"
     inkscape:zoom="2.1329585"
     inkscape:cx="182.58926"
     inkscape:cy="93.215451"
     inkscape:window-x="1920"
     inkscape:window-y="0"
     inkscape:window-maximized="1"
     inkscape:current-layer="g10" /><g
     id="g10"
     inkscape:groupmode="layer"
     inkscape:label="logo-hgs-hire"
     transform="matrix(1.25,0,0,-1.25,0,125)"><g
       id="g12"
       transform="scale(0.1,0.1)"><g
         id="g16"
         transform="scale(10,10)"
         style="fill:#00589c;fill-opacity:1"><g
   aria-label="HGS-HIRe"
   transform="matrix(1,0,0,-1,22.982,47.9246)"
   style="fill:#00589c;fill-opacity:1"
   id="text18"><path
     d="M 20.799805,0 V -12.116211 H 6.6611328 V 0 H 3.1171875 v -26.143555 h 3.5439453 v 11.058594 H 20.799805 V -26.143555 H 24.34375 V 0 Z"
     style="font-variant:normal;font-weight:normal;font-size:38px;font-family:Arial;-inkscape-font-specification:Arial;writing-mode:lr-tb;fill:#00589c;fill-opacity:1;fill-rule:nonzero;stroke:none"
     id="path2725" /><path
     d="m 30.107128,-13.192383 q 0,-6.364258 3.414063,-9.852539 3.414062,-3.488281 9.592773,-3.488281 4.341797,0 7.050781,1.46582 2.708985,1.465821 4.174805,4.694336 l -3.376953,1.001953 q -1.113281,-2.226562 -3.080078,-3.24707 -1.948242,-1.020508 -4.861328,-1.020508 -4.527344,0 -6.920899,2.746094 -2.393554,2.727539 -2.393554,7.700195 0,4.9541017 2.541992,7.8300783 2.541992,2.8574219 7.032226,2.8574219 2.560547,0 4.768555,-0.7792969 2.226562,-0.7792969 3.599609,-2.1152344 v -4.7128909 h -7.811523 v -2.96875 h 11.077148 v 9.0175784 q -2.078125,2.1152344 -5.102539,3.28417973 -3.005859,1.15039062 -6.53125,1.15039062 -4.100586,0 -7.069336,-1.63281245 -2.96875,-1.6328126 -4.545898,-4.694336 -1.558594,-3.0800781 -1.558594,-7.2363283 z"
     style="font-variant:normal;font-weight:normal;font-size:38px;font-family:Arial;-inkscape-font-specification:Arial;writing-mode:lr-tb;fill:#00589c;fill-opacity:1;fill-rule:nonzero;stroke:none"
     id="path2727" /><path
     d="m 82.121552,-7.2177734 q 0,3.618164 -2.838868,5.6035156 -2.820312,1.98535155 -7.959961,1.98535155 -9.555664,0 -11.077148,-6.64257815 l 3.432617,-0.6865234 q 0.59375,2.3564453 2.523438,3.4697265 1.929687,1.0947266 5.250976,1.0947266 3.432617,0 5.288086,-1.1689453 1.874024,-1.1875 1.874024,-3.4697266 0,-1.2802734 -0.59375,-2.078125 -0.575196,-0.7978515 -1.632813,-1.3173824 -1.057617,-0.519532 -2.523437,-0.872071 -1.465821,-0.352539 -3.247071,-0.760742 -3.098633,-0.686523 -4.71289,-1.373047 -1.595703,-0.686523 -2.523438,-1.521484 -0.927734,-0.853516 -1.428711,-1.985352 -0.482422,-1.131836 -0.482422,-2.597656 0,-3.358398 2.560547,-5.176758 2.579102,-1.818359 7.366211,-1.818359 4.453125,0 6.80957,1.373047 2.356446,1.354492 3.302735,4.638672 l -3.488281,0.612304 q -0.575196,-2.078125 -2.189454,-3.005859 -1.614257,-0.946289 -4.471679,-0.946289 -3.135742,0 -4.78711,1.039062 -1.651367,1.039063 -1.651367,3.098633 0,1.206055 0.63086,2.003906 0.649414,0.779297 1.855468,1.335938 1.206055,0.538086 4.805664,1.335937 1.206055,0.278321 2.393555,0.575196 1.206055,0.27832 2.300781,0.686523 1.094727,0.389649 2.041016,0.927735 0.964844,0.538085 1.669922,1.317382 0.705078,0.779297 1.094726,1.8369144 0.408204,1.0576172 0.408204,2.4863282 z"
     style="font-variant:normal;font-weight:normal;font-size:38px;font-family:Arial;-inkscape-font-specification:Arial;writing-mode:lr-tb;fill:#00589c;fill-opacity:1;fill-rule:nonzero;stroke:none"
     id="path2729" /><path
     d="m 86.314461,-8.609375 v -2.96875 h 9.277344 v 2.96875 z"
     style="font-variant:normal;font-weight:normal;font-size:38px;font-family:Arial;-inkscape-font-specification:Arial;writing-mode:lr-tb;fill:#00589c;fill-opacity:1;fill-rule:nonzero;stroke:none"
     id="path2731" /><path
     d="M 118.83978,0 V -12.116211 H 104.70111 V 0 h -3.54394 v -26.143555 h 3.54394 v 11.058594 h 14.13867 v -11.058594 h 3.54395 V 0 Z"
     style="font-variant:normal;font-weight:normal;font-size:38px;font-family:Arial;-inkscape-font-specification:Arial;writing-mode:lr-tb;fill:#00589c;fill-opacity:1;fill-rule:nonzero;stroke:none"
     id="path2733" /><path
     d="m 129.74281,0 v -26.143555 h 3.54395 V 0 Z"
     style="font-variant:normal;font-weight:normal;font-size:38px;font-family:Arial;-inkscape-font-specification:Arial;writing-mode:lr-tb;fill:#00589c;fill-opacity:1;fill-rule:nonzero;stroke:none"
     id="path2735" /><path
     d="m 159.15762,0 -6.79101,-10.854492 H 144.2211 V 0 h -3.54395 v -26.143555 h 12.30176 q 4.41602,0 6.80957,1.985352 2.41211,1.966797 2.41211,5.492187 0,2.913086 -1.70703,4.898438 -1.68848,1.985351 -4.67578,2.504883 L 163.23965,0 Z m -0.51953,-18.628906 q 0,-2.282227 -1.55859,-3.469727 -1.54004,-1.206054 -4.45313,-1.206054 h -8.40527 v 9.648437 h 8.55371 q 2.80176,0 4.32324,-1.298828 1.54004,-1.317383 1.54004,-3.673828 z"
     style="font-variant:normal;font-weight:normal;font-size:38px;font-family:Arial;-inkscape-font-specification:Arial;writing-mode:lr-tb;fill:#00589c;fill-opacity:1;fill-rule:nonzero;stroke:none"
     id="path2737" /><path
     d="m 170.87706,-9.3330078 q 0,3.4511719 1.42871,5.3251953 1.42871,1.8740234 4.17481,1.8740234 2.17089,0 3.46972,-0.8720703 1.31738,-0.8720703 1.78125,-2.2080078 l 2.93164,0.834961 q -1.7998,4.74999995 -8.18261,4.74999995 -4.45313,0 -6.79102,-2.65332035 -2.31934,-2.6533203 -2.31934,-7.8857424 0,-4.972656 2.31934,-7.625976 2.33789,-2.653321 6.66113,-2.653321 8.85059,0 8.85059,10.6689457 v 0.4453125 z m 10.87305,-2.5605472 q -0.27832,-3.172851 -1.61426,-4.620117 -1.33594,-1.46582 -3.84082,-1.46582 -2.43067,0 -3.85938,1.632812 -1.41015,1.614258 -1.52148,4.453125 z"
     style="font-variant:normal;font-weight:normal;font-size:38px;font-family:Arial;-inkscape-font-specification:Arial;writing-mode:lr-tb;fill:#00589c;fill-opacity:1;fill-rule:nonzero;stroke:none"
     id="path2739" /></g>
</g><path
         d="m 260.805,479.246 0,271.906 35.984,0 0,-111.968 139.953,0 0,111.968 35.985,0 0,-271.906 -35.985,0 0,127.953 -139.953,0 0,-127.953 -35.984,0 z m 407.976,106.953 0,32 114.969,0 0,-100.609 c -18.023,-13.824 -35.992,-24.61 -54.812,-31.703 -18.856,-6.973 -38.149,-10.641 -57.969,-10.641 -26.793,0 -51.055,5.711 -72.906,17.141 -21.93,11.711 -38.356,27.945 -49.5,49.562 -11.387,21.723 -16.719,45.774 -16.719,72.453 0,26.719 5.535,51.11 16.609,74.016 10.879,23.191 27.02,39.93 47.813,51.047 20.66,11.383 44.757,16.687 71.875,16.687 19.597,0.032 37.5,-3.214 53.406,-9.64 15.672,-6.184 28.375,-15.383 37.406,-26.86 9.004,-11.273 15.914,-26.437 20.625,-44.906 l -33.109,-8.891 c -4.274,13.899 -9.125,24.571 -15.188,32.407 -6.199,8.172 -14.699,14.117 -25.937,18.828 -11.399,4.758 -23.703,7.062 -37.422,7.062 -16.445,0.032 -30.617,-2.492 -42.594,-7.468 -12.14,-4.793 -21.648,-11.539 -29,-19.672 -7.508,-8.047 -13.058,-17.043 -17.14,-26.75 -7.024,-16.422 -10.36,-34.907 -10.36,-54.469 -0.328,-23.977 4.164,-44.313 12.5,-60.563 8.172,-16.234 20.461,-28.304 36.391,-36.187 15.644,-7.809 32.851,-11.813 50.75,-11.813 15.363,0.004 30.765,3.004 45.578,9.016 14.754,6.008 26.055,12.422 33.703,19.234 l 0,50.719 -78.969,0 z m 164.239,-18.984 33.984,3 c 1.254,-13.656 5.269,-24.883 11.062,-33.641 5.786,-8.527 14.805,-15.828 27.016,-21.234 12.188,-5.106 25.941,-8.11 41.203,-8.11 13.461,0.004 25.516,2.047 35.891,6.141 10.332,4.395 18.114,9.727 23.174,16.875 4.95,7.145 7.59,14.895 7.59,23.25 -0.31,8.738 -2.46,15.899 -7.37,22.234 -5.11,6.504 -12.996,11.657 -24.222,15.969 -7.309,3.024 -23.118,7.258 -47.75,13.25 -24.821,6.086 -41.953,11.645 -51.985,16.969 -13.187,6.91 -22.672,15.242 -29.047,25.328 -6.558,10.094 -9.562,21.391 -9.562,33.891 -0.328,13.773 3.875,26.578 11.625,38.515 7.555,12.145 19.082,21.016 33.969,27.203 14.691,6.329 31.429,9.297 49.64,9.297 19.977,0.032 37.739,-3.242 53.063,-9.718 15.229,-6.2 27.099,-15.993 35.339,-28.563 8.04,-12.437 12.68,-26.797 13.3,-42.703 l -34.98,-3 c -2.15,17.172 -8.03,30.094 -18.581,38.844 -10.672,8.836 -26.133,13.14 -46.734,13.14 -21.668,0.032 -37.102,-3.984 -46.922,-11.953 -10.047,-7.945 -14.719,-17.558 -14.719,-28.797 -0.328,-9.468 3.469,-17.777 10.406,-24.078 6.703,-5.996 24.672,-12.761 53.516,-19.375 28.539,-6.508 48.711,-12.371 59.614,-17.297 15.66,-7.074 27.52,-16.492 35.07,-27.656 7.35,-11.074 11.33,-24.012 11.33,-38.562 -0.31,-14.149 -4.12,-28.008 -12.34,-40.766 -8.42,-12.57 -20.05,-22.688 -35.46,-29.781 -15.445,-6.973 -32.745,-10.641 -52.027,-10.641 -24.461,0 -44.902,3.586 -61.422,10.75 -16.734,7.258 -29.464,17.961 -38.859,32.359 -9.656,14.704 -14.324,30.692 -14.812,48.86 z m 255.06,-6 0,33.984 103.96,0 0,-33.984 -103.96,0 z m 153.12,-81.969 0,271.906 35.99,0 0,-111.968 139.95,0 0,111.968 35.99,0 0,-271.906 -35.99,0 0,127.953 -139.95,0 0,-127.953 -35.99,0 z m 285.02,0 0,271.906 35.99,0 0,-271.906 -35.99,0 z m 110.19,0 0,271.906 119.87,0 c 23.77,0.032 42.33,-2.445 54.85,-7.328 12.27,-4.734 22.5,-13.484 29.98,-25.828 7.25,-12.25 11.22,-25.976 11.22,-40.922 -0.31,-19.195 -6.2,-35.48 -18.58,-48.687 -12.5,-12.922 -31.52,-21.606 -57.41,-25.188 9.18,-4.558 16.7,-9.078 21.63,-13.515 10.3,-9.438 20.36,-21.727 29.66,-36.297 l 46.73,-74.141 -44.84,0 -35.69,56.688 c -10.56,16.445 -19.02,28.847 -25.77,37.515 -6.96,8.942 -12.79,14.742 -18.12,18.203 -5.51,3.664 -10.76,5.883 -16.28,7.25 -4.14,0.977 -10.68,1.297 -19.88,1.297 l -41.39,0 0,-120.953 -35.98,0 z m 35.98,152.938 76.74,0 c 16.07,0.019 29.04,1.679 38.2,5.046 8.85,3.368 16.11,8.743 20.87,16.141 4.5,7.695 7.14,15.445 7.14,24.125 -0.3,12.969 -4.61,23.172 -13.84,31.359 -9.26,8.329 -23.81,12.297 -43.73,12.297 l -85.38,0 0,-88.968 z M 2048,543.23 l 34.25,-4 c -5.74,-20.265 -15.62,-36.007 -30.45,-47.203 -14.94,-11.117 -33.76,-16.781 -56.81,-16.781 -29.22,0 -52.05,8.828 -69.05,26.484 -17.17,17.836 -25.5,42.442 -25.5,74.329 0,33.039 8.6,58.57 25.78,76.781 16.93,18.351 39.49,27.328 66.91,27.328 26.3,0.023 48.2,-8.922 65.01,-26.766 16.58,-17.562 25.22,-42.953 25.22,-75.328 -0.31,-1.914 -0.06,-4.922 -0.18,-8.859 l -148.75,0 c 0.93,-21.637 7.49,-38.227 18.7,-49.735 10.99,-11.246 25.2,-17.25 41.95,-17.25 12.27,0.004 23.13,3.258 31.94,9.782 8.63,6.597 15.82,16.926 20.98,31.218 z m -112.57,52.969 112.95,0 c -1.84,16.711 -5.84,29.211 -12.94,37.547 -10.93,13.125 -25.09,19.438 -42.48,19.438 -15.92,0.019 -29,-5.168 -39.72,-15.5 -11,-10.149 -16.67,-24.164 -17.81,-41.485 z"
         style="fill:#00589c;stroke:#00589c;stroke-opacity:1;stroke-width:10;stroke-linecap:butt;stroke-linejoin:miter;stroke-miterlimit:4;stroke-dasharray:none;fill-opacity:1"
         id="path22" /><g
         id="g24"
         transform="scale(10,10)"><g
   aria-label="Helmholtz Graduate School for Hadron and Ion Research"
   transform="matrix(1,0,0,-1,23.8152,21.5605)"
   style="fill:#00589c;fill-opacity:1"
   id="text26"><path
     d="M 7.6630859,0 V -4.4638672 H 2.4541016 V 0 H 1.1484375 v -9.6318359 h 1.3056641 v 4.0742187 H 7.6630859 V -9.6318359 H 8.96875 V 0 Z"
     style="font-variant:normal;font-weight:normal;font-size:14px;font-family:Arial;-inkscape-font-specification:Arial;writing-mode:lr-tb;fill:#00589c;fill-opacity:1;fill-rule:nonzero;stroke:none"
     id="path2742" /><path
     d="m 11.994719,-3.4384766 q 0,1.2714844 0.526367,1.9619141 0.526367,0.69042969 1.538086,0.69042969 0.799804,0 1.27832,-0.32128909 0.485352,-0.321289 0.65625,-0.8134765 l 1.080078,0.3076172 q -0.663086,1.74999995 -3.014648,1.74999995 -1.640625,0 -2.501953,-0.97753906 -0.854493,-0.97753909 -0.854493,-2.90527349 0,-1.8320312 0.854493,-2.8095703 0.861328,-0.977539 2.454101,-0.977539 3.260742,0 3.260742,3.930664 v 0.1640625 z m 4.005859,-0.9433593 q -0.102539,-1.1689453 -0.594727,-1.7021485 -0.492187,-0.540039 -1.415039,-0.540039 -0.895508,0 -1.421875,0.6015625 -0.519531,0.5947265 -0.560547,1.640625 z"
     style="font-variant:normal;font-weight:normal;font-size:14px;font-family:Arial;-inkscape-font-specification:Arial;writing-mode:lr-tb;fill:#00589c;fill-opacity:1;fill-rule:nonzero;stroke:none"
     id="path2744" /><path
     d="m 18.83536,0 v -10.144531 h 1.230468 V 0 Z"
     style="font-variant:normal;font-weight:normal;font-size:14px;font-family:Arial;-inkscape-font-specification:Arial;writing-mode:lr-tb;fill:#00589c;fill-opacity:1;fill-rule:nonzero;stroke:none"
     id="path2746" /><path
     d="m 26.25,0 v -4.6894531 q 0,-1.0732422 -0.293945,-1.4833985 -0.293946,-0.4101562 -1.059571,-0.4101562 -0.786132,0 -1.24414,0.6015625 -0.458008,0.6015625 -0.458008,1.6953125 V 0 h -1.223633 v -5.8173828 q 0,-1.2919922 -0.04102,-1.5791016 h 1.16211 q 0.0068,0.03418 0.01367,0.1845703 0.0068,0.1503907 0.01367,0.3486329 0.01367,0.1914062 0.02734,0.7314453 h 0.02051 q 0.396485,-0.7861328 0.90918,-1.09375 0.512695,-0.3076172 1.250976,-0.3076172 0.840821,0 1.326172,0.3349609 0.492188,0.334961 0.683594,1.0664063 h 0.02051 q 0.382812,-0.7451172 0.922851,-1.0732422 0.546875,-0.328125 1.319336,-0.328125 1.121094,0 1.626953,0.6083984 0.512696,0.6083985 0.512696,1.9960938 V 0 h -1.216797 v -4.6894531 q 0,-1.0732422 -0.293945,-1.4833985 -0.293946,-0.4101562 -1.059571,-0.4101562 -0.80664,0 -1.257812,0.6015625 -0.444336,0.5947266 -0.444336,1.6953125 V 0 Z"
     style="font-variant:normal;font-weight:normal;font-size:14px;font-family:Arial;-inkscape-font-specification:Arial;writing-mode:lr-tb;fill:#00589c;fill-opacity:1;fill-rule:nonzero;stroke:none"
     id="path2748" /><path
     d="m 34.828991,-6.1318359 q 0.396484,-0.7246094 0.950195,-1.0595703 0.560547,-0.3417969 1.415039,-0.3417969 1.203125,0 1.770508,0.6015625 0.574219,0.5947265 0.574219,2.0029297 V 0 h -1.237305 v -4.6894531 q 0,-0.7792969 -0.143555,-1.1552735 -0.143554,-0.3828125 -0.471679,-0.5605468 -0.328125,-0.1777344 -0.90918,-0.1777344 -0.868164,0 -1.394531,0.6015625 -0.519531,0.6015625 -0.519531,1.6201172 V 0 h -1.230469 v -10.144531 h 1.230469 v 2.6386716 q 0,0.4169922 -0.02734,0.8613282 -0.02051,0.4443359 -0.02734,0.5126953 z"
     style="font-variant:normal;font-weight:normal;font-size:14px;font-family:Arial;-inkscape-font-specification:Arial;writing-mode:lr-tb;fill:#00589c;fill-opacity:1;fill-rule:nonzero;stroke:none"
     id="path2750" /><path
     d="m 47.644241,-3.7050781 q 0,1.9414062 -0.854492,2.89160154 -0.854492,0.95019531 -2.481445,0.95019531 -1.620117,0 -2.447266,-0.984375 -0.827148,-0.99121095 -0.827148,-2.85742185 0,-3.828125 3.315429,-3.828125 1.695313,0 2.495118,0.9365234 0.799804,0.9296875 0.799804,2.8916016 z m -1.291992,0 q 0,-1.53125 -0.458008,-2.2216797 -0.451172,-0.6972656 -1.524414,-0.6972656 -1.080078,0 -1.565429,0.7109375 -0.478516,0.7041015 -0.478516,2.2080078 0,1.4628906 0.47168,2.2011719 0.478515,0.73144526 1.49707,0.73144526 1.107422,0 1.579102,-0.71093746 0.478515,-0.7109375 0.478515,-2.2216797 z"
     style="font-variant:normal;font-weight:normal;font-size:14px;font-family:Arial;-inkscape-font-specification:Arial;writing-mode:lr-tb;fill:#00589c;fill-opacity:1;fill-rule:nonzero;stroke:none"
     id="path2752" /><path
     d="m 49.173359,0 v -10.144531 h 1.230469 V 0 Z"
     style="font-variant:normal;font-weight:normal;font-size:14px;font-family:Arial;-inkscape-font-specification:Arial;writing-mode:lr-tb;fill:#00589c;fill-opacity:1;fill-rule:nonzero;stroke:none"
     id="path2754" /><path
     d="M 55.125111,-0.0546875 Q 54.516712,0.109375 53.88097,0.109375 q -1.476562,0 -1.476562,-1.6748047 v -4.9355469 h -0.854493 v -0.8955078 h 0.902344 l 0.362305,-1.6542969 h 0.820312 v 1.6542969 h 1.367188 v 0.8955078 h -1.367188 v 4.6689454 q 0,0.5332031 0.170899,0.7519531 0.177734,0.21191404 0.608398,0.21191404 0.246094,0 0.710938,-0.0957031 z"
     style="font-variant:normal;font-weight:normal;font-size:14px;font-family:Arial;-inkscape-font-specification:Arial;writing-mode:lr-tb;fill:#00589c;fill-opacity:1;fill-rule:nonzero;stroke:none"
     id="path2756" /><path
     d="m 55.797382,0 v -0.93652344 l 4.135743,-5.50976566 h -3.903321 v -0.9501953 h 5.359375 v 0.9365235 l -4.142578,5.50976559 h 4.286133 V 0 Z"
     style="font-variant:normal;font-weight:normal;font-size:14px;font-family:Arial;-inkscape-font-specification:Arial;writing-mode:lr-tb;fill:#00589c;fill-opacity:1;fill-rule:nonzero;stroke:none"
     id="path2758" /><path
     d="m 66.826103,-4.8603516 q 0,-2.3447265 1.257813,-3.6298828 1.257812,-1.2851562 3.534179,-1.2851562 1.59961,0 2.597657,0.540039 0.998047,0.5400391 1.538086,1.7294922 l -1.244141,0.3691407 q -0.410156,-0.8203125 -1.134766,-1.1962891 -0.717773,-0.3759766 -1.791015,-0.3759766 -1.667969,0 -2.549805,1.0117188 -0.881836,1.0048828 -0.881836,2.836914 0,1.8251953 0.936524,2.8847657 0.936523,1.05273434 2.59082,1.05273434 0.943359,0 1.756836,-0.28710934 0.820312,-0.2871094 1.326172,-0.7792969 v -1.7363281 h -2.87793 v -1.09375 h 4.081055 v 3.3222656 q -0.765625,0.77929686 -1.879883,1.20996092 -1.107422,0.42382813 -2.40625,0.42382813 -1.510742,0 -2.604492,-0.6015625 -1.09375,-0.60156245 -1.674805,-1.72949215 -0.574219,-1.1347657 -0.574219,-2.6660157 z"
     style="font-variant:normal;font-weight:normal;font-size:14px;font-family:Arial;-inkscape-font-specification:Arial;writing-mode:lr-tb;fill:#00589c;fill-opacity:1;fill-rule:nonzero;stroke:none"
     id="path2760" /><path
     d="m 77.984703,0 v -5.6738281 q 0,-0.7792969 -0.04102,-1.7226563 h 1.16211 q 0.05469,1.2578125 0.05469,1.5107422 h 0.02734 q 0.293945,-0.9501953 0.676758,-1.2988281 0.382812,-0.3486328 1.080078,-0.3486328 0.246094,0 0.499023,0.068359 v 1.1279296 q -0.246093,-0.068359 -0.65625,-0.068359 -0.765625,0 -1.168945,0.6630859 -0.40332,0.65625 -0.40332,1.8867187 V 0 Z"
     style="font-variant:normal;font-weight:normal;font-size:14px;font-family:Arial;-inkscape-font-specification:Arial;writing-mode:lr-tb;fill:#00589c;fill-opacity:1;fill-rule:nonzero;stroke:none"
     id="path2762" /><path
     d="m 84.506081,0.13671875 q -1.114258,0 -1.674805,-0.58789063 -0.560547,-0.58789062 -0.560547,-1.61328122 0,-1.1484375 0.751953,-1.7636719 0.758789,-0.6152344 2.44043,-0.65625 l 1.661133,-0.027344 v -0.4033204 q 0,-0.9023437 -0.382813,-1.2919921 -0.382812,-0.3896485 -1.203125,-0.3896485 -0.827148,0 -1.203125,0.2802735 -0.375976,0.2802734 -0.451172,0.8955078 l -1.285156,-0.116211 q 0.314453,-1.9960937 2.966797,-1.9960937 1.394531,0 2.098633,0.6425781 0.704101,0.6357422 0.704101,1.8457031 v 3.1855469 q 0,0.546875 0.143555,0.8271484 0.143555,0.27343754 0.546875,0.27343754 0.177734,0 0.40332,-0.0478516 v 0.76562501 q -0.464843,0.10937499 -0.950195,0.10937499 -0.683594,0 -0.998047,-0.35546875 -0.307617,-0.36230468 -0.348633,-1.12792972 h -0.04102 q -0.47168,0.84765629 -1.100586,1.20312504 -0.622071,0.34863281 -1.517578,0.34863281 z m 0.280273,-0.92285156 q 0.676758,0 1.203125,-0.30761719 0.526367,-0.3076172 0.827149,-0.8408203 0.307617,-0.5400391 0.307617,-1.1074219 v -0.6083984 l -1.34668,0.027344 q -0.868164,0.013672 -1.319336,0.1777344 -0.444336,0.1640625 -0.683594,0.5058594 -0.239257,0.3417968 -0.239257,0.8955078 0,0.6015625 0.321289,0.9296875 0.328125,0.32812499 0.929687,0.32812499 z"
     style="font-variant:normal;font-weight:normal;font-size:14px;font-family:Arial;-inkscape-font-specification:Arial;writing-mode:lr-tb;fill:#00589c;fill-opacity:1;fill-rule:nonzero;stroke:none"
     id="path2764" /><path
     d="m 95.072304,-1.1894531 q -0.341797,0.71093747 -0.90918,1.01855466 -0.560547,0.30761719 -1.394531,0.30761719 -1.401367,0 -2.064453,-0.94335938 Q 90.04789,-1.75 90.04789,-3.6640625 q 0,-3.8691406 2.720703,-3.8691406 0.84082,0 1.401367,0.3076172 0.560547,0.3076172 0.902344,0.977539 h 0.01367 l -0.01367,-0.8271484 v -3.0693357 h 1.230469 v 8.6201169 q 0,1.15527347 0.04102,1.5244141 h -1.175781 q -0.02051,-0.109375 -0.04785,-0.50585937 -0.02051,-0.39648438 -0.02051,-0.68359373 z m -3.732422,-2.515625 q 0,1.5517578 0.410156,2.2216797 0.410156,0.66992184 1.333008,0.66992184 1.045898,0 1.517578,-0.72460934 0.47168,-0.7246094 0.47168,-2.2490235 0,-1.4697265 -0.47168,-2.1533203 -0.47168,-0.6835937 -1.503906,-0.6835937 -0.929688,0 -1.34668,0.6904297 Q 91.339882,-5.25 91.339882,-3.7050781 Z"
     style="font-variant:normal;font-weight:normal;font-size:14px;font-family:Arial;-inkscape-font-specification:Arial;writing-mode:lr-tb;fill:#00589c;fill-opacity:1;fill-rule:nonzero;stroke:none"
     id="path2766" /><path
     d="m 99.390488,-7.3964844 v 4.6894531 q 0,0.7314454 0.143554,1.1347657 0.143555,0.4033203 0.458008,0.58105466 0.31445,0.17773438 0.92285,0.17773438 0.88867,0 1.40137,-0.60839844 0.51269,-0.6083984 0.51269,-1.6884766 v -4.2861328 h 1.23047 v 5.8173828 q 0,1.29199222 0.041,1.5791016 h -1.16211 q -0.007,-0.03417969 -0.0137,-0.18457031 -0.007,-0.15039063 -0.0205,-0.34179688 -0.007,-0.19824218 -0.0205,-0.73828121 h -0.0205 q -0.42382,0.76562496 -0.98437,1.08691403 -0.55371,0.31445312 -1.38086,0.31445312 -1.216797,0 -1.78418,-0.6015625 -0.560547,-0.60839845 -0.560547,-2.00292965 v -4.928711 z"
     style="font-variant:normal;font-weight:normal;font-size:14px;font-family:Arial;-inkscape-font-specification:Arial;writing-mode:lr-tb;fill:#00589c;fill-opacity:1;fill-rule:nonzero;stroke:none"
     id="path2768" /><path
     d="m 107.85808,0.13671875 q -1.11426,0 -1.67481,-0.58789063 -0.56054,-0.58789062 -0.56054,-1.61328122 0,-1.1484375 0.75195,-1.7636719 0.75879,-0.6152344 2.44043,-0.65625 l 1.66113,-0.027344 v -0.4033204 q 0,-0.9023437 -0.38281,-1.2919921 -0.38281,-0.3896485 -1.20313,-0.3896485 -0.82714,0 -1.20312,0.2802735 -0.37598,0.2802734 -0.45117,0.8955078 l -1.28516,-0.116211 q 0.31445,-1.9960937 2.9668,-1.9960937 1.39453,0 2.09863,0.6425781 0.7041,0.6357422 0.7041,1.8457031 v 3.1855469 q 0,0.546875 0.14356,0.8271484 0.14355,0.27343754 0.54687,0.27343754 0.17774,0 0.40332,-0.0478516 v 0.76562501 q -0.46484,0.10937499 -0.95019,0.10937499 -0.6836,0 -0.99805,-0.35546875 -0.30762,-0.36230468 -0.34863,-1.12792972 h -0.041 q -0.47168,0.84765629 -1.10058,1.20312504 -0.62207,0.34863281 -1.51758,0.34863281 z m 0.28027,-0.92285156 q 0.67676,0 1.20313,-0.30761719 0.52636,-0.3076172 0.82714,-0.8408203 0.30762,-0.5400391 0.30762,-1.1074219 v -0.6083984 l -1.34668,0.027344 q -0.86816,0.013672 -1.31933,0.1777344 -0.44434,0.1640625 -0.6836,0.5058594 -0.23926,0.3417968 -0.23926,0.8955078 0,0.6015625 0.32129,0.9296875 0.32813,0.32812499 0.92969,0.32812499 z"
     style="font-variant:normal;font-weight:normal;font-size:14px;font-family:Arial;-inkscape-font-specification:Arial;writing-mode:lr-tb;fill:#00589c;fill-opacity:1;fill-rule:nonzero;stroke:none"
     id="path2770" /><path
     d="m 116.59911,-0.0546875 q -0.6084,0.1640625 -1.24414,0.1640625 -1.47657,0 -1.47657,-1.6748047 v -4.9355469 h -0.85449 v -0.8955078 h 0.90234 l 0.36231,-1.6542969 h 0.82031 v 1.6542969 h 1.36719 v 0.8955078 h -1.36719 v 4.6689454 q 0,0.5332031 0.1709,0.7519531 0.17773,0.21191404 0.6084,0.21191404 0.24609,0 0.71094,-0.0957031 z"
     style="font-variant:normal;font-weight:normal;font-size:14px;font-family:Arial;-inkscape-font-specification:Arial;writing-mode:lr-tb;fill:#00589c;fill-opacity:1;fill-rule:nonzero;stroke:none"
     id="path2772" /><path
     d="m 118.59072,-3.4384766 q 0,1.2714844 0.52637,1.9619141 0.52637,0.69042969 1.53808,0.69042969 0.79981,0 1.27832,-0.32128909 0.48536,-0.321289 0.65625,-0.8134765 l 1.08008,0.3076172 q -0.66308,1.74999995 -3.01465,1.74999995 -1.64062,0 -2.50195,-0.97753906 -0.85449,-0.97753909 -0.85449,-2.90527349 0,-1.8320312 0.85449,-2.8095703 0.86133,-0.977539 2.4541,-0.977539 3.26074,0 3.26074,3.930664 v 0.1640625 z m 4.00586,-0.9433593 q -0.10254,-1.1689453 -0.59473,-1.7021485 -0.49218,-0.540039 -1.41504,-0.540039 -0.8955,0 -1.42187,0.6015625 -0.51953,0.5947265 -0.56055,1.640625 z"
     style="font-variant:normal;font-weight:normal;font-size:14px;font-family:Arial;-inkscape-font-specification:Arial;writing-mode:lr-tb;fill:#00589c;fill-opacity:1;fill-rule:nonzero;stroke:none"
     id="path2774" /><path
     d="m 137.07532,-2.6591797 q 0,1.3330078 -1.0459,2.06445314 -1.03906,0.73144531 -2.93262,0.73144531 -3.52051,0 -4.08105,-2.44726565 l 1.26465,-0.2529297 q 0.21875,0.8681641 0.92968,1.2783204 0.71094,0.40332026 1.93457,0.40332026 1.26465,0 1.94825,-0.43066406 0.69043,-0.4375 0.69043,-1.2783203 0,-0.4716797 -0.21875,-0.765625 -0.21192,-0.2939453 -0.60157,-0.4853516 -0.38965,-0.1914062 -0.92968,-0.321289 -0.54004,-0.1298828 -1.19629,-0.2802735 -1.14161,-0.2529297 -1.73633,-0.5058593 -0.58789,-0.2529297 -0.92969,-0.5605469 -0.3418,-0.3144531 -0.52637,-0.7314453 -0.17773,-0.4169922 -0.17773,-0.9570313 0,-1.2373047 0.94336,-1.9072266 0.95019,-0.6699218 2.71387,-0.6699218 1.64062,0 2.50878,0.5058593 0.86817,0.4990235 1.2168,1.7089844 l -1.28515,0.225586 q -0.21192,-0.765625 -0.80665,-1.1074219 -0.59472,-0.3486328 -1.64746,-0.3486328 -1.15527,0 -1.76367,0.3828125 -0.6084,0.3828125 -0.6084,1.1416015 0,0.444336 0.23243,0.7382813 0.23925,0.2871094 0.68359,0.4921875 0.44433,0.1982422 1.77051,0.4921875 0.44433,0.1025391 0.88183,0.2119141 0.44434,0.102539 0.84766,0.2529296 0.40332,0.1435547 0.75195,0.3417969 0.35547,0.1982422 0.61524,0.4853516 0.25976,0.2871093 0.40332,0.6767578 0.15039,0.3896484 0.15039,0.9160156 z"
     style="font-variant:normal;font-weight:normal;font-size:14px;font-family:Arial;-inkscape-font-specification:Arial;writing-mode:lr-tb;fill:#00589c;fill-opacity:1;fill-rule:nonzero;stroke:none"
     id="path2776" /><path
     d="m 139.59789,-3.7324219 q 0,1.4765625 0.46484,2.1875 0.46484,0.71093752 1.40137,0.71093752 0.65625,0 1.09375,-0.35546872 0.44433,-0.3554688 0.54687,-1.09375 l 1.24414,0.082031 q -0.14355,1.0664063 -0.90918,1.70214846 -0.76562,0.63574219 -1.9414,0.63574219 -1.55176,0 -2.37207,-0.97753906 -0.81348,-0.98437499 -0.81348,-2.86425779 0,-1.866211 0.82031,-2.84375 0.82031,-0.984375 2.35156,-0.984375 1.13477,0 1.87989,0.5878906 0.75195,0.5878906 0.94336,1.6201172 l -1.26465,0.095703 q -0.0957,-0.6152344 -0.48535,-0.977539 -0.38965,-0.3623047 -1.10743,-0.3623047 -0.97753,0 -1.41503,0.649414 -0.4375,0.6494141 -0.4375,2.1875 z"
     style="font-variant:normal;font-weight:normal;font-size:14px;font-family:Arial;-inkscape-font-specification:Arial;writing-mode:lr-tb;fill:#00589c;fill-opacity:1;fill-rule:nonzero;stroke:none"
     id="path2778" /><path
     d="m 146.88499,-6.1318359 q 0.39649,-0.7246094 0.9502,-1.0595703 0.56055,-0.3417969 1.41504,-0.3417969 1.20312,0 1.77051,0.6015625 0.57422,0.5947265 0.57422,2.0029297 V 0 h -1.23731 v -4.6894531 q 0,-0.7792969 -0.14355,-1.1552735 -0.14356,-0.3828125 -0.47168,-0.5605468 -0.32813,-0.1777344 -0.90918,-0.1777344 -0.86817,0 -1.39453,0.6015625 -0.51954,0.6015625 -0.51954,1.6201172 V 0 h -1.23046 v -10.144531 h 1.23046 v 2.6386716 q 0,0.4169922 -0.0273,0.8613282 -0.0205,0.4443359 -0.0273,0.5126953 z"
     style="font-variant:normal;font-weight:normal;font-size:14px;font-family:Arial;-inkscape-font-specification:Arial;writing-mode:lr-tb;fill:#00589c;fill-opacity:1;fill-rule:nonzero;stroke:none"
     id="path2780" /><path
     d="m 159.70024,-3.7050781 q 0,1.9414062 -0.85449,2.89160154 -0.85449,0.95019531 -2.48145,0.95019531 -1.62011,0 -2.44726,-0.984375 -0.82715,-0.99121095 -0.82715,-2.85742185 0,-3.828125 3.31543,-3.828125 1.69531,0 2.49512,0.9365234 0.7998,0.9296875 0.7998,2.8916016 z m -1.29199,0 q 0,-1.53125 -0.45801,-2.2216797 -0.45117,-0.6972656 -1.52441,-0.6972656 -1.08008,0 -1.56543,0.7109375 -0.47852,0.7041015 -0.47852,2.2080078 0,1.4628906 0.47168,2.2011719 0.47852,0.73144526 1.49707,0.73144526 1.10742,0 1.5791,-0.71093746 0.47852,-0.7109375 0.47852,-2.2216797 z"
     style="font-variant:normal;font-weight:normal;font-size:14px;font-family:Arial;-inkscape-font-specification:Arial;writing-mode:lr-tb;fill:#00589c;fill-opacity:1;fill-rule:nonzero;stroke:none"
     id="path2782" /><path
     d="m 167.48424,-3.7050781 q 0,1.9414062 -0.85449,2.89160154 -0.8545,0.95019531 -2.48145,0.95019531 -1.62012,0 -2.44727,-0.984375 -0.82714,-0.99121095 -0.82714,-2.85742185 0,-3.828125 3.31543,-3.828125 1.69531,0 2.49511,0.9365234 0.79981,0.9296875 0.79981,2.8916016 z m -1.29199,0 q 0,-1.53125 -0.45801,-2.2216797 -0.45117,-0.6972656 -1.52442,-0.6972656 -1.08007,0 -1.56543,0.7109375 -0.47851,0.7041015 -0.47851,2.2080078 0,1.4628906 0.47168,2.2011719 0.47851,0.73144526 1.49707,0.73144526 1.10742,0 1.5791,-0.71093746 0.47852,-0.7109375 0.47852,-2.2216797 z"
     style="font-variant:normal;font-weight:normal;font-size:14px;font-family:Arial;-inkscape-font-specification:Arial;writing-mode:lr-tb;fill:#00589c;fill-opacity:1;fill-rule:nonzero;stroke:none"
     id="path2784" /><path
     d="m 169.01337,0 v -10.144531 h 1.23047 V 0 Z"
     style="font-variant:normal;font-weight:normal;font-size:14px;font-family:Arial;-inkscape-font-specification:Arial;writing-mode:lr-tb;fill:#00589c;fill-opacity:1;fill-rule:nonzero;stroke:none"
     id="path2786" /><path
     d="M 177.53778,-6.5009766 V 0 h -1.23047 v -6.5009766 h -1.03906 v -0.8955078 h 1.03906 v -0.8339844 q 0,-1.0117187 0.44434,-1.4560546 0.44433,-0.4443356 1.36035,-0.4443356 0.51269,0 0.86816,0.08203 v 0.9365233 q -0.30761,-0.054687 -0.54687,-0.054687 -0.47168,0 -0.6836,0.2392578 -0.21191,0.2392578 -0.21191,0.8681641 v 0.6630859 h 1.44238 v 0.8955078 z"
     style="font-variant:normal;font-weight:normal;font-size:14px;font-family:Arial;-inkscape-font-specification:Arial;writing-mode:lr-tb;fill:#00589c;fill-opacity:1;fill-rule:nonzero;stroke:none"
     id="path2788" /><path
     d="m 186.16025,-3.7050781 q 0,1.9414062 -0.85449,2.89160154 -0.8545,0.95019531 -2.48145,0.95019531 -1.62012,0 -2.44727,-0.984375 -0.82714,-0.99121095 -0.82714,-2.85742185 0,-3.828125 3.31543,-3.828125 1.69531,0 2.49511,0.9365234 0.79981,0.9296875 0.79981,2.8916016 z m -1.29199,0 q 0,-1.53125 -0.45801,-2.2216797 -0.45117,-0.6972656 -1.52442,-0.6972656 -1.08007,0 -1.56543,0.7109375 -0.47851,0.7041015 -0.47851,2.2080078 0,1.4628906 0.47168,2.2011719 0.47851,0.73144526 1.49707,0.73144526 1.10742,0 1.5791,-0.71093746 0.47852,-0.7109375 0.47852,-2.2216797 z"
     style="font-variant:normal;font-weight:normal;font-size:14px;font-family:Arial;-inkscape-font-specification:Arial;writing-mode:lr-tb;fill:#00589c;fill-opacity:1;fill-rule:nonzero;stroke:none"
     id="path2790" /><path
     d="m 187.71671,0 v -5.6738281 q 0,-0.7792969 -0.041,-1.7226563 h 1.16211 q 0.0547,1.2578125 0.0547,1.5107422 h 0.0273 q 0.29395,-0.9501953 0.67676,-1.2988281 0.38281,-0.3486328 1.08008,-0.3486328 0.24609,0 0.49902,0.068359 v 1.1279296 q -0.24609,-0.068359 -0.65625,-0.068359 -0.76563,0 -1.16895,0.6630859 -0.40332,0.65625 -0.40332,1.8867187 V 0 Z"
     style="font-variant:normal;font-weight:normal;font-size:14px;font-family:Arial;-inkscape-font-specification:Arial;writing-mode:lr-tb;fill:#00589c;fill-opacity:1;fill-rule:nonzero;stroke:none"
     id="path2792" /><path
     d="M 202.96309,0 V -4.4638672 H 197.7541 V 0 h -1.30566 v -9.6318359 h 1.30566 v 4.0742187 h 5.20899 v -4.0742187 h 1.30566 V 0 Z"
     style="font-variant:normal;font-weight:normal;font-size:14px;font-family:Arial;-inkscape-font-specification:Arial;writing-mode:lr-tb;fill:#00589c;fill-opacity:1;fill-rule:nonzero;stroke:none"
     id="path2794" /><path
     d="m 208.23808,0.13671875 q -1.11425,0 -1.6748,-0.58789063 -0.56055,-0.58789062 -0.56055,-1.61328122 0,-1.1484375 0.75195,-1.7636719 0.75879,-0.6152344 2.44043,-0.65625 l 1.66114,-0.027344 v -0.4033204 q 0,-0.9023437 -0.38282,-1.2919921 -0.38281,-0.3896485 -1.20312,-0.3896485 -0.82715,0 -1.20313,0.2802735 -0.37597,0.2802734 -0.45117,0.8955078 l -1.28515,-0.116211 q 0.31445,-1.9960937 2.96679,-1.9960937 1.39453,0 2.09864,0.6425781 0.7041,0.6357422 0.7041,1.8457031 v 3.1855469 q 0,0.546875 0.14355,0.8271484 0.14356,0.27343754 0.54688,0.27343754 0.17773,0 0.40332,-0.0478516 v 0.76562501 q -0.46485,0.10937499 -0.9502,0.10937499 -0.68359,0 -0.99804,-0.35546875 -0.30762,-0.36230468 -0.34864,-1.12792972 h -0.041 q -0.47168,0.84765629 -1.10059,1.20312504 -0.62207,0.34863281 -1.51758,0.34863281 z m 0.28028,-0.92285156 q 0.67675,0 1.20312,-0.30761719 0.52637,-0.3076172 0.82715,-0.8408203 0.30762,-0.5400391 0.30762,-1.1074219 v -0.6083984 l -1.34668,0.027344 q -0.86817,0.013672 -1.31934,0.1777344 -0.44433,0.1640625 -0.68359,0.5058594 -0.23926,0.3417968 -0.23926,0.8955078 0,0.6015625 0.32129,0.9296875 0.32812,0.32812499 0.92969,0.32812499 z"
     style="font-variant:normal;font-weight:normal;font-size:14px;font-family:Arial;-inkscape-font-specification:Arial;writing-mode:lr-tb;fill:#00589c;fill-opacity:1;fill-rule:nonzero;stroke:none"
     id="path2796" /><path
     d="m 218.80431,-1.1894531 q -0.3418,0.71093747 -0.90918,1.01855466 -0.56055,0.30761719 -1.39453,0.30761719 -1.40137,0 -2.06446,-0.94335938 Q 213.77989,-1.75 213.77989,-3.6640625 q 0,-3.8691406 2.72071,-3.8691406 0.84082,0 1.40136,0.3076172 0.56055,0.3076172 0.90235,0.977539 h 0.0137 l -0.0137,-0.8271484 v -3.0693357 h 1.23046 v 8.6201169 q 0,1.15527347 0.041,1.5244141 h -1.17578 q -0.0205,-0.109375 -0.0479,-0.50585937 -0.0205,-0.39648438 -0.0205,-0.68359373 z m -3.73243,-2.515625 q 0,1.5517578 0.41016,2.2216797 0.41016,0.66992184 1.33301,0.66992184 1.0459,0 1.51758,-0.72460934 0.47168,-0.7246094 0.47168,-2.2490235 0,-1.4697265 -0.47168,-2.1533203 -0.47168,-0.6835937 -1.50391,-0.6835937 -0.92969,0 -1.34668,0.6904297 -0.41016,0.6835937 -0.41016,2.2285156 z"
     style="font-variant:normal;font-weight:normal;font-size:14px;font-family:Arial;-inkscape-font-specification:Arial;writing-mode:lr-tb;fill:#00589c;fill-opacity:1;fill-rule:nonzero;stroke:none"
     id="path2798" /><path
     d="m 221.9467,0 v -5.6738281 q 0,-0.7792969 -0.041,-1.7226563 h 1.1621 q 0.0547,1.2578125 0.0547,1.5107422 h 0.0274 q 0.29394,-0.9501953 0.67675,-1.2988281 0.38282,-0.3486328 1.08008,-0.3486328 0.2461,0 0.49903,0.068359 v 1.1279296 q -0.2461,-0.068359 -0.65625,-0.068359 -0.76563,0 -1.16895,0.6630859 -0.40332,0.65625 -0.40332,1.8867187 V 0 Z"
     style="font-variant:normal;font-weight:normal;font-size:14px;font-family:Arial;-inkscape-font-specification:Arial;writing-mode:lr-tb;fill:#00589c;fill-opacity:1;fill-rule:nonzero;stroke:none"
     id="path2800" /><path
     d="m 232.83624,-3.7050781 q 0,1.9414062 -0.85449,2.89160154 -0.85449,0.95019531 -2.48144,0.95019531 -1.62012,0 -2.44727,-0.984375 -0.82715,-0.99121095 -0.82715,-2.85742185 0,-3.828125 3.31543,-3.828125 1.69531,0 2.49512,0.9365234 0.7998,0.9296875 0.7998,2.8916016 z m -1.29199,0 q 0,-1.53125 -0.45801,-2.2216797 -0.45117,-0.6972656 -1.52441,-0.6972656 -1.08008,0 -1.56543,0.7109375 -0.47852,0.7041015 -0.47852,2.2080078 0,1.4628906 0.47168,2.2011719 0.47852,0.73144526 1.49707,0.73144526 1.10743,0 1.5791,-0.71093746 0.47852,-0.7109375 0.47852,-2.2216797 z"
     style="font-variant:normal;font-weight:normal;font-size:14px;font-family:Arial;-inkscape-font-specification:Arial;writing-mode:lr-tb;fill:#00589c;fill-opacity:1;fill-rule:nonzero;stroke:none"
     id="path2802" /><path
     d="m 239.06165,0 v -4.6894531 q 0,-0.7314453 -0.14356,-1.1347656 -0.14355,-0.4033204 -0.45801,-0.5810547 -0.31445,-0.1777344 -0.92285,-0.1777344 -0.88867,0 -1.40137,0.6083984 -0.51269,0.6083985 -0.51269,1.6884766 V 0 h -1.23047 v -5.8173828 q 0,-1.2919922 -0.041,-1.5791016 h 1.16211 q 0.007,0.03418 0.0137,0.1845703 0.007,0.1503907 0.0137,0.3486329 0.0137,0.1914062 0.0273,0.7314453 h 0.0205 q 0.42383,-0.765625 0.97754,-1.0800782 0.56055,-0.321289 1.38769,-0.321289 1.2168,0 1.77735,0.6083984 0.56738,0.6015625 0.56738,1.9960938 V 0 Z"
     style="font-variant:normal;font-weight:normal;font-size:14px;font-family:Arial;-inkscape-font-specification:Arial;writing-mode:lr-tb;fill:#00589c;fill-opacity:1;fill-rule:nonzero;stroke:none"
     id="path2804" /><path
     d="m 247.92809,0.13671875 q -1.11426,0 -1.67481,-0.58789063 -0.56055,-0.58789062 -0.56055,-1.61328122 0,-1.1484375 0.75196,-1.7636719 0.75879,-0.6152344 2.44043,-0.65625 l 1.66113,-0.027344 v -0.4033204 q 0,-0.9023437 -0.38281,-1.2919921 -0.38282,-0.3896485 -1.20313,-0.3896485 -0.82715,0 -1.20312,0.2802735 -0.37598,0.2802734 -0.45117,0.8955078 l -1.28516,-0.116211 q 0.31445,-1.9960937 2.9668,-1.9960937 1.39453,0 2.09863,0.6425781 0.7041,0.6357422 0.7041,1.8457031 v 3.1855469 q 0,0.546875 0.14355,0.8271484 0.14356,0.27343754 0.54688,0.27343754 0.17773,0 0.40332,-0.0478516 v 0.76562501 q -0.46484,0.10937499 -0.9502,0.10937499 -0.68359,0 -0.99804,-0.35546875 -0.30762,-0.36230468 -0.34863,-1.12792972 h -0.041 q -0.47168,0.84765629 -1.10059,1.20312504 -0.62207,0.34863281 -1.51757,0.34863281 z m 0.28027,-0.92285156 q 0.67676,0 1.20312,-0.30761719 0.52637,-0.3076172 0.82715,-0.8408203 0.30762,-0.5400391 0.30762,-1.1074219 v -0.6083984 l -1.34668,0.027344 q -0.86816,0.013672 -1.31934,0.1777344 -0.44433,0.1640625 -0.68359,0.5058594 -0.23926,0.3417968 -0.23926,0.8955078 0,0.6015625 0.32129,0.9296875 0.32813,0.32812499 0.92969,0.32812499 z"
     style="font-variant:normal;font-weight:normal;font-size:14px;font-family:Arial;-inkscape-font-specification:Arial;writing-mode:lr-tb;fill:#00589c;fill-opacity:1;fill-rule:nonzero;stroke:none"
     id="path2806" /><path
     d="m 258.52165,0 v -4.6894531 q 0,-0.7314453 -0.14355,-1.1347656 -0.14356,-0.4033204 -0.45801,-0.5810547 -0.31445,-0.1777344 -0.92285,-0.1777344 -0.88867,0 -1.40137,0.6083984 -0.51269,0.6083985 -0.51269,1.6884766 V 0 h -1.23047 v -5.8173828 q 0,-1.2919922 -0.041,-1.5791016 h 1.16211 q 0.007,0.03418 0.0137,0.1845703 0.007,0.1503907 0.0137,0.3486329 0.0137,0.1914062 0.0274,0.7314453 h 0.0205 q 0.42382,-0.765625 0.97754,-1.0800782 0.56054,-0.321289 1.38769,-0.321289 1.2168,0 1.77734,0.6083984 0.56739,0.6015625 0.56739,1.9960938 V 0 Z"
     style="font-variant:normal;font-weight:normal;font-size:14px;font-family:Arial;-inkscape-font-specification:Arial;writing-mode:lr-tb;fill:#00589c;fill-opacity:1;fill-rule:nonzero;stroke:none"
     id="path2808" /><path
     d="m 266.27829,-1.1894531 q -0.3418,0.71093747 -0.90918,1.01855466 -0.56055,0.30761719 -1.39453,0.30761719 -1.40137,0 -2.06445,-0.94335938 Q 261.25388,-1.75 261.25388,-3.6640625 q 0,-3.8691406 2.7207,-3.8691406 0.84082,0 1.40137,0.3076172 0.56054,0.3076172 0.90234,0.977539 h 0.0137 l -0.0137,-0.8271484 v -3.0693357 h 1.23047 v 8.6201169 q 0,1.15527347 0.041,1.5244141 h -1.17578 q -0.0205,-0.109375 -0.0478,-0.50585937 -0.0205,-0.39648438 -0.0205,-0.68359373 z m -3.73242,-2.515625 q 0,1.5517578 0.41015,2.2216797 0.41016,0.66992184 1.33301,0.66992184 1.0459,0 1.51758,-0.72460934 0.47168,-0.7246094 0.47168,-2.2490235 0,-1.4697265 -0.47168,-2.1533203 -0.47168,-0.6835937 -1.50391,-0.6835937 -0.92968,0 -1.34668,0.6904297 -0.41015,0.6835937 -0.41015,2.2285156 z"
     style="font-variant:normal;font-weight:normal;font-size:14px;font-family:Arial;-inkscape-font-specification:Arial;writing-mode:lr-tb;fill:#00589c;fill-opacity:1;fill-rule:nonzero;stroke:none"
     id="path2810" /><path
     d="m 273.63458,0 v -9.6318359 h 1.30567 V 0 Z"
     style="font-variant:normal;font-weight:normal;font-size:14px;font-family:Arial;-inkscape-font-specification:Arial;writing-mode:lr-tb;fill:#00589c;fill-opacity:1;fill-rule:nonzero;stroke:none"
     id="path2812" /><path
     d="m 283.43225,-3.7050781 q 0,1.9414062 -0.85449,2.89160154 -0.85449,0.95019531 -2.48145,0.95019531 -1.62011,0 -2.44726,-0.984375 -0.82715,-0.99121095 -0.82715,-2.85742185 0,-3.828125 3.31543,-3.828125 1.69531,0 2.49512,0.9365234 0.7998,0.9296875 0.7998,2.8916016 z m -1.29199,0 q 0,-1.53125 -0.45801,-2.2216797 -0.45117,-0.6972656 -1.52441,-0.6972656 -1.08008,0 -1.56543,0.7109375 -0.47852,0.7041015 -0.47852,2.2080078 0,1.4628906 0.47168,2.2011719 0.47852,0.73144526 1.49707,0.73144526 1.10742,0 1.5791,-0.71093746 0.47852,-0.7109375 0.47852,-2.2216797 z"
     style="font-variant:normal;font-weight:normal;font-size:14px;font-family:Arial;-inkscape-font-specification:Arial;writing-mode:lr-tb;fill:#00589c;fill-opacity:1;fill-rule:nonzero;stroke:none"
     id="path2814" /><path
     d="m 289.65765,0 v -4.6894531 q 0,-0.7314453 -0.14355,-1.1347656 -0.14356,-0.4033204 -0.45801,-0.5810547 -0.31445,-0.1777344 -0.92285,-0.1777344 -0.88867,0 -1.40137,0.6083984 -0.51269,0.6083985 -0.51269,1.6884766 V 0 h -1.23047 v -5.8173828 q 0,-1.2919922 -0.041,-1.5791016 h 1.16211 q 0.007,0.03418 0.0137,0.1845703 0.007,0.1503907 0.0137,0.3486329 0.0137,0.1914062 0.0273,0.7314453 h 0.0205 q 0.42383,-0.765625 0.97754,-1.0800782 0.56054,-0.321289 1.38769,-0.321289 1.2168,0 1.77735,0.6083984 0.56738,0.6015625 0.56738,1.9960938 V 0 Z"
     style="font-variant:normal;font-weight:normal;font-size:14px;font-family:Arial;-inkscape-font-specification:Arial;writing-mode:lr-tb;fill:#00589c;fill-opacity:1;fill-rule:nonzero;stroke:none"
     id="path2816" /><path
     d="m 303.65103,0 -2.50195,-3.9990234 H 298.1481 V 0 h -1.30566 v -9.6318359 h 4.53222 q 1.62696,0 2.50879,0.7314453 0.88868,0.7246093 0.88868,2.0234375 0,1.0732422 -0.62891,1.8046875 -0.62207,0.7314453 -1.72266,0.9228515 L 305.15494,0 Z m -0.1914,-6.8632812 q 0,-0.8408204 -0.57422,-1.2783204 -0.56739,-0.4443359 -1.64063,-0.4443359 H 298.1481 V -5.03125 h 3.15137 q 1.03223,0 1.59277,-0.4785156 0.56739,-0.4853516 0.56739,-1.3535156 z"
     style="font-variant:normal;font-weight:normal;font-size:14px;font-family:Arial;-inkscape-font-specification:Arial;writing-mode:lr-tb;fill:#00589c;fill-opacity:1;fill-rule:nonzero;stroke:none"
     id="path2818" /><path
     d="m 307.68872,-3.4384766 q 0,1.2714844 0.52637,1.9619141 0.52637,0.69042969 1.53808,0.69042969 0.79981,0 1.27832,-0.32128909 0.48536,-0.321289 0.65625,-0.8134765 l 1.08008,0.3076172 q -0.66308,1.74999995 -3.01465,1.74999995 -1.64062,0 -2.50195,-0.97753906 -0.85449,-0.97753909 -0.85449,-2.90527349 0,-1.8320312 0.85449,-2.8095703 0.86133,-0.977539 2.4541,-0.977539 3.26074,0 3.26074,3.930664 v 0.1640625 z m 4.00586,-0.9433593 q -0.10254,-1.1689453 -0.59473,-1.7021485 -0.49218,-0.540039 -1.41504,-0.540039 -0.8955,0 -1.42187,0.6015625 -0.51953,0.5947265 -0.56055,1.640625 z"
     style="font-variant:normal;font-weight:normal;font-size:14px;font-family:Arial;-inkscape-font-specification:Arial;writing-mode:lr-tb;fill:#00589c;fill-opacity:1;fill-rule:nonzero;stroke:none"
     id="path2820" /><path
     d="m 320.08093,-2.0439453 q 0,1.04589842 -0.79297,1.61328124 -0.78613,0.56738281 -2.208,0.56738281 -1.38086,0 -2.13282,-0.45117188 -0.74511,-0.45800781 -0.9707,-1.42187497 l 1.08691,-0.2119141 q 0.15723,0.5947266 0.64942,0.875 0.49219,0.27343751 1.36719,0.27343751 0.93652,0 1.36718,-0.28710941 0.4375,-0.2871093 0.4375,-0.8613281 0,-0.4375 -0.30078,-0.7109375 -0.30078,-0.2734375 -0.9707,-0.4511719 l -0.88184,-0.2324218 q -1.05957,-0.2734375 -1.51074,-0.5332032 -0.44433,-0.2666015 -0.69726,-0.6425781 -0.25293,-0.3759765 -0.25293,-0.9228515 0,-1.0117188 0.71777,-1.538086 0.72461,-0.5332031 2.10547,-0.5332031 1.22363,0 1.9414,0.4306641 0.72461,0.430664 0.91602,1.3808593 l -1.10742,0.1367188 q -0.10254,-0.4921875 -0.55371,-0.7519531 -0.44434,-0.2666016 -1.19629,-0.2666016 -0.83399,0 -1.23047,0.2529297 -0.39649,0.2529297 -0.39649,0.765625 0,0.3144531 0.16407,0.5195312 0.16406,0.2050782 0.48535,0.3486328 0.32129,0.1435547 1.35351,0.3964844 0.97754,0.2460938 1.40821,0.4580078 0.43066,0.2050781 0.67676,0.4580078 0.25293,0.2529297 0.38964,0.5878907 0.13672,0.328125 0.13672,0.7519531 z"
     style="font-variant:normal;font-weight:normal;font-size:14px;font-family:Arial;-inkscape-font-specification:Arial;writing-mode:lr-tb;fill:#00589c;fill-opacity:1;fill-rule:nonzero;stroke:none"
     id="path2822" /><path
     d="m 322.47351,-3.4384766 q 0,1.2714844 0.52637,1.9619141 0.52637,0.69042969 1.53808,0.69042969 0.79981,0 1.27832,-0.32128909 0.48536,-0.321289 0.65625,-0.8134765 l 1.08008,0.3076172 q -0.66308,1.74999995 -3.01465,1.74999995 -1.64062,0 -2.50195,-0.97753906 -0.85449,-0.97753909 -0.85449,-2.90527349 0,-1.8320312 0.85449,-2.8095703 0.86133,-0.977539 2.4541,-0.977539 3.26074,0 3.26074,3.930664 v 0.1640625 z m 4.00586,-0.9433593 q -0.10254,-1.1689453 -0.59473,-1.7021485 -0.49218,-0.540039 -1.41504,-0.540039 -0.8955,0 -1.42187,0.6015625 -0.51953,0.5947265 -0.56055,1.640625 z"
     style="font-variant:normal;font-weight:normal;font-size:14px;font-family:Arial;-inkscape-font-specification:Arial;writing-mode:lr-tb;fill:#00589c;fill-opacity:1;fill-rule:nonzero;stroke:none"
     id="path2824" /><path
     d="m 331.20087,0.13671875 q -1.11426,0 -1.67481,-0.58789063 -0.56054,-0.58789062 -0.56054,-1.61328122 0,-1.1484375 0.75195,-1.7636719 0.75879,-0.6152344 2.44043,-0.65625 l 1.66113,-0.027344 v -0.4033204 q 0,-0.9023437 -0.38281,-1.2919921 -0.38281,-0.3896485 -1.20313,-0.3896485 -0.82715,0 -1.20312,0.2802735 -0.37598,0.2802734 -0.45117,0.8955078 l -1.28516,-0.116211 q 0.31445,-1.9960937 2.9668,-1.9960937 1.39453,0 2.09863,0.6425781 0.7041,0.6357422 0.7041,1.8457031 v 3.1855469 q 0,0.546875 0.14356,0.8271484 0.14355,0.27343754 0.54687,0.27343754 0.17774,0 0.40332,-0.0478516 v 0.76562501 q -0.46484,0.10937499 -0.95019,0.10937499 -0.6836,0 -0.99805,-0.35546875 -0.30762,-0.36230468 -0.34863,-1.12792972 h -0.041 q -0.47168,0.84765629 -1.10059,1.20312504 -0.62207,0.34863281 -1.51757,0.34863281 z m 0.28027,-0.92285156 q 0.67676,0 1.20313,-0.30761719 0.52636,-0.3076172 0.82714,-0.8408203 0.30762,-0.5400391 0.30762,-1.1074219 v -0.6083984 l -1.34668,0.027344 q -0.86816,0.013672 -1.31933,0.1777344 -0.44434,0.1640625 -0.6836,0.5058594 -0.23926,0.3417968 -0.23926,0.8955078 0,0.6015625 0.32129,0.9296875 0.32813,0.32812499 0.92969,0.32812499 z"
     style="font-variant:normal;font-weight:normal;font-size:14px;font-family:Arial;-inkscape-font-specification:Arial;writing-mode:lr-tb;fill:#00589c;fill-opacity:1;fill-rule:nonzero;stroke:none"
     id="path2826" /><path
     d="m 337.12549,0 v -5.6738281 q 0,-0.7792969 -0.041,-1.7226563 h 1.16211 q 0.0547,1.2578125 0.0547,1.5107422 h 0.0273 q 0.29395,-0.9501953 0.67676,-1.2988281 0.38281,-0.3486328 1.08008,-0.3486328 0.24609,0 0.49902,0.068359 v 1.1279296 q -0.24609,-0.068359 -0.65625,-0.068359 -0.76562,0 -1.16894,0.6630859 -0.40332,0.65625 -0.40332,1.8867187 V 0 Z"
     style="font-variant:normal;font-weight:normal;font-size:14px;font-family:Arial;-inkscape-font-specification:Arial;writing-mode:lr-tb;fill:#00589c;fill-opacity:1;fill-rule:nonzero;stroke:none"
     id="path2828" /><path
     d="m 342.69666,-3.7324219 q 0,1.4765625 0.46484,2.1875 0.46484,0.71093752 1.40137,0.71093752 0.65625,0 1.09375,-0.35546872 0.44433,-0.3554688 0.54687,-1.09375 l 1.24414,0.082031 q -0.14355,1.0664063 -0.90918,1.70214846 -0.76562,0.63574219 -1.9414,0.63574219 -1.55176,0 -2.37207,-0.97753906 -0.81348,-0.98437499 -0.81348,-2.86425779 0,-1.866211 0.82031,-2.84375 0.82031,-0.984375 2.35156,-0.984375 1.13477,0 1.87989,0.5878906 0.75195,0.5878906 0.94336,1.6201172 l -1.26465,0.095703 q -0.0957,-0.6152344 -0.48535,-0.977539 -0.38965,-0.3623047 -1.10743,-0.3623047 -0.97753,0 -1.41503,0.649414 -0.4375,0.6494141 -0.4375,2.1875 z"
     style="font-variant:normal;font-weight:normal;font-size:14px;font-family:Arial;-inkscape-font-specification:Arial;writing-mode:lr-tb;fill:#00589c;fill-opacity:1;fill-rule:nonzero;stroke:none"
     id="path2830" /><path
     d="m 349.98376,-6.1318359 q 0.39649,-0.7246094 0.9502,-1.0595703 0.56055,-0.3417969 1.41504,-0.3417969 1.20312,0 1.77051,0.6015625 0.57422,0.5947265 0.57422,2.0029297 V 0 h -1.23731 v -4.6894531 q 0,-0.7792969 -0.14355,-1.1552735 -0.14356,-0.3828125 -0.47168,-0.5605468 -0.32813,-0.1777344 -0.90918,-0.1777344 -0.86817,0 -1.39453,0.6015625 -0.51954,0.6015625 -0.51954,1.6201172 V 0 h -1.23046 v -10.144531 h 1.23046 v 2.6386716 q 0,0.4169922 -0.0273,0.8613282 -0.0205,0.4443359 -0.0273,0.5126953 z"
     style="font-variant:normal;font-weight:normal;font-size:14px;font-family:Arial;-inkscape-font-specification:Arial;writing-mode:lr-tb;fill:#00589c;fill-opacity:1;fill-rule:nonzero;stroke:none"
     id="path2832" /></g>
</g><path
         d="m 2366.95,713.301 c 0,-4.301 -4.3,-5.406 -7.8,-6.004 -4.65,12.906 -8.75,19.344 -16.82,23.219 -6.69,4.629 -15.5,2.199 -22.42,2.199 -5.03,-0.801 -12.81,-8.203 -13.22,-8.203 -15.65,0 -29.19,-53.797 -31.23,-62.864 -1.71,-12.683 -6.9,-23.234 -9.41,-35.632 -3.99,-19.727 -8.21,-28.633 11.21,-28.633 20.23,-3.852 47.09,-0.403 65.47,-0.403 8.68,0 -8.04,-9.812 -8.06,-9.824 -6.31,-2.101 -18.24,-1.027 -25.17,-2.183 -4.44,4.992 -27.03,-2.059 -34.13,-3.004 -30.69,-4.098 -14.71,-39.739 -22.33,-60.055 -6.98,-18.617 8.28,-175.762 6.6,-175.976 -20.99,27.625 -18.88,78.503 -20.21,111.113 -0.71,17.637 0.21,36.219 1.6,54.648 1.46,19.285 11.77,49.539 3.8,67.266 -8.96,-3.235 -23.72,-4.699 -32.63,-2.598 -7.16,1.68 -13.72,-2.195 -21.02,0 -3.16,0.946 -25.62,19.414 -9.61,19.414 14.52,0 32.43,-2.152 49.65,-1.394 12.64,0.554 13.8,-3.172 19.82,3.797 4.08,4.726 5.1,26.523 4.4,30.933 -2.04,13.008 12.16,25.375 9.61,38.133 -1.48,7.391 10.65,48.004 17.02,52.254 14.32,21.543 20.46,29.629 46.04,29.629 19.89,-1.379 37.32,-13.07 38.84,-35.832"
         style="fill:#e6af11;fill-opacity:1;fill-rule:nonzero;stroke:none"
         id="path30" /><path
         d="m 2366.95,713.301 c 0,-4.301 -4.3,-5.406 -7.8,-6.004 -4.65,12.906 -8.75,19.344 -16.82,23.219 -6.69,4.629 -15.5,2.199 -22.42,2.199 -5.03,-0.801 -12.81,-8.203 -13.22,-8.203 -15.65,0 -29.19,-53.797 -31.23,-62.864 -1.71,-12.683 -6.9,-23.234 -9.41,-35.632 -3.99,-19.727 -8.21,-28.633 11.21,-28.633 20.23,-3.852 47.09,-0.403 65.47,-0.403 8.68,0 -8.04,-9.812 -8.06,-9.824 -6.31,-2.101 -18.24,-1.027 -25.17,-2.183 -4.44,4.992 -27.03,-2.059 -34.13,-3.004 -30.69,-4.098 -14.71,-39.739 -22.33,-60.055 -6.98,-18.617 8.28,-175.762 6.6,-175.976 -20.99,27.625 -18.88,78.503 -20.21,111.113 -0.71,17.637 0.21,36.219 1.6,54.648 1.46,19.285 11.77,49.539 3.8,67.266 -8.96,-3.235 -23.72,-4.699 -32.63,-2.598 -7.16,1.68 -13.72,-2.195 -21.02,0 -3.16,0.946 -25.62,19.414 -9.61,19.414 14.52,0 32.43,-2.152 49.65,-1.394 12.64,0.554 13.8,-3.172 19.82,3.797 4.08,4.726 5.1,26.523 4.4,30.933 -2.04,13.008 12.16,25.375 9.61,38.133 -1.48,7.391 10.65,48.004 17.02,52.254 14.32,21.543 20.46,29.629 46.04,29.629 19.89,-1.379 37.32,-13.07 38.84,-35.832"
         style="fill:none;stroke:#e6af11;stroke-opacity:1;stroke-width:15;stroke-linecap:butt;stroke-linejoin:miter;stroke-miterlimit:4;stroke-dasharray:none"
         id="path32" /><path
         d="m 2496.85,560.09 c -5.3,-20.77 -7.35,-62.703 -30.43,-73.481 -10.7,-4.988 -27.36,-36.257 -45.24,-29.824 -18.63,-16.629 -34.37,-9.629 -51.25,8.203 -15.33,29.258 9,62.825 9,90.293 0,14.84 18.37,36.074 16.42,45.84 -1.9,9.461 13.6,15.676 18.85,22.242 11.38,14.215 15.36,2.832 30.2,11.395 29.56,-20.879 42.37,-34.508 52.45,-74.668 m -13.02,-11.418 c 11.59,14.496 -16.14,69.574 -39.03,71.269 -22.54,1.668 -10.45,-18.957 -19.92,-19.418 -9.04,-0.441 -18.08,-8.691 -22.73,-15.418 -4.3,-6.226 -3.92,-26.429 -8.9,-29.222 -6.1,-3.418 -9.17,-21.606 -11.52,-28.832 -3.98,-12.285 -11.17,-44.746 -2.4,-56.153 6.09,-7.91 47.85,-15.312 47.85,-0.898 12.14,6.023 23.56,12.605 35.83,26.426 3.38,4.652 34.52,47.094 20.82,52.246"
         style="fill:#e6af11;fill-opacity:1;fill-rule:nonzero;stroke:none"
         id="path34" /><path
         d="m 2496.85,560.09 c -5.3,-20.77 -7.35,-62.703 -30.43,-73.481 -10.7,-4.988 -27.36,-36.257 -45.24,-29.824 -18.63,-16.629 -34.37,-9.629 -51.25,8.203 -15.33,29.258 9,62.825 9,90.293 0,14.84 18.37,36.074 16.42,45.84 -1.9,9.461 13.6,15.676 18.85,22.242 11.38,14.215 15.36,2.832 30.2,11.395 29.56,-20.879 42.37,-34.508 52.45,-74.668 m -13.02,-11.418 c 11.59,14.496 -16.14,69.574 -39.03,71.269 -22.54,1.668 -10.45,-18.957 -19.92,-19.418 -9.04,-0.441 -18.08,-8.691 -22.73,-15.418 -4.3,-6.226 -3.92,-26.429 -8.9,-29.222 -6.1,-3.418 -9.17,-21.606 -11.52,-28.832 -3.98,-12.285 -11.17,-44.746 -2.4,-56.153 6.09,-7.91 47.85,-15.312 47.85,-0.898 12.14,6.023 23.56,12.605 35.83,26.426 3.38,4.652 34.52,47.094 20.82,52.246"
         style="fill:none;stroke:#e6af11;stroke-opacity:1;stroke-width:15;stroke-linecap:butt;stroke-linejoin:miter;stroke-miterlimit:4;stroke-dasharray:none"
         id="path36" /><path
         d="m 2683.72,622.977 c -4.75,-7.329 -40.22,-23.918 -50.25,-28.93 -14.23,-7.098 -28,-30.082 -35.04,-42.145 -9.86,-16.89 -13.52,-29.804 -19.88,-44.945 -4.6,-10.98 -5.52,-21.352 -6.35,-33.727 -0.6,-8.992 14.64,-19.546 -3.8,-17.617 0.27,-1.199 0.54,-2.398 0.8,-3.601 -19.74,0.82 -9.33,104.097 -11.41,125.722 -1.49,15.434 -6.6,23.434 -6.6,39.434 0,31.379 13.66,-1.598 15.45,-15.449 2.87,-22.211 -3.31,-56.883 7.56,-72.637 4.71,21.809 33.53,42.727 34.64,56.559 0.65,8.129 66.54,53.425 74.88,37.336"
         style="fill:#e6af11;fill-opacity:1;fill-rule:nonzero;stroke:none"
         id="path38" /><path
         d="m 2683.72,622.977 c -4.75,-7.329 -40.22,-23.918 -50.25,-28.93 -14.23,-7.098 -28,-30.082 -35.04,-42.145 -9.86,-16.89 -13.52,-29.804 -19.88,-44.945 -4.6,-10.98 -5.52,-21.352 -6.35,-33.727 -0.6,-8.992 14.64,-19.546 -3.8,-17.617 0.27,-1.199 0.54,-2.398 0.8,-3.601 -19.74,0.82 -9.33,104.097 -11.41,125.722 -1.49,15.434 -6.6,23.434 -6.6,39.434 0,31.379 13.66,-1.598 15.45,-15.449 2.87,-22.211 -3.31,-56.883 7.56,-72.637 4.71,21.809 33.53,42.727 34.64,56.559 0.65,8.129 66.54,53.425 74.88,37.336"
         style="fill:none;stroke:#e6af11;stroke-opacity:1;stroke-width:15;stroke-linecap:butt;stroke-linejoin:miter;stroke-miterlimit:4;stroke-dasharray:none"
         id="path40" /><path
         d="m 2996.54,673.477 c 3.53,0.742 21.01,3.105 21.01,-2.207 0,-7.598 -68.73,-10.176 -79.57,-10.407 -12.76,-0.265 -25.71,-5.468 -38.14,-2.8 -34.61,7.414 -29.78,-16.895 -28.22,-39.247 0.2,-3 -3.17,-38.48 0.8,-42.632 7.68,-8.063 44.74,2.191 52.85,2.593 25.81,1.289 66.31,5.711 91.48,0 -9.21,-11.789 -47.54,-13.125 -59.85,-14.011 -17.3,-1.246 -37.88,-0.887 -53.86,-2 -5.74,-0.403 -19.91,-0.836 -24.82,-3.801 -15.36,-9.258 -5.05,-26.781 -11.15,-44.82 -7.19,-21.219 -7.68,-50.637 -12.67,-74.899 -1.87,0.598 -5.83,1.777 -7.41,2.602 4.28,29.773 5.93,50.14 3.51,82.332 -1.9,25.371 7.3,43.023 -25.43,37.984 -7.06,-1.09 -14.47,3.844 -7.31,12.414 4.78,5.777 20.16,1.774 26.86,1.113 12.63,-1.242 10.58,5.664 10.58,15.106 0,17.285 4.44,54.578 -13.86,63.262 -5.45,2.582 -22.62,-10.696 -19.08,8.054 3.14,16.52 26.77,11.535 40.5,12.352 20.38,1.211 40.74,-1.328 59.9,1.613 10.18,1.567 62.35,5.059 73.88,-2.601"
         style="fill:#e6af11;fill-opacity:1;fill-rule:nonzero;stroke:none"
         id="path42" /><path
         d="m 2996.54,673.477 c 3.53,0.742 21.01,3.105 21.01,-2.207 0,-7.598 -68.73,-10.176 -79.57,-10.407 -12.76,-0.265 -25.71,-5.468 -38.14,-2.8 -34.61,7.414 -29.78,-16.895 -28.22,-39.247 0.2,-3 -3.17,-38.48 0.8,-42.632 7.68,-8.063 44.74,2.191 52.85,2.593 25.81,1.289 66.31,5.711 91.48,0 -9.21,-11.789 -47.54,-13.125 -59.85,-14.011 -17.3,-1.246 -37.88,-0.887 -53.86,-2 -5.74,-0.403 -19.91,-0.836 -24.82,-3.801 -15.36,-9.258 -5.05,-26.781 -11.15,-44.82 -7.19,-21.219 -7.68,-50.637 -12.67,-74.899 -1.87,0.598 -5.83,1.777 -7.41,2.602 4.28,29.773 5.93,50.14 3.51,82.332 -1.9,25.371 7.3,43.023 -25.43,37.984 -7.06,-1.09 -14.47,3.844 -7.31,12.414 4.78,5.777 20.16,1.774 26.86,1.113 12.63,-1.242 10.58,5.664 10.58,15.106 0,17.285 4.44,54.578 -13.86,63.262 -5.45,2.582 -22.62,-10.696 -19.08,8.054 3.14,16.52 26.77,11.535 40.5,12.352 20.38,1.211 40.74,-1.328 59.9,1.613 10.18,1.567 62.35,5.059 73.88,-2.601"
         style="fill:none;stroke:#e6af11;stroke-opacity:1;stroke-width:15;stroke-linecap:butt;stroke-linejoin:miter;stroke-miterlimit:4;stroke-dasharray:none"
         id="path44" /><path
         d="m 3304.17,563.879 c 0,-10.027 -55.27,-6.781 -57.85,-13.215 2.69,-6.809 18.76,-47.687 17.52,-53.051 -2.83,-12.164 29.05,-40.515 36.73,-49.449 -32.51,-17.273 -69.78,77.66 -72.26,102.5 -30.26,-7.094 -65.23,-9.402 -94.99,-9.402 -9.2,0 -13.62,-0.91 -21.03,1.898 -11.23,4.25 -38.18,-37.265 -44.39,-45.285 -8.88,-11.457 -31.45,-45.668 -47.4,-38.902 0.51,4.648 2.12,12.746 3.21,15.824 11.05,0.308 28.5,13.547 30.43,23.418 9.17,5.23 27.3,29.926 32.03,41.043 3.4,8.004 -8.23,8.203 -0.31,15.312 6.8,6.094 7.25,1.172 13.31,5.508 6.26,4.481 13.75,13.695 17.62,13.215 6.45,6.004 7.45,10.207 3.01,12.605 17.28,4.825 21.64,42.836 37.64,45.243 1.28,6.086 1.89,8.363 7.4,10.617 -0.37,14.199 16.68,41.832 27.83,49.25 24.04,-18.164 27.16,-53.121 36.44,-82.485 2.62,-8.312 15.12,-21.488 7.8,-32.031 10.19,-23.992 47.81,-10.558 67.26,-12.613 m -77.87,10.215 c -6.56,17.105 -12.05,52.019 -24.22,68.66 -22.86,30.914 -32.07,-24.996 -48.95,-33.629 -1.22,-0.625 -28.47,-35.016 -28.53,-35.832 -0.91,-13.457 12.74,-16.02 25.82,-16.02 12.26,0 24.08,1.129 36.65,2.004 18.9,1.313 39.71,-5.031 39.23,14.817"
         style="fill:#e6af11;fill-opacity:1;fill-rule:nonzero;stroke:none"
         id="path46" /><path
         d="m 3304.17,563.879 c 0,-10.027 -55.27,-6.781 -57.85,-13.215 2.69,-6.809 18.76,-47.687 17.52,-53.051 -2.83,-12.164 29.05,-40.515 36.73,-49.449 -32.51,-17.273 -69.78,77.66 -72.26,102.5 -30.26,-7.094 -65.23,-9.402 -94.99,-9.402 -9.2,0 -13.62,-0.91 -21.03,1.898 -11.23,4.25 -38.18,-37.265 -44.39,-45.285 -8.88,-11.457 -31.45,-45.668 -47.4,-38.902 0.51,4.648 2.12,12.746 3.21,15.824 11.05,0.308 28.5,13.547 30.43,23.418 9.17,5.23 27.3,29.926 32.03,41.043 3.4,8.004 -8.23,8.203 -0.31,15.312 6.8,6.094 7.25,1.172 13.31,5.508 6.26,4.481 13.75,13.695 17.62,13.215 6.45,6.004 7.45,10.207 3.01,12.605 17.28,4.825 21.64,42.836 37.64,45.243 1.28,6.086 1.89,8.363 7.4,10.617 -0.37,14.199 16.68,41.832 27.83,49.25 24.04,-18.164 27.16,-53.121 36.44,-82.485 2.62,-8.312 15.12,-21.488 7.8,-32.031 10.19,-23.992 47.81,-10.558 67.26,-12.613 m -77.87,10.215 c -6.56,17.105 -12.05,52.019 -24.22,68.66 -22.86,30.914 -32.07,-24.996 -48.95,-33.629 -1.22,-0.625 -28.47,-35.016 -28.53,-35.832 -0.91,-13.457 12.74,-16.02 25.82,-16.02 12.26,0 24.08,1.129 36.65,2.004 18.9,1.313 39.71,-5.031 39.23,14.817"
         style="fill:none;stroke:#e6af11;stroke-opacity:1;stroke-width:15;stroke-linecap:butt;stroke-linejoin:miter;stroke-miterlimit:4;stroke-dasharray:none"
         id="path48" /><path
         d="m 3395.04,669.395 c -4.86,-10.258 0.14,-28.372 -4.3,-39.336 -7.29,-18.012 -5.65,-33.946 -5.5,-48.75 0.25,-25.231 -9.46,-74.664 -4,-103.704 5.18,-4.683 3.16,-4.011 3.2,-8.601 4.53,-4.68 14.69,4.316 1.2,-11.613 -15.48,5.16 -26.41,66.078 -20.53,74.468 9.26,13.2 3.31,56.149 3.31,72.875 0,16.141 0.57,23.016 -3.6,35.637 3.93,0.961 12.07,17.207 6.41,24.219 1.69,3.711 19.77,21.379 23.81,4.805"
         style="fill:#e6af11;fill-opacity:1;fill-rule:nonzero;stroke:none"
         id="path50" /><path
         d="m 3395.04,669.395 c -4.86,-10.258 0.14,-28.372 -4.3,-39.336 -7.29,-18.012 -5.65,-33.946 -5.5,-48.75 0.25,-25.231 -9.46,-74.664 -4,-103.704 5.18,-4.683 3.16,-4.011 3.2,-8.601 4.53,-4.68 14.69,4.316 1.2,-11.613 -15.48,5.16 -26.41,66.078 -20.53,74.468 9.26,13.2 3.31,56.149 3.31,72.875 0,16.141 0.57,23.016 -3.6,35.637 3.93,0.961 12.07,17.207 6.41,24.219 1.69,3.711 19.77,21.379 23.81,4.805"
         style="fill:none;stroke:#e6af11;stroke-opacity:1;stroke-width:15;stroke-linecap:butt;stroke-linejoin:miter;stroke-miterlimit:4;stroke-dasharray:none"
         id="path52" /><path
         d="m 3755.86,490.488 c 9.29,-25.644 -58.78,-25.84 -67.66,-31.035 -4.97,4.602 -26.19,10.918 -32.23,9.813 -11.72,-2.125 -17.82,10.605 -28.04,10.605 -15.7,0 -41.26,31.363 -51.25,41.047 -12.21,11.855 -27.46,31.117 -43.83,36.434 -13.27,-7.594 -20.45,4.89 -10.22,14.816 13.24,12.844 34.27,-7.383 55.26,0 7.56,0.855 89.89,7.383 89.89,20.82 33.28,8.637 1.2,32.879 -13.52,39.985 -11.96,5.777 -26.46,5.195 -38.03,10.062 -24.42,10.266 -55.34,0.996 -80.98,4.199 -40.83,5.106 -29.98,-52.546 -31.63,-82.078 -2.41,-18.519 8.56,-103.379 -11.42,-105.703 6.55,21.465 -6.2,47.949 -6.2,63.867 0,11.782 6.2,24.942 6.2,37.637 0,13.621 -2.62,25.473 2.8,38.633 -9.7,2.922 -4.18,16.195 -5.4,26.426 -1.74,14.609 -2.28,11.586 -13.01,14.218 -7.28,1.782 -14.31,-7.351 -15.62,-7.011 -8.05,6.507 -16.58,11.625 -4.3,19.82 9.43,6.293 25.34,-1.117 33.74,5.41 18.62,14.485 14.33,-4.894 32.22,3.805 15.49,-2.492 31.42,-1.278 47.45,-2.406 25.05,-1.762 57.97,1.093 73.47,-13.016 0,1.734 0,3.473 0,5.207 16.99,-5.234 36.32,-11.352 45.87,-25.727 16.53,-24.89 -8.81,-40.824 -28.25,-48.945 -4.92,-2.055 -13.01,-2.742 -18.62,-4.605 -4.82,-1.746 -11.55,-1.957 -15.82,-3.953 -11.71,-5.473 -10.62,0.16 -18.11,-3.458 -14.76,-7.128 -31.64,-0.96 -48.75,-5.199 9.15,-11.125 18.85,-20.769 30.33,-29.527 4.06,-3.102 4.95,-8.106 8.71,-11.52 5.57,-5.562 1.13,-10.855 10.71,-11.203 7.24,-0.265 6.57,-1.285 11.7,-6.511 16.08,-16.336 49.48,-16.668 58.67,-28.125 10.54,4.335 56.48,9.621 64.46,6.601 5.01,3.813 7.7,5.473 11.41,10.617"
         style="fill:#e6af11;fill-opacity:1;fill-rule:nonzero;stroke:none"
         id="path54" /><path
         d="m 3755.86,490.488 c 9.29,-25.644 -58.78,-25.84 -67.66,-31.035 -4.97,4.602 -26.19,10.918 -32.23,9.813 -11.72,-2.125 -17.82,10.605 -28.04,10.605 -15.7,0 -41.26,31.363 -51.25,41.047 -12.21,11.855 -27.46,31.117 -43.83,36.434 -13.27,-7.594 -20.45,4.89 -10.22,14.816 13.24,12.844 34.27,-7.383 55.26,0 7.56,0.855 89.89,7.383 89.89,20.82 33.28,8.637 1.2,32.879 -13.52,39.985 -11.96,5.777 -26.46,5.195 -38.03,10.062 -24.42,10.266 -55.34,0.996 -80.98,4.199 -40.83,5.106 -29.98,-52.546 -31.63,-82.078 -2.41,-18.519 8.56,-103.379 -11.42,-105.703 6.55,21.465 -6.2,47.949 -6.2,63.867 0,11.782 6.2,24.942 6.2,37.637 0,13.621 -2.62,25.473 2.8,38.633 -9.7,2.922 -4.18,16.195 -5.4,26.426 -1.74,14.609 -2.28,11.586 -13.01,14.218 -7.28,1.782 -14.31,-7.351 -15.62,-7.011 -8.05,6.507 -16.58,11.625 -4.3,19.82 9.43,6.293 25.34,-1.117 33.74,5.41 18.62,14.485 14.33,-4.894 32.22,3.805 15.49,-2.492 31.42,-1.278 47.45,-2.406 25.05,-1.762 57.97,1.093 73.47,-13.016 0,1.734 0,3.473 0,5.207 16.99,-5.234 36.32,-11.352 45.87,-25.727 16.53,-24.89 -8.81,-40.824 -28.25,-48.945 -4.92,-2.055 -13.01,-2.742 -18.62,-4.605 -4.82,-1.746 -11.55,-1.957 -15.82,-3.953 -11.71,-5.473 -10.62,0.16 -18.11,-3.458 -14.76,-7.128 -31.64,-0.96 -48.75,-5.199 9.15,-11.125 18.85,-20.769 30.33,-29.527 4.06,-3.102 4.95,-8.106 8.71,-11.52 5.57,-5.562 1.13,-10.855 10.71,-11.203 7.24,-0.265 6.57,-1.285 11.7,-6.511 16.08,-16.336 49.48,-16.668 58.67,-28.125 10.54,4.335 56.48,9.621 64.46,6.601 5.01,3.813 7.7,5.473 11.41,10.617"
         style="fill:none;stroke:#e6af11;stroke-opacity:1;stroke-width:15;stroke-linecap:butt;stroke-linejoin:miter;stroke-miterlimit:4;stroke-dasharray:none"
         id="path56" /><path
         d="m 256.02,392.883 c 194.55,-0.383 389.148,-3.957 583.585,-10.492 154.829,-5.196 309.195,17.113 464.175,3.332 177.77,-15.821 358.5,6.535 537.91,17.019 182.39,10.656 366.27,19.746 549.06,12.199 153.97,-6.355 305.43,-41.726 458.34,-56.789 114.96,-11.316 233.41,-3.132 348.93,-3.152 122.08,-0.02 235.68,2.859 356.34,25.676 29.95,5.664 208.53,46.797 220.6,12.207"
         style="fill:none;stroke:#e6af11;stroke-opacity:1;stroke-width:30;stroke-linecap:butt;stroke-linejoin:miter;stroke-miterlimit:4;stroke-dasharray:none"
         id="path58" /></g></g></svg>