<?xml version="1.0" encoding="UTF-8" standalone="no"?>
<svg
   xmlns:dc="http://purl.org/dc/elements/1.1/"
   xmlns:cc="http://creativecommons.org/ns#"
   xmlns:rdf="http://www.w3.org/1999/02/22-rdf-syntax-ns#"
   xmlns:svg="http://www.w3.org/2000/svg"
   xmlns="http://www.w3.org/2000/svg"
   viewBox="0 0 261.33334 113.33333"
   height="113.33333"
   width="261.33334"
   xml:space="preserve"
   id="svg2"
   version="1.1"><metadata
     id="metadata8"><rdf:RDF><cc:Work
         rdf:about=""><dc:format>image/svg+xml</dc:format><dc:type
           rdf:resource="http://purl.org/dc/dcmitype/StillImage" /></cc:Work></rdf:RDF></metadata><defs
     id="defs6"><clipPath
       id="clipPath20"
       clipPathUnits="userSpaceOnUse"><path
         id="path18"
         d="m 0,4.98047 h 1960 v 840 H 0 Z" /></clipPath></defs><g
     transform="matrix(1.3333333,0,0,-1.3333333,0,113.33333)"
     id="g10"><g
       transform="scale(0.1)"
       id="g12"><g
         id="g14"><g
           clip-path="url(#clipPath20)"
           id="g16"><path
             id="path22"
             style="fill:#231f20;fill-opacity:1;fill-rule:nonzero;stroke:none"
             d="m 1028.44,205.762 h 13.75 v 630.777 h -13.75 z" /><path
             id="path24"
             style="fill:#231f20;fill-opacity:1;fill-rule:nonzero;stroke:none"
             d="M 13.6289,12.0508 V 56.5 H 60.4297 V 12.0508 H 74.0586 V 110.52 H 60.4297 V 68.2188 H 13.6289 V 110.52 H 0 V 12.0508 h 13.6289" /><path
             id="path26"
             style="fill:#231f20;fill-opacity:1;fill-rule:evenodd;stroke:none"
             d="m 151.641,43.8008 v 6.4101 c 0,18.9883 -9.653,31.918 -30.121,32.3399 -21.6802,0 -31.7895,-16.75 -31.7895,-36.832 0,-20.1602 8.75,-35.6993 30.6995,-35.6993 16.371,0 28.359,7.7696 30.429,23.3203 h -13.668 c -1.492,-9.9609 -6.531,-13.9101 -16.64,-13.9101 -13.211,0 -18.129,12.3789 -17.153,24.3711 z m -48.243,9.0273 c 0,11.1719 6.403,20.3125 17.153,20.3125 12.57,0 17.73,-8.8711 17.461,-20.3125 h -34.614" /><path
             id="path28"
             style="fill:#231f20;fill-opacity:1;fill-rule:nonzero;stroke:none"
             d="m 168.98,12.0391 h 12.9688 v 98.4805 H 168.98 Z" /><path
             id="path30"
             style="fill:#231f20;fill-opacity:1;fill-rule:nonzero;stroke:none"
             d="M 218.75,80.5195 H 206.051 V 12.0508 h 12.969 v 35.1875 c 0,1.6406 -0.54,10.6328 0.98,14.1836 3.949,9.1367 11.559,11.1679 16.91,11.1679 12.391,0 15.121,-8.1601 15.121,-20.039 v -40.5 H 265 v 35.1875 c 0,1.6406 -0.43,8.4414 1.371,14.7305 2.457,8.4414 11.168,10.621 15.109,10.621 15.161,0 16.532,-10.621 16.532,-20.039 v -40.5 h 12.929 v 48.2773 c 0,12.2617 -9.691,22.2227 -25.511,22.2227 -10.078,0 -17.852,-4.3711 -22.77,-12.8125 -3.519,8.4414 -11.18,12.8125 -24.14,12.8125 -6.961,0 -15.399,-3.2813 -19.5,-11.8711 h -0.27 v 9.8398" /><path
             id="path32"
             style="fill:#231f20;fill-opacity:1;fill-rule:nonzero;stroke:none"
             d="m 347.77,12.0508 v 35.1875 c 0,3.793 -0.821,8.7109 2.191,15.8203 2.418,5.7109 10.348,9.6914 15.551,9.5312 12.109,-0.2695 15.269,-8.039 15.269,-20.039 v -40.5 h 12.93 v 46.3594 c 0,12.2695 -5.59,24.1406 -23.441,24.1406 -9.961,0 -17.34,-3.5508 -22.219,-11.1719 H 347.77 V 110.52 H 334.801 V 12.0508 h 12.969" /><path
             id="path34"
             style="fill:#231f20;fill-opacity:1;fill-rule:evenodd;stroke:none"
             d="m 447.301,82.5508 c -22.5,0 -34.102,-15 -34.102,-36.2813 0,-21.25 11.602,-36.25 34.102,-36.25 22.5,0 34.109,15 34.109,36.25 0,21.2813 -11.609,36.2813 -34.109,36.2813 z M 426.84,46.2695 c 0,14.6094 5.039,26.8711 20.461,26.8711 15.429,0 20.469,-12.2617 20.469,-26.8711 0,-14.5703 -5.04,-26.8398 -20.469,-26.8398 -15.422,0 -20.461,12.2695 -20.461,26.8398" /><path
             id="path36"
             style="fill:#231f20;fill-opacity:1;fill-rule:nonzero;stroke:none"
             d="m 497.422,12.0391 h 12.9297 v 98.4805 H 497.422 Z" /><path
             id="path38"
             style="fill:#231f20;fill-opacity:1;fill-rule:nonzero;stroke:none"
             d="m 527.461,80.9102 v -9.6797 l 11.719,0.1484 V 27.8711 c 0,-9.1406 0.699,-9.4219 3.011,-12.6992 2.188,-3.0117 5.579,-4.1016 7.61,-4.4922 3.168,-0.5508 5.629,-0.6602 8.75,-0.6602 3.008,0 5.859,0.6602 8.871,0.7813 v 9.9609 c -2.07,-0.5508 -4.762,-0.8203 -6.832,-0.8203 -4.61,0 -8.442,2.3399 -8.442,7.2188 v 44.2187 l 15.821,-0.1484 v 9.6797 L 552.148,80.5195 V 99.1992 L 539.18,95.0898 V 80.5195 l -11.719,0.3907" /><path
             id="path40"
             style="fill:#231f20;fill-opacity:1;fill-rule:nonzero;stroke:none"
             d="M 631.559,21.0313 H 595.82 L 630.199,71.5 v 9.0195 H 582.34 V 71.5 h 33.949 L 581.801,21.0313 v -8.9805 h 49.758 v 8.9805" /><path
             id="path42"
             style="fill:#231f20;fill-opacity:1;fill-rule:nonzero;stroke:none"
             d="m 691.371,12.0391 h 13.668 v 98.4805 h -13.668 z" /><path
             id="path44"
             style="fill:#231f20;fill-opacity:1;fill-rule:nonzero;stroke:none"
             d="M 741.84,80.5195 H 729.141 V 12.0508 h 12.968 v 37.2187 c 0,13.3594 3.512,16.3711 5.43,18.2813 5.473,5.4687 12.582,5.039 12.582,5.039 10.899,0 15.66,-6.1289 15.66,-17.4609 V 12.0508 h 12.969 v 47.3008 c 0,21.9492 -21.129,23.1992 -25.941,23.1992 -6.789,0 -16.36,-3.5508 -20.7,-12.1406 h -0.269 v 10.1093" /><path
             id="path46"
             style="fill:#231f20;fill-opacity:1;fill-rule:nonzero;stroke:none"
             d="m 801.129,80.9102 v -9.6797 l 11.723,0.1484 V 27.8711 c 0,-9.1406 0.699,-9.4219 3.007,-12.6992 2.192,-3.0117 5.59,-4.1016 7.621,-4.4922 3.161,-0.5508 5.622,-0.6602 8.75,-0.6602 3,0 5.86,0.6602 8.86,0.7813 v 9.9609 c -2.031,-0.5508 -4.762,-0.8203 -6.828,-0.8203 -4.614,0 -8.442,2.3399 -8.442,7.2188 v 44.2187 l 15.821,-0.1484 v 9.6797 L 825.82,80.5195 V 99.1992 L 812.852,95.0898 V 80.5195 l -11.723,0.3907" /><path
             id="path48"
             style="fill:#231f20;fill-opacity:1;fill-rule:evenodd;stroke:none"
             d="m 913.871,43.8008 v 6.4101 c 0,18.9883 -9.691,31.918 -30.121,32.3399 -21.68,0 -31.801,-16.75 -31.801,-36.832 0,-20.1602 8.75,-35.6993 30.711,-35.6993 16.36,0 28.36,7.7696 30.391,23.3203 H 899.41 c -1.48,-9.9609 -6.519,-13.9101 -16.64,-13.9101 -13.2,0 -18.122,12.3789 -17.18,24.3711 z m -48.281,9.0273 c 0,11.1719 6.398,20.3125 17.18,20.3125 12.539,0 17.742,-8.8711 17.46,-20.3125 h -34.64" /><path
             id="path50"
             style="fill:#231f20;fill-opacity:1;fill-rule:nonzero;stroke:none"
             d="m 946.172,45.9883 c 0,14.4609 2.887,23.2109 19.219,23.75 1.8,0 3.828,0 5.629,-0.6992 v 12.2617 c -1.532,0 -2.899,0.1601 -4.5,0.1601 -9.411,0 -18.161,-4.7617 -20.071,-14.1796 h -0.277 V 80.5195 H 933.238 V 12.0508 h 12.934 v 33.9375" /><path
             id="path52"
             style="fill:#231f20;fill-opacity:1;fill-rule:nonzero;stroke:none"
             d="M 998.238,80.5195 H 985.59 V 12.0508 h 12.93 v 37.2187 c 0,13.3594 3.55,16.3711 5.46,18.2813 5.47,5.4687 12.54,5.039 12.54,5.039 10.94,0 15.71,-6.1289 15.71,-17.4609 V 12.0508 h 12.93 v 47.3008 c 0,21.9492 -21.14,23.1992 -25.9,23.1992 -6.84,0 -16.37,-3.5508 -20.74,-12.1406 h -0.282 v 10.1093" /><path
             id="path54"
             style="fill:#231f20;fill-opacity:1;fill-rule:evenodd;stroke:none"
             d="m 1108.55,45.3281 c 0.32,-12.6992 -2.57,-25.8984 -17.85,-25.8984 -7.61,0 -13.47,4.2187 -13.47,12.6601 0,9.961 10.47,12.8086 18.39,13.2383 z m -11.71,8.9805 c -16.22,0 -33.29,-5.5781 -33.29,-24.7969 0,-13.3633 12.04,-19.4922 23.87,-19.4922 9.42,0 17.07,3.6719 21.29,12.2618 h 0.27 c 0.12,-3.1602 0.4,-6.1329 0.71,-9.3008 0.11,-1.6407 2.42,-0.9297 3.67,-0.9297 h 8.71 c -0.39,5.7383 -0.55,11.4375 -0.55,14.4492 v 32.7305 c 0,19.1093 -13.9,23.3203 -27.97,23.3203 -13.47,0 -25.19,-5.3125 -25.89,-20.3125 h 13.63 c 0.16,7.0703 6.29,10.9023 12.81,10.9023 13.79,0 14.45,-6.9492 14.45,-18.832 h -11.71" /><path
             id="path56"
             style="fill:#231f20;fill-opacity:1;fill-rule:nonzero;stroke:none"
             d="m 1133.12,80.9102 v -9.6797 l 11.72,0.1484 V 27.8711 c 0,-9.1406 0.67,-9.4219 3.01,-12.6992 2.15,-3.0117 5.59,-4.1016 7.62,-4.4922 3.12,-0.5508 5.58,-0.6602 8.71,-0.6602 3.01,0 5.86,0.6602 8.87,0.7813 v 9.9609 c -2.03,-0.5508 -4.77,-0.8203 -6.8,-0.8203 -4.65,0 -8.48,2.3399 -8.48,7.2188 v 44.2187 l 15.82,-0.1484 v 9.6797 l -15.82,-0.3907 v 18.6797 l -12.93,-4.1094 V 80.5195 l -11.72,0.3907" /><path
             id="path58"
             style="fill:#231f20;fill-opacity:1;fill-rule:evenodd;stroke:none"
             d="m 1202.46,80.5195 h -12.9297 V 12.0507 h 12.9297 z m -14.18,15.9414 h 15.43 V 110.52 h -15.43 V 96.4609" /><path
             id="path60"
             style="fill:#231f20;fill-opacity:1;fill-rule:evenodd;stroke:none"
             d="m 1256.33,82.5508 c -22.5,0 -34.1,-15 -34.1,-36.2813 0,-21.25 11.6,-36.25 34.1,-36.25 22.5,0 34.1,15 34.1,36.25 0,21.2813 -11.6,36.2813 -34.1,36.2813 z m -20.47,-36.2813 c 0,14.6094 5.08,26.8711 20.47,26.8711 15.39,0 20.47,-12.2617 20.47,-26.8711 0,-14.5703 -5.08,-26.8398 -20.47,-26.8398 -15.39,0 -20.47,12.2695 -20.47,26.8398" /><path
             id="path62"
             style="fill:#231f20;fill-opacity:1;fill-rule:nonzero;stroke:none"
             d="m 1322.62,80.5195 h -12.7 V 12.0508 h 12.93 v 37.2187 c 0,13.3594 3.56,16.3711 5.47,18.2813 5.47,5.4687 12.54,5.039 12.54,5.039 10.94,0 15.7,-6.1289 15.7,-17.4609 V 12.0508 h 12.93 v 47.3008 c 0,21.9492 -21.13,23.1992 -25.9,23.1992 -6.79,0 -16.36,-3.5508 -20.74,-12.1406 h -0.23 v 10.1093" /><path
             id="path64"
             style="fill:#231f20;fill-opacity:1;fill-rule:evenodd;stroke:none"
             d="m 1432.89,45.3281 c 0.31,-12.6992 -2.58,-25.8984 -17.85,-25.8984 -7.62,0 -13.52,4.2187 -13.52,12.6601 0,9.961 10.51,12.8086 18.44,13.2383 z m -11.72,8.9805 c -16.21,0 -33.28,-5.5781 -33.28,-24.7969 0,-13.3633 12.03,-19.4922 23.87,-19.4922 9.41,0 17.07,3.6719 21.29,12.2618 h 0.27 c 0.16,-3.1602 0.39,-6.1329 0.66,-9.3008 0.16,-1.6407 2.47,-0.9297 3.72,-0.9297 h 8.71 c -0.39,5.7383 -0.55,11.4375 -0.55,14.4492 v 32.7305 c 0,19.1093 -13.91,23.3203 -27.97,23.3203 -13.48,0 -25.19,-5.3125 -25.9,-20.3125 h 13.63 c 0.16,7.0703 6.29,10.9023 12.86,10.9023 13.75,0 14.41,-6.9492 14.41,-18.832 h -11.72" /><path
             id="path66"
             style="fill:#231f20;fill-opacity:1;fill-rule:nonzero;stroke:none"
             d="m 1468.75,12.0391 h 12.9688 v 98.4805 H 1468.75 Z" /><path
             id="path68"
             style="fill:#231f20;fill-opacity:1;fill-rule:nonzero;stroke:none"
             d="m 1617.38,85.1289 c -1.52,17.6211 -15.7,26.8831 -34.65,27.4221 -33,0.937 -43.63,-27.1408 -43.63,-51.2815 0,-27.539 11.6,-51.25 40.63,-51.25 19.22,0 35.86,10.8907 37.22,27.3789 h -14.29 c -1.64,-10.4687 -11.21,-15.6679 -21.68,-15.6679 -21.45,0 -27.58,19.2187 -27.58,39.539 0,17.3399 4.53,39.5705 28.79,39.5705 10.08,0 20.19,-6.2892 20.86,-15.7111 h 14.33" /><path
             id="path70"
             style="fill:#231f20;fill-opacity:1;fill-rule:evenodd;stroke:none"
             d="m 1691.02,43.8008 v 6.4101 c 0,18.9883 -9.65,31.918 -30.16,32.3399 -21.64,0 -31.76,-16.75 -31.76,-36.832 0,-20.1602 8.75,-35.6993 30.7,-35.6993 16.37,0 28.36,7.7696 30.4,23.3203 h -13.64 c -1.48,-9.9609 -6.52,-13.9101 -16.64,-13.9101 -13.2,0 -18.12,12.3789 -17.19,24.3711 z m -48.29,9.0273 c 0,11.1719 6.41,20.3125 17.19,20.3125 12.54,0 17.74,-8.8711 17.46,-20.3125 h -34.65" /><path
             id="path72"
             style="fill:#231f20;fill-opacity:1;fill-rule:nonzero;stroke:none"
             d="m 1722.66,80.5195 h -12.7 V 12.0508 h 12.97 v 37.2187 c 0,13.3594 3.55,16.3711 5.43,18.2813 5.47,5.4687 12.58,5.039 12.58,5.039 10.9,0 15.66,-6.1289 15.66,-17.4609 V 12.0508 h 12.97 v 47.3008 c 0,21.9492 -21.13,23.1992 -25.94,23.1992 -6.79,0 -16.33,-3.5508 -20.7,-12.1406 h -0.27 v 10.1093" /><path
             id="path74"
             style="fill:#231f20;fill-opacity:1;fill-rule:nonzero;stroke:none"
             d="m 1781.95,80.9102 v -9.6797 l 11.72,0.1484 V 27.8711 c 0,-9.1406 0.71,-9.4219 3.01,-12.6992 2.19,-3.0117 5.59,-4.1016 7.66,-4.4922 3.12,-0.5508 5.58,-0.6602 8.71,-0.6602 3,0 5.86,0.6602 8.86,0.7813 v 9.9609 c -2.03,-0.5508 -4.76,-0.8203 -6.79,-0.8203 -4.65,0 -8.48,2.3399 -8.48,7.2188 v 44.2187 l 15.82,-0.1484 v 9.6797 l -15.82,-0.3907 v 18.6797 l -12.97,-4.1094 V 80.5195 l -11.72,0.3907" /><path
             id="path76"
             style="fill:#231f20;fill-opacity:1;fill-rule:evenodd;stroke:none"
             d="m 1894.73,43.8008 v 6.4101 c 0,18.9883 -9.73,31.918 -30.16,32.3399 -21.68,0 -31.8,-16.75 -31.8,-36.832 0,-20.1602 8.75,-35.6993 30.71,-35.6993 16.36,0 28.36,7.7696 30.39,23.3203 h -13.64 c -1.48,-9.9609 -6.52,-13.9101 -16.64,-13.9101 -13.2,0 -18.12,12.3789 -17.14,24.3711 z m -48.28,9.0273 c 0,11.1719 6.4,20.3125 17.14,20.3125 12.58,0 17.74,-8.8711 17.46,-20.3125 h -34.6" /><path
             id="path78"
             style="fill:#231f20;fill-opacity:1;fill-rule:nonzero;stroke:none"
             d="m 1926.99,45.9883 c 0,14.4609 2.89,23.2109 19.26,23.75 1.76,0 3.79,0 5.59,-0.6992 v 12.2617 c -1.53,0 -2.86,0.1601 -4.5,0.1601 -9.41,0 -18.16,-4.7617 -20.07,-14.1796 h -0.28 v 13.2382 h -12.93 V 12.0508 h 12.93 v 33.9375" /><path
             id="path80"
             style="fill:#f17e13;fill-opacity:1;fill-rule:nonzero;stroke:none"
             d="m 744.379,205.68 v 80.039 h 21.281 v 12.109 h -21.281 v 14.692 c -0.551,10.109 5.152,12.691 15.07,12.691 2.93,0 5.86,-0.391 8.789,-0.551 v 14.5 c -4.218,0.738 -8.238,1.828 -12.457,1.828 -13.051,0 -28.281,-5.308 -28.832,-25.508 v -17.652 h -18 v -12.109 h 18 V 205.68 h 17.43" /><path
             id="path82"
             style="fill:#f17e13;fill-opacity:1;fill-rule:evenodd;stroke:none"
             d="m 823.281,300.602 c -30.312,0 -45.902,-20.192 -45.902,-48.832 0,-28.629 15.59,-48.821 45.902,-48.821 30.27,0 45.899,20.192 45.899,48.821 0,28.64 -15.629,48.832 -45.899,48.832 z M 795.738,251.77 c 0,19.652 6.801,36.179 27.543,36.179 20.739,0 27.539,-16.527 27.539,-36.179 0,-19.641 -6.8,-36.168 -27.539,-36.168 -20.742,0 -27.543,16.527 -27.543,36.168" /><path
             id="path84"
             style="fill:#f17e13;fill-opacity:1;fill-rule:nonzero;stroke:none"
             d="m 913.75,251.379 c 0,19.5 3.871,31.211 25.898,31.961 2.383,0 5.122,0 7.543,-0.899 v 16.52 c -2.031,0 -3.871,0.16 -6.101,0.16 -12.649,0 -24.41,-6.41 -26.949,-19.07 h -0.391 v 17.777 H 896.328 V 205.68 h 17.422 v 45.699" /><path
             id="path86"
             style="fill:#f17e13;fill-opacity:1;fill-rule:nonzero;stroke:none"
             d="M 93.4805,400.41 V 591.621 H 259.379 V 400.41 h 93.512 v 435.5 H 258.16 V 664 H 93.4805 V 835.91 H 0 v -435.5 h 93.4805" /><path
             id="path88"
             style="fill:#f17e13;fill-opacity:1;fill-rule:nonzero;stroke:none"
             d="m 431.25,400.398 h 93.4805 V 835.91 H 431.25 Z" /><path
             id="path90"
             style="fill:#f17e13;fill-opacity:1;fill-rule:nonzero;stroke:none"
             d="m 947.5,694.781 c -4.219,109.18 -82.66,150.199 -182.77,150.199 -126.058,0 -182.781,-99.531 -182.781,-226.8 0,-127.27 56.723,-226.801 182.781,-226.801 100.11,0 178.551,41.019 182.77,150.199 h -99.531 c 0.582,-45.859 -27.149,-82.656 -83.239,-82.656 -66.371,0 -83.25,98.316 -83.25,159.258 0,60.941 16.879,159.218 83.25,159.218 56.09,0 83.821,-36.757 83.239,-82.617 H 947.5" /><path
             id="path92"
             style="fill:#231f20;fill-opacity:1;fill-rule:nonzero;stroke:none"
             d="m 1168.71,205.371 v 165 h 126.02 v 40 h -126.02 v 116.008 h 133.01 v 40 H 1122.7 V 205.371 h 46.01" /><path
             id="path94"
             style="fill:#231f20;fill-opacity:1;fill-rule:evenodd;stroke:none"
             d="m 1292.73,205.371 h 46.53 l 26.99,86.008 h 139.49 l 26.02,-86.008 h 51.48 l -117.5,361.008 h -58.47 z m 200.51,126.008 h -115.51 l 56.53,192.5 h 1.01 l 57.97,-192.5" /><path
             id="path96"
             style="fill:#231f20;fill-opacity:1;fill-rule:nonzero;stroke:none"
             d="m 1618.55,205.359 h 45.9805 v 361.02 H 1618.55 Z" /><path
             id="path98"
             style="fill:#231f20;fill-opacity:1;fill-rule:evenodd;stroke:none"
             d="m 1781.6,526.379 h 69.49 c 35.47,0 48.48,-28.981 48.48,-55 0,-31.52 -15.98,-60 -48.98,-60 h -68.99 z m 53.99,-155 c 15.5,0 50.97,-1.988 54.49,-46.008 3.98,-47.973 1.01,-95 13.98,-120 h 48.01 c -6.99,22.5 -11.99,79.02 -12.5,94.527 -2.5,72.5 -17.5,86.481 -58.98,92.973 v 1.008 c 42.5,7.5 66.01,40 66.01,82.5 0,45 -22.54,90 -86.52,90 H 1735.59 V 205.371 h 46.01 v 166.008 h 53.99" /></g></g></g></g></svg>