<?xml version="1.0" encoding="utf-8" standalone="no"?>
<!DOCTYPE svg PUBLIC "-//W3C//DTD SVG 1.1//EN"
  "http://www.w3.org/Graphics/SVG/1.1/DTD/svg11.dtd">
<!-- Created with matplotlib (http://matplotlib.org/) -->
<svg height="540pt" version="1.1" viewBox="0 0 720 540" width="720pt" xmlns="http://www.w3.org/2000/svg" xmlns:xlink="http://www.w3.org/1999/xlink">
 <defs>
  <style type="text/css">
*{stroke-linecap:butt;stroke-linejoin:round;}
  </style>
 </defs>
 <g id="figure_1">
  <g id="patch_1">
   <path d="M 0 540 
L 720 540 
L 720 0 
L 0 0 
z
" style="fill:#ffffff;"/>
  </g>
  <g id="axes_1">
   <g id="patch_2">
    <path d="M 86.4 475.2 
L 702 475.2 
L 702 21.6 
L 86.4 21.6 
z
" style="fill:#ffffff;"/>
   </g>
   <g id="matplotlib.axis_1">
    <g id="xtick_1">
     <g id="line2d_1">
      <defs>
       <path d="M 0 0 
L 0 3.5 
" id="m9a0c9de290" style="stroke:#000000;stroke-width:2;"/>
      </defs>
      <g>
       <use style="stroke:#000000;stroke-width:2;" x="86.4" xlink:href="#m9a0c9de290" y="475.2"/>
      </g>
     </g>
     <g id="text_1">
      <!-- $-2.0$ -->
      <defs>
       <path d="M 65.90625 23 
C 67.59375 23 69.40625 23 69.40625 25 
C 69.40625 27 67.59375 27 65.90625 27 
L 11.796875 27 
C 10.09375 27 8.296875 27 8.296875 25 
C 8.296875 23 10.09375 23 11.796875 23 
z
" id="CMSY10-0"/>
       <path d="M 41.703125 15.453125 
L 39.90625 15.453125 
C 38.90625 8.375 38.09375 7.171875 37.703125 6.5625 
C 37.203125 5.765625 30 5.765625 28.59375 5.765625 
L 9.40625 5.765625 
C 13 9.671875 20 16.75 28.5 24.953125 
C 34.59375 30.734375 41.703125 37.53125 41.703125 47.421875 
C 41.703125 59.21875 32.296875 66 21.796875 66 
C 10.796875 66 4.09375 56.3125 4.09375 47.34375 
C 4.09375 43.4375 7 42.9375 8.203125 42.9375 
C 9.203125 42.9375 12.203125 43.546875 12.203125 47.03125 
C 12.203125 50.109375 9.59375 51 8.203125 51 
C 7.59375 51 7 50.90625 6.59375 50.703125 
C 8.5 59.21875 14.296875 63.40625 20.40625 63.40625 
C 29.09375 63.40625 34.796875 56.515625 34.796875 47.421875 
C 34.796875 38.734375 29.703125 31.25 24 24.75 
L 4.09375 2.28125 
L 4.09375 0 
L 39.296875 0 
z
" id="CMR17-50"/>
       <path d="M 18.40625 4.796875 
C 18.40625 7.6875 16 9.671875 13.59375 9.671875 
C 10.703125 9.671875 8.703125 7.28125 8.703125 4.890625 
C 8.703125 2 11.09375 0 13.5 0 
C 16.40625 0 18.40625 2.390625 18.40625 4.796875 
z
" id="CMMI12-58"/>
       <path d="M 42 31.640625 
C 42 37.75 41.90625 48.125 37.703125 56.109375 
C 34 63.109375 28.09375 65.59375 22.90625 65.59375 
C 18.09375 65.59375 12 63.40625 8.203125 56.203125 
C 4.203125 48.71875 3.796875 39.4375 3.796875 31.640625 
C 3.796875 25.953125 3.90625 17.28125 7 9.671875 
C 11.296875 -0.609375 19 -2 22.90625 -2 
C 27.5 -2 34.5 -0.109375 38.59375 9.375 
C 41.59375 16.28125 42 24.359375 42 31.640625 
z
M 22.90625 -0.40625 
C 16.5 -0.40625 12.703125 5.078125 11.296875 12.6875 
C 10.203125 18.5625 10.203125 27.15625 10.203125 32.75 
C 10.203125 40.4375 10.203125 46.828125 11.5 52.921875 
C 13.40625 61.390625 19 64 22.90625 64 
C 27 64 32.296875 61.296875 34.203125 53.125 
C 35.5 47.4375 35.59375 40.734375 35.59375 32.75 
C 35.59375 26.25 35.59375 18.265625 34.40625 12.375 
C 32.296875 1.484375 26.40625 -0.40625 22.90625 -0.40625 
z
" id="CMR17-48"/>
      </defs>
      <g transform="translate(62.884127 499.235969)scale(0.24 -0.24)">
       <use transform="scale(0.996264)" xlink:href="#CMSY10-0"/>
       <use transform="translate(77.487468 0)scale(0.996264)" xlink:href="#CMR17-50"/>
       <use transform="translate(123.177945 0)scale(0.996264)" xlink:href="#CMMI12-58"/>
       <use transform="translate(150.275122 0)scale(0.996264)" xlink:href="#CMR17-48"/>
      </g>
     </g>
    </g>
    <g id="xtick_2">
     <g id="line2d_2">
      <g>
       <use style="stroke:#000000;stroke-width:2;" x="163.35" xlink:href="#m9a0c9de290" y="475.2"/>
      </g>
     </g>
     <g id="text_2">
      <!-- $-1.5$ -->
      <defs>
       <path d="M 26.59375 63.40625 
C 26.59375 65.5 26.5 65.5 25.09375 65.5 
C 21.203125 61.1875 15.296875 59.796875 9.703125 59.796875 
C 9.40625 59.796875 8.90625 59.796875 8.796875 59.5 
C 8.703125 59.296875 8.703125 59.09375 8.703125 57 
C 11.796875 57 17 57.59375 21 59.984375 
L 21 7.203125 
C 21 3.6875 20.796875 2.5 12.203125 2.5 
L 9.203125 2.5 
L 9.203125 0 
C 14 0 19 0 23.796875 0 
C 28.59375 0 33.59375 0 38.40625 0 
L 38.40625 2.5 
L 35.40625 2.5 
C 26.796875 2.5 26.59375 3.59375 26.59375 7.15625 
z
" id="CMR17-49"/>
       <path d="M 11.40625 57.6875 
C 12.40625 57.28125 16.5 56 20.703125 56 
C 30 56 35.09375 61.109375 38 64.0625 
C 38 64.953125 38 65.5 37.40625 65.5 
C 37.296875 65.5 37.09375 65.5 36.296875 65.046875 
C 32.796875 63.40625 28.703125 62.078125 23.703125 62.078125 
C 20.703125 62.078125 16.203125 62.484375 11.296875 64.671875 
C 10.203125 65.171875 10 65.171875 9.90625 65.171875 
C 9.40625 65.171875 9.296875 65.0625 9.296875 63.078125 
L 9.296875 34.421875 
C 9.296875 32.640625 9.296875 32.140625 10.296875 32.140625 
C 10.796875 32.140625 11 32.34375 11.5 33.03125 
C 14.703125 37.515625 19.09375 39.40625 24.09375 39.40625 
C 27.59375 39.40625 35.09375 37.21875 35.09375 20.140625 
C 35.09375 16.953125 35.09375 11.171875 32.09375 6.578125 
C 29.59375 2.484375 25.703125 0.390625 21.40625 0.390625 
C 14.796875 0.390625 8.09375 5 6.296875 12.71875 
C 6.703125 12.609375 7.5 12.421875 7.90625 12.421875 
C 9.203125 12.421875 11.703125 13.125 11.703125 16.21875 
C 11.703125 18.90625 9.796875 20 7.90625 20 
C 5.59375 20 4.09375 18.59375 4.09375 15.796875 
C 4.09375 7.09375 11 -2 21.59375 -2 
C 31.90625 -2 41.703125 6.875 41.703125 19.75 
C 41.703125 31.71875 33.90625 41 24.203125 41 
C 19.09375 41 14.796875 39.109375 11.40625 35.53125 
z
" id="CMR17-53"/>
      </defs>
      <g transform="translate(139.834127 499.235969)scale(0.24 -0.24)">
       <use transform="scale(0.996264)" xlink:href="#CMSY10-0"/>
       <use transform="translate(77.487468 0)scale(0.996264)" xlink:href="#CMR17-49"/>
       <use transform="translate(123.177945 0)scale(0.996264)" xlink:href="#CMMI12-58"/>
       <use transform="translate(150.275122 0)scale(0.996264)" xlink:href="#CMR17-53"/>
      </g>
     </g>
    </g>
    <g id="xtick_3">
     <g id="line2d_3">
      <g>
       <use style="stroke:#000000;stroke-width:2;" x="240.3" xlink:href="#m9a0c9de290" y="475.2"/>
      </g>
     </g>
     <g id="text_3">
      <!-- $-1.0$ -->
      <g transform="translate(216.784127 499.235969)scale(0.24 -0.24)">
       <use transform="scale(0.996264)" xlink:href="#CMSY10-0"/>
       <use transform="translate(77.487468 0)scale(0.996264)" xlink:href="#CMR17-49"/>
       <use transform="translate(123.177945 0)scale(0.996264)" xlink:href="#CMMI12-58"/>
       <use transform="translate(150.275122 0)scale(0.996264)" xlink:href="#CMR17-48"/>
      </g>
     </g>
    </g>
    <g id="xtick_4">
     <g id="line2d_4">
      <g>
       <use style="stroke:#000000;stroke-width:2;" x="317.25" xlink:href="#m9a0c9de290" y="475.2"/>
      </g>
     </g>
     <g id="text_4">
      <!-- $-0.5$ -->
      <g transform="translate(293.734127 499.235969)scale(0.24 -0.24)">
       <use transform="scale(0.996264)" xlink:href="#CMSY10-0"/>
       <use transform="translate(77.487468 0)scale(0.996264)" xlink:href="#CMR17-48"/>
       <use transform="translate(123.177945 0)scale(0.996264)" xlink:href="#CMMI12-58"/>
       <use transform="translate(150.275122 0)scale(0.996264)" xlink:href="#CMR17-53"/>
      </g>
     </g>
    </g>
    <g id="xtick_5">
     <g id="line2d_5">
      <g>
       <use style="stroke:#000000;stroke-width:2;" x="394.2" xlink:href="#m9a0c9de290" y="475.2"/>
      </g>
     </g>
     <g id="text_5">
      <!-- $0.0$ -->
      <g transform="translate(379.982624 499.235969)scale(0.24 -0.24)">
       <use transform="scale(0.996264)" xlink:href="#CMR17-48"/>
       <use transform="translate(45.690477 0)scale(0.996264)" xlink:href="#CMMI12-58"/>
       <use transform="translate(72.787654 0)scale(0.996264)" xlink:href="#CMR17-48"/>
      </g>
     </g>
    </g>
    <g id="xtick_6">
     <g id="line2d_6">
      <g>
       <use style="stroke:#000000;stroke-width:2;" x="471.15" xlink:href="#m9a0c9de290" y="475.2"/>
      </g>
     </g>
     <g id="text_6">
      <!-- $0.5$ -->
      <g transform="translate(456.932624 499.235969)scale(0.24 -0.24)">
       <use transform="scale(0.996264)" xlink:href="#CMR17-48"/>
       <use transform="translate(45.690477 0)scale(0.996264)" xlink:href="#CMMI12-58"/>
       <use transform="translate(72.787654 0)scale(0.996264)" xlink:href="#CMR17-53"/>
      </g>
     </g>
    </g>
    <g id="xtick_7">
     <g id="line2d_7">
      <g>
       <use style="stroke:#000000;stroke-width:2;" x="548.1" xlink:href="#m9a0c9de290" y="475.2"/>
      </g>
     </g>
     <g id="text_7">
      <!-- $1.0$ -->
      <g transform="translate(533.882624 499.235969)scale(0.24 -0.24)">
       <use transform="scale(0.996264)" xlink:href="#CMR17-49"/>
       <use transform="translate(45.690477 0)scale(0.996264)" xlink:href="#CMMI12-58"/>
       <use transform="translate(72.787654 0)scale(0.996264)" xlink:href="#CMR17-48"/>
      </g>
     </g>
    </g>
    <g id="xtick_8">
     <g id="line2d_8">
      <g>
       <use style="stroke:#000000;stroke-width:2;" x="625.05" xlink:href="#m9a0c9de290" y="475.2"/>
      </g>
     </g>
     <g id="text_8">
      <!-- $1.5$ -->
      <g transform="translate(610.832624 499.235969)scale(0.24 -0.24)">
       <use transform="scale(0.996264)" xlink:href="#CMR17-49"/>
       <use transform="translate(45.690477 0)scale(0.996264)" xlink:href="#CMMI12-58"/>
       <use transform="translate(72.787654 0)scale(0.996264)" xlink:href="#CMR17-53"/>
      </g>
     </g>
    </g>
    <g id="xtick_9">
     <g id="line2d_9">
      <g>
       <use style="stroke:#000000;stroke-width:2;" x="702" xlink:href="#m9a0c9de290" y="475.2"/>
      </g>
     </g>
     <g id="text_9">
      <!-- $2.0$ -->
      <g transform="translate(687.782624 499.235969)scale(0.24 -0.24)">
       <use transform="scale(0.996264)" xlink:href="#CMR17-50"/>
       <use transform="translate(45.690477 0)scale(0.996264)" xlink:href="#CMMI12-58"/>
       <use transform="translate(72.787654 0)scale(0.996264)" xlink:href="#CMR17-48"/>
      </g>
     </g>
    </g>
    <g id="text_10">
     <!-- $\gamma$ -->
     <defs>
      <path d="M 37.796875 11.875 
C 37.59375 16.734375 37.40625 24.390625 33.59375 33.328125 
C 31.59375 38.3125 28.203125 43.5625 20.90625 43.5625 
C 8.59375 43.5625 1.90625 27.96875 1.90625 25.390625 
C 1.90625 24.484375 2.59375 24.484375 2.90625 24.484375 
C 3.796875 24.484375 3.796875 24.6875 4.296875 25.984375 
C 6.40625 32.140625 12.796875 37 19.703125 37 
C 33.59375 37 35.59375 21.609375 35.59375 11.78125 
C 35.59375 5.5 34.90625 3.4375 34.296875 1.4375 
C 32.40625 -4.71875 29.09375 -17.03125 29.09375 -19.8125 
C 29.09375 -20.609375 29.40625 -21.5 30.203125 -21.5 
C 31.703125 -21.5 32.59375 -18.21875 33.703125 -14.25 
C 36.09375 -5.515625 36.703125 -1.140625 37.203125 2.828125 
C 37.5 5.21875 43.203125 21.625 51.09375 37.21875 
C 51.796875 38.796875 53.203125 41.484375 53.203125 41.78125 
C 53.203125 41.875 53.09375 42.578125 52.203125 42.578125 
C 52 42.578125 51.5 42.578125 51.296875 42.171875 
C 51.09375 41.984375 47.59375 35.21875 44.59375 28.46875 
C 43.09375 25.09375 41.09375 20.625 37.796875 11.875 
z
" id="CMMI12-13"/>
     </defs>
     <g transform="translate(388.128104 525.364702)scale(0.24 -0.24)">
      <use transform="scale(0.996264)" xlink:href="#CMMI12-13"/>
     </g>
    </g>
   </g>
   <g id="matplotlib.axis_2">
    <g id="ytick_1">
     <g id="line2d_10">
      <defs>
       <path d="M 0 0 
L -3.5 0 
" id="mfb2ffa0442" style="stroke:#000000;stroke-width:2;"/>
      </defs>
      <g>
       <use style="stroke:#000000;stroke-width:2;" x="86.4" xlink:href="#mfb2ffa0442" y="475.2"/>
      </g>
     </g>
     <g id="text_11">
      <!-- $-1.0$ -->
      <g transform="translate(32.368254 483.717984)scale(0.24 -0.24)">
       <use transform="scale(0.996264)" xlink:href="#CMSY10-0"/>
       <use transform="translate(77.487468 0)scale(0.996264)" xlink:href="#CMR17-49"/>
       <use transform="translate(123.177945 0)scale(0.996264)" xlink:href="#CMMI12-58"/>
       <use transform="translate(150.275122 0)scale(0.996264)" xlink:href="#CMR17-48"/>
      </g>
     </g>
    </g>
    <g id="ytick_2">
     <g id="line2d_11">
      <g>
       <use style="stroke:#000000;stroke-width:2;" x="86.4" xlink:href="#mfb2ffa0442" y="399.6"/>
      </g>
     </g>
     <g id="text_12">
      <!-- $-0.5$ -->
      <g transform="translate(32.368254 408.117984)scale(0.24 -0.24)">
       <use transform="scale(0.996264)" xlink:href="#CMSY10-0"/>
       <use transform="translate(77.487468 0)scale(0.996264)" xlink:href="#CMR17-48"/>
       <use transform="translate(123.177945 0)scale(0.996264)" xlink:href="#CMMI12-58"/>
       <use transform="translate(150.275122 0)scale(0.996264)" xlink:href="#CMR17-53"/>
      </g>
     </g>
    </g>
    <g id="ytick_3">
     <g id="line2d_12">
      <g>
       <use style="stroke:#000000;stroke-width:2;" x="86.4" xlink:href="#mfb2ffa0442" y="324"/>
      </g>
     </g>
     <g id="text_13">
      <!-- $0.0$ -->
      <g transform="translate(50.965248 332.517984)scale(0.24 -0.24)">
       <use transform="scale(0.996264)" xlink:href="#CMR17-48"/>
       <use transform="translate(45.690477 0)scale(0.996264)" xlink:href="#CMMI12-58"/>
       <use transform="translate(72.787654 0)scale(0.996264)" xlink:href="#CMR17-48"/>
      </g>
     </g>
    </g>
    <g id="ytick_4">
     <g id="line2d_13">
      <g>
       <use style="stroke:#000000;stroke-width:2;" x="86.4" xlink:href="#mfb2ffa0442" y="248.4"/>
      </g>
     </g>
     <g id="text_14">
      <!-- $0.5$ -->
      <g transform="translate(50.965248 256.917984)scale(0.24 -0.24)">
       <use transform="scale(0.996264)" xlink:href="#CMR17-48"/>
       <use transform="translate(45.690477 0)scale(0.996264)" xlink:href="#CMMI12-58"/>
       <use transform="translate(72.787654 0)scale(0.996264)" xlink:href="#CMR17-53"/>
      </g>
     </g>
    </g>
    <g id="ytick_5">
     <g id="line2d_14">
      <g>
       <use style="stroke:#000000;stroke-width:2;" x="86.4" xlink:href="#mfb2ffa0442" y="172.8"/>
      </g>
     </g>
     <g id="text_15">
      <!-- $1.0$ -->
      <g transform="translate(50.965248 181.317984)scale(0.24 -0.24)">
       <use transform="scale(0.996264)" xlink:href="#CMR17-49"/>
       <use transform="translate(45.690477 0)scale(0.996264)" xlink:href="#CMMI12-58"/>
       <use transform="translate(72.787654 0)scale(0.996264)" xlink:href="#CMR17-48"/>
      </g>
     </g>
    </g>
    <g id="ytick_6">
     <g id="line2d_15">
      <g>
       <use style="stroke:#000000;stroke-width:2;" x="86.4" xlink:href="#mfb2ffa0442" y="97.2"/>
      </g>
     </g>
     <g id="text_16">
      <!-- $1.5$ -->
      <g transform="translate(50.965248 105.717984)scale(0.24 -0.24)">
       <use transform="scale(0.996264)" xlink:href="#CMR17-49"/>
       <use transform="translate(45.690477 0)scale(0.996264)" xlink:href="#CMMI12-58"/>
       <use transform="translate(72.787654 0)scale(0.996264)" xlink:href="#CMR17-53"/>
      </g>
     </g>
    </g>
    <g id="ytick_7">
     <g id="line2d_16">
      <g>
       <use style="stroke:#000000;stroke-width:2;" x="86.4" xlink:href="#mfb2ffa0442" y="21.6"/>
      </g>
     </g>
     <g id="text_17">
      <!-- $2.0$ -->
      <g transform="translate(50.965248 30.117984)scale(0.24 -0.24)">
       <use transform="scale(0.996264)" xlink:href="#CMR17-50"/>
       <use transform="translate(45.690477 0)scale(0.996264)" xlink:href="#CMMI12-58"/>
       <use transform="translate(72.787654 0)scale(0.996264)" xlink:href="#CMR17-48"/>
      </g>
     </g>
    </g>
    <g id="text_18">
     <!-- $E/E_{FG}$ -->
     <defs>
      <path d="M 69.5 23.265625 
C 69.59375 23.5625 69.90625 24.28125 69.90625 24.671875 
C 69.90625 25.171875 69.5 25.671875 68.90625 25.671875 
C 68.5 25.671875 68.296875 25.578125 68 25.265625 
C 67.796875 25.171875 67.796875 24.96875 66.90625 22.953125 
C 61 8.90625 56.703125 2.890625 40.703125 2.890625 
L 26.09375 2.890625 
C 24.703125 2.890625 24.5 2.890625 23.90625 3 
C 22.796875 3.09375 22.703125 3.296875 22.703125 4.09375 
C 22.703125 4.796875 22.90625 5.390625 23.09375 6.296875 
L 30 34 
L 39.90625 34 
C 47.703125 34 48.296875 32.28125 48.296875 29.28125 
C 48.296875 28.28125 48.296875 27.375 47.59375 24.375 
C 47.40625 23.96875 47.296875 23.5625 47.296875 23.265625 
C 47.296875 22.5625 47.796875 22.265625 48.40625 22.265625 
C 49.296875 22.265625 49.40625 22.953125 49.796875 24.359375 
L 55.5 47.53125 
C 55.5 48.015625 55.09375 48.515625 54.5 48.515625 
C 53.59375 48.515625 53.5 48.125 53.09375 46.71875 
C 51.09375 39.078125 49.09375 36.890625 40.203125 36.890625 
L 30.703125 36.890625 
L 36.90625 61.40625 
C 37.796875 64.90625 38 64.90625 42.09375 64.90625 
L 56.40625 64.90625 
C 68.703125 64.90625 71.203125 61.609375 71.203125 54.03125 
C 71.203125 53.921875 71.203125 51.140625 70.796875 47.84375 
C 70.703125 47.4375 70.59375 46.84375 70.59375 46.640625 
C 70.59375 45.84375 71.09375 45.546875 71.703125 45.546875 
C 72.40625 45.546875 72.796875 45.953125 73 47.734375 
L 75.09375 65.21875 
C 75.09375 65.546875 75.296875 66.609375 75.296875 66.828125 
C 75.296875 68 74.40625 68 72.59375 68 
L 23.796875 68 
C 21.90625 68 20.90625 68 20.90625 66.078125 
C 20.90625 64.90625 21.59375 64.90625 23.296875 64.90625 
C 29.5 64.90625 29.5 64.28125 29.5 63.3125 
C 29.5 62.8125 29.40625 62.40625 29.09375 61.3125 
L 15.59375 7.390625 
C 14.703125 3.890625 14.5 2.890625 7.5 2.890625 
C 5.59375 2.890625 4.59375 2.890625 4.59375 1.09375 
C 4.59375 0 5.203125 0 7.203125 0 
L 57.40625 0 
C 59.59375 0 59.703125 0.09375 60.40625 1.71875 
z
" id="CMMI12-69"/>
      <path d="M 42.90625 71.28125 
C 42.90625 71.390625 43.5 72.90625 43.5 73.09375 
C 43.5 74.296875 42.5 75 41.703125 75 
C 41.203125 75 40.296875 75 39.5 72.796875 
L 6 -21.296875 
C 6 -21.40625 5.40625 -22.890625 5.40625 -23.09375 
C 5.40625 -24.296875 6.40625 -25 7.203125 -25 
C 7.796875 -25 8.703125 -24.890625 9.40625 -22.796875 
z
" id="CMMI12-61"/>
      <path d="M 29.703125 32.109375 
L 39.296875 32.109375 
C 46.90625 32.109375 47.5 30.40625 47.5 27.515625 
C 47.5 26.21875 47.296875 24.828125 46.796875 22.625 
C 46.59375 22.234375 46.5 21.734375 46.5 21.53125 
C 46.5 20.828125 46.90625 20.4375 47.59375 20.4375 
C 48.40625 20.4375 48.5 20.828125 48.90625 22.421875 
L 54.703125 45.859375 
C 54.703125 46.265625 54.40625 46.859375 53.703125 46.859375 
C 52.796875 46.859375 52.703125 46.46875 52.296875 44.734375 
C 50.203125 37.125 48.203125 35 39.5 35 
L 30.40625 35 
L 36.90625 61.34375 
C 37.796875 64.90625 38 64.90625 42.09375 64.90625 
L 55.5 64.90625 
C 68 64.90625 69.796875 61.21875 69.796875 54.125 
C 69.796875 53.53125 69.796875 51.328125 69.5 48.734375 
C 69.40625 48.34375 69.203125 47.046875 69.203125 46.640625 
C 69.203125 45.84375 69.703125 45.546875 70.296875 45.546875 
C 71 45.546875 71.40625 45.953125 71.59375 47.734375 
L 73.703125 65.21875 
C 73.703125 65.546875 73.90625 66.609375 73.90625 66.828125 
C 73.90625 68 73 68 71.203125 68 
L 23.796875 68 
C 21.90625 68 20.90625 68 20.90625 66.078125 
C 20.90625 64.90625 21.59375 64.90625 23.296875 64.90625 
C 29.5 64.90625 29.5 64.265625 29.5 63.28125 
C 29.5 62.78125 29.40625 62.375 29.09375 61.28125 
L 15.59375 7.390625 
C 14.703125 3.890625 14.5 2.890625 7.5 2.890625 
C 5.59375 2.890625 4.59375 2.890625 4.59375 1.09375 
C 4.59375 0 5.5 0 6.09375 0 
C 8 0 10 0 11.90625 0 
L 24.90625 0 
C 27.09375 0 29.5 0 31.703125 0 
C 32.59375 0 33.796875 0 33.796875 1.796875 
C 33.796875 2.890625 33.203125 2.890625 31 2.890625 
C 23.09375 2.890625 22.90625 3.578125 22.90625 5.0625 
C 22.90625 5.5625 23.09375 6.34375 23.296875 7.015625 
z
" id="CMMI12-70"/>
      <path d="M 74.59375 69.109375 
C 74.59375 70 73.90625 70 73.703125 70 
C 73.5 70 73.09375 70 72.296875 69 
L 65.40625 60.765625 
C 64.90625 61.5625 62.90625 65.046875 59 67.328125 
C 54.703125 70 50.40625 70 48.90625 70 
C 27.5 70 5 48.359375 5 24.921875 
C 5 8.53125 16.40625 -2 31.40625 -2 
C 38.59375 -2 47.703125 0.390625 52.703125 6.671875 
C 53.796875 2.890625 56 0.1875 56.703125 0.1875 
C 57.203125 0.1875 57.296875 0.5 57.40625 0.5 
C 57.5 0.6875 58.296875 4.21875 58.796875 6.015625 
L 60.40625 12.453125 
C 61.203125 15.765625 61.59375 17.171875 62.296875 20.171875 
C 63.296875 24 63.5 24 69 24 
C 69.40625 24 70.59375 24 70.59375 26.03125 
C 70.59375 27.09375 69.59375 27.09375 69.296875 27.09375 
C 67.59375 27.09375 65.703125 27.09375 63.90625 27.09375 
L 58.5 27.09375 
C 54.296875 27.09375 49.90625 27.09375 45.796875 27.09375 
C 44.90625 27.09375 43.703125 27.09375 43.703125 25.171875 
C 43.703125 24.09375 44.5 24.09375 44.5 24 
L 47 24 
C 54.90625 24 54.90625 23.265625 54.90625 21.90625 
C 54.90625 21.796875 53 11.734375 51.09375 8.765625 
C 47.296875 3.1875 39.40625 0.890625 33.5 0.890625 
C 25.796875 0.890625 13.296875 4.875 13.296875 22.03125 
C 13.296875 28.6875 15.703125 43.875 25.40625 55.09375 
C 31.703125 62.25 41 67.109375 49.796875 67.109375 
C 61.59375 67.109375 65.796875 57.109375 65.796875 47.984375 
C 65.796875 46.40625 65.40625 44.234375 65.40625 42.84375 
C 65.40625 41.953125 66.40625 41.953125 66.703125 41.953125 
C 67.796875 41.953125 67.90625 42.046875 68.296875 43.828125 
z
" id="CMMI12-71"/>
     </defs>
     <g transform="translate(23.27549 285.190518)rotate(-90)scale(0.24 -0.24)">
      <use transform="translate(0 14.943915)scale(0.996264)" xlink:href="#CMMI12-69"/>
      <use transform="translate(78.051636 14.943915)scale(0.996264)" xlink:href="#CMMI12-61"/>
      <use transform="translate(126.826555 14.943915)scale(0.996264)" xlink:href="#CMMI12-69"/>
      <use transform="translate(199.037773 0)scale(0.697382)" xlink:href="#CMMI12-70"/>
      <use transform="translate(252.725284 0)scale(0.697382)" xlink:href="#CMMI12-71"/>
     </g>
    </g>
   </g>
   <g id="LineCollection_1">
    <path clip-path="url(#p865358379b)" style="fill:none;stroke:#187795;stroke-width:3;"/>
    <path clip-path="url(#p865358379b)" style="fill:none;stroke:#187795;stroke-width:3;"/>
    <path clip-path="url(#p865358379b)" style="fill:none;stroke:#187795;stroke-width:3;"/>
    <path clip-path="url(#p865358379b)" d="M 671.22 50.366745 
L 671.22 48.314465 
" style="fill:none;stroke:#187795;stroke-width:3;"/>
    <path clip-path="url(#p865358379b)" d="M 609.66 73.337692 
L 609.66 71.805058 
" style="fill:none;stroke:#187795;stroke-width:3;"/>
    <path clip-path="url(#p865358379b)" d="M 548.1 99.345937 
L 548.1 98.342882 
" style="fill:none;stroke:#187795;stroke-width:3;"/>
    <path clip-path="url(#p865358379b)" d="M 486.54 128.464597 
L 486.54 127.862069 
" style="fill:none;stroke:#187795;stroke-width:3;"/>
    <path clip-path="url(#p865358379b)" d="M 424.98 161.151652 
L 424.98 160.950175 
" style="fill:none;stroke:#187795;stroke-width:3;"/>
    <path clip-path="url(#p865358379b)" d="M 363.42 197.667921 
L 363.42 196.73595 
" style="fill:none;stroke:#187795;stroke-width:3;"/>
    <path clip-path="url(#p865358379b)" d="M 301.86 239.309881 
L 301.86 237.617926 
" style="fill:none;stroke:#187795;stroke-width:3;"/>
    <path clip-path="url(#p865358379b)" d="M 240.3 284.537397 
L 240.3 282.21823 
" style="fill:none;stroke:#187795;stroke-width:3;"/>
    <path clip-path="url(#p865358379b)" d="M 178.74 337.242771 
L 178.74 334.351484 
" style="fill:none;stroke:#187795;stroke-width:3;"/>
    <path clip-path="url(#p865358379b)" d="M 117.18 396.115413 
L 117.18 392.690469 
" style="fill:none;stroke:#187795;stroke-width:3;"/>
    <path clip-path="url(#p865358379b)" d="M 55.62 463.596982 
L 55.62 459.51651 
" style="fill:none;stroke:#187795;stroke-width:3;"/>
    <path clip-path="url(#p865358379b)" style="fill:none;stroke:#187795;stroke-width:3;"/>
    <path clip-path="url(#p865358379b)" style="fill:none;stroke:#187795;stroke-width:3;"/>
   </g>
   <g id="LineCollection_2">
    <path clip-path="url(#p865358379b)" d="M 363.42 198.777831 
L 363.42 197.791324 
" style="fill:none;stroke:#a42604;stroke-width:3;"/>
    <path clip-path="url(#p865358379b)" d="M 301.86 241.796483 
L 301.86 238.797654 
" style="fill:none;stroke:#a42604;stroke-width:3;"/>
    <path clip-path="url(#p865358379b)" d="M 240.3 291.380835 
L 240.3 286.432209 
" style="fill:none;stroke:#a42604;stroke-width:3;"/>
    <path clip-path="url(#p865358379b)" d="M 178.74 350.164404 
L 178.74 347.851535 
" style="fill:none;stroke:#a42604;stroke-width:3;"/>
    <path clip-path="url(#p865358379b)" d="M 117.18 420.859895 
L 117.18 412.282748 
" style="fill:none;stroke:#a42604;stroke-width:3;"/>
    <path clip-path="url(#p865358379b)" d="M 55.62 487.428345 
L 55.62 485.947656 
" style="fill:none;stroke:#a42604;stroke-width:3;"/>
    <path clip-path="url(#p865358379b)" style="fill:none;stroke:#a42604;stroke-width:3;"/>
    <path clip-path="url(#p865358379b)" style="fill:none;stroke:#a42604;stroke-width:3;"/>
   </g>
   <g id="line2d_17">
    <defs>
     <path d="M 3 0 
L -3 -0 
" id="m0adfb94657" style="stroke:#187795;stroke-width:3;"/>
    </defs>
    <g clip-path="url(#p865358379b)">
     <use style="fill:#187795;stroke:#187795;stroke-width:3;" x="855.9" xlink:href="#m0adfb94657" y="23.310407"/>
     <use style="fill:#187795;stroke:#187795;stroke-width:3;" x="794.34" xlink:href="#m0adfb94657" y="24.790928"/>
     <use style="fill:#187795;stroke:#187795;stroke-width:3;" x="732.78" xlink:href="#m0adfb94657" y="33.93999"/>
     <use style="fill:#187795;stroke:#187795;stroke-width:3;" x="671.22" xlink:href="#m0adfb94657" y="50.366745"/>
     <use style="fill:#187795;stroke:#187795;stroke-width:3;" x="609.66" xlink:href="#m0adfb94657" y="73.337692"/>
     <use style="fill:#187795;stroke:#187795;stroke-width:3;" x="548.1" xlink:href="#m0adfb94657" y="99.345937"/>
     <use style="fill:#187795;stroke:#187795;stroke-width:3;" x="486.54" xlink:href="#m0adfb94657" y="128.464597"/>
     <use style="fill:#187795;stroke:#187795;stroke-width:3;" x="424.98" xlink:href="#m0adfb94657" y="161.151652"/>
     <use style="fill:#187795;stroke:#187795;stroke-width:3;" x="363.42" xlink:href="#m0adfb94657" y="197.667921"/>
     <use style="fill:#187795;stroke:#187795;stroke-width:3;" x="301.86" xlink:href="#m0adfb94657" y="239.309881"/>
     <use style="fill:#187795;stroke:#187795;stroke-width:3;" x="240.3" xlink:href="#m0adfb94657" y="284.537397"/>
     <use style="fill:#187795;stroke:#187795;stroke-width:3;" x="178.74" xlink:href="#m0adfb94657" y="337.242771"/>
     <use style="fill:#187795;stroke:#187795;stroke-width:3;" x="117.18" xlink:href="#m0adfb94657" y="396.115413"/>
     <use style="fill:#187795;stroke:#187795;stroke-width:3;" x="55.62" xlink:href="#m0adfb94657" y="463.596982"/>
     <use style="fill:#187795;stroke:#187795;stroke-width:3;" x="-1" xlink:href="#m0adfb94657" y="534.189699"/>
    </g>
   </g>
   <g id="line2d_18">
    <g clip-path="url(#p865358379b)">
     <use style="fill:#187795;stroke:#187795;stroke-width:3;" x="855.9" xlink:href="#m0adfb94657" y="18.6024"/>
     <use style="fill:#187795;stroke:#187795;stroke-width:3;" x="794.34" xlink:href="#m0adfb94657" y="21.075832"/>
     <use style="fill:#187795;stroke:#187795;stroke-width:3;" x="732.78" xlink:href="#m0adfb94657" y="31.119061"/>
     <use style="fill:#187795;stroke:#187795;stroke-width:3;" x="671.22" xlink:href="#m0adfb94657" y="48.314465"/>
     <use style="fill:#187795;stroke:#187795;stroke-width:3;" x="609.66" xlink:href="#m0adfb94657" y="71.805058"/>
     <use style="fill:#187795;stroke:#187795;stroke-width:3;" x="548.1" xlink:href="#m0adfb94657" y="98.342882"/>
     <use style="fill:#187795;stroke:#187795;stroke-width:3;" x="486.54" xlink:href="#m0adfb94657" y="127.862069"/>
     <use style="fill:#187795;stroke:#187795;stroke-width:3;" x="424.98" xlink:href="#m0adfb94657" y="160.950175"/>
     <use style="fill:#187795;stroke:#187795;stroke-width:3;" x="363.42" xlink:href="#m0adfb94657" y="196.73595"/>
     <use style="fill:#187795;stroke:#187795;stroke-width:3;" x="301.86" xlink:href="#m0adfb94657" y="237.617926"/>
     <use style="fill:#187795;stroke:#187795;stroke-width:3;" x="240.3" xlink:href="#m0adfb94657" y="282.21823"/>
     <use style="fill:#187795;stroke:#187795;stroke-width:3;" x="178.74" xlink:href="#m0adfb94657" y="334.351484"/>
     <use style="fill:#187795;stroke:#187795;stroke-width:3;" x="117.18" xlink:href="#m0adfb94657" y="392.690469"/>
     <use style="fill:#187795;stroke:#187795;stroke-width:3;" x="55.62" xlink:href="#m0adfb94657" y="459.51651"/>
     <use style="fill:#187795;stroke:#187795;stroke-width:3;" x="-1" xlink:href="#m0adfb94657" y="529.651884"/>
    </g>
   </g>
   <g id="line2d_19">
    <defs>
     <path d="M -4 4 
L 4 -4 
M -4 -4 
L 4 4 
" id="me64493d1c4" style="stroke:#0d153a;stroke-width:3;"/>
    </defs>
    <g clip-path="url(#p865358379b)">
     <use style="fill:#0d153a;stroke:#0d153a;stroke-width:3;" x="394.2" xlink:href="#me64493d1c4" y="178.848"/>
    </g>
   </g>
   <g id="line2d_20">
    <defs>
     <path d="M 3 0 
L -3 -0 
" id="m6555ec64f2" style="stroke:#a42604;stroke-width:3;"/>
    </defs>
    <g clip-path="url(#p865358379b)">
     <use style="fill:#a42604;stroke:#a42604;stroke-width:3;" x="363.42" xlink:href="#m6555ec64f2" y="198.777831"/>
     <use style="fill:#a42604;stroke:#a42604;stroke-width:3;" x="301.86" xlink:href="#m6555ec64f2" y="241.796483"/>
     <use style="fill:#a42604;stroke:#a42604;stroke-width:3;" x="240.3" xlink:href="#m6555ec64f2" y="291.380835"/>
     <use style="fill:#a42604;stroke:#a42604;stroke-width:3;" x="178.74" xlink:href="#m6555ec64f2" y="350.164404"/>
     <use style="fill:#a42604;stroke:#a42604;stroke-width:3;" x="117.18" xlink:href="#m6555ec64f2" y="420.859895"/>
     <use style="fill:#a42604;stroke:#a42604;stroke-width:3;" x="55.62" xlink:href="#m6555ec64f2" y="487.428345"/>
     <use style="fill:#a42604;stroke:#a42604;stroke-width:3;" x="-1" xlink:href="#m6555ec64f2" y="572.898246"/>
    </g>
   </g>
   <g id="line2d_21">
    <g clip-path="url(#p865358379b)">
     <use style="fill:#a42604;stroke:#a42604;stroke-width:3;" x="363.42" xlink:href="#m6555ec64f2" y="197.791324"/>
     <use style="fill:#a42604;stroke:#a42604;stroke-width:3;" x="301.86" xlink:href="#m6555ec64f2" y="238.797654"/>
     <use style="fill:#a42604;stroke:#a42604;stroke-width:3;" x="240.3" xlink:href="#m6555ec64f2" y="286.432209"/>
     <use style="fill:#a42604;stroke:#a42604;stroke-width:3;" x="178.74" xlink:href="#m6555ec64f2" y="347.851535"/>
     <use style="fill:#a42604;stroke:#a42604;stroke-width:3;" x="117.18" xlink:href="#m6555ec64f2" y="412.282748"/>
     <use style="fill:#a42604;stroke:#a42604;stroke-width:3;" x="55.62" xlink:href="#m6555ec64f2" y="485.947656"/>
     <use style="fill:#a42604;stroke:#a42604;stroke-width:3;" x="-1" xlink:href="#m6555ec64f2" y="567.356064"/>
    </g>
   </g>
   <g id="line2d_22">
    <path clip-path="url(#p865358379b)" d="M 7.279437 541 
L 18.684 525.625323 
L 30.996 509.41123 
L 43.308 493.588429 
L 55.62 478.150305 
L 67.932 463.09024 
L 80.244 448.401617 
L 92.556 434.077818 
L 104.868 420.112226 
L 117.18 406.498225 
L 129.492 393.229196 
L 141.804 380.298524 
L 154.116 367.69959 
L 166.428 355.425778 
L 178.74 343.47047 
L 191.052 331.82705 
L 203.364 320.4889 
L 215.676 309.449402 
L 227.988 298.701941 
L 240.3 288.239898 
L 252.612 278.056657 
L 264.924 268.145599 
L 277.236 258.50011 
L 289.548 249.11357 
L 301.86 239.979363 
L 315.711 229.996757 
L 329.562 220.315714 
L 343.413 210.926811 
L 357.264 201.820627 
L 371.115 192.987741 
L 384.966 184.418729 
L 398.817 176.104172 
L 412.668 168.034646 
L 426.519 160.200731 
L 441.909 151.761255 
L 457.299 143.5881 
L 472.689 135.668341 
L 488.079 127.989056 
L 505.008 119.804163 
L 521.937 111.877402 
L 538.866 104.191571 
L 557.334 96.061594 
L 575.802 88.175539 
L 595.809 79.88167 
L 617.355 71.208077 
L 640.44 62.172799 
L 665.064 52.781108 
L 692.766 42.454318 
L 721 32.114307 
L 721 32.114307 
" style="fill:none;stroke:#808080;stroke-dasharray:12.8,3.2,2,3.2;stroke-dashoffset:0;stroke-width:2;"/>
   </g>
   <g id="line2d_23">
    <path clip-path="url(#p865358379b)" d="M 702 50.241896 
L 695.781818 51.504866 
L 689.563636 52.817855 
L 683.345455 54.180862 
L 677.127273 55.593888 
L 670.909091 57.056932 
L 664.690909 58.569995 
L 658.472727 60.133077 
L 652.254545 61.746177 
L 646.036364 63.409296 
L 639.818182 65.122433 
L 633.6 66.885589 
L 627.381818 68.698764 
L 621.163636 70.561957 
L 614.945455 72.475169 
L 608.727273 74.4384 
L 602.509091 76.451649 
L 596.290909 78.514917 
L 590.072727 80.628203 
L 583.854545 82.791508 
L 577.636364 85.004832 
L 571.418182 87.268174 
L 565.2 89.581535 
L 558.981818 91.944914 
L 552.763636 94.358312 
L 546.545455 96.821729 
L 540.327273 99.335164 
L 534.109091 101.898618 
L 527.890909 104.51209 
L 521.672727 107.175581 
L 515.454545 109.889091 
L 509.236364 112.652619 
L 503.018182 115.466166 
L 496.8 118.329732 
L 490.581818 121.243316 
L 484.363636 124.206919 
L 478.145455 127.22054 
L 471.927273 130.28418 
L 465.709091 133.397838 
L 459.490909 136.561516 
L 453.272727 139.775212 
L 447.054545 143.038926 
L 440.836364 146.352659 
L 434.618182 149.716411 
L 428.4 153.130181 
L 422.181818 156.59397 
L 415.963636 160.107777 
L 409.745455 163.671603 
L 403.527273 167.285448 
L 397.309091 170.949311 
L 391.090909 174.663193 
L 384.872727 178.427094 
L 378.654545 182.241013 
L 372.436364 186.104951 
L 366.218182 190.018907 
L 360 193.982882 
L 353.781818 197.996876 
L 347.563636 202.060888 
L 341.345455 206.174919 
L 335.127273 210.338968 
L 328.909091 214.553036 
L 322.690909 218.817123 
L 316.472727 223.131228 
L 310.254545 227.495352 
L 304.036364 231.909495 
L 297.818182 236.373656 
L 291.6 240.887835 
L 285.381818 245.452034 
L 279.163636 250.066251 
L 272.945455 254.730486 
L 266.727273 259.44474 
L 260.509091 264.209013 
L 254.290909 269.023305 
L 248.072727 273.887615 
L 241.854545 278.801943 
L 235.636364 283.76629 
L 229.418182 288.780656 
L 223.2 293.845041 
L 216.981818 298.959444 
L 210.763636 304.123865 
L 204.545455 309.338306 
L 198.327273 314.602765 
L 192.109091 319.917242 
L 185.890909 325.281738 
L 179.672727 330.696253 
L 173.454545 336.160786 
L 167.236364 341.675338 
L 161.018182 347.239909 
L 154.8 352.854498 
L 148.581818 358.519106 
L 142.363636 364.233732 
L 136.145455 369.998377 
L 129.927273 375.813041 
L 123.709091 381.677723 
L 117.490909 387.592424 
L 111.272727 393.557143 
L 105.054545 399.571882 
L 98.836364 405.636638 
L 92.618182 411.751414 
L 86.4 417.916207 
" style="fill:none;stroke:#0d153a;stroke-dasharray:7.4,3.2;stroke-dashoffset:0;stroke-width:2;"/>
   </g>
   <g id="line2d_24">
    <path clip-path="url(#p865358379b)" d="M 18.369404 541 
L 19.243636 539.678366 
L 22.041818 535.477456 
L 24.84 531.305881 
L 27.638182 527.163696 
L 30.436364 523.050963 
L 33.234545 518.967754 
L 36.032727 514.914149 
L 38.830909 510.890238 
L 41.629091 506.89612 
L 44.427273 502.931908 
L 47.225455 498.997727 
L 50.023636 495.093716 
L 52.821818 491.22003 
L 55.62 487.376842 
L 58.418182 483.564344 
L 61.216364 479.782746 
L 64.014545 476.032286 
L 66.812727 472.313224 
L 69.610909 468.625851 
L 72.409091 464.970485 
L 75.207273 461.347484 
L 78.005455 457.757239 
L 80.803636 454.200188 
L 83.601818 450.676813 
L 86.4 447.187649 
L 89.198182 443.733287 
L 91.996364 440.314386 
L 94.794545 436.931673 
L 97.592727 433.585957 
L 100.390909 430.278133 
L 103.189091 427.009196 
L 105.987273 423.780253 
L 108.785455 420.592533 
L 111.583636 417.447403 
L 114.381818 414.346385 
L 117.18 411.291176 
L 119.978182 408.283668 
L 122.776364 405.325971 
L 125.574545 402.420447 
L 128.372727 399.569733 
L 131.170909 396.776785 
L 133.969091 394.044918 
L 136.767273 391.377849 
L 139.565455 388.77976 
L 142.363636 386.255356 
L 145.161818 383.809941 
L 147.96 381.449502 
L 150.758182 379.180809 
L 153.556364 377.011528 
L 156.354545 374.950358 
L 159.152727 373.007186 
L 161.950909 371.19327 
L 164.749091 369.521456 
L 167.547273 368.006435 
L 170.345455 366.665038 
L 173.143636 365.516601 
L 175.941818 364.583384 
L 178.74 363.89108 
L 181.538182 363.469425 
L 184.336364 363.352925 
L 187.134545 363.581742 
L 189.932727 364.202758 
L 192.730909 365.270879 
L 195.529091 366.850622 
L 198.327273 369.018063 
L 201.125455 371.863244 
L 203.923636 375.493149 
L 206.721818 380.035418 
L 209.52 385.642995 
" style="fill:none;stroke:#0d153a;stroke-linecap:square;stroke-width:2;"/>
   </g>
   <g id="line2d_25">
    <defs>
     <path d="M -4 4 
L 4 4 
L 4 -4 
L -4 -4 
z
" id="me3ac7af734" style="stroke:#187795;stroke-linejoin:miter;stroke-width:3;"/>
    </defs>
    <g clip-path="url(#p865358379b)">
     <use style="fill:#187795;stroke:#187795;stroke-linejoin:miter;stroke-width:3;" x="855.9" xlink:href="#me3ac7af734" y="20.956403"/>
     <use style="fill:#187795;stroke:#187795;stroke-linejoin:miter;stroke-width:3;" x="794.34" xlink:href="#me3ac7af734" y="22.93338"/>
     <use style="fill:#187795;stroke:#187795;stroke-linejoin:miter;stroke-width:3;" x="732.78" xlink:href="#me3ac7af734" y="32.529526"/>
     <use style="fill:#187795;stroke:#187795;stroke-linejoin:miter;stroke-width:3;" x="671.22" xlink:href="#me3ac7af734" y="49.340605"/>
     <use style="fill:#187795;stroke:#187795;stroke-linejoin:miter;stroke-width:3;" x="609.66" xlink:href="#me3ac7af734" y="72.571375"/>
     <use style="fill:#187795;stroke:#187795;stroke-linejoin:miter;stroke-width:3;" x="548.1" xlink:href="#me3ac7af734" y="98.84441"/>
     <use style="fill:#187795;stroke:#187795;stroke-linejoin:miter;stroke-width:3;" x="486.54" xlink:href="#me3ac7af734" y="128.163333"/>
     <use style="fill:#187795;stroke:#187795;stroke-linejoin:miter;stroke-width:3;" x="424.98" xlink:href="#me3ac7af734" y="161.050913"/>
     <use style="fill:#187795;stroke:#187795;stroke-linejoin:miter;stroke-width:3;" x="363.42" xlink:href="#me3ac7af734" y="197.201936"/>
     <use style="fill:#187795;stroke:#187795;stroke-linejoin:miter;stroke-width:3;" x="301.86" xlink:href="#me3ac7af734" y="238.463903"/>
     <use style="fill:#187795;stroke:#187795;stroke-linejoin:miter;stroke-width:3;" x="240.3" xlink:href="#me3ac7af734" y="283.377813"/>
     <use style="fill:#187795;stroke:#187795;stroke-linejoin:miter;stroke-width:3;" x="178.74" xlink:href="#me3ac7af734" y="335.797127"/>
     <use style="fill:#187795;stroke:#187795;stroke-linejoin:miter;stroke-width:3;" x="117.18" xlink:href="#me3ac7af734" y="394.402941"/>
     <use style="fill:#187795;stroke:#187795;stroke-linejoin:miter;stroke-width:3;" x="55.62" xlink:href="#me3ac7af734" y="461.556746"/>
     <use style="fill:#187795;stroke:#187795;stroke-linejoin:miter;stroke-width:3;" x="-1" xlink:href="#me3ac7af734" y="531.920792"/>
    </g>
   </g>
   <g id="line2d_26">
    <defs>
     <path d="M -0 5.656854 
L 3.394113 0 
L 0 -5.656854 
L -3.394113 -0 
z
" id="m19221d77c9" style="stroke:#a42604;stroke-linejoin:miter;stroke-width:3;"/>
    </defs>
    <g clip-path="url(#p865358379b)">
     <use style="fill:#a42604;stroke:#a42604;stroke-linejoin:miter;stroke-width:3;" x="363.42" xlink:href="#m19221d77c9" y="198.284578"/>
     <use style="fill:#a42604;stroke:#a42604;stroke-linejoin:miter;stroke-width:3;" x="301.86" xlink:href="#m19221d77c9" y="240.297069"/>
     <use style="fill:#a42604;stroke:#a42604;stroke-linejoin:miter;stroke-width:3;" x="240.3" xlink:href="#m19221d77c9" y="288.906522"/>
     <use style="fill:#a42604;stroke:#a42604;stroke-linejoin:miter;stroke-width:3;" x="178.74" xlink:href="#m19221d77c9" y="349.007969"/>
     <use style="fill:#a42604;stroke:#a42604;stroke-linejoin:miter;stroke-width:3;" x="117.18" xlink:href="#m19221d77c9" y="416.571322"/>
     <use style="fill:#a42604;stroke:#a42604;stroke-linejoin:miter;stroke-width:3;" x="55.62" xlink:href="#m19221d77c9" y="486.688"/>
     <use style="fill:#a42604;stroke:#a42604;stroke-linejoin:miter;stroke-width:3;" x="-1" xlink:href="#m19221d77c9" y="570.127155"/>
    </g>
   </g>
   <g id="patch_3">
    <path d="M 86.4 475.2 
L 86.4 21.6 
" style="fill:none;stroke:#000000;stroke-linecap:square;stroke-linejoin:miter;stroke-width:2;"/>
   </g>
   <g id="patch_4">
    <path d="M 702 475.2 
L 702 21.6 
" style="fill:none;stroke:#000000;stroke-linecap:square;stroke-linejoin:miter;stroke-width:2;"/>
   </g>
   <g id="patch_5">
    <path d="M 86.4 475.2 
L 702 475.2 
" style="fill:none;stroke:#000000;stroke-linecap:square;stroke-linejoin:miter;stroke-width:2;"/>
   </g>
   <g id="patch_6">
    <path d="M 86.4 21.6 
L 702 21.6 
" style="fill:none;stroke:#000000;stroke-linecap:square;stroke-linejoin:miter;stroke-width:2;"/>
   </g>
   <g id="legend_1">
    <g id="line2d_27">
     <path d="M 471.999324 317.081779 
L 515.999324 317.081779 
" style="fill:none;stroke:#808080;stroke-dasharray:12.8,3.2,2,3.2;stroke-dashoffset:0;stroke-width:2;"/>
    </g>
    <g id="line2d_28"/>
    <g id="text_19">
     <!-- DFT-RG -->
     <defs>
      <path d="M 8.90625 0 
L 37 0 
C 55.40625 0 66.703125 13.828125 66.703125 36.546875 
C 66.703125 59.171875 55.5 73 37 73 
L 8.90625 73 
z
M 18.203125 8.21875 
L 18.203125 64.78125 
L 35.40625 64.78125 
C 49.796875 64.78125 57.40625 55.0625 57.40625 36.453125 
C 57.40625 18.03125 49.796875 8.21875 35.40625 8.21875 
z
" id="Nimbus_Sans_L_Regular-68"/>
      <path d="M 18.296875 33 
L 53.09375 33 
L 53.09375 41.21875 
L 18.296875 41.21875 
L 18.296875 64.78125 
L 57.90625 64.78125 
L 57.90625 73 
L 9 73 
L 9 -0.21875 
L 18.296875 -0.21875 
z
" id="Nimbus_Sans_L_Regular-70"/>
      <path d="M 35.40625 64.78125 
L 59.296875 64.78125 
L 59.296875 73 
L 2.09375 73 
L 2.09375 64.78125 
L 26.09375 64.78125 
L 26.09375 -0.21875 
L 35.40625 -0.21875 
z
" id="Nimbus_Sans_L_Regular-84"/>
      <path d="M 28.40625 31.203125 
L 4.59375 31.203125 
L 4.59375 24 
L 28.40625 24 
z
" id="Nimbus_Sans_L_Regular-45"/>
      <path d="M 18.59375 31.78125 
L 42.59375 31.78125 
C 50.90625 31.78125 54.59375 27.71875 54.59375 18.546875 
L 54.5 11.90625 
C 54.5 7.3125 55.296875 2.828125 56.59375 -0.21875 
L 67.90625 -0.21875 
L 67.90625 2.125 
C 64.40625 4.5625 63.703125 7.21875 63.5 17.078125 
C 63.40625 29.265625 61.5 32.9375 53.59375 36.390625 
C 61.796875 40.359375 65.09375 45.40625 65.09375 53.65625 
C 65.09375 66.140625 57.203125 73 42.90625 73 
L 9.296875 73 
L 9.296875 -0.21875 
L 18.59375 -0.21875 
z
M 18.59375 40 
L 18.59375 64.78125 
L 41.09375 64.78125 
C 46.296875 64.78125 49.296875 64 51.59375 62.015625 
C 54.09375 59.9375 55.40625 56.6875 55.40625 52.34375 
C 55.40625 43.84375 51 40 41.09375 40 
z
" id="Nimbus_Sans_L_Regular-82"/>
      <path d="M 70.90625 39 
L 40.5 39 
L 40.5 30.796875 
L 62.703125 30.796875 
L 62.703125 28.765625 
C 62.703125 15.671875 53.09375 6.203125 39.796875 6.203125 
C 32.40625 6.203125 25.703125 8.890625 21.40625 13.59375 
C 16.59375 18.765625 13.703125 27.4375 13.703125 36.40625 
C 13.703125 54.234375 23.90625 66 39.296875 66 
C 50.40625 66 58.40625 60.375 60.40625 51.125 
L 69.90625 51.125 
C 67.296875 65.796875 56.09375 74.21875 39.40625 74.21875 
C 30.5 74.21875 23.296875 71.921875 17.59375 67.234375 
C 9.203125 60.25 4.40625 48.984375 4.40625 35.90625 
C 4.40625 13.5625 18.09375 -2 37.796875 -2 
C 47.703125 -2 55.59375 1.703125 62.703125 9.625 
L 65 -0.109375 
L 70.90625 -0.109375 
z
" id="Nimbus_Sans_L_Regular-71"/>
     </defs>
     <g transform="translate(533.599324 324.781779)scale(0.22 -0.22)">
      <use transform="scale(0.996264)" xlink:href="#Nimbus_Sans_L_Regular-68"/>
      <use transform="translate(71.929985 0)scale(0.996264)" xlink:href="#Nimbus_Sans_L_Regular-70"/>
      <use transform="translate(132.801616 0)scale(0.996264)" xlink:href="#Nimbus_Sans_L_Regular-84"/>
      <use transform="translate(179.726553 0)scale(0.996264)" xlink:href="#Nimbus_Sans_L_Regular-45"/>
      <use transform="translate(212.901783 0)scale(0.996264)" xlink:href="#Nimbus_Sans_L_Regular-82"/>
      <use transform="translate(284.831768 0)scale(0.996264)" xlink:href="#Nimbus_Sans_L_Regular-71"/>
     </g>
    </g>
    <g id="line2d_29">
     <path d="M 471.999324 348.772044 
L 515.999324 348.772044 
" style="fill:none;stroke:#0d153a;stroke-dasharray:7.4,3.2;stroke-dashoffset:0;stroke-width:2;"/>
    </g>
    <g id="line2d_30"/>
    <g id="text_20">
     <!-- BA (weak), TL -->
     <defs>
      <path d="M 7.90625 0 
L 40.796875 0 
C 47.703125 0 52.796875 1.890625 56.703125 6.0625 
C 60.296875 9.828125 62.296875 14.984375 62.296875 20.65625 
C 62.296875 29.390625 58.296875 34.640625 49 38.21875 
C 55.59375 41.359375 59.09375 46.8125 59.09375 54.296875 
C 59.09375 59.640625 57.09375 64.40625 53.296875 67.84375 
C 49.5 71.375 44.5 73 37.5 73 
L 7.90625 73 
z
M 17.203125 41.21875 
L 17.203125 64.78125 
L 35.203125 64.78125 
C 40.40625 64.78125 43.296875 64.0625 45.796875 62.140625 
C 48.40625 60.109375 49.796875 57.0625 49.796875 52.984375 
C 49.796875 49.03125 48.40625 45.890625 45.796875 43.84375 
C 43.296875 41.921875 40.40625 41.21875 35.203125 41.21875 
z
M 17.203125 8.21875 
L 17.203125 33 
L 39.90625 33 
C 44.40625 33 47.40625 31.90625 49.59375 29.546875 
C 51.796875 27.265625 53 24.109375 53 20.5625 
C 53 17.109375 51.796875 13.953125 49.59375 11.671875 
C 47.40625 9.296875 44.40625 8.21875 39.90625 8.21875 
z
" id="Nimbus_Sans_L_Regular-66"/>
      <path d="M 47.40625 22 
L 54.90625 0 
L 65.296875 0 
L 39.703125 73 
L 27.703125 73 
L 1.703125 0 
L 11.59375 0 
L 19.296875 22 
z
M 44.796875 29.8125 
L 21.59375 29.8125 
L 33.59375 63 
z
" id="Nimbus_Sans_L_Regular-65"/>
      <path d="M 23.59375 73 
C 13.59375 59.84375 7.296875 41.5625 7.296875 25.796875 
C 7.296875 9.9375 13.59375 -8.34375 23.59375 -21.5 
L 29.09375 -21.5 
C 20.296875 -7.140625 15.40625 9.734375 15.40625 25.796875 
C 15.40625 41.765625 20.296875 58.734375 29.09375 73 
z
" id="Nimbus_Sans_L_Regular-40"/>
      <path d="M 55.40625 0 
L 70.796875 52.5 
L 61.40625 52.5 
L 51 11.625 
L 40.703125 52.5 
L 30.5 52.5 
L 20.5 11.625 
L 9.796875 52.5 
L 0.59375 52.5 
L 15.796875 0 
L 25.203125 0 
L 35.296875 41.171875 
L 45.90625 0 
z
" id="Nimbus_Sans_L_Regular-119"/>
      <path d="M 51.296875 23.890625 
C 51.296875 31.78125 50.703125 36.53125 49.203125 40.375 
C 45.796875 48.859375 37.796875 54 28 54 
C 13.40625 54 4 42.84375 4 25.703125 
C 4 8.546875 13.09375 -2 27.796875 -2 
C 39.796875 -2 48.09375 4.84375 50.203125 16.3125 
L 41.796875 16.3125 
C 39.5 9.34375 34.796875 5.703125 28.09375 5.703125 
C 22.796875 5.703125 18.296875 8.125 15.5 12.578125 
C 13.5 15.59375 12.796875 18.640625 12.703125 23.890625 
z
M 12.90625 31 
C 13.59375 40.265625 19.5 46.28125 27.90625 46.28125 
C 36.09375 46.28125 42.40625 39.53125 42.40625 31 
C 42.40625 31 42.40625 31 42.296875 31 
z
" id="Nimbus_Sans_L_Regular-101"/>
      <path d="M 53.5 5.203125 
C 52.59375 5 52.203125 5 51.703125 5 
C 48.796875 5 47.203125 6.484375 47.203125 9.078125 
L 47.203125 39.765625 
C 47.203125 49.015625 40.40625 54 27.5 54 
C 19.90625 54 13.59375 51.8125 10.09375 47.90625 
C 7.703125 45.203125 6.703125 42.21875 6.5 37.03125 
L 14.90625 37.03125 
C 15.59375 43.390625 19.40625 46.28125 27.203125 46.28125 
C 34.703125 46.28125 38.90625 43.484375 38.90625 38.515625 
L 38.90625 36.328125 
C 38.90625 32.828125 36.796875 31.34375 30.203125 30.546875 
C 18.40625 29.0625 16.59375 28.65625 13.40625 27.359375 
C 7.296875 24.875 4.203125 20.1875 4.203125 13.421875 
C 4.203125 3.96875 10.796875 -2 21.40625 -2 
C 28 -2 33.296875 0.296875 39.203125 5.703125 
C 39.796875 0.390625 42.40625 -2 47.796875 -2 
C 49.5 -2 50.796875 -1.8125 53.5 -1.09375 
z
M 38.90625 16.75 
C 38.90625 13.953125 38.09375 12.265625 35.59375 9.984375 
C 32.203125 6.890625 28.09375 5.3125 23.203125 5.3125 
C 16.703125 5.3125 12.90625 8.390625 12.90625 13.65625 
C 12.90625 19.140625 16.59375 21.921875 25.5 23.21875 
C 34.296875 24.40625 36.09375 24.8125 38.90625 26.09375 
z
" id="Nimbus_Sans_L_Regular-97"/>
      <path d="M 14.09375 73 
L 5.796875 73 
L 5.796875 -0.03125 
L 14.09375 -0.03125 
L 14.09375 20.40625 
L 22.203125 28.421875 
L 39.90625 -0.03125 
L 50.203125 -0.03125 
L 28.796875 34.328125 
L 47 52.453125 
L 36.296875 52.453125 
L 14.09375 30.21875 
z
" id="Nimbus_Sans_L_Regular-107"/>
      <path d="M 9.296875 -21.5 
C 19.296875 -8.34375 25.59375 9.9375 25.59375 25.6875 
C 25.59375 41.5625 19.296875 59.84375 9.296875 73 
L 3.796875 73 
C 12.59375 58.640625 17.5 41.765625 17.5 25.6875 
C 17.5 9.734375 12.59375 -7.25 3.796875 -21.5 
z
" id="Nimbus_Sans_L_Regular-41"/>
      <path d="M 8.703125 10 
L 8.703125 -0.421875 
L 14.703125 -0.421875 
L 14.703125 -2.21875 
C 14.703125 -9.109375 13.40625 -11.09375 8.703125 -11.09375 
L 8.703125 -15 
C 15.703125 -15 19.203125 -10.53125 19.203125 -1.96875 
L 19.203125 10 
z
" id="Nimbus_Sans_L_Regular-44"/>
      <path d="M 17.296875 73 
L 8 73 
L 8 0 
L 53.296875 0 
L 53.296875 8.21875 
L 17.296875 8.21875 
z
" id="Nimbus_Sans_L_Regular-76"/>
     </defs>
     <g transform="translate(533.599324 356.472044)scale(0.22 -0.22)">
      <use transform="scale(0.996264)" xlink:href="#Nimbus_Sans_L_Regular-66"/>
      <use transform="translate(66.450031 0)scale(0.996264)" xlink:href="#Nimbus_Sans_L_Regular-65"/>
      <use transform="translate(160.595232 0)scale(0.996264)" xlink:href="#Nimbus_Sans_L_Regular-40"/>
      <use transform="translate(193.770462 0)scale(0.996264)" xlink:href="#Nimbus_Sans_L_Regular-119"/>
      <use transform="translate(264.70435 0)scale(0.996264)" xlink:href="#Nimbus_Sans_L_Regular-101"/>
      <use transform="translate(320.096027 0)scale(0.996264)" xlink:href="#Nimbus_Sans_L_Regular-97"/>
      <use transform="translate(375.487704 0)scale(0.996264)" xlink:href="#Nimbus_Sans_L_Regular-107"/>
      <use transform="translate(425.300904 0)scale(0.996264)" xlink:href="#Nimbus_Sans_L_Regular-41"/>
      <use transform="translate(458.476134 0)scale(0.996264)" xlink:href="#Nimbus_Sans_L_Regular-44"/>
      <use transform="translate(513.866473 0)scale(0.996264)" xlink:href="#Nimbus_Sans_L_Regular-84"/>
      <use transform="translate(574.738104 0)scale(0.996264)" xlink:href="#Nimbus_Sans_L_Regular-76"/>
     </g>
    </g>
    <g id="line2d_31">
     <path d="M 471.999324 380.462308 
L 515.999324 380.462308 
" style="fill:none;stroke:#0d153a;stroke-linecap:square;stroke-width:2;"/>
    </g>
    <g id="line2d_32"/>
    <g id="text_21">
     <!-- BA (strong), TL -->
     <defs>
      <path d="M 43.796875 37.921875 
C 43.703125 48.203125 36.90625 54 24.796875 54 
C 12.59375 54 4.703125 47.71875 4.703125 38.0625 
C 4.703125 29.890625 8.90625 26.015625 21.296875 23.03125 
L 29.09375 21.140625 
C 34.90625 19.734375 37.203125 17.65625 37.203125 13.875 
C 37.203125 9 32.296875 5.703125 25 5.703125 
C 20.5 5.703125 16.703125 7 14.59375 9.1875 
C 13.296875 10.6875 12.703125 12.171875 12.203125 15.84375 
L 3.40625 15.84375 
C 3.796875 3.765625 10.59375 -2 24.296875 -2 
C 37.5 -2 45.90625 4.453125 45.90625 14.515625 
C 45.90625 22.28125 41.5 26.578125 31.09375 29.0625 
L 23.09375 30.953125 
C 16.296875 32.53125 13.40625 34.734375 13.40625 38.40625 
C 13.40625 43.1875 17.703125 46.28125 24.5 46.28125 
C 31.203125 46.28125 34.796875 43.390625 35 37.921875 
z
" id="Nimbus_Sans_L_Regular-115"/>
      <path d="M 25.40625 52.8125 
L 16.796875 52.8125 
L 16.796875 67 
L 8.5 67 
L 8.5 52.8125 
L 1.40625 52.8125 
L 1.40625 46 
L 8.5 46 
L 8.5 6.3125 
C 8.5 1 12.09375 -2 18.59375 -2 
C 20.59375 -2 22.59375 -1.8125 25.40625 -1.296875 
L 25.40625 5.71875 
C 24.296875 5.40625 23 5.3125 21.40625 5.3125 
C 17.796875 5.3125 16.796875 6.3125 16.796875 10.015625 
L 16.796875 46 
L 25.40625 46 
z
" id="Nimbus_Sans_L_Regular-116"/>
      <path d="M 6.90625 52.484375 
L 6.90625 0 
L 15.296875 0 
L 15.296875 27.203125 
C 15.296875 34.703125 17.203125 39.609375 21.203125 42.5 
C 23.796875 44.40625 26.296875 45 32.09375 45 
L 32.09375 53.625 
C 30.703125 53.8125 30 53.8125 28.90625 53.8125 
C 23.5 53.8125 19.40625 50.625 14.59375 42.90625 
L 14.59375 52.484375 
z
" id="Nimbus_Sans_L_Regular-114"/>
      <path d="M 27.203125 54 
C 12.5 54 3.59375 43.53125 3.59375 25.984375 
C 3.59375 8.453125 12.40625 -2 27.296875 -2 
C 42 -2 51 8.453125 51 25.59375 
C 51 43.625 42.296875 54 27.203125 54 
z
M 27.296875 46.28125 
C 36.703125 46.28125 42.296875 38.625 42.296875 25.703125 
C 42.296875 13.453125 36.5 5.703125 27.296875 5.703125 
C 18 5.703125 12.296875 13.359375 12.296875 25.984375 
C 12.296875 38.53125 18 46.28125 27.296875 46.28125 
z
" id="Nimbus_Sans_L_Regular-111"/>
      <path d="M 7 52.484375 
L 7 0 
L 15.40625 0 
L 15.40625 28.953125 
C 15.40625 39.671875 21 46.6875 29.59375 46.6875 
C 36.203125 46.6875 40.40625 42.671875 40.40625 36.359375 
L 40.40625 0 
L 48.703125 0 
L 48.703125 39.671875 
C 48.703125 48.390625 42.203125 54 32.09375 54 
C 24.296875 54 19.296875 50.984375 14.703125 43.6875 
L 14.703125 52.484375 
z
" id="Nimbus_Sans_L_Regular-110"/>
      <path d="M 41.203125 52.203125 
L 41.203125 44.59375 
C 37 50.8125 31.90625 53.71875 25.203125 53.71875 
C 11.90625 53.71875 2.90625 42.0625 2.90625 25 
C 2.90625 16.375 5.203125 9.34375 9.5 4.3125 
C 13.40625 -0.109375 19 -2.703125 24.5 -2.703125 
C 31.09375 -2.703125 35.703125 0.09375 40.40625 6.703125 
L 40.40625 4.03125 
C 40.40625 -3 39.5 -7.265625 37.40625 -10.140625 
C 35.203125 -13.1875 30.90625 -14.984375 25.796875 -14.984375 
C 22 -14.984375 18.59375 -14 16.296875 -12.234375 
C 14.40625 -10.75 13.59375 -9.375 13.09375 -6.34375 
L 4.59375 -6.34375 
C 5.5 -16.140625 13.203125 -22 25.5 -22 
C 33.296875 -22 40 -19.484375 43.40625 -15.296875 
C 47.40625 -10.484375 48.90625 -3.890625 48.90625 8.40625 
L 48.90625 52.203125 
z
M 26.09375 46 
C 35.09375 46 40.40625 38.359375 40.40625 25.203125 
C 40.40625 12.625 35 5 26.203125 5 
C 17.09375 5 11.59375 12.75 11.59375 25.5 
C 11.59375 38.15625 17.203125 46 26.09375 46 
z
" id="Nimbus_Sans_L_Regular-103"/>
     </defs>
     <g transform="translate(533.599324 388.162308)scale(0.22 -0.22)">
      <use transform="scale(0.996264)" xlink:href="#Nimbus_Sans_L_Regular-66"/>
      <use transform="translate(66.450031 0)scale(0.996264)" xlink:href="#Nimbus_Sans_L_Regular-65"/>
      <use transform="translate(160.595232 0)scale(0.996264)" xlink:href="#Nimbus_Sans_L_Regular-40"/>
      <use transform="translate(193.770462 0)scale(0.996264)" xlink:href="#Nimbus_Sans_L_Regular-115"/>
      <use transform="translate(243.583662 0)scale(0.996264)" xlink:href="#Nimbus_Sans_L_Regular-116"/>
      <use transform="translate(271.278832 0)scale(0.996264)" xlink:href="#Nimbus_Sans_L_Regular-114"/>
      <use transform="translate(304.454061 0)scale(0.996264)" xlink:href="#Nimbus_Sans_L_Regular-111"/>
      <use transform="translate(359.845738 0)scale(0.996264)" xlink:href="#Nimbus_Sans_L_Regular-110"/>
      <use transform="translate(415.237415 0)scale(0.996264)" xlink:href="#Nimbus_Sans_L_Regular-103"/>
      <use transform="translate(470.629092 0)scale(0.996264)" xlink:href="#Nimbus_Sans_L_Regular-41"/>
      <use transform="translate(503.804322 0)scale(0.996264)" xlink:href="#Nimbus_Sans_L_Regular-44"/>
      <use transform="translate(559.194661 0)scale(0.996264)" xlink:href="#Nimbus_Sans_L_Regular-84"/>
      <use transform="translate(620.066292 0)scale(0.996264)" xlink:href="#Nimbus_Sans_L_Regular-76"/>
     </g>
    </g>
    <g id="LineCollection_3">
     <path d="M 493.999324 422.746974 
L 493.999324 400.746974 
" style="fill:none;stroke:#187795;stroke-width:3;"/>
    </g>
    <g id="line2d_33">
     <g>
      <use style="fill:#187795;stroke:#187795;stroke-width:3;" x="493.999324" xlink:href="#m0adfb94657" y="422.746974"/>
     </g>
    </g>
    <g id="line2d_34">
     <g>
      <use style="fill:#187795;stroke:#187795;stroke-width:3;" x="493.999324" xlink:href="#m0adfb94657" y="400.746974"/>
     </g>
    </g>
    <g id="line2d_35"/>
    <g id="line2d_36">
     <g>
      <use style="fill:#187795;stroke:#187795;stroke-linejoin:miter;stroke-width:3;" x="493.999324" xlink:href="#me3ac7af734" y="411.746974"/>
     </g>
    </g>
    <g id="text_22">
     <!-- CL -->
     <defs>
      <path d="M 66.203125 50.453125 
C 63.296875 66.4375 54.09375 74.21875 38.09375 74.21875 
C 28.296875 74.21875 20.40625 71.125 15 65.125 
C 8.40625 57.953125 4.796875 47.578125 4.796875 35.796875 
C 4.796875 23.828125 8.5 13.5625 15.40625 6.46875 
C 21 0.6875 28.203125 -2 37.703125 -2 
C 55.5 -2 65.5 7.578125 67.703125 26.828125 
L 58.09375 26.828125 
C 57.296875 21.859375 56.296875 18.46875 54.796875 15.578125 
C 51.796875 9.59375 45.59375 6.203125 37.796875 6.203125 
C 23.296875 6.203125 14.09375 17.765625 14.09375 35.90625 
C 14.09375 54.546875 22.90625 66 37 66 
C 42.90625 66 48.40625 64.21875 51.40625 61.40625 
C 54.09375 58.921875 55.59375 55.828125 56.703125 50.453125 
z
" id="Nimbus_Sans_L_Regular-67"/>
     </defs>
     <g transform="translate(533.599324 419.446974)scale(0.22 -0.22)">
      <use transform="scale(0.996264)" xlink:href="#Nimbus_Sans_L_Regular-67"/>
      <use transform="translate(71.929985 0)scale(0.996264)" xlink:href="#Nimbus_Sans_L_Regular-76"/>
     </g>
    </g>
    <g id="LineCollection_4">
     <path d="M 493.999324 454.031639 
L 493.999324 432.031639 
" style="fill:none;stroke:#a42604;stroke-width:3;"/>
    </g>
    <g id="line2d_37">
     <g>
      <use style="fill:#a42604;stroke:#a42604;stroke-width:3;" x="493.999324" xlink:href="#m6555ec64f2" y="454.031639"/>
     </g>
    </g>
    <g id="line2d_38">
     <g>
      <use style="fill:#a42604;stroke:#a42604;stroke-width:3;" x="493.999324" xlink:href="#m6555ec64f2" y="432.031639"/>
     </g>
    </g>
    <g id="line2d_39"/>
    <g id="line2d_40">
     <g>
      <use style="fill:#a42604;stroke:#a42604;stroke-linejoin:miter;stroke-width:3;" x="493.999324" xlink:href="#m19221d77c9" y="443.031639"/>
     </g>
    </g>
    <g id="text_23">
     <!-- HMC -->
     <defs>
      <path d="M 55.09375 33 
L 55.09375 -0.03125 
L 64.40625 -0.03125 
L 64.40625 73 
L 55.09375 73 
L 55.09375 41.21875 
L 17.59375 41.21875 
L 17.59375 73 
L 8.296875 73 
L 8.296875 -0.03125 
L 17.703125 -0.03125 
L 17.703125 33 
z
" id="Nimbus_Sans_L_Regular-72"/>
      <path d="M 46.796875 -0.03125 
L 67.296875 61.171875 
L 67.296875 -0.03125 
L 76.09375 -0.03125 
L 76.09375 73 
L 63.203125 73 
L 42 9.390625 
L 20.40625 73 
L 7.5 73 
L 7.5 -0.03125 
L 16.296875 -0.03125 
L 16.296875 61.171875 
L 37 -0.03125 
z
" id="Nimbus_Sans_L_Regular-77"/>
     </defs>
     <g transform="translate(533.599324 450.731639)scale(0.22 -0.22)">
      <use transform="scale(0.996264)" xlink:href="#Nimbus_Sans_L_Regular-72"/>
      <use transform="translate(71.929985 0)scale(0.996264)" xlink:href="#Nimbus_Sans_L_Regular-77"/>
      <use transform="translate(154.918415 0)scale(0.996264)" xlink:href="#Nimbus_Sans_L_Regular-67"/>
     </g>
    </g>
   </g>
  </g>
  <g id="text_24">
   <!-- 5$\uparrow$ + 5$\downarrow$ -->
   <defs>
    <path d="M 47.59375 71 
L 11 71 
L 5.703125 32.59375 
L 13.796875 32.59375 
C 17.90625 37.484375 21.296875 39.1875 26.796875 39.1875 
C 36.296875 39.1875 42.296875 32.6875 42.296875 22.203125 
C 42.296875 12 36.40625 5.8125 26.796875 5.8125 
C 19.09375 5.8125 14.40625 9.703125 12.296875 17.703125 
L 3.5 17.703125 
C 4.703125 11.90625 5.703125 9.09375 7.796875 6.484375 
C 11.796875 1.09375 19 -2 27 -2 
C 41.296875 -2 51.296875 8.390625 51.296875 23.390625 
C 51.296875 37.40625 42 47 28.40625 47 
C 23.40625 47 19.40625 45.703125 15.296875 42.6875 
L 18.09375 62.296875 
L 47.59375 62.296875 
z
" id="Nimbus_Sans_L_Regular-53"/>
    <path d="M 27 55.34375 
C 29.40625 51.546875 32.203125 48.75 34.703125 46.828125 
C 40.796875 42.234375 46.90625 41.234375 47.09375 41.234375 
C 48.296875 41.234375 48.296875 42.328125 48.296875 43.125 
C 48.296875 44.734375 48.203125 44.828125 46 45.53125 
C 39.203125 47.421875 35.296875 51.03125 33 53.53125 
C 27.90625 59.046875 26.703125 65.046875 26.09375 68.25 
C 26 68.75 25.59375 69.140625 25 69.140625 
C 24.09375 69.140625 24 68.546875 23.796875 67.34375 
C 21.5 56.25 14.40625 48.4375 3.40625 45.34375 
C 1.90625 44.84375 1.703125 44.84375 1.703125 43.140625 
C 1.703125 42.34375 1.703125 41.234375 2.90625 41.234375 
C 3.203125 41.234375 9.09375 42.328125 14.796875 46.421875 
C 18.09375 48.9375 20.796875 51.9375 23 55.34375 
L 23 -15.953125 
C 23 -17.75 23 -19.5625 25 -19.5625 
C 27 -19.5625 27 -17.75 27 -15.953125 
z
" id="CMSY10-34"/>
    <path d="M 53.40625 27 
L 32.703125 27 
L 32.703125 47.484375 
L 25.703125 47.484375 
L 25.703125 27 
L 5 27 
L 5 19.984375 
L 25.703125 19.984375 
L 25.703125 -1 
L 32.703125 -1 
L 32.703125 19.984375 
L 53.40625 19.984375 
z
" id="Nimbus_Sans_L_Regular-43"/>
    <path d="M 27 65.953125 
C 27 67.75 27 69.5625 25 69.5625 
C 23 69.5625 23 67.75 23 65.953125 
L 23 -5.34375 
C 20.59375 -1.546875 17.796875 1.25 15.296875 3.171875 
C 9.203125 7.765625 3.09375 8.765625 2.90625 8.765625 
C 1.703125 8.765625 1.703125 7.671875 1.703125 6.875 
C 1.703125 5.265625 1.796875 5.171875 4 4.46875 
C 10.796875 2.578125 14.703125 -1.03125 17 -3.53125 
C 22.09375 -9.046875 23.296875 -15.046875 23.90625 -18.140625 
C 24 -18.640625 24.296875 -19.140625 25 -19.140625 
C 25.90625 -19.140625 26 -18.4375 26.203125 -17.546875 
C 28.40625 -6.25 35.59375 1.5625 46.59375 4.65625 
C 48.09375 5.15625 48.296875 5.15625 48.296875 6.859375 
C 48.296875 7.65625 48.296875 8.765625 47.109375 8.765625 
C 46.796875 8.765625 40.90625 7.671875 35.203125 3.578125 
C 31.90625 1.0625 29.203125 -1.9375 27 -5.34375 
z
" id="CMSY10-35"/>
   </defs>
   <g transform="translate(126 64.8)scale(0.28 -0.28)">
    <use transform="scale(0.996264)" xlink:href="#Nimbus_Sans_L_Regular-53"/>
    <use transform="translate(55.391677 0)scale(0.996264)" xlink:href="#CMSY10-34"/>
    <use transform="translate(132.900229 0)scale(0.996264)" xlink:href="#Nimbus_Sans_L_Regular-43"/>
    <use transform="translate(218.776892 0)scale(0.996264)" xlink:href="#Nimbus_Sans_L_Regular-53"/>
    <use transform="translate(274.168569 0)scale(0.996264)" xlink:href="#CMSY10-35"/>
   </g>
  </g>
  <g id="text_25">
   <!-- $\bar m = 0$ -->
   <defs>
    <path d="M 39.90625 55 
L 39.90625 57.28125 
L 5.90625 57.28125 
L 5.90625 55 
z
" id="CMR17-22"/>
    <path d="M 20.59375 29.234375 
C 20.796875 29.84375 23.296875 34.828125 27 38.015625 
C 29.59375 40.40625 33 42.015625 36.90625 42.015625 
C 40.90625 42.015625 42.296875 39.015625 42.296875 35.03125 
C 42.296875 34.421875 42.296875 32.4375 41.09375 27.734375 
L 38.59375 17.46875 
C 37.796875 14.46875 35.90625 7.078125 35.703125 5.984375 
C 35.296875 4.484375 34.703125 1.890625 34.703125 1.5 
C 34.703125 0.09375 35.796875 -1 37.296875 -1 
C 40.296875 -1 40.796875 1.296875 41.703125 4.890625 
L 47.703125 28.734375 
C 47.90625 29.53125 53.09375 42.015625 64.09375 42.015625 
C 68.09375 42.015625 69.5 39.015625 69.5 35.03125 
C 69.5 29.4375 65.59375 18.5625 63.40625 12.578125 
C 62.5 10.171875 62 8.875 62 7.078125 
C 62 2.59375 65.09375 -1 69.90625 -1 
C 79.203125 -1 82.703125 13.671875 82.703125 14.265625 
C 82.703125 14.765625 82.296875 15.171875 81.703125 15.171875 
C 80.796875 15.171875 80.703125 14.875 80.203125 13.171875 
C 77.90625 5.1875 74.203125 1 70.203125 1 
C 69.203125 1 67.59375 1 67.59375 4.203125 
C 67.59375 6.8125 68.796875 10 69.203125 11.09375 
C 71 15.90625 75.5 27.703125 75.5 33.515625 
C 75.5 39.5 72 44 64.40625 44 
C 57.703125 44 52.296875 40.21875 48.296875 34.328125 
C 48 39.71875 44.703125 44 37.203125 44 
C 28.296875 44 23.59375 37.734375 21.796875 35.234375 
C 21.5 40.90625 17.40625 44 13 44 
C 10.09375 44 7.796875 42.609375 5.90625 38.8125 
C 4.09375 35.21875 2.703125 29.140625 2.703125 28.734375 
C 2.703125 28.34375 3.09375 27.84375 3.796875 27.84375 
C 4.59375 27.84375 4.703125 27.9375 5.296875 30.234375 
C 6.796875 36.125 8.703125 42.015625 12.703125 42.015625 
C 15 42.015625 15.796875 40.40625 15.796875 37.421875 
C 15.796875 35.21875 14.796875 31.328125 14.09375 28.234375 
L 11.296875 17.46875 
C 10.90625 15.5625 9.796875 11.078125 9.296875 9.28125 
C 8.59375 6.6875 7.5 2 7.5 1.5 
C 7.5 0.09375 8.59375 -1 10.09375 -1 
C 11.296875 -1 12.703125 -0.40625 13.5 1.09375 
C 13.703125 1.59375 14.59375 5.09375 15.09375 7.078125 
L 17.296875 16.0625 
z
" id="CMMI12-109"/>
    <path d="M 64.296875 31.515625 
C 65.796875 31.515625 67.296875 31.515625 67.296875 33.203125 
C 67.296875 35 65.59375 35 63.90625 35 
L 8 35 
C 6.296875 35 4.59375 35 4.59375 33.203125 
C 4.59375 31.515625 6.09375 31.515625 7.59375 31.515625 
z
M 63.90625 14 
C 65.59375 14 67.296875 14 67.296875 15.796875 
C 67.296875 17.484375 65.796875 17.484375 64.296875 17.484375 
L 7.59375 17.484375 
C 6.09375 17.484375 4.59375 17.484375 4.59375 15.796875 
C 4.59375 14 6.296875 14 8 14 
z
" id="CMR17-61"/>
   </defs>
   <g transform="translate(126 108)scale(0.28 -0.28)">
    <use transform="translate(19.818381 0.006461)scale(0.996264)" xlink:href="#CMR17-22"/>
    <use transform="scale(0.996264)" xlink:href="#CMMI12-109"/>
    <use transform="translate(113.001233 0)scale(0.996264)" xlink:href="#CMR17-61"/>
    <use transform="translate(212.39003 0)scale(0.996264)" xlink:href="#CMR17-48"/>
   </g>
  </g>
 </g>
 <defs>
  <clipPath id="p865358379b">
   <rect height="453.6" width="615.6" x="86.4" y="21.6"/>
  </clipPath>
 </defs>
</svg>
