<?xml version="1.0" encoding="utf-8" standalone="no"?>
<!DOCTYPE svg PUBLIC "-//W3C//DTD SVG 1.1//EN"
  "http://www.w3.org/Graphics/SVG/1.1/DTD/svg11.dtd">
<!-- Created with matplotlib (http://matplotlib.org/) -->
<svg height="540pt" version="1.1" viewBox="0 0 720 540" width="720pt" xmlns="http://www.w3.org/2000/svg" xmlns:xlink="http://www.w3.org/1999/xlink">
 <defs>
  <style type="text/css">
*{stroke-linecap:butt;stroke-linejoin:round;}
  </style>
 </defs>
 <g id="figure_1">
  <g id="patch_1">
   <path d="M 0 540 
L 720 540 
L 720 0 
L 0 0 
z
" style="fill:none;opacity:0;"/>
  </g>
  <g id="axes_1">
   <g id="patch_2">
    <path d="M 92.53783 434.356333 
L 694.9 434.356333 
L 694.9 25.1 
L 92.53783 25.1 
z
" style="fill:#ffffff;"/>
   </g>
   <g id="patch_3">
    <path clip-path="url(#p6610348871)" d="M 119.917929 27495.120849 
L 130.869968 27495.120849 
L 130.869968 314.546112 
L 119.917929 314.546112 
z
" style="fill:#a42604;opacity:0.3;"/>
   </g>
   <g id="patch_4">
    <path clip-path="url(#p6610348871)" d="M 130.869968 27495.120849 
L 141.822008 27495.120849 
L 141.822008 27495.120849 
L 130.869968 27495.120849 
z
" style="fill:#a42604;opacity:0.3;"/>
   </g>
   <g id="patch_5">
    <path clip-path="url(#p6610348871)" d="M 141.822008 27495.120849 
L 152.774047 27495.120849 
L 152.774047 27495.120849 
L 141.822008 27495.120849 
z
" style="fill:#a42604;opacity:0.3;"/>
   </g>
   <g id="patch_6">
    <path clip-path="url(#p6610348871)" d="M 152.774047 27495.120849 
L 163.726087 27495.120849 
L 163.726087 27495.120849 
L 152.774047 27495.120849 
z
" style="fill:#a42604;opacity:0.3;"/>
   </g>
   <g id="patch_7">
    <path clip-path="url(#p6610348871)" d="M 163.726087 27495.120849 
L 174.678126 27495.120849 
L 174.678126 314.546112 
L 163.726087 314.546112 
z
" style="fill:#a42604;opacity:0.3;"/>
   </g>
   <g id="patch_8">
    <path clip-path="url(#p6610348871)" d="M 174.678126 27495.120849 
L 185.630166 27495.120849 
L 185.630166 27495.120849 
L 174.678126 27495.120849 
z
" style="fill:#a42604;opacity:0.3;"/>
   </g>
   <g id="patch_9">
    <path clip-path="url(#p6610348871)" d="M 185.630166 27495.120849 
L 196.582205 27495.120849 
L 196.582205 27495.120849 
L 185.630166 27495.120849 
z
" style="fill:#a42604;opacity:0.3;"/>
   </g>
   <g id="patch_10">
    <path clip-path="url(#p6610348871)" d="M 196.582205 27495.120849 
L 207.534244 27495.120849 
L 207.534244 314.546112 
L 196.582205 314.546112 
z
" style="fill:#a42604;opacity:0.3;"/>
   </g>
   <g id="patch_11">
    <path clip-path="url(#p6610348871)" d="M 207.534244 27495.120849 
L 218.486284 27495.120849 
L 218.486284 314.546112 
L 207.534244 314.546112 
z
" style="fill:#a42604;opacity:0.3;"/>
   </g>
   <g id="patch_12">
    <path clip-path="url(#p6610348871)" d="M 218.486284 27495.120849 
L 229.438323 27495.120849 
L 229.438323 314.546112 
L 218.486284 314.546112 
z
" style="fill:#a42604;opacity:0.3;"/>
   </g>
   <g id="patch_13">
    <path clip-path="url(#p6610348871)" d="M 229.438323 27495.120849 
L 240.390363 27495.120849 
L 240.390363 286.974756 
L 229.438323 286.974756 
z
" style="fill:#a42604;opacity:0.3;"/>
   </g>
   <g id="patch_14">
    <path clip-path="url(#p6610348871)" d="M 240.390363 27495.120849 
L 251.342402 27495.120849 
L 251.342402 314.546112 
L 240.390363 314.546112 
z
" style="fill:#a42604;opacity:0.3;"/>
   </g>
   <g id="patch_15">
    <path clip-path="url(#p6610348871)" d="M 251.342402 27495.120849 
L 262.294442 27495.120849 
L 262.294442 27495.120849 
L 251.342402 27495.120849 
z
" style="fill:#a42604;opacity:0.3;"/>
   </g>
   <g id="patch_16">
    <path clip-path="url(#p6610348871)" d="M 262.294442 27495.120849 
L 273.246481 27495.120849 
L 273.246481 314.546112 
L 262.294442 314.546112 
z
" style="fill:#a42604;opacity:0.3;"/>
   </g>
   <g id="patch_17">
    <path clip-path="url(#p6610348871)" d="M 273.246481 27495.120849 
L 284.198521 27495.120849 
L 284.198521 27495.120849 
L 273.246481 27495.120849 
z
" style="fill:#a42604;opacity:0.3;"/>
   </g>
   <g id="patch_18">
    <path clip-path="url(#p6610348871)" d="M 284.198521 27495.120849 
L 295.15056 27495.120849 
L 295.15056 286.974756 
L 284.198521 286.974756 
z
" style="fill:#a42604;opacity:0.3;"/>
   </g>
   <g id="patch_19">
    <path clip-path="url(#p6610348871)" d="M 295.15056 27495.120849 
L 306.102599 27495.120849 
L 306.102599 270.846547 
L 295.15056 270.846547 
z
" style="fill:#a42604;opacity:0.3;"/>
   </g>
   <g id="patch_20">
    <path clip-path="url(#p6610348871)" d="M 306.102599 27495.120849 
L 317.054639 27495.120849 
L 317.054639 231.832045 
L 306.102599 231.832045 
z
" style="fill:#a42604;opacity:0.3;"/>
   </g>
   <g id="patch_21">
    <path clip-path="url(#p6610348871)" d="M 317.054639 27495.120849 
L 328.006678 27495.120849 
L 328.006678 243.275192 
L 317.054639 243.275192 
z
" style="fill:#a42604;opacity:0.3;"/>
   </g>
   <g id="patch_22">
    <path clip-path="url(#p6610348871)" d="M 328.006678 27495.120849 
L 338.958718 27495.120849 
L 338.958718 209.572176 
L 328.006678 209.572176 
z
" style="fill:#a42604;opacity:0.3;"/>
   </g>
   <g id="patch_23">
    <path clip-path="url(#p6610348871)" d="M 338.958718 27495.120849 
L 349.910757 27495.120849 
L 349.910757 180.60499 
L 338.958718 180.60499 
z
" style="fill:#a42604;opacity:0.3;"/>
   </g>
   <g id="patch_24">
    <path clip-path="url(#p6610348871)" d="M 349.910757 27495.120849 
L 360.862797 27495.120849 
L 360.862797 167.81334 
L 349.910757 167.81334 
z
" style="fill:#a42604;opacity:0.3;"/>
   </g>
   <g id="patch_25">
    <path clip-path="url(#p6610348871)" d="M 360.862797 27495.120849 
L 371.814836 27495.120849 
L 371.814836 107.765194 
L 360.862797 107.765194 
z
" style="fill:#a42604;opacity:0.3;"/>
   </g>
   <g id="patch_26">
    <path clip-path="url(#p6610348871)" d="M 371.814836 27495.120849 
L 382.766876 27495.120849 
L 382.766876 73.254179 
L 371.814836 73.254179 
z
" style="fill:#a42604;opacity:0.3;"/>
   </g>
   <g id="patch_27">
    <path clip-path="url(#p6610348871)" d="M 382.766876 27495.120849 
L 393.718915 27495.120849 
L 393.718915 49.914793 
L 382.766876 49.914793 
z
" style="fill:#a42604;opacity:0.3;"/>
   </g>
   <g id="patch_28">
    <path clip-path="url(#p6610348871)" d="M 393.718915 27495.120849 
L 404.670955 27495.120849 
L 404.670955 43.702561 
L 393.718915 43.702561 
z
" style="fill:#a42604;opacity:0.3;"/>
   </g>
   <g id="patch_29">
    <path clip-path="url(#p6610348871)" d="M 404.670955 27495.120849 
L 415.622994 27495.120849 
L 415.622994 50.120626 
L 404.670955 50.120626 
z
" style="fill:#a42604;opacity:0.3;"/>
   </g>
   <g id="patch_30">
    <path clip-path="url(#p6610348871)" d="M 415.622994 27495.120849 
L 426.575033 27495.120849 
L 426.575033 72.432121 
L 415.622994 72.432121 
z
" style="fill:#a42604;opacity:0.3;"/>
   </g>
   <g id="patch_31">
    <path clip-path="url(#p6610348871)" d="M 426.575033 27495.120849 
L 437.527073 27495.120849 
L 437.527073 103.794635 
L 426.575033 103.794635 
z
" style="fill:#a42604;opacity:0.3;"/>
   </g>
   <g id="patch_32">
    <path clip-path="url(#p6610348871)" d="M 437.527073 27495.120849 
L 448.479112 27495.120849 
L 448.479112 136.450826 
L 437.527073 136.450826 
z
" style="fill:#a42604;opacity:0.3;"/>
   </g>
   <g id="patch_33">
    <path clip-path="url(#p6610348871)" d="M 448.479112 27495.120849 
L 459.431152 27495.120849 
L 459.431152 167.81334 
L 448.479112 167.81334 
z
" style="fill:#a42604;opacity:0.3;"/>
   </g>
   <g id="patch_34">
    <path clip-path="url(#p6610348871)" d="M 459.431152 27495.120849 
L 470.383191 27495.120849 
L 470.383191 195.384696 
L 459.431152 195.384696 
z
" style="fill:#a42604;opacity:0.3;"/>
   </g>
   <g id="patch_35">
    <path clip-path="url(#p6610348871)" d="M 470.383191 27495.120849 
L 481.335231 27495.120849 
L 481.335231 243.275192 
L 470.383191 243.275192 
z
" style="fill:#a42604;opacity:0.3;"/>
   </g>
   <g id="patch_36">
    <path clip-path="url(#p6610348871)" d="M 481.335231 27495.120849 
L 492.28727 27495.120849 
L 492.28727 237.143531 
L 481.335231 237.143531 
z
" style="fill:#a42604;opacity:0.3;"/>
   </g>
   <g id="patch_37">
    <path clip-path="url(#p6610348871)" d="M 492.28727 27495.120849 
L 503.23931 27495.120849 
L 503.23931 314.546112 
L 492.28727 314.546112 
z
" style="fill:#a42604;opacity:0.3;"/>
   </g>
   <g id="patch_38">
    <path clip-path="url(#p6610348871)" d="M 503.23931 27495.120849 
L 514.191349 27495.120849 
L 514.191349 237.143531 
L 503.23931 237.143531 
z
" style="fill:#a42604;opacity:0.3;"/>
   </g>
   <g id="patch_39">
    <path clip-path="url(#p6610348871)" d="M 514.191349 27495.120849 
L 525.143389 27495.120849 
L 525.143389 286.974756 
L 514.191349 286.974756 
z
" style="fill:#a42604;opacity:0.3;"/>
   </g>
   <g id="patch_40">
    <path clip-path="url(#p6610348871)" d="M 525.143389 27495.120849 
L 536.095428 27495.120849 
L 536.095428 314.546112 
L 525.143389 314.546112 
z
" style="fill:#a42604;opacity:0.3;"/>
   </g>
   <g id="patch_41">
    <path clip-path="url(#p6610348871)" d="M 536.095428 27495.120849 
L 547.047467 27495.120849 
L 547.047467 314.546112 
L 536.095428 314.546112 
z
" style="fill:#a42604;opacity:0.3;"/>
   </g>
   <g id="patch_42">
    <path clip-path="url(#p6610348871)" d="M 547.047467 27495.120849 
L 557.999507 27495.120849 
L 557.999507 314.546112 
L 547.047467 314.546112 
z
" style="fill:#a42604;opacity:0.3;"/>
   </g>
   <g id="patch_43">
    <path clip-path="url(#p6610348871)" d="M 557.999507 27495.120849 
L 568.951546 27495.120849 
L 568.951546 27495.120849 
L 557.999507 27495.120849 
z
" style="fill:#a42604;opacity:0.3;"/>
   </g>
   <g id="patch_44">
    <path clip-path="url(#p6610348871)" d="M 568.951546 27495.120849 
L 579.903586 27495.120849 
L 579.903586 27495.120849 
L 568.951546 27495.120849 
z
" style="fill:#a42604;opacity:0.3;"/>
   </g>
   <g id="patch_45">
    <path clip-path="url(#p6610348871)" d="M 579.903586 27495.120849 
L 590.855625 27495.120849 
L 590.855625 27495.120849 
L 579.903586 27495.120849 
z
" style="fill:#a42604;opacity:0.3;"/>
   </g>
   <g id="patch_46">
    <path clip-path="url(#p6610348871)" d="M 590.855625 27495.120849 
L 601.807665 27495.120849 
L 601.807665 314.546112 
L 590.855625 314.546112 
z
" style="fill:#a42604;opacity:0.3;"/>
   </g>
   <g id="patch_47">
    <path clip-path="url(#p6610348871)" d="M 601.807665 27495.120849 
L 612.759704 27495.120849 
L 612.759704 27495.120849 
L 601.807665 27495.120849 
z
" style="fill:#a42604;opacity:0.3;"/>
   </g>
   <g id="patch_48">
    <path clip-path="url(#p6610348871)" d="M 612.759704 27495.120849 
L 623.711744 27495.120849 
L 623.711744 314.546112 
L 612.759704 314.546112 
z
" style="fill:#a42604;opacity:0.3;"/>
   </g>
   <g id="patch_49">
    <path clip-path="url(#p6610348871)" d="M 623.711744 27495.120849 
L 634.663783 27495.120849 
L 634.663783 27495.120849 
L 623.711744 27495.120849 
z
" style="fill:#a42604;opacity:0.3;"/>
   </g>
   <g id="patch_50">
    <path clip-path="url(#p6610348871)" d="M 634.663783 27495.120849 
L 645.615822 27495.120849 
L 645.615822 27495.120849 
L 634.663783 27495.120849 
z
" style="fill:#a42604;opacity:0.3;"/>
   </g>
   <g id="patch_51">
    <path clip-path="url(#p6610348871)" d="M 645.615822 27495.120849 
L 656.567862 27495.120849 
L 656.567862 27495.120849 
L 645.615822 27495.120849 
z
" style="fill:#a42604;opacity:0.3;"/>
   </g>
   <g id="patch_52">
    <path clip-path="url(#p6610348871)" d="M 656.567862 27495.120849 
L 667.519901 27495.120849 
L 667.519901 314.546112 
L 656.567862 314.546112 
z
" style="fill:#a42604;opacity:0.3;"/>
   </g>
   <g id="matplotlib.axis_1">
    <g id="xtick_1">
     <g id="line2d_1">
      <defs>
       <path d="M 0 0 
L 0 3.5 
" id="mc03c81183b" style="stroke:#000000;stroke-width:0.8;"/>
      </defs>
      <g>
       <use style="fill:none;stroke:#000000;stroke-width:0.8;" x="95.804514" xlink:href="#mc03c81183b" y="434.356333"/>
      </g>
     </g>
     <g id="text_1">
      <!-- $-10$ -->
      <defs>
       <path d="M 65.90625 23 
C 67.59375 23 69.40625 23 69.40625 25 
C 69.40625 27 67.59375 27 65.90625 27 
L 11.796875 27 
C 10.09375 27 8.296875 27 8.296875 25 
C 8.296875 23 10.09375 23 11.796875 23 
z
" id="CMSY10-0"/>
       <path d="M 26.59375 63.40625 
C 26.59375 65.5 26.5 65.5 25.09375 65.5 
C 21.203125 61.1875 15.296875 59.796875 9.703125 59.796875 
C 9.40625 59.796875 8.90625 59.796875 8.796875 59.5 
C 8.703125 59.296875 8.703125 59.09375 8.703125 57 
C 11.796875 57 17 57.59375 21 59.984375 
L 21 7.203125 
C 21 3.6875 20.796875 2.5 12.203125 2.5 
L 9.203125 2.5 
L 9.203125 0 
C 14 0 19 0 23.796875 0 
C 28.59375 0 33.59375 0 38.40625 0 
L 38.40625 2.5 
L 35.40625 2.5 
C 26.796875 2.5 26.59375 3.59375 26.59375 7.15625 
z
" id="CMR17-49"/>
       <path d="M 42 31.640625 
C 42 37.75 41.90625 48.125 37.703125 56.109375 
C 34 63.109375 28.09375 65.59375 22.90625 65.59375 
C 18.09375 65.59375 12 63.40625 8.203125 56.203125 
C 4.203125 48.71875 3.796875 39.4375 3.796875 31.640625 
C 3.796875 25.953125 3.90625 17.28125 7 9.671875 
C 11.296875 -0.609375 19 -2 22.90625 -2 
C 27.5 -2 34.5 -0.109375 38.59375 9.375 
C 41.59375 16.28125 42 24.359375 42 31.640625 
z
M 22.90625 -0.40625 
C 16.5 -0.40625 12.703125 5.078125 11.296875 12.6875 
C 10.203125 18.5625 10.203125 27.15625 10.203125 32.75 
C 10.203125 40.4375 10.203125 46.828125 11.5 52.921875 
C 13.40625 61.390625 19 64 22.90625 64 
C 27 64 32.296875 61.296875 34.203125 53.125 
C 35.5 47.4375 35.59375 40.734375 35.59375 32.75 
C 35.59375 26.25 35.59375 18.265625 34.40625 12.375 
C 32.296875 1.484375 26.40625 -0.40625 22.90625 -0.40625 
z
" id="CMR17-48"/>
      </defs>
      <g transform="translate(65.408201 466.910286)scale(0.36 -0.36)">
       <use transform="scale(0.996264)" xlink:href="#CMSY10-0"/>
       <use transform="translate(77.487468 0)scale(0.996264)" xlink:href="#CMR17-49"/>
       <use transform="translate(123.177945 0)scale(0.996264)" xlink:href="#CMR17-48"/>
      </g>
     </g>
    </g>
    <g id="xtick_2">
     <g id="line2d_2">
      <g>
       <use style="fill:none;stroke:#000000;stroke-width:0.8;" x="222.575993" xlink:href="#mc03c81183b" y="434.356333"/>
      </g>
     </g>
     <g id="text_2">
      <!-- $-5$ -->
      <defs>
       <path d="M 11.40625 57.6875 
C 12.40625 57.28125 16.5 56 20.703125 56 
C 30 56 35.09375 61.109375 38 64.0625 
C 38 64.953125 38 65.5 37.40625 65.5 
C 37.296875 65.5 37.09375 65.5 36.296875 65.046875 
C 32.796875 63.40625 28.703125 62.078125 23.703125 62.078125 
C 20.703125 62.078125 16.203125 62.484375 11.296875 64.671875 
C 10.203125 65.171875 10 65.171875 9.90625 65.171875 
C 9.40625 65.171875 9.296875 65.0625 9.296875 63.078125 
L 9.296875 34.421875 
C 9.296875 32.640625 9.296875 32.140625 10.296875 32.140625 
C 10.796875 32.140625 11 32.34375 11.5 33.03125 
C 14.703125 37.515625 19.09375 39.40625 24.09375 39.40625 
C 27.59375 39.40625 35.09375 37.21875 35.09375 20.140625 
C 35.09375 16.953125 35.09375 11.171875 32.09375 6.578125 
C 29.59375 2.484375 25.703125 0.390625 21.40625 0.390625 
C 14.796875 0.390625 8.09375 5 6.296875 12.71875 
C 6.703125 12.609375 7.5 12.421875 7.90625 12.421875 
C 9.203125 12.421875 11.703125 13.125 11.703125 16.21875 
C 11.703125 18.90625 9.796875 20 7.90625 20 
C 5.59375 20 4.09375 18.59375 4.09375 15.796875 
C 4.09375 7.09375 11 -2 21.59375 -2 
C 31.90625 -2 41.703125 6.875 41.703125 19.75 
C 41.703125 31.71875 33.90625 41 24.203125 41 
C 19.09375 41 14.796875 39.109375 11.40625 35.53125 
z
" id="CMR17-53"/>
      </defs>
      <g transform="translate(200.403965 466.910286)scale(0.36 -0.36)">
       <use transform="scale(0.996264)" xlink:href="#CMSY10-0"/>
       <use transform="translate(77.487468 0)scale(0.996264)" xlink:href="#CMR17-53"/>
      </g>
     </g>
    </g>
    <g id="xtick_3">
     <g id="line2d_3">
      <g>
       <use style="fill:none;stroke:#000000;stroke-width:0.8;" x="349.347472" xlink:href="#mc03c81183b" y="434.356333"/>
      </g>
     </g>
     <g id="text_3">
      <!-- $0$ -->
      <g transform="translate(341.123186 466.910286)scale(0.36 -0.36)">
       <use transform="scale(0.996264)" xlink:href="#CMR17-48"/>
      </g>
     </g>
    </g>
    <g id="xtick_4">
     <g id="line2d_4">
      <g>
       <use style="fill:none;stroke:#000000;stroke-width:0.8;" x="476.118951" xlink:href="#mc03c81183b" y="434.356333"/>
      </g>
     </g>
     <g id="text_4">
      <!-- $5$ -->
      <g transform="translate(467.894665 466.910286)scale(0.36 -0.36)">
       <use transform="scale(0.996264)" xlink:href="#CMR17-53"/>
      </g>
     </g>
    </g>
    <g id="xtick_5">
     <g id="line2d_5">
      <g>
       <use style="fill:none;stroke:#000000;stroke-width:0.8;" x="602.89043" xlink:href="#mc03c81183b" y="434.356333"/>
      </g>
     </g>
     <g id="text_5">
      <!-- $10$ -->
      <g transform="translate(586.441858 466.910286)scale(0.36 -0.36)">
       <use transform="scale(0.996264)" xlink:href="#CMR17-49"/>
       <use transform="translate(45.690477 0)scale(0.996264)" xlink:href="#CMR17-48"/>
      </g>
     </g>
    </g>
    <g id="text_6">
     <!-- $E/E_{FG}$ -->
     <defs>
      <path d="M 69.5 23.265625 
C 69.59375 23.5625 69.90625 24.28125 69.90625 24.671875 
C 69.90625 25.171875 69.5 25.671875 68.90625 25.671875 
C 68.5 25.671875 68.296875 25.578125 68 25.265625 
C 67.796875 25.171875 67.796875 24.96875 66.90625 22.953125 
C 61 8.90625 56.703125 2.890625 40.703125 2.890625 
L 26.09375 2.890625 
C 24.703125 2.890625 24.5 2.890625 23.90625 3 
C 22.796875 3.09375 22.703125 3.296875 22.703125 4.09375 
C 22.703125 4.796875 22.90625 5.390625 23.09375 6.296875 
L 30 34 
L 39.90625 34 
C 47.703125 34 48.296875 32.28125 48.296875 29.28125 
C 48.296875 28.28125 48.296875 27.375 47.59375 24.375 
C 47.40625 23.96875 47.296875 23.5625 47.296875 23.265625 
C 47.296875 22.5625 47.796875 22.265625 48.40625 22.265625 
C 49.296875 22.265625 49.40625 22.953125 49.796875 24.359375 
L 55.5 47.53125 
C 55.5 48.015625 55.09375 48.515625 54.5 48.515625 
C 53.59375 48.515625 53.5 48.125 53.09375 46.71875 
C 51.09375 39.078125 49.09375 36.890625 40.203125 36.890625 
L 30.703125 36.890625 
L 36.90625 61.40625 
C 37.796875 64.90625 38 64.90625 42.09375 64.90625 
L 56.40625 64.90625 
C 68.703125 64.90625 71.203125 61.609375 71.203125 54.03125 
C 71.203125 53.921875 71.203125 51.140625 70.796875 47.84375 
C 70.703125 47.4375 70.59375 46.84375 70.59375 46.640625 
C 70.59375 45.84375 71.09375 45.546875 71.703125 45.546875 
C 72.40625 45.546875 72.796875 45.953125 73 47.734375 
L 75.09375 65.21875 
C 75.09375 65.546875 75.296875 66.609375 75.296875 66.828125 
C 75.296875 68 74.40625 68 72.59375 68 
L 23.796875 68 
C 21.90625 68 20.90625 68 20.90625 66.078125 
C 20.90625 64.90625 21.59375 64.90625 23.296875 64.90625 
C 29.5 64.90625 29.5 64.28125 29.5 63.3125 
C 29.5 62.8125 29.40625 62.40625 29.09375 61.3125 
L 15.59375 7.390625 
C 14.703125 3.890625 14.5 2.890625 7.5 2.890625 
C 5.59375 2.890625 4.59375 2.890625 4.59375 1.09375 
C 4.59375 0 5.203125 0 7.203125 0 
L 57.40625 0 
C 59.59375 0 59.703125 0.09375 60.40625 1.71875 
z
" id="CMMI12-69"/>
      <path d="M 42.90625 71.28125 
C 42.90625 71.390625 43.5 72.90625 43.5 73.09375 
C 43.5 74.296875 42.5 75 41.703125 75 
C 41.203125 75 40.296875 75 39.5 72.796875 
L 6 -21.296875 
C 6 -21.40625 5.40625 -22.890625 5.40625 -23.09375 
C 5.40625 -24.296875 6.40625 -25 7.203125 -25 
C 7.796875 -25 8.703125 -24.890625 9.40625 -22.796875 
z
" id="CMMI12-61"/>
      <path d="M 29.703125 32.109375 
L 39.296875 32.109375 
C 46.90625 32.109375 47.5 30.40625 47.5 27.515625 
C 47.5 26.21875 47.296875 24.828125 46.796875 22.625 
C 46.59375 22.234375 46.5 21.734375 46.5 21.53125 
C 46.5 20.828125 46.90625 20.4375 47.59375 20.4375 
C 48.40625 20.4375 48.5 20.828125 48.90625 22.421875 
L 54.703125 45.859375 
C 54.703125 46.265625 54.40625 46.859375 53.703125 46.859375 
C 52.796875 46.859375 52.703125 46.46875 52.296875 44.734375 
C 50.203125 37.125 48.203125 35 39.5 35 
L 30.40625 35 
L 36.90625 61.34375 
C 37.796875 64.90625 38 64.90625 42.09375 64.90625 
L 55.5 64.90625 
C 68 64.90625 69.796875 61.21875 69.796875 54.125 
C 69.796875 53.53125 69.796875 51.328125 69.5 48.734375 
C 69.40625 48.34375 69.203125 47.046875 69.203125 46.640625 
C 69.203125 45.84375 69.703125 45.546875 70.296875 45.546875 
C 71 45.546875 71.40625 45.953125 71.59375 47.734375 
L 73.703125 65.21875 
C 73.703125 65.546875 73.90625 66.609375 73.90625 66.828125 
C 73.90625 68 73 68 71.203125 68 
L 23.796875 68 
C 21.90625 68 20.90625 68 20.90625 66.078125 
C 20.90625 64.90625 21.59375 64.90625 23.296875 64.90625 
C 29.5 64.90625 29.5 64.265625 29.5 63.28125 
C 29.5 62.78125 29.40625 62.375 29.09375 61.28125 
L 15.59375 7.390625 
C 14.703125 3.890625 14.5 2.890625 7.5 2.890625 
C 5.59375 2.890625 4.59375 2.890625 4.59375 1.09375 
C 4.59375 0 5.5 0 6.09375 0 
C 8 0 10 0 11.90625 0 
L 24.90625 0 
C 27.09375 0 29.5 0 31.703125 0 
C 32.59375 0 33.796875 0 33.796875 1.796875 
C 33.796875 2.890625 33.203125 2.890625 31 2.890625 
C 23.09375 2.890625 22.90625 3.578125 22.90625 5.0625 
C 22.90625 5.5625 23.09375 6.34375 23.296875 7.015625 
z
" id="CMMI12-70"/>
      <path d="M 74.59375 69.109375 
C 74.59375 70 73.90625 70 73.703125 70 
C 73.5 70 73.09375 70 72.296875 69 
L 65.40625 60.765625 
C 64.90625 61.5625 62.90625 65.046875 59 67.328125 
C 54.703125 70 50.40625 70 48.90625 70 
C 27.5 70 5 48.359375 5 24.921875 
C 5 8.53125 16.40625 -2 31.40625 -2 
C 38.59375 -2 47.703125 0.390625 52.703125 6.671875 
C 53.796875 2.890625 56 0.1875 56.703125 0.1875 
C 57.203125 0.1875 57.296875 0.5 57.40625 0.5 
C 57.5 0.6875 58.296875 4.21875 58.796875 6.015625 
L 60.40625 12.453125 
C 61.203125 15.765625 61.59375 17.171875 62.296875 20.171875 
C 63.296875 24 63.5 24 69 24 
C 69.40625 24 70.59375 24 70.59375 26.03125 
C 70.59375 27.09375 69.59375 27.09375 69.296875 27.09375 
C 67.59375 27.09375 65.703125 27.09375 63.90625 27.09375 
L 58.5 27.09375 
C 54.296875 27.09375 49.90625 27.09375 45.796875 27.09375 
C 44.90625 27.09375 43.703125 27.09375 43.703125 25.171875 
C 43.703125 24.09375 44.5 24.09375 44.5 24 
L 47 24 
C 54.90625 24 54.90625 23.265625 54.90625 21.90625 
C 54.90625 21.796875 53 11.734375 51.09375 8.765625 
C 47.296875 3.1875 39.40625 0.890625 33.5 0.890625 
C 25.796875 0.890625 13.296875 4.875 13.296875 22.03125 
C 13.296875 28.6875 15.703125 43.875 25.40625 55.09375 
C 31.703125 62.25 41 67.109375 49.796875 67.109375 
C 61.59375 67.109375 65.796875 57.109375 65.796875 47.984375 
C 65.796875 46.40625 65.40625 44.234375 65.40625 42.84375 
C 65.40625 41.953125 66.40625 41.953125 66.703125 41.953125 
C 67.796875 41.953125 67.90625 42.046875 68.296875 43.828125 
z
" id="CMMI12-71"/>
     </defs>
     <g transform="translate(332.401371 509.912054)scale(0.4 -0.4)">
      <use transform="translate(0 14.943915)scale(0.996264)" xlink:href="#CMMI12-69"/>
      <use transform="translate(78.051636 14.943915)scale(0.996264)" xlink:href="#CMMI12-61"/>
      <use transform="translate(126.826555 14.943915)scale(0.996264)" xlink:href="#CMMI12-69"/>
      <use transform="translate(199.037773 0)scale(0.697382)" xlink:href="#CMMI12-70"/>
      <use transform="translate(252.725284 0)scale(0.697382)" xlink:href="#CMMI12-71"/>
     </g>
    </g>
   </g>
   <g id="matplotlib.axis_2">
    <g id="ytick_1">
     <g id="line2d_6">
      <defs>
       <path d="M 0 0 
L -3.5 0 
" id="me96a9a2b4b" style="stroke:#000000;stroke-width:0.8;"/>
      </defs>
      <g>
       <use style="fill:none;stroke:#000000;stroke-width:0.8;" x="92.53783" xlink:href="#me96a9a2b4b" y="384.462852"/>
      </g>
     </g>
     <g id="text_7">
      <!-- $10^{-4}$ -->
      <defs>
       <path d="M 33.59375 64.40625 
C 33.59375 66.5 33.5 66.5 31.703125 66.5 
L 2 19.59375 
L 2 17 
L 27.796875 17 
L 27.796875 7.140625 
C 27.796875 3.5 27.59375 2.5 20.59375 2.5 
L 18.703125 2.5 
L 18.703125 0 
C 21.90625 0 27.296875 0 30.703125 0 
C 34.09375 0 39.5 0 42.703125 0 
L 42.703125 2.5 
L 40.796875 2.5 
C 33.796875 2.5 33.59375 3.5 33.59375 7.140625 
L 33.59375 17 
L 43.796875 17 
L 43.796875 19.59375 
L 33.59375 19.59375 
z
M 28.09375 57.859375 
L 28.09375 19.59375 
L 4 19.59375 
z
" id="CMR17-52"/>
      </defs>
      <g transform="translate(21.6 397.239829)scale(0.36 -0.36)">
       <use transform="scale(0.996264)" xlink:href="#CMR17-49"/>
       <use transform="translate(45.690477 0)scale(0.996264)" xlink:href="#CMR17-48"/>
       <use transform="translate(91.380954 36.153639)scale(0.697382)" xlink:href="#CMSY10-0"/>
       <use transform="translate(145.621947 36.153639)scale(0.697382)" xlink:href="#CMR17-52"/>
      </g>
     </g>
    </g>
    <g id="ytick_2">
     <g id="line2d_7">
      <g>
       <use style="fill:none;stroke:#000000;stroke-width:0.8;" x="92.53783" xlink:href="#me96a9a2b4b" y="292.872791"/>
      </g>
     </g>
     <g id="text_8">
      <!-- $10^{-3}$ -->
      <defs>
       <path d="M 22.09375 33.703125 
C 31 33.703125 34.90625 25.96875 34.90625 17.03125 
C 34.90625 5 28.5 0.390625 22.703125 0.390625 
C 17.40625 0.390625 8.796875 3.03125 6.09375 10.828125 
C 6.59375 10.625 7.09375 10.625 7.59375 10.625 
C 10 10.625 11.796875 12.21875 11.796875 14.8125 
C 11.796875 17.703125 9.59375 19 7.59375 19 
C 5.90625 19 3.296875 18.203125 3.296875 14.46875 
C 3.296875 5.234375 12.296875 -2 22.90625 -2 
C 34 -2 42.5 6.71875 42.5 16.953125 
C 42.5 26.671875 34.5 33.703125 25 34.796875 
C 32.59375 36.375 39.90625 43.0625 39.90625 52.015625 
C 39.90625 59.6875 32 65.296875 23 65.296875 
C 13.90625 65.296875 5.90625 59.828125 5.90625 52.015625 
C 5.90625 48.59375 8.5 48 9.796875 48 
C 11.90625 48 13.703125 49.296875 13.703125 51.890625 
C 13.703125 54.46875 11.90625 55.765625 9.796875 55.765625 
C 9.40625 55.765625 8.90625 55.765625 8.5 55.578125 
C 11.40625 61.859375 19.296875 63 22.796875 63 
C 26.296875 63 32.90625 61.328125 32.90625 51.875 
C 32.90625 49.109375 32.5 44.1875 29.09375 39.84375 
C 26.09375 36 22.703125 36 19.40625 35.6875 
C 18.90625 35.6875 16.59375 35.453125 16.203125 35.453125 
C 15.5 35.359375 15.09375 35.265625 15.09375 34.5 
C 15.09375 33.796875 15.203125 33.703125 17.203125 33.703125 
z
" id="CMR17-51"/>
      </defs>
      <g transform="translate(21.6 305.649768)scale(0.36 -0.36)">
       <use transform="scale(0.996264)" xlink:href="#CMR17-49"/>
       <use transform="translate(45.690477 0)scale(0.996264)" xlink:href="#CMR17-48"/>
       <use transform="translate(91.380954 36.153639)scale(0.697382)" xlink:href="#CMSY10-0"/>
       <use transform="translate(145.621947 36.153639)scale(0.697382)" xlink:href="#CMR17-51"/>
      </g>
     </g>
    </g>
    <g id="ytick_3">
     <g id="line2d_8">
      <g>
       <use style="fill:none;stroke:#000000;stroke-width:0.8;" x="92.53783" xlink:href="#me96a9a2b4b" y="201.282731"/>
      </g>
     </g>
     <g id="text_9">
      <!-- $10^{-2}$ -->
      <defs>
       <path d="M 41.703125 15.453125 
L 39.90625 15.453125 
C 38.90625 8.375 38.09375 7.171875 37.703125 6.5625 
C 37.203125 5.765625 30 5.765625 28.59375 5.765625 
L 9.40625 5.765625 
C 13 9.671875 20 16.75 28.5 24.953125 
C 34.59375 30.734375 41.703125 37.53125 41.703125 47.421875 
C 41.703125 59.21875 32.296875 66 21.796875 66 
C 10.796875 66 4.09375 56.3125 4.09375 47.34375 
C 4.09375 43.4375 7 42.9375 8.203125 42.9375 
C 9.203125 42.9375 12.203125 43.546875 12.203125 47.03125 
C 12.203125 50.109375 9.59375 51 8.203125 51 
C 7.59375 51 7 50.90625 6.59375 50.703125 
C 8.5 59.21875 14.296875 63.40625 20.40625 63.40625 
C 29.09375 63.40625 34.796875 56.515625 34.796875 47.421875 
C 34.796875 38.734375 29.703125 31.25 24 24.75 
L 4.09375 2.28125 
L 4.09375 0 
L 39.296875 0 
z
" id="CMR17-50"/>
      </defs>
      <g transform="translate(21.6 214.059707)scale(0.36 -0.36)">
       <use transform="scale(0.996264)" xlink:href="#CMR17-49"/>
       <use transform="translate(45.690477 0)scale(0.996264)" xlink:href="#CMR17-48"/>
       <use transform="translate(91.380954 36.153639)scale(0.697382)" xlink:href="#CMSY10-0"/>
       <use transform="translate(145.621947 36.153639)scale(0.697382)" xlink:href="#CMR17-50"/>
      </g>
     </g>
    </g>
    <g id="ytick_4">
     <g id="line2d_9">
      <g>
       <use style="fill:none;stroke:#000000;stroke-width:0.8;" x="92.53783" xlink:href="#me96a9a2b4b" y="109.69267"/>
      </g>
     </g>
     <g id="text_10">
      <!-- $10^{-1}$ -->
      <g transform="translate(21.6 122.469646)scale(0.36 -0.36)">
       <use transform="scale(0.996264)" xlink:href="#CMR17-49"/>
       <use transform="translate(45.690477 0)scale(0.996264)" xlink:href="#CMR17-48"/>
       <use transform="translate(91.380954 36.153639)scale(0.697382)" xlink:href="#CMSY10-0"/>
       <use transform="translate(145.621947 36.153639)scale(0.697382)" xlink:href="#CMR17-49"/>
      </g>
     </g>
    </g>
    <g id="ytick_5">
     <g id="line2d_10">
      <defs>
       <path d="M 0 0 
L -2 0 
" id="m6d2615b77a" style="stroke:#000000;stroke-width:0.6;"/>
      </defs>
      <g>
       <use style="fill:none;stroke:#000000;stroke-width:0.6;" x="92.53783" xlink:href="#m6d2615b77a" y="432.353348"/>
      </g>
     </g>
    </g>
    <g id="ytick_6">
     <g id="line2d_11">
      <g>
       <use style="fill:none;stroke:#000000;stroke-width:0.6;" x="92.53783" xlink:href="#m6d2615b77a" y="420.910202"/>
      </g>
     </g>
    </g>
    <g id="ytick_7">
     <g id="line2d_12">
      <g>
       <use style="fill:none;stroke:#000000;stroke-width:0.6;" x="92.53783" xlink:href="#m6d2615b77a" y="412.034208"/>
      </g>
     </g>
    </g>
    <g id="ytick_8">
     <g id="line2d_13">
      <g>
       <use style="fill:none;stroke:#000000;stroke-width:0.6;" x="92.53783" xlink:href="#m6d2615b77a" y="404.781993"/>
      </g>
     </g>
    </g>
    <g id="ytick_9">
     <g id="line2d_14">
      <g>
       <use style="fill:none;stroke:#000000;stroke-width:0.6;" x="92.53783" xlink:href="#m6d2615b77a" y="398.650332"/>
      </g>
     </g>
    </g>
    <g id="ytick_10">
     <g id="line2d_15">
      <g>
       <use style="fill:none;stroke:#000000;stroke-width:0.6;" x="92.53783" xlink:href="#m6d2615b77a" y="393.338846"/>
      </g>
     </g>
    </g>
    <g id="ytick_11">
     <g id="line2d_16">
      <g>
       <use style="fill:none;stroke:#000000;stroke-width:0.6;" x="92.53783" xlink:href="#m6d2615b77a" y="388.653784"/>
      </g>
     </g>
    </g>
    <g id="ytick_12">
     <g id="line2d_17">
      <g>
       <use style="fill:none;stroke:#000000;stroke-width:0.6;" x="92.53783" xlink:href="#m6d2615b77a" y="356.891497"/>
      </g>
     </g>
    </g>
    <g id="ytick_13">
     <g id="line2d_18">
      <g>
       <use style="fill:none;stroke:#000000;stroke-width:0.6;" x="92.53783" xlink:href="#m6d2615b77a" y="340.763288"/>
      </g>
     </g>
    </g>
    <g id="ytick_14">
     <g id="line2d_19">
      <g>
       <use style="fill:none;stroke:#000000;stroke-width:0.6;" x="92.53783" xlink:href="#m6d2615b77a" y="329.320141"/>
      </g>
     </g>
    </g>
    <g id="ytick_15">
     <g id="line2d_20">
      <g>
       <use style="fill:none;stroke:#000000;stroke-width:0.6;" x="92.53783" xlink:href="#m6d2615b77a" y="320.444147"/>
      </g>
     </g>
    </g>
    <g id="ytick_16">
     <g id="line2d_21">
      <g>
       <use style="fill:none;stroke:#000000;stroke-width:0.6;" x="92.53783" xlink:href="#m6d2615b77a" y="313.191932"/>
      </g>
     </g>
    </g>
    <g id="ytick_17">
     <g id="line2d_22">
      <g>
       <use style="fill:none;stroke:#000000;stroke-width:0.6;" x="92.53783" xlink:href="#m6d2615b77a" y="307.060271"/>
      </g>
     </g>
    </g>
    <g id="ytick_18">
     <g id="line2d_23">
      <g>
       <use style="fill:none;stroke:#000000;stroke-width:0.6;" x="92.53783" xlink:href="#m6d2615b77a" y="301.748785"/>
      </g>
     </g>
    </g>
    <g id="ytick_19">
     <g id="line2d_24">
      <g>
       <use style="fill:none;stroke:#000000;stroke-width:0.6;" x="92.53783" xlink:href="#m6d2615b77a" y="297.063723"/>
      </g>
     </g>
    </g>
    <g id="ytick_20">
     <g id="line2d_25">
      <g>
       <use style="fill:none;stroke:#000000;stroke-width:0.6;" x="92.53783" xlink:href="#m6d2615b77a" y="265.301436"/>
      </g>
     </g>
    </g>
    <g id="ytick_21">
     <g id="line2d_26">
      <g>
       <use style="fill:none;stroke:#000000;stroke-width:0.6;" x="92.53783" xlink:href="#m6d2615b77a" y="249.173227"/>
      </g>
     </g>
    </g>
    <g id="ytick_22">
     <g id="line2d_27">
      <g>
       <use style="fill:none;stroke:#000000;stroke-width:0.6;" x="92.53783" xlink:href="#m6d2615b77a" y="237.73008"/>
      </g>
     </g>
    </g>
    <g id="ytick_23">
     <g id="line2d_28">
      <g>
       <use style="fill:none;stroke:#000000;stroke-width:0.6;" x="92.53783" xlink:href="#m6d2615b77a" y="228.854086"/>
      </g>
     </g>
    </g>
    <g id="ytick_24">
     <g id="line2d_29">
      <g>
       <use style="fill:none;stroke:#000000;stroke-width:0.6;" x="92.53783" xlink:href="#m6d2615b77a" y="221.601871"/>
      </g>
     </g>
    </g>
    <g id="ytick_25">
     <g id="line2d_30">
      <g>
       <use style="fill:none;stroke:#000000;stroke-width:0.6;" x="92.53783" xlink:href="#m6d2615b77a" y="215.470211"/>
      </g>
     </g>
    </g>
    <g id="ytick_26">
     <g id="line2d_31">
      <g>
       <use style="fill:none;stroke:#000000;stroke-width:0.6;" x="92.53783" xlink:href="#m6d2615b77a" y="210.158725"/>
      </g>
     </g>
    </g>
    <g id="ytick_27">
     <g id="line2d_32">
      <g>
       <use style="fill:none;stroke:#000000;stroke-width:0.6;" x="92.53783" xlink:href="#m6d2615b77a" y="205.473662"/>
      </g>
     </g>
    </g>
    <g id="ytick_28">
     <g id="line2d_33">
      <g>
       <use style="fill:none;stroke:#000000;stroke-width:0.6;" x="92.53783" xlink:href="#m6d2615b77a" y="173.711375"/>
      </g>
     </g>
    </g>
    <g id="ytick_29">
     <g id="line2d_34">
      <g>
       <use style="fill:none;stroke:#000000;stroke-width:0.6;" x="92.53783" xlink:href="#m6d2615b77a" y="157.583166"/>
      </g>
     </g>
    </g>
    <g id="ytick_30">
     <g id="line2d_35">
      <g>
       <use style="fill:none;stroke:#000000;stroke-width:0.6;" x="92.53783" xlink:href="#m6d2615b77a" y="146.140019"/>
      </g>
     </g>
    </g>
    <g id="ytick_31">
     <g id="line2d_36">
      <g>
       <use style="fill:none;stroke:#000000;stroke-width:0.6;" x="92.53783" xlink:href="#m6d2615b77a" y="137.264025"/>
      </g>
     </g>
    </g>
    <g id="ytick_32">
     <g id="line2d_37">
      <g>
       <use style="fill:none;stroke:#000000;stroke-width:0.6;" x="92.53783" xlink:href="#m6d2615b77a" y="130.01181"/>
      </g>
     </g>
    </g>
    <g id="ytick_33">
     <g id="line2d_38">
      <g>
       <use style="fill:none;stroke:#000000;stroke-width:0.6;" x="92.53783" xlink:href="#m6d2615b77a" y="123.88015"/>
      </g>
     </g>
    </g>
    <g id="ytick_34">
     <g id="line2d_39">
      <g>
       <use style="fill:none;stroke:#000000;stroke-width:0.6;" x="92.53783" xlink:href="#m6d2615b77a" y="118.568664"/>
      </g>
     </g>
    </g>
    <g id="ytick_35">
     <g id="line2d_40">
      <g>
       <use style="fill:none;stroke:#000000;stroke-width:0.6;" x="92.53783" xlink:href="#m6d2615b77a" y="113.883601"/>
      </g>
     </g>
    </g>
    <g id="ytick_36">
     <g id="line2d_41">
      <g>
       <use style="fill:none;stroke:#000000;stroke-width:0.6;" x="92.53783" xlink:href="#m6d2615b77a" y="82.121314"/>
      </g>
     </g>
    </g>
    <g id="ytick_37">
     <g id="line2d_42">
      <g>
       <use style="fill:none;stroke:#000000;stroke-width:0.6;" x="92.53783" xlink:href="#m6d2615b77a" y="65.993105"/>
      </g>
     </g>
    </g>
    <g id="ytick_38">
     <g id="line2d_43">
      <g>
       <use style="fill:none;stroke:#000000;stroke-width:0.6;" x="92.53783" xlink:href="#m6d2615b77a" y="54.549959"/>
      </g>
     </g>
    </g>
    <g id="ytick_39">
     <g id="line2d_44">
      <g>
       <use style="fill:none;stroke:#000000;stroke-width:0.6;" x="92.53783" xlink:href="#m6d2615b77a" y="45.673965"/>
      </g>
     </g>
    </g>
    <g id="ytick_40">
     <g id="line2d_45">
      <g>
       <use style="fill:none;stroke:#000000;stroke-width:0.6;" x="92.53783" xlink:href="#m6d2615b77a" y="38.421749"/>
      </g>
     </g>
    </g>
    <g id="ytick_41">
     <g id="line2d_46">
      <g>
       <use style="fill:none;stroke:#000000;stroke-width:0.6;" x="92.53783" xlink:href="#m6d2615b77a" y="32.290089"/>
      </g>
     </g>
    </g>
    <g id="ytick_42">
     <g id="line2d_47">
      <g>
       <use style="fill:none;stroke:#000000;stroke-width:0.6;" x="92.53783" xlink:href="#m6d2615b77a" y="26.978603"/>
      </g>
     </g>
    </g>
   </g>
   <g id="line2d_48">
    <path clip-path="url(#p6610348871)" d="M 293.809544 415.753772 
L 295.958118 401.284917 
L 298.106693 387.111344 
L 300.255268 373.233055 
L 302.403842 359.650048 
L 304.552417 346.362323 
L 306.700991 333.369882 
L 308.849566 320.672723 
L 310.998141 308.270847 
L 313.146715 296.164254 
L 315.29529 284.352944 
L 317.443864 272.836916 
L 319.592439 261.616171 
L 321.741014 250.690709 
L 323.889588 240.06053 
L 326.038163 229.725633 
L 328.186737 219.68602 
L 330.335312 209.941688 
L 332.483887 200.49264 
L 334.632461 191.338875 
L 336.781036 182.480392 
L 338.92961 173.917192 
L 341.078185 165.649275 
L 343.22676 157.67664 
L 345.375334 149.999288 
L 347.523909 142.617219 
L 349.672483 135.530433 
L 351.821058 128.73893 
L 353.969633 122.242709 
L 356.118207 116.041771 
L 358.266782 110.136116 
L 360.415356 104.525743 
L 362.563931 99.210654 
L 364.712506 94.190847 
L 366.86108 89.466323 
L 369.009655 85.037081 
L 371.158229 80.903123 
L 373.306804 77.064447 
L 375.455379 73.521054 
L 377.603953 70.272943 
L 379.752528 67.320116 
L 381.901102 64.662571 
L 384.049677 62.300309 
L 386.198252 60.233329 
L 388.346826 58.461633 
L 390.495401 56.985219 
L 392.643975 55.804088 
L 394.79255 54.91824 
L 396.941125 54.327674 
L 399.089699 54.032391 
L 401.238274 54.032391 
L 403.386848 54.327674 
L 405.535423 54.91824 
L 407.683998 55.804088 
L 409.832572 56.985219 
L 411.981147 58.461633 
L 414.129722 60.233329 
L 416.278296 62.300309 
L 418.426871 64.662571 
L 420.575445 67.320116 
L 422.72402 70.272943 
L 424.872595 73.521054 
L 427.021169 77.064447 
L 429.169744 80.903123 
L 431.318318 85.037081 
L 433.466893 89.466323 
L 435.615468 94.190847 
L 437.764042 99.210654 
L 439.912617 104.525743 
L 442.061191 110.136116 
L 444.209766 116.041771 
L 446.358341 122.242709 
L 448.506915 128.73893 
L 450.65549 135.530433 
L 452.804064 142.617219 
L 454.952639 149.999288 
L 457.101214 157.67664 
L 459.249788 165.649275 
L 461.398363 173.917192 
L 463.546937 182.480392 
L 465.695512 191.338875 
L 467.844087 200.49264 
L 469.992661 209.941688 
L 472.141236 219.68602 
L 474.28981 229.725633 
L 476.438385 240.06053 
L 478.58696 250.690709 
L 480.735534 261.616171 
L 482.884109 272.836916 
L 485.032683 284.352944 
L 487.181258 296.164254 
L 489.329833 308.270847 
L 491.478407 320.672723 
L 493.626982 333.369882 
L 495.775556 346.362323 
L 497.924131 359.650048 
L 500.072706 373.233055 
L 502.22128 387.111344 
L 504.369855 401.284917 
L 506.518429 415.753772 
" style="fill:none;stroke:#a42604;stroke-linecap:square;stroke-width:5;"/>
   </g>
   <g id="patch_53">
    <path d="M 92.53783 434.356333 
L 92.53783 25.1 
" style="fill:none;stroke:#000000;stroke-linecap:square;stroke-linejoin:miter;stroke-width:1.5;"/>
   </g>
   <g id="patch_54">
    <path d="M 694.9 434.356333 
L 694.9 25.1 
" style="fill:none;stroke:#000000;stroke-linecap:square;stroke-linejoin:miter;stroke-width:1.5;"/>
   </g>
   <g id="patch_55">
    <path d="M 92.53783 434.356333 
L 694.9 434.356333 
" style="fill:none;stroke:#000000;stroke-linecap:square;stroke-linejoin:miter;stroke-width:1.5;"/>
   </g>
   <g id="patch_56">
    <path d="M 92.53783 25.1 
L 694.9 25.1 
" style="fill:none;stroke:#000000;stroke-linecap:square;stroke-linejoin:miter;stroke-width:1.5;"/>
   </g>
  </g>
  <g id="text_11">
   <!-- $\gamma\ = $ 3.0 -->
   <defs>
    <path d="M 37.796875 11.875 
C 37.59375 16.734375 37.40625 24.390625 33.59375 33.328125 
C 31.59375 38.3125 28.203125 43.5625 20.90625 43.5625 
C 8.59375 43.5625 1.90625 27.96875 1.90625 25.390625 
C 1.90625 24.484375 2.59375 24.484375 2.90625 24.484375 
C 3.796875 24.484375 3.796875 24.6875 4.296875 25.984375 
C 6.40625 32.140625 12.796875 37 19.703125 37 
C 33.59375 37 35.59375 21.609375 35.59375 11.78125 
C 35.59375 5.5 34.90625 3.4375 34.296875 1.4375 
C 32.40625 -4.71875 29.09375 -17.03125 29.09375 -19.8125 
C 29.09375 -20.609375 29.40625 -21.5 30.203125 -21.5 
C 31.703125 -21.5 32.59375 -18.21875 33.703125 -14.25 
C 36.09375 -5.515625 36.703125 -1.140625 37.203125 2.828125 
C 37.5 5.21875 43.203125 21.625 51.09375 37.21875 
C 51.796875 38.796875 53.203125 41.484375 53.203125 41.78125 
C 53.203125 41.875 53.09375 42.578125 52.203125 42.578125 
C 52 42.578125 51.5 42.578125 51.296875 42.171875 
C 51.09375 41.984375 47.59375 35.21875 44.59375 28.46875 
C 43.09375 25.09375 41.09375 20.625 37.796875 11.875 
z
" id="CMMI12-13"/>
    <path d="M 64.296875 31.515625 
C 65.796875 31.515625 67.296875 31.515625 67.296875 33.203125 
C 67.296875 35 65.59375 35 63.90625 35 
L 8 35 
C 6.296875 35 4.59375 35 4.59375 33.203125 
C 4.59375 31.515625 6.09375 31.515625 7.59375 31.515625 
z
M 63.90625 14 
C 65.59375 14 67.296875 14 67.296875 15.796875 
C 67.296875 17.484375 65.796875 17.484375 64.296875 17.484375 
L 7.59375 17.484375 
C 6.09375 17.484375 4.59375 17.484375 4.59375 15.796875 
C 4.59375 14 6.296875 14 8 14 
z
" id="CMR17-61"/>
    <path d="M 22.09375 33 
L 23.203125 33 
L 26.90625 33 
C 36.59375 33 41.59375 28.59375 41.59375 20.0625 
C 41.59375 11.125 36.09375 5.8125 26.90625 5.8125 
C 17.296875 5.8125 12.59375 10.640625 12 21.015625 
L 3.203125 21.015625 
C 3.59375 15.28125 4.59375 11.5625 6.296875 8.34375 
C 9.90625 1.515625 16.90625 -2 26.59375 -2 
C 41.203125 -2 50.59375 6.734375 50.59375 20.203125 
C 50.59375 29.25 47.09375 34.28125 38.59375 37.203125 
C 45.203125 39.78125 48.5 44.71875 48.5 51.734375 
C 48.5 63.78125 40.40625 71 26.90625 71 
C 12.59375 71 5 63.28125 4.703125 48.359375 
L 13.5 48.359375 
C 13.59375 52.59375 14 54.953125 15.09375 57.109375 
C 17.09375 60.9375 21.5 63.296875 27 63.296875 
C 34.796875 63.296875 39.5 58.75 39.5 51.359375 
C 39.5 46.421875 37.703125 43.453125 33.796875 41.890625 
C 31.40625 40.90625 28.296875 40.5 22.09375 40.5 
z
" id="Nimbus_Sans_L_Regular-51"/>
    <path d="M 19.09375 10.421875 
L 8.703125 10.421875 
L 8.703125 0 
L 19.09375 0 
z
" id="Nimbus_Sans_L_Regular-46"/>
    <path d="M 27.5 71 
C 20.90625 71 14.90625 68.125 11.203125 63.21875 
C 6.59375 57.046875 4.296875 47.5625 4.296875 34.5 
C 4.296875 10.671875 12.296875 -2 27.5 -2 
C 42.5 -2 50.703125 10.671875 50.703125 33.90625 
C 50.703125 47.65625 48.5 56.84375 43.796875 63.21875 
C 40.09375 68.21875 34.203125 71 27.5 71 
z
M 27.5 63.1875 
C 37 63.1875 41.703125 53.625 41.703125 34.703125 
C 41.703125 14.671875 37.09375 5.3125 27.296875 5.3125 
C 18 5.3125 13.296875 15.078125 13.296875 34.40625 
C 13.296875 53.71875 18 63.1875 27.5 63.1875 
z
" id="Nimbus_Sans_L_Regular-48"/>
   </defs>
   <g transform="translate(108 75.6)scale(0.4 -0.4)">
    <use transform="scale(0.996264)" xlink:href="#CMMI12-13"/>
    <use transform="translate(111.387746 0)scale(0.996264)" xlink:href="#CMR17-61"/>
    <use transform="translate(210.797704 0)scale(0.996264)" xlink:href="#Nimbus_Sans_L_Regular-51"/>
    <use transform="translate(266.189381 0)scale(0.996264)" xlink:href="#Nimbus_Sans_L_Regular-46"/>
    <use transform="translate(293.884551 0)scale(0.996264)" xlink:href="#Nimbus_Sans_L_Regular-48"/>
   </g>
  </g>
 </g>
 <defs>
  <clipPath id="p6610348871">
   <rect height="409.256333" width="602.36217" x="92.53783" y="25.1"/>
  </clipPath>
 </defs>
</svg>
