<?xml version="1.0" encoding="utf-8" standalone="no"?>
<!DOCTYPE svg PUBLIC "-//W3C//DTD SVG 1.1//EN"
  "http://www.w3.org/Graphics/SVG/1.1/DTD/svg11.dtd">
<!-- Created with matplotlib (http://matplotlib.org/) -->
<svg height="540pt" version="1.1" viewBox="0 0 720 540" width="720pt" xmlns="http://www.w3.org/2000/svg" xmlns:xlink="http://www.w3.org/1999/xlink">
 <defs>
  <style type="text/css">
*{stroke-linecap:butt;stroke-linejoin:round;}
  </style>
 </defs>
 <g id="figure_1">
  <g id="patch_1">
   <path d="M 0 540 
L 720 540 
L 720 0 
L 0 0 
z
" style="fill:none;opacity:0;"/>
  </g>
  <g id="axes_1">
   <g id="patch_2">
    <path d="M 92.53783 434.356333 
L 694.9 434.356333 
L 694.9 25.1 
L 92.53783 25.1 
z
" style="fill:#ffffff;"/>
   </g>
   <g id="patch_3">
    <path clip-path="url(#p516d134beb)" d="M 160.932568 27875.782224 
L 169.872857 27875.782224 
L 169.872857 266.771872 
L 160.932568 266.771872 
z
" style="fill:#187795;opacity:0.3;"/>
   </g>
   <g id="patch_4">
    <path clip-path="url(#p516d134beb)" d="M 169.872857 27875.782224 
L 178.813146 27875.782224 
L 178.813146 27875.782224 
L 169.872857 27875.782224 
z
" style="fill:#187795;opacity:0.3;"/>
   </g>
   <g id="patch_5">
    <path clip-path="url(#p516d134beb)" d="M 178.813146 27875.782224 
L 187.753435 27875.782224 
L 187.753435 266.771872 
L 178.813146 266.771872 
z
" style="fill:#187795;opacity:0.3;"/>
   </g>
   <g id="patch_6">
    <path clip-path="url(#p516d134beb)" d="M 187.753435 27875.782224 
L 196.693724 27875.782224 
L 196.693724 266.771872 
L 187.753435 266.771872 
z
" style="fill:#187795;opacity:0.3;"/>
   </g>
   <g id="patch_7">
    <path clip-path="url(#p516d134beb)" d="M 196.693724 27875.782224 
L 205.634013 27875.782224 
L 205.634013 210.845713 
L 196.693724 210.845713 
z
" style="fill:#187795;opacity:0.3;"/>
   </g>
   <g id="patch_8">
    <path clip-path="url(#p516d134beb)" d="M 205.634013 27875.782224 
L 214.574302 27875.782224 
L 214.574302 210.845713 
L 205.634013 210.845713 
z
" style="fill:#187795;opacity:0.3;"/>
   </g>
   <g id="patch_9">
    <path clip-path="url(#p516d134beb)" d="M 214.574302 27875.782224 
L 223.514591 27875.782224 
L 223.514591 201.843612 
L 214.574302 201.843612 
z
" style="fill:#187795;opacity:0.3;"/>
   </g>
   <g id="patch_10">
    <path clip-path="url(#p516d134beb)" d="M 223.514591 27875.782224 
L 232.454879 27875.782224 
L 232.454879 170.035511 
L 223.514591 170.035511 
z
" style="fill:#187795;opacity:0.3;"/>
   </g>
   <g id="patch_11">
    <path clip-path="url(#p516d134beb)" d="M 232.454879 27875.782224 
L 241.395168 27875.782224 
L 241.395168 152.473824 
L 232.454879 152.473824 
z
" style="fill:#187795;opacity:0.3;"/>
   </g>
   <g id="patch_12">
    <path clip-path="url(#p516d134beb)" d="M 241.395168 27875.782224 
L 250.335457 27875.782224 
L 250.335457 160.306504 
L 241.395168 160.306504 
z
" style="fill:#187795;opacity:0.3;"/>
   </g>
   <g id="patch_13">
    <path clip-path="url(#p516d134beb)" d="M 250.335457 27875.782224 
L 259.275746 27875.782224 
L 259.275746 150.167928 
L 250.335457 150.167928 
z
" style="fill:#187795;opacity:0.3;"/>
   </g>
   <g id="patch_14">
    <path clip-path="url(#p516d134beb)" d="M 259.275746 27875.782224 
L 268.216035 27875.782224 
L 268.216035 129.560101 
L 259.275746 129.560101 
z
" style="fill:#187795;opacity:0.3;"/>
   </g>
   <g id="patch_15">
    <path clip-path="url(#p516d134beb)" d="M 268.216035 27875.782224 
L 277.156324 27875.782224 
L 277.156324 115.986072 
L 268.216035 115.986072 
z
" style="fill:#187795;opacity:0.3;"/>
   </g>
   <g id="patch_16">
    <path clip-path="url(#p516d134beb)" d="M 277.156324 27875.782224 
L 286.096613 27875.782224 
L 286.096613 105.107252 
L 277.156324 105.107252 
z
" style="fill:#187795;opacity:0.3;"/>
   </g>
   <g id="patch_17">
    <path clip-path="url(#p516d134beb)" d="M 286.096613 27875.782224 
L 295.036902 27875.782224 
L 295.036902 100.274208 
L 286.096613 100.274208 
z
" style="fill:#187795;opacity:0.3;"/>
   </g>
   <g id="patch_18">
    <path clip-path="url(#p516d134beb)" d="M 295.036902 27875.782224 
L 303.977191 27875.782224 
L 303.977191 92.060579 
L 295.036902 92.060579 
z
" style="fill:#187795;opacity:0.3;"/>
   </g>
   <g id="patch_19">
    <path clip-path="url(#p516d134beb)" d="M 303.977191 27875.782224 
L 312.91748 27875.782224 
L 312.91748 81.804216 
L 303.977191 81.804216 
z
" style="fill:#187795;opacity:0.3;"/>
   </g>
   <g id="patch_20">
    <path clip-path="url(#p516d134beb)" d="M 312.91748 27875.782224 
L 321.857769 27875.782224 
L 321.857769 88.506138 
L 312.91748 88.506138 
z
" style="fill:#187795;opacity:0.3;"/>
   </g>
   <g id="patch_21">
    <path clip-path="url(#p516d134beb)" d="M 321.857769 27875.782224 
L 330.798058 27875.782224 
L 330.798058 70.095707 
L 321.857769 70.095707 
z
" style="fill:#187795;opacity:0.3;"/>
   </g>
   <g id="patch_22">
    <path clip-path="url(#p516d134beb)" d="M 330.798058 27875.782224 
L 339.738347 27875.782224 
L 339.738347 63.309028 
L 330.798058 63.309028 
z
" style="fill:#187795;opacity:0.3;"/>
   </g>
   <g id="patch_23">
    <path clip-path="url(#p516d134beb)" d="M 339.738347 27875.782224 
L 348.678636 27875.782224 
L 348.678636 64.0975 
L 339.738347 64.0975 
z
" style="fill:#187795;opacity:0.3;"/>
   </g>
   <g id="patch_24">
    <path clip-path="url(#p516d134beb)" d="M 348.678636 27875.782224 
L 357.618924 27875.782224 
L 357.618924 62.281146 
L 348.678636 62.281146 
z
" style="fill:#187795;opacity:0.3;"/>
   </g>
   <g id="patch_25">
    <path clip-path="url(#p516d134beb)" d="M 357.618924 27875.782224 
L 366.559213 27875.782224 
L 366.559213 56.171255 
L 357.618924 56.171255 
z
" style="fill:#187795;opacity:0.3;"/>
   </g>
   <g id="patch_26">
    <path clip-path="url(#p516d134beb)" d="M 366.559213 27875.782224 
L 375.499502 27875.782224 
L 375.499502 53.431567 
L 366.559213 53.431567 
z
" style="fill:#187795;opacity:0.3;"/>
   </g>
   <g id="patch_27">
    <path clip-path="url(#p516d134beb)" d="M 375.499502 27875.782224 
L 384.439791 27875.782224 
L 384.439791 48.634689 
L 375.499502 48.634689 
z
" style="fill:#187795;opacity:0.3;"/>
   </g>
   <g id="patch_28">
    <path clip-path="url(#p516d134beb)" d="M 384.439791 27875.782224 
L 393.38008 27875.782224 
L 393.38008 43.702561 
L 384.439791 43.702561 
z
" style="fill:#187795;opacity:0.3;"/>
   </g>
   <g id="patch_29">
    <path clip-path="url(#p516d134beb)" d="M 393.38008 27875.782224 
L 402.320369 27875.782224 
L 402.320369 49.364885 
L 393.38008 49.364885 
z
" style="fill:#187795;opacity:0.3;"/>
   </g>
   <g id="patch_30">
    <path clip-path="url(#p516d134beb)" d="M 402.320369 27875.782224 
L 411.260658 27875.782224 
L 411.260658 44.511048 
L 402.320369 44.511048 
z
" style="fill:#187795;opacity:0.3;"/>
   </g>
   <g id="patch_31">
    <path clip-path="url(#p516d134beb)" d="M 411.260658 27875.782224 
L 420.200947 27875.782224 
L 420.200947 53.228332 
L 411.260658 53.228332 
z
" style="fill:#187795;opacity:0.3;"/>
   </g>
   <g id="patch_32">
    <path clip-path="url(#p516d134beb)" d="M 420.200947 27875.782224 
L 429.141236 27875.782224 
L 429.141236 55.308287 
L 420.200947 55.308287 
z
" style="fill:#187795;opacity:0.3;"/>
   </g>
   <g id="patch_33">
    <path clip-path="url(#p516d134beb)" d="M 429.141236 27875.782224 
L 438.081525 27875.782224 
L 438.081525 56.171255 
L 429.141236 56.171255 
z
" style="fill:#187795;opacity:0.3;"/>
   </g>
   <g id="patch_34">
    <path clip-path="url(#p516d134beb)" d="M 438.081525 27875.782224 
L 447.021814 27875.782224 
L 447.021814 62.281146 
L 438.081525 62.281146 
z
" style="fill:#187795;opacity:0.3;"/>
   </g>
   <g id="patch_35">
    <path clip-path="url(#p516d134beb)" d="M 447.021814 27875.782224 
L 455.962103 27875.782224 
L 455.962103 63.570143 
L 447.021814 63.570143 
z
" style="fill:#187795;opacity:0.3;"/>
   </g>
   <g id="patch_36">
    <path clip-path="url(#p516d134beb)" d="M 455.962103 27875.782224 
L 464.902392 27875.782224 
L 464.902392 71.987093 
L 455.962103 71.987093 
z
" style="fill:#187795;opacity:0.3;"/>
   </g>
   <g id="patch_37">
    <path clip-path="url(#p516d134beb)" d="M 464.902392 27875.782224 
L 473.842681 27875.782224 
L 473.842681 77.144172 
L 464.902392 77.144172 
z
" style="fill:#187795;opacity:0.3;"/>
   </g>
   <g id="patch_38">
    <path clip-path="url(#p516d134beb)" d="M 473.842681 27875.782224 
L 482.78297 27875.782224 
L 482.78297 79.796727 
L 473.842681 79.796727 
z
" style="fill:#187795;opacity:0.3;"/>
   </g>
   <g id="patch_39">
    <path clip-path="url(#p516d134beb)" d="M 482.78297 27875.782224 
L 491.723258 27875.782224 
L 491.723258 93.136435 
L 482.78297 93.136435 
z
" style="fill:#187795;opacity:0.3;"/>
   </g>
   <g id="patch_40">
    <path clip-path="url(#p516d134beb)" d="M 491.723258 27875.782224 
L 500.663547 27875.782224 
L 500.663547 101.597022 
L 491.723258 101.597022 
z
" style="fill:#187795;opacity:0.3;"/>
   </g>
   <g id="patch_41">
    <path clip-path="url(#p516d134beb)" d="M 500.663547 27875.782224 
L 509.603836 27875.782224 
L 509.603836 112.316071 
L 500.663547 112.316071 
z
" style="fill:#187795;opacity:0.3;"/>
   </g>
   <g id="patch_42">
    <path clip-path="url(#p516d134beb)" d="M 509.603836 27875.782224 
L 518.544125 27875.782224 
L 518.544125 120.023658 
L 509.603836 120.023658 
z
" style="fill:#187795;opacity:0.3;"/>
   </g>
   <g id="patch_43">
    <path clip-path="url(#p516d134beb)" d="M 518.544125 27875.782224 
L 527.484414 27875.782224 
L 527.484414 115.986072 
L 518.544125 115.986072 
z
" style="fill:#187795;opacity:0.3;"/>
   </g>
   <g id="patch_44">
    <path clip-path="url(#p516d134beb)" d="M 527.484414 27875.782224 
L 536.424703 27875.782224 
L 536.424703 140.27915 
L 527.484414 140.27915 
z
" style="fill:#187795;opacity:0.3;"/>
   </g>
   <g id="patch_45">
    <path clip-path="url(#p516d134beb)" d="M 536.424703 27875.782224 
L 545.364992 27875.782224 
L 545.364992 178.131007 
L 536.424703 178.131007 
z
" style="fill:#187795;opacity:0.3;"/>
   </g>
   <g id="patch_46">
    <path clip-path="url(#p516d134beb)" d="M 545.364992 27875.782224 
L 554.305281 27875.782224 
L 554.305281 170.035511 
L 545.364992 170.035511 
z
" style="fill:#187795;opacity:0.3;"/>
   </g>
   <g id="patch_47">
    <path clip-path="url(#p516d134beb)" d="M 554.305281 27875.782224 
L 563.24557 27875.782224 
L 563.24557 173.880533 
L 554.305281 173.880533 
z
" style="fill:#187795;opacity:0.3;"/>
   </g>
   <g id="patch_48">
    <path clip-path="url(#p516d134beb)" d="M 563.24557 27875.782224 
L 572.185859 27875.782224 
L 572.185859 188.269583 
L 563.24557 188.269583 
z
" style="fill:#187795;opacity:0.3;"/>
   </g>
   <g id="patch_49">
    <path clip-path="url(#p516d134beb)" d="M 572.185859 27875.782224 
L 581.126148 27875.782224 
L 581.126148 266.771872 
L 572.185859 266.771872 
z
" style="fill:#187795;opacity:0.3;"/>
   </g>
   <g id="patch_50">
    <path clip-path="url(#p516d134beb)" d="M 581.126148 27875.782224 
L 590.066437 27875.782224 
L 590.066437 266.771872 
L 581.126148 266.771872 
z
" style="fill:#187795;opacity:0.3;"/>
   </g>
   <g id="patch_51">
    <path clip-path="url(#p516d134beb)" d="M 590.066437 27875.782224 
L 599.006726 27875.782224 
L 599.006726 266.771872 
L 590.066437 266.771872 
z
" style="fill:#187795;opacity:0.3;"/>
   </g>
   <g id="patch_52">
    <path clip-path="url(#p516d134beb)" d="M 599.006726 27875.782224 
L 607.947015 27875.782224 
L 607.947015 238.808792 
L 599.006726 238.808792 
z
" style="fill:#187795;opacity:0.3;"/>
   </g>
   <g id="matplotlib.axis_1">
    <g id="xtick_1">
     <g id="line2d_1">
      <defs>
       <path d="M 0 0 
L 0 3.5 
" id="m7427582a87" style="stroke:#000000;stroke-width:0.8;"/>
      </defs>
      <g>
       <use style="fill:none;stroke:#000000;stroke-width:0.8;" x="214.748548" xlink:href="#m7427582a87" y="434.356333"/>
      </g>
     </g>
     <g id="text_1">
      <!-- $-5.0$ -->
      <defs>
       <path d="M 65.90625 23 
C 67.59375 23 69.40625 23 69.40625 25 
C 69.40625 27 67.59375 27 65.90625 27 
L 11.796875 27 
C 10.09375 27 8.296875 27 8.296875 25 
C 8.296875 23 10.09375 23 11.796875 23 
z
" id="CMSY10-0"/>
       <path d="M 11.40625 57.6875 
C 12.40625 57.28125 16.5 56 20.703125 56 
C 30 56 35.09375 61.109375 38 64.0625 
C 38 64.953125 38 65.5 37.40625 65.5 
C 37.296875 65.5 37.09375 65.5 36.296875 65.046875 
C 32.796875 63.40625 28.703125 62.078125 23.703125 62.078125 
C 20.703125 62.078125 16.203125 62.484375 11.296875 64.671875 
C 10.203125 65.171875 10 65.171875 9.90625 65.171875 
C 9.40625 65.171875 9.296875 65.0625 9.296875 63.078125 
L 9.296875 34.421875 
C 9.296875 32.640625 9.296875 32.140625 10.296875 32.140625 
C 10.796875 32.140625 11 32.34375 11.5 33.03125 
C 14.703125 37.515625 19.09375 39.40625 24.09375 39.40625 
C 27.59375 39.40625 35.09375 37.21875 35.09375 20.140625 
C 35.09375 16.953125 35.09375 11.171875 32.09375 6.578125 
C 29.59375 2.484375 25.703125 0.390625 21.40625 0.390625 
C 14.796875 0.390625 8.09375 5 6.296875 12.71875 
C 6.703125 12.609375 7.5 12.421875 7.90625 12.421875 
C 9.203125 12.421875 11.703125 13.125 11.703125 16.21875 
C 11.703125 18.90625 9.796875 20 7.90625 20 
C 5.59375 20 4.09375 18.59375 4.09375 15.796875 
C 4.09375 7.09375 11 -2 21.59375 -2 
C 31.90625 -2 41.703125 6.875 41.703125 19.75 
C 41.703125 31.71875 33.90625 41 24.203125 41 
C 19.09375 41 14.796875 39.109375 11.40625 35.53125 
z
" id="CMR17-53"/>
       <path d="M 18.40625 4.796875 
C 18.40625 7.6875 16 9.671875 13.59375 9.671875 
C 10.703125 9.671875 8.703125 7.28125 8.703125 4.890625 
C 8.703125 2 11.09375 0 13.5 0 
C 16.40625 0 18.40625 2.390625 18.40625 4.796875 
z
" id="CMMI12-58"/>
       <path d="M 42 31.640625 
C 42 37.75 41.90625 48.125 37.703125 56.109375 
C 34 63.109375 28.09375 65.59375 22.90625 65.59375 
C 18.09375 65.59375 12 63.40625 8.203125 56.203125 
C 4.203125 48.71875 3.796875 39.4375 3.796875 31.640625 
C 3.796875 25.953125 3.90625 17.28125 7 9.671875 
C 11.296875 -0.609375 19 -2 22.90625 -2 
C 27.5 -2 34.5 -0.109375 38.59375 9.375 
C 41.59375 16.28125 42 24.359375 42 31.640625 
z
M 22.90625 -0.40625 
C 16.5 -0.40625 12.703125 5.078125 11.296875 12.6875 
C 10.203125 18.5625 10.203125 27.15625 10.203125 32.75 
C 10.203125 40.4375 10.203125 46.828125 11.5 52.921875 
C 13.40625 61.390625 19 64 22.90625 64 
C 27 64 32.296875 61.296875 34.203125 53.125 
C 35.5 47.4375 35.59375 40.734375 35.59375 32.75 
C 35.59375 26.25 35.59375 18.265625 34.40625 12.375 
C 32.296875 1.484375 26.40625 -0.40625 22.90625 -0.40625 
z
" id="CMR17-48"/>
      </defs>
      <g transform="translate(179.474743 466.910286)scale(0.36 -0.36)">
       <use transform="scale(0.996264)" xlink:href="#CMSY10-0"/>
       <use transform="translate(77.487468 0)scale(0.996264)" xlink:href="#CMR17-53"/>
       <use transform="translate(123.177945 0)scale(0.996264)" xlink:href="#CMMI12-58"/>
       <use transform="translate(150.275122 0)scale(0.996264)" xlink:href="#CMR17-48"/>
      </g>
     </g>
    </g>
    <g id="xtick_2">
     <g id="line2d_2">
      <g>
       <use style="fill:none;stroke:#000000;stroke-width:0.8;" x="362.261913" xlink:href="#m7427582a87" y="434.356333"/>
      </g>
     </g>
     <g id="text_2">
      <!-- $-2.5$ -->
      <defs>
       <path d="M 41.703125 15.453125 
L 39.90625 15.453125 
C 38.90625 8.375 38.09375 7.171875 37.703125 6.5625 
C 37.203125 5.765625 30 5.765625 28.59375 5.765625 
L 9.40625 5.765625 
C 13 9.671875 20 16.75 28.5 24.953125 
C 34.59375 30.734375 41.703125 37.53125 41.703125 47.421875 
C 41.703125 59.21875 32.296875 66 21.796875 66 
C 10.796875 66 4.09375 56.3125 4.09375 47.34375 
C 4.09375 43.4375 7 42.9375 8.203125 42.9375 
C 9.203125 42.9375 12.203125 43.546875 12.203125 47.03125 
C 12.203125 50.109375 9.59375 51 8.203125 51 
C 7.59375 51 7 50.90625 6.59375 50.703125 
C 8.5 59.21875 14.296875 63.40625 20.40625 63.40625 
C 29.09375 63.40625 34.796875 56.515625 34.796875 47.421875 
C 34.796875 38.734375 29.703125 31.25 24 24.75 
L 4.09375 2.28125 
L 4.09375 0 
L 39.296875 0 
z
" id="CMR17-50"/>
      </defs>
      <g transform="translate(326.988107 466.910286)scale(0.36 -0.36)">
       <use transform="scale(0.996264)" xlink:href="#CMSY10-0"/>
       <use transform="translate(77.487468 0)scale(0.996264)" xlink:href="#CMR17-50"/>
       <use transform="translate(123.177945 0)scale(0.996264)" xlink:href="#CMMI12-58"/>
       <use transform="translate(150.275122 0)scale(0.996264)" xlink:href="#CMR17-53"/>
      </g>
     </g>
    </g>
    <g id="xtick_3">
     <g id="line2d_3">
      <g>
       <use style="fill:none;stroke:#000000;stroke-width:0.8;" x="509.775277" xlink:href="#m7427582a87" y="434.356333"/>
      </g>
     </g>
     <g id="text_3">
      <!-- $0.0$ -->
      <g transform="translate(488.449214 466.910286)scale(0.36 -0.36)">
       <use transform="scale(0.996264)" xlink:href="#CMR17-48"/>
       <use transform="translate(45.690477 0)scale(0.996264)" xlink:href="#CMMI12-58"/>
       <use transform="translate(72.787654 0)scale(0.996264)" xlink:href="#CMR17-48"/>
      </g>
     </g>
    </g>
    <g id="xtick_4">
     <g id="line2d_4">
      <g>
       <use style="fill:none;stroke:#000000;stroke-width:0.8;" x="657.288642" xlink:href="#m7427582a87" y="434.356333"/>
      </g>
     </g>
     <g id="text_4">
      <!-- $2.5$ -->
      <g transform="translate(635.962578 466.910286)scale(0.36 -0.36)">
       <use transform="scale(0.996264)" xlink:href="#CMR17-50"/>
       <use transform="translate(45.690477 0)scale(0.996264)" xlink:href="#CMMI12-58"/>
       <use transform="translate(72.787654 0)scale(0.996264)" xlink:href="#CMR17-53"/>
      </g>
     </g>
    </g>
    <g id="text_5">
     <!-- $E/E_{FG}$ -->
     <defs>
      <path d="M 69.5 23.265625 
C 69.59375 23.5625 69.90625 24.28125 69.90625 24.671875 
C 69.90625 25.171875 69.5 25.671875 68.90625 25.671875 
C 68.5 25.671875 68.296875 25.578125 68 25.265625 
C 67.796875 25.171875 67.796875 24.96875 66.90625 22.953125 
C 61 8.90625 56.703125 2.890625 40.703125 2.890625 
L 26.09375 2.890625 
C 24.703125 2.890625 24.5 2.890625 23.90625 3 
C 22.796875 3.09375 22.703125 3.296875 22.703125 4.09375 
C 22.703125 4.796875 22.90625 5.390625 23.09375 6.296875 
L 30 34 
L 39.90625 34 
C 47.703125 34 48.296875 32.28125 48.296875 29.28125 
C 48.296875 28.28125 48.296875 27.375 47.59375 24.375 
C 47.40625 23.96875 47.296875 23.5625 47.296875 23.265625 
C 47.296875 22.5625 47.796875 22.265625 48.40625 22.265625 
C 49.296875 22.265625 49.40625 22.953125 49.796875 24.359375 
L 55.5 47.53125 
C 55.5 48.015625 55.09375 48.515625 54.5 48.515625 
C 53.59375 48.515625 53.5 48.125 53.09375 46.71875 
C 51.09375 39.078125 49.09375 36.890625 40.203125 36.890625 
L 30.703125 36.890625 
L 36.90625 61.40625 
C 37.796875 64.90625 38 64.90625 42.09375 64.90625 
L 56.40625 64.90625 
C 68.703125 64.90625 71.203125 61.609375 71.203125 54.03125 
C 71.203125 53.921875 71.203125 51.140625 70.796875 47.84375 
C 70.703125 47.4375 70.59375 46.84375 70.59375 46.640625 
C 70.59375 45.84375 71.09375 45.546875 71.703125 45.546875 
C 72.40625 45.546875 72.796875 45.953125 73 47.734375 
L 75.09375 65.21875 
C 75.09375 65.546875 75.296875 66.609375 75.296875 66.828125 
C 75.296875 68 74.40625 68 72.59375 68 
L 23.796875 68 
C 21.90625 68 20.90625 68 20.90625 66.078125 
C 20.90625 64.90625 21.59375 64.90625 23.296875 64.90625 
C 29.5 64.90625 29.5 64.28125 29.5 63.3125 
C 29.5 62.8125 29.40625 62.40625 29.09375 61.3125 
L 15.59375 7.390625 
C 14.703125 3.890625 14.5 2.890625 7.5 2.890625 
C 5.59375 2.890625 4.59375 2.890625 4.59375 1.09375 
C 4.59375 0 5.203125 0 7.203125 0 
L 57.40625 0 
C 59.59375 0 59.703125 0.09375 60.40625 1.71875 
z
" id="CMMI12-69"/>
      <path d="M 42.90625 71.28125 
C 42.90625 71.390625 43.5 72.90625 43.5 73.09375 
C 43.5 74.296875 42.5 75 41.703125 75 
C 41.203125 75 40.296875 75 39.5 72.796875 
L 6 -21.296875 
C 6 -21.40625 5.40625 -22.890625 5.40625 -23.09375 
C 5.40625 -24.296875 6.40625 -25 7.203125 -25 
C 7.796875 -25 8.703125 -24.890625 9.40625 -22.796875 
z
" id="CMMI12-61"/>
      <path d="M 29.703125 32.109375 
L 39.296875 32.109375 
C 46.90625 32.109375 47.5 30.40625 47.5 27.515625 
C 47.5 26.21875 47.296875 24.828125 46.796875 22.625 
C 46.59375 22.234375 46.5 21.734375 46.5 21.53125 
C 46.5 20.828125 46.90625 20.4375 47.59375 20.4375 
C 48.40625 20.4375 48.5 20.828125 48.90625 22.421875 
L 54.703125 45.859375 
C 54.703125 46.265625 54.40625 46.859375 53.703125 46.859375 
C 52.796875 46.859375 52.703125 46.46875 52.296875 44.734375 
C 50.203125 37.125 48.203125 35 39.5 35 
L 30.40625 35 
L 36.90625 61.34375 
C 37.796875 64.90625 38 64.90625 42.09375 64.90625 
L 55.5 64.90625 
C 68 64.90625 69.796875 61.21875 69.796875 54.125 
C 69.796875 53.53125 69.796875 51.328125 69.5 48.734375 
C 69.40625 48.34375 69.203125 47.046875 69.203125 46.640625 
C 69.203125 45.84375 69.703125 45.546875 70.296875 45.546875 
C 71 45.546875 71.40625 45.953125 71.59375 47.734375 
L 73.703125 65.21875 
C 73.703125 65.546875 73.90625 66.609375 73.90625 66.828125 
C 73.90625 68 73 68 71.203125 68 
L 23.796875 68 
C 21.90625 68 20.90625 68 20.90625 66.078125 
C 20.90625 64.90625 21.59375 64.90625 23.296875 64.90625 
C 29.5 64.90625 29.5 64.265625 29.5 63.28125 
C 29.5 62.78125 29.40625 62.375 29.09375 61.28125 
L 15.59375 7.390625 
C 14.703125 3.890625 14.5 2.890625 7.5 2.890625 
C 5.59375 2.890625 4.59375 2.890625 4.59375 1.09375 
C 4.59375 0 5.5 0 6.09375 0 
C 8 0 10 0 11.90625 0 
L 24.90625 0 
C 27.09375 0 29.5 0 31.703125 0 
C 32.59375 0 33.796875 0 33.796875 1.796875 
C 33.796875 2.890625 33.203125 2.890625 31 2.890625 
C 23.09375 2.890625 22.90625 3.578125 22.90625 5.0625 
C 22.90625 5.5625 23.09375 6.34375 23.296875 7.015625 
z
" id="CMMI12-70"/>
      <path d="M 74.59375 69.109375 
C 74.59375 70 73.90625 70 73.703125 70 
C 73.5 70 73.09375 70 72.296875 69 
L 65.40625 60.765625 
C 64.90625 61.5625 62.90625 65.046875 59 67.328125 
C 54.703125 70 50.40625 70 48.90625 70 
C 27.5 70 5 48.359375 5 24.921875 
C 5 8.53125 16.40625 -2 31.40625 -2 
C 38.59375 -2 47.703125 0.390625 52.703125 6.671875 
C 53.796875 2.890625 56 0.1875 56.703125 0.1875 
C 57.203125 0.1875 57.296875 0.5 57.40625 0.5 
C 57.5 0.6875 58.296875 4.21875 58.796875 6.015625 
L 60.40625 12.453125 
C 61.203125 15.765625 61.59375 17.171875 62.296875 20.171875 
C 63.296875 24 63.5 24 69 24 
C 69.40625 24 70.59375 24 70.59375 26.03125 
C 70.59375 27.09375 69.59375 27.09375 69.296875 27.09375 
C 67.59375 27.09375 65.703125 27.09375 63.90625 27.09375 
L 58.5 27.09375 
C 54.296875 27.09375 49.90625 27.09375 45.796875 27.09375 
C 44.90625 27.09375 43.703125 27.09375 43.703125 25.171875 
C 43.703125 24.09375 44.5 24.09375 44.5 24 
L 47 24 
C 54.90625 24 54.90625 23.265625 54.90625 21.90625 
C 54.90625 21.796875 53 11.734375 51.09375 8.765625 
C 47.296875 3.1875 39.40625 0.890625 33.5 0.890625 
C 25.796875 0.890625 13.296875 4.875 13.296875 22.03125 
C 13.296875 28.6875 15.703125 43.875 25.40625 55.09375 
C 31.703125 62.25 41 67.109375 49.796875 67.109375 
C 61.59375 67.109375 65.796875 57.109375 65.796875 47.984375 
C 65.796875 46.40625 65.40625 44.234375 65.40625 42.84375 
C 65.40625 41.953125 66.40625 41.953125 66.703125 41.953125 
C 67.796875 41.953125 67.90625 42.046875 68.296875 43.828125 
z
" id="CMMI12-71"/>
     </defs>
     <g transform="translate(332.401371 509.912054)scale(0.4 -0.4)">
      <use transform="translate(0 14.943915)scale(0.996264)" xlink:href="#CMMI12-69"/>
      <use transform="translate(78.051636 14.943915)scale(0.996264)" xlink:href="#CMMI12-61"/>
      <use transform="translate(126.826555 14.943915)scale(0.996264)" xlink:href="#CMMI12-69"/>
      <use transform="translate(199.037773 0)scale(0.697382)" xlink:href="#CMMI12-70"/>
      <use transform="translate(252.725284 0)scale(0.697382)" xlink:href="#CMMI12-71"/>
     </g>
    </g>
   </g>
   <g id="matplotlib.axis_2">
    <g id="ytick_1">
     <g id="line2d_5">
      <defs>
       <path d="M 0 0 
L -3.5 0 
" id="m2550e3d73c" style="stroke:#000000;stroke-width:0.8;"/>
      </defs>
      <g>
       <use style="fill:none;stroke:#000000;stroke-width:0.8;" x="92.53783" xlink:href="#m2550e3d73c" y="379.945966"/>
      </g>
     </g>
     <g id="text_6">
      <!-- $10^{-4}$ -->
      <defs>
       <path d="M 26.59375 63.40625 
C 26.59375 65.5 26.5 65.5 25.09375 65.5 
C 21.203125 61.1875 15.296875 59.796875 9.703125 59.796875 
C 9.40625 59.796875 8.90625 59.796875 8.796875 59.5 
C 8.703125 59.296875 8.703125 59.09375 8.703125 57 
C 11.796875 57 17 57.59375 21 59.984375 
L 21 7.203125 
C 21 3.6875 20.796875 2.5 12.203125 2.5 
L 9.203125 2.5 
L 9.203125 0 
C 14 0 19 0 23.796875 0 
C 28.59375 0 33.59375 0 38.40625 0 
L 38.40625 2.5 
L 35.40625 2.5 
C 26.796875 2.5 26.59375 3.59375 26.59375 7.15625 
z
" id="CMR17-49"/>
       <path d="M 33.59375 64.40625 
C 33.59375 66.5 33.5 66.5 31.703125 66.5 
L 2 19.59375 
L 2 17 
L 27.796875 17 
L 27.796875 7.140625 
C 27.796875 3.5 27.59375 2.5 20.59375 2.5 
L 18.703125 2.5 
L 18.703125 0 
C 21.90625 0 27.296875 0 30.703125 0 
C 34.09375 0 39.5 0 42.703125 0 
L 42.703125 2.5 
L 40.796875 2.5 
C 33.796875 2.5 33.59375 3.5 33.59375 7.140625 
L 33.59375 17 
L 43.796875 17 
L 43.796875 19.59375 
L 33.59375 19.59375 
z
M 28.09375 57.859375 
L 28.09375 19.59375 
L 4 19.59375 
z
" id="CMR17-52"/>
      </defs>
      <g transform="translate(21.6 392.722943)scale(0.36 -0.36)">
       <use transform="scale(0.996264)" xlink:href="#CMR17-49"/>
       <use transform="translate(45.690477 0)scale(0.996264)" xlink:href="#CMR17-48"/>
       <use transform="translate(91.380954 36.153639)scale(0.697382)" xlink:href="#CMSY10-0"/>
       <use transform="translate(145.621947 36.153639)scale(0.697382)" xlink:href="#CMR17-52"/>
      </g>
     </g>
    </g>
    <g id="ytick_2">
     <g id="line2d_6">
      <g>
       <use style="fill:none;stroke:#000000;stroke-width:0.8;" x="92.53783" xlink:href="#m2550e3d73c" y="287.054628"/>
      </g>
     </g>
     <g id="text_7">
      <!-- $10^{-3}$ -->
      <defs>
       <path d="M 22.09375 33.703125 
C 31 33.703125 34.90625 25.96875 34.90625 17.03125 
C 34.90625 5 28.5 0.390625 22.703125 0.390625 
C 17.40625 0.390625 8.796875 3.03125 6.09375 10.828125 
C 6.59375 10.625 7.09375 10.625 7.59375 10.625 
C 10 10.625 11.796875 12.21875 11.796875 14.8125 
C 11.796875 17.703125 9.59375 19 7.59375 19 
C 5.90625 19 3.296875 18.203125 3.296875 14.46875 
C 3.296875 5.234375 12.296875 -2 22.90625 -2 
C 34 -2 42.5 6.71875 42.5 16.953125 
C 42.5 26.671875 34.5 33.703125 25 34.796875 
C 32.59375 36.375 39.90625 43.0625 39.90625 52.015625 
C 39.90625 59.6875 32 65.296875 23 65.296875 
C 13.90625 65.296875 5.90625 59.828125 5.90625 52.015625 
C 5.90625 48.59375 8.5 48 9.796875 48 
C 11.90625 48 13.703125 49.296875 13.703125 51.890625 
C 13.703125 54.46875 11.90625 55.765625 9.796875 55.765625 
C 9.40625 55.765625 8.90625 55.765625 8.5 55.578125 
C 11.40625 61.859375 19.296875 63 22.796875 63 
C 26.296875 63 32.90625 61.328125 32.90625 51.875 
C 32.90625 49.109375 32.5 44.1875 29.09375 39.84375 
C 26.09375 36 22.703125 36 19.40625 35.6875 
C 18.90625 35.6875 16.59375 35.453125 16.203125 35.453125 
C 15.5 35.359375 15.09375 35.265625 15.09375 34.5 
C 15.09375 33.796875 15.203125 33.703125 17.203125 33.703125 
z
" id="CMR17-51"/>
      </defs>
      <g transform="translate(21.6 299.831604)scale(0.36 -0.36)">
       <use transform="scale(0.996264)" xlink:href="#CMR17-49"/>
       <use transform="translate(45.690477 0)scale(0.996264)" xlink:href="#CMR17-48"/>
       <use transform="translate(91.380954 36.153639)scale(0.697382)" xlink:href="#CMSY10-0"/>
       <use transform="translate(145.621947 36.153639)scale(0.697382)" xlink:href="#CMR17-51"/>
      </g>
     </g>
    </g>
    <g id="ytick_3">
     <g id="line2d_7">
      <g>
       <use style="fill:none;stroke:#000000;stroke-width:0.8;" x="92.53783" xlink:href="#m2550e3d73c" y="194.163289"/>
      </g>
     </g>
     <g id="text_8">
      <!-- $10^{-2}$ -->
      <g transform="translate(21.6 206.940266)scale(0.36 -0.36)">
       <use transform="scale(0.996264)" xlink:href="#CMR17-49"/>
       <use transform="translate(45.690477 0)scale(0.996264)" xlink:href="#CMR17-48"/>
       <use transform="translate(91.380954 36.153639)scale(0.697382)" xlink:href="#CMSY10-0"/>
       <use transform="translate(145.621947 36.153639)scale(0.697382)" xlink:href="#CMR17-50"/>
      </g>
     </g>
    </g>
    <g id="ytick_4">
     <g id="line2d_8">
      <g>
       <use style="fill:none;stroke:#000000;stroke-width:0.8;" x="92.53783" xlink:href="#m2550e3d73c" y="101.27195"/>
      </g>
     </g>
     <g id="text_9">
      <!-- $10^{-1}$ -->
      <g transform="translate(21.6 114.048927)scale(0.36 -0.36)">
       <use transform="scale(0.996264)" xlink:href="#CMR17-49"/>
       <use transform="translate(45.690477 0)scale(0.996264)" xlink:href="#CMR17-48"/>
       <use transform="translate(91.380954 36.153639)scale(0.697382)" xlink:href="#CMSY10-0"/>
       <use transform="translate(145.621947 36.153639)scale(0.697382)" xlink:href="#CMR17-49"/>
      </g>
     </g>
    </g>
    <g id="ytick_5">
     <g id="line2d_9">
      <defs>
       <path d="M 0 0 
L -2 0 
" id="m80c3e75488" style="stroke:#000000;stroke-width:0.6;"/>
      </defs>
      <g>
       <use style="fill:none;stroke:#000000;stroke-width:0.6;" x="92.53783" xlink:href="#m80c3e75488" y="428.516873"/>
      </g>
     </g>
    </g>
    <g id="ytick_6">
     <g id="line2d_10">
      <g>
       <use style="fill:none;stroke:#000000;stroke-width:0.6;" x="92.53783" xlink:href="#m80c3e75488" y="416.911147"/>
      </g>
     </g>
    </g>
    <g id="ytick_7">
     <g id="line2d_11">
      <g>
       <use style="fill:none;stroke:#000000;stroke-width:0.6;" x="92.53783" xlink:href="#m80c3e75488" y="407.909046"/>
      </g>
     </g>
    </g>
    <g id="ytick_8">
     <g id="line2d_12">
      <g>
       <use style="fill:none;stroke:#000000;stroke-width:0.6;" x="92.53783" xlink:href="#m80c3e75488" y="400.553794"/>
      </g>
     </g>
    </g>
    <g id="ytick_9">
     <g id="line2d_13">
      <g>
       <use style="fill:none;stroke:#000000;stroke-width:0.6;" x="92.53783" xlink:href="#m80c3e75488" y="394.335017"/>
      </g>
     </g>
    </g>
    <g id="ytick_10">
     <g id="line2d_14">
      <g>
       <use style="fill:none;stroke:#000000;stroke-width:0.6;" x="92.53783" xlink:href="#m80c3e75488" y="388.948067"/>
      </g>
     </g>
    </g>
    <g id="ytick_11">
     <g id="line2d_15">
      <g>
       <use style="fill:none;stroke:#000000;stroke-width:0.6;" x="92.53783" xlink:href="#m80c3e75488" y="384.196441"/>
      </g>
     </g>
    </g>
    <g id="ytick_12">
     <g id="line2d_16">
      <g>
       <use style="fill:none;stroke:#000000;stroke-width:0.6;" x="92.53783" xlink:href="#m80c3e75488" y="351.982887"/>
      </g>
     </g>
    </g>
    <g id="ytick_13">
     <g id="line2d_17">
      <g>
       <use style="fill:none;stroke:#000000;stroke-width:0.6;" x="92.53783" xlink:href="#m80c3e75488" y="335.625534"/>
      </g>
     </g>
    </g>
    <g id="ytick_14">
     <g id="line2d_18">
      <g>
       <use style="fill:none;stroke:#000000;stroke-width:0.6;" x="92.53783" xlink:href="#m80c3e75488" y="324.019808"/>
      </g>
     </g>
    </g>
    <g id="ytick_15">
     <g id="line2d_19">
      <g>
       <use style="fill:none;stroke:#000000;stroke-width:0.6;" x="92.53783" xlink:href="#m80c3e75488" y="315.017707"/>
      </g>
     </g>
    </g>
    <g id="ytick_16">
     <g id="line2d_20">
      <g>
       <use style="fill:none;stroke:#000000;stroke-width:0.6;" x="92.53783" xlink:href="#m80c3e75488" y="307.662455"/>
      </g>
     </g>
    </g>
    <g id="ytick_17">
     <g id="line2d_21">
      <g>
       <use style="fill:none;stroke:#000000;stroke-width:0.6;" x="92.53783" xlink:href="#m80c3e75488" y="301.443678"/>
      </g>
     </g>
    </g>
    <g id="ytick_18">
     <g id="line2d_22">
      <g>
       <use style="fill:none;stroke:#000000;stroke-width:0.6;" x="92.53783" xlink:href="#m80c3e75488" y="296.056729"/>
      </g>
     </g>
    </g>
    <g id="ytick_19">
     <g id="line2d_23">
      <g>
       <use style="fill:none;stroke:#000000;stroke-width:0.6;" x="92.53783" xlink:href="#m80c3e75488" y="291.305102"/>
      </g>
     </g>
    </g>
    <g id="ytick_20">
     <g id="line2d_24">
      <g>
       <use style="fill:none;stroke:#000000;stroke-width:0.6;" x="92.53783" xlink:href="#m80c3e75488" y="259.091549"/>
      </g>
     </g>
    </g>
    <g id="ytick_21">
     <g id="line2d_25">
      <g>
       <use style="fill:none;stroke:#000000;stroke-width:0.6;" x="92.53783" xlink:href="#m80c3e75488" y="242.734196"/>
      </g>
     </g>
    </g>
    <g id="ytick_22">
     <g id="line2d_26">
      <g>
       <use style="fill:none;stroke:#000000;stroke-width:0.6;" x="92.53783" xlink:href="#m80c3e75488" y="231.128469"/>
      </g>
     </g>
    </g>
    <g id="ytick_23">
     <g id="line2d_27">
      <g>
       <use style="fill:none;stroke:#000000;stroke-width:0.6;" x="92.53783" xlink:href="#m80c3e75488" y="222.126368"/>
      </g>
     </g>
    </g>
    <g id="ytick_24">
     <g id="line2d_28">
      <g>
       <use style="fill:none;stroke:#000000;stroke-width:0.6;" x="92.53783" xlink:href="#m80c3e75488" y="214.771116"/>
      </g>
     </g>
    </g>
    <g id="ytick_25">
     <g id="line2d_29">
      <g>
       <use style="fill:none;stroke:#000000;stroke-width:0.6;" x="92.53783" xlink:href="#m80c3e75488" y="208.55234"/>
      </g>
     </g>
    </g>
    <g id="ytick_26">
     <g id="line2d_30">
      <g>
       <use style="fill:none;stroke:#000000;stroke-width:0.6;" x="92.53783" xlink:href="#m80c3e75488" y="203.16539"/>
      </g>
     </g>
    </g>
    <g id="ytick_27">
     <g id="line2d_31">
      <g>
       <use style="fill:none;stroke:#000000;stroke-width:0.6;" x="92.53783" xlink:href="#m80c3e75488" y="198.413764"/>
      </g>
     </g>
    </g>
    <g id="ytick_28">
     <g id="line2d_32">
      <g>
       <use style="fill:none;stroke:#000000;stroke-width:0.6;" x="92.53783" xlink:href="#m80c3e75488" y="166.20021"/>
      </g>
     </g>
    </g>
    <g id="ytick_29">
     <g id="line2d_33">
      <g>
       <use style="fill:none;stroke:#000000;stroke-width:0.6;" x="92.53783" xlink:href="#m80c3e75488" y="149.842857"/>
      </g>
     </g>
    </g>
    <g id="ytick_30">
     <g id="line2d_34">
      <g>
       <use style="fill:none;stroke:#000000;stroke-width:0.6;" x="92.53783" xlink:href="#m80c3e75488" y="138.237131"/>
      </g>
     </g>
    </g>
    <g id="ytick_31">
     <g id="line2d_35">
      <g>
       <use style="fill:none;stroke:#000000;stroke-width:0.6;" x="92.53783" xlink:href="#m80c3e75488" y="129.23503"/>
      </g>
     </g>
    </g>
    <g id="ytick_32">
     <g id="line2d_36">
      <g>
       <use style="fill:none;stroke:#000000;stroke-width:0.6;" x="92.53783" xlink:href="#m80c3e75488" y="121.879778"/>
      </g>
     </g>
    </g>
    <g id="ytick_33">
     <g id="line2d_37">
      <g>
       <use style="fill:none;stroke:#000000;stroke-width:0.6;" x="92.53783" xlink:href="#m80c3e75488" y="115.661001"/>
      </g>
     </g>
    </g>
    <g id="ytick_34">
     <g id="line2d_38">
      <g>
       <use style="fill:none;stroke:#000000;stroke-width:0.6;" x="92.53783" xlink:href="#m80c3e75488" y="110.274051"/>
      </g>
     </g>
    </g>
    <g id="ytick_35">
     <g id="line2d_39">
      <g>
       <use style="fill:none;stroke:#000000;stroke-width:0.6;" x="92.53783" xlink:href="#m80c3e75488" y="105.522425"/>
      </g>
     </g>
    </g>
    <g id="ytick_36">
     <g id="line2d_40">
      <g>
       <use style="fill:none;stroke:#000000;stroke-width:0.6;" x="92.53783" xlink:href="#m80c3e75488" y="73.308871"/>
      </g>
     </g>
    </g>
    <g id="ytick_37">
     <g id="line2d_41">
      <g>
       <use style="fill:none;stroke:#000000;stroke-width:0.6;" x="92.53783" xlink:href="#m80c3e75488" y="56.951518"/>
      </g>
     </g>
    </g>
    <g id="ytick_38">
     <g id="line2d_42">
      <g>
       <use style="fill:none;stroke:#000000;stroke-width:0.6;" x="92.53783" xlink:href="#m80c3e75488" y="45.345792"/>
      </g>
     </g>
    </g>
    <g id="ytick_39">
     <g id="line2d_43">
      <g>
       <use style="fill:none;stroke:#000000;stroke-width:0.6;" x="92.53783" xlink:href="#m80c3e75488" y="36.343691"/>
      </g>
     </g>
    </g>
    <g id="ytick_40">
     <g id="line2d_44">
      <g>
       <use style="fill:none;stroke:#000000;stroke-width:0.6;" x="92.53783" xlink:href="#m80c3e75488" y="28.988439"/>
      </g>
     </g>
    </g>
   </g>
   <g id="line2d_45">
    <path clip-path="url(#p516d134beb)" d="M 119.917929 415.753772 
L 125.449262 401.079349 
L 130.980595 386.704403 
L 136.511928 372.628936 
L 142.043261 358.852947 
L 147.574594 345.376435 
L 153.105927 332.199402 
L 158.63726 319.321847 
L 164.168593 306.74377 
L 169.699926 294.46517 
L 175.231259 282.486049 
L 180.762592 270.806406 
L 186.293925 259.426241 
L 191.825259 248.345554 
L 197.356592 237.564345 
L 202.887925 227.082614 
L 208.419258 216.900361 
L 213.950591 207.017586 
L 219.481924 197.434289 
L 225.013257 188.15047 
L 230.54459 179.166129 
L 236.075923 170.481267 
L 241.607256 162.095882 
L 247.138589 154.009975 
L 252.669922 146.223546 
L 258.201255 138.736596 
L 263.732588 131.549123 
L 269.263921 124.661128 
L 274.795254 118.072612 
L 280.326587 111.783573 
L 285.85792 105.794012 
L 291.389254 100.10393 
L 296.920587 94.713325 
L 302.45192 89.622199 
L 307.983253 84.83055 
L 313.514586 80.33838 
L 319.045919 76.145688 
L 324.577252 72.252473 
L 330.108585 68.658737 
L 335.639918 65.364479 
L 341.171251 62.369698 
L 346.702584 59.674396 
L 352.233917 57.278572 
L 357.76525 55.182226 
L 363.296583 53.385357 
L 368.827916 51.887967 
L 374.359249 50.690055 
L 379.890582 49.791621 
L 385.421916 49.192665 
L 390.953249 48.893187 
L 396.484582 48.893187 
L 402.015915 49.192665 
L 407.547248 49.791621 
L 413.078581 50.690055 
L 418.609914 51.887967 
L 424.141247 53.385357 
L 429.67258 55.182226 
L 435.203913 57.278572 
L 440.735246 59.674396 
L 446.266579 62.369698 
L 451.797912 65.364479 
L 457.329245 68.658737 
L 462.860578 72.252473 
L 468.391911 76.145688 
L 473.923244 80.33838 
L 479.454577 84.83055 
L 484.985911 89.622199 
L 490.517244 94.713325 
L 496.048577 100.10393 
L 501.57991 105.794012 
L 507.111243 111.783573 
L 512.642576 118.072612 
L 518.173909 124.661128 
L 523.705242 131.549123 
L 529.236575 138.736596 
L 534.767908 146.223546 
L 540.299241 154.009975 
L 545.830574 162.095882 
L 551.361907 170.481267 
L 556.89324 179.166129 
L 562.424573 188.15047 
L 567.955906 197.434289 
L 573.487239 207.017586 
L 579.018572 216.900361 
L 584.549906 227.082614 
L 590.081239 237.564345 
L 595.612572 248.345554 
L 601.143905 259.426241 
L 606.675238 270.806406 
L 612.206571 282.486049 
L 617.737904 294.46517 
L 623.269237 306.74377 
L 628.80057 319.321847 
L 634.331903 332.199402 
L 639.863236 345.376435 
L 645.394569 358.852947 
L 650.925902 372.628936 
L 656.457235 386.704403 
L 661.988568 401.079349 
L 667.519901 415.753772 
" style="fill:none;stroke:#187795;stroke-linecap:square;stroke-width:5;"/>
   </g>
   <g id="patch_53">
    <path d="M 92.53783 434.356333 
L 92.53783 25.1 
" style="fill:none;stroke:#000000;stroke-linecap:square;stroke-linejoin:miter;stroke-width:1.5;"/>
   </g>
   <g id="patch_54">
    <path d="M 694.9 434.356333 
L 694.9 25.1 
" style="fill:none;stroke:#000000;stroke-linecap:square;stroke-linejoin:miter;stroke-width:1.5;"/>
   </g>
   <g id="patch_55">
    <path d="M 92.53783 434.356333 
L 694.9 434.356333 
" style="fill:none;stroke:#000000;stroke-linecap:square;stroke-linejoin:miter;stroke-width:1.5;"/>
   </g>
   <g id="patch_56">
    <path d="M 92.53783 25.1 
L 694.9 25.1 
" style="fill:none;stroke:#000000;stroke-linecap:square;stroke-linejoin:miter;stroke-width:1.5;"/>
   </g>
  </g>
  <g id="text_10">
   <!-- $\gamma\ = $ -3.0 -->
   <defs>
    <path d="M 37.796875 11.875 
C 37.59375 16.734375 37.40625 24.390625 33.59375 33.328125 
C 31.59375 38.3125 28.203125 43.5625 20.90625 43.5625 
C 8.59375 43.5625 1.90625 27.96875 1.90625 25.390625 
C 1.90625 24.484375 2.59375 24.484375 2.90625 24.484375 
C 3.796875 24.484375 3.796875 24.6875 4.296875 25.984375 
C 6.40625 32.140625 12.796875 37 19.703125 37 
C 33.59375 37 35.59375 21.609375 35.59375 11.78125 
C 35.59375 5.5 34.90625 3.4375 34.296875 1.4375 
C 32.40625 -4.71875 29.09375 -17.03125 29.09375 -19.8125 
C 29.09375 -20.609375 29.40625 -21.5 30.203125 -21.5 
C 31.703125 -21.5 32.59375 -18.21875 33.703125 -14.25 
C 36.09375 -5.515625 36.703125 -1.140625 37.203125 2.828125 
C 37.5 5.21875 43.203125 21.625 51.09375 37.21875 
C 51.796875 38.796875 53.203125 41.484375 53.203125 41.78125 
C 53.203125 41.875 53.09375 42.578125 52.203125 42.578125 
C 52 42.578125 51.5 42.578125 51.296875 42.171875 
C 51.09375 41.984375 47.59375 35.21875 44.59375 28.46875 
C 43.09375 25.09375 41.09375 20.625 37.796875 11.875 
z
" id="CMMI12-13"/>
    <path d="M 64.296875 31.515625 
C 65.796875 31.515625 67.296875 31.515625 67.296875 33.203125 
C 67.296875 35 65.59375 35 63.90625 35 
L 8 35 
C 6.296875 35 4.59375 35 4.59375 33.203125 
C 4.59375 31.515625 6.09375 31.515625 7.59375 31.515625 
z
M 63.90625 14 
C 65.59375 14 67.296875 14 67.296875 15.796875 
C 67.296875 17.484375 65.796875 17.484375 64.296875 17.484375 
L 7.59375 17.484375 
C 6.09375 17.484375 4.59375 17.484375 4.59375 15.796875 
C 4.59375 14 6.296875 14 8 14 
z
" id="CMR17-61"/>
    <path d="M 28.40625 31.203125 
L 4.59375 31.203125 
L 4.59375 24 
L 28.40625 24 
z
" id="Nimbus_Sans_L_Regular-45"/>
    <path d="M 22.09375 33 
L 23.203125 33 
L 26.90625 33 
C 36.59375 33 41.59375 28.59375 41.59375 20.0625 
C 41.59375 11.125 36.09375 5.8125 26.90625 5.8125 
C 17.296875 5.8125 12.59375 10.640625 12 21.015625 
L 3.203125 21.015625 
C 3.59375 15.28125 4.59375 11.5625 6.296875 8.34375 
C 9.90625 1.515625 16.90625 -2 26.59375 -2 
C 41.203125 -2 50.59375 6.734375 50.59375 20.203125 
C 50.59375 29.25 47.09375 34.28125 38.59375 37.203125 
C 45.203125 39.78125 48.5 44.71875 48.5 51.734375 
C 48.5 63.78125 40.40625 71 26.90625 71 
C 12.59375 71 5 63.28125 4.703125 48.359375 
L 13.5 48.359375 
C 13.59375 52.59375 14 54.953125 15.09375 57.109375 
C 17.09375 60.9375 21.5 63.296875 27 63.296875 
C 34.796875 63.296875 39.5 58.75 39.5 51.359375 
C 39.5 46.421875 37.703125 43.453125 33.796875 41.890625 
C 31.40625 40.90625 28.296875 40.5 22.09375 40.5 
z
" id="Nimbus_Sans_L_Regular-51"/>
    <path d="M 19.09375 10.421875 
L 8.703125 10.421875 
L 8.703125 0 
L 19.09375 0 
z
" id="Nimbus_Sans_L_Regular-46"/>
    <path d="M 27.5 71 
C 20.90625 71 14.90625 68.125 11.203125 63.21875 
C 6.59375 57.046875 4.296875 47.5625 4.296875 34.5 
C 4.296875 10.671875 12.296875 -2 27.5 -2 
C 42.5 -2 50.703125 10.671875 50.703125 33.90625 
C 50.703125 47.65625 48.5 56.84375 43.796875 63.21875 
C 40.09375 68.21875 34.203125 71 27.5 71 
z
M 27.5 63.1875 
C 37 63.1875 41.703125 53.625 41.703125 34.703125 
C 41.703125 14.671875 37.09375 5.3125 27.296875 5.3125 
C 18 5.3125 13.296875 15.078125 13.296875 34.40625 
C 13.296875 53.71875 18 63.1875 27.5 63.1875 
z
" id="Nimbus_Sans_L_Regular-48"/>
   </defs>
   <g transform="translate(108 75.6)scale(0.4 -0.4)">
    <use transform="scale(0.996264)" xlink:href="#CMMI12-13"/>
    <use transform="translate(111.387746 0)scale(0.996264)" xlink:href="#CMR17-61"/>
    <use transform="translate(210.797704 0)scale(0.996264)" xlink:href="#Nimbus_Sans_L_Regular-45"/>
    <use transform="translate(243.972934 0)scale(0.996264)" xlink:href="#Nimbus_Sans_L_Regular-51"/>
    <use transform="translate(299.364611 0)scale(0.996264)" xlink:href="#Nimbus_Sans_L_Regular-46"/>
    <use transform="translate(327.059781 0)scale(0.996264)" xlink:href="#Nimbus_Sans_L_Regular-48"/>
   </g>
  </g>
 </g>
 <defs>
  <clipPath id="p516d134beb">
   <rect height="409.256333" width="602.36217" x="92.53783" y="25.1"/>
  </clipPath>
 </defs>
</svg>
