<?xml version="1.0" encoding="utf-8" standalone="no"?>
<!DOCTYPE svg PUBLIC "-//W3C//DTD SVG 1.1//EN"
  "http://www.w3.org/Graphics/SVG/1.1/DTD/svg11.dtd">
<!-- Created with matplotlib (http://matplotlib.org/) -->
<svg height="540pt" version="1.1" viewBox="0 0 720 540" width="720pt" xmlns="http://www.w3.org/2000/svg" xmlns:xlink="http://www.w3.org/1999/xlink">
 <defs>
  <style type="text/css">
*{stroke-linecap:butt;stroke-linejoin:round;}
  </style>
 </defs>
 <g id="figure_1">
  <g id="patch_1">
   <path d="M 0 540 
L 720 540 
L 720 0 
L 0 0 
z
" style="fill:#ffffff;"/>
  </g>
  <g id="axes_1">
   <g id="patch_2">
    <path d="M 86.4 475.2 
L 702 475.2 
L 702 21.6 
L 86.4 21.6 
z
" style="fill:#ffffff;"/>
   </g>
   <g id="matplotlib.axis_1">
    <g id="xtick_1">
     <g id="line2d_1">
      <defs>
       <path d="M 0 0 
L 0 3.5 
" id="md296bf4879" style="stroke:#000000;stroke-width:2;"/>
      </defs>
      <g>
       <use style="stroke:#000000;stroke-width:2;" x="86.4" xlink:href="#md296bf4879" y="475.2"/>
      </g>
     </g>
     <g id="text_1">
      <!-- $0.0$ -->
      <defs>
       <path d="M 42 31.640625 
C 42 37.75 41.90625 48.125 37.703125 56.109375 
C 34 63.109375 28.09375 65.59375 22.90625 65.59375 
C 18.09375 65.59375 12 63.40625 8.203125 56.203125 
C 4.203125 48.71875 3.796875 39.4375 3.796875 31.640625 
C 3.796875 25.953125 3.90625 17.28125 7 9.671875 
C 11.296875 -0.609375 19 -2 22.90625 -2 
C 27.5 -2 34.5 -0.109375 38.59375 9.375 
C 41.59375 16.28125 42 24.359375 42 31.640625 
z
M 22.90625 -0.40625 
C 16.5 -0.40625 12.703125 5.078125 11.296875 12.6875 
C 10.203125 18.5625 10.203125 27.15625 10.203125 32.75 
C 10.203125 40.4375 10.203125 46.828125 11.5 52.921875 
C 13.40625 61.390625 19 64 22.90625 64 
C 27 64 32.296875 61.296875 34.203125 53.125 
C 35.5 47.4375 35.59375 40.734375 35.59375 32.75 
C 35.59375 26.25 35.59375 18.265625 34.40625 12.375 
C 32.296875 1.484375 26.40625 -0.40625 22.90625 -0.40625 
z
" id="CMR17-48"/>
       <path d="M 18.40625 4.796875 
C 18.40625 7.6875 16 9.671875 13.59375 9.671875 
C 10.703125 9.671875 8.703125 7.28125 8.703125 4.890625 
C 8.703125 2 11.09375 0 13.5 0 
C 16.40625 0 18.40625 2.390625 18.40625 4.796875 
z
" id="CMMI12-58"/>
      </defs>
      <g transform="translate(72.182624 499.235969)scale(0.24 -0.24)">
       <use transform="scale(0.996264)" xlink:href="#CMR17-48"/>
       <use transform="translate(45.690477 0)scale(0.996264)" xlink:href="#CMMI12-58"/>
       <use transform="translate(72.787654 0)scale(0.996264)" xlink:href="#CMR17-48"/>
      </g>
     </g>
    </g>
    <g id="xtick_2">
     <g id="line2d_2">
      <g>
       <use style="stroke:#000000;stroke-width:2;" x="182.5875" xlink:href="#md296bf4879" y="475.2"/>
      </g>
     </g>
     <g id="text_2">
      <!-- $0.5$ -->
      <defs>
       <path d="M 11.40625 57.6875 
C 12.40625 57.28125 16.5 56 20.703125 56 
C 30 56 35.09375 61.109375 38 64.0625 
C 38 64.953125 38 65.5 37.40625 65.5 
C 37.296875 65.5 37.09375 65.5 36.296875 65.046875 
C 32.796875 63.40625 28.703125 62.078125 23.703125 62.078125 
C 20.703125 62.078125 16.203125 62.484375 11.296875 64.671875 
C 10.203125 65.171875 10 65.171875 9.90625 65.171875 
C 9.40625 65.171875 9.296875 65.0625 9.296875 63.078125 
L 9.296875 34.421875 
C 9.296875 32.640625 9.296875 32.140625 10.296875 32.140625 
C 10.796875 32.140625 11 32.34375 11.5 33.03125 
C 14.703125 37.515625 19.09375 39.40625 24.09375 39.40625 
C 27.59375 39.40625 35.09375 37.21875 35.09375 20.140625 
C 35.09375 16.953125 35.09375 11.171875 32.09375 6.578125 
C 29.59375 2.484375 25.703125 0.390625 21.40625 0.390625 
C 14.796875 0.390625 8.09375 5 6.296875 12.71875 
C 6.703125 12.609375 7.5 12.421875 7.90625 12.421875 
C 9.203125 12.421875 11.703125 13.125 11.703125 16.21875 
C 11.703125 18.90625 9.796875 20 7.90625 20 
C 5.59375 20 4.09375 18.59375 4.09375 15.796875 
C 4.09375 7.09375 11 -2 21.59375 -2 
C 31.90625 -2 41.703125 6.875 41.703125 19.75 
C 41.703125 31.71875 33.90625 41 24.203125 41 
C 19.09375 41 14.796875 39.109375 11.40625 35.53125 
z
" id="CMR17-53"/>
      </defs>
      <g transform="translate(168.370124 499.235969)scale(0.24 -0.24)">
       <use transform="scale(0.996264)" xlink:href="#CMR17-48"/>
       <use transform="translate(45.690477 0)scale(0.996264)" xlink:href="#CMMI12-58"/>
       <use transform="translate(72.787654 0)scale(0.996264)" xlink:href="#CMR17-53"/>
      </g>
     </g>
    </g>
    <g id="xtick_3">
     <g id="line2d_3">
      <g>
       <use style="stroke:#000000;stroke-width:2;" x="278.775" xlink:href="#md296bf4879" y="475.2"/>
      </g>
     </g>
     <g id="text_3">
      <!-- $1.0$ -->
      <defs>
       <path d="M 26.59375 63.40625 
C 26.59375 65.5 26.5 65.5 25.09375 65.5 
C 21.203125 61.1875 15.296875 59.796875 9.703125 59.796875 
C 9.40625 59.796875 8.90625 59.796875 8.796875 59.5 
C 8.703125 59.296875 8.703125 59.09375 8.703125 57 
C 11.796875 57 17 57.59375 21 59.984375 
L 21 7.203125 
C 21 3.6875 20.796875 2.5 12.203125 2.5 
L 9.203125 2.5 
L 9.203125 0 
C 14 0 19 0 23.796875 0 
C 28.59375 0 33.59375 0 38.40625 0 
L 38.40625 2.5 
L 35.40625 2.5 
C 26.796875 2.5 26.59375 3.59375 26.59375 7.15625 
z
" id="CMR17-49"/>
      </defs>
      <g transform="translate(264.557624 499.235969)scale(0.24 -0.24)">
       <use transform="scale(0.996264)" xlink:href="#CMR17-49"/>
       <use transform="translate(45.690477 0)scale(0.996264)" xlink:href="#CMMI12-58"/>
       <use transform="translate(72.787654 0)scale(0.996264)" xlink:href="#CMR17-48"/>
      </g>
     </g>
    </g>
    <g id="xtick_4">
     <g id="line2d_4">
      <g>
       <use style="stroke:#000000;stroke-width:2;" x="374.9625" xlink:href="#md296bf4879" y="475.2"/>
      </g>
     </g>
     <g id="text_4">
      <!-- $1.5$ -->
      <g transform="translate(360.745124 499.235969)scale(0.24 -0.24)">
       <use transform="scale(0.996264)" xlink:href="#CMR17-49"/>
       <use transform="translate(45.690477 0)scale(0.996264)" xlink:href="#CMMI12-58"/>
       <use transform="translate(72.787654 0)scale(0.996264)" xlink:href="#CMR17-53"/>
      </g>
     </g>
    </g>
    <g id="xtick_5">
     <g id="line2d_5">
      <g>
       <use style="stroke:#000000;stroke-width:2;" x="471.15" xlink:href="#md296bf4879" y="475.2"/>
      </g>
     </g>
     <g id="text_5">
      <!-- $2.0$ -->
      <defs>
       <path d="M 41.703125 15.453125 
L 39.90625 15.453125 
C 38.90625 8.375 38.09375 7.171875 37.703125 6.5625 
C 37.203125 5.765625 30 5.765625 28.59375 5.765625 
L 9.40625 5.765625 
C 13 9.671875 20 16.75 28.5 24.953125 
C 34.59375 30.734375 41.703125 37.53125 41.703125 47.421875 
C 41.703125 59.21875 32.296875 66 21.796875 66 
C 10.796875 66 4.09375 56.3125 4.09375 47.34375 
C 4.09375 43.4375 7 42.9375 8.203125 42.9375 
C 9.203125 42.9375 12.203125 43.546875 12.203125 47.03125 
C 12.203125 50.109375 9.59375 51 8.203125 51 
C 7.59375 51 7 50.90625 6.59375 50.703125 
C 8.5 59.21875 14.296875 63.40625 20.40625 63.40625 
C 29.09375 63.40625 34.796875 56.515625 34.796875 47.421875 
C 34.796875 38.734375 29.703125 31.25 24 24.75 
L 4.09375 2.28125 
L 4.09375 0 
L 39.296875 0 
z
" id="CMR17-50"/>
      </defs>
      <g transform="translate(456.932624 499.235969)scale(0.24 -0.24)">
       <use transform="scale(0.996264)" xlink:href="#CMR17-50"/>
       <use transform="translate(45.690477 0)scale(0.996264)" xlink:href="#CMMI12-58"/>
       <use transform="translate(72.787654 0)scale(0.996264)" xlink:href="#CMR17-48"/>
      </g>
     </g>
    </g>
    <g id="xtick_6">
     <g id="line2d_6">
      <g>
       <use style="stroke:#000000;stroke-width:2;" x="567.3375" xlink:href="#md296bf4879" y="475.2"/>
      </g>
     </g>
     <g id="text_6">
      <!-- $2.5$ -->
      <g transform="translate(553.120124 499.235969)scale(0.24 -0.24)">
       <use transform="scale(0.996264)" xlink:href="#CMR17-50"/>
       <use transform="translate(45.690477 0)scale(0.996264)" xlink:href="#CMMI12-58"/>
       <use transform="translate(72.787654 0)scale(0.996264)" xlink:href="#CMR17-53"/>
      </g>
     </g>
    </g>
    <g id="xtick_7">
     <g id="line2d_7">
      <g>
       <use style="stroke:#000000;stroke-width:2;" x="663.525" xlink:href="#md296bf4879" y="475.2"/>
      </g>
     </g>
     <g id="text_7">
      <!-- $3.0$ -->
      <defs>
       <path d="M 22.09375 33.703125 
C 31 33.703125 34.90625 25.96875 34.90625 17.03125 
C 34.90625 5 28.5 0.390625 22.703125 0.390625 
C 17.40625 0.390625 8.796875 3.03125 6.09375 10.828125 
C 6.59375 10.625 7.09375 10.625 7.59375 10.625 
C 10 10.625 11.796875 12.21875 11.796875 14.8125 
C 11.796875 17.703125 9.59375 19 7.59375 19 
C 5.90625 19 3.296875 18.203125 3.296875 14.46875 
C 3.296875 5.234375 12.296875 -2 22.90625 -2 
C 34 -2 42.5 6.71875 42.5 16.953125 
C 42.5 26.671875 34.5 33.703125 25 34.796875 
C 32.59375 36.375 39.90625 43.0625 39.90625 52.015625 
C 39.90625 59.6875 32 65.296875 23 65.296875 
C 13.90625 65.296875 5.90625 59.828125 5.90625 52.015625 
C 5.90625 48.59375 8.5 48 9.796875 48 
C 11.90625 48 13.703125 49.296875 13.703125 51.890625 
C 13.703125 54.46875 11.90625 55.765625 9.796875 55.765625 
C 9.40625 55.765625 8.90625 55.765625 8.5 55.578125 
C 11.40625 61.859375 19.296875 63 22.796875 63 
C 26.296875 63 32.90625 61.328125 32.90625 51.875 
C 32.90625 49.109375 32.5 44.1875 29.09375 39.84375 
C 26.09375 36 22.703125 36 19.40625 35.6875 
C 18.90625 35.6875 16.59375 35.453125 16.203125 35.453125 
C 15.5 35.359375 15.09375 35.265625 15.09375 34.5 
C 15.09375 33.796875 15.203125 33.703125 17.203125 33.703125 
z
" id="CMR17-51"/>
      </defs>
      <g transform="translate(649.307624 499.235969)scale(0.24 -0.24)">
       <use transform="scale(0.996264)" xlink:href="#CMR17-51"/>
       <use transform="translate(45.690477 0)scale(0.996264)" xlink:href="#CMMI12-58"/>
       <use transform="translate(72.787654 0)scale(0.996264)" xlink:href="#CMR17-48"/>
      </g>
     </g>
    </g>
    <g id="text_8">
     <!-- $|\gamma|$ -->
     <defs>
      <path d="M 15.90625 71.40625 
C 15.90625 73.203125 15.90625 75 13.90625 75 
C 11.90625 75 11.90625 73.203125 11.90625 71.40625 
L 11.90625 -21.40625 
C 11.90625 -23.203125 11.90625 -25 13.90625 -25 
C 15.90625 -25 15.90625 -23.203125 15.90625 -21.40625 
z
" id="CMSY10-106"/>
      <path d="M 37.796875 11.875 
C 37.59375 16.734375 37.40625 24.390625 33.59375 33.328125 
C 31.59375 38.3125 28.203125 43.5625 20.90625 43.5625 
C 8.59375 43.5625 1.90625 27.96875 1.90625 25.390625 
C 1.90625 24.484375 2.59375 24.484375 2.90625 24.484375 
C 3.796875 24.484375 3.796875 24.6875 4.296875 25.984375 
C 6.40625 32.140625 12.796875 37 19.703125 37 
C 33.59375 37 35.59375 21.609375 35.59375 11.78125 
C 35.59375 5.5 34.90625 3.4375 34.296875 1.4375 
C 32.40625 -4.71875 29.09375 -17.03125 29.09375 -19.8125 
C 29.09375 -20.609375 29.40625 -21.5 30.203125 -21.5 
C 31.703125 -21.5 32.59375 -18.21875 33.703125 -14.25 
C 36.09375 -5.515625 36.703125 -1.140625 37.203125 2.828125 
C 37.5 5.21875 43.203125 21.625 51.09375 37.21875 
C 51.796875 38.796875 53.203125 41.484375 53.203125 41.78125 
C 53.203125 41.875 53.09375 42.578125 52.203125 42.578125 
C 52 42.578125 51.5 42.578125 51.296875 42.171875 
C 51.09375 41.984375 47.59375 35.21875 44.59375 28.46875 
C 43.09375 25.09375 41.09375 20.625 37.796875 11.875 
z
" id="CMMI12-13"/>
     </defs>
     <g transform="translate(380.835991 526.261485)scale(0.24 -0.24)">
      <use transform="scale(0.996264)" xlink:href="#CMSY10-106"/>
      <use transform="translate(27.674085 0)scale(0.996264)" xlink:href="#CMMI12-13"/>
      <use transform="translate(83.692653 0)scale(0.996264)" xlink:href="#CMSY10-106"/>
     </g>
    </g>
   </g>
   <g id="matplotlib.axis_2">
    <g id="ytick_1">
     <g id="line2d_8">
      <defs>
       <path d="M 0 0 
L -3.5 0 
" id="mb08509f521" style="stroke:#000000;stroke-width:2;"/>
      </defs>
      <g>
       <use style="stroke:#000000;stroke-width:2;" x="86.4" xlink:href="#mb08509f521" y="450.345205"/>
      </g>
     </g>
     <g id="text_9">
      <!-- $-2$ -->
      <defs>
       <path d="M 65.90625 23 
C 67.59375 23 69.40625 23 69.40625 25 
C 69.40625 27 67.59375 27 65.90625 27 
L 11.796875 27 
C 10.09375 27 8.296875 27 8.296875 25 
C 8.296875 23 10.09375 23 11.796875 23 
z
" id="CMSY10-0"/>
      </defs>
      <g transform="translate(49.837291 458.86319)scale(0.24 -0.24)">
       <use transform="scale(0.996264)" xlink:href="#CMSY10-0"/>
       <use transform="translate(77.487468 0)scale(0.996264)" xlink:href="#CMR17-50"/>
      </g>
     </g>
    </g>
    <g id="ytick_2">
     <g id="line2d_9">
      <g>
       <use style="stroke:#000000;stroke-width:2;" x="86.4" xlink:href="#mb08509f521" y="388.208219"/>
      </g>
     </g>
     <g id="text_10">
      <!-- $-1$ -->
      <g transform="translate(49.837291 396.726203)scale(0.24 -0.24)">
       <use transform="scale(0.996264)" xlink:href="#CMSY10-0"/>
       <use transform="translate(77.487468 0)scale(0.996264)" xlink:href="#CMR17-49"/>
      </g>
     </g>
    </g>
    <g id="ytick_3">
     <g id="line2d_10">
      <g>
       <use style="stroke:#000000;stroke-width:2;" x="86.4" xlink:href="#mb08509f521" y="326.071233"/>
      </g>
     </g>
     <g id="text_11">
      <!-- $0$ -->
      <g transform="translate(68.434285 334.589217)scale(0.24 -0.24)">
       <use transform="scale(0.996264)" xlink:href="#CMR17-48"/>
      </g>
     </g>
    </g>
    <g id="ytick_4">
     <g id="line2d_11">
      <g>
       <use style="stroke:#000000;stroke-width:2;" x="86.4" xlink:href="#mb08509f521" y="263.934247"/>
      </g>
     </g>
     <g id="text_12">
      <!-- $1$ -->
      <g transform="translate(68.434285 272.452231)scale(0.24 -0.24)">
       <use transform="scale(0.996264)" xlink:href="#CMR17-49"/>
      </g>
     </g>
    </g>
    <g id="ytick_5">
     <g id="line2d_12">
      <g>
       <use style="stroke:#000000;stroke-width:2;" x="86.4" xlink:href="#mb08509f521" y="201.79726"/>
      </g>
     </g>
     <g id="text_13">
      <!-- $2$ -->
      <g transform="translate(68.434285 210.315245)scale(0.24 -0.24)">
       <use transform="scale(0.996264)" xlink:href="#CMR17-50"/>
      </g>
     </g>
    </g>
    <g id="ytick_6">
     <g id="line2d_13">
      <g>
       <use style="stroke:#000000;stroke-width:2;" x="86.4" xlink:href="#mb08509f521" y="139.660274"/>
      </g>
     </g>
     <g id="text_14">
      <!-- $3$ -->
      <g transform="translate(68.434285 148.178258)scale(0.24 -0.24)">
       <use transform="scale(0.996264)" xlink:href="#CMR17-51"/>
      </g>
     </g>
    </g>
    <g id="ytick_7">
     <g id="line2d_14">
      <g>
       <use style="stroke:#000000;stroke-width:2;" x="86.4" xlink:href="#mb08509f521" y="77.523288"/>
      </g>
     </g>
     <g id="text_15">
      <!-- $4$ -->
      <defs>
       <path d="M 33.59375 64.40625 
C 33.59375 66.5 33.5 66.5 31.703125 66.5 
L 2 19.59375 
L 2 17 
L 27.796875 17 
L 27.796875 7.140625 
C 27.796875 3.5 27.59375 2.5 20.59375 2.5 
L 18.703125 2.5 
L 18.703125 0 
C 21.90625 0 27.296875 0 30.703125 0 
C 34.09375 0 39.5 0 42.703125 0 
L 42.703125 2.5 
L 40.796875 2.5 
C 33.796875 2.5 33.59375 3.5 33.59375 7.140625 
L 33.59375 17 
L 43.796875 17 
L 43.796875 19.59375 
L 33.59375 19.59375 
z
M 28.09375 57.859375 
L 28.09375 19.59375 
L 4 19.59375 
z
" id="CMR17-52"/>
      </defs>
      <g transform="translate(68.434285 86.041272)scale(0.24 -0.24)">
       <use transform="scale(0.996264)" xlink:href="#CMR17-52"/>
      </g>
     </g>
    </g>
    <g id="text_16">
     <!-- $E/E_{FG}$ -->
     <defs>
      <path d="M 69.5 23.265625 
C 69.59375 23.5625 69.90625 24.28125 69.90625 24.671875 
C 69.90625 25.171875 69.5 25.671875 68.90625 25.671875 
C 68.5 25.671875 68.296875 25.578125 68 25.265625 
C 67.796875 25.171875 67.796875 24.96875 66.90625 22.953125 
C 61 8.90625 56.703125 2.890625 40.703125 2.890625 
L 26.09375 2.890625 
C 24.703125 2.890625 24.5 2.890625 23.90625 3 
C 22.796875 3.09375 22.703125 3.296875 22.703125 4.09375 
C 22.703125 4.796875 22.90625 5.390625 23.09375 6.296875 
L 30 34 
L 39.90625 34 
C 47.703125 34 48.296875 32.28125 48.296875 29.28125 
C 48.296875 28.28125 48.296875 27.375 47.59375 24.375 
C 47.40625 23.96875 47.296875 23.5625 47.296875 23.265625 
C 47.296875 22.5625 47.796875 22.265625 48.40625 22.265625 
C 49.296875 22.265625 49.40625 22.953125 49.796875 24.359375 
L 55.5 47.53125 
C 55.5 48.015625 55.09375 48.515625 54.5 48.515625 
C 53.59375 48.515625 53.5 48.125 53.09375 46.71875 
C 51.09375 39.078125 49.09375 36.890625 40.203125 36.890625 
L 30.703125 36.890625 
L 36.90625 61.40625 
C 37.796875 64.90625 38 64.90625 42.09375 64.90625 
L 56.40625 64.90625 
C 68.703125 64.90625 71.203125 61.609375 71.203125 54.03125 
C 71.203125 53.921875 71.203125 51.140625 70.796875 47.84375 
C 70.703125 47.4375 70.59375 46.84375 70.59375 46.640625 
C 70.59375 45.84375 71.09375 45.546875 71.703125 45.546875 
C 72.40625 45.546875 72.796875 45.953125 73 47.734375 
L 75.09375 65.21875 
C 75.09375 65.546875 75.296875 66.609375 75.296875 66.828125 
C 75.296875 68 74.40625 68 72.59375 68 
L 23.796875 68 
C 21.90625 68 20.90625 68 20.90625 66.078125 
C 20.90625 64.90625 21.59375 64.90625 23.296875 64.90625 
C 29.5 64.90625 29.5 64.28125 29.5 63.3125 
C 29.5 62.8125 29.40625 62.40625 29.09375 61.3125 
L 15.59375 7.390625 
C 14.703125 3.890625 14.5 2.890625 7.5 2.890625 
C 5.59375 2.890625 4.59375 2.890625 4.59375 1.09375 
C 4.59375 0 5.203125 0 7.203125 0 
L 57.40625 0 
C 59.59375 0 59.703125 0.09375 60.40625 1.71875 
z
" id="CMMI12-69"/>
      <path d="M 42.90625 71.28125 
C 42.90625 71.390625 43.5 72.90625 43.5 73.09375 
C 43.5 74.296875 42.5 75 41.703125 75 
C 41.203125 75 40.296875 75 39.5 72.796875 
L 6 -21.296875 
C 6 -21.40625 5.40625 -22.890625 5.40625 -23.09375 
C 5.40625 -24.296875 6.40625 -25 7.203125 -25 
C 7.796875 -25 8.703125 -24.890625 9.40625 -22.796875 
z
" id="CMMI12-61"/>
      <path d="M 29.703125 32.109375 
L 39.296875 32.109375 
C 46.90625 32.109375 47.5 30.40625 47.5 27.515625 
C 47.5 26.21875 47.296875 24.828125 46.796875 22.625 
C 46.59375 22.234375 46.5 21.734375 46.5 21.53125 
C 46.5 20.828125 46.90625 20.4375 47.59375 20.4375 
C 48.40625 20.4375 48.5 20.828125 48.90625 22.421875 
L 54.703125 45.859375 
C 54.703125 46.265625 54.40625 46.859375 53.703125 46.859375 
C 52.796875 46.859375 52.703125 46.46875 52.296875 44.734375 
C 50.203125 37.125 48.203125 35 39.5 35 
L 30.40625 35 
L 36.90625 61.34375 
C 37.796875 64.90625 38 64.90625 42.09375 64.90625 
L 55.5 64.90625 
C 68 64.90625 69.796875 61.21875 69.796875 54.125 
C 69.796875 53.53125 69.796875 51.328125 69.5 48.734375 
C 69.40625 48.34375 69.203125 47.046875 69.203125 46.640625 
C 69.203125 45.84375 69.703125 45.546875 70.296875 45.546875 
C 71 45.546875 71.40625 45.953125 71.59375 47.734375 
L 73.703125 65.21875 
C 73.703125 65.546875 73.90625 66.609375 73.90625 66.828125 
C 73.90625 68 73 68 71.203125 68 
L 23.796875 68 
C 21.90625 68 20.90625 68 20.90625 66.078125 
C 20.90625 64.90625 21.59375 64.90625 23.296875 64.90625 
C 29.5 64.90625 29.5 64.265625 29.5 63.28125 
C 29.5 62.78125 29.40625 62.375 29.09375 61.28125 
L 15.59375 7.390625 
C 14.703125 3.890625 14.5 2.890625 7.5 2.890625 
C 5.59375 2.890625 4.59375 2.890625 4.59375 1.09375 
C 4.59375 0 5.5 0 6.09375 0 
C 8 0 10 0 11.90625 0 
L 24.90625 0 
C 27.09375 0 29.5 0 31.703125 0 
C 32.59375 0 33.796875 0 33.796875 1.796875 
C 33.796875 2.890625 33.203125 2.890625 31 2.890625 
C 23.09375 2.890625 22.90625 3.578125 22.90625 5.0625 
C 22.90625 5.5625 23.09375 6.34375 23.296875 7.015625 
z
" id="CMMI12-70"/>
      <path d="M 74.59375 69.109375 
C 74.59375 70 73.90625 70 73.703125 70 
C 73.5 70 73.09375 70 72.296875 69 
L 65.40625 60.765625 
C 64.90625 61.5625 62.90625 65.046875 59 67.328125 
C 54.703125 70 50.40625 70 48.90625 70 
C 27.5 70 5 48.359375 5 24.921875 
C 5 8.53125 16.40625 -2 31.40625 -2 
C 38.59375 -2 47.703125 0.390625 52.703125 6.671875 
C 53.796875 2.890625 56 0.1875 56.703125 0.1875 
C 57.203125 0.1875 57.296875 0.5 57.40625 0.5 
C 57.5 0.6875 58.296875 4.21875 58.796875 6.015625 
L 60.40625 12.453125 
C 61.203125 15.765625 61.59375 17.171875 62.296875 20.171875 
C 63.296875 24 63.5 24 69 24 
C 69.40625 24 70.59375 24 70.59375 26.03125 
C 70.59375 27.09375 69.59375 27.09375 69.296875 27.09375 
C 67.59375 27.09375 65.703125 27.09375 63.90625 27.09375 
L 58.5 27.09375 
C 54.296875 27.09375 49.90625 27.09375 45.796875 27.09375 
C 44.90625 27.09375 43.703125 27.09375 43.703125 25.171875 
C 43.703125 24.09375 44.5 24.09375 44.5 24 
L 47 24 
C 54.90625 24 54.90625 23.265625 54.90625 21.90625 
C 54.90625 21.796875 53 11.734375 51.09375 8.765625 
C 47.296875 3.1875 39.40625 0.890625 33.5 0.890625 
C 25.796875 0.890625 13.296875 4.875 13.296875 22.03125 
C 13.296875 28.6875 15.703125 43.875 25.40625 55.09375 
C 31.703125 62.25 41 67.109375 49.796875 67.109375 
C 61.59375 67.109375 65.796875 57.109375 65.796875 47.984375 
C 65.796875 46.40625 65.40625 44.234375 65.40625 42.84375 
C 65.40625 41.953125 66.40625 41.953125 66.703125 41.953125 
C 67.796875 41.953125 67.90625 42.046875 68.296875 43.828125 
z
" id="CMMI12-71"/>
     </defs>
     <g transform="translate(40.744527 285.190518)rotate(-90)scale(0.24 -0.24)">
      <use transform="translate(0 14.943915)scale(0.996264)" xlink:href="#CMMI12-69"/>
      <use transform="translate(78.051636 14.943915)scale(0.996264)" xlink:href="#CMMI12-61"/>
      <use transform="translate(126.826555 14.943915)scale(0.996264)" xlink:href="#CMMI12-69"/>
      <use transform="translate(199.037773 0)scale(0.697382)" xlink:href="#CMMI12-70"/>
      <use transform="translate(252.725284 0)scale(0.697382)" xlink:href="#CMMI12-71"/>
     </g>
    </g>
   </g>
   <g id="LineCollection_1">
    <path clip-path="url(#pdbb0127bcf)" d="M 124.875 275.57205 
L 124.875 274.569119 
" style="fill:none;stroke:#0d153a;stroke-width:3;"/>
    <path clip-path="url(#pdbb0127bcf)" d="M 201.825 292.506699 
L 201.825 290.653398 
" style="fill:none;stroke:#0d153a;stroke-width:3;"/>
    <path clip-path="url(#pdbb0127bcf)" d="M 278.775 312.879733 
L 278.775 310.307291 
" style="fill:none;stroke:#0d153a;stroke-width:3;"/>
    <path clip-path="url(#pdbb0127bcf)" d="M 355.725 333.426812 
L 355.725 330.454796 
" style="fill:none;stroke:#0d153a;stroke-width:3;"/>
    <path clip-path="url(#pdbb0127bcf)" d="M 432.675 357.531338 
L 432.675 353.83462 
" style="fill:none;stroke:#0d153a;stroke-width:3;"/>
    <path clip-path="url(#pdbb0127bcf)" d="M 509.625 386.89864 
L 509.625 382.492835 
" style="fill:none;stroke:#0d153a;stroke-width:3;"/>
    <path clip-path="url(#pdbb0127bcf)" d="M 586.575 418.483882 
L 586.575 413.485133 
" style="fill:none;stroke:#0d153a;stroke-width:3;"/>
    <path clip-path="url(#pdbb0127bcf)" d="M 663.525 452.916085 
L 663.525 447.301815 
" style="fill:none;stroke:#0d153a;stroke-width:3;"/>
   </g>
   <g id="LineCollection_2">
    <path clip-path="url(#pdbb0127bcf)" d="M 124.875 244.56444 
L 124.875 243.566468 
" style="fill:none;stroke:#a42604;stroke-width:3;"/>
    <path clip-path="url(#pdbb0127bcf)" d="M 201.825 259.079382 
L 201.825 257.296796 
" style="fill:none;stroke:#a42604;stroke-width:3;"/>
    <path clip-path="url(#pdbb0127bcf)" d="M 278.775 275.681601 
L 278.775 273.19722 
" style="fill:none;stroke:#a42604;stroke-width:3;"/>
    <path clip-path="url(#pdbb0127bcf)" d="M 355.725 290.877026 
L 355.725 287.868042 
" style="fill:none;stroke:#a42604;stroke-width:3;"/>
    <path clip-path="url(#pdbb0127bcf)" d="M 432.675 309.754716 
L 432.675 306.243665 
" style="fill:none;stroke:#a42604;stroke-width:3;"/>
    <path clip-path="url(#pdbb0127bcf)" d="M 509.625 330.982137 
L 509.625 326.660295 
" style="fill:none;stroke:#a42604;stroke-width:3;"/>
    <path clip-path="url(#pdbb0127bcf)" d="M 586.575 352.352598 
L 586.575 347.693253 
" style="fill:none;stroke:#a42604;stroke-width:3;"/>
    <path clip-path="url(#pdbb0127bcf)" d="M 663.525 375.247141 
L 663.525 369.959672 
" style="fill:none;stroke:#a42604;stroke-width:3;"/>
   </g>
   <g id="LineCollection_3">
    <path clip-path="url(#pdbb0127bcf)" d="M 124.875 151.320807 
L 124.875 150.353427 
" style="fill:none;stroke:#187795;stroke-width:3;"/>
    <path clip-path="url(#pdbb0127bcf)" d="M 201.825 157.410389 
L 201.825 155.606501 
" style="fill:none;stroke:#187795;stroke-width:3;"/>
    <path clip-path="url(#pdbb0127bcf)" d="M 278.775 164.985873 
L 278.775 162.504252 
" style="fill:none;stroke:#187795;stroke-width:3;"/>
    <path clip-path="url(#pdbb0127bcf)" d="M 355.725 169.093042 
L 355.725 166.340517 
" style="fill:none;stroke:#187795;stroke-width:3;"/>
    <path clip-path="url(#pdbb0127bcf)" d="M 432.675 178.092749 
L 432.675 174.705836 
" style="fill:none;stroke:#187795;stroke-width:3;"/>
    <path clip-path="url(#pdbb0127bcf)" d="M 509.625 186.226627 
L 509.625 182.387313 
" style="fill:none;stroke:#187795;stroke-width:3;"/>
    <path clip-path="url(#pdbb0127bcf)" d="M 586.575 196.139002 
L 586.575 191.743318 
" style="fill:none;stroke:#187795;stroke-width:3;"/>
    <path clip-path="url(#pdbb0127bcf)" d="M 663.525 205.084769 
L 663.525 200.310206 
" style="fill:none;stroke:#187795;stroke-width:3;"/>
   </g>
   <g id="line2d_15">
    <defs>
     <path d="M 3 0 
L -3 -0 
" id="m7f5b0f4795" style="stroke:#0d153a;stroke-width:3;"/>
    </defs>
    <g clip-path="url(#pdbb0127bcf)">
     <use style="fill:#0d153a;stroke:#0d153a;stroke-width:3;" x="124.875" xlink:href="#m7f5b0f4795" y="275.57205"/>
     <use style="fill:#0d153a;stroke:#0d153a;stroke-width:3;" x="201.825" xlink:href="#m7f5b0f4795" y="292.506699"/>
     <use style="fill:#0d153a;stroke:#0d153a;stroke-width:3;" x="278.775" xlink:href="#m7f5b0f4795" y="312.879733"/>
     <use style="fill:#0d153a;stroke:#0d153a;stroke-width:3;" x="355.725" xlink:href="#m7f5b0f4795" y="333.426812"/>
     <use style="fill:#0d153a;stroke:#0d153a;stroke-width:3;" x="432.675" xlink:href="#m7f5b0f4795" y="357.531338"/>
     <use style="fill:#0d153a;stroke:#0d153a;stroke-width:3;" x="509.625" xlink:href="#m7f5b0f4795" y="386.89864"/>
     <use style="fill:#0d153a;stroke:#0d153a;stroke-width:3;" x="586.575" xlink:href="#m7f5b0f4795" y="418.483882"/>
     <use style="fill:#0d153a;stroke:#0d153a;stroke-width:3;" x="663.525" xlink:href="#m7f5b0f4795" y="452.916085"/>
    </g>
   </g>
   <g id="line2d_16">
    <g clip-path="url(#pdbb0127bcf)">
     <use style="fill:#0d153a;stroke:#0d153a;stroke-width:3;" x="124.875" xlink:href="#m7f5b0f4795" y="274.569119"/>
     <use style="fill:#0d153a;stroke:#0d153a;stroke-width:3;" x="201.825" xlink:href="#m7f5b0f4795" y="290.653398"/>
     <use style="fill:#0d153a;stroke:#0d153a;stroke-width:3;" x="278.775" xlink:href="#m7f5b0f4795" y="310.307291"/>
     <use style="fill:#0d153a;stroke:#0d153a;stroke-width:3;" x="355.725" xlink:href="#m7f5b0f4795" y="330.454796"/>
     <use style="fill:#0d153a;stroke:#0d153a;stroke-width:3;" x="432.675" xlink:href="#m7f5b0f4795" y="353.83462"/>
     <use style="fill:#0d153a;stroke:#0d153a;stroke-width:3;" x="509.625" xlink:href="#m7f5b0f4795" y="382.492835"/>
     <use style="fill:#0d153a;stroke:#0d153a;stroke-width:3;" x="586.575" xlink:href="#m7f5b0f4795" y="413.485133"/>
     <use style="fill:#0d153a;stroke:#0d153a;stroke-width:3;" x="663.525" xlink:href="#m7f5b0f4795" y="447.301815"/>
    </g>
   </g>
   <g id="line2d_17">
    <path clip-path="url(#pdbb0127bcf)" d="M 373.03875 322.704115 
L 86.4 266.419726 
L 86.4 266.419726 
" style="fill:none;stroke:#0d153a;stroke-dasharray:11.1,4.8;stroke-dashoffset:0;stroke-width:3;"/>
   </g>
   <g id="line2d_18">
    <defs>
     <path d="M 3 0 
L -3 -0 
" id="m68fb633b02" style="stroke:#a42604;stroke-width:3;"/>
    </defs>
    <g clip-path="url(#pdbb0127bcf)">
     <use style="fill:#a42604;stroke:#a42604;stroke-width:3;" x="124.875" xlink:href="#m68fb633b02" y="244.56444"/>
     <use style="fill:#a42604;stroke:#a42604;stroke-width:3;" x="201.825" xlink:href="#m68fb633b02" y="259.079382"/>
     <use style="fill:#a42604;stroke:#a42604;stroke-width:3;" x="278.775" xlink:href="#m68fb633b02" y="275.681601"/>
     <use style="fill:#a42604;stroke:#a42604;stroke-width:3;" x="355.725" xlink:href="#m68fb633b02" y="290.877026"/>
     <use style="fill:#a42604;stroke:#a42604;stroke-width:3;" x="432.675" xlink:href="#m68fb633b02" y="309.754716"/>
     <use style="fill:#a42604;stroke:#a42604;stroke-width:3;" x="509.625" xlink:href="#m68fb633b02" y="330.982137"/>
     <use style="fill:#a42604;stroke:#a42604;stroke-width:3;" x="586.575" xlink:href="#m68fb633b02" y="352.352598"/>
     <use style="fill:#a42604;stroke:#a42604;stroke-width:3;" x="663.525" xlink:href="#m68fb633b02" y="375.247141"/>
    </g>
   </g>
   <g id="line2d_19">
    <g clip-path="url(#pdbb0127bcf)">
     <use style="fill:#a42604;stroke:#a42604;stroke-width:3;" x="124.875" xlink:href="#m68fb633b02" y="243.566468"/>
     <use style="fill:#a42604;stroke:#a42604;stroke-width:3;" x="201.825" xlink:href="#m68fb633b02" y="257.296796"/>
     <use style="fill:#a42604;stroke:#a42604;stroke-width:3;" x="278.775" xlink:href="#m68fb633b02" y="273.19722"/>
     <use style="fill:#a42604;stroke:#a42604;stroke-width:3;" x="355.725" xlink:href="#m68fb633b02" y="287.868042"/>
     <use style="fill:#a42604;stroke:#a42604;stroke-width:3;" x="432.675" xlink:href="#m68fb633b02" y="306.243665"/>
     <use style="fill:#a42604;stroke:#a42604;stroke-width:3;" x="509.625" xlink:href="#m68fb633b02" y="326.660295"/>
     <use style="fill:#a42604;stroke:#a42604;stroke-width:3;" x="586.575" xlink:href="#m68fb633b02" y="347.693253"/>
     <use style="fill:#a42604;stroke:#a42604;stroke-width:3;" x="663.525" xlink:href="#m68fb633b02" y="369.959672"/>
    </g>
   </g>
   <g id="line2d_20">
    <path clip-path="url(#pdbb0127bcf)" d="M 373.03875 283.87286 
L 86.4 236.593973 
L 86.4 236.593973 
" style="fill:none;stroke:#a42604;stroke-dasharray:11.1,4.8;stroke-dashoffset:0;stroke-width:3;"/>
   </g>
   <g id="line2d_21">
    <defs>
     <path d="M 3 0 
L -3 -0 
" id="ma65e983dd5" style="stroke:#187795;stroke-width:3;"/>
    </defs>
    <g clip-path="url(#pdbb0127bcf)">
     <use style="fill:#187795;stroke:#187795;stroke-width:3;" x="124.875" xlink:href="#ma65e983dd5" y="151.320807"/>
     <use style="fill:#187795;stroke:#187795;stroke-width:3;" x="201.825" xlink:href="#ma65e983dd5" y="157.410389"/>
     <use style="fill:#187795;stroke:#187795;stroke-width:3;" x="278.775" xlink:href="#ma65e983dd5" y="164.985873"/>
     <use style="fill:#187795;stroke:#187795;stroke-width:3;" x="355.725" xlink:href="#ma65e983dd5" y="169.093042"/>
     <use style="fill:#187795;stroke:#187795;stroke-width:3;" x="432.675" xlink:href="#ma65e983dd5" y="178.092749"/>
     <use style="fill:#187795;stroke:#187795;stroke-width:3;" x="509.625" xlink:href="#ma65e983dd5" y="186.226627"/>
     <use style="fill:#187795;stroke:#187795;stroke-width:3;" x="586.575" xlink:href="#ma65e983dd5" y="196.139002"/>
     <use style="fill:#187795;stroke:#187795;stroke-width:3;" x="663.525" xlink:href="#ma65e983dd5" y="205.084769"/>
    </g>
   </g>
   <g id="line2d_22">
    <g clip-path="url(#pdbb0127bcf)">
     <use style="fill:#187795;stroke:#187795;stroke-width:3;" x="124.875" xlink:href="#ma65e983dd5" y="150.353427"/>
     <use style="fill:#187795;stroke:#187795;stroke-width:3;" x="201.825" xlink:href="#ma65e983dd5" y="155.606501"/>
     <use style="fill:#187795;stroke:#187795;stroke-width:3;" x="278.775" xlink:href="#ma65e983dd5" y="162.504252"/>
     <use style="fill:#187795;stroke:#187795;stroke-width:3;" x="355.725" xlink:href="#ma65e983dd5" y="166.340517"/>
     <use style="fill:#187795;stroke:#187795;stroke-width:3;" x="432.675" xlink:href="#ma65e983dd5" y="174.705836"/>
     <use style="fill:#187795;stroke:#187795;stroke-width:3;" x="509.625" xlink:href="#ma65e983dd5" y="182.387313"/>
     <use style="fill:#187795;stroke:#187795;stroke-width:3;" x="586.575" xlink:href="#ma65e983dd5" y="191.743318"/>
     <use style="fill:#187795;stroke:#187795;stroke-width:3;" x="663.525" xlink:href="#ma65e983dd5" y="200.310206"/>
    </g>
   </g>
   <g id="line2d_23">
    <path clip-path="url(#pdbb0127bcf)" d="M 373.03875 167.379093 
L 86.4 147.116712 
L 86.4 147.116712 
" style="fill:none;stroke:#187795;stroke-dasharray:11.1,4.8;stroke-dashoffset:0;stroke-width:3;"/>
   </g>
   <g id="line2d_24">
    <path clip-path="url(#pdbb0127bcf)" d="M 86.4 76.280548 
L 702 76.280548 
" style="fill:none;stroke:#808080;stroke-dasharray:11.1,4.8;stroke-dashoffset:0;stroke-width:3;"/>
   </g>
   <g id="line2d_25">
    <defs>
     <path d="M -4 4 
L 4 4 
L 4 -4 
L -4 -4 
z
" id="m2e40897744" style="stroke:#0d153a;stroke-linejoin:miter;stroke-width:3;"/>
    </defs>
    <g clip-path="url(#pdbb0127bcf)">
     <use style="fill:#0d153a;stroke:#0d153a;stroke-linejoin:miter;stroke-width:3;" x="124.875" xlink:href="#m2e40897744" y="275.070584"/>
     <use style="fill:#0d153a;stroke:#0d153a;stroke-linejoin:miter;stroke-width:3;" x="201.825" xlink:href="#m2e40897744" y="291.580048"/>
     <use style="fill:#0d153a;stroke:#0d153a;stroke-linejoin:miter;stroke-width:3;" x="278.775" xlink:href="#m2e40897744" y="311.593512"/>
     <use style="fill:#0d153a;stroke:#0d153a;stroke-linejoin:miter;stroke-width:3;" x="355.725" xlink:href="#m2e40897744" y="331.940804"/>
     <use style="fill:#0d153a;stroke:#0d153a;stroke-linejoin:miter;stroke-width:3;" x="432.675" xlink:href="#m2e40897744" y="355.682979"/>
     <use style="fill:#0d153a;stroke:#0d153a;stroke-linejoin:miter;stroke-width:3;" x="509.625" xlink:href="#m2e40897744" y="384.695738"/>
     <use style="fill:#0d153a;stroke:#0d153a;stroke-linejoin:miter;stroke-width:3;" x="586.575" xlink:href="#m2e40897744" y="415.984508"/>
     <use style="fill:#0d153a;stroke:#0d153a;stroke-linejoin:miter;stroke-width:3;" x="663.525" xlink:href="#m2e40897744" y="450.10895"/>
    </g>
   </g>
   <g id="line2d_26">
    <defs>
     <path d="M -4 4 
L 4 4 
L 4 -4 
L -4 -4 
z
" id="m474594c124" style="stroke:#a42604;stroke-linejoin:miter;stroke-width:3;"/>
    </defs>
    <g clip-path="url(#pdbb0127bcf)">
     <use style="fill:#a42604;stroke:#a42604;stroke-linejoin:miter;stroke-width:3;" x="124.875" xlink:href="#m474594c124" y="244.065454"/>
     <use style="fill:#a42604;stroke:#a42604;stroke-linejoin:miter;stroke-width:3;" x="201.825" xlink:href="#m474594c124" y="258.188089"/>
     <use style="fill:#a42604;stroke:#a42604;stroke-linejoin:miter;stroke-width:3;" x="278.775" xlink:href="#m474594c124" y="274.439411"/>
     <use style="fill:#a42604;stroke:#a42604;stroke-linejoin:miter;stroke-width:3;" x="355.725" xlink:href="#m474594c124" y="289.372534"/>
     <use style="fill:#a42604;stroke:#a42604;stroke-linejoin:miter;stroke-width:3;" x="432.675" xlink:href="#m474594c124" y="307.99919"/>
     <use style="fill:#a42604;stroke:#a42604;stroke-linejoin:miter;stroke-width:3;" x="509.625" xlink:href="#m474594c124" y="328.821216"/>
     <use style="fill:#a42604;stroke:#a42604;stroke-linejoin:miter;stroke-width:3;" x="586.575" xlink:href="#m474594c124" y="350.022925"/>
     <use style="fill:#a42604;stroke:#a42604;stroke-linejoin:miter;stroke-width:3;" x="663.525" xlink:href="#m474594c124" y="372.603406"/>
    </g>
   </g>
   <g id="line2d_27">
    <defs>
     <path d="M -4 4 
L 4 4 
L 4 -4 
L -4 -4 
z
" id="mb420927c55" style="stroke:#187795;stroke-linejoin:miter;stroke-width:3;"/>
    </defs>
    <g clip-path="url(#pdbb0127bcf)">
     <use style="fill:#187795;stroke:#187795;stroke-linejoin:miter;stroke-width:3;" x="124.875" xlink:href="#mb420927c55" y="150.837117"/>
     <use style="fill:#187795;stroke:#187795;stroke-linejoin:miter;stroke-width:3;" x="201.825" xlink:href="#mb420927c55" y="156.508445"/>
     <use style="fill:#187795;stroke:#187795;stroke-linejoin:miter;stroke-width:3;" x="278.775" xlink:href="#mb420927c55" y="163.745063"/>
     <use style="fill:#187795;stroke:#187795;stroke-linejoin:miter;stroke-width:3;" x="355.725" xlink:href="#mb420927c55" y="167.71678"/>
     <use style="fill:#187795;stroke:#187795;stroke-linejoin:miter;stroke-width:3;" x="432.675" xlink:href="#mb420927c55" y="176.399293"/>
     <use style="fill:#187795;stroke:#187795;stroke-linejoin:miter;stroke-width:3;" x="509.625" xlink:href="#mb420927c55" y="184.30697"/>
     <use style="fill:#187795;stroke:#187795;stroke-linejoin:miter;stroke-width:3;" x="586.575" xlink:href="#mb420927c55" y="193.94116"/>
     <use style="fill:#187795;stroke:#187795;stroke-linejoin:miter;stroke-width:3;" x="663.525" xlink:href="#mb420927c55" y="202.697487"/>
    </g>
   </g>
   <g id="patch_3">
    <path d="M 86.4 475.2 
L 86.4 21.6 
" style="fill:none;stroke:#000000;stroke-linecap:square;stroke-linejoin:miter;stroke-width:2;"/>
   </g>
   <g id="patch_4">
    <path d="M 702 475.2 
L 702 21.6 
" style="fill:none;stroke:#000000;stroke-linecap:square;stroke-linejoin:miter;stroke-width:2;"/>
   </g>
   <g id="patch_5">
    <path d="M 86.4 475.2 
L 702 475.2 
" style="fill:none;stroke:#000000;stroke-linecap:square;stroke-linejoin:miter;stroke-width:2;"/>
   </g>
   <g id="patch_6">
    <path d="M 86.4 21.6 
L 702 21.6 
" style="fill:none;stroke:#000000;stroke-linecap:square;stroke-linejoin:miter;stroke-width:2;"/>
   </g>
   <g id="legend_1">
    <g id="LineCollection_4">
     <path d="M 128.2 422.746974 
L 128.2 400.746974 
" style="fill:none;stroke:#0d153a;stroke-width:3;"/>
    </g>
    <g id="line2d_28">
     <g>
      <use style="fill:#0d153a;stroke:#0d153a;stroke-width:3;" x="128.2" xlink:href="#m7f5b0f4795" y="422.746974"/>
     </g>
    </g>
    <g id="line2d_29">
     <g>
      <use style="fill:#0d153a;stroke:#0d153a;stroke-width:3;" x="128.2" xlink:href="#m7f5b0f4795" y="400.746974"/>
     </g>
    </g>
    <g id="line2d_30"/>
    <g id="line2d_31">
     <g>
      <use style="fill:#0d153a;stroke:#0d153a;stroke-linejoin:miter;stroke-width:3;" x="128.2" xlink:href="#m2e40897744" y="411.746974"/>
     </g>
    </g>
    <g id="text_17">
     <!-- CL -->
     <defs>
      <path d="M 66.203125 50.453125 
C 63.296875 66.4375 54.09375 74.21875 38.09375 74.21875 
C 28.296875 74.21875 20.40625 71.125 15 65.125 
C 8.40625 57.953125 4.796875 47.578125 4.796875 35.796875 
C 4.796875 23.828125 8.5 13.5625 15.40625 6.46875 
C 21 0.6875 28.203125 -2 37.703125 -2 
C 55.5 -2 65.5 7.578125 67.703125 26.828125 
L 58.09375 26.828125 
C 57.296875 21.859375 56.296875 18.46875 54.796875 15.578125 
C 51.796875 9.59375 45.59375 6.203125 37.796875 6.203125 
C 23.296875 6.203125 14.09375 17.765625 14.09375 35.90625 
C 14.09375 54.546875 22.90625 66 37 66 
C 42.90625 66 48.40625 64.21875 51.40625 61.40625 
C 54.09375 58.921875 55.59375 55.828125 56.703125 50.453125 
z
" id="Nimbus_Sans_L_Regular-67"/>
      <path d="M 17.296875 73 
L 8 73 
L 8 0 
L 53.296875 0 
L 53.296875 8.21875 
L 17.296875 8.21875 
z
" id="Nimbus_Sans_L_Regular-76"/>
     </defs>
     <g transform="translate(167.8 419.446974)scale(0.22 -0.22)">
      <use transform="scale(0.996264)" xlink:href="#Nimbus_Sans_L_Regular-67"/>
      <use transform="translate(71.929985 0)scale(0.996264)" xlink:href="#Nimbus_Sans_L_Regular-76"/>
     </g>
    </g>
    <g id="line2d_32">
     <path d="M 106.2 443.031639 
L 150.2 443.031639 
" style="fill:none;stroke:#0d153a;stroke-dasharray:11.1,4.8;stroke-dashoffset:0;stroke-width:3;"/>
    </g>
    <g id="line2d_33"/>
    <g id="text_18">
     <!-- lattice PT -->
     <defs>
      <path d="M 15.203125 73 
L 6.796875 73 
L 6.796875 -0.03125 
L 15.203125 -0.03125 
z
" id="Nimbus_Sans_L_Regular-108"/>
      <path d="M 53.5 5.203125 
C 52.59375 5 52.203125 5 51.703125 5 
C 48.796875 5 47.203125 6.484375 47.203125 9.078125 
L 47.203125 39.765625 
C 47.203125 49.015625 40.40625 54 27.5 54 
C 19.90625 54 13.59375 51.8125 10.09375 47.90625 
C 7.703125 45.203125 6.703125 42.21875 6.5 37.03125 
L 14.90625 37.03125 
C 15.59375 43.390625 19.40625 46.28125 27.203125 46.28125 
C 34.703125 46.28125 38.90625 43.484375 38.90625 38.515625 
L 38.90625 36.328125 
C 38.90625 32.828125 36.796875 31.34375 30.203125 30.546875 
C 18.40625 29.0625 16.59375 28.65625 13.40625 27.359375 
C 7.296875 24.875 4.203125 20.1875 4.203125 13.421875 
C 4.203125 3.96875 10.796875 -2 21.40625 -2 
C 28 -2 33.296875 0.296875 39.203125 5.703125 
C 39.796875 0.390625 42.40625 -2 47.796875 -2 
C 49.5 -2 50.796875 -1.8125 53.5 -1.09375 
z
M 38.90625 16.75 
C 38.90625 13.953125 38.09375 12.265625 35.59375 9.984375 
C 32.203125 6.890625 28.09375 5.3125 23.203125 5.3125 
C 16.703125 5.3125 12.90625 8.390625 12.90625 13.65625 
C 12.90625 19.140625 16.59375 21.921875 25.5 23.21875 
C 34.296875 24.40625 36.09375 24.8125 38.90625 26.09375 
z
" id="Nimbus_Sans_L_Regular-97"/>
      <path d="M 25.40625 52.8125 
L 16.796875 52.8125 
L 16.796875 67 
L 8.5 67 
L 8.5 52.8125 
L 1.40625 52.8125 
L 1.40625 46 
L 8.5 46 
L 8.5 6.3125 
C 8.5 1 12.09375 -2 18.59375 -2 
C 20.59375 -2 22.59375 -1.8125 25.40625 -1.296875 
L 25.40625 5.71875 
C 24.296875 5.40625 23 5.3125 21.40625 5.3125 
C 17.796875 5.3125 16.796875 6.3125 16.796875 10.015625 
L 16.796875 46 
L 25.40625 46 
z
" id="Nimbus_Sans_L_Regular-116"/>
      <path d="M 15 52.484375 
L 6.703125 52.484375 
L 6.703125 0 
L 15 0 
z
M 15 73 
L 6.59375 73 
L 6.59375 62.484375 
L 15 62.484375 
z
" id="Nimbus_Sans_L_Regular-105"/>
      <path d="M 47.09375 34.9375 
C 46.703125 40.03125 45.59375 43.328125 43.59375 46.21875 
C 40 51.109375 33.703125 54 26.40625 54 
C 12.296875 54 3.09375 42.84375 3.09375 25.5 
C 3.09375 8.65625 12.09375 -2 26.296875 -2 
C 38.796875 -2 46.703125 5.46875 47.703125 18.234375 
L 39.296875 18.234375 
C 37.90625 9.875 33.59375 5.703125 26.5 5.703125 
C 17.296875 5.703125 11.796875 13.171875 11.796875 25.5 
C 11.796875 38.53125 17.203125 46.28125 26.296875 46.28125 
C 33.296875 46.28125 37.703125 42.203125 38.703125 34.9375 
z
" id="Nimbus_Sans_L_Regular-99"/>
      <path d="M 51.296875 23.890625 
C 51.296875 31.78125 50.703125 36.53125 49.203125 40.375 
C 45.796875 48.859375 37.796875 54 28 54 
C 13.40625 54 4 42.84375 4 25.703125 
C 4 8.546875 13.09375 -2 27.796875 -2 
C 39.796875 -2 48.09375 4.84375 50.203125 16.3125 
L 41.796875 16.3125 
C 39.5 9.34375 34.796875 5.703125 28.09375 5.703125 
C 22.796875 5.703125 18.296875 8.125 15.5 12.578125 
C 13.5 15.59375 12.796875 18.640625 12.703125 23.890625 
z
M 12.90625 31 
C 13.59375 40.265625 19.5 46.28125 27.90625 46.28125 
C 36.09375 46.28125 42.40625 39.53125 42.40625 31 
C 42.40625 31 42.40625 31 42.296875 31 
z
" id="Nimbus_Sans_L_Regular-101"/>
      <path d="M 18.40625 31 
L 41.296875 31 
C 47 31 51.5 32.703125 55.40625 36.1875 
C 59.796875 40.203125 61.703125 44.890625 61.703125 51.609375 
C 61.703125 65.296875 53.59375 73 39.203125 73 
L 9.09375 73 
L 9.09375 -0.21875 
L 18.40625 -0.21875 
z
M 18.40625 39.21875 
L 18.40625 64.78125 
L 37.796875 64.78125 
C 46.703125 64.78125 52 59.984375 52 51.984375 
C 52 44 46.703125 39.21875 37.796875 39.21875 
z
" id="Nimbus_Sans_L_Regular-80"/>
      <path d="M 35.40625 64.78125 
L 59.296875 64.78125 
L 59.296875 73 
L 2.09375 73 
L 2.09375 64.78125 
L 26.09375 64.78125 
L 26.09375 -0.21875 
L 35.40625 -0.21875 
z
" id="Nimbus_Sans_L_Regular-84"/>
     </defs>
     <g transform="translate(167.8 450.731639)scale(0.22 -0.22)">
      <use transform="scale(0.996264)" xlink:href="#Nimbus_Sans_L_Regular-108"/>
      <use transform="translate(22.116784 0)scale(0.996264)" xlink:href="#Nimbus_Sans_L_Regular-97"/>
      <use transform="translate(77.508461 0)scale(0.996264)" xlink:href="#Nimbus_Sans_L_Regular-116"/>
      <use transform="translate(105.203631 0)scale(0.996264)" xlink:href="#Nimbus_Sans_L_Regular-116"/>
      <use transform="translate(132.898801 0)scale(0.996264)" xlink:href="#Nimbus_Sans_L_Regular-105"/>
      <use transform="translate(155.015585 0)scale(0.996264)" xlink:href="#Nimbus_Sans_L_Regular-99"/>
      <use transform="translate(204.828785 0)scale(0.996264)" xlink:href="#Nimbus_Sans_L_Regular-101"/>
      <use transform="translate(287.915632 0)scale(0.996264)" xlink:href="#Nimbus_Sans_L_Regular-80"/>
      <use transform="translate(354.365663 0)scale(0.996264)" xlink:href="#Nimbus_Sans_L_Regular-84"/>
     </g>
    </g>
   </g>
  </g>
  <g id="text_19">
   <!-- $N_\uparrow\ +\ N_\downarrow\ =\ 10$ -->
   <defs>
    <path d="M 74 57.78125 
C 75.09375 62.09375 76.703125 65.09375 84.296875 65.09375 
C 84.59375 65.09375 85.796875 65.09375 85.796875 66.859375 
C 85.796875 68 84.90625 68 84.5 68 
C 82.5 68 77.40625 68 75.40625 68 
L 70.59375 68 
C 69.203125 68 67.40625 68 66 68 
C 65.40625 68 64.203125 68 64.203125 66.09375 
C 64.203125 65.09375 65 65.09375 65.703125 65.09375 
C 71.703125 65.09375 72.09375 62.796875 72.09375 60.984375 
C 72.09375 60.09375 72 59.78125 71.703125 58.390625 
L 60.40625 13.28125 
L 39 66.390625 
C 38.296875 68 38.203125 68 36 68 
L 23.796875 68 
C 21.796875 68 20.90625 68 20.90625 66.09375 
C 20.90625 65.09375 21.59375 65.09375 23.5 65.09375 
C 24 65.09375 29.90625 65.09375 29.90625 64.296875 
C 29.90625 64.09375 29.703125 63.296875 29.59375 63 
L 16.296875 9.921875 
C 15.09375 5 12.703125 2.90625 6.09375 2.90625 
C 5.59375 2.90625 4.59375 2.90625 4.59375 1.046875 
C 4.59375 0 5.59375 0 5.90625 0 
C 7.90625 0 13 0 15 0 
L 19.796875 0 
C 21.203125 0 22.90625 0 24.296875 0 
C 25 0 26.09375 0 26.09375 1.90625 
C 26.09375 2.8125 25.09375 2.90625 24.703125 2.90625 
C 21.40625 2.90625 18.203125 3.5 18.203125 7.09375 
C 18.203125 7.890625 18.40625 8.78125 18.59375 9.578125 
L 32.09375 63 
C 32.703125 62 32.703125 61.8125 33.09375 60.90625 
L 56.90625 1.796875 
C 57.40625 0.59375 57.59375 0 58.5 0 
C 59.5 0 59.59375 0.296875 60 2 
z
" id="CMMI12-78"/>
    <path d="M 27 55.34375 
C 29.40625 51.546875 32.203125 48.75 34.703125 46.828125 
C 40.796875 42.234375 46.90625 41.234375 47.09375 41.234375 
C 48.296875 41.234375 48.296875 42.328125 48.296875 43.125 
C 48.296875 44.734375 48.203125 44.828125 46 45.53125 
C 39.203125 47.421875 35.296875 51.03125 33 53.53125 
C 27.90625 59.046875 26.703125 65.046875 26.09375 68.25 
C 26 68.75 25.59375 69.140625 25 69.140625 
C 24.09375 69.140625 24 68.546875 23.796875 67.34375 
C 21.5 56.25 14.40625 48.4375 3.40625 45.34375 
C 1.90625 44.84375 1.703125 44.84375 1.703125 43.140625 
C 1.703125 42.34375 1.703125 41.234375 2.90625 41.234375 
C 3.203125 41.234375 9.09375 42.328125 14.796875 46.421875 
C 18.09375 48.9375 20.796875 51.9375 23 55.34375 
L 23 -15.953125 
C 23 -17.75 23 -19.5625 25 -19.5625 
C 27 -19.5625 27 -17.75 27 -15.953125 
z
" id="CMSY10-34"/>
    <path d="M 37.703125 23 
L 64.203125 23 
C 65.59375 23 67.296875 23 67.296875 24.6875 
C 67.296875 26.484375 65.703125 26.484375 64.203125 26.484375 
L 37.703125 26.484375 
L 37.703125 52.90625 
C 37.703125 54.296875 37.703125 56 36 56 
C 34.203125 56 34.203125 54.40625 34.203125 52.90625 
L 34.203125 26.484375 
L 7.703125 26.484375 
C 6.296875 26.484375 4.59375 26.484375 4.59375 24.796875 
C 4.59375 23 6.203125 23 7.703125 23 
L 34.203125 23 
L 34.203125 -3.40625 
C 34.203125 -4.796875 34.203125 -6.5 35.90625 -6.5 
C 37.703125 -6.5 37.703125 -4.90625 37.703125 -3.40625 
z
" id="CMR17-43"/>
    <path d="M 27 65.953125 
C 27 67.75 27 69.5625 25 69.5625 
C 23 69.5625 23 67.75 23 65.953125 
L 23 -5.34375 
C 20.59375 -1.546875 17.796875 1.25 15.296875 3.171875 
C 9.203125 7.765625 3.09375 8.765625 2.90625 8.765625 
C 1.703125 8.765625 1.703125 7.671875 1.703125 6.875 
C 1.703125 5.265625 1.796875 5.171875 4 4.46875 
C 10.796875 2.578125 14.703125 -1.03125 17 -3.53125 
C 22.09375 -9.046875 23.296875 -15.046875 23.90625 -18.140625 
C 24 -18.640625 24.296875 -19.140625 25 -19.140625 
C 25.90625 -19.140625 26 -18.4375 26.203125 -17.546875 
C 28.40625 -6.25 35.59375 1.5625 46.59375 4.65625 
C 48.09375 5.15625 48.296875 5.15625 48.296875 6.859375 
C 48.296875 7.65625 48.296875 8.765625 47.109375 8.765625 
C 46.796875 8.765625 40.90625 7.671875 35.203125 3.578125 
C 31.90625 1.0625 29.203125 -1.9375 27 -5.34375 
z
" id="CMSY10-35"/>
    <path d="M 64.296875 31.515625 
C 65.796875 31.515625 67.296875 31.515625 67.296875 33.203125 
C 67.296875 35 65.59375 35 63.90625 35 
L 8 35 
C 6.296875 35 4.59375 35 4.59375 33.203125 
C 4.59375 31.515625 6.09375 31.515625 7.59375 31.515625 
z
M 63.90625 14 
C 65.59375 14 67.296875 14 67.296875 15.796875 
C 67.296875 17.484375 65.796875 17.484375 64.296875 17.484375 
L 7.59375 17.484375 
C 6.09375 17.484375 4.59375 17.484375 4.59375 15.796875 
C 4.59375 14 6.296875 14 8 14 
z
" id="CMR17-61"/>
   </defs>
   <g transform="translate(482.4 64.8)scale(0.28 -0.28)">
    <use transform="translate(0 14.943915)scale(0.996264)" xlink:href="#CMMI12-78"/>
    <use transform="translate(78.115119 0)scale(0.697382)" xlink:href="#CMSY10-34"/>
    <use transform="translate(163.316837 14.943915)scale(0.996264)" xlink:href="#CMR17-43"/>
    <use transform="translate(284.866002 14.943915)scale(0.996264)" xlink:href="#CMMI12-78"/>
    <use transform="translate(362.981121 0)scale(0.697382)" xlink:href="#CMSY10-35"/>
    <use transform="translate(453.717641 14.943915)scale(0.996264)" xlink:href="#CMR17-61"/>
    <use transform="translate(580.801608 14.943915)scale(0.996264)" xlink:href="#CMR17-49"/>
    <use transform="translate(626.492085 14.943915)scale(0.996264)" xlink:href="#CMR17-48"/>
   </g>
  </g>
 </g>
 <defs>
  <clipPath id="pdbb0127bcf">
   <rect height="453.6" width="615.6" x="86.4" y="21.6"/>
  </clipPath>
 </defs>
</svg>
