<?xml version="1.0" encoding="utf-8" standalone="no"?>
<!DOCTYPE svg PUBLIC "-//W3C//DTD SVG 1.1//EN"
  "http://www.w3.org/Graphics/SVG/1.1/DTD/svg11.dtd">
<!-- Created with matplotlib (http://matplotlib.org/) -->
<svg height="540pt" version="1.1" viewBox="0 0 720 540" width="720pt" xmlns="http://www.w3.org/2000/svg" xmlns:xlink="http://www.w3.org/1999/xlink">
 <defs>
  <style type="text/css">
*{stroke-linecap:butt;stroke-linejoin:round;}
  </style>
 </defs>
 <g id="figure_1">
  <g id="patch_1">
   <path d="M 0 540 
L 720 540 
L 720 0 
L 0 0 
z
" style="fill:#ffffff;"/>
  </g>
  <g id="axes_1">
   <g id="patch_2">
    <path d="M 86.4 475.2 
L 702 475.2 
L 702 21.6 
L 86.4 21.6 
z
" style="fill:#ffffff;"/>
   </g>
   <g id="matplotlib.axis_1">
    <g id="xtick_1">
     <g id="line2d_1">
      <defs>
       <path d="M 0 0 
L 0 3.5 
" id="m83853442b5" style="stroke:#000000;stroke-width:2;"/>
      </defs>
      <g>
       <use style="stroke:#000000;stroke-width:2;" x="99.191983" xlink:href="#m83853442b5" y="475.2"/>
      </g>
     </g>
     <g id="text_1">
      <!-- $0$ -->
      <defs>
       <path d="M 42 31.640625 
C 42 37.75 41.90625 48.125 37.703125 56.109375 
C 34 63.109375 28.09375 65.59375 22.90625 65.59375 
C 18.09375 65.59375 12 63.40625 8.203125 56.203125 
C 4.203125 48.71875 3.796875 39.4375 3.796875 31.640625 
C 3.796875 25.953125 3.90625 17.28125 7 9.671875 
C 11.296875 -0.609375 19 -2 22.90625 -2 
C 27.5 -2 34.5 -0.109375 38.59375 9.375 
C 41.59375 16.28125 42 24.359375 42 31.640625 
z
M 22.90625 -0.40625 
C 16.5 -0.40625 12.703125 5.078125 11.296875 12.6875 
C 10.203125 18.5625 10.203125 27.15625 10.203125 32.75 
C 10.203125 40.4375 10.203125 46.828125 11.5 52.921875 
C 13.40625 61.390625 19 64 22.90625 64 
C 27 64 32.296875 61.296875 34.203125 53.125 
C 35.5 47.4375 35.59375 40.734375 35.59375 32.75 
C 35.59375 26.25 35.59375 18.265625 34.40625 12.375 
C 32.296875 1.484375 26.40625 -0.40625 22.90625 -0.40625 
z
" id="CMR17-48"/>
      </defs>
      <g transform="translate(93.709126 499.235969)scale(0.24 -0.24)">
       <use transform="scale(0.996264)" xlink:href="#CMR17-48"/>
      </g>
     </g>
    </g>
    <g id="xtick_2">
     <g id="line2d_2">
      <g>
       <use style="stroke:#000000;stroke-width:2;" x="227.111818" xlink:href="#m83853442b5" y="475.2"/>
      </g>
     </g>
     <g id="text_2">
      <!-- $1$ -->
      <defs>
       <path d="M 26.59375 63.40625 
C 26.59375 65.5 26.5 65.5 25.09375 65.5 
C 21.203125 61.1875 15.296875 59.796875 9.703125 59.796875 
C 9.40625 59.796875 8.90625 59.796875 8.796875 59.5 
C 8.703125 59.296875 8.703125 59.09375 8.703125 57 
C 11.796875 57 17 57.59375 21 59.984375 
L 21 7.203125 
C 21 3.6875 20.796875 2.5 12.203125 2.5 
L 9.203125 2.5 
L 9.203125 0 
C 14 0 19 0 23.796875 0 
C 28.59375 0 33.59375 0 38.40625 0 
L 38.40625 2.5 
L 35.40625 2.5 
C 26.796875 2.5 26.59375 3.59375 26.59375 7.15625 
z
" id="CMR17-49"/>
      </defs>
      <g transform="translate(221.62896 499.235969)scale(0.24 -0.24)">
       <use transform="scale(0.996264)" xlink:href="#CMR17-49"/>
      </g>
     </g>
    </g>
    <g id="xtick_3">
     <g id="line2d_3">
      <g>
       <use style="stroke:#000000;stroke-width:2;" x="355.031652" xlink:href="#m83853442b5" y="475.2"/>
      </g>
     </g>
     <g id="text_3">
      <!-- $2$ -->
      <defs>
       <path d="M 41.703125 15.453125 
L 39.90625 15.453125 
C 38.90625 8.375 38.09375 7.171875 37.703125 6.5625 
C 37.203125 5.765625 30 5.765625 28.59375 5.765625 
L 9.40625 5.765625 
C 13 9.671875 20 16.75 28.5 24.953125 
C 34.59375 30.734375 41.703125 37.53125 41.703125 47.421875 
C 41.703125 59.21875 32.296875 66 21.796875 66 
C 10.796875 66 4.09375 56.3125 4.09375 47.34375 
C 4.09375 43.4375 7 42.9375 8.203125 42.9375 
C 9.203125 42.9375 12.203125 43.546875 12.203125 47.03125 
C 12.203125 50.109375 9.59375 51 8.203125 51 
C 7.59375 51 7 50.90625 6.59375 50.703125 
C 8.5 59.21875 14.296875 63.40625 20.40625 63.40625 
C 29.09375 63.40625 34.796875 56.515625 34.796875 47.421875 
C 34.796875 38.734375 29.703125 31.25 24 24.75 
L 4.09375 2.28125 
L 4.09375 0 
L 39.296875 0 
z
" id="CMR17-50"/>
      </defs>
      <g transform="translate(349.548794 499.235969)scale(0.24 -0.24)">
       <use transform="scale(0.996264)" xlink:href="#CMR17-50"/>
      </g>
     </g>
    </g>
    <g id="xtick_4">
     <g id="line2d_4">
      <g>
       <use style="stroke:#000000;stroke-width:2;" x="482.951486" xlink:href="#m83853442b5" y="475.2"/>
      </g>
     </g>
     <g id="text_4">
      <!-- $3$ -->
      <defs>
       <path d="M 22.09375 33.703125 
C 31 33.703125 34.90625 25.96875 34.90625 17.03125 
C 34.90625 5 28.5 0.390625 22.703125 0.390625 
C 17.40625 0.390625 8.796875 3.03125 6.09375 10.828125 
C 6.59375 10.625 7.09375 10.625 7.59375 10.625 
C 10 10.625 11.796875 12.21875 11.796875 14.8125 
C 11.796875 17.703125 9.59375 19 7.59375 19 
C 5.90625 19 3.296875 18.203125 3.296875 14.46875 
C 3.296875 5.234375 12.296875 -2 22.90625 -2 
C 34 -2 42.5 6.71875 42.5 16.953125 
C 42.5 26.671875 34.5 33.703125 25 34.796875 
C 32.59375 36.375 39.90625 43.0625 39.90625 52.015625 
C 39.90625 59.6875 32 65.296875 23 65.296875 
C 13.90625 65.296875 5.90625 59.828125 5.90625 52.015625 
C 5.90625 48.59375 8.5 48 9.796875 48 
C 11.90625 48 13.703125 49.296875 13.703125 51.890625 
C 13.703125 54.46875 11.90625 55.765625 9.796875 55.765625 
C 9.40625 55.765625 8.90625 55.765625 8.5 55.578125 
C 11.40625 61.859375 19.296875 63 22.796875 63 
C 26.296875 63 32.90625 61.328125 32.90625 51.875 
C 32.90625 49.109375 32.5 44.1875 29.09375 39.84375 
C 26.09375 36 22.703125 36 19.40625 35.6875 
C 18.90625 35.6875 16.59375 35.453125 16.203125 35.453125 
C 15.5 35.359375 15.09375 35.265625 15.09375 34.5 
C 15.09375 33.796875 15.203125 33.703125 17.203125 33.703125 
z
" id="CMR17-51"/>
      </defs>
      <g transform="translate(477.468628 499.235969)scale(0.24 -0.24)">
       <use transform="scale(0.996264)" xlink:href="#CMR17-51"/>
      </g>
     </g>
    </g>
    <g id="xtick_5">
     <g id="line2d_5">
      <g>
       <use style="stroke:#000000;stroke-width:2;" x="610.87132" xlink:href="#m83853442b5" y="475.2"/>
      </g>
     </g>
     <g id="text_5">
      <!-- $4$ -->
      <defs>
       <path d="M 33.59375 64.40625 
C 33.59375 66.5 33.5 66.5 31.703125 66.5 
L 2 19.59375 
L 2 17 
L 27.796875 17 
L 27.796875 7.140625 
C 27.796875 3.5 27.59375 2.5 20.59375 2.5 
L 18.703125 2.5 
L 18.703125 0 
C 21.90625 0 27.296875 0 30.703125 0 
C 34.09375 0 39.5 0 42.703125 0 
L 42.703125 2.5 
L 40.796875 2.5 
C 33.796875 2.5 33.59375 3.5 33.59375 7.140625 
L 33.59375 17 
L 43.796875 17 
L 43.796875 19.59375 
L 33.59375 19.59375 
z
M 28.09375 57.859375 
L 28.09375 19.59375 
L 4 19.59375 
z
" id="CMR17-52"/>
      </defs>
      <g transform="translate(605.388463 499.235969)scale(0.24 -0.24)">
       <use transform="scale(0.996264)" xlink:href="#CMR17-52"/>
      </g>
     </g>
    </g>
    <g id="text_6">
     <!-- $k/ k_F$ -->
     <defs>
      <path d="M 28.09375 66.515625 
C 28.203125 66.921875 28.40625 67.515625 28.40625 68 
C 28.40625 69 27.40625 69 27.203125 69 
C 27.09375 69 23.5 68.640625 21.703125 68.390625 
C 20 68.390625 18.5 68.09375 16.703125 68.09375 
C 14.296875 67.890625 13.59375 67.796875 13.59375 66 
C 13.59375 65 14.59375 65 15.59375 65 
C 20.703125 65 20.703125 64.109375 20.703125 63.125 
C 20.703125 62.734375 20.703125 62.53125 20.203125 60.75 
L 5.90625 3.875 
C 5.5 2.375 5.5 2.1875 5.5 1.578125 
C 5.5 -0.59375 7.203125 -1 8.203125 -1 
C 11 -1 11.59375 1.203125 12.40625 4.296875 
L 17.09375 22.953125 
C 24.296875 22.15625 28.59375 19.15625 28.59375 14.375 
C 28.59375 13.765625 28.59375 13.375 28.296875 11.875 
C 27.90625 10.375 27.90625 9.1875 27.90625 8.6875 
C 27.90625 2.890625 31.703125 -1 36.796875 -1 
C 41.40625 -1 43.796875 3.1875 44.59375 4.59375 
C 46.703125 8.28125 48 13.875 48 14.265625 
C 48 14.765625 47.59375 15.171875 47 15.171875 
C 46.09375 15.171875 46 14.765625 45.59375 13.171875 
C 44.203125 7.984375 42.09375 1 37 1 
C 35 1 33.703125 2 33.703125 5.78125 
C 33.703125 7.6875 34.09375 9.875 34.5 11.375 
C 34.90625 13.171875 34.90625 13.265625 34.90625 14.46875 
C 34.90625 20.359375 29.59375 23.65625 20.40625 24.84375 
C 24 27.046875 27.59375 30.9375 29 32.4375 
C 34.703125 38.8125 38.59375 42.015625 43.203125 42.015625 
C 45.5 42.015625 46.09375 41.40625 46.796875 40.8125 
C 43.09375 40.40625 41.703125 37.8125 41.703125 35.828125 
C 41.703125 33.421875 43.59375 32.625 45 32.625 
C 47.703125 32.625 50.09375 34.921875 50.09375 38.125 
C 50.09375 41.015625 47.796875 44 43.296875 44 
C 37.796875 44 33.296875 40.109375 26.203125 32.125 
C 25.203125 30.9375 21.5 27.140625 17.796875 25.75 
z
" id="CMMI12-107"/>
      <path d="M 42.90625 71.28125 
C 42.90625 71.390625 43.5 72.90625 43.5 73.09375 
C 43.5 74.296875 42.5 75 41.703125 75 
C 41.203125 75 40.296875 75 39.5 72.796875 
L 6 -21.296875 
C 6 -21.40625 5.40625 -22.890625 5.40625 -23.09375 
C 5.40625 -24.296875 6.40625 -25 7.203125 -25 
C 7.796875 -25 8.703125 -24.890625 9.40625 -22.796875 
z
" id="CMMI12-61"/>
      <path d="M 29.703125 32.109375 
L 39.296875 32.109375 
C 46.90625 32.109375 47.5 30.40625 47.5 27.515625 
C 47.5 26.21875 47.296875 24.828125 46.796875 22.625 
C 46.59375 22.234375 46.5 21.734375 46.5 21.53125 
C 46.5 20.828125 46.90625 20.4375 47.59375 20.4375 
C 48.40625 20.4375 48.5 20.828125 48.90625 22.421875 
L 54.703125 45.859375 
C 54.703125 46.265625 54.40625 46.859375 53.703125 46.859375 
C 52.796875 46.859375 52.703125 46.46875 52.296875 44.734375 
C 50.203125 37.125 48.203125 35 39.5 35 
L 30.40625 35 
L 36.90625 61.34375 
C 37.796875 64.90625 38 64.90625 42.09375 64.90625 
L 55.5 64.90625 
C 68 64.90625 69.796875 61.21875 69.796875 54.125 
C 69.796875 53.53125 69.796875 51.328125 69.5 48.734375 
C 69.40625 48.34375 69.203125 47.046875 69.203125 46.640625 
C 69.203125 45.84375 69.703125 45.546875 70.296875 45.546875 
C 71 45.546875 71.40625 45.953125 71.59375 47.734375 
L 73.703125 65.21875 
C 73.703125 65.546875 73.90625 66.609375 73.90625 66.828125 
C 73.90625 68 73 68 71.203125 68 
L 23.796875 68 
C 21.90625 68 20.90625 68 20.90625 66.078125 
C 20.90625 64.90625 21.59375 64.90625 23.296875 64.90625 
C 29.5 64.90625 29.5 64.265625 29.5 63.28125 
C 29.5 62.78125 29.40625 62.375 29.09375 61.28125 
L 15.59375 7.390625 
C 14.703125 3.890625 14.5 2.890625 7.5 2.890625 
C 5.59375 2.890625 4.59375 2.890625 4.59375 1.09375 
C 4.59375 0 5.5 0 6.09375 0 
C 8 0 10 0 11.90625 0 
L 24.90625 0 
C 27.09375 0 29.5 0 31.703125 0 
C 32.59375 0 33.796875 0 33.796875 1.796875 
C 33.796875 2.890625 33.203125 2.890625 31 2.890625 
C 23.09375 2.890625 22.90625 3.578125 22.90625 5.0625 
C 22.90625 5.5625 23.09375 6.34375 23.296875 7.015625 
z
" id="CMMI12-70"/>
     </defs>
     <g transform="translate(370.464864 527.146305)scale(0.24 -0.24)">
      <use transform="translate(0 14.943915)scale(0.996264)" xlink:href="#CMMI12-107"/>
      <use transform="translate(54.079201 14.943915)scale(0.996264)" xlink:href="#CMMI12-61"/>
      <use transform="translate(102.854119 14.943915)scale(0.996264)" xlink:href="#CMMI12-107"/>
      <use transform="translate(153.589308 0)scale(0.697382)" xlink:href="#CMMI12-70"/>
     </g>
    </g>
   </g>
   <g id="matplotlib.axis_2">
    <g id="ytick_1">
     <g id="line2d_6">
      <defs>
       <path d="M 0 0 
L -3.5 0 
" id="m145c75b02a" style="stroke:#000000;stroke-width:2;"/>
      </defs>
      <g>
       <use style="stroke:#000000;stroke-width:2;" x="86.4" xlink:href="#m145c75b02a" y="450"/>
      </g>
     </g>
     <g id="text_7">
      <!-- $0$ -->
      <g transform="translate(68.434285 458.517984)scale(0.24 -0.24)">
       <use transform="scale(0.996264)" xlink:href="#CMR17-48"/>
      </g>
     </g>
    </g>
    <g id="ytick_2">
     <g id="line2d_7">
      <g>
       <use style="stroke:#000000;stroke-width:2;" x="86.4" xlink:href="#m145c75b02a" y="399.6"/>
      </g>
     </g>
     <g id="text_8">
      <!-- $1$ -->
      <g transform="translate(68.434285 408.117984)scale(0.24 -0.24)">
       <use transform="scale(0.996264)" xlink:href="#CMR17-49"/>
      </g>
     </g>
    </g>
    <g id="ytick_3">
     <g id="line2d_8">
      <g>
       <use style="stroke:#000000;stroke-width:2;" x="86.4" xlink:href="#m145c75b02a" y="349.2"/>
      </g>
     </g>
     <g id="text_9">
      <!-- $2$ -->
      <g transform="translate(68.434285 357.717984)scale(0.24 -0.24)">
       <use transform="scale(0.996264)" xlink:href="#CMR17-50"/>
      </g>
     </g>
    </g>
    <g id="ytick_4">
     <g id="line2d_9">
      <g>
       <use style="stroke:#000000;stroke-width:2;" x="86.4" xlink:href="#m145c75b02a" y="298.8"/>
      </g>
     </g>
     <g id="text_10">
      <!-- $3$ -->
      <g transform="translate(68.434285 307.317984)scale(0.24 -0.24)">
       <use transform="scale(0.996264)" xlink:href="#CMR17-51"/>
      </g>
     </g>
    </g>
    <g id="ytick_5">
     <g id="line2d_10">
      <g>
       <use style="stroke:#000000;stroke-width:2;" x="86.4" xlink:href="#m145c75b02a" y="248.4"/>
      </g>
     </g>
     <g id="text_11">
      <!-- $4$ -->
      <g transform="translate(68.434285 256.917984)scale(0.24 -0.24)">
       <use transform="scale(0.996264)" xlink:href="#CMR17-52"/>
      </g>
     </g>
    </g>
    <g id="ytick_6">
     <g id="line2d_11">
      <g>
       <use style="stroke:#000000;stroke-width:2;" x="86.4" xlink:href="#m145c75b02a" y="198"/>
      </g>
     </g>
     <g id="text_12">
      <!-- $5$ -->
      <defs>
       <path d="M 11.40625 57.6875 
C 12.40625 57.28125 16.5 56 20.703125 56 
C 30 56 35.09375 61.109375 38 64.0625 
C 38 64.953125 38 65.5 37.40625 65.5 
C 37.296875 65.5 37.09375 65.5 36.296875 65.046875 
C 32.796875 63.40625 28.703125 62.078125 23.703125 62.078125 
C 20.703125 62.078125 16.203125 62.484375 11.296875 64.671875 
C 10.203125 65.171875 10 65.171875 9.90625 65.171875 
C 9.40625 65.171875 9.296875 65.0625 9.296875 63.078125 
L 9.296875 34.421875 
C 9.296875 32.640625 9.296875 32.140625 10.296875 32.140625 
C 10.796875 32.140625 11 32.34375 11.5 33.03125 
C 14.703125 37.515625 19.09375 39.40625 24.09375 39.40625 
C 27.59375 39.40625 35.09375 37.21875 35.09375 20.140625 
C 35.09375 16.953125 35.09375 11.171875 32.09375 6.578125 
C 29.59375 2.484375 25.703125 0.390625 21.40625 0.390625 
C 14.796875 0.390625 8.09375 5 6.296875 12.71875 
C 6.703125 12.609375 7.5 12.421875 7.90625 12.421875 
C 9.203125 12.421875 11.703125 13.125 11.703125 16.21875 
C 11.703125 18.90625 9.796875 20 7.90625 20 
C 5.59375 20 4.09375 18.59375 4.09375 15.796875 
C 4.09375 7.09375 11 -2 21.59375 -2 
C 31.90625 -2 41.703125 6.875 41.703125 19.75 
C 41.703125 31.71875 33.90625 41 24.203125 41 
C 19.09375 41 14.796875 39.109375 11.40625 35.53125 
z
" id="CMR17-53"/>
      </defs>
      <g transform="translate(68.434285 206.517984)scale(0.24 -0.24)">
       <use transform="scale(0.996264)" xlink:href="#CMR17-53"/>
      </g>
     </g>
    </g>
    <g id="ytick_7">
     <g id="line2d_12">
      <g>
       <use style="stroke:#000000;stroke-width:2;" x="86.4" xlink:href="#m145c75b02a" y="147.6"/>
      </g>
     </g>
     <g id="text_13">
      <!-- $6$ -->
      <defs>
       <path d="M 10.59375 34 
C 10.59375 57.65625 21.796875 63 28.296875 63 
C 30.40625 63 35.5 62.640625 37.5 59 
C 35.90625 59 32.90625 59 32.90625 55.515625 
C 32.90625 52.828125 35.09375 51.921875 36.5 51.921875 
C 37.40625 51.921875 40.09375 52.3125 40.09375 55.625 
C 40.09375 61.78125 35.09375 65.296875 28.203125 65.296875 
C 16.296875 65.296875 3.796875 52.96875 3.796875 31 
C 3.796875 3.953125 15.09375 -2 23.09375 -2 
C 32.796875 -2 42 6.671875 42 20.046875 
C 42 32.515625 33.90625 41.59375 23.703125 41.59375 
C 17.59375 41.59375 13.09375 37.609375 10.59375 30.625 
z
M 23.09375 0.390625 
C 10.796875 0.390625 10.796875 18.75 10.796875 22.4375 
C 10.796875 29.625 14.203125 40 23.5 40 
C 25.203125 40 30.09375 40 33.40625 33.125 
C 35.203125 29.21875 35.203125 25.140625 35.203125 20.140625 
C 35.203125 14.75 35.203125 10.78125 33.09375 6.78125 
C 30.90625 2.671875 27.703125 0.390625 23.09375 0.390625 
z
" id="CMR17-54"/>
      </defs>
      <g transform="translate(68.434285 156.117984)scale(0.24 -0.24)">
       <use transform="scale(0.996264)" xlink:href="#CMR17-54"/>
      </g>
     </g>
    </g>
    <g id="ytick_8">
     <g id="line2d_13">
      <g>
       <use style="stroke:#000000;stroke-width:2;" x="86.4" xlink:href="#m145c75b02a" y="97.2"/>
      </g>
     </g>
     <g id="text_14">
      <!-- $7$ -->
      <defs>
       <path d="M 45.09375 61.578125 
L 45.09375 63.765625 
L 21.59375 63.765625 
C 9.90625 63.765625 9.703125 65.078125 9.296875 67 
L 7.5 67 
L 4.59375 48.34375 
L 6.40625 48.34375 
C 6.703125 50.234375 7.40625 55.3125 8.59375 57.203125 
C 9.203125 58 16.59375 58 18.296875 58 
L 40.296875 58 
L 29.203125 41.578125 
C 21.796875 30.53125 16.703125 15.609375 16.703125 2.578125 
C 16.703125 1.390625 16.703125 -2 20.296875 -2 
C 23.90625 -2 23.90625 1.390625 23.90625 2.671875 
L 23.90625 7.265625 
C 23.90625 23.5625 26.703125 34.3125 31.296875 41.1875 
z
" id="CMR17-55"/>
      </defs>
      <g transform="translate(68.434285 105.717984)scale(0.24 -0.24)">
       <use transform="scale(0.996264)" xlink:href="#CMR17-55"/>
      </g>
     </g>
    </g>
    <g id="ytick_9">
     <g id="line2d_14">
      <g>
       <use style="stroke:#000000;stroke-width:2;" x="86.4" xlink:href="#m145c75b02a" y="46.8"/>
      </g>
     </g>
     <g id="text_15">
      <!-- $8$ -->
      <defs>
       <path d="M 27.203125 35.375 
C 33.5 38.546875 39.90625 43.328125 39.90625 50.984375 
C 39.90625 60.015625 31.09375 65.296875 23 65.296875 
C 13.90625 65.296875 5.90625 58.734375 5.90625 49.6875 
C 5.90625 47.203125 6.5 42.921875 10.40625 39.140625 
C 11.40625 38.15625 15.59375 35.171875 18.296875 33.28125 
C 13.796875 30.984375 3.296875 25.53125 3.296875 14.59375 
C 3.296875 4.359375 13.09375 -2 22.796875 -2 
C 33.5 -2 42.5 5.65625 42.5 15.78125 
C 42.5 24.84375 36.40625 29.015625 32.40625 31.703125 
z
M 14.09375 44.09375 
C 13.296875 44.59375 9.296875 47.671875 9.296875 52.359375 
C 9.296875 58.421875 15.59375 63 22.796875 63 
C 30.703125 63 36.5 57.4375 36.5 50.96875 
C 36.5 41.703125 26.09375 36.421875 25.59375 36.421875 
C 25.5 36.421875 25.40625 36.421875 24.59375 37.03125 
z
M 32.5 23.734375 
C 34 22.640625 38.796875 19.375 38.796875 13.296875 
C 38.796875 5.953125 31.40625 0.390625 23 0.390625 
C 13.90625 0.390625 7 6.84375 7 14.6875 
C 7 22.546875 13.09375 29.09375 20 32.1875 
z
" id="CMR17-56"/>
      </defs>
      <g transform="translate(68.434285 55.317984)scale(0.24 -0.24)">
       <use transform="scale(0.996264)" xlink:href="#CMR17-56"/>
      </g>
     </g>
    </g>
    <g id="text_16">
     <!-- $n_{pair}$ -->
     <defs>
      <path d="M 20.59375 29.234375 
C 20.796875 29.84375 23.296875 34.828125 27 38.015625 
C 29.59375 40.40625 33 42.015625 36.90625 42.015625 
C 40.90625 42.015625 42.296875 39.015625 42.296875 35.03125 
C 42.296875 29.34375 38.203125 17.96875 36.203125 12.578125 
C 35.296875 10.171875 34.796875 8.875 34.796875 7.078125 
C 34.796875 2.59375 37.90625 -1 42.703125 -1 
C 52 -1 55.5 13.671875 55.5 14.265625 
C 55.5 14.765625 55.09375 15.171875 54.5 15.171875 
C 53.59375 15.171875 53.5 14.875 53 13.171875 
C 50.703125 4.984375 46.90625 1 43 1 
C 42 1 40.40625 1 40.40625 4.203125 
C 40.40625 6.703125 41.5 9.703125 42.09375 11.09375 
C 44.09375 16.609375 48.296875 27.8125 48.296875 33.515625 
C 48.296875 39.5 44.796875 44 37.203125 44 
C 28.296875 44 23.59375 37.734375 21.796875 35.234375 
C 21.5 40.90625 17.40625 44 13 44 
C 9.796875 44 7.59375 42.109375 5.90625 38.71875 
C 4.09375 35.125 2.703125 29.140625 2.703125 28.734375 
C 2.703125 28.34375 3.09375 27.84375 3.796875 27.84375 
C 4.59375 27.84375 4.703125 27.9375 5.296875 30.234375 
C 6.90625 36.328125 8.703125 42.015625 12.703125 42.015625 
C 15 42.015625 15.796875 40.40625 15.796875 37.421875 
C 15.796875 35.21875 14.796875 31.328125 14.09375 28.234375 
L 11.296875 17.46875 
C 10.90625 15.5625 9.796875 11.078125 9.296875 9.28125 
C 8.59375 6.6875 7.5 2 7.5 1.5 
C 7.5 0.09375 8.59375 -1 10.09375 -1 
C 11.296875 -1 12.703125 -0.40625 13.5 1.09375 
C 13.703125 1.59375 14.59375 5.09375 15.09375 7.078125 
L 17.296875 16.0625 
z
" id="CMMI12-110"/>
      <path d="M 4.296875 -12.328125 
C 3.59375 -15.3125 3.203125 -16.109375 -0.90625 -16.109375 
C -2.09375 -16.109375 -3.09375 -16.109375 -3.09375 -18 
C -3.09375 -18.203125 -3 -19 -1.90625 -19 
C -0.59375 -19 0.796875 -19 2.09375 -19 
L 6.40625 -19 
C 8.5 -19 13.59375 -19 15.703125 -19 
C 16.296875 -19 17.5 -19 17.5 -17.203125 
C 17.5 -16.109375 16.796875 -16.109375 15.09375 -16.109375 
C 10.5 -16.109375 10.203125 -15.421875 10.203125 -14.640625 
C 10.203125 -13.453125 14.703125 3.421875 15.296875 5.6875 
C 16.40625 2.890625 19.09375 -1 24.296875 -1 
C 35.59375 -1 47.796875 13.671875 47.796875 28.34375 
C 47.796875 37.515625 42.59375 44 35.09375 44 
C 28.703125 44 23.296875 37.8125 22.203125 36.421875 
C 21.40625 41.40625 17.5 44 13.5 44 
C 10.59375 44 8.296875 42.609375 6.40625 38.8125 
C 4.59375 35.21875 3.203125 29.140625 3.203125 28.734375 
C 3.203125 28.34375 3.59375 27.84375 4.296875 27.84375 
C 5.09375 27.84375 5.203125 27.9375 5.796875 30.234375 
C 7.296875 36.125 9.203125 42.015625 13.203125 42.015625 
C 15.5 42.015625 16.296875 40.421875 16.296875 37.453125 
C 16.296875 35.078125 16 34.078125 15.59375 32.296875 
z
M 21.59375 31.140625 
C 22.296875 33.921875 25.09375 36.828125 26.703125 38.21875 
C 27.796875 39.21875 31.09375 42.015625 34.90625 42.015625 
C 39.296875 42.015625 41.296875 37.625 41.296875 32.4375 
C 41.296875 27.640625 38.5 16.359375 36 11.171875 
C 33.5 5.78125 28.90625 1 24.296875 1 
C 17.5 1 16.40625 9.578125 16.40625 9.984375 
C 16.40625 10.28125 16.59375 11.078125 16.703125 11.578125 
z
" id="CMMI12-112"/>
      <path d="M 30.09375 11.875 
C 29.59375 10.171875 29.59375 9.984375 28.203125 8.078125 
C 26 5.28125 21.59375 1 16.90625 1 
C 12.796875 1 10.5 4.6875 10.5 10.578125 
C 10.5 16.0625 13.59375 27.234375 15.5 31.4375 
C 18.90625 38.421875 23.59375 42.015625 27.5 42.015625 
C 34.09375 42.015625 35.40625 33.828125 35.40625 33.03125 
C 35.40625 32.9375 35.09375 31.625 35 31.4375 
z
M 36.5 37.421875 
C 35.40625 40.015625 32.703125 44 27.5 44 
C 16.203125 44 4 29.4375 4 14.671875 
C 4 4.796875 9.796875 -1 16.59375 -1 
C 22.09375 -1 26.796875 3.296875 29.59375 6.59375 
C 30.59375 0.703125 35.296875 -1 38.296875 -1 
C 41.296875 -1 43.703125 0.796875 45.5 4.390625 
C 47.09375 7.78125 48.5 13.875 48.5 14.265625 
C 48.5 14.765625 48.09375 15.171875 47.5 15.171875 
C 46.59375 15.171875 46.5 14.671875 46.09375 13.171875 
C 44.59375 7.28125 42.703125 1 38.59375 1 
C 35.703125 1 35.5 3.59375 35.5 5.59375 
C 35.5 7.890625 35.796875 8.984375 36.703125 12.875 
C 37.40625 15.375 37.90625 17.5625 38.703125 20.453125 
C 42.40625 35.421875 43.296875 39.015625 43.296875 39.609375 
C 43.296875 41.015625 42.203125 42.109375 40.703125 42.109375 
C 37.5 42.109375 36.703125 38.625 36.5 37.421875 
z
" id="CMMI12-97"/>
      <path d="M 28.296875 14.265625 
C 28.296875 14.765625 27.90625 15.171875 27.296875 15.171875 
C 26.40625 15.171875 26.296875 14.875 25.796875 13.171875 
C 23.203125 4.09375 19.09375 1 15.796875 1 
C 14.59375 1 13.203125 1.296875 13.203125 4.296875 
C 13.203125 6.984375 14.40625 9.984375 15.5 12.96875 
L 22.5 31.53125 
C 22.796875 32.328125 23.5 34.125 23.5 36.015625 
C 23.5 40.21875 20.5 44 15.59375 44 
C 6.40625 44 2.703125 29.53125 2.703125 28.734375 
C 2.703125 28.34375 3.09375 27.84375 3.796875 27.84375 
C 4.703125 27.84375 4.796875 28.234375 5.203125 29.625 
C 7.59375 37.9375 11.40625 41.90625 15.296875 41.90625 
C 16.203125 41.90625 17.90625 41.90625 17.90625 38.71875 
C 17.90625 36.125 16.59375 32.828125 15.796875 30.640625 
L 8.796875 12.078125 
C 8.203125 10.484375 7.59375 8.875 7.59375 7.078125 
C 7.59375 2.59375 10.703125 -1 15.5 -1 
C 24.703125 -1 28.296875 13.578125 28.296875 14.265625 
z
M 27.5 62.703125 
C 27.5 64.203125 26.296875 66 24.09375 66 
C 21.796875 66 19.203125 63.796875 19.203125 61.203125 
C 19.203125 58.71875 21.296875 57.921875 22.5 57.921875 
C 25.203125 57.921875 27.5 60.515625 27.5 62.703125 
z
" id="CMMI12-105"/>
      <path d="M 38.90625 40.8125 
C 35.796875 40.21875 34.203125 38.015625 34.203125 35.828125 
C 34.203125 33.421875 36.09375 32.625 37.5 32.625 
C 40.296875 32.625 42.59375 35.03125 42.59375 38.015625 
C 42.59375 41.21875 39.5 44 34.5 44 
C 30.5 44 25.90625 42.203125 21.703125 36.125 
C 21 41.40625 17 44 13 44 
C 9.09375 44 7.09375 41.015625 5.90625 38.8125 
C 4.203125 35.21875 2.703125 29.234375 2.703125 28.734375 
C 2.703125 28.34375 3.09375 27.84375 3.796875 27.84375 
C 4.59375 27.84375 4.703125 27.9375 5.296875 30.234375 
C 6.796875 36.21875 8.703125 42.015625 12.703125 42.015625 
C 15.09375 42.015625 15.796875 40.3125 15.796875 37.421875 
C 15.796875 35.21875 14.796875 31.328125 14.09375 28.234375 
L 11.296875 17.46875 
C 10.90625 15.5625 9.796875 11.078125 9.296875 9.28125 
C 8.59375 6.6875 7.5 2 7.5 1.5 
C 7.5 0.09375 8.59375 -1 10.09375 -1 
C 11.203125 -1 13.09375 -0.296875 13.703125 1.703125 
C 14 2.5 17.703125 17.5625 18.296875 19.859375 
C 18.796875 22.046875 19.40625 24.15625 19.90625 26.34375 
C 20.296875 27.734375 20.703125 29.34375 21 30.640625 
C 21.296875 31.53125 24 36.421875 26.5 38.625 
C 27.703125 39.71875 30.296875 42.015625 34.40625 42.015625 
C 36 42.015625 37.59375 41.71875 38.90625 40.8125 
z
" id="CMMI12-114"/>
     </defs>
     <g transform="translate(59.341521 270.2897)rotate(-90)scale(0.24 -0.24)">
      <use transform="translate(0 14.943915)scale(0.996264)" xlink:href="#CMMI12-110"/>
      <use transform="translate(58.230047 0)scale(0.697382)" xlink:href="#CMMI12-112"/>
      <use transform="translate(92.501554 0)scale(0.697382)" xlink:href="#CMMI12-97"/>
      <use transform="translate(128.3469 0)scale(0.697382)" xlink:href="#CMMI12-105"/>
      <use transform="translate(151.641808 0)scale(0.697382)" xlink:href="#CMMI12-114"/>
     </g>
    </g>
   </g>
   <g id="line2d_15">
    <path clip-path="url(#p47d32ca645)" d="M -1 319.965724 
L 48.02405 248.959877 
L 99.191983 68.462786 
L 150.359917 248.959877 
L 201.527851 323.070899 
L 252.695784 376.810061 
L 303.863718 417.442703 
L 355.031652 447.968132 
L 406.199585 450.405378 
L 457.367519 448.101093 
L 508.535453 448.494419 
L 559.703386 451.040344 
L 610.87132 449.498091 
L 662.039253 450.95421 
L 713.207187 449.931798 
L 721 449.846389 
" style="fill:none;stroke:#0d153a;stroke-linecap:square;stroke-width:4;"/>
    <defs>
     <path d="M -4 4 
L 4 4 
L 4 -4 
L -4 -4 
z
" id="macc75395e1" style="stroke:#0d153a;stroke-linejoin:miter;stroke-width:3;"/>
    </defs>
    <g clip-path="url(#p47d32ca645)">
     <use style="fill:#0d153a;stroke:#0d153a;stroke-linejoin:miter;stroke-width:3;" x="-1" xlink:href="#macc75395e1" y="319.965724"/>
     <use style="fill:#0d153a;stroke:#0d153a;stroke-linejoin:miter;stroke-width:3;" x="48.02405" xlink:href="#macc75395e1" y="248.959877"/>
     <use style="fill:#0d153a;stroke:#0d153a;stroke-linejoin:miter;stroke-width:3;" x="99.191983" xlink:href="#macc75395e1" y="68.462786"/>
     <use style="fill:#0d153a;stroke:#0d153a;stroke-linejoin:miter;stroke-width:3;" x="150.359917" xlink:href="#macc75395e1" y="248.959877"/>
     <use style="fill:#0d153a;stroke:#0d153a;stroke-linejoin:miter;stroke-width:3;" x="201.527851" xlink:href="#macc75395e1" y="323.070899"/>
     <use style="fill:#0d153a;stroke:#0d153a;stroke-linejoin:miter;stroke-width:3;" x="252.695784" xlink:href="#macc75395e1" y="376.810061"/>
     <use style="fill:#0d153a;stroke:#0d153a;stroke-linejoin:miter;stroke-width:3;" x="303.863718" xlink:href="#macc75395e1" y="417.442703"/>
     <use style="fill:#0d153a;stroke:#0d153a;stroke-linejoin:miter;stroke-width:3;" x="355.031652" xlink:href="#macc75395e1" y="447.968132"/>
     <use style="fill:#0d153a;stroke:#0d153a;stroke-linejoin:miter;stroke-width:3;" x="406.199585" xlink:href="#macc75395e1" y="450.405378"/>
     <use style="fill:#0d153a;stroke:#0d153a;stroke-linejoin:miter;stroke-width:3;" x="457.367519" xlink:href="#macc75395e1" y="448.101093"/>
     <use style="fill:#0d153a;stroke:#0d153a;stroke-linejoin:miter;stroke-width:3;" x="508.535453" xlink:href="#macc75395e1" y="448.494419"/>
     <use style="fill:#0d153a;stroke:#0d153a;stroke-linejoin:miter;stroke-width:3;" x="559.703386" xlink:href="#macc75395e1" y="451.040344"/>
     <use style="fill:#0d153a;stroke:#0d153a;stroke-linejoin:miter;stroke-width:3;" x="610.87132" xlink:href="#macc75395e1" y="449.498091"/>
     <use style="fill:#0d153a;stroke:#0d153a;stroke-linejoin:miter;stroke-width:3;" x="662.039253" xlink:href="#macc75395e1" y="450.95421"/>
     <use style="fill:#0d153a;stroke:#0d153a;stroke-linejoin:miter;stroke-width:3;" x="713.207187" xlink:href="#macc75395e1" y="449.931798"/>
     <use style="fill:#0d153a;stroke:#0d153a;stroke-linejoin:miter;stroke-width:3;" x="764.375121" xlink:href="#macc75395e1" y="449.370997"/>
     <use style="fill:#0d153a;stroke:#0d153a;stroke-linejoin:miter;stroke-width:3;" x="815.543054" xlink:href="#macc75395e1" y="449.055818"/>
     <use style="fill:#0d153a;stroke:#0d153a;stroke-linejoin:miter;stroke-width:3;" x="866.710988" xlink:href="#macc75395e1" y="449.242011"/>
     <use style="fill:#0d153a;stroke:#0d153a;stroke-linejoin:miter;stroke-width:3;" x="917.878922" xlink:href="#macc75395e1" y="450.027451"/>
     <use style="fill:#0d153a;stroke:#0d153a;stroke-linejoin:miter;stroke-width:3;" x="969.046855" xlink:href="#macc75395e1" y="450.270052"/>
     <use style="fill:#0d153a;stroke:#0d153a;stroke-linejoin:miter;stroke-width:3;" x="1020.214789" xlink:href="#macc75395e1" y="450.128502"/>
     <use style="fill:#0d153a;stroke:#0d153a;stroke-linejoin:miter;stroke-width:3;" x="1071.382723" xlink:href="#macc75395e1" y="450.305484"/>
     <use style="fill:#0d153a;stroke:#0d153a;stroke-linejoin:miter;stroke-width:3;" x="1122.550656" xlink:href="#macc75395e1" y="449.691285"/>
    </g>
   </g>
   <g id="line2d_16">
    <path clip-path="url(#p47d32ca645)" d="M -1 286.212917 
L 48.02405 300.302281 
L 99.191983 303.945636 
L 150.359917 300.302281 
L 201.527851 285.596771 
L 252.695784 354.381175 
L 303.863718 406.46578 
L 355.031652 448.913053 
L 406.199585 449.635242 
L 457.367519 449.772177 
L 508.535453 450.113852 
L 559.703386 449.359146 
L 610.87132 449.471167 
L 662.039253 449.750947 
L 713.207187 449.921184 
L 721 449.94071 
" style="fill:none;stroke:#a42604;stroke-linecap:square;stroke-width:4;"/>
    <defs>
     <path d="M -4 4 
L 4 4 
L 4 -4 
L -4 -4 
z
" id="m6a2ead1270" style="stroke:#a42604;stroke-linejoin:miter;stroke-width:3;"/>
    </defs>
    <g clip-path="url(#p47d32ca645)">
     <use style="fill:#a42604;stroke:#a42604;stroke-linejoin:miter;stroke-width:3;" x="-1" xlink:href="#m6a2ead1270" y="286.212917"/>
     <use style="fill:#a42604;stroke:#a42604;stroke-linejoin:miter;stroke-width:3;" x="48.02405" xlink:href="#m6a2ead1270" y="300.302281"/>
     <use style="fill:#a42604;stroke:#a42604;stroke-linejoin:miter;stroke-width:3;" x="99.191983" xlink:href="#m6a2ead1270" y="303.945636"/>
     <use style="fill:#a42604;stroke:#a42604;stroke-linejoin:miter;stroke-width:3;" x="150.359917" xlink:href="#m6a2ead1270" y="300.302281"/>
     <use style="fill:#a42604;stroke:#a42604;stroke-linejoin:miter;stroke-width:3;" x="201.527851" xlink:href="#m6a2ead1270" y="285.596771"/>
     <use style="fill:#a42604;stroke:#a42604;stroke-linejoin:miter;stroke-width:3;" x="252.695784" xlink:href="#m6a2ead1270" y="354.381175"/>
     <use style="fill:#a42604;stroke:#a42604;stroke-linejoin:miter;stroke-width:3;" x="303.863718" xlink:href="#m6a2ead1270" y="406.46578"/>
     <use style="fill:#a42604;stroke:#a42604;stroke-linejoin:miter;stroke-width:3;" x="355.031652" xlink:href="#m6a2ead1270" y="448.913053"/>
     <use style="fill:#a42604;stroke:#a42604;stroke-linejoin:miter;stroke-width:3;" x="406.199585" xlink:href="#m6a2ead1270" y="449.635242"/>
     <use style="fill:#a42604;stroke:#a42604;stroke-linejoin:miter;stroke-width:3;" x="457.367519" xlink:href="#m6a2ead1270" y="449.772177"/>
     <use style="fill:#a42604;stroke:#a42604;stroke-linejoin:miter;stroke-width:3;" x="508.535453" xlink:href="#m6a2ead1270" y="450.113852"/>
     <use style="fill:#a42604;stroke:#a42604;stroke-linejoin:miter;stroke-width:3;" x="559.703386" xlink:href="#m6a2ead1270" y="449.359146"/>
     <use style="fill:#a42604;stroke:#a42604;stroke-linejoin:miter;stroke-width:3;" x="610.87132" xlink:href="#m6a2ead1270" y="449.471167"/>
     <use style="fill:#a42604;stroke:#a42604;stroke-linejoin:miter;stroke-width:3;" x="662.039253" xlink:href="#m6a2ead1270" y="449.750947"/>
     <use style="fill:#a42604;stroke:#a42604;stroke-linejoin:miter;stroke-width:3;" x="713.207187" xlink:href="#m6a2ead1270" y="449.921184"/>
     <use style="fill:#a42604;stroke:#a42604;stroke-linejoin:miter;stroke-width:3;" x="764.375121" xlink:href="#m6a2ead1270" y="450.049392"/>
     <use style="fill:#a42604;stroke:#a42604;stroke-linejoin:miter;stroke-width:3;" x="815.543054" xlink:href="#m6a2ead1270" y="450.232614"/>
     <use style="fill:#a42604;stroke:#a42604;stroke-linejoin:miter;stroke-width:3;" x="866.710988" xlink:href="#m6a2ead1270" y="450.16048"/>
     <use style="fill:#a42604;stroke:#a42604;stroke-linejoin:miter;stroke-width:3;" x="917.878922" xlink:href="#m6a2ead1270" y="449.987903"/>
     <use style="fill:#a42604;stroke:#a42604;stroke-linejoin:miter;stroke-width:3;" x="969.046855" xlink:href="#m6a2ead1270" y="449.861145"/>
     <use style="fill:#a42604;stroke:#a42604;stroke-linejoin:miter;stroke-width:3;" x="1020.214789" xlink:href="#m6a2ead1270" y="449.892193"/>
     <use style="fill:#a42604;stroke:#a42604;stroke-linejoin:miter;stroke-width:3;" x="1071.382723" xlink:href="#m6a2ead1270" y="449.968927"/>
     <use style="fill:#a42604;stroke:#a42604;stroke-linejoin:miter;stroke-width:3;" x="1122.550656" xlink:href="#m6a2ead1270" y="449.991753"/>
    </g>
   </g>
   <g id="line2d_17">
    <path clip-path="url(#p47d32ca645)" d="M -1 402.863119 
L 48.02405 404.093389 
L 99.191983 404.267972 
L 150.359917 404.093389 
L 201.527851 402.809318 
L 252.695784 399.590478 
L 303.863718 390.677669 
L 355.031652 450.782565 
L 406.199585 449.206712 
L 457.367519 450.180504 
L 508.535453 449.591916 
L 559.703386 449.676655 
L 610.87132 449.88532 
L 662.039253 449.53794 
L 713.207187 450.269453 
L 721 450.219129 
" style="fill:none;stroke:#187795;stroke-linecap:square;stroke-width:4;"/>
    <defs>
     <path d="M -4 4 
L 4 4 
L 4 -4 
L -4 -4 
z
" id="med5b189766" style="stroke:#187795;stroke-linejoin:miter;stroke-width:3;"/>
    </defs>
    <g clip-path="url(#p47d32ca645)">
     <use style="fill:#187795;stroke:#187795;stroke-linejoin:miter;stroke-width:3;" x="-1" xlink:href="#med5b189766" y="402.863119"/>
     <use style="fill:#187795;stroke:#187795;stroke-linejoin:miter;stroke-width:3;" x="48.02405" xlink:href="#med5b189766" y="404.093389"/>
     <use style="fill:#187795;stroke:#187795;stroke-linejoin:miter;stroke-width:3;" x="99.191983" xlink:href="#med5b189766" y="404.267972"/>
     <use style="fill:#187795;stroke:#187795;stroke-linejoin:miter;stroke-width:3;" x="150.359917" xlink:href="#med5b189766" y="404.093389"/>
     <use style="fill:#187795;stroke:#187795;stroke-linejoin:miter;stroke-width:3;" x="201.527851" xlink:href="#med5b189766" y="402.809318"/>
     <use style="fill:#187795;stroke:#187795;stroke-linejoin:miter;stroke-width:3;" x="252.695784" xlink:href="#med5b189766" y="399.590478"/>
     <use style="fill:#187795;stroke:#187795;stroke-linejoin:miter;stroke-width:3;" x="303.863718" xlink:href="#med5b189766" y="390.677669"/>
     <use style="fill:#187795;stroke:#187795;stroke-linejoin:miter;stroke-width:3;" x="355.031652" xlink:href="#med5b189766" y="450.782565"/>
     <use style="fill:#187795;stroke:#187795;stroke-linejoin:miter;stroke-width:3;" x="406.199585" xlink:href="#med5b189766" y="449.206712"/>
     <use style="fill:#187795;stroke:#187795;stroke-linejoin:miter;stroke-width:3;" x="457.367519" xlink:href="#med5b189766" y="450.180504"/>
     <use style="fill:#187795;stroke:#187795;stroke-linejoin:miter;stroke-width:3;" x="508.535453" xlink:href="#med5b189766" y="449.591916"/>
     <use style="fill:#187795;stroke:#187795;stroke-linejoin:miter;stroke-width:3;" x="559.703386" xlink:href="#med5b189766" y="449.676655"/>
     <use style="fill:#187795;stroke:#187795;stroke-linejoin:miter;stroke-width:3;" x="610.87132" xlink:href="#med5b189766" y="449.88532"/>
     <use style="fill:#187795;stroke:#187795;stroke-linejoin:miter;stroke-width:3;" x="662.039253" xlink:href="#med5b189766" y="449.53794"/>
     <use style="fill:#187795;stroke:#187795;stroke-linejoin:miter;stroke-width:3;" x="713.207187" xlink:href="#med5b189766" y="450.269453"/>
     <use style="fill:#187795;stroke:#187795;stroke-linejoin:miter;stroke-width:3;" x="764.375121" xlink:href="#med5b189766" y="449.939023"/>
     <use style="fill:#187795;stroke:#187795;stroke-linejoin:miter;stroke-width:3;" x="815.543054" xlink:href="#med5b189766" y="450.019208"/>
     <use style="fill:#187795;stroke:#187795;stroke-linejoin:miter;stroke-width:3;" x="866.710988" xlink:href="#med5b189766" y="450.049982"/>
     <use style="fill:#187795;stroke:#187795;stroke-linejoin:miter;stroke-width:3;" x="917.878922" xlink:href="#med5b189766" y="449.696287"/>
     <use style="fill:#187795;stroke:#187795;stroke-linejoin:miter;stroke-width:3;" x="969.046855" xlink:href="#med5b189766" y="450.149592"/>
     <use style="fill:#187795;stroke:#187795;stroke-linejoin:miter;stroke-width:3;" x="1020.214789" xlink:href="#med5b189766" y="449.803231"/>
     <use style="fill:#187795;stroke:#187795;stroke-linejoin:miter;stroke-width:3;" x="1071.382723" xlink:href="#med5b189766" y="450.07116"/>
     <use style="fill:#187795;stroke:#187795;stroke-linejoin:miter;stroke-width:3;" x="1122.550656" xlink:href="#med5b189766" y="450.035612"/>
    </g>
   </g>
   <g id="patch_3">
    <path d="M 86.4 475.2 
L 86.4 21.6 
" style="fill:none;stroke:#000000;stroke-linecap:square;stroke-linejoin:miter;stroke-width:2;"/>
   </g>
   <g id="patch_4">
    <path d="M 702 475.2 
L 702 21.6 
" style="fill:none;stroke:#000000;stroke-linecap:square;stroke-linejoin:miter;stroke-width:2;"/>
   </g>
   <g id="patch_5">
    <path d="M 86.4 475.2 
L 702 475.2 
" style="fill:none;stroke:#000000;stroke-linecap:square;stroke-linejoin:miter;stroke-width:2;"/>
   </g>
   <g id="patch_6">
    <path d="M 86.4 21.6 
L 702 21.6 
" style="fill:none;stroke:#000000;stroke-linecap:square;stroke-linejoin:miter;stroke-width:2;"/>
   </g>
   <g id="text_17">
    <!-- $ N =\ $5$\uparrow +\ $5$\downarrow$ -->
    <defs>
     <path d="M 74 57.78125 
C 75.09375 62.09375 76.703125 65.09375 84.296875 65.09375 
C 84.59375 65.09375 85.796875 65.09375 85.796875 66.859375 
C 85.796875 68 84.90625 68 84.5 68 
C 82.5 68 77.40625 68 75.40625 68 
L 70.59375 68 
C 69.203125 68 67.40625 68 66 68 
C 65.40625 68 64.203125 68 64.203125 66.09375 
C 64.203125 65.09375 65 65.09375 65.703125 65.09375 
C 71.703125 65.09375 72.09375 62.796875 72.09375 60.984375 
C 72.09375 60.09375 72 59.78125 71.703125 58.390625 
L 60.40625 13.28125 
L 39 66.390625 
C 38.296875 68 38.203125 68 36 68 
L 23.796875 68 
C 21.796875 68 20.90625 68 20.90625 66.09375 
C 20.90625 65.09375 21.59375 65.09375 23.5 65.09375 
C 24 65.09375 29.90625 65.09375 29.90625 64.296875 
C 29.90625 64.09375 29.703125 63.296875 29.59375 63 
L 16.296875 9.921875 
C 15.09375 5 12.703125 2.90625 6.09375 2.90625 
C 5.59375 2.90625 4.59375 2.90625 4.59375 1.046875 
C 4.59375 0 5.59375 0 5.90625 0 
C 7.90625 0 13 0 15 0 
L 19.796875 0 
C 21.203125 0 22.90625 0 24.296875 0 
C 25 0 26.09375 0 26.09375 1.90625 
C 26.09375 2.8125 25.09375 2.90625 24.703125 2.90625 
C 21.40625 2.90625 18.203125 3.5 18.203125 7.09375 
C 18.203125 7.890625 18.40625 8.78125 18.59375 9.578125 
L 32.09375 63 
C 32.703125 62 32.703125 61.8125 33.09375 60.90625 
L 56.90625 1.796875 
C 57.40625 0.59375 57.59375 0 58.5 0 
C 59.5 0 59.59375 0.296875 60 2 
z
" id="CMMI12-78"/>
     <path d="M 64.296875 31.515625 
C 65.796875 31.515625 67.296875 31.515625 67.296875 33.203125 
C 67.296875 35 65.59375 35 63.90625 35 
L 8 35 
C 6.296875 35 4.59375 35 4.59375 33.203125 
C 4.59375 31.515625 6.09375 31.515625 7.59375 31.515625 
z
M 63.90625 14 
C 65.59375 14 67.296875 14 67.296875 15.796875 
C 67.296875 17.484375 65.796875 17.484375 64.296875 17.484375 
L 7.59375 17.484375 
C 6.09375 17.484375 4.59375 17.484375 4.59375 15.796875 
C 4.59375 14 6.296875 14 8 14 
z
" id="CMR17-61"/>
     <path d="M 47.59375 71 
L 11 71 
L 5.703125 32.59375 
L 13.796875 32.59375 
C 17.90625 37.484375 21.296875 39.1875 26.796875 39.1875 
C 36.296875 39.1875 42.296875 32.6875 42.296875 22.203125 
C 42.296875 12 36.40625 5.8125 26.796875 5.8125 
C 19.09375 5.8125 14.40625 9.703125 12.296875 17.703125 
L 3.5 17.703125 
C 4.703125 11.90625 5.703125 9.09375 7.796875 6.484375 
C 11.796875 1.09375 19 -2 27 -2 
C 41.296875 -2 51.296875 8.390625 51.296875 23.390625 
C 51.296875 37.40625 42 47 28.40625 47 
C 23.40625 47 19.40625 45.703125 15.296875 42.6875 
L 18.09375 62.296875 
L 47.59375 62.296875 
z
" id="Nimbus_Sans_L_Regular-53"/>
     <path d="M 27 55.34375 
C 29.40625 51.546875 32.203125 48.75 34.703125 46.828125 
C 40.796875 42.234375 46.90625 41.234375 47.09375 41.234375 
C 48.296875 41.234375 48.296875 42.328125 48.296875 43.125 
C 48.296875 44.734375 48.203125 44.828125 46 45.53125 
C 39.203125 47.421875 35.296875 51.03125 33 53.53125 
C 27.90625 59.046875 26.703125 65.046875 26.09375 68.25 
C 26 68.75 25.59375 69.140625 25 69.140625 
C 24.09375 69.140625 24 68.546875 23.796875 67.34375 
C 21.5 56.25 14.40625 48.4375 3.40625 45.34375 
C 1.90625 44.84375 1.703125 44.84375 1.703125 43.140625 
C 1.703125 42.34375 1.703125 41.234375 2.90625 41.234375 
C 3.203125 41.234375 9.09375 42.328125 14.796875 46.421875 
C 18.09375 48.9375 20.796875 51.9375 23 55.34375 
L 23 -15.953125 
C 23 -17.75 23 -19.5625 25 -19.5625 
C 27 -19.5625 27 -17.75 27 -15.953125 
z
" id="CMSY10-34"/>
     <path d="M 37.703125 23 
L 64.203125 23 
C 65.59375 23 67.296875 23 67.296875 24.6875 
C 67.296875 26.484375 65.703125 26.484375 64.203125 26.484375 
L 37.703125 26.484375 
L 37.703125 52.90625 
C 37.703125 54.296875 37.703125 56 36 56 
C 34.203125 56 34.203125 54.40625 34.203125 52.90625 
L 34.203125 26.484375 
L 7.703125 26.484375 
C 6.296875 26.484375 4.59375 26.484375 4.59375 24.796875 
C 4.59375 23 6.203125 23 7.703125 23 
L 34.203125 23 
L 34.203125 -3.40625 
C 34.203125 -4.796875 34.203125 -6.5 35.90625 -6.5 
C 37.703125 -6.5 37.703125 -4.90625 37.703125 -3.40625 
z
" id="CMR17-43"/>
     <path d="M 27 65.953125 
C 27 67.75 27 69.5625 25 69.5625 
C 23 69.5625 23 67.75 23 65.953125 
L 23 -5.34375 
C 20.59375 -1.546875 17.796875 1.25 15.296875 3.171875 
C 9.203125 7.765625 3.09375 8.765625 2.90625 8.765625 
C 1.703125 8.765625 1.703125 7.671875 1.703125 6.875 
C 1.703125 5.265625 1.796875 5.171875 4 4.46875 
C 10.796875 2.578125 14.703125 -1.03125 17 -3.53125 
C 22.09375 -9.046875 23.296875 -15.046875 23.90625 -18.140625 
C 24 -18.640625 24.296875 -19.140625 25 -19.140625 
C 25.90625 -19.140625 26 -18.4375 26.203125 -17.546875 
C 28.40625 -6.25 35.59375 1.5625 46.59375 4.65625 
C 48.09375 5.15625 48.296875 5.15625 48.296875 6.859375 
C 48.296875 7.65625 48.296875 8.765625 47.109375 8.765625 
C 46.796875 8.765625 40.90625 7.671875 35.203125 3.578125 
C 31.90625 1.0625 29.203125 -1.9375 27 -5.34375 
z
" id="CMSY10-35"/>
    </defs>
    <g style="fill:#0d153a;" transform="translate(111.983967 58.382786)scale(0.28 -0.28)">
     <use transform="scale(0.996264)" xlink:href="#CMMI12-78"/>
     <use transform="translate(116.195781 0)scale(0.996264)" xlink:href="#CMR17-61"/>
     <use transform="translate(215.605739 0)scale(0.996264)" xlink:href="#Nimbus_Sans_L_Regular-53"/>
     <use transform="translate(270.997416 0)scale(0.996264)" xlink:href="#CMSY10-34"/>
     <use transform="translate(348.484808 0)scale(0.996264)" xlink:href="#CMR17-43"/>
     <use transform="translate(447.894766 0)scale(0.996264)" xlink:href="#Nimbus_Sans_L_Regular-53"/>
     <use transform="translate(503.286443 0)scale(0.996264)" xlink:href="#CMSY10-35"/>
    </g>
   </g>
   <g id="text_18">
    <!-- $ N =\ $7$\uparrow +\ $3$\downarrow$ -->
    <defs>
     <path d="M 52 70.703125 
L 4.59375 70.703125 
L 4.59375 62 
L 42.90625 62 
C 26 37.78125 19.09375 22.90625 13.796875 -0.5 
L 23.203125 -0.5 
C 27.09375 22.296875 36 41.890625 52 63.296875 
z
" id="Nimbus_Sans_L_Regular-55"/>
     <path d="M 22.09375 33 
L 23.203125 33 
L 26.90625 33 
C 36.59375 33 41.59375 28.59375 41.59375 20.0625 
C 41.59375 11.125 36.09375 5.8125 26.90625 5.8125 
C 17.296875 5.8125 12.59375 10.640625 12 21.015625 
L 3.203125 21.015625 
C 3.59375 15.28125 4.59375 11.5625 6.296875 8.34375 
C 9.90625 1.515625 16.90625 -2 26.59375 -2 
C 41.203125 -2 50.59375 6.734375 50.59375 20.203125 
C 50.59375 29.25 47.09375 34.28125 38.59375 37.203125 
C 45.203125 39.78125 48.5 44.71875 48.5 51.734375 
C 48.5 63.78125 40.40625 71 26.90625 71 
C 12.59375 71 5 63.28125 4.703125 48.359375 
L 13.5 48.359375 
C 13.59375 52.59375 14 54.953125 15.09375 57.109375 
C 17.09375 60.9375 21.5 63.296875 27 63.296875 
C 34.796875 63.296875 39.5 58.75 39.5 51.359375 
C 39.5 46.421875 37.703125 43.453125 33.796875 41.890625 
C 31.40625 40.90625 28.296875 40.5 22.09375 40.5 
z
" id="Nimbus_Sans_L_Regular-51"/>
    </defs>
    <g style="fill:#a42604;" transform="translate(214.319834 275.516771)scale(0.28 -0.28)">
     <use transform="scale(0.996264)" xlink:href="#CMMI12-78"/>
     <use transform="translate(116.195781 0)scale(0.996264)" xlink:href="#CMR17-61"/>
     <use transform="translate(215.605739 0)scale(0.996264)" xlink:href="#Nimbus_Sans_L_Regular-55"/>
     <use transform="translate(270.997416 0)scale(0.996264)" xlink:href="#CMSY10-34"/>
     <use transform="translate(348.484808 0)scale(0.996264)" xlink:href="#CMR17-43"/>
     <use transform="translate(447.894766 0)scale(0.996264)" xlink:href="#Nimbus_Sans_L_Regular-51"/>
     <use transform="translate(503.286443 0)scale(0.996264)" xlink:href="#CMSY10-35"/>
    </g>
   </g>
   <g id="text_19">
    <!-- $ N =\ $9$\uparrow +\ $1$\downarrow$ -->
    <defs>
     <path d="M 5.296875 16.625 
C 7 4.9375 14.59375 -2 25.40625 -2 
C 33.203125 -2 40.296875 1.78125 44.40625 8.0625 
C 48.90625 14.9375 50.90625 23.625 50.90625 36.484375 
C 50.90625 48.359375 49.09375 55.9375 44.90625 62.21875 
C 41 67.921875 34.796875 71 27 71 
C 13.5 71 3.796875 61.078125 3.796875 47.296875 
C 3.796875 34.21875 12.796875 25 25.59375 25 
C 32.296875 25 37.203125 27.40625 41.796875 32.90625 
C 41.703125 15.484375 36.09375 5.8125 26 5.8125 
C 19.796875 5.8125 15.5 9.75 14.09375 16.625 
z
M 26.90625 63.296875 
C 35.09375 63.296875 41.296875 56.59375 41.296875 47.515625 
C 41.296875 38.921875 35.203125 32.8125 26.59375 32.8125 
C 18.09375 32.8125 12.796875 38.625 12.796875 48 
C 12.796875 56.875 18.796875 63.296875 26.90625 63.296875 
z
" id="Nimbus_Sans_L_Regular-57"/>
     <path d="M 25.90625 50.59375 
L 25.90625 0 
L 34.703125 0 
L 34.703125 71.015625 
L 28.90625 71.015625 
C 25.796875 60.109375 23.796875 58.609375 10.203125 56.90625 
L 10.203125 50.59375 
z
" id="Nimbus_Sans_L_Regular-49"/>
    </defs>
    <g style="fill:#187795;" transform="translate(316.655701 380.597669)scale(0.28 -0.28)">
     <use transform="scale(0.996264)" xlink:href="#CMMI12-78"/>
     <use transform="translate(116.195781 0)scale(0.996264)" xlink:href="#CMR17-61"/>
     <use transform="translate(215.605739 0)scale(0.996264)" xlink:href="#Nimbus_Sans_L_Regular-57"/>
     <use transform="translate(270.997416 0)scale(0.996264)" xlink:href="#CMSY10-34"/>
     <use transform="translate(348.484808 0)scale(0.996264)" xlink:href="#CMR17-43"/>
     <use transform="translate(447.894766 0)scale(0.996264)" xlink:href="#Nimbus_Sans_L_Regular-49"/>
     <use transform="translate(503.286443 0)scale(0.996264)" xlink:href="#CMSY10-35"/>
    </g>
   </g>
  </g>
  <g id="axes_2">
   <g id="patch_7">
    <path d="M 396 256.5 
L 684 256.5 
L 684 40.5 
L 396 40.5 
z
" style="fill:#ffffff;"/>
   </g>
   <g id="matplotlib.axis_3">
    <g id="xtick_6">
     <g id="line2d_18">
      <defs>
       <path d="M 0 0 
L 0 3.5 
" id="m939b0cadfc" style="stroke:#000000;stroke-width:1.5;"/>
      </defs>
      <g>
       <use style="stroke:#000000;stroke-width:1.5;" x="409.090909" xlink:href="#m939b0cadfc" y="256.5"/>
      </g>
     </g>
     <g id="text_20">
      <!-- $0$ -->
      <g transform="translate(403.608052 280.535969)scale(0.24 -0.24)">
       <use transform="scale(0.996264)" xlink:href="#CMR17-48"/>
      </g>
     </g>
    </g>
    <g id="xtick_7">
     <g id="line2d_19">
      <g>
       <use style="stroke:#000000;stroke-width:1.5;" x="540" xlink:href="#m939b0cadfc" y="256.5"/>
      </g>
     </g>
     <g id="text_21">
      <!-- $1$ -->
      <g transform="translate(534.517143 280.535969)scale(0.24 -0.24)">
       <use transform="scale(0.996264)" xlink:href="#CMR17-49"/>
      </g>
     </g>
    </g>
    <g id="xtick_8">
     <g id="line2d_20">
      <g>
       <use style="stroke:#000000;stroke-width:1.5;" x="670.909091" xlink:href="#m939b0cadfc" y="256.5"/>
      </g>
     </g>
     <g id="text_22">
      <!-- $2$ -->
      <g transform="translate(665.426234 280.535969)scale(0.24 -0.24)">
       <use transform="scale(0.996264)" xlink:href="#CMR17-50"/>
      </g>
     </g>
    </g>
    <g id="text_23">
     <!-- $|k_F^{\uparrow} - k_F^{\downarrow}| / k_F$ -->
     <defs>
      <path d="M 15.90625 71.40625 
C 15.90625 73.203125 15.90625 75 13.90625 75 
C 11.90625 75 11.90625 73.203125 11.90625 71.40625 
L 11.90625 -21.40625 
C 11.90625 -23.203125 11.90625 -25 13.90625 -25 
C 15.90625 -25 15.90625 -23.203125 15.90625 -21.40625 
z
" id="CMSY10-106"/>
      <path d="M 65.90625 23 
C 67.59375 23 69.40625 23 69.40625 25 
C 69.40625 27 67.59375 27 65.90625 27 
L 11.796875 27 
C 10.09375 27 8.296875 27 8.296875 25 
C 8.296875 23 10.09375 23 11.796875 23 
z
" id="CMSY10-0"/>
     </defs>
     <g transform="translate(475.941141 314.676026)scale(0.24 -0.24)">
      <use transform="translate(0 29.278481)scale(0.996264)" xlink:href="#CMSY10-106"/>
      <use transform="translate(27.674085 29.278481)scale(0.996264)" xlink:href="#CMMI12-107"/>
      <use transform="translate(81.753285 77.15429)scale(0.697382)" xlink:href="#CMSY10-34"/>
      <use transform="translate(78.409273 0)scale(0.697382)" xlink:href="#CMMI12-70"/>
      <use transform="translate(154.734124 29.278481)scale(0.996264)" xlink:href="#CMSY10-0"/>
      <use transform="translate(254.360798 29.278481)scale(0.996264)" xlink:href="#CMMI12-107"/>
      <use transform="translate(308.439999 77.15429)scale(0.697382)" xlink:href="#CMSY10-35"/>
      <use transform="translate(305.095987 0)scale(0.697382)" xlink:href="#CMMI12-70"/>
      <use transform="translate(359.281631 29.278481)scale(0.996264)" xlink:href="#CMSY10-106"/>
      <use transform="translate(386.955715 29.278481)scale(0.996264)" xlink:href="#CMMI12-61"/>
      <use transform="translate(435.730634 29.278481)scale(0.996264)" xlink:href="#CMMI12-107"/>
      <use transform="translate(486.465823 14.334566)scale(0.697382)" xlink:href="#CMMI12-70"/>
     </g>
    </g>
   </g>
   <g id="matplotlib.axis_4">
    <g id="ytick_10">
     <g id="line2d_21">
      <defs>
       <path d="M 0 0 
L -3.5 0 
" id="m6b57da8389" style="stroke:#000000;stroke-width:1.5;"/>
      </defs>
      <g>
       <use style="stroke:#000000;stroke-width:1.5;" x="396" xlink:href="#m6b57da8389" y="246.681818"/>
      </g>
     </g>
     <g id="text_24">
      <!-- $0$ -->
      <g transform="translate(378.034285 255.199802)scale(0.24 -0.24)">
       <use transform="scale(0.996264)" xlink:href="#CMR17-48"/>
      </g>
     </g>
    </g>
    <g id="ytick_11">
     <g id="line2d_22">
      <g>
       <use style="stroke:#000000;stroke-width:1.5;" x="396" xlink:href="#m6b57da8389" y="148.5"/>
      </g>
     </g>
     <g id="text_25">
      <!-- $1$ -->
      <g transform="translate(378.034285 157.017984)scale(0.24 -0.24)">
       <use transform="scale(0.996264)" xlink:href="#CMR17-49"/>
      </g>
     </g>
    </g>
    <g id="ytick_12">
     <g id="line2d_23">
      <g>
       <use style="stroke:#000000;stroke-width:1.5;" x="396" xlink:href="#m6b57da8389" y="50.318182"/>
      </g>
     </g>
     <g id="text_26">
      <!-- $2$ -->
      <g transform="translate(378.034285 58.836166)scale(0.24 -0.24)">
       <use transform="scale(0.996264)" xlink:href="#CMR17-50"/>
      </g>
     </g>
    </g>
    <g id="text_27">
     <!-- $k_{peak} / k_F$ -->
     <defs>
      <path d="M 17.90625 23.109375 
C 20.59375 23.109375 27.40625 23.109375 32.203125 24.921875 
C 39.796875 27.859375 40.5 33.71875 40.5 35.53125 
C 40.5 39.96875 36.703125 44 30.09375 44 
C 19.59375 44 4.5 34.53125 4.5 16.765625 
C 4.5 6.28125 10.5 -1 19.59375 -1 
C 33.203125 -1 41.796875 9.515625 41.796875 10.8125 
C 41.796875 11.40625 41.203125 11.90625 40.796875 11.90625 
C 40.5 11.90625 40.40625 11.8125 39.5 10.921875 
C 33.09375 2.484375 23.59375 1 19.796875 1 
C 14.09375 1 11.09375 5.46875 11.09375 12.84375 
C 11.09375 14.234375 11.09375 16.734375 12.59375 23.109375 
z
M 13.09375 25 
C 17.40625 40.5 26.90625 42.015625 30.09375 42.015625 
C 34.5 42.015625 37.5 39.40625 37.5 35.578125 
C 37.5 25 21.5 25 17.296875 25 
z
" id="CMMI12-101"/>
     </defs>
     <g transform="translate(368.941521 188.837344)rotate(-90)scale(0.24 -0.24)">
      <use transform="translate(0 14.943915)scale(0.996264)" xlink:href="#CMMI12-107"/>
      <use transform="translate(50.735189 0)scale(0.697382)" xlink:href="#CMMI12-112"/>
      <use transform="translate(85.006695 0)scale(0.697382)" xlink:href="#CMMI12-101"/>
      <use transform="translate(116.654951 0)scale(0.697382)" xlink:href="#CMMI12-97"/>
      <use transform="translate(152.500298 0)scale(0.697382)" xlink:href="#CMMI12-107"/>
      <use transform="translate(190.85368 14.943915)scale(0.996264)" xlink:href="#CMMI12-61"/>
      <use transform="translate(239.628599 14.943915)scale(0.996264)" xlink:href="#CMMI12-107"/>
      <use transform="translate(290.363788 0)scale(0.697382)" xlink:href="#CMMI12-70"/>
     </g>
    </g>
   </g>
   <g id="line2d_24">
    <path clip-path="url(#p42921cb7ae)" d="M 409.090909 246.681818 
L 413.057851 243.706612 
L 417.024793 240.731405 
L 420.991736 237.756198 
L 424.958678 234.780992 
L 428.92562 231.805785 
L 432.892562 228.830579 
L 436.859504 225.855372 
L 440.826446 222.880165 
L 444.793388 219.904959 
L 448.760331 216.929752 
L 452.727273 213.954545 
L 456.694215 210.979339 
L 460.661157 208.004132 
L 464.628099 205.028926 
L 468.595041 202.053719 
L 472.561983 199.078512 
L 476.528926 196.103306 
L 480.495868 193.128099 
L 484.46281 190.152893 
L 488.429752 187.177686 
L 492.396694 184.202479 
L 496.363636 181.227273 
L 500.330579 178.252066 
L 504.297521 175.27686 
L 508.264463 172.301653 
L 512.231405 169.326446 
L 516.198347 166.35124 
L 520.165289 163.376033 
L 524.132231 160.400826 
L 528.099174 157.42562 
L 532.066116 154.450413 
L 536.033058 151.475207 
L 540 148.5 
L 543.966942 145.524793 
L 547.933884 142.549587 
L 551.900826 139.57438 
L 555.867769 136.599174 
L 559.834711 133.623967 
L 563.801653 130.64876 
L 567.768595 127.673554 
L 571.735537 124.698347 
L 575.702479 121.72314 
L 579.669421 118.747934 
L 583.636364 115.772727 
L 587.603306 112.797521 
L 591.570248 109.822314 
L 595.53719 106.847107 
L 599.504132 103.871901 
L 603.471074 100.896694 
L 607.438017 97.921488 
L 611.404959 94.946281 
L 615.371901 91.971074 
L 619.338843 88.995868 
L 623.305785 86.020661 
L 627.272727 83.045455 
L 631.239669 80.070248 
L 635.206612 77.095041 
L 639.173554 74.119835 
L 643.140496 71.144628 
L 647.107438 68.169421 
L 651.07438 65.194215 
L 655.041322 62.219008 
L 659.008264 59.243802 
L 662.975207 56.268595 
L 666.942149 53.293388 
L 670.909091 50.318182 
L 674.876033 47.342975 
L 678.842975 44.367769 
L 682.809917 41.392562 
L 686.77686 38.417355 
L 690.743802 35.442149 
L 694.710744 32.466942 
L 698.677686 29.491736 
L 702.644628 26.516529 
L 706.61157 23.541322 
L 710.578512 20.566116 
L 714.545455 17.590909 
L 718.512397 14.615702 
L 721 12.75 
" style="fill:none;stroke:#808080;stroke-dasharray:11.1,4.8;stroke-dashoffset:0;stroke-width:3;"/>
   </g>
   <g id="line2d_25">
    <defs>
     <path d="M -7.5 7.5 
L 7.5 7.5 
L 7.5 -7.5 
L -7.5 -7.5 
z
" id="m7d80f71381"/>
    </defs>
    <g clip-path="url(#p42921cb7ae)">
     <use style="fill:#0d153a;" x="409.090909" xlink:href="#m7d80f71381" y="246.681818"/>
    </g>
   </g>
   <g id="line2d_26">
    <defs>
     <path d="M -7.5 7.5 
L 7.5 7.5 
L 7.5 -7.5 
L -7.5 -7.5 
z
" id="m2f262a4a70"/>
    </defs>
    <g clip-path="url(#p42921cb7ae)">
     <use style="fill:#a42604;" x="513.818182" xlink:href="#m2f262a4a70" y="168.136364"/>
    </g>
   </g>
   <g id="line2d_27">
    <defs>
     <path d="M -7.5 7.5 
L 7.5 7.5 
L 7.5 -7.5 
L -7.5 -7.5 
z
" id="m12d9434d4d"/>
    </defs>
    <g clip-path="url(#p42921cb7ae)">
     <use style="fill:#187795;" x="618.545455" xlink:href="#m12d9434d4d" y="89.590909"/>
    </g>
   </g>
   <g id="patch_8">
    <path d="M 396 256.5 
L 396 40.5 
" style="fill:none;stroke:#000000;stroke-linecap:square;stroke-linejoin:miter;stroke-width:2;"/>
   </g>
   <g id="patch_9">
    <path d="M 684 256.5 
L 684 40.5 
" style="fill:none;stroke:#000000;stroke-linecap:square;stroke-linejoin:miter;stroke-width:2;"/>
   </g>
   <g id="patch_10">
    <path d="M 396 256.5 
L 684 256.5 
" style="fill:none;stroke:#000000;stroke-linecap:square;stroke-linejoin:miter;stroke-width:2;"/>
   </g>
   <g id="patch_11">
    <path d="M 396 40.5 
L 684 40.5 
" style="fill:none;stroke:#000000;stroke-linecap:square;stroke-linejoin:miter;stroke-width:2;"/>
   </g>
   <g id="legend_1">
    <g id="line2d_28">
     <path d="M 416.8 74.784819 
L 448.8 74.784819 
" style="fill:none;stroke:#808080;stroke-dasharray:11.1,4.8;stroke-dashoffset:0;stroke-width:3;"/>
    </g>
    <g id="line2d_29"/>
    <g id="text_28">
     <!-- $|k_F^{\uparrow} - k_F^{\downarrow}| / k_F$ -->
     <g transform="translate(461.6 80.384819)scale(0.16 -0.16)">
      <use transform="translate(0 29.278481)scale(0.996264)" xlink:href="#CMSY10-106"/>
      <use transform="translate(27.674085 29.278481)scale(0.996264)" xlink:href="#CMMI12-107"/>
      <use transform="translate(81.753285 77.15429)scale(0.697382)" xlink:href="#CMSY10-34"/>
      <use transform="translate(78.409273 0)scale(0.697382)" xlink:href="#CMMI12-70"/>
      <use transform="translate(154.734124 29.278481)scale(0.996264)" xlink:href="#CMSY10-0"/>
      <use transform="translate(254.360798 29.278481)scale(0.996264)" xlink:href="#CMMI12-107"/>
      <use transform="translate(308.439999 77.15429)scale(0.697382)" xlink:href="#CMSY10-35"/>
      <use transform="translate(305.095987 0)scale(0.697382)" xlink:href="#CMMI12-70"/>
      <use transform="translate(359.281631 29.278481)scale(0.996264)" xlink:href="#CMSY10-106"/>
      <use transform="translate(386.955715 29.278481)scale(0.996264)" xlink:href="#CMMI12-61"/>
      <use transform="translate(435.730634 29.278481)scale(0.996264)" xlink:href="#CMMI12-107"/>
      <use transform="translate(486.465823 14.334566)scale(0.697382)" xlink:href="#CMMI12-70"/>
     </g>
    </g>
   </g>
  </g>
  <g id="text_29">
   <!-- $\gamma $ = 2.2 -->
   <defs>
    <path d="M 37.796875 11.875 
C 37.59375 16.734375 37.40625 24.390625 33.59375 33.328125 
C 31.59375 38.3125 28.203125 43.5625 20.90625 43.5625 
C 8.59375 43.5625 1.90625 27.96875 1.90625 25.390625 
C 1.90625 24.484375 2.59375 24.484375 2.90625 24.484375 
C 3.796875 24.484375 3.796875 24.6875 4.296875 25.984375 
C 6.40625 32.140625 12.796875 37 19.703125 37 
C 33.59375 37 35.59375 21.609375 35.59375 11.78125 
C 35.59375 5.5 34.90625 3.4375 34.296875 1.4375 
C 32.40625 -4.71875 29.09375 -17.03125 29.09375 -19.8125 
C 29.09375 -20.609375 29.40625 -21.5 30.203125 -21.5 
C 31.703125 -21.5 32.59375 -18.21875 33.703125 -14.25 
C 36.09375 -5.515625 36.703125 -1.140625 37.203125 2.828125 
C 37.5 5.21875 43.203125 21.625 51.09375 37.21875 
C 51.796875 38.796875 53.203125 41.484375 53.203125 41.78125 
C 53.203125 41.875 53.09375 42.578125 52.203125 42.578125 
C 52 42.578125 51.5 42.578125 51.296875 42.171875 
C 51.09375 41.984375 47.59375 35.21875 44.59375 28.46875 
C 43.09375 25.09375 41.09375 20.625 37.796875 11.875 
z
" id="CMMI12-13"/>
    <path d="M 53.40625 35.015625 
L 5 35.015625 
L 5 28 
L 53.40625 28 
z
M 53.40625 18 
L 5 18 
L 5 11 
L 53.40625 11 
z
" id="Nimbus_Sans_L_Regular-61"/>
    <path d="M 50.59375 8.71875 
L 13.296875 8.71875 
C 14.203125 14.53125 17.40625 18.234375 26.09375 23.34375 
L 36.09375 28.75 
C 46 34.15625 51.09375 41.453125 51.09375 50.171875 
C 51.09375 56.078125 48.703125 61.59375 44.5 65.390625 
C 40.296875 69.203125 35.09375 71 28.40625 71 
C 19.40625 71 12.703125 67.796875 8.796875 61.796875 
C 6.296875 57.984375 5.203125 53.578125 5 46.359375 
L 13.796875 46.359375 
C 14.09375 51.171875 14.703125 54.078125 15.90625 56.375 
C 18.203125 60.6875 22.796875 63.296875 28.09375 63.296875 
C 36.09375 63.296875 42.09375 57.578125 42.09375 49.96875 
C 42.09375 44.359375 38.796875 39.546875 32.5 35.953125 
L 23.296875 30.75 
C 8.5 22.34375 4.203125 15.625 3.40625 0 
L 50.59375 0 
z
" id="Nimbus_Sans_L_Regular-50"/>
    <path d="M 19.09375 10.421875 
L 8.703125 10.421875 
L 8.703125 0 
L 19.09375 0 
z
" id="Nimbus_Sans_L_Regular-46"/>
   </defs>
   <g transform="translate(583.2 394.2)scale(0.28 -0.28)">
    <use transform="scale(0.996264)" xlink:href="#CMMI12-13"/>
    <use transform="translate(83.713738 0)scale(0.996264)" xlink:href="#Nimbus_Sans_L_Regular-61"/>
    <use transform="translate(169.5904 0)scale(0.996264)" xlink:href="#Nimbus_Sans_L_Regular-50"/>
    <use transform="translate(224.982077 0)scale(0.996264)" xlink:href="#Nimbus_Sans_L_Regular-46"/>
    <use transform="translate(252.677247 0)scale(0.996264)" xlink:href="#Nimbus_Sans_L_Regular-50"/>
   </g>
  </g>
 </g>
 <defs>
  <clipPath id="p47d32ca645">
   <rect height="453.6" width="615.6" x="86.4" y="21.6"/>
  </clipPath>
  <clipPath id="p42921cb7ae">
   <rect height="216" width="288" x="396" y="40.5"/>
  </clipPath>
 </defs>
</svg>
