<?xml version="1.0" encoding="utf-8" standalone="no"?>
<!DOCTYPE svg PUBLIC "-//W3C//DTD SVG 1.1//EN"
  "http://www.w3.org/Graphics/SVG/1.1/DTD/svg11.dtd">
<!-- Created with matplotlib (http://matplotlib.org/) -->
<svg height="324pt" version="1.1" viewBox="0 0 432 324" width="432pt" xmlns="http://www.w3.org/2000/svg" xmlns:xlink="http://www.w3.org/1999/xlink">
 <defs>
  <style type="text/css">
*{stroke-linecap:butt;stroke-linejoin:round;}
  </style>
 </defs>
 <g id="figure_1">
  <g id="patch_1">
   <path d="M 0 324 
L 432 324 
L 432 0 
L 0 0 
z
" style="fill:#d34f21;"/>
  </g>
  <g id="axes_1">
   <g id="patch_2">
    <path d="M 41.007 193.24 
L 199.944027 193.24 
L 199.944027 12.24 
L 41.007 12.24 
z
" style="fill:none;opacity:0;"/>
   </g>
   <g id="matplotlib.axis_1"/>
   <g id="matplotlib.axis_2">
    <g id="ytick_1">
     <g id="line2d_1">
      <defs>
       <path d="M 0 0 
L 2.5 0 
" id="mab680a4ffe" style="stroke:#000000;stroke-width:0.8;"/>
      </defs>
      <g>
       <use style="stroke:#000000;stroke-width:0.8;" x="41.007" xlink:href="#mab680a4ffe" y="188.909856"/>
      </g>
     </g>
     <g id="text_1">
      <!-- $0$ -->
      <defs>
       <path d="M 47.703125 33 
Q 47.703125 23.796875 45.546875 16.34375 
Q 43.40625 8.90625 38.09375 3.75 
Q 32.796875 -1.40625 25 -1.40625 
Q 18.796875 -1.40625 14.25 1.6875 
Q 9.703125 4.796875 7.203125 10.046875 
Q 4.703125 15.296875 3.5 21.140625 
Q 2.296875 27 2.296875 33.59375 
Q 2.296875 42.90625 4.59375 50.34375 
Q 6.90625 57.796875 12.296875 62.6875 
Q 17.703125 67.59375 25.40625 67.59375 
Q 35.203125 67.59375 41.453125 57.9375 
Q 47.703125 48.296875 47.703125 33 
z
M 39.796875 33 
Q 39.796875 45.203125 35.75 52.84375 
Q 31.703125 60.5 25.203125 60.5 
Q 17.796875 60.5 14 52.75 
Q 10.203125 45 10.203125 33.40625 
Q 10.203125 28.203125 10.953125 23.546875 
Q 11.703125 18.90625 13.34375 14.75 
Q 15 10.59375 18 8.140625 
Q 21 5.703125 25 5.703125 
Q 30.09375 5.703125 33.546875 9.796875 
Q 37 13.90625 38.390625 19.84375 
Q 39.796875 25.796875 39.796875 33 
z
" id="STIXGeneral-Regular-1d7e2"/>
      </defs>
      <g style="fill:#ffffff;" transform="translate(33.507 191.949231)scale(0.08 -0.08)">
       <use transform="translate(0 0.40625)" xlink:href="#STIXGeneral-Regular-1d7e2"/>
      </g>
     </g>
    </g>
    <g id="ytick_2">
     <g id="line2d_2">
      <g>
       <use style="stroke:#000000;stroke-width:0.8;" x="41.007" xlink:href="#mab680a4ffe" y="15.704115"/>
      </g>
     </g>
     <g id="text_2">
      <!-- $\beta$ -->
      <defs>
       <path d="M 2.703125 -13.09375 
L 16 40.203125 
Q 18.796875 51.5 23.40625 57.90625 
Q 31.09375 68.296875 42.796875 68.296875 
Q 48.09375 68.296875 52 64.9375 
Q 55.90625 61.59375 55.90625 56.296875 
Q 55.90625 51.203125 53.203125 46.84375 
Q 50.5 42.5 45.703125 39.796875 
Q 49.09375 38.59375 51.140625 35.046875 
Q 53.203125 31.5 53.203125 27.09375 
Q 53.203125 14.59375 44.453125 6.59375 
Q 35.703125 -1.40625 25 -1.40625 
Q 18.296875 -1.40625 14.40625 2.203125 
L 10.703125 -12.59375 
Q 9.59375 -17 6.90625 -21.5 
L -1.203125 -21.5 
Q 1.59375 -17.40625 2.703125 -13.09375 
z
M 29.296875 37.5 
L 34.796875 42.90625 
Q 40.5 43.203125 44.140625 46.703125 
Q 47.796875 50.203125 47.796875 54.703125 
Q 47.796875 57.703125 45.84375 59.453125 
Q 43.90625 61.203125 40.5 61.203125 
Q 34.203125 61.203125 30.296875 55.84375 
Q 26.40625 50.5 24.59375 43.296875 
L 16.796875 11.796875 
Q 17.796875 9.09375 20.84375 7.390625 
Q 23.90625 5.703125 27.5 5.703125 
Q 34.296875 5.703125 39.640625 11.75 
Q 45 17.796875 45 25.703125 
Q 45 35.796875 28.90625 35.796875 
z
" id="STIXNonUnicode-Italic-e1d9"/>
      </defs>
      <g style="fill:#ffffff;" transform="translate(33.187 18.695365)scale(0.08 -0.08)">
       <use transform="translate(0 0.703125)" xlink:href="#STIXNonUnicode-Italic-e1d9"/>
      </g>
     </g>
    </g>
    <g id="text_3">
     <!-- imaginary time axis -->
     <defs>
      <path d="M 9.421875 54.6875 
L 18.40625 54.6875 
L 18.40625 0 
L 9.421875 0 
z
M 9.421875 75.984375 
L 18.40625 75.984375 
L 18.40625 64.59375 
L 9.421875 64.59375 
z
" id="DejaVuSans-69"/>
      <path d="M 52 44.1875 
Q 55.375 50.25 60.0625 53.125 
Q 64.75 56 71.09375 56 
Q 79.640625 56 84.28125 50.015625 
Q 88.921875 44.046875 88.921875 33.015625 
L 88.921875 0 
L 79.890625 0 
L 79.890625 32.71875 
Q 79.890625 40.578125 77.09375 44.375 
Q 74.3125 48.1875 68.609375 48.1875 
Q 61.625 48.1875 57.5625 43.546875 
Q 53.515625 38.921875 53.515625 30.90625 
L 53.515625 0 
L 44.484375 0 
L 44.484375 32.71875 
Q 44.484375 40.625 41.703125 44.40625 
Q 38.921875 48.1875 33.109375 48.1875 
Q 26.21875 48.1875 22.15625 43.53125 
Q 18.109375 38.875 18.109375 30.90625 
L 18.109375 0 
L 9.078125 0 
L 9.078125 54.6875 
L 18.109375 54.6875 
L 18.109375 46.1875 
Q 21.1875 51.21875 25.484375 53.609375 
Q 29.78125 56 35.6875 56 
Q 41.65625 56 45.828125 52.96875 
Q 50 49.953125 52 44.1875 
z
" id="DejaVuSans-6d"/>
      <path d="M 34.28125 27.484375 
Q 23.390625 27.484375 19.1875 25 
Q 14.984375 22.515625 14.984375 16.5 
Q 14.984375 11.71875 18.140625 8.90625 
Q 21.296875 6.109375 26.703125 6.109375 
Q 34.1875 6.109375 38.703125 11.40625 
Q 43.21875 16.703125 43.21875 25.484375 
L 43.21875 27.484375 
z
M 52.203125 31.203125 
L 52.203125 0 
L 43.21875 0 
L 43.21875 8.296875 
Q 40.140625 3.328125 35.546875 0.953125 
Q 30.953125 -1.421875 24.3125 -1.421875 
Q 15.921875 -1.421875 10.953125 3.296875 
Q 6 8.015625 6 15.921875 
Q 6 25.140625 12.171875 29.828125 
Q 18.359375 34.515625 30.609375 34.515625 
L 43.21875 34.515625 
L 43.21875 35.40625 
Q 43.21875 41.609375 39.140625 45 
Q 35.0625 48.390625 27.6875 48.390625 
Q 23 48.390625 18.546875 47.265625 
Q 14.109375 46.140625 10.015625 43.890625 
L 10.015625 52.203125 
Q 14.9375 54.109375 19.578125 55.046875 
Q 24.21875 56 28.609375 56 
Q 40.484375 56 46.34375 49.84375 
Q 52.203125 43.703125 52.203125 31.203125 
z
" id="DejaVuSans-61"/>
      <path d="M 45.40625 27.984375 
Q 45.40625 37.75 41.375 43.109375 
Q 37.359375 48.484375 30.078125 48.484375 
Q 22.859375 48.484375 18.828125 43.109375 
Q 14.796875 37.75 14.796875 27.984375 
Q 14.796875 18.265625 18.828125 12.890625 
Q 22.859375 7.515625 30.078125 7.515625 
Q 37.359375 7.515625 41.375 12.890625 
Q 45.40625 18.265625 45.40625 27.984375 
z
M 54.390625 6.78125 
Q 54.390625 -7.171875 48.1875 -13.984375 
Q 42 -20.796875 29.203125 -20.796875 
Q 24.46875 -20.796875 20.265625 -20.09375 
Q 16.0625 -19.390625 12.109375 -17.921875 
L 12.109375 -9.1875 
Q 16.0625 -11.328125 19.921875 -12.34375 
Q 23.78125 -13.375 27.78125 -13.375 
Q 36.625 -13.375 41.015625 -8.765625 
Q 45.40625 -4.15625 45.40625 5.171875 
L 45.40625 9.625 
Q 42.625 4.78125 38.28125 2.390625 
Q 33.9375 0 27.875 0 
Q 17.828125 0 11.671875 7.65625 
Q 5.515625 15.328125 5.515625 27.984375 
Q 5.515625 40.671875 11.671875 48.328125 
Q 17.828125 56 27.875 56 
Q 33.9375 56 38.28125 53.609375 
Q 42.625 51.21875 45.40625 46.390625 
L 45.40625 54.6875 
L 54.390625 54.6875 
z
" id="DejaVuSans-67"/>
      <path d="M 54.890625 33.015625 
L 54.890625 0 
L 45.90625 0 
L 45.90625 32.71875 
Q 45.90625 40.484375 42.875 44.328125 
Q 39.84375 48.1875 33.796875 48.1875 
Q 26.515625 48.1875 22.3125 43.546875 
Q 18.109375 38.921875 18.109375 30.90625 
L 18.109375 0 
L 9.078125 0 
L 9.078125 54.6875 
L 18.109375 54.6875 
L 18.109375 46.1875 
Q 21.34375 51.125 25.703125 53.5625 
Q 30.078125 56 35.796875 56 
Q 45.21875 56 50.046875 50.171875 
Q 54.890625 44.34375 54.890625 33.015625 
z
" id="DejaVuSans-6e"/>
      <path d="M 41.109375 46.296875 
Q 39.59375 47.171875 37.8125 47.578125 
Q 36.03125 48 33.890625 48 
Q 26.265625 48 22.1875 43.046875 
Q 18.109375 38.09375 18.109375 28.8125 
L 18.109375 0 
L 9.078125 0 
L 9.078125 54.6875 
L 18.109375 54.6875 
L 18.109375 46.1875 
Q 20.953125 51.171875 25.484375 53.578125 
Q 30.03125 56 36.53125 56 
Q 37.453125 56 38.578125 55.875 
Q 39.703125 55.765625 41.0625 55.515625 
z
" id="DejaVuSans-72"/>
      <path d="M 32.171875 -5.078125 
Q 28.375 -14.84375 24.75 -17.8125 
Q 21.140625 -20.796875 15.09375 -20.796875 
L 7.90625 -20.796875 
L 7.90625 -13.28125 
L 13.1875 -13.28125 
Q 16.890625 -13.28125 18.9375 -11.515625 
Q 21 -9.765625 23.484375 -3.21875 
L 25.09375 0.875 
L 2.984375 54.6875 
L 12.5 54.6875 
L 29.59375 11.921875 
L 46.6875 54.6875 
L 56.203125 54.6875 
z
" id="DejaVuSans-79"/>
      <path id="DejaVuSans-20"/>
      <path d="M 18.3125 70.21875 
L 18.3125 54.6875 
L 36.8125 54.6875 
L 36.8125 47.703125 
L 18.3125 47.703125 
L 18.3125 18.015625 
Q 18.3125 11.328125 20.140625 9.421875 
Q 21.96875 7.515625 27.59375 7.515625 
L 36.8125 7.515625 
L 36.8125 0 
L 27.59375 0 
Q 17.1875 0 13.234375 3.875 
Q 9.28125 7.765625 9.28125 18.015625 
L 9.28125 47.703125 
L 2.6875 47.703125 
L 2.6875 54.6875 
L 9.28125 54.6875 
L 9.28125 70.21875 
z
" id="DejaVuSans-74"/>
      <path d="M 56.203125 29.59375 
L 56.203125 25.203125 
L 14.890625 25.203125 
Q 15.484375 15.921875 20.484375 11.0625 
Q 25.484375 6.203125 34.421875 6.203125 
Q 39.59375 6.203125 44.453125 7.46875 
Q 49.3125 8.734375 54.109375 11.28125 
L 54.109375 2.78125 
Q 49.265625 0.734375 44.1875 -0.34375 
Q 39.109375 -1.421875 33.890625 -1.421875 
Q 20.796875 -1.421875 13.15625 6.1875 
Q 5.515625 13.8125 5.515625 26.8125 
Q 5.515625 40.234375 12.765625 48.109375 
Q 20.015625 56 32.328125 56 
Q 43.359375 56 49.78125 48.890625 
Q 56.203125 41.796875 56.203125 29.59375 
z
M 47.21875 32.234375 
Q 47.125 39.59375 43.09375 43.984375 
Q 39.0625 48.390625 32.421875 48.390625 
Q 24.90625 48.390625 20.390625 44.140625 
Q 15.875 39.890625 15.1875 32.171875 
z
" id="DejaVuSans-65"/>
      <path d="M 54.890625 54.6875 
L 35.109375 28.078125 
L 55.90625 0 
L 45.3125 0 
L 29.390625 21.484375 
L 13.484375 0 
L 2.875 0 
L 24.125 28.609375 
L 4.6875 54.6875 
L 15.28125 54.6875 
L 29.78125 35.203125 
L 44.28125 54.6875 
z
" id="DejaVuSans-78"/>
      <path d="M 44.28125 53.078125 
L 44.28125 44.578125 
Q 40.484375 46.53125 36.375 47.5 
Q 32.28125 48.484375 27.875 48.484375 
Q 21.1875 48.484375 17.84375 46.4375 
Q 14.5 44.390625 14.5 40.28125 
Q 14.5 37.15625 16.890625 35.375 
Q 19.28125 33.59375 26.515625 31.984375 
L 29.59375 31.296875 
Q 39.15625 29.25 43.1875 25.515625 
Q 47.21875 21.78125 47.21875 15.09375 
Q 47.21875 7.46875 41.1875 3.015625 
Q 35.15625 -1.421875 24.609375 -1.421875 
Q 20.21875 -1.421875 15.453125 -0.5625 
Q 10.6875 0.296875 5.421875 2 
L 5.421875 11.28125 
Q 10.40625 8.6875 15.234375 7.390625 
Q 20.0625 6.109375 24.8125 6.109375 
Q 31.15625 6.109375 34.5625 8.28125 
Q 37.984375 10.453125 37.984375 14.40625 
Q 37.984375 18.0625 35.515625 20.015625 
Q 33.0625 21.96875 24.703125 23.78125 
L 21.578125 24.515625 
Q 13.234375 26.265625 9.515625 29.90625 
Q 5.8125 33.546875 5.8125 39.890625 
Q 5.8125 47.609375 11.28125 51.796875 
Q 16.75 56 26.8125 56 
Q 31.78125 56 36.171875 55.265625 
Q 40.578125 54.546875 44.28125 53.078125 
z
" id="DejaVuSans-73"/>
     </defs>
     <g style="fill:#ffffff;" transform="translate(27.52325 142.440625)rotate(-90)scale(0.08 -0.08)">
      <use xlink:href="#DejaVuSans-69"/>
      <use x="27.783203" xlink:href="#DejaVuSans-6d"/>
      <use x="125.195312" xlink:href="#DejaVuSans-61"/>
      <use x="186.474609" xlink:href="#DejaVuSans-67"/>
      <use x="249.951172" xlink:href="#DejaVuSans-69"/>
      <use x="277.734375" xlink:href="#DejaVuSans-6e"/>
      <use x="341.113281" xlink:href="#DejaVuSans-61"/>
      <use x="402.392578" xlink:href="#DejaVuSans-72"/>
      <use x="443.505859" xlink:href="#DejaVuSans-79"/>
      <use x="502.685547" xlink:href="#DejaVuSans-20"/>
      <use x="534.472656" xlink:href="#DejaVuSans-74"/>
      <use x="573.681641" xlink:href="#DejaVuSans-69"/>
      <use x="601.464844" xlink:href="#DejaVuSans-6d"/>
      <use x="698.876953" xlink:href="#DejaVuSans-65"/>
      <use x="760.400391" xlink:href="#DejaVuSans-20"/>
      <use x="792.1875" xlink:href="#DejaVuSans-61"/>
      <use x="853.466797" xlink:href="#DejaVuSans-78"/>
      <use x="912.646484" xlink:href="#DejaVuSans-69"/>
      <use x="940.429688" xlink:href="#DejaVuSans-73"/>
     </g>
    </g>
   </g>
   <g id="line2d_3">
    <path clip-path="url(#pca8cb6c617)" d="M 122.54673 188.909856 
L 117.520144 188.476842 
L 125.944768 188.043828 
L 118.965078 187.610813 
L 116.828046 187.177799 
L 121.612225 186.31177 
L 119.424045 185.878756 
L 123.789715 185.445742 
L 119.803715 185.012727 
L 118.413192 184.579713 
L 123.363292 184.146699 
L 123.024276 183.713684 
L 120.236846 183.28067 
L 114.910947 182.847656 
L 122.562496 182.414641 
L 118.00843 181.981627 
L 121.69724 181.548612 
L 116.622854 181.115598 
L 122.452845 180.249569 
L 118.175552 179.816555 
L 121.38566 179.383541 
L 118.870851 178.950526 
L 118.178656 178.517512 
L 120.205156 178.084498 
L 120.97847 177.651483 
L 121.494537 177.218469 
L 121.791136 176.785455 
L 121.799056 176.35244 
L 119.555761 175.919426 
L 122.376102 175.486411 
L 121.082459 175.053397 
L 122.938607 174.620383 
L 121.580713 174.187368 
L 121.03158 173.754354 
L 122.072206 173.32134 
L 118.773064 172.455311 
L 123.527892 172.022297 
L 124.233444 171.589282 
L 120.771292 171.156268 
L 124.142672 170.723254 
L 117.882074 170.290239 
L 121.266549 169.857225 
L 122.902259 169.424211 
L 120.371836 168.991196 
L 119.74008 168.558182 
L 118.580446 168.125167 
L 120.724063 167.692153 
L 122.141229 167.259139 
L 118.016512 166.39311 
L 119.417499 165.960096 
L 122.14768 165.527081 
L 120.929531 164.661053 
L 118.86164 164.228038 
L 117.760667 163.795024 
L 120.842529 163.36201 
L 125.208 162.928995 
L 125.766983 162.495981 
L 121.594324 162.062967 
L 121.411045 161.629952 
L 120.27287 161.196938 
L 114.969947 160.763923 
L 118.948336 160.330909 
L 124.577724 159.031866 
L 119.726356 158.598852 
L 119.765959 158.165837 
L 124.014806 157.732823 
L 121.83906 157.299809 
L 120.75891 156.866794 
L 121.359401 156.43378 
L 121.370733 156.000766 
L 119.145345 155.567751 
L 119.704272 155.134737 
L 117.026161 154.701722 
L 122.50864 154.268708 
L 121.433568 153.835694 
L 123.923175 153.402679 
L 119.598014 152.969665 
L 116.929773 152.536651 
L 123.663162 152.103636 
L 122.334354 151.670622 
L 118.782698 151.237608 
L 123.316862 150.804593 
L 119.149017 150.371579 
L 118.45953 149.938565 
L 120.119606 149.50555 
L 117.243059 148.639522 
L 116.596769 148.206507 
L 115.557281 147.773493 
L 119.785373 147.340478 
L 120.937635 146.907464 
L 118.859691 146.47445 
L 118.8557 146.041435 
L 121.646858 145.608421 
L 118.629293 145.175407 
L 119.280247 144.742392 
L 120.555981 144.309378 
L 115.985357 143.876364 
L 122.507002 143.010335 
L 124.607958 142.577321 
L 115.840136 142.144306 
L 118.905662 141.711292 
L 118.556533 141.278278 
L 123.790551 140.845263 
L 125.582369 140.412249 
L 122.12413 139.979234 
L 119.836886 139.54622 
L 116.609575 139.113206 
L 125.180996 138.680191 
L 122.892684 138.247177 
L 121.819325 137.814163 
L 117.466907 137.381148 
L 123.905471 136.948134 
L 117.231924 136.51512 
L 122.325065 136.082105 
L 123.065554 135.649091 
L 114.016005 135.216077 
L 120.993371 134.783062 
L 119.278652 134.350048 
L 122.399912 133.917033 
L 118.402426 133.484019 
L 116.332109 133.051005 
L 114.875418 132.61799 
L 123.694073 132.184976 
L 121.89488 131.751962 
L 117.577222 131.318947 
L 118.18465 130.885933 
L 122.287787 130.452919 
L 117.819727 130.019904 
L 121.701292 129.58689 
L 122.754215 129.153876 
L 123.251981 128.720861 
L 119.09426 128.287847 
L 121.791656 127.854833 
L 118.07165 127.421818 
L 123.024927 126.988804 
L 120.148228 126.555789 
L 121.122665 126.122775 
L 120.281718 125.689761 
L 118.875978 125.256746 
L 118.240094 124.823732 
L 122.380621 124.390718 
L 118.988093 123.957703 
L 122.593053 123.524689 
L 122.460232 123.091675 
L 118.890303 122.65866 
L 122.285511 122.225646 
L 116.713511 121.792632 
L 120.311539 121.359617 
L 120.61222 120.926603 
L 121.882848 120.493589 
L 113.830453 120.060574 
L 118.728091 119.62756 
L 118.232967 119.194545 
L 121.214391 118.761531 
L 119.798106 118.328517 
L 119.853438 117.895502 
L 114.49759 117.462488 
L 123.827706 116.596459 
L 122.726235 116.163445 
L 115.152208 115.730431 
L 123.835925 115.297416 
L 120.790816 114.864402 
L 124.473497 114.431388 
L 116.909391 113.998373 
L 120.701507 113.565359 
L 121.033593 113.132344 
L 120.692636 112.69933 
L 124.478248 112.266316 
L 121.522768 111.833301 
L 117.391122 111.400287 
L 124.824129 110.534258 
L 117.326828 110.101244 
L 121.90804 109.66823 
L 114.298512 109.235215 
L 120.168368 108.802201 
L 117.889654 108.369187 
L 116.675612 107.936172 
L 120.027742 107.503158 
L 119.796556 107.070144 
L 121.687645 106.637129 
L 115.506718 106.204115 
L 121.862736 105.7711 
L 121.473843 105.338086 
L 121.682211 104.905072 
L 123.398658 104.472057 
L 119.314993 104.039043 
L 123.636364 103.606029 
L 124.887211 103.173014 
L 117.008632 102.74 
L 119.988423 102.306986 
L 120.174257 101.873971 
L 124.233374 101.440957 
L 123.323942 101.007943 
L 114.974602 100.574928 
L 118.143103 100.141914 
L 117.376123 99.7089 
L 125.130452 99.275885 
L 123.877652 98.842871 
L 116.843837 97.976842 
L 125.17382 97.543828 
L 119.576982 97.110813 
L 118.659027 96.677799 
L 118.141915 96.244785 
L 117.86053 95.81177 
L 122.580614 95.378756 
L 118.499023 94.945742 
L 122.769364 94.512727 
L 115.371997 94.079713 
L 120.439209 93.213684 
L 118.950221 92.78067 
L 122.269717 92.347656 
L 121.60529 91.914641 
L 124.510492 91.481627 
L 120.375043 91.048612 
L 120.458374 90.615598 
L 123.444785 90.182584 
L 114.540615 89.749569 
L 121.454342 89.316555 
L 118.182363 88.883541 
L 117.904628 88.450526 
L 119.76827 88.017512 
L 120.849959 87.584498 
L 121.137982 87.151483 
L 122.356996 86.718469 
L 121.973617 85.85244 
L 119.864218 85.419426 
L 121.053123 84.986411 
L 124.310916 84.553397 
L 118.607162 84.120383 
L 120.231601 83.687368 
L 124.513579 83.254354 
L 122.154304 82.82134 
L 121.05725 82.388325 
L 122.215665 81.955311 
L 122.30517 81.522297 
L 119.099902 81.089282 
L 127.67925 80.223254 
L 120.395699 79.790239 
L 124.446725 79.357225 
L 125.645233 78.924211 
L 116.466183 78.491196 
L 121.893964 77.625167 
L 123.185384 77.192153 
L 120.785547 76.326124 
L 117.29952 75.89311 
L 122.412727 75.460096 
L 125.240692 75.027081 
L 116.405915 74.594067 
L 117.025507 74.161053 
L 120.248575 73.728038 
L 117.119978 73.295024 
L 121.105934 72.86201 
L 120.857519 72.428995 
L 119.65758 71.995981 
L 124.915536 71.562967 
L 118.94021 71.129952 
L 118.678982 70.696938 
L 120.383868 70.263923 
L 117.439679 69.830909 
L 118.304099 69.397895 
L 120.52693 68.96488 
L 120.102992 68.531866 
L 120.015575 68.098852 
L 120.63822 67.665837 
L 119.675562 67.232823 
L 120.658109 66.799809 
L 118.149499 66.366794 
L 117.329583 65.93378 
L 118.252005 65.500766 
L 117.114872 65.067751 
L 122.37995 64.634737 
L 120.595507 64.201722 
L 115.103512 63.768708 
L 123.791615 62.902679 
L 118.05362 62.036651 
L 121.828407 61.603636 
L 117.251484 61.170622 
L 121.633926 60.737608 
L 113.195967 60.304593 
L 119.491532 59.871579 
L 122.104182 59.438565 
L 123.703319 59.00555 
L 124.428511 58.572536 
L 117.327063 58.139522 
L 122.592498 57.706507 
L 117.521189 57.273493 
L 116.254972 56.840478 
L 122.184018 56.407464 
L 118.203991 55.97445 
L 122.876419 55.541435 
L 123.55776 55.108421 
L 121.604602 54.675407 
L 121.999361 54.242392 
L 124.505988 53.809378 
L 120.242896 53.376364 
L 122.766777 52.943349 
L 120.358678 52.510335 
L 122.859273 52.077321 
L 120.354681 51.644306 
L 121.595671 51.211292 
L 120.46902 50.778278 
L 123.023597 49.912249 
L 121.687144 49.479234 
L 123.187276 49.04622 
L 117.207401 48.613206 
L 122.562176 47.747177 
L 118.798014 47.314163 
L 117.091911 46.881148 
L 120.778049 46.448134 
L 121.970205 46.01512 
L 117.577882 45.582105 
L 122.716459 45.149091 
L 121.802543 44.716077 
L 117.760102 43.850048 
L 122.14064 43.417033 
L 121.048348 42.984019 
L 119.348449 42.551005 
L 120.525876 42.11799 
L 122.227426 41.684976 
L 121.157678 41.251962 
L 121.77392 40.818947 
L 117.891588 40.385933 
L 122.472957 39.952919 
L 123.542013 39.519904 
L 120.942898 39.08689 
L 121.155891 38.653876 
L 117.790785 38.220861 
L 122.146481 37.787847 
L 122.172612 37.354833 
L 123.401198 36.921818 
L 118.420199 36.488804 
L 124.590538 36.055789 
L 117.029286 35.622775 
L 118.946999 35.189761 
L 119.797616 34.756746 
L 122.987517 34.323732 
L 122.03007 33.890718 
L 120.677199 33.457703 
L 119.80483 33.024689 
L 124.420817 32.591675 
L 118.758521 32.15866 
L 122.087252 31.725646 
L 116.481257 31.292632 
L 123.599513 30.426603 
L 119.131927 29.993589 
L 122.518999 29.560574 
L 118.879324 28.694545 
L 117.321478 28.261531 
L 118.8323 27.828517 
L 121.091443 27.395502 
L 124.381058 26.962488 
L 117.953837 26.096459 
L 126.689778 25.663445 
L 119.425711 25.230431 
L 120.05192 24.797416 
L 118.300718 24.364402 
L 119.693912 23.931388 
L 124.862421 23.498373 
L 119.965554 23.065359 
L 119.228794 22.632344 
L 121.527861 22.19933 
L 117.074918 21.766316 
L 122.651998 20.900287 
L 120.655933 20.467273 
L 121.903269 20.034258 
L 118.173297 19.601244 
L 116.400404 19.16823 
L 123.20302 18.735215 
L 115.443861 18.302201 
L 121.332466 17.869187 
L 119.533616 17.436172 
L 118.934194 17.003158 
L 117.025027 16.570144 
L 117.025027 16.570144 
" style="fill:none;stroke:#ffffff;stroke-linecap:square;"/>
   </g>
   <g id="line2d_4">
    <path clip-path="url(#pca8cb6c617)" d="M 41.007 188.909856 
L 199.944027 188.909856 
" style="fill:none;stroke:#ffffff;stroke-dasharray:3.7,1.6;stroke-dashoffset:0;"/>
   </g>
   <g id="line2d_5">
    <path clip-path="url(#pca8cb6c617)" d="M 41.007 15.704115 
L 199.944027 15.704115 
" style="fill:none;stroke:#ffffff;stroke-dasharray:3.7,1.6;stroke-dashoffset:0;"/>
   </g>
   <g id="patch_3">
    <path d="M 41.007 193.24 
L 41.007 12.24 
" style="fill:none;stroke:#ffffff;stroke-linecap:square;stroke-linejoin:miter;stroke-width:0.8;"/>
   </g>
  </g>
  <g id="axes_2">
   <g id="PolyCollection_1">
    <defs>
     <path d="M 41.007 -31.89778 
L 41.007 -114.2 
L 42.612425 -110.911536 
L 44.217849 -107.690183 
L 45.823274 -104.535941 
L 47.428698 -101.448811 
L 49.034123 -98.428793 
L 50.639547 -95.475886 
L 52.244972 -92.590091 
L 53.850396 -89.771407 
L 55.455821 -87.019835 
L 57.061245 -84.335374 
L 58.66667 -81.718025 
L 60.272094 -79.167787 
L 61.877519 -76.684661 
L 63.482943 -74.268646 
L 65.088368 -71.919743 
L 66.693792 -69.637951 
L 68.299217 -67.423271 
L 69.904641 -65.275702 
L 71.510066 -63.195245 
L 73.11549 -61.1819 
L 74.720915 -59.235666 
L 76.326339 -57.356543 
L 77.931764 -55.544532 
L 79.537188 -53.799633 
L 81.142613 -52.121845 
L 82.748037 -50.511168 
L 84.353462 -48.967603 
L 85.958886 -47.49115 
L 87.564311 -46.081808 
L 89.169735 -44.739578 
L 90.77516 -43.464459 
L 92.380584 -42.256451 
L 93.986009 -41.115556 
L 95.591434 -40.041771 
L 97.196858 -39.035098 
L 98.802283 -38.095537 
L 100.407707 -37.223087 
L 102.013132 -36.417749 
L 103.618556 -35.679522 
L 105.223981 -35.008407 
L 106.829405 -34.404404 
L 108.43483 -33.867511 
L 110.040254 -33.397731 
L 111.645679 -32.995062 
L 113.251103 -32.659504 
L 114.856528 -32.391058 
L 116.461952 -32.189723 
L 118.067377 -32.0555 
L 119.672801 -31.988389 
L 121.278226 -31.988389 
L 122.88365 -32.0555 
L 124.489075 -32.189723 
L 126.094499 -32.391058 
L 127.699924 -32.659504 
L 129.305348 -32.995062 
L 130.910773 -33.397731 
L 132.516197 -33.867511 
L 134.121622 -34.404404 
L 135.727046 -35.008407 
L 137.332471 -35.679522 
L 138.937895 -36.417749 
L 140.54332 -37.223087 
L 142.148744 -38.095537 
L 143.754169 -39.035098 
L 145.359594 -40.041771 
L 146.965018 -41.115556 
L 148.570443 -42.256451 
L 150.175867 -43.464459 
L 151.781292 -44.739578 
L 153.386716 -46.081808 
L 154.992141 -47.49115 
L 156.597565 -48.967603 
L 158.20299 -50.511168 
L 159.808414 -52.121845 
L 161.413839 -53.799633 
L 163.019263 -55.544532 
L 164.624688 -57.356543 
L 166.230112 -59.235666 
L 167.835537 -61.1819 
L 169.440961 -63.195245 
L 171.046386 -65.275702 
L 172.65181 -67.423271 
L 174.257235 -69.637951 
L 175.862659 -71.919743 
L 177.468084 -74.268646 
L 179.073508 -76.684661 
L 180.678933 -79.167787 
L 182.284357 -81.718025 
L 183.889782 -84.335374 
L 185.495206 -87.019835 
L 187.100631 -89.771407 
L 188.706055 -92.590091 
L 190.31148 -95.475886 
L 191.916904 -98.428793 
L 193.522329 -101.448811 
L 195.127753 -104.535941 
L 196.733178 -107.690183 
L 198.338603 -110.911536 
L 199.944027 -114.2 
L 199.944027 -31.89778 
L 199.944027 -31.89778 
L 198.338603 -31.89778 
L 196.733178 -31.89778 
L 195.127753 -31.89778 
L 193.522329 -31.89778 
L 191.916904 -31.89778 
L 190.31148 -31.89778 
L 188.706055 -31.89778 
L 187.100631 -31.89778 
L 185.495206 -31.89778 
L 183.889782 -31.89778 
L 182.284357 -31.89778 
L 180.678933 -31.89778 
L 179.073508 -31.89778 
L 177.468084 -31.89778 
L 175.862659 -31.89778 
L 174.257235 -31.89778 
L 172.65181 -31.89778 
L 171.046386 -31.89778 
L 169.440961 -31.89778 
L 167.835537 -31.89778 
L 166.230112 -31.89778 
L 164.624688 -31.89778 
L 163.019263 -31.89778 
L 161.413839 -31.89778 
L 159.808414 -31.89778 
L 158.20299 -31.89778 
L 156.597565 -31.89778 
L 154.992141 -31.89778 
L 153.386716 -31.89778 
L 151.781292 -31.89778 
L 150.175867 -31.89778 
L 148.570443 -31.89778 
L 146.965018 -31.89778 
L 145.359594 -31.89778 
L 143.754169 -31.89778 
L 142.148744 -31.89778 
L 140.54332 -31.89778 
L 138.937895 -31.89778 
L 137.332471 -31.89778 
L 135.727046 -31.89778 
L 134.121622 -31.89778 
L 132.516197 -31.89778 
L 130.910773 -31.89778 
L 129.305348 -31.89778 
L 127.699924 -31.89778 
L 126.094499 -31.89778 
L 124.489075 -31.89778 
L 122.88365 -31.89778 
L 121.278226 -31.89778 
L 119.672801 -31.89778 
L 118.067377 -31.89778 
L 116.461952 -31.89778 
L 114.856528 -31.89778 
L 113.251103 -31.89778 
L 111.645679 -31.89778 
L 110.040254 -31.89778 
L 108.43483 -31.89778 
L 106.829405 -31.89778 
L 105.223981 -31.89778 
L 103.618556 -31.89778 
L 102.013132 -31.89778 
L 100.407707 -31.89778 
L 98.802283 -31.89778 
L 97.196858 -31.89778 
L 95.591434 -31.89778 
L 93.986009 -31.89778 
L 92.380584 -31.89778 
L 90.77516 -31.89778 
L 89.169735 -31.89778 
L 87.564311 -31.89778 
L 85.958886 -31.89778 
L 84.353462 -31.89778 
L 82.748037 -31.89778 
L 81.142613 -31.89778 
L 79.537188 -31.89778 
L 77.931764 -31.89778 
L 76.326339 -31.89778 
L 74.720915 -31.89778 
L 73.11549 -31.89778 
L 71.510066 -31.89778 
L 69.904641 -31.89778 
L 68.299217 -31.89778 
L 66.693792 -31.89778 
L 65.088368 -31.89778 
L 63.482943 -31.89778 
L 61.877519 -31.89778 
L 60.272094 -31.89778 
L 58.66667 -31.89778 
L 57.061245 -31.89778 
L 55.455821 -31.89778 
L 53.850396 -31.89778 
L 52.244972 -31.89778 
L 50.639547 -31.89778 
L 49.034123 -31.89778 
L 47.428698 -31.89778 
L 45.823274 -31.89778 
L 44.217849 -31.89778 
L 42.612425 -31.89778 
L 41.007 -31.89778 
z
" id="m8f5bf5d1a6"/>
    </defs>
    <g clip-path="url(#p751513c744)">
     <use style="fill:#2cb0de;" x="0" xlink:href="#m8f5bf5d1a6" y="324"/>
    </g>
   </g>
  </g>
  <g id="axes_3">
   <g id="patch_4">
    <path d="M 255.812872 143.85 
L 414.749899 143.85 
L 414.749899 12.24 
L 255.812872 12.24 
z
" style="fill:none;opacity:0;"/>
   </g>
   <g id="PolyCollection_2">
    <defs>
     <path d="M 255.812872 -311.76 
L 255.812872 -180.15 
L 271.706575 -180.15 
L 271.706575 -311.76 
L 271.706575 -311.76 
L 255.812872 -311.76 
z
" id="m7c12f472c6"/>
    </defs>
    <g clip-path="url(#p4629108ac4)">
     <use style="fill:#2cb0de;" x="0" xlink:href="#m7c12f472c6" y="324"/>
    </g>
   </g>
   <g id="matplotlib.axis_3"/>
   <g id="matplotlib.axis_4">
    <g id="ytick_3">
     <g id="line2d_6">
      <defs>
       <path d="M 0 0 
L 2.5 0 
" id="m81c1eba6aa" style="stroke:#ffffff;stroke-width:0.8;"/>
      </defs>
      <g>
       <use style="fill:#ffffff;stroke:#ffffff;stroke-width:0.8;" x="255.812872" xlink:href="#m81c1eba6aa" y="143.85"/>
      </g>
     </g>
     <g id="text_4">
      <!-- $0.0$ -->
      <defs>
       <path d="M 18.09375 4.296875 
Q 18.09375 2.09375 16.4375 0.5 
Q 14.796875 -1.09375 12.5 -1.09375 
Q 10.203125 -1.09375 8.59375 0.5 
Q 7 2.09375 7 4.390625 
Q 7 6.703125 8.640625 8.34375 
Q 10.296875 10 12.59375 10 
Q 14.796875 10 16.4375 8.296875 
Q 18.09375 6.59375 18.09375 4.296875 
z
" id="STIXGeneral-Regular-2e"/>
      </defs>
      <g style="fill:#ffffff;" transform="translate(242.312872 146.889375)scale(0.08 -0.08)">
       <use transform="translate(0 0.40625)" xlink:href="#STIXGeneral-Regular-1d7e2"/>
       <use transform="translate(49.999985 0.40625)" xlink:href="#STIXGeneral-Regular-2e"/>
       <use transform="translate(74.999969 0.40625)" xlink:href="#STIXGeneral-Regular-1d7e2"/>
      </g>
     </g>
    </g>
    <g id="ytick_4">
     <g id="line2d_7">
      <g>
       <use style="fill:#ffffff;stroke:#ffffff;stroke-width:0.8;" x="255.812872" xlink:href="#m81c1eba6aa" y="117.528"/>
      </g>
     </g>
     <g id="text_5">
      <!-- $0.2$ -->
      <defs>
       <path d="M 46.90625 7.09375 
L 44 0 
L 3.5 0 
L 3.5 2.09375 
L 21 23.5 
L 21 23.40625 
L 26.59375 30.203125 
Q 30.5 34.90625 32.09375 36.953125 
Q 33.703125 39 35.203125 41.953125 
Q 36.703125 44.90625 36.703125 47.5 
Q 36.703125 53.703125 33.34375 57.09375 
Q 30 60.5 24.203125 60.5 
Q 19.59375 60.5 15.75 56.703125 
Q 11.90625 52.90625 10.90625 45.90625 
L 3.703125 47.59375 
Q 5.296875 56.5 11.1875 62.046875 
Q 17.09375 67.59375 24.90625 67.59375 
Q 33.59375 67.59375 39.09375 62.1875 
Q 44.59375 56.796875 44.59375 49.09375 
Q 44.59375 43.5 42.5 39.453125 
Q 40.40625 35.40625 33.703125 27 
L 17.703125 7.09375 
z
" id="STIXGeneral-Regular-1d7e4"/>
      </defs>
      <g style="fill:#ffffff;" transform="translate(242.312872 120.567375)scale(0.08 -0.08)">
       <use transform="translate(0 0.40625)" xlink:href="#STIXGeneral-Regular-1d7e2"/>
       <use transform="translate(49.999985 0.40625)" xlink:href="#STIXGeneral-Regular-2e"/>
       <use transform="translate(74.999969 0.40625)" xlink:href="#STIXGeneral-Regular-1d7e4"/>
      </g>
     </g>
    </g>
    <g id="ytick_5">
     <g id="line2d_8">
      <g>
       <use style="fill:#ffffff;stroke:#ffffff;stroke-width:0.8;" x="255.812872" xlink:href="#m81c1eba6aa" y="91.206"/>
      </g>
     </g>
     <g id="text_6">
      <!-- $0.4$ -->
      <defs>
       <path d="M 48.90625 23.59375 
L 45.59375 16.5 
L 37.296875 16.5 
L 37.296875 0 
L 29.40625 0 
L 29.40625 16.5 
L 1.09375 16.5 
L 1.09375 23.296875 
L 32.296875 67.59375 
L 37.296875 67.59375 
L 37.296875 23.59375 
z
M 29.40625 23.59375 
L 29.40625 51 
L 10 23.59375 
z
" id="STIXGeneral-Regular-1d7e6"/>
      </defs>
      <g style="fill:#ffffff;" transform="translate(242.312872 94.245375)scale(0.08 -0.08)">
       <use transform="translate(0 0.40625)" xlink:href="#STIXGeneral-Regular-1d7e2"/>
       <use transform="translate(49.999985 0.40625)" xlink:href="#STIXGeneral-Regular-2e"/>
       <use transform="translate(74.999969 0.40625)" xlink:href="#STIXGeneral-Regular-1d7e6"/>
      </g>
     </g>
    </g>
    <g id="ytick_6">
     <g id="line2d_9">
      <g>
       <use style="fill:#ffffff;stroke:#ffffff;stroke-width:0.8;" x="255.812872" xlink:href="#m81c1eba6aa" y="64.884"/>
      </g>
     </g>
     <g id="text_7">
      <!-- $0.6$ -->
      <defs>
       <path d="M 44.796875 66.796875 
L 43 61.5 
Q 31.59375 60.703125 23.640625 54.953125 
Q 15.703125 49.203125 12.203125 38.796875 
Q 18.09375 43.09375 25.90625 43.09375 
Q 34.5 43.09375 40.75 37.296875 
Q 47 31.5 47 22 
Q 47 12.296875 40.953125 5.4375 
Q 34.90625 -1.40625 25.703125 -1.40625 
Q 18 -1.40625 12.75 2.640625 
Q 7.5 6.703125 5.34375 12.75 
Q 3.203125 18.796875 3.203125 26.40625 
Q 3.203125 34.90625 6.203125 43.046875 
Q 9.203125 51.203125 14.296875 56.203125 
Q 21 62.796875 27.09375 65.046875 
Q 33.203125 67.296875 44.703125 68.40625 
z
M 39 20.703125 
Q 39 27.90625 34.890625 31.953125 
Q 30.796875 36 25.09375 36 
Q 19.90625 36 16 32.953125 
Q 12.09375 29.90625 11.203125 24 
Q 11.203125 15.90625 15.203125 10.796875 
Q 19.203125 5.703125 26 5.703125 
Q 31.5 5.703125 35.25 9.953125 
Q 39 14.203125 39 20.703125 
z
" id="STIXGeneral-Regular-1d7e8"/>
      </defs>
      <g style="fill:#ffffff;" transform="translate(242.312872 67.923375)scale(0.08 -0.08)">
       <use transform="translate(0 0.59375)" xlink:href="#STIXGeneral-Regular-1d7e2"/>
       <use transform="translate(49.999985 0.59375)" xlink:href="#STIXGeneral-Regular-2e"/>
       <use transform="translate(74.999969 0.59375)" xlink:href="#STIXGeneral-Regular-1d7e8"/>
      </g>
     </g>
    </g>
    <g id="ytick_7">
     <g id="line2d_10">
      <g>
       <use style="fill:#ffffff;stroke:#ffffff;stroke-width:0.8;" x="255.812872" xlink:href="#m81c1eba6aa" y="38.562"/>
      </g>
     </g>
     <g id="text_8">
      <!-- $0.8$ -->
      <defs>
       <path d="M 44.703125 16.09375 
Q 44.703125 8.796875 39.390625 3.6875 
Q 34.09375 -1.40625 24.796875 -1.40625 
Q 16.296875 -1.40625 10.59375 3.4375 
Q 4.90625 8.296875 4.90625 15.40625 
Q 4.90625 20.796875 7.75 25.25 
Q 10.59375 29.703125 17.703125 34.5 
Q 6 41.40625 6 51.40625 
Q 6 58.59375 11.546875 63.09375 
Q 17.09375 67.59375 25.59375 67.59375 
Q 32.90625 67.59375 37.796875 62.84375 
Q 42.703125 58.09375 42.703125 52 
Q 42.703125 46.40625 40.09375 42.703125 
Q 37.5 39 31.09375 35.296875 
Q 44.703125 27 44.703125 16.09375 
z
M 35.5 51.5 
Q 35.5 55.5 32.390625 58 
Q 29.296875 60.5 24.40625 60.5 
Q 19.796875 60.5 16.84375 57.84375 
Q 13.90625 55.203125 13.90625 51.796875 
Q 13.90625 47.5 16.34375 44.84375 
Q 18.796875 42.203125 24.90625 39.40625 
Q 35.5 45.203125 35.5 51.5 
z
M 27.59375 28.59375 
L 24.09375 30.5 
Q 18.90625 28.703125 15.84375 24.640625 
Q 12.796875 20.59375 12.796875 16.296875 
Q 12.796875 11.796875 16 8.75 
Q 19.203125 5.703125 25.203125 5.703125 
Q 29.796875 5.703125 33.296875 8.453125 
Q 36.796875 11.203125 36.796875 15.796875 
Q 36.796875 20 34.6875 22.953125 
Q 32.59375 25.90625 27.59375 28.59375 
z
" id="STIXGeneral-Regular-1d7ea"/>
      </defs>
      <g style="fill:#ffffff;" transform="translate(242.312872 41.601375)scale(0.08 -0.08)">
       <use transform="translate(0 0.40625)" xlink:href="#STIXGeneral-Regular-1d7e2"/>
       <use transform="translate(49.999985 0.40625)" xlink:href="#STIXGeneral-Regular-2e"/>
       <use transform="translate(74.999969 0.40625)" xlink:href="#STIXGeneral-Regular-1d7ea"/>
      </g>
     </g>
    </g>
    <g id="ytick_8">
     <g id="line2d_11">
      <g>
       <use style="fill:#ffffff;stroke:#ffffff;stroke-width:0.8;" x="255.812872" xlink:href="#m81c1eba6aa" y="12.24"/>
      </g>
     </g>
     <g id="text_9">
      <!-- $1.0$ -->
      <defs>
       <path d="M 30.203125 0 
L 22.296875 0 
L 22.296875 57 
Q 20.09375 56 15.75 53.75 
Q 11.40625 51.5 10.796875 51.203125 
L 10.796875 58.5 
L 28.796875 67.703125 
L 30.203125 67.203125 
z
" id="STIXGeneral-Regular-1d7e3"/>
      </defs>
      <g style="fill:#ffffff;" transform="translate(242.312872 15.279375)scale(0.08 -0.08)">
       <use transform="translate(0 0.296875)" xlink:href="#STIXGeneral-Regular-1d7e3"/>
       <use transform="translate(49.999985 0.296875)" xlink:href="#STIXGeneral-Regular-2e"/>
       <use transform="translate(74.999969 0.296875)" xlink:href="#STIXGeneral-Regular-1d7e2"/>
      </g>
     </g>
    </g>
    <g id="text_10">
     <!-- $E\, / \omega$ -->
     <defs>
      <path d="M 67.796875 66.203125 
L 65.90625 58.796875 
L 30.703125 58.796875 
L 25.703125 38.59375 
L 56.203125 38.59375 
L 54.296875 31.09375 
L 23.796875 31.09375 
L 17.90625 7.40625 
L 55.796875 7.40625 
L 52.296875 0 
L 7.40625 0 
L 23.90625 66.203125 
z
" id="STIXGeneral-Italic-1d60c"/>
      <path d="M 28.703125 67.59375 
L 5.90625 -1.40625 
L -0.90625 -1.40625 
L 22 67.59375 
z
" id="STIXGeneral-Regular-2f"/>
      <path d="M 50 40 
L 54.40625 45.40625 
Q 58.796875 43.90625 61.1875 39.203125 
Q 63.59375 34.5 63.59375 28.5 
Q 63.59375 25.296875 62.796875 21.796875 
Q 60.09375 10.703125 53.75 4.84375 
Q 47.40625 -1 40.59375 -1 
Q 36.90625 -1 34.296875 1.296875 
Q 31.703125 3.59375 30.90625 7.703125 
Q 28.09375 3.59375 24.390625 1.296875 
Q 20.703125 -1 17 -1 
Q 11.59375 -1 8.296875 2.390625 
Q 5 5.796875 5 12.796875 
Q 5 18.703125 7.546875 25.390625 
Q 10.09375 32.09375 15.140625 37.84375 
Q 20.203125 43.59375 26.40625 45.40625 
L 28 40 
L 27.703125 38.59375 
Q 23.703125 36.90625 20.640625 33.703125 
Q 17.59375 30.5 16.046875 26.890625 
Q 14.5 23.296875 13.75 20.09375 
Q 13 16.90625 13 14.203125 
Q 13 10 14.703125 8.046875 
Q 16.40625 6.09375 18.796875 6.09375 
Q 21.796875 6.09375 25.1875 10.140625 
Q 28.59375 14.203125 30.703125 22.296875 
L 33.296875 32.5 
L 41.09375 35.5 
L 41.59375 34.796875 
L 38.5 22.296875 
Q 37.40625 17.90625 37.40625 14.296875 
Q 37.40625 10.203125 38.84375 8.140625 
Q 40.296875 6.09375 42.40625 6.09375 
Q 45.796875 6.09375 49.296875 9.6875 
Q 52.796875 13.296875 54.796875 21.296875 
Q 55.59375 24.296875 55.59375 27.203125 
Q 55.59375 35.296875 49.703125 38.59375 
z
" id="STIXNonUnicode-Italic-e1f0"/>
     </defs>
     <g style="fill:#ffffff;" transform="translate(236.649122 84.525)rotate(-90)scale(0.08 -0.08)">
      <use transform="translate(0 0.40625)" xlink:href="#STIXGeneral-Italic-1d60c"/>
      <use transform="translate(70.900238 0.40625)" xlink:href="#STIXGeneral-Regular-2f"/>
      <use transform="translate(98.700226 0.40625)" xlink:href="#STIXNonUnicode-Italic-e1f0"/>
     </g>
    </g>
   </g>
   <g id="line2d_12">
    <defs>
     <path d="M 0 0.75 
C 0.198902 0.75 0.389685 0.670975 0.53033 0.53033 
C 0.670975 0.389685 0.75 0.198902 0.75 0 
C 0.75 -0.198902 0.670975 -0.389685 0.53033 -0.53033 
C 0.389685 -0.670975 0.198902 -0.75 0 -0.75 
C -0.198902 -0.75 -0.389685 -0.670975 -0.53033 -0.53033 
C -0.670975 -0.389685 -0.75 -0.198902 -0.75 0 
C -0.75 0.198902 -0.670975 0.389685 -0.53033 0.53033 
C -0.389685 0.670975 -0.198902 0.75 0 0.75 
z
" id="m79d2b97cd3" style="stroke:#ffffff;stroke-width:0.75;"/>
    </defs>
    <g clip-path="url(#p4629108ac4)">
     <use style="fill:#ffffff;stroke:#ffffff;stroke-width:0.75;" x="255.84466" xlink:href="#m79d2b97cd3" y="142.493205"/>
    </g>
   </g>
   <g id="line2d_13">
    <path clip-path="url(#p4629108ac4)" d="M 255.812872 78.045 
L 414.749899 78.045 
" style="fill:none;stroke:#187795;stroke-dasharray:7.4,3.2;stroke-dashoffset:0;stroke-width:2;"/>
   </g>
   <g id="patch_5">
    <path d="M 255.812872 143.85 
L 255.812872 12.24 
" style="fill:none;stroke:#ffffff;stroke-linecap:square;stroke-linejoin:miter;stroke-width:0.8;"/>
   </g>
  </g>
  <g id="axes_4">
   <g id="patch_6">
    <path d="M 255.812872 292.02 
L 414.749899 292.02 
L 414.749899 160.41 
L 255.812872 160.41 
z
" style="fill:none;opacity:0;"/>
   </g>
   <g id="PolyCollection_3">
    <path clip-path="url(#pacb7ff16ed)" d="M 255.812872 61.7025 
L 255.812872 390.7275 
L 271.706575 390.7275 
L 271.706575 61.7025 
L 271.706575 61.7025 
L 255.812872 61.7025 
z
" style="fill:#2cb0de;"/>
   </g>
   <g id="matplotlib.axis_5">
    <g id="xtick_1">
     <g id="line2d_14">
      <defs>
       <path d="M 0 0 
L 0 -2.5 
" id="m7dfeb90959" style="stroke:#ffffff;stroke-width:0.8;"/>
      </defs>
      <g>
       <use style="fill:#ffffff;stroke:#ffffff;stroke-width:0.8;" x="255.812872" xlink:href="#m7dfeb90959" y="292.02"/>
      </g>
     </g>
     <g id="text_11">
      <!-- $0$ -->
      <g style="fill:#ffffff;" transform="translate(253.812872 301.59875)scale(0.08 -0.08)">
       <use transform="translate(0 0.40625)" xlink:href="#STIXGeneral-Regular-1d7e2"/>
      </g>
     </g>
    </g>
    <g id="xtick_2">
     <g id="line2d_15">
      <g>
       <use style="fill:#ffffff;stroke:#ffffff;stroke-width:0.8;" x="287.600278" xlink:href="#m7dfeb90959" y="292.02"/>
      </g>
     </g>
     <g id="text_12">
      <!-- $1000$ -->
      <g style="fill:#ffffff;" transform="translate(279.600278 301.59875)scale(0.08 -0.08)">
       <use transform="translate(0 0.296875)" xlink:href="#STIXGeneral-Regular-1d7e3"/>
       <use transform="translate(49.999985 0.296875)" xlink:href="#STIXGeneral-Regular-1d7e2"/>
       <use transform="translate(99.999969 0.296875)" xlink:href="#STIXGeneral-Regular-1d7e2"/>
       <use transform="translate(149.999954 0.296875)" xlink:href="#STIXGeneral-Regular-1d7e2"/>
      </g>
     </g>
    </g>
    <g id="xtick_3">
     <g id="line2d_16">
      <g>
       <use style="fill:#ffffff;stroke:#ffffff;stroke-width:0.8;" x="319.387683" xlink:href="#m7dfeb90959" y="292.02"/>
      </g>
     </g>
     <g id="text_13">
      <!-- $2000$ -->
      <g style="fill:#ffffff;" transform="translate(311.387683 301.59875)scale(0.08 -0.08)">
       <use transform="translate(0 0.40625)" xlink:href="#STIXGeneral-Regular-1d7e4"/>
       <use transform="translate(49.999985 0.40625)" xlink:href="#STIXGeneral-Regular-1d7e2"/>
       <use transform="translate(99.999969 0.40625)" xlink:href="#STIXGeneral-Regular-1d7e2"/>
       <use transform="translate(149.999954 0.40625)" xlink:href="#STIXGeneral-Regular-1d7e2"/>
      </g>
     </g>
    </g>
    <g id="xtick_4">
     <g id="line2d_17">
      <g>
       <use style="fill:#ffffff;stroke:#ffffff;stroke-width:0.8;" x="351.175088" xlink:href="#m7dfeb90959" y="292.02"/>
      </g>
     </g>
     <g id="text_14">
      <!-- $3000$ -->
      <defs>
       <path d="M 11.296875 49.203125 
L 4.203125 50.90625 
Q 6.40625 58.703125 11.5 63.140625 
Q 16.59375 67.59375 24.296875 67.59375 
Q 31.40625 67.59375 36.203125 63.09375 
Q 41 58.59375 41 51.90625 
Q 41 43 32.40625 37 
Q 38 35 41.046875 30.34375 
Q 44.09375 25.703125 44.09375 21 
Q 44.09375 11.296875 37.796875 5 
Q 31.40625 -1.40625 20.5 -1.40625 
Q 9.5 -1.40625 3.09375 5.59375 
L 7.796875 11.203125 
Q 12.90625 5.703125 20 5.703125 
Q 27.40625 5.703125 31.59375 9.296875 
Q 36.203125 13.203125 36.203125 19.09375 
Q 36.203125 24.296875 32.453125 27.796875 
Q 28.703125 31.296875 22.203125 32.203125 
L 15.796875 32.203125 
L 15.796875 34.296875 
L 20.59375 39.40625 
Q 25.09375 39.40625 29.09375 42.84375 
Q 33.09375 46.296875 33.09375 51.203125 
Q 33.09375 55.40625 30.4375 57.953125 
Q 27.796875 60.5 24 60.5 
Q 20 60.5 16.546875 57.640625 
Q 13.09375 54.796875 11.296875 49.203125 
z
" id="STIXGeneral-Regular-1d7e5"/>
      </defs>
      <g style="fill:#ffffff;" transform="translate(343.175088 301.59875)scale(0.08 -0.08)">
       <use transform="translate(0 0.40625)" xlink:href="#STIXGeneral-Regular-1d7e5"/>
       <use transform="translate(49.999985 0.40625)" xlink:href="#STIXGeneral-Regular-1d7e2"/>
       <use transform="translate(99.999969 0.40625)" xlink:href="#STIXGeneral-Regular-1d7e2"/>
       <use transform="translate(149.999954 0.40625)" xlink:href="#STIXGeneral-Regular-1d7e2"/>
      </g>
     </g>
    </g>
    <g id="xtick_5">
     <g id="line2d_18">
      <g>
       <use style="fill:#ffffff;stroke:#ffffff;stroke-width:0.8;" x="382.962494" xlink:href="#m7dfeb90959" y="292.02"/>
      </g>
     </g>
     <g id="text_15">
      <!-- $4000$ -->
      <g style="fill:#ffffff;" transform="translate(374.962494 301.59875)scale(0.08 -0.08)">
       <use transform="translate(0 0.40625)" xlink:href="#STIXGeneral-Regular-1d7e6"/>
       <use transform="translate(49.999985 0.40625)" xlink:href="#STIXGeneral-Regular-1d7e2"/>
       <use transform="translate(99.999969 0.40625)" xlink:href="#STIXGeneral-Regular-1d7e2"/>
       <use transform="translate(149.999954 0.40625)" xlink:href="#STIXGeneral-Regular-1d7e2"/>
      </g>
     </g>
    </g>
    <g id="xtick_6">
     <g id="line2d_19">
      <g>
       <use style="fill:#ffffff;stroke:#ffffff;stroke-width:0.8;" x="414.749899" xlink:href="#m7dfeb90959" y="292.02"/>
      </g>
     </g>
     <g id="text_16">
      <!-- $5000$ -->
      <defs>
       <path d="M 45.796875 67.59375 
L 42.59375 60.5 
L 24.90625 60.5 
L 18.5 47.796875 
Q 29.90625 46.203125 37.25 39.75 
Q 44.59375 33.296875 44.59375 22.59375 
Q 44.59375 12.703125 37.84375 5.640625 
Q 31.09375 -1.40625 21 -1.40625 
Q 10 -1.40625 3.59375 5.59375 
L 8.296875 11.203125 
Q 13.40625 5.703125 20.5 5.703125 
Q 27.90625 5.703125 32.296875 10.75 
Q 36.703125 15.796875 36.703125 22.59375 
Q 36.703125 30 30.09375 35.203125 
Q 23.40625 40.703125 9.40625 40.703125 
L 8 42.40625 
L 19.59375 67.59375 
z
" id="STIXGeneral-Regular-1d7e7"/>
      </defs>
      <g style="fill:#ffffff;" transform="translate(406.749899 301.59875)scale(0.08 -0.08)">
       <use transform="translate(0 0.40625)" xlink:href="#STIXGeneral-Regular-1d7e7"/>
       <use transform="translate(49.999985 0.40625)" xlink:href="#STIXGeneral-Regular-1d7e2"/>
       <use transform="translate(99.999969 0.40625)" xlink:href="#STIXGeneral-Regular-1d7e2"/>
       <use transform="translate(149.999954 0.40625)" xlink:href="#STIXGeneral-Regular-1d7e2"/>
      </g>
     </g>
    </g>
    <g id="text_17">
     <!-- Langevin time -->
     <defs>
      <path d="M 9.8125 72.90625 
L 19.671875 72.90625 
L 19.671875 8.296875 
L 55.171875 8.296875 
L 55.171875 0 
L 9.8125 0 
z
" id="DejaVuSans-4c"/>
      <path d="M 2.984375 54.6875 
L 12.5 54.6875 
L 29.59375 8.796875 
L 46.6875 54.6875 
L 56.203125 54.6875 
L 35.6875 0 
L 23.484375 0 
z
" id="DejaVuSans-76"/>
     </defs>
     <g style="fill:#ffffff;" transform="translate(306.743886 313.34125)scale(0.08 -0.08)">
      <use xlink:href="#DejaVuSans-4c"/>
      <use x="55.712891" xlink:href="#DejaVuSans-61"/>
      <use x="116.992188" xlink:href="#DejaVuSans-6e"/>
      <use x="180.371094" xlink:href="#DejaVuSans-67"/>
      <use x="243.847656" xlink:href="#DejaVuSans-65"/>
      <use x="305.371094" xlink:href="#DejaVuSans-76"/>
      <use x="364.550781" xlink:href="#DejaVuSans-69"/>
      <use x="392.333984" xlink:href="#DejaVuSans-6e"/>
      <use x="455.712891" xlink:href="#DejaVuSans-20"/>
      <use x="487.5" xlink:href="#DejaVuSans-74"/>
      <use x="526.708984" xlink:href="#DejaVuSans-69"/>
      <use x="554.492188" xlink:href="#DejaVuSans-6d"/>
      <use x="651.904297" xlink:href="#DejaVuSans-65"/>
     </g>
    </g>
   </g>
   <g id="matplotlib.axis_6">
    <g id="ytick_9">
     <g id="line2d_20">
      <g>
       <use style="fill:#ffffff;stroke:#ffffff;stroke-width:0.8;" x="255.812872" xlink:href="#m81c1eba6aa" y="292.02"/>
      </g>
     </g>
     <g id="text_18">
      <!-- $0.3$ -->
      <g style="fill:#ffffff;" transform="translate(242.312872 295.059375)scale(0.08 -0.08)">
       <use transform="translate(0 0.40625)" xlink:href="#STIXGeneral-Regular-1d7e2"/>
       <use transform="translate(49.999985 0.40625)" xlink:href="#STIXGeneral-Regular-2e"/>
       <use transform="translate(74.999969 0.40625)" xlink:href="#STIXGeneral-Regular-1d7e5"/>
      </g>
     </g>
    </g>
    <g id="ytick_10">
     <g id="line2d_21">
      <g>
       <use style="fill:#ffffff;stroke:#ffffff;stroke-width:0.8;" x="255.812872" xlink:href="#m81c1eba6aa" y="259.1175"/>
      </g>
     </g>
     <g id="text_19">
      <!-- $0.4$ -->
      <g style="fill:#ffffff;" transform="translate(242.312872 262.156875)scale(0.08 -0.08)">
       <use transform="translate(0 0.40625)" xlink:href="#STIXGeneral-Regular-1d7e2"/>
       <use transform="translate(49.999985 0.40625)" xlink:href="#STIXGeneral-Regular-2e"/>
       <use transform="translate(74.999969 0.40625)" xlink:href="#STIXGeneral-Regular-1d7e6"/>
      </g>
     </g>
    </g>
    <g id="ytick_11">
     <g id="line2d_22">
      <g>
       <use style="fill:#ffffff;stroke:#ffffff;stroke-width:0.8;" x="255.812872" xlink:href="#m81c1eba6aa" y="226.215"/>
      </g>
     </g>
     <g id="text_20">
      <!-- $0.5$ -->
      <g style="fill:#ffffff;" transform="translate(242.312872 229.254375)scale(0.08 -0.08)">
       <use transform="translate(0 0.40625)" xlink:href="#STIXGeneral-Regular-1d7e2"/>
       <use transform="translate(49.999985 0.40625)" xlink:href="#STIXGeneral-Regular-2e"/>
       <use transform="translate(74.999969 0.40625)" xlink:href="#STIXGeneral-Regular-1d7e7"/>
      </g>
     </g>
    </g>
    <g id="ytick_12">
     <g id="line2d_23">
      <g>
       <use style="fill:#ffffff;stroke:#ffffff;stroke-width:0.8;" x="255.812872" xlink:href="#m81c1eba6aa" y="193.3125"/>
      </g>
     </g>
     <g id="text_21">
      <!-- $0.6$ -->
      <g style="fill:#ffffff;" transform="translate(242.312872 196.351875)scale(0.08 -0.08)">
       <use transform="translate(0 0.59375)" xlink:href="#STIXGeneral-Regular-1d7e2"/>
       <use transform="translate(49.999985 0.59375)" xlink:href="#STIXGeneral-Regular-2e"/>
       <use transform="translate(74.999969 0.59375)" xlink:href="#STIXGeneral-Regular-1d7e8"/>
      </g>
     </g>
    </g>
    <g id="ytick_13">
     <g id="line2d_24">
      <g>
       <use style="fill:#ffffff;stroke:#ffffff;stroke-width:0.8;" x="255.812872" xlink:href="#m81c1eba6aa" y="160.41"/>
      </g>
     </g>
     <g id="text_22">
      <!-- $0.7$ -->
      <defs>
       <path d="M 45.09375 64.203125 
L 23 -0.796875 
L 14.796875 -0.796875 
L 35.40625 59.09375 
L 3.796875 59.09375 
L 6.90625 66.203125 
L 45.09375 66.203125 
z
" id="STIXGeneral-Regular-1d7e9"/>
      </defs>
      <g style="fill:#ffffff;" transform="translate(242.312872 163.449375)scale(0.08 -0.08)">
       <use transform="translate(0 0.40625)" xlink:href="#STIXGeneral-Regular-1d7e2"/>
       <use transform="translate(49.999985 0.40625)" xlink:href="#STIXGeneral-Regular-2e"/>
       <use transform="translate(74.999969 0.40625)" xlink:href="#STIXGeneral-Regular-1d7e9"/>
      </g>
     </g>
    </g>
    <g id="text_23">
     <!-- $\langle E\rangle\, / \omega$ -->
     <defs>
      <path d="M 33.5 71.296875 
L 14.296875 25.09375 
L 33.40625 -21.296875 
L 28.203125 -21.296875 
L 7.703125 24.09375 
L 7.703125 26.09375 
L 28.296875 71.296875 
z
" id="STIXGeneral-Regular-27e8"/>
      <path d="M 32.296875 24 
L 11.703125 -21.296875 
L 6.5 -21.296875 
L 25.703125 25 
L 6.59375 71.296875 
L 11.796875 71.296875 
L 32.296875 26 
z
" id="STIXGeneral-Regular-27e9"/>
     </defs>
     <g style="fill:#ffffff;" transform="translate(236.552872 235.895)rotate(-90)scale(0.08 -0.08)">
      <use transform="translate(0 0.703125)" xlink:href="#STIXGeneral-Regular-27e8"/>
      <use transform="translate(39.999985 0.703125)" xlink:href="#STIXGeneral-Italic-1d60c"/>
      <use transform="translate(98.299973 0.703125)" xlink:href="#STIXGeneral-Regular-27e9"/>
      <use transform="translate(150.900208 0.703125)" xlink:href="#STIXGeneral-Regular-2f"/>
      <use transform="translate(178.700196 0.703125)" xlink:href="#STIXNonUnicode-Italic-e1f0"/>
     </g>
    </g>
   </g>
   <g id="line2d_25">
    <path clip-path="url(#pacb7ff16ed)" d="M 271.733753 218.331421 
L 271.813207 218.149494 
L 271.972114 210.283858 
L 272.210474 204.492673 
L 272.369381 204.071892 
L 272.687194 208.709353 
L 272.766648 209.037959 
L 272.846101 210.057192 
L 272.925555 209.688688 
L 273.084462 210.3578 
L 273.561182 205.312742 
L 273.799542 206.234419 
L 273.878996 206.314218 
L 274.037902 205.310763 
L 274.196809 205.96759 
L 274.355716 206.278919 
L 274.67353 208.214869 
L 274.91189 209.646249 
L 275.388611 215.103465 
L 275.626971 216.175961 
L 276.183145 212.598043 
L 276.342051 212.652257 
L 276.580412 212.264659 
L 276.739319 211.64667 
L 276.898225 210.580633 
L 277.295492 207.604154 
L 277.454399 207.478724 
L 277.69276 207.967507 
L 278.328387 213.664737 
L 278.725654 216.613417 
L 279.122921 218.241988 
L 279.679095 221.475246 
L 280.632536 227.553485 
L 281.029803 230.093439 
L 281.90379 233.832171 
L 282.062697 233.916166 
L 282.221604 233.550022 
L 283.333952 229.484735 
L 283.810672 226.611534 
L 284.605207 223.397177 
L 284.92302 223.065549 
L 285.002474 223.03873 
L 285.240834 222.473374 
L 285.479194 222.567936 
L 286.035368 223.564745 
L 286.512089 224.865864 
L 286.750449 224.927723 
L 286.909356 225.029365 
L 287.068262 224.844459 
L 287.386076 224.297077 
L 287.862797 223.932768 
L 288.101157 223.504721 
L 288.657331 222.208762 
L 289.292958 221.089761 
L 289.690225 221.114427 
L 290.087492 221.460743 
L 290.246399 221.532141 
L 290.405306 221.607464 
L 291.040933 220.509447 
L 291.358747 220.067366 
L 292.391641 219.531177 
L 292.550548 219.562197 
L 292.709455 219.582908 
L 292.868362 219.631936 
L 293.027269 219.41933 
L 293.265629 219.005541 
L 294.377977 218.591927 
L 294.536883 218.478809 
L 294.775244 218.193965 
L 295.013604 217.831149 
L 295.410871 216.320587 
L 296.125952 214.02456 
L 297.873927 210.182656 
L 298.112287 210.146182 
L 298.271194 210.14463 
L 299.065728 209.425001 
L 299.462995 209.341354 
L 299.780809 209.229967 
L 300.019169 209.301665 
L 300.257529 209.422609 
L 300.893157 210.057889 
L 301.290424 210.523442 
L 301.926051 211.064086 
L 302.402771 211.654222 
L 302.720585 212.407531 
L 303.753479 214.521205 
L 304.786374 216.124557 
L 305.183641 216.631963 
L 305.660361 217.46829 
L 306.852163 219.536298 
L 307.090523 219.670984 
L 307.408337 219.683328 
L 308.123417 220.255532 
L 308.759045 220.08704 
L 309.156312 219.860865 
L 309.553579 219.805064 
L 309.950846 219.826411 
L 310.904287 220.43716 
L 311.460461 220.668031 
L 311.778274 220.619936 
L 312.254995 220.697693 
L 313.128982 221.480859 
L 313.605703 221.876515 
L 314.400237 222.720306 
L 314.797504 223.155567 
L 315.592038 223.223074 
L 316.148212 223.769943 
L 317.419467 225.826949 
L 317.816734 226.264136 
L 318.531815 226.730561 
L 318.929082 227.086515 
L 319.564709 227.099728 
L 320.438696 226.814464 
L 321.074324 226.57374 
L 321.392137 226.68621 
L 321.709951 226.893675 
L 322.345578 227.140705 
L 322.663392 227.382267 
L 324.411367 229.100538 
L 325.126448 229.650902 
L 325.603168 229.843704 
L 326.238796 230.281847 
L 326.874423 230.045358 
L 327.27169 229.891565 
L 328.225131 229.946986 
L 329.258025 229.722304 
L 329.496386 229.4468 
L 329.814199 229.02016 
L 330.52928 228.730173 
L 331.244361 228.681985 
L 332.436162 227.942547 
L 332.753976 227.754911 
L 333.230696 227.913405 
L 333.78687 228.088326 
L 334.184137 228.138472 
L 334.422497 227.857717 
L 335.217032 226.534431 
L 336.011566 225.942192 
L 336.488286 225.570573 
L 336.965007 225.173667 
L 337.203367 225.021336 
L 337.759541 224.369495 
L 338.077354 224.382919 
L 338.951342 224.654367 
L 339.586969 224.854861 
L 340.619864 225.16347 
L 341.334944 225.220414 
L 343.003466 226.21547 
L 344.274721 226.275978 
L 344.671988 226.193707 
L 345.307615 226.247085 
L 346.499416 226.740522 
L 347.05559 227.15155 
L 347.929578 227.636543 
L 349.200832 227.932975 
L 349.5981 227.87421 
L 350.31318 227.789736 
L 350.869354 227.604627 
L 351.743342 227.327232 
L 352.061155 227.373205 
L 353.650224 227.122974 
L 354.126944 227.457377 
L 354.444758 227.413873 
L 354.921478 227.424785 
L 355.636559 227.663879 
L 356.35164 227.712539 
L 356.82836 227.934684 
L 357.384534 227.904907 
L 358.973602 227.473311 
L 359.370869 227.55576 
L 360.006497 227.504495 
L 360.959938 227.063196 
L 362.549006 226.828001 
L 363.5819 226.922641 
L 363.979168 226.934507 
L 364.535341 226.943569 
L 364.932608 226.968609 
L 366.521677 227.602536 
L 367.951838 227.95316 
L 369.302546 228.209656 
L 369.62036 228.093954 
L 370.812161 227.447429 
L 371.924509 227.331772 
L 373.11631 227.921875 
L 375.261552 228.275111 
L 375.738273 228.315875 
L 378.439689 229.276314 
L 379.313676 229.285582 
L 379.86985 229.241173 
L 380.505478 229.124208 
L 381.458919 228.760334 
L 382.173999 228.628805 
L 385.113776 229.033265 
L 385.590496 229.193165 
L 386.226124 229.354694 
L 387.020658 229.485496 
L 387.894645 229.464497 
L 390.596061 228.816623 
L 391.390595 228.733628 
L 391.867316 228.605533 
L 392.502943 228.592376 
L 393.059117 228.607952 
L 393.853651 228.603722 
L 394.568732 228.470281 
L 395.283813 228.538593 
L 395.91944 228.696454 
L 398.620856 229.454167 
L 399.971564 229.58108 
L 400.368831 229.569409 
L 401.163365 229.583784 
L 402.355167 228.876272 
L 404.659316 227.080505 
L 405.21549 226.673709 
L 405.771663 226.153614 
L 406.645651 225.773065 
L 407.360732 225.470171 
L 408.075812 224.820942 
L 408.71144 224.323803 
L 409.664881 223.72726 
L 410.300508 223.47296 
L 411.889576 223.282663 
L 413.081378 223.424498 
L 414.749899 223.350116 
L 414.749899 223.350116 
" style="fill:none;stroke:#ffffff;stroke-linecap:square;stroke-width:2;"/>
   </g>
   <g id="line2d_26">
    <defs>
     <path d="M 0 2.5 
C 0.663008 2.5 1.29895 2.236584 1.767767 1.767767 
C 2.236584 1.29895 2.5 0.663008 2.5 0 
C 2.5 -0.663008 2.236584 -1.29895 1.767767 -1.767767 
C 1.29895 -2.236584 0.663008 -2.5 0 -2.5 
C -0.663008 -2.5 -1.29895 -2.236584 -1.767767 -1.767767 
C -2.236584 -1.29895 -2.5 -0.663008 -2.5 0 
C -2.5 0.663008 -2.236584 1.29895 -1.767767 1.767767 
C -1.29895 2.236584 -0.663008 2.5 0 2.5 
z
" id="m4f5d1e81ec" style="stroke:#ffffff;stroke-width:0.75;"/>
    </defs>
    <g clip-path="url(#pacb7ff16ed)">
     <use style="fill:#ffffff;stroke:#ffffff;stroke-width:0.75;" x="271.733753" xlink:href="#m4f5d1e81ec" y="218.331421"/>
    </g>
   </g>
   <g id="line2d_27">
    <path clip-path="url(#pacb7ff16ed)" d="M 271.733753 218.331421 
L 271.733753 218.331421 
" style="fill:none;stroke:#ffffff;stroke-linecap:square;stroke-width:3;"/>
   </g>
   <g id="line2d_28">
    <path clip-path="url(#pacb7ff16ed)" d="M 255.812872 226.215 
L 414.749899 226.215 
" style="fill:none;stroke:#187795;stroke-dasharray:7.4,3.2;stroke-dashoffset:0;stroke-width:2;"/>
   </g>
   <g id="patch_7">
    <path d="M 255.812872 292.02 
L 255.812872 160.41 
" style="fill:none;stroke:#ffffff;stroke-linecap:square;stroke-linejoin:miter;stroke-width:0.8;"/>
   </g>
   <g id="patch_8">
    <path d="M 255.812872 292.02 
L 414.749899 292.02 
" style="fill:none;stroke:#ffffff;stroke-linecap:square;stroke-linejoin:miter;stroke-width:0.8;"/>
   </g>
  </g>
  <g id="text_24">
   <!-- $t_L = 0$ -->
   <defs>
    <path d="M 37.59375 45.296875 
L 35.90625 38.203125 
L 25.5 38.203125 
L 19.40625 13.703125 
Q 18.796875 11.296875 18.796875 9.796875 
Q 18.796875 6.09375 22.59375 6.09375 
Q 26.203125 6.09375 29.59375 8.703125 
L 30.796875 8.703125 
L 27.796875 1.203125 
Q 24.40625 -1 18.5 -1 
Q 14.40625 -1 12.25 1.046875 
Q 10.09375 3.09375 10.09375 6.703125 
Q 10.09375 8.203125 10.59375 10.40625 
L 17.59375 38.203125 
L 9.59375 38.203125 
L 10 39.90625 
L 15.796875 45.296875 
L 19.296875 45.296875 
L 20.90625 51.703125 
L 28.59375 58 
L 30.40625 58 
L 27.203125 45.296875 
z
" id="STIXGeneral-Italic-1d635"/>
    <path d="M 56.40625 7.40625 
L 52.796875 0 
L 7.40625 0 
L 23.90625 66.203125 
L 32.59375 66.203125 
L 17.90625 7.40625 
z
" id="STIXGeneral-Italic-1d613"/>
    <path d="M 63.703125 32 
L 4.796875 32 
L 4.796875 38.59375 
L 63.703125 38.59375 
z
M 63.703125 12 
L 4.796875 12 
L 4.796875 18.59375 
L 63.703125 18.59375 
z
" id="STIXGeneral-Regular-3d"/>
   </defs>
   <g style="fill:#ffffff;" transform="translate(38.88 9.72)scale(0.08 -0.08)">
    <use transform="translate(0 0.40625)" xlink:href="#STIXGeneral-Italic-1d635"/>
    <use transform="translate(29.099991 -13.182812)scale(0.7)" xlink:href="#STIXGeneral-Italic-1d613"/>
    <use transform="translate(85.614828 0.40625)" xlink:href="#STIXGeneral-Regular-3d"/>
    <use transform="translate(169.234811 0.40625)" xlink:href="#STIXGeneral-Regular-1d7e2"/>
   </g>
  </g>
  <g id="axes_5">
   <g id="patch_9">
    <path d="M 41.007 292.02 
L 199.944027 292.02 
L 199.944027 209.8 
L 41.007 209.8 
z
" style="fill:none;opacity:0;"/>
   </g>
   <g id="matplotlib.axis_7">
    <g id="text_25">
     <!-- $x$ -->
     <defs>
      <path d="M 54.40625 45.296875 
L 34.40625 23.59375 
L 45.203125 0 
L 35.796875 0 
L 27.90625 17.5 
L 12.40625 0 
L 3 0 
L 25 23.90625 
L 15.40625 45.296875 
L 24.796875 45.296875 
L 31.59375 30.203125 
L 45 45.296875 
z
" id="STIXGeneral-Italic-1d639"/>
     </defs>
     <g style="fill:#ffffff;" transform="translate(118.515514 302.09875)scale(0.08 -0.08)">
      <use transform="translate(0 0.703125)" xlink:href="#STIXGeneral-Italic-1d639"/>
     </g>
    </g>
   </g>
   <g id="matplotlib.axis_8">
    <g id="text_26">
     <!-- $|\psi(x)|^2$ -->
     <defs>
      <path d="M 13.296875 -1.40625 
L 6.703125 -1.40625 
L 6.703125 67.59375 
L 13.296875 67.59375 
z
" id="STIXGeneral-Regular-7c"/>
      <path d="M 70.5 46.09375 
L 65.5 39.09375 
Q 62.59375 38.203125 60.546875 34.796875 
Q 58.5 31.40625 56.40625 23 
Q 55.09375 17.703125 53.4375 14.046875 
Q 51.796875 10.40625 49.046875 6.953125 
Q 46.296875 3.5 41.890625 1.5 
Q 37.5 -0.5 31.5 -1 
L 27 -19.203125 
L 19.296875 -21.59375 
L 18.5 -21.09375 
L 23.5 -1 
Q 15.40625 -0.203125 12.046875 3.296875 
Q 8.703125 6.796875 8.703125 12.796875 
Q 8.703125 16.796875 10.203125 23 
Q 11.90625 29.703125 11.90625 33.40625 
Q 11.90625 37.796875 9 39.09375 
L 7.5 46.09375 
Q 20.203125 46.09375 20.203125 34.703125 
Q 20.203125 31.296875 19.203125 27.59375 
Q 17.203125 19.296875 17.203125 15.40625 
Q 17.203125 11.203125 19.09375 8.953125 
Q 21 6.703125 25.296875 6.203125 
L 34.296875 42.40625 
L 42.40625 45.40625 
L 42.90625 44.703125 
L 33.296875 6.203125 
Q 40.296875 7.09375 43.59375 11.890625 
Q 46.90625 16.703125 49.59375 27.59375 
Q 54.203125 46.09375 70.5 46.09375 
z
" id="STIXNonUnicode-Italic-e1ef"/>
      <path d="M 30.40625 -16.09375 
L 29.203125 -17.703125 
Q 17.59375 -11.09375 11.1875 0.5 
Q 4.796875 12.09375 4.796875 25.203125 
Q 4.796875 52.90625 29.5 67.59375 
L 30.40625 66 
Q 20.203125 57.296875 16.796875 48.84375 
Q 13.40625 40.40625 13.40625 25.5 
Q 13.40625 10.703125 16.90625 1.5 
Q 20.40625 -7.703125 30.40625 -16.09375 
z
" id="STIXGeneral-Regular-28"/>
      <path d="M 2.90625 66 
L 4.09375 67.59375 
Q 15.5 60.796875 22 49.1875 
Q 28.5 37.59375 28.5 24.703125 
Q 28.5 -2.59375 3.796875 -17.703125 
L 2.90625 -16.09375 
Q 13.203125 -7.59375 16.546875 0.84375 
Q 19.90625 9.296875 19.90625 24.40625 
Q 19.90625 39.59375 16.546875 48.75 
Q 13.203125 57.90625 2.90625 66 
z
" id="STIXGeneral-Regular-29"/>
     </defs>
     <g style="fill:#ffffff;" transform="translate(35.247 261.27)rotate(-90)scale(0.08 -0.08)">
      <use transform="translate(0 0.446875)" xlink:href="#STIXGeneral-Regular-7c"/>
      <use transform="translate(19.999985 0.446875)" xlink:href="#STIXNonUnicode-Italic-e1ef"/>
      <use transform="translate(85.399979 0.446875)" xlink:href="#STIXGeneral-Regular-28"/>
      <use transform="translate(118.699966 0.446875)" xlink:href="#STIXGeneral-Italic-1d639"/>
      <use transform="translate(166.899963 0.446875)" xlink:href="#STIXGeneral-Regular-29"/>
      <use transform="translate(200.199951 0.446875)" xlink:href="#STIXGeneral-Regular-7c"/>
      <use transform="translate(220.992631 36.684375)scale(0.7)" xlink:href="#STIXGeneral-Regular-1d7e4"/>
     </g>
    </g>
   </g>
   <g id="line2d_29">
    <path clip-path="url(#p751513c744)" d="M 41.007 292.016889 
L 42.612425 292.01536 
L 44.217849 292.013134 
L 45.823274 292.009923 
L 47.428698 292.005332 
L 49.034123 291.998821 
L 50.639547 291.98967 
L 52.244972 291.976917 
L 53.850396 291.959299 
L 55.455821 291.935173 
L 57.061245 291.90242 
L 58.66667 291.858347 
L 60.272094 291.799561 
L 61.877519 291.721839 
L 63.482943 291.619994 
L 65.088368 291.487723 
L 66.693792 291.31747 
L 68.299217 291.1003 
L 69.904641 290.825784 
L 71.510066 290.481934 
L 73.11549 290.055184 
L 74.720915 289.530432 
L 76.326339 288.891176 
L 77.931764 288.119741 
L 79.537188 287.197627 
L 81.142613 286.105973 
L 82.748037 284.826158 
L 84.353462 283.340523 
L 85.958886 281.63321 
L 87.564311 279.691102 
L 89.169735 277.504826 
L 90.77516 275.069781 
L 92.380584 272.387143 
L 93.986009 269.464794 
L 95.591434 266.318102 
L 97.196858 262.970499 
L 98.802283 259.453786 
L 100.407707 255.808129 
L 102.013132 252.081683 
L 103.618556 248.329839 
L 105.223981 244.614073 
L 106.829405 241.000437 
L 108.43483 237.557706 
L 110.040254 234.355275 
L 111.645679 231.460871 
L 113.251103 228.938194 
L 114.856528 226.844598 
L 116.461952 225.228928 
L 118.067377 224.129624 
L 119.672801 223.573206 
L 121.278226 223.573206 
L 122.88365 224.129624 
L 124.489075 225.228928 
L 126.094499 226.844598 
L 127.699924 228.938194 
L 129.305348 231.460871 
L 130.910773 234.355275 
L 132.516197 237.557706 
L 134.121622 241.000437 
L 135.727046 244.614073 
L 137.332471 248.329839 
L 138.937895 252.081683 
L 140.54332 255.808129 
L 142.148744 259.453786 
L 143.754169 262.970499 
L 145.359594 266.318102 
L 146.965018 269.464794 
L 148.570443 272.387143 
L 150.175867 275.069781 
L 151.781292 277.504826 
L 153.386716 279.691102 
L 154.992141 281.63321 
L 156.597565 283.340523 
L 158.20299 284.826158 
L 159.808414 286.105973 
L 161.413839 287.197627 
L 163.019263 288.119741 
L 164.624688 288.891176 
L 166.230112 289.530432 
L 167.835537 290.055184 
L 169.440961 290.481934 
L 171.046386 290.825784 
L 172.65181 291.1003 
L 174.257235 291.31747 
L 175.862659 291.487723 
L 177.468084 291.619994 
L 179.073508 291.721839 
L 180.678933 291.799561 
L 182.284357 291.858347 
L 183.889782 291.90242 
L 185.495206 291.935173 
L 187.100631 291.959299 
L 188.706055 291.976917 
L 190.31148 291.98967 
L 191.916904 291.998821 
L 193.522329 292.005332 
L 195.127753 292.009923 
L 196.733178 292.013134 
L 198.338603 292.01536 
L 199.944027 292.016889 
" style="fill:none;stroke:#187795;stroke-dasharray:7.4,3.2;stroke-dashoffset:0;stroke-width:2;"/>
   </g>
  </g>
 </g>
 <defs>
  <clipPath id="pca8cb6c617">
   <rect height="181" width="158.937027" x="41.007" y="12.24"/>
  </clipPath>
  <clipPath id="p751513c744">
   <rect height="82.22" width="158.937027" x="41.007" y="209.8"/>
  </clipPath>
  <clipPath id="p4629108ac4">
   <rect height="131.61" width="158.937027" x="255.812872" y="12.24"/>
  </clipPath>
  <clipPath id="pacb7ff16ed">
   <rect height="131.61" width="158.937027" x="255.812872" y="160.41"/>
  </clipPath>
 </defs>
</svg>
