<?xml version="1.0" encoding="utf-8" standalone="no"?>
<!DOCTYPE svg PUBLIC "-//W3C//DTD SVG 1.1//EN"
  "http://www.w3.org/Graphics/SVG/1.1/DTD/svg11.dtd">
<!-- Created with matplotlib (http://matplotlib.org/) -->
<svg height="180pt" version="1.1" viewBox="0 0 243 180" width="243pt" xmlns="http://www.w3.org/2000/svg" xmlns:xlink="http://www.w3.org/1999/xlink">
 <defs>
  <style type="text/css">
*{stroke-linecap:butt;stroke-linejoin:round;}
  </style>
 </defs>
 <g id="figure_1">
  <g id="patch_1">
   <path d="M 0 180 
L 243 180 
L 243 0 
L 0 0 
z
" style="fill:#ffffff;"/>
  </g>
  <g id="axes_1">
   <g id="patch_2">
    <path d="M 24.3 153 
L 230.85 153 
L 230.85 9 
L 24.3 9 
z
" style="fill:#ffffff;"/>
   </g>
   <g id="matplotlib.axis_1">
    <g id="xtick_1">
     <g id="line2d_1">
      <defs>
       <path d="M 0 0 
L 0 -2.5 
" id="m6d6b7bfc4d" style="stroke:#000000;stroke-width:0.8;"/>
      </defs>
      <g>
       <use style="stroke:#000000;stroke-width:0.8;" x="24.3" xlink:href="#m6d6b7bfc4d" y="153"/>
      </g>
     </g>
     <g id="line2d_2">
      <defs>
       <path d="M 0 0 
L 0 2.5 
" id="m01839bb94d" style="stroke:#000000;stroke-width:0.8;"/>
      </defs>
      <g>
       <use style="stroke:#000000;stroke-width:0.8;" x="24.3" xlink:href="#m01839bb94d" y="9"/>
      </g>
     </g>
     <g id="text_1">
      <!-- $0$ -->
      <defs>
       <path d="M 47.703125 33 
Q 47.703125 23.796875 45.546875 16.34375 
Q 43.40625 8.90625 38.09375 3.75 
Q 32.796875 -1.40625 25 -1.40625 
Q 18.796875 -1.40625 14.25 1.6875 
Q 9.703125 4.796875 7.203125 10.046875 
Q 4.703125 15.296875 3.5 21.140625 
Q 2.296875 27 2.296875 33.59375 
Q 2.296875 42.90625 4.59375 50.34375 
Q 6.90625 57.796875 12.296875 62.6875 
Q 17.703125 67.59375 25.40625 67.59375 
Q 35.203125 67.59375 41.453125 57.9375 
Q 47.703125 48.296875 47.703125 33 
z
M 39.796875 33 
Q 39.796875 45.203125 35.75 52.84375 
Q 31.703125 60.5 25.203125 60.5 
Q 17.796875 60.5 14 52.75 
Q 10.203125 45 10.203125 33.40625 
Q 10.203125 28.203125 10.953125 23.546875 
Q 11.703125 18.90625 13.34375 14.75 
Q 15 10.59375 18 8.140625 
Q 21 5.703125 25 5.703125 
Q 30.09375 5.703125 33.546875 9.796875 
Q 37 13.90625 38.390625 19.84375 
Q 39.796875 25.796875 39.796875 33 
z
" id="STIXGeneral-Regular-1d7e2"/>
      </defs>
      <g transform="translate(22.3 162.57875)scale(0.08 -0.08)">
       <use transform="translate(0 0.40625)" xlink:href="#STIXGeneral-Regular-1d7e2"/>
      </g>
     </g>
    </g>
    <g id="xtick_2">
     <g id="line2d_3">
      <g>
       <use style="stroke:#000000;stroke-width:0.8;" x="65.61" xlink:href="#m6d6b7bfc4d" y="153"/>
      </g>
     </g>
     <g id="line2d_4">
      <g>
       <use style="stroke:#000000;stroke-width:0.8;" x="65.61" xlink:href="#m01839bb94d" y="9"/>
      </g>
     </g>
     <g id="text_2">
      <!-- $0.2$ -->
      <defs>
       <path d="M 18.09375 4.296875 
Q 18.09375 2.09375 16.4375 0.5 
Q 14.796875 -1.09375 12.5 -1.09375 
Q 10.203125 -1.09375 8.59375 0.5 
Q 7 2.09375 7 4.390625 
Q 7 6.703125 8.640625 8.34375 
Q 10.296875 10 12.59375 10 
Q 14.796875 10 16.4375 8.296875 
Q 18.09375 6.59375 18.09375 4.296875 
z
" id="STIXGeneral-Regular-2e"/>
       <path d="M 46.90625 7.09375 
L 44 0 
L 3.5 0 
L 3.5 2.09375 
L 21 23.5 
L 21 23.40625 
L 26.59375 30.203125 
Q 30.5 34.90625 32.09375 36.953125 
Q 33.703125 39 35.203125 41.953125 
Q 36.703125 44.90625 36.703125 47.5 
Q 36.703125 53.703125 33.34375 57.09375 
Q 30 60.5 24.203125 60.5 
Q 19.59375 60.5 15.75 56.703125 
Q 11.90625 52.90625 10.90625 45.90625 
L 3.703125 47.59375 
Q 5.296875 56.5 11.1875 62.046875 
Q 17.09375 67.59375 24.90625 67.59375 
Q 33.59375 67.59375 39.09375 62.1875 
Q 44.59375 56.796875 44.59375 49.09375 
Q 44.59375 43.5 42.5 39.453125 
Q 40.40625 35.40625 33.703125 27 
L 17.703125 7.09375 
z
" id="STIXGeneral-Regular-1d7e4"/>
      </defs>
      <g transform="translate(60.61 162.57875)scale(0.08 -0.08)">
       <use transform="translate(0 0.40625)" xlink:href="#STIXGeneral-Regular-1d7e2"/>
       <use transform="translate(49.999985 0.40625)" xlink:href="#STIXGeneral-Regular-2e"/>
       <use transform="translate(74.999969 0.40625)" xlink:href="#STIXGeneral-Regular-1d7e4"/>
      </g>
     </g>
    </g>
    <g id="xtick_3">
     <g id="line2d_5">
      <g>
       <use style="stroke:#000000;stroke-width:0.8;" x="106.92" xlink:href="#m6d6b7bfc4d" y="153"/>
      </g>
     </g>
     <g id="line2d_6">
      <g>
       <use style="stroke:#000000;stroke-width:0.8;" x="106.92" xlink:href="#m01839bb94d" y="9"/>
      </g>
     </g>
     <g id="text_3">
      <!-- $0.4$ -->
      <defs>
       <path d="M 48.90625 23.59375 
L 45.59375 16.5 
L 37.296875 16.5 
L 37.296875 0 
L 29.40625 0 
L 29.40625 16.5 
L 1.09375 16.5 
L 1.09375 23.296875 
L 32.296875 67.59375 
L 37.296875 67.59375 
L 37.296875 23.59375 
z
M 29.40625 23.59375 
L 29.40625 51 
L 10 23.59375 
z
" id="STIXGeneral-Regular-1d7e6"/>
      </defs>
      <g transform="translate(101.92 162.57875)scale(0.08 -0.08)">
       <use transform="translate(0 0.40625)" xlink:href="#STIXGeneral-Regular-1d7e2"/>
       <use transform="translate(49.999985 0.40625)" xlink:href="#STIXGeneral-Regular-2e"/>
       <use transform="translate(74.999969 0.40625)" xlink:href="#STIXGeneral-Regular-1d7e6"/>
      </g>
     </g>
    </g>
    <g id="xtick_4">
     <g id="line2d_7">
      <g>
       <use style="stroke:#000000;stroke-width:0.8;" x="148.23" xlink:href="#m6d6b7bfc4d" y="153"/>
      </g>
     </g>
     <g id="line2d_8">
      <g>
       <use style="stroke:#000000;stroke-width:0.8;" x="148.23" xlink:href="#m01839bb94d" y="9"/>
      </g>
     </g>
     <g id="text_4">
      <!-- $0.6$ -->
      <defs>
       <path d="M 44.796875 66.796875 
L 43 61.5 
Q 31.59375 60.703125 23.640625 54.953125 
Q 15.703125 49.203125 12.203125 38.796875 
Q 18.09375 43.09375 25.90625 43.09375 
Q 34.5 43.09375 40.75 37.296875 
Q 47 31.5 47 22 
Q 47 12.296875 40.953125 5.4375 
Q 34.90625 -1.40625 25.703125 -1.40625 
Q 18 -1.40625 12.75 2.640625 
Q 7.5 6.703125 5.34375 12.75 
Q 3.203125 18.796875 3.203125 26.40625 
Q 3.203125 34.90625 6.203125 43.046875 
Q 9.203125 51.203125 14.296875 56.203125 
Q 21 62.796875 27.09375 65.046875 
Q 33.203125 67.296875 44.703125 68.40625 
z
M 39 20.703125 
Q 39 27.90625 34.890625 31.953125 
Q 30.796875 36 25.09375 36 
Q 19.90625 36 16 32.953125 
Q 12.09375 29.90625 11.203125 24 
Q 11.203125 15.90625 15.203125 10.796875 
Q 19.203125 5.703125 26 5.703125 
Q 31.5 5.703125 35.25 9.953125 
Q 39 14.203125 39 20.703125 
z
" id="STIXGeneral-Regular-1d7e8"/>
      </defs>
      <g transform="translate(143.23 162.57875)scale(0.08 -0.08)">
       <use transform="translate(0 0.59375)" xlink:href="#STIXGeneral-Regular-1d7e2"/>
       <use transform="translate(49.999985 0.59375)" xlink:href="#STIXGeneral-Regular-2e"/>
       <use transform="translate(74.999969 0.59375)" xlink:href="#STIXGeneral-Regular-1d7e8"/>
      </g>
     </g>
    </g>
    <g id="xtick_5">
     <g id="line2d_9">
      <g>
       <use style="stroke:#000000;stroke-width:0.8;" x="189.54" xlink:href="#m6d6b7bfc4d" y="153"/>
      </g>
     </g>
     <g id="line2d_10">
      <g>
       <use style="stroke:#000000;stroke-width:0.8;" x="189.54" xlink:href="#m01839bb94d" y="9"/>
      </g>
     </g>
     <g id="text_5">
      <!-- $0.8$ -->
      <defs>
       <path d="M 44.703125 16.09375 
Q 44.703125 8.796875 39.390625 3.6875 
Q 34.09375 -1.40625 24.796875 -1.40625 
Q 16.296875 -1.40625 10.59375 3.4375 
Q 4.90625 8.296875 4.90625 15.40625 
Q 4.90625 20.796875 7.75 25.25 
Q 10.59375 29.703125 17.703125 34.5 
Q 6 41.40625 6 51.40625 
Q 6 58.59375 11.546875 63.09375 
Q 17.09375 67.59375 25.59375 67.59375 
Q 32.90625 67.59375 37.796875 62.84375 
Q 42.703125 58.09375 42.703125 52 
Q 42.703125 46.40625 40.09375 42.703125 
Q 37.5 39 31.09375 35.296875 
Q 44.703125 27 44.703125 16.09375 
z
M 35.5 51.5 
Q 35.5 55.5 32.390625 58 
Q 29.296875 60.5 24.40625 60.5 
Q 19.796875 60.5 16.84375 57.84375 
Q 13.90625 55.203125 13.90625 51.796875 
Q 13.90625 47.5 16.34375 44.84375 
Q 18.796875 42.203125 24.90625 39.40625 
Q 35.5 45.203125 35.5 51.5 
z
M 27.59375 28.59375 
L 24.09375 30.5 
Q 18.90625 28.703125 15.84375 24.640625 
Q 12.796875 20.59375 12.796875 16.296875 
Q 12.796875 11.796875 16 8.75 
Q 19.203125 5.703125 25.203125 5.703125 
Q 29.796875 5.703125 33.296875 8.453125 
Q 36.796875 11.203125 36.796875 15.796875 
Q 36.796875 20 34.6875 22.953125 
Q 32.59375 25.90625 27.59375 28.59375 
z
" id="STIXGeneral-Regular-1d7ea"/>
      </defs>
      <g transform="translate(184.54 162.57875)scale(0.08 -0.08)">
       <use transform="translate(0 0.40625)" xlink:href="#STIXGeneral-Regular-1d7e2"/>
       <use transform="translate(49.999985 0.40625)" xlink:href="#STIXGeneral-Regular-2e"/>
       <use transform="translate(74.999969 0.40625)" xlink:href="#STIXGeneral-Regular-1d7ea"/>
      </g>
     </g>
    </g>
    <g id="xtick_6">
     <g id="line2d_11">
      <g>
       <use style="stroke:#000000;stroke-width:0.8;" x="230.85" xlink:href="#m6d6b7bfc4d" y="153"/>
      </g>
     </g>
     <g id="line2d_12">
      <g>
       <use style="stroke:#000000;stroke-width:0.8;" x="230.85" xlink:href="#m01839bb94d" y="9"/>
      </g>
     </g>
     <g id="text_6">
      <!-- $1$ -->
      <defs>
       <path d="M 30.203125 0 
L 22.296875 0 
L 22.296875 57 
Q 20.09375 56 15.75 53.75 
Q 11.40625 51.5 10.796875 51.203125 
L 10.796875 58.5 
L 28.796875 67.703125 
L 30.203125 67.203125 
z
" id="STIXGeneral-Regular-1d7e3"/>
      </defs>
      <g transform="translate(228.85 162.57875)scale(0.08 -0.08)">
       <use transform="translate(0 0.296875)" xlink:href="#STIXGeneral-Regular-1d7e3"/>
      </g>
     </g>
    </g>
    <g id="xtick_7">
     <g id="line2d_13">
      <defs>
       <path d="M 0 0 
L 0 -1.5 
" id="mda98f83a37" style="stroke:#000000;stroke-width:0.6;"/>
      </defs>
      <g>
       <use style="stroke:#000000;stroke-width:0.6;" x="44.955" xlink:href="#mda98f83a37" y="153"/>
      </g>
     </g>
     <g id="line2d_14">
      <defs>
       <path d="M 0 0 
L 0 1.5 
" id="m84b1fe9cc7" style="stroke:#000000;stroke-width:0.6;"/>
      </defs>
      <g>
       <use style="stroke:#000000;stroke-width:0.6;" x="44.955" xlink:href="#m84b1fe9cc7" y="9"/>
      </g>
     </g>
    </g>
    <g id="xtick_8">
     <g id="line2d_15">
      <g>
       <use style="stroke:#000000;stroke-width:0.6;" x="86.265" xlink:href="#mda98f83a37" y="153"/>
      </g>
     </g>
     <g id="line2d_16">
      <g>
       <use style="stroke:#000000;stroke-width:0.6;" x="86.265" xlink:href="#m84b1fe9cc7" y="9"/>
      </g>
     </g>
    </g>
    <g id="xtick_9">
     <g id="line2d_17">
      <g>
       <use style="stroke:#000000;stroke-width:0.6;" x="127.575" xlink:href="#mda98f83a37" y="153"/>
      </g>
     </g>
     <g id="line2d_18">
      <g>
       <use style="stroke:#000000;stroke-width:0.6;" x="127.575" xlink:href="#m84b1fe9cc7" y="9"/>
      </g>
     </g>
    </g>
    <g id="xtick_10">
     <g id="line2d_19">
      <g>
       <use style="stroke:#000000;stroke-width:0.6;" x="168.885" xlink:href="#mda98f83a37" y="153"/>
      </g>
     </g>
     <g id="line2d_20">
      <g>
       <use style="stroke:#000000;stroke-width:0.6;" x="168.885" xlink:href="#m84b1fe9cc7" y="9"/>
      </g>
     </g>
    </g>
    <g id="xtick_11">
     <g id="line2d_21">
      <g>
       <use style="stroke:#000000;stroke-width:0.6;" x="210.195" xlink:href="#mda98f83a37" y="153"/>
      </g>
     </g>
     <g id="line2d_22">
      <g>
       <use style="stroke:#000000;stroke-width:0.6;" x="210.195" xlink:href="#m84b1fe9cc7" y="9"/>
      </g>
     </g>
    </g>
    <g id="text_7">
     <!-- $h/\mu$ -->
     <defs>
      <path d="M 31.09375 67.90625 
L 24.203125 40.5 
Q 28.59375 44 32.25 45.140625 
Q 35.90625 46.296875 40.5 46.296875 
Q 45.40625 46.296875 48.203125 43.796875 
Q 51 41.296875 51 36.59375 
Q 51 34.5 50.40625 32.09375 
L 42.40625 0 
L 34.5 0 
L 42 30.40625 
Q 42.5 32.59375 42.5 33.796875 
Q 42.5 39.203125 36 39.203125 
Q 33.09375 39.203125 28.640625 36.703125 
Q 24.203125 34.203125 21.703125 30.203125 
L 14.203125 0 
L 6.296875 0 
L 22.703125 66 
L 30.296875 68.40625 
z
" id="STIXGeneral-Italic-1d629"/>
      <path d="M 28.703125 67.59375 
L 5.90625 -1.40625 
L -0.90625 -1.40625 
L 22 67.59375 
z
" id="STIXGeneral-Regular-2f"/>
      <path d="M 53.59375 45.296875 
L 45.5 12.796875 
Q 45 11 45 9.703125 
Q 45 6.09375 49.703125 6.09375 
L 49.296875 4.703125 
L 45.59375 -1 
Q 39.40625 -1 37.5 2.09375 
Q 36.59375 3.5 36.59375 6.40625 
L 21.59375 -1 
Q 16 -1 14.09375 1.5 
L 10.59375 -12.59375 
Q 9.296875 -17.90625 6.796875 -21.5 
L -0.90625 -21.5 
Q 2 -17 3.09375 -12.703125 
L 17.5 45.296875 
L 25.40625 45.296875 
L 17.90625 14.90625 
Q 17.40625 12.703125 17.40625 11.40625 
Q 17.40625 6.09375 23.90625 6.09375 
Q 26.703125 6.09375 31.34375 9.046875 
Q 36 12 38.5 16.09375 
L 45.703125 45.296875 
z
" id="STIXNonUnicode-Italic-e1e3"/>
     </defs>
     <g transform="translate(122.255 174.225)scale(0.08 -0.08)">
      <use transform="translate(0 0.59375)" xlink:href="#STIXGeneral-Italic-1d629"/>
      <use transform="translate(48.699997 0.59375)" xlink:href="#STIXGeneral-Regular-2f"/>
      <use transform="translate(76.499985 0.59375)" xlink:href="#STIXNonUnicode-Italic-e1e3"/>
     </g>
    </g>
   </g>
   <g id="matplotlib.axis_2">
    <g id="ytick_1">
     <g id="line2d_23">
      <defs>
       <path d="M 0 0 
L 2.5 0 
" id="meef811109c" style="stroke:#000000;stroke-width:0.8;"/>
      </defs>
      <g>
       <use style="stroke:#000000;stroke-width:0.8;" x="24.3" xlink:href="#meef811109c" y="153"/>
      </g>
     </g>
     <g id="line2d_24">
      <defs>
       <path d="M 0 0 
L -2.5 0 
" id="mb35f9185c1" style="stroke:#000000;stroke-width:0.8;"/>
      </defs>
      <g>
       <use style="stroke:#000000;stroke-width:0.8;" x="230.85" xlink:href="#mb35f9185c1" y="153"/>
      </g>
     </g>
     <g id="text_8">
      <!-- $0$ -->
      <g transform="translate(16.8 156.039375)scale(0.08 -0.08)">
       <use transform="translate(0 0.40625)" xlink:href="#STIXGeneral-Regular-1d7e2"/>
      </g>
     </g>
    </g>
    <g id="ytick_2">
     <g id="line2d_25">
      <g>
       <use style="stroke:#000000;stroke-width:0.8;" x="24.3" xlink:href="#meef811109c" y="124.2"/>
      </g>
     </g>
     <g id="line2d_26">
      <g>
       <use style="stroke:#000000;stroke-width:0.8;" x="230.85" xlink:href="#mb35f9185c1" y="124.2"/>
      </g>
     </g>
     <g id="text_9">
      <!-- $0.2$ -->
      <g transform="translate(10.8 127.239375)scale(0.08 -0.08)">
       <use transform="translate(0 0.40625)" xlink:href="#STIXGeneral-Regular-1d7e2"/>
       <use transform="translate(49.999985 0.40625)" xlink:href="#STIXGeneral-Regular-2e"/>
       <use transform="translate(74.999969 0.40625)" xlink:href="#STIXGeneral-Regular-1d7e4"/>
      </g>
     </g>
    </g>
    <g id="ytick_3">
     <g id="line2d_27">
      <g>
       <use style="stroke:#000000;stroke-width:0.8;" x="24.3" xlink:href="#meef811109c" y="95.4"/>
      </g>
     </g>
     <g id="line2d_28">
      <g>
       <use style="stroke:#000000;stroke-width:0.8;" x="230.85" xlink:href="#mb35f9185c1" y="95.4"/>
      </g>
     </g>
     <g id="text_10">
      <!-- $0.4$ -->
      <g transform="translate(10.8 98.439375)scale(0.08 -0.08)">
       <use transform="translate(0 0.40625)" xlink:href="#STIXGeneral-Regular-1d7e2"/>
       <use transform="translate(49.999985 0.40625)" xlink:href="#STIXGeneral-Regular-2e"/>
       <use transform="translate(74.999969 0.40625)" xlink:href="#STIXGeneral-Regular-1d7e6"/>
      </g>
     </g>
    </g>
    <g id="ytick_4">
     <g id="line2d_29">
      <g>
       <use style="stroke:#000000;stroke-width:0.8;" x="24.3" xlink:href="#meef811109c" y="66.6"/>
      </g>
     </g>
     <g id="line2d_30">
      <g>
       <use style="stroke:#000000;stroke-width:0.8;" x="230.85" xlink:href="#mb35f9185c1" y="66.6"/>
      </g>
     </g>
     <g id="text_11">
      <!-- $0.6$ -->
      <g transform="translate(10.8 69.639375)scale(0.08 -0.08)">
       <use transform="translate(0 0.59375)" xlink:href="#STIXGeneral-Regular-1d7e2"/>
       <use transform="translate(49.999985 0.59375)" xlink:href="#STIXGeneral-Regular-2e"/>
       <use transform="translate(74.999969 0.59375)" xlink:href="#STIXGeneral-Regular-1d7e8"/>
      </g>
     </g>
    </g>
    <g id="ytick_5">
     <g id="line2d_31">
      <g>
       <use style="stroke:#000000;stroke-width:0.8;" x="24.3" xlink:href="#meef811109c" y="37.8"/>
      </g>
     </g>
     <g id="line2d_32">
      <g>
       <use style="stroke:#000000;stroke-width:0.8;" x="230.85" xlink:href="#mb35f9185c1" y="37.8"/>
      </g>
     </g>
     <g id="text_12">
      <!-- $0.8$ -->
      <g transform="translate(10.8 40.839375)scale(0.08 -0.08)">
       <use transform="translate(0 0.40625)" xlink:href="#STIXGeneral-Regular-1d7e2"/>
       <use transform="translate(49.999985 0.40625)" xlink:href="#STIXGeneral-Regular-2e"/>
       <use transform="translate(74.999969 0.40625)" xlink:href="#STIXGeneral-Regular-1d7ea"/>
      </g>
     </g>
    </g>
    <g id="ytick_6">
     <g id="line2d_33">
      <g>
       <use style="stroke:#000000;stroke-width:0.8;" x="24.3" xlink:href="#meef811109c" y="9"/>
      </g>
     </g>
     <g id="line2d_34">
      <g>
       <use style="stroke:#000000;stroke-width:0.8;" x="230.85" xlink:href="#mb35f9185c1" y="9"/>
      </g>
     </g>
     <g id="text_13">
      <!-- $1$ -->
      <g transform="translate(16.8 12.039375)scale(0.08 -0.08)">
       <use transform="translate(0 0.296875)" xlink:href="#STIXGeneral-Regular-1d7e3"/>
      </g>
     </g>
    </g>
    <g id="ytick_7">
     <g id="line2d_35">
      <defs>
       <path d="M 0 0 
L 1.5 0 
" id="mc025a6deee" style="stroke:#000000;stroke-width:0.6;"/>
      </defs>
      <g>
       <use style="stroke:#000000;stroke-width:0.6;" x="24.3" xlink:href="#mc025a6deee" y="138.6"/>
      </g>
     </g>
     <g id="line2d_36">
      <defs>
       <path d="M 0 0 
L -1.5 0 
" id="m28ddf035f6" style="stroke:#000000;stroke-width:0.6;"/>
      </defs>
      <g>
       <use style="stroke:#000000;stroke-width:0.6;" x="230.85" xlink:href="#m28ddf035f6" y="138.6"/>
      </g>
     </g>
    </g>
    <g id="ytick_8">
     <g id="line2d_37">
      <g>
       <use style="stroke:#000000;stroke-width:0.6;" x="24.3" xlink:href="#mc025a6deee" y="109.8"/>
      </g>
     </g>
     <g id="line2d_38">
      <g>
       <use style="stroke:#000000;stroke-width:0.6;" x="230.85" xlink:href="#m28ddf035f6" y="109.8"/>
      </g>
     </g>
    </g>
    <g id="ytick_9">
     <g id="line2d_39">
      <g>
       <use style="stroke:#000000;stroke-width:0.6;" x="24.3" xlink:href="#mc025a6deee" y="81"/>
      </g>
     </g>
     <g id="line2d_40">
      <g>
       <use style="stroke:#000000;stroke-width:0.6;" x="230.85" xlink:href="#m28ddf035f6" y="81"/>
      </g>
     </g>
    </g>
    <g id="ytick_10">
     <g id="line2d_41">
      <g>
       <use style="stroke:#000000;stroke-width:0.6;" x="24.3" xlink:href="#mc025a6deee" y="52.2"/>
      </g>
     </g>
     <g id="line2d_42">
      <g>
       <use style="stroke:#000000;stroke-width:0.6;" x="230.85" xlink:href="#m28ddf035f6" y="52.2"/>
      </g>
     </g>
    </g>
    <g id="ytick_11">
     <g id="line2d_43">
      <g>
       <use style="stroke:#000000;stroke-width:0.6;" x="24.3" xlink:href="#mc025a6deee" y="23.4"/>
      </g>
     </g>
     <g id="line2d_44">
      <g>
       <use style="stroke:#000000;stroke-width:0.6;" x="230.85" xlink:href="#m28ddf035f6" y="23.4"/>
      </g>
     </g>
    </g>
    <g id="text_14">
     <!-- $1/\beta\mu$ -->
     <defs>
      <path d="M 2.703125 -13.09375 
L 16 40.203125 
Q 18.796875 51.5 23.40625 57.90625 
Q 31.09375 68.296875 42.796875 68.296875 
Q 48.09375 68.296875 52 64.9375 
Q 55.90625 61.59375 55.90625 56.296875 
Q 55.90625 51.203125 53.203125 46.84375 
Q 50.5 42.5 45.703125 39.796875 
Q 49.09375 38.59375 51.140625 35.046875 
Q 53.203125 31.5 53.203125 27.09375 
Q 53.203125 14.59375 44.453125 6.59375 
Q 35.703125 -1.40625 25 -1.40625 
Q 18.296875 -1.40625 14.40625 2.203125 
L 10.703125 -12.59375 
Q 9.59375 -17 6.90625 -21.5 
L -1.203125 -21.5 
Q 1.59375 -17.40625 2.703125 -13.09375 
z
M 29.296875 37.5 
L 34.796875 42.90625 
Q 40.5 43.203125 44.140625 46.703125 
Q 47.796875 50.203125 47.796875 54.703125 
Q 47.796875 57.703125 45.84375 59.453125 
Q 43.90625 61.203125 40.5 61.203125 
Q 34.203125 61.203125 30.296875 55.84375 
Q 26.40625 50.5 24.59375 43.296875 
L 16.796875 11.796875 
Q 17.796875 9.09375 20.84375 7.390625 
Q 23.90625 5.703125 27.5 5.703125 
Q 34.296875 5.703125 39.640625 11.75 
Q 45 17.796875 45 25.703125 
Q 45 35.796875 28.90625 35.796875 
z
" id="STIXNonUnicode-Italic-e1d9"/>
     </defs>
     <g transform="translate(7.04 88.52)rotate(-90)scale(0.08 -0.08)">
      <use transform="translate(0 0.703125)" xlink:href="#STIXGeneral-Regular-1d7e3"/>
      <use transform="translate(49.999985 0.703125)" xlink:href="#STIXGeneral-Regular-2f"/>
      <use transform="translate(77.799973 0.703125)" xlink:href="#STIXNonUnicode-Italic-e1d9"/>
      <use transform="translate(131.299957 0.703125)" xlink:href="#STIXNonUnicode-Italic-e1e3"/>
     </g>
    </g>
   </g>
   <g id="patch_3">
    <path d="M 24.3 153 
L 24.3 9 
" style="fill:none;stroke:#000000;stroke-linecap:square;stroke-linejoin:miter;stroke-width:0.8;"/>
   </g>
   <g id="patch_4">
    <path d="M 230.85 153 
L 230.85 9 
" style="fill:none;stroke:#000000;stroke-linecap:square;stroke-linejoin:miter;stroke-width:0.8;"/>
   </g>
   <g id="patch_5">
    <path d="M 24.3 153 
L 230.85 153 
" style="fill:none;stroke:#000000;stroke-linecap:square;stroke-linejoin:miter;stroke-width:0.8;"/>
   </g>
   <g id="patch_6">
    <path d="M 24.3 9 
L 230.85 9 
" style="fill:none;stroke:#000000;stroke-linecap:square;stroke-linejoin:miter;stroke-width:0.8;"/>
   </g>
  </g>
 </g>
</svg>
