<?xml version="1.0" encoding="utf-8" standalone="no"?>
<!DOCTYPE svg PUBLIC "-//W3C//DTD SVG 1.1//EN"
  "http://www.w3.org/Graphics/SVG/1.1/DTD/svg11.dtd">
<!-- Created with matplotlib (http://matplotlib.org/) -->
<svg height="180pt" version="1.1" viewBox="0 0 243 180" width="243pt" xmlns="http://www.w3.org/2000/svg" xmlns:xlink="http://www.w3.org/1999/xlink">
 <defs>
  <style type="text/css">
*{stroke-linecap:butt;stroke-linejoin:round;}
  </style>
 </defs>
 <g id="figure_1">
  <g id="patch_1">
   <path d="M 0 180 
L 243 180 
L 243 0 
L 0 0 
z
" style="fill:#ffffff;"/>
  </g>
  <g id="axes_1">
   <g id="patch_2">
    <path d="M 31.59 153 
L 238.14 153 
L 238.14 3.6 
L 31.59 3.6 
z
" style="fill:#ffffff;"/>
   </g>
   <g id="PolyCollection_1">
    <defs>
     <path d="M 31.976127 -103.425828 
L 31.976127 -176.4 
L 34.060385 -176.4 
L 37.186593 -176.4 
L 41.563356 -176.4 
L 43.85586 -176.4 
L 47.190494 -176.4 
L 49.483178 -176.4 
L 52.40078 -176.4 
L 55.110136 -176.4 
L 57.610887 -176.4 
L 59.278114 -176.4 
L 62.195716 -176.4 
L 64.904893 -176.4 
L 67.822495 -176.4 
L 70.427279 -176.4 
L 73.240489 -176.4 
L 75.949306 -176.4 
L 76.991255 -176.4 
L 80.742381 -176.4 
L 82.409429 -176.4 
L 85.326672 -176.4 
L 86.993539 -176.4 
L 88.347948 -176.4 
L 90.952911 -176.4 
L 93.244877 -176.4 
L 94.390859 -176.4 
L 96.370366 -176.4 
L 100.537625 -176.4 
L 101.996067 -176.4 
L 103.662934 -176.4 
L 105.538048 -176.4 
L 106.892277 -176.4 
L 108.559144 -176.4 
L 109.496701 -176.4 
L 111.371815 -176.4 
L 113.038503 -176.4 
L 115.538715 -176.4 
L 117.8305 -176.4 
L 119.392975 -176.4 
L 122.934777 -176.4 
L 124.913745 -176.4 
L 127.622202 -176.4 
L 130.121875 -176.4 
L 132.309268 -176.4 
L 134.392448 -176.4 
L 136.371416 -176.4 
L 138.037744 -176.4 
L 140.225137 -176.4 
L 142.933056 -176.4 
L 145.536762 -176.4 
L 146.578172 -176.4 
L 148.244321 -176.4 
L 151.368732 -176.4 
L 153.868405 -176.4 
L 155.74298 -176.4 
L 156.992636 -176.4 
L 159.700196 -176.4 
L 161.991083 -176.4 
L 162.407575 -176.4 
L 164.490217 -176.4 
L 165.739694 -176.4 
L 168.447073 -176.4 
L 170.946207 -176.4 
L 171.779191 -176.4 
L 172.820422 -176.4 
L 174.278325 -176.4 
L 177.193591 -176.4 
L 178.234822 -176.4 
L 179.900791 -176.4 
L 183.024304 -176.4 
L 184.89834 -176.4 
L 188.126065 -176.4 
L 189.479576 -176.4 
L 190.937299 -176.4 
L 193.436073 -176.4 
L 195.726601 -176.4 
L 197.808883 -176.4 
L 200.828003 -176.4 
L 202.389759 -176.4 
L 204.680107 -176.4 
L 208.011687 -176.4 
L 210.510461 -176.4 
L 212.384317 -176.4 
L 215.299404 -176.4 
L 219.464147 -176.4 
L 221.754675 -176.4 
L 224.045203 -176.4 
L 226.543618 -176.4 
L 229.66731 -176.4 
L 232.478543 -176.4 
L 235.39399 -176.4 
L 237.163992 -176.4 
L 237.163992 -55.437517 
L 237.163992 -55.437517 
L 235.39399 -56.133 
L 232.478543 -57.214862 
L 229.66731 -58.296724 
L 226.543618 -59.455862 
L 224.045203 -60.615 
L 221.754675 -61.54231 
L 219.464147 -62.469621 
L 215.299404 -64.092414 
L 212.384317 -65.328828 
L 210.510461 -66.178862 
L 208.011687 -67.183448 
L 204.680107 -68.574414 
L 202.389759 -69.579 
L 200.828003 -70.197207 
L 197.808883 -71.510897 
L 195.726601 -72.360931 
L 193.436073 -73.288241 
L 190.937299 -74.292828 
L 189.479576 -74.833759 
L 188.126065 -75.37469 
L 184.89834 -76.611103 
L 183.024304 -77.383862 
L 179.900791 -78.620276 
L 178.234822 -79.238483 
L 177.193591 -79.624862 
L 174.278325 -80.784 
L 172.820422 -81.247655 
L 171.779191 -81.634034 
L 170.946207 -81.943138 
L 168.447073 -82.793172 
L 165.739694 -83.720483 
L 164.490217 -84.184138 
L 162.407575 -84.879621 
L 161.991083 -85.034172 
L 159.700196 -85.806931 
L 156.992636 -86.656966 
L 155.74298 -87.043345 
L 153.868405 -87.584276 
L 151.368732 -88.202483 
L 148.244321 -89.052517 
L 146.578172 -89.593448 
L 145.536762 -89.902552 
L 142.933056 -90.598034 
L 140.225137 -91.293517 
L 138.037744 -91.757172 
L 136.371416 -92.220828 
L 134.392448 -92.684483 
L 132.309268 -93.148138 
L 130.121875 -93.611793 
L 127.622202 -94.23 
L 124.913745 -94.693655 
L 122.934777 -95.15731 
L 119.392975 -95.775517 
L 117.8305 -96.084621 
L 115.538715 -96.471 
L 113.038503 -96.857379 
L 111.371815 -97.166483 
L 109.496701 -97.475586 
L 108.559144 -97.630138 
L 106.892277 -97.861966 
L 105.538048 -98.093793 
L 103.662934 -98.402897 
L 101.996067 -98.634724 
L 100.537625 -98.866552 
L 96.370366 -99.407483 
L 94.390859 -99.63931 
L 93.244877 -99.793862 
L 90.952911 -100.102966 
L 88.347948 -100.257517 
L 86.993539 -100.412069 
L 85.326672 -100.643897 
L 82.409429 -100.953 
L 80.742381 -101.107552 
L 76.991255 -101.339379 
L 75.949306 -101.416655 
L 73.240489 -101.725759 
L 70.427279 -101.957586 
L 67.822495 -102.189414 
L 64.904893 -102.343966 
L 62.195716 -102.498517 
L 59.278114 -102.653069 
L 57.610887 -102.730345 
L 55.110136 -102.884897 
L 52.40078 -102.962172 
L 49.483178 -103.116724 
L 47.190494 -103.116724 
L 43.85586 -103.194 
L 41.563356 -103.271276 
L 37.186593 -103.348552 
L 34.060385 -103.425828 
L 31.976127 -103.425828 
z
" id="m260811aabd" style="stroke:#d9ecdd;"/>
    </defs>
    <g clip-path="url(#p392edbb2f2)">
     <use style="fill:#d9ecdd;stroke:#d9ecdd;" x="0" xlink:href="#m260811aabd" y="180"/>
    </g>
   </g>
   <g id="PolyCollection_2">
    <defs>
     <path d="M 31.976127 -103.425828 
L 31.976127 -27 
L 34.060385 -27 
L 37.186593 -27 
L 41.563356 -27 
L 43.85586 -27 
L 47.190494 -27 
L 49.483178 -27 
L 52.40078 -27 
L 55.110136 -27 
L 57.610887 -27 
L 59.278114 -27 
L 62.195716 -27 
L 64.904893 -27 
L 67.822495 -27 
L 70.427279 -27 
L 73.240489 -27 
L 75.949306 -27 
L 76.991255 -27 
L 80.742381 -27 
L 82.409429 -27 
L 85.326672 -27 
L 86.993539 -27 
L 88.347948 -27 
L 90.952911 -27 
L 93.244877 -27 
L 94.390859 -27 
L 96.370366 -27 
L 100.537625 -27 
L 101.996067 -27 
L 103.662934 -27 
L 105.538048 -27 
L 106.892277 -27 
L 108.559144 -27 
L 109.496701 -27 
L 111.371815 -27 
L 113.038503 -27 
L 115.538715 -27 
L 117.8305 -27 
L 119.392975 -27 
L 122.934777 -27 
L 124.913745 -27 
L 127.622202 -27 
L 130.121875 -27 
L 132.309268 -27 
L 134.392448 -27 
L 136.371416 -27 
L 138.037744 -27 
L 140.225137 -27 
L 142.933056 -27 
L 145.536762 -27 
L 146.578172 -27 
L 148.244321 -27 
L 151.368732 -27 
L 153.868405 -27 
L 155.74298 -27 
L 156.992636 -27 
L 159.700196 -27 
L 161.991083 -27 
L 162.407575 -27 
L 164.490217 -27 
L 165.739694 -27 
L 168.447073 -27 
L 170.946207 -27 
L 171.779191 -27 
L 172.820422 -27 
L 174.278325 -27 
L 177.193591 -27 
L 178.234822 -27 
L 179.900791 -27 
L 183.024304 -27 
L 184.89834 -27 
L 188.126065 -27 
L 189.479576 -27 
L 190.937299 -27 
L 193.436073 -27 
L 195.726601 -27 
L 197.808883 -27 
L 200.828003 -27 
L 202.389759 -27 
L 204.680107 -27 
L 208.011687 -27 
L 210.510461 -27 
L 212.384317 -27 
L 215.299404 -27 
L 219.464147 -27 
L 221.754675 -27 
L 224.045203 -27 
L 226.543618 -27 
L 229.66731 -27 
L 232.478543 -27 
L 235.39399 -27 
L 237.163992 -27 
L 237.163992 -55.437517 
L 237.163992 -55.437517 
L 235.39399 -56.133 
L 232.478543 -57.214862 
L 229.66731 -58.296724 
L 226.543618 -59.455862 
L 224.045203 -60.615 
L 221.754675 -61.54231 
L 219.464147 -62.469621 
L 215.299404 -64.092414 
L 212.384317 -65.328828 
L 210.510461 -66.178862 
L 208.011687 -67.183448 
L 204.680107 -68.574414 
L 202.389759 -69.579 
L 200.828003 -70.197207 
L 197.808883 -71.510897 
L 195.726601 -72.360931 
L 193.436073 -73.288241 
L 190.937299 -74.292828 
L 189.479576 -74.833759 
L 188.126065 -75.37469 
L 184.89834 -76.611103 
L 183.024304 -77.383862 
L 179.900791 -78.620276 
L 178.234822 -79.238483 
L 177.193591 -79.624862 
L 174.278325 -80.784 
L 172.820422 -81.247655 
L 171.779191 -81.634034 
L 170.946207 -81.943138 
L 168.447073 -82.793172 
L 165.739694 -83.720483 
L 164.490217 -84.184138 
L 162.407575 -84.879621 
L 161.991083 -85.034172 
L 159.700196 -85.806931 
L 156.992636 -86.656966 
L 155.74298 -87.043345 
L 153.868405 -87.584276 
L 151.368732 -88.202483 
L 148.244321 -89.052517 
L 146.578172 -89.593448 
L 145.536762 -89.902552 
L 142.933056 -90.598034 
L 140.225137 -91.293517 
L 138.037744 -91.757172 
L 136.371416 -92.220828 
L 134.392448 -92.684483 
L 132.309268 -93.148138 
L 130.121875 -93.611793 
L 127.622202 -94.23 
L 124.913745 -94.693655 
L 122.934777 -95.15731 
L 119.392975 -95.775517 
L 117.8305 -96.084621 
L 115.538715 -96.471 
L 113.038503 -96.857379 
L 111.371815 -97.166483 
L 109.496701 -97.475586 
L 108.559144 -97.630138 
L 106.892277 -97.861966 
L 105.538048 -98.093793 
L 103.662934 -98.402897 
L 101.996067 -98.634724 
L 100.537625 -98.866552 
L 96.370366 -99.407483 
L 94.390859 -99.63931 
L 93.244877 -99.793862 
L 90.952911 -100.102966 
L 88.347948 -100.257517 
L 86.993539 -100.412069 
L 85.326672 -100.643897 
L 82.409429 -100.953 
L 80.742381 -101.107552 
L 76.991255 -101.339379 
L 75.949306 -101.416655 
L 73.240489 -101.725759 
L 70.427279 -101.957586 
L 67.822495 -102.189414 
L 64.904893 -102.343966 
L 62.195716 -102.498517 
L 59.278114 -102.653069 
L 57.610887 -102.730345 
L 55.110136 -102.884897 
L 52.40078 -102.962172 
L 49.483178 -103.116724 
L 47.190494 -103.116724 
L 43.85586 -103.194 
L 41.563356 -103.271276 
L 37.186593 -103.348552 
L 34.060385 -103.425828 
L 31.976127 -103.425828 
z
" id="ma83d95e2bd" style="stroke:#d7d7d7;"/>
    </defs>
    <g clip-path="url(#p392edbb2f2)">
     <use style="fill:#d7d7d7;stroke:#d7d7d7;" x="0" xlink:href="#ma83d95e2bd" y="180"/>
    </g>
   </g>
   <g id="PolyCollection_3">
    <defs>
     <path d="M 31.833283 -27 
L 31.833283 -86.811517 
L 31.937496 -86.811517 
L 34.855278 -86.734241 
L 39.440467 -86.656966 
L 42.149823 -86.57969 
L 45.484457 -86.502414 
L 47.985387 -86.425138 
L 52.36197 -86.270586 
L 55.488358 -86.270586 
L 57.989108 -86.116034 
L 61.531808 -85.884207 
L 64.657657 -85.652379 
L 69.03388 -85.343276 
L 73.827136 -85.111448 
L 77.369656 -84.802345 
L 81.329208 -84.570517 
L 83.933992 -84.33869 
L 88.205823 -83.95231 
L 95.082079 -83.179552 
L 101.332877 -82.329517 
L 106.958578 -81.556759 
L 112.792525 -80.706724 
L 118.001014 -79.779414 
L 121.125964 -79.161207 
L 127.376404 -78.156621 
L 133.626124 -76.842931 
L 138.000731 -75.838345 
L 141.333568 -74.98831 
L 146.124667 -73.829172 
L 149.66557 -72.824586 
L 154.45613 -71.433621 
L 159.663002 -69.810828 
L 162.162136 -68.960793 
L 167.576716 -67.028897 
L 172.366198 -65.174276 
L 175.073218 -64.092414 
L 177.779879 -62.856 
L 181.839691 -60.924103 
L 184.4416 -59.455862 
L 186.73105 -58.064897 
L 188.499076 -56.519379 
L 188.499076 -27 
L 188.499076 -27 
L 186.73105 -27 
L 184.4416 -27 
L 181.839691 -27 
L 177.779879 -27 
L 175.073218 -27 
L 172.366198 -27 
L 167.576716 -27 
L 162.162136 -27 
L 159.663002 -27 
L 154.45613 -27 
L 149.66557 -27 
L 146.124667 -27 
L 141.333568 -27 
L 138.000731 -27 
L 133.626124 -27 
L 127.376404 -27 
L 121.125964 -27 
L 118.001014 -27 
L 112.792525 -27 
L 106.958578 -27 
L 101.332877 -27 
L 95.082079 -27 
L 88.205823 -27 
L 83.933992 -27 
L 81.329208 -27 
L 77.369656 -27 
L 73.827136 -27 
L 69.03388 -27 
L 64.657657 -27 
L 61.531808 -27 
L 57.989108 -27 
L 55.488358 -27 
L 52.36197 -27 
L 47.985387 -27 
L 45.484457 -27 
L 42.149823 -27 
L 39.440467 -27 
L 34.855278 -27 
L 31.937496 -27 
L 31.833283 -27 
z
" id="m8dbe8e73b1" style="stroke:#90d8f8;"/>
    </defs>
    <g clip-path="url(#p392edbb2f2)">
     <use style="fill:#90d8f8;stroke:#90d8f8;" x="0" xlink:href="#m8dbe8e73b1" y="180"/>
    </g>
   </g>
   <g id="PolyCollection_4">
    <defs>
     <path d="M 188.706963 -27 
L 188.706963 -56.287552 
L 191.204838 -54.896586 
L 192.972864 -53.351069 
L 194.636498 -51.728276 
L 196.091346 -49.950931 
L 197.441981 -48.173586 
L 198.688044 -46.24169 
L 199.725322 -44.155241 
L 200.658747 -42.223345 
L 201.488138 -40.368724 
L 202.31663 -38.127724 
L 202.833023 -36.118552 
L 203.349596 -34.186655 
L 203.552991 -32.022931 
L 203.756206 -29.781931 
L 203.85449 -27.231828 
L 203.85449 -27 
L 203.85449 -27 
L 203.756206 -27 
L 203.552991 -27 
L 203.349596 -27 
L 202.833023 -27 
L 202.31663 -27 
L 201.488138 -27 
L 200.658747 -27 
L 199.725322 -27 
L 198.688044 -27 
L 197.441981 -27 
L 196.091346 -27 
L 194.636498 -27 
L 192.972864 -27 
L 191.204838 -27 
L 188.706963 -27 
z
" id="mede781935b" style="stroke:#90d8f8;"/>
    </defs>
    <g clip-path="url(#p392edbb2f2)">
     <use style="fill:#90d8f8;stroke:#90d8f8;" x="0" xlink:href="#mede781935b" y="180"/>
    </g>
   </g>
   <g id="matplotlib.axis_1">
    <g id="xtick_1">
     <g id="line2d_1">
      <defs>
       <path d="M 0 0 
L 0 -2.5 
" id="m7477312d12" style="stroke:#000000;stroke-width:0.8;"/>
      </defs>
      <g>
       <use style="stroke:#000000;stroke-width:0.8;" x="31.59" xlink:href="#m7477312d12" y="153"/>
      </g>
     </g>
     <g id="line2d_2">
      <defs>
       <path d="M 0 0 
L 0 2.5 
" id="m0cd7e1099e" style="stroke:#000000;stroke-width:0.8;"/>
      </defs>
      <g>
       <use style="stroke:#000000;stroke-width:0.8;" x="31.59" xlink:href="#m0cd7e1099e" y="3.6"/>
      </g>
     </g>
     <g id="text_1">
      <!-- $0$ -->
      <defs>
       <path d="M 47.703125 33 
Q 47.703125 23.796875 45.546875 16.34375 
Q 43.40625 8.90625 38.09375 3.75 
Q 32.796875 -1.40625 25 -1.40625 
Q 18.796875 -1.40625 14.25 1.6875 
Q 9.703125 4.796875 7.203125 10.046875 
Q 4.703125 15.296875 3.5 21.140625 
Q 2.296875 27 2.296875 33.59375 
Q 2.296875 42.90625 4.59375 50.34375 
Q 6.90625 57.796875 12.296875 62.6875 
Q 17.703125 67.59375 25.40625 67.59375 
Q 35.203125 67.59375 41.453125 57.9375 
Q 47.703125 48.296875 47.703125 33 
z
M 39.796875 33 
Q 39.796875 45.203125 35.75 52.84375 
Q 31.703125 60.5 25.203125 60.5 
Q 17.796875 60.5 14 52.75 
Q 10.203125 45 10.203125 33.40625 
Q 10.203125 28.203125 10.953125 23.546875 
Q 11.703125 18.90625 13.34375 14.75 
Q 15 10.59375 18 8.140625 
Q 21 5.703125 25 5.703125 
Q 30.09375 5.703125 33.546875 9.796875 
Q 37 13.90625 38.390625 19.84375 
Q 39.796875 25.796875 39.796875 33 
z
" id="STIXGeneral-Regular-1d7e2"/>
      </defs>
      <g transform="translate(29.59 162.57875)scale(0.08 -0.08)">
       <use transform="translate(0 0.40625)" xlink:href="#STIXGeneral-Regular-1d7e2"/>
      </g>
     </g>
    </g>
    <g id="xtick_2">
     <g id="line2d_3">
      <g>
       <use style="stroke:#000000;stroke-width:0.8;" x="72.9" xlink:href="#m7477312d12" y="153"/>
      </g>
     </g>
     <g id="line2d_4">
      <g>
       <use style="stroke:#000000;stroke-width:0.8;" x="72.9" xlink:href="#m0cd7e1099e" y="3.6"/>
      </g>
     </g>
     <g id="text_2">
      <!-- $0.2$ -->
      <defs>
       <path d="M 18.09375 4.296875 
Q 18.09375 2.09375 16.4375 0.5 
Q 14.796875 -1.09375 12.5 -1.09375 
Q 10.203125 -1.09375 8.59375 0.5 
Q 7 2.09375 7 4.390625 
Q 7 6.703125 8.640625 8.34375 
Q 10.296875 10 12.59375 10 
Q 14.796875 10 16.4375 8.296875 
Q 18.09375 6.59375 18.09375 4.296875 
z
" id="STIXGeneral-Regular-2e"/>
       <path d="M 46.90625 7.09375 
L 44 0 
L 3.5 0 
L 3.5 2.09375 
L 21 23.5 
L 21 23.40625 
L 26.59375 30.203125 
Q 30.5 34.90625 32.09375 36.953125 
Q 33.703125 39 35.203125 41.953125 
Q 36.703125 44.90625 36.703125 47.5 
Q 36.703125 53.703125 33.34375 57.09375 
Q 30 60.5 24.203125 60.5 
Q 19.59375 60.5 15.75 56.703125 
Q 11.90625 52.90625 10.90625 45.90625 
L 3.703125 47.59375 
Q 5.296875 56.5 11.1875 62.046875 
Q 17.09375 67.59375 24.90625 67.59375 
Q 33.59375 67.59375 39.09375 62.1875 
Q 44.59375 56.796875 44.59375 49.09375 
Q 44.59375 43.5 42.5 39.453125 
Q 40.40625 35.40625 33.703125 27 
L 17.703125 7.09375 
z
" id="STIXGeneral-Regular-1d7e4"/>
      </defs>
      <g transform="translate(67.9 162.57875)scale(0.08 -0.08)">
       <use transform="translate(0 0.40625)" xlink:href="#STIXGeneral-Regular-1d7e2"/>
       <use transform="translate(49.999985 0.40625)" xlink:href="#STIXGeneral-Regular-2e"/>
       <use transform="translate(74.999969 0.40625)" xlink:href="#STIXGeneral-Regular-1d7e4"/>
      </g>
     </g>
    </g>
    <g id="xtick_3">
     <g id="line2d_5">
      <g>
       <use style="stroke:#000000;stroke-width:0.8;" x="114.21" xlink:href="#m7477312d12" y="153"/>
      </g>
     </g>
     <g id="line2d_6">
      <g>
       <use style="stroke:#000000;stroke-width:0.8;" x="114.21" xlink:href="#m0cd7e1099e" y="3.6"/>
      </g>
     </g>
     <g id="text_3">
      <!-- $0.4$ -->
      <defs>
       <path d="M 48.90625 23.59375 
L 45.59375 16.5 
L 37.296875 16.5 
L 37.296875 0 
L 29.40625 0 
L 29.40625 16.5 
L 1.09375 16.5 
L 1.09375 23.296875 
L 32.296875 67.59375 
L 37.296875 67.59375 
L 37.296875 23.59375 
z
M 29.40625 23.59375 
L 29.40625 51 
L 10 23.59375 
z
" id="STIXGeneral-Regular-1d7e6"/>
      </defs>
      <g transform="translate(109.21 162.57875)scale(0.08 -0.08)">
       <use transform="translate(0 0.40625)" xlink:href="#STIXGeneral-Regular-1d7e2"/>
       <use transform="translate(49.999985 0.40625)" xlink:href="#STIXGeneral-Regular-2e"/>
       <use transform="translate(74.999969 0.40625)" xlink:href="#STIXGeneral-Regular-1d7e6"/>
      </g>
     </g>
    </g>
    <g id="xtick_4">
     <g id="line2d_7">
      <g>
       <use style="stroke:#000000;stroke-width:0.8;" x="155.52" xlink:href="#m7477312d12" y="153"/>
      </g>
     </g>
     <g id="line2d_8">
      <g>
       <use style="stroke:#000000;stroke-width:0.8;" x="155.52" xlink:href="#m0cd7e1099e" y="3.6"/>
      </g>
     </g>
     <g id="text_4">
      <!-- $0.6$ -->
      <defs>
       <path d="M 44.796875 66.796875 
L 43 61.5 
Q 31.59375 60.703125 23.640625 54.953125 
Q 15.703125 49.203125 12.203125 38.796875 
Q 18.09375 43.09375 25.90625 43.09375 
Q 34.5 43.09375 40.75 37.296875 
Q 47 31.5 47 22 
Q 47 12.296875 40.953125 5.4375 
Q 34.90625 -1.40625 25.703125 -1.40625 
Q 18 -1.40625 12.75 2.640625 
Q 7.5 6.703125 5.34375 12.75 
Q 3.203125 18.796875 3.203125 26.40625 
Q 3.203125 34.90625 6.203125 43.046875 
Q 9.203125 51.203125 14.296875 56.203125 
Q 21 62.796875 27.09375 65.046875 
Q 33.203125 67.296875 44.703125 68.40625 
z
M 39 20.703125 
Q 39 27.90625 34.890625 31.953125 
Q 30.796875 36 25.09375 36 
Q 19.90625 36 16 32.953125 
Q 12.09375 29.90625 11.203125 24 
Q 11.203125 15.90625 15.203125 10.796875 
Q 19.203125 5.703125 26 5.703125 
Q 31.5 5.703125 35.25 9.953125 
Q 39 14.203125 39 20.703125 
z
" id="STIXGeneral-Regular-1d7e8"/>
      </defs>
      <g transform="translate(150.52 162.57875)scale(0.08 -0.08)">
       <use transform="translate(0 0.59375)" xlink:href="#STIXGeneral-Regular-1d7e2"/>
       <use transform="translate(49.999985 0.59375)" xlink:href="#STIXGeneral-Regular-2e"/>
       <use transform="translate(74.999969 0.59375)" xlink:href="#STIXGeneral-Regular-1d7e8"/>
      </g>
     </g>
    </g>
    <g id="xtick_5">
     <g id="line2d_9">
      <g>
       <use style="stroke:#000000;stroke-width:0.8;" x="196.83" xlink:href="#m7477312d12" y="153"/>
      </g>
     </g>
     <g id="line2d_10">
      <g>
       <use style="stroke:#000000;stroke-width:0.8;" x="196.83" xlink:href="#m0cd7e1099e" y="3.6"/>
      </g>
     </g>
     <g id="text_5">
      <!-- $0.8$ -->
      <defs>
       <path d="M 44.703125 16.09375 
Q 44.703125 8.796875 39.390625 3.6875 
Q 34.09375 -1.40625 24.796875 -1.40625 
Q 16.296875 -1.40625 10.59375 3.4375 
Q 4.90625 8.296875 4.90625 15.40625 
Q 4.90625 20.796875 7.75 25.25 
Q 10.59375 29.703125 17.703125 34.5 
Q 6 41.40625 6 51.40625 
Q 6 58.59375 11.546875 63.09375 
Q 17.09375 67.59375 25.59375 67.59375 
Q 32.90625 67.59375 37.796875 62.84375 
Q 42.703125 58.09375 42.703125 52 
Q 42.703125 46.40625 40.09375 42.703125 
Q 37.5 39 31.09375 35.296875 
Q 44.703125 27 44.703125 16.09375 
z
M 35.5 51.5 
Q 35.5 55.5 32.390625 58 
Q 29.296875 60.5 24.40625 60.5 
Q 19.796875 60.5 16.84375 57.84375 
Q 13.90625 55.203125 13.90625 51.796875 
Q 13.90625 47.5 16.34375 44.84375 
Q 18.796875 42.203125 24.90625 39.40625 
Q 35.5 45.203125 35.5 51.5 
z
M 27.59375 28.59375 
L 24.09375 30.5 
Q 18.90625 28.703125 15.84375 24.640625 
Q 12.796875 20.59375 12.796875 16.296875 
Q 12.796875 11.796875 16 8.75 
Q 19.203125 5.703125 25.203125 5.703125 
Q 29.796875 5.703125 33.296875 8.453125 
Q 36.796875 11.203125 36.796875 15.796875 
Q 36.796875 20 34.6875 22.953125 
Q 32.59375 25.90625 27.59375 28.59375 
z
" id="STIXGeneral-Regular-1d7ea"/>
      </defs>
      <g transform="translate(191.83 162.57875)scale(0.08 -0.08)">
       <use transform="translate(0 0.40625)" xlink:href="#STIXGeneral-Regular-1d7e2"/>
       <use transform="translate(49.999985 0.40625)" xlink:href="#STIXGeneral-Regular-2e"/>
       <use transform="translate(74.999969 0.40625)" xlink:href="#STIXGeneral-Regular-1d7ea"/>
      </g>
     </g>
    </g>
    <g id="xtick_6">
     <g id="line2d_11">
      <g>
       <use style="stroke:#000000;stroke-width:0.8;" x="238.14" xlink:href="#m7477312d12" y="153"/>
      </g>
     </g>
     <g id="line2d_12">
      <g>
       <use style="stroke:#000000;stroke-width:0.8;" x="238.14" xlink:href="#m0cd7e1099e" y="3.6"/>
      </g>
     </g>
     <g id="text_6">
      <!-- $1$ -->
      <defs>
       <path d="M 30.203125 0 
L 22.296875 0 
L 22.296875 57 
Q 20.09375 56 15.75 53.75 
Q 11.40625 51.5 10.796875 51.203125 
L 10.796875 58.5 
L 28.796875 67.703125 
L 30.203125 67.203125 
z
" id="STIXGeneral-Regular-1d7e3"/>
      </defs>
      <g transform="translate(236.14 162.57875)scale(0.08 -0.08)">
       <use transform="translate(0 0.296875)" xlink:href="#STIXGeneral-Regular-1d7e3"/>
      </g>
     </g>
    </g>
    <g id="xtick_7">
     <g id="line2d_13">
      <defs>
       <path d="M 0 0 
L 0 -1.5 
" id="m43ecdfa0c7" style="stroke:#000000;stroke-width:0.6;"/>
      </defs>
      <g>
       <use style="stroke:#000000;stroke-width:0.6;" x="52.245" xlink:href="#m43ecdfa0c7" y="153"/>
      </g>
     </g>
     <g id="line2d_14">
      <defs>
       <path d="M 0 0 
L 0 1.5 
" id="m8191574375" style="stroke:#000000;stroke-width:0.6;"/>
      </defs>
      <g>
       <use style="stroke:#000000;stroke-width:0.6;" x="52.245" xlink:href="#m8191574375" y="3.6"/>
      </g>
     </g>
    </g>
    <g id="xtick_8">
     <g id="line2d_15">
      <g>
       <use style="stroke:#000000;stroke-width:0.6;" x="93.555" xlink:href="#m43ecdfa0c7" y="153"/>
      </g>
     </g>
     <g id="line2d_16">
      <g>
       <use style="stroke:#000000;stroke-width:0.6;" x="93.555" xlink:href="#m8191574375" y="3.6"/>
      </g>
     </g>
    </g>
    <g id="xtick_9">
     <g id="line2d_17">
      <g>
       <use style="stroke:#000000;stroke-width:0.6;" x="134.865" xlink:href="#m43ecdfa0c7" y="153"/>
      </g>
     </g>
     <g id="line2d_18">
      <g>
       <use style="stroke:#000000;stroke-width:0.6;" x="134.865" xlink:href="#m8191574375" y="3.6"/>
      </g>
     </g>
    </g>
    <g id="xtick_10">
     <g id="line2d_19">
      <g>
       <use style="stroke:#000000;stroke-width:0.6;" x="176.175" xlink:href="#m43ecdfa0c7" y="153"/>
      </g>
     </g>
     <g id="line2d_20">
      <g>
       <use style="stroke:#000000;stroke-width:0.6;" x="176.175" xlink:href="#m8191574375" y="3.6"/>
      </g>
     </g>
    </g>
    <g id="xtick_11">
     <g id="line2d_21">
      <g>
       <use style="stroke:#000000;stroke-width:0.6;" x="217.485" xlink:href="#m43ecdfa0c7" y="153"/>
      </g>
     </g>
     <g id="line2d_22">
      <g>
       <use style="stroke:#000000;stroke-width:0.6;" x="217.485" xlink:href="#m8191574375" y="3.6"/>
      </g>
     </g>
    </g>
    <g id="text_7">
     <!-- $h/\mu$ -->
     <defs>
      <path d="M 31.09375 67.90625 
L 24.203125 40.5 
Q 28.59375 44 32.25 45.140625 
Q 35.90625 46.296875 40.5 46.296875 
Q 45.40625 46.296875 48.203125 43.796875 
Q 51 41.296875 51 36.59375 
Q 51 34.5 50.40625 32.09375 
L 42.40625 0 
L 34.5 0 
L 42 30.40625 
Q 42.5 32.59375 42.5 33.796875 
Q 42.5 39.203125 36 39.203125 
Q 33.09375 39.203125 28.640625 36.703125 
Q 24.203125 34.203125 21.703125 30.203125 
L 14.203125 0 
L 6.296875 0 
L 22.703125 66 
L 30.296875 68.40625 
z
" id="STIXGeneral-Italic-1d629"/>
      <path d="M 28.703125 67.59375 
L 5.90625 -1.40625 
L -0.90625 -1.40625 
L 22 67.59375 
z
" id="STIXGeneral-Regular-2f"/>
      <path d="M 53.59375 45.296875 
L 45.5 12.796875 
Q 45 11 45 9.703125 
Q 45 6.09375 49.703125 6.09375 
L 49.296875 4.703125 
L 45.59375 -1 
Q 39.40625 -1 37.5 2.09375 
Q 36.59375 3.5 36.59375 6.40625 
L 21.59375 -1 
Q 16 -1 14.09375 1.5 
L 10.59375 -12.59375 
Q 9.296875 -17.90625 6.796875 -21.5 
L -0.90625 -21.5 
Q 2 -17 3.09375 -12.703125 
L 17.5 45.296875 
L 25.40625 45.296875 
L 17.90625 14.90625 
Q 17.40625 12.703125 17.40625 11.40625 
Q 17.40625 6.09375 23.90625 6.09375 
Q 26.703125 6.09375 31.34375 9.046875 
Q 36 12 38.5 16.09375 
L 45.703125 45.296875 
z
" id="STIXNonUnicode-Italic-e1e3"/>
     </defs>
     <g transform="translate(129.545 174.225)scale(0.08 -0.08)">
      <use transform="translate(0 0.59375)" xlink:href="#STIXGeneral-Italic-1d629"/>
      <use transform="translate(48.699997 0.59375)" xlink:href="#STIXGeneral-Regular-2f"/>
      <use transform="translate(76.499985 0.59375)" xlink:href="#STIXNonUnicode-Italic-e1e3"/>
     </g>
    </g>
   </g>
   <g id="matplotlib.axis_2">
    <g id="ytick_1">
     <g id="line2d_23">
      <defs>
       <path d="M 0 0 
L 2.5 0 
" id="mf98e2f22b7" style="stroke:#000000;stroke-width:0.8;"/>
      </defs>
      <g>
       <use style="stroke:#000000;stroke-width:0.8;" x="31.59" xlink:href="#mf98e2f22b7" y="153"/>
      </g>
     </g>
     <g id="line2d_24">
      <defs>
       <path d="M 0 0 
L -2.5 0 
" id="m0057e6f163" style="stroke:#000000;stroke-width:0.8;"/>
      </defs>
      <g>
       <use style="stroke:#000000;stroke-width:0.8;" x="238.14" xlink:href="#m0057e6f163" y="153"/>
      </g>
     </g>
     <g id="text_8">
      <!-- $0$ -->
      <g transform="translate(24.09 156.039375)scale(0.08 -0.08)">
       <use transform="translate(0 0.40625)" xlink:href="#STIXGeneral-Regular-1d7e2"/>
      </g>
     </g>
    </g>
    <g id="ytick_2">
     <g id="line2d_25">
      <g>
       <use style="stroke:#000000;stroke-width:0.8;" x="31.59" xlink:href="#mf98e2f22b7" y="123.12"/>
      </g>
     </g>
     <g id="line2d_26">
      <g>
       <use style="stroke:#000000;stroke-width:0.8;" x="238.14" xlink:href="#m0057e6f163" y="123.12"/>
      </g>
     </g>
     <g id="text_9">
      <!-- $0.2$ -->
      <g transform="translate(18.09 126.159375)scale(0.08 -0.08)">
       <use transform="translate(0 0.40625)" xlink:href="#STIXGeneral-Regular-1d7e2"/>
       <use transform="translate(49.999985 0.40625)" xlink:href="#STIXGeneral-Regular-2e"/>
       <use transform="translate(74.999969 0.40625)" xlink:href="#STIXGeneral-Regular-1d7e4"/>
      </g>
     </g>
    </g>
    <g id="ytick_3">
     <g id="line2d_27">
      <g>
       <use style="stroke:#000000;stroke-width:0.8;" x="31.59" xlink:href="#mf98e2f22b7" y="93.24"/>
      </g>
     </g>
     <g id="line2d_28">
      <g>
       <use style="stroke:#000000;stroke-width:0.8;" x="238.14" xlink:href="#m0057e6f163" y="93.24"/>
      </g>
     </g>
     <g id="text_10">
      <!-- $0.4$ -->
      <g transform="translate(18.09 96.279375)scale(0.08 -0.08)">
       <use transform="translate(0 0.40625)" xlink:href="#STIXGeneral-Regular-1d7e2"/>
       <use transform="translate(49.999985 0.40625)" xlink:href="#STIXGeneral-Regular-2e"/>
       <use transform="translate(74.999969 0.40625)" xlink:href="#STIXGeneral-Regular-1d7e6"/>
      </g>
     </g>
    </g>
    <g id="ytick_4">
     <g id="line2d_29">
      <g>
       <use style="stroke:#000000;stroke-width:0.8;" x="31.59" xlink:href="#mf98e2f22b7" y="63.36"/>
      </g>
     </g>
     <g id="line2d_30">
      <g>
       <use style="stroke:#000000;stroke-width:0.8;" x="238.14" xlink:href="#m0057e6f163" y="63.36"/>
      </g>
     </g>
     <g id="text_11">
      <!-- $0.6$ -->
      <g transform="translate(18.09 66.399375)scale(0.08 -0.08)">
       <use transform="translate(0 0.59375)" xlink:href="#STIXGeneral-Regular-1d7e2"/>
       <use transform="translate(49.999985 0.59375)" xlink:href="#STIXGeneral-Regular-2e"/>
       <use transform="translate(74.999969 0.59375)" xlink:href="#STIXGeneral-Regular-1d7e8"/>
      </g>
     </g>
    </g>
    <g id="ytick_5">
     <g id="line2d_31">
      <g>
       <use style="stroke:#000000;stroke-width:0.8;" x="31.59" xlink:href="#mf98e2f22b7" y="33.48"/>
      </g>
     </g>
     <g id="line2d_32">
      <g>
       <use style="stroke:#000000;stroke-width:0.8;" x="238.14" xlink:href="#m0057e6f163" y="33.48"/>
      </g>
     </g>
     <g id="text_12">
      <!-- $0.8$ -->
      <g transform="translate(18.09 36.519375)scale(0.08 -0.08)">
       <use transform="translate(0 0.40625)" xlink:href="#STIXGeneral-Regular-1d7e2"/>
       <use transform="translate(49.999985 0.40625)" xlink:href="#STIXGeneral-Regular-2e"/>
       <use transform="translate(74.999969 0.40625)" xlink:href="#STIXGeneral-Regular-1d7ea"/>
      </g>
     </g>
    </g>
    <g id="ytick_6">
     <g id="line2d_33">
      <g>
       <use style="stroke:#000000;stroke-width:0.8;" x="31.59" xlink:href="#mf98e2f22b7" y="3.6"/>
      </g>
     </g>
     <g id="line2d_34">
      <g>
       <use style="stroke:#000000;stroke-width:0.8;" x="238.14" xlink:href="#m0057e6f163" y="3.6"/>
      </g>
     </g>
     <g id="text_13">
      <!-- $1$ -->
      <g transform="translate(24.09 6.639375)scale(0.08 -0.08)">
       <use transform="translate(0 0.296875)" xlink:href="#STIXGeneral-Regular-1d7e3"/>
      </g>
     </g>
    </g>
    <g id="ytick_7">
     <g id="line2d_35">
      <defs>
       <path d="M 0 0 
L 1.5 0 
" id="m972f857ff6" style="stroke:#000000;stroke-width:0.6;"/>
      </defs>
      <g>
       <use style="stroke:#000000;stroke-width:0.6;" x="31.59" xlink:href="#m972f857ff6" y="138.06"/>
      </g>
     </g>
     <g id="line2d_36">
      <defs>
       <path d="M 0 0 
L -1.5 0 
" id="ma678fc23d2" style="stroke:#000000;stroke-width:0.6;"/>
      </defs>
      <g>
       <use style="stroke:#000000;stroke-width:0.6;" x="238.14" xlink:href="#ma678fc23d2" y="138.06"/>
      </g>
     </g>
    </g>
    <g id="ytick_8">
     <g id="line2d_37">
      <g>
       <use style="stroke:#000000;stroke-width:0.6;" x="31.59" xlink:href="#m972f857ff6" y="108.18"/>
      </g>
     </g>
     <g id="line2d_38">
      <g>
       <use style="stroke:#000000;stroke-width:0.6;" x="238.14" xlink:href="#ma678fc23d2" y="108.18"/>
      </g>
     </g>
    </g>
    <g id="ytick_9">
     <g id="line2d_39">
      <g>
       <use style="stroke:#000000;stroke-width:0.6;" x="31.59" xlink:href="#m972f857ff6" y="78.3"/>
      </g>
     </g>
     <g id="line2d_40">
      <g>
       <use style="stroke:#000000;stroke-width:0.6;" x="238.14" xlink:href="#ma678fc23d2" y="78.3"/>
      </g>
     </g>
    </g>
    <g id="ytick_10">
     <g id="line2d_41">
      <g>
       <use style="stroke:#000000;stroke-width:0.6;" x="31.59" xlink:href="#m972f857ff6" y="48.42"/>
      </g>
     </g>
     <g id="line2d_42">
      <g>
       <use style="stroke:#000000;stroke-width:0.6;" x="238.14" xlink:href="#ma678fc23d2" y="48.42"/>
      </g>
     </g>
    </g>
    <g id="ytick_11">
     <g id="line2d_43">
      <g>
       <use style="stroke:#000000;stroke-width:0.6;" x="31.59" xlink:href="#m972f857ff6" y="18.54"/>
      </g>
     </g>
     <g id="line2d_44">
      <g>
       <use style="stroke:#000000;stroke-width:0.6;" x="238.14" xlink:href="#ma678fc23d2" y="18.54"/>
      </g>
     </g>
    </g>
    <g id="text_14">
     <!-- $T/\mu$ -->
     <defs>
      <path d="M 74.796875 66.203125 
L 73.90625 58.796875 
L 49.40625 58.796875 
L 34.703125 0 
L 26 0 
L 40.59375 58.796875 
L 16.09375 58.796875 
L 19 66.203125 
z
" id="STIXGeneral-Italic-1d61b"/>
     </defs>
     <g transform="translate(12.33 84.1)rotate(-90)scale(0.08 -0.08)">
      <use transform="translate(0 0.40625)" xlink:href="#STIXGeneral-Italic-1d61b"/>
      <use transform="translate(60.799988 0.40625)" xlink:href="#STIXGeneral-Regular-2f"/>
      <use transform="translate(88.599976 0.40625)" xlink:href="#STIXNonUnicode-Italic-e1e3"/>
     </g>
    </g>
   </g>
   <g id="line2d_45">
    <path clip-path="url(#p392edbb2f2)" d="M 31.976127 76.574172 
L 34.060385 76.574172 
L 37.186593 76.651448 
L 41.563356 76.728724 
L 43.85586 76.806 
L 47.190494 76.883276 
L 49.483178 76.883276 
L 52.40078 77.037828 
L 55.110136 77.115103 
L 57.610887 77.269655 
L 59.278114 77.346931 
L 62.195716 77.501483 
L 64.904893 77.656034 
L 67.822495 77.810586 
L 70.427279 78.042414 
L 73.240489 78.274241 
L 75.949306 78.583345 
L 76.991255 78.660621 
L 80.742381 78.892448 
L 82.409429 79.047 
L 85.326672 79.356103 
L 86.993539 79.587931 
L 88.347948 79.742483 
L 90.952911 79.897034 
L 93.244877 80.206138 
L 94.390859 80.36069 
L 96.370366 80.592517 
L 100.537625 81.133448 
L 101.996067 81.365276 
L 103.662934 81.597103 
L 105.538048 81.906207 
L 106.892277 82.138034 
L 108.559144 82.369862 
L 109.496701 82.524414 
L 111.371815 82.833517 
L 113.038503 83.142621 
L 115.538715 83.529 
L 117.8305 83.915379 
L 119.392975 84.224483 
L 122.934777 84.84269 
L 124.913745 85.306345 
L 127.622202 85.77 
L 130.121875 86.388207 
L 132.309268 86.851862 
L 134.392448 87.315517 
L 136.371416 87.779172 
L 138.037744 88.242828 
L 140.225137 88.706483 
L 142.933056 89.401966 
L 145.536762 90.097448 
L 146.578172 90.406552 
L 148.244321 90.947483 
L 151.368732 91.797517 
L 153.868405 92.415724 
L 155.74298 92.956655 
L 156.992636 93.343034 
L 159.700196 94.193069 
L 161.991083 94.965828 
L 162.407575 95.120379 
L 164.490217 95.815862 
L 165.739694 96.279517 
L 168.447073 97.206828 
L 170.946207 98.056862 
L 171.779191 98.365966 
L 172.820422 98.752345 
L 174.278325 99.216 
L 177.193591 100.375138 
L 178.234822 100.761517 
L 179.900791 101.379724 
L 183.024304 102.616138 
L 184.89834 103.388897 
L 188.126065 104.62531 
L 189.479576 105.166241 
L 190.937299 105.707172 
L 193.436073 106.711759 
L 195.726601 107.639069 
L 197.808883 108.489103 
L 200.828003 109.802793 
L 202.389759 110.421 
L 204.680107 111.425586 
L 208.011687 112.816552 
L 210.510461 113.821138 
L 212.384317 114.671172 
L 215.299404 115.907586 
L 219.464147 117.530379 
L 221.754675 118.45769 
L 224.045203 119.385 
L 226.543618 120.544138 
L 229.66731 121.703276 
L 232.478543 122.785138 
L 235.39399 123.867 
L 237.163992 124.562483 
" style="fill:none;stroke:#000000;stroke-dasharray:1,1.65;stroke-dashoffset:0;"/>
   </g>
   <g id="line2d_46">
    <path clip-path="url(#p392edbb2f2)" d="M 31.833283 93.188483 
L 31.937496 93.188483 
L 34.855278 93.265759 
L 39.440467 93.343034 
L 42.149823 93.42031 
L 45.484457 93.497586 
L 47.985387 93.574862 
L 52.36197 93.729414 
L 55.488358 93.729414 
L 57.989108 93.883966 
L 61.531808 94.115793 
L 64.657657 94.347621 
L 69.03388 94.656724 
L 73.827136 94.888552 
L 77.369656 95.197655 
L 81.329208 95.429483 
L 83.933992 95.66131 
L 88.205823 96.04769 
L 95.082079 96.820448 
L 101.332877 97.670483 
L 106.958578 98.443241 
L 112.792525 99.293276 
L 118.001014 100.220586 
L 121.125964 100.838793 
L 127.376404 101.843379 
L 133.626124 103.157069 
L 138.000731 104.161655 
L 141.333568 105.01169 
L 146.124667 106.170828 
L 149.66557 107.175414 
L 154.45613 108.566379 
L 159.663002 110.189172 
L 162.162136 111.039207 
L 167.576716 112.971103 
L 172.366198 114.825724 
L 175.073218 115.907586 
L 177.779879 117.144 
L 181.839691 119.075897 
L 184.4416 120.544138 
L 186.73105 121.935103 
L 188.499076 123.480621 
" style="fill:none;stroke:#000000;stroke-linecap:square;"/>
   </g>
   <g id="line2d_47">
    <path clip-path="url(#p392edbb2f2)" d="M 188.706963 123.712448 
L 191.204838 125.103414 
L 192.972864 126.648931 
L 194.636498 128.271724 
L 196.091346 130.049069 
L 197.441981 131.826414 
L 198.688044 133.75831 
L 199.725322 135.844759 
L 200.658747 137.776655 
L 201.488138 139.631276 
L 202.31663 141.872276 
L 202.833023 143.881448 
L 203.349596 145.813345 
L 203.552991 147.977069 
L 203.756206 150.218069 
L 203.85449 152.768172 
" style="fill:none;stroke:#808080;stroke-dasharray:3.7,1.6;stroke-dashoffset:0;"/>
   </g>
   <g id="patch_3">
    <path d="M 31.59 153 
L 31.59 3.6 
" style="fill:none;stroke:#000000;stroke-linecap:square;stroke-linejoin:miter;stroke-width:0.8;"/>
   </g>
   <g id="patch_4">
    <path d="M 238.14 153 
L 238.14 3.6 
" style="fill:none;stroke:#000000;stroke-linecap:square;stroke-linejoin:miter;stroke-width:0.8;"/>
   </g>
   <g id="patch_5">
    <path d="M 31.59 153 
L 238.14 153 
" style="fill:none;stroke:#000000;stroke-linecap:square;stroke-linejoin:miter;stroke-width:0.8;"/>
   </g>
   <g id="patch_6">
    <path d="M 31.59 3.6 
L 238.14 3.6 
" style="fill:none;stroke:#000000;stroke-linecap:square;stroke-linejoin:miter;stroke-width:0.8;"/>
   </g>
   <g id="line2d_48">
    <defs>
     <path d="M 0 2 
C 0.530406 2 1.03916 1.789267 1.414214 1.414214 
C 1.789267 1.03916 2 0.530406 2 0 
C 2 -0.530406 1.789267 -1.03916 1.414214 -1.414214 
C 1.03916 -1.789267 0.530406 -2 0 -2 
C -0.530406 -2 -1.03916 -1.789267 -1.414214 -1.414214 
C -1.789267 -1.03916 -2 -0.530406 -2 0 
C -2 0.530406 -1.789267 1.03916 -1.414214 1.414214 
C -1.03916 1.789267 -0.530406 2 0 2 
z
" id="mbabf22accb" style="stroke:#000000;stroke-width:0.75;"/>
    </defs>
    <g clip-path="url(#p392edbb2f2)">
     <use style="fill:#666666;stroke:#000000;stroke-width:0.75;" x="188.499076" xlink:href="#mbabf22accb" y="123.480621"/>
    </g>
   </g>
  </g>
  <g id="text_15">
   <!-- normal -->
   <defs>
    <path d="M 54.890625 33.015625 
L 54.890625 0 
L 45.90625 0 
L 45.90625 32.71875 
Q 45.90625 40.484375 42.875 44.328125 
Q 39.84375 48.1875 33.796875 48.1875 
Q 26.515625 48.1875 22.3125 43.546875 
Q 18.109375 38.921875 18.109375 30.90625 
L 18.109375 0 
L 9.078125 0 
L 9.078125 54.6875 
L 18.109375 54.6875 
L 18.109375 46.1875 
Q 21.34375 51.125 25.703125 53.5625 
Q 30.078125 56 35.796875 56 
Q 45.21875 56 50.046875 50.171875 
Q 54.890625 44.34375 54.890625 33.015625 
z
" id="DejaVuSans-6e"/>
    <path d="M 30.609375 48.390625 
Q 23.390625 48.390625 19.1875 42.75 
Q 14.984375 37.109375 14.984375 27.296875 
Q 14.984375 17.484375 19.15625 11.84375 
Q 23.34375 6.203125 30.609375 6.203125 
Q 37.796875 6.203125 41.984375 11.859375 
Q 46.1875 17.53125 46.1875 27.296875 
Q 46.1875 37.015625 41.984375 42.703125 
Q 37.796875 48.390625 30.609375 48.390625 
z
M 30.609375 56 
Q 42.328125 56 49.015625 48.375 
Q 55.71875 40.765625 55.71875 27.296875 
Q 55.71875 13.875 49.015625 6.21875 
Q 42.328125 -1.421875 30.609375 -1.421875 
Q 18.84375 -1.421875 12.171875 6.21875 
Q 5.515625 13.875 5.515625 27.296875 
Q 5.515625 40.765625 12.171875 48.375 
Q 18.84375 56 30.609375 56 
z
" id="DejaVuSans-6f"/>
    <path d="M 41.109375 46.296875 
Q 39.59375 47.171875 37.8125 47.578125 
Q 36.03125 48 33.890625 48 
Q 26.265625 48 22.1875 43.046875 
Q 18.109375 38.09375 18.109375 28.8125 
L 18.109375 0 
L 9.078125 0 
L 9.078125 54.6875 
L 18.109375 54.6875 
L 18.109375 46.1875 
Q 20.953125 51.171875 25.484375 53.578125 
Q 30.03125 56 36.53125 56 
Q 37.453125 56 38.578125 55.875 
Q 39.703125 55.765625 41.0625 55.515625 
z
" id="DejaVuSans-72"/>
    <path d="M 52 44.1875 
Q 55.375 50.25 60.0625 53.125 
Q 64.75 56 71.09375 56 
Q 79.640625 56 84.28125 50.015625 
Q 88.921875 44.046875 88.921875 33.015625 
L 88.921875 0 
L 79.890625 0 
L 79.890625 32.71875 
Q 79.890625 40.578125 77.09375 44.375 
Q 74.3125 48.1875 68.609375 48.1875 
Q 61.625 48.1875 57.5625 43.546875 
Q 53.515625 38.921875 53.515625 30.90625 
L 53.515625 0 
L 44.484375 0 
L 44.484375 32.71875 
Q 44.484375 40.625 41.703125 44.40625 
Q 38.921875 48.1875 33.109375 48.1875 
Q 26.21875 48.1875 22.15625 43.53125 
Q 18.109375 38.875 18.109375 30.90625 
L 18.109375 0 
L 9.078125 0 
L 9.078125 54.6875 
L 18.109375 54.6875 
L 18.109375 46.1875 
Q 21.1875 51.21875 25.484375 53.609375 
Q 29.78125 56 35.6875 56 
Q 41.65625 56 45.828125 52.96875 
Q 50 49.953125 52 44.1875 
z
" id="DejaVuSans-6d"/>
    <path d="M 34.28125 27.484375 
Q 23.390625 27.484375 19.1875 25 
Q 14.984375 22.515625 14.984375 16.5 
Q 14.984375 11.71875 18.140625 8.90625 
Q 21.296875 6.109375 26.703125 6.109375 
Q 34.1875 6.109375 38.703125 11.40625 
Q 43.21875 16.703125 43.21875 25.484375 
L 43.21875 27.484375 
z
M 52.203125 31.203125 
L 52.203125 0 
L 43.21875 0 
L 43.21875 8.296875 
Q 40.140625 3.328125 35.546875 0.953125 
Q 30.953125 -1.421875 24.3125 -1.421875 
Q 15.921875 -1.421875 10.953125 3.296875 
Q 6 8.015625 6 15.921875 
Q 6 25.140625 12.171875 29.828125 
Q 18.359375 34.515625 30.609375 34.515625 
L 43.21875 34.515625 
L 43.21875 35.40625 
Q 43.21875 41.609375 39.140625 45 
Q 35.0625 48.390625 27.6875 48.390625 
Q 23 48.390625 18.546875 47.265625 
Q 14.109375 46.140625 10.015625 43.890625 
L 10.015625 52.203125 
Q 14.9375 54.109375 19.578125 55.046875 
Q 24.21875 56 28.609375 56 
Q 40.484375 56 46.34375 49.84375 
Q 52.203125 43.703125 52.203125 31.203125 
z
" id="DejaVuSans-61"/>
    <path d="M 9.421875 75.984375 
L 18.40625 75.984375 
L 18.40625 0 
L 9.421875 0 
z
" id="DejaVuSans-6c"/>
   </defs>
   <g style="fill:#4a5b1c;" transform="translate(194.4 27)scale(0.08 -0.08)">
    <use xlink:href="#DejaVuSans-6e"/>
    <use x="63.378906" xlink:href="#DejaVuSans-6f"/>
    <use x="124.560547" xlink:href="#DejaVuSans-72"/>
    <use x="165.658203" xlink:href="#DejaVuSans-6d"/>
    <use x="263.070312" xlink:href="#DejaVuSans-61"/>
    <use x="324.349609" xlink:href="#DejaVuSans-6c"/>
   </g>
  </g>
  <g id="text_16">
   <!-- superfluid -->
   <defs>
    <path d="M 44.28125 53.078125 
L 44.28125 44.578125 
Q 40.484375 46.53125 36.375 47.5 
Q 32.28125 48.484375 27.875 48.484375 
Q 21.1875 48.484375 17.84375 46.4375 
Q 14.5 44.390625 14.5 40.28125 
Q 14.5 37.15625 16.890625 35.375 
Q 19.28125 33.59375 26.515625 31.984375 
L 29.59375 31.296875 
Q 39.15625 29.25 43.1875 25.515625 
Q 47.21875 21.78125 47.21875 15.09375 
Q 47.21875 7.46875 41.1875 3.015625 
Q 35.15625 -1.421875 24.609375 -1.421875 
Q 20.21875 -1.421875 15.453125 -0.5625 
Q 10.6875 0.296875 5.421875 2 
L 5.421875 11.28125 
Q 10.40625 8.6875 15.234375 7.390625 
Q 20.0625 6.109375 24.8125 6.109375 
Q 31.15625 6.109375 34.5625 8.28125 
Q 37.984375 10.453125 37.984375 14.40625 
Q 37.984375 18.0625 35.515625 20.015625 
Q 33.0625 21.96875 24.703125 23.78125 
L 21.578125 24.515625 
Q 13.234375 26.265625 9.515625 29.90625 
Q 5.8125 33.546875 5.8125 39.890625 
Q 5.8125 47.609375 11.28125 51.796875 
Q 16.75 56 26.8125 56 
Q 31.78125 56 36.171875 55.265625 
Q 40.578125 54.546875 44.28125 53.078125 
z
" id="DejaVuSans-73"/>
    <path d="M 8.5 21.578125 
L 8.5 54.6875 
L 17.484375 54.6875 
L 17.484375 21.921875 
Q 17.484375 14.15625 20.5 10.265625 
Q 23.53125 6.390625 29.59375 6.390625 
Q 36.859375 6.390625 41.078125 11.03125 
Q 45.3125 15.671875 45.3125 23.6875 
L 45.3125 54.6875 
L 54.296875 54.6875 
L 54.296875 0 
L 45.3125 0 
L 45.3125 8.40625 
Q 42.046875 3.421875 37.71875 1 
Q 33.40625 -1.421875 27.6875 -1.421875 
Q 18.265625 -1.421875 13.375 4.4375 
Q 8.5 10.296875 8.5 21.578125 
z
M 31.109375 56 
z
" id="DejaVuSans-75"/>
    <path d="M 18.109375 8.203125 
L 18.109375 -20.796875 
L 9.078125 -20.796875 
L 9.078125 54.6875 
L 18.109375 54.6875 
L 18.109375 46.390625 
Q 20.953125 51.265625 25.265625 53.625 
Q 29.59375 56 35.59375 56 
Q 45.5625 56 51.78125 48.09375 
Q 58.015625 40.1875 58.015625 27.296875 
Q 58.015625 14.40625 51.78125 6.484375 
Q 45.5625 -1.421875 35.59375 -1.421875 
Q 29.59375 -1.421875 25.265625 0.953125 
Q 20.953125 3.328125 18.109375 8.203125 
z
M 48.6875 27.296875 
Q 48.6875 37.203125 44.609375 42.84375 
Q 40.53125 48.484375 33.40625 48.484375 
Q 26.265625 48.484375 22.1875 42.84375 
Q 18.109375 37.203125 18.109375 27.296875 
Q 18.109375 17.390625 22.1875 11.75 
Q 26.265625 6.109375 33.40625 6.109375 
Q 40.53125 6.109375 44.609375 11.75 
Q 48.6875 17.390625 48.6875 27.296875 
z
" id="DejaVuSans-70"/>
    <path d="M 56.203125 29.59375 
L 56.203125 25.203125 
L 14.890625 25.203125 
Q 15.484375 15.921875 20.484375 11.0625 
Q 25.484375 6.203125 34.421875 6.203125 
Q 39.59375 6.203125 44.453125 7.46875 
Q 49.3125 8.734375 54.109375 11.28125 
L 54.109375 2.78125 
Q 49.265625 0.734375 44.1875 -0.34375 
Q 39.109375 -1.421875 33.890625 -1.421875 
Q 20.796875 -1.421875 13.15625 6.1875 
Q 5.515625 13.8125 5.515625 26.8125 
Q 5.515625 40.234375 12.765625 48.109375 
Q 20.015625 56 32.328125 56 
Q 43.359375 56 49.78125 48.890625 
Q 56.203125 41.796875 56.203125 29.59375 
z
M 47.21875 32.234375 
Q 47.125 39.59375 43.09375 43.984375 
Q 39.0625 48.390625 32.421875 48.390625 
Q 24.90625 48.390625 20.390625 44.140625 
Q 15.875 39.890625 15.1875 32.171875 
z
" id="DejaVuSans-65"/>
    <path d="M 37.109375 75.984375 
L 37.109375 68.5 
L 28.515625 68.5 
Q 23.6875 68.5 21.796875 66.546875 
Q 19.921875 64.59375 19.921875 59.515625 
L 19.921875 54.6875 
L 34.71875 54.6875 
L 34.71875 47.703125 
L 19.921875 47.703125 
L 19.921875 0 
L 10.890625 0 
L 10.890625 47.703125 
L 2.296875 47.703125 
L 2.296875 54.6875 
L 10.890625 54.6875 
L 10.890625 58.5 
Q 10.890625 67.625 15.140625 71.796875 
Q 19.390625 75.984375 28.609375 75.984375 
z
" id="DejaVuSans-66"/>
    <path d="M 9.421875 54.6875 
L 18.40625 54.6875 
L 18.40625 0 
L 9.421875 0 
z
M 9.421875 75.984375 
L 18.40625 75.984375 
L 18.40625 64.59375 
L 9.421875 64.59375 
z
" id="DejaVuSans-69"/>
    <path d="M 45.40625 46.390625 
L 45.40625 75.984375 
L 54.390625 75.984375 
L 54.390625 0 
L 45.40625 0 
L 45.40625 8.203125 
Q 42.578125 3.328125 38.25 0.953125 
Q 33.9375 -1.421875 27.875 -1.421875 
Q 17.96875 -1.421875 11.734375 6.484375 
Q 5.515625 14.40625 5.515625 27.296875 
Q 5.515625 40.1875 11.734375 48.09375 
Q 17.96875 56 27.875 56 
Q 33.9375 56 38.25 53.625 
Q 42.578125 51.265625 45.40625 46.390625 
z
M 14.796875 27.296875 
Q 14.796875 17.390625 18.875 11.75 
Q 22.953125 6.109375 30.078125 6.109375 
Q 37.203125 6.109375 41.296875 11.75 
Q 45.40625 17.390625 45.40625 27.296875 
Q 45.40625 37.203125 41.296875 42.84375 
Q 37.203125 48.484375 30.078125 48.484375 
Q 22.953125 48.484375 18.875 42.84375 
Q 14.796875 37.203125 14.796875 27.296875 
z
" id="DejaVuSans-64"/>
   </defs>
   <g style="fill:#272473;" transform="translate(48.6 136.8)scale(0.08 -0.08)">
    <use xlink:href="#DejaVuSans-73"/>
    <use x="52.099609" xlink:href="#DejaVuSans-75"/>
    <use x="115.478516" xlink:href="#DejaVuSans-70"/>
    <use x="178.955078" xlink:href="#DejaVuSans-65"/>
    <use x="240.478516" xlink:href="#DejaVuSans-72"/>
    <use x="281.591797" xlink:href="#DejaVuSans-66"/>
    <use x="316.796875" xlink:href="#DejaVuSans-6c"/>
    <use x="344.580078" xlink:href="#DejaVuSans-75"/>
    <use x="407.958984" xlink:href="#DejaVuSans-69"/>
    <use x="435.742188" xlink:href="#DejaVuSans-64"/>
   </g>
  </g>
  <g id="text_17">
   <!-- pseudogap? -->
   <defs>
    <path d="M 45.40625 27.984375 
Q 45.40625 37.75 41.375 43.109375 
Q 37.359375 48.484375 30.078125 48.484375 
Q 22.859375 48.484375 18.828125 43.109375 
Q 14.796875 37.75 14.796875 27.984375 
Q 14.796875 18.265625 18.828125 12.890625 
Q 22.859375 7.515625 30.078125 7.515625 
Q 37.359375 7.515625 41.375 12.890625 
Q 45.40625 18.265625 45.40625 27.984375 
z
M 54.390625 6.78125 
Q 54.390625 -7.171875 48.1875 -13.984375 
Q 42 -20.796875 29.203125 -20.796875 
Q 24.46875 -20.796875 20.265625 -20.09375 
Q 16.0625 -19.390625 12.109375 -17.921875 
L 12.109375 -9.1875 
Q 16.0625 -11.328125 19.921875 -12.34375 
Q 23.78125 -13.375 27.78125 -13.375 
Q 36.625 -13.375 41.015625 -8.765625 
Q 45.40625 -4.15625 45.40625 5.171875 
L 45.40625 9.625 
Q 42.625 4.78125 38.28125 2.390625 
Q 33.9375 0 27.875 0 
Q 17.828125 0 11.671875 7.65625 
Q 5.515625 15.328125 5.515625 27.984375 
Q 5.515625 40.671875 11.671875 48.328125 
Q 17.828125 56 27.875 56 
Q 33.9375 56 38.28125 53.609375 
Q 42.625 51.21875 45.40625 46.390625 
L 45.40625 54.6875 
L 54.390625 54.6875 
z
" id="DejaVuSans-67"/>
    <path d="M 19.09375 12.40625 
L 29 12.40625 
L 29 0 
L 19.09375 0 
z
M 28.71875 19.578125 
L 19.390625 19.578125 
L 19.390625 27.09375 
Q 19.390625 32.03125 20.75 35.203125 
Q 22.125 38.375 26.515625 42.578125 
L 30.90625 46.921875 
Q 33.6875 49.515625 34.9375 51.8125 
Q 36.1875 54.109375 36.1875 56.5 
Q 36.1875 60.84375 32.984375 63.53125 
Q 29.78125 66.21875 24.515625 66.21875 
Q 20.65625 66.21875 16.28125 64.5 
Q 11.921875 62.796875 7.171875 59.515625 
L 7.171875 68.703125 
Q 11.765625 71.484375 16.46875 72.84375 
Q 21.1875 74.21875 26.21875 74.21875 
Q 35.203125 74.21875 40.640625 69.484375 
Q 46.09375 64.75 46.09375 56.984375 
Q 46.09375 53.265625 44.328125 49.921875 
Q 42.578125 46.578125 38.1875 42.390625 
L 33.890625 38.1875 
Q 31.59375 35.890625 30.640625 34.59375 
Q 29.6875 33.296875 29.296875 32.078125 
Q 29 31.0625 28.859375 29.59375 
Q 28.71875 28.125 28.71875 25.59375 
z
" id="DejaVuSans-3f"/>
   </defs>
   <g style="fill:#808080;" transform="translate(109.724262 93.444202)rotate(-347)scale(0.08 -0.08)">
    <use xlink:href="#DejaVuSans-70"/>
    <use x="63.476562" xlink:href="#DejaVuSans-73"/>
    <use x="115.576172" xlink:href="#DejaVuSans-65"/>
    <use x="177.099609" xlink:href="#DejaVuSans-75"/>
    <use x="240.478516" xlink:href="#DejaVuSans-64"/>
    <use x="303.955078" xlink:href="#DejaVuSans-6f"/>
    <use x="365.136719" xlink:href="#DejaVuSans-67"/>
    <use x="428.613281" xlink:href="#DejaVuSans-61"/>
    <use x="489.892578" xlink:href="#DejaVuSans-70"/>
    <use x="553.369141" xlink:href="#DejaVuSans-3f"/>
   </g>
  </g>
 </g>
 <defs>
  <clipPath id="p392edbb2f2">
   <rect height="149.4" width="206.55" x="31.59" y="3.6"/>
  </clipPath>
 </defs>
</svg>
