<?xml version="1.0" encoding="utf-8" standalone="no"?>
<!DOCTYPE svg PUBLIC "-//W3C//DTD SVG 1.1//EN"
  "http://www.w3.org/Graphics/SVG/1.1/DTD/svg11.dtd">
<!-- Created with matplotlib (http://matplotlib.org/) -->
<svg height="270pt" version="1.1" viewBox="0 0 243 270" width="243pt" xmlns="http://www.w3.org/2000/svg" xmlns:xlink="http://www.w3.org/1999/xlink">
 <defs>
  <style type="text/css">
*{stroke-linecap:butt;stroke-linejoin:round;}
  </style>
 </defs>
 <g id="figure_1">
  <g id="patch_1">
   <path d="M 0 270 
L 243 270 
L 243 0 
L 0 0 
z
" style="fill:#ffffff;"/>
  </g>
  <g id="axes_1">
   <g id="patch_2">
    <path d="M 24.3 229.5 
L 230.85 229.5 
L 230.85 13.5 
L 24.3 13.5 
z
" style="fill:#ffffff;"/>
   </g>
   <g id="PolyCollection_1">
    <path clip-path="url(#p206bc1d202)" d="M 24.3 -2470.5 
L 24.3 229.5 
L 41.546925 229.5 
L 41.546925 -2470.5 
L 41.546925 -2470.5 
L 24.3 -2470.5 
z
" style="fill:#dddddd;"/>
   </g>
   <g id="matplotlib.axis_1">
    <g id="xtick_1">
     <g id="line2d_1">
      <defs>
       <path d="M 0 0 
L 0 -2.5 
" id="mc75361a6ce" style="stroke:#000000;stroke-width:0.8;"/>
      </defs>
      <g>
       <use style="stroke:#000000;stroke-width:0.8;" x="24.3" xlink:href="#mc75361a6ce" y="229.5"/>
      </g>
     </g>
     <g id="line2d_2">
      <defs>
       <path d="M 0 0 
L 0 2.5 
" id="ma8db6b31d0" style="stroke:#000000;stroke-width:0.8;"/>
      </defs>
      <g>
       <use style="stroke:#000000;stroke-width:0.8;" x="24.3" xlink:href="#ma8db6b31d0" y="13.5"/>
      </g>
     </g>
     <g id="text_1">
      <!-- $0$ -->
      <defs>
       <path d="M 47.703125 33 
Q 47.703125 23.796875 45.546875 16.34375 
Q 43.40625 8.90625 38.09375 3.75 
Q 32.796875 -1.40625 25 -1.40625 
Q 18.796875 -1.40625 14.25 1.6875 
Q 9.703125 4.796875 7.203125 10.046875 
Q 4.703125 15.296875 3.5 21.140625 
Q 2.296875 27 2.296875 33.59375 
Q 2.296875 42.90625 4.59375 50.34375 
Q 6.90625 57.796875 12.296875 62.6875 
Q 17.703125 67.59375 25.40625 67.59375 
Q 35.203125 67.59375 41.453125 57.9375 
Q 47.703125 48.296875 47.703125 33 
z
M 39.796875 33 
Q 39.796875 45.203125 35.75 52.84375 
Q 31.703125 60.5 25.203125 60.5 
Q 17.796875 60.5 14 52.75 
Q 10.203125 45 10.203125 33.40625 
Q 10.203125 28.203125 10.953125 23.546875 
Q 11.703125 18.90625 13.34375 14.75 
Q 15 10.59375 18 8.140625 
Q 21 5.703125 25 5.703125 
Q 30.09375 5.703125 33.546875 9.796875 
Q 37 13.90625 38.390625 19.84375 
Q 39.796875 25.796875 39.796875 33 
z
" id="STIXGeneral-Regular-1d7e2"/>
      </defs>
      <g transform="translate(22.3 239.07875)scale(0.08 -0.08)">
       <use transform="translate(0 0.40625)" xlink:href="#STIXGeneral-Regular-1d7e2"/>
      </g>
     </g>
    </g>
    <g id="xtick_2">
     <g id="line2d_3">
      <g>
       <use style="stroke:#000000;stroke-width:0.8;" x="75.9375" xlink:href="#mc75361a6ce" y="229.5"/>
      </g>
     </g>
     <g id="line2d_4">
      <g>
       <use style="stroke:#000000;stroke-width:0.8;" x="75.9375" xlink:href="#ma8db6b31d0" y="13.5"/>
      </g>
     </g>
     <g id="text_2">
      <!-- $0.5$ -->
      <defs>
       <path d="M 18.09375 4.296875 
Q 18.09375 2.09375 16.4375 0.5 
Q 14.796875 -1.09375 12.5 -1.09375 
Q 10.203125 -1.09375 8.59375 0.5 
Q 7 2.09375 7 4.390625 
Q 7 6.703125 8.640625 8.34375 
Q 10.296875 10 12.59375 10 
Q 14.796875 10 16.4375 8.296875 
Q 18.09375 6.59375 18.09375 4.296875 
z
" id="STIXGeneral-Regular-2e"/>
       <path d="M 45.796875 67.59375 
L 42.59375 60.5 
L 24.90625 60.5 
L 18.5 47.796875 
Q 29.90625 46.203125 37.25 39.75 
Q 44.59375 33.296875 44.59375 22.59375 
Q 44.59375 12.703125 37.84375 5.640625 
Q 31.09375 -1.40625 21 -1.40625 
Q 10 -1.40625 3.59375 5.59375 
L 8.296875 11.203125 
Q 13.40625 5.703125 20.5 5.703125 
Q 27.90625 5.703125 32.296875 10.75 
Q 36.703125 15.796875 36.703125 22.59375 
Q 36.703125 30 30.09375 35.203125 
Q 23.40625 40.703125 9.40625 40.703125 
L 8 42.40625 
L 19.59375 67.59375 
z
" id="STIXGeneral-Regular-1d7e7"/>
      </defs>
      <g transform="translate(70.9375 239.07875)scale(0.08 -0.08)">
       <use transform="translate(0 0.40625)" xlink:href="#STIXGeneral-Regular-1d7e2"/>
       <use transform="translate(49.999985 0.40625)" xlink:href="#STIXGeneral-Regular-2e"/>
       <use transform="translate(74.999969 0.40625)" xlink:href="#STIXGeneral-Regular-1d7e7"/>
      </g>
     </g>
    </g>
    <g id="xtick_3">
     <g id="line2d_5">
      <g>
       <use style="stroke:#000000;stroke-width:0.8;" x="127.575" xlink:href="#mc75361a6ce" y="229.5"/>
      </g>
     </g>
     <g id="line2d_6">
      <g>
       <use style="stroke:#000000;stroke-width:0.8;" x="127.575" xlink:href="#ma8db6b31d0" y="13.5"/>
      </g>
     </g>
     <g id="text_3">
      <!-- $1$ -->
      <defs>
       <path d="M 30.203125 0 
L 22.296875 0 
L 22.296875 57 
Q 20.09375 56 15.75 53.75 
Q 11.40625 51.5 10.796875 51.203125 
L 10.796875 58.5 
L 28.796875 67.703125 
L 30.203125 67.203125 
z
" id="STIXGeneral-Regular-1d7e3"/>
      </defs>
      <g transform="translate(125.575 239.07875)scale(0.08 -0.08)">
       <use transform="translate(0 0.296875)" xlink:href="#STIXGeneral-Regular-1d7e3"/>
      </g>
     </g>
    </g>
    <g id="xtick_4">
     <g id="line2d_7">
      <g>
       <use style="stroke:#000000;stroke-width:0.8;" x="179.2125" xlink:href="#mc75361a6ce" y="229.5"/>
      </g>
     </g>
     <g id="line2d_8">
      <g>
       <use style="stroke:#000000;stroke-width:0.8;" x="179.2125" xlink:href="#ma8db6b31d0" y="13.5"/>
      </g>
     </g>
     <g id="text_4">
      <!-- $1.5$ -->
      <g transform="translate(174.2125 239.07875)scale(0.08 -0.08)">
       <use transform="translate(0 0.296875)" xlink:href="#STIXGeneral-Regular-1d7e3"/>
       <use transform="translate(49.999985 0.296875)" xlink:href="#STIXGeneral-Regular-2e"/>
       <use transform="translate(74.999969 0.296875)" xlink:href="#STIXGeneral-Regular-1d7e7"/>
      </g>
     </g>
    </g>
    <g id="xtick_5">
     <g id="line2d_9">
      <g>
       <use style="stroke:#000000;stroke-width:0.8;" x="230.85" xlink:href="#mc75361a6ce" y="229.5"/>
      </g>
     </g>
     <g id="line2d_10">
      <g>
       <use style="stroke:#000000;stroke-width:0.8;" x="230.85" xlink:href="#ma8db6b31d0" y="13.5"/>
      </g>
     </g>
     <g id="text_5">
      <!-- $2$ -->
      <defs>
       <path d="M 46.90625 7.09375 
L 44 0 
L 3.5 0 
L 3.5 2.09375 
L 21 23.5 
L 21 23.40625 
L 26.59375 30.203125 
Q 30.5 34.90625 32.09375 36.953125 
Q 33.703125 39 35.203125 41.953125 
Q 36.703125 44.90625 36.703125 47.5 
Q 36.703125 53.703125 33.34375 57.09375 
Q 30 60.5 24.203125 60.5 
Q 19.59375 60.5 15.75 56.703125 
Q 11.90625 52.90625 10.90625 45.90625 
L 3.703125 47.59375 
Q 5.296875 56.5 11.1875 62.046875 
Q 17.09375 67.59375 24.90625 67.59375 
Q 33.59375 67.59375 39.09375 62.1875 
Q 44.59375 56.796875 44.59375 49.09375 
Q 44.59375 43.5 42.5 39.453125 
Q 40.40625 35.40625 33.703125 27 
L 17.703125 7.09375 
z
" id="STIXGeneral-Regular-1d7e4"/>
      </defs>
      <g transform="translate(228.85 239.07875)scale(0.08 -0.08)">
       <use transform="translate(0 0.40625)" xlink:href="#STIXGeneral-Regular-1d7e4"/>
      </g>
     </g>
    </g>
    <g id="xtick_6">
     <g id="line2d_11">
      <defs>
       <path d="M 0 0 
L 0 -1.5 
" id="mc93f358b13" style="stroke:#000000;stroke-width:0.6;"/>
      </defs>
      <g>
       <use style="stroke:#000000;stroke-width:0.6;" x="50.11875" xlink:href="#mc93f358b13" y="229.5"/>
      </g>
     </g>
     <g id="line2d_12">
      <defs>
       <path d="M 0 0 
L 0 1.5 
" id="mff2c99f7b8" style="stroke:#000000;stroke-width:0.6;"/>
      </defs>
      <g>
       <use style="stroke:#000000;stroke-width:0.6;" x="50.11875" xlink:href="#mff2c99f7b8" y="13.5"/>
      </g>
     </g>
    </g>
    <g id="xtick_7">
     <g id="line2d_13">
      <g>
       <use style="stroke:#000000;stroke-width:0.6;" x="101.75625" xlink:href="#mc93f358b13" y="229.5"/>
      </g>
     </g>
     <g id="line2d_14">
      <g>
       <use style="stroke:#000000;stroke-width:0.6;" x="101.75625" xlink:href="#mff2c99f7b8" y="13.5"/>
      </g>
     </g>
    </g>
    <g id="xtick_8">
     <g id="line2d_15">
      <g>
       <use style="stroke:#000000;stroke-width:0.6;" x="153.39375" xlink:href="#mc93f358b13" y="229.5"/>
      </g>
     </g>
     <g id="line2d_16">
      <g>
       <use style="stroke:#000000;stroke-width:0.6;" x="153.39375" xlink:href="#mff2c99f7b8" y="13.5"/>
      </g>
     </g>
    </g>
    <g id="xtick_9">
     <g id="line2d_17">
      <g>
       <use style="stroke:#000000;stroke-width:0.6;" x="205.03125" xlink:href="#mc93f358b13" y="229.5"/>
      </g>
     </g>
     <g id="line2d_18">
      <g>
       <use style="stroke:#000000;stroke-width:0.6;" x="205.03125" xlink:href="#mff2c99f7b8" y="13.5"/>
      </g>
     </g>
    </g>
    <g id="text_6">
     <!-- $T/T_F$ -->
     <defs>
      <path d="M 74.796875 66.203125 
L 73.90625 58.796875 
L 49.40625 58.796875 
L 34.703125 0 
L 26 0 
L 40.59375 58.796875 
L 16.09375 58.796875 
L 19 66.203125 
z
" id="STIXGeneral-Italic-1d61b"/>
      <path d="M 28.703125 67.59375 
L 5.90625 -1.40625 
L -0.90625 -1.40625 
L 22 67.59375 
z
" id="STIXGeneral-Regular-2f"/>
      <path d="M 67.90625 66.203125 
L 66.90625 58.796875 
L 30.703125 58.796875 
L 25.703125 38.59375 
L 55.296875 38.59375 
L 53.40625 31.09375 
L 23.796875 31.09375 
L 16.09375 0 
L 7.40625 0 
L 23.90625 66.203125 
z
" id="STIXGeneral-Italic-1d60d"/>
     </defs>
     <g transform="translate(119.975 248.82125)scale(0.08 -0.08)">
      <use transform="translate(0 0.40625)" xlink:href="#STIXGeneral-Italic-1d61b"/>
      <use transform="translate(60.799988 0.40625)" xlink:href="#STIXGeneral-Regular-2f"/>
      <use transform="translate(88.599976 0.40625)" xlink:href="#STIXGeneral-Italic-1d61b"/>
      <use transform="translate(149.399963 -13.182812)scale(0.7)" xlink:href="#STIXGeneral-Italic-1d60d"/>
     </g>
    </g>
   </g>
   <g id="matplotlib.axis_2">
    <g id="text_7">
     <!-- $\kappa/\kappa_0$ -->
     <defs>
      <path d="M 51.703125 40.296875 
L 51.40625 39.203125 
Q 36.296875 38.40625 22.90625 24.09375 
L 42.796875 0 
L 32.40625 0 
L 16.203125 18.40625 
L 11.703125 0 
L 3.796875 0 
L 14.703125 44 
L 22.296875 46.40625 
L 23.09375 45.90625 
L 18.90625 29.203125 
Q 24.703125 35.203125 33.390625 40.34375 
Q 42.09375 45.5 49.703125 46.296875 
z
" id="STIXNonUnicode-Italic-e1e1"/>
     </defs>
     <g transform="translate(20.63625 127.94)rotate(-90)scale(0.08 -0.08)">
      <use transform="translate(0 0.40625)" xlink:href="#STIXNonUnicode-Italic-e1e1"/>
      <use transform="translate(47.199997 0.40625)" xlink:href="#STIXGeneral-Regular-2f"/>
      <use transform="translate(74.999985 0.40625)" xlink:href="#STIXNonUnicode-Italic-e1e1"/>
      <use transform="translate(122.992677 -13.182812)scale(0.7)" xlink:href="#STIXGeneral-Regular-1d7e2"/>
     </g>
    </g>
   </g>
   <g id="line2d_19">
    <path clip-path="url(#p206bc1d202)" d="M 244 219.948986 
L 243.251407 219.915117 
L 240.3861 219.782221 
L 237.556629 219.647705 
L 234.76265 219.511573 
L 232.003827 219.373833 
L 229.279825 219.234492 
L 226.590319 219.093564 
L 223.934985 218.951059 
L 221.313507 218.806996 
L 218.725572 218.661393 
L 216.170873 218.514272 
L 213.649108 218.365657 
L 211.159979 218.215578 
L 208.703195 218.064065 
L 206.278467 217.911156 
L 203.885514 217.756889 
L 201.524058 217.601309 
L 199.193826 217.444464 
L 196.894549 217.286408 
L 194.625966 217.1272 
L 192.387818 216.966904 
L 190.179851 216.805589 
L 188.001817 216.643333 
L 185.853473 216.480217 
L 183.73458 216.316333 
L 181.644904 216.151776 
L 179.584217 215.986651 
L 177.552294 215.821073 
L 175.548918 215.655163 
L 173.573874 215.489053 
L 171.626954 215.322885 
L 169.707955 215.156809 
L 167.816679 214.99099 
L 165.952934 214.825602 
L 164.116532 214.660833 
L 162.307293 214.496884 
L 160.525041 214.333968 
L 158.769605 214.172317 
L 157.040823 214.012175 
L 155.338536 213.853805 
L 153.662594 213.697486 
L 152.012851 213.543517 
L 150.389171 213.392218 
L 148.791422 213.243927 
L 147.21948 213.099008 
L 145.673231 212.957845 
L 144.152565 212.82085 
L 142.657384 212.688462 
L 141.187595 212.561145 
L 139.743118 212.439397 
L 138.323878 212.323746 
L 136.929815 212.214752 
L 135.560876 212.113016 
L 134.217019 212.019172 
L 132.898217 211.933897 
L 131.604453 211.857912 
L 130.335723 211.791982 
L 129.092038 211.736922 
L 127.873425 211.693598 
L 126.679927 211.662932 
L 125.511603 211.645905 
L 124.368531 211.643561 
L 123.250811 211.65701 
L 122.158562 211.687434 
L 121.091927 211.736091 
L 120.051075 211.804322 
L 119.036204 211.893553 
L 118.047537 212.005305 
L 117.085333 212.141198 
L 116.149886 212.30296 
L 115.241528 212.492433 
L 114.360633 212.711585 
L 113.507621 212.962514 
L 112.682963 213.247463 
L 111.887188 213.568829 
" style="fill:none;stroke:#114b5f;stroke-dasharray:3.7,1.6;stroke-dashoffset:0;"/>
   </g>
   <g id="line2d_20">
    <path clip-path="url(#p206bc1d202)" d="M 244 193.163211 
L 241.999339 193.074732 
L 239.212867 192.948505 
L 236.46092 192.82083 
L 233.743167 192.691716 
L 231.05928 192.561172 
L 228.40894 192.429211 
L 225.791831 192.295848 
L 223.207641 192.1611 
L 220.656065 192.024988 
L 218.136804 191.887532 
L 215.649562 191.748761 
L 213.19405 191.608701 
L 210.769983 191.467386 
L 208.377081 191.324852 
L 206.01507 191.181139 
L 203.683681 191.03629 
L 201.38265 190.890354 
L 199.111717 190.743384 
L 196.870629 190.595438 
L 194.659136 190.446579 
L 192.476996 190.296876 
L 190.323968 190.146404 
L 188.19982 189.995243 
L 186.104324 189.843482 
L 184.037256 189.691215 
L 181.998399 189.538545 
L 179.987539 189.385581 
L 178.004471 189.232443 
L 176.048991 189.079257 
L 174.120904 188.926162 
L 172.220019 188.773304 
L 170.346151 188.62084 
L 168.499119 188.468941 
L 166.678752 188.317787 
L 164.88488 188.167572 
L 163.117342 188.018503 
L 161.375984 187.870801 
L 159.660655 187.724704 
L 157.971213 187.580463 
L 156.307523 187.438348 
L 154.669455 187.298646 
L 153.056889 187.161665 
L 151.469709 187.02773 
L 149.90781 186.89719 
L 148.371092 186.770415 
L 146.859467 186.6478 
L 145.372851 186.529766 
L 143.911173 186.41676 
L 142.474371 186.309258 
L 141.062391 186.207767 
L 139.675191 186.112826 
L 138.31274 186.025008 
L 136.975019 185.944922 
L 135.662021 185.873219 
L 134.373752 185.810587 
L 133.110233 185.757761 
L 131.871498 185.715521 
L 130.657599 185.684696 
L 129.468605 185.666171 
L 128.304602 185.660884 
L 127.165695 185.669834 
L 126.052013 185.694085 
L 124.963705 185.734769 
L 123.900946 185.793091 
L 122.863936 185.870332 
L 121.852907 185.96786 
L 120.868118 186.087129 
L 119.909866 186.229691 
L 118.978482 186.397199 
L 118.07434 186.591418 
L 117.197857 186.814229 
L 116.349499 187.067642 
L 115.529787 187.353804 
L 114.7393 187.67501 
L 113.978683 188.033713 
L 113.248653 188.432541 
L 112.550009 188.874309 
" style="fill:none;stroke:#5f9049;stroke-dasharray:3.7,1.6;stroke-dashoffset:0;"/>
   </g>
   <g id="line2d_21">
    <path clip-path="url(#p206bc1d202)" d="M 244 166.687735 
L 243.717812 166.676527 
L 241.065517 166.568824 
L 238.445358 166.460059 
L 235.857015 166.350246 
L 233.300173 166.239397 
L 230.774525 166.127528 
L 228.279766 166.014655 
L 225.815601 165.900799 
L 223.381737 165.785983 
L 220.977887 165.670229 
L 218.60377 165.553567 
L 216.25911 165.436025 
L 213.943639 165.317638 
L 211.65709 165.198441 
L 209.399205 165.078475 
L 207.16973 164.957783 
L 204.968418 164.836412 
L 202.795025 164.714414 
L 200.649314 164.591845 
L 198.531055 164.468766 
L 196.44002 164.345242 
L 194.375991 164.221345 
L 192.338752 164.09715 
L 190.328094 163.972739 
L 188.343815 163.848202 
L 186.385718 163.723634 
L 184.453609 163.599136 
L 182.547306 163.474819 
L 180.666627 163.3508 
L 178.8114 163.227205 
L 176.981458 163.10417 
L 175.176639 162.981838 
L 173.39679 162.860364 
L 171.641763 162.739912 
L 169.911417 162.62066 
L 168.205617 162.502794 
L 166.524236 162.386516 
L 164.867154 162.272039 
L 163.234259 162.159592 
L 161.625445 162.049417 
L 160.040616 161.941773 
L 158.479682 161.836937 
L 156.942563 161.735201 
L 155.429185 161.636878 
L 153.939488 161.542301 
L 152.473416 161.451823 
L 151.030926 161.365821 
L 149.611986 161.284695 
L 148.21657 161.20887 
L 146.84467 161.1388 
L 145.496283 161.074964 
L 144.171425 161.017875 
L 142.870119 160.968076 
L 141.592406 160.926146 
L 140.338342 160.892698 
L 139.107994 160.868386 
L 137.901452 160.853904 
L 136.718819 160.84999 
L 135.560219 160.85743 
L 134.425796 160.877058 
L 133.315716 160.909762 
L 132.230167 160.956485 
L 131.169364 161.018234 
L 130.133548 161.096076 
L 129.122991 161.191151 
L 128.137995 161.304669 
L 127.178898 161.437922 
L 126.246075 161.592285 
L 125.339942 161.769225 
L 124.46096 161.970304 
L 123.609638 162.197191 
L 122.786543 162.451666 
L 121.992296 162.735632 
L 121.227587 163.051122 
L 120.493176 163.400309 
L 119.789907 163.785521 
L 119.118707 164.20925 
L 118.480609 164.67417 
L 117.87675 165.183148 
L 117.308396 165.739266 
L 116.77695 166.345837 
L 116.283972 167.006429 
L 115.831201 167.724889 
L 115.420574 168.505372 
L 115.054259 169.35237 
" style="fill:none;stroke:#d7b501;stroke-dasharray:3.7,1.6;stroke-dashoffset:0;"/>
   </g>
   <g id="line2d_22">
    <path clip-path="url(#p206bc1d202)" d="M 244 140.266913 
L 243.193404 140.238522 
L 240.719439 140.149706 
L 238.275058 140.060216 
L 235.85995 139.970068 
L 233.473811 139.879275 
L 231.11634 139.787854 
L 228.787243 139.695824 
L 226.486232 139.603205 
L 224.213021 139.510018 
L 221.967334 139.416288 
L 219.748897 139.32204 
L 217.557443 139.227304 
L 215.39271 139.13211 
L 213.254441 139.036491 
L 211.142386 138.940484 
L 209.056298 138.844128 
L 206.995938 138.747465 
L 204.961072 138.65054 
L 202.951469 138.553403 
L 200.966908 138.456107 
L 199.00717 138.358707 
L 197.072044 138.261266 
L 195.161323 138.163847 
L 193.274808 138.066522 
L 191.412304 137.969364 
L 189.573623 137.872454 
L 187.758582 137.775878 
L 185.967005 137.679728 
L 184.198723 137.5841 
L 182.453571 137.489101 
L 180.731393 137.394841 
L 179.032037 137.301439 
L 177.355361 137.209022 
L 175.701226 137.117726 
L 174.069502 137.027695 
L 172.460067 136.939081 
L 170.872805 136.852049 
L 169.307607 136.766771 
L 167.764372 136.683435 
L 166.243008 136.602235 
L 164.74343 136.523381 
L 163.265562 136.447096 
L 161.809336 136.373617 
L 160.374694 136.303195 
L 158.961587 136.236097 
L 157.569974 136.172607 
L 156.199827 136.113026 
L 154.851126 136.057676 
L 153.523864 136.006896 
L 152.218042 135.961048 
L 150.933678 135.920516 
L 149.670799 135.885707 
L 148.429446 135.857054 
L 147.209674 135.835017 
L 146.011553 135.820085 
L 144.835169 135.812775 
L 143.680623 135.813639 
L 142.548036 135.823262 
L 141.437545 135.842264 
L 140.349308 135.871306 
L 139.283506 135.91109 
L 138.240339 135.96236 
L 137.220035 136.02591 
L 136.222846 136.102582 
L 135.249052 136.193272 
L 134.298965 136.298932 
L 133.372929 136.420576 
L 132.471324 136.559285 
L 131.594567 136.716206 
L 130.74312 136.892565 
L 129.917487 137.089665 
L 129.118226 137.308899 
L 128.345947 137.551748 
L 127.60132 137.819798 
L 126.885082 138.114738 
L 126.198044 138.438378 
L 125.541096 138.792649 
L 124.915216 139.17962 
L 124.321483 139.601508 
L 123.761086 140.060689 
L 123.235336 140.559713 
L 122.745682 141.101319 
L 122.293729 141.688454 
L 121.881256 142.324293 
L 121.510238 143.012257 
L 121.182874 143.756043 
L 120.901619 144.559651 
L 120.669217 145.427412 
L 120.488747 146.364031 
L 120.363669 147.374627 
L 120.29789 148.464781 
" style="fill:none;stroke:#eca300;stroke-dasharray:3.7,1.6;stroke-dashoffset:0;"/>
   </g>
   <g id="line2d_23">
    <path clip-path="url(#p206bc1d202)" d="M 212.198627 112.580456 
L 210.228433 112.501325 
L 208.282181 112.422061 
L 206.359632 112.342696 
L 204.460549 112.263267 
L 202.584703 112.183811 
L 200.731869 112.104368 
L 198.901826 112.024984 
L 197.094361 111.945702 
L 195.309263 111.866574 
L 193.54633 111.787651 
L 191.80536 111.70899 
L 190.086162 111.63065 
L 188.388548 111.552696 
L 186.712334 111.475195 
L 185.057345 111.398219 
L 183.423408 111.321845 
L 181.810359 111.246154 
L 180.218038 111.171234 
L 178.646292 111.097177 
L 177.094972 111.024081 
L 175.563938 110.95205 
L 174.053055 110.881195 
L 172.562195 110.811633 
L 171.091234 110.743489 
L 169.640059 110.676897 
L 168.208561 110.611996 
L 166.796639 110.548936 
L 165.404199 110.487875 
L 164.031156 110.428981 
L 162.677429 110.372434 
L 161.34295 110.318421 
L 160.027656 110.267144 
L 158.731493 110.218815 
L 157.454417 110.173661 
L 156.196392 110.13192 
L 154.957393 110.093846 
L 153.737403 110.059708 
L 152.536416 110.029792 
L 151.354439 110.004399 
L 150.191488 109.983852 
L 149.047591 109.968489 
L 147.922791 109.958672 
L 146.81714 109.954783 
L 145.730709 109.957227 
L 144.663578 109.966435 
L 143.615847 109.982863 
L 142.587631 110.006995 
L 141.579061 110.039344 
L 140.590289 110.080456 
L 139.621484 110.130908 
L 138.672837 110.191313 
L 137.744563 110.262325 
L 136.836898 110.344634 
L 135.950107 110.438976 
L 135.08448 110.546131 
L 134.240338 110.666929 
L 133.418033 110.802252 
L 132.617954 110.953039 
L 131.840525 111.120288 
L 131.086213 111.30506 
L 130.355527 111.508487 
L 129.649027 111.731773 
L 128.967324 111.976204 
L 128.311086 112.243147 
L 127.681048 112.534066 
L 127.07801 112.850519 
L 126.502852 113.194174 
L 125.956538 113.566813 
L 125.440125 113.970345 
L 124.954776 114.406813 
L 124.501769 114.878407 
L 124.082512 115.387478 
L 123.698557 115.936552 
L 123.351621 116.528346 
L 123.043602 117.165786 
L 122.776608 117.852029 
L 122.552979 118.590482 
L 122.375326 119.384835 
L 122.246562 120.239085 
L 122.169952 121.157573 
" style="fill:none;stroke:#db7502;stroke-dasharray:3.7,1.6;stroke-dashoffset:0;"/>
   </g>
   <g id="line2d_24">
    <path clip-path="url(#p206bc1d202)" d="M 180.412412 84.653673 
L 178.90948 84.587732 
L 177.425422 84.522424 
L 175.960071 84.457814 
L 174.51327 84.393973 
L 173.084863 84.330972 
L 171.674701 84.268888 
L 170.28264 84.207803 
L 168.90854 84.147804 
L 167.552268 84.088982 
L 166.213697 84.031433 
L 164.892703 83.975261 
L 163.58917 83.920573 
L 162.302987 83.867485 
L 161.034049 83.816117 
L 159.782259 83.766598 
L 158.547523 83.719065 
L 157.329756 83.67366 
L 156.128879 83.630537 
L 154.944821 83.589856 
L 153.777515 83.551787 
L 152.626905 83.516511 
L 151.49294 83.484219 
L 150.375579 83.455113 
L 149.274789 83.429405 
L 148.190543 83.407323 
L 147.122827 83.389106 
L 146.071632 83.375006 
L 145.036962 83.365291 
L 144.018829 83.360247 
L 143.017257 83.360172 
L 142.032281 83.365384 
L 141.063947 83.376221 
L 140.112314 83.393038 
L 139.177452 83.416213 
L 138.259448 83.446146 
L 137.358401 83.48326 
L 136.474426 83.528004 
L 135.607654 83.580854 
L 134.758234 83.642313 
L 133.926332 83.712915 
L 133.112135 83.793227 
L 132.31585 83.88385 
L 131.537706 83.985421 
L 130.777957 84.098615 
L 130.036883 84.224152 
L 129.314789 84.362793 
L 128.612013 84.515346 
L 127.928923 84.682674 
L 127.265923 84.865689 
L 126.623453 85.065363 
L 126.001996 85.282732 
L 125.402077 85.518895 
L 124.824271 85.775025 
L 124.269207 86.05237 
L 123.737569 86.352263 
L 123.230107 86.676124 
L 122.747639 87.025469 
L 122.291062 87.401918 
L 121.861355 87.807203 
L 121.459595 88.243178 
L 121.086961 88.711827 
L 120.744749 89.215278 
L 120.434383 89.755816 
L 120.157436 90.335892 
L 119.915642 90.958147 
L 119.710918 91.625424 
L 119.54539 92.340788 
L 119.421419 93.107553 
L 119.341634 93.929302 
" style="fill:none;stroke:#cc5101;stroke-dasharray:3.7,1.6;stroke-dashoffset:0;"/>
   </g>
   <g id="patch_3">
    <path d="M 24.3 229.5 
L 24.3 13.5 
" style="fill:none;stroke:#000000;stroke-linecap:square;stroke-linejoin:miter;stroke-width:0.8;"/>
   </g>
   <g id="patch_4">
    <path d="M 230.85 229.5 
L 230.85 13.5 
" style="fill:none;stroke:#000000;stroke-linecap:square;stroke-linejoin:miter;stroke-width:0.8;"/>
   </g>
   <g id="patch_5">
    <path d="M 24.3 229.5 
L 230.85 229.5 
" style="fill:none;stroke:#000000;stroke-linecap:square;stroke-linejoin:miter;stroke-width:0.8;"/>
   </g>
   <g id="patch_6">
    <path d="M 24.3 13.5 
L 230.85 13.5 
" style="fill:none;stroke:#000000;stroke-linecap:square;stroke-linejoin:miter;stroke-width:0.8;"/>
   </g>
   <g id="PolyCollection_2">
    <path clip-path="url(#p206bc1d202)" d="M 633.222336 225.813058 
L 633.222336 226.056939 
L 617.083103 226.088872 
L 601.889137 226.099614 
L 587.476361 226.090186 
L 573.709718 226.061569 
L 560.477895 226.01472 
L 547.689276 225.950596 
L 535.268774 225.870186 
L 523.155308 225.774534 
L 511.299755 225.664744 
L 499.663245 225.541949 
L 488.215716 225.40725 
L 476.93467 225.261629 
L 465.804076 225.105901 
L 454.813386 224.940726 
L 443.959836 224.775631 
L 433.266738 224.607512 
L 422.764038 224.445339 
L 412.47597 224.288906 
L 402.42161 224.138039 
L 392.615496 223.992531 
L 383.068205 223.852161 
L 373.786898 223.716757 
L 364.775821 223.58623 
L 356.03675 223.460606 
L 347.569397 223.340024 
L 339.371766 223.224722 
L 331.440461 223.115004 
L 323.770961 223.011184 
L 316.356982 222.90829 
L 309.178034 222.783523 
L 302.205854 222.637327 
L 295.416943 222.470543 
L 288.792174 222.28418 
L 282.316145 222.079312 
L 275.976615 221.856994 
L 269.764021 221.618255 
L 263.671059 221.364124 
L 257.692315 221.095684 
L 251.823937 220.814097 
L 246.063352 220.520617 
L 240.409014 220.216581 
L 234.860181 219.903364 
L 229.41672 219.580487 
L 224.078659 219.242983 
L 218.846016 218.89255 
L 213.719123 218.529596 
L 208.698535 218.154925 
L 203.784922 217.769612 
L 198.978983 217.374981 
L 194.281367 216.972676 
L 189.692623 216.564822 
L 185.213155 216.154164 
L 180.843185 215.743918 
L 176.582739 215.337087 
L 172.431627 214.935562 
L 168.389443 214.539892 
L 164.455562 214.149056 
L 160.629091 213.750453 
L 156.908817 213.342248 
L 153.293362 212.924737 
L 149.781216 212.498372 
L 146.370743 212.06378 
L 143.060191 211.622036 
L 139.847705 211.174804 
L 136.731335 210.724397 
L 133.709052 210.273789 
L 130.778759 209.826463 
L 127.938301 209.386011 
L 125.185481 208.955515 
L 122.518067 208.537037 
L 119.933806 208.131547 
L 117.430145 207.711798 
L 115.003265 207.267005 
L 112.649364 206.798484 
L 110.365084 206.307481 
L 108.147443 205.79509 
L 105.993772 205.262051 
L 103.901673 204.709009 
L 101.86897 204.136808 
L 99.893678 203.546616 
L 97.97397 202.939958 
L 96.108153 202.318715 
L 94.294646 201.685142 
L 92.531962 201.041868 
L 90.818691 200.391876 
L 89.153564 199.729298 
L 87.536017 199.072153 
L 85.965714 198.42465 
L 84.442124 197.786017 
L 82.964556 197.155954 
L 81.532187 196.534389 
L 80.144088 195.921198 
L 78.799243 195.315927 
L 77.496576 194.717673 
L 76.234963 194.125243 
L 75.013247 193.537434 
L 73.83025 192.953283 
L 72.684788 192.372207 
L 71.575672 191.79409 
L 70.501733 191.220624 
L 69.462088 190.673909 
L 68.456066 190.15722 
L 67.482921 189.667688 
L 66.541835 189.202866 
L 65.631942 188.760668 
L 64.752338 188.33932 
L 63.902098 187.937309 
L 63.080282 187.553353 
L 62.285948 187.186389 
L 61.518158 186.835596 
L 60.775981 186.50048 
L 60.058504 186.181113 
L 59.364828 185.878682 
L 58.694076 185.595504 
L 58.045344 185.332854 
L 57.417674 185.090116 
L 56.81015 184.865536 
L 56.221906 184.656549 
L 55.652117 184.459796 
L 55.100004 184.272043 
L 54.564828 184.091002 
L 54.045885 183.915589 
L 53.54251 183.745818 
L 53.054069 183.582589 
L 52.57996 183.427394 
L 52.119613 183.281942 
L 51.672483 183.147736 
L 51.238053 183.025759 
L 50.815768 182.892129 
L 50.404913 182.725536 
L 50.004795 182.526004 
L 49.614779 182.294121 
L 49.234287 182.030618 
L 48.862788 181.736325 
L 48.499796 181.412241 
L 48.144865 181.059587 
L 47.797585 180.679828 
L 47.457581 180.274699 
L 47.124506 179.846232 
L 46.798042 179.396768 
L 46.477896 178.928922 
L 46.163798 178.44547 
L 45.855503 177.960997 
L 45.55281 177.460061 
L 45.25554 176.939417 
L 44.963526 176.399197 
L 44.67661 175.840143 
L 44.394647 175.263432 
L 44.117496 174.67061 
L 43.845027 174.063629 
L 43.577118 173.445005 
L 43.313652 172.818019 
L 43.054519 172.186838 
L 42.799615 171.556327 
L 42.548842 170.931417 
L 42.302106 170.316134 
L 42.059323 169.721968 
L 41.820486 169.151738 
L 41.58563 168.597512 
L 41.354777 168.057263 
L 41.12794 167.53013 
L 40.90512 167.015774 
L 40.68631 166.514217 
L 40.471495 166.025964 
L 40.260653 165.552167 
L 40.053755 165.094771 
L 39.850767 164.656601 
L 39.65165 164.241382 
L 39.45636 163.853587 
L 39.26485 163.498037 
L 39.077073 163.187161 
L 38.89305 162.976622 
L 38.712875 162.836416 
L 38.536629 162.762763 
L 38.364371 162.753154 
L 38.196147 162.805725 
L 38.031984 162.918815 
L 37.871899 163.090755 
L 37.715896 163.319926 
L 37.563969 163.604954 
L 37.416105 163.944866 
L 37.272283 164.339194 
L 37.132474 164.788044 
L 36.996645 165.292173 
L 36.864759 165.582199 
L 36.736726 166.167273 
L 36.612352 166.733051 
L 36.491444 167.277222 
L 36.373821 167.797981 
L 36.259315 168.294031 
L 36.147767 168.764527 
L 36.039028 169.20901 
L 35.932959 169.62731 
L 35.829429 170.019437 
L 35.728315 170.385458 
L 35.6295 170.725405 
L 35.532877 171.039249 
L 35.438341 171.326948 
L 35.345795 171.588512 
L 35.345795 168.40874 
L 35.345795 168.40874 
L 35.438341 168.15572 
L 35.532877 167.885775 
L 35.6295 167.598059 
L 35.728315 167.291636 
L 35.829429 166.965545 
L 35.932959 166.618838 
L 36.039028 166.250556 
L 36.147767 165.859632 
L 36.259315 165.444765 
L 36.373821 165.004304 
L 36.491444 164.53615 
L 36.612352 164.037681 
L 36.736726 163.505691 
L 36.864759 162.936393 
L 36.996645 162.068449 
L 37.132474 161.529536 
L 37.272283 161.056491 
L 37.416105 160.652391 
L 37.563969 160.319801 
L 37.715896 160.060851 
L 37.871899 159.877307 
L 38.031984 159.770679 
L 38.196147 159.742382 
L 38.364371 159.793925 
L 38.536629 159.926973 
L 38.712875 160.143141 
L 38.89305 160.443544 
L 39.077073 160.828171 
L 39.26485 161.250275 
L 39.45636 161.673988 
L 39.65165 162.101112 
L 39.850767 162.537394 
L 40.053755 162.988261 
L 40.260653 163.458422 
L 40.471495 163.951723 
L 40.68631 164.471156 
L 40.90512 165.018956 
L 41.12794 165.59674 
L 41.354777 166.205677 
L 41.58563 166.846606 
L 41.820486 167.519874 
L 42.059323 168.224696 
L 42.302106 168.950108 
L 42.548842 169.650433 
L 42.799615 170.32281 
L 43.054519 170.970717 
L 43.313652 171.598518 
L 43.577118 172.210498 
L 43.845027 172.810226 
L 44.117496 173.400373 
L 44.394647 173.982822 
L 44.67661 174.558879 
L 44.963526 175.129423 
L 45.25554 175.694948 
L 45.55281 176.25549 
L 45.855503 176.810458 
L 46.163798 177.355722 
L 46.477896 177.86648 
L 46.798042 178.351161 
L 47.124506 178.811319 
L 47.457581 179.248306 
L 47.797585 179.66316 
L 48.144865 180.056565 
L 48.499796 180.428862 
L 48.862788 180.78007 
L 49.234287 181.109908 
L 49.614779 181.417812 
L 50.004795 181.702985 
L 50.404913 181.964461 
L 50.815768 182.201049 
L 51.238053 182.410911 
L 51.672483 182.601005 
L 52.119613 182.78651 
L 52.57996 182.968797 
L 53.054069 183.149584 
L 53.54251 183.330807 
L 54.045885 183.514199 
L 54.564828 183.700907 
L 55.100004 183.891209 
L 55.652117 184.084297 
L 56.221906 184.278171 
L 56.81015 184.469904 
L 57.417674 184.656456 
L 58.045344 184.835599 
L 58.694076 185.005938 
L 59.364828 185.172694 
L 60.058504 185.35304 
L 60.775981 185.551454 
L 61.518158 185.770498 
L 62.285948 186.011704 
L 63.080282 186.276127 
L 63.902098 186.564585 
L 64.752338 186.877755 
L 65.631942 187.216199 
L 66.541835 187.580358 
L 67.482921 187.970526 
L 68.456066 188.386808 
L 69.462088 188.829073 
L 70.501733 189.296901 
L 71.575672 189.790442 
L 72.684788 190.299486 
L 73.83025 190.820776 
L 75.013247 191.354906 
L 76.234963 191.902033 
L 77.496576 192.461973 
L 78.799243 193.03434 
L 80.144088 193.618793 
L 81.532187 194.215327 
L 82.964556 194.824419 
L 84.442124 195.446918 
L 85.965714 196.083766 
L 87.536017 196.735711 
L 89.153564 197.403068 
L 90.818691 198.089305 
L 92.531962 198.780819 
L 94.294646 199.4591 
L 96.108153 200.125862 
L 97.97397 200.782403 
L 99.893678 201.429563 
L 101.86897 202.067743 
L 103.901673 202.6969 
L 105.993772 203.316559 
L 108.147443 203.925833 
L 110.365084 204.523549 
L 112.649364 205.108532 
L 115.003265 205.67987 
L 117.430145 206.236699 
L 119.933806 206.778219 
L 122.518067 207.314363 
L 125.185481 207.834539 
L 127.938301 208.339425 
L 130.778759 208.830764 
L 133.709052 209.311288 
L 136.731335 209.784213 
L 139.847705 210.252616 
L 143.060191 210.719027 
L 146.370743 211.185282 
L 149.781216 211.652529 
L 153.293362 212.121286 
L 156.908817 212.591579 
L 160.629091 213.063216 
L 164.455562 213.5358 
L 168.389443 214.00746 
L 172.431627 214.46606 
L 176.582739 214.909859 
L 180.843185 215.338612 
L 185.213155 215.75336 
L 189.692623 216.156199 
L 194.281367 216.54938 
L 198.978983 216.93462 
L 203.784922 217.312956 
L 208.698535 217.684882 
L 213.719123 218.050506 
L 218.846016 218.409627 
L 224.078659 218.761709 
L 229.41672 219.105756 
L 234.860181 219.442623 
L 240.409014 219.768082 
L 246.063352 220.080414 
L 251.823937 220.379518 
L 257.692315 220.665193 
L 263.671059 220.937104 
L 269.764021 221.194777 
L 275.976615 221.437601 
L 282.316145 221.664865 
L 288.792174 221.8758 
L 295.416943 222.069614 
L 302.205854 222.245468 
L 309.178034 222.402395 
L 316.356982 222.53918 
L 323.770961 222.658962 
L 331.440461 222.776874 
L 339.371766 222.896793 
L 347.569397 223.019431 
L 356.03675 223.145514 
L 364.775821 223.275721 
L 373.786898 223.410648 
L 383.068205 223.550797 
L 392.615496 223.696574 
L 402.42161 223.84831 
L 412.47597 224.006302 
L 422.764038 224.170865 
L 433.266738 224.342347 
L 443.959836 224.521061 
L 454.813386 224.715656 
L 465.804076 224.899081 
L 476.93467 225.068606 
L 488.215716 225.223499 
L 499.663245 225.363155 
L 511.299755 225.487114 
L 523.155308 225.594999 
L 535.268774 225.686437 
L 547.689276 225.760982 
L 560.477895 225.818072 
L 573.709718 225.857019 
L 587.476361 225.877008 
L 601.889137 225.877097 
L 617.083103 225.856202 
L 633.222336 225.813058 
z
" style="fill:#2faeda;stroke:#2faeda;"/>
   </g>
   <g id="PolyCollection_3">
    <path clip-path="url(#p206bc1d202)" d="M 605.899402 198.548487 
L 605.899402 198.820023 
L 590.155268 198.857668 
L 575.372001 198.877093 
L 561.399546 198.879196 
L 548.11356 198.864834 
L 535.410656 198.834846 
L 523.204723 198.790092 
L 511.424051 198.731493 
L 500.009043 198.660062 
L 488.910367 198.576891 
L 478.087447 198.483108 
L 467.507197 198.379767 
L 457.142966 198.267741 
L 446.973617 198.147673 
L 436.98274 198.02002 
L 427.158833 197.891081 
L 417.499979 197.747467 
L 408.008236 197.599414 
L 398.685916 197.44718 
L 389.535421 197.291045 
L 380.559127 197.13124 
L 371.759275 196.967956 
L 363.137898 196.801406 
L 354.696756 196.631859 
L 346.437285 196.459648 
L 338.36057 196.285178 
L 330.467319 196.108925 
L 322.757855 195.93143 
L 315.232115 195.753282 
L 307.889426 195.572937 
L 300.725277 195.381067 
L 293.732978 195.180371 
L 286.906888 194.971216 
L 280.242303 194.754128 
L 273.735278 194.529725 
L 267.382467 194.298655 
L 261.180996 194.061553 
L 255.128346 193.819029 
L 249.222265 193.571716 
L 243.46068 193.320331 
L 237.841645 193.065717 
L 232.363276 192.80885 
L 227.023719 192.550788 
L 221.821072 192.290383 
L 216.751558 192.017113 
L 211.809291 191.730713 
L 206.989179 191.431419 
L 202.286978 191.119809 
L 197.69914 190.796634 
L 193.222678 190.462694 
L 188.855054 190.1188 
L 184.594076 189.76581 
L 180.437822 189.404693 
L 176.38457 189.036569 
L 172.432737 188.662718 
L 168.580837 188.284537 
L 164.827438 187.903434 
L 161.171135 187.519739 
L 157.609845 187.118538 
L 154.139975 186.697307 
L 150.758223 186.256478 
L 147.461791 185.7971 
L 144.248294 185.320593 
L 141.115673 184.82867 
L 138.06213 184.323444 
L 135.086063 183.807644 
L 132.186026 183.284785 
L 129.360679 182.759011 
L 126.60876 182.234322 
L 123.929057 181.713508 
L 121.320387 181.197707 
L 118.781577 180.686954 
L 116.311572 180.172262 
L 113.909813 179.654637 
L 111.57572 179.134265 
L 109.308518 178.611077 
L 107.107261 178.084787 
L 104.97086 177.55516 
L 102.89811 177.022237 
L 100.887703 176.486381 
L 98.938258 175.948265 
L 97.048327 175.408862 
L 95.216418 174.869449 
L 93.441005 174.331614 
L 91.720541 173.797234 
L 90.053466 173.268392 
L 88.438184 172.733589 
L 86.872772 172.184416 
L 85.355226 171.623052 
L 83.883677 171.049714 
L 82.456371 170.465034 
L 81.071663 169.869801 
L 79.728001 169.264691 
L 78.423921 168.650084 
L 77.158034 168.026101 
L 75.929023 167.392793 
L 74.735633 166.750368 
L 73.576668 166.099338 
L 72.450984 165.440616 
L 71.357488 164.775593 
L 70.295164 164.111636 
L 69.263757 163.493919 
L 68.263569 162.928297 
L 67.29468 162.41129 
L 66.356955 161.940001 
L 65.450083 161.51202 
L 64.573613 161.125345 
L 63.726979 160.778296 
L 62.909529 160.469427 
L 62.120542 160.197433 
L 61.359248 159.96115 
L 60.624844 159.759725 
L 59.916503 159.592917 
L 59.233388 159.461447 
L 58.574656 159.365619 
L 57.939188 159.269118 
L 57.325458 159.154227 
L 56.732036 159.018619 
L 56.15762 158.860694 
L 55.601028 158.679547 
L 55.061183 158.474777 
L 54.537101 158.24629 
L 54.027881 157.994157 
L 53.532701 157.718586 
L 53.050804 157.419953 
L 52.581494 157.098847 
L 52.124134 156.75612 
L 51.678134 156.392944 
L 51.24295 156.01186 
L 50.818114 155.636841 
L 50.403295 155.264275 
L 49.998195 154.892791 
L 49.602525 154.521438 
L 49.216008 154.149616 
L 48.838373 153.777015 
L 48.469361 153.403581 
L 48.108721 153.029502 
L 47.756208 152.655213 
L 47.411587 152.28142 
L 47.074632 151.909167 
L 46.745122 151.539994 
L 46.422844 151.176131 
L 46.107594 150.820566 
L 45.799153 150.464562 
L 45.497199 150.080591 
L 45.201389 149.664797 
L 44.911412 149.215918 
L 44.626981 148.734008 
L 44.347832 148.220272 
L 44.073724 147.677383 
L 43.804435 147.110335 
L 43.53976 146.527511 
L 43.279511 145.939712 
L 43.023518 145.3545 
L 42.77162 144.772098 
L 42.523673 144.189064 
L 42.279543 143.602558 
L 42.039112 143.014371 
L 41.802365 142.434852 
L 41.569341 141.864129 
L 41.34007 141.301335 
L 41.114569 140.745924 
L 40.892849 140.197903 
L 40.674909 139.657777 
L 40.460743 139.126502 
L 40.250335 138.605521 
L 40.043666 138.096824 
L 39.84071 137.603031 
L 39.641435 137.12743 
L 39.445806 136.673917 
L 39.253784 136.246771 
L 39.065329 135.86143 
L 38.880499 135.596459 
L 38.699453 135.420913 
L 38.522328 135.331363 
L 38.349238 135.325268 
L 38.180269 135.400557 
L 38.015493 135.555278 
L 37.854959 135.78737 
L 37.698702 136.094652 
L 37.546743 136.475005 
L 37.399091 136.926563 
L 37.255744 137.44785 
L 37.116694 138.037844 
L 36.981922 138.696046 
L 36.851404 139.15107 
L 36.725044 139.888451 
L 36.602603 140.590977 
L 36.483844 141.257466 
L 36.368546 141.886869 
L 36.2565 142.47835 
L 36.147516 143.031325 
L 36.041413 143.545466 
L 35.938022 144.020701 
L 35.837188 144.457192 
L 35.738762 144.855317 
L 35.642606 145.215608 
L 35.548591 145.538627 
L 35.456596 145.824819 
L 35.366505 146.074451 
L 35.366505 143.482696 
L 35.366505 143.482696 
L 35.456596 143.233174 
L 35.548591 142.951345 
L 35.642606 142.636217 
L 35.738762 142.286922 
L 35.837188 141.902647 
L 35.938022 141.482484 
L 36.041413 141.025296 
L 36.147516 140.529656 
L 36.2565 139.993812 
L 36.368546 139.415669 
L 36.483844 138.792771 
L 36.602603 138.122301 
L 36.725044 137.401105 
L 36.851404 136.62577 
L 36.981922 135.551593 
L 37.116694 134.826481 
L 37.255744 134.187289 
L 37.399091 133.636413 
L 37.546743 133.175918 
L 37.698702 132.807605 
L 37.854959 132.533084 
L 38.015493 132.353906 
L 38.180269 132.271758 
L 38.349238 132.288648 
L 38.522328 132.406888 
L 38.699453 132.628868 
L 38.880499 132.956696 
L 39.065329 133.39178 
L 39.253784 133.879698 
L 39.445806 134.372368 
L 39.641435 134.870128 
L 39.84071 135.378073 
L 40.043666 135.900943 
L 40.250335 136.442891 
L 40.460743 137.007429 
L 40.674909 137.597465 
L 40.892849 138.215383 
L 41.114569 138.86311 
L 41.34007 139.542142 
L 41.569341 140.253506 
L 41.802365 140.997699 
L 42.039112 141.774918 
L 42.279543 142.58099 
L 42.523673 143.36499 
L 42.77162 144.110213 
L 43.023518 144.812615 
L 43.279511 145.46751 
L 43.53976 146.073856 
L 43.804435 146.637911 
L 44.073724 147.169138 
L 44.347832 147.674549 
L 44.626981 148.157725 
L 44.911412 148.619885 
L 45.201389 149.06074 
L 45.497199 149.478798 
L 45.799153 149.871202 
L 46.107594 150.233093 
L 46.422844 150.57504 
L 46.745122 150.911418 
L 47.074632 151.245297 
L 47.411587 151.57899 
L 47.756208 151.91412 
L 48.108721 152.251824 
L 48.469361 152.592898 
L 48.838373 152.937875 
L 49.216008 153.287041 
L 49.602525 153.640447 
L 49.998195 153.997892 
L 50.403295 154.358887 
L 50.818114 154.722598 
L 51.24295 155.087777 
L 51.678134 155.434678 
L 52.124134 155.765286 
L 52.581494 156.080918 
L 53.050804 156.381571 
L 53.532701 156.666867 
L 54.027881 156.936107 
L 54.537101 157.188317 
L 55.061183 157.422288 
L 55.601028 157.636599 
L 56.15762 157.829581 
L 56.732036 157.99917 
L 57.325458 158.142699 
L 57.939188 158.256696 
L 58.574656 158.336842 
L 59.233388 158.393266 
L 59.916503 158.47236 
L 60.624844 158.581519 
L 61.359248 158.723972 
L 62.120542 158.90216 
L 62.909529 159.118079 
L 63.726979 159.373606 
L 64.573613 159.670667 
L 65.450083 160.01125 
L 66.356955 160.397324 
L 67.29468 160.830748 
L 68.263569 161.313201 
L 69.263757 161.846099 
L 70.295164 162.430501 
L 71.357488 163.061841 
L 72.450984 163.697033 
L 73.576668 164.327934 
L 74.735633 164.95535 
L 75.929023 165.579577 
L 77.158034 166.200477 
L 78.423921 166.81757 
L 79.728001 167.430185 
L 81.071663 168.037677 
L 82.456371 168.639623 
L 83.883677 169.23585 
L 85.355226 169.82625 
L 86.872772 170.410514 
L 88.438184 170.987863 
L 90.053466 171.560387 
L 91.720541 172.135477 
L 93.441005 172.707585 
L 95.216418 173.278838 
L 97.048327 173.851148 
L 98.938258 174.426132 
L 100.887703 175.00509 
L 102.89811 175.589008 
L 104.97086 176.178559 
L 107.107261 176.774096 
L 109.308518 177.375635 
L 111.57572 177.982898 
L 113.909813 178.595537 
L 116.311572 179.213401 
L 118.781577 179.836523 
L 121.320387 180.456225 
L 123.929057 181.055445 
L 126.60876 181.633088 
L 129.360679 182.189101 
L 132.186026 182.725005 
L 135.086063 183.24347 
L 138.06213 183.747228 
L 141.115673 184.238312 
L 144.248294 184.717889 
L 147.461791 185.186435 
L 150.758223 185.643944 
L 154.139975 186.090035 
L 157.609845 186.523877 
L 161.171135 186.943931 
L 164.827438 187.354915 
L 168.580837 187.756292 
L 172.432737 188.14778 
L 176.38457 188.529878 
L 180.437822 188.903018 
L 184.594076 189.267464 
L 188.855054 189.623269 
L 193.222678 189.970278 
L 197.69914 190.308172 
L 202.286978 190.636529 
L 206.989179 190.954859 
L 211.809291 191.262565 
L 216.751558 191.558819 
L 221.821072 191.84239 
L 227.023719 192.115862 
L 232.363276 192.383072 
L 237.841645 192.643673 
L 243.46068 192.898164 
L 249.222265 193.146932 
L 255.128346 193.390198 
L 261.180996 193.628022 
L 267.382467 193.860349 
L 273.735278 194.087067 
L 280.242303 194.30805 
L 286.906888 194.523155 
L 293.732978 194.732169 
L 300.725277 194.934754 
L 307.889426 195.130372 
L 315.232115 195.322107 
L 322.757855 195.510627 
L 330.467319 195.69643 
L 338.36057 195.879822 
L 346.437285 196.06104 
L 354.696756 196.240234 
L 363.137898 196.417467 
L 371.759275 196.592709 
L 380.559127 196.765842 
L 389.535421 196.936674 
L 398.685916 197.10497 
L 408.008236 197.27051 
L 417.499979 197.433105 
L 427.158833 197.592523 
L 436.98274 197.758241 
L 446.973617 197.90905 
L 457.142966 198.046923 
L 467.507197 198.171221 
L 478.087447 198.28146 
L 488.910367 198.377357 
L 500.009043 198.458774 
L 511.424051 198.5256 
L 523.204723 198.57764 
L 535.410656 198.61455 
L 548.11356 198.635814 
L 561.399546 198.64075 
L 575.372001 198.628526 
L 590.155268 198.598156 
L 605.899402 198.548487 
z
" style="fill:#8ab975;stroke:#8ab975;"/>
   </g>
   <g id="PolyCollection_4">
    <path clip-path="url(#p206bc1d202)" d="M 537.537395 171.177918 
L 537.537395 171.481519 
L 524.121246 171.520603 
L 511.492421 171.53967 
L 499.526235 171.539659 
L 488.119112 171.521428 
L 477.184784 171.485761 
L 466.651337 171.43339 
L 456.4589 171.365019 
L 446.557789 171.281352 
L 436.907004 171.1831 
L 427.472993 171.070976 
L 418.228611 170.9457 
L 409.152235 170.807992 
L 400.227 170.658566 
L 391.440124 170.498129 
L 382.783812 170.343125 
L 374.263762 170.169785 
L 365.890065 169.99664 
L 357.671255 169.82373 
L 349.614391 169.651139 
L 341.725163 169.478983 
L 334.00801 169.307408 
L 326.466228 169.13659 
L 319.102083 168.966726 
L 311.91691 168.798035 
L 304.911221 168.630775 
L 298.084794 168.465273 
L 291.436763 168.301952 
L 284.9657 168.141303 
L 278.669456 167.981648 
L 272.541784 167.814035 
L 266.574098 167.638048 
L 260.758902 167.453696 
L 255.089716 167.261255 
L 249.560918 167.061181 
L 244.167608 166.854108 
L 238.905493 166.640897 
L 233.770782 166.422704 
L 228.760103 166.200978 
L 223.870423 165.977267 
L 219.098989 165.752813 
L 214.443272 165.528269 
L 209.900919 165.303791 
L 205.469663 165.077349 
L 201.144793 164.831881 
L 196.918784 164.564418 
L 192.785252 164.276046 
L 188.739061 163.967859 
L 184.776131 163.640964 
L 180.893264 163.296586 
L 177.087991 162.936115 
L 173.358448 162.56112 
L 169.703252 162.173344 
L 166.121408 161.774679 
L 162.612214 161.367084 
L 159.175194 160.952436 
L 155.810025 160.532367 
L 152.51649 160.10742 
L 149.294748 159.672773 
L 146.145694 159.23116 
L 143.070063 158.782737 
L 140.0683 158.328207 
L 137.140583 157.868533 
L 134.286842 157.404896 
L 131.506784 156.938849 
L 128.799912 156.472552 
L 126.165551 156.008939 
L 123.602865 155.551583 
L 121.110877 155.1041 
L 118.68849 154.669239 
L 116.334501 154.248298 
L 114.047621 153.841331 
L 111.826382 153.430039 
L 109.668801 153.005102 
L 107.572846 152.566942 
L 105.536595 152.116145 
L 103.558225 151.65321 
L 101.636 151.178626 
L 99.768258 150.693161 
L 97.953404 150.198033 
L 96.189903 149.694955 
L 94.476274 149.186143 
L 92.811082 148.674299 
L 91.192942 148.162539 
L 89.620503 147.654209 
L 88.092459 147.152583 
L 86.607497 146.646338 
L 85.164 146.12059 
L 83.760285 145.576176 
L 82.394811 145.013299 
L 81.066165 144.432734 
L 79.773044 143.835304 
L 78.514243 143.221496 
L 77.288643 142.591385 
L 76.095195 141.944854 
L 74.932918 141.281844 
L 73.800886 140.602513 
L 72.698223 139.907292 
L 71.624095 139.196916 
L 70.57771 138.472455 
L 69.558347 137.744088 
L 68.566162 137.067728 
L 67.601955 136.44985 
L 66.66625 135.8871 
L 65.759301 135.37655 
L 64.881139 134.915623 
L 64.03161 134.502049 
L 63.210406 134.133858 
L 62.417098 133.809393 
L 61.651161 133.527349 
L 60.911994 133.286797 
L 60.198937 133.08717 
L 59.511291 132.928321 
L 58.848328 132.811014 
L 58.209298 132.735309 
L 57.59311 132.660936 
L 56.998175 132.57122 
L 56.423 132.462765 
L 55.866234 132.332033 
L 55.326656 132.176219 
L 54.803156 131.993576 
L 54.294726 131.783371 
L 53.800449 131.545736 
L 53.319488 131.281566 
L 52.85108 130.992458 
L 52.394526 130.680694 
L 51.949188 130.349191 
L 51.514481 130.001343 
L 51.089868 129.641269 
L 50.674895 129.284678 
L 50.269266 128.927417 
L 49.872721 128.567595 
L 49.485008 128.204422 
L 49.105882 127.837688 
L 48.735107 127.467446 
L 48.372451 127.093894 
L 48.017693 126.717424 
L 47.670616 126.33874 
L 47.33101 125.958965 
L 46.998672 125.579727 
L 46.673406 125.2032 
L 46.35502 124.832077 
L 46.04333 124.469416 
L 45.738143 124.121659 
L 45.439194 123.752466 
L 45.146209 123.357017 
L 44.85893 122.93496 
L 44.577123 122.486784 
L 44.300566 122.013516 
L 44.029057 121.51655 
L 43.762406 120.997614 
L 43.500436 120.458894 
L 43.242985 119.903244 
L 42.989899 119.33438 
L 42.741037 118.756913 
L 42.496265 118.176105 
L 42.25546 117.597226 
L 42.018513 117.040229 
L 41.785401 116.51212 
L 41.55615 116.001832 
L 41.330776 115.50649 
L 41.109286 115.024403 
L 40.891678 114.554365 
L 40.677942 114.095277 
L 40.46806 113.64606 
L 40.262008 113.205746 
L 40.059757 112.773569 
L 39.861273 112.349003 
L 39.666518 111.931783 
L 39.475448 111.521929 
L 39.288018 111.119807 
L 39.104182 110.737767 
L 38.923927 110.441817 
L 38.747282 110.189101 
L 38.574265 109.97721 
L 38.404886 109.804197 
L 38.239143 109.668466 
L 38.077027 109.56871 
L 37.918523 109.503864 
L 37.763606 109.4731 
L 37.61225 109.475835 
L 37.464421 109.511751 
L 37.320082 109.580782 
L 37.179192 109.683058 
L 37.041709 109.819061 
L 36.907586 109.964062 
L 36.776755 110.154863 
L 36.649107 110.364571 
L 36.52453 110.593856 
L 36.402919 110.841552 
L 36.284174 111.104394 
L 36.168199 111.37798 
L 36.054902 111.658082 
L 35.944197 111.941377 
L 35.836 112.22552 
L 35.730231 112.508943 
L 35.626813 112.790623 
L 35.525675 113.069907 
L 35.426745 113.346407 
L 35.329958 113.619927 
L 35.329958 112.618083 
L 35.329958 112.618083 
L 35.426745 112.351483 
L 35.525675 112.090482 
L 35.626813 111.834807 
L 35.730231 111.583982 
L 35.836 111.337268 
L 35.944197 111.09355 
L 36.054902 110.851161 
L 36.168199 110.607656 
L 36.284174 110.359604 
L 36.402919 110.102666 
L 36.52453 109.832322 
L 36.649107 109.545182 
L 36.776755 109.23995 
L 36.907586 108.917161 
L 37.041709 108.57196 
L 37.179192 108.28986 
L 37.320082 108.049215 
L 37.464421 107.852019 
L 37.61225 107.699987 
L 37.763606 107.594709 
L 37.918523 107.537599 
L 38.077027 107.529884 
L 38.239143 107.572621 
L 38.404886 107.666713 
L 38.574265 107.812899 
L 38.747282 108.011712 
L 38.923927 108.263414 
L 39.104182 108.56789 
L 39.288018 108.873623 
L 39.475448 109.198039 
L 39.666518 109.548149 
L 39.861273 109.925167 
L 40.059757 110.329987 
L 40.262008 110.763245 
L 40.46806 111.225347 
L 40.677942 111.716487 
L 40.891678 112.236684 
L 41.109286 112.78588 
L 41.330776 113.364019 
L 41.55615 113.970976 
L 41.785401 114.606162 
L 42.018513 115.267839 
L 42.25546 115.941331 
L 42.496265 116.579656 
L 42.741037 117.186645 
L 42.989899 117.76674 
L 43.242985 118.324355 
L 43.500436 118.863229 
L 43.762406 119.386183 
L 44.029057 119.895151 
L 44.300566 120.391372 
L 44.577123 120.875602 
L 44.85893 121.348229 
L 45.146209 121.809248 
L 45.439194 122.258083 
L 45.738143 122.69328 
L 46.04333 123.109331 
L 46.35502 123.496393 
L 46.673406 123.876983 
L 46.998672 124.254216 
L 47.33101 124.630846 
L 47.670616 125.009108 
L 48.017693 125.390695 
L 48.372451 125.776797 
L 48.735107 126.168186 
L 49.105882 126.565326 
L 49.485008 126.96849 
L 49.872721 127.377807 
L 50.269266 127.793147 
L 50.674895 128.213804 
L 51.089868 128.637973 
L 51.514481 129.042156 
L 51.949188 129.415736 
L 52.394526 129.761333 
L 52.85108 130.080902 
L 53.319488 130.375858 
L 53.800449 130.646913 
L 54.294726 130.89402 
L 54.803156 131.116348 
L 55.326656 131.312218 
L 55.866234 131.478986 
L 56.423 131.612886 
L 56.998175 131.708974 
L 57.59311 131.76144 
L 58.209298 131.764466 
L 58.848328 131.735239 
L 59.511291 131.733996 
L 60.198937 131.76931 
L 60.911994 131.844883 
L 61.651161 131.963706 
L 62.417098 132.128559 
L 63.210406 132.342073 
L 64.03161 132.606731 
L 64.881139 132.924902 
L 65.759301 133.298877 
L 66.66625 133.730898 
L 67.601955 134.223149 
L 68.566162 134.777708 
L 69.558347 135.396469 
L 70.57771 136.072926 
L 71.624095 136.755418 
L 72.698223 137.435055 
L 73.800886 138.11199 
L 74.932918 138.785987 
L 76.095195 139.456465 
L 77.288643 140.122518 
L 78.514243 140.782973 
L 79.773044 141.436541 
L 81.066165 142.082075 
L 82.394811 142.718776 
L 83.760285 143.346123 
L 85.164 143.963485 
L 86.607497 144.56959 
L 88.092459 145.164774 
L 89.620503 145.750894 
L 91.192942 146.322599 
L 92.811082 146.882686 
L 94.476274 147.433993 
L 96.189903 147.979097 
L 97.953404 148.520133 
L 99.768258 149.058715 
L 101.636 149.595918 
L 103.558225 150.132286 
L 105.536595 150.667878 
L 107.572846 151.20243 
L 109.668801 151.735648 
L 111.826382 152.267282 
L 114.047621 152.796912 
L 116.334501 153.323635 
L 118.68849 153.835888 
L 121.110877 154.333559 
L 123.602865 154.817764 
L 126.165551 155.291047 
L 128.799912 155.7568 
L 131.506784 156.218345 
L 134.286842 156.678337 
L 137.140583 157.138632 
L 140.0683 157.600446 
L 143.070063 158.064588 
L 146.145694 158.531618 
L 149.294748 159.001796 
L 152.51649 159.474793 
L 155.810025 159.947805 
L 159.175194 160.406552 
L 162.612214 160.850117 
L 166.121408 161.278752 
L 169.703252 161.692889 
L 173.358448 162.092982 
L 177.087991 162.479356 
L 180.893264 162.852131 
L 184.776131 163.211186 
L 188.739061 163.556166 
L 192.785252 163.886488 
L 196.918784 164.201391 
L 201.144793 164.500039 
L 205.469663 164.781523 
L 209.900919 165.047944 
L 214.443272 165.306047 
L 219.098989 165.555465 
L 223.870423 165.795828 
L 228.760103 166.027231 
L 233.770782 166.250339 
L 238.905493 166.46609 
L 244.167608 166.675301 
L 249.560918 166.878462 
L 255.089716 167.075743 
L 260.758902 167.267055 
L 266.574098 167.452101 
L 272.541784 167.630373 
L 278.669456 167.801061 
L 284.9657 167.96463 
L 291.436763 168.12562 
L 298.084794 168.285406 
L 304.911221 168.444499 
L 311.91691 168.603333 
L 319.102083 168.762246 
L 326.466228 168.921498 
L 334.00801 169.081302 
L 341.725163 169.241843 
L 349.614391 169.403274 
L 357.671255 169.565709 
L 365.890065 169.729222 
L 374.263762 169.893835 
L 382.783812 170.059519 
L 391.440124 170.244186 
L 400.227 170.40826 
L 409.152235 170.559949 
L 418.228611 170.698704 
L 427.472993 170.823962 
L 436.907004 170.935131 
L 446.557789 171.031581 
L 456.4589 171.112641 
L 466.651337 171.177577 
L 477.184784 171.225589 
L 488.119112 171.255792 
L 499.526235 171.267224 
L 511.492421 171.258839 
L 524.121246 171.229498 
L 537.537395 171.177918 
z
" style="fill:#feda1e;stroke:#feda1e;"/>
   </g>
   <g id="PolyCollection_5">
    <path clip-path="url(#p206bc1d202)" d="M 454.359153 143.434855 
L 454.359153 143.781338 
L 443.30423 143.826217 
L 432.893409 143.850442 
L 423.030826 143.854958 
L 413.636291 143.840664 
L 404.64251 143.808421 
L 395.992901 143.759053 
L 387.639883 143.693352 
L 379.543493 143.6121 
L 371.67027 143.516089 
L 363.992327 143.406137 
L 356.486586 143.28309 
L 349.13412 143.147812 
L 341.919599 143.001161 
L 334.830798 142.843953 
L 327.859143 142.689449 
L 321.005234 142.519168 
L 314.272983 142.347778 
L 307.665727 142.175269 
L 301.186233 142.001731 
L 294.836721 141.827311 
L 288.618892 141.652176 
L 282.533962 141.476495 
L 276.582694 141.300452 
L 270.76543 141.12428 
L 265.082124 140.948294 
L 259.532379 140.772898 
L 254.115474 140.598579 
L 248.830399 140.425857 
L 243.675785 140.254011 
L 238.648444 140.075953 
L 233.744105 139.892285 
L 228.958894 139.703032 
L 224.28931 139.508412 
L 219.732169 139.308735 
L 215.28455 139.104353 
L 210.943757 138.895646 
L 206.707275 138.683054 
L 202.572747 138.467113 
L 198.537939 138.248483 
L 194.600721 138.027941 
L 190.759048 137.806343 
L 187.010946 137.584528 
L 183.354459 137.361603 
L 179.786094 137.123604 
L 176.300559 136.867487 
L 172.893219 136.593664 
L 169.560176 136.302956 
L 166.29816 135.996462 
L 163.10444 135.675586 
L 159.976736 135.342195 
L 156.913152 134.998863 
L 153.912108 134.648996 
L 150.972285 134.296397 
L 148.092578 133.944055 
L 145.272053 133.593209 
L 142.509908 133.243739 
L 139.805445 132.894748 
L 137.158343 132.540557 
L 134.56902 132.18095 
L 132.03781 131.816145 
L 129.564841 131.446362 
L 127.150055 131.071933 
L 124.793227 130.693545 
L 122.493981 130.312313 
L 120.251809 129.929808 
L 118.066089 129.548071 
L 115.936093 129.16958 
L 113.861008 128.797105 
L 111.839945 128.433393 
L 109.871951 128.080775 
L 107.956021 127.740849 
L 106.090773 127.389728 
L 104.273302 127.005438 
L 102.500619 126.588642 
L 100.770161 126.14072 
L 99.07973 125.663334 
L 97.427443 125.158053 
L 95.811685 124.626339 
L 94.231075 124.069762 
L 92.684426 123.490198 
L 91.170717 122.889945 
L 89.68907 122.271765 
L 88.23872 121.638887 
L 86.819002 120.994939 
L 85.429327 120.343787 
L 84.069259 119.68989 
L 82.739197 119.048341 
L 81.439819 118.419145 
L 80.171576 117.801099 
L 78.934717 117.193711 
L 77.729316 116.59679 
L 76.555295 116.010079 
L 75.412448 115.433071 
L 74.300458 114.865078 
L 73.218918 114.305495 
L 72.167343 113.754053 
L 71.145188 113.211002 
L 70.151855 112.677234 
L 69.186709 112.154391 
L 68.249095 111.648631 
L 67.338597 111.176731 
L 66.454975 110.73677 
L 65.597893 110.325609 
L 64.76693 109.940906 
L 63.96159 109.580926 
L 63.181323 109.24436 
L 62.425535 108.930129 
L 61.693602 108.63718 
L 60.984873 108.364386 
L 60.298687 108.110634 
L 59.63437 107.875073 
L 58.99125 107.65738 
L 58.368654 107.458042 
L 57.765914 107.28039 
L 57.182189 107.107602 
L 56.616372 106.92155 
L 56.067419 106.719798 
L 55.534374 106.500581 
L 55.01636 106.262805 
L 54.512569 106.005973 
L 54.022258 105.730101 
L 53.544744 105.435619 
L 53.079394 105.123304 
L 52.625624 104.794254 
L 52.182892 104.449998 
L 51.750698 104.092753 
L 51.328575 103.725758 
L 50.916092 103.353904 
L 50.512839 102.984203 
L 50.118417 102.606727 
L 49.732451 102.217778 
L 49.354594 101.814866 
L 48.984523 101.396502 
L 48.621937 100.961865 
L 48.266557 100.510543 
L 47.918121 100.042406 
L 47.576387 99.55759 
L 47.241127 99.056511 
L 46.912128 98.539899 
L 46.589189 98.008836 
L 46.272125 97.464822 
L 45.960759 96.909862 
L 45.654943 96.371322 
L 45.354638 95.84979 
L 45.059835 95.340591 
L 44.770513 94.842439 
L 44.48664 94.354732 
L 44.208177 93.87744 
L 43.935075 93.4111 
L 43.667279 92.956905 
L 43.404726 92.516884 
L 43.147349 92.094141 
L 42.895078 91.692975 
L 42.647837 91.318509 
L 42.405546 90.975478 
L 42.168124 90.666658 
L 41.935482 90.382956 
L 41.707451 90.081141 
L 41.483822 89.752687 
L 41.264399 89.395844 
L 41.049 89.009807 
L 40.837455 88.59428 
L 40.629608 88.149405 
L 40.425313 87.675698 
L 40.224434 87.173997 
L 40.026845 86.64543 
L 39.832428 86.091428 
L 39.641074 85.513764 
L 39.452679 84.914627 
L 39.267149 84.296704 
L 39.084399 83.678346 
L 38.904469 83.160965 
L 38.727531 82.719335 
L 38.553741 82.350803 
L 38.383228 82.053455 
L 38.216102 81.825961 
L 38.052452 81.66751 
L 37.892349 81.577781 
L 37.735848 81.556955 
L 37.58299 81.605788 
L 37.433803 81.725784 
L 37.288304 81.919415 
L 37.146502 82.190215 
L 37.008394 82.542501 
L 36.873972 82.897386 
L 36.743178 83.371435 
L 36.61586 83.843613 
L 36.491863 84.308027 
L 36.371043 84.760924 
L 36.253264 85.199939 
L 36.138395 85.623507 
L 36.026316 86.030527 
L 35.916912 86.420222 
L 35.810074 86.792078 
L 35.705699 87.145795 
L 35.603691 87.481243 
L 35.503956 87.798417 
L 35.406407 88.097409 
L 35.310962 88.378384 
L 35.310962 85.152317 
L 35.310962 85.152317 
L 35.406407 84.89447 
L 35.503956 84.635459 
L 35.603691 84.374982 
L 35.705699 84.112641 
L 35.810074 83.84792 
L 35.916912 83.580154 
L 36.026316 83.308482 
L 36.138395 83.031801 
L 36.253264 82.748719 
L 36.371043 82.457485 
L 36.491863 82.155854 
L 36.61586 81.840743 
L 36.743178 81.507645 
L 36.873972 81.149873 
L 37.008394 80.693511 
L 37.146502 80.359888 
L 37.288304 80.076231 
L 37.433803 79.849569 
L 37.58299 79.686287 
L 37.735848 79.591848 
L 37.892349 79.570885 
L 38.052452 79.62743 
L 38.216102 79.765077 
L 38.383228 79.987058 
L 38.553741 80.296249 
L 38.727531 80.69514 
L 38.904469 81.185763 
L 39.084399 81.769528 
L 39.267149 82.391172 
L 39.452679 82.998147 
L 39.641074 83.58884 
L 39.832428 84.165034 
L 40.026845 84.727996 
L 40.224434 85.278555 
L 40.425313 85.81717 
L 40.629608 86.343974 
L 40.837455 86.858781 
L 41.049 87.361057 
L 41.264399 87.84986 
L 41.483822 88.323782 
L 41.707451 88.780867 
L 41.935482 89.218182 
L 42.168124 89.630625 
L 42.405546 90.027472 
L 42.647837 90.415217 
L 42.895078 90.797309 
L 43.147349 91.179183 
L 43.404726 91.566686 
L 43.667279 91.964865 
L 43.935075 92.377596 
L 44.208177 92.807707 
L 44.48664 93.257213 
L 44.770513 93.727502 
L 45.059835 94.219421 
L 45.354638 94.733268 
L 45.654943 95.268686 
L 45.960759 95.821374 
L 46.272125 96.357042 
L 46.589189 96.881659 
L 46.912128 97.396567 
L 47.241127 97.902583 
L 47.576387 98.400087 
L 47.918121 98.889081 
L 48.266557 99.369236 
L 48.621937 99.839916 
L 48.984523 100.300196 
L 49.354594 100.748841 
L 49.732451 101.184181 
L 50.118417 101.603849 
L 50.512839 102.004445 
L 50.916092 102.381331 
L 51.328575 102.726661 
L 51.750698 103.05059 
L 52.182892 103.357204 
L 52.625624 103.64888 
L 53.079394 103.926941 
L 53.544744 104.191981 
L 54.022258 104.444125 
L 54.512569 104.683129 
L 55.01636 104.908359 
L 55.534374 105.118709 
L 56.067419 105.312508 
L 56.616372 105.487423 
L 57.182189 105.640385 
L 57.765914 105.767577 
L 58.368654 105.869944 
L 58.99125 105.98722 
L 59.63437 106.12739 
L 60.298687 106.292425 
L 60.984873 106.483581 
L 61.693602 106.70167 
L 62.425535 106.947344 
L 63.181323 107.221341 
L 63.96159 107.524577 
L 64.76693 107.858055 
L 65.597893 108.222662 
L 66.454975 108.618981 
L 67.338597 109.047107 
L 68.249095 109.506467 
L 69.186709 109.991862 
L 70.151855 110.486299 
L 71.145188 110.990907 
L 72.167343 111.508222 
L 73.218918 112.04007 
L 74.300458 112.587675 
L 75.412448 113.15178 
L 76.555295 113.732832 
L 77.729316 114.331235 
L 78.934717 114.947607 
L 80.171576 115.582857 
L 81.439819 116.237989 
L 82.739197 116.913739 
L 84.069259 117.610154 
L 85.429327 118.325895 
L 86.819002 119.031424 
L 88.23872 119.713458 
L 89.68907 120.374157 
L 91.170717 121.015378 
L 92.684426 121.638506 
L 94.231075 122.24439 
L 95.811685 122.833341 
L 97.427443 123.405178 
L 99.07973 123.959333 
L 100.770161 124.495058 
L 102.500619 125.011626 
L 104.273302 125.508323 
L 106.090773 125.984061 
L 107.956021 126.437094 
L 109.871951 126.877214 
L 111.839945 127.305954 
L 113.861008 127.724891 
L 115.936093 128.136331 
L 118.066089 128.54299 
L 120.251809 128.947594 
L 122.493981 129.352569 
L 124.793227 129.759895 
L 127.150055 130.171068 
L 129.564841 130.587116 
L 132.03781 131.008621 
L 134.56902 131.435801 
L 137.158343 131.868738 
L 139.805445 132.307495 
L 142.509908 132.745898 
L 145.272053 133.16785 
L 148.092578 133.57133 
L 150.972285 133.955214 
L 153.912108 134.319692 
L 156.913152 134.666667 
L 159.976736 134.998807 
L 163.10444 135.318346 
L 166.29816 135.626642 
L 169.560176 135.924302 
L 172.893219 136.211423 
L 176.300559 136.487757 
L 179.786094 136.752727 
L 183.354459 137.005298 
L 187.010946 137.24666 
L 190.759048 137.4821 
L 194.600721 137.712154 
L 198.537939 137.937331 
L 202.572747 138.158136 
L 206.707275 138.374983 
L 210.943757 138.588149 
L 215.28455 138.797768 
L 219.732169 139.00386 
L 224.28931 139.206365 
L 228.958894 139.405176 
L 233.744105 139.600123 
L 238.648444 139.790922 
L 243.675785 139.977075 
L 248.830399 140.15964 
L 254.115474 140.339255 
L 259.532379 140.51688 
L 265.082124 140.692953 
L 270.76543 140.86787 
L 276.582694 141.041939 
L 282.533962 141.215366 
L 288.618892 141.388266 
L 294.836721 141.560696 
L 301.186233 141.732686 
L 307.665727 141.904251 
L 314.272983 142.075375 
L 321.005234 142.245971 
L 327.859143 142.415839 
L 334.830798 142.598962 
L 341.919599 142.762445 
L 349.13412 142.91201 
L 356.486586 143.047256 
L 363.992327 143.167795 
L 371.67027 143.273206 
L 379.543493 143.363013 
L 387.639883 143.436659 
L 395.992901 143.493503 
L 404.64251 143.53282 
L 413.636291 143.553807 
L 423.030826 143.555572 
L 432.893409 143.537122 
L 443.30423 143.497322 
L 454.359153 143.434855 
z
" style="fill:#ffca53;stroke:#ffca53;"/>
   </g>
   <g id="PolyCollection_6">
    <path clip-path="url(#p206bc1d202)" d="M 372.378802 115.649387 
L 372.378802 116.113719 
L 364.042283 116.158895 
L 356.155958 116.179842 
L 348.652093 116.17757 
L 341.47367 116.153055 
L 334.572587 116.107243 
L 327.908241 116.041041 
L 321.446396 115.955321 
L 315.158266 115.850934 
L 309.019763 115.728737 
L 303.010877 115.589608 
L 297.11514 115.434466 
L 291.319182 115.264262 
L 285.612328 115.079973 
L 279.986257 114.882577 
L 274.436035 114.694305 
L 268.968056 114.491633 
L 263.592177 114.295585 
L 258.316508 114.105793 
L 253.147558 113.922007 
L 248.090409 113.744064 
L 243.14888 113.571872 
L 238.325678 113.405394 
L 233.622542 113.244645 
L 229.040371 113.089723 
L 224.579343 112.940847 
L 220.239019 112.798391 
L 216.018444 112.662852 
L 211.916223 112.534753 
L 207.930375 112.411433 
L 204.055015 112.276363 
L 200.281944 112.12854 
L 196.60396 111.96804 
L 193.01482 111.795214 
L 189.50912 111.610544 
L 186.08218 111.414585 
L 182.72996 111.20797 
L 179.448966 110.99145 
L 176.236187 110.765919 
L 173.089023 110.532422 
L 170.005231 110.292137 
L 166.982876 110.046304 
L 164.020281 109.796122 
L 161.116001 109.542457 
L 158.269092 109.284344 
L 155.479138 109.021461 
L 152.74574 108.753733 
L 150.068464 108.481396 
L 147.446845 108.204818 
L 144.880383 107.924405 
L 142.368541 107.640605 
L 139.910748 107.353966 
L 137.506397 107.065209 
L 135.154846 106.775269 
L 132.855421 106.485296 
L 130.60742 106.196599 
L 128.410108 105.910513 
L 126.262727 105.627978 
L 124.164126 105.337514 
L 122.112291 105.031991 
L 120.105299 104.711344 
L 118.141456 104.376087 
L 116.219266 104.027033 
L 114.337404 103.66514 
L 112.494694 103.29148 
L 110.690086 102.907318 
L 108.922639 102.514218 
L 107.191503 102.114115 
L 105.495907 101.709289 
L 103.835146 101.302209 
L 102.208567 100.895232 
L 100.615563 100.490259 
L 99.055565 100.082467 
L 97.528038 99.665096 
L 96.032472 99.237403 
L 94.568373 98.79956 
L 93.135258 98.352149 
L 91.732657 97.895872 
L 90.360102 97.431513 
L 89.017131 96.960067 
L 87.703284 96.482886 
L 86.418103 96.001772 
L 85.161127 95.519003 
L 83.931897 95.037261 
L 82.729949 94.559439 
L 81.55482 94.088307 
L 80.406047 93.623601 
L 79.2832 93.156442 
L 78.185853 92.684507 
L 77.113575 92.207175 
L 76.065921 91.72438 
L 75.042442 91.236169 
L 74.042681 90.742432 
L 73.066177 90.242883 
L 72.112466 89.737207 
L 71.18108 89.225213 
L 70.271553 88.706913 
L 69.383417 88.182553 
L 68.516207 87.652647 
L 67.669457 87.11802 
L 66.842718 86.588545 
L 66.035776 86.08188 
L 65.248601 85.593327 
L 64.481096 85.121295 
L 63.733097 84.664581 
L 63.004384 84.222288 
L 62.294688 83.793789 
L 61.603702 83.378705 
L 60.931087 82.976912 
L 60.276477 82.588541 
L 59.639487 82.213977 
L 59.019714 81.853889 
L 58.416747 81.509465 
L 57.830165 81.182919 
L 57.259542 80.877627 
L 56.704328 80.581211 
L 56.163793 80.283775 
L 55.637239 79.981319 
L 55.124017 79.6705 
L 54.623528 79.348912 
L 54.135215 79.01496 
L 53.658558 78.667661 
L 53.193073 78.306487 
L 52.738311 77.931284 
L 52.293849 77.542238 
L 51.859293 77.139854 
L 51.434274 76.724981 
L 51.018446 76.298864 
L 50.611483 75.864251 
L 50.213098 75.439934 
L 49.82307 75.015849 
L 49.441197 74.590839 
L 49.067281 74.164222 
L 48.701129 73.735671 
L 48.342551 73.305139 
L 47.991362 72.872795 
L 47.647383 72.43898 
L 47.310436 72.00418 
L 46.980351 71.569054 
L 46.65696 71.13454 
L 46.3401 70.702036 
L 46.029611 70.27356 
L 45.725338 69.851784 
L 45.427126 69.441668 
L 45.134807 69.030326 
L 44.848208 68.613715 
L 44.567168 68.190246 
L 44.291531 67.75931 
L 44.021146 67.320994 
L 43.755873 66.875951 
L 43.495572 66.425409 
L 43.240114 65.971264 
L 42.98937 65.516179 
L 42.743221 65.063509 
L 42.501549 64.616908 
L 42.264242 64.179603 
L 42.031191 63.753683 
L 41.802296 63.344119 
L 41.577492 62.946273 
L 41.356735 62.554744 
L 41.139979 62.168415 
L 40.927175 61.786722 
L 40.71827 61.409267 
L 40.51321 61.035774 
L 40.311938 60.666185 
L 40.114397 60.300734 
L 39.920525 59.93999 
L 39.730263 59.584905 
L 39.54355 59.236865 
L 39.360322 58.897756 
L 39.180518 58.570003 
L 39.004076 58.263483 
L 38.830962 58.015016 
L 38.661176 57.793413 
L 38.494709 57.596911 
L 38.331549 57.424544 
L 38.171677 57.275916 
L 38.015069 57.151054 
L 37.861696 57.050306 
L 37.711528 56.974293 
L 37.564528 56.923976 
L 37.420659 56.900822 
L 37.27988 56.906994 
L 37.142149 56.945439 
L 37.007423 57.019805 
L 36.875656 57.027914 
L 36.746794 57.184365 
L 36.62077 57.363005 
L 36.497518 57.558803 
L 36.37697 57.768302 
L 36.259062 57.989157 
L 36.143731 58.219707 
L 36.030917 58.458668 
L 35.92056 58.704972 
L 35.812601 58.957716 
L 35.706984 59.216155 
L 35.603654 59.479694 
L 35.502558 59.747872 
L 35.403643 60.020338 
L 35.306859 60.296833 
L 35.306859 57.421705 
L 35.306859 57.421705 
L 35.403643 57.164343 
L 35.502558 56.925079 
L 35.603654 56.703928 
L 35.706984 56.500826 
L 35.812601 56.31561 
L 35.92056 56.147995 
L 36.030917 55.997562 
L 36.143731 55.863746 
L 36.259062 55.745832 
L 36.37697 55.642904 
L 36.497518 55.553684 
L 36.62077 55.476228 
L 36.746794 55.407495 
L 36.875656 55.342889 
L 37.007423 55.164089 
L 37.142149 55.102421 
L 37.27988 55.057267 
L 37.420659 55.033326 
L 37.564528 55.034648 
L 37.711528 55.064537 
L 37.861696 55.12565 
L 38.015069 55.220184 
L 38.171677 55.350047 
L 38.331549 55.516919 
L 38.494709 55.722212 
L 38.661176 55.966964 
L 38.830962 56.251697 
L 39.004076 56.576187 
L 39.180518 56.902488 
L 39.360322 57.230468 
L 39.54355 57.56579 
L 39.730263 57.911334 
L 39.920525 58.269458 
L 40.114397 58.642033 
L 40.311938 59.030514 
L 40.51321 59.435989 
L 40.71827 59.859226 
L 40.927175 60.300718 
L 41.139979 60.760757 
L 41.356735 61.239532 
L 41.577492 61.737083 
L 41.802296 62.252915 
L 42.031191 62.780212 
L 42.264242 63.291227 
L 42.501549 63.784154 
L 42.743221 64.260899 
L 42.98937 64.724497 
L 43.240114 65.17841 
L 43.495572 65.62579 
L 43.755873 66.069093 
L 44.021146 66.510002 
L 44.291531 66.949523 
L 44.567168 67.388082 
L 44.848208 67.825532 
L 45.134807 68.26102 
L 45.427126 68.692708 
L 45.725338 69.116408 
L 46.029611 69.526089 
L 46.3401 69.93088 
L 46.65696 70.333505 
L 46.980351 70.736032 
L 47.310436 71.139912 
L 47.647383 71.546138 
L 47.991362 71.955426 
L 48.342551 72.368319 
L 48.701129 72.785219 
L 49.067281 73.206358 
L 49.441197 73.63175 
L 49.82307 74.061138 
L 50.213098 74.493905 
L 50.611483 74.928966 
L 51.018446 75.347557 
L 51.434274 75.756631 
L 51.859293 76.158315 
L 52.293849 76.553261 
L 52.738311 76.941704 
L 53.193073 77.323513 
L 53.658558 77.698211 
L 54.135215 78.064959 
L 54.623528 78.422515 
L 55.124017 78.769148 
L 55.637239 79.102492 
L 56.163793 79.41933 
L 56.704328 79.715474 
L 57.259542 79.986042 
L 57.830165 80.234166 
L 58.416747 80.48595 
L 59.019714 80.747929 
L 59.639487 81.023314 
L 60.276477 81.314338 
L 60.931087 81.622767 
L 61.603702 81.950129 
L 62.294688 82.297756 
L 63.004384 82.666776 
L 63.733097 83.058122 
L 64.481096 83.472531 
L 65.248601 83.910532 
L 66.035776 84.372404 
L 66.842718 84.858097 
L 67.669457 85.358804 
L 68.516207 85.858898 
L 69.383417 86.362514 
L 70.271553 86.870374 
L 71.18108 87.38288 
L 72.112466 87.90016 
L 73.066177 88.422095 
L 74.042681 88.948359 
L 75.042442 89.478491 
L 76.065921 90.012048 
L 77.113575 90.548753 
L 78.185853 91.088475 
L 79.2832 91.63096 
L 80.406047 92.175383 
L 81.55482 92.719087 
L 82.729949 93.250873 
L 83.931897 93.769379 
L 85.161127 94.276989 
L 86.418103 94.776191 
L 87.703284 95.269245 
L 89.017131 95.757982 
L 90.360102 96.243735 
L 91.732657 96.727366 
L 93.135258 97.209355 
L 94.568373 97.689947 
L 96.032472 98.169279 
L 97.528038 98.647344 
L 99.055565 99.123697 
L 100.615563 99.596951 
L 102.208567 100.059529 
L 103.835146 100.505788 
L 105.495907 100.93689 
L 107.191503 101.354422 
L 108.922639 101.760051 
L 110.690086 102.155227 
L 112.494694 102.54102 
L 114.337404 102.918098 
L 116.219266 103.286796 
L 118.141456 103.647224 
L 120.105299 103.999341 
L 122.112291 104.342926 
L 124.164126 104.677421 
L 126.262727 105.001654 
L 128.410108 105.316248 
L 130.60742 105.624206 
L 132.855421 105.926519 
L 135.154846 106.224319 
L 137.506397 106.518697 
L 139.910748 106.810576 
L 142.368541 107.100649 
L 144.880383 107.389382 
L 147.446845 107.677055 
L 150.068464 107.963831 
L 152.74574 108.249819 
L 155.479138 108.535074 
L 158.269092 108.8195 
L 161.116001 109.102678 
L 164.020281 109.382383 
L 166.982876 109.651697 
L 170.005231 109.910303 
L 173.089023 110.158656 
L 176.236187 110.397233 
L 179.448966 110.626417 
L 182.72996 110.846434 
L 186.08218 111.057333 
L 189.50912 111.258986 
L 193.01482 111.451122 
L 196.60396 111.633357 
L 200.281944 111.805202 
L 204.055015 111.966 
L 207.930375 112.114778 
L 211.916223 112.252665 
L 216.018444 112.38866 
L 220.239019 112.526123 
L 224.579343 112.665961 
L 229.040371 112.809071 
L 233.622542 112.956243 
L 238.325678 113.108128 
L 243.14888 113.265269 
L 248.090409 113.42814 
L 253.147558 113.597173 
L 258.316508 113.772755 
L 263.592177 113.955212 
L 268.968056 114.14478 
L 274.436035 114.341584 
L 279.986257 114.566151 
L 285.612328 114.766455 
L 291.319182 114.950335 
L 297.11514 115.117334 
L 303.010877 115.266962 
L 309.019763 115.398674 
L 315.158266 115.511851 
L 321.446396 115.605794 
L 327.908241 115.679721 
L 334.572587 115.732778 
L 341.47367 115.764043 
L 348.652093 115.772515 
L 356.155958 115.757094 
L 364.042283 115.716532 
L 372.378802 115.649387 
z
" style="fill:#fdaf56;stroke:#fdaf56;"/>
   </g>
   <g id="PolyCollection_7">
    <path clip-path="url(#p206bc1d202)" d="M 303.009608 87.510425 
L 303.009608 87.945126 
L 296.561413 88.002703 
L 290.454341 88.036475 
L 284.641992 88.04744 
L 279.084884 88.036555 
L 273.749325 88.004743 
L 268.606513 87.952892 
L 263.631812 87.881858 
L 258.804157 87.792476 
L 254.105572 87.685587 
L 249.52076 87.562059 
L 245.036762 87.422804 
L 240.642667 87.268776 
L 236.329358 87.100956 
L 232.089296 86.920311 
L 227.917027 86.745894 
L 223.813335 86.555828 
L 219.781199 86.36795 
L 215.823048 86.181997 
L 211.9408 85.997872 
L 208.135909 85.815603 
L 204.409412 85.635317 
L 200.761971 85.45724 
L 197.193913 85.281718 
L 193.705271 85.109257 
L 190.295815 84.940542 
L 186.965088 84.776393 
L 183.712433 84.617614 
L 180.537021 84.464801 
L 177.437806 84.316721 
L 174.412563 84.162877 
L 171.458334 84.002656 
L 168.572399 83.835966 
L 165.752282 83.662952 
L 162.995713 83.483842 
L 160.300614 83.298924 
L 157.665067 83.10858 
L 155.087302 82.913334 
L 152.565677 82.713871 
L 150.098662 82.511045 
L 147.68483 82.305868 
L 145.322837 82.099461 
L 143.01142 81.892963 
L 140.749381 81.687593 
L 138.535465 81.478725 
L 136.36833 81.263689 
L 134.246718 81.042338 
L 132.169461 80.814812 
L 130.135462 80.581376 
L 128.143697 80.342294 
L 126.193198 80.097787 
L 124.283048 79.848067 
L 122.412379 79.593399 
L 120.580359 79.334166 
L 118.786192 79.070898 
L 117.029113 78.804301 
L 115.308384 78.535284 
L 113.623289 78.26546 
L 111.972958 77.992334 
L 110.35613 77.708248 
L 108.7716 77.412874 
L 107.218287 77.106298 
L 105.695215 76.788905 
L 104.201504 76.461313 
L 102.736358 76.124335 
L 101.299053 75.778967 
L 99.888928 75.426415 
L 98.505378 75.068174 
L 97.147845 74.706106 
L 95.815815 74.342434 
L 94.508806 73.979524 
L 93.226369 73.619464 
L 91.968088 73.260659 
L 90.733603 72.896455 
L 89.522574 72.525192 
L 88.33467 72.146434 
L 87.169563 71.760335 
L 86.026932 71.367391 
L 84.906455 70.968422 
L 83.807815 70.564665 
L 82.730693 70.15787 
L 81.674773 69.750328 
L 80.639738 69.344784 
L 79.62527 68.944153 
L 78.631053 68.551063 
L 77.656768 68.167409 
L 76.702078 67.790139 
L 75.766484 67.401103 
L 74.849426 66.997585 
L 73.950388 66.579527 
L 73.068894 66.147211 
L 72.2045 65.700863 
L 71.356796 65.240577 
L 70.525397 64.766427 
L 69.709944 64.278586 
L 68.910097 63.777385 
L 68.125535 63.263319 
L 67.355954 62.737059 
L 66.601064 62.199473 
L 65.860588 61.651674 
L 65.13427 61.106668 
L 64.422082 60.581059 
L 63.72418 60.067399 
L 63.040662 59.564673 
L 62.371568 59.072169 
L 61.716888 58.589411 
L 61.076567 58.116127 
L 60.450509 57.652235 
L 59.838586 57.197833 
L 59.240641 56.753173 
L 58.65649 56.318628 
L 58.08593 55.894726 
L 57.52874 55.48239 
L 56.984683 55.083415 
L 56.453513 54.701572 
L 55.934902 54.332375 
L 55.428408 53.96729 
L 54.933604 53.602706 
L 54.450084 53.235725 
L 53.977462 52.864355 
L 53.515375 52.487431 
L 53.063478 52.104468 
L 52.621441 51.715545 
L 52.188953 51.321297 
L 51.765717 50.922941 
L 51.35145 50.522317 
L 50.945881 50.121847 
L 50.548753 49.724338 
L 50.159819 49.33308 
L 49.778846 48.950475 
L 49.405613 48.563044 
L 49.03991 48.168945 
L 48.681536 47.767495 
L 48.330294 47.358611 
L 47.985998 46.942503 
L 47.648467 46.51958 
L 47.317527 46.090513 
L 46.993009 45.656343 
L 46.674753 45.218583 
L 46.3626 44.779277 
L 46.056399 44.34101 
L 45.756004 43.906803 
L 45.461275 43.479844 
L 45.17208 43.078122 
L 44.888341 42.68639 
L 44.609991 42.299599 
L 44.33696 41.916619 
L 44.069174 41.537055 
L 43.806554 41.160904 
L 43.54902 40.788352 
L 43.296489 40.419739 
L 43.048876 40.055673 
L 42.806094 39.697201 
L 42.568056 39.345981 
L 42.334674 39.004402 
L 42.105859 38.675634 
L 41.881522 38.363525 
L 41.66157 38.080872 
L 41.445848 37.788746 
L 41.234166 37.470535 
L 41.02635 37.124769 
L 40.822236 36.751085 
L 40.621671 36.349791 
L 40.424514 35.921553 
L 40.230632 35.46723 
L 40.039902 34.987882 
L 39.852209 34.484916 
L 39.667446 33.960279 
L 39.485511 33.416649 
L 39.306312 32.857591 
L 39.129761 32.287646 
L 38.955778 31.724008 
L 38.78438 31.245342 
L 38.615685 30.826935 
L 38.449798 30.464525 
L 38.286807 30.155244 
L 38.126787 29.897171 
L 37.969796 29.689001 
L 37.815881 29.529798 
L 37.665079 29.418882 
L 37.517414 29.355886 
L 37.372902 29.340913 
L 37.231552 29.374716 
L 37.093365 29.458822 
L 36.958334 29.595593 
L 36.826449 29.634812 
L 36.697669 29.870622 
L 36.571905 30.121347 
L 36.449062 30.382601 
L 36.329051 30.651148 
L 36.211786 30.924712 
L 36.097185 31.20171 
L 35.985168 31.481003 
L 35.875658 31.761684 
L 35.768584 32.042972 
L 35.663874 32.324178 
L 35.561461 32.604721 
L 35.461281 32.884138 
L 35.36327 33.162087 
L 35.267368 33.438339 
L 35.267368 30.521201 
L 35.267368 30.521201 
L 35.36327 30.261348 
L 35.461281 30.012591 
L 35.561461 29.774745 
L 35.663874 29.547513 
L 35.768584 29.330479 
L 35.875658 29.12311 
L 35.985168 28.924768 
L 36.097185 28.734724 
L 36.211786 28.552128 
L 36.329051 28.375897 
L 36.449062 28.204507 
L 36.571905 28.035743 
L 36.697669 27.866434 
L 36.826449 27.692257 
L 36.958334 27.357564 
L 37.093365 27.213721 
L 37.231552 27.114355 
L 37.372902 27.063837 
L 37.517414 27.065795 
L 37.665079 27.123168 
L 37.815881 27.238334 
L 37.969796 27.413291 
L 38.126787 27.649812 
L 38.286807 27.949502 
L 38.449798 28.313681 
L 38.615685 28.743141 
L 38.78438 29.237804 
L 38.955778 29.796278 
L 39.129761 30.370603 
L 39.306312 30.921403 
L 39.485511 31.450475 
L 39.667446 31.961557 
L 39.852209 32.457394 
L 40.039902 32.939824 
L 40.230632 33.409932 
L 40.424514 33.868241 
L 40.621671 34.314903 
L 40.822236 34.749846 
L 41.02635 35.172778 
L 41.234166 35.58302 
L 41.445848 35.979194 
L 41.66157 36.358781 
L 41.881522 36.707954 
L 42.105859 37.031332 
L 42.334674 37.354536 
L 42.568056 37.681839 
L 42.806094 38.016851 
L 43.048876 38.362418 
L 43.296489 38.720665 
L 43.54902 39.093127 
L 43.806554 39.480913 
L 44.069174 39.884882 
L 44.33696 40.305756 
L 44.609991 40.744085 
L 44.888341 41.200043 
L 45.17208 41.673092 
L 45.461275 42.158511 
L 45.756004 42.624745 
L 46.056399 43.07986 
L 46.3626 43.52693 
L 46.674753 43.968855 
L 46.993009 44.408097 
L 47.317527 44.846573 
L 47.648467 45.285661 
L 47.985998 45.726269 
L 48.330294 46.168925 
L 48.681536 46.613892 
L 49.03991 47.061229 
L 49.405613 47.510698 
L 49.778846 47.961453 
L 50.159819 48.411486 
L 50.548753 48.846401 
L 50.945881 49.267414 
L 51.35145 49.677571 
L 51.765717 50.079431 
L 52.188953 50.475163 
L 52.621441 50.86634 
L 53.063478 51.253906 
L 53.515375 51.638209 
L 53.977462 52.019035 
L 54.450084 52.395593 
L 54.933604 52.766399 
L 55.428408 53.129134 
L 55.934902 53.480555 
L 56.453513 53.816697 
L 56.984683 54.137119 
L 57.52874 54.460848 
L 58.08593 54.793724 
L 58.65649 55.138302 
L 59.240641 55.496293 
L 59.838586 55.869042 
L 60.450509 56.257771 
L 61.076567 56.663612 
L 61.716888 57.087574 
L 62.371568 57.530517 
L 63.040662 57.993141 
L 63.72418 58.475975 
L 64.422082 58.979338 
L 65.13427 59.503279 
L 65.860588 60.035631 
L 66.601064 60.558671 
L 67.355954 61.079133 
L 68.125535 61.597577 
L 68.910097 62.114297 
L 69.709944 62.629368 
L 70.525397 63.142668 
L 71.356796 63.653889 
L 72.2045 64.162544 
L 73.068894 64.668021 
L 73.950388 65.169705 
L 74.849426 65.667092 
L 75.766484 66.159704 
L 76.702078 66.646701 
L 77.656768 67.125252 
L 78.631053 67.588545 
L 79.62527 68.037584 
L 80.639738 68.474016 
L 81.674773 68.900209 
L 82.730693 69.318806 
L 83.807815 69.732266 
L 84.906455 70.142585 
L 86.026932 70.5512 
L 87.169563 70.959025 
L 88.33467 71.366542 
L 89.522574 71.773894 
L 90.733603 72.180868 
L 91.968088 72.586647 
L 93.226369 72.989168 
L 94.508806 73.380235 
L 95.815815 73.756917 
L 97.147845 74.120778 
L 98.505378 74.473644 
L 99.888928 74.817178 
L 101.299053 75.152664 
L 102.736358 75.480999 
L 104.201504 75.802769 
L 105.695215 76.118329 
L 107.218287 76.427832 
L 108.7716 76.731212 
L 110.35613 77.02815 
L 111.972958 77.318 
L 113.623289 77.599686 
L 115.308384 77.870285 
L 117.029113 78.13617 
L 118.786192 78.398854 
L 120.580359 78.658981 
L 122.412379 78.916984 
L 124.283048 79.173109 
L 126.193198 79.42744 
L 128.143697 79.679936 
L 130.135462 79.930487 
L 132.169461 80.178982 
L 134.246718 80.425339 
L 136.36833 80.669464 
L 138.535465 80.911125 
L 140.749381 81.149789 
L 143.01142 81.383161 
L 145.322837 81.609007 
L 147.68483 81.8285 
L 150.098662 82.042486 
L 152.565677 82.251781 
L 155.087302 82.457079 
L 157.665067 82.658904 
L 160.300614 82.8576 
L 162.995713 83.053334 
L 165.752282 83.246121 
L 168.572399 83.435865 
L 171.458334 83.622396 
L 174.412563 83.805446 
L 177.437806 83.984497 
L 180.537021 84.159839 
L 183.712433 84.331682 
L 186.965088 84.501292 
L 190.295815 84.669392 
L 193.705271 84.836918 
L 197.193913 85.004821 
L 200.761971 85.173925 
L 204.409412 85.344871 
L 208.135909 85.518143 
L 211.9408 85.694106 
L 215.823048 85.873024 
L 219.781199 86.055062 
L 223.813335 86.240256 
L 227.917027 86.428476 
L 232.089296 86.636915 
L 236.329358 86.821035 
L 240.642667 86.988405 
L 245.036762 87.138705 
L 249.52076 87.271597 
L 254.105572 87.38668 
L 258.804157 87.483463 
L 263.631812 87.561362 
L 268.606513 87.619701 
L 273.749325 87.657721 
L 279.084884 87.674589 
L 284.641992 87.66939 
L 290.454341 87.6411 
L 296.561413 87.588559 
L 303.009608 87.510425 
z
" style="fill:#fe8435;stroke:#fe8435;"/>
   </g>
   <g id="legend_1">
    <g id="line2d_25">
     <path d="M 110.69 23.97875 
L 126.69 23.97875 
" style="fill:none;stroke:#114b5f;stroke-linecap:square;"/>
    </g>
    <g id="line2d_26"/>
    <g id="text_8">
     <!-- $\beta h = 0.0$ -->
     <defs>
      <path d="M 2.703125 -13.09375 
L 16 40.203125 
Q 18.796875 51.5 23.40625 57.90625 
Q 31.09375 68.296875 42.796875 68.296875 
Q 48.09375 68.296875 52 64.9375 
Q 55.90625 61.59375 55.90625 56.296875 
Q 55.90625 51.203125 53.203125 46.84375 
Q 50.5 42.5 45.703125 39.796875 
Q 49.09375 38.59375 51.140625 35.046875 
Q 53.203125 31.5 53.203125 27.09375 
Q 53.203125 14.59375 44.453125 6.59375 
Q 35.703125 -1.40625 25 -1.40625 
Q 18.296875 -1.40625 14.40625 2.203125 
L 10.703125 -12.59375 
Q 9.59375 -17 6.90625 -21.5 
L -1.203125 -21.5 
Q 1.59375 -17.40625 2.703125 -13.09375 
z
M 29.296875 37.5 
L 34.796875 42.90625 
Q 40.5 43.203125 44.140625 46.703125 
Q 47.796875 50.203125 47.796875 54.703125 
Q 47.796875 57.703125 45.84375 59.453125 
Q 43.90625 61.203125 40.5 61.203125 
Q 34.203125 61.203125 30.296875 55.84375 
Q 26.40625 50.5 24.59375 43.296875 
L 16.796875 11.796875 
Q 17.796875 9.09375 20.84375 7.390625 
Q 23.90625 5.703125 27.5 5.703125 
Q 34.296875 5.703125 39.640625 11.75 
Q 45 17.796875 45 25.703125 
Q 45 35.796875 28.90625 35.796875 
z
" id="STIXNonUnicode-Italic-e1d9"/>
      <path d="M 31.09375 67.90625 
L 24.203125 40.5 
Q 28.59375 44 32.25 45.140625 
Q 35.90625 46.296875 40.5 46.296875 
Q 45.40625 46.296875 48.203125 43.796875 
Q 51 41.296875 51 36.59375 
Q 51 34.5 50.40625 32.09375 
L 42.40625 0 
L 34.5 0 
L 42 30.40625 
Q 42.5 32.59375 42.5 33.796875 
Q 42.5 39.203125 36 39.203125 
Q 33.09375 39.203125 28.640625 36.703125 
Q 24.203125 34.203125 21.703125 30.203125 
L 14.203125 0 
L 6.296875 0 
L 22.703125 66 
L 30.296875 68.40625 
z
" id="STIXGeneral-Italic-1d629"/>
      <path d="M 63.703125 32 
L 4.796875 32 
L 4.796875 38.59375 
L 63.703125 38.59375 
z
M 63.703125 12 
L 4.796875 12 
L 4.796875 18.59375 
L 63.703125 18.59375 
z
" id="STIXGeneral-Regular-3d"/>
     </defs>
     <g transform="translate(133.09 26.77875)scale(0.08 -0.08)">
      <use transform="translate(0 0.59375)" xlink:href="#STIXNonUnicode-Italic-e1d9"/>
      <use transform="translate(53.499985 0.59375)" xlink:href="#STIXGeneral-Italic-1d629"/>
      <use transform="translate(117.31998 0.59375)" xlink:href="#STIXGeneral-Regular-3d"/>
      <use transform="translate(200.939963 0.59375)" xlink:href="#STIXGeneral-Regular-1d7e2"/>
      <use transform="translate(250.939948 0.59375)" xlink:href="#STIXGeneral-Regular-2e"/>
      <use transform="translate(275.939932 0.59375)" xlink:href="#STIXGeneral-Regular-1d7e2"/>
     </g>
    </g>
    <g id="line2d_27">
     <path d="M 110.69 35.8175 
L 126.69 35.8175 
" style="fill:none;stroke:#5f9049;stroke-linecap:square;"/>
    </g>
    <g id="line2d_28"/>
    <g id="text_9">
     <!-- $\beta h = 0.4$ -->
     <defs>
      <path d="M 48.90625 23.59375 
L 45.59375 16.5 
L 37.296875 16.5 
L 37.296875 0 
L 29.40625 0 
L 29.40625 16.5 
L 1.09375 16.5 
L 1.09375 23.296875 
L 32.296875 67.59375 
L 37.296875 67.59375 
L 37.296875 23.59375 
z
M 29.40625 23.59375 
L 29.40625 51 
L 10 23.59375 
z
" id="STIXGeneral-Regular-1d7e6"/>
     </defs>
     <g transform="translate(133.09 38.6175)scale(0.08 -0.08)">
      <use transform="translate(0 0.59375)" xlink:href="#STIXNonUnicode-Italic-e1d9"/>
      <use transform="translate(53.499985 0.59375)" xlink:href="#STIXGeneral-Italic-1d629"/>
      <use transform="translate(117.31998 0.59375)" xlink:href="#STIXGeneral-Regular-3d"/>
      <use transform="translate(200.939963 0.59375)" xlink:href="#STIXGeneral-Regular-1d7e2"/>
      <use transform="translate(250.939948 0.59375)" xlink:href="#STIXGeneral-Regular-2e"/>
      <use transform="translate(275.939932 0.59375)" xlink:href="#STIXGeneral-Regular-1d7e6"/>
     </g>
    </g>
    <g id="line2d_29">
     <path d="M 110.69 47.65625 
L 126.69 47.65625 
" style="fill:none;stroke:#d7b501;stroke-linecap:square;"/>
    </g>
    <g id="line2d_30"/>
    <g id="text_10">
     <!-- $\beta h = 0.8$ -->
     <defs>
      <path d="M 44.703125 16.09375 
Q 44.703125 8.796875 39.390625 3.6875 
Q 34.09375 -1.40625 24.796875 -1.40625 
Q 16.296875 -1.40625 10.59375 3.4375 
Q 4.90625 8.296875 4.90625 15.40625 
Q 4.90625 20.796875 7.75 25.25 
Q 10.59375 29.703125 17.703125 34.5 
Q 6 41.40625 6 51.40625 
Q 6 58.59375 11.546875 63.09375 
Q 17.09375 67.59375 25.59375 67.59375 
Q 32.90625 67.59375 37.796875 62.84375 
Q 42.703125 58.09375 42.703125 52 
Q 42.703125 46.40625 40.09375 42.703125 
Q 37.5 39 31.09375 35.296875 
Q 44.703125 27 44.703125 16.09375 
z
M 35.5 51.5 
Q 35.5 55.5 32.390625 58 
Q 29.296875 60.5 24.40625 60.5 
Q 19.796875 60.5 16.84375 57.84375 
Q 13.90625 55.203125 13.90625 51.796875 
Q 13.90625 47.5 16.34375 44.84375 
Q 18.796875 42.203125 24.90625 39.40625 
Q 35.5 45.203125 35.5 51.5 
z
M 27.59375 28.59375 
L 24.09375 30.5 
Q 18.90625 28.703125 15.84375 24.640625 
Q 12.796875 20.59375 12.796875 16.296875 
Q 12.796875 11.796875 16 8.75 
Q 19.203125 5.703125 25.203125 5.703125 
Q 29.796875 5.703125 33.296875 8.453125 
Q 36.796875 11.203125 36.796875 15.796875 
Q 36.796875 20 34.6875 22.953125 
Q 32.59375 25.90625 27.59375 28.59375 
z
" id="STIXGeneral-Regular-1d7ea"/>
     </defs>
     <g transform="translate(133.09 50.45625)scale(0.08 -0.08)">
      <use transform="translate(0 0.59375)" xlink:href="#STIXNonUnicode-Italic-e1d9"/>
      <use transform="translate(53.499985 0.59375)" xlink:href="#STIXGeneral-Italic-1d629"/>
      <use transform="translate(117.31998 0.59375)" xlink:href="#STIXGeneral-Regular-3d"/>
      <use transform="translate(200.939963 0.59375)" xlink:href="#STIXGeneral-Regular-1d7e2"/>
      <use transform="translate(250.939948 0.59375)" xlink:href="#STIXGeneral-Regular-2e"/>
      <use transform="translate(275.939932 0.59375)" xlink:href="#STIXGeneral-Regular-1d7ea"/>
     </g>
    </g>
    <g id="line2d_31">
     <path d="M 175.17 23.97875 
L 191.17 23.97875 
" style="fill:none;stroke:#eca300;stroke-linecap:square;"/>
    </g>
    <g id="line2d_32"/>
    <g id="text_11">
     <!-- $\beta h = 1.2$ -->
     <g transform="translate(197.57 26.77875)scale(0.08 -0.08)">
      <use transform="translate(0 0.59375)" xlink:href="#STIXNonUnicode-Italic-e1d9"/>
      <use transform="translate(53.499985 0.59375)" xlink:href="#STIXGeneral-Italic-1d629"/>
      <use transform="translate(117.31998 0.59375)" xlink:href="#STIXGeneral-Regular-3d"/>
      <use transform="translate(200.939963 0.59375)" xlink:href="#STIXGeneral-Regular-1d7e3"/>
      <use transform="translate(250.939948 0.59375)" xlink:href="#STIXGeneral-Regular-2e"/>
      <use transform="translate(275.939932 0.59375)" xlink:href="#STIXGeneral-Regular-1d7e4"/>
     </g>
    </g>
    <g id="line2d_33">
     <path d="M 175.17 35.8175 
L 191.17 35.8175 
" style="fill:none;stroke:#db7502;stroke-linecap:square;"/>
    </g>
    <g id="line2d_34"/>
    <g id="text_12">
     <!-- $\beta h = 1.6$ -->
     <defs>
      <path d="M 44.796875 66.796875 
L 43 61.5 
Q 31.59375 60.703125 23.640625 54.953125 
Q 15.703125 49.203125 12.203125 38.796875 
Q 18.09375 43.09375 25.90625 43.09375 
Q 34.5 43.09375 40.75 37.296875 
Q 47 31.5 47 22 
Q 47 12.296875 40.953125 5.4375 
Q 34.90625 -1.40625 25.703125 -1.40625 
Q 18 -1.40625 12.75 2.640625 
Q 7.5 6.703125 5.34375 12.75 
Q 3.203125 18.796875 3.203125 26.40625 
Q 3.203125 34.90625 6.203125 43.046875 
Q 9.203125 51.203125 14.296875 56.203125 
Q 21 62.796875 27.09375 65.046875 
Q 33.203125 67.296875 44.703125 68.40625 
z
M 39 20.703125 
Q 39 27.90625 34.890625 31.953125 
Q 30.796875 36 25.09375 36 
Q 19.90625 36 16 32.953125 
Q 12.09375 29.90625 11.203125 24 
Q 11.203125 15.90625 15.203125 10.796875 
Q 19.203125 5.703125 26 5.703125 
Q 31.5 5.703125 35.25 9.953125 
Q 39 14.203125 39 20.703125 
z
" id="STIXGeneral-Regular-1d7e8"/>
     </defs>
     <g transform="translate(197.57 38.6175)scale(0.08 -0.08)">
      <use transform="translate(0 0.59375)" xlink:href="#STIXNonUnicode-Italic-e1d9"/>
      <use transform="translate(53.499985 0.59375)" xlink:href="#STIXGeneral-Italic-1d629"/>
      <use transform="translate(117.31998 0.59375)" xlink:href="#STIXGeneral-Regular-3d"/>
      <use transform="translate(200.939963 0.59375)" xlink:href="#STIXGeneral-Regular-1d7e3"/>
      <use transform="translate(250.939948 0.59375)" xlink:href="#STIXGeneral-Regular-2e"/>
      <use transform="translate(275.939932 0.59375)" xlink:href="#STIXGeneral-Regular-1d7e8"/>
     </g>
    </g>
    <g id="line2d_35">
     <path d="M 175.17 47.65625 
L 191.17 47.65625 
" style="fill:none;stroke:#cc5101;stroke-linecap:square;"/>
    </g>
    <g id="line2d_36"/>
    <g id="text_13">
     <!-- $\beta h = 2.0$ -->
     <g transform="translate(197.57 50.45625)scale(0.08 -0.08)">
      <use transform="translate(0 0.59375)" xlink:href="#STIXNonUnicode-Italic-e1d9"/>
      <use transform="translate(53.499985 0.59375)" xlink:href="#STIXGeneral-Italic-1d629"/>
      <use transform="translate(117.31998 0.59375)" xlink:href="#STIXGeneral-Regular-3d"/>
      <use transform="translate(200.939963 0.59375)" xlink:href="#STIXGeneral-Regular-1d7e4"/>
      <use transform="translate(250.939948 0.59375)" xlink:href="#STIXGeneral-Regular-2e"/>
      <use transform="translate(275.939932 0.59375)" xlink:href="#STIXGeneral-Regular-1d7e2"/>
     </g>
    </g>
   </g>
   <g id="line2d_37">
    <path clip-path="url(#p206bc1d202)" d="M 244 220.188055 
L 224.078659 219.002346 
L 203.784922 217.541284 
L 185.213155 215.953762 
L 168.389443 214.273676 
L 153.293362 212.523011 
L 139.847705 210.71371 
L 127.938301 208.862718 
L 117.430145 206.974249 
L 110.365084 205.415515 
L 103.901673 203.702955 
L 97.97397 201.86118 
L 92.531962 199.911343 
L 85.965714 197.254208 
L 77.496576 193.589823 
L 71.575672 190.792266 
L 66.541835 188.391612 
L 62.285948 186.599047 
L 58.694076 185.300721 
L 51.238053 182.718335 
L 50.004795 182.114495 
L 48.862788 181.258198 
L 47.797585 180.171494 
L 46.798042 178.873965 
L 45.55281 176.857776 
L 44.117496 174.035491 
L 42.799615 170.939569 
L 39.850767 163.596997 
L 38.89305 161.710083 
L 38.536629 161.344868 
L 38.196147 161.274054 
L 37.871899 161.484031 
L 37.563969 161.962378 
L 37.132474 163.15879 
L 35.345795 169.998626 
L 35.345795 169.998626 
" style="fill:none;stroke:#114b5f;stroke-linecap:square;"/>
   </g>
   <g id="line2d_38">
    <path clip-path="url(#p206bc1d202)" d="M 244 193.132656 
L 221.821072 192.066387 
L 206.989179 191.193139 
L 188.855054 189.871034 
L 172.432737 188.405249 
L 157.609845 186.821207 
L 147.461791 185.491767 
L 138.06213 184.035336 
L 129.360679 182.474056 
L 121.320387 180.826966 
L 111.57572 178.558581 
L 102.89811 176.305622 
L 95.216418 174.074144 
L 88.438184 171.860726 
L 83.883677 170.142782 
L 79.728001 168.347438 
L 75.929023 166.486185 
L 72.450984 164.568825 
L 67.29468 161.621019 
L 64.573613 160.398006 
L 62.120542 159.549796 
L 59.916503 159.032639 
L 56.15762 158.345137 
L 54.537101 157.717304 
L 53.050804 156.900762 
L 51.678134 155.913811 
L 49.216008 153.718328 
L 46.745122 151.225706 
L 45.497199 149.779695 
L 44.626981 148.445866 
L 43.53976 146.300684 
L 42.523673 143.777027 
L 39.641435 135.998779 
L 38.880499 134.276578 
L 38.522328 133.869126 
L 38.180269 133.836158 
L 37.854959 134.160227 
L 37.546743 134.825462 
L 37.116694 136.432163 
L 35.456596 144.528997 
L 35.366505 144.778574 
L 35.366505 144.778574 
" style="fill:none;stroke:#5f9049;stroke-linecap:square;"/>
   </g>
   <g id="line2d_39">
    <path clip-path="url(#p206bc1d202)" d="M 244 166.757977 
L 219.098989 165.654139 
L 201.144793 164.66596 
L 188.739061 163.762012 
L 177.087991 162.707736 
L 166.121408 161.526715 
L 155.810025 160.240086 
L 143.070063 158.423663 
L 131.506784 156.578597 
L 121.110877 154.718829 
L 111.826382 152.84866 
L 105.536595 151.392012 
L 99.768258 149.875938 
L 94.476274 148.310068 
L 88.092459 146.158679 
L 83.760285 144.46115 
L 79.773044 142.635923 
L 76.095195 140.700659 
L 72.698223 138.671174 
L 66.66625 134.808999 
L 64.03161 133.55439 
L 61.651161 132.745528 
L 59.511291 132.331158 
L 55.866234 131.90551 
L 54.294726 131.338695 
L 52.85108 130.53668 
L 51.514481 129.52175 
L 49.485008 127.586456 
L 46.998672 124.916972 
L 45.439194 123.005274 
L 44.300566 121.202444 
L 43.242985 119.113799 
L 42.018513 116.154034 
L 40.46806 112.435704 
L 39.104182 109.652828 
L 38.574265 108.895055 
L 38.077027 108.549297 
L 37.763606 108.533904 
L 37.464421 108.681885 
L 37.041709 109.19551 
L 36.168199 110.992818 
L 35.329958 113.119005 
L 35.329958 113.119005 
" style="fill:none;stroke:#d7b501;stroke-linecap:square;"/>
   </g>
   <g id="line2d_40">
    <path clip-path="url(#p206bc1d202)" d="M 244 140.126689 
L 224.28931 139.357388 
L 202.572747 138.312624 
L 183.354459 137.18345 
L 172.893219 136.402544 
L 163.10444 135.496966 
L 150.972285 134.125805 
L 139.805445 132.601122 
L 127.150055 130.6215 
L 115.936093 128.652956 
L 106.090773 126.686894 
L 100.770161 125.317889 
L 95.811685 123.72984 
L 91.170717 121.952661 
L 86.819002 120.013182 
L 77.729316 115.464012 
L 63.181323 108.23285 
L 60.298687 107.20153 
L 54.512569 105.344551 
L 53.079394 104.525122 
L 51.328575 103.226209 
L 49.732451 101.70098 
L 48.266557 99.93989 
L 46.912128 97.968233 
L 45.059835 94.780006 
L 42.647837 90.866863 
L 41.264399 88.622852 
L 40.425313 86.746434 
L 39.452679 83.956387 
L 38.553741 81.323526 
L 38.052452 80.64747 
L 37.735848 80.574401 
L 37.433803 80.787677 
L 37.146502 81.275051 
L 36.61586 82.842178 
L 35.310962 86.76535 
L 35.310962 86.76535 
" style="fill:none;stroke:#eca300;stroke-linecap:square;"/>
   </g>
   <g id="line2d_41">
    <path clip-path="url(#p206bc1d202)" d="M 244 113.447426 
L 193.01482 111.623168 
L 179.448966 110.808934 
L 166.982876 109.849001 
L 152.74574 108.501776 
L 139.910748 107.082271 
L 128.410108 105.61338 
L 120.105299 104.355342 
L 112.494694 102.91625 
L 105.495907 101.323089 
L 99.055565 99.603082 
L 93.135258 97.780752 
L 87.703284 95.876065 
L 82.729949 93.905156 
L 78.185853 91.886491 
L 74.042681 89.845396 
L 70.271553 87.788644 
L 58.416747 80.997708 
L 55.637239 79.541905 
L 53.658558 78.182936 
L 51.859293 76.649084 
L 50.213098 74.96692 
L 47.647383 71.992559 
L 45.427126 69.067188 
L 43.755873 66.472522 
L 42.264242 63.735415 
L 39.004076 57.419835 
L 38.331549 56.470731 
L 37.861696 56.087978 
L 37.420659 55.967074 
L 37.007423 56.091947 
L 36.497518 56.556244 
L 35.92056 57.426483 
L 35.306859 58.859269 
L 35.306859 58.859269 
" style="fill:none;stroke:#db7502;stroke-linecap:square;"/>
   </g>
   <g id="line2d_42">
    <path clip-path="url(#p206bc1d202)" d="M 244 87.244852 
L 227.917027 86.587185 
L 177.437806 84.150609 
L 162.995713 83.268588 
L 150.098662 82.276766 
L 138.535465 81.194925 
L 128.143697 80.011115 
L 118.786192 78.734876 
L 110.35613 77.368199 
L 104.201504 76.132041 
L 98.505378 74.770909 
L 93.226369 73.304316 
L 87.169563 71.35968 
L 81.674773 69.325269 
L 76.702078 67.21842 
L 73.068894 65.407616 
L 69.709944 63.453977 
L 66.601064 61.379072 
L 58.08593 55.344225 
L 54.450084 52.815659 
L 52.188953 50.89823 
L 50.159819 48.872283 
L 47.985998 46.334386 
L 46.056399 43.710435 
L 41.02635 36.148773 
L 40.230632 34.438581 
L 39.306312 31.889497 
L 38.449798 29.389103 
L 37.969796 28.551146 
L 37.517414 28.210841 
L 37.231552 28.244535 
L 36.958334 28.476578 
L 36.329051 29.513522 
L 35.561461 31.189733 
L 35.267368 31.97977 
L 35.267368 31.97977 
" style="fill:none;stroke:#cc5101;stroke-linecap:square;"/>
   </g>
  </g>
 </g>
 <defs>
  <clipPath id="p206bc1d202">
   <rect height="216" width="206.55" x="24.3" y="13.5"/>
  </clipPath>
 </defs>
</svg>
