<?xml version="1.0" encoding="utf-8" standalone="no"?>
<!DOCTYPE svg PUBLIC "-//W3C//DTD SVG 1.1//EN"
  "http://www.w3.org/Graphics/SVG/1.1/DTD/svg11.dtd">
<!-- Created with matplotlib (http://matplotlib.org/) -->
<svg height="180pt" version="1.1" viewBox="0 0 243 180" width="243pt" xmlns="http://www.w3.org/2000/svg" xmlns:xlink="http://www.w3.org/1999/xlink">
 <defs>
  <style type="text/css">
*{stroke-linecap:butt;stroke-linejoin:round;}
  </style>
 </defs>
 <g id="figure_1">
  <g id="patch_1">
   <path d="M 0 180 
L 243 180 
L 243 0 
L 0 0 
z
" style="fill:#ffffff;"/>
  </g>
  <g id="axes_1">
   <g id="patch_2">
    <path d="M 24.3 153 
L 230.85 153 
L 230.85 9 
L 24.3 9 
z
" style="fill:#ffffff;"/>
   </g>
   <g id="PolyCollection_1">
    <path clip-path="url(#pb30a77a13b)" d="M -182.25 -135 
L -182.25 152.9928 
L 39.634029 152.9928 
L 39.634029 -135 
L 39.634029 -135 
L -182.25 -135 
z
" style="fill:#dddddd;"/>
   </g>
   <g id="line2d_1">
    <path clip-path="url(#pb30a77a13b)" d="M 48.442996 124.414791 
L 49.53489 124.604258 
L 51.11207 124.984033 
L 52.56793 125.268486 
L 54.266432 126.125547 
L 55.782952 126.791879 
L 57.299471 127.458211 
L 59.240617 128.314935 
L 61.060441 129.171827 
L 62.758943 129.837906 
L 64.700088 130.408159 
L 66.641233 130.978411 
L 68.339736 131.358018 
L 69.977577 131.737709 
L 71.615419 131.830928 
L 73.071278 132.115381 
L 74.76978 132.399498 
L 76.407621 132.683698 
L 77.802819 132.872744 
L 79.501322 133.06137 
L 81.078502 133.345655 
L 82.655683 133.534449 
L 84.414846 133.913972 
L 87.751189 134.386798 
L 86.052687 134.102682 
L 89.449692 134.670915 
L 91.026872 135.05069 
L 92.846696 135.334638 
L 94.66652 135.714077 
L 96.001057 135.998698 
L 97.820881 136.282646 
L 99.580044 136.75766 
L 100.975242 137.042197 
L 103.09837 137.516706 
L 105.342819 137.991047 
L 107.041322 138.275163 
L 108.739824 138.750261 
L 109.831718 139.035219 
L 111.53022 139.414826 
L 113.228722 139.794433 
L 114.199295 140.17505 
L 115.837137 140.268269 
L 116.989692 140.744124 
L 118.445551 140.837596 
L 119.658767 141.026894 
L 121.235947 141.502161 
L 122.570485 141.691291 
L 123.905022 142.262384 
L 124.693612 142.643254 
L 125.360881 142.83331 
L 127.180705 142.735295 
L 129.12185 143.019075 
L 130.213744 143.399523 
L 131.669604 143.779467 
L 134.702643 144.252714 
L 133.368106 144.159074 
L 135.915859 144.728485 
L 137.129075 144.917784 
L 138.706256 144.915596 
L 139.79815 145.105063 
L 141.617974 145.866465 
L 142.831189 146.055764 
L 144.651013 146.244221 
L 146.592159 146.43251 
L 148.593965 146.811697 
L 150.353128 147.095729 
L 152.05163 147.284355 
L 153.143524 147.473822 
L 154.842026 147.566957 
L 156.176564 147.660597 
" style="fill:none;stroke:#5fad41;stroke-linecap:square;"/>
   </g>
   <g id="line2d_2">
    <path clip-path="url(#pb30a77a13b)" d="M 18.848371 152.381556 
L 25.916673 151.448991 
L 32.27251 149.582853 
L 34.122658 148.545821 
L 42.424173 145.228242 
L 45.845177 144.295677 
L 48.914657 143.881844 
L 51.026205 144.090202 
L 52.678624 144.713401 
L 53.314843 145.128674 
L 54.244488 143.261671 
L 55.732416 141.394957 
L 57.425387 139.42464 
L 58.237234 138.698847 
L 58.766472 138.076657 
L 61.520827 135.795821 
L 62.693573 135.070317 
L 63.375758 134.448271 
L 64.909488 133.723055 
L 66.164267 132.893948 
L 67.368504 132.376081 
L 68.902234 131.443516 
L 74.353862 129.684438 
L 77.033371 129.1683 
L 78.151302 128.96196 
L 81.764455 128.654755 
L 87.897051 128.766571 
L 91.963962 129.395389 
L 95.543371 130.024207 
L 97.61656 130.65072 
L 98.877218 130.860807 
L 103.092024 132.115274 
L 104.030177 132.532565 
L 105.384424 132.847262 
L 107.616097 133.683285 
L 109.788094 134.208357 
L 111.454845 134.939769 
L 113.958859 135.881844 
L 114.370161 136.090778 
L 116.650198 136.721614 
L 117.100978 137.034582 
L 118.342475 137.454467 
L 119.465656 137.770317 
L 120.079385 138.08415 
L 124.986102 139.663112 
L 125.384411 139.872622 
L 125.665704 139.770317 
L 126.872887 140.295389 
L 127.458682 140.506052 
L 127.773434 140.507781 
L 129.050365 141.033718 
L 129.693425 141.14121 
L 132.583325 142.092795 
L 137.938534 143.583285 
L 138.417553 143.794524 
L 138.924979 143.798559 
L 139.529782 144.114697 
L 140.431742 144.225937 
L 141.240843 144.544092 
L 141.240843 144.544092 
" style="fill:none;stroke:#0d153a;stroke-linecap:square;"/>
   </g>
   <g id="line2d_3">
    <path clip-path="url(#pb30a77a13b)" d="M 38.121964 124.201166 
L 41.598181 123.293595 
L 44.953629 122.781447 
L 47.576949 122.365189 
L 51.36162 122.483515 
L 56.855023 122.50049 
L 60.639694 122.618294 
L 65.463313 123.157939 
L 72.180084 123.998564 
L 76.638456 124.809062 
L 82.197466 126.167216 
L 87.39025 127.458991 
L 92.889528 129.02603 
L 98.390439 130.885831 
L 103.035841 132.385082 
L 107.070865 133.781501 
L 110.617259 135.019862 
L 113.736063 136.118943 
L 116.610716 137.150448 
L 119.179526 138.014327 
L 122.727227 139.174118 
L 125.9087 140.243676 
L 128.661604 141.064682 
L 132.945022 142.366509 
L 141.206017 144.50034 
L 151.427402 146.708881 
L 161.956914 148.487549 
" style="fill:none;stroke:#0d153a;stroke-linecap:square;"/>
   </g>
   <g id="line2d_4">
    <path clip-path="url(#pb30a77a13b)" d="M 46.623172 128.714397 
L 49.049604 126.801218 
L 50.748106 125.461992 
L 53.295859 124.40806 
L 55.600969 123.736428 
L 57.542115 123.351773 
L 59.361938 123.062777 
L 61.424405 122.868935 
L 64.336123 122.960387 
L 66.762555 122.957022 
L 69.43163 123.239792 
L 71.372775 123.428082 
L 74.527137 123.80567 
L 76.407621 124.185024 
L 78.470088 124.659617 
L 80.350573 124.943481 
L 81.806432 125.323425 
L 83.383612 125.703201 
L 86.29533 126.463088 
L 87.993833 127.033676 
L 89.692335 127.604265 
L 90.905551 127.984545 
L 92.543392 128.459727 
" style="fill:none;stroke:#0d153a;stroke-linecap:square;"/>
   </g>
   <g id="line2d_5">
    <defs>
     <path d="M -0 2.12132 
L 1.272792 0 
L 0 -2.12132 
L -1.272792 -0 
z
" id="m4ba3dcbeb4" style="stroke:#fa9f42;stroke-linejoin:miter;stroke-width:0.75;"/>
    </defs>
    <g clip-path="url(#pb30a77a13b)">
     <use style="fill:#fa9f42;stroke:#fa9f42;stroke-linejoin:miter;stroke-width:0.75;" x="24.446286" xlink:href="#m4ba3dcbeb4" y="149.265281"/>
     <use style="fill:#fa9f42;stroke:#fa9f42;stroke-linejoin:miter;stroke-width:0.75;" x="29.861397" xlink:href="#m4ba3dcbeb4" y="146.221504"/>
     <use style="fill:#fa9f42;stroke:#fa9f42;stroke-linejoin:miter;stroke-width:0.75;" x="33.96521" xlink:href="#m4ba3dcbeb4" y="143.876533"/>
     <use style="fill:#fa9f42;stroke:#fa9f42;stroke-linejoin:miter;stroke-width:0.75;" x="37.733896" xlink:href="#m4ba3dcbeb4" y="139.134974"/>
     <use style="fill:#fa9f42;stroke:#fa9f42;stroke-linejoin:miter;stroke-width:0.75;" x="39.151629" xlink:href="#m4ba3dcbeb4" y="137.488022"/>
     <use style="fill:#fa9f42;stroke:#fa9f42;stroke-linejoin:miter;stroke-width:0.75;" x="41.194828" xlink:href="#m4ba3dcbeb4" y="134.293621"/>
     <use style="fill:#fa9f42;stroke:#fa9f42;stroke-linejoin:miter;stroke-width:0.75;" x="43.817036" xlink:href="#m4ba3dcbeb4" y="131.299392"/>
     <use style="fill:#fa9f42;stroke:#fa9f42;stroke-linejoin:miter;stroke-width:0.75;" x="46.736663" xlink:href="#m4ba3dcbeb4" y="127.256977"/>
     <use style="fill:#fa9f42;stroke:#fa9f42;stroke-linejoin:miter;stroke-width:0.75;" x="48.036749" xlink:href="#m4ba3dcbeb4" y="125.660136"/>
     <use style="fill:#fa9f42;stroke:#fa9f42;stroke-linejoin:miter;stroke-width:0.75;" x="50.620882" xlink:href="#m4ba3dcbeb4" y="123.215528"/>
     <use style="fill:#fa9f42;stroke:#fa9f42;stroke-linejoin:miter;stroke-width:0.75;" x="53.865636" xlink:href="#m4ba3dcbeb4" y="121.770299"/>
     <use style="fill:#fa9f42;stroke:#fa9f42;stroke-linejoin:miter;stroke-width:0.75;" x="56.679109" xlink:href="#m4ba3dcbeb4" y="120.449785"/>
     <use style="fill:#fa9f42;stroke:#fa9f42;stroke-linejoin:miter;stroke-width:0.75;" x="58.874468" xlink:href="#m4ba3dcbeb4" y="120.277275"/>
     <use style="fill:#fa9f42;stroke:#fa9f42;stroke-linejoin:miter;stroke-width:0.75;" x="63.872714" xlink:href="#m4ba3dcbeb4" y="119.983465"/>
     <use style="fill:#fa9f42;stroke:#fa9f42;stroke-linejoin:miter;stroke-width:0.75;" x="67.207987" xlink:href="#m4ba3dcbeb4" y="119.838099"/>
     <use style="fill:#fa9f42;stroke:#fa9f42;stroke-linejoin:miter;stroke-width:0.75;" x="70.683804" xlink:href="#m4ba3dcbeb4" y="120.367541"/>
    </g>
   </g>
   <g id="line2d_6">
    <defs>
     <path d="M -0 2.12132 
L 1.272792 0 
L 0 -2.12132 
L -1.272792 -0 
z
" id="ma6b3817c45" style="stroke:#0d153a;stroke-linejoin:miter;stroke-width:0.75;"/>
    </defs>
    <g clip-path="url(#pb30a77a13b)">
     <use style="fill:#0d153a;stroke:#0d153a;stroke-linejoin:miter;stroke-width:0.75;" x="27.56447" xlink:href="#ma6b3817c45" y="140.16385"/>
     <use style="fill:#0d153a;stroke:#0d153a;stroke-linejoin:miter;stroke-width:0.75;" x="30.087194" xlink:href="#ma6b3817c45" y="135.979507"/>
     <use style="fill:#0d153a;stroke:#0d153a;stroke-linejoin:miter;stroke-width:0.75;" x="32.697394" xlink:href="#ma6b3817c45" y="130.552752"/>
     <use style="fill:#0d153a;stroke:#0d153a;stroke-linejoin:miter;stroke-width:0.75;" x="34.140799" xlink:href="#ma6b3817c45" y="128.777273"/>
     <use style="fill:#0d153a;stroke:#0d153a;stroke-linejoin:miter;stroke-width:0.75;" x="35.825448" xlink:href="#ma6b3817c45" y="126.722731"/>
     <use style="fill:#0d153a;stroke:#0d153a;stroke-linejoin:miter;stroke-width:0.75;" x="38.080082" xlink:href="#ma6b3817c45" y="125.149441"/>
     <use style="fill:#0d153a;stroke:#0d153a;stroke-linejoin:miter;stroke-width:0.75;" x="40.020497" xlink:href="#ma6b3817c45" y="124.590347"/>
     <use style="fill:#0d153a;stroke:#0d153a;stroke-linejoin:miter;stroke-width:0.75;" x="42.626396" xlink:href="#ma6b3817c45" y="124.233465"/>
     <use style="fill:#0d153a;stroke:#0d153a;stroke-linejoin:miter;stroke-width:0.75;" x="44.765356" xlink:href="#ma6b3817c45" y="123.826096"/>
     <use style="fill:#0d153a;stroke:#0d153a;stroke-linejoin:miter;stroke-width:0.75;" x="46.923675" xlink:href="#ma6b3817c45" y="123.570693"/>
    </g>
   </g>
   <g id="matplotlib.axis_1">
    <g id="xtick_1">
     <g id="line2d_7">
      <defs>
       <path d="M 0 0 
L 0 -2.5 
" id="m149bc11b7c" style="stroke:#000000;stroke-width:0.8;"/>
      </defs>
      <g>
       <use style="stroke:#000000;stroke-width:0.8;" x="24.3" xlink:href="#m149bc11b7c" y="153"/>
      </g>
     </g>
     <g id="line2d_8">
      <defs>
       <path d="M 0 0 
L 0 2.5 
" id="m787fb2365f" style="stroke:#000000;stroke-width:0.8;"/>
      </defs>
      <g>
       <use style="stroke:#000000;stroke-width:0.8;" x="24.3" xlink:href="#m787fb2365f" y="9"/>
      </g>
     </g>
     <g id="text_1">
      <!-- $\mathdefault{10^{-1}}$ -->
      <defs>
       <path d="M 12.40625 8.296875 
L 28.515625 8.296875 
L 28.515625 63.921875 
L 10.984375 60.40625 
L 10.984375 69.390625 
L 28.421875 72.90625 
L 38.28125 72.90625 
L 38.28125 8.296875 
L 54.390625 8.296875 
L 54.390625 0 
L 12.40625 0 
z
" id="DejaVuSans-31"/>
       <path d="M 31.78125 66.40625 
Q 24.171875 66.40625 20.328125 58.90625 
Q 16.5 51.421875 16.5 36.375 
Q 16.5 21.390625 20.328125 13.890625 
Q 24.171875 6.390625 31.78125 6.390625 
Q 39.453125 6.390625 43.28125 13.890625 
Q 47.125 21.390625 47.125 36.375 
Q 47.125 51.421875 43.28125 58.90625 
Q 39.453125 66.40625 31.78125 66.40625 
z
M 31.78125 74.21875 
Q 44.046875 74.21875 50.515625 64.515625 
Q 56.984375 54.828125 56.984375 36.375 
Q 56.984375 17.96875 50.515625 8.265625 
Q 44.046875 -1.421875 31.78125 -1.421875 
Q 19.53125 -1.421875 13.0625 8.265625 
Q 6.59375 17.96875 6.59375 36.375 
Q 6.59375 54.828125 13.0625 64.515625 
Q 19.53125 74.21875 31.78125 74.21875 
z
" id="DejaVuSans-30"/>
       <path d="M 10.59375 35.5 
L 73.1875 35.5 
L 73.1875 27.203125 
L 10.59375 27.203125 
z
" id="DejaVuSans-2212"/>
      </defs>
      <g transform="translate(14.9 162.57875)scale(0.08 -0.08)">
       <use transform="translate(0 0.684375)" xlink:href="#DejaVuSans-31"/>
       <use transform="translate(63.623047 0.684375)" xlink:href="#DejaVuSans-30"/>
       <use transform="translate(128.203125 38.965625)scale(0.7)" xlink:href="#DejaVuSans-2212"/>
       <use transform="translate(186.855469 38.965625)scale(0.7)" xlink:href="#DejaVuSans-31"/>
      </g>
     </g>
    </g>
    <g id="xtick_2">
     <g id="line2d_9">
      <g>
       <use style="stroke:#000000;stroke-width:0.8;" x="93.15" xlink:href="#m149bc11b7c" y="153"/>
      </g>
     </g>
     <g id="line2d_10">
      <g>
       <use style="stroke:#000000;stroke-width:0.8;" x="93.15" xlink:href="#m787fb2365f" y="9"/>
      </g>
     </g>
     <g id="text_2">
      <!-- $\mathdefault{10^{0}}$ -->
      <g transform="translate(86.11 162.57875)scale(0.08 -0.08)">
       <use transform="translate(0 0.765625)" xlink:href="#DejaVuSans-31"/>
       <use transform="translate(63.623047 0.765625)" xlink:href="#DejaVuSans-30"/>
       <use transform="translate(128.203125 39.046875)scale(0.7)" xlink:href="#DejaVuSans-30"/>
      </g>
     </g>
    </g>
    <g id="xtick_3">
     <g id="line2d_11">
      <g>
       <use style="stroke:#000000;stroke-width:0.8;" x="162" xlink:href="#m149bc11b7c" y="153"/>
      </g>
     </g>
     <g id="line2d_12">
      <g>
       <use style="stroke:#000000;stroke-width:0.8;" x="162" xlink:href="#m787fb2365f" y="9"/>
      </g>
     </g>
     <g id="text_3">
      <!-- $\mathdefault{10^{1}}$ -->
      <g transform="translate(154.96 162.57875)scale(0.08 -0.08)">
       <use transform="translate(0 0.684375)" xlink:href="#DejaVuSans-31"/>
       <use transform="translate(63.623047 0.684375)" xlink:href="#DejaVuSans-30"/>
       <use transform="translate(128.203125 38.965625)scale(0.7)" xlink:href="#DejaVuSans-31"/>
      </g>
     </g>
    </g>
    <g id="xtick_4">
     <g id="line2d_13">
      <g>
       <use style="stroke:#000000;stroke-width:0.8;" x="230.85" xlink:href="#m149bc11b7c" y="153"/>
      </g>
     </g>
     <g id="line2d_14">
      <g>
       <use style="stroke:#000000;stroke-width:0.8;" x="230.85" xlink:href="#m787fb2365f" y="9"/>
      </g>
     </g>
     <g id="text_4">
      <!-- $\mathdefault{10^{2}}$ -->
      <defs>
       <path d="M 19.1875 8.296875 
L 53.609375 8.296875 
L 53.609375 0 
L 7.328125 0 
L 7.328125 8.296875 
Q 12.9375 14.109375 22.625 23.890625 
Q 32.328125 33.6875 34.8125 36.53125 
Q 39.546875 41.84375 41.421875 45.53125 
Q 43.3125 49.21875 43.3125 52.78125 
Q 43.3125 58.59375 39.234375 62.25 
Q 35.15625 65.921875 28.609375 65.921875 
Q 23.96875 65.921875 18.8125 64.3125 
Q 13.671875 62.703125 7.8125 59.421875 
L 7.8125 69.390625 
Q 13.765625 71.78125 18.9375 73 
Q 24.125 74.21875 28.421875 74.21875 
Q 39.75 74.21875 46.484375 68.546875 
Q 53.21875 62.890625 53.21875 53.421875 
Q 53.21875 48.921875 51.53125 44.890625 
Q 49.859375 40.875 45.40625 35.40625 
Q 44.1875 33.984375 37.640625 27.21875 
Q 31.109375 20.453125 19.1875 8.296875 
z
" id="DejaVuSans-32"/>
      </defs>
      <g transform="translate(223.81 162.57875)scale(0.08 -0.08)">
       <use transform="translate(0 0.765625)" xlink:href="#DejaVuSans-31"/>
       <use transform="translate(63.623047 0.765625)" xlink:href="#DejaVuSans-30"/>
       <use transform="translate(128.203125 39.046875)scale(0.7)" xlink:href="#DejaVuSans-32"/>
      </g>
     </g>
    </g>
    <g id="xtick_5">
     <g id="line2d_15">
      <defs>
       <path d="M 0 0 
L 0 -1.5 
" id="me8133ae6d7" style="stroke:#000000;stroke-width:0.6;"/>
      </defs>
      <g>
       <use style="stroke:#000000;stroke-width:0.6;" x="45.025915" xlink:href="#me8133ae6d7" y="153"/>
      </g>
     </g>
     <g id="line2d_16">
      <defs>
       <path d="M 0 0 
L 0 1.5 
" id="m6af446d425" style="stroke:#000000;stroke-width:0.6;"/>
      </defs>
      <g>
       <use style="stroke:#000000;stroke-width:0.6;" x="45.025915" xlink:href="#m6af446d425" y="9"/>
      </g>
     </g>
    </g>
    <g id="xtick_6">
     <g id="line2d_17">
      <g>
       <use style="stroke:#000000;stroke-width:0.6;" x="57.149798" xlink:href="#me8133ae6d7" y="153"/>
      </g>
     </g>
     <g id="line2d_18">
      <g>
       <use style="stroke:#000000;stroke-width:0.6;" x="57.149798" xlink:href="#m6af446d425" y="9"/>
      </g>
     </g>
    </g>
    <g id="xtick_7">
     <g id="line2d_19">
      <g>
       <use style="stroke:#000000;stroke-width:0.6;" x="65.75183" xlink:href="#me8133ae6d7" y="153"/>
      </g>
     </g>
     <g id="line2d_20">
      <g>
       <use style="stroke:#000000;stroke-width:0.6;" x="65.75183" xlink:href="#m6af446d425" y="9"/>
      </g>
     </g>
    </g>
    <g id="xtick_8">
     <g id="line2d_21">
      <g>
       <use style="stroke:#000000;stroke-width:0.6;" x="72.424085" xlink:href="#me8133ae6d7" y="153"/>
      </g>
     </g>
     <g id="line2d_22">
      <g>
       <use style="stroke:#000000;stroke-width:0.6;" x="72.424085" xlink:href="#m6af446d425" y="9"/>
      </g>
     </g>
    </g>
    <g id="xtick_9">
     <g id="line2d_23">
      <g>
       <use style="stroke:#000000;stroke-width:0.6;" x="77.875714" xlink:href="#me8133ae6d7" y="153"/>
      </g>
     </g>
     <g id="line2d_24">
      <g>
       <use style="stroke:#000000;stroke-width:0.6;" x="77.875714" xlink:href="#m6af446d425" y="9"/>
      </g>
     </g>
    </g>
    <g id="xtick_10">
     <g id="line2d_25">
      <g>
       <use style="stroke:#000000;stroke-width:0.6;" x="82.485" xlink:href="#me8133ae6d7" y="153"/>
      </g>
     </g>
     <g id="line2d_26">
      <g>
       <use style="stroke:#000000;stroke-width:0.6;" x="82.485" xlink:href="#m6af446d425" y="9"/>
      </g>
     </g>
    </g>
    <g id="xtick_11">
     <g id="line2d_27">
      <g>
       <use style="stroke:#000000;stroke-width:0.6;" x="86.477746" xlink:href="#me8133ae6d7" y="153"/>
      </g>
     </g>
     <g id="line2d_28">
      <g>
       <use style="stroke:#000000;stroke-width:0.6;" x="86.477746" xlink:href="#m6af446d425" y="9"/>
      </g>
     </g>
    </g>
    <g id="xtick_12">
     <g id="line2d_29">
      <g>
       <use style="stroke:#000000;stroke-width:0.6;" x="89.999597" xlink:href="#me8133ae6d7" y="153"/>
      </g>
     </g>
     <g id="line2d_30">
      <g>
       <use style="stroke:#000000;stroke-width:0.6;" x="89.999597" xlink:href="#m6af446d425" y="9"/>
      </g>
     </g>
    </g>
    <g id="xtick_13">
     <g id="line2d_31">
      <g>
       <use style="stroke:#000000;stroke-width:0.6;" x="113.875915" xlink:href="#me8133ae6d7" y="153"/>
      </g>
     </g>
     <g id="line2d_32">
      <g>
       <use style="stroke:#000000;stroke-width:0.6;" x="113.875915" xlink:href="#m6af446d425" y="9"/>
      </g>
     </g>
    </g>
    <g id="xtick_14">
     <g id="line2d_33">
      <g>
       <use style="stroke:#000000;stroke-width:0.6;" x="125.999798" xlink:href="#me8133ae6d7" y="153"/>
      </g>
     </g>
     <g id="line2d_34">
      <g>
       <use style="stroke:#000000;stroke-width:0.6;" x="125.999798" xlink:href="#m6af446d425" y="9"/>
      </g>
     </g>
    </g>
    <g id="xtick_15">
     <g id="line2d_35">
      <g>
       <use style="stroke:#000000;stroke-width:0.6;" x="134.60183" xlink:href="#me8133ae6d7" y="153"/>
      </g>
     </g>
     <g id="line2d_36">
      <g>
       <use style="stroke:#000000;stroke-width:0.6;" x="134.60183" xlink:href="#m6af446d425" y="9"/>
      </g>
     </g>
    </g>
    <g id="xtick_16">
     <g id="line2d_37">
      <g>
       <use style="stroke:#000000;stroke-width:0.6;" x="141.274085" xlink:href="#me8133ae6d7" y="153"/>
      </g>
     </g>
     <g id="line2d_38">
      <g>
       <use style="stroke:#000000;stroke-width:0.6;" x="141.274085" xlink:href="#m6af446d425" y="9"/>
      </g>
     </g>
    </g>
    <g id="xtick_17">
     <g id="line2d_39">
      <g>
       <use style="stroke:#000000;stroke-width:0.6;" x="146.725714" xlink:href="#me8133ae6d7" y="153"/>
      </g>
     </g>
     <g id="line2d_40">
      <g>
       <use style="stroke:#000000;stroke-width:0.6;" x="146.725714" xlink:href="#m6af446d425" y="9"/>
      </g>
     </g>
    </g>
    <g id="xtick_18">
     <g id="line2d_41">
      <g>
       <use style="stroke:#000000;stroke-width:0.6;" x="151.335" xlink:href="#me8133ae6d7" y="153"/>
      </g>
     </g>
     <g id="line2d_42">
      <g>
       <use style="stroke:#000000;stroke-width:0.6;" x="151.335" xlink:href="#m6af446d425" y="9"/>
      </g>
     </g>
    </g>
    <g id="xtick_19">
     <g id="line2d_43">
      <g>
       <use style="stroke:#000000;stroke-width:0.6;" x="155.327746" xlink:href="#me8133ae6d7" y="153"/>
      </g>
     </g>
     <g id="line2d_44">
      <g>
       <use style="stroke:#000000;stroke-width:0.6;" x="155.327746" xlink:href="#m6af446d425" y="9"/>
      </g>
     </g>
    </g>
    <g id="xtick_20">
     <g id="line2d_45">
      <g>
       <use style="stroke:#000000;stroke-width:0.6;" x="158.849597" xlink:href="#me8133ae6d7" y="153"/>
      </g>
     </g>
     <g id="line2d_46">
      <g>
       <use style="stroke:#000000;stroke-width:0.6;" x="158.849597" xlink:href="#m6af446d425" y="9"/>
      </g>
     </g>
    </g>
    <g id="xtick_21">
     <g id="line2d_47">
      <g>
       <use style="stroke:#000000;stroke-width:0.6;" x="182.725915" xlink:href="#me8133ae6d7" y="153"/>
      </g>
     </g>
     <g id="line2d_48">
      <g>
       <use style="stroke:#000000;stroke-width:0.6;" x="182.725915" xlink:href="#m6af446d425" y="9"/>
      </g>
     </g>
    </g>
    <g id="xtick_22">
     <g id="line2d_49">
      <g>
       <use style="stroke:#000000;stroke-width:0.6;" x="194.849798" xlink:href="#me8133ae6d7" y="153"/>
      </g>
     </g>
     <g id="line2d_50">
      <g>
       <use style="stroke:#000000;stroke-width:0.6;" x="194.849798" xlink:href="#m6af446d425" y="9"/>
      </g>
     </g>
    </g>
    <g id="xtick_23">
     <g id="line2d_51">
      <g>
       <use style="stroke:#000000;stroke-width:0.6;" x="203.45183" xlink:href="#me8133ae6d7" y="153"/>
      </g>
     </g>
     <g id="line2d_52">
      <g>
       <use style="stroke:#000000;stroke-width:0.6;" x="203.45183" xlink:href="#m6af446d425" y="9"/>
      </g>
     </g>
    </g>
    <g id="xtick_24">
     <g id="line2d_53">
      <g>
       <use style="stroke:#000000;stroke-width:0.6;" x="210.124085" xlink:href="#me8133ae6d7" y="153"/>
      </g>
     </g>
     <g id="line2d_54">
      <g>
       <use style="stroke:#000000;stroke-width:0.6;" x="210.124085" xlink:href="#m6af446d425" y="9"/>
      </g>
     </g>
    </g>
    <g id="xtick_25">
     <g id="line2d_55">
      <g>
       <use style="stroke:#000000;stroke-width:0.6;" x="215.575714" xlink:href="#me8133ae6d7" y="153"/>
      </g>
     </g>
     <g id="line2d_56">
      <g>
       <use style="stroke:#000000;stroke-width:0.6;" x="215.575714" xlink:href="#m6af446d425" y="9"/>
      </g>
     </g>
    </g>
    <g id="xtick_26">
     <g id="line2d_57">
      <g>
       <use style="stroke:#000000;stroke-width:0.6;" x="220.185" xlink:href="#me8133ae6d7" y="153"/>
      </g>
     </g>
     <g id="line2d_58">
      <g>
       <use style="stroke:#000000;stroke-width:0.6;" x="220.185" xlink:href="#m6af446d425" y="9"/>
      </g>
     </g>
    </g>
    <g id="xtick_27">
     <g id="line2d_59">
      <g>
       <use style="stroke:#000000;stroke-width:0.6;" x="224.177746" xlink:href="#me8133ae6d7" y="153"/>
      </g>
     </g>
     <g id="line2d_60">
      <g>
       <use style="stroke:#000000;stroke-width:0.6;" x="224.177746" xlink:href="#m6af446d425" y="9"/>
      </g>
     </g>
    </g>
    <g id="xtick_28">
     <g id="line2d_61">
      <g>
       <use style="stroke:#000000;stroke-width:0.6;" x="227.699597" xlink:href="#me8133ae6d7" y="153"/>
      </g>
     </g>
     <g id="line2d_62">
      <g>
       <use style="stroke:#000000;stroke-width:0.6;" x="227.699597" xlink:href="#m6af446d425" y="9"/>
      </g>
     </g>
    </g>
    <g id="text_5">
     <!-- $T/T_F$ -->
     <defs>
      <path d="M 74.796875 66.203125 
L 73.90625 58.796875 
L 49.40625 58.796875 
L 34.703125 0 
L 26 0 
L 40.59375 58.796875 
L 16.09375 58.796875 
L 19 66.203125 
z
" id="STIXGeneral-Italic-1d61b"/>
      <path d="M 28.703125 67.59375 
L 5.90625 -1.40625 
L -0.90625 -1.40625 
L 22 67.59375 
z
" id="STIXGeneral-Regular-2f"/>
      <path d="M 67.90625 66.203125 
L 66.90625 58.796875 
L 30.703125 58.796875 
L 25.703125 38.59375 
L 55.296875 38.59375 
L 53.40625 31.09375 
L 23.796875 31.09375 
L 16.09375 0 
L 7.40625 0 
L 23.90625 66.203125 
z
" id="STIXGeneral-Italic-1d60d"/>
     </defs>
     <g transform="translate(119.975 172.32125)scale(0.08 -0.08)">
      <use transform="translate(0 0.40625)" xlink:href="#STIXGeneral-Italic-1d61b"/>
      <use transform="translate(60.799988 0.40625)" xlink:href="#STIXGeneral-Regular-2f"/>
      <use transform="translate(88.599976 0.40625)" xlink:href="#STIXGeneral-Italic-1d61b"/>
      <use transform="translate(149.399963 -13.182812)scale(0.7)" xlink:href="#STIXGeneral-Italic-1d60d"/>
     </g>
    </g>
   </g>
   <g id="matplotlib.axis_2">
    <g id="ytick_1">
     <g id="line2d_63">
      <defs>
       <path d="M 0 0 
L 2.5 0 
" id="m3d92d9bfd6" style="stroke:#000000;stroke-width:0.8;"/>
      </defs>
      <g>
       <use style="stroke:#000000;stroke-width:0.8;" x="24.3" xlink:href="#m3d92d9bfd6" y="153"/>
      </g>
     </g>
     <g id="line2d_64">
      <defs>
       <path d="M 0 0 
L -2.5 0 
" id="me1374541b7" style="stroke:#000000;stroke-width:0.8;"/>
      </defs>
      <g>
       <use style="stroke:#000000;stroke-width:0.8;" x="230.85" xlink:href="#me1374541b7" y="153"/>
      </g>
     </g>
     <g id="text_6">
      <!-- $0$ -->
      <defs>
       <path d="M 47.703125 33 
Q 47.703125 23.796875 45.546875 16.34375 
Q 43.40625 8.90625 38.09375 3.75 
Q 32.796875 -1.40625 25 -1.40625 
Q 18.796875 -1.40625 14.25 1.6875 
Q 9.703125 4.796875 7.203125 10.046875 
Q 4.703125 15.296875 3.5 21.140625 
Q 2.296875 27 2.296875 33.59375 
Q 2.296875 42.90625 4.59375 50.34375 
Q 6.90625 57.796875 12.296875 62.6875 
Q 17.703125 67.59375 25.40625 67.59375 
Q 35.203125 67.59375 41.453125 57.9375 
Q 47.703125 48.296875 47.703125 33 
z
M 39.796875 33 
Q 39.796875 45.203125 35.75 52.84375 
Q 31.703125 60.5 25.203125 60.5 
Q 17.796875 60.5 14 52.75 
Q 10.203125 45 10.203125 33.40625 
Q 10.203125 28.203125 10.953125 23.546875 
Q 11.703125 18.90625 13.34375 14.75 
Q 15 10.59375 18 8.140625 
Q 21 5.703125 25 5.703125 
Q 30.09375 5.703125 33.546875 9.796875 
Q 37 13.90625 38.390625 19.84375 
Q 39.796875 25.796875 39.796875 33 
z
" id="STIXGeneral-Regular-1d7e2"/>
      </defs>
      <g transform="translate(16.8 156.039375)scale(0.08 -0.08)">
       <use transform="translate(0 0.40625)" xlink:href="#STIXGeneral-Regular-1d7e2"/>
      </g>
     </g>
    </g>
    <g id="ytick_2">
     <g id="line2d_65">
      <g>
       <use style="stroke:#000000;stroke-width:0.8;" x="24.3" xlink:href="#m3d92d9bfd6" y="117"/>
      </g>
     </g>
     <g id="line2d_66">
      <g>
       <use style="stroke:#000000;stroke-width:0.8;" x="230.85" xlink:href="#me1374541b7" y="117"/>
      </g>
     </g>
     <g id="text_7">
      <!-- $0.5$ -->
      <defs>
       <path d="M 18.09375 4.296875 
Q 18.09375 2.09375 16.4375 0.5 
Q 14.796875 -1.09375 12.5 -1.09375 
Q 10.203125 -1.09375 8.59375 0.5 
Q 7 2.09375 7 4.390625 
Q 7 6.703125 8.640625 8.34375 
Q 10.296875 10 12.59375 10 
Q 14.796875 10 16.4375 8.296875 
Q 18.09375 6.59375 18.09375 4.296875 
z
" id="STIXGeneral-Regular-2e"/>
       <path d="M 45.796875 67.59375 
L 42.59375 60.5 
L 24.90625 60.5 
L 18.5 47.796875 
Q 29.90625 46.203125 37.25 39.75 
Q 44.59375 33.296875 44.59375 22.59375 
Q 44.59375 12.703125 37.84375 5.640625 
Q 31.09375 -1.40625 21 -1.40625 
Q 10 -1.40625 3.59375 5.59375 
L 8.296875 11.203125 
Q 13.40625 5.703125 20.5 5.703125 
Q 27.90625 5.703125 32.296875 10.75 
Q 36.703125 15.796875 36.703125 22.59375 
Q 36.703125 30 30.09375 35.203125 
Q 23.40625 40.703125 9.40625 40.703125 
L 8 42.40625 
L 19.59375 67.59375 
z
" id="STIXGeneral-Regular-1d7e7"/>
      </defs>
      <g transform="translate(10.8 120.039375)scale(0.08 -0.08)">
       <use transform="translate(0 0.40625)" xlink:href="#STIXGeneral-Regular-1d7e2"/>
       <use transform="translate(49.999985 0.40625)" xlink:href="#STIXGeneral-Regular-2e"/>
       <use transform="translate(74.999969 0.40625)" xlink:href="#STIXGeneral-Regular-1d7e7"/>
      </g>
     </g>
    </g>
    <g id="ytick_3">
     <g id="line2d_67">
      <g>
       <use style="stroke:#000000;stroke-width:0.8;" x="24.3" xlink:href="#m3d92d9bfd6" y="81"/>
      </g>
     </g>
     <g id="line2d_68">
      <g>
       <use style="stroke:#000000;stroke-width:0.8;" x="230.85" xlink:href="#me1374541b7" y="81"/>
      </g>
     </g>
     <g id="text_8">
      <!-- $1$ -->
      <defs>
       <path d="M 30.203125 0 
L 22.296875 0 
L 22.296875 57 
Q 20.09375 56 15.75 53.75 
Q 11.40625 51.5 10.796875 51.203125 
L 10.796875 58.5 
L 28.796875 67.703125 
L 30.203125 67.203125 
z
" id="STIXGeneral-Regular-1d7e3"/>
      </defs>
      <g transform="translate(16.8 84.039375)scale(0.08 -0.08)">
       <use transform="translate(0 0.296875)" xlink:href="#STIXGeneral-Regular-1d7e3"/>
      </g>
     </g>
    </g>
    <g id="ytick_4">
     <g id="line2d_69">
      <g>
       <use style="stroke:#000000;stroke-width:0.8;" x="24.3" xlink:href="#m3d92d9bfd6" y="45"/>
      </g>
     </g>
     <g id="line2d_70">
      <g>
       <use style="stroke:#000000;stroke-width:0.8;" x="230.85" xlink:href="#me1374541b7" y="45"/>
      </g>
     </g>
     <g id="text_9">
      <!-- $1.5$ -->
      <g transform="translate(10.8 48.039375)scale(0.08 -0.08)">
       <use transform="translate(0 0.296875)" xlink:href="#STIXGeneral-Regular-1d7e3"/>
       <use transform="translate(49.999985 0.296875)" xlink:href="#STIXGeneral-Regular-2e"/>
       <use transform="translate(74.999969 0.296875)" xlink:href="#STIXGeneral-Regular-1d7e7"/>
      </g>
     </g>
    </g>
    <g id="ytick_5">
     <g id="line2d_71">
      <g>
       <use style="stroke:#000000;stroke-width:0.8;" x="24.3" xlink:href="#m3d92d9bfd6" y="9"/>
      </g>
     </g>
     <g id="line2d_72">
      <g>
       <use style="stroke:#000000;stroke-width:0.8;" x="230.85" xlink:href="#me1374541b7" y="9"/>
      </g>
     </g>
     <g id="text_10">
      <!-- $2$ -->
      <defs>
       <path d="M 46.90625 7.09375 
L 44 0 
L 3.5 0 
L 3.5 2.09375 
L 21 23.5 
L 21 23.40625 
L 26.59375 30.203125 
Q 30.5 34.90625 32.09375 36.953125 
Q 33.703125 39 35.203125 41.953125 
Q 36.703125 44.90625 36.703125 47.5 
Q 36.703125 53.703125 33.34375 57.09375 
Q 30 60.5 24.203125 60.5 
Q 19.59375 60.5 15.75 56.703125 
Q 11.90625 52.90625 10.90625 45.90625 
L 3.703125 47.59375 
Q 5.296875 56.5 11.1875 62.046875 
Q 17.09375 67.59375 24.90625 67.59375 
Q 33.59375 67.59375 39.09375 62.1875 
Q 44.59375 56.796875 44.59375 49.09375 
Q 44.59375 43.5 42.5 39.453125 
Q 40.40625 35.40625 33.703125 27 
L 17.703125 7.09375 
z
" id="STIXGeneral-Regular-1d7e4"/>
      </defs>
      <g transform="translate(16.8 12.039375)scale(0.08 -0.08)">
       <use transform="translate(0 0.40625)" xlink:href="#STIXGeneral-Regular-1d7e4"/>
      </g>
     </g>
    </g>
    <g id="ytick_6">
     <g id="line2d_73">
      <defs>
       <path d="M 0 0 
L 1.5 0 
" id="m648e2d427f" style="stroke:#000000;stroke-width:0.6;"/>
      </defs>
      <g>
       <use style="stroke:#000000;stroke-width:0.6;" x="24.3" xlink:href="#m648e2d427f" y="135"/>
      </g>
     </g>
     <g id="line2d_74">
      <defs>
       <path d="M 0 0 
L -1.5 0 
" id="m4d288f80b7" style="stroke:#000000;stroke-width:0.6;"/>
      </defs>
      <g>
       <use style="stroke:#000000;stroke-width:0.6;" x="230.85" xlink:href="#m4d288f80b7" y="135"/>
      </g>
     </g>
    </g>
    <g id="ytick_7">
     <g id="line2d_75">
      <g>
       <use style="stroke:#000000;stroke-width:0.6;" x="24.3" xlink:href="#m648e2d427f" y="99"/>
      </g>
     </g>
     <g id="line2d_76">
      <g>
       <use style="stroke:#000000;stroke-width:0.6;" x="230.85" xlink:href="#m4d288f80b7" y="99"/>
      </g>
     </g>
    </g>
    <g id="ytick_8">
     <g id="line2d_77">
      <g>
       <use style="stroke:#000000;stroke-width:0.6;" x="24.3" xlink:href="#m648e2d427f" y="63"/>
      </g>
     </g>
     <g id="line2d_78">
      <g>
       <use style="stroke:#000000;stroke-width:0.6;" x="230.85" xlink:href="#m4d288f80b7" y="63"/>
      </g>
     </g>
    </g>
    <g id="ytick_9">
     <g id="line2d_79">
      <g>
       <use style="stroke:#000000;stroke-width:0.6;" x="24.3" xlink:href="#m648e2d427f" y="27"/>
      </g>
     </g>
     <g id="line2d_80">
      <g>
       <use style="stroke:#000000;stroke-width:0.6;" x="230.85" xlink:href="#m4d288f80b7" y="27"/>
      </g>
     </g>
    </g>
    <g id="text_11">
     <!-- $\chi_s/\chi_0$ -->
     <defs>
      <path d="M 55.203125 45.296875 
L 28.40625 12.40625 
Q 27.296875 5.296875 27.296875 0.796875 
Q 27.296875 -2 28.09375 -5.203125 
Q 28.90625 -8.40625 31.34375 -11.34375 
Q 33.796875 -14.296875 37.40625 -14.296875 
L 37 -15.703125 
L 30.59375 -21.5 
Q 20 -21.5 20 -3.5 
Q 20 -1.40625 20.203125 2.203125 
Q 18.296875 -0.203125 11.5 -8.34375 
Q 4.703125 -16.5 1.40625 -20.90625 
L -7.203125 -20.90625 
L 19.796875 12.5 
Q 21 18.796875 21 24 
Q 21 26.90625 20.140625 30.15625 
Q 19.296875 33.40625 16.890625 36.296875 
Q 14.5 39.203125 11 39.203125 
L 11.296875 40.5 
L 17.796875 46.296875 
Q 28.296875 46.296875 28.296875 28.203125 
Q 28.296875 26.203125 28.09375 22.59375 
L 46.5 45.296875 
z
" id="STIXNonUnicode-Italic-e1ee"/>
      <path d="M 43.203125 41 
L 41 32.09375 
L 39.5 32.09375 
Q 37.796875 36.5 35.296875 37.890625 
Q 32.796875 39.296875 28.890625 39.296875 
Q 25 39.296875 23.046875 37.140625 
Q 21.09375 35 21.09375 33 
Q 21.09375 31 22.796875 29.546875 
Q 24.5 28.09375 27.796875 26.5 
Q 33.796875 23.59375 36.140625 21.34375 
Q 38.5 19.09375 38.5 15.796875 
Q 38.5 9 32.890625 4 
Q 27.296875 -1 18.59375 -1 
Q 14.09375 -1 11.390625 0.296875 
Q 8.703125 1.59375 6.09375 4.5 
L 8.59375 14.796875 
L 10.09375 14.796875 
Q 11.90625 6.09375 21 6.09375 
Q 24.40625 6.09375 27.296875 7.84375 
Q 30.203125 9.59375 30.203125 12.796875 
Q 30.203125 14.296875 28.59375 15.640625 
Q 27 17 23.203125 18.90625 
Q 17.703125 21.59375 15.25 24.25 
Q 12.796875 26.90625 12.796875 30.296875 
Q 12.796875 36.5 18 41.390625 
Q 23.203125 46.296875 30.90625 46.296875 
Q 39.59375 46.296875 43.203125 41 
z
" id="STIXGeneral-Italic-1d634"/>
     </defs>
     <g transform="translate(7.04 88.96)rotate(-90)scale(0.08 -0.08)">
      <use transform="translate(0 0.40625)" xlink:href="#STIXNonUnicode-Italic-e1ee"/>
      <use transform="translate(52.192689 -13.182812)scale(0.7)" xlink:href="#STIXGeneral-Italic-1d634"/>
      <use transform="translate(81.687529 0.40625)" xlink:href="#STIXGeneral-Regular-2f"/>
      <use transform="translate(109.487516 0.40625)" xlink:href="#STIXNonUnicode-Italic-e1ee"/>
      <use transform="translate(161.680206 -13.182812)scale(0.7)" xlink:href="#STIXGeneral-Regular-1d7e2"/>
     </g>
    </g>
   </g>
   <g id="LineCollection_1">
    <path clip-path="url(#pb30a77a13b)" d="M 27.824674 43.641303 
L 34.983486 43.641303 
" style="fill:none;stroke:#a42604;"/>
    <path clip-path="url(#pb30a77a13b)" d="M 31.582805 104.175873 
L 39.801913 104.175873 
" style="fill:none;stroke:#a42604;"/>
    <path clip-path="url(#pb30a77a13b)" d="M 42.820498 55.740293 
L 47.815686 55.740293 
" style="fill:none;stroke:#a42604;"/>
    <path clip-path="url(#pb30a77a13b)" d="M 51.952711 82.692507 
L 53.770282 82.692507 
" style="fill:none;stroke:#a42604;"/>
    <path clip-path="url(#pb30a77a13b)" d="M 57.023026 74.226324 
L 57.671089 74.226324 
" style="fill:none;stroke:#a42604;"/>
    <path clip-path="url(#pb30a77a13b)" d="M 66.482155 83.165331 
L 67.236254 83.165331 
" style="fill:none;stroke:#a42604;"/>
    <path clip-path="url(#pb30a77a13b)" d="M 71.106418 88.944355 
L 73.028017 88.944355 
" style="fill:none;stroke:#a42604;"/>
    <path clip-path="url(#pb30a77a13b)" d="M 76.169958 96.598691 
L 78.302359 96.598691 
" style="fill:none;stroke:#a42604;"/>
    <path clip-path="url(#pb30a77a13b)" d="M 84.075809 93.7362 
L 85.997408 93.7362 
" style="fill:none;stroke:#a42604;"/>
    <path clip-path="url(#pb30a77a13b)" d="M 88.386142 102.893634 
L 91.037574 102.893634 
" style="fill:none;stroke:#a42604;"/>
    <path clip-path="url(#pb30a77a13b)" d="M 97.531906 116.336378 
L 99.768895 116.336378 
" style="fill:none;stroke:#a42604;"/>
    <path clip-path="url(#pb30a77a13b)" d="M 106.000122 120.034522 
L 107.499046 120.034522 
" style="fill:none;stroke:#a42604;"/>
    <path clip-path="url(#pb30a77a13b)" d="M 113.672785 129.734983 
L 115.276275 129.734983 
" style="fill:none;stroke:#a42604;"/>
    <path clip-path="url(#pb30a77a13b)" d="M 119.210043 133.073774 
L 121.027614 133.073774 
" style="fill:none;stroke:#a42604;"/>
    <path clip-path="url(#pb30a77a13b)" d="M 131.474784 138.239569 
L 134.955514 138.239569 
" style="fill:none;stroke:#a42604;"/>
    <path clip-path="url(#pb30a77a13b)" d="M 136.366114 141.773502 
L 139.017546 141.773502 
" style="fill:none;stroke:#a42604;"/>
    <path clip-path="url(#pb30a77a13b)" d="M 141.848039 144.352229 
L 147.738745 144.352229 
" style="fill:none;stroke:#a42604;"/>
    <path clip-path="url(#pb30a77a13b)" d="M 162.945179 147.778426 
L 169.129325 147.778426 
" style="fill:none;stroke:#a42604;"/>
   </g>
   <g id="LineCollection_2">
    <path clip-path="url(#pb30a77a13b)" d="M 31.617812 72.890912 
L 31.617812 14.391694 
" style="fill:none;stroke:#a42604;"/>
    <path clip-path="url(#pb30a77a13b)" d="M 35.973879 128.644325 
L 35.973879 79.707422 
" style="fill:none;stroke:#a42604;"/>
    <path clip-path="url(#pb30a77a13b)" d="M 45.422281 78.615025 
L 45.422281 32.865561 
" style="fill:none;stroke:#a42604;"/>
    <path clip-path="url(#pb30a77a13b)" d="M 52.875305 89.25488 
L 52.875305 76.130133 
" style="fill:none;stroke:#a42604;"/>
    <path clip-path="url(#pb30a77a13b)" d="M 57.348813 78.07 
L 57.348813 70.382648 
" style="fill:none;stroke:#a42604;"/>
    <path clip-path="url(#pb30a77a13b)" d="M 66.861582 85.603132 
L 66.861582 80.727531 
" style="fill:none;stroke:#a42604;"/>
    <path clip-path="url(#pb30a77a13b)" d="M 72.082651 90.538075 
L 72.082651 87.350636 
" style="fill:none;stroke:#a42604;"/>
    <path clip-path="url(#pb30a77a13b)" d="M 77.255163 99.22364 
L 77.255163 93.973742 
" style="fill:none;stroke:#a42604;"/>
    <path clip-path="url(#pb30a77a13b)" d="M 85.052043 96.548819 
L 85.052043 90.92358 
" style="fill:none;stroke:#a42604;"/>
    <path clip-path="url(#pb30a77a13b)" d="M 89.741237 106.268569 
L 89.741237 99.518699 
" style="fill:none;stroke:#a42604;"/>
    <path clip-path="url(#pb30a77a13b)" d="M 98.671315 118.305089 
L 98.671315 114.367666 
" style="fill:none;stroke:#a42604;"/>
    <path clip-path="url(#pb30a77a13b)" d="M 106.758975 123.128386 
L 106.758975 116.940658 
" style="fill:none;stroke:#a42604;"/>
    <path clip-path="url(#pb30a77a13b)" d="M 114.485277 131.797965 
L 114.485277 127.672002 
" style="fill:none;stroke:#a42604;"/>
    <path clip-path="url(#pb30a77a13b)" d="M 120.132637 133.917682 
L 120.132637 132.229867 
" style="fill:none;stroke:#a42604;"/>
    <path clip-path="url(#pb30a77a13b)" d="M 133.265769 139.458643 
L 133.265769 137.020495 
" style="fill:none;stroke:#a42604;"/>
    <path clip-path="url(#pb30a77a13b)" d="M 137.721209 142.617062 
L 137.721209 140.929942 
" style="fill:none;stroke:#a42604;"/>
    <path clip-path="url(#pb30a77a13b)" d="M 144.938221 145.102562 
L 144.938221 143.601896 
" style="fill:none;stroke:#a42604;"/>
    <path clip-path="url(#pb30a77a13b)" d="M 166.196843 149.371797 
L 166.196843 146.185054 
" style="fill:none;stroke:#a42604;"/>
   </g>
   <g id="line2d_81">
    <path clip-path="url(#pb30a77a13b)" d="M 93.15 105 
L 113.875915 129 
L 125.999798 137 
L 134.60183 141 
L 141.274085 143.4 
L 146.725714 145 
L 151.335 146.142857 
L 155.327746 147 
L 158.849597 147.666667 
L 162 148.2 
L 164.849886 148.636364 
L 167.451629 149 
L 169.845 149.307692 
L 172.060915 149.571429 
L 174.123883 149.8 
L 176.053661 150 
L 177.866408 150.176471 
L 179.575512 150.333333 
L 181.192185 150.473684 
L 182.725915 150.6 
L 184.184798 150.714286 
L 185.575802 150.818182 
L 186.904962 150.913043 
L 188.177544 151 
L 189.39817 151.08 
L 190.570915 151.153846 
L 191.699395 151.222222 
L 192.78683 151.285714 
L 193.836102 151.344828 
L 194.849798 151.4 
L 195.830253 151.451613 
L 196.779576 151.5 
L 197.699685 151.545455 
L 198.592323 151.588235 
L 199.459085 151.628571 
L 200.301427 151.666667 
L 201.120689 151.702703 
L 201.918101 151.736842 
L 202.694798 151.769231 
L 203.45183 151.8 
L 204.190169 151.829268 
L 204.910714 151.857143 
L 205.614303 151.883721 
L 206.301717 151.909091 
L 206.973682 151.933333 
L 207.630877 151.956522 
L 208.273938 151.978723 
L 208.903459 152 
L 209.52 152.020408 
L 210.124085 152.04 
L 210.716207 152.058824 
L 211.29683 152.076923 
L 211.866394 152.09434 
L 212.42531 152.111111 
L 212.973971 152.127273 
L 213.512746 152.142857 
L 214.041984 152.157895 
L 214.562017 152.172414 
L 215.073161 152.186441 
L 215.575714 152.2 
L 216.069959 152.213115 
L 216.556168 152.225806 
L 217.034597 152.238095 
L 217.505491 152.25 
L 217.969085 152.261538 
L 218.4256 152.272727 
L 218.87525 152.283582 
L 219.318239 152.294118 
L 219.75476 152.304348 
L 220.185 152.314286 
L 220.609137 152.323944 
L 221.027342 152.333333 
L 221.439779 152.342466 
L 221.846604 152.351351 
L 222.247968 152.36 
L 222.644016 152.368421 
L 223.034886 152.376623 
L 223.420713 152.384615 
L 223.801625 152.392405 
L 224.177746 152.4 
L 224.549194 152.407407 
L 224.916084 152.414634 
L 225.278527 152.421687 
L 225.636629 152.428571 
L 225.990493 152.435294 
L 226.340218 152.44186 
L 226.685901 152.448276 
L 227.027632 152.454545 
L 227.365502 152.460674 
L 227.699597 152.466667 
L 228.03 152.472527 
L 228.356792 152.478261 
L 228.680051 152.483871 
L 228.999853 152.489362 
L 229.31627 152.494737 
L 229.629374 152.5 
L 229.939234 152.505155 
L 230.245915 152.510204 
L 230.549483 152.515152 
L 230.85 152.52 
" style="fill:none;stroke:#ffa500;stroke-dasharray:3.7,1.6;stroke-dashoffset:0;"/>
   </g>
   <g id="line2d_82">
    <path clip-path="url(#pb30a77a13b)" d="M 187.193052 150.937804 
L 180.165656 150.394067 
L 173.146679 149.709271 
L 166.139616 148.848635 
L 159.149376 147.77021 
L 152.182803 146.424495 
L 145.249359 144.754966 
L 138.361969 142.700274 
L 131.537995 140.199186 
L 124.800224 137.199405 
L 118.177635 133.670949 
L 111.705559 129.623099 
L 105.42473 125.120921 
L 99.378811 120.293865 
L 93.610373 115.328114 
L 88.155997 110.439394 
L 83.041797 105.833216 
L 78.280707 101.66791 
L 73.872261 98.034513 
L 69.804555 94.957559 
L 66.057448 92.410577 
L 62.605953 90.336475 
L 59.42311 88.665406 
L 56.482071 87.327078 
L 53.757397 86.257607 
L 51.225762 85.402381 
L 48.866214 84.716479 
L 46.660192 84.163855 
L 44.591382 83.716037 
L 42.645511 83.350743 
L 40.810117 83.050629 
L 39.074321 82.802215 
L 37.428614 82.595026 
L 35.86467 82.420903 
L 34.375179 82.273471 
L 32.953707 82.14773 
L 31.59457 82.039738 
L 30.292733 81.946368 
L 29.043719 81.865129 
L 27.843537 81.794022 
L 26.688614 81.731436 
L 25.575742 81.676059 
L 24.502037 81.626822 
L 23.464889 81.582842 
L 22.461937 81.543392 
L 21.491037 81.507863 
L 20.550237 81.475749 
L 19.637752 81.44662 
L 18.751952 81.420113 
L 17.891339 81.395921 
L 17.054539 81.373777 
L 16.240283 81.353456 
L 15.447401 81.334761 
L 14.67481 81.31752 
L 13.921508 81.301587 
L 13.186564 81.28683 
L 12.469111 81.273137 
L 11.768342 81.260406 
L 11.083505 81.248549 
L 10.413897 81.237487 
L 9.75886 81.227151 
L 9.117777 81.217477 
L 8.49007 81.208411 
L 7.875195 81.199902 
L 7.272642 81.191905 
L 6.681928 81.184381 
L 6.1026 81.177291 
L 5.534229 81.170604 
L 4.976411 81.164289 
L 4.428763 81.158319 
L 3.890921 81.152669 
L 3.362543 81.147317 
L 2.843303 81.142242 
L 2.332891 81.137426 
L 1.831013 81.13285 
L 1.33739 81.1285 
L 0.851755 81.124361 
L 0.373855 81.120418 
L -0.096552 81.11666 
L -0.559697 81.113076 
L -1 81.109773 
" style="fill:none;stroke:#808080;stroke-dasharray:1,1.65;stroke-dashoffset:0;"/>
   </g>
   <g id="line2d_83">
    <path clip-path="url(#pb30a77a13b)" d="M 186.948885 150.946389 
L 184.900458 150.803478 
L 182.850523 150.650811 
L 180.798923 150.487756 
L 178.745488 150.313648 
L 176.690032 150.127785 
L 174.632349 149.929431 
L 172.572217 149.717816 
L 170.509391 149.492131 
L 168.443604 149.251536 
L 166.374566 148.995158 
L 164.301962 148.722092 
L 162.225451 148.431407 
L 160.144665 148.122148 
L 158.059205 147.793343 
L 155.968645 147.44401 
L 153.872529 147.073164 
L 151.770372 146.67983 
L 149.661661 146.263054 
L 147.545855 145.821922 
L 145.422392 145.355575 
L 143.29069 144.863237 
L 141.150157 144.344234 
L 139.000196 143.798037 
L 136.840219 143.224288 
L 134.669662 142.622851 
L 132.488005 141.993866 
L 130.294793 141.337776 
L 128.089672 140.655462 
L 125.872423 139.948261 
L 123.643007 139.218091 
L 121.40163 138.46756 
L 119.148806 137.700106 
L 116.885444 136.920158 
L 114.612958 136.133348 
L 112.333391 135.346766 
L 110.049574 134.56929 
L 107.76533 133.812014 
L 105.485716 133.088804 
L 103.217347 132.417051 
L 100.968808 131.818676 
L 98.751208 131.32151 
L 96.578931 130.961209 
L 94.470701 130.783942 
L 92.451115 130.850245 
L 90.552969 131.240649 
L 88.820898 132.064153 
L 87.317402 133.471456 
L 86.1334 135.676749 
L 85.408182 138.996224 
" style="fill:none;stroke:#114b5f;stroke-dasharray:3.7,1.6;stroke-dashoffset:0;"/>
   </g>
   <g id="line2d_84">
    <defs>
     <path d="M 0 1.5 
C 0.397805 1.5 0.77937 1.341951 1.06066 1.06066 
C 1.341951 0.77937 1.5 0.397805 1.5 0 
C 1.5 -0.397805 1.341951 -0.77937 1.06066 -1.06066 
C 0.77937 -1.341951 0.397805 -1.5 0 -1.5 
C -0.397805 -1.5 -0.77937 -1.341951 -1.06066 -1.06066 
C -1.341951 -0.77937 -1.5 -0.397805 -1.5 0 
C -1.5 0.397805 -1.341951 0.77937 -1.06066 1.06066 
C -0.77937 1.341951 -0.397805 1.5 0 1.5 
z
" id="m64bde21fb1" style="stroke:#a42604;stroke-width:0.75;"/>
    </defs>
    <g clip-path="url(#pb30a77a13b)">
     <use style="fill:#f94515;stroke:#a42604;stroke-width:0.75;" x="31.617812" xlink:href="#m64bde21fb1" y="43.641303"/>
     <use style="fill:#f94515;stroke:#a42604;stroke-width:0.75;" x="35.973879" xlink:href="#m64bde21fb1" y="104.175873"/>
     <use style="fill:#f94515;stroke:#a42604;stroke-width:0.75;" x="45.422281" xlink:href="#m64bde21fb1" y="55.740293"/>
     <use style="fill:#f94515;stroke:#a42604;stroke-width:0.75;" x="52.875305" xlink:href="#m64bde21fb1" y="82.692507"/>
     <use style="fill:#f94515;stroke:#a42604;stroke-width:0.75;" x="57.348813" xlink:href="#m64bde21fb1" y="74.226324"/>
     <use style="fill:#f94515;stroke:#a42604;stroke-width:0.75;" x="66.861582" xlink:href="#m64bde21fb1" y="83.165331"/>
     <use style="fill:#f94515;stroke:#a42604;stroke-width:0.75;" x="72.082651" xlink:href="#m64bde21fb1" y="88.944355"/>
     <use style="fill:#f94515;stroke:#a42604;stroke-width:0.75;" x="77.255163" xlink:href="#m64bde21fb1" y="96.598691"/>
     <use style="fill:#f94515;stroke:#a42604;stroke-width:0.75;" x="85.052043" xlink:href="#m64bde21fb1" y="93.7362"/>
     <use style="fill:#f94515;stroke:#a42604;stroke-width:0.75;" x="89.741237" xlink:href="#m64bde21fb1" y="102.893634"/>
     <use style="fill:#f94515;stroke:#a42604;stroke-width:0.75;" x="98.671315" xlink:href="#m64bde21fb1" y="116.336378"/>
     <use style="fill:#f94515;stroke:#a42604;stroke-width:0.75;" x="106.758975" xlink:href="#m64bde21fb1" y="120.034522"/>
     <use style="fill:#f94515;stroke:#a42604;stroke-width:0.75;" x="114.485277" xlink:href="#m64bde21fb1" y="129.734983"/>
     <use style="fill:#f94515;stroke:#a42604;stroke-width:0.75;" x="120.132637" xlink:href="#m64bde21fb1" y="133.073774"/>
     <use style="fill:#f94515;stroke:#a42604;stroke-width:0.75;" x="133.265769" xlink:href="#m64bde21fb1" y="138.239569"/>
     <use style="fill:#f94515;stroke:#a42604;stroke-width:0.75;" x="137.721209" xlink:href="#m64bde21fb1" y="141.773502"/>
     <use style="fill:#f94515;stroke:#a42604;stroke-width:0.75;" x="144.938221" xlink:href="#m64bde21fb1" y="144.352229"/>
     <use style="fill:#f94515;stroke:#a42604;stroke-width:0.75;" x="166.196843" xlink:href="#m64bde21fb1" y="147.778426"/>
    </g>
   </g>
   <g id="patch_3">
    <path d="M 24.3 153 
L 24.3 9 
" style="fill:none;stroke:#000000;stroke-linecap:square;stroke-linejoin:miter;stroke-width:0.8;"/>
   </g>
   <g id="patch_4">
    <path d="M 230.85 153 
L 230.85 9 
" style="fill:none;stroke:#000000;stroke-linecap:square;stroke-linejoin:miter;stroke-width:0.8;"/>
   </g>
   <g id="patch_5">
    <path d="M 24.3 153 
L 230.85 153 
" style="fill:none;stroke:#000000;stroke-linecap:square;stroke-linejoin:miter;stroke-width:0.8;"/>
   </g>
   <g id="patch_6">
    <path d="M 24.3 9 
L 230.85 9 
" style="fill:none;stroke:#000000;stroke-linecap:square;stroke-linejoin:miter;stroke-width:0.8;"/>
   </g>
   <g id="legend_1">
    <g id="line2d_85">
     <path d="M 131.277187 16.859062 
L 143.277187 16.859062 
" style="fill:none;stroke:#808080;stroke-dasharray:1,1.65;stroke-dashoffset:0;"/>
    </g>
    <g id="line2d_86"/>
    <g id="text_12">
     <!-- non-interacting -->
     <defs>
      <path d="M 54.890625 33.015625 
L 54.890625 0 
L 45.90625 0 
L 45.90625 32.71875 
Q 45.90625 40.484375 42.875 44.328125 
Q 39.84375 48.1875 33.796875 48.1875 
Q 26.515625 48.1875 22.3125 43.546875 
Q 18.109375 38.921875 18.109375 30.90625 
L 18.109375 0 
L 9.078125 0 
L 9.078125 54.6875 
L 18.109375 54.6875 
L 18.109375 46.1875 
Q 21.34375 51.125 25.703125 53.5625 
Q 30.078125 56 35.796875 56 
Q 45.21875 56 50.046875 50.171875 
Q 54.890625 44.34375 54.890625 33.015625 
z
" id="DejaVuSans-6e"/>
      <path d="M 30.609375 48.390625 
Q 23.390625 48.390625 19.1875 42.75 
Q 14.984375 37.109375 14.984375 27.296875 
Q 14.984375 17.484375 19.15625 11.84375 
Q 23.34375 6.203125 30.609375 6.203125 
Q 37.796875 6.203125 41.984375 11.859375 
Q 46.1875 17.53125 46.1875 27.296875 
Q 46.1875 37.015625 41.984375 42.703125 
Q 37.796875 48.390625 30.609375 48.390625 
z
M 30.609375 56 
Q 42.328125 56 49.015625 48.375 
Q 55.71875 40.765625 55.71875 27.296875 
Q 55.71875 13.875 49.015625 6.21875 
Q 42.328125 -1.421875 30.609375 -1.421875 
Q 18.84375 -1.421875 12.171875 6.21875 
Q 5.515625 13.875 5.515625 27.296875 
Q 5.515625 40.765625 12.171875 48.375 
Q 18.84375 56 30.609375 56 
z
" id="DejaVuSans-6f"/>
      <path d="M 4.890625 31.390625 
L 31.203125 31.390625 
L 31.203125 23.390625 
L 4.890625 23.390625 
z
" id="DejaVuSans-2d"/>
      <path d="M 9.421875 54.6875 
L 18.40625 54.6875 
L 18.40625 0 
L 9.421875 0 
z
M 9.421875 75.984375 
L 18.40625 75.984375 
L 18.40625 64.59375 
L 9.421875 64.59375 
z
" id="DejaVuSans-69"/>
      <path d="M 18.3125 70.21875 
L 18.3125 54.6875 
L 36.8125 54.6875 
L 36.8125 47.703125 
L 18.3125 47.703125 
L 18.3125 18.015625 
Q 18.3125 11.328125 20.140625 9.421875 
Q 21.96875 7.515625 27.59375 7.515625 
L 36.8125 7.515625 
L 36.8125 0 
L 27.59375 0 
Q 17.1875 0 13.234375 3.875 
Q 9.28125 7.765625 9.28125 18.015625 
L 9.28125 47.703125 
L 2.6875 47.703125 
L 2.6875 54.6875 
L 9.28125 54.6875 
L 9.28125 70.21875 
z
" id="DejaVuSans-74"/>
      <path d="M 56.203125 29.59375 
L 56.203125 25.203125 
L 14.890625 25.203125 
Q 15.484375 15.921875 20.484375 11.0625 
Q 25.484375 6.203125 34.421875 6.203125 
Q 39.59375 6.203125 44.453125 7.46875 
Q 49.3125 8.734375 54.109375 11.28125 
L 54.109375 2.78125 
Q 49.265625 0.734375 44.1875 -0.34375 
Q 39.109375 -1.421875 33.890625 -1.421875 
Q 20.796875 -1.421875 13.15625 6.1875 
Q 5.515625 13.8125 5.515625 26.8125 
Q 5.515625 40.234375 12.765625 48.109375 
Q 20.015625 56 32.328125 56 
Q 43.359375 56 49.78125 48.890625 
Q 56.203125 41.796875 56.203125 29.59375 
z
M 47.21875 32.234375 
Q 47.125 39.59375 43.09375 43.984375 
Q 39.0625 48.390625 32.421875 48.390625 
Q 24.90625 48.390625 20.390625 44.140625 
Q 15.875 39.890625 15.1875 32.171875 
z
" id="DejaVuSans-65"/>
      <path d="M 41.109375 46.296875 
Q 39.59375 47.171875 37.8125 47.578125 
Q 36.03125 48 33.890625 48 
Q 26.265625 48 22.1875 43.046875 
Q 18.109375 38.09375 18.109375 28.8125 
L 18.109375 0 
L 9.078125 0 
L 9.078125 54.6875 
L 18.109375 54.6875 
L 18.109375 46.1875 
Q 20.953125 51.171875 25.484375 53.578125 
Q 30.03125 56 36.53125 56 
Q 37.453125 56 38.578125 55.875 
Q 39.703125 55.765625 41.0625 55.515625 
z
" id="DejaVuSans-72"/>
      <path d="M 34.28125 27.484375 
Q 23.390625 27.484375 19.1875 25 
Q 14.984375 22.515625 14.984375 16.5 
Q 14.984375 11.71875 18.140625 8.90625 
Q 21.296875 6.109375 26.703125 6.109375 
Q 34.1875 6.109375 38.703125 11.40625 
Q 43.21875 16.703125 43.21875 25.484375 
L 43.21875 27.484375 
z
M 52.203125 31.203125 
L 52.203125 0 
L 43.21875 0 
L 43.21875 8.296875 
Q 40.140625 3.328125 35.546875 0.953125 
Q 30.953125 -1.421875 24.3125 -1.421875 
Q 15.921875 -1.421875 10.953125 3.296875 
Q 6 8.015625 6 15.921875 
Q 6 25.140625 12.171875 29.828125 
Q 18.359375 34.515625 30.609375 34.515625 
L 43.21875 34.515625 
L 43.21875 35.40625 
Q 43.21875 41.609375 39.140625 45 
Q 35.0625 48.390625 27.6875 48.390625 
Q 23 48.390625 18.546875 47.265625 
Q 14.109375 46.140625 10.015625 43.890625 
L 10.015625 52.203125 
Q 14.9375 54.109375 19.578125 55.046875 
Q 24.21875 56 28.609375 56 
Q 40.484375 56 46.34375 49.84375 
Q 52.203125 43.703125 52.203125 31.203125 
z
" id="DejaVuSans-61"/>
      <path d="M 48.78125 52.59375 
L 48.78125 44.1875 
Q 44.96875 46.296875 41.140625 47.34375 
Q 37.3125 48.390625 33.40625 48.390625 
Q 24.65625 48.390625 19.8125 42.84375 
Q 14.984375 37.3125 14.984375 27.296875 
Q 14.984375 17.28125 19.8125 11.734375 
Q 24.65625 6.203125 33.40625 6.203125 
Q 37.3125 6.203125 41.140625 7.25 
Q 44.96875 8.296875 48.78125 10.40625 
L 48.78125 2.09375 
Q 45.015625 0.34375 40.984375 -0.53125 
Q 36.96875 -1.421875 32.421875 -1.421875 
Q 20.0625 -1.421875 12.78125 6.34375 
Q 5.515625 14.109375 5.515625 27.296875 
Q 5.515625 40.671875 12.859375 48.328125 
Q 20.21875 56 33.015625 56 
Q 37.15625 56 41.109375 55.140625 
Q 45.0625 54.296875 48.78125 52.59375 
z
" id="DejaVuSans-63"/>
      <path d="M 45.40625 27.984375 
Q 45.40625 37.75 41.375 43.109375 
Q 37.359375 48.484375 30.078125 48.484375 
Q 22.859375 48.484375 18.828125 43.109375 
Q 14.796875 37.75 14.796875 27.984375 
Q 14.796875 18.265625 18.828125 12.890625 
Q 22.859375 7.515625 30.078125 7.515625 
Q 37.359375 7.515625 41.375 12.890625 
Q 45.40625 18.265625 45.40625 27.984375 
z
M 54.390625 6.78125 
Q 54.390625 -7.171875 48.1875 -13.984375 
Q 42 -20.796875 29.203125 -20.796875 
Q 24.46875 -20.796875 20.265625 -20.09375 
Q 16.0625 -19.390625 12.109375 -17.921875 
L 12.109375 -9.1875 
Q 16.0625 -11.328125 19.921875 -12.34375 
Q 23.78125 -13.375 27.78125 -13.375 
Q 36.625 -13.375 41.015625 -8.765625 
Q 45.40625 -4.15625 45.40625 5.171875 
L 45.40625 9.625 
Q 42.625 4.78125 38.28125 2.390625 
Q 33.9375 0 27.875 0 
Q 17.828125 0 11.671875 7.65625 
Q 5.515625 15.328125 5.515625 27.984375 
Q 5.515625 40.671875 11.671875 48.328125 
Q 17.828125 56 27.875 56 
Q 33.9375 56 38.28125 53.609375 
Q 42.625 51.21875 45.40625 46.390625 
L 45.40625 54.6875 
L 54.390625 54.6875 
z
" id="DejaVuSans-67"/>
     </defs>
     <g transform="translate(148.077188 18.959062)scale(0.06 -0.06)">
      <use xlink:href="#DejaVuSans-6e"/>
      <use x="63.378906" xlink:href="#DejaVuSans-6f"/>
      <use x="124.560547" xlink:href="#DejaVuSans-6e"/>
      <use x="187.939453" xlink:href="#DejaVuSans-2d"/>
      <use x="224.023438" xlink:href="#DejaVuSans-69"/>
      <use x="251.806641" xlink:href="#DejaVuSans-6e"/>
      <use x="315.185547" xlink:href="#DejaVuSans-74"/>
      <use x="354.394531" xlink:href="#DejaVuSans-65"/>
      <use x="415.917969" xlink:href="#DejaVuSans-72"/>
      <use x="457.03125" xlink:href="#DejaVuSans-61"/>
      <use x="518.310547" xlink:href="#DejaVuSans-63"/>
      <use x="573.291016" xlink:href="#DejaVuSans-74"/>
      <use x="612.5" xlink:href="#DejaVuSans-69"/>
      <use x="640.283203" xlink:href="#DejaVuSans-6e"/>
      <use x="703.662109" xlink:href="#DejaVuSans-67"/>
     </g>
    </g>
    <g id="line2d_87">
     <path d="M 131.277187 25.665938 
L 143.277187 25.665938 
" style="fill:none;stroke:#114b5f;stroke-dasharray:3.7,1.6;stroke-dashoffset:0;"/>
    </g>
    <g id="line2d_88"/>
    <g id="text_13">
     <!-- 3rd order virial exp. -->
     <defs>
      <path d="M 40.578125 39.3125 
Q 47.65625 37.796875 51.625 33 
Q 55.609375 28.21875 55.609375 21.1875 
Q 55.609375 10.40625 48.1875 4.484375 
Q 40.765625 -1.421875 27.09375 -1.421875 
Q 22.515625 -1.421875 17.65625 -0.515625 
Q 12.796875 0.390625 7.625 2.203125 
L 7.625 11.71875 
Q 11.71875 9.328125 16.59375 8.109375 
Q 21.484375 6.890625 26.8125 6.890625 
Q 36.078125 6.890625 40.9375 10.546875 
Q 45.796875 14.203125 45.796875 21.1875 
Q 45.796875 27.640625 41.28125 31.265625 
Q 36.765625 34.90625 28.71875 34.90625 
L 20.21875 34.90625 
L 20.21875 43.015625 
L 29.109375 43.015625 
Q 36.375 43.015625 40.234375 45.921875 
Q 44.09375 48.828125 44.09375 54.296875 
Q 44.09375 59.90625 40.109375 62.90625 
Q 36.140625 65.921875 28.71875 65.921875 
Q 24.65625 65.921875 20.015625 65.03125 
Q 15.375 64.15625 9.8125 62.3125 
L 9.8125 71.09375 
Q 15.4375 72.65625 20.34375 73.4375 
Q 25.25 74.21875 29.59375 74.21875 
Q 40.828125 74.21875 47.359375 69.109375 
Q 53.90625 64.015625 53.90625 55.328125 
Q 53.90625 49.265625 50.4375 45.09375 
Q 46.96875 40.921875 40.578125 39.3125 
z
" id="DejaVuSans-33"/>
      <path d="M 45.40625 46.390625 
L 45.40625 75.984375 
L 54.390625 75.984375 
L 54.390625 0 
L 45.40625 0 
L 45.40625 8.203125 
Q 42.578125 3.328125 38.25 0.953125 
Q 33.9375 -1.421875 27.875 -1.421875 
Q 17.96875 -1.421875 11.734375 6.484375 
Q 5.515625 14.40625 5.515625 27.296875 
Q 5.515625 40.1875 11.734375 48.09375 
Q 17.96875 56 27.875 56 
Q 33.9375 56 38.25 53.625 
Q 42.578125 51.265625 45.40625 46.390625 
z
M 14.796875 27.296875 
Q 14.796875 17.390625 18.875 11.75 
Q 22.953125 6.109375 30.078125 6.109375 
Q 37.203125 6.109375 41.296875 11.75 
Q 45.40625 17.390625 45.40625 27.296875 
Q 45.40625 37.203125 41.296875 42.84375 
Q 37.203125 48.484375 30.078125 48.484375 
Q 22.953125 48.484375 18.875 42.84375 
Q 14.796875 37.203125 14.796875 27.296875 
z
" id="DejaVuSans-64"/>
      <path id="DejaVuSans-20"/>
      <path d="M 2.984375 54.6875 
L 12.5 54.6875 
L 29.59375 8.796875 
L 46.6875 54.6875 
L 56.203125 54.6875 
L 35.6875 0 
L 23.484375 0 
z
" id="DejaVuSans-76"/>
      <path d="M 9.421875 75.984375 
L 18.40625 75.984375 
L 18.40625 0 
L 9.421875 0 
z
" id="DejaVuSans-6c"/>
      <path d="M 54.890625 54.6875 
L 35.109375 28.078125 
L 55.90625 0 
L 45.3125 0 
L 29.390625 21.484375 
L 13.484375 0 
L 2.875 0 
L 24.125 28.609375 
L 4.6875 54.6875 
L 15.28125 54.6875 
L 29.78125 35.203125 
L 44.28125 54.6875 
z
" id="DejaVuSans-78"/>
      <path d="M 18.109375 8.203125 
L 18.109375 -20.796875 
L 9.078125 -20.796875 
L 9.078125 54.6875 
L 18.109375 54.6875 
L 18.109375 46.390625 
Q 20.953125 51.265625 25.265625 53.625 
Q 29.59375 56 35.59375 56 
Q 45.5625 56 51.78125 48.09375 
Q 58.015625 40.1875 58.015625 27.296875 
Q 58.015625 14.40625 51.78125 6.484375 
Q 45.5625 -1.421875 35.59375 -1.421875 
Q 29.59375 -1.421875 25.265625 0.953125 
Q 20.953125 3.328125 18.109375 8.203125 
z
M 48.6875 27.296875 
Q 48.6875 37.203125 44.609375 42.84375 
Q 40.53125 48.484375 33.40625 48.484375 
Q 26.265625 48.484375 22.1875 42.84375 
Q 18.109375 37.203125 18.109375 27.296875 
Q 18.109375 17.390625 22.1875 11.75 
Q 26.265625 6.109375 33.40625 6.109375 
Q 40.53125 6.109375 44.609375 11.75 
Q 48.6875 17.390625 48.6875 27.296875 
z
" id="DejaVuSans-70"/>
      <path d="M 10.6875 12.40625 
L 21 12.40625 
L 21 0 
L 10.6875 0 
z
" id="DejaVuSans-2e"/>
     </defs>
     <g transform="translate(148.077188 27.765938)scale(0.06 -0.06)">
      <use xlink:href="#DejaVuSans-33"/>
      <use x="63.623047" xlink:href="#DejaVuSans-72"/>
      <use x="104.720703" xlink:href="#DejaVuSans-64"/>
      <use x="168.197266" xlink:href="#DejaVuSans-20"/>
      <use x="199.984375" xlink:href="#DejaVuSans-6f"/>
      <use x="261.166016" xlink:href="#DejaVuSans-72"/>
      <use x="302.263672" xlink:href="#DejaVuSans-64"/>
      <use x="365.740234" xlink:href="#DejaVuSans-65"/>
      <use x="427.263672" xlink:href="#DejaVuSans-72"/>
      <use x="468.376953" xlink:href="#DejaVuSans-20"/>
      <use x="500.164062" xlink:href="#DejaVuSans-76"/>
      <use x="559.34375" xlink:href="#DejaVuSans-69"/>
      <use x="587.126953" xlink:href="#DejaVuSans-72"/>
      <use x="628.240234" xlink:href="#DejaVuSans-69"/>
      <use x="656.023438" xlink:href="#DejaVuSans-61"/>
      <use x="717.302734" xlink:href="#DejaVuSans-6c"/>
      <use x="745.085938" xlink:href="#DejaVuSans-20"/>
      <use x="776.873047" xlink:href="#DejaVuSans-65"/>
      <use x="838.380859" xlink:href="#DejaVuSans-78"/>
      <use x="897.560547" xlink:href="#DejaVuSans-70"/>
      <use x="961.037109" xlink:href="#DejaVuSans-2e"/>
     </g>
    </g>
    <g id="line2d_89">
     <path d="M 131.277187 34.472812 
L 143.277187 34.472812 
" style="fill:none;stroke:#5fad41;stroke-linecap:square;"/>
    </g>
    <g id="line2d_90"/>
    <g id="text_14">
     <!-- T-matrix (Pantel '14) -->
     <defs>
      <path d="M -0.296875 72.90625 
L 61.375 72.90625 
L 61.375 64.59375 
L 35.5 64.59375 
L 35.5 0 
L 25.59375 0 
L 25.59375 64.59375 
L -0.296875 64.59375 
z
" id="DejaVuSans-54"/>
      <path d="M 52 44.1875 
Q 55.375 50.25 60.0625 53.125 
Q 64.75 56 71.09375 56 
Q 79.640625 56 84.28125 50.015625 
Q 88.921875 44.046875 88.921875 33.015625 
L 88.921875 0 
L 79.890625 0 
L 79.890625 32.71875 
Q 79.890625 40.578125 77.09375 44.375 
Q 74.3125 48.1875 68.609375 48.1875 
Q 61.625 48.1875 57.5625 43.546875 
Q 53.515625 38.921875 53.515625 30.90625 
L 53.515625 0 
L 44.484375 0 
L 44.484375 32.71875 
Q 44.484375 40.625 41.703125 44.40625 
Q 38.921875 48.1875 33.109375 48.1875 
Q 26.21875 48.1875 22.15625 43.53125 
Q 18.109375 38.875 18.109375 30.90625 
L 18.109375 0 
L 9.078125 0 
L 9.078125 54.6875 
L 18.109375 54.6875 
L 18.109375 46.1875 
Q 21.1875 51.21875 25.484375 53.609375 
Q 29.78125 56 35.6875 56 
Q 41.65625 56 45.828125 52.96875 
Q 50 49.953125 52 44.1875 
z
" id="DejaVuSans-6d"/>
      <path d="M 31 75.875 
Q 24.46875 64.65625 21.28125 53.65625 
Q 18.109375 42.671875 18.109375 31.390625 
Q 18.109375 20.125 21.3125 9.0625 
Q 24.515625 -2 31 -13.1875 
L 23.1875 -13.1875 
Q 15.875 -1.703125 12.234375 9.375 
Q 8.59375 20.453125 8.59375 31.390625 
Q 8.59375 42.28125 12.203125 53.3125 
Q 15.828125 64.359375 23.1875 75.875 
z
" id="DejaVuSans-28"/>
      <path d="M 19.671875 64.796875 
L 19.671875 37.40625 
L 32.078125 37.40625 
Q 38.96875 37.40625 42.71875 40.96875 
Q 46.484375 44.53125 46.484375 51.125 
Q 46.484375 57.671875 42.71875 61.234375 
Q 38.96875 64.796875 32.078125 64.796875 
z
M 9.8125 72.90625 
L 32.078125 72.90625 
Q 44.34375 72.90625 50.609375 67.359375 
Q 56.890625 61.8125 56.890625 51.125 
Q 56.890625 40.328125 50.609375 34.8125 
Q 44.34375 29.296875 32.078125 29.296875 
L 19.671875 29.296875 
L 19.671875 0 
L 9.8125 0 
z
" id="DejaVuSans-50"/>
      <path d="M 17.921875 72.90625 
L 17.921875 45.796875 
L 9.625 45.796875 
L 9.625 72.90625 
z
" id="DejaVuSans-27"/>
      <path d="M 37.796875 64.3125 
L 12.890625 25.390625 
L 37.796875 25.390625 
z
M 35.203125 72.90625 
L 47.609375 72.90625 
L 47.609375 25.390625 
L 58.015625 25.390625 
L 58.015625 17.1875 
L 47.609375 17.1875 
L 47.609375 0 
L 37.796875 0 
L 37.796875 17.1875 
L 4.890625 17.1875 
L 4.890625 26.703125 
z
" id="DejaVuSans-34"/>
      <path d="M 8.015625 75.875 
L 15.828125 75.875 
Q 23.140625 64.359375 26.78125 53.3125 
Q 30.421875 42.28125 30.421875 31.390625 
Q 30.421875 20.453125 26.78125 9.375 
Q 23.140625 -1.703125 15.828125 -13.1875 
L 8.015625 -13.1875 
Q 14.5 -2 17.703125 9.0625 
Q 20.90625 20.125 20.90625 31.390625 
Q 20.90625 42.671875 17.703125 53.65625 
Q 14.5 64.65625 8.015625 75.875 
z
" id="DejaVuSans-29"/>
     </defs>
     <g transform="translate(148.077188 36.572812)scale(0.06 -0.06)">
      <use xlink:href="#DejaVuSans-54"/>
      <use x="60.943359" xlink:href="#DejaVuSans-2d"/>
      <use x="97.027344" xlink:href="#DejaVuSans-6d"/>
      <use x="194.439453" xlink:href="#DejaVuSans-61"/>
      <use x="255.71875" xlink:href="#DejaVuSans-74"/>
      <use x="294.927734" xlink:href="#DejaVuSans-72"/>
      <use x="336.041016" xlink:href="#DejaVuSans-69"/>
      <use x="363.824219" xlink:href="#DejaVuSans-78"/>
      <use x="423.003906" xlink:href="#DejaVuSans-20"/>
      <use x="454.791016" xlink:href="#DejaVuSans-28"/>
      <use x="493.804688" xlink:href="#DejaVuSans-50"/>
      <use x="554.044922" xlink:href="#DejaVuSans-61"/>
      <use x="615.324219" xlink:href="#DejaVuSans-6e"/>
      <use x="678.703125" xlink:href="#DejaVuSans-74"/>
      <use x="717.912109" xlink:href="#DejaVuSans-65"/>
      <use x="779.435547" xlink:href="#DejaVuSans-6c"/>
      <use x="807.21875" xlink:href="#DejaVuSans-20"/>
      <use x="839.005859" xlink:href="#DejaVuSans-27"/>
      <use x="866.496094" xlink:href="#DejaVuSans-31"/>
      <use x="930.119141" xlink:href="#DejaVuSans-34"/>
      <use x="993.742188" xlink:href="#DejaVuSans-29"/>
     </g>
    </g>
    <g id="line2d_91">
     <path d="M 131.277187 43.279687 
L 143.277187 43.279687 
" style="fill:none;stroke:#0d153a;stroke-linecap:square;"/>
    </g>
    <g id="line2d_92"/>
    <g id="text_15">
     <!-- T-matrix (Palestini '12) -->
     <defs>
      <path d="M 44.28125 53.078125 
L 44.28125 44.578125 
Q 40.484375 46.53125 36.375 47.5 
Q 32.28125 48.484375 27.875 48.484375 
Q 21.1875 48.484375 17.84375 46.4375 
Q 14.5 44.390625 14.5 40.28125 
Q 14.5 37.15625 16.890625 35.375 
Q 19.28125 33.59375 26.515625 31.984375 
L 29.59375 31.296875 
Q 39.15625 29.25 43.1875 25.515625 
Q 47.21875 21.78125 47.21875 15.09375 
Q 47.21875 7.46875 41.1875 3.015625 
Q 35.15625 -1.421875 24.609375 -1.421875 
Q 20.21875 -1.421875 15.453125 -0.5625 
Q 10.6875 0.296875 5.421875 2 
L 5.421875 11.28125 
Q 10.40625 8.6875 15.234375 7.390625 
Q 20.0625 6.109375 24.8125 6.109375 
Q 31.15625 6.109375 34.5625 8.28125 
Q 37.984375 10.453125 37.984375 14.40625 
Q 37.984375 18.0625 35.515625 20.015625 
Q 33.0625 21.96875 24.703125 23.78125 
L 21.578125 24.515625 
Q 13.234375 26.265625 9.515625 29.90625 
Q 5.8125 33.546875 5.8125 39.890625 
Q 5.8125 47.609375 11.28125 51.796875 
Q 16.75 56 26.8125 56 
Q 31.78125 56 36.171875 55.265625 
Q 40.578125 54.546875 44.28125 53.078125 
z
" id="DejaVuSans-73"/>
     </defs>
     <g transform="translate(148.077188 45.379687)scale(0.06 -0.06)">
      <use xlink:href="#DejaVuSans-54"/>
      <use x="60.943359" xlink:href="#DejaVuSans-2d"/>
      <use x="97.027344" xlink:href="#DejaVuSans-6d"/>
      <use x="194.439453" xlink:href="#DejaVuSans-61"/>
      <use x="255.71875" xlink:href="#DejaVuSans-74"/>
      <use x="294.927734" xlink:href="#DejaVuSans-72"/>
      <use x="336.041016" xlink:href="#DejaVuSans-69"/>
      <use x="363.824219" xlink:href="#DejaVuSans-78"/>
      <use x="423.003906" xlink:href="#DejaVuSans-20"/>
      <use x="454.791016" xlink:href="#DejaVuSans-28"/>
      <use x="493.804688" xlink:href="#DejaVuSans-50"/>
      <use x="554.044922" xlink:href="#DejaVuSans-61"/>
      <use x="615.324219" xlink:href="#DejaVuSans-6c"/>
      <use x="643.107422" xlink:href="#DejaVuSans-65"/>
      <use x="704.630859" xlink:href="#DejaVuSans-73"/>
      <use x="756.730469" xlink:href="#DejaVuSans-74"/>
      <use x="795.939453" xlink:href="#DejaVuSans-69"/>
      <use x="823.722656" xlink:href="#DejaVuSans-6e"/>
      <use x="887.101562" xlink:href="#DejaVuSans-69"/>
      <use x="914.884766" xlink:href="#DejaVuSans-20"/>
      <use x="946.671875" xlink:href="#DejaVuSans-27"/>
      <use x="974.162109" xlink:href="#DejaVuSans-31"/>
      <use x="1037.785156" xlink:href="#DejaVuSans-32"/>
      <use x="1101.408203" xlink:href="#DejaVuSans-29"/>
     </g>
    </g>
    <g id="line2d_93">
     <path d="M 131.277187 52.086562 
L 143.277187 52.086562 
" style="fill:none;stroke:#0d153a;stroke-linecap:square;"/>
    </g>
    <g id="line2d_94"/>
    <g id="text_16">
     <!-- Luttinger Ward (Enns '12) -->
     <defs>
      <path d="M 9.8125 72.90625 
L 19.671875 72.90625 
L 19.671875 8.296875 
L 55.171875 8.296875 
L 55.171875 0 
L 9.8125 0 
z
" id="DejaVuSans-4c"/>
      <path d="M 8.5 21.578125 
L 8.5 54.6875 
L 17.484375 54.6875 
L 17.484375 21.921875 
Q 17.484375 14.15625 20.5 10.265625 
Q 23.53125 6.390625 29.59375 6.390625 
Q 36.859375 6.390625 41.078125 11.03125 
Q 45.3125 15.671875 45.3125 23.6875 
L 45.3125 54.6875 
L 54.296875 54.6875 
L 54.296875 0 
L 45.3125 0 
L 45.3125 8.40625 
Q 42.046875 3.421875 37.71875 1 
Q 33.40625 -1.421875 27.6875 -1.421875 
Q 18.265625 -1.421875 13.375 4.4375 
Q 8.5 10.296875 8.5 21.578125 
z
M 31.109375 56 
z
" id="DejaVuSans-75"/>
      <path d="M 3.328125 72.90625 
L 13.28125 72.90625 
L 28.609375 11.28125 
L 43.890625 72.90625 
L 54.984375 72.90625 
L 70.3125 11.28125 
L 85.59375 72.90625 
L 95.609375 72.90625 
L 77.296875 0 
L 64.890625 0 
L 49.515625 63.28125 
L 33.984375 0 
L 21.578125 0 
z
" id="DejaVuSans-57"/>
      <path d="M 9.8125 72.90625 
L 55.90625 72.90625 
L 55.90625 64.59375 
L 19.671875 64.59375 
L 19.671875 43.015625 
L 54.390625 43.015625 
L 54.390625 34.71875 
L 19.671875 34.71875 
L 19.671875 8.296875 
L 56.78125 8.296875 
L 56.78125 0 
L 9.8125 0 
z
" id="DejaVuSans-45"/>
     </defs>
     <g transform="translate(148.077188 54.186562)scale(0.06 -0.06)">
      <use xlink:href="#DejaVuSans-4c"/>
      <use x="55.697266" xlink:href="#DejaVuSans-75"/>
      <use x="119.076172" xlink:href="#DejaVuSans-74"/>
      <use x="158.285156" xlink:href="#DejaVuSans-74"/>
      <use x="197.494141" xlink:href="#DejaVuSans-69"/>
      <use x="225.277344" xlink:href="#DejaVuSans-6e"/>
      <use x="288.65625" xlink:href="#DejaVuSans-67"/>
      <use x="352.132812" xlink:href="#DejaVuSans-65"/>
      <use x="413.65625" xlink:href="#DejaVuSans-72"/>
      <use x="454.769531" xlink:href="#DejaVuSans-20"/>
      <use x="486.556641" xlink:href="#DejaVuSans-57"/>
      <use x="585.339844" xlink:href="#DejaVuSans-61"/>
      <use x="646.619141" xlink:href="#DejaVuSans-72"/>
      <use x="687.716797" xlink:href="#DejaVuSans-64"/>
      <use x="751.193359" xlink:href="#DejaVuSans-20"/>
      <use x="782.980469" xlink:href="#DejaVuSans-28"/>
      <use x="821.994141" xlink:href="#DejaVuSans-45"/>
      <use x="885.177734" xlink:href="#DejaVuSans-6e"/>
      <use x="948.556641" xlink:href="#DejaVuSans-6e"/>
      <use x="1011.935547" xlink:href="#DejaVuSans-73"/>
      <use x="1064.035156" xlink:href="#DejaVuSans-20"/>
      <use x="1095.822266" xlink:href="#DejaVuSans-27"/>
      <use x="1123.3125" xlink:href="#DejaVuSans-31"/>
      <use x="1186.935547" xlink:href="#DejaVuSans-32"/>
      <use x="1250.558594" xlink:href="#DejaVuSans-29"/>
     </g>
    </g>
    <g id="line2d_95">
     <path d="M 131.277187 60.893437 
L 143.277187 60.893437 
" style="fill:none;stroke:#0d153a;stroke-linecap:square;"/>
    </g>
    <g id="line2d_96"/>
    <g id="text_17">
     <!-- ETMA (Kashimura '12) -->
     <defs>
      <path d="M 9.8125 72.90625 
L 24.515625 72.90625 
L 43.109375 23.296875 
L 61.8125 72.90625 
L 76.515625 72.90625 
L 76.515625 0 
L 66.890625 0 
L 66.890625 64.015625 
L 48.09375 14.015625 
L 38.1875 14.015625 
L 19.390625 64.015625 
L 19.390625 0 
L 9.8125 0 
z
" id="DejaVuSans-4d"/>
      <path d="M 34.1875 63.1875 
L 20.796875 26.90625 
L 47.609375 26.90625 
z
M 28.609375 72.90625 
L 39.796875 72.90625 
L 67.578125 0 
L 57.328125 0 
L 50.6875 18.703125 
L 17.828125 18.703125 
L 11.1875 0 
L 0.78125 0 
z
" id="DejaVuSans-41"/>
      <path d="M 9.8125 72.90625 
L 19.671875 72.90625 
L 19.671875 42.09375 
L 52.390625 72.90625 
L 65.09375 72.90625 
L 28.90625 38.921875 
L 67.671875 0 
L 54.6875 0 
L 19.671875 35.109375 
L 19.671875 0 
L 9.8125 0 
z
" id="DejaVuSans-4b"/>
      <path d="M 54.890625 33.015625 
L 54.890625 0 
L 45.90625 0 
L 45.90625 32.71875 
Q 45.90625 40.484375 42.875 44.328125 
Q 39.84375 48.1875 33.796875 48.1875 
Q 26.515625 48.1875 22.3125 43.546875 
Q 18.109375 38.921875 18.109375 30.90625 
L 18.109375 0 
L 9.078125 0 
L 9.078125 75.984375 
L 18.109375 75.984375 
L 18.109375 46.1875 
Q 21.34375 51.125 25.703125 53.5625 
Q 30.078125 56 35.796875 56 
Q 45.21875 56 50.046875 50.171875 
Q 54.890625 44.34375 54.890625 33.015625 
z
" id="DejaVuSans-68"/>
     </defs>
     <g transform="translate(148.077188 62.993437)scale(0.06 -0.06)">
      <use xlink:href="#DejaVuSans-45"/>
      <use x="63.183594" xlink:href="#DejaVuSans-54"/>
      <use x="124.267578" xlink:href="#DejaVuSans-4d"/>
      <use x="210.546875" xlink:href="#DejaVuSans-41"/>
      <use x="278.955078" xlink:href="#DejaVuSans-20"/>
      <use x="310.742188" xlink:href="#DejaVuSans-28"/>
      <use x="349.755859" xlink:href="#DejaVuSans-4b"/>
      <use x="415.316406" xlink:href="#DejaVuSans-61"/>
      <use x="476.595703" xlink:href="#DejaVuSans-73"/>
      <use x="528.695312" xlink:href="#DejaVuSans-68"/>
      <use x="592.074219" xlink:href="#DejaVuSans-69"/>
      <use x="619.857422" xlink:href="#DejaVuSans-6d"/>
      <use x="717.269531" xlink:href="#DejaVuSans-75"/>
      <use x="780.648438" xlink:href="#DejaVuSans-72"/>
      <use x="821.761719" xlink:href="#DejaVuSans-61"/>
      <use x="883.041016" xlink:href="#DejaVuSans-20"/>
      <use x="914.828125" xlink:href="#DejaVuSans-27"/>
      <use x="942.318359" xlink:href="#DejaVuSans-31"/>
      <use x="1005.941406" xlink:href="#DejaVuSans-32"/>
      <use x="1069.564453" xlink:href="#DejaVuSans-29"/>
     </g>
    </g>
    <g id="line2d_97"/>
    <g id="line2d_98">
     <g>
      <use style="fill:#fa9f42;stroke:#fa9f42;stroke-linejoin:miter;stroke-width:0.75;" x="137.277187" xlink:href="#m4ba3dcbeb4" y="69.700312"/>
     </g>
    </g>
    <g id="text_18">
     <!-- PIMC (Wlazlowski '13) -->
     <defs>
      <path d="M 9.8125 72.90625 
L 19.671875 72.90625 
L 19.671875 0 
L 9.8125 0 
z
" id="DejaVuSans-49"/>
      <path d="M 64.40625 67.28125 
L 64.40625 56.890625 
Q 59.421875 61.53125 53.78125 63.8125 
Q 48.140625 66.109375 41.796875 66.109375 
Q 29.296875 66.109375 22.65625 58.46875 
Q 16.015625 50.828125 16.015625 36.375 
Q 16.015625 21.96875 22.65625 14.328125 
Q 29.296875 6.6875 41.796875 6.6875 
Q 48.140625 6.6875 53.78125 8.984375 
Q 59.421875 11.28125 64.40625 15.921875 
L 64.40625 5.609375 
Q 59.234375 2.09375 53.4375 0.328125 
Q 47.65625 -1.421875 41.21875 -1.421875 
Q 24.65625 -1.421875 15.125 8.703125 
Q 5.609375 18.84375 5.609375 36.375 
Q 5.609375 53.953125 15.125 64.078125 
Q 24.65625 74.21875 41.21875 74.21875 
Q 47.75 74.21875 53.53125 72.484375 
Q 59.328125 70.75 64.40625 67.28125 
z
" id="DejaVuSans-43"/>
      <path d="M 5.515625 54.6875 
L 48.1875 54.6875 
L 48.1875 46.484375 
L 14.40625 7.171875 
L 48.1875 7.171875 
L 48.1875 0 
L 4.296875 0 
L 4.296875 8.203125 
L 38.09375 47.515625 
L 5.515625 47.515625 
z
" id="DejaVuSans-7a"/>
      <path d="M 4.203125 54.6875 
L 13.1875 54.6875 
L 24.421875 12.015625 
L 35.59375 54.6875 
L 46.1875 54.6875 
L 57.421875 12.015625 
L 68.609375 54.6875 
L 77.59375 54.6875 
L 63.28125 0 
L 52.6875 0 
L 40.921875 44.828125 
L 29.109375 0 
L 18.5 0 
z
" id="DejaVuSans-77"/>
      <path d="M 9.078125 75.984375 
L 18.109375 75.984375 
L 18.109375 31.109375 
L 44.921875 54.6875 
L 56.390625 54.6875 
L 27.390625 29.109375 
L 57.625 0 
L 45.90625 0 
L 18.109375 26.703125 
L 18.109375 0 
L 9.078125 0 
z
" id="DejaVuSans-6b"/>
     </defs>
     <g transform="translate(148.077188 71.800312)scale(0.06 -0.06)">
      <use xlink:href="#DejaVuSans-50"/>
      <use x="60.302734" xlink:href="#DejaVuSans-49"/>
      <use x="89.794922" xlink:href="#DejaVuSans-4d"/>
      <use x="176.074219" xlink:href="#DejaVuSans-43"/>
      <use x="245.898438" xlink:href="#DejaVuSans-20"/>
      <use x="277.685547" xlink:href="#DejaVuSans-28"/>
      <use x="316.699219" xlink:href="#DejaVuSans-57"/>
      <use x="415.576172" xlink:href="#DejaVuSans-6c"/>
      <use x="443.359375" xlink:href="#DejaVuSans-61"/>
      <use x="504.638672" xlink:href="#DejaVuSans-7a"/>
      <use x="557.128906" xlink:href="#DejaVuSans-6c"/>
      <use x="584.912109" xlink:href="#DejaVuSans-6f"/>
      <use x="646.09375" xlink:href="#DejaVuSans-77"/>
      <use x="727.880859" xlink:href="#DejaVuSans-73"/>
      <use x="779.980469" xlink:href="#DejaVuSans-6b"/>
      <use x="837.890625" xlink:href="#DejaVuSans-69"/>
      <use x="865.673828" xlink:href="#DejaVuSans-20"/>
      <use x="897.460938" xlink:href="#DejaVuSans-27"/>
      <use x="924.951172" xlink:href="#DejaVuSans-31"/>
      <use x="988.574219" xlink:href="#DejaVuSans-33"/>
      <use x="1052.197266" xlink:href="#DejaVuSans-29"/>
     </g>
    </g>
    <g id="line2d_99"/>
    <g id="line2d_100">
     <g>
      <use style="fill:#0d153a;stroke:#0d153a;stroke-linejoin:miter;stroke-width:0.75;" x="137.277187" xlink:href="#ma6b3817c45" y="78.507187"/>
     </g>
    </g>
    <g id="text_19">
     <!-- AFQMC (Jensen '18) -->
     <defs>
      <path d="M 9.8125 72.90625 
L 51.703125 72.90625 
L 51.703125 64.59375 
L 19.671875 64.59375 
L 19.671875 43.109375 
L 48.578125 43.109375 
L 48.578125 34.8125 
L 19.671875 34.8125 
L 19.671875 0 
L 9.8125 0 
z
" id="DejaVuSans-46"/>
      <path d="M 39.40625 66.21875 
Q 28.65625 66.21875 22.328125 58.203125 
Q 16.015625 50.203125 16.015625 36.375 
Q 16.015625 22.609375 22.328125 14.59375 
Q 28.65625 6.59375 39.40625 6.59375 
Q 50.140625 6.59375 56.421875 14.59375 
Q 62.703125 22.609375 62.703125 36.375 
Q 62.703125 50.203125 56.421875 58.203125 
Q 50.140625 66.21875 39.40625 66.21875 
z
M 53.21875 1.3125 
L 66.21875 -12.890625 
L 54.296875 -12.890625 
L 43.5 -1.21875 
Q 41.890625 -1.3125 41.03125 -1.359375 
Q 40.1875 -1.421875 39.40625 -1.421875 
Q 24.03125 -1.421875 14.8125 8.859375 
Q 5.609375 19.140625 5.609375 36.375 
Q 5.609375 53.65625 14.8125 63.9375 
Q 24.03125 74.21875 39.40625 74.21875 
Q 54.734375 74.21875 63.90625 63.9375 
Q 73.09375 53.65625 73.09375 36.375 
Q 73.09375 23.6875 67.984375 14.640625 
Q 62.890625 5.609375 53.21875 1.3125 
z
" id="DejaVuSans-51"/>
      <path d="M 9.8125 72.90625 
L 19.671875 72.90625 
L 19.671875 5.078125 
Q 19.671875 -8.109375 14.671875 -14.0625 
Q 9.671875 -20.015625 -1.421875 -20.015625 
L -5.171875 -20.015625 
L -5.171875 -11.71875 
L -2.09375 -11.71875 
Q 4.4375 -11.71875 7.125 -8.046875 
Q 9.8125 -4.390625 9.8125 5.078125 
z
" id="DejaVuSans-4a"/>
      <path d="M 31.78125 34.625 
Q 24.75 34.625 20.71875 30.859375 
Q 16.703125 27.09375 16.703125 20.515625 
Q 16.703125 13.921875 20.71875 10.15625 
Q 24.75 6.390625 31.78125 6.390625 
Q 38.8125 6.390625 42.859375 10.171875 
Q 46.921875 13.96875 46.921875 20.515625 
Q 46.921875 27.09375 42.890625 30.859375 
Q 38.875 34.625 31.78125 34.625 
z
M 21.921875 38.8125 
Q 15.578125 40.375 12.03125 44.71875 
Q 8.5 49.078125 8.5 55.328125 
Q 8.5 64.0625 14.71875 69.140625 
Q 20.953125 74.21875 31.78125 74.21875 
Q 42.671875 74.21875 48.875 69.140625 
Q 55.078125 64.0625 55.078125 55.328125 
Q 55.078125 49.078125 51.53125 44.71875 
Q 48 40.375 41.703125 38.8125 
Q 48.828125 37.15625 52.796875 32.3125 
Q 56.78125 27.484375 56.78125 20.515625 
Q 56.78125 9.90625 50.3125 4.234375 
Q 43.84375 -1.421875 31.78125 -1.421875 
Q 19.734375 -1.421875 13.25 4.234375 
Q 6.78125 9.90625 6.78125 20.515625 
Q 6.78125 27.484375 10.78125 32.3125 
Q 14.796875 37.15625 21.921875 38.8125 
z
M 18.3125 54.390625 
Q 18.3125 48.734375 21.84375 45.5625 
Q 25.390625 42.390625 31.78125 42.390625 
Q 38.140625 42.390625 41.71875 45.5625 
Q 45.3125 48.734375 45.3125 54.390625 
Q 45.3125 60.0625 41.71875 63.234375 
Q 38.140625 66.40625 31.78125 66.40625 
Q 25.390625 66.40625 21.84375 63.234375 
Q 18.3125 60.0625 18.3125 54.390625 
z
" id="DejaVuSans-38"/>
     </defs>
     <g transform="translate(148.077188 80.607187)scale(0.06 -0.06)">
      <use xlink:href="#DejaVuSans-41"/>
      <use x="68.408203" xlink:href="#DejaVuSans-46"/>
      <use x="125.927734" xlink:href="#DejaVuSans-51"/>
      <use x="204.638672" xlink:href="#DejaVuSans-4d"/>
      <use x="290.917969" xlink:href="#DejaVuSans-43"/>
      <use x="360.742188" xlink:href="#DejaVuSans-20"/>
      <use x="392.529297" xlink:href="#DejaVuSans-28"/>
      <use x="431.542969" xlink:href="#DejaVuSans-4a"/>
      <use x="461.035156" xlink:href="#DejaVuSans-65"/>
      <use x="522.558594" xlink:href="#DejaVuSans-6e"/>
      <use x="585.9375" xlink:href="#DejaVuSans-73"/>
      <use x="638.037109" xlink:href="#DejaVuSans-65"/>
      <use x="699.560547" xlink:href="#DejaVuSans-6e"/>
      <use x="762.939453" xlink:href="#DejaVuSans-20"/>
      <use x="794.726562" xlink:href="#DejaVuSans-27"/>
      <use x="822.216797" xlink:href="#DejaVuSans-31"/>
      <use x="885.839844" xlink:href="#DejaVuSans-38"/>
      <use x="949.462891" xlink:href="#DejaVuSans-29"/>
     </g>
    </g>
    <g id="LineCollection_3">
     <path d="M 137.277187 90.314062 
L 137.277187 84.314062 
" style="fill:none;stroke:#114b5f;"/>
    </g>
    <g id="line2d_101"/>
    <g id="line2d_102">
     <defs>
      <path d="M -1.5 1.5 
L 1.5 1.5 
L 1.5 -1.5 
L -1.5 -1.5 
z
" id="m71b4a9c05a" style="stroke:#114b5f;stroke-linejoin:miter;stroke-width:0.75;"/>
     </defs>
     <g>
      <use style="fill:#2faeda;stroke:#114b5f;stroke-linejoin:miter;stroke-width:0.75;" x="137.277187" xlink:href="#m71b4a9c05a" y="87.314062"/>
     </g>
    </g>
    <g id="text_20">
     <!-- CL -->
     <g transform="translate(148.077188 89.414062)scale(0.06 -0.06)">
      <use xlink:href="#DejaVuSans-43"/>
      <use x="69.824219" xlink:href="#DejaVuSans-4c"/>
     </g>
    </g>
    <g id="LineCollection_4">
     <path d="M 134.277187 96.120937 
L 140.277187 96.120937 
" style="fill:none;stroke:#a42604;"/>
    </g>
    <g id="LineCollection_5">
     <path d="M 137.277187 99.120937 
L 137.277187 93.120937 
" style="fill:none;stroke:#a42604;"/>
    </g>
    <g id="line2d_103"/>
    <g id="line2d_104">
     <g>
      <use style="fill:#f94515;stroke:#a42604;stroke-width:0.75;" x="137.277187" xlink:href="#m64bde21fb1" y="96.120937"/>
     </g>
    </g>
    <g id="text_21">
     <!-- experiment (MIT '11) -->
     <g transform="translate(148.077188 98.220937)scale(0.06 -0.06)">
      <use xlink:href="#DejaVuSans-65"/>
      <use x="61.507812" xlink:href="#DejaVuSans-78"/>
      <use x="120.6875" xlink:href="#DejaVuSans-70"/>
      <use x="184.164062" xlink:href="#DejaVuSans-65"/>
      <use x="245.6875" xlink:href="#DejaVuSans-72"/>
      <use x="286.800781" xlink:href="#DejaVuSans-69"/>
      <use x="314.583984" xlink:href="#DejaVuSans-6d"/>
      <use x="411.996094" xlink:href="#DejaVuSans-65"/>
      <use x="473.519531" xlink:href="#DejaVuSans-6e"/>
      <use x="536.898438" xlink:href="#DejaVuSans-74"/>
      <use x="576.107422" xlink:href="#DejaVuSans-20"/>
      <use x="607.894531" xlink:href="#DejaVuSans-28"/>
      <use x="646.908203" xlink:href="#DejaVuSans-4d"/>
      <use x="733.1875" xlink:href="#DejaVuSans-49"/>
      <use x="762.679688" xlink:href="#DejaVuSans-54"/>
      <use x="823.763672" xlink:href="#DejaVuSans-20"/>
      <use x="855.550781" xlink:href="#DejaVuSans-27"/>
      <use x="883.041016" xlink:href="#DejaVuSans-31"/>
      <use x="946.664062" xlink:href="#DejaVuSans-31"/>
      <use x="1010.287109" xlink:href="#DejaVuSans-29"/>
     </g>
    </g>
   </g>
   <g id="LineCollection_6">
    <path clip-path="url(#pb30a77a13b)" d="M 146.203517 146.502897 
L 146.203517 144.646582 
" style="fill:none;stroke:#114b5f;"/>
    <path clip-path="url(#pb30a77a13b)" d="M 135.673612 144.231638 
L 135.673612 141.726392 
" style="fill:none;stroke:#114b5f;"/>
    <path clip-path="url(#pb30a77a13b)" d="M 124.661406 141.470434 
L 124.661406 138.176272 
" style="fill:none;stroke:#114b5f;"/>
    <path clip-path="url(#pb30a77a13b)" d="M 113.948024 138.026459 
L 113.948024 133.748304 
" style="fill:none;stroke:#114b5f;"/>
    <path clip-path="url(#pb30a77a13b)" d="M 102.398804 134.5355 
L 102.398804 129.259929 
" style="fill:none;stroke:#114b5f;"/>
    <path clip-path="url(#pb30a77a13b)" d="M 90.794736 131.474026 
L 90.794736 125.323747 
" style="fill:none;stroke:#114b5f;"/>
    <path clip-path="url(#pb30a77a13b)" d="M 79.779274 128.789677 
L 79.779274 121.872442 
" style="fill:none;stroke:#114b5f;"/>
    <path clip-path="url(#pb30a77a13b)" d="M 69.440898 127.097475 
L 69.440898 119.696754 
" style="fill:none;stroke:#114b5f;"/>
    <path clip-path="url(#pb30a77a13b)" d="M 60.437497 127.081995 
L 60.437497 119.676851 
" style="fill:none;stroke:#114b5f;"/>
    <path clip-path="url(#pb30a77a13b)" d="M 53.001112 127.440126 
L 53.001112 120.137305 
" style="fill:none;stroke:#114b5f;"/>
    <path clip-path="url(#pb30a77a13b)" d="M 46.665765 128.14952 
L 46.665765 121.049382 
" style="fill:none;stroke:#114b5f;"/>
    <path clip-path="url(#pb30a77a13b)" d="M 40.770319 129.132866 
L 40.770319 122.313685 
" style="fill:none;stroke:#114b5f;"/>
    <path clip-path="url(#pb30a77a13b)" d="M 35.174078 130.196318 
L 35.174078 123.680981 
" style="fill:none;stroke:#114b5f;"/>
    <path clip-path="url(#pb30a77a13b)" d="M 30.229592 132.735642 
L 30.229592 126.945825 
" style="fill:none;stroke:#114b5f;"/>
   </g>
   <g id="line2d_105">
    <g clip-path="url(#pb30a77a13b)">
     <use style="fill:#2faeda;stroke:#114b5f;stroke-linejoin:miter;stroke-width:0.75;" x="146.203517" xlink:href="#m71b4a9c05a" y="145.57474"/>
     <use style="fill:#2faeda;stroke:#114b5f;stroke-linejoin:miter;stroke-width:0.75;" x="135.673612" xlink:href="#m71b4a9c05a" y="142.979015"/>
     <use style="fill:#2faeda;stroke:#114b5f;stroke-linejoin:miter;stroke-width:0.75;" x="124.661406" xlink:href="#m71b4a9c05a" y="139.823353"/>
     <use style="fill:#2faeda;stroke:#114b5f;stroke-linejoin:miter;stroke-width:0.75;" x="113.948024" xlink:href="#m71b4a9c05a" y="135.887381"/>
     <use style="fill:#2faeda;stroke:#114b5f;stroke-linejoin:miter;stroke-width:0.75;" x="102.398804" xlink:href="#m71b4a9c05a" y="131.897715"/>
     <use style="fill:#2faeda;stroke:#114b5f;stroke-linejoin:miter;stroke-width:0.75;" x="90.794736" xlink:href="#m71b4a9c05a" y="128.398887"/>
     <use style="fill:#2faeda;stroke:#114b5f;stroke-linejoin:miter;stroke-width:0.75;" x="79.779274" xlink:href="#m71b4a9c05a" y="125.331059"/>
     <use style="fill:#2faeda;stroke:#114b5f;stroke-linejoin:miter;stroke-width:0.75;" x="69.440898" xlink:href="#m71b4a9c05a" y="123.397114"/>
     <use style="fill:#2faeda;stroke:#114b5f;stroke-linejoin:miter;stroke-width:0.75;" x="60.437497" xlink:href="#m71b4a9c05a" y="123.379423"/>
     <use style="fill:#2faeda;stroke:#114b5f;stroke-linejoin:miter;stroke-width:0.75;" x="53.001112" xlink:href="#m71b4a9c05a" y="123.788715"/>
     <use style="fill:#2faeda;stroke:#114b5f;stroke-linejoin:miter;stroke-width:0.75;" x="46.665765" xlink:href="#m71b4a9c05a" y="124.599451"/>
     <use style="fill:#2faeda;stroke:#114b5f;stroke-linejoin:miter;stroke-width:0.75;" x="40.770319" xlink:href="#m71b4a9c05a" y="125.723276"/>
     <use style="fill:#2faeda;stroke:#114b5f;stroke-linejoin:miter;stroke-width:0.75;" x="35.174078" xlink:href="#m71b4a9c05a" y="126.93865"/>
     <use style="fill:#2faeda;stroke:#114b5f;stroke-linejoin:miter;stroke-width:0.75;" x="30.229592" xlink:href="#m71b4a9c05a" y="129.840733"/>
    </g>
   </g>
  </g>
 </g>
 <defs>
  <clipPath id="pb30a77a13b">
   <rect height="144" width="206.55" x="24.3" y="9"/>
  </clipPath>
 </defs>
</svg>
