<?xml version="1.0" encoding="utf-8" standalone="no"?>
<!DOCTYPE svg PUBLIC "-//W3C//DTD SVG 1.1//EN"
  "http://www.w3.org/Graphics/SVG/1.1/DTD/svg11.dtd">
<!-- Created with matplotlib (http://matplotlib.org/) -->
<svg height="180pt" version="1.1" viewBox="0 0 243 180" width="243pt" xmlns="http://www.w3.org/2000/svg" xmlns:xlink="http://www.w3.org/1999/xlink">
 <defs>
  <style type="text/css">
*{stroke-linecap:butt;stroke-linejoin:round;}
  </style>
 </defs>
 <g id="figure_1">
  <g id="patch_1">
   <path d="M 0 180 
L 243 180 
L 243 0 
L 0 0 
z
" style="fill:#ffffff;"/>
  </g>
  <g id="axes_1">
   <g id="patch_2">
    <path d="M 24.3 153 
L 230.85 153 
L 230.85 9 
L 24.3 9 
z
" style="fill:#ffffff;"/>
   </g>
   <g id="PolyCollection_1">
    <path clip-path="url(#p405a73bedf)" d="M 24.3 -327 
L 24.3 153 
L 47.2959 153 
L 47.2959 -327 
L 47.2959 -327 
L 24.3 -327 
z
" style="fill:#dddddd;"/>
   </g>
   <g id="line2d_1">
    <path clip-path="url(#p405a73bedf)" d="M 24.3 81 
L 230.85 81 
" style="fill:none;stroke:#808080;stroke-dasharray:3.7,1.6;stroke-dashoffset:0;"/>
   </g>
   <g id="LineCollection_1">
    <path clip-path="url(#p405a73bedf)" d="M 199.798874 85.700366 
L 199.798874 77.932639 
" style="fill:none;stroke:#a42604;"/>
    <path clip-path="url(#p405a73bedf)" d="M 188.52 86.657083 
L 188.52 79.457361 
" style="fill:none;stroke:#a42604;"/>
    <path clip-path="url(#p405a73bedf)" d="M 176.85375 87.882639 
L 176.85375 80.682639 
" style="fill:none;stroke:#a42604;"/>
    <path clip-path="url(#p405a73bedf)" d="M 168.7575 88.500417 
L 168.7575 81.000139 
" style="fill:none;stroke:#a42604;"/>
    <path clip-path="url(#p405a73bedf)" d="M 164.1675 87.460278 
L 164.1675 79.960278 
" style="fill:none;stroke:#a42604;"/>
    <path clip-path="url(#p405a73bedf)" d="M 159.51375 88.970556 
L 159.51375 82.370278 
" style="fill:none;stroke:#a42604;"/>
    <path clip-path="url(#p405a73bedf)" d="M 154.7325 90.630833 
L 154.7325 84.030833 
" style="fill:none;stroke:#a42604;"/>
    <path clip-path="url(#p405a73bedf)" d="M 149.76 90.941667 
L 149.76 84.041667 
" style="fill:none;stroke:#a42604;"/>
    <path clip-path="url(#p405a73bedf)" d="M 144.915 93.202361 
L 144.915 86.302083 
" style="fill:none;stroke:#a42604;"/>
    <path clip-path="url(#p405a73bedf)" d="M 139.6875 96.963472 
L 139.6875 89.46375 
" style="fill:none;stroke:#a42604;"/>
    <path clip-path="url(#p405a73bedf)" d="M 134.26875 96.975417 
L 134.26875 89.475417 
" style="fill:none;stroke:#a42604;"/>
    <path clip-path="url(#p405a73bedf)" d="M 128.9775 96.986944 
L 128.9775 90.086944 
" style="fill:none;stroke:#a42604;"/>
    <path clip-path="url(#p405a73bedf)" d="M 123.55875 97.59875 
L 123.55875 89.49875 
" style="fill:none;stroke:#a42604;"/>
    <path clip-path="url(#p405a73bedf)" d="M 118.20375 94.910556 
L 118.20375 87.710278 
" style="fill:none;stroke:#a42604;"/>
    <path clip-path="url(#p405a73bedf)" d="M 112.785 96.722222 
L 112.785 88.922222 
" style="fill:none;stroke:#a42604;"/>
    <path clip-path="url(#p405a73bedf)" d="M 109.40625 98.529583 
L 109.40625 91.029583 
" style="fill:none;stroke:#a42604;"/>
    <path clip-path="url(#p405a73bedf)" d="M 105.83625 100.637361 
L 105.83625 93.737361 
" style="fill:none;stroke:#a42604;"/>
    <path clip-path="url(#p405a73bedf)" d="M 102.26625 100.495278 
L 102.26625 93.595 
" style="fill:none;stroke:#a42604;"/>
    <path clip-path="url(#p405a73bedf)" d="M 98.76 99.602778 
L 98.76 93.002778 
" style="fill:none;stroke:#a42604;"/>
    <path clip-path="url(#p405a73bedf)" d="M 95.25375 101.260556 
L 95.25375 94.360278 
" style="fill:none;stroke:#a42604;"/>
    <path clip-path="url(#p405a73bedf)" d="M 91.62 102.168333 
L 91.62 95.268333 
" style="fill:none;stroke:#a42604;"/>
    <path clip-path="url(#p405a73bedf)" d="M 87.9225 103.376389 
L 87.9225 95.576389 
" style="fill:none;stroke:#a42604;"/>
    <path clip-path="url(#p405a73bedf)" d="M 82.95 105.787222 
L 82.95 97.087222 
" style="fill:none;stroke:#a42604;"/>
    <path clip-path="url(#p405a73bedf)" d="M 79.89 103.993889 
L 79.89 94.693889 
" style="fill:none;stroke:#a42604;"/>
    <path clip-path="url(#p405a73bedf)" d="M 76.9575 103.700278 
L 76.9575 95.300278 
" style="fill:none;stroke:#a42604;"/>
    <path clip-path="url(#p405a73bedf)" d="M 73.8975 103.406944 
L 73.8975 95.306944 
" style="fill:none;stroke:#a42604;"/>
    <path clip-path="url(#p405a73bedf)" d="M 70.90125 103.863611 
L 70.90125 94.563333 
" style="fill:none;stroke:#a42604;"/>
    <path clip-path="url(#p405a73bedf)" d="M 70.2 104.015 
L 70.2 94.415 
" style="fill:none;stroke:#a42604;"/>
    <path clip-path="url(#p405a73bedf)" d="M 68.73375 101.318333 
L 68.73375 92.318056 
" style="fill:none;stroke:#a42604;"/>
    <path clip-path="url(#p405a73bedf)" d="M 67.2675 105.821389 
L 67.2675 95.621389 
" style="fill:none;stroke:#a42604;"/>
    <path clip-path="url(#p405a73bedf)" d="M 65.7375 104.624722 
L 65.7375 94.124722 
" style="fill:none;stroke:#a42604;"/>
    <path clip-path="url(#p405a73bedf)" d="M 64.27125 106.577917 
L 64.27125 96.077917 
" style="fill:none;stroke:#a42604;"/>
    <path clip-path="url(#p405a73bedf)" d="M 62.6775 109.881389 
L 62.6775 99.381389 
" style="fill:none;stroke:#a42604;"/>
    <path clip-path="url(#p405a73bedf)" d="M 61.1475 102.684722 
L 61.1475 92.184722 
" style="fill:none;stroke:#a42604;"/>
    <path clip-path="url(#p405a73bedf)" d="M 59.68125 105.087778 
L 59.68125 93.688056 
" style="fill:none;stroke:#a42604;"/>
    <path clip-path="url(#p405a73bedf)" d="M 58.15125 110.041111 
L 58.15125 98.341389 
" style="fill:none;stroke:#a42604;"/>
    <path clip-path="url(#p405a73bedf)" d="M 57.51375 113.642639 
L 57.51375 102.242639 
" style="fill:none;stroke:#a42604;"/>
    <path clip-path="url(#p405a73bedf)" d="M 56.3025 106.595139 
L 56.3025 95.195417 
" style="fill:none;stroke:#a42604;"/>
    <path clip-path="url(#p405a73bedf)" d="M 55.09125 105.847917 
L 55.09125 93.247917 
" style="fill:none;stroke:#a42604;"/>
    <path clip-path="url(#p405a73bedf)" d="M 53.94375 110.050417 
L 53.94375 94.150417 
" style="fill:none;stroke:#a42604;"/>
    <path clip-path="url(#p405a73bedf)" d="M 52.86 98.952778 
L 52.86 85.152778 
" style="fill:none;stroke:#a42604;"/>
    <path clip-path="url(#p405a73bedf)" d="M 51.9675 99.854722 
L 51.9675 85.754722 
" style="fill:none;stroke:#a42604;"/>
    <path clip-path="url(#p405a73bedf)" d="M 50.88375 103.157222 
L 50.88375 88.456944 
" style="fill:none;stroke:#a42604;"/>
    <path clip-path="url(#p405a73bedf)" d="M 49.73625 108.559444 
L 49.73625 94.159722 
" style="fill:none;stroke:#a42604;"/>
    <path clip-path="url(#p405a73bedf)" d="M 48.78 102.711389 
L 48.78 87.711944 
" style="fill:none;stroke:#a42604;"/>
    <path clip-path="url(#p405a73bedf)" d="M 48.1425 107.813056 
L 48.1425 93.413056 
" style="fill:none;stroke:#a42604;"/>
    <path clip-path="url(#p405a73bedf)" d="M 47.56875 99.563889 
L 47.56875 84.564722 
" style="fill:none;stroke:#a42604;"/>
    <path clip-path="url(#p405a73bedf)" d="M 47.05875 92.215 
L 47.05875 77.215833 
" style="fill:none;stroke:#a42604;"/>
    <path clip-path="url(#p405a73bedf)" d="M 46.29375 85.467222 
L 46.29375 70.766944 
" style="fill:none;stroke:#a42604;"/>
    <path clip-path="url(#p405a73bedf)" d="M 45.78375 75.118056 
L 45.78375 61.018333 
" style="fill:none;stroke:#a42604;"/>
    <path clip-path="url(#p405a73bedf)" d="M 45.40125 65.219028 
L 45.40125 50.219028 
" style="fill:none;stroke:#a42604;"/>
    <path clip-path="url(#p405a73bedf)" d="M 44.7 70.470833 
L 44.7 43.170278 
" style="fill:none;stroke:#a42604;"/>
    <path clip-path="url(#p405a73bedf)" d="M 44.0625 65.671944 
L 44.0625 51.871944 
" style="fill:none;stroke:#a42604;"/>
    <path clip-path="url(#p405a73bedf)" d="M 43.17 79.473889 
L 43.17 63.273889 
" style="fill:none;stroke:#a42604;"/>
    <path clip-path="url(#p405a73bedf)" d="M 43.68 83.222778 
L 43.68 67.922778 
" style="fill:none;stroke:#a42604;"/>
    <path clip-path="url(#p405a73bedf)" d="M 42.66 88.175 
L 42.66 72.875 
" style="fill:none;stroke:#a42604;"/>
    <path clip-path="url(#p405a73bedf)" d="M 41.19375 99.578194 
L 41.19375 78.278194 
" style="fill:none;stroke:#a42604;"/>
    <path clip-path="url(#p405a73bedf)" d="M 40.68375 110.978889 
L 40.68375 87.879722 
" style="fill:none;stroke:#a42604;"/>
    <path clip-path="url(#p405a73bedf)" d="M 40.2375 108.280139 
L 40.2375 90.880417 
" style="fill:none;stroke:#a42604;"/>
    <path clip-path="url(#p405a73bedf)" d="M 39.345 110.082361 
L 39.345 89.082083 
" style="fill:none;stroke:#a42604;"/>
    <path clip-path="url(#p405a73bedf)" d="M 38.64375 137.383889 
L 38.64375 88.783611 
" style="fill:none;stroke:#a42604;"/>
    <path clip-path="url(#p405a73bedf)" d="M 37.6875 159.586111 
L 37.6875 107.985556 
" style="fill:none;stroke:#a42604;"/>
    <path clip-path="url(#p405a73bedf)" d="M 37.1775 161.687083 
L 37.1775 138.886806 
" style="fill:none;stroke:#a42604;"/>
   </g>
   <g id="line2d_2">
    <defs>
     <path d="M 0 1.5 
C 0.397805 1.5 0.77937 1.341951 1.06066 1.06066 
C 1.341951 0.77937 1.5 0.397805 1.5 0 
C 1.5 -0.397805 1.341951 -0.77937 1.06066 -1.06066 
C 0.77937 -1.341951 0.397805 -1.5 0 -1.5 
C -0.397805 -1.5 -0.77937 -1.341951 -1.06066 -1.06066 
C -1.341951 -0.77937 -1.5 -0.397805 -1.5 0 
C -1.5 0.397805 -1.341951 0.77937 -1.06066 1.06066 
C -0.77937 1.341951 -0.397805 1.5 0 1.5 
z
" id="m8a784c11d1" style="stroke:#a42604;stroke-width:0.75;"/>
    </defs>
    <g clip-path="url(#p405a73bedf)">
     <use style="fill:#f94515;stroke:#a42604;stroke-width:0.75;" x="199.798874" xlink:href="#m8a784c11d1" y="81.816502"/>
     <use style="fill:#f94515;stroke:#a42604;stroke-width:0.75;" x="188.52" xlink:href="#m8a784c11d1" y="83.057222"/>
     <use style="fill:#f94515;stroke:#a42604;stroke-width:0.75;" x="176.85375" xlink:href="#m8a784c11d1" y="84.282639"/>
     <use style="fill:#f94515;stroke:#a42604;stroke-width:0.75;" x="168.7575" xlink:href="#m8a784c11d1" y="84.750278"/>
     <use style="fill:#f94515;stroke:#a42604;stroke-width:0.75;" x="164.1675" xlink:href="#m8a784c11d1" y="83.710278"/>
     <use style="fill:#f94515;stroke:#a42604;stroke-width:0.75;" x="159.51375" xlink:href="#m8a784c11d1" y="85.670417"/>
     <use style="fill:#f94515;stroke:#a42604;stroke-width:0.75;" x="154.7325" xlink:href="#m8a784c11d1" y="87.330833"/>
     <use style="fill:#f94515;stroke:#a42604;stroke-width:0.75;" x="149.76" xlink:href="#m8a784c11d1" y="87.491667"/>
     <use style="fill:#f94515;stroke:#a42604;stroke-width:0.75;" x="144.915" xlink:href="#m8a784c11d1" y="89.752222"/>
     <use style="fill:#f94515;stroke:#a42604;stroke-width:0.75;" x="139.6875" xlink:href="#m8a784c11d1" y="93.213611"/>
     <use style="fill:#f94515;stroke:#a42604;stroke-width:0.75;" x="134.26875" xlink:href="#m8a784c11d1" y="93.225417"/>
     <use style="fill:#f94515;stroke:#a42604;stroke-width:0.75;" x="128.9775" xlink:href="#m8a784c11d1" y="93.536944"/>
     <use style="fill:#f94515;stroke:#a42604;stroke-width:0.75;" x="123.55875" xlink:href="#m8a784c11d1" y="93.54875"/>
     <use style="fill:#f94515;stroke:#a42604;stroke-width:0.75;" x="118.20375" xlink:href="#m8a784c11d1" y="91.310417"/>
     <use style="fill:#f94515;stroke:#a42604;stroke-width:0.75;" x="112.785" xlink:href="#m8a784c11d1" y="92.822222"/>
     <use style="fill:#f94515;stroke:#a42604;stroke-width:0.75;" x="109.40625" xlink:href="#m8a784c11d1" y="94.779583"/>
     <use style="fill:#f94515;stroke:#a42604;stroke-width:0.75;" x="105.83625" xlink:href="#m8a784c11d1" y="97.187361"/>
     <use style="fill:#f94515;stroke:#a42604;stroke-width:0.75;" x="102.26625" xlink:href="#m8a784c11d1" y="97.045139"/>
     <use style="fill:#f94515;stroke:#a42604;stroke-width:0.75;" x="98.76" xlink:href="#m8a784c11d1" y="96.302778"/>
     <use style="fill:#f94515;stroke:#a42604;stroke-width:0.75;" x="95.25375" xlink:href="#m8a784c11d1" y="97.810417"/>
     <use style="fill:#f94515;stroke:#a42604;stroke-width:0.75;" x="91.62" xlink:href="#m8a784c11d1" y="98.718333"/>
     <use style="fill:#f94515;stroke:#a42604;stroke-width:0.75;" x="87.9225" xlink:href="#m8a784c11d1" y="99.476389"/>
     <use style="fill:#f94515;stroke:#a42604;stroke-width:0.75;" x="82.95" xlink:href="#m8a784c11d1" y="101.437222"/>
     <use style="fill:#f94515;stroke:#a42604;stroke-width:0.75;" x="79.89" xlink:href="#m8a784c11d1" y="99.343889"/>
     <use style="fill:#f94515;stroke:#a42604;stroke-width:0.75;" x="76.9575" xlink:href="#m8a784c11d1" y="99.500278"/>
     <use style="fill:#f94515;stroke:#a42604;stroke-width:0.75;" x="73.8975" xlink:href="#m8a784c11d1" y="99.356944"/>
     <use style="fill:#f94515;stroke:#a42604;stroke-width:0.75;" x="70.90125" xlink:href="#m8a784c11d1" y="99.213472"/>
     <use style="fill:#f94515;stroke:#a42604;stroke-width:0.75;" x="70.2" xlink:href="#m8a784c11d1" y="99.215"/>
     <use style="fill:#f94515;stroke:#a42604;stroke-width:0.75;" x="68.73375" xlink:href="#m8a784c11d1" y="96.818194"/>
     <use style="fill:#f94515;stroke:#a42604;stroke-width:0.75;" x="67.2675" xlink:href="#m8a784c11d1" y="100.721389"/>
     <use style="fill:#f94515;stroke:#a42604;stroke-width:0.75;" x="65.7375" xlink:href="#m8a784c11d1" y="99.374722"/>
     <use style="fill:#f94515;stroke:#a42604;stroke-width:0.75;" x="64.27125" xlink:href="#m8a784c11d1" y="101.327917"/>
     <use style="fill:#f94515;stroke:#a42604;stroke-width:0.75;" x="62.6775" xlink:href="#m8a784c11d1" y="104.631389"/>
     <use style="fill:#f94515;stroke:#a42604;stroke-width:0.75;" x="61.1475" xlink:href="#m8a784c11d1" y="97.434722"/>
     <use style="fill:#f94515;stroke:#a42604;stroke-width:0.75;" x="59.68125" xlink:href="#m8a784c11d1" y="99.387917"/>
     <use style="fill:#f94515;stroke:#a42604;stroke-width:0.75;" x="58.15125" xlink:href="#m8a784c11d1" y="104.19125"/>
     <use style="fill:#f94515;stroke:#a42604;stroke-width:0.75;" x="57.51375" xlink:href="#m8a784c11d1" y="107.942639"/>
     <use style="fill:#f94515;stroke:#a42604;stroke-width:0.75;" x="56.3025" xlink:href="#m8a784c11d1" y="100.895278"/>
     <use style="fill:#f94515;stroke:#a42604;stroke-width:0.75;" x="55.09125" xlink:href="#m8a784c11d1" y="99.547917"/>
     <use style="fill:#f94515;stroke:#a42604;stroke-width:0.75;" x="53.94375" xlink:href="#m8a784c11d1" y="102.100417"/>
     <use style="fill:#f94515;stroke:#a42604;stroke-width:0.75;" x="52.86" xlink:href="#m8a784c11d1" y="92.052778"/>
     <use style="fill:#f94515;stroke:#a42604;stroke-width:0.75;" x="51.9675" xlink:href="#m8a784c11d1" y="92.804722"/>
     <use style="fill:#f94515;stroke:#a42604;stroke-width:0.75;" x="50.88375" xlink:href="#m8a784c11d1" y="95.807083"/>
     <use style="fill:#f94515;stroke:#a42604;stroke-width:0.75;" x="49.73625" xlink:href="#m8a784c11d1" y="101.359583"/>
     <use style="fill:#f94515;stroke:#a42604;stroke-width:0.75;" x="48.78" xlink:href="#m8a784c11d1" y="95.211667"/>
     <use style="fill:#f94515;stroke:#a42604;stroke-width:0.75;" x="48.1425" xlink:href="#m8a784c11d1" y="100.613056"/>
     <use style="fill:#f94515;stroke:#a42604;stroke-width:0.75;" x="47.56875" xlink:href="#m8a784c11d1" y="92.064306"/>
     <use style="fill:#f94515;stroke:#a42604;stroke-width:0.75;" x="47.05875" xlink:href="#m8a784c11d1" y="84.715417"/>
     <use style="fill:#f94515;stroke:#a42604;stroke-width:0.75;" x="46.29375" xlink:href="#m8a784c11d1" y="78.117083"/>
     <use style="fill:#f94515;stroke:#a42604;stroke-width:0.75;" x="45.78375" xlink:href="#m8a784c11d1" y="68.068194"/>
     <use style="fill:#f94515;stroke:#a42604;stroke-width:0.75;" x="45.40125" xlink:href="#m8a784c11d1" y="57.719028"/>
     <use style="fill:#f94515;stroke:#a42604;stroke-width:0.75;" x="44.7" xlink:href="#m8a784c11d1" y="56.820556"/>
     <use style="fill:#f94515;stroke:#a42604;stroke-width:0.75;" x="44.0625" xlink:href="#m8a784c11d1" y="58.771944"/>
     <use style="fill:#f94515;stroke:#a42604;stroke-width:0.75;" x="43.17" xlink:href="#m8a784c11d1" y="71.373889"/>
     <use style="fill:#f94515;stroke:#a42604;stroke-width:0.75;" x="43.68" xlink:href="#m8a784c11d1" y="75.572778"/>
     <use style="fill:#f94515;stroke:#a42604;stroke-width:0.75;" x="42.66" xlink:href="#m8a784c11d1" y="80.525"/>
     <use style="fill:#f94515;stroke:#a42604;stroke-width:0.75;" x="41.19375" xlink:href="#m8a784c11d1" y="88.928194"/>
     <use style="fill:#f94515;stroke:#a42604;stroke-width:0.75;" x="40.68375" xlink:href="#m8a784c11d1" y="99.429306"/>
     <use style="fill:#f94515;stroke:#a42604;stroke-width:0.75;" x="40.2375" xlink:href="#m8a784c11d1" y="99.580278"/>
     <use style="fill:#f94515;stroke:#a42604;stroke-width:0.75;" x="39.345" xlink:href="#m8a784c11d1" y="99.582222"/>
     <use style="fill:#f94515;stroke:#a42604;stroke-width:0.75;" x="38.64375" xlink:href="#m8a784c11d1" y="113.08375"/>
     <use style="fill:#f94515;stroke:#a42604;stroke-width:0.75;" x="37.6875" xlink:href="#m8a784c11d1" y="133.785833"/>
     <use style="fill:#f94515;stroke:#a42604;stroke-width:0.75;" x="37.1775" xlink:href="#m8a784c11d1" y="150.286944"/>
    </g>
   </g>
   <g id="matplotlib.axis_1">
    <g id="xtick_1">
     <g id="line2d_3">
      <defs>
       <path d="M 0 0 
L 0 -2.5 
" id="m68b102a1db" style="stroke:#000000;stroke-width:0.8;"/>
      </defs>
      <g>
       <use style="stroke:#000000;stroke-width:0.8;" x="24.3" xlink:href="#m68b102a1db" y="153"/>
      </g>
     </g>
     <g id="line2d_4">
      <defs>
       <path d="M 0 0 
L 0 2.5 
" id="m43e6429b9d" style="stroke:#000000;stroke-width:0.8;"/>
      </defs>
      <g>
       <use style="stroke:#000000;stroke-width:0.8;" x="24.3" xlink:href="#m43e6429b9d" y="9"/>
      </g>
     </g>
     <g id="text_1">
      <!-- $0$ -->
      <defs>
       <path d="M 47.703125 33 
Q 47.703125 23.796875 45.546875 16.34375 
Q 43.40625 8.90625 38.09375 3.75 
Q 32.796875 -1.40625 25 -1.40625 
Q 18.796875 -1.40625 14.25 1.6875 
Q 9.703125 4.796875 7.203125 10.046875 
Q 4.703125 15.296875 3.5 21.140625 
Q 2.296875 27 2.296875 33.59375 
Q 2.296875 42.90625 4.59375 50.34375 
Q 6.90625 57.796875 12.296875 62.6875 
Q 17.703125 67.59375 25.40625 67.59375 
Q 35.203125 67.59375 41.453125 57.9375 
Q 47.703125 48.296875 47.703125 33 
z
M 39.796875 33 
Q 39.796875 45.203125 35.75 52.84375 
Q 31.703125 60.5 25.203125 60.5 
Q 17.796875 60.5 14 52.75 
Q 10.203125 45 10.203125 33.40625 
Q 10.203125 28.203125 10.953125 23.546875 
Q 11.703125 18.90625 13.34375 14.75 
Q 15 10.59375 18 8.140625 
Q 21 5.703125 25 5.703125 
Q 30.09375 5.703125 33.546875 9.796875 
Q 37 13.90625 38.390625 19.84375 
Q 39.796875 25.796875 39.796875 33 
z
" id="STIXGeneral-Regular-1d7e2"/>
      </defs>
      <g transform="translate(22.3 162.57875)scale(0.08 -0.08)">
       <use transform="translate(0 0.40625)" xlink:href="#STIXGeneral-Regular-1d7e2"/>
      </g>
     </g>
    </g>
    <g id="xtick_2">
     <g id="line2d_5">
      <g>
       <use style="stroke:#000000;stroke-width:0.8;" x="93.15" xlink:href="#m68b102a1db" y="153"/>
      </g>
     </g>
     <g id="line2d_6">
      <g>
       <use style="stroke:#000000;stroke-width:0.8;" x="93.15" xlink:href="#m43e6429b9d" y="9"/>
      </g>
     </g>
     <g id="text_2">
      <!-- $0.5$ -->
      <defs>
       <path d="M 18.09375 4.296875 
Q 18.09375 2.09375 16.4375 0.5 
Q 14.796875 -1.09375 12.5 -1.09375 
Q 10.203125 -1.09375 8.59375 0.5 
Q 7 2.09375 7 4.390625 
Q 7 6.703125 8.640625 8.34375 
Q 10.296875 10 12.59375 10 
Q 14.796875 10 16.4375 8.296875 
Q 18.09375 6.59375 18.09375 4.296875 
z
" id="STIXGeneral-Regular-2e"/>
       <path d="M 45.796875 67.59375 
L 42.59375 60.5 
L 24.90625 60.5 
L 18.5 47.796875 
Q 29.90625 46.203125 37.25 39.75 
Q 44.59375 33.296875 44.59375 22.59375 
Q 44.59375 12.703125 37.84375 5.640625 
Q 31.09375 -1.40625 21 -1.40625 
Q 10 -1.40625 3.59375 5.59375 
L 8.296875 11.203125 
Q 13.40625 5.703125 20.5 5.703125 
Q 27.90625 5.703125 32.296875 10.75 
Q 36.703125 15.796875 36.703125 22.59375 
Q 36.703125 30 30.09375 35.203125 
Q 23.40625 40.703125 9.40625 40.703125 
L 8 42.40625 
L 19.59375 67.59375 
z
" id="STIXGeneral-Regular-1d7e7"/>
      </defs>
      <g transform="translate(88.15 162.57875)scale(0.08 -0.08)">
       <use transform="translate(0 0.40625)" xlink:href="#STIXGeneral-Regular-1d7e2"/>
       <use transform="translate(49.999985 0.40625)" xlink:href="#STIXGeneral-Regular-2e"/>
       <use transform="translate(74.999969 0.40625)" xlink:href="#STIXGeneral-Regular-1d7e7"/>
      </g>
     </g>
    </g>
    <g id="xtick_3">
     <g id="line2d_7">
      <g>
       <use style="stroke:#000000;stroke-width:0.8;" x="162" xlink:href="#m68b102a1db" y="153"/>
      </g>
     </g>
     <g id="line2d_8">
      <g>
       <use style="stroke:#000000;stroke-width:0.8;" x="162" xlink:href="#m43e6429b9d" y="9"/>
      </g>
     </g>
     <g id="text_3">
      <!-- $1$ -->
      <defs>
       <path d="M 30.203125 0 
L 22.296875 0 
L 22.296875 57 
Q 20.09375 56 15.75 53.75 
Q 11.40625 51.5 10.796875 51.203125 
L 10.796875 58.5 
L 28.796875 67.703125 
L 30.203125 67.203125 
z
" id="STIXGeneral-Regular-1d7e3"/>
      </defs>
      <g transform="translate(160 162.57875)scale(0.08 -0.08)">
       <use transform="translate(0 0.296875)" xlink:href="#STIXGeneral-Regular-1d7e3"/>
      </g>
     </g>
    </g>
    <g id="xtick_4">
     <g id="line2d_9">
      <g>
       <use style="stroke:#000000;stroke-width:0.8;" x="230.85" xlink:href="#m68b102a1db" y="153"/>
      </g>
     </g>
     <g id="line2d_10">
      <g>
       <use style="stroke:#000000;stroke-width:0.8;" x="230.85" xlink:href="#m43e6429b9d" y="9"/>
      </g>
     </g>
     <g id="text_4">
      <!-- $1.5$ -->
      <g transform="translate(225.85 162.57875)scale(0.08 -0.08)">
       <use transform="translate(0 0.296875)" xlink:href="#STIXGeneral-Regular-1d7e3"/>
       <use transform="translate(49.999985 0.296875)" xlink:href="#STIXGeneral-Regular-2e"/>
       <use transform="translate(74.999969 0.296875)" xlink:href="#STIXGeneral-Regular-1d7e7"/>
      </g>
     </g>
    </g>
    <g id="xtick_5">
     <g id="line2d_11">
      <defs>
       <path d="M 0 0 
L 0 -1.5 
" id="m8fcde31d88" style="stroke:#000000;stroke-width:0.6;"/>
      </defs>
      <g>
       <use style="stroke:#000000;stroke-width:0.6;" x="58.725" xlink:href="#m8fcde31d88" y="153"/>
      </g>
     </g>
     <g id="line2d_12">
      <defs>
       <path d="M 0 0 
L 0 1.5 
" id="m14c52e046f" style="stroke:#000000;stroke-width:0.6;"/>
      </defs>
      <g>
       <use style="stroke:#000000;stroke-width:0.6;" x="58.725" xlink:href="#m14c52e046f" y="9"/>
      </g>
     </g>
    </g>
    <g id="xtick_6">
     <g id="line2d_13">
      <g>
       <use style="stroke:#000000;stroke-width:0.6;" x="127.575" xlink:href="#m8fcde31d88" y="153"/>
      </g>
     </g>
     <g id="line2d_14">
      <g>
       <use style="stroke:#000000;stroke-width:0.6;" x="127.575" xlink:href="#m14c52e046f" y="9"/>
      </g>
     </g>
    </g>
    <g id="xtick_7">
     <g id="line2d_15">
      <g>
       <use style="stroke:#000000;stroke-width:0.6;" x="196.425" xlink:href="#m8fcde31d88" y="153"/>
      </g>
     </g>
     <g id="line2d_16">
      <g>
       <use style="stroke:#000000;stroke-width:0.6;" x="196.425" xlink:href="#m14c52e046f" y="9"/>
      </g>
     </g>
    </g>
    <g id="text_5">
     <!-- $T/T_F$ -->
     <defs>
      <path d="M 74.796875 66.203125 
L 73.90625 58.796875 
L 49.40625 58.796875 
L 34.703125 0 
L 26 0 
L 40.59375 58.796875 
L 16.09375 58.796875 
L 19 66.203125 
z
" id="STIXGeneral-Italic-1d61b"/>
      <path d="M 28.703125 67.59375 
L 5.90625 -1.40625 
L -0.90625 -1.40625 
L 22 67.59375 
z
" id="STIXGeneral-Regular-2f"/>
      <path d="M 67.90625 66.203125 
L 66.90625 58.796875 
L 30.703125 58.796875 
L 25.703125 38.59375 
L 55.296875 38.59375 
L 53.40625 31.09375 
L 23.796875 31.09375 
L 16.09375 0 
L 7.40625 0 
L 23.90625 66.203125 
z
" id="STIXGeneral-Italic-1d60d"/>
     </defs>
     <g transform="translate(119.975 174.32125)scale(0.08 -0.08)">
      <use transform="translate(0 0.40625)" xlink:href="#STIXGeneral-Italic-1d61b"/>
      <use transform="translate(60.799988 0.40625)" xlink:href="#STIXGeneral-Regular-2f"/>
      <use transform="translate(88.599976 0.40625)" xlink:href="#STIXGeneral-Italic-1d61b"/>
      <use transform="translate(149.399963 -13.182812)scale(0.7)" xlink:href="#STIXGeneral-Italic-1d60d"/>
     </g>
    </g>
   </g>
   <g id="matplotlib.axis_2">
    <g id="ytick_1">
     <g id="line2d_17">
      <defs>
       <path d="M 0 0 
L 2.5 0 
" id="mc86b3eab99" style="stroke:#000000;stroke-width:0.8;"/>
      </defs>
      <g>
       <use style="stroke:#000000;stroke-width:0.8;" x="24.3" xlink:href="#mc86b3eab99" y="153"/>
      </g>
     </g>
     <g id="line2d_18">
      <defs>
       <path d="M 0 0 
L -2.5 0 
" id="me624a6da4f" style="stroke:#000000;stroke-width:0.8;"/>
      </defs>
      <g>
       <use style="stroke:#000000;stroke-width:0.8;" x="230.85" xlink:href="#me624a6da4f" y="153"/>
      </g>
     </g>
     <g id="text_6">
      <!-- $0$ -->
      <g transform="translate(16.8 156.039375)scale(0.08 -0.08)">
       <use transform="translate(0 0.40625)" xlink:href="#STIXGeneral-Regular-1d7e2"/>
      </g>
     </g>
    </g>
    <g id="ytick_2">
     <g id="line2d_19">
      <g>
       <use style="stroke:#000000;stroke-width:0.8;" x="24.3" xlink:href="#mc86b3eab99" y="129"/>
      </g>
     </g>
     <g id="line2d_20">
      <g>
       <use style="stroke:#000000;stroke-width:0.8;" x="230.85" xlink:href="#me624a6da4f" y="129"/>
      </g>
     </g>
     <g id="text_7">
      <!-- $0.5$ -->
      <g transform="translate(10.8 132.039375)scale(0.08 -0.08)">
       <use transform="translate(0 0.40625)" xlink:href="#STIXGeneral-Regular-1d7e2"/>
       <use transform="translate(49.999985 0.40625)" xlink:href="#STIXGeneral-Regular-2e"/>
       <use transform="translate(74.999969 0.40625)" xlink:href="#STIXGeneral-Regular-1d7e7"/>
      </g>
     </g>
    </g>
    <g id="ytick_3">
     <g id="line2d_21">
      <g>
       <use style="stroke:#000000;stroke-width:0.8;" x="24.3" xlink:href="#mc86b3eab99" y="105"/>
      </g>
     </g>
     <g id="line2d_22">
      <g>
       <use style="stroke:#000000;stroke-width:0.8;" x="230.85" xlink:href="#me624a6da4f" y="105"/>
      </g>
     </g>
     <g id="text_8">
      <!-- $1$ -->
      <g transform="translate(16.8 108.039375)scale(0.08 -0.08)">
       <use transform="translate(0 0.296875)" xlink:href="#STIXGeneral-Regular-1d7e3"/>
      </g>
     </g>
    </g>
    <g id="ytick_4">
     <g id="line2d_23">
      <g>
       <use style="stroke:#000000;stroke-width:0.8;" x="24.3" xlink:href="#mc86b3eab99" y="81"/>
      </g>
     </g>
     <g id="line2d_24">
      <g>
       <use style="stroke:#000000;stroke-width:0.8;" x="230.85" xlink:href="#me624a6da4f" y="81"/>
      </g>
     </g>
     <g id="text_9">
      <!-- $1.5$ -->
      <g transform="translate(10.8 84.039375)scale(0.08 -0.08)">
       <use transform="translate(0 0.296875)" xlink:href="#STIXGeneral-Regular-1d7e3"/>
       <use transform="translate(49.999985 0.296875)" xlink:href="#STIXGeneral-Regular-2e"/>
       <use transform="translate(74.999969 0.296875)" xlink:href="#STIXGeneral-Regular-1d7e7"/>
      </g>
     </g>
    </g>
    <g id="ytick_5">
     <g id="line2d_25">
      <g>
       <use style="stroke:#000000;stroke-width:0.8;" x="24.3" xlink:href="#mc86b3eab99" y="57"/>
      </g>
     </g>
     <g id="line2d_26">
      <g>
       <use style="stroke:#000000;stroke-width:0.8;" x="230.85" xlink:href="#me624a6da4f" y="57"/>
      </g>
     </g>
     <g id="text_10">
      <!-- $2$ -->
      <defs>
       <path d="M 46.90625 7.09375 
L 44 0 
L 3.5 0 
L 3.5 2.09375 
L 21 23.5 
L 21 23.40625 
L 26.59375 30.203125 
Q 30.5 34.90625 32.09375 36.953125 
Q 33.703125 39 35.203125 41.953125 
Q 36.703125 44.90625 36.703125 47.5 
Q 36.703125 53.703125 33.34375 57.09375 
Q 30 60.5 24.203125 60.5 
Q 19.59375 60.5 15.75 56.703125 
Q 11.90625 52.90625 10.90625 45.90625 
L 3.703125 47.59375 
Q 5.296875 56.5 11.1875 62.046875 
Q 17.09375 67.59375 24.90625 67.59375 
Q 33.59375 67.59375 39.09375 62.1875 
Q 44.59375 56.796875 44.59375 49.09375 
Q 44.59375 43.5 42.5 39.453125 
Q 40.40625 35.40625 33.703125 27 
L 17.703125 7.09375 
z
" id="STIXGeneral-Regular-1d7e4"/>
      </defs>
      <g transform="translate(16.8 60.039375)scale(0.08 -0.08)">
       <use transform="translate(0 0.40625)" xlink:href="#STIXGeneral-Regular-1d7e4"/>
      </g>
     </g>
    </g>
    <g id="ytick_6">
     <g id="line2d_27">
      <g>
       <use style="stroke:#000000;stroke-width:0.8;" x="24.3" xlink:href="#mc86b3eab99" y="33"/>
      </g>
     </g>
     <g id="line2d_28">
      <g>
       <use style="stroke:#000000;stroke-width:0.8;" x="230.85" xlink:href="#me624a6da4f" y="33"/>
      </g>
     </g>
     <g id="text_11">
      <!-- $2.5$ -->
      <g transform="translate(10.8 36.039375)scale(0.08 -0.08)">
       <use transform="translate(0 0.40625)" xlink:href="#STIXGeneral-Regular-1d7e4"/>
       <use transform="translate(49.999985 0.40625)" xlink:href="#STIXGeneral-Regular-2e"/>
       <use transform="translate(74.999969 0.40625)" xlink:href="#STIXGeneral-Regular-1d7e7"/>
      </g>
     </g>
    </g>
    <g id="ytick_7">
     <g id="line2d_29">
      <g>
       <use style="stroke:#000000;stroke-width:0.8;" x="24.3" xlink:href="#mc86b3eab99" y="9"/>
      </g>
     </g>
     <g id="line2d_30">
      <g>
       <use style="stroke:#000000;stroke-width:0.8;" x="230.85" xlink:href="#me624a6da4f" y="9"/>
      </g>
     </g>
     <g id="text_12">
      <!-- $3$ -->
      <defs>
       <path d="M 11.296875 49.203125 
L 4.203125 50.90625 
Q 6.40625 58.703125 11.5 63.140625 
Q 16.59375 67.59375 24.296875 67.59375 
Q 31.40625 67.59375 36.203125 63.09375 
Q 41 58.59375 41 51.90625 
Q 41 43 32.40625 37 
Q 38 35 41.046875 30.34375 
Q 44.09375 25.703125 44.09375 21 
Q 44.09375 11.296875 37.796875 5 
Q 31.40625 -1.40625 20.5 -1.40625 
Q 9.5 -1.40625 3.09375 5.59375 
L 7.796875 11.203125 
Q 12.90625 5.703125 20 5.703125 
Q 27.40625 5.703125 31.59375 9.296875 
Q 36.203125 13.203125 36.203125 19.09375 
Q 36.203125 24.296875 32.453125 27.796875 
Q 28.703125 31.296875 22.203125 32.203125 
L 15.796875 32.203125 
L 15.796875 34.296875 
L 20.59375 39.40625 
Q 25.09375 39.40625 29.09375 42.84375 
Q 33.09375 46.296875 33.09375 51.203125 
Q 33.09375 55.40625 30.4375 57.953125 
Q 27.796875 60.5 24 60.5 
Q 20 60.5 16.546875 57.640625 
Q 13.09375 54.796875 11.296875 49.203125 
z
" id="STIXGeneral-Regular-1d7e5"/>
      </defs>
      <g transform="translate(16.8 12.039375)scale(0.08 -0.08)">
       <use transform="translate(0 0.40625)" xlink:href="#STIXGeneral-Regular-1d7e5"/>
      </g>
     </g>
    </g>
    <g id="ytick_8">
     <g id="line2d_31">
      <defs>
       <path d="M 0 0 
L 1.5 0 
" id="m0078a59094" style="stroke:#000000;stroke-width:0.6;"/>
      </defs>
      <g>
       <use style="stroke:#000000;stroke-width:0.6;" x="24.3" xlink:href="#m0078a59094" y="141"/>
      </g>
     </g>
     <g id="line2d_32">
      <defs>
       <path d="M 0 0 
L -1.5 0 
" id="meac08207d5" style="stroke:#000000;stroke-width:0.6;"/>
      </defs>
      <g>
       <use style="stroke:#000000;stroke-width:0.6;" x="230.85" xlink:href="#meac08207d5" y="141"/>
      </g>
     </g>
    </g>
    <g id="ytick_9">
     <g id="line2d_33">
      <g>
       <use style="stroke:#000000;stroke-width:0.6;" x="24.3" xlink:href="#m0078a59094" y="117"/>
      </g>
     </g>
     <g id="line2d_34">
      <g>
       <use style="stroke:#000000;stroke-width:0.6;" x="230.85" xlink:href="#meac08207d5" y="117"/>
      </g>
     </g>
    </g>
    <g id="ytick_10">
     <g id="line2d_35">
      <g>
       <use style="stroke:#000000;stroke-width:0.6;" x="24.3" xlink:href="#m0078a59094" y="93"/>
      </g>
     </g>
     <g id="line2d_36">
      <g>
       <use style="stroke:#000000;stroke-width:0.6;" x="230.85" xlink:href="#meac08207d5" y="93"/>
      </g>
     </g>
    </g>
    <g id="ytick_11">
     <g id="line2d_37">
      <g>
       <use style="stroke:#000000;stroke-width:0.6;" x="24.3" xlink:href="#m0078a59094" y="69"/>
      </g>
     </g>
     <g id="line2d_38">
      <g>
       <use style="stroke:#000000;stroke-width:0.6;" x="230.85" xlink:href="#meac08207d5" y="69"/>
      </g>
     </g>
    </g>
    <g id="ytick_12">
     <g id="line2d_39">
      <g>
       <use style="stroke:#000000;stroke-width:0.6;" x="24.3" xlink:href="#m0078a59094" y="45"/>
      </g>
     </g>
     <g id="line2d_40">
      <g>
       <use style="stroke:#000000;stroke-width:0.6;" x="230.85" xlink:href="#meac08207d5" y="45"/>
      </g>
     </g>
    </g>
    <g id="ytick_13">
     <g id="line2d_41">
      <g>
       <use style="stroke:#000000;stroke-width:0.6;" x="24.3" xlink:href="#m0078a59094" y="21"/>
      </g>
     </g>
     <g id="line2d_42">
      <g>
       <use style="stroke:#000000;stroke-width:0.6;" x="230.85" xlink:href="#meac08207d5" y="21"/>
      </g>
     </g>
    </g>
    <g id="text_13">
     <!-- $c_V/N$ -->
     <defs>
      <path d="M 50.296875 37.09375 
L 44.59375 31.703125 
L 43 31.703125 
Q 41.59375 39.203125 33.5 39.203125 
Q 27.09375 39.203125 21.046875 33.09375 
Q 15 27 15 16.90625 
Q 15 11.796875 17.84375 8.9375 
Q 20.703125 6.09375 25.296875 6.09375 
Q 33.40625 6.09375 40.796875 16.59375 
L 46.40625 13.203125 
Q 36.796875 -1 22.90625 -1 
Q 15.5 -1 11.09375 3.203125 
Q 6.703125 7.40625 6.703125 15 
Q 6.703125 28 15.890625 37.140625 
Q 25.09375 46.296875 35.703125 46.296875 
Q 41.203125 46.296875 45.140625 44 
Q 49.09375 41.703125 50.296875 37.09375 
z
" id="STIXGeneral-Italic-1d624"/>
      <path d="M 78.796875 66.203125 
L 33.703125 -1.09375 
L 31.09375 -1.09375 
L 19.59375 66.203125 
L 29.09375 66.203125 
L 36.796875 16.40625 
L 69.203125 66.203125 
z
" id="STIXGeneral-Italic-1d61d"/>
      <path d="M 76.59375 66.203125 
L 59.703125 -1.40625 
L 53.203125 0 
L 30.09375 56.40625 
L 16.09375 0 
L 7.40625 0 
L 23.90625 66.203125 
L 36 66.203125 
L 55.796875 17.796875 
L 67.90625 66.203125 
z
" id="STIXGeneral-Italic-1d615"/>
     </defs>
     <g transform="translate(7.13625 88.56)rotate(-90)scale(0.08 -0.08)">
      <use transform="translate(0 0.40625)" xlink:href="#STIXGeneral-Italic-1d624"/>
      <use transform="translate(45.599991 -13.182812)scale(0.7)" xlink:href="#STIXGeneral-Italic-1d61d"/>
      <use transform="translate(93.64483 0.40625)" xlink:href="#STIXGeneral-Regular-2f"/>
      <use transform="translate(121.444818 0.40625)" xlink:href="#STIXGeneral-Italic-1d615"/>
     </g>
    </g>
   </g>
   <g id="line2d_43">
    <path clip-path="url(#p405a73bedf)" d="M 244 80.460382 
L 233.024247 80.833796 
L 221.808836 81.425124 
L 211.174082 82.175456 
L 196.29115 83.502222 
L 182.646921 84.979826 
L 170.178736 86.534826 
L 155.257422 88.623947 
L 148.473527 89.608909 
L 142.099152 90.328407 
L 133.22503 91.019706 
L 122.53196 91.562342 
L 108.61469 92.257989 
L 104.489498 92.77625 
L 100.609583 93.445873 
L 95.228768 94.61652 
L 88.81305 96.295897 
L 84.516118 97.609056 
L 81.877228 98.676439 
L 79.409256 99.870423 
L 76.007043 101.813632 
L 72.934642 103.862766 
L 69.293792 106.647955 
L 62.638758 111.74433 
L 59.654358 113.87143 
L 58.57306 114.190418 
L 57.545717 114.061791 
L 56.566395 113.536646 
L 55.630114 112.664872 
L 54.732674 111.49468 
L 53.451731 109.279895 
L 51.851368 105.845569 
L 50.002824 101.289986 
L 47.039703 93.710604 
L 46.148413 92.381375 
L 45.58087 91.839834 
L 45.034356 91.53124 
L 44.50848 91.425304 
L 44.002764 91.513526 
L 43.7574 91.778064 
L 43.282172 92.930646 
L 42.828196 94.863352 
L 42.395865 97.540442 
L 41.78814 102.939995 
L 41.22886 110.082055 
L 39.277169 139.628763 
L 39.027727 142.631585 
L 39.027727 142.631585 
" style="fill:none;stroke:#114b5f;stroke-linecap:square;"/>
   </g>
   <g id="patch_3">
    <path d="M 24.3 153 
L 24.3 9 
" style="fill:none;stroke:#000000;stroke-linecap:square;stroke-linejoin:miter;stroke-width:0.8;"/>
   </g>
   <g id="patch_4">
    <path d="M 230.85 153 
L 230.85 9 
" style="fill:none;stroke:#000000;stroke-linecap:square;stroke-linejoin:miter;stroke-width:0.8;"/>
   </g>
   <g id="patch_5">
    <path d="M 24.3 153 
L 230.85 153 
" style="fill:none;stroke:#000000;stroke-linecap:square;stroke-linejoin:miter;stroke-width:0.8;"/>
   </g>
   <g id="patch_6">
    <path d="M 24.3 9 
L 230.85 9 
" style="fill:none;stroke:#000000;stroke-linecap:square;stroke-linejoin:miter;stroke-width:0.8;"/>
   </g>
   <g id="legend_1">
    <g id="line2d_44">
     <path d="M 138.46875 19.47875 
L 154.46875 19.47875 
" style="fill:none;stroke:#808080;stroke-dasharray:3.7,1.6;stroke-dashoffset:0;"/>
    </g>
    <g id="line2d_45"/>
    <g id="text_14">
     <!-- Dulong-Petit -->
     <defs>
      <path d="M 19.671875 64.796875 
L 19.671875 8.109375 
L 31.59375 8.109375 
Q 46.6875 8.109375 53.6875 14.9375 
Q 60.6875 21.78125 60.6875 36.53125 
Q 60.6875 51.171875 53.6875 57.984375 
Q 46.6875 64.796875 31.59375 64.796875 
z
M 9.8125 72.90625 
L 30.078125 72.90625 
Q 51.265625 72.90625 61.171875 64.09375 
Q 71.09375 55.28125 71.09375 36.53125 
Q 71.09375 17.671875 61.125 8.828125 
Q 51.171875 0 30.078125 0 
L 9.8125 0 
z
" id="DejaVuSans-44"/>
      <path d="M 8.5 21.578125 
L 8.5 54.6875 
L 17.484375 54.6875 
L 17.484375 21.921875 
Q 17.484375 14.15625 20.5 10.265625 
Q 23.53125 6.390625 29.59375 6.390625 
Q 36.859375 6.390625 41.078125 11.03125 
Q 45.3125 15.671875 45.3125 23.6875 
L 45.3125 54.6875 
L 54.296875 54.6875 
L 54.296875 0 
L 45.3125 0 
L 45.3125 8.40625 
Q 42.046875 3.421875 37.71875 1 
Q 33.40625 -1.421875 27.6875 -1.421875 
Q 18.265625 -1.421875 13.375 4.4375 
Q 8.5 10.296875 8.5 21.578125 
z
M 31.109375 56 
z
" id="DejaVuSans-75"/>
      <path d="M 9.421875 75.984375 
L 18.40625 75.984375 
L 18.40625 0 
L 9.421875 0 
z
" id="DejaVuSans-6c"/>
      <path d="M 30.609375 48.390625 
Q 23.390625 48.390625 19.1875 42.75 
Q 14.984375 37.109375 14.984375 27.296875 
Q 14.984375 17.484375 19.15625 11.84375 
Q 23.34375 6.203125 30.609375 6.203125 
Q 37.796875 6.203125 41.984375 11.859375 
Q 46.1875 17.53125 46.1875 27.296875 
Q 46.1875 37.015625 41.984375 42.703125 
Q 37.796875 48.390625 30.609375 48.390625 
z
M 30.609375 56 
Q 42.328125 56 49.015625 48.375 
Q 55.71875 40.765625 55.71875 27.296875 
Q 55.71875 13.875 49.015625 6.21875 
Q 42.328125 -1.421875 30.609375 -1.421875 
Q 18.84375 -1.421875 12.171875 6.21875 
Q 5.515625 13.875 5.515625 27.296875 
Q 5.515625 40.765625 12.171875 48.375 
Q 18.84375 56 30.609375 56 
z
" id="DejaVuSans-6f"/>
      <path d="M 54.890625 33.015625 
L 54.890625 0 
L 45.90625 0 
L 45.90625 32.71875 
Q 45.90625 40.484375 42.875 44.328125 
Q 39.84375 48.1875 33.796875 48.1875 
Q 26.515625 48.1875 22.3125 43.546875 
Q 18.109375 38.921875 18.109375 30.90625 
L 18.109375 0 
L 9.078125 0 
L 9.078125 54.6875 
L 18.109375 54.6875 
L 18.109375 46.1875 
Q 21.34375 51.125 25.703125 53.5625 
Q 30.078125 56 35.796875 56 
Q 45.21875 56 50.046875 50.171875 
Q 54.890625 44.34375 54.890625 33.015625 
z
" id="DejaVuSans-6e"/>
      <path d="M 45.40625 27.984375 
Q 45.40625 37.75 41.375 43.109375 
Q 37.359375 48.484375 30.078125 48.484375 
Q 22.859375 48.484375 18.828125 43.109375 
Q 14.796875 37.75 14.796875 27.984375 
Q 14.796875 18.265625 18.828125 12.890625 
Q 22.859375 7.515625 30.078125 7.515625 
Q 37.359375 7.515625 41.375 12.890625 
Q 45.40625 18.265625 45.40625 27.984375 
z
M 54.390625 6.78125 
Q 54.390625 -7.171875 48.1875 -13.984375 
Q 42 -20.796875 29.203125 -20.796875 
Q 24.46875 -20.796875 20.265625 -20.09375 
Q 16.0625 -19.390625 12.109375 -17.921875 
L 12.109375 -9.1875 
Q 16.0625 -11.328125 19.921875 -12.34375 
Q 23.78125 -13.375 27.78125 -13.375 
Q 36.625 -13.375 41.015625 -8.765625 
Q 45.40625 -4.15625 45.40625 5.171875 
L 45.40625 9.625 
Q 42.625 4.78125 38.28125 2.390625 
Q 33.9375 0 27.875 0 
Q 17.828125 0 11.671875 7.65625 
Q 5.515625 15.328125 5.515625 27.984375 
Q 5.515625 40.671875 11.671875 48.328125 
Q 17.828125 56 27.875 56 
Q 33.9375 56 38.28125 53.609375 
Q 42.625 51.21875 45.40625 46.390625 
L 45.40625 54.6875 
L 54.390625 54.6875 
z
" id="DejaVuSans-67"/>
      <path d="M 4.890625 31.390625 
L 31.203125 31.390625 
L 31.203125 23.390625 
L 4.890625 23.390625 
z
" id="DejaVuSans-2d"/>
      <path d="M 19.671875 64.796875 
L 19.671875 37.40625 
L 32.078125 37.40625 
Q 38.96875 37.40625 42.71875 40.96875 
Q 46.484375 44.53125 46.484375 51.125 
Q 46.484375 57.671875 42.71875 61.234375 
Q 38.96875 64.796875 32.078125 64.796875 
z
M 9.8125 72.90625 
L 32.078125 72.90625 
Q 44.34375 72.90625 50.609375 67.359375 
Q 56.890625 61.8125 56.890625 51.125 
Q 56.890625 40.328125 50.609375 34.8125 
Q 44.34375 29.296875 32.078125 29.296875 
L 19.671875 29.296875 
L 19.671875 0 
L 9.8125 0 
z
" id="DejaVuSans-50"/>
      <path d="M 56.203125 29.59375 
L 56.203125 25.203125 
L 14.890625 25.203125 
Q 15.484375 15.921875 20.484375 11.0625 
Q 25.484375 6.203125 34.421875 6.203125 
Q 39.59375 6.203125 44.453125 7.46875 
Q 49.3125 8.734375 54.109375 11.28125 
L 54.109375 2.78125 
Q 49.265625 0.734375 44.1875 -0.34375 
Q 39.109375 -1.421875 33.890625 -1.421875 
Q 20.796875 -1.421875 13.15625 6.1875 
Q 5.515625 13.8125 5.515625 26.8125 
Q 5.515625 40.234375 12.765625 48.109375 
Q 20.015625 56 32.328125 56 
Q 43.359375 56 49.78125 48.890625 
Q 56.203125 41.796875 56.203125 29.59375 
z
M 47.21875 32.234375 
Q 47.125 39.59375 43.09375 43.984375 
Q 39.0625 48.390625 32.421875 48.390625 
Q 24.90625 48.390625 20.390625 44.140625 
Q 15.875 39.890625 15.1875 32.171875 
z
" id="DejaVuSans-65"/>
      <path d="M 18.3125 70.21875 
L 18.3125 54.6875 
L 36.8125 54.6875 
L 36.8125 47.703125 
L 18.3125 47.703125 
L 18.3125 18.015625 
Q 18.3125 11.328125 20.140625 9.421875 
Q 21.96875 7.515625 27.59375 7.515625 
L 36.8125 7.515625 
L 36.8125 0 
L 27.59375 0 
Q 17.1875 0 13.234375 3.875 
Q 9.28125 7.765625 9.28125 18.015625 
L 9.28125 47.703125 
L 2.6875 47.703125 
L 2.6875 54.6875 
L 9.28125 54.6875 
L 9.28125 70.21875 
z
" id="DejaVuSans-74"/>
      <path d="M 9.421875 54.6875 
L 18.40625 54.6875 
L 18.40625 0 
L 9.421875 0 
z
M 9.421875 75.984375 
L 18.40625 75.984375 
L 18.40625 64.59375 
L 9.421875 64.59375 
z
" id="DejaVuSans-69"/>
     </defs>
     <g transform="translate(160.86875 22.27875)scale(0.08 -0.08)">
      <use xlink:href="#DejaVuSans-44"/>
      <use x="77.001953" xlink:href="#DejaVuSans-75"/>
      <use x="140.380859" xlink:href="#DejaVuSans-6c"/>
      <use x="168.164062" xlink:href="#DejaVuSans-6f"/>
      <use x="229.345703" xlink:href="#DejaVuSans-6e"/>
      <use x="292.724609" xlink:href="#DejaVuSans-67"/>
      <use x="356.201172" xlink:href="#DejaVuSans-2d"/>
      <use x="392.285156" xlink:href="#DejaVuSans-50"/>
      <use x="452.541016" xlink:href="#DejaVuSans-65"/>
      <use x="514.064453" xlink:href="#DejaVuSans-74"/>
      <use x="553.273438" xlink:href="#DejaVuSans-69"/>
      <use x="581.056641" xlink:href="#DejaVuSans-74"/>
     </g>
    </g>
    <g id="line2d_46">
     <path d="M 138.46875 31.22125 
L 154.46875 31.22125 
" style="fill:none;stroke:#114b5f;stroke-linecap:square;"/>
    </g>
    <g id="line2d_47"/>
    <g id="text_15">
     <!-- CL -->
     <defs>
      <path d="M 64.40625 67.28125 
L 64.40625 56.890625 
Q 59.421875 61.53125 53.78125 63.8125 
Q 48.140625 66.109375 41.796875 66.109375 
Q 29.296875 66.109375 22.65625 58.46875 
Q 16.015625 50.828125 16.015625 36.375 
Q 16.015625 21.96875 22.65625 14.328125 
Q 29.296875 6.6875 41.796875 6.6875 
Q 48.140625 6.6875 53.78125 8.984375 
Q 59.421875 11.28125 64.40625 15.921875 
L 64.40625 5.609375 
Q 59.234375 2.09375 53.4375 0.328125 
Q 47.65625 -1.421875 41.21875 -1.421875 
Q 24.65625 -1.421875 15.125 8.703125 
Q 5.609375 18.84375 5.609375 36.375 
Q 5.609375 53.953125 15.125 64.078125 
Q 24.65625 74.21875 41.21875 74.21875 
Q 47.75 74.21875 53.53125 72.484375 
Q 59.328125 70.75 64.40625 67.28125 
z
" id="DejaVuSans-43"/>
      <path d="M 9.8125 72.90625 
L 19.671875 72.90625 
L 19.671875 8.296875 
L 55.171875 8.296875 
L 55.171875 0 
L 9.8125 0 
z
" id="DejaVuSans-4c"/>
     </defs>
     <g transform="translate(160.86875 34.02125)scale(0.08 -0.08)">
      <use xlink:href="#DejaVuSans-43"/>
      <use x="69.824219" xlink:href="#DejaVuSans-4c"/>
     </g>
    </g>
    <g id="LineCollection_2">
     <path d="M 146.46875 46.96375 
L 146.46875 38.96375 
" style="fill:none;stroke:#a42604;"/>
    </g>
    <g id="line2d_48"/>
    <g id="line2d_49">
     <g>
      <use style="fill:#f94515;stroke:#a42604;stroke-width:0.75;" x="146.46875" xlink:href="#m8a784c11d1" y="42.96375"/>
     </g>
    </g>
    <g id="text_16">
     <!-- MIT experiment -->
     <defs>
      <path d="M 9.8125 72.90625 
L 24.515625 72.90625 
L 43.109375 23.296875 
L 61.8125 72.90625 
L 76.515625 72.90625 
L 76.515625 0 
L 66.890625 0 
L 66.890625 64.015625 
L 48.09375 14.015625 
L 38.1875 14.015625 
L 19.390625 64.015625 
L 19.390625 0 
L 9.8125 0 
z
" id="DejaVuSans-4d"/>
      <path d="M 9.8125 72.90625 
L 19.671875 72.90625 
L 19.671875 0 
L 9.8125 0 
z
" id="DejaVuSans-49"/>
      <path d="M -0.296875 72.90625 
L 61.375 72.90625 
L 61.375 64.59375 
L 35.5 64.59375 
L 35.5 0 
L 25.59375 0 
L 25.59375 64.59375 
L -0.296875 64.59375 
z
" id="DejaVuSans-54"/>
      <path id="DejaVuSans-20"/>
      <path d="M 54.890625 54.6875 
L 35.109375 28.078125 
L 55.90625 0 
L 45.3125 0 
L 29.390625 21.484375 
L 13.484375 0 
L 2.875 0 
L 24.125 28.609375 
L 4.6875 54.6875 
L 15.28125 54.6875 
L 29.78125 35.203125 
L 44.28125 54.6875 
z
" id="DejaVuSans-78"/>
      <path d="M 18.109375 8.203125 
L 18.109375 -20.796875 
L 9.078125 -20.796875 
L 9.078125 54.6875 
L 18.109375 54.6875 
L 18.109375 46.390625 
Q 20.953125 51.265625 25.265625 53.625 
Q 29.59375 56 35.59375 56 
Q 45.5625 56 51.78125 48.09375 
Q 58.015625 40.1875 58.015625 27.296875 
Q 58.015625 14.40625 51.78125 6.484375 
Q 45.5625 -1.421875 35.59375 -1.421875 
Q 29.59375 -1.421875 25.265625 0.953125 
Q 20.953125 3.328125 18.109375 8.203125 
z
M 48.6875 27.296875 
Q 48.6875 37.203125 44.609375 42.84375 
Q 40.53125 48.484375 33.40625 48.484375 
Q 26.265625 48.484375 22.1875 42.84375 
Q 18.109375 37.203125 18.109375 27.296875 
Q 18.109375 17.390625 22.1875 11.75 
Q 26.265625 6.109375 33.40625 6.109375 
Q 40.53125 6.109375 44.609375 11.75 
Q 48.6875 17.390625 48.6875 27.296875 
z
" id="DejaVuSans-70"/>
      <path d="M 41.109375 46.296875 
Q 39.59375 47.171875 37.8125 47.578125 
Q 36.03125 48 33.890625 48 
Q 26.265625 48 22.1875 43.046875 
Q 18.109375 38.09375 18.109375 28.8125 
L 18.109375 0 
L 9.078125 0 
L 9.078125 54.6875 
L 18.109375 54.6875 
L 18.109375 46.1875 
Q 20.953125 51.171875 25.484375 53.578125 
Q 30.03125 56 36.53125 56 
Q 37.453125 56 38.578125 55.875 
Q 39.703125 55.765625 41.0625 55.515625 
z
" id="DejaVuSans-72"/>
      <path d="M 52 44.1875 
Q 55.375 50.25 60.0625 53.125 
Q 64.75 56 71.09375 56 
Q 79.640625 56 84.28125 50.015625 
Q 88.921875 44.046875 88.921875 33.015625 
L 88.921875 0 
L 79.890625 0 
L 79.890625 32.71875 
Q 79.890625 40.578125 77.09375 44.375 
Q 74.3125 48.1875 68.609375 48.1875 
Q 61.625 48.1875 57.5625 43.546875 
Q 53.515625 38.921875 53.515625 30.90625 
L 53.515625 0 
L 44.484375 0 
L 44.484375 32.71875 
Q 44.484375 40.625 41.703125 44.40625 
Q 38.921875 48.1875 33.109375 48.1875 
Q 26.21875 48.1875 22.15625 43.53125 
Q 18.109375 38.875 18.109375 30.90625 
L 18.109375 0 
L 9.078125 0 
L 9.078125 54.6875 
L 18.109375 54.6875 
L 18.109375 46.1875 
Q 21.1875 51.21875 25.484375 53.609375 
Q 29.78125 56 35.6875 56 
Q 41.65625 56 45.828125 52.96875 
Q 50 49.953125 52 44.1875 
z
" id="DejaVuSans-6d"/>
     </defs>
     <g transform="translate(160.86875 45.76375)scale(0.08 -0.08)">
      <use xlink:href="#DejaVuSans-4d"/>
      <use x="86.279297" xlink:href="#DejaVuSans-49"/>
      <use x="115.771484" xlink:href="#DejaVuSans-54"/>
      <use x="176.855469" xlink:href="#DejaVuSans-20"/>
      <use x="208.642578" xlink:href="#DejaVuSans-65"/>
      <use x="270.150391" xlink:href="#DejaVuSans-78"/>
      <use x="329.330078" xlink:href="#DejaVuSans-70"/>
      <use x="392.806641" xlink:href="#DejaVuSans-65"/>
      <use x="454.330078" xlink:href="#DejaVuSans-72"/>
      <use x="495.443359" xlink:href="#DejaVuSans-69"/>
      <use x="523.226562" xlink:href="#DejaVuSans-6d"/>
      <use x="620.638672" xlink:href="#DejaVuSans-65"/>
      <use x="682.162109" xlink:href="#DejaVuSans-6e"/>
      <use x="745.541016" xlink:href="#DejaVuSans-74"/>
     </g>
    </g>
   </g>
  </g>
 </g>
 <defs>
  <clipPath id="p405a73bedf">
   <rect height="144" width="206.55" x="24.3" y="9"/>
  </clipPath>
 </defs>
</svg>
