<?xml version="1.0" encoding="utf-8" standalone="no"?>
<!DOCTYPE svg PUBLIC "-//W3C//DTD SVG 1.1//EN"
  "http://www.w3.org/Graphics/SVG/1.1/DTD/svg11.dtd">
<!-- Created with matplotlib (http://matplotlib.org/) -->
<svg height="180pt" version="1.1" viewBox="0 0 243 180" width="243pt" xmlns="http://www.w3.org/2000/svg" xmlns:xlink="http://www.w3.org/1999/xlink">
 <defs>
  <style type="text/css">
*{stroke-linecap:butt;stroke-linejoin:round;}
  </style>
 </defs>
 <g id="figure_1">
  <g id="patch_1">
   <path d="M 0 180 
L 243 180 
L 243 0 
L 0 0 
z
" style="fill:#ffffff;"/>
  </g>
  <g id="axes_1">
   <g id="patch_2">
    <path d="M 29.16 153 
L 230.85 153 
L 230.85 9 
L 29.16 9 
z
" style="fill:#ffffff;"/>
   </g>
   <g id="line2d_1">
    <path clip-path="url(#pc58956016b)" d="M 1.812203 133.259794 
L 3.905147 133.26854 
L 5.998091 133.277846 
L 8.091034 133.287748 
L 10.183978 133.298286 
L 12.276921 133.309501 
L 14.369865 133.321439 
L 16.462809 133.334146 
L 18.555752 133.347674 
L 20.648696 133.362078 
L 22.74164 133.377417 
L 24.834583 133.393754 
L 26.927527 133.411157 
L 29.02047 133.429699 
L 31.113414 133.449458 
L 33.206358 133.470521 
L 35.299301 133.492977 
L 37.392245 133.516926 
L 39.485189 133.542475 
L 41.578132 133.56974 
L 43.671076 133.598846 
L 45.764019 133.629931 
L 47.856963 133.663143 
L 49.949907 133.698645 
L 52.04285 133.736616 
L 54.135794 133.777249 
L 56.228737 133.820759 
L 58.321681 133.86738 
L 60.414625 133.917374 
L 62.507568 133.971025 
L 64.600512 134.028652 
L 66.693456 134.090608 
L 68.786399 134.157285 
L 70.879343 134.229121 
L 72.972286 134.306604 
L 75.06523 134.390282 
L 77.158174 134.480771 
L 79.251117 134.578762 
L 81.344061 134.685034 
L 83.437004 134.800468 
L 85.529948 134.926059 
L 87.622892 135.062936 
L 89.715835 135.212379 
L 91.808779 135.375842 
L 93.901723 135.554984 
L 95.994666 135.751691 
L 98.08761 135.968118 
L 100.180553 136.206724 
L 102.273497 136.470325 
L 104.366441 136.76214 
" style="fill:none;stroke:#114b5f;stroke-dasharray:3.7,1.6;stroke-dashoffset:0;"/>
   </g>
   <g id="line2d_2">
    <path clip-path="url(#pc58956016b)" d="M 1.812203 114.965247 
L 3.905147 114.991491 
L 5.998091 115.019351 
L 8.091034 115.048926 
L 10.183978 115.080319 
L 12.276921 115.113641 
L 14.369865 115.149008 
L 16.462809 115.186543 
L 18.555752 115.226378 
L 20.648696 115.268652 
L 22.74164 115.313514 
L 24.834583 115.361119 
L 26.927527 115.411635 
L 29.02047 115.465239 
L 31.113414 115.522121 
L 33.206358 115.582482 
L 35.299301 115.646537 
L 37.392245 115.714515 
L 39.485189 115.786664 
L 41.578132 115.863247 
L 43.671076 115.944547 
L 45.764019 116.030869 
L 47.856963 116.122542 
L 49.949907 116.219922 
L 52.04285 116.323394 
L 54.135794 116.433379 
L 56.228737 116.550332 
L 58.321681 116.674754 
L 60.414625 116.807193 
L 62.507568 116.948252 
L 64.600512 117.098596 
L 66.693456 117.258963 
L 68.786399 117.43017 
L 70.879343 117.613131 
L 72.972286 117.808863 
L 75.06523 118.018507 
L 77.158174 118.243347 
L 79.251117 118.484826 
L 81.344061 118.744575 
L 83.437004 119.024439 
L 85.529948 119.32651 
L 87.622892 119.653165 
L 89.715835 120.007106 
L 91.808779 120.391415 
L 93.901723 120.809606 
L 95.994666 121.265693 
L 98.08761 121.764269 
L 100.180553 122.310589 
L 102.273497 122.910672 
L 104.366441 123.571419 
" style="fill:none;stroke:#5f9049;stroke-dasharray:3.7,1.6;stroke-dashoffset:0;"/>
   </g>
   <g id="line2d_3">
    <path clip-path="url(#pc58956016b)" d="M 1.812203 91.457767 
L 3.905147 91.524512 
L 5.998091 91.595178 
L 8.091034 91.669981 
L 10.183978 91.749144 
L 12.276921 91.832903 
L 14.369865 91.921506 
L 16.462809 92.015211 
L 18.555752 92.114288 
L 20.648696 92.21902 
L 22.74164 92.329702 
L 24.834583 92.446646 
L 26.927527 92.570174 
L 29.02047 92.700627 
L 31.113414 92.838361 
L 33.206358 92.983747 
L 35.299301 93.137179 
L 37.392245 93.299067 
L 39.485189 93.469847 
L 41.578132 93.649975 
L 43.671076 93.839935 
L 45.764019 94.040243 
L 47.856963 94.251445 
L 49.949907 94.474125 
L 52.04285 94.708909 
L 54.135794 94.956473 
L 56.228737 95.217544 
L 58.321681 95.492916 
L 60.414625 95.783454 
L 62.507568 96.090105 
L 64.600512 96.413914 
L 66.693456 96.75604 
L 68.786399 97.117767 
L 70.879343 97.500532 
L 72.972286 97.905945 
L 75.06523 98.335819 
L 77.158174 98.792196 
L 79.251117 99.277393 
L 81.344061 99.794036 
L 83.437004 100.345112 
L 85.529948 100.934028 
L 87.622892 101.56467 
L 89.715835 102.241482 
L 91.808779 102.969549 
L 93.901723 103.754696 
L 95.994666 104.603601 
L 98.08761 105.523926 
L 100.180553 106.524463 
L 102.273497 107.615309 
L 104.366441 108.808066 
" style="fill:none;stroke:#d7b501;stroke-dasharray:3.7,1.6;stroke-dashoffset:0;"/>
   </g>
   <g id="line2d_4">
    <path clip-path="url(#pc58956016b)" d="M 1.812203 59.318974 
L 3.905147 59.47698 
L 5.998091 59.64376 
L 8.091034 59.819735 
L 10.183978 60.005341 
L 12.276921 60.201027 
L 14.369865 60.407257 
L 16.462809 60.624507 
L 18.555752 60.853267 
L 20.648696 61.094042 
L 22.74164 61.347346 
L 24.834583 61.613711 
L 26.927527 61.89368 
L 29.02047 62.187811 
L 31.113414 62.496675 
L 33.206358 62.820858 
L 35.299301 63.160965 
L 37.392245 63.517615 
L 39.485189 63.89145 
L 41.578132 64.283131 
L 43.671076 64.693349 
L 45.764019 65.122821 
L 47.856963 65.572302 
L 49.949907 66.042589 
L 52.04285 66.534527 
L 54.135794 67.049021 
L 56.228737 67.587047 
L 58.321681 68.149665 
L 60.414625 68.738035 
L 62.507568 69.353434 
L 64.600512 69.997281 
L 66.693456 70.671161 
L 68.786399 71.376852 
L 70.879343 72.116362 
L 72.972286 72.891968 
L 75.06523 73.706259 
L 77.158174 74.562189 
L 79.251117 75.463136 
L 81.344061 76.412971 
L 83.437004 77.416137 
L 85.529948 78.477735 
L 87.622892 79.603631 
L 89.715835 80.80057 
L 91.808779 82.076314 
L 93.901723 83.439796 
L 95.994666 84.901296 
L 98.08761 86.47265 
L 100.180553 88.167481 
L 102.273497 90.001471 
L 104.366441 91.992671 
" style="fill:none;stroke:#eca300;stroke-dasharray:3.7,1.6;stroke-dashoffset:0;"/>
   </g>
   <g id="line2d_5">
    <path clip-path="url(#pc58956016b)" d="M 1.812203 14.13941 
L 3.905147 14.493988 
L 5.998091 14.866889 
L 8.091034 15.258849 
L 10.183978 15.67061 
L 12.276921 16.102924 
L 14.369865 16.556546 
L 16.462809 17.032237 
L 18.555752 17.53076 
L 20.648696 18.052876 
L 22.74164 18.599349 
L 24.834583 19.170937 
L 26.927527 19.768396 
L 29.02047 20.39248 
L 31.113414 21.043937 
L 33.206358 21.723513 
L 35.299301 22.431952 
L 37.392245 23.169996 
L 39.485189 23.938395 
L 41.578132 24.737904 
L 43.671076 25.569294 
L 45.764019 26.433357 
L 47.856963 27.330917 
L 49.949907 28.262841 
L 52.04285 29.230055 
L 54.135794 30.233556 
L 56.228737 31.274438 
L 58.321681 32.35391 
L 60.414625 33.473326 
L 62.507568 34.634214 
L 64.600512 35.838313 
L 66.693456 37.087615 
L 68.786399 38.384411 
L 70.879343 39.731342 
L 72.972286 41.131469 
L 75.06523 42.588334 
L 77.158174 44.106045 
L 79.251117 45.68937 
L 81.344061 47.343834 
L 83.437004 49.075849 
L 85.529948 50.892842 
L 87.622892 52.803419 
L 89.715835 54.817539 
L 91.808779 56.946724 
L 93.901723 59.204295 
L 95.994666 61.605643 
L 98.08761 64.168542 
L 100.180553 66.913509 
L 102.273497 69.864218 
L 104.366441 73.047976 
" style="fill:none;stroke:#db7502;stroke-dasharray:3.7,1.6;stroke-dashoffset:0;"/>
   </g>
   <g id="matplotlib.axis_1">
    <g id="xtick_1">
     <g id="line2d_6">
      <defs>
       <path d="M 0 0 
L 0 -2.5 
" id="m12354f1119" style="stroke:#000000;stroke-width:0.8;"/>
      </defs>
      <g>
       <use style="stroke:#000000;stroke-width:0.8;" x="35.996949" xlink:href="#m12354f1119" y="153"/>
      </g>
     </g>
     <g id="line2d_7">
      <defs>
       <path d="M 0 0 
L 0 2.5 
" id="mc22d2b32fc" style="stroke:#000000;stroke-width:0.8;"/>
      </defs>
      <g>
       <use style="stroke:#000000;stroke-width:0.8;" x="35.996949" xlink:href="#mc22d2b32fc" y="9"/>
      </g>
     </g>
     <g id="text_1">
      <!-- $-3$ -->
      <defs>
       <path d="M 62.09375 22 
L 6.40625 22 
L 6.40625 28.59375 
L 62.09375 28.59375 
z
" id="STIXGeneral-Regular-2212"/>
       <path d="M 11.296875 49.203125 
L 4.203125 50.90625 
Q 6.40625 58.703125 11.5 63.140625 
Q 16.59375 67.59375 24.296875 67.59375 
Q 31.40625 67.59375 36.203125 63.09375 
Q 41 58.59375 41 51.90625 
Q 41 43 32.40625 37 
Q 38 35 41.046875 30.34375 
Q 44.09375 25.703125 44.09375 21 
Q 44.09375 11.296875 37.796875 5 
Q 31.40625 -1.40625 20.5 -1.40625 
Q 9.5 -1.40625 3.09375 5.59375 
L 7.796875 11.203125 
Q 12.90625 5.703125 20 5.703125 
Q 27.40625 5.703125 31.59375 9.296875 
Q 36.203125 13.203125 36.203125 19.09375 
Q 36.203125 24.296875 32.453125 27.796875 
Q 28.703125 31.296875 22.203125 32.203125 
L 15.796875 32.203125 
L 15.796875 34.296875 
L 20.59375 39.40625 
Q 25.09375 39.40625 29.09375 42.84375 
Q 33.09375 46.296875 33.09375 51.203125 
Q 33.09375 55.40625 30.4375 57.953125 
Q 27.796875 60.5 24 60.5 
Q 20 60.5 16.546875 57.640625 
Q 13.09375 54.796875 11.296875 49.203125 
z
" id="STIXGeneral-Regular-1d7e5"/>
      </defs>
      <g transform="translate(31.236949 162.57875)scale(0.08 -0.08)">
       <use transform="translate(0 0.40625)" xlink:href="#STIXGeneral-Regular-2212"/>
       <use transform="translate(68.499985 0.40625)" xlink:href="#STIXGeneral-Regular-1d7e5"/>
      </g>
     </g>
    </g>
    <g id="xtick_2">
     <g id="line2d_8">
      <g>
       <use style="stroke:#000000;stroke-width:0.8;" x="70.181695" xlink:href="#m12354f1119" y="153"/>
      </g>
     </g>
     <g id="line2d_9">
      <g>
       <use style="stroke:#000000;stroke-width:0.8;" x="70.181695" xlink:href="#mc22d2b32fc" y="9"/>
      </g>
     </g>
     <g id="text_2">
      <!-- $-2$ -->
      <defs>
       <path d="M 46.90625 7.09375 
L 44 0 
L 3.5 0 
L 3.5 2.09375 
L 21 23.5 
L 21 23.40625 
L 26.59375 30.203125 
Q 30.5 34.90625 32.09375 36.953125 
Q 33.703125 39 35.203125 41.953125 
Q 36.703125 44.90625 36.703125 47.5 
Q 36.703125 53.703125 33.34375 57.09375 
Q 30 60.5 24.203125 60.5 
Q 19.59375 60.5 15.75 56.703125 
Q 11.90625 52.90625 10.90625 45.90625 
L 3.703125 47.59375 
Q 5.296875 56.5 11.1875 62.046875 
Q 17.09375 67.59375 24.90625 67.59375 
Q 33.59375 67.59375 39.09375 62.1875 
Q 44.59375 56.796875 44.59375 49.09375 
Q 44.59375 43.5 42.5 39.453125 
Q 40.40625 35.40625 33.703125 27 
L 17.703125 7.09375 
z
" id="STIXGeneral-Regular-1d7e4"/>
      </defs>
      <g transform="translate(65.421695 162.57875)scale(0.08 -0.08)">
       <use transform="translate(0 0.40625)" xlink:href="#STIXGeneral-Regular-2212"/>
       <use transform="translate(68.499985 0.40625)" xlink:href="#STIXGeneral-Regular-1d7e4"/>
      </g>
     </g>
    </g>
    <g id="xtick_3">
     <g id="line2d_10">
      <g>
       <use style="stroke:#000000;stroke-width:0.8;" x="104.366441" xlink:href="#m12354f1119" y="153"/>
      </g>
     </g>
     <g id="line2d_11">
      <g>
       <use style="stroke:#000000;stroke-width:0.8;" x="104.366441" xlink:href="#mc22d2b32fc" y="9"/>
      </g>
     </g>
     <g id="text_3">
      <!-- $-1$ -->
      <defs>
       <path d="M 30.203125 0 
L 22.296875 0 
L 22.296875 57 
Q 20.09375 56 15.75 53.75 
Q 11.40625 51.5 10.796875 51.203125 
L 10.796875 58.5 
L 28.796875 67.703125 
L 30.203125 67.203125 
z
" id="STIXGeneral-Regular-1d7e3"/>
      </defs>
      <g transform="translate(99.606441 162.57875)scale(0.08 -0.08)">
       <use transform="translate(0 0.296875)" xlink:href="#STIXGeneral-Regular-2212"/>
       <use transform="translate(68.499985 0.296875)" xlink:href="#STIXGeneral-Regular-1d7e3"/>
      </g>
     </g>
    </g>
    <g id="xtick_4">
     <g id="line2d_12">
      <g>
       <use style="stroke:#000000;stroke-width:0.8;" x="138.551186" xlink:href="#m12354f1119" y="153"/>
      </g>
     </g>
     <g id="line2d_13">
      <g>
       <use style="stroke:#000000;stroke-width:0.8;" x="138.551186" xlink:href="#mc22d2b32fc" y="9"/>
      </g>
     </g>
     <g id="text_4">
      <!-- $0$ -->
      <defs>
       <path d="M 47.703125 33 
Q 47.703125 23.796875 45.546875 16.34375 
Q 43.40625 8.90625 38.09375 3.75 
Q 32.796875 -1.40625 25 -1.40625 
Q 18.796875 -1.40625 14.25 1.6875 
Q 9.703125 4.796875 7.203125 10.046875 
Q 4.703125 15.296875 3.5 21.140625 
Q 2.296875 27 2.296875 33.59375 
Q 2.296875 42.90625 4.59375 50.34375 
Q 6.90625 57.796875 12.296875 62.6875 
Q 17.703125 67.59375 25.40625 67.59375 
Q 35.203125 67.59375 41.453125 57.9375 
Q 47.703125 48.296875 47.703125 33 
z
M 39.796875 33 
Q 39.796875 45.203125 35.75 52.84375 
Q 31.703125 60.5 25.203125 60.5 
Q 17.796875 60.5 14 52.75 
Q 10.203125 45 10.203125 33.40625 
Q 10.203125 28.203125 10.953125 23.546875 
Q 11.703125 18.90625 13.34375 14.75 
Q 15 10.59375 18 8.140625 
Q 21 5.703125 25 5.703125 
Q 30.09375 5.703125 33.546875 9.796875 
Q 37 13.90625 38.390625 19.84375 
Q 39.796875 25.796875 39.796875 33 
z
" id="STIXGeneral-Regular-1d7e2"/>
      </defs>
      <g transform="translate(136.551186 162.57875)scale(0.08 -0.08)">
       <use transform="translate(0 0.40625)" xlink:href="#STIXGeneral-Regular-1d7e2"/>
      </g>
     </g>
    </g>
    <g id="xtick_5">
     <g id="line2d_14">
      <g>
       <use style="stroke:#000000;stroke-width:0.8;" x="172.735932" xlink:href="#m12354f1119" y="153"/>
      </g>
     </g>
     <g id="line2d_15">
      <g>
       <use style="stroke:#000000;stroke-width:0.8;" x="172.735932" xlink:href="#mc22d2b32fc" y="9"/>
      </g>
     </g>
     <g id="text_5">
      <!-- $1$ -->
      <g transform="translate(170.735932 162.57875)scale(0.08 -0.08)">
       <use transform="translate(0 0.296875)" xlink:href="#STIXGeneral-Regular-1d7e3"/>
      </g>
     </g>
    </g>
    <g id="xtick_6">
     <g id="line2d_16">
      <g>
       <use style="stroke:#000000;stroke-width:0.8;" x="206.920678" xlink:href="#m12354f1119" y="153"/>
      </g>
     </g>
     <g id="line2d_17">
      <g>
       <use style="stroke:#000000;stroke-width:0.8;" x="206.920678" xlink:href="#mc22d2b32fc" y="9"/>
      </g>
     </g>
     <g id="text_6">
      <!-- $2$ -->
      <g transform="translate(204.920678 162.57875)scale(0.08 -0.08)">
       <use transform="translate(0 0.40625)" xlink:href="#STIXGeneral-Regular-1d7e4"/>
      </g>
     </g>
    </g>
    <g id="xtick_7">
     <g id="line2d_18">
      <defs>
       <path d="M 0 0 
L 0 -1.5 
" id="me3d9fa795b" style="stroke:#000000;stroke-width:0.6;"/>
      </defs>
      <g>
       <use style="stroke:#000000;stroke-width:0.6;" x="53.089322" xlink:href="#me3d9fa795b" y="153"/>
      </g>
     </g>
     <g id="line2d_19">
      <defs>
       <path d="M 0 0 
L 0 1.5 
" id="m6fb20827f9" style="stroke:#000000;stroke-width:0.6;"/>
      </defs>
      <g>
       <use style="stroke:#000000;stroke-width:0.6;" x="53.089322" xlink:href="#m6fb20827f9" y="9"/>
      </g>
     </g>
    </g>
    <g id="xtick_8">
     <g id="line2d_20">
      <g>
       <use style="stroke:#000000;stroke-width:0.6;" x="87.274068" xlink:href="#me3d9fa795b" y="153"/>
      </g>
     </g>
     <g id="line2d_21">
      <g>
       <use style="stroke:#000000;stroke-width:0.6;" x="87.274068" xlink:href="#m6fb20827f9" y="9"/>
      </g>
     </g>
    </g>
    <g id="xtick_9">
     <g id="line2d_22">
      <g>
       <use style="stroke:#000000;stroke-width:0.6;" x="121.458814" xlink:href="#me3d9fa795b" y="153"/>
      </g>
     </g>
     <g id="line2d_23">
      <g>
       <use style="stroke:#000000;stroke-width:0.6;" x="121.458814" xlink:href="#m6fb20827f9" y="9"/>
      </g>
     </g>
    </g>
    <g id="xtick_10">
     <g id="line2d_24">
      <g>
       <use style="stroke:#000000;stroke-width:0.6;" x="155.643559" xlink:href="#me3d9fa795b" y="153"/>
      </g>
     </g>
     <g id="line2d_25">
      <g>
       <use style="stroke:#000000;stroke-width:0.6;" x="155.643559" xlink:href="#m6fb20827f9" y="9"/>
      </g>
     </g>
    </g>
    <g id="xtick_11">
     <g id="line2d_26">
      <g>
       <use style="stroke:#000000;stroke-width:0.6;" x="189.828305" xlink:href="#me3d9fa795b" y="153"/>
      </g>
     </g>
     <g id="line2d_27">
      <g>
       <use style="stroke:#000000;stroke-width:0.6;" x="189.828305" xlink:href="#m6fb20827f9" y="9"/>
      </g>
     </g>
    </g>
    <g id="xtick_12">
     <g id="line2d_28">
      <g>
       <use style="stroke:#000000;stroke-width:0.6;" x="224.013051" xlink:href="#me3d9fa795b" y="153"/>
      </g>
     </g>
     <g id="line2d_29">
      <g>
       <use style="stroke:#000000;stroke-width:0.6;" x="224.013051" xlink:href="#m6fb20827f9" y="9"/>
      </g>
     </g>
    </g>
    <g id="text_7">
     <!-- $\beta\mu$ -->
     <defs>
      <path d="M 2.703125 -13.09375 
L 16 40.203125 
Q 18.796875 51.5 23.40625 57.90625 
Q 31.09375 68.296875 42.796875 68.296875 
Q 48.09375 68.296875 52 64.9375 
Q 55.90625 61.59375 55.90625 56.296875 
Q 55.90625 51.203125 53.203125 46.84375 
Q 50.5 42.5 45.703125 39.796875 
Q 49.09375 38.59375 51.140625 35.046875 
Q 53.203125 31.5 53.203125 27.09375 
Q 53.203125 14.59375 44.453125 6.59375 
Q 35.703125 -1.40625 25 -1.40625 
Q 18.296875 -1.40625 14.40625 2.203125 
L 10.703125 -12.59375 
Q 9.59375 -17 6.90625 -21.5 
L -1.203125 -21.5 
Q 1.59375 -17.40625 2.703125 -13.09375 
z
M 29.296875 37.5 
L 34.796875 42.90625 
Q 40.5 43.203125 44.140625 46.703125 
Q 47.796875 50.203125 47.796875 54.703125 
Q 47.796875 57.703125 45.84375 59.453125 
Q 43.90625 61.203125 40.5 61.203125 
Q 34.203125 61.203125 30.296875 55.84375 
Q 26.40625 50.5 24.59375 43.296875 
L 16.796875 11.796875 
Q 17.796875 9.09375 20.84375 7.390625 
Q 23.90625 5.703125 27.5 5.703125 
Q 34.296875 5.703125 39.640625 11.75 
Q 45 17.796875 45 25.703125 
Q 45 35.796875 28.90625 35.796875 
z
" id="STIXNonUnicode-Italic-e1d9"/>
      <path d="M 53.59375 45.296875 
L 45.5 12.796875 
Q 45 11 45 9.703125 
Q 45 6.09375 49.703125 6.09375 
L 49.296875 4.703125 
L 45.59375 -1 
Q 39.40625 -1 37.5 2.09375 
Q 36.59375 3.5 36.59375 6.40625 
L 21.59375 -1 
Q 16 -1 14.09375 1.5 
L 10.59375 -12.59375 
Q 9.296875 -17.90625 6.796875 -21.5 
L -0.90625 -21.5 
Q 2 -17 3.09375 -12.703125 
L 17.5 45.296875 
L 25.40625 45.296875 
L 17.90625 14.90625 
Q 17.40625 12.703125 17.40625 11.40625 
Q 17.40625 6.09375 23.90625 6.09375 
Q 26.703125 6.09375 31.34375 9.046875 
Q 36 12 38.5 16.09375 
L 45.703125 45.296875 
z
" id="STIXNonUnicode-Italic-e1e3"/>
     </defs>
     <g transform="translate(125.605 171.225)scale(0.08 -0.08)">
      <use transform="translate(0 0.703125)" xlink:href="#STIXNonUnicode-Italic-e1d9"/>
      <use transform="translate(53.499985 0.703125)" xlink:href="#STIXNonUnicode-Italic-e1e3"/>
     </g>
    </g>
   </g>
   <g id="matplotlib.axis_2">
    <g id="ytick_1">
     <g id="line2d_30">
      <defs>
       <path d="M 0 0 
L 2.5 0 
" id="mee353b8e60" style="stroke:#000000;stroke-width:0.8;"/>
      </defs>
      <g>
       <use style="stroke:#000000;stroke-width:0.8;" x="29.16" xlink:href="#mee353b8e60" y="149.108108"/>
      </g>
     </g>
     <g id="line2d_31">
      <defs>
       <path d="M 0 0 
L -2.5 0 
" id="md6aa40eed4" style="stroke:#000000;stroke-width:0.8;"/>
      </defs>
      <g>
       <use style="stroke:#000000;stroke-width:0.8;" x="230.85" xlink:href="#md6aa40eed4" y="149.108108"/>
      </g>
     </g>
     <g id="text_8">
      <!-- $0$ -->
      <g transform="translate(21.66 152.147483)scale(0.08 -0.08)">
       <use transform="translate(0 0.40625)" xlink:href="#STIXGeneral-Regular-1d7e2"/>
      </g>
     </g>
    </g>
    <g id="ytick_2">
     <g id="line2d_32">
      <g>
       <use style="stroke:#000000;stroke-width:0.8;" x="29.16" xlink:href="#mee353b8e60" y="110.189189"/>
      </g>
     </g>
     <g id="line2d_33">
      <g>
       <use style="stroke:#000000;stroke-width:0.8;" x="230.85" xlink:href="#md6aa40eed4" y="110.189189"/>
      </g>
     </g>
     <g id="text_9">
      <!-- $1$ -->
      <g transform="translate(21.66 113.228564)scale(0.08 -0.08)">
       <use transform="translate(0 0.296875)" xlink:href="#STIXGeneral-Regular-1d7e3"/>
      </g>
     </g>
    </g>
    <g id="ytick_3">
     <g id="line2d_34">
      <g>
       <use style="stroke:#000000;stroke-width:0.8;" x="29.16" xlink:href="#mee353b8e60" y="71.27027"/>
      </g>
     </g>
     <g id="line2d_35">
      <g>
       <use style="stroke:#000000;stroke-width:0.8;" x="230.85" xlink:href="#md6aa40eed4" y="71.27027"/>
      </g>
     </g>
     <g id="text_10">
      <!-- $2$ -->
      <g transform="translate(21.66 74.309645)scale(0.08 -0.08)">
       <use transform="translate(0 0.40625)" xlink:href="#STIXGeneral-Regular-1d7e4"/>
      </g>
     </g>
    </g>
    <g id="ytick_4">
     <g id="line2d_36">
      <g>
       <use style="stroke:#000000;stroke-width:0.8;" x="29.16" xlink:href="#mee353b8e60" y="32.351351"/>
      </g>
     </g>
     <g id="line2d_37">
      <g>
       <use style="stroke:#000000;stroke-width:0.8;" x="230.85" xlink:href="#md6aa40eed4" y="32.351351"/>
      </g>
     </g>
     <g id="text_11">
      <!-- $3$ -->
      <g transform="translate(21.66 35.390726)scale(0.08 -0.08)">
       <use transform="translate(0 0.40625)" xlink:href="#STIXGeneral-Regular-1d7e5"/>
      </g>
     </g>
    </g>
    <g id="ytick_5">
     <g id="line2d_38">
      <defs>
       <path d="M 0 0 
L 1.5 0 
" id="m01d3857384" style="stroke:#000000;stroke-width:0.6;"/>
      </defs>
      <g>
       <use style="stroke:#000000;stroke-width:0.6;" x="29.16" xlink:href="#m01d3857384" y="129.648649"/>
      </g>
     </g>
     <g id="line2d_39">
      <defs>
       <path d="M 0 0 
L -1.5 0 
" id="me86c6f73e6" style="stroke:#000000;stroke-width:0.6;"/>
      </defs>
      <g>
       <use style="stroke:#000000;stroke-width:0.6;" x="230.85" xlink:href="#me86c6f73e6" y="129.648649"/>
      </g>
     </g>
    </g>
    <g id="ytick_6">
     <g id="line2d_40">
      <g>
       <use style="stroke:#000000;stroke-width:0.6;" x="29.16" xlink:href="#m01d3857384" y="90.72973"/>
      </g>
     </g>
     <g id="line2d_41">
      <g>
       <use style="stroke:#000000;stroke-width:0.6;" x="230.85" xlink:href="#me86c6f73e6" y="90.72973"/>
      </g>
     </g>
    </g>
    <g id="ytick_7">
     <g id="line2d_42">
      <g>
       <use style="stroke:#000000;stroke-width:0.6;" x="29.16" xlink:href="#m01d3857384" y="51.810811"/>
      </g>
     </g>
     <g id="line2d_43">
      <g>
       <use style="stroke:#000000;stroke-width:0.6;" x="230.85" xlink:href="#me86c6f73e6" y="51.810811"/>
      </g>
     </g>
    </g>
    <g id="ytick_8">
     <g id="line2d_44">
      <g>
       <use style="stroke:#000000;stroke-width:0.6;" x="29.16" xlink:href="#m01d3857384" y="12.891892"/>
      </g>
     </g>
     <g id="line2d_45">
      <g>
       <use style="stroke:#000000;stroke-width:0.6;" x="230.85" xlink:href="#me86c6f73e6" y="12.891892"/>
      </g>
     </g>
    </g>
    <g id="text_12">
     <!-- $m\,/n_0$ -->
     <defs>
      <path d="M 25.296875 45.90625 
L 23.90625 40.203125 
Q 30.296875 46.296875 39.296875 46.296875 
Q 48.09375 46.296875 50.796875 39.796875 
Q 58.203125 46.296875 66.59375 46.296875 
Q 71.5 46.296875 74.5 43.6875 
Q 77.5 41.09375 77.5 36.09375 
Q 77.5 34 76.90625 31.5 
L 69.09375 0 
L 61.40625 0 
L 68.703125 29.296875 
Q 69.296875 31.703125 69.296875 33.5 
Q 69.296875 39.203125 63.203125 39.203125 
Q 60.5 39.203125 56 36.640625 
Q 51.5 34.09375 49.203125 30.203125 
L 41.703125 0 
L 34 0 
L 41.09375 29 
Q 41.796875 32.203125 41.796875 33.5 
Q 41.796875 39.203125 35.90625 39.203125 
Q 33.203125 39.203125 28.640625 36.703125 
Q 24.09375 34.203125 21.703125 30.203125 
L 14.203125 0 
L 6.5 0 
L 17.40625 44 
L 24.5 46.40625 
z
" id="STIXGeneral-Italic-1d62e"/>
      <path d="M 28.703125 67.59375 
L 5.90625 -1.40625 
L -0.90625 -1.40625 
L 22 67.59375 
z
" id="STIXGeneral-Regular-2f"/>
      <path d="M 25.09375 45.90625 
L 23.90625 40.203125 
Q 28.40625 43.796875 32.203125 45.046875 
Q 36 46.296875 40.5 46.296875 
Q 45.203125 46.296875 48.09375 43.75 
Q 51 41.203125 51 37.203125 
Q 51 34.796875 50.40625 32.09375 
L 42.40625 0 
L 34.5 0 
L 42 30.40625 
Q 42.5 32.59375 42.5 33.90625 
Q 42.5 39.203125 36 39.203125 
Q 33.09375 39.203125 28.640625 36.703125 
Q 24.203125 34.203125 21.703125 30.203125 
L 14.203125 0 
L 6.296875 0 
L 17.203125 44 
L 24.296875 46.40625 
z
" id="STIXGeneral-Italic-1d62f"/>
     </defs>
     <g transform="translate(18.99625 89.08)rotate(-90)scale(0.08 -0.08)">
      <use transform="translate(0 0.40625)" xlink:href="#STIXGeneral-Italic-1d62e"/>
      <use transform="translate(88.200241 0.40625)" xlink:href="#STIXGeneral-Regular-2f"/>
      <use transform="translate(116.000229 0.40625)" xlink:href="#STIXGeneral-Italic-1d62f"/>
      <use transform="translate(164.700226 -13.182812)scale(0.7)" xlink:href="#STIXGeneral-Regular-1d7e2"/>
     </g>
    </g>
   </g>
   <g id="LineCollection_1">
    <path clip-path="url(#pc58956016b)" d="M 35.996949 133.654772 
L 35.996949 133.350245 
" style="fill:none;stroke:#114b5f;"/>
    <path clip-path="url(#pc58956016b)" d="M 53.089322 133.874794 
L 53.089322 133.584853 
" style="fill:none;stroke:#114b5f;"/>
    <path clip-path="url(#pc58956016b)" d="M 70.181695 134.080307 
L 70.181695 134.007468 
" style="fill:none;stroke:#114b5f;"/>
    <path clip-path="url(#pc58956016b)" d="M 87.274068 134.664004 
L 87.274068 134.521633 
" style="fill:none;stroke:#114b5f;"/>
    <path clip-path="url(#pc58956016b)" d="M 104.366441 135.415963 
L 104.366441 135.36823 
" style="fill:none;stroke:#114b5f;"/>
    <path clip-path="url(#pc58956016b)" d="M 121.458814 136.55957 
L 121.458814 136.518386 
" style="fill:none;stroke:#114b5f;"/>
    <path clip-path="url(#pc58956016b)" d="M 138.551186 137.876502 
L 138.551186 137.837639 
" style="fill:none;stroke:#114b5f;"/>
    <path clip-path="url(#pc58956016b)" d="M 155.643559 139.46115 
L 155.643559 139.379132 
" style="fill:none;stroke:#114b5f;"/>
    <path clip-path="url(#pc58956016b)" d="M 172.735932 141.136066 
L 172.735932 141.112313 
" style="fill:none;stroke:#114b5f;"/>
    <path clip-path="url(#pc58956016b)" d="M 189.828305 142.653494 
L 189.828305 142.613014 
" style="fill:none;stroke:#114b5f;"/>
    <path clip-path="url(#pc58956016b)" d="M 206.920678 143.84471 
L 206.920678 143.814658 
" style="fill:none;stroke:#114b5f;"/>
    <path clip-path="url(#pc58956016b)" d="M 224.013051 144.663284 
L 224.013051 144.630736 
" style="fill:none;stroke:#114b5f;"/>
   </g>
   <g id="LineCollection_2">
    <path clip-path="url(#pc58956016b)" d="M 35.996949 116.025624 
L 35.996949 115.351185 
" style="fill:none;stroke:#5f9049;"/>
    <path clip-path="url(#pc58956016b)" d="M 53.089322 116.578834 
L 53.089322 115.978023 
" style="fill:none;stroke:#5f9049;"/>
    <path clip-path="url(#pc58956016b)" d="M 70.181695 117.379281 
L 70.181695 116.812601 
" style="fill:none;stroke:#5f9049;"/>
    <path clip-path="url(#pc58956016b)" d="M 87.274068 118.618009 
L 87.274068 118.526065 
" style="fill:none;stroke:#5f9049;"/>
    <path clip-path="url(#pc58956016b)" d="M 104.366441 120.627166 
L 104.366441 120.570005 
" style="fill:none;stroke:#5f9049;"/>
    <path clip-path="url(#pc58956016b)" d="M 121.458814 123.068092 
L 121.458814 123.018891 
" style="fill:none;stroke:#5f9049;"/>
    <path clip-path="url(#pc58956016b)" d="M 138.551186 126.057671 
L 138.551186 125.881508 
" style="fill:none;stroke:#5f9049;"/>
    <path clip-path="url(#pc58956016b)" d="M 155.643559 129.438083 
L 155.643559 129.361699 
" style="fill:none;stroke:#5f9049;"/>
    <path clip-path="url(#pc58956016b)" d="M 172.735932 132.857322 
L 172.735932 132.800136 
" style="fill:none;stroke:#5f9049;"/>
    <path clip-path="url(#pc58956016b)" d="M 189.828305 136.015294 
L 189.828305 135.947968 
" style="fill:none;stroke:#5f9049;"/>
    <path clip-path="url(#pc58956016b)" d="M 206.920678 138.422283 
L 206.920678 138.344921 
" style="fill:none;stroke:#5f9049;"/>
    <path clip-path="url(#pc58956016b)" d="M 224.013051 139.912658 
L 224.013051 139.791516 
" style="fill:none;stroke:#5f9049;"/>
   </g>
   <g id="LineCollection_3">
    <path clip-path="url(#pc58956016b)" d="M 35.996949 93.997454 
L 35.996949 92.858886 
" style="fill:none;stroke:#d7b501;"/>
    <path clip-path="url(#pc58956016b)" d="M 53.089322 94.968747 
L 53.089322 94.233346 
" style="fill:none;stroke:#d7b501;"/>
    <path clip-path="url(#pc58956016b)" d="M 70.181695 97.124632 
L 70.181695 96.486129 
" style="fill:none;stroke:#d7b501;"/>
    <path clip-path="url(#pc58956016b)" d="M 87.274068 99.624893 
L 87.274068 99.418683 
" style="fill:none;stroke:#d7b501;"/>
    <path clip-path="url(#pc58956016b)" d="M 104.366441 103.609961 
L 104.366441 103.450751 
" style="fill:none;stroke:#d7b501;"/>
    <path clip-path="url(#pc58956016b)" d="M 121.458814 108.183718 
L 121.458814 107.823723 
" style="fill:none;stroke:#d7b501;"/>
    <path clip-path="url(#pc58956016b)" d="M 138.551186 113.326157 
L 138.551186 113.119766 
" style="fill:none;stroke:#d7b501;"/>
    <path clip-path="url(#pc58956016b)" d="M 155.643559 118.671746 
L 155.643559 118.501204 
" style="fill:none;stroke:#d7b501;"/>
    <path clip-path="url(#pc58956016b)" d="M 172.735932 124.304558 
L 172.735932 124.225631 
" style="fill:none;stroke:#d7b501;"/>
    <path clip-path="url(#pc58956016b)" d="M 189.828305 129.106333 
L 189.828305 128.966106 
" style="fill:none;stroke:#d7b501;"/>
    <path clip-path="url(#pc58956016b)" d="M 206.920678 132.616965 
L 206.920678 132.396117 
" style="fill:none;stroke:#d7b501;"/>
    <path clip-path="url(#pc58956016b)" d="M 224.013051 135.106896 
L 224.013051 134.929666 
" style="fill:none;stroke:#d7b501;"/>
   </g>
   <g id="LineCollection_4">
    <path clip-path="url(#pc58956016b)" d="M 35.996949 64.201088 
L 35.996949 62.342553 
" style="fill:none;stroke:#eca300;"/>
    <path clip-path="url(#pc58956016b)" d="M 53.089322 67.251993 
L 53.089322 66.098335 
" style="fill:none;stroke:#eca300;"/>
    <path clip-path="url(#pc58956016b)" d="M 70.181695 70.787262 
L 70.181695 69.938854 
" style="fill:none;stroke:#eca300;"/>
    <path clip-path="url(#pc58956016b)" d="M 87.274068 76.779448 
L 87.274068 76.22972 
" style="fill:none;stroke:#eca300;"/>
    <path clip-path="url(#pc58956016b)" d="M 104.366441 83.430034 
L 104.366441 83.139363 
" style="fill:none;stroke:#eca300;"/>
    <path clip-path="url(#pc58956016b)" d="M 121.458814 90.899287 
L 121.458814 90.831943 
" style="fill:none;stroke:#eca300;"/>
    <path clip-path="url(#pc58956016b)" d="M 138.551186 99.009128 
L 138.551186 98.83458 
" style="fill:none;stroke:#eca300;"/>
    <path clip-path="url(#pc58956016b)" d="M 155.643559 107.273629 
L 155.643559 107.10928 
" style="fill:none;stroke:#eca300;"/>
    <path clip-path="url(#pc58956016b)" d="M 172.735932 115.102475 
L 172.735932 115.009297 
" style="fill:none;stroke:#eca300;"/>
    <path clip-path="url(#pc58956016b)" d="M 189.828305 121.747106 
L 189.828305 121.57347 
" style="fill:none;stroke:#eca300;"/>
    <path clip-path="url(#pc58956016b)" d="M 206.920678 126.487877 
L 206.920678 126.378545 
" style="fill:none;stroke:#eca300;"/>
    <path clip-path="url(#pc58956016b)" d="M 224.013051 129.628496 
L 224.013051 129.45281 
" style="fill:none;stroke:#eca300;"/>
   </g>
   <g id="LineCollection_5">
    <path clip-path="url(#pc58956016b)" d="M 35.996949 23.474891 
L 35.996949 21.348546 
" style="fill:none;stroke:#db7502;"/>
    <path clip-path="url(#pc58956016b)" d="M 53.089322 29.906422 
L 53.089322 28.720533 
" style="fill:none;stroke:#db7502;"/>
    <path clip-path="url(#pc58956016b)" d="M 70.181695 38.15003 
L 70.181695 37.300281 
" style="fill:none;stroke:#db7502;"/>
    <path clip-path="url(#pc58956016b)" d="M 87.274068 48.433181 
L 87.274068 47.414394 
" style="fill:none;stroke:#db7502;"/>
    <path clip-path="url(#pc58956016b)" d="M 104.366441 59.744494 
L 104.366441 59.228309 
" style="fill:none;stroke:#db7502;"/>
    <path clip-path="url(#pc58956016b)" d="M 121.458814 71.545579 
L 121.458814 71.049824 
" style="fill:none;stroke:#db7502;"/>
    <path clip-path="url(#pc58956016b)" d="M 138.551186 83.446511 
L 138.551186 83.203679 
" style="fill:none;stroke:#db7502;"/>
    <path clip-path="url(#pc58956016b)" d="M 155.643559 94.975967 
L 155.643559 94.835487 
" style="fill:none;stroke:#db7502;"/>
    <path clip-path="url(#pc58956016b)" d="M 172.735932 105.427516 
L 172.735932 105.336245 
" style="fill:none;stroke:#db7502;"/>
    <path clip-path="url(#pc58956016b)" d="M 189.828305 113.656402 
L 189.828305 113.506615 
" style="fill:none;stroke:#db7502;"/>
    <path clip-path="url(#pc58956016b)" d="M 206.920678 119.919427 
L 206.920678 119.788968 
" style="fill:none;stroke:#db7502;"/>
    <path clip-path="url(#pc58956016b)" d="M 224.013051 123.997547 
L 224.013051 123.865455 
" style="fill:none;stroke:#db7502;"/>
   </g>
   <g id="line2d_46">
    <defs>
     <path d="M -0.574025 -1.385819 
L -1.385819 -0.574025 
L -1.385819 0.574025 
L -0.574025 1.385819 
L 0.574025 1.385819 
L 1.385819 0.574025 
L 1.385819 -0.574025 
L 0.574025 -1.385819 
z
" id="m04548681d8" style="stroke:#114b5f;stroke-linejoin:miter;stroke-width:0.75;"/>
    </defs>
    <g clip-path="url(#pc58956016b)">
     <use style="fill:#2faeda;stroke:#114b5f;stroke-linejoin:miter;stroke-width:0.75;" x="35.996949" xlink:href="#m04548681d8" y="133.502508"/>
     <use style="fill:#2faeda;stroke:#114b5f;stroke-linejoin:miter;stroke-width:0.75;" x="53.089322" xlink:href="#m04548681d8" y="133.729824"/>
     <use style="fill:#2faeda;stroke:#114b5f;stroke-linejoin:miter;stroke-width:0.75;" x="70.181695" xlink:href="#m04548681d8" y="134.043887"/>
     <use style="fill:#2faeda;stroke:#114b5f;stroke-linejoin:miter;stroke-width:0.75;" x="87.274068" xlink:href="#m04548681d8" y="134.592818"/>
     <use style="fill:#2faeda;stroke:#114b5f;stroke-linejoin:miter;stroke-width:0.75;" x="104.366441" xlink:href="#m04548681d8" y="135.392096"/>
     <use style="fill:#2faeda;stroke:#114b5f;stroke-linejoin:miter;stroke-width:0.75;" x="121.458814" xlink:href="#m04548681d8" y="136.538978"/>
     <use style="fill:#2faeda;stroke:#114b5f;stroke-linejoin:miter;stroke-width:0.75;" x="138.551186" xlink:href="#m04548681d8" y="137.857071"/>
     <use style="fill:#2faeda;stroke:#114b5f;stroke-linejoin:miter;stroke-width:0.75;" x="155.643559" xlink:href="#m04548681d8" y="139.420141"/>
     <use style="fill:#2faeda;stroke:#114b5f;stroke-linejoin:miter;stroke-width:0.75;" x="172.735932" xlink:href="#m04548681d8" y="141.124189"/>
     <use style="fill:#2faeda;stroke:#114b5f;stroke-linejoin:miter;stroke-width:0.75;" x="189.828305" xlink:href="#m04548681d8" y="142.633254"/>
     <use style="fill:#2faeda;stroke:#114b5f;stroke-linejoin:miter;stroke-width:0.75;" x="206.920678" xlink:href="#m04548681d8" y="143.829684"/>
     <use style="fill:#2faeda;stroke:#114b5f;stroke-linejoin:miter;stroke-width:0.75;" x="224.013051" xlink:href="#m04548681d8" y="144.64701"/>
    </g>
   </g>
   <g id="line2d_47">
    <defs>
     <path d="M 0 -1.5 
L -1.299038 -0.75 
L -1.299038 0.75 
L -0 1.5 
L 1.299038 0.75 
L 1.299038 -0.75 
z
" id="m3c7c6026ea" style="stroke:#5f9049;stroke-linejoin:miter;stroke-width:0.75;"/>
    </defs>
    <g clip-path="url(#pc58956016b)">
     <use style="fill:#8ab975;stroke:#5f9049;stroke-linejoin:miter;stroke-width:0.75;" x="35.996949" xlink:href="#m3c7c6026ea" y="115.688405"/>
     <use style="fill:#8ab975;stroke:#5f9049;stroke-linejoin:miter;stroke-width:0.75;" x="53.089322" xlink:href="#m3c7c6026ea" y="116.278428"/>
     <use style="fill:#8ab975;stroke:#5f9049;stroke-linejoin:miter;stroke-width:0.75;" x="70.181695" xlink:href="#m3c7c6026ea" y="117.095941"/>
     <use style="fill:#8ab975;stroke:#5f9049;stroke-linejoin:miter;stroke-width:0.75;" x="87.274068" xlink:href="#m3c7c6026ea" y="118.572037"/>
     <use style="fill:#8ab975;stroke:#5f9049;stroke-linejoin:miter;stroke-width:0.75;" x="104.366441" xlink:href="#m3c7c6026ea" y="120.598585"/>
     <use style="fill:#8ab975;stroke:#5f9049;stroke-linejoin:miter;stroke-width:0.75;" x="121.458814" xlink:href="#m3c7c6026ea" y="123.043492"/>
     <use style="fill:#8ab975;stroke:#5f9049;stroke-linejoin:miter;stroke-width:0.75;" x="138.551186" xlink:href="#m3c7c6026ea" y="125.969589"/>
     <use style="fill:#8ab975;stroke:#5f9049;stroke-linejoin:miter;stroke-width:0.75;" x="155.643559" xlink:href="#m3c7c6026ea" y="129.399891"/>
     <use style="fill:#8ab975;stroke:#5f9049;stroke-linejoin:miter;stroke-width:0.75;" x="172.735932" xlink:href="#m3c7c6026ea" y="132.828729"/>
     <use style="fill:#8ab975;stroke:#5f9049;stroke-linejoin:miter;stroke-width:0.75;" x="189.828305" xlink:href="#m3c7c6026ea" y="135.981631"/>
     <use style="fill:#8ab975;stroke:#5f9049;stroke-linejoin:miter;stroke-width:0.75;" x="206.920678" xlink:href="#m3c7c6026ea" y="138.383602"/>
     <use style="fill:#8ab975;stroke:#5f9049;stroke-linejoin:miter;stroke-width:0.75;" x="224.013051" xlink:href="#m3c7c6026ea" y="139.852087"/>
    </g>
   </g>
   <g id="line2d_48">
    <defs>
     <path d="M 0 -1.5 
L -1.426585 -0.463525 
L -0.881678 1.213525 
L 0.881678 1.213525 
L 1.426585 -0.463525 
z
" id="maa7ee89a62" style="stroke:#d7b501;stroke-linejoin:miter;stroke-width:0.75;"/>
    </defs>
    <g clip-path="url(#pc58956016b)">
     <use style="fill:#feda1e;stroke:#d7b501;stroke-linejoin:miter;stroke-width:0.75;" x="35.996949" xlink:href="#maa7ee89a62" y="93.42817"/>
     <use style="fill:#feda1e;stroke:#d7b501;stroke-linejoin:miter;stroke-width:0.75;" x="53.089322" xlink:href="#maa7ee89a62" y="94.601047"/>
     <use style="fill:#feda1e;stroke:#d7b501;stroke-linejoin:miter;stroke-width:0.75;" x="70.181695" xlink:href="#maa7ee89a62" y="96.805381"/>
     <use style="fill:#feda1e;stroke:#d7b501;stroke-linejoin:miter;stroke-width:0.75;" x="87.274068" xlink:href="#maa7ee89a62" y="99.521788"/>
     <use style="fill:#feda1e;stroke:#d7b501;stroke-linejoin:miter;stroke-width:0.75;" x="104.366441" xlink:href="#maa7ee89a62" y="103.530356"/>
     <use style="fill:#feda1e;stroke:#d7b501;stroke-linejoin:miter;stroke-width:0.75;" x="121.458814" xlink:href="#maa7ee89a62" y="108.003721"/>
     <use style="fill:#feda1e;stroke:#d7b501;stroke-linejoin:miter;stroke-width:0.75;" x="138.551186" xlink:href="#maa7ee89a62" y="113.222961"/>
     <use style="fill:#feda1e;stroke:#d7b501;stroke-linejoin:miter;stroke-width:0.75;" x="155.643559" xlink:href="#maa7ee89a62" y="118.586475"/>
     <use style="fill:#feda1e;stroke:#d7b501;stroke-linejoin:miter;stroke-width:0.75;" x="172.735932" xlink:href="#maa7ee89a62" y="124.265095"/>
     <use style="fill:#feda1e;stroke:#d7b501;stroke-linejoin:miter;stroke-width:0.75;" x="189.828305" xlink:href="#maa7ee89a62" y="129.036219"/>
     <use style="fill:#feda1e;stroke:#d7b501;stroke-linejoin:miter;stroke-width:0.75;" x="206.920678" xlink:href="#maa7ee89a62" y="132.506541"/>
     <use style="fill:#feda1e;stroke:#d7b501;stroke-linejoin:miter;stroke-width:0.75;" x="224.013051" xlink:href="#maa7ee89a62" y="135.018281"/>
    </g>
   </g>
   <g id="line2d_49">
    <defs>
     <path d="M -1.5 1.5 
L 1.5 1.5 
L 1.5 -1.5 
L -1.5 -1.5 
z
" id="mc49b6c53e5" style="stroke:#eca300;stroke-linejoin:miter;stroke-width:0.75;"/>
    </defs>
    <g clip-path="url(#pc58956016b)">
     <use style="fill:#ffca53;stroke:#eca300;stroke-linejoin:miter;stroke-width:0.75;" x="35.996949" xlink:href="#mc49b6c53e5" y="63.27182"/>
     <use style="fill:#ffca53;stroke:#eca300;stroke-linejoin:miter;stroke-width:0.75;" x="53.089322" xlink:href="#mc49b6c53e5" y="66.675164"/>
     <use style="fill:#ffca53;stroke:#eca300;stroke-linejoin:miter;stroke-width:0.75;" x="70.181695" xlink:href="#mc49b6c53e5" y="70.363058"/>
     <use style="fill:#ffca53;stroke:#eca300;stroke-linejoin:miter;stroke-width:0.75;" x="87.274068" xlink:href="#mc49b6c53e5" y="76.504584"/>
     <use style="fill:#ffca53;stroke:#eca300;stroke-linejoin:miter;stroke-width:0.75;" x="104.366441" xlink:href="#mc49b6c53e5" y="83.284699"/>
     <use style="fill:#ffca53;stroke:#eca300;stroke-linejoin:miter;stroke-width:0.75;" x="121.458814" xlink:href="#mc49b6c53e5" y="90.865615"/>
     <use style="fill:#ffca53;stroke:#eca300;stroke-linejoin:miter;stroke-width:0.75;" x="138.551186" xlink:href="#mc49b6c53e5" y="98.921854"/>
     <use style="fill:#ffca53;stroke:#eca300;stroke-linejoin:miter;stroke-width:0.75;" x="155.643559" xlink:href="#mc49b6c53e5" y="107.191454"/>
     <use style="fill:#ffca53;stroke:#eca300;stroke-linejoin:miter;stroke-width:0.75;" x="172.735932" xlink:href="#mc49b6c53e5" y="115.055886"/>
     <use style="fill:#ffca53;stroke:#eca300;stroke-linejoin:miter;stroke-width:0.75;" x="189.828305" xlink:href="#mc49b6c53e5" y="121.660288"/>
     <use style="fill:#ffca53;stroke:#eca300;stroke-linejoin:miter;stroke-width:0.75;" x="206.920678" xlink:href="#mc49b6c53e5" y="126.433211"/>
     <use style="fill:#ffca53;stroke:#eca300;stroke-linejoin:miter;stroke-width:0.75;" x="224.013051" xlink:href="#mc49b6c53e5" y="129.540653"/>
    </g>
   </g>
   <g id="line2d_50">
    <defs>
     <path d="M 0 -1.5 
L -1.5 1.5 
L 1.5 1.5 
z
" id="m33dd7debef" style="stroke:#db7502;stroke-linejoin:miter;stroke-width:0.75;"/>
    </defs>
    <g clip-path="url(#pc58956016b)">
     <use style="fill:#fdaf56;stroke:#db7502;stroke-linejoin:miter;stroke-width:0.75;" x="35.996949" xlink:href="#m33dd7debef" y="22.411718"/>
     <use style="fill:#fdaf56;stroke:#db7502;stroke-linejoin:miter;stroke-width:0.75;" x="53.089322" xlink:href="#m33dd7debef" y="29.313477"/>
     <use style="fill:#fdaf56;stroke:#db7502;stroke-linejoin:miter;stroke-width:0.75;" x="70.181695" xlink:href="#m33dd7debef" y="37.725156"/>
     <use style="fill:#fdaf56;stroke:#db7502;stroke-linejoin:miter;stroke-width:0.75;" x="87.274068" xlink:href="#m33dd7debef" y="47.923788"/>
     <use style="fill:#fdaf56;stroke:#db7502;stroke-linejoin:miter;stroke-width:0.75;" x="104.366441" xlink:href="#m33dd7debef" y="59.486401"/>
     <use style="fill:#fdaf56;stroke:#db7502;stroke-linejoin:miter;stroke-width:0.75;" x="121.458814" xlink:href="#m33dd7debef" y="71.297701"/>
     <use style="fill:#fdaf56;stroke:#db7502;stroke-linejoin:miter;stroke-width:0.75;" x="138.551186" xlink:href="#m33dd7debef" y="83.325095"/>
     <use style="fill:#fdaf56;stroke:#db7502;stroke-linejoin:miter;stroke-width:0.75;" x="155.643559" xlink:href="#m33dd7debef" y="94.905727"/>
     <use style="fill:#fdaf56;stroke:#db7502;stroke-linejoin:miter;stroke-width:0.75;" x="172.735932" xlink:href="#m33dd7debef" y="105.381881"/>
     <use style="fill:#fdaf56;stroke:#db7502;stroke-linejoin:miter;stroke-width:0.75;" x="189.828305" xlink:href="#m33dd7debef" y="113.581508"/>
     <use style="fill:#fdaf56;stroke:#db7502;stroke-linejoin:miter;stroke-width:0.75;" x="206.920678" xlink:href="#m33dd7debef" y="119.854198"/>
     <use style="fill:#fdaf56;stroke:#db7502;stroke-linejoin:miter;stroke-width:0.75;" x="224.013051" xlink:href="#m33dd7debef" y="123.931501"/>
    </g>
   </g>
   <g id="patch_3">
    <path d="M 29.16 153 
L 29.16 9 
" style="fill:none;stroke:#000000;stroke-linecap:square;stroke-linejoin:miter;stroke-width:0.8;"/>
   </g>
   <g id="patch_4">
    <path d="M 230.85 153 
L 230.85 9 
" style="fill:none;stroke:#000000;stroke-linecap:square;stroke-linejoin:miter;stroke-width:0.8;"/>
   </g>
   <g id="patch_5">
    <path d="M 29.16 153 
L 230.85 153 
" style="fill:none;stroke:#000000;stroke-linecap:square;stroke-linejoin:miter;stroke-width:0.8;"/>
   </g>
   <g id="patch_6">
    <path d="M 29.16 9 
L 230.85 9 
" style="fill:none;stroke:#000000;stroke-linecap:square;stroke-linejoin:miter;stroke-width:0.8;"/>
   </g>
   <g id="legend_1">
    <g id="line2d_51">
     <path d="M 166.062187 16.859062 
L 178.062187 16.859062 
" style="fill:none;stroke:#114b5f;stroke-dasharray:3.7,1.6;stroke-dashoffset:0;"/>
    </g>
    <g id="line2d_52"/>
    <g id="text_13">
     <!-- VE (3rd order) -->
     <defs>
      <path d="M 28.609375 0 
L 0.78125 72.90625 
L 11.078125 72.90625 
L 34.1875 11.53125 
L 57.328125 72.90625 
L 67.578125 72.90625 
L 39.796875 0 
z
" id="DejaVuSans-56"/>
      <path d="M 9.8125 72.90625 
L 55.90625 72.90625 
L 55.90625 64.59375 
L 19.671875 64.59375 
L 19.671875 43.015625 
L 54.390625 43.015625 
L 54.390625 34.71875 
L 19.671875 34.71875 
L 19.671875 8.296875 
L 56.78125 8.296875 
L 56.78125 0 
L 9.8125 0 
z
" id="DejaVuSans-45"/>
      <path id="DejaVuSans-20"/>
      <path d="M 31 75.875 
Q 24.46875 64.65625 21.28125 53.65625 
Q 18.109375 42.671875 18.109375 31.390625 
Q 18.109375 20.125 21.3125 9.0625 
Q 24.515625 -2 31 -13.1875 
L 23.1875 -13.1875 
Q 15.875 -1.703125 12.234375 9.375 
Q 8.59375 20.453125 8.59375 31.390625 
Q 8.59375 42.28125 12.203125 53.3125 
Q 15.828125 64.359375 23.1875 75.875 
z
" id="DejaVuSans-28"/>
      <path d="M 40.578125 39.3125 
Q 47.65625 37.796875 51.625 33 
Q 55.609375 28.21875 55.609375 21.1875 
Q 55.609375 10.40625 48.1875 4.484375 
Q 40.765625 -1.421875 27.09375 -1.421875 
Q 22.515625 -1.421875 17.65625 -0.515625 
Q 12.796875 0.390625 7.625 2.203125 
L 7.625 11.71875 
Q 11.71875 9.328125 16.59375 8.109375 
Q 21.484375 6.890625 26.8125 6.890625 
Q 36.078125 6.890625 40.9375 10.546875 
Q 45.796875 14.203125 45.796875 21.1875 
Q 45.796875 27.640625 41.28125 31.265625 
Q 36.765625 34.90625 28.71875 34.90625 
L 20.21875 34.90625 
L 20.21875 43.015625 
L 29.109375 43.015625 
Q 36.375 43.015625 40.234375 45.921875 
Q 44.09375 48.828125 44.09375 54.296875 
Q 44.09375 59.90625 40.109375 62.90625 
Q 36.140625 65.921875 28.71875 65.921875 
Q 24.65625 65.921875 20.015625 65.03125 
Q 15.375 64.15625 9.8125 62.3125 
L 9.8125 71.09375 
Q 15.4375 72.65625 20.34375 73.4375 
Q 25.25 74.21875 29.59375 74.21875 
Q 40.828125 74.21875 47.359375 69.109375 
Q 53.90625 64.015625 53.90625 55.328125 
Q 53.90625 49.265625 50.4375 45.09375 
Q 46.96875 40.921875 40.578125 39.3125 
z
" id="DejaVuSans-33"/>
      <path d="M 41.109375 46.296875 
Q 39.59375 47.171875 37.8125 47.578125 
Q 36.03125 48 33.890625 48 
Q 26.265625 48 22.1875 43.046875 
Q 18.109375 38.09375 18.109375 28.8125 
L 18.109375 0 
L 9.078125 0 
L 9.078125 54.6875 
L 18.109375 54.6875 
L 18.109375 46.1875 
Q 20.953125 51.171875 25.484375 53.578125 
Q 30.03125 56 36.53125 56 
Q 37.453125 56 38.578125 55.875 
Q 39.703125 55.765625 41.0625 55.515625 
z
" id="DejaVuSans-72"/>
      <path d="M 45.40625 46.390625 
L 45.40625 75.984375 
L 54.390625 75.984375 
L 54.390625 0 
L 45.40625 0 
L 45.40625 8.203125 
Q 42.578125 3.328125 38.25 0.953125 
Q 33.9375 -1.421875 27.875 -1.421875 
Q 17.96875 -1.421875 11.734375 6.484375 
Q 5.515625 14.40625 5.515625 27.296875 
Q 5.515625 40.1875 11.734375 48.09375 
Q 17.96875 56 27.875 56 
Q 33.9375 56 38.25 53.625 
Q 42.578125 51.265625 45.40625 46.390625 
z
M 14.796875 27.296875 
Q 14.796875 17.390625 18.875 11.75 
Q 22.953125 6.109375 30.078125 6.109375 
Q 37.203125 6.109375 41.296875 11.75 
Q 45.40625 17.390625 45.40625 27.296875 
Q 45.40625 37.203125 41.296875 42.84375 
Q 37.203125 48.484375 30.078125 48.484375 
Q 22.953125 48.484375 18.875 42.84375 
Q 14.796875 37.203125 14.796875 27.296875 
z
" id="DejaVuSans-64"/>
      <path d="M 30.609375 48.390625 
Q 23.390625 48.390625 19.1875 42.75 
Q 14.984375 37.109375 14.984375 27.296875 
Q 14.984375 17.484375 19.15625 11.84375 
Q 23.34375 6.203125 30.609375 6.203125 
Q 37.796875 6.203125 41.984375 11.859375 
Q 46.1875 17.53125 46.1875 27.296875 
Q 46.1875 37.015625 41.984375 42.703125 
Q 37.796875 48.390625 30.609375 48.390625 
z
M 30.609375 56 
Q 42.328125 56 49.015625 48.375 
Q 55.71875 40.765625 55.71875 27.296875 
Q 55.71875 13.875 49.015625 6.21875 
Q 42.328125 -1.421875 30.609375 -1.421875 
Q 18.84375 -1.421875 12.171875 6.21875 
Q 5.515625 13.875 5.515625 27.296875 
Q 5.515625 40.765625 12.171875 48.375 
Q 18.84375 56 30.609375 56 
z
" id="DejaVuSans-6f"/>
      <path d="M 56.203125 29.59375 
L 56.203125 25.203125 
L 14.890625 25.203125 
Q 15.484375 15.921875 20.484375 11.0625 
Q 25.484375 6.203125 34.421875 6.203125 
Q 39.59375 6.203125 44.453125 7.46875 
Q 49.3125 8.734375 54.109375 11.28125 
L 54.109375 2.78125 
Q 49.265625 0.734375 44.1875 -0.34375 
Q 39.109375 -1.421875 33.890625 -1.421875 
Q 20.796875 -1.421875 13.15625 6.1875 
Q 5.515625 13.8125 5.515625 26.8125 
Q 5.515625 40.234375 12.765625 48.109375 
Q 20.015625 56 32.328125 56 
Q 43.359375 56 49.78125 48.890625 
Q 56.203125 41.796875 56.203125 29.59375 
z
M 47.21875 32.234375 
Q 47.125 39.59375 43.09375 43.984375 
Q 39.0625 48.390625 32.421875 48.390625 
Q 24.90625 48.390625 20.390625 44.140625 
Q 15.875 39.890625 15.1875 32.171875 
z
" id="DejaVuSans-65"/>
      <path d="M 8.015625 75.875 
L 15.828125 75.875 
Q 23.140625 64.359375 26.78125 53.3125 
Q 30.421875 42.28125 30.421875 31.390625 
Q 30.421875 20.453125 26.78125 9.375 
Q 23.140625 -1.703125 15.828125 -13.1875 
L 8.015625 -13.1875 
Q 14.5 -2 17.703125 9.0625 
Q 20.90625 20.125 20.90625 31.390625 
Q 20.90625 42.671875 17.703125 53.65625 
Q 14.5 64.65625 8.015625 75.875 
z
" id="DejaVuSans-29"/>
     </defs>
     <g transform="translate(182.862188 18.959062)scale(0.06 -0.06)">
      <use xlink:href="#DejaVuSans-56"/>
      <use x="68.408203" xlink:href="#DejaVuSans-45"/>
      <use x="131.591797" xlink:href="#DejaVuSans-20"/>
      <use x="163.378906" xlink:href="#DejaVuSans-28"/>
      <use x="202.392578" xlink:href="#DejaVuSans-33"/>
      <use x="266.015625" xlink:href="#DejaVuSans-72"/>
      <use x="307.113281" xlink:href="#DejaVuSans-64"/>
      <use x="370.589844" xlink:href="#DejaVuSans-20"/>
      <use x="402.376953" xlink:href="#DejaVuSans-6f"/>
      <use x="463.558594" xlink:href="#DejaVuSans-72"/>
      <use x="504.65625" xlink:href="#DejaVuSans-64"/>
      <use x="568.132812" xlink:href="#DejaVuSans-65"/>
      <use x="629.65625" xlink:href="#DejaVuSans-72"/>
      <use x="670.769531" xlink:href="#DejaVuSans-29"/>
     </g>
    </g>
    <g id="LineCollection_6">
     <path d="M 172.062187 28.665938 
L 172.062187 22.665938 
" style="fill:none;stroke:#db7502;"/>
    </g>
    <g id="line2d_53"/>
    <g id="line2d_54">
     <g>
      <use style="fill:#fdaf56;stroke:#db7502;stroke-linejoin:miter;stroke-width:0.75;" x="172.062187" xlink:href="#m33dd7debef" y="25.665938"/>
     </g>
    </g>
    <g id="text_14">
     <!-- $\beta h = 2.0$ -->
     <defs>
      <path d="M 31.09375 67.90625 
L 24.203125 40.5 
Q 28.59375 44 32.25 45.140625 
Q 35.90625 46.296875 40.5 46.296875 
Q 45.40625 46.296875 48.203125 43.796875 
Q 51 41.296875 51 36.59375 
Q 51 34.5 50.40625 32.09375 
L 42.40625 0 
L 34.5 0 
L 42 30.40625 
Q 42.5 32.59375 42.5 33.796875 
Q 42.5 39.203125 36 39.203125 
Q 33.09375 39.203125 28.640625 36.703125 
Q 24.203125 34.203125 21.703125 30.203125 
L 14.203125 0 
L 6.296875 0 
L 22.703125 66 
L 30.296875 68.40625 
z
" id="STIXGeneral-Italic-1d629"/>
      <path d="M 63.703125 32 
L 4.796875 32 
L 4.796875 38.59375 
L 63.703125 38.59375 
z
M 63.703125 12 
L 4.796875 12 
L 4.796875 18.59375 
L 63.703125 18.59375 
z
" id="STIXGeneral-Regular-3d"/>
      <path d="M 18.09375 4.296875 
Q 18.09375 2.09375 16.4375 0.5 
Q 14.796875 -1.09375 12.5 -1.09375 
Q 10.203125 -1.09375 8.59375 0.5 
Q 7 2.09375 7 4.390625 
Q 7 6.703125 8.640625 8.34375 
Q 10.296875 10 12.59375 10 
Q 14.796875 10 16.4375 8.296875 
Q 18.09375 6.59375 18.09375 4.296875 
z
" id="STIXGeneral-Regular-2e"/>
     </defs>
     <g transform="translate(182.862188 27.765938)scale(0.06 -0.06)">
      <use transform="translate(0 0.59375)" xlink:href="#STIXNonUnicode-Italic-e1d9"/>
      <use transform="translate(53.499985 0.59375)" xlink:href="#STIXGeneral-Italic-1d629"/>
      <use transform="translate(117.31998 0.59375)" xlink:href="#STIXGeneral-Regular-3d"/>
      <use transform="translate(200.939963 0.59375)" xlink:href="#STIXGeneral-Regular-1d7e4"/>
      <use transform="translate(250.939948 0.59375)" xlink:href="#STIXGeneral-Regular-2e"/>
      <use transform="translate(275.939932 0.59375)" xlink:href="#STIXGeneral-Regular-1d7e2"/>
     </g>
    </g>
    <g id="LineCollection_7">
     <path d="M 172.062187 37.545 
L 172.062187 31.545 
" style="fill:none;stroke:#eca300;"/>
    </g>
    <g id="line2d_55"/>
    <g id="line2d_56">
     <g>
      <use style="fill:#ffca53;stroke:#eca300;stroke-linejoin:miter;stroke-width:0.75;" x="172.062187" xlink:href="#mc49b6c53e5" y="34.545"/>
     </g>
    </g>
    <g id="text_15">
     <!-- $\beta h = 1.6$ -->
     <defs>
      <path d="M 44.796875 66.796875 
L 43 61.5 
Q 31.59375 60.703125 23.640625 54.953125 
Q 15.703125 49.203125 12.203125 38.796875 
Q 18.09375 43.09375 25.90625 43.09375 
Q 34.5 43.09375 40.75 37.296875 
Q 47 31.5 47 22 
Q 47 12.296875 40.953125 5.4375 
Q 34.90625 -1.40625 25.703125 -1.40625 
Q 18 -1.40625 12.75 2.640625 
Q 7.5 6.703125 5.34375 12.75 
Q 3.203125 18.796875 3.203125 26.40625 
Q 3.203125 34.90625 6.203125 43.046875 
Q 9.203125 51.203125 14.296875 56.203125 
Q 21 62.796875 27.09375 65.046875 
Q 33.203125 67.296875 44.703125 68.40625 
z
M 39 20.703125 
Q 39 27.90625 34.890625 31.953125 
Q 30.796875 36 25.09375 36 
Q 19.90625 36 16 32.953125 
Q 12.09375 29.90625 11.203125 24 
Q 11.203125 15.90625 15.203125 10.796875 
Q 19.203125 5.703125 26 5.703125 
Q 31.5 5.703125 35.25 9.953125 
Q 39 14.203125 39 20.703125 
z
" id="STIXGeneral-Regular-1d7e8"/>
     </defs>
     <g transform="translate(182.862188 36.645)scale(0.06 -0.06)">
      <use transform="translate(0 0.59375)" xlink:href="#STIXNonUnicode-Italic-e1d9"/>
      <use transform="translate(53.499985 0.59375)" xlink:href="#STIXGeneral-Italic-1d629"/>
      <use transform="translate(117.31998 0.59375)" xlink:href="#STIXGeneral-Regular-3d"/>
      <use transform="translate(200.939963 0.59375)" xlink:href="#STIXGeneral-Regular-1d7e3"/>
      <use transform="translate(250.939948 0.59375)" xlink:href="#STIXGeneral-Regular-2e"/>
      <use transform="translate(275.939932 0.59375)" xlink:href="#STIXGeneral-Regular-1d7e8"/>
     </g>
    </g>
    <g id="LineCollection_8">
     <path d="M 172.062187 46.424062 
L 172.062187 40.424062 
" style="fill:none;stroke:#d7b501;"/>
    </g>
    <g id="line2d_57"/>
    <g id="line2d_58">
     <g>
      <use style="fill:#feda1e;stroke:#d7b501;stroke-linejoin:miter;stroke-width:0.75;" x="172.062187" xlink:href="#maa7ee89a62" y="43.424062"/>
     </g>
    </g>
    <g id="text_16">
     <!-- $\beta h = 1.2$ -->
     <g transform="translate(182.862188 45.524062)scale(0.06 -0.06)">
      <use transform="translate(0 0.59375)" xlink:href="#STIXNonUnicode-Italic-e1d9"/>
      <use transform="translate(53.499985 0.59375)" xlink:href="#STIXGeneral-Italic-1d629"/>
      <use transform="translate(117.31998 0.59375)" xlink:href="#STIXGeneral-Regular-3d"/>
      <use transform="translate(200.939963 0.59375)" xlink:href="#STIXGeneral-Regular-1d7e3"/>
      <use transform="translate(250.939948 0.59375)" xlink:href="#STIXGeneral-Regular-2e"/>
      <use transform="translate(275.939932 0.59375)" xlink:href="#STIXGeneral-Regular-1d7e4"/>
     </g>
    </g>
    <g id="LineCollection_9">
     <path d="M 172.062187 55.303125 
L 172.062187 49.303125 
" style="fill:none;stroke:#5f9049;"/>
    </g>
    <g id="line2d_59"/>
    <g id="line2d_60">
     <g>
      <use style="fill:#8ab975;stroke:#5f9049;stroke-linejoin:miter;stroke-width:0.75;" x="172.062187" xlink:href="#m3c7c6026ea" y="52.303125"/>
     </g>
    </g>
    <g id="text_17">
     <!-- $\beta h = 0.8$ -->
     <defs>
      <path d="M 44.703125 16.09375 
Q 44.703125 8.796875 39.390625 3.6875 
Q 34.09375 -1.40625 24.796875 -1.40625 
Q 16.296875 -1.40625 10.59375 3.4375 
Q 4.90625 8.296875 4.90625 15.40625 
Q 4.90625 20.796875 7.75 25.25 
Q 10.59375 29.703125 17.703125 34.5 
Q 6 41.40625 6 51.40625 
Q 6 58.59375 11.546875 63.09375 
Q 17.09375 67.59375 25.59375 67.59375 
Q 32.90625 67.59375 37.796875 62.84375 
Q 42.703125 58.09375 42.703125 52 
Q 42.703125 46.40625 40.09375 42.703125 
Q 37.5 39 31.09375 35.296875 
Q 44.703125 27 44.703125 16.09375 
z
M 35.5 51.5 
Q 35.5 55.5 32.390625 58 
Q 29.296875 60.5 24.40625 60.5 
Q 19.796875 60.5 16.84375 57.84375 
Q 13.90625 55.203125 13.90625 51.796875 
Q 13.90625 47.5 16.34375 44.84375 
Q 18.796875 42.203125 24.90625 39.40625 
Q 35.5 45.203125 35.5 51.5 
z
M 27.59375 28.59375 
L 24.09375 30.5 
Q 18.90625 28.703125 15.84375 24.640625 
Q 12.796875 20.59375 12.796875 16.296875 
Q 12.796875 11.796875 16 8.75 
Q 19.203125 5.703125 25.203125 5.703125 
Q 29.796875 5.703125 33.296875 8.453125 
Q 36.796875 11.203125 36.796875 15.796875 
Q 36.796875 20 34.6875 22.953125 
Q 32.59375 25.90625 27.59375 28.59375 
z
" id="STIXGeneral-Regular-1d7ea"/>
     </defs>
     <g transform="translate(182.862188 54.403125)scale(0.06 -0.06)">
      <use transform="translate(0 0.59375)" xlink:href="#STIXNonUnicode-Italic-e1d9"/>
      <use transform="translate(53.499985 0.59375)" xlink:href="#STIXGeneral-Italic-1d629"/>
      <use transform="translate(117.31998 0.59375)" xlink:href="#STIXGeneral-Regular-3d"/>
      <use transform="translate(200.939963 0.59375)" xlink:href="#STIXGeneral-Regular-1d7e2"/>
      <use transform="translate(250.939948 0.59375)" xlink:href="#STIXGeneral-Regular-2e"/>
      <use transform="translate(275.939932 0.59375)" xlink:href="#STIXGeneral-Regular-1d7ea"/>
     </g>
    </g>
    <g id="LineCollection_10">
     <path d="M 172.062187 64.182187 
L 172.062187 58.182187 
" style="fill:none;stroke:#114b5f;"/>
    </g>
    <g id="line2d_61"/>
    <g id="line2d_62">
     <g>
      <use style="fill:#2faeda;stroke:#114b5f;stroke-linejoin:miter;stroke-width:0.75;" x="172.062187" xlink:href="#m04548681d8" y="61.182187"/>
     </g>
    </g>
    <g id="text_18">
     <!-- $\beta h = 0.4$ -->
     <defs>
      <path d="M 48.90625 23.59375 
L 45.59375 16.5 
L 37.296875 16.5 
L 37.296875 0 
L 29.40625 0 
L 29.40625 16.5 
L 1.09375 16.5 
L 1.09375 23.296875 
L 32.296875 67.59375 
L 37.296875 67.59375 
L 37.296875 23.59375 
z
M 29.40625 23.59375 
L 29.40625 51 
L 10 23.59375 
z
" id="STIXGeneral-Regular-1d7e6"/>
     </defs>
     <g transform="translate(182.862188 63.282187)scale(0.06 -0.06)">
      <use transform="translate(0 0.59375)" xlink:href="#STIXNonUnicode-Italic-e1d9"/>
      <use transform="translate(53.499985 0.59375)" xlink:href="#STIXGeneral-Italic-1d629"/>
      <use transform="translate(117.31998 0.59375)" xlink:href="#STIXGeneral-Regular-3d"/>
      <use transform="translate(200.939963 0.59375)" xlink:href="#STIXGeneral-Regular-1d7e2"/>
      <use transform="translate(250.939948 0.59375)" xlink:href="#STIXGeneral-Regular-2e"/>
      <use transform="translate(275.939932 0.59375)" xlink:href="#STIXGeneral-Regular-1d7e6"/>
     </g>
    </g>
   </g>
  </g>
 </g>
 <defs>
  <clipPath id="pc58956016b">
   <rect height="144" width="201.69" x="29.16" y="9"/>
  </clipPath>
 </defs>
</svg>
