<?xml version="1.0" encoding="utf-8" standalone="no"?>
<!DOCTYPE svg PUBLIC "-//W3C//DTD SVG 1.1//EN"
  "http://www.w3.org/Graphics/SVG/1.1/DTD/svg11.dtd">
<!-- Created with matplotlib (http://matplotlib.org/) -->
<svg height="165.6pt" version="1.1" viewBox="0 0 226.8 165.6" width="226.8pt" xmlns="http://www.w3.org/2000/svg" xmlns:xlink="http://www.w3.org/1999/xlink">
 <defs>
  <style type="text/css">
*{stroke-linecap:butt;stroke-linejoin:round;}
  </style>
 </defs>
 <g id="figure_1">
  <g id="patch_1">
   <path d="M 0 165.6 
L 226.8 165.6 
L 226.8 0 
L 0 0 
z
" style="fill:#ffffff;"/>
  </g>
  <g id="axes_1">
   <g id="patch_2">
    <path d="M 31.752 140.76 
L 222.264 140.76 
L 222.264 3.312 
L 31.752 3.312 
z
" style="fill:#ffffff;"/>
   </g>
   <g id="patch_3">
    <path clip-path="url(#p385cfb0780)" d="M 31.752 -6731.64 
L 31.752 37.674 
L 146.0592 140.76 
L 3841.992 140.76 
L 3841.992 -6731.64 
z
" style="fill:#d9ecdd;stroke:#d9ecdd;stroke-linejoin:miter;"/>
   </g>
   <g id="patch_4">
    <path clip-path="url(#p385cfb0780)" d="M 31.752 140.76 
L 168.92064 140.76 
L 107.9568 92.6532 
L 31.752 37.674 
z
" style="fill:#90d8f8;stroke:#90d8f8;stroke-linejoin:miter;"/>
   </g>
   <g id="patch_5">
    <path clip-path="url(#p385cfb0780)" d="M 31.752 140.76 
L 107.9568 92.6532 
L 168.92064 140.76 
z
" style="fill:#fff9b6;stroke:#fff9b6;stroke-linejoin:miter;"/>
   </g>
   <g id="PolyCollection_1">
    <defs>
     <path d="M 111.110833 -24.84 
L 111.110833 -26.529043 
L 113.301286 -26.409422 
L 116.057523 -26.311395 
L 124.726074 -26.280998 
L 119.716622 -26.143646 
L 120.769467 -26.069569 
L 122.834629 -26.010672 
L 126.384268 -25.967617 
L 126.716158 -25.910122 
L 128.441942 -25.865919 
L 128.473117 -25.773066 
L 130.685354 -25.705105 
L 130.879947 -25.63913 
L 137.662868 -25.555616 
L 141.484317 -25.524003 
L 137.30131 -25.471381 
L 138.335085 -25.439177 
L 138.335085 -24.84 
L 138.335085 -24.84 
L 137.30131 -24.84 
L 141.484317 -24.84 
L 137.662868 -24.84 
L 130.879947 -24.84 
L 130.685354 -24.84 
L 128.473117 -24.84 
L 128.441942 -24.84 
L 126.716158 -24.84 
L 126.384268 -24.84 
L 122.834629 -24.84 
L 120.769467 -24.84 
L 119.716622 -24.84 
L 124.726074 -24.84 
L 116.057523 -24.84 
L 113.301286 -24.84 
L 111.110833 -24.84 
z
" id="m010f44af81" style="stroke:#cc5101;"/>
    </defs>
    <g clip-path="url(#p385cfb0780)">
     <use style="fill:#cc5101;stroke:#cc5101;" x="0" xlink:href="#m010f44af81" y="165.6"/>
    </g>
   </g>
   <g id="LineCollection_1">
    <path clip-path="url(#p385cfb0780)" d="M 75.604302 72.84015 
L 97.929735 72.84015 
" style="fill:none;stroke:#666666;stroke-opacity:0.7;"/>
    <path clip-path="url(#p385cfb0780)" d="M 100.939985 101.896309 
L 120.304133 101.896309 
" style="fill:none;stroke:#666666;stroke-opacity:0.7;"/>
    <path clip-path="url(#p385cfb0780)" d="M 99.117788 102.104706 
L 123.72174 102.104706 
" style="fill:none;stroke:#666666;stroke-opacity:0.7;"/>
    <path clip-path="url(#p385cfb0780)" d="M 115.651226 112.172851 
L 127.04176 112.172851 
" style="fill:none;stroke:#666666;stroke-opacity:0.7;"/>
    <path clip-path="url(#p385cfb0780)" d="M 124.306232 110.942455 
L 138.202759 110.942455 
" style="fill:none;stroke:#666666;stroke-opacity:0.7;"/>
    <path clip-path="url(#p385cfb0780)" d="M 133.664791 121.850387 
L 164.192 121.850387 
" style="fill:none;stroke:#666666;stroke-opacity:0.7;"/>
   </g>
   <g id="LineCollection_2">
    <path clip-path="url(#p385cfb0780)" d="M 86.767019 82.687503 
L 86.767019 62.992798 
" style="fill:none;stroke:#666666;stroke-opacity:0.7;"/>
    <path clip-path="url(#p385cfb0780)" d="M 110.622059 106.664656 
L 110.622059 97.127962 
" style="fill:none;stroke:#666666;stroke-opacity:0.7;"/>
    <path clip-path="url(#p385cfb0780)" d="M 111.419764 109.049836 
L 111.419764 95.159576 
" style="fill:none;stroke:#666666;stroke-opacity:0.7;"/>
    <path clip-path="url(#p385cfb0780)" d="M 121.346493 122.953111 
L 121.346493 101.392592 
" style="fill:none;stroke:#666666;stroke-opacity:0.7;"/>
    <path clip-path="url(#p385cfb0780)" d="M 131.254495 116.74721 
L 131.254495 105.1377 
" style="fill:none;stroke:#666666;stroke-opacity:0.7;"/>
    <path clip-path="url(#p385cfb0780)" d="M 148.928395 134.703774 
L 148.928395 108.997001 
" style="fill:none;stroke:#666666;stroke-opacity:0.7;"/>
   </g>
   <g id="line2d_1">
    <path clip-path="url(#p385cfb0780)" d="M 31.752 37.674 
L 107.9568 92.6532 
" style="fill:none;stroke:#000000;stroke-linecap:square;"/>
   </g>
   <g id="line2d_2">
    <path clip-path="url(#p385cfb0780)" d="M 107.9568 92.6532 
L 168.92064 140.76 
" style="fill:none;stroke:#808080;stroke-dasharray:3.7,1.6;stroke-dashoffset:0;"/>
   </g>
   <g id="line2d_3">
    <path clip-path="url(#p385cfb0780)" d="M 31.752 140.76 
L 107.9568 92.6532 
" style="fill:none;stroke:#808080;stroke-dasharray:1,1.65;stroke-dashoffset:0;"/>
   </g>
   <g id="line2d_4">
    <defs>
     <path d="M -1.5 1.5 
L 1.5 1.5 
L 1.5 -1.5 
L -1.5 -1.5 
z
" id="me56d1de778" style="stroke:#666666;stroke-linejoin:miter;stroke-opacity:0.7;stroke-width:0.75;"/>
    </defs>
    <g clip-path="url(#p385cfb0780)">
     <use style="fill:#808080;fill-opacity:0.7;stroke:#666666;stroke-linejoin:miter;stroke-opacity:0.7;stroke-width:0.75;" x="86.767019" xlink:href="#me56d1de778" y="72.84015"/>
     <use style="fill:#808080;fill-opacity:0.7;stroke:#666666;stroke-linejoin:miter;stroke-opacity:0.7;stroke-width:0.75;" x="110.622059" xlink:href="#me56d1de778" y="101.896309"/>
     <use style="fill:#808080;fill-opacity:0.7;stroke:#666666;stroke-linejoin:miter;stroke-opacity:0.7;stroke-width:0.75;" x="111.419764" xlink:href="#me56d1de778" y="102.104706"/>
     <use style="fill:#808080;fill-opacity:0.7;stroke:#666666;stroke-linejoin:miter;stroke-opacity:0.7;stroke-width:0.75;" x="121.346493" xlink:href="#me56d1de778" y="112.172851"/>
     <use style="fill:#808080;fill-opacity:0.7;stroke:#666666;stroke-linejoin:miter;stroke-opacity:0.7;stroke-width:0.75;" x="131.254495" xlink:href="#me56d1de778" y="110.942455"/>
     <use style="fill:#808080;fill-opacity:0.7;stroke:#666666;stroke-linejoin:miter;stroke-opacity:0.7;stroke-width:0.75;" x="148.928395" xlink:href="#me56d1de778" y="121.850387"/>
    </g>
   </g>
   <g id="matplotlib.axis_1">
    <g id="xtick_1">
     <g id="line2d_5">
      <defs>
       <path d="M 0 0 
L 0 -2.5 
" id="mad3fe10f87" style="stroke:#000000;stroke-width:0.8;"/>
      </defs>
      <g>
       <use style="stroke:#000000;stroke-width:0.8;" x="31.752" xlink:href="#mad3fe10f87" y="140.76"/>
      </g>
     </g>
     <g id="line2d_6">
      <defs>
       <path d="M 0 0 
L 0 2.5 
" id="m60e7e31adc" style="stroke:#000000;stroke-width:0.8;"/>
      </defs>
      <g>
       <use style="stroke:#000000;stroke-width:0.8;" x="31.752" xlink:href="#m60e7e31adc" y="3.312"/>
      </g>
     </g>
     <g id="text_1">
      <!-- $0$ -->
      <defs>
       <path d="M 47.703125 33 
Q 47.703125 23.796875 45.546875 16.34375 
Q 43.40625 8.90625 38.09375 3.75 
Q 32.796875 -1.40625 25 -1.40625 
Q 18.796875 -1.40625 14.25 1.6875 
Q 9.703125 4.796875 7.203125 10.046875 
Q 4.703125 15.296875 3.5 21.140625 
Q 2.296875 27 2.296875 33.59375 
Q 2.296875 42.90625 4.59375 50.34375 
Q 6.90625 57.796875 12.296875 62.6875 
Q 17.703125 67.59375 25.40625 67.59375 
Q 35.203125 67.59375 41.453125 57.9375 
Q 47.703125 48.296875 47.703125 33 
z
M 39.796875 33 
Q 39.796875 45.203125 35.75 52.84375 
Q 31.703125 60.5 25.203125 60.5 
Q 17.796875 60.5 14 52.75 
Q 10.203125 45 10.203125 33.40625 
Q 10.203125 28.203125 10.953125 23.546875 
Q 11.703125 18.90625 13.34375 14.75 
Q 15 10.59375 18 8.140625 
Q 21 5.703125 25 5.703125 
Q 30.09375 5.703125 33.546875 9.796875 
Q 37 13.90625 38.390625 19.84375 
Q 39.796875 25.796875 39.796875 33 
z
" id="STIXGeneral-Regular-1d7e2"/>
      </defs>
      <g transform="translate(29.752 150.33875)scale(0.08 -0.08)">
       <use transform="translate(0 0.40625)" xlink:href="#STIXGeneral-Regular-1d7e2"/>
      </g>
     </g>
    </g>
    <g id="xtick_2">
     <g id="line2d_7">
      <g>
       <use style="stroke:#000000;stroke-width:0.8;" x="69.8544" xlink:href="#mad3fe10f87" y="140.76"/>
      </g>
     </g>
     <g id="line2d_8">
      <g>
       <use style="stroke:#000000;stroke-width:0.8;" x="69.8544" xlink:href="#m60e7e31adc" y="3.312"/>
      </g>
     </g>
     <g id="text_2">
      <!-- $0.1$ -->
      <defs>
       <path d="M 18.09375 4.296875 
Q 18.09375 2.09375 16.4375 0.5 
Q 14.796875 -1.09375 12.5 -1.09375 
Q 10.203125 -1.09375 8.59375 0.5 
Q 7 2.09375 7 4.390625 
Q 7 6.703125 8.640625 8.34375 
Q 10.296875 10 12.59375 10 
Q 14.796875 10 16.4375 8.296875 
Q 18.09375 6.59375 18.09375 4.296875 
z
" id="STIXGeneral-Regular-2e"/>
       <path d="M 30.203125 0 
L 22.296875 0 
L 22.296875 57 
Q 20.09375 56 15.75 53.75 
Q 11.40625 51.5 10.796875 51.203125 
L 10.796875 58.5 
L 28.796875 67.703125 
L 30.203125 67.203125 
z
" id="STIXGeneral-Regular-1d7e3"/>
      </defs>
      <g transform="translate(64.8544 150.33875)scale(0.08 -0.08)">
       <use transform="translate(0 0.296875)" xlink:href="#STIXGeneral-Regular-1d7e2"/>
       <use transform="translate(49.999985 0.296875)" xlink:href="#STIXGeneral-Regular-2e"/>
       <use transform="translate(74.999969 0.296875)" xlink:href="#STIXGeneral-Regular-1d7e3"/>
      </g>
     </g>
    </g>
    <g id="xtick_3">
     <g id="line2d_9">
      <g>
       <use style="stroke:#000000;stroke-width:0.8;" x="107.9568" xlink:href="#mad3fe10f87" y="140.76"/>
      </g>
     </g>
     <g id="line2d_10">
      <g>
       <use style="stroke:#000000;stroke-width:0.8;" x="107.9568" xlink:href="#m60e7e31adc" y="3.312"/>
      </g>
     </g>
     <g id="text_3">
      <!-- $0.2$ -->
      <defs>
       <path d="M 46.90625 7.09375 
L 44 0 
L 3.5 0 
L 3.5 2.09375 
L 21 23.5 
L 21 23.40625 
L 26.59375 30.203125 
Q 30.5 34.90625 32.09375 36.953125 
Q 33.703125 39 35.203125 41.953125 
Q 36.703125 44.90625 36.703125 47.5 
Q 36.703125 53.703125 33.34375 57.09375 
Q 30 60.5 24.203125 60.5 
Q 19.59375 60.5 15.75 56.703125 
Q 11.90625 52.90625 10.90625 45.90625 
L 3.703125 47.59375 
Q 5.296875 56.5 11.1875 62.046875 
Q 17.09375 67.59375 24.90625 67.59375 
Q 33.59375 67.59375 39.09375 62.1875 
Q 44.59375 56.796875 44.59375 49.09375 
Q 44.59375 43.5 42.5 39.453125 
Q 40.40625 35.40625 33.703125 27 
L 17.703125 7.09375 
z
" id="STIXGeneral-Regular-1d7e4"/>
      </defs>
      <g transform="translate(102.9568 150.33875)scale(0.08 -0.08)">
       <use transform="translate(0 0.40625)" xlink:href="#STIXGeneral-Regular-1d7e2"/>
       <use transform="translate(49.999985 0.40625)" xlink:href="#STIXGeneral-Regular-2e"/>
       <use transform="translate(74.999969 0.40625)" xlink:href="#STIXGeneral-Regular-1d7e4"/>
      </g>
     </g>
    </g>
    <g id="xtick_4">
     <g id="line2d_11">
      <g>
       <use style="stroke:#000000;stroke-width:0.8;" x="146.0592" xlink:href="#mad3fe10f87" y="140.76"/>
      </g>
     </g>
     <g id="line2d_12">
      <g>
       <use style="stroke:#000000;stroke-width:0.8;" x="146.0592" xlink:href="#m60e7e31adc" y="3.312"/>
      </g>
     </g>
     <g id="text_4">
      <!-- $0.3$ -->
      <defs>
       <path d="M 11.296875 49.203125 
L 4.203125 50.90625 
Q 6.40625 58.703125 11.5 63.140625 
Q 16.59375 67.59375 24.296875 67.59375 
Q 31.40625 67.59375 36.203125 63.09375 
Q 41 58.59375 41 51.90625 
Q 41 43 32.40625 37 
Q 38 35 41.046875 30.34375 
Q 44.09375 25.703125 44.09375 21 
Q 44.09375 11.296875 37.796875 5 
Q 31.40625 -1.40625 20.5 -1.40625 
Q 9.5 -1.40625 3.09375 5.59375 
L 7.796875 11.203125 
Q 12.90625 5.703125 20 5.703125 
Q 27.40625 5.703125 31.59375 9.296875 
Q 36.203125 13.203125 36.203125 19.09375 
Q 36.203125 24.296875 32.453125 27.796875 
Q 28.703125 31.296875 22.203125 32.203125 
L 15.796875 32.203125 
L 15.796875 34.296875 
L 20.59375 39.40625 
Q 25.09375 39.40625 29.09375 42.84375 
Q 33.09375 46.296875 33.09375 51.203125 
Q 33.09375 55.40625 30.4375 57.953125 
Q 27.796875 60.5 24 60.5 
Q 20 60.5 16.546875 57.640625 
Q 13.09375 54.796875 11.296875 49.203125 
z
" id="STIXGeneral-Regular-1d7e5"/>
      </defs>
      <g transform="translate(141.0592 150.33875)scale(0.08 -0.08)">
       <use transform="translate(0 0.40625)" xlink:href="#STIXGeneral-Regular-1d7e2"/>
       <use transform="translate(49.999985 0.40625)" xlink:href="#STIXGeneral-Regular-2e"/>
       <use transform="translate(74.999969 0.40625)" xlink:href="#STIXGeneral-Regular-1d7e5"/>
      </g>
     </g>
    </g>
    <g id="xtick_5">
     <g id="line2d_13">
      <g>
       <use style="stroke:#000000;stroke-width:0.8;" x="184.1616" xlink:href="#mad3fe10f87" y="140.76"/>
      </g>
     </g>
     <g id="line2d_14">
      <g>
       <use style="stroke:#000000;stroke-width:0.8;" x="184.1616" xlink:href="#m60e7e31adc" y="3.312"/>
      </g>
     </g>
     <g id="text_5">
      <!-- $0.4$ -->
      <defs>
       <path d="M 48.90625 23.59375 
L 45.59375 16.5 
L 37.296875 16.5 
L 37.296875 0 
L 29.40625 0 
L 29.40625 16.5 
L 1.09375 16.5 
L 1.09375 23.296875 
L 32.296875 67.59375 
L 37.296875 67.59375 
L 37.296875 23.59375 
z
M 29.40625 23.59375 
L 29.40625 51 
L 10 23.59375 
z
" id="STIXGeneral-Regular-1d7e6"/>
      </defs>
      <g transform="translate(179.1616 150.33875)scale(0.08 -0.08)">
       <use transform="translate(0 0.40625)" xlink:href="#STIXGeneral-Regular-1d7e2"/>
       <use transform="translate(49.999985 0.40625)" xlink:href="#STIXGeneral-Regular-2e"/>
       <use transform="translate(74.999969 0.40625)" xlink:href="#STIXGeneral-Regular-1d7e6"/>
      </g>
     </g>
    </g>
    <g id="xtick_6">
     <g id="line2d_15">
      <g>
       <use style="stroke:#000000;stroke-width:0.8;" x="222.264" xlink:href="#mad3fe10f87" y="140.76"/>
      </g>
     </g>
     <g id="line2d_16">
      <g>
       <use style="stroke:#000000;stroke-width:0.8;" x="222.264" xlink:href="#m60e7e31adc" y="3.312"/>
      </g>
     </g>
     <g id="text_6">
      <!-- $0.5$ -->
      <defs>
       <path d="M 45.796875 67.59375 
L 42.59375 60.5 
L 24.90625 60.5 
L 18.5 47.796875 
Q 29.90625 46.203125 37.25 39.75 
Q 44.59375 33.296875 44.59375 22.59375 
Q 44.59375 12.703125 37.84375 5.640625 
Q 31.09375 -1.40625 21 -1.40625 
Q 10 -1.40625 3.59375 5.59375 
L 8.296875 11.203125 
Q 13.40625 5.703125 20.5 5.703125 
Q 27.90625 5.703125 32.296875 10.75 
Q 36.703125 15.796875 36.703125 22.59375 
Q 36.703125 30 30.09375 35.203125 
Q 23.40625 40.703125 9.40625 40.703125 
L 8 42.40625 
L 19.59375 67.59375 
z
" id="STIXGeneral-Regular-1d7e7"/>
      </defs>
      <g transform="translate(217.264 150.33875)scale(0.08 -0.08)">
       <use transform="translate(0 0.40625)" xlink:href="#STIXGeneral-Regular-1d7e2"/>
       <use transform="translate(49.999985 0.40625)" xlink:href="#STIXGeneral-Regular-2e"/>
       <use transform="translate(74.999969 0.40625)" xlink:href="#STIXGeneral-Regular-1d7e7"/>
      </g>
     </g>
    </g>
    <g id="xtick_7">
     <g id="line2d_17">
      <defs>
       <path d="M 0 0 
L 0 -1.5 
" id="me7164083cd" style="stroke:#000000;stroke-width:0.6;"/>
      </defs>
      <g>
       <use style="stroke:#000000;stroke-width:0.6;" x="50.8032" xlink:href="#me7164083cd" y="140.76"/>
      </g>
     </g>
     <g id="line2d_18">
      <defs>
       <path d="M 0 0 
L 0 1.5 
" id="m0e55720f25" style="stroke:#000000;stroke-width:0.6;"/>
      </defs>
      <g>
       <use style="stroke:#000000;stroke-width:0.6;" x="50.8032" xlink:href="#m0e55720f25" y="3.312"/>
      </g>
     </g>
    </g>
    <g id="xtick_8">
     <g id="line2d_19">
      <g>
       <use style="stroke:#000000;stroke-width:0.6;" x="88.9056" xlink:href="#me7164083cd" y="140.76"/>
      </g>
     </g>
     <g id="line2d_20">
      <g>
       <use style="stroke:#000000;stroke-width:0.6;" x="88.9056" xlink:href="#m0e55720f25" y="3.312"/>
      </g>
     </g>
    </g>
    <g id="xtick_9">
     <g id="line2d_21">
      <g>
       <use style="stroke:#000000;stroke-width:0.6;" x="127.008" xlink:href="#me7164083cd" y="140.76"/>
      </g>
     </g>
     <g id="line2d_22">
      <g>
       <use style="stroke:#000000;stroke-width:0.6;" x="127.008" xlink:href="#m0e55720f25" y="3.312"/>
      </g>
     </g>
    </g>
    <g id="xtick_10">
     <g id="line2d_23">
      <g>
       <use style="stroke:#000000;stroke-width:0.6;" x="165.1104" xlink:href="#me7164083cd" y="140.76"/>
      </g>
     </g>
     <g id="line2d_24">
      <g>
       <use style="stroke:#000000;stroke-width:0.6;" x="165.1104" xlink:href="#m0e55720f25" y="3.312"/>
      </g>
     </g>
    </g>
    <g id="xtick_11">
     <g id="line2d_25">
      <g>
       <use style="stroke:#000000;stroke-width:0.6;" x="203.2128" xlink:href="#me7164083cd" y="140.76"/>
      </g>
     </g>
     <g id="line2d_26">
      <g>
       <use style="stroke:#000000;stroke-width:0.6;" x="203.2128" xlink:href="#m0e55720f25" y="3.312"/>
      </g>
     </g>
    </g>
    <g id="text_7">
     <!-- $p$ -->
     <defs>
      <path d="M 25.59375 45.90625 
L 24.5 40.90625 
Q 31.40625 46.296875 39.59375 46.296875 
Q 46.09375 46.296875 49.9375 42.140625 
Q 53.796875 38 53.796875 30.703125 
Q 53.796875 18.40625 44.546875 8.703125 
Q 35.296875 -1 25 -1 
Q 19.40625 -1 15.203125 2.59375 
L 9.796875 -19.203125 
L 2.203125 -21.59375 
L 1.40625 -21.09375 
L 17.59375 44 
L 24.90625 46.40625 
z
M 21.90625 29.5 
L 17.59375 12.296875 
Q 19.90625 6.09375 26.40625 6.09375 
Q 34 6.09375 39.75 12.84375 
Q 45.5 19.59375 45.5 28.40625 
Q 45.5 33.203125 43 36.203125 
Q 40.5 39.203125 35.796875 39.203125 
Q 32.296875 39.203125 28.5 36.546875 
Q 24.703125 33.90625 21.90625 29.5 
z
" id="STIXGeneral-Italic-1d631"/>
     </defs>
     <g transform="translate(125.008 161.985)scale(0.08 -0.08)">
      <use transform="translate(0 0.59375)" xlink:href="#STIXGeneral-Italic-1d631"/>
     </g>
    </g>
   </g>
   <g id="matplotlib.axis_2">
    <g id="ytick_1">
     <g id="line2d_27">
      <defs>
       <path d="M 0 0 
L 2.5 0 
" id="m61a50470d2" style="stroke:#000000;stroke-width:0.8;"/>
      </defs>
      <g>
       <use style="stroke:#000000;stroke-width:0.8;" x="31.752" xlink:href="#m61a50470d2" y="140.76"/>
      </g>
     </g>
     <g id="line2d_28">
      <defs>
       <path d="M 0 0 
L -2.5 0 
" id="m54a49630b7" style="stroke:#000000;stroke-width:0.8;"/>
      </defs>
      <g>
       <use style="stroke:#000000;stroke-width:0.8;" x="222.264" xlink:href="#m54a49630b7" y="140.76"/>
      </g>
     </g>
     <g id="text_8">
      <!-- $0$ -->
      <g transform="translate(24.252 143.799375)scale(0.08 -0.08)">
       <use transform="translate(0 0.40625)" xlink:href="#STIXGeneral-Regular-1d7e2"/>
      </g>
     </g>
    </g>
    <g id="ytick_2">
     <g id="line2d_29">
      <g>
       <use style="stroke:#000000;stroke-width:0.8;" x="31.752" xlink:href="#m61a50470d2" y="106.398"/>
      </g>
     </g>
     <g id="line2d_30">
      <g>
       <use style="stroke:#000000;stroke-width:0.8;" x="222.264" xlink:href="#m54a49630b7" y="106.398"/>
      </g>
     </g>
     <g id="text_9">
      <!-- $0.05$ -->
      <g transform="translate(14.252 109.437375)scale(0.08 -0.08)">
       <use transform="translate(0 0.40625)" xlink:href="#STIXGeneral-Regular-1d7e2"/>
       <use transform="translate(49.999985 0.40625)" xlink:href="#STIXGeneral-Regular-2e"/>
       <use transform="translate(74.999969 0.40625)" xlink:href="#STIXGeneral-Regular-1d7e2"/>
       <use transform="translate(124.999954 0.40625)" xlink:href="#STIXGeneral-Regular-1d7e7"/>
      </g>
     </g>
    </g>
    <g id="ytick_3">
     <g id="line2d_31">
      <g>
       <use style="stroke:#000000;stroke-width:0.8;" x="31.752" xlink:href="#m61a50470d2" y="72.036"/>
      </g>
     </g>
     <g id="line2d_32">
      <g>
       <use style="stroke:#000000;stroke-width:0.8;" x="222.264" xlink:href="#m54a49630b7" y="72.036"/>
      </g>
     </g>
     <g id="text_10">
      <!-- $0.1$ -->
      <g transform="translate(18.252 75.075375)scale(0.08 -0.08)">
       <use transform="translate(0 0.296875)" xlink:href="#STIXGeneral-Regular-1d7e2"/>
       <use transform="translate(49.999985 0.296875)" xlink:href="#STIXGeneral-Regular-2e"/>
       <use transform="translate(74.999969 0.296875)" xlink:href="#STIXGeneral-Regular-1d7e3"/>
      </g>
     </g>
    </g>
    <g id="ytick_4">
     <g id="line2d_33">
      <g>
       <use style="stroke:#000000;stroke-width:0.8;" x="31.752" xlink:href="#m61a50470d2" y="37.674"/>
      </g>
     </g>
     <g id="line2d_34">
      <g>
       <use style="stroke:#000000;stroke-width:0.8;" x="222.264" xlink:href="#m54a49630b7" y="37.674"/>
      </g>
     </g>
     <g id="text_11">
      <!-- $0.15$ -->
      <g transform="translate(14.252 40.713375)scale(0.08 -0.08)">
       <use transform="translate(0 0.296875)" xlink:href="#STIXGeneral-Regular-1d7e2"/>
       <use transform="translate(49.999985 0.296875)" xlink:href="#STIXGeneral-Regular-2e"/>
       <use transform="translate(74.999969 0.296875)" xlink:href="#STIXGeneral-Regular-1d7e3"/>
       <use transform="translate(124.999954 0.296875)" xlink:href="#STIXGeneral-Regular-1d7e7"/>
      </g>
     </g>
    </g>
    <g id="ytick_5">
     <g id="line2d_35">
      <g>
       <use style="stroke:#000000;stroke-width:0.8;" x="31.752" xlink:href="#m61a50470d2" y="3.312"/>
      </g>
     </g>
     <g id="line2d_36">
      <g>
       <use style="stroke:#000000;stroke-width:0.8;" x="222.264" xlink:href="#m54a49630b7" y="3.312"/>
      </g>
     </g>
     <g id="text_12">
      <!-- $0.2$ -->
      <g transform="translate(18.252 6.351375)scale(0.08 -0.08)">
       <use transform="translate(0 0.40625)" xlink:href="#STIXGeneral-Regular-1d7e2"/>
       <use transform="translate(49.999985 0.40625)" xlink:href="#STIXGeneral-Regular-2e"/>
       <use transform="translate(74.999969 0.40625)" xlink:href="#STIXGeneral-Regular-1d7e4"/>
      </g>
     </g>
    </g>
    <g id="ytick_6">
     <g id="line2d_37">
      <defs>
       <path d="M 0 0 
L 1.5 0 
" id="mf147c1e050" style="stroke:#000000;stroke-width:0.6;"/>
      </defs>
      <g>
       <use style="stroke:#000000;stroke-width:0.6;" x="31.752" xlink:href="#mf147c1e050" y="123.579"/>
      </g>
     </g>
     <g id="line2d_38">
      <defs>
       <path d="M 0 0 
L -1.5 0 
" id="m012d12c4a9" style="stroke:#000000;stroke-width:0.6;"/>
      </defs>
      <g>
       <use style="stroke:#000000;stroke-width:0.6;" x="222.264" xlink:href="#m012d12c4a9" y="123.579"/>
      </g>
     </g>
    </g>
    <g id="ytick_7">
     <g id="line2d_39">
      <g>
       <use style="stroke:#000000;stroke-width:0.6;" x="31.752" xlink:href="#mf147c1e050" y="89.217"/>
      </g>
     </g>
     <g id="line2d_40">
      <g>
       <use style="stroke:#000000;stroke-width:0.6;" x="222.264" xlink:href="#m012d12c4a9" y="89.217"/>
      </g>
     </g>
    </g>
    <g id="ytick_8">
     <g id="line2d_41">
      <g>
       <use style="stroke:#000000;stroke-width:0.6;" x="31.752" xlink:href="#mf147c1e050" y="54.855"/>
      </g>
     </g>
     <g id="line2d_42">
      <g>
       <use style="stroke:#000000;stroke-width:0.6;" x="222.264" xlink:href="#m012d12c4a9" y="54.855"/>
      </g>
     </g>
    </g>
    <g id="ytick_9">
     <g id="line2d_43">
      <g>
       <use style="stroke:#000000;stroke-width:0.6;" x="31.752" xlink:href="#mf147c1e050" y="20.493"/>
      </g>
     </g>
     <g id="line2d_44">
      <g>
       <use style="stroke:#000000;stroke-width:0.6;" x="222.264" xlink:href="#m012d12c4a9" y="20.493"/>
      </g>
     </g>
    </g>
    <g id="text_13">
     <!-- $T/T_F^\uparrow$ -->
     <defs>
      <path d="M 74.796875 66.203125 
L 73.90625 58.796875 
L 49.40625 58.796875 
L 34.703125 0 
L 26 0 
L 40.59375 58.796875 
L 16.09375 58.796875 
L 19 66.203125 
z
" id="STIXGeneral-Italic-1d61b"/>
      <path d="M 28.703125 67.59375 
L 5.90625 -1.40625 
L -0.90625 -1.40625 
L 22 67.59375 
z
" id="STIXGeneral-Regular-2f"/>
      <path d="M 45.09375 42.40625 
L 43.203125 40.40625 
Q 39.203125 43.203125 33.59375 48.59375 
Q 32.203125 50 30.796875 50 
Q 28.796875 50 28.796875 47.40625 
L 28.796875 -15.59375 
L 22.203125 -15.59375 
L 22.203125 47.5 
Q 22.203125 48.296875 21.453125 49.1875 
Q 20.703125 50.09375 20 50.09375 
Q 18.90625 50.09375 17.5 48.703125 
Q 12.59375 43.59375 7.90625 40.5 
L 6 42.5 
Q 20.296875 54.90625 25 66.203125 
L 26 66.203125 
Q 30.90625 54.703125 45.09375 42.40625 
z
" id="STIXGeneral-Regular-2191"/>
      <path d="M 67.90625 66.203125 
L 66.90625 58.796875 
L 30.703125 58.796875 
L 25.703125 38.59375 
L 55.296875 38.59375 
L 53.40625 31.09375 
L 23.796875 31.09375 
L 16.09375 0 
L 7.40625 0 
L 23.90625 66.203125 
z
" id="STIXGeneral-Italic-1d60d"/>
     </defs>
     <g transform="translate(8.412 81.076)rotate(-90)scale(0.08 -0.08)">
      <use transform="translate(0 0.548438)" xlink:href="#STIXGeneral-Italic-1d61b"/>
      <use transform="translate(60.799988 0.548438)" xlink:href="#STIXGeneral-Regular-2f"/>
      <use transform="translate(88.599976 0.548438)" xlink:href="#STIXGeneral-Italic-1d61b"/>
      <use transform="translate(176.69154 47.657813)scale(0.7)" xlink:href="#STIXGeneral-Regular-2191"/>
      <use transform="translate(149.399963 -22.1)scale(0.7)" xlink:href="#STIXGeneral-Italic-1d60d"/>
     </g>
    </g>
   </g>
   <g id="line2d_45">
    <defs>
     <path d="M 0 2 
C 0.530406 2 1.03916 1.789267 1.414214 1.414214 
C 1.789267 1.03916 2 0.530406 2 0 
C 2 -0.530406 1.789267 -1.03916 1.414214 -1.414214 
C 1.03916 -1.789267 0.530406 -2 0 -2 
C -0.530406 -2 -1.03916 -1.789267 -1.414214 -1.414214 
C -1.789267 -1.03916 -2 -0.530406 -2 0 
C -2 0.530406 -1.789267 1.03916 -1.414214 1.414214 
C -1.03916 1.789267 -0.530406 2 0 2 
z
" id="m05697588fe" style="stroke:#000000;stroke-width:0.75;"/>
    </defs>
    <g clip-path="url(#p385cfb0780)">
     <use style="fill:#666666;stroke:#000000;stroke-width:0.75;" x="107.9568" xlink:href="#m05697588fe" y="92.6532"/>
    </g>
   </g>
   <g id="patch_6">
    <path d="M 31.752 140.76 
L 31.752 3.312 
" style="fill:none;stroke:#000000;stroke-linecap:square;stroke-linejoin:miter;stroke-width:0.8;"/>
   </g>
   <g id="patch_7">
    <path d="M 222.264 140.76 
L 222.264 3.312 
" style="fill:none;stroke:#000000;stroke-linecap:square;stroke-linejoin:miter;stroke-width:0.8;"/>
   </g>
   <g id="patch_8">
    <path d="M 31.752 140.76 
L 222.264 140.76 
" style="fill:none;stroke:#000000;stroke-linecap:square;stroke-linejoin:miter;stroke-width:0.8;"/>
   </g>
   <g id="patch_9">
    <path d="M 31.752 3.312 
L 222.264 3.312 
" style="fill:none;stroke:#000000;stroke-linecap:square;stroke-linejoin:miter;stroke-width:0.8;"/>
   </g>
   <g id="patch_10">
    <path d="M 181.480959 112.305432 
Q 160.825466 124.31147 141.136581 135.755664 
" style="fill:none;stroke:#cc5101;stroke-linecap:round;"/>
    <path d="M 143.814561 135.587072 
L 141.136581 135.755664 
L 142.608495 133.512125 
L 143.814561 135.587072 
z
" style="fill:#cc5101;stroke:#cc5101;stroke-linecap:round;"/>
   </g>
   <g id="text_14">
    <!-- FFLO -->
    <defs>
     <path d="M 9.8125 72.90625 
L 51.703125 72.90625 
L 51.703125 64.59375 
L 19.671875 64.59375 
L 19.671875 43.109375 
L 48.578125 43.109375 
L 48.578125 34.8125 
L 19.671875 34.8125 
L 19.671875 0 
L 9.8125 0 
z
" id="DejaVuSans-46"/>
     <path d="M 9.8125 72.90625 
L 19.671875 72.90625 
L 19.671875 8.296875 
L 55.171875 8.296875 
L 55.171875 0 
L 9.8125 0 
z
" id="DejaVuSans-4c"/>
     <path d="M 39.40625 66.21875 
Q 28.65625 66.21875 22.328125 58.203125 
Q 16.015625 50.203125 16.015625 36.375 
Q 16.015625 22.609375 22.328125 14.59375 
Q 28.65625 6.59375 39.40625 6.59375 
Q 50.140625 6.59375 56.421875 14.59375 
Q 62.703125 22.609375 62.703125 36.375 
Q 62.703125 50.203125 56.421875 58.203125 
Q 50.140625 66.21875 39.40625 66.21875 
z
M 39.40625 74.21875 
Q 54.734375 74.21875 63.90625 63.9375 
Q 73.09375 53.65625 73.09375 36.375 
Q 73.09375 19.140625 63.90625 8.859375 
Q 54.734375 -1.421875 39.40625 -1.421875 
Q 24.03125 -1.421875 14.8125 8.828125 
Q 5.609375 19.09375 5.609375 36.375 
Q 5.609375 53.65625 14.8125 63.9375 
Q 24.03125 74.21875 39.40625 74.21875 
z
" id="DejaVuSans-4f"/>
    </defs>
    <g style="fill:#cc5101;" transform="translate(184.1616 108.053625)scale(0.06 -0.06)">
     <use xlink:href="#DejaVuSans-46"/>
     <use x="57.519531" xlink:href="#DejaVuSans-46"/>
     <use x="115.039062" xlink:href="#DejaVuSans-4c"/>
     <use x="170.705078" xlink:href="#DejaVuSans-4f"/>
    </g>
   </g>
   <g id="text_15">
    <!-- normal -->
    <defs>
     <path d="M 54.890625 33.015625 
L 54.890625 0 
L 45.90625 0 
L 45.90625 32.71875 
Q 45.90625 40.484375 42.875 44.328125 
Q 39.84375 48.1875 33.796875 48.1875 
Q 26.515625 48.1875 22.3125 43.546875 
Q 18.109375 38.921875 18.109375 30.90625 
L 18.109375 0 
L 9.078125 0 
L 9.078125 54.6875 
L 18.109375 54.6875 
L 18.109375 46.1875 
Q 21.34375 51.125 25.703125 53.5625 
Q 30.078125 56 35.796875 56 
Q 45.21875 56 50.046875 50.171875 
Q 54.890625 44.34375 54.890625 33.015625 
z
" id="DejaVuSans-6e"/>
     <path d="M 30.609375 48.390625 
Q 23.390625 48.390625 19.1875 42.75 
Q 14.984375 37.109375 14.984375 27.296875 
Q 14.984375 17.484375 19.15625 11.84375 
Q 23.34375 6.203125 30.609375 6.203125 
Q 37.796875 6.203125 41.984375 11.859375 
Q 46.1875 17.53125 46.1875 27.296875 
Q 46.1875 37.015625 41.984375 42.703125 
Q 37.796875 48.390625 30.609375 48.390625 
z
M 30.609375 56 
Q 42.328125 56 49.015625 48.375 
Q 55.71875 40.765625 55.71875 27.296875 
Q 55.71875 13.875 49.015625 6.21875 
Q 42.328125 -1.421875 30.609375 -1.421875 
Q 18.84375 -1.421875 12.171875 6.21875 
Q 5.515625 13.875 5.515625 27.296875 
Q 5.515625 40.765625 12.171875 48.375 
Q 18.84375 56 30.609375 56 
z
" id="DejaVuSans-6f"/>
     <path d="M 41.109375 46.296875 
Q 39.59375 47.171875 37.8125 47.578125 
Q 36.03125 48 33.890625 48 
Q 26.265625 48 22.1875 43.046875 
Q 18.109375 38.09375 18.109375 28.8125 
L 18.109375 0 
L 9.078125 0 
L 9.078125 54.6875 
L 18.109375 54.6875 
L 18.109375 46.1875 
Q 20.953125 51.171875 25.484375 53.578125 
Q 30.03125 56 36.53125 56 
Q 37.453125 56 38.578125 55.875 
Q 39.703125 55.765625 41.0625 55.515625 
z
" id="DejaVuSans-72"/>
     <path d="M 52 44.1875 
Q 55.375 50.25 60.0625 53.125 
Q 64.75 56 71.09375 56 
Q 79.640625 56 84.28125 50.015625 
Q 88.921875 44.046875 88.921875 33.015625 
L 88.921875 0 
L 79.890625 0 
L 79.890625 32.71875 
Q 79.890625 40.578125 77.09375 44.375 
Q 74.3125 48.1875 68.609375 48.1875 
Q 61.625 48.1875 57.5625 43.546875 
Q 53.515625 38.921875 53.515625 30.90625 
L 53.515625 0 
L 44.484375 0 
L 44.484375 32.71875 
Q 44.484375 40.625 41.703125 44.40625 
Q 38.921875 48.1875 33.109375 48.1875 
Q 26.21875 48.1875 22.15625 43.53125 
Q 18.109375 38.875 18.109375 30.90625 
L 18.109375 0 
L 9.078125 0 
L 9.078125 54.6875 
L 18.109375 54.6875 
L 18.109375 46.1875 
Q 21.1875 51.21875 25.484375 53.609375 
Q 29.78125 56 35.6875 56 
Q 41.65625 56 45.828125 52.96875 
Q 50 49.953125 52 44.1875 
z
" id="DejaVuSans-6d"/>
     <path d="M 34.28125 27.484375 
Q 23.390625 27.484375 19.1875 25 
Q 14.984375 22.515625 14.984375 16.5 
Q 14.984375 11.71875 18.140625 8.90625 
Q 21.296875 6.109375 26.703125 6.109375 
Q 34.1875 6.109375 38.703125 11.40625 
Q 43.21875 16.703125 43.21875 25.484375 
L 43.21875 27.484375 
z
M 52.203125 31.203125 
L 52.203125 0 
L 43.21875 0 
L 43.21875 8.296875 
Q 40.140625 3.328125 35.546875 0.953125 
Q 30.953125 -1.421875 24.3125 -1.421875 
Q 15.921875 -1.421875 10.953125 3.296875 
Q 6 8.015625 6 15.921875 
Q 6 25.140625 12.171875 29.828125 
Q 18.359375 34.515625 30.609375 34.515625 
L 43.21875 34.515625 
L 43.21875 35.40625 
Q 43.21875 41.609375 39.140625 45 
Q 35.0625 48.390625 27.6875 48.390625 
Q 23 48.390625 18.546875 47.265625 
Q 14.109375 46.140625 10.015625 43.890625 
L 10.015625 52.203125 
Q 14.9375 54.109375 19.578125 55.046875 
Q 24.21875 56 28.609375 56 
Q 40.484375 56 46.34375 49.84375 
Q 52.203125 43.703125 52.203125 31.203125 
z
" id="DejaVuSans-61"/>
     <path d="M 9.421875 75.984375 
L 18.40625 75.984375 
L 18.40625 0 
L 9.421875 0 
z
" id="DejaVuSans-6c"/>
    </defs>
    <g style="fill:#4a5b1c;" transform="translate(176.54112 20.493)scale(0.07 -0.07)">
     <use xlink:href="#DejaVuSans-6e"/>
     <use x="63.378906" xlink:href="#DejaVuSans-6f"/>
     <use x="124.560547" xlink:href="#DejaVuSans-72"/>
     <use x="165.658203" xlink:href="#DejaVuSans-6d"/>
     <use x="263.070312" xlink:href="#DejaVuSans-61"/>
     <use x="324.349609" xlink:href="#DejaVuSans-6c"/>
    </g>
   </g>
   <g id="line2d_46">
    <path clip-path="url(#p385cfb0780)" d="M 31.752 36.204193 
L 48.746147 37.030812 
L 65.022166 39.415762 
L 79.970378 43.105251 
L 93.165182 47.75144 
L 104.387969 52.987082 
L 113.605728 58.485517 
L 120.923283 63.991636 
L 126.528279 69.32613 
L 130.646985 74.375791 
L 133.512202 79.080506 
L 135.345434 83.415815 
L 136.345462 87.38198 
L 136.687755 90.992808 
L 136.523671 94.270949 
L 135.981203 97.241482 
L 135.167694 99.9318 
L 134.171209 102.368011 
L 133.062605 104.575804 
L 131.89722 106.577356 
L 130.716 108.395924 
L 128.418444 111.557021 
L 126.310795 114.193673 
L 124.443884 116.414282 
L 122.819216 118.302028 
L 121.417757 119.922347 
L 120.213344 121.325918 
L 119.165558 122.553576 
L 118.537067 123.605974 
L 117.775293 124.564303 
L 117.129633 125.418405 
L 116.079774 126.878673 
L 115.273539 128.081563 
L 114.645303 129.089641 
L 114.142458 129.947839 
L 113.730121 130.687927 
L 113.386685 131.331913 
L 113.093209 131.899284 
L 112.836289 132.401498 
L 112.60527 132.850651 
L 112.393878 133.254576 
L 112.011715 133.95119 
L 111.669989 134.531001 
L 111.095866 135.439484 
L 110.866852 135.80146 
L 110.595052 136.118285 
L 110.522406 136.393634 
L 110.416344 136.638526 
L 110.334676 136.856985 
L 110.31181 137.052134 
L 110.23788 137.389727 
L 110.251468 137.669887 
L 110.290134 137.905975 
L 110.32379 138.108759 
L 110.330724 138.285531 
L 110.29162 138.4415 
L 110.203881 138.579745 
L 110.084796 138.703455 
L 109.803673 138.815626 
L 109.826809 138.913379 
" style="fill:none;stroke:#000000;stroke-dasharray:6.4,1.6,1,1.6;stroke-dashoffset:0;"/>
   </g>
   <g id="LineCollection_3">
    <path d="M 31.752 34.92504 
L 31.752 17.0568 
" style="fill:none;stroke:#a42604;"/>
   </g>
   <g id="LineCollection_4">
    <path d="M 31.752 43.17192 
L 31.752 22.55472 
" style="fill:none;stroke:#5fad41;"/>
   </g>
   <g id="LineCollection_5">
    <path d="M 104.14656 140.76 
L 210.83328 140.76 
" style="fill:none;stroke:#5fad41;"/>
   </g>
   <g id="line2d_47">
    <defs>
     <path d="M 2 0 
L -2 -0 
" id="m4892396f16" style="stroke:#a42604;stroke-width:0.75;"/>
    </defs>
    <g>
     <use style="fill:#a42604;stroke:#a42604;stroke-width:0.75;" x="31.752" xlink:href="#m4892396f16" y="34.92504"/>
    </g>
   </g>
   <g id="line2d_48">
    <g>
     <use style="fill:#a42604;stroke:#a42604;stroke-width:0.75;" x="31.752" xlink:href="#m4892396f16" y="17.0568"/>
    </g>
   </g>
   <g id="line2d_49">
    <defs>
     <path d="M 2 0 
L -2 -0 
" id="m2905bc6f94" style="stroke:#5fad41;stroke-width:0.75;"/>
    </defs>
    <g>
     <use style="fill:#5fad41;stroke:#5fad41;stroke-width:0.75;" x="31.752" xlink:href="#m2905bc6f94" y="43.17192"/>
    </g>
   </g>
   <g id="line2d_50">
    <g>
     <use style="fill:#5fad41;stroke:#5fad41;stroke-width:0.75;" x="31.752" xlink:href="#m2905bc6f94" y="22.55472"/>
    </g>
   </g>
   <g id="line2d_51">
    <defs>
     <path d="M 0 2 
L 0 -2 
" id="m16e4bbc4db" style="stroke:#5fad41;stroke-width:0.75;"/>
    </defs>
    <g>
     <use style="fill:#5fad41;stroke:#5fad41;stroke-width:0.75;" x="104.14656" xlink:href="#m16e4bbc4db" y="140.76"/>
    </g>
   </g>
   <g id="line2d_52">
    <g>
     <use style="fill:#5fad41;stroke:#5fad41;stroke-width:0.75;" x="210.83328" xlink:href="#m16e4bbc4db" y="140.76"/>
    </g>
   </g>
   <g id="text_16">
    <!-- superfluid -->
    <defs>
     <path d="M 44.28125 53.078125 
L 44.28125 44.578125 
Q 40.484375 46.53125 36.375 47.5 
Q 32.28125 48.484375 27.875 48.484375 
Q 21.1875 48.484375 17.84375 46.4375 
Q 14.5 44.390625 14.5 40.28125 
Q 14.5 37.15625 16.890625 35.375 
Q 19.28125 33.59375 26.515625 31.984375 
L 29.59375 31.296875 
Q 39.15625 29.25 43.1875 25.515625 
Q 47.21875 21.78125 47.21875 15.09375 
Q 47.21875 7.46875 41.1875 3.015625 
Q 35.15625 -1.421875 24.609375 -1.421875 
Q 20.21875 -1.421875 15.453125 -0.5625 
Q 10.6875 0.296875 5.421875 2 
L 5.421875 11.28125 
Q 10.40625 8.6875 15.234375 7.390625 
Q 20.0625 6.109375 24.8125 6.109375 
Q 31.15625 6.109375 34.5625 8.28125 
Q 37.984375 10.453125 37.984375 14.40625 
Q 37.984375 18.0625 35.515625 20.015625 
Q 33.0625 21.96875 24.703125 23.78125 
L 21.578125 24.515625 
Q 13.234375 26.265625 9.515625 29.90625 
Q 5.8125 33.546875 5.8125 39.890625 
Q 5.8125 47.609375 11.28125 51.796875 
Q 16.75 56 26.8125 56 
Q 31.78125 56 36.171875 55.265625 
Q 40.578125 54.546875 44.28125 53.078125 
z
" id="DejaVuSans-73"/>
     <path d="M 8.5 21.578125 
L 8.5 54.6875 
L 17.484375 54.6875 
L 17.484375 21.921875 
Q 17.484375 14.15625 20.5 10.265625 
Q 23.53125 6.390625 29.59375 6.390625 
Q 36.859375 6.390625 41.078125 11.03125 
Q 45.3125 15.671875 45.3125 23.6875 
L 45.3125 54.6875 
L 54.296875 54.6875 
L 54.296875 0 
L 45.3125 0 
L 45.3125 8.40625 
Q 42.046875 3.421875 37.71875 1 
Q 33.40625 -1.421875 27.6875 -1.421875 
Q 18.265625 -1.421875 13.375 4.4375 
Q 8.5 10.296875 8.5 21.578125 
z
M 31.109375 56 
z
" id="DejaVuSans-75"/>
     <path d="M 18.109375 8.203125 
L 18.109375 -20.796875 
L 9.078125 -20.796875 
L 9.078125 54.6875 
L 18.109375 54.6875 
L 18.109375 46.390625 
Q 20.953125 51.265625 25.265625 53.625 
Q 29.59375 56 35.59375 56 
Q 45.5625 56 51.78125 48.09375 
Q 58.015625 40.1875 58.015625 27.296875 
Q 58.015625 14.40625 51.78125 6.484375 
Q 45.5625 -1.421875 35.59375 -1.421875 
Q 29.59375 -1.421875 25.265625 0.953125 
Q 20.953125 3.328125 18.109375 8.203125 
z
M 48.6875 27.296875 
Q 48.6875 37.203125 44.609375 42.84375 
Q 40.53125 48.484375 33.40625 48.484375 
Q 26.265625 48.484375 22.1875 42.84375 
Q 18.109375 37.203125 18.109375 27.296875 
Q 18.109375 17.390625 22.1875 11.75 
Q 26.265625 6.109375 33.40625 6.109375 
Q 40.53125 6.109375 44.609375 11.75 
Q 48.6875 17.390625 48.6875 27.296875 
z
" id="DejaVuSans-70"/>
     <path d="M 56.203125 29.59375 
L 56.203125 25.203125 
L 14.890625 25.203125 
Q 15.484375 15.921875 20.484375 11.0625 
Q 25.484375 6.203125 34.421875 6.203125 
Q 39.59375 6.203125 44.453125 7.46875 
Q 49.3125 8.734375 54.109375 11.28125 
L 54.109375 2.78125 
Q 49.265625 0.734375 44.1875 -0.34375 
Q 39.109375 -1.421875 33.890625 -1.421875 
Q 20.796875 -1.421875 13.15625 6.1875 
Q 5.515625 13.8125 5.515625 26.8125 
Q 5.515625 40.234375 12.765625 48.109375 
Q 20.015625 56 32.328125 56 
Q 43.359375 56 49.78125 48.890625 
Q 56.203125 41.796875 56.203125 29.59375 
z
M 47.21875 32.234375 
Q 47.125 39.59375 43.09375 43.984375 
Q 39.0625 48.390625 32.421875 48.390625 
Q 24.90625 48.390625 20.390625 44.140625 
Q 15.875 39.890625 15.1875 32.171875 
z
" id="DejaVuSans-65"/>
     <path d="M 37.109375 75.984375 
L 37.109375 68.5 
L 28.515625 68.5 
Q 23.6875 68.5 21.796875 66.546875 
Q 19.921875 64.59375 19.921875 59.515625 
L 19.921875 54.6875 
L 34.71875 54.6875 
L 34.71875 47.703125 
L 19.921875 47.703125 
L 19.921875 0 
L 10.890625 0 
L 10.890625 47.703125 
L 2.296875 47.703125 
L 2.296875 54.6875 
L 10.890625 54.6875 
L 10.890625 58.5 
Q 10.890625 67.625 15.140625 71.796875 
Q 19.390625 75.984375 28.609375 75.984375 
z
" id="DejaVuSans-66"/>
     <path d="M 9.421875 54.6875 
L 18.40625 54.6875 
L 18.40625 0 
L 9.421875 0 
z
M 9.421875 75.984375 
L 18.40625 75.984375 
L 18.40625 64.59375 
L 9.421875 64.59375 
z
" id="DejaVuSans-69"/>
     <path d="M 45.40625 46.390625 
L 45.40625 75.984375 
L 54.390625 75.984375 
L 54.390625 0 
L 45.40625 0 
L 45.40625 8.203125 
Q 42.578125 3.328125 38.25 0.953125 
Q 33.9375 -1.421875 27.875 -1.421875 
Q 17.96875 -1.421875 11.734375 6.484375 
Q 5.515625 14.40625 5.515625 27.296875 
Q 5.515625 40.1875 11.734375 48.09375 
Q 17.96875 56 27.875 56 
Q 33.9375 56 38.25 53.625 
Q 42.578125 51.265625 45.40625 46.390625 
z
M 14.796875 27.296875 
Q 14.796875 17.390625 18.875 11.75 
Q 22.953125 6.109375 30.078125 6.109375 
Q 37.203125 6.109375 41.296875 11.75 
Q 45.40625 17.390625 45.40625 27.296875 
Q 45.40625 37.203125 41.296875 42.84375 
Q 37.203125 48.484375 30.078125 48.484375 
Q 22.953125 48.484375 18.875 42.84375 
Q 14.796875 37.203125 14.796875 27.296875 
z
" id="DejaVuSans-64"/>
    </defs>
    <g style="fill:#272473;" transform="translate(39.37248 92.6532)scale(0.07 -0.07)">
     <use xlink:href="#DejaVuSans-73"/>
     <use x="52.099609" xlink:href="#DejaVuSans-75"/>
     <use x="115.478516" xlink:href="#DejaVuSans-70"/>
     <use x="178.955078" xlink:href="#DejaVuSans-65"/>
     <use x="240.478516" xlink:href="#DejaVuSans-72"/>
     <use x="281.591797" xlink:href="#DejaVuSans-66"/>
     <use x="316.796875" xlink:href="#DejaVuSans-6c"/>
     <use x="344.580078" xlink:href="#DejaVuSans-75"/>
     <use x="407.958984" xlink:href="#DejaVuSans-69"/>
     <use x="435.742188" xlink:href="#DejaVuSans-64"/>
    </g>
   </g>
   <g id="text_17">
    <!-- unstable -->
    <defs>
     <path d="M 18.3125 70.21875 
L 18.3125 54.6875 
L 36.8125 54.6875 
L 36.8125 47.703125 
L 18.3125 47.703125 
L 18.3125 18.015625 
Q 18.3125 11.328125 20.140625 9.421875 
Q 21.96875 7.515625 27.59375 7.515625 
L 36.8125 7.515625 
L 36.8125 0 
L 27.59375 0 
Q 17.1875 0 13.234375 3.875 
Q 9.28125 7.765625 9.28125 18.015625 
L 9.28125 47.703125 
L 2.6875 47.703125 
L 2.6875 54.6875 
L 9.28125 54.6875 
L 9.28125 70.21875 
z
" id="DejaVuSans-74"/>
     <path d="M 48.6875 27.296875 
Q 48.6875 37.203125 44.609375 42.84375 
Q 40.53125 48.484375 33.40625 48.484375 
Q 26.265625 48.484375 22.1875 42.84375 
Q 18.109375 37.203125 18.109375 27.296875 
Q 18.109375 17.390625 22.1875 11.75 
Q 26.265625 6.109375 33.40625 6.109375 
Q 40.53125 6.109375 44.609375 11.75 
Q 48.6875 17.390625 48.6875 27.296875 
z
M 18.109375 46.390625 
Q 20.953125 51.265625 25.265625 53.625 
Q 29.59375 56 35.59375 56 
Q 45.5625 56 51.78125 48.09375 
Q 58.015625 40.1875 58.015625 27.296875 
Q 58.015625 14.40625 51.78125 6.484375 
Q 45.5625 -1.421875 35.59375 -1.421875 
Q 29.59375 -1.421875 25.265625 0.953125 
Q 20.953125 3.328125 18.109375 8.203125 
L 18.109375 0 
L 9.078125 0 
L 9.078125 75.984375 
L 18.109375 75.984375 
z
" id="DejaVuSans-62"/>
    </defs>
    <g style="fill:#fa9f42;" transform="translate(58.42368 133.8876)scale(0.07 -0.07)">
     <use xlink:href="#DejaVuSans-75"/>
     <use x="63.378906" xlink:href="#DejaVuSans-6e"/>
     <use x="126.757812" xlink:href="#DejaVuSans-73"/>
     <use x="178.857422" xlink:href="#DejaVuSans-74"/>
     <use x="218.066406" xlink:href="#DejaVuSans-61"/>
     <use x="279.345703" xlink:href="#DejaVuSans-62"/>
     <use x="342.822266" xlink:href="#DejaVuSans-6c"/>
     <use x="370.605469" xlink:href="#DejaVuSans-65"/>
    </g>
   </g>
   <g id="line2d_53">
    <defs>
     <path d="M 1.5 0 
L -1.5 -1.5 
L -1.5 1.5 
z
" id="m5fc5a5861a" style="stroke:#a42604;stroke-linejoin:miter;stroke-width:0.75;"/>
    </defs>
    <g>
     <use style="fill:#f94515;stroke:#a42604;stroke-linejoin:miter;stroke-width:0.75;" x="31.752" xlink:href="#m5fc5a5861a" y="25.99092"/>
    </g>
   </g>
   <g id="line2d_54">
    <defs>
     <path d="M 1.5 0 
L -1.5 -1.5 
L -1.5 1.5 
z
" id="m783671096d" style="stroke:#5fad41;stroke-linejoin:miter;stroke-width:0.75;"/>
    </defs>
    <g>
     <use style="fill:#adda9c;stroke:#5fad41;stroke-linejoin:miter;stroke-width:0.75;" x="31.752" xlink:href="#m783671096d" y="32.86332"/>
    </g>
   </g>
   <g id="line2d_55">
    <defs>
     <path d="M 0 -1.5 
L -1.5 1.5 
L 1.5 1.5 
z
" id="ma5bcec36e3" style="stroke:#0d153a;stroke-linejoin:miter;stroke-width:0.75;"/>
    </defs>
    <g>
     <use style="fill:#20338d;stroke:#0d153a;stroke-linejoin:miter;stroke-width:0.75;" x="179.589312" xlink:href="#ma5bcec36e3" y="140.76"/>
    </g>
   </g>
   <g id="line2d_56">
    <defs>
     <path d="M 0 -1.5 
L -1.5 1.5 
L 1.5 1.5 
z
" id="mddb07b6cd4" style="stroke:#5fad41;stroke-linejoin:miter;stroke-width:0.75;"/>
    </defs>
    <g>
     <use style="fill:#adda9c;stroke:#5fad41;stroke-linejoin:miter;stroke-width:0.75;" x="157.48992" xlink:href="#mddb07b6cd4" y="140.76"/>
    </g>
   </g>
  </g>
 </g>
 <defs>
  <clipPath id="p385cfb0780">
   <rect height="137.448" width="190.512" x="31.752" y="3.312"/>
  </clipPath>
 </defs>
</svg>
