<?xml version="1.0" encoding="utf-8" standalone="no"?>
<!DOCTYPE svg PUBLIC "-//W3C//DTD SVG 1.1//EN"
  "http://www.w3.org/Graphics/SVG/1.1/DTD/svg11.dtd">
<!-- Created with matplotlib (http://matplotlib.org/) -->
<svg height="165.6pt" version="1.1" viewBox="0 0 453.6 165.6" width="453.6pt" xmlns="http://www.w3.org/2000/svg" xmlns:xlink="http://www.w3.org/1999/xlink">
 <defs>
  <style type="text/css">
*{stroke-linecap:butt;stroke-linejoin:round;}
  </style>
 </defs>
 <g id="figure_1">
  <g id="patch_1">
   <path d="M 0 165.6 
L 453.6 165.6 
L 453.6 0 
L 0 0 
z
" style="fill:#ffffff;"/>
  </g>
  <g id="axes_1">
   <g id="patch_2">
    <path d="M 36.288 140.76 
L 221.851636 140.76 
L 221.851636 3.312 
L 36.288 3.312 
z
" style="fill:#ffffff;"/>
   </g>
   <g id="PolyCollection_1">
    <defs>
     <path d="M 36.634895 -118.589015 
L 36.634895 -208.104 
L 38.507383 -208.104 
L 41.315955 -208.104 
L 45.24802 -208.104 
L 47.307596 -208.104 
L 50.303417 -208.104 
L 52.363155 -208.104 
L 54.984316 -208.104 
L 57.41839 -208.104 
L 59.665054 -208.104 
L 61.162883 -208.104 
L 63.784045 -208.104 
L 66.217957 -208.104 
L 68.839119 -208.104 
L 71.179245 -208.104 
L 73.706621 -208.104 
L 76.140211 -208.104 
L 77.076294 -208.104 
L 80.446289 -208.104 
L 81.943957 -208.104 
L 84.564796 -208.104 
L 86.062303 -208.104 
L 87.279097 -208.104 
L 89.619386 -208.104 
L 91.678477 -208.104 
L 92.708023 -208.104 
L 94.486404 -208.104 
L 98.230251 -208.104 
L 99.540509 -208.104 
L 101.038016 -208.104 
L 102.72261 -208.104 
L 103.939243 -208.104 
L 105.43675 -208.104 
L 106.279047 -208.104 
L 107.963641 -208.104 
L 109.460987 -208.104 
L 111.707166 -208.104 
L 113.766097 -208.104 
L 115.169818 -208.104 
L 118.351757 -208.104 
L 120.129653 -208.104 
L 122.56292 -208.104 
L 124.808615 -208.104 
L 126.77376 -208.104 
L 128.64528 -208.104 
L 130.423176 -208.104 
L 131.920198 -208.104 
L 133.885343 -208.104 
L 136.318125 -208.104 
L 138.657283 -208.104 
L 139.592882 -208.104 
L 141.089743 -208.104 
L 143.896701 -208.104 
L 146.142396 -208.104 
L 147.826506 -208.104 
L 148.949192 -208.104 
L 151.381652 -208.104 
L 153.439775 -208.104 
L 153.81395 -208.104 
L 155.684986 -208.104 
L 156.807511 -208.104 
L 159.239809 -208.104 
L 161.48502 -208.104 
L 162.23337 -208.104 
L 163.168807 -208.104 
L 164.478581 -208.104 
L 167.097644 -208.104 
L 168.033081 -208.104 
L 169.529781 -208.104 
L 172.335931 -208.104 
L 174.019557 -208.104 
L 176.919331 -208.104 
L 178.135319 -208.104 
L 179.444931 -208.104 
L 181.689819 -208.104 
L 183.74762 -208.104 
L 185.618333 -208.104 
L 188.330698 -208.104 
L 189.733773 -208.104 
L 191.791412 -208.104 
L 194.784488 -208.104 
L 197.029376 -208.104 
L 198.712841 -208.104 
L 201.331742 -208.104 
L 205.07333 -208.104 
L 207.131131 -208.104 
L 209.188931 -208.104 
L 211.433496 -208.104 
L 214.239808 -208.104 
L 216.765408 -208.104 
L 219.384632 -208.104 
L 220.974795 -208.104 
L 220.974795 -59.723354 
L 220.974795 -59.723354 
L 219.384632 -60.57648 
L 216.765408 -61.903564 
L 214.239808 -63.230648 
L 211.433496 -64.652524 
L 209.188931 -66.0744 
L 207.131131 -67.211901 
L 205.07333 -68.349401 
L 201.331742 -70.340028 
L 198.712841 -71.856695 
L 197.029376 -72.899404 
L 194.784488 -74.131697 
L 191.791412 -75.837948 
L 189.733773 -77.07024 
L 188.330698 -77.828574 
L 185.618333 -79.440033 
L 183.74762 -80.482742 
L 181.689819 -81.620243 
L 179.444931 -82.852535 
L 178.135319 -83.516077 
L 176.919331 -84.179619 
L 174.019557 -85.696287 
L 172.335931 -86.644204 
L 169.529781 -88.160872 
L 168.033081 -88.919206 
L 167.097644 -89.393164 
L 164.478581 -90.81504 
L 163.168807 -91.38379 
L 162.23337 -91.857749 
L 161.48502 -92.236916 
L 159.239809 -93.279625 
L 156.807511 -94.417126 
L 155.684986 -94.985876 
L 153.81395 -95.839001 
L 153.439775 -96.028585 
L 151.381652 -96.976502 
L 148.949192 -98.019211 
L 147.826506 -98.49317 
L 146.142396 -99.156712 
L 143.896701 -99.915046 
L 141.089743 -100.957754 
L 139.592882 -101.621297 
L 138.657283 -102.000463 
L 136.318125 -102.853589 
L 133.885343 -103.706714 
L 131.920198 -104.275465 
L 130.423176 -104.844215 
L 128.64528 -105.412966 
L 126.77376 -105.981716 
L 124.808615 -106.550466 
L 122.56292 -107.3088 
L 120.129653 -107.87755 
L 118.351757 -108.446301 
L 115.169818 -109.204634 
L 113.766097 -109.583801 
L 111.707166 -110.05776 
L 109.460987 -110.531719 
L 107.963641 -110.910886 
L 106.279047 -111.290052 
L 105.43675 -111.479636 
L 103.939243 -111.764011 
L 102.72261 -112.048386 
L 101.038016 -112.427553 
L 99.540509 -112.711928 
L 98.230251 -112.996303 
L 94.486404 -113.659846 
L 92.708023 -113.944221 
L 91.678477 -114.133804 
L 89.619386 -114.512971 
L 87.279097 -114.702554 
L 86.062303 -114.892138 
L 84.564796 -115.176513 
L 81.943957 -115.55568 
L 80.446289 -115.745263 
L 77.076294 -116.029639 
L 76.140211 -116.12443 
L 73.706621 -116.503597 
L 71.179245 -116.787972 
L 68.839119 -117.072348 
L 66.217957 -117.261931 
L 63.784045 -117.451514 
L 61.162883 -117.641098 
L 59.665054 -117.73589 
L 57.41839 -117.925473 
L 54.984316 -118.020265 
L 52.363155 -118.209848 
L 50.303417 -118.209848 
L 47.307596 -118.30464 
L 45.24802 -118.399432 
L 41.315955 -118.494223 
L 38.507383 -118.589015 
L 36.634895 -118.589015 
z
" id="m0d2bc9dd03" style="stroke:#d9ecdd;"/>
    </defs>
    <g clip-path="url(#p83eba0f02f)">
     <use style="fill:#d9ecdd;stroke:#d9ecdd;" x="0" xlink:href="#m0d2bc9dd03" y="165.6"/>
    </g>
   </g>
   <g id="PolyCollection_2">
    <defs>
     <path d="M 36.634895 -118.589015 
L 36.634895 -24.84 
L 38.507383 -24.84 
L 41.315955 -24.84 
L 45.24802 -24.84 
L 47.307596 -24.84 
L 50.303417 -24.84 
L 52.363155 -24.84 
L 54.984316 -24.84 
L 57.41839 -24.84 
L 59.665054 -24.84 
L 61.162883 -24.84 
L 63.784045 -24.84 
L 66.217957 -24.84 
L 68.839119 -24.84 
L 71.179245 -24.84 
L 73.706621 -24.84 
L 76.140211 -24.84 
L 77.076294 -24.84 
L 80.446289 -24.84 
L 81.943957 -24.84 
L 84.564796 -24.84 
L 86.062303 -24.84 
L 87.279097 -24.84 
L 89.619386 -24.84 
L 91.678477 -24.84 
L 92.708023 -24.84 
L 94.486404 -24.84 
L 98.230251 -24.84 
L 99.540509 -24.84 
L 101.038016 -24.84 
L 102.72261 -24.84 
L 103.939243 -24.84 
L 105.43675 -24.84 
L 106.279047 -24.84 
L 107.963641 -24.84 
L 109.460987 -24.84 
L 111.707166 -24.84 
L 113.766097 -24.84 
L 115.169818 -24.84 
L 118.351757 -24.84 
L 120.129653 -24.84 
L 122.56292 -24.84 
L 124.808615 -24.84 
L 126.77376 -24.84 
L 128.64528 -24.84 
L 130.423176 -24.84 
L 131.920198 -24.84 
L 133.885343 -24.84 
L 136.318125 -24.84 
L 138.657283 -24.84 
L 139.592882 -24.84 
L 141.089743 -24.84 
L 143.896701 -24.84 
L 146.142396 -24.84 
L 147.826506 -24.84 
L 148.949192 -24.84 
L 151.381652 -24.84 
L 153.439775 -24.84 
L 153.81395 -24.84 
L 155.684986 -24.84 
L 156.807511 -24.84 
L 159.239809 -24.84 
L 161.48502 -24.84 
L 162.23337 -24.84 
L 163.168807 -24.84 
L 164.478581 -24.84 
L 167.097644 -24.84 
L 168.033081 -24.84 
L 169.529781 -24.84 
L 172.335931 -24.84 
L 174.019557 -24.84 
L 176.919331 -24.84 
L 178.135319 -24.84 
L 179.444931 -24.84 
L 181.689819 -24.84 
L 183.74762 -24.84 
L 185.618333 -24.84 
L 188.330698 -24.84 
L 189.733773 -24.84 
L 191.791412 -24.84 
L 194.784488 -24.84 
L 197.029376 -24.84 
L 198.712841 -24.84 
L 201.331742 -24.84 
L 205.07333 -24.84 
L 207.131131 -24.84 
L 209.188931 -24.84 
L 211.433496 -24.84 
L 214.239808 -24.84 
L 216.765408 -24.84 
L 219.384632 -24.84 
L 220.974795 -24.84 
L 220.974795 -59.723354 
L 220.974795 -59.723354 
L 219.384632 -60.57648 
L 216.765408 -61.903564 
L 214.239808 -63.230648 
L 211.433496 -64.652524 
L 209.188931 -66.0744 
L 207.131131 -67.211901 
L 205.07333 -68.349401 
L 201.331742 -70.340028 
L 198.712841 -71.856695 
L 197.029376 -72.899404 
L 194.784488 -74.131697 
L 191.791412 -75.837948 
L 189.733773 -77.07024 
L 188.330698 -77.828574 
L 185.618333 -79.440033 
L 183.74762 -80.482742 
L 181.689819 -81.620243 
L 179.444931 -82.852535 
L 178.135319 -83.516077 
L 176.919331 -84.179619 
L 174.019557 -85.696287 
L 172.335931 -86.644204 
L 169.529781 -88.160872 
L 168.033081 -88.919206 
L 167.097644 -89.393164 
L 164.478581 -90.81504 
L 163.168807 -91.38379 
L 162.23337 -91.857749 
L 161.48502 -92.236916 
L 159.239809 -93.279625 
L 156.807511 -94.417126 
L 155.684986 -94.985876 
L 153.81395 -95.839001 
L 153.439775 -96.028585 
L 151.381652 -96.976502 
L 148.949192 -98.019211 
L 147.826506 -98.49317 
L 146.142396 -99.156712 
L 143.896701 -99.915046 
L 141.089743 -100.957754 
L 139.592882 -101.621297 
L 138.657283 -102.000463 
L 136.318125 -102.853589 
L 133.885343 -103.706714 
L 131.920198 -104.275465 
L 130.423176 -104.844215 
L 128.64528 -105.412966 
L 126.77376 -105.981716 
L 124.808615 -106.550466 
L 122.56292 -107.3088 
L 120.129653 -107.87755 
L 118.351757 -108.446301 
L 115.169818 -109.204634 
L 113.766097 -109.583801 
L 111.707166 -110.05776 
L 109.460987 -110.531719 
L 107.963641 -110.910886 
L 106.279047 -111.290052 
L 105.43675 -111.479636 
L 103.939243 -111.764011 
L 102.72261 -112.048386 
L 101.038016 -112.427553 
L 99.540509 -112.711928 
L 98.230251 -112.996303 
L 94.486404 -113.659846 
L 92.708023 -113.944221 
L 91.678477 -114.133804 
L 89.619386 -114.512971 
L 87.279097 -114.702554 
L 86.062303 -114.892138 
L 84.564796 -115.176513 
L 81.943957 -115.55568 
L 80.446289 -115.745263 
L 77.076294 -116.029639 
L 76.140211 -116.12443 
L 73.706621 -116.503597 
L 71.179245 -116.787972 
L 68.839119 -117.072348 
L 66.217957 -117.261931 
L 63.784045 -117.451514 
L 61.162883 -117.641098 
L 59.665054 -117.73589 
L 57.41839 -117.925473 
L 54.984316 -118.020265 
L 52.363155 -118.209848 
L 50.303417 -118.209848 
L 47.307596 -118.30464 
L 45.24802 -118.399432 
L 41.315955 -118.494223 
L 38.507383 -118.589015 
L 36.634895 -118.589015 
z
" id="me6f0db8417" style="stroke:#d7d7d7;"/>
    </defs>
    <g clip-path="url(#p83eba0f02f)">
     <use style="fill:#d7d7d7;stroke:#d7d7d7;" x="0" xlink:href="#me6f0db8417" y="165.6"/>
    </g>
   </g>
   <g id="PolyCollection_3">
    <defs>
     <path d="M 36.506565 -24.84 
L 36.506565 -98.208794 
L 36.600189 -98.208794 
L 39.221512 -98.114003 
L 43.340826 -98.019211 
L 45.7749 -97.924419 
L 48.77072 -97.829628 
L 51.017545 -97.734836 
L 54.949449 -97.545252 
L 57.758182 -97.545252 
L 60.004846 -97.355669 
L 63.187592 -97.071294 
L 65.995841 -96.786919 
L 69.927422 -96.407752 
L 74.233662 -96.123377 
L 77.416247 -95.74421 
L 80.973492 -95.459834 
L 83.313618 -95.175459 
L 87.151413 -94.701501 
L 93.329012 -93.753583 
L 98.944702 -92.710874 
L 103.998808 -91.762957 
L 109.240001 -90.720248 
L 113.919286 -89.582748 
L 116.726727 -88.824414 
L 122.342095 -87.592121 
L 127.956817 -85.980662 
L 131.886945 -84.74837 
L 134.881152 -83.705661 
L 139.185454 -82.283785 
L 142.366587 -81.051492 
L 146.670405 -79.345241 
L 151.348237 -77.354615 
L 153.593448 -76.311906 
L 158.457884 -73.942113 
L 162.760734 -71.667112 
L 165.192709 -70.340028 
L 167.624362 -68.82336 
L 171.271679 -66.453567 
L 173.609223 -64.652524 
L 175.666055 -62.946273 
L 177.254442 -61.050439 
L 177.254442 -24.84 
L 177.254442 -24.84 
L 175.666055 -24.84 
L 173.609223 -24.84 
L 171.271679 -24.84 
L 167.624362 -24.84 
L 165.192709 -24.84 
L 162.760734 -24.84 
L 158.457884 -24.84 
L 153.593448 -24.84 
L 151.348237 -24.84 
L 146.670405 -24.84 
L 142.366587 -24.84 
L 139.185454 -24.84 
L 134.881152 -24.84 
L 131.886945 -24.84 
L 127.956817 -24.84 
L 122.342095 -24.84 
L 116.726727 -24.84 
L 113.919286 -24.84 
L 109.240001 -24.84 
L 103.998808 -24.84 
L 98.944702 -24.84 
L 93.329012 -24.84 
L 87.151413 -24.84 
L 83.313618 -24.84 
L 80.973492 -24.84 
L 77.416247 -24.84 
L 74.233662 -24.84 
L 69.927422 -24.84 
L 65.995841 -24.84 
L 63.187592 -24.84 
L 60.004846 -24.84 
L 57.758182 -24.84 
L 54.949449 -24.84 
L 51.017545 -24.84 
L 48.77072 -24.84 
L 45.7749 -24.84 
L 43.340826 -24.84 
L 39.221512 -24.84 
L 36.600189 -24.84 
L 36.506565 -24.84 
z
" id="mc2c91d503d" style="stroke:#db7502;"/>
    </defs>
    <g clip-path="url(#p83eba0f02f)">
     <use style="fill:#db7502;stroke:#db7502;" x="0" xlink:href="#mc2c91d503d" y="165.6"/>
    </g>
   </g>
   <g id="PolyCollection_4">
    <defs>
     <path d="M 36.614122 -24.84 
L 36.614122 -97.952979 
L 41.669019 -97.948488 
L 43.625754 -97.864323 
L 47.376161 -97.778563 
L 50.311263 -97.693528 
L 52.920242 -97.526355 
L 55.203098 -97.277044 
L 58.464322 -97.109292 
L 61.399424 -96.859401 
L 63.519219 -96.692663 
L 66.780443 -96.277628 
L 68.247994 -96.111469 
L 71.998401 -95.860854 
L 74.770441 -95.528681 
L 77.216359 -95.279225 
L 78.846971 -94.948066 
L 81.292889 -94.616183 
L 85.369419 -94.117996 
L 89.772071 -93.537092 
L 92.707172 -93.039918 
L 96.45758 -92.129883 
L 100.207987 -91.384703 
L 102.490844 -90.888109 
L 105.589007 -90.308364 
L 108.85023 -89.481191 
L 111.296148 -88.819597 
L 113.415944 -88.323148 
L 115.535739 -87.744272 
L 117.00329 -87.413258 
L 119.286147 -86.751809 
L 124.667166 -85.34576 
L 127.439206 -84.519021 
L 130.048185 -83.61 
L 132.820226 -82.618406 
L 134.124715 -82.040254 
L 137.712061 -80.635798 
L 140.891755 -79.396559 
L 142.440836 -78.81819 
L 146.517366 -77.330872 
L 148.800222 -76.257285 
L 151.24614 -75.101126 
L 153.528997 -74.109967 
L 155.404201 -73.201598 
L 157.605527 -72.128083 
L 159.154608 -71.302431 
L 160.78522 -70.559134 
L 162.986546 -69.320765 
L 166.410831 -67.504316 
L 169.590524 -65.523229 
L 172.444095 -63.624859 
L 175.053074 -61.644279 
L 177.254442 -61.050439 
L 177.254442 -24.84 
L 177.254442 -24.84 
L 175.053074 -24.84 
L 172.444095 -24.84 
L 169.590524 -24.84 
L 166.410831 -24.84 
L 162.986546 -24.84 
L 160.78522 -24.84 
L 159.154608 -24.84 
L 157.605527 -24.84 
L 155.404201 -24.84 
L 153.528997 -24.84 
L 151.24614 -24.84 
L 148.800222 -24.84 
L 146.517366 -24.84 
L 142.440836 -24.84 
L 140.891755 -24.84 
L 137.712061 -24.84 
L 134.124715 -24.84 
L 132.820226 -24.84 
L 130.048185 -24.84 
L 127.439206 -24.84 
L 124.667166 -24.84 
L 119.286147 -24.84 
L 117.00329 -24.84 
L 115.535739 -24.84 
L 113.415944 -24.84 
L 111.296148 -24.84 
L 108.85023 -24.84 
L 105.589007 -24.84 
L 102.490844 -24.84 
L 100.207987 -24.84 
L 96.45758 -24.84 
L 92.707172 -24.84 
L 89.772071 -24.84 
L 85.369419 -24.84 
L 81.292889 -24.84 
L 78.846971 -24.84 
L 77.216359 -24.84 
L 74.770441 -24.84 
L 71.998401 -24.84 
L 68.247994 -24.84 
L 66.780443 -24.84 
L 63.519219 -24.84 
L 61.399424 -24.84 
L 58.464322 -24.84 
L 55.203098 -24.84 
L 52.920242 -24.84 
L 50.311263 -24.84 
L 47.376161 -24.84 
L 43.625754 -24.84 
L 41.669019 -24.84 
L 36.614122 -24.84 
z
" id="m2375a4b32d" style="stroke:#90d8f8;"/>
    </defs>
    <g clip-path="url(#p83eba0f02f)">
     <use style="fill:#90d8f8;stroke:#90d8f8;" x="0" xlink:href="#m2375a4b32d" y="165.6"/>
    </g>
   </g>
   <g id="PolyCollection_5">
    <defs>
     <path d="M 177.441207 -24.84 
L 177.441207 -60.766063 
L 179.685288 -59.059812 
L 181.273675 -57.163978 
L 182.768276 -55.173352 
L 184.075306 -52.993142 
L 185.288711 -50.812932 
L 186.408168 -48.443139 
L 187.340054 -45.883763 
L 188.178639 -43.51397 
L 188.92376 -41.238968 
L 189.668074 -38.490008 
L 190.132 -36.025423 
L 190.596086 -33.65563 
L 190.778815 -31.001462 
L 190.961383 -28.252502 
L 191.04968 -25.124375 
L 191.04968 -24.84 
L 191.04968 -24.84 
L 190.961383 -24.84 
L 190.778815 -24.84 
L 190.596086 -24.84 
L 190.132 -24.84 
L 189.668074 -24.84 
L 188.92376 -24.84 
L 188.178639 -24.84 
L 187.340054 -24.84 
L 186.408168 -24.84 
L 185.288711 -24.84 
L 184.075306 -24.84 
L 182.768276 -24.84 
L 181.273675 -24.84 
L 179.685288 -24.84 
L 177.441207 -24.84 
z
" id="m6d29a2375b" style="stroke:#90d8f8;"/>
    </defs>
    <g clip-path="url(#p83eba0f02f)">
     <use style="fill:#90d8f8;stroke:#90d8f8;" x="0" xlink:href="#m6d29a2375b" y="165.6"/>
    </g>
   </g>
   <g id="matplotlib.axis_1">
    <g id="xtick_1">
     <g id="line2d_1">
      <defs>
       <path d="M 0 0 
L 0 -2.5 
" id="mdeb0efa41b" style="stroke:#000000;stroke-width:0.8;"/>
      </defs>
      <g>
       <use style="stroke:#000000;stroke-width:0.8;" x="36.288" xlink:href="#mdeb0efa41b" y="140.76"/>
      </g>
     </g>
     <g id="line2d_2">
      <defs>
       <path d="M 0 0 
L 0 2.5 
" id="m72e22f6f54" style="stroke:#000000;stroke-width:0.8;"/>
      </defs>
      <g>
       <use style="stroke:#000000;stroke-width:0.8;" x="36.288" xlink:href="#m72e22f6f54" y="3.312"/>
      </g>
     </g>
     <g id="text_1">
      <!-- $0$ -->
      <defs>
       <path d="M 47.703125 33 
Q 47.703125 23.796875 45.546875 16.34375 
Q 43.40625 8.90625 38.09375 3.75 
Q 32.796875 -1.40625 25 -1.40625 
Q 18.796875 -1.40625 14.25 1.6875 
Q 9.703125 4.796875 7.203125 10.046875 
Q 4.703125 15.296875 3.5 21.140625 
Q 2.296875 27 2.296875 33.59375 
Q 2.296875 42.90625 4.59375 50.34375 
Q 6.90625 57.796875 12.296875 62.6875 
Q 17.703125 67.59375 25.40625 67.59375 
Q 35.203125 67.59375 41.453125 57.9375 
Q 47.703125 48.296875 47.703125 33 
z
M 39.796875 33 
Q 39.796875 45.203125 35.75 52.84375 
Q 31.703125 60.5 25.203125 60.5 
Q 17.796875 60.5 14 52.75 
Q 10.203125 45 10.203125 33.40625 
Q 10.203125 28.203125 10.953125 23.546875 
Q 11.703125 18.90625 13.34375 14.75 
Q 15 10.59375 18 8.140625 
Q 21 5.703125 25 5.703125 
Q 30.09375 5.703125 33.546875 9.796875 
Q 37 13.90625 38.390625 19.84375 
Q 39.796875 25.796875 39.796875 33 
z
" id="STIXGeneral-Regular-1d7e2"/>
      </defs>
      <g transform="translate(34.288 150.33875)scale(0.08 -0.08)">
       <use transform="translate(0 0.40625)" xlink:href="#STIXGeneral-Regular-1d7e2"/>
      </g>
     </g>
    </g>
    <g id="xtick_2">
     <g id="line2d_3">
      <g>
       <use style="stroke:#000000;stroke-width:0.8;" x="73.400727" xlink:href="#mdeb0efa41b" y="140.76"/>
      </g>
     </g>
     <g id="line2d_4">
      <g>
       <use style="stroke:#000000;stroke-width:0.8;" x="73.400727" xlink:href="#m72e22f6f54" y="3.312"/>
      </g>
     </g>
     <g id="text_2">
      <!-- $0.2$ -->
      <defs>
       <path d="M 18.09375 4.296875 
Q 18.09375 2.09375 16.4375 0.5 
Q 14.796875 -1.09375 12.5 -1.09375 
Q 10.203125 -1.09375 8.59375 0.5 
Q 7 2.09375 7 4.390625 
Q 7 6.703125 8.640625 8.34375 
Q 10.296875 10 12.59375 10 
Q 14.796875 10 16.4375 8.296875 
Q 18.09375 6.59375 18.09375 4.296875 
z
" id="STIXGeneral-Regular-2e"/>
       <path d="M 46.90625 7.09375 
L 44 0 
L 3.5 0 
L 3.5 2.09375 
L 21 23.5 
L 21 23.40625 
L 26.59375 30.203125 
Q 30.5 34.90625 32.09375 36.953125 
Q 33.703125 39 35.203125 41.953125 
Q 36.703125 44.90625 36.703125 47.5 
Q 36.703125 53.703125 33.34375 57.09375 
Q 30 60.5 24.203125 60.5 
Q 19.59375 60.5 15.75 56.703125 
Q 11.90625 52.90625 10.90625 45.90625 
L 3.703125 47.59375 
Q 5.296875 56.5 11.1875 62.046875 
Q 17.09375 67.59375 24.90625 67.59375 
Q 33.59375 67.59375 39.09375 62.1875 
Q 44.59375 56.796875 44.59375 49.09375 
Q 44.59375 43.5 42.5 39.453125 
Q 40.40625 35.40625 33.703125 27 
L 17.703125 7.09375 
z
" id="STIXGeneral-Regular-1d7e4"/>
      </defs>
      <g transform="translate(68.400727 150.33875)scale(0.08 -0.08)">
       <use transform="translate(0 0.40625)" xlink:href="#STIXGeneral-Regular-1d7e2"/>
       <use transform="translate(49.999985 0.40625)" xlink:href="#STIXGeneral-Regular-2e"/>
       <use transform="translate(74.999969 0.40625)" xlink:href="#STIXGeneral-Regular-1d7e4"/>
      </g>
     </g>
    </g>
    <g id="xtick_3">
     <g id="line2d_5">
      <g>
       <use style="stroke:#000000;stroke-width:0.8;" x="110.513455" xlink:href="#mdeb0efa41b" y="140.76"/>
      </g>
     </g>
     <g id="line2d_6">
      <g>
       <use style="stroke:#000000;stroke-width:0.8;" x="110.513455" xlink:href="#m72e22f6f54" y="3.312"/>
      </g>
     </g>
     <g id="text_3">
      <!-- $0.4$ -->
      <defs>
       <path d="M 48.90625 23.59375 
L 45.59375 16.5 
L 37.296875 16.5 
L 37.296875 0 
L 29.40625 0 
L 29.40625 16.5 
L 1.09375 16.5 
L 1.09375 23.296875 
L 32.296875 67.59375 
L 37.296875 67.59375 
L 37.296875 23.59375 
z
M 29.40625 23.59375 
L 29.40625 51 
L 10 23.59375 
z
" id="STIXGeneral-Regular-1d7e6"/>
      </defs>
      <g transform="translate(105.513455 150.33875)scale(0.08 -0.08)">
       <use transform="translate(0 0.40625)" xlink:href="#STIXGeneral-Regular-1d7e2"/>
       <use transform="translate(49.999985 0.40625)" xlink:href="#STIXGeneral-Regular-2e"/>
       <use transform="translate(74.999969 0.40625)" xlink:href="#STIXGeneral-Regular-1d7e6"/>
      </g>
     </g>
    </g>
    <g id="xtick_4">
     <g id="line2d_7">
      <g>
       <use style="stroke:#000000;stroke-width:0.8;" x="147.626182" xlink:href="#mdeb0efa41b" y="140.76"/>
      </g>
     </g>
     <g id="line2d_8">
      <g>
       <use style="stroke:#000000;stroke-width:0.8;" x="147.626182" xlink:href="#m72e22f6f54" y="3.312"/>
      </g>
     </g>
     <g id="text_4">
      <!-- $0.6$ -->
      <defs>
       <path d="M 44.796875 66.796875 
L 43 61.5 
Q 31.59375 60.703125 23.640625 54.953125 
Q 15.703125 49.203125 12.203125 38.796875 
Q 18.09375 43.09375 25.90625 43.09375 
Q 34.5 43.09375 40.75 37.296875 
Q 47 31.5 47 22 
Q 47 12.296875 40.953125 5.4375 
Q 34.90625 -1.40625 25.703125 -1.40625 
Q 18 -1.40625 12.75 2.640625 
Q 7.5 6.703125 5.34375 12.75 
Q 3.203125 18.796875 3.203125 26.40625 
Q 3.203125 34.90625 6.203125 43.046875 
Q 9.203125 51.203125 14.296875 56.203125 
Q 21 62.796875 27.09375 65.046875 
Q 33.203125 67.296875 44.703125 68.40625 
z
M 39 20.703125 
Q 39 27.90625 34.890625 31.953125 
Q 30.796875 36 25.09375 36 
Q 19.90625 36 16 32.953125 
Q 12.09375 29.90625 11.203125 24 
Q 11.203125 15.90625 15.203125 10.796875 
Q 19.203125 5.703125 26 5.703125 
Q 31.5 5.703125 35.25 9.953125 
Q 39 14.203125 39 20.703125 
z
" id="STIXGeneral-Regular-1d7e8"/>
      </defs>
      <g transform="translate(142.626182 150.33875)scale(0.08 -0.08)">
       <use transform="translate(0 0.59375)" xlink:href="#STIXGeneral-Regular-1d7e2"/>
       <use transform="translate(49.999985 0.59375)" xlink:href="#STIXGeneral-Regular-2e"/>
       <use transform="translate(74.999969 0.59375)" xlink:href="#STIXGeneral-Regular-1d7e8"/>
      </g>
     </g>
    </g>
    <g id="xtick_5">
     <g id="line2d_9">
      <g>
       <use style="stroke:#000000;stroke-width:0.8;" x="184.738909" xlink:href="#mdeb0efa41b" y="140.76"/>
      </g>
     </g>
     <g id="line2d_10">
      <g>
       <use style="stroke:#000000;stroke-width:0.8;" x="184.738909" xlink:href="#m72e22f6f54" y="3.312"/>
      </g>
     </g>
     <g id="text_5">
      <!-- $0.8$ -->
      <defs>
       <path d="M 44.703125 16.09375 
Q 44.703125 8.796875 39.390625 3.6875 
Q 34.09375 -1.40625 24.796875 -1.40625 
Q 16.296875 -1.40625 10.59375 3.4375 
Q 4.90625 8.296875 4.90625 15.40625 
Q 4.90625 20.796875 7.75 25.25 
Q 10.59375 29.703125 17.703125 34.5 
Q 6 41.40625 6 51.40625 
Q 6 58.59375 11.546875 63.09375 
Q 17.09375 67.59375 25.59375 67.59375 
Q 32.90625 67.59375 37.796875 62.84375 
Q 42.703125 58.09375 42.703125 52 
Q 42.703125 46.40625 40.09375 42.703125 
Q 37.5 39 31.09375 35.296875 
Q 44.703125 27 44.703125 16.09375 
z
M 35.5 51.5 
Q 35.5 55.5 32.390625 58 
Q 29.296875 60.5 24.40625 60.5 
Q 19.796875 60.5 16.84375 57.84375 
Q 13.90625 55.203125 13.90625 51.796875 
Q 13.90625 47.5 16.34375 44.84375 
Q 18.796875 42.203125 24.90625 39.40625 
Q 35.5 45.203125 35.5 51.5 
z
M 27.59375 28.59375 
L 24.09375 30.5 
Q 18.90625 28.703125 15.84375 24.640625 
Q 12.796875 20.59375 12.796875 16.296875 
Q 12.796875 11.796875 16 8.75 
Q 19.203125 5.703125 25.203125 5.703125 
Q 29.796875 5.703125 33.296875 8.453125 
Q 36.796875 11.203125 36.796875 15.796875 
Q 36.796875 20 34.6875 22.953125 
Q 32.59375 25.90625 27.59375 28.59375 
z
" id="STIXGeneral-Regular-1d7ea"/>
      </defs>
      <g transform="translate(179.738909 150.33875)scale(0.08 -0.08)">
       <use transform="translate(0 0.40625)" xlink:href="#STIXGeneral-Regular-1d7e2"/>
       <use transform="translate(49.999985 0.40625)" xlink:href="#STIXGeneral-Regular-2e"/>
       <use transform="translate(74.999969 0.40625)" xlink:href="#STIXGeneral-Regular-1d7ea"/>
      </g>
     </g>
    </g>
    <g id="xtick_6">
     <g id="line2d_11">
      <g>
       <use style="stroke:#000000;stroke-width:0.8;" x="221.851636" xlink:href="#mdeb0efa41b" y="140.76"/>
      </g>
     </g>
     <g id="line2d_12">
      <g>
       <use style="stroke:#000000;stroke-width:0.8;" x="221.851636" xlink:href="#m72e22f6f54" y="3.312"/>
      </g>
     </g>
     <g id="text_6">
      <!-- $1$ -->
      <defs>
       <path d="M 30.203125 0 
L 22.296875 0 
L 22.296875 57 
Q 20.09375 56 15.75 53.75 
Q 11.40625 51.5 10.796875 51.203125 
L 10.796875 58.5 
L 28.796875 67.703125 
L 30.203125 67.203125 
z
" id="STIXGeneral-Regular-1d7e3"/>
      </defs>
      <g transform="translate(219.851636 150.33875)scale(0.08 -0.08)">
       <use transform="translate(0 0.296875)" xlink:href="#STIXGeneral-Regular-1d7e3"/>
      </g>
     </g>
    </g>
    <g id="xtick_7">
     <g id="line2d_13">
      <defs>
       <path d="M 0 0 
L 0 -1.5 
" id="me40e690408" style="stroke:#000000;stroke-width:0.6;"/>
      </defs>
      <g>
       <use style="stroke:#000000;stroke-width:0.6;" x="54.844364" xlink:href="#me40e690408" y="140.76"/>
      </g>
     </g>
     <g id="line2d_14">
      <defs>
       <path d="M 0 0 
L 0 1.5 
" id="mf774542b9f" style="stroke:#000000;stroke-width:0.6;"/>
      </defs>
      <g>
       <use style="stroke:#000000;stroke-width:0.6;" x="54.844364" xlink:href="#mf774542b9f" y="3.312"/>
      </g>
     </g>
    </g>
    <g id="xtick_8">
     <g id="line2d_15">
      <g>
       <use style="stroke:#000000;stroke-width:0.6;" x="91.957091" xlink:href="#me40e690408" y="140.76"/>
      </g>
     </g>
     <g id="line2d_16">
      <g>
       <use style="stroke:#000000;stroke-width:0.6;" x="91.957091" xlink:href="#mf774542b9f" y="3.312"/>
      </g>
     </g>
    </g>
    <g id="xtick_9">
     <g id="line2d_17">
      <g>
       <use style="stroke:#000000;stroke-width:0.6;" x="129.069818" xlink:href="#me40e690408" y="140.76"/>
      </g>
     </g>
     <g id="line2d_18">
      <g>
       <use style="stroke:#000000;stroke-width:0.6;" x="129.069818" xlink:href="#mf774542b9f" y="3.312"/>
      </g>
     </g>
    </g>
    <g id="xtick_10">
     <g id="line2d_19">
      <g>
       <use style="stroke:#000000;stroke-width:0.6;" x="166.182545" xlink:href="#me40e690408" y="140.76"/>
      </g>
     </g>
     <g id="line2d_20">
      <g>
       <use style="stroke:#000000;stroke-width:0.6;" x="166.182545" xlink:href="#mf774542b9f" y="3.312"/>
      </g>
     </g>
    </g>
    <g id="xtick_11">
     <g id="line2d_21">
      <g>
       <use style="stroke:#000000;stroke-width:0.6;" x="203.295273" xlink:href="#me40e690408" y="140.76"/>
      </g>
     </g>
     <g id="line2d_22">
      <g>
       <use style="stroke:#000000;stroke-width:0.6;" x="203.295273" xlink:href="#mf774542b9f" y="3.312"/>
      </g>
     </g>
    </g>
    <g id="text_7">
     <!-- $h/\mu$ -->
     <defs>
      <path d="M 31.09375 67.90625 
L 24.203125 40.5 
Q 28.59375 44 32.25 45.140625 
Q 35.90625 46.296875 40.5 46.296875 
Q 45.40625 46.296875 48.203125 43.796875 
Q 51 41.296875 51 36.59375 
Q 51 34.5 50.40625 32.09375 
L 42.40625 0 
L 34.5 0 
L 42 30.40625 
Q 42.5 32.59375 42.5 33.796875 
Q 42.5 39.203125 36 39.203125 
Q 33.09375 39.203125 28.640625 36.703125 
Q 24.203125 34.203125 21.703125 30.203125 
L 14.203125 0 
L 6.296875 0 
L 22.703125 66 
L 30.296875 68.40625 
z
" id="STIXGeneral-Italic-1d629"/>
      <path d="M 28.703125 67.59375 
L 5.90625 -1.40625 
L -0.90625 -1.40625 
L 22 67.59375 
z
" id="STIXGeneral-Regular-2f"/>
      <path d="M 53.59375 45.296875 
L 45.5 12.796875 
Q 45 11 45 9.703125 
Q 45 6.09375 49.703125 6.09375 
L 49.296875 4.703125 
L 45.59375 -1 
Q 39.40625 -1 37.5 2.09375 
Q 36.59375 3.5 36.59375 6.40625 
L 21.59375 -1 
Q 16 -1 14.09375 1.5 
L 10.59375 -12.59375 
Q 9.296875 -17.90625 6.796875 -21.5 
L -0.90625 -21.5 
Q 2 -17 3.09375 -12.703125 
L 17.5 45.296875 
L 25.40625 45.296875 
L 17.90625 14.90625 
Q 17.40625 12.703125 17.40625 11.40625 
Q 17.40625 6.09375 23.90625 6.09375 
Q 26.703125 6.09375 31.34375 9.046875 
Q 36 12 38.5 16.09375 
L 45.703125 45.296875 
z
" id="STIXNonUnicode-Italic-e1e3"/>
     </defs>
     <g transform="translate(123.749818 161.985)scale(0.08 -0.08)">
      <use transform="translate(0 0.59375)" xlink:href="#STIXGeneral-Italic-1d629"/>
      <use transform="translate(48.699997 0.59375)" xlink:href="#STIXGeneral-Regular-2f"/>
      <use transform="translate(76.499985 0.59375)" xlink:href="#STIXNonUnicode-Italic-e1e3"/>
     </g>
    </g>
   </g>
   <g id="matplotlib.axis_2">
    <g id="ytick_1">
     <g id="line2d_23">
      <defs>
       <path d="M 0 0 
L 2.5 0 
" id="me15c49b69b" style="stroke:#000000;stroke-width:0.8;"/>
      </defs>
      <g>
       <use style="stroke:#000000;stroke-width:0.8;" x="36.288" xlink:href="#me15c49b69b" y="140.76"/>
      </g>
     </g>
     <g id="line2d_24">
      <defs>
       <path d="M 0 0 
L -2.5 0 
" id="m307091361a" style="stroke:#000000;stroke-width:0.8;"/>
      </defs>
      <g>
       <use style="stroke:#000000;stroke-width:0.8;" x="221.851636" xlink:href="#m307091361a" y="140.76"/>
      </g>
     </g>
     <g id="text_8">
      <!-- $0$ -->
      <g transform="translate(28.788 143.799375)scale(0.08 -0.08)">
       <use transform="translate(0 0.40625)" xlink:href="#STIXGeneral-Regular-1d7e2"/>
      </g>
     </g>
    </g>
    <g id="ytick_2">
     <g id="line2d_25">
      <g>
       <use style="stroke:#000000;stroke-width:0.8;" x="36.288" xlink:href="#me15c49b69b" y="113.2704"/>
      </g>
     </g>
     <g id="line2d_26">
      <g>
       <use style="stroke:#000000;stroke-width:0.8;" x="221.851636" xlink:href="#m307091361a" y="113.2704"/>
      </g>
     </g>
     <g id="text_9">
      <!-- $0.15$ -->
      <defs>
       <path d="M 45.796875 67.59375 
L 42.59375 60.5 
L 24.90625 60.5 
L 18.5 47.796875 
Q 29.90625 46.203125 37.25 39.75 
Q 44.59375 33.296875 44.59375 22.59375 
Q 44.59375 12.703125 37.84375 5.640625 
Q 31.09375 -1.40625 21 -1.40625 
Q 10 -1.40625 3.59375 5.59375 
L 8.296875 11.203125 
Q 13.40625 5.703125 20.5 5.703125 
Q 27.90625 5.703125 32.296875 10.75 
Q 36.703125 15.796875 36.703125 22.59375 
Q 36.703125 30 30.09375 35.203125 
Q 23.40625 40.703125 9.40625 40.703125 
L 8 42.40625 
L 19.59375 67.59375 
z
" id="STIXGeneral-Regular-1d7e7"/>
      </defs>
      <g transform="translate(18.788 116.309775)scale(0.08 -0.08)">
       <use transform="translate(0 0.296875)" xlink:href="#STIXGeneral-Regular-1d7e2"/>
       <use transform="translate(49.999985 0.296875)" xlink:href="#STIXGeneral-Regular-2e"/>
       <use transform="translate(74.999969 0.296875)" xlink:href="#STIXGeneral-Regular-1d7e3"/>
       <use transform="translate(124.999954 0.296875)" xlink:href="#STIXGeneral-Regular-1d7e7"/>
      </g>
     </g>
    </g>
    <g id="ytick_3">
     <g id="line2d_27">
      <g>
       <use style="stroke:#000000;stroke-width:0.8;" x="36.288" xlink:href="#me15c49b69b" y="85.7808"/>
      </g>
     </g>
     <g id="line2d_28">
      <g>
       <use style="stroke:#000000;stroke-width:0.8;" x="221.851636" xlink:href="#m307091361a" y="85.7808"/>
      </g>
     </g>
     <g id="text_10">
      <!-- $0.3$ -->
      <defs>
       <path d="M 11.296875 49.203125 
L 4.203125 50.90625 
Q 6.40625 58.703125 11.5 63.140625 
Q 16.59375 67.59375 24.296875 67.59375 
Q 31.40625 67.59375 36.203125 63.09375 
Q 41 58.59375 41 51.90625 
Q 41 43 32.40625 37 
Q 38 35 41.046875 30.34375 
Q 44.09375 25.703125 44.09375 21 
Q 44.09375 11.296875 37.796875 5 
Q 31.40625 -1.40625 20.5 -1.40625 
Q 9.5 -1.40625 3.09375 5.59375 
L 7.796875 11.203125 
Q 12.90625 5.703125 20 5.703125 
Q 27.40625 5.703125 31.59375 9.296875 
Q 36.203125 13.203125 36.203125 19.09375 
Q 36.203125 24.296875 32.453125 27.796875 
Q 28.703125 31.296875 22.203125 32.203125 
L 15.796875 32.203125 
L 15.796875 34.296875 
L 20.59375 39.40625 
Q 25.09375 39.40625 29.09375 42.84375 
Q 33.09375 46.296875 33.09375 51.203125 
Q 33.09375 55.40625 30.4375 57.953125 
Q 27.796875 60.5 24 60.5 
Q 20 60.5 16.546875 57.640625 
Q 13.09375 54.796875 11.296875 49.203125 
z
" id="STIXGeneral-Regular-1d7e5"/>
      </defs>
      <g transform="translate(22.788 88.820175)scale(0.08 -0.08)">
       <use transform="translate(0 0.40625)" xlink:href="#STIXGeneral-Regular-1d7e2"/>
       <use transform="translate(49.999985 0.40625)" xlink:href="#STIXGeneral-Regular-2e"/>
       <use transform="translate(74.999969 0.40625)" xlink:href="#STIXGeneral-Regular-1d7e5"/>
      </g>
     </g>
    </g>
    <g id="ytick_4">
     <g id="line2d_29">
      <g>
       <use style="stroke:#000000;stroke-width:0.8;" x="36.288" xlink:href="#me15c49b69b" y="58.2912"/>
      </g>
     </g>
     <g id="line2d_30">
      <g>
       <use style="stroke:#000000;stroke-width:0.8;" x="221.851636" xlink:href="#m307091361a" y="58.2912"/>
      </g>
     </g>
     <g id="text_11">
      <!-- $0.45$ -->
      <g transform="translate(18.788 61.330575)scale(0.08 -0.08)">
       <use transform="translate(0 0.40625)" xlink:href="#STIXGeneral-Regular-1d7e2"/>
       <use transform="translate(49.999985 0.40625)" xlink:href="#STIXGeneral-Regular-2e"/>
       <use transform="translate(74.999969 0.40625)" xlink:href="#STIXGeneral-Regular-1d7e6"/>
       <use transform="translate(124.999954 0.40625)" xlink:href="#STIXGeneral-Regular-1d7e7"/>
      </g>
     </g>
    </g>
    <g id="ytick_5">
     <g id="line2d_31">
      <g>
       <use style="stroke:#000000;stroke-width:0.8;" x="36.288" xlink:href="#me15c49b69b" y="30.8016"/>
      </g>
     </g>
     <g id="line2d_32">
      <g>
       <use style="stroke:#000000;stroke-width:0.8;" x="221.851636" xlink:href="#m307091361a" y="30.8016"/>
      </g>
     </g>
     <g id="text_12">
      <!-- $0.6$ -->
      <g transform="translate(22.788 33.840975)scale(0.08 -0.08)">
       <use transform="translate(0 0.59375)" xlink:href="#STIXGeneral-Regular-1d7e2"/>
       <use transform="translate(49.999985 0.59375)" xlink:href="#STIXGeneral-Regular-2e"/>
       <use transform="translate(74.999969 0.59375)" xlink:href="#STIXGeneral-Regular-1d7e8"/>
      </g>
     </g>
    </g>
    <g id="ytick_6">
     <g id="line2d_33">
      <g>
       <use style="stroke:#000000;stroke-width:0.8;" x="36.288" xlink:href="#me15c49b69b" y="3.312"/>
      </g>
     </g>
     <g id="line2d_34">
      <g>
       <use style="stroke:#000000;stroke-width:0.8;" x="221.851636" xlink:href="#m307091361a" y="3.312"/>
      </g>
     </g>
     <g id="text_13">
      <!-- $0.75$ -->
      <defs>
       <path d="M 45.09375 64.203125 
L 23 -0.796875 
L 14.796875 -0.796875 
L 35.40625 59.09375 
L 3.796875 59.09375 
L 6.90625 66.203125 
L 45.09375 66.203125 
z
" id="STIXGeneral-Regular-1d7e9"/>
      </defs>
      <g transform="translate(18.788 6.351375)scale(0.08 -0.08)">
       <use transform="translate(0 0.40625)" xlink:href="#STIXGeneral-Regular-1d7e2"/>
       <use transform="translate(49.999985 0.40625)" xlink:href="#STIXGeneral-Regular-2e"/>
       <use transform="translate(74.999969 0.40625)" xlink:href="#STIXGeneral-Regular-1d7e9"/>
       <use transform="translate(124.999954 0.40625)" xlink:href="#STIXGeneral-Regular-1d7e7"/>
      </g>
     </g>
    </g>
    <g id="ytick_7">
     <g id="line2d_35">
      <defs>
       <path d="M 0 0 
L 1.5 0 
" id="m0916895e07" style="stroke:#000000;stroke-width:0.6;"/>
      </defs>
      <g>
       <use style="stroke:#000000;stroke-width:0.6;" x="36.288" xlink:href="#m0916895e07" y="127.0152"/>
      </g>
     </g>
     <g id="line2d_36">
      <defs>
       <path d="M 0 0 
L -1.5 0 
" id="m84c6375b29" style="stroke:#000000;stroke-width:0.6;"/>
      </defs>
      <g>
       <use style="stroke:#000000;stroke-width:0.6;" x="221.851636" xlink:href="#m84c6375b29" y="127.0152"/>
      </g>
     </g>
    </g>
    <g id="ytick_8">
     <g id="line2d_37">
      <g>
       <use style="stroke:#000000;stroke-width:0.6;" x="36.288" xlink:href="#m0916895e07" y="99.5256"/>
      </g>
     </g>
     <g id="line2d_38">
      <g>
       <use style="stroke:#000000;stroke-width:0.6;" x="221.851636" xlink:href="#m84c6375b29" y="99.5256"/>
      </g>
     </g>
    </g>
    <g id="ytick_9">
     <g id="line2d_39">
      <g>
       <use style="stroke:#000000;stroke-width:0.6;" x="36.288" xlink:href="#m0916895e07" y="72.036"/>
      </g>
     </g>
     <g id="line2d_40">
      <g>
       <use style="stroke:#000000;stroke-width:0.6;" x="221.851636" xlink:href="#m84c6375b29" y="72.036"/>
      </g>
     </g>
    </g>
    <g id="ytick_10">
     <g id="line2d_41">
      <g>
       <use style="stroke:#000000;stroke-width:0.6;" x="36.288" xlink:href="#m0916895e07" y="44.5464"/>
      </g>
     </g>
     <g id="line2d_42">
      <g>
       <use style="stroke:#000000;stroke-width:0.6;" x="221.851636" xlink:href="#m84c6375b29" y="44.5464"/>
      </g>
     </g>
    </g>
    <g id="ytick_11">
     <g id="line2d_43">
      <g>
       <use style="stroke:#000000;stroke-width:0.6;" x="36.288" xlink:href="#m0916895e07" y="17.0568"/>
      </g>
     </g>
     <g id="line2d_44">
      <g>
       <use style="stroke:#000000;stroke-width:0.6;" x="221.851636" xlink:href="#m84c6375b29" y="17.0568"/>
      </g>
     </g>
    </g>
    <g id="text_14">
     <!-- $T/\mu$ -->
     <defs>
      <path d="M 74.796875 66.203125 
L 73.90625 58.796875 
L 49.40625 58.796875 
L 34.703125 0 
L 26 0 
L 40.59375 58.796875 
L 16.09375 58.796875 
L 19 66.203125 
z
" id="STIXGeneral-Italic-1d61b"/>
     </defs>
     <g transform="translate(13.028 77.836)rotate(-90)scale(0.08 -0.08)">
      <use transform="translate(0 0.40625)" xlink:href="#STIXGeneral-Italic-1d61b"/>
      <use transform="translate(60.799988 0.40625)" xlink:href="#STIXGeneral-Regular-2f"/>
      <use transform="translate(88.599976 0.40625)" xlink:href="#STIXNonUnicode-Italic-e1e3"/>
     </g>
    </g>
   </g>
   <g id="line2d_45">
    <path clip-path="url(#p83eba0f02f)" d="M 36.634895 47.010985 
L 38.507383 47.010985 
L 41.315955 47.105777 
L 45.24802 47.200568 
L 47.307596 47.29536 
L 50.303417 47.390152 
L 52.363155 47.390152 
L 54.984316 47.579735 
L 57.41839 47.674527 
L 59.665054 47.86411 
L 61.162883 47.958902 
L 63.784045 48.148486 
L 66.217957 48.338069 
L 68.839119 48.527652 
L 71.179245 48.812028 
L 73.706621 49.096403 
L 76.140211 49.47557 
L 77.076294 49.570361 
L 80.446289 49.854737 
L 81.943957 50.04432 
L 84.564796 50.423487 
L 86.062303 50.707862 
L 87.279097 50.897446 
L 89.619386 51.087029 
L 91.678477 51.466196 
L 92.708023 51.655779 
L 94.486404 51.940154 
L 98.230251 52.603697 
L 99.540509 52.888072 
L 101.038016 53.172447 
L 102.72261 53.551614 
L 103.939243 53.835989 
L 105.43675 54.120364 
L 106.279047 54.309948 
L 107.963641 54.689114 
L 109.460987 55.068281 
L 111.707166 55.54224 
L 113.766097 56.016199 
L 115.169818 56.395366 
L 118.351757 57.153699 
L 120.129653 57.72245 
L 122.56292 58.2912 
L 124.808615 59.049534 
L 126.77376 59.618284 
L 128.64528 60.187034 
L 130.423176 60.755785 
L 131.920198 61.324535 
L 133.885343 61.893286 
L 136.318125 62.746411 
L 138.657283 63.599537 
L 139.592882 63.978703 
L 141.089743 64.642246 
L 143.896701 65.684954 
L 146.142396 66.443288 
L 147.826506 67.10683 
L 148.949192 67.580789 
L 151.381652 68.623498 
L 153.439775 69.571415 
L 153.81395 69.760999 
L 155.684986 70.614124 
L 156.807511 71.182874 
L 159.239809 72.320375 
L 161.48502 73.363084 
L 162.23337 73.742251 
L 163.168807 74.21621 
L 164.478581 74.78496 
L 167.097644 76.206836 
L 168.033081 76.680794 
L 169.529781 77.439128 
L 172.335931 78.955796 
L 174.019557 79.903713 
L 176.919331 81.420381 
L 178.135319 82.083923 
L 179.444931 82.747465 
L 181.689819 83.979757 
L 183.74762 85.117258 
L 185.618333 86.159967 
L 188.330698 87.771426 
L 189.733773 88.52976 
L 191.791412 89.762052 
L 194.784488 91.468303 
L 197.029376 92.700596 
L 198.712841 93.743305 
L 201.331742 95.259972 
L 205.07333 97.250599 
L 207.131131 98.388099 
L 209.188931 99.5256 
L 211.433496 100.947476 
L 214.239808 102.369352 
L 216.765408 103.696436 
L 219.384632 105.02352 
L 220.974795 105.876646 
" style="fill:none;stroke:#000000;stroke-dasharray:1,1.65;stroke-dashoffset:0;"/>
   </g>
   <g id="line2d_46">
    <path clip-path="url(#p83eba0f02f)" d="M 36.506565 67.391206 
L 36.600189 67.391206 
L 39.221512 67.485997 
L 43.340826 67.580789 
L 45.7749 67.675581 
L 48.77072 67.770372 
L 51.017545 67.865164 
L 54.949449 68.054748 
L 57.758182 68.054748 
L 60.004846 68.244331 
L 63.187592 68.528706 
L 65.995841 68.813081 
L 69.927422 69.192248 
L 74.233662 69.476623 
L 77.416247 69.85579 
L 80.973492 70.140166 
L 83.313618 70.424541 
L 87.151413 70.898499 
L 93.329012 71.846417 
L 98.944702 72.889126 
L 103.998808 73.837043 
L 109.240001 74.879752 
L 113.919286 76.017252 
L 116.726727 76.775586 
L 122.342095 78.007879 
L 127.956817 79.619338 
L 131.886945 80.85163 
L 134.881152 81.894339 
L 139.185454 83.316215 
L 142.366587 84.548508 
L 146.670405 86.254759 
L 151.348237 88.245385 
L 153.593448 89.288094 
L 158.457884 91.657887 
L 162.760734 93.932888 
L 165.192709 95.259972 
L 167.624362 96.77664 
L 171.271679 99.146433 
L 173.609223 100.947476 
L 175.666055 102.653727 
L 177.254442 104.549561 
" style="fill:none;stroke:#000000;stroke-linecap:square;"/>
   </g>
   <g id="line2d_47">
    <path clip-path="url(#p83eba0f02f)" d="M 36.614122 67.647021 
L 41.669019 67.651512 
L 43.625754 67.735677 
L 47.376161 67.821437 
L 50.311263 67.906472 
L 52.920242 68.073645 
L 55.203098 68.322956 
L 58.464322 68.490708 
L 61.399424 68.740599 
L 63.519219 68.907337 
L 66.780443 69.322372 
L 68.247994 69.488531 
L 71.998401 69.739146 
L 74.770441 70.071319 
L 77.216359 70.320775 
L 78.846971 70.651934 
L 81.292889 70.983817 
L 85.369419 71.482004 
L 89.772071 72.062908 
L 92.707172 72.560082 
L 96.45758 73.470117 
L 100.207987 74.215297 
L 102.490844 74.711891 
L 105.589007 75.291636 
L 108.85023 76.118809 
L 111.296148 76.780403 
L 113.415944 77.276852 
L 115.535739 77.855728 
L 117.00329 78.186742 
L 119.286147 78.848191 
L 124.667166 80.25424 
L 127.439206 81.080979 
L 130.048185 81.99 
L 132.820226 82.981594 
L 134.124715 83.559746 
L 137.712061 84.964202 
L 140.891755 86.203441 
L 142.440836 86.78181 
L 146.517366 88.269128 
L 148.800222 89.342715 
L 151.24614 90.498874 
L 153.528997 91.490033 
L 155.404201 92.398402 
L 157.605527 93.471917 
L 159.154608 94.297569 
L 160.78522 95.040866 
L 162.986546 96.279235 
L 166.410831 98.095684 
L 169.590524 100.076771 
L 172.444095 101.975141 
L 175.053074 103.955721 
L 177.254442 104.549561 
" style="fill:none;stroke:#808080;stroke-dasharray:3.7,1.6;stroke-dashoffset:0;"/>
   </g>
   <g id="line2d_48">
    <path clip-path="url(#p83eba0f02f)" d="M 177.441207 104.833937 
L 179.685288 106.540188 
L 181.273675 108.436022 
L 182.768276 110.426648 
L 184.075306 112.606858 
L 185.288711 114.787068 
L 186.408168 117.156861 
L 187.340054 119.716237 
L 188.178639 122.08603 
L 188.92376 124.361032 
L 189.668074 127.109992 
L 190.132 129.574577 
L 190.596086 131.94437 
L 190.778815 134.598538 
L 190.961383 137.347498 
L 191.04968 140.475625 
" style="fill:none;stroke:#808080;stroke-dasharray:3.7,1.6;stroke-dashoffset:0;"/>
   </g>
   <g id="patch_3">
    <path d="M 36.288 140.76 
L 36.288 3.312 
" style="fill:none;stroke:#000000;stroke-linecap:square;stroke-linejoin:miter;stroke-width:0.8;"/>
   </g>
   <g id="patch_4">
    <path d="M 221.851636 140.76 
L 221.851636 3.312 
" style="fill:none;stroke:#000000;stroke-linecap:square;stroke-linejoin:miter;stroke-width:0.8;"/>
   </g>
   <g id="patch_5">
    <path d="M 36.288 140.76 
L 221.851636 140.76 
" style="fill:none;stroke:#000000;stroke-linecap:square;stroke-linejoin:miter;stroke-width:0.8;"/>
   </g>
   <g id="patch_6">
    <path d="M 36.288 3.312 
L 221.851636 3.312 
" style="fill:none;stroke:#000000;stroke-linecap:square;stroke-linejoin:miter;stroke-width:0.8;"/>
   </g>
   <g id="patch_7">
    <path d="M 129.234044 101.758241 
Q 137.598291 96.159003 145.033462 91.181712 
" style="fill:none;stroke:#db7502;stroke-linecap:round;"/>
    <path d="M 142.37154 91.51961 
L 145.033462 91.181712 
L 143.706627 93.513988 
L 142.37154 91.51961 
z
" style="fill:#db7502;stroke:#db7502;stroke-linecap:round;"/>
   </g>
   <g id="text_15">
    <!-- Sarma -->
    <defs>
     <path d="M 53.515625 70.515625 
L 53.515625 60.890625 
Q 47.90625 63.578125 42.921875 64.890625 
Q 37.9375 66.21875 33.296875 66.21875 
Q 25.25 66.21875 20.875 63.09375 
Q 16.5 59.96875 16.5 54.203125 
Q 16.5 49.359375 19.40625 46.890625 
Q 22.3125 44.4375 30.421875 42.921875 
L 36.375 41.703125 
Q 47.40625 39.59375 52.65625 34.296875 
Q 57.90625 29 57.90625 20.125 
Q 57.90625 9.515625 50.796875 4.046875 
Q 43.703125 -1.421875 29.984375 -1.421875 
Q 24.8125 -1.421875 18.96875 -0.25 
Q 13.140625 0.921875 6.890625 3.21875 
L 6.890625 13.375 
Q 12.890625 10.015625 18.65625 8.296875 
Q 24.421875 6.59375 29.984375 6.59375 
Q 38.421875 6.59375 43.015625 9.90625 
Q 47.609375 13.234375 47.609375 19.390625 
Q 47.609375 24.75 44.3125 27.78125 
Q 41.015625 30.8125 33.5 32.328125 
L 27.484375 33.5 
Q 16.453125 35.6875 11.515625 40.375 
Q 6.59375 45.0625 6.59375 53.421875 
Q 6.59375 63.09375 13.40625 68.65625 
Q 20.21875 74.21875 32.171875 74.21875 
Q 37.3125 74.21875 42.625 73.28125 
Q 47.953125 72.359375 53.515625 70.515625 
z
" id="DejaVuSans-53"/>
     <path d="M 34.28125 27.484375 
Q 23.390625 27.484375 19.1875 25 
Q 14.984375 22.515625 14.984375 16.5 
Q 14.984375 11.71875 18.140625 8.90625 
Q 21.296875 6.109375 26.703125 6.109375 
Q 34.1875 6.109375 38.703125 11.40625 
Q 43.21875 16.703125 43.21875 25.484375 
L 43.21875 27.484375 
z
M 52.203125 31.203125 
L 52.203125 0 
L 43.21875 0 
L 43.21875 8.296875 
Q 40.140625 3.328125 35.546875 0.953125 
Q 30.953125 -1.421875 24.3125 -1.421875 
Q 15.921875 -1.421875 10.953125 3.296875 
Q 6 8.015625 6 15.921875 
Q 6 25.140625 12.171875 29.828125 
Q 18.359375 34.515625 30.609375 34.515625 
L 43.21875 34.515625 
L 43.21875 35.40625 
Q 43.21875 41.609375 39.140625 45 
Q 35.0625 48.390625 27.6875 48.390625 
Q 23 48.390625 18.546875 47.265625 
Q 14.109375 46.140625 10.015625 43.890625 
L 10.015625 52.203125 
Q 14.9375 54.109375 19.578125 55.046875 
Q 24.21875 56 28.609375 56 
Q 40.484375 56 46.34375 49.84375 
Q 52.203125 43.703125 52.203125 31.203125 
z
" id="DejaVuSans-61"/>
     <path d="M 41.109375 46.296875 
Q 39.59375 47.171875 37.8125 47.578125 
Q 36.03125 48 33.890625 48 
Q 26.265625 48 22.1875 43.046875 
Q 18.109375 38.09375 18.109375 28.8125 
L 18.109375 0 
L 9.078125 0 
L 9.078125 54.6875 
L 18.109375 54.6875 
L 18.109375 46.1875 
Q 20.953125 51.171875 25.484375 53.578125 
Q 30.03125 56 36.53125 56 
Q 37.453125 56 38.578125 55.875 
Q 39.703125 55.765625 41.0625 55.515625 
z
" id="DejaVuSans-72"/>
     <path d="M 52 44.1875 
Q 55.375 50.25 60.0625 53.125 
Q 64.75 56 71.09375 56 
Q 79.640625 56 84.28125 50.015625 
Q 88.921875 44.046875 88.921875 33.015625 
L 88.921875 0 
L 79.890625 0 
L 79.890625 32.71875 
Q 79.890625 40.578125 77.09375 44.375 
Q 74.3125 48.1875 68.609375 48.1875 
Q 61.625 48.1875 57.5625 43.546875 
Q 53.515625 38.921875 53.515625 30.90625 
L 53.515625 0 
L 44.484375 0 
L 44.484375 32.71875 
Q 44.484375 40.625 41.703125 44.40625 
Q 38.921875 48.1875 33.109375 48.1875 
Q 26.21875 48.1875 22.15625 43.53125 
Q 18.109375 38.875 18.109375 30.90625 
L 18.109375 0 
L 9.078125 0 
L 9.078125 54.6875 
L 18.109375 54.6875 
L 18.109375 46.1875 
Q 21.1875 51.21875 25.484375 53.609375 
Q 29.78125 56 35.6875 56 
Q 41.65625 56 45.828125 52.96875 
Q 50 49.953125 52 44.1875 
z
" id="DejaVuSans-6d"/>
    </defs>
    <g style="fill:#db7502;" transform="translate(110.513455 109.428105)scale(0.06 -0.06)">
     <use xlink:href="#DejaVuSans-53"/>
     <use x="63.476562" xlink:href="#DejaVuSans-61"/>
     <use x="124.755859" xlink:href="#DejaVuSans-72"/>
     <use x="165.853516" xlink:href="#DejaVuSans-6d"/>
     <use x="263.265625" xlink:href="#DejaVuSans-61"/>
    </g>
   </g>
   <g id="text_16">
    <!-- $2^{\mathrm{nd}}$ order transition -->
    <defs>
     <path d="M 42.40625 0 
L 34.5 0 
L 34.5 30.40625 
Q 34.5 39.203125 26.296875 39.203125 
Q 23.40625 39.203125 19.5 36.703125 
Q 15.59375 34.203125 14.203125 30.203125 
L 14.203125 0 
L 6.296875 0 
L 6.296875 44 
L 12.796875 46.40625 
L 13.703125 45.90625 
L 13.90625 40.203125 
Q 17.59375 43.796875 21.046875 45.046875 
Q 24.5 46.296875 29 46.296875 
Q 31.90625 46.296875 34.90625 44.9375 
Q 37.90625 43.59375 39.703125 41.796875 
Q 42.40625 38.203125 42.40625 32.09375 
z
" id="STIXGeneral-Regular-1d5c7"/>
     <path d="M 43.703125 1.296875 
L 36.5 -1.09375 
L 35.59375 -0.59375 
L 35.40625 4.40625 
Q 29.796875 -1 21.703125 -1 
Q 16.5 -1 12.59375 1.296875 
Q 8.296875 3.90625 5.546875 9.203125 
Q 2.796875 14.5 2.796875 20.90625 
Q 2.796875 31.5 9.140625 38.890625 
Q 15.5 46.296875 24.5 46.296875 
Q 30.09375 46.296875 35.203125 42.59375 
L 35.203125 66 
L 42.203125 68.40625 
L 43.09375 67.90625 
L 43.09375 12.796875 
Q 43.09375 6.203125 43.703125 1.296875 
z
M 35.203125 15.796875 
L 35.203125 32.90625 
Q 30.90625 39.203125 24.90625 39.203125 
Q 19.40625 39.203125 15.046875 34.390625 
Q 10.703125 29.59375 10.703125 22.203125 
Q 10.703125 17.90625 12.203125 14.15625 
Q 13.703125 10.40625 16.296875 8.5 
Q 19.5 6.09375 23.703125 6.09375 
Q 27.203125 6.09375 30.390625 8.75 
Q 33.59375 11.40625 35.203125 15.796875 
z
" id="STIXGeneral-Regular-1d5bd"/>
     <path id="DejaVuSans-20"/>
     <path d="M 30.609375 48.390625 
Q 23.390625 48.390625 19.1875 42.75 
Q 14.984375 37.109375 14.984375 27.296875 
Q 14.984375 17.484375 19.15625 11.84375 
Q 23.34375 6.203125 30.609375 6.203125 
Q 37.796875 6.203125 41.984375 11.859375 
Q 46.1875 17.53125 46.1875 27.296875 
Q 46.1875 37.015625 41.984375 42.703125 
Q 37.796875 48.390625 30.609375 48.390625 
z
M 30.609375 56 
Q 42.328125 56 49.015625 48.375 
Q 55.71875 40.765625 55.71875 27.296875 
Q 55.71875 13.875 49.015625 6.21875 
Q 42.328125 -1.421875 30.609375 -1.421875 
Q 18.84375 -1.421875 12.171875 6.21875 
Q 5.515625 13.875 5.515625 27.296875 
Q 5.515625 40.765625 12.171875 48.375 
Q 18.84375 56 30.609375 56 
z
" id="DejaVuSans-6f"/>
     <path d="M 45.40625 46.390625 
L 45.40625 75.984375 
L 54.390625 75.984375 
L 54.390625 0 
L 45.40625 0 
L 45.40625 8.203125 
Q 42.578125 3.328125 38.25 0.953125 
Q 33.9375 -1.421875 27.875 -1.421875 
Q 17.96875 -1.421875 11.734375 6.484375 
Q 5.515625 14.40625 5.515625 27.296875 
Q 5.515625 40.1875 11.734375 48.09375 
Q 17.96875 56 27.875 56 
Q 33.9375 56 38.25 53.625 
Q 42.578125 51.265625 45.40625 46.390625 
z
M 14.796875 27.296875 
Q 14.796875 17.390625 18.875 11.75 
Q 22.953125 6.109375 30.078125 6.109375 
Q 37.203125 6.109375 41.296875 11.75 
Q 45.40625 17.390625 45.40625 27.296875 
Q 45.40625 37.203125 41.296875 42.84375 
Q 37.203125 48.484375 30.078125 48.484375 
Q 22.953125 48.484375 18.875 42.84375 
Q 14.796875 37.203125 14.796875 27.296875 
z
" id="DejaVuSans-64"/>
     <path d="M 56.203125 29.59375 
L 56.203125 25.203125 
L 14.890625 25.203125 
Q 15.484375 15.921875 20.484375 11.0625 
Q 25.484375 6.203125 34.421875 6.203125 
Q 39.59375 6.203125 44.453125 7.46875 
Q 49.3125 8.734375 54.109375 11.28125 
L 54.109375 2.78125 
Q 49.265625 0.734375 44.1875 -0.34375 
Q 39.109375 -1.421875 33.890625 -1.421875 
Q 20.796875 -1.421875 13.15625 6.1875 
Q 5.515625 13.8125 5.515625 26.8125 
Q 5.515625 40.234375 12.765625 48.109375 
Q 20.015625 56 32.328125 56 
Q 43.359375 56 49.78125 48.890625 
Q 56.203125 41.796875 56.203125 29.59375 
z
M 47.21875 32.234375 
Q 47.125 39.59375 43.09375 43.984375 
Q 39.0625 48.390625 32.421875 48.390625 
Q 24.90625 48.390625 20.390625 44.140625 
Q 15.875 39.890625 15.1875 32.171875 
z
" id="DejaVuSans-65"/>
     <path d="M 18.3125 70.21875 
L 18.3125 54.6875 
L 36.8125 54.6875 
L 36.8125 47.703125 
L 18.3125 47.703125 
L 18.3125 18.015625 
Q 18.3125 11.328125 20.140625 9.421875 
Q 21.96875 7.515625 27.59375 7.515625 
L 36.8125 7.515625 
L 36.8125 0 
L 27.59375 0 
Q 17.1875 0 13.234375 3.875 
Q 9.28125 7.765625 9.28125 18.015625 
L 9.28125 47.703125 
L 2.6875 47.703125 
L 2.6875 54.6875 
L 9.28125 54.6875 
L 9.28125 70.21875 
z
" id="DejaVuSans-74"/>
     <path d="M 54.890625 33.015625 
L 54.890625 0 
L 45.90625 0 
L 45.90625 32.71875 
Q 45.90625 40.484375 42.875 44.328125 
Q 39.84375 48.1875 33.796875 48.1875 
Q 26.515625 48.1875 22.3125 43.546875 
Q 18.109375 38.921875 18.109375 30.90625 
L 18.109375 0 
L 9.078125 0 
L 9.078125 54.6875 
L 18.109375 54.6875 
L 18.109375 46.1875 
Q 21.34375 51.125 25.703125 53.5625 
Q 30.078125 56 35.796875 56 
Q 45.21875 56 50.046875 50.171875 
Q 54.890625 44.34375 54.890625 33.015625 
z
" id="DejaVuSans-6e"/>
     <path d="M 44.28125 53.078125 
L 44.28125 44.578125 
Q 40.484375 46.53125 36.375 47.5 
Q 32.28125 48.484375 27.875 48.484375 
Q 21.1875 48.484375 17.84375 46.4375 
Q 14.5 44.390625 14.5 40.28125 
Q 14.5 37.15625 16.890625 35.375 
Q 19.28125 33.59375 26.515625 31.984375 
L 29.59375 31.296875 
Q 39.15625 29.25 43.1875 25.515625 
Q 47.21875 21.78125 47.21875 15.09375 
Q 47.21875 7.46875 41.1875 3.015625 
Q 35.15625 -1.421875 24.609375 -1.421875 
Q 20.21875 -1.421875 15.453125 -0.5625 
Q 10.6875 0.296875 5.421875 2 
L 5.421875 11.28125 
Q 10.40625 8.6875 15.234375 7.390625 
Q 20.0625 6.109375 24.8125 6.109375 
Q 31.15625 6.109375 34.5625 8.28125 
Q 37.984375 10.453125 37.984375 14.40625 
Q 37.984375 18.0625 35.515625 20.015625 
Q 33.0625 21.96875 24.703125 23.78125 
L 21.578125 24.515625 
Q 13.234375 26.265625 9.515625 29.90625 
Q 5.8125 33.546875 5.8125 39.890625 
Q 5.8125 47.609375 11.28125 51.796875 
Q 16.75 56 26.8125 56 
Q 31.78125 56 36.171875 55.265625 
Q 40.578125 54.546875 44.28125 53.078125 
z
" id="DejaVuSans-73"/>
     <path d="M 9.421875 54.6875 
L 18.40625 54.6875 
L 18.40625 0 
L 9.421875 0 
z
M 9.421875 75.984375 
L 18.40625 75.984375 
L 18.40625 64.59375 
L 9.421875 64.59375 
z
" id="DejaVuSans-69"/>
    </defs>
    <g transform="translate(47.421818 85.7808)scale(0.06 -0.06)">
     <use transform="translate(0 0.878125)" xlink:href="#STIXGeneral-Regular-1d7e4"/>
     <use transform="translate(50.79268 37.115625)scale(0.7)" xlink:href="#STIXGeneral-Regular-1d5c7"/>
     <use transform="translate(84.882678 37.115625)scale(0.7)" xlink:href="#STIXGeneral-Regular-1d5bd"/>
     <use transform="translate(121.727517 0.878125)" xlink:href="#DejaVuSans-20"/>
     <use transform="translate(153.514627 0.878125)" xlink:href="#DejaVuSans-6f"/>
     <use transform="translate(214.696267 0.878125)" xlink:href="#DejaVuSans-72"/>
     <use transform="translate(255.809549 0.878125)" xlink:href="#DejaVuSans-64"/>
     <use transform="translate(319.286111 0.878125)" xlink:href="#DejaVuSans-65"/>
     <use transform="translate(380.809549 0.878125)" xlink:href="#DejaVuSans-72"/>
     <use transform="translate(421.92283 0.878125)" xlink:href="#DejaVuSans-20"/>
     <use transform="translate(453.709939 0.878125)" xlink:href="#DejaVuSans-74"/>
     <use transform="translate(492.918924 0.878125)" xlink:href="#DejaVuSans-72"/>
     <use transform="translate(534.032205 0.878125)" xlink:href="#DejaVuSans-61"/>
     <use transform="translate(595.311502 0.878125)" xlink:href="#DejaVuSans-6e"/>
     <use transform="translate(658.690408 0.878125)" xlink:href="#DejaVuSans-73"/>
     <use transform="translate(710.790017 0.878125)" xlink:href="#DejaVuSans-69"/>
     <use transform="translate(738.573221 0.878125)" xlink:href="#DejaVuSans-74"/>
     <use transform="translate(777.782205 0.878125)" xlink:href="#DejaVuSans-69"/>
     <use transform="translate(805.565408 0.878125)" xlink:href="#DejaVuSans-6f"/>
     <use transform="translate(866.747049 0.878125)" xlink:href="#DejaVuSans-6e"/>
    </g>
   </g>
   <g id="text_17">
    <!-- $1^{\mathrm{st}}$ order transition -->
    <defs>
     <path d="M 33 32.09375 
L 31.5 32.09375 
Q 28.703125 36.5 25.890625 37.890625 
Q 23.09375 39.296875 19.203125 39.296875 
Q 16 39.296875 14.390625 37.6875 
Q 12.796875 36.09375 12.796875 34.203125 
Q 12.796875 31.703125 14.890625 29.953125 
Q 17 28.203125 21.203125 26.5 
Q 29.5 23 32.25 20.09375 
Q 35 17.203125 35 11.796875 
Q 35 5.203125 28.90625 1.40625 
Q 25.09375 -1 18.90625 -1 
Q 14.40625 -1 11.34375 0.296875 
Q 8.296875 1.59375 5 4.5 
L 5 14.796875 
L 6.5 14.796875 
Q 10.40625 6.09375 19.5 6.09375 
Q 22.703125 6.09375 24.890625 7.546875 
Q 27.09375 9 27.09375 11.796875 
Q 27.09375 13.796875 25.25 15.25 
Q 23.40625 16.703125 18.5 18.90625 
Q 10.90625 22.296875 7.90625 25.59375 
Q 4.90625 28.90625 4.90625 33.796875 
Q 4.90625 39 8.90625 42.640625 
Q 12.90625 46.296875 19.40625 46.296875 
Q 28 46.296875 33 41 
z
" id="STIXGeneral-Regular-1d5cc"/>
     <path d="M 28.703125 8.703125 
L 27.59375 1.203125 
Q 24.703125 -1 18.796875 -1 
Q 13.703125 -1 10.890625 2.046875 
Q 8.09375 5.09375 8.09375 10.40625 
L 8.09375 38.203125 
L 0.09375 38.203125 
L 0.09375 39.90625 
L 4.59375 45.296875 
L 8.09375 45.296875 
L 8.09375 51.703125 
L 14.203125 58 
L 16 58 
L 16 45.296875 
L 26.40625 45.296875 
L 26.40625 38.203125 
L 16 38.203125 
L 16 13.703125 
Q 16 9.296875 17.296875 7.6875 
Q 18.59375 6.09375 21.09375 6.09375 
Q 24.796875 6.09375 27.5 8.703125 
z
" id="STIXGeneral-Regular-1d5cd"/>
    </defs>
    <g style="fill:#808080;" transform="translate(129.069818 131.5968)scale(0.06 -0.06)">
     <use transform="translate(0 0.1625)" xlink:href="#STIXGeneral-Regular-1d7e3"/>
     <use transform="translate(50.79268 36.4)scale(0.7)" xlink:href="#STIXGeneral-Regular-1d5cc"/>
     <use transform="translate(78.022676 36.4)scale(0.7)" xlink:href="#STIXGeneral-Regular-1d5cd"/>
     <use transform="translate(100.657513 0.1625)" xlink:href="#DejaVuSans-20"/>
     <use transform="translate(132.444622 0.1625)" xlink:href="#DejaVuSans-6f"/>
     <use transform="translate(193.626263 0.1625)" xlink:href="#DejaVuSans-72"/>
     <use transform="translate(234.739544 0.1625)" xlink:href="#DejaVuSans-64"/>
     <use transform="translate(298.216107 0.1625)" xlink:href="#DejaVuSans-65"/>
     <use transform="translate(359.739544 0.1625)" xlink:href="#DejaVuSans-72"/>
     <use transform="translate(400.852826 0.1625)" xlink:href="#DejaVuSans-20"/>
     <use transform="translate(432.639935 0.1625)" xlink:href="#DejaVuSans-74"/>
     <use transform="translate(471.848919 0.1625)" xlink:href="#DejaVuSans-72"/>
     <use transform="translate(512.962201 0.1625)" xlink:href="#DejaVuSans-61"/>
     <use transform="translate(574.241497 0.1625)" xlink:href="#DejaVuSans-6e"/>
     <use transform="translate(637.620404 0.1625)" xlink:href="#DejaVuSans-73"/>
     <use transform="translate(689.720013 0.1625)" xlink:href="#DejaVuSans-69"/>
     <use transform="translate(717.503216 0.1625)" xlink:href="#DejaVuSans-74"/>
     <use transform="translate(756.712201 0.1625)" xlink:href="#DejaVuSans-69"/>
     <use transform="translate(784.495404 0.1625)" xlink:href="#DejaVuSans-6f"/>
     <use transform="translate(845.677044 0.1625)" xlink:href="#DejaVuSans-6e"/>
    </g>
   </g>
   <g id="LineCollection_1">
    <path d="M 36.288 87.61344 
L 36.288 76.6176 
" style="fill:none;stroke:#5fad41;"/>
   </g>
   <g id="LineCollection_2">
    <path d="M 194.017091 140.76 
L 204.408655 140.76 
" style="fill:none;stroke:#5fad41;"/>
   </g>
   <g id="line2d_49">
    <defs>
     <path d="M 2 0 
L -2 -0 
" id="m7edbcd77c0" style="stroke:#5fad41;stroke-width:0.75;"/>
    </defs>
    <g>
     <use style="fill:#5fad41;stroke:#5fad41;stroke-width:0.75;" x="36.288" xlink:href="#m7edbcd77c0" y="87.61344"/>
    </g>
   </g>
   <g id="line2d_50">
    <g>
     <use style="fill:#5fad41;stroke:#5fad41;stroke-width:0.75;" x="36.288" xlink:href="#m7edbcd77c0" y="76.6176"/>
    </g>
   </g>
   <g id="line2d_51">
    <defs>
     <path d="M 0 2 
L 0 -2 
" id="m44ce363934" style="stroke:#5fad41;stroke-width:0.75;"/>
    </defs>
    <g>
     <use style="fill:#5fad41;stroke:#5fad41;stroke-width:0.75;" x="194.017091" xlink:href="#m44ce363934" y="140.76"/>
    </g>
   </g>
   <g id="line2d_52">
    <g>
     <use style="fill:#5fad41;stroke:#5fad41;stroke-width:0.75;" x="204.408655" xlink:href="#m44ce363934" y="140.76"/>
    </g>
   </g>
   <g id="text_18">
    <!-- normal -->
    <defs>
     <path d="M 9.421875 75.984375 
L 18.40625 75.984375 
L 18.40625 0 
L 9.421875 0 
z
" id="DejaVuSans-6c"/>
    </defs>
    <g style="fill:#4a5b1c;" transform="translate(175.460727 21.6384)scale(0.07 -0.07)">
     <use xlink:href="#DejaVuSans-6e"/>
     <use x="63.378906" xlink:href="#DejaVuSans-6f"/>
     <use x="124.560547" xlink:href="#DejaVuSans-72"/>
     <use x="165.658203" xlink:href="#DejaVuSans-6d"/>
     <use x="263.070312" xlink:href="#DejaVuSans-61"/>
     <use x="324.349609" xlink:href="#DejaVuSans-6c"/>
    </g>
   </g>
   <g id="text_19">
    <!-- superfluid -->
    <defs>
     <path d="M 8.5 21.578125 
L 8.5 54.6875 
L 17.484375 54.6875 
L 17.484375 21.921875 
Q 17.484375 14.15625 20.5 10.265625 
Q 23.53125 6.390625 29.59375 6.390625 
Q 36.859375 6.390625 41.078125 11.03125 
Q 45.3125 15.671875 45.3125 23.6875 
L 45.3125 54.6875 
L 54.296875 54.6875 
L 54.296875 0 
L 45.3125 0 
L 45.3125 8.40625 
Q 42.046875 3.421875 37.71875 1 
Q 33.40625 -1.421875 27.6875 -1.421875 
Q 18.265625 -1.421875 13.375 4.4375 
Q 8.5 10.296875 8.5 21.578125 
z
M 31.109375 56 
z
" id="DejaVuSans-75"/>
     <path d="M 18.109375 8.203125 
L 18.109375 -20.796875 
L 9.078125 -20.796875 
L 9.078125 54.6875 
L 18.109375 54.6875 
L 18.109375 46.390625 
Q 20.953125 51.265625 25.265625 53.625 
Q 29.59375 56 35.59375 56 
Q 45.5625 56 51.78125 48.09375 
Q 58.015625 40.1875 58.015625 27.296875 
Q 58.015625 14.40625 51.78125 6.484375 
Q 45.5625 -1.421875 35.59375 -1.421875 
Q 29.59375 -1.421875 25.265625 0.953125 
Q 20.953125 3.328125 18.109375 8.203125 
z
M 48.6875 27.296875 
Q 48.6875 37.203125 44.609375 42.84375 
Q 40.53125 48.484375 33.40625 48.484375 
Q 26.265625 48.484375 22.1875 42.84375 
Q 18.109375 37.203125 18.109375 27.296875 
Q 18.109375 17.390625 22.1875 11.75 
Q 26.265625 6.109375 33.40625 6.109375 
Q 40.53125 6.109375 44.609375 11.75 
Q 48.6875 17.390625 48.6875 27.296875 
z
" id="DejaVuSans-70"/>
     <path d="M 37.109375 75.984375 
L 37.109375 68.5 
L 28.515625 68.5 
Q 23.6875 68.5 21.796875 66.546875 
Q 19.921875 64.59375 19.921875 59.515625 
L 19.921875 54.6875 
L 34.71875 54.6875 
L 34.71875 47.703125 
L 19.921875 47.703125 
L 19.921875 0 
L 10.890625 0 
L 10.890625 47.703125 
L 2.296875 47.703125 
L 2.296875 54.6875 
L 10.890625 54.6875 
L 10.890625 58.5 
Q 10.890625 67.625 15.140625 71.796875 
Q 19.390625 75.984375 28.609375 75.984375 
z
" id="DejaVuSans-66"/>
    </defs>
    <g style="fill:#272473;" transform="translate(49.277455 130.68048)scale(0.07 -0.07)">
     <use xlink:href="#DejaVuSans-73"/>
     <use x="52.099609" xlink:href="#DejaVuSans-75"/>
     <use x="115.478516" xlink:href="#DejaVuSans-70"/>
     <use x="178.955078" xlink:href="#DejaVuSans-65"/>
     <use x="240.478516" xlink:href="#DejaVuSans-72"/>
     <use x="281.591797" xlink:href="#DejaVuSans-66"/>
     <use x="316.796875" xlink:href="#DejaVuSans-6c"/>
     <use x="344.580078" xlink:href="#DejaVuSans-75"/>
     <use x="407.958984" xlink:href="#DejaVuSans-69"/>
     <use x="435.742188" xlink:href="#DejaVuSans-64"/>
    </g>
   </g>
   <g id="text_20">
    <!-- pseudogap? -->
    <defs>
     <path d="M 45.40625 27.984375 
Q 45.40625 37.75 41.375 43.109375 
Q 37.359375 48.484375 30.078125 48.484375 
Q 22.859375 48.484375 18.828125 43.109375 
Q 14.796875 37.75 14.796875 27.984375 
Q 14.796875 18.265625 18.828125 12.890625 
Q 22.859375 7.515625 30.078125 7.515625 
Q 37.359375 7.515625 41.375 12.890625 
Q 45.40625 18.265625 45.40625 27.984375 
z
M 54.390625 6.78125 
Q 54.390625 -7.171875 48.1875 -13.984375 
Q 42 -20.796875 29.203125 -20.796875 
Q 24.46875 -20.796875 20.265625 -20.09375 
Q 16.0625 -19.390625 12.109375 -17.921875 
L 12.109375 -9.1875 
Q 16.0625 -11.328125 19.921875 -12.34375 
Q 23.78125 -13.375 27.78125 -13.375 
Q 36.625 -13.375 41.015625 -8.765625 
Q 45.40625 -4.15625 45.40625 5.171875 
L 45.40625 9.625 
Q 42.625 4.78125 38.28125 2.390625 
Q 33.9375 0 27.875 0 
Q 17.828125 0 11.671875 7.65625 
Q 5.515625 15.328125 5.515625 27.984375 
Q 5.515625 40.671875 11.671875 48.328125 
Q 17.828125 56 27.875 56 
Q 33.9375 56 38.28125 53.609375 
Q 42.625 51.21875 45.40625 46.390625 
L 45.40625 54.6875 
L 54.390625 54.6875 
z
" id="DejaVuSans-67"/>
     <path d="M 19.09375 12.40625 
L 29 12.40625 
L 29 0 
L 19.09375 0 
z
M 28.71875 19.578125 
L 19.390625 19.578125 
L 19.390625 27.09375 
Q 19.390625 32.03125 20.75 35.203125 
Q 22.125 38.375 26.515625 42.578125 
L 30.90625 46.921875 
Q 33.6875 49.515625 34.9375 51.8125 
Q 36.1875 54.109375 36.1875 56.5 
Q 36.1875 60.84375 32.984375 63.53125 
Q 29.78125 66.21875 24.515625 66.21875 
Q 20.65625 66.21875 16.28125 64.5 
Q 11.921875 62.796875 7.171875 59.515625 
L 7.171875 68.703125 
Q 11.765625 71.484375 16.46875 72.84375 
Q 21.1875 74.21875 26.21875 74.21875 
Q 35.203125 74.21875 40.640625 69.484375 
Q 46.09375 64.75 46.09375 56.984375 
Q 46.09375 53.265625 44.328125 49.921875 
Q 42.578125 46.578125 38.1875 42.390625 
L 33.890625 38.1875 
Q 31.59375 35.890625 30.640625 34.59375 
Q 29.6875 33.296875 29.296875 32.078125 
Q 29 31.0625 28.859375 29.59375 
Q 28.71875 28.125 28.71875 25.59375 
z
" id="DejaVuSans-3f"/>
    </defs>
    <g style="fill:#808080;" transform="translate(110.840934 69.150717)rotate(-347)scale(0.07 -0.07)">
     <use xlink:href="#DejaVuSans-70"/>
     <use x="63.476562" xlink:href="#DejaVuSans-73"/>
     <use x="115.576172" xlink:href="#DejaVuSans-65"/>
     <use x="177.099609" xlink:href="#DejaVuSans-75"/>
     <use x="240.478516" xlink:href="#DejaVuSans-64"/>
     <use x="303.955078" xlink:href="#DejaVuSans-6f"/>
     <use x="365.136719" xlink:href="#DejaVuSans-67"/>
     <use x="428.613281" xlink:href="#DejaVuSans-61"/>
     <use x="489.892578" xlink:href="#DejaVuSans-70"/>
     <use x="553.369141" xlink:href="#DejaVuSans-3f"/>
    </g>
   </g>
   <g id="line2d_53">
    <defs>
     <path d="M 1.5 0 
L -1.5 -1.5 
L -1.5 1.5 
z
" id="meb844d3cc1" style="stroke:#a42604;stroke-linejoin:miter;stroke-width:0.75;"/>
    </defs>
    <g>
     <use style="fill:#f94515;stroke:#a42604;stroke-linejoin:miter;stroke-width:0.75;" x="36.288" xlink:href="#meb844d3cc1" y="67.4544"/>
    </g>
   </g>
   <g id="line2d_54">
    <defs>
     <path d="M 1.5 0 
L -1.5 -1.5 
L -1.5 1.5 
z
" id="m85de86adad" style="stroke:#5fad41;stroke-linejoin:miter;stroke-width:0.75;"/>
    </defs>
    <g>
     <use style="fill:#adda9c;stroke:#5fad41;stroke-linejoin:miter;stroke-width:0.75;" x="36.288" xlink:href="#m85de86adad" y="82.11552"/>
    </g>
   </g>
   <g id="line2d_55">
    <defs>
     <path d="M 1.5 0 
L -1.5 -1.5 
L -1.5 1.5 
z
" id="mfb141de55a" style="stroke:#fa9f42;stroke-linejoin:miter;stroke-width:0.75;"/>
    </defs>
    <g>
     <use style="fill:#fbb874;stroke:#fa9f42;stroke-linejoin:miter;stroke-width:0.75;" x="36.288" xlink:href="#mfb141de55a" y="71.603774"/>
    </g>
   </g>
   <g id="line2d_56">
    <defs>
     <path d="M 0 -1.5 
L -1.5 1.5 
L 1.5 1.5 
z
" id="m84e2753c03" style="stroke:#0d153a;stroke-linejoin:miter;stroke-width:0.75;"/>
    </defs>
    <g>
     <use style="fill:#20338d;stroke:#0d153a;stroke-linejoin:miter;stroke-width:0.75;" x="214.429091" xlink:href="#m84e2753c03" y="140.76"/>
    </g>
   </g>
   <g id="line2d_57">
    <defs>
     <path d="M 0 -1.5 
L -1.5 1.5 
L 1.5 1.5 
z
" id="m783eab0c9a" style="stroke:#5fad41;stroke-linejoin:miter;stroke-width:0.75;"/>
    </defs>
    <g>
     <use style="fill:#adda9c;stroke:#5fad41;stroke-linejoin:miter;stroke-width:0.75;" x="199.212873" xlink:href="#m783eab0c9a" y="140.76"/>
    </g>
   </g>
   <g id="line2d_58">
    <defs>
     <path d="M 0 2 
C 0.530406 2 1.03916 1.789267 1.414214 1.414214 
C 1.789267 1.03916 2 0.530406 2 0 
C 2 -0.530406 1.789267 -1.03916 1.414214 -1.414214 
C 1.03916 -1.789267 0.530406 -2 0 -2 
C -0.530406 -2 -1.03916 -1.789267 -1.414214 -1.414214 
C -1.789267 -1.03916 -2 -0.530406 -2 0 
C -2 0.530406 -1.789267 1.03916 -1.414214 1.414214 
C -1.03916 1.789267 -0.530406 2 0 2 
z
" id="m5bade0dcee" style="stroke:#000000;stroke-width:0.75;"/>
    </defs>
    <g clip-path="url(#p83eba0f02f)">
     <use style="fill:#666666;stroke:#000000;stroke-width:0.75;" x="177.254442" xlink:href="#m5bade0dcee" y="104.549561"/>
    </g>
   </g>
  </g>
  <g id="axes_2">
   <g id="patch_8">
    <path d="M 258.964364 140.76 
L 444.528 140.76 
L 444.528 3.312 
L 258.964364 3.312 
z
" style="fill:#ffffff;"/>
   </g>
   <g id="patch_9">
    <path clip-path="url(#p22f9298e19)" d="M 258.964364 -6731.64 
L 258.964364 37.674 
L 370.302545 140.76 
L 3970.237091 140.76 
L 3970.237091 -6731.64 
z
" style="fill:#d9ecdd;stroke:#d9ecdd;stroke-linejoin:miter;"/>
   </g>
   <g id="patch_10">
    <path clip-path="url(#p22f9298e19)" d="M 258.964364 140.76 
L 392.570182 140.76 
L 333.189818 92.6532 
L 258.964364 37.674 
z
" style="fill:#90d8f8;stroke:#90d8f8;stroke-linejoin:miter;"/>
   </g>
   <g id="patch_11">
    <path clip-path="url(#p22f9298e19)" d="M 258.964364 140.76 
L 333.189818 92.6532 
L 392.570182 140.76 
z
" style="fill:#fff9b6;stroke:#fff9b6;stroke-linejoin:miter;"/>
   </g>
   <g id="PolyCollection_6">
    <defs>
     <path d="M 336.261928 -24.84 
L 336.261928 -26.529043 
L 338.395487 -26.409422 
L 341.080132 -26.311395 
L 349.523527 -26.280998 
L 344.64419 -26.143646 
L 345.669689 -26.069569 
L 347.68121 -26.010672 
L 351.13865 -25.967617 
L 351.461921 -25.910122 
L 353.142878 -25.865919 
L 353.173244 -25.773066 
L 355.32802 -25.705105 
L 355.517559 -25.63913 
L 362.1243 -25.555616 
L 365.846491 -25.524003 
L 361.772133 -25.471381 
L 362.779057 -25.439177 
L 362.779057 -24.84 
L 362.779057 -24.84 
L 361.772133 -24.84 
L 365.846491 -24.84 
L 362.1243 -24.84 
L 355.517559 -24.84 
L 355.32802 -24.84 
L 353.173244 -24.84 
L 353.142878 -24.84 
L 351.461921 -24.84 
L 351.13865 -24.84 
L 347.68121 -24.84 
L 345.669689 -24.84 
L 344.64419 -24.84 
L 349.523527 -24.84 
L 341.080132 -24.84 
L 338.395487 -24.84 
L 336.261928 -24.84 
z
" id="m67aaba6a4e" style="stroke:#cc5101;"/>
    </defs>
    <g clip-path="url(#p22f9298e19)">
     <use style="fill:#cc5101;stroke:#cc5101;" x="0" xlink:href="#m67aaba6a4e" y="165.6"/>
    </g>
   </g>
   <g id="LineCollection_3">
    <path clip-path="url(#p22f9298e19)" d="M 301.677645 72.84015 
L 323.423197 72.84015 
" style="fill:none;stroke:#666666;stroke-opacity:0.7;"/>
    <path clip-path="url(#p22f9298e19)" d="M 326.355258 101.896309 
L 345.216442 101.896309 
" style="fill:none;stroke:#666666;stroke-opacity:0.7;"/>
    <path clip-path="url(#p22f9298e19)" d="M 324.580391 102.104706 
L 348.54528 102.104706 
" style="fill:none;stroke:#666666;stroke-opacity:0.7;"/>
    <path clip-path="url(#p22f9298e19)" d="M 340.684389 112.172851 
L 351.779065 112.172851 
" style="fill:none;stroke:#666666;stroke-opacity:0.7;"/>
    <path clip-path="url(#p22f9298e19)" d="M 349.114589 110.942455 
L 362.650168 110.942455 
" style="fill:none;stroke:#666666;stroke-opacity:0.7;"/>
    <path clip-path="url(#p22f9298e19)" d="M 358.230069 121.850387 
L 387.964363 121.850387 
" style="fill:none;stroke:#666666;stroke-opacity:0.7;"/>
   </g>
   <g id="LineCollection_4">
    <path clip-path="url(#p22f9298e19)" d="M 312.550421 82.687503 
L 312.550421 62.992798 
" style="fill:none;stroke:#666666;stroke-opacity:0.7;"/>
    <path clip-path="url(#p22f9298e19)" d="M 335.78585 106.664656 
L 335.78585 97.127962 
" style="fill:none;stroke:#666666;stroke-opacity:0.7;"/>
    <path clip-path="url(#p22f9298e19)" d="M 336.562835 109.049836 
L 336.562835 95.159576 
" style="fill:none;stroke:#666666;stroke-opacity:0.7;"/>
    <path clip-path="url(#p22f9298e19)" d="M 346.231727 122.953111 
L 346.231727 101.392592 
" style="fill:none;stroke:#666666;stroke-opacity:0.7;"/>
    <path clip-path="url(#p22f9298e19)" d="M 355.882378 116.74721 
L 355.882378 105.1377 
" style="fill:none;stroke:#666666;stroke-opacity:0.7;"/>
    <path clip-path="url(#p22f9298e19)" d="M 373.097216 134.703774 
L 373.097216 108.997001 
" style="fill:none;stroke:#666666;stroke-opacity:0.7;"/>
   </g>
   <g id="line2d_59">
    <path clip-path="url(#p22f9298e19)" d="M 258.964364 37.674 
L 333.189818 92.6532 
" style="fill:none;stroke:#000000;stroke-linecap:square;"/>
   </g>
   <g id="line2d_60">
    <path clip-path="url(#p22f9298e19)" d="M 333.189818 92.6532 
L 392.570182 140.76 
" style="fill:none;stroke:#808080;stroke-dasharray:3.7,1.6;stroke-dashoffset:0;"/>
   </g>
   <g id="line2d_61">
    <path clip-path="url(#p22f9298e19)" d="M 258.964364 140.76 
L 333.189818 92.6532 
" style="fill:none;stroke:#808080;stroke-dasharray:1,1.65;stroke-dashoffset:0;"/>
   </g>
   <g id="line2d_62">
    <defs>
     <path d="M -1.5 1.5 
L 1.5 1.5 
L 1.5 -1.5 
L -1.5 -1.5 
z
" id="m2095034504" style="stroke:#666666;stroke-linejoin:miter;stroke-opacity:0.7;stroke-width:0.75;"/>
    </defs>
    <g clip-path="url(#p22f9298e19)">
     <use style="fill:#808080;fill-opacity:0.7;stroke:#666666;stroke-linejoin:miter;stroke-opacity:0.7;stroke-width:0.75;" x="312.550421" xlink:href="#m2095034504" y="72.84015"/>
     <use style="fill:#808080;fill-opacity:0.7;stroke:#666666;stroke-linejoin:miter;stroke-opacity:0.7;stroke-width:0.75;" x="335.78585" xlink:href="#m2095034504" y="101.896309"/>
     <use style="fill:#808080;fill-opacity:0.7;stroke:#666666;stroke-linejoin:miter;stroke-opacity:0.7;stroke-width:0.75;" x="336.562835" xlink:href="#m2095034504" y="102.104706"/>
     <use style="fill:#808080;fill-opacity:0.7;stroke:#666666;stroke-linejoin:miter;stroke-opacity:0.7;stroke-width:0.75;" x="346.231727" xlink:href="#m2095034504" y="112.172851"/>
     <use style="fill:#808080;fill-opacity:0.7;stroke:#666666;stroke-linejoin:miter;stroke-opacity:0.7;stroke-width:0.75;" x="355.882378" xlink:href="#m2095034504" y="110.942455"/>
     <use style="fill:#808080;fill-opacity:0.7;stroke:#666666;stroke-linejoin:miter;stroke-opacity:0.7;stroke-width:0.75;" x="373.097216" xlink:href="#m2095034504" y="121.850387"/>
    </g>
   </g>
   <g id="matplotlib.axis_3">
    <g id="xtick_12">
     <g id="line2d_63">
      <g>
       <use style="stroke:#000000;stroke-width:0.8;" x="258.964364" xlink:href="#mdeb0efa41b" y="140.76"/>
      </g>
     </g>
     <g id="line2d_64">
      <g>
       <use style="stroke:#000000;stroke-width:0.8;" x="258.964364" xlink:href="#m72e22f6f54" y="3.312"/>
      </g>
     </g>
     <g id="text_21">
      <!-- $0$ -->
      <g transform="translate(256.964364 150.33875)scale(0.08 -0.08)">
       <use transform="translate(0 0.40625)" xlink:href="#STIXGeneral-Regular-1d7e2"/>
      </g>
     </g>
    </g>
    <g id="xtick_13">
     <g id="line2d_65">
      <g>
       <use style="stroke:#000000;stroke-width:0.8;" x="296.077091" xlink:href="#mdeb0efa41b" y="140.76"/>
      </g>
     </g>
     <g id="line2d_66">
      <g>
       <use style="stroke:#000000;stroke-width:0.8;" x="296.077091" xlink:href="#m72e22f6f54" y="3.312"/>
      </g>
     </g>
     <g id="text_22">
      <!-- $0.1$ -->
      <g transform="translate(291.077091 150.33875)scale(0.08 -0.08)">
       <use transform="translate(0 0.296875)" xlink:href="#STIXGeneral-Regular-1d7e2"/>
       <use transform="translate(49.999985 0.296875)" xlink:href="#STIXGeneral-Regular-2e"/>
       <use transform="translate(74.999969 0.296875)" xlink:href="#STIXGeneral-Regular-1d7e3"/>
      </g>
     </g>
    </g>
    <g id="xtick_14">
     <g id="line2d_67">
      <g>
       <use style="stroke:#000000;stroke-width:0.8;" x="333.189818" xlink:href="#mdeb0efa41b" y="140.76"/>
      </g>
     </g>
     <g id="line2d_68">
      <g>
       <use style="stroke:#000000;stroke-width:0.8;" x="333.189818" xlink:href="#m72e22f6f54" y="3.312"/>
      </g>
     </g>
     <g id="text_23">
      <!-- $0.2$ -->
      <g transform="translate(328.189818 150.33875)scale(0.08 -0.08)">
       <use transform="translate(0 0.40625)" xlink:href="#STIXGeneral-Regular-1d7e2"/>
       <use transform="translate(49.999985 0.40625)" xlink:href="#STIXGeneral-Regular-2e"/>
       <use transform="translate(74.999969 0.40625)" xlink:href="#STIXGeneral-Regular-1d7e4"/>
      </g>
     </g>
    </g>
    <g id="xtick_15">
     <g id="line2d_69">
      <g>
       <use style="stroke:#000000;stroke-width:0.8;" x="370.302545" xlink:href="#mdeb0efa41b" y="140.76"/>
      </g>
     </g>
     <g id="line2d_70">
      <g>
       <use style="stroke:#000000;stroke-width:0.8;" x="370.302545" xlink:href="#m72e22f6f54" y="3.312"/>
      </g>
     </g>
     <g id="text_24">
      <!-- $0.3$ -->
      <g transform="translate(365.302545 150.33875)scale(0.08 -0.08)">
       <use transform="translate(0 0.40625)" xlink:href="#STIXGeneral-Regular-1d7e2"/>
       <use transform="translate(49.999985 0.40625)" xlink:href="#STIXGeneral-Regular-2e"/>
       <use transform="translate(74.999969 0.40625)" xlink:href="#STIXGeneral-Regular-1d7e5"/>
      </g>
     </g>
    </g>
    <g id="xtick_16">
     <g id="line2d_71">
      <g>
       <use style="stroke:#000000;stroke-width:0.8;" x="407.415273" xlink:href="#mdeb0efa41b" y="140.76"/>
      </g>
     </g>
     <g id="line2d_72">
      <g>
       <use style="stroke:#000000;stroke-width:0.8;" x="407.415273" xlink:href="#m72e22f6f54" y="3.312"/>
      </g>
     </g>
     <g id="text_25">
      <!-- $0.4$ -->
      <g transform="translate(402.415273 150.33875)scale(0.08 -0.08)">
       <use transform="translate(0 0.40625)" xlink:href="#STIXGeneral-Regular-1d7e2"/>
       <use transform="translate(49.999985 0.40625)" xlink:href="#STIXGeneral-Regular-2e"/>
       <use transform="translate(74.999969 0.40625)" xlink:href="#STIXGeneral-Regular-1d7e6"/>
      </g>
     </g>
    </g>
    <g id="xtick_17">
     <g id="line2d_73">
      <g>
       <use style="stroke:#000000;stroke-width:0.8;" x="444.528" xlink:href="#mdeb0efa41b" y="140.76"/>
      </g>
     </g>
     <g id="line2d_74">
      <g>
       <use style="stroke:#000000;stroke-width:0.8;" x="444.528" xlink:href="#m72e22f6f54" y="3.312"/>
      </g>
     </g>
     <g id="text_26">
      <!-- $0.5$ -->
      <g transform="translate(439.528 150.33875)scale(0.08 -0.08)">
       <use transform="translate(0 0.40625)" xlink:href="#STIXGeneral-Regular-1d7e2"/>
       <use transform="translate(49.999985 0.40625)" xlink:href="#STIXGeneral-Regular-2e"/>
       <use transform="translate(74.999969 0.40625)" xlink:href="#STIXGeneral-Regular-1d7e7"/>
      </g>
     </g>
    </g>
    <g id="xtick_18">
     <g id="line2d_75">
      <g>
       <use style="stroke:#000000;stroke-width:0.6;" x="277.520727" xlink:href="#me40e690408" y="140.76"/>
      </g>
     </g>
     <g id="line2d_76">
      <g>
       <use style="stroke:#000000;stroke-width:0.6;" x="277.520727" xlink:href="#mf774542b9f" y="3.312"/>
      </g>
     </g>
    </g>
    <g id="xtick_19">
     <g id="line2d_77">
      <g>
       <use style="stroke:#000000;stroke-width:0.6;" x="314.633455" xlink:href="#me40e690408" y="140.76"/>
      </g>
     </g>
     <g id="line2d_78">
      <g>
       <use style="stroke:#000000;stroke-width:0.6;" x="314.633455" xlink:href="#mf774542b9f" y="3.312"/>
      </g>
     </g>
    </g>
    <g id="xtick_20">
     <g id="line2d_79">
      <g>
       <use style="stroke:#000000;stroke-width:0.6;" x="351.746182" xlink:href="#me40e690408" y="140.76"/>
      </g>
     </g>
     <g id="line2d_80">
      <g>
       <use style="stroke:#000000;stroke-width:0.6;" x="351.746182" xlink:href="#mf774542b9f" y="3.312"/>
      </g>
     </g>
    </g>
    <g id="xtick_21">
     <g id="line2d_81">
      <g>
       <use style="stroke:#000000;stroke-width:0.6;" x="388.858909" xlink:href="#me40e690408" y="140.76"/>
      </g>
     </g>
     <g id="line2d_82">
      <g>
       <use style="stroke:#000000;stroke-width:0.6;" x="388.858909" xlink:href="#mf774542b9f" y="3.312"/>
      </g>
     </g>
    </g>
    <g id="xtick_22">
     <g id="line2d_83">
      <g>
       <use style="stroke:#000000;stroke-width:0.6;" x="425.971636" xlink:href="#me40e690408" y="140.76"/>
      </g>
     </g>
     <g id="line2d_84">
      <g>
       <use style="stroke:#000000;stroke-width:0.6;" x="425.971636" xlink:href="#mf774542b9f" y="3.312"/>
      </g>
     </g>
    </g>
    <g id="text_27">
     <!-- $p$ -->
     <defs>
      <path d="M 25.59375 45.90625 
L 24.5 40.90625 
Q 31.40625 46.296875 39.59375 46.296875 
Q 46.09375 46.296875 49.9375 42.140625 
Q 53.796875 38 53.796875 30.703125 
Q 53.796875 18.40625 44.546875 8.703125 
Q 35.296875 -1 25 -1 
Q 19.40625 -1 15.203125 2.59375 
L 9.796875 -19.203125 
L 2.203125 -21.59375 
L 1.40625 -21.09375 
L 17.59375 44 
L 24.90625 46.40625 
z
M 21.90625 29.5 
L 17.59375 12.296875 
Q 19.90625 6.09375 26.40625 6.09375 
Q 34 6.09375 39.75 12.84375 
Q 45.5 19.59375 45.5 28.40625 
Q 45.5 33.203125 43 36.203125 
Q 40.5 39.203125 35.796875 39.203125 
Q 32.296875 39.203125 28.5 36.546875 
Q 24.703125 33.90625 21.90625 29.5 
z
" id="STIXGeneral-Italic-1d631"/>
     </defs>
     <g transform="translate(349.746182 161.985)scale(0.08 -0.08)">
      <use transform="translate(0 0.59375)" xlink:href="#STIXGeneral-Italic-1d631"/>
     </g>
    </g>
   </g>
   <g id="matplotlib.axis_4">
    <g id="ytick_12">
     <g id="line2d_85">
      <g>
       <use style="stroke:#000000;stroke-width:0.8;" x="258.964364" xlink:href="#me15c49b69b" y="140.76"/>
      </g>
     </g>
     <g id="line2d_86">
      <g>
       <use style="stroke:#000000;stroke-width:0.8;" x="444.528" xlink:href="#m307091361a" y="140.76"/>
      </g>
     </g>
     <g id="text_28">
      <!-- $0$ -->
      <g transform="translate(251.464364 143.799375)scale(0.08 -0.08)">
       <use transform="translate(0 0.40625)" xlink:href="#STIXGeneral-Regular-1d7e2"/>
      </g>
     </g>
    </g>
    <g id="ytick_13">
     <g id="line2d_87">
      <g>
       <use style="stroke:#000000;stroke-width:0.8;" x="258.964364" xlink:href="#me15c49b69b" y="106.398"/>
      </g>
     </g>
     <g id="line2d_88">
      <g>
       <use style="stroke:#000000;stroke-width:0.8;" x="444.528" xlink:href="#m307091361a" y="106.398"/>
      </g>
     </g>
     <g id="text_29">
      <!-- $0.05$ -->
      <g transform="translate(241.464364 109.437375)scale(0.08 -0.08)">
       <use transform="translate(0 0.40625)" xlink:href="#STIXGeneral-Regular-1d7e2"/>
       <use transform="translate(49.999985 0.40625)" xlink:href="#STIXGeneral-Regular-2e"/>
       <use transform="translate(74.999969 0.40625)" xlink:href="#STIXGeneral-Regular-1d7e2"/>
       <use transform="translate(124.999954 0.40625)" xlink:href="#STIXGeneral-Regular-1d7e7"/>
      </g>
     </g>
    </g>
    <g id="ytick_14">
     <g id="line2d_89">
      <g>
       <use style="stroke:#000000;stroke-width:0.8;" x="258.964364" xlink:href="#me15c49b69b" y="72.036"/>
      </g>
     </g>
     <g id="line2d_90">
      <g>
       <use style="stroke:#000000;stroke-width:0.8;" x="444.528" xlink:href="#m307091361a" y="72.036"/>
      </g>
     </g>
     <g id="text_30">
      <!-- $0.1$ -->
      <g transform="translate(245.464364 75.075375)scale(0.08 -0.08)">
       <use transform="translate(0 0.296875)" xlink:href="#STIXGeneral-Regular-1d7e2"/>
       <use transform="translate(49.999985 0.296875)" xlink:href="#STIXGeneral-Regular-2e"/>
       <use transform="translate(74.999969 0.296875)" xlink:href="#STIXGeneral-Regular-1d7e3"/>
      </g>
     </g>
    </g>
    <g id="ytick_15">
     <g id="line2d_91">
      <g>
       <use style="stroke:#000000;stroke-width:0.8;" x="258.964364" xlink:href="#me15c49b69b" y="37.674"/>
      </g>
     </g>
     <g id="line2d_92">
      <g>
       <use style="stroke:#000000;stroke-width:0.8;" x="444.528" xlink:href="#m307091361a" y="37.674"/>
      </g>
     </g>
     <g id="text_31">
      <!-- $0.15$ -->
      <g transform="translate(241.464364 40.713375)scale(0.08 -0.08)">
       <use transform="translate(0 0.296875)" xlink:href="#STIXGeneral-Regular-1d7e2"/>
       <use transform="translate(49.999985 0.296875)" xlink:href="#STIXGeneral-Regular-2e"/>
       <use transform="translate(74.999969 0.296875)" xlink:href="#STIXGeneral-Regular-1d7e3"/>
       <use transform="translate(124.999954 0.296875)" xlink:href="#STIXGeneral-Regular-1d7e7"/>
      </g>
     </g>
    </g>
    <g id="ytick_16">
     <g id="line2d_93">
      <g>
       <use style="stroke:#000000;stroke-width:0.8;" x="258.964364" xlink:href="#me15c49b69b" y="3.312"/>
      </g>
     </g>
     <g id="line2d_94">
      <g>
       <use style="stroke:#000000;stroke-width:0.8;" x="444.528" xlink:href="#m307091361a" y="3.312"/>
      </g>
     </g>
     <g id="text_32">
      <!-- $0.2$ -->
      <g transform="translate(245.464364 6.351375)scale(0.08 -0.08)">
       <use transform="translate(0 0.40625)" xlink:href="#STIXGeneral-Regular-1d7e2"/>
       <use transform="translate(49.999985 0.40625)" xlink:href="#STIXGeneral-Regular-2e"/>
       <use transform="translate(74.999969 0.40625)" xlink:href="#STIXGeneral-Regular-1d7e4"/>
      </g>
     </g>
    </g>
    <g id="ytick_17">
     <g id="line2d_95">
      <g>
       <use style="stroke:#000000;stroke-width:0.6;" x="258.964364" xlink:href="#m0916895e07" y="123.579"/>
      </g>
     </g>
     <g id="line2d_96">
      <g>
       <use style="stroke:#000000;stroke-width:0.6;" x="444.528" xlink:href="#m84c6375b29" y="123.579"/>
      </g>
     </g>
    </g>
    <g id="ytick_18">
     <g id="line2d_97">
      <g>
       <use style="stroke:#000000;stroke-width:0.6;" x="258.964364" xlink:href="#m0916895e07" y="89.217"/>
      </g>
     </g>
     <g id="line2d_98">
      <g>
       <use style="stroke:#000000;stroke-width:0.6;" x="444.528" xlink:href="#m84c6375b29" y="89.217"/>
      </g>
     </g>
    </g>
    <g id="ytick_19">
     <g id="line2d_99">
      <g>
       <use style="stroke:#000000;stroke-width:0.6;" x="258.964364" xlink:href="#m0916895e07" y="54.855"/>
      </g>
     </g>
     <g id="line2d_100">
      <g>
       <use style="stroke:#000000;stroke-width:0.6;" x="444.528" xlink:href="#m84c6375b29" y="54.855"/>
      </g>
     </g>
    </g>
    <g id="ytick_20">
     <g id="line2d_101">
      <g>
       <use style="stroke:#000000;stroke-width:0.6;" x="258.964364" xlink:href="#m0916895e07" y="20.493"/>
      </g>
     </g>
     <g id="line2d_102">
      <g>
       <use style="stroke:#000000;stroke-width:0.6;" x="444.528" xlink:href="#m84c6375b29" y="20.493"/>
      </g>
     </g>
    </g>
    <g id="text_33">
     <!-- $T/T_F^\uparrow$ -->
     <defs>
      <path d="M 45.09375 42.40625 
L 43.203125 40.40625 
Q 39.203125 43.203125 33.59375 48.59375 
Q 32.203125 50 30.796875 50 
Q 28.796875 50 28.796875 47.40625 
L 28.796875 -15.59375 
L 22.203125 -15.59375 
L 22.203125 47.5 
Q 22.203125 48.296875 21.453125 49.1875 
Q 20.703125 50.09375 20 50.09375 
Q 18.90625 50.09375 17.5 48.703125 
Q 12.59375 43.59375 7.90625 40.5 
L 6 42.5 
Q 20.296875 54.90625 25 66.203125 
L 26 66.203125 
Q 30.90625 54.703125 45.09375 42.40625 
z
" id="STIXGeneral-Regular-2191"/>
      <path d="M 67.90625 66.203125 
L 66.90625 58.796875 
L 30.703125 58.796875 
L 25.703125 38.59375 
L 55.296875 38.59375 
L 53.40625 31.09375 
L 23.796875 31.09375 
L 16.09375 0 
L 7.40625 0 
L 23.90625 66.203125 
z
" id="STIXGeneral-Italic-1d60d"/>
     </defs>
     <g transform="translate(235.624364 81.076)rotate(-90)scale(0.08 -0.08)">
      <use transform="translate(0 0.548438)" xlink:href="#STIXGeneral-Italic-1d61b"/>
      <use transform="translate(60.799988 0.548438)" xlink:href="#STIXGeneral-Regular-2f"/>
      <use transform="translate(88.599976 0.548438)" xlink:href="#STIXGeneral-Italic-1d61b"/>
      <use transform="translate(176.69154 47.657813)scale(0.7)" xlink:href="#STIXGeneral-Regular-2191"/>
      <use transform="translate(149.399963 -22.1)scale(0.7)" xlink:href="#STIXGeneral-Italic-1d60d"/>
     </g>
    </g>
   </g>
   <g id="line2d_103">
    <g clip-path="url(#p22f9298e19)">
     <use style="fill:#666666;stroke:#000000;stroke-width:0.75;" x="333.189818" xlink:href="#m5bade0dcee" y="92.6532"/>
    </g>
   </g>
   <g id="patch_12">
    <path d="M 258.964364 140.76 
L 258.964364 3.312 
" style="fill:none;stroke:#000000;stroke-linecap:square;stroke-linejoin:miter;stroke-width:0.8;"/>
   </g>
   <g id="patch_13">
    <path d="M 444.528 140.76 
L 444.528 3.312 
" style="fill:none;stroke:#000000;stroke-linecap:square;stroke-linejoin:miter;stroke-width:0.8;"/>
   </g>
   <g id="patch_14">
    <path d="M 258.964364 140.76 
L 444.528 140.76 
" style="fill:none;stroke:#000000;stroke-linecap:square;stroke-linejoin:miter;stroke-width:0.8;"/>
   </g>
   <g id="patch_15">
    <path d="M 258.964364 3.312 
L 444.528 3.312 
" style="fill:none;stroke:#000000;stroke-linecap:square;stroke-linejoin:miter;stroke-width:0.8;"/>
   </g>
   <g id="patch_16">
    <path d="M 404.934771 112.321316 
Q 384.765987 124.312101 365.558223 135.731538 
" style="fill:none;stroke:#cc5101;stroke-linecap:round;"/>
    <path d="M 368.23441 135.536543 
L 365.558223 135.731538 
L 367.00794 133.473591 
L 368.23441 135.536543 
z
" style="fill:#cc5101;stroke:#cc5101;stroke-linecap:round;"/>
   </g>
   <g id="text_34">
    <!-- FFLO -->
    <defs>
     <path d="M 9.8125 72.90625 
L 51.703125 72.90625 
L 51.703125 64.59375 
L 19.671875 64.59375 
L 19.671875 43.109375 
L 48.578125 43.109375 
L 48.578125 34.8125 
L 19.671875 34.8125 
L 19.671875 0 
L 9.8125 0 
z
" id="DejaVuSans-46"/>
     <path d="M 9.8125 72.90625 
L 19.671875 72.90625 
L 19.671875 8.296875 
L 55.171875 8.296875 
L 55.171875 0 
L 9.8125 0 
z
" id="DejaVuSans-4c"/>
     <path d="M 39.40625 66.21875 
Q 28.65625 66.21875 22.328125 58.203125 
Q 16.015625 50.203125 16.015625 36.375 
Q 16.015625 22.609375 22.328125 14.59375 
Q 28.65625 6.59375 39.40625 6.59375 
Q 50.140625 6.59375 56.421875 14.59375 
Q 62.703125 22.609375 62.703125 36.375 
Q 62.703125 50.203125 56.421875 58.203125 
Q 50.140625 66.21875 39.40625 66.21875 
z
M 39.40625 74.21875 
Q 54.734375 74.21875 63.90625 63.9375 
Q 73.09375 53.65625 73.09375 36.375 
Q 73.09375 19.140625 63.90625 8.859375 
Q 54.734375 -1.421875 39.40625 -1.421875 
Q 24.03125 -1.421875 14.8125 8.828125 
Q 5.609375 19.09375 5.609375 36.375 
Q 5.609375 53.65625 14.8125 63.9375 
Q 24.03125 74.21875 39.40625 74.21875 
z
" id="DejaVuSans-4f"/>
    </defs>
    <g style="fill:#cc5101;" transform="translate(407.415273 108.053625)scale(0.06 -0.06)">
     <use xlink:href="#DejaVuSans-46"/>
     <use x="57.519531" xlink:href="#DejaVuSans-46"/>
     <use x="115.039062" xlink:href="#DejaVuSans-4c"/>
     <use x="170.705078" xlink:href="#DejaVuSans-4f"/>
    </g>
   </g>
   <g id="text_35">
    <!-- normal -->
    <g style="fill:#4a5b1c;" transform="translate(399.992727 20.493)scale(0.07 -0.07)">
     <use xlink:href="#DejaVuSans-6e"/>
     <use x="63.378906" xlink:href="#DejaVuSans-6f"/>
     <use x="124.560547" xlink:href="#DejaVuSans-72"/>
     <use x="165.658203" xlink:href="#DejaVuSans-6d"/>
     <use x="263.070312" xlink:href="#DejaVuSans-61"/>
     <use x="324.349609" xlink:href="#DejaVuSans-6c"/>
    </g>
   </g>
   <g id="line2d_104">
    <path clip-path="url(#p22f9298e19)" d="M 258.964364 36.204193 
L 275.517104 37.030812 
L 291.370369 39.415762 
L 305.930316 43.105251 
L 318.782398 47.75144 
L 329.713684 52.987082 
L 338.692021 58.485517 
L 345.819509 63.991636 
L 351.278921 69.32613 
L 355.290648 74.375791 
L 358.081443 79.080506 
L 359.867059 83.415815 
L 360.841112 87.38198 
L 361.174514 90.992808 
L 361.014692 94.270949 
L 360.486314 97.241482 
L 359.693935 99.9318 
L 358.723334 102.368011 
L 357.643524 104.575804 
L 356.508409 106.577356 
L 355.35787 108.395924 
L 353.119991 111.557021 
L 351.067086 114.193673 
L 349.248666 116.414282 
L 347.666198 118.302028 
L 346.30114 119.922347 
L 345.12801 121.325918 
L 344.10744 122.553576 
L 343.495273 123.605974 
L 342.753286 124.564303 
L 342.124396 125.418405 
L 341.101806 126.878673 
L 340.316512 128.081563 
L 339.704594 129.089641 
L 339.21481 129.947839 
L 338.813183 130.687927 
L 338.478668 131.331913 
L 338.192814 131.899284 
L 337.942567 132.401498 
L 337.717549 132.850651 
L 337.511647 133.254576 
L 337.13941 133.95119 
L 336.806561 134.531001 
L 336.24735 135.439484 
L 336.024284 135.80146 
L 335.759544 136.118285 
L 335.688785 136.393634 
L 335.585478 136.638526 
L 335.505931 136.856985 
L 335.483659 137.052134 
L 335.41165 137.389727 
L 335.424884 137.669887 
L 335.462546 137.905975 
L 335.495328 138.108759 
L 335.502082 138.285531 
L 335.463993 138.4415 
L 335.378534 138.579745 
L 335.262542 138.703455 
L 334.98872 138.815626 
L 335.011255 138.913379 
" style="fill:none;stroke:#000000;stroke-dasharray:6.4,1.6,1,1.6;stroke-dashoffset:0;"/>
   </g>
   <g id="LineCollection_5">
    <path d="M 258.964364 34.92504 
L 258.964364 17.0568 
" style="fill:none;stroke:#a42604;"/>
   </g>
   <g id="LineCollection_6">
    <path d="M 258.964364 43.17192 
L 258.964364 22.55472 
" style="fill:none;stroke:#5fad41;"/>
   </g>
   <g id="LineCollection_7">
    <path d="M 329.478545 140.76 
L 433.394182 140.76 
" style="fill:none;stroke:#5fad41;"/>
   </g>
   <g id="line2d_105">
    <defs>
     <path d="M 2 0 
L -2 -0 
" id="mea3479a509" style="stroke:#a42604;stroke-width:0.75;"/>
    </defs>
    <g>
     <use style="fill:#a42604;stroke:#a42604;stroke-width:0.75;" x="258.964364" xlink:href="#mea3479a509" y="34.92504"/>
    </g>
   </g>
   <g id="line2d_106">
    <g>
     <use style="fill:#a42604;stroke:#a42604;stroke-width:0.75;" x="258.964364" xlink:href="#mea3479a509" y="17.0568"/>
    </g>
   </g>
   <g id="line2d_107">
    <g>
     <use style="fill:#5fad41;stroke:#5fad41;stroke-width:0.75;" x="258.964364" xlink:href="#m7edbcd77c0" y="43.17192"/>
    </g>
   </g>
   <g id="line2d_108">
    <g>
     <use style="fill:#5fad41;stroke:#5fad41;stroke-width:0.75;" x="258.964364" xlink:href="#m7edbcd77c0" y="22.55472"/>
    </g>
   </g>
   <g id="line2d_109">
    <g>
     <use style="fill:#5fad41;stroke:#5fad41;stroke-width:0.75;" x="329.478545" xlink:href="#m44ce363934" y="140.76"/>
    </g>
   </g>
   <g id="line2d_110">
    <g>
     <use style="fill:#5fad41;stroke:#5fad41;stroke-width:0.75;" x="433.394182" xlink:href="#m44ce363934" y="140.76"/>
    </g>
   </g>
   <g id="text_36">
    <!-- superfluid -->
    <g style="fill:#272473;" transform="translate(266.386909 92.6532)scale(0.07 -0.07)">
     <use xlink:href="#DejaVuSans-73"/>
     <use x="52.099609" xlink:href="#DejaVuSans-75"/>
     <use x="115.478516" xlink:href="#DejaVuSans-70"/>
     <use x="178.955078" xlink:href="#DejaVuSans-65"/>
     <use x="240.478516" xlink:href="#DejaVuSans-72"/>
     <use x="281.591797" xlink:href="#DejaVuSans-66"/>
     <use x="316.796875" xlink:href="#DejaVuSans-6c"/>
     <use x="344.580078" xlink:href="#DejaVuSans-75"/>
     <use x="407.958984" xlink:href="#DejaVuSans-69"/>
     <use x="435.742188" xlink:href="#DejaVuSans-64"/>
    </g>
   </g>
   <g id="text_37">
    <!-- unstable -->
    <defs>
     <path d="M 48.6875 27.296875 
Q 48.6875 37.203125 44.609375 42.84375 
Q 40.53125 48.484375 33.40625 48.484375 
Q 26.265625 48.484375 22.1875 42.84375 
Q 18.109375 37.203125 18.109375 27.296875 
Q 18.109375 17.390625 22.1875 11.75 
Q 26.265625 6.109375 33.40625 6.109375 
Q 40.53125 6.109375 44.609375 11.75 
Q 48.6875 17.390625 48.6875 27.296875 
z
M 18.109375 46.390625 
Q 20.953125 51.265625 25.265625 53.625 
Q 29.59375 56 35.59375 56 
Q 45.5625 56 51.78125 48.09375 
Q 58.015625 40.1875 58.015625 27.296875 
Q 58.015625 14.40625 51.78125 6.484375 
Q 45.5625 -1.421875 35.59375 -1.421875 
Q 29.59375 -1.421875 25.265625 0.953125 
Q 20.953125 3.328125 18.109375 8.203125 
L 18.109375 0 
L 9.078125 0 
L 9.078125 75.984375 
L 18.109375 75.984375 
z
" id="DejaVuSans-62"/>
    </defs>
    <g style="fill:#fa9f42;" transform="translate(284.943273 133.8876)scale(0.07 -0.07)">
     <use xlink:href="#DejaVuSans-75"/>
     <use x="63.378906" xlink:href="#DejaVuSans-6e"/>
     <use x="126.757812" xlink:href="#DejaVuSans-73"/>
     <use x="178.857422" xlink:href="#DejaVuSans-74"/>
     <use x="218.066406" xlink:href="#DejaVuSans-61"/>
     <use x="279.345703" xlink:href="#DejaVuSans-62"/>
     <use x="342.822266" xlink:href="#DejaVuSans-6c"/>
     <use x="370.605469" xlink:href="#DejaVuSans-65"/>
    </g>
   </g>
   <g id="line2d_111">
    <g>
     <use style="fill:#f94515;stroke:#a42604;stroke-linejoin:miter;stroke-width:0.75;" x="258.964364" xlink:href="#meb844d3cc1" y="25.99092"/>
    </g>
   </g>
   <g id="line2d_112">
    <g>
     <use style="fill:#adda9c;stroke:#5fad41;stroke-linejoin:miter;stroke-width:0.75;" x="258.964364" xlink:href="#m85de86adad" y="32.86332"/>
    </g>
   </g>
   <g id="line2d_113">
    <g>
     <use style="fill:#20338d;stroke:#0d153a;stroke-linejoin:miter;stroke-width:0.75;" x="402.961745" xlink:href="#m84e2753c03" y="140.76"/>
    </g>
   </g>
   <g id="line2d_114">
    <g>
     <use style="fill:#adda9c;stroke:#5fad41;stroke-linejoin:miter;stroke-width:0.75;" x="381.436364" xlink:href="#m783eab0c9a" y="140.76"/>
    </g>
   </g>
  </g>
 </g>
 <defs>
  <clipPath id="p83eba0f02f">
   <rect height="137.448" width="185.563636" x="36.288" y="3.312"/>
  </clipPath>
  <clipPath id="p22f9298e19">
   <rect height="137.448" width="185.563636" x="258.964364" y="3.312"/>
  </clipPath>
 </defs>
</svg>
