<?xml version="1.0" encoding="utf-8" standalone="no"?>
<!DOCTYPE svg PUBLIC "-//W3C//DTD SVG 1.1//EN"
  "http://www.w3.org/Graphics/SVG/1.1/DTD/svg11.dtd">
<!-- Created with matplotlib (http://matplotlib.org/) -->
<svg height="180pt" version="1.1" viewBox="0 0 243 180" width="243pt" xmlns="http://www.w3.org/2000/svg" xmlns:xlink="http://www.w3.org/1999/xlink">
 <defs>
  <style type="text/css">
*{stroke-linecap:butt;stroke-linejoin:round;}
  </style>
 </defs>
 <g id="figure_1">
  <g id="patch_1">
   <path d="M 0 180 
L 243 180 
L 243 0 
L 0 0 
z
" style="fill:#ffffff;"/>
  </g>
  <g id="axes_1">
   <g id="patch_2">
    <path d="M 29.16 153 
L 230.85 153 
L 230.85 9 
L 29.16 9 
z
" style="fill:#ffffff;"/>
   </g>
   <g id="line2d_1">
    <path clip-path="url(#p883cf78df0)" d="M 1.812203 98.209479 
L 3.905147 98.301348 
L 5.998091 98.398709 
L 8.091034 98.501872 
L 10.183978 98.61116 
L 12.276921 98.726914 
L 14.369865 98.849487 
L 16.462809 98.979251 
L 18.555752 99.116594 
L 20.648696 99.261919 
L 22.74164 99.415649 
L 24.834583 99.578222 
L 26.927527 99.750094 
L 29.02047 99.931738 
L 31.113414 100.123645 
L 33.206358 100.326323 
L 35.299301 100.540296 
L 37.392245 100.766106 
L 39.485189 101.00431 
L 41.578132 101.255481 
L 43.671076 101.520208 
L 45.764019 101.799093 
L 47.856963 102.092751 
L 49.949907 102.40181 
L 52.04285 102.726909 
L 54.135794 103.068699 
L 56.228737 103.427838 
L 58.321681 103.804994 
L 60.414625 104.200842 
L 62.507568 104.616062 
L 64.600512 105.051343 
L 66.693456 105.507378 
L 68.786399 105.984869 
L 70.879343 106.484525 
L 72.972286 107.007065 
L 75.06523 107.553222 
L 77.158174 108.123747 
L 79.251117 108.719418 
L 81.344061 109.341045 
L 83.437004 109.989486 
L 85.529948 110.665656 
L 87.622892 111.370554 
L 89.715835 112.105282 
L 91.808779 112.871073 
L 93.901723 113.669335 
L 95.994666 114.501692 
L 98.08761 115.370045 
L 100.180553 116.276639 
L 102.273497 117.22416 
L 104.366441 118.215838 
" style="fill:none;stroke:#114b5f;stroke-dasharray:3.7,1.6;stroke-dashoffset:0;"/>
   </g>
   <g id="line2d_2">
    <path clip-path="url(#p883cf78df0)" d="M 1.812203 61.651024 
L 3.905147 61.782674 
L 5.998091 61.922316 
L 8.091034 62.070414 
L 10.183978 62.227458 
L 12.276921 62.393962 
L 14.369865 62.570465 
L 16.462809 62.757537 
L 18.555752 62.955773 
L 20.648696 63.165798 
L 22.74164 63.388267 
L 24.834583 63.623866 
L 26.927527 63.873312 
L 29.02047 64.137357 
L 31.113414 64.416781 
L 33.206358 64.712403 
L 35.299301 65.025073 
L 37.392245 65.355676 
L 39.485189 65.705133 
L 41.578132 66.074398 
L 43.671076 66.464463 
L 45.764019 66.876353 
L 47.856963 67.31113 
L 49.949907 67.76989 
L 52.04285 68.253765 
L 54.135794 68.76392 
L 56.228737 69.301556 
L 58.321681 69.86791 
L 60.414625 70.464254 
L 62.507568 71.091893 
L 64.600512 71.752173 
L 66.693456 72.446478 
L 68.786399 73.176233 
L 70.879343 73.942913 
L 72.972286 74.748041 
L 75.06523 75.593207 
L 77.158174 76.48007 
L 79.251117 77.410378 
L 81.344061 78.385985 
L 83.437004 79.408877 
L 85.529948 80.481207 
L 87.622892 81.605331 
L 89.715835 82.78386 
L 91.808779 84.01973 
L 93.901723 85.316283 
L 95.994666 86.677366 
L 98.08761 88.107471 
L 100.180553 89.611896 
L 102.273497 91.196958 
L 104.366441 92.870268 
" style="fill:none;stroke:#5f9049;stroke-dasharray:3.7,1.6;stroke-dashoffset:0;"/>
   </g>
   <g id="line2d_3">
    <path clip-path="url(#p883cf78df0)" d="M 1.812203 39.309098 
L 3.905147 39.433337 
L 5.998091 39.565257 
L 8.091034 39.705321 
L 10.183978 39.854019 
L 12.276921 40.011869 
L 14.369865 40.179419 
L 16.462809 40.357244 
L 18.555752 40.545956 
L 20.648696 40.746197 
L 22.74164 40.958644 
L 24.834583 41.184013 
L 26.927527 41.423056 
L 29.02047 41.676563 
L 31.113414 41.945369 
L 33.206358 42.230349 
L 35.299301 42.532422 
L 37.392245 42.852555 
L 39.485189 43.19176 
L 41.578132 43.551098 
L 43.671076 43.931684 
L 45.764019 44.33468 
L 47.856963 44.761305 
L 49.949907 45.212832 
L 52.04285 45.690593 
L 54.135794 46.195978 
L 56.228737 46.730437 
L 58.321681 47.295485 
L 60.414625 47.892706 
L 62.507568 48.523751 
L 64.600512 49.190348 
L 66.693456 49.894304 
L 68.786399 50.637515 
L 70.879343 51.421975 
L 72.972286 52.249783 
L 75.06523 53.123164 
L 77.158174 54.044487 
L 79.251117 55.016285 
L 81.344061 56.041292 
L 83.437004 57.122482 
L 85.529948 58.263119 
L 87.622892 59.466823 
L 89.715835 60.737658 
L 91.808779 62.080235 
L 93.901723 63.499854 
L 95.994666 65.00268 
L 98.08761 66.595978 
L 100.180553 68.28841 
L 102.273497 70.09043 
L 104.366441 72.014813 
" style="fill:none;stroke:#d7b501;stroke-dasharray:3.7,1.6;stroke-dashoffset:0;"/>
   </g>
   <g id="line2d_4">
    <path clip-path="url(#p883cf78df0)" d="M 1.812203 27.357172 
L 3.905147 27.455403 
L 5.998091 27.559814 
L 8.091034 27.670793 
L 10.183978 27.788748 
L 12.276921 27.914113 
L 14.369865 28.047351 
L 16.462809 28.188949 
L 18.555752 28.339426 
L 20.648696 28.49933 
L 22.74164 28.669242 
L 24.834583 28.84978 
L 26.927527 29.041595 
L 29.02047 29.245376 
L 31.113414 29.461853 
L 33.206358 29.691798 
L 35.299301 29.936027 
L 37.392245 30.1954 
L 39.485189 30.470827 
L 41.578132 30.763268 
L 43.671076 31.073735 
L 45.764019 31.403294 
L 47.856963 31.753071 
L 49.949907 32.124249 
L 52.04285 32.518077 
L 54.135794 32.935867 
L 56.228737 33.379003 
L 58.321681 33.848939 
L 60.414625 34.347209 
L 62.507568 34.87543 
L 64.600512 35.435304 
L 66.693456 36.028635 
L 68.786399 36.657327 
L 70.879343 37.323404 
L 72.972286 38.029023 
L 75.06523 38.776487 
L 77.158174 39.568277 
L 79.251117 40.407074 
L 81.344061 41.295804 
L 83.437004 42.237684 
L 85.529948 43.23629 
L 87.622892 44.295635 
L 89.715835 45.420283 
L 91.808779 46.615491 
L 93.901723 47.887392 
L 95.994666 49.243246 
L 98.08761 50.691768 
L 100.180553 52.243577 
L 102.273497 53.911795 
L 104.366441 55.712894 
" style="fill:none;stroke:#eca300;stroke-dasharray:3.7,1.6;stroke-dashoffset:0;"/>
   </g>
   <g id="line2d_5">
    <path clip-path="url(#p883cf78df0)" d="M 1.812203 21.380879 
L 3.905147 21.452543 
L 5.998091 21.528789 
L 8.091034 21.609911 
L 10.183978 21.696223 
L 12.276921 21.788058 
L 14.369865 21.88577 
L 16.462809 21.989734 
L 18.555752 22.100352 
L 20.648696 22.218049 
L 22.74164 22.343275 
L 24.834583 22.476512 
L 26.927527 22.618267 
L 29.02047 22.769082 
L 31.113414 22.929529 
L 33.206358 23.100214 
L 35.299301 23.281783 
L 37.392245 23.474915 
L 39.485189 23.680331 
L 41.578132 23.898793 
L 43.671076 24.131107 
L 45.764019 24.378123 
L 47.856963 24.640737 
L 49.949907 24.919897 
L 52.04285 25.2166 
L 54.135794 25.531895 
L 56.228737 25.866888 
L 58.321681 26.222744 
L 60.414625 26.600685 
L 62.507568 27.002001 
L 64.600512 27.428047 
L 66.693456 27.880254 
L 68.786399 28.360127 
L 70.879343 28.869264 
L 72.972286 29.409353 
L 75.06523 29.982198 
L 77.158174 30.589727 
L 79.251117 31.234019 
L 81.344061 31.917333 
L 83.437004 32.642151 
L 85.529948 33.411228 
L 87.622892 34.22767 
L 89.715835 35.095027 
L 91.808779 36.017424 
L 93.901723 36.999745 
L 95.994666 38.047875 
L 98.08761 39.169044 
L 100.180553 40.372307 
L 102.273497 41.669226 
L 104.366441 43.074875 
" style="fill:none;stroke:#db7502;stroke-dasharray:3.7,1.6;stroke-dashoffset:0;"/>
   </g>
   <g id="matplotlib.axis_1">
    <g id="xtick_1">
     <g id="line2d_6">
      <defs>
       <path d="M 0 0 
L 0 -2.5 
" id="m2f7902f33f" style="stroke:#000000;stroke-width:0.8;"/>
      </defs>
      <g>
       <use style="stroke:#000000;stroke-width:0.8;" x="35.996949" xlink:href="#m2f7902f33f" y="153"/>
      </g>
     </g>
     <g id="line2d_7">
      <defs>
       <path d="M 0 0 
L 0 2.5 
" id="me890f0a736" style="stroke:#000000;stroke-width:0.8;"/>
      </defs>
      <g>
       <use style="stroke:#000000;stroke-width:0.8;" x="35.996949" xlink:href="#me890f0a736" y="9"/>
      </g>
     </g>
     <g id="text_1">
      <!-- $-3$ -->
      <defs>
       <path d="M 62.09375 22 
L 6.40625 22 
L 6.40625 28.59375 
L 62.09375 28.59375 
z
" id="STIXGeneral-Regular-2212"/>
       <path d="M 11.296875 49.203125 
L 4.203125 50.90625 
Q 6.40625 58.703125 11.5 63.140625 
Q 16.59375 67.59375 24.296875 67.59375 
Q 31.40625 67.59375 36.203125 63.09375 
Q 41 58.59375 41 51.90625 
Q 41 43 32.40625 37 
Q 38 35 41.046875 30.34375 
Q 44.09375 25.703125 44.09375 21 
Q 44.09375 11.296875 37.796875 5 
Q 31.40625 -1.40625 20.5 -1.40625 
Q 9.5 -1.40625 3.09375 5.59375 
L 7.796875 11.203125 
Q 12.90625 5.703125 20 5.703125 
Q 27.40625 5.703125 31.59375 9.296875 
Q 36.203125 13.203125 36.203125 19.09375 
Q 36.203125 24.296875 32.453125 27.796875 
Q 28.703125 31.296875 22.203125 32.203125 
L 15.796875 32.203125 
L 15.796875 34.296875 
L 20.59375 39.40625 
Q 25.09375 39.40625 29.09375 42.84375 
Q 33.09375 46.296875 33.09375 51.203125 
Q 33.09375 55.40625 30.4375 57.953125 
Q 27.796875 60.5 24 60.5 
Q 20 60.5 16.546875 57.640625 
Q 13.09375 54.796875 11.296875 49.203125 
z
" id="STIXGeneral-Regular-1d7e5"/>
      </defs>
      <g transform="translate(31.236949 162.57875)scale(0.08 -0.08)">
       <use transform="translate(0 0.40625)" xlink:href="#STIXGeneral-Regular-2212"/>
       <use transform="translate(68.499985 0.40625)" xlink:href="#STIXGeneral-Regular-1d7e5"/>
      </g>
     </g>
    </g>
    <g id="xtick_2">
     <g id="line2d_8">
      <g>
       <use style="stroke:#000000;stroke-width:0.8;" x="70.181695" xlink:href="#m2f7902f33f" y="153"/>
      </g>
     </g>
     <g id="line2d_9">
      <g>
       <use style="stroke:#000000;stroke-width:0.8;" x="70.181695" xlink:href="#me890f0a736" y="9"/>
      </g>
     </g>
     <g id="text_2">
      <!-- $-2$ -->
      <defs>
       <path d="M 46.90625 7.09375 
L 44 0 
L 3.5 0 
L 3.5 2.09375 
L 21 23.5 
L 21 23.40625 
L 26.59375 30.203125 
Q 30.5 34.90625 32.09375 36.953125 
Q 33.703125 39 35.203125 41.953125 
Q 36.703125 44.90625 36.703125 47.5 
Q 36.703125 53.703125 33.34375 57.09375 
Q 30 60.5 24.203125 60.5 
Q 19.59375 60.5 15.75 56.703125 
Q 11.90625 52.90625 10.90625 45.90625 
L 3.703125 47.59375 
Q 5.296875 56.5 11.1875 62.046875 
Q 17.09375 67.59375 24.90625 67.59375 
Q 33.59375 67.59375 39.09375 62.1875 
Q 44.59375 56.796875 44.59375 49.09375 
Q 44.59375 43.5 42.5 39.453125 
Q 40.40625 35.40625 33.703125 27 
L 17.703125 7.09375 
z
" id="STIXGeneral-Regular-1d7e4"/>
      </defs>
      <g transform="translate(65.421695 162.57875)scale(0.08 -0.08)">
       <use transform="translate(0 0.40625)" xlink:href="#STIXGeneral-Regular-2212"/>
       <use transform="translate(68.499985 0.40625)" xlink:href="#STIXGeneral-Regular-1d7e4"/>
      </g>
     </g>
    </g>
    <g id="xtick_3">
     <g id="line2d_10">
      <g>
       <use style="stroke:#000000;stroke-width:0.8;" x="104.366441" xlink:href="#m2f7902f33f" y="153"/>
      </g>
     </g>
     <g id="line2d_11">
      <g>
       <use style="stroke:#000000;stroke-width:0.8;" x="104.366441" xlink:href="#me890f0a736" y="9"/>
      </g>
     </g>
     <g id="text_3">
      <!-- $-1$ -->
      <defs>
       <path d="M 30.203125 0 
L 22.296875 0 
L 22.296875 57 
Q 20.09375 56 15.75 53.75 
Q 11.40625 51.5 10.796875 51.203125 
L 10.796875 58.5 
L 28.796875 67.703125 
L 30.203125 67.203125 
z
" id="STIXGeneral-Regular-1d7e3"/>
      </defs>
      <g transform="translate(99.606441 162.57875)scale(0.08 -0.08)">
       <use transform="translate(0 0.296875)" xlink:href="#STIXGeneral-Regular-2212"/>
       <use transform="translate(68.499985 0.296875)" xlink:href="#STIXGeneral-Regular-1d7e3"/>
      </g>
     </g>
    </g>
    <g id="xtick_4">
     <g id="line2d_12">
      <g>
       <use style="stroke:#000000;stroke-width:0.8;" x="138.551186" xlink:href="#m2f7902f33f" y="153"/>
      </g>
     </g>
     <g id="line2d_13">
      <g>
       <use style="stroke:#000000;stroke-width:0.8;" x="138.551186" xlink:href="#me890f0a736" y="9"/>
      </g>
     </g>
     <g id="text_4">
      <!-- $0$ -->
      <defs>
       <path d="M 47.703125 33 
Q 47.703125 23.796875 45.546875 16.34375 
Q 43.40625 8.90625 38.09375 3.75 
Q 32.796875 -1.40625 25 -1.40625 
Q 18.796875 -1.40625 14.25 1.6875 
Q 9.703125 4.796875 7.203125 10.046875 
Q 4.703125 15.296875 3.5 21.140625 
Q 2.296875 27 2.296875 33.59375 
Q 2.296875 42.90625 4.59375 50.34375 
Q 6.90625 57.796875 12.296875 62.6875 
Q 17.703125 67.59375 25.40625 67.59375 
Q 35.203125 67.59375 41.453125 57.9375 
Q 47.703125 48.296875 47.703125 33 
z
M 39.796875 33 
Q 39.796875 45.203125 35.75 52.84375 
Q 31.703125 60.5 25.203125 60.5 
Q 17.796875 60.5 14 52.75 
Q 10.203125 45 10.203125 33.40625 
Q 10.203125 28.203125 10.953125 23.546875 
Q 11.703125 18.90625 13.34375 14.75 
Q 15 10.59375 18 8.140625 
Q 21 5.703125 25 5.703125 
Q 30.09375 5.703125 33.546875 9.796875 
Q 37 13.90625 38.390625 19.84375 
Q 39.796875 25.796875 39.796875 33 
z
" id="STIXGeneral-Regular-1d7e2"/>
      </defs>
      <g transform="translate(136.551186 162.57875)scale(0.08 -0.08)">
       <use transform="translate(0 0.40625)" xlink:href="#STIXGeneral-Regular-1d7e2"/>
      </g>
     </g>
    </g>
    <g id="xtick_5">
     <g id="line2d_14">
      <g>
       <use style="stroke:#000000;stroke-width:0.8;" x="172.735932" xlink:href="#m2f7902f33f" y="153"/>
      </g>
     </g>
     <g id="line2d_15">
      <g>
       <use style="stroke:#000000;stroke-width:0.8;" x="172.735932" xlink:href="#me890f0a736" y="9"/>
      </g>
     </g>
     <g id="text_5">
      <!-- $1$ -->
      <g transform="translate(170.735932 162.57875)scale(0.08 -0.08)">
       <use transform="translate(0 0.296875)" xlink:href="#STIXGeneral-Regular-1d7e3"/>
      </g>
     </g>
    </g>
    <g id="xtick_6">
     <g id="line2d_16">
      <g>
       <use style="stroke:#000000;stroke-width:0.8;" x="206.920678" xlink:href="#m2f7902f33f" y="153"/>
      </g>
     </g>
     <g id="line2d_17">
      <g>
       <use style="stroke:#000000;stroke-width:0.8;" x="206.920678" xlink:href="#me890f0a736" y="9"/>
      </g>
     </g>
     <g id="text_6">
      <!-- $2$ -->
      <g transform="translate(204.920678 162.57875)scale(0.08 -0.08)">
       <use transform="translate(0 0.40625)" xlink:href="#STIXGeneral-Regular-1d7e4"/>
      </g>
     </g>
    </g>
    <g id="xtick_7">
     <g id="line2d_18">
      <defs>
       <path d="M 0 0 
L 0 -1.5 
" id="m4a2260c5cc" style="stroke:#000000;stroke-width:0.6;"/>
      </defs>
      <g>
       <use style="stroke:#000000;stroke-width:0.6;" x="53.089322" xlink:href="#m4a2260c5cc" y="153"/>
      </g>
     </g>
     <g id="line2d_19">
      <defs>
       <path d="M 0 0 
L 0 1.5 
" id="mf0846d07fa" style="stroke:#000000;stroke-width:0.6;"/>
      </defs>
      <g>
       <use style="stroke:#000000;stroke-width:0.6;" x="53.089322" xlink:href="#mf0846d07fa" y="9"/>
      </g>
     </g>
    </g>
    <g id="xtick_8">
     <g id="line2d_20">
      <g>
       <use style="stroke:#000000;stroke-width:0.6;" x="87.274068" xlink:href="#m4a2260c5cc" y="153"/>
      </g>
     </g>
     <g id="line2d_21">
      <g>
       <use style="stroke:#000000;stroke-width:0.6;" x="87.274068" xlink:href="#mf0846d07fa" y="9"/>
      </g>
     </g>
    </g>
    <g id="xtick_9">
     <g id="line2d_22">
      <g>
       <use style="stroke:#000000;stroke-width:0.6;" x="121.458814" xlink:href="#m4a2260c5cc" y="153"/>
      </g>
     </g>
     <g id="line2d_23">
      <g>
       <use style="stroke:#000000;stroke-width:0.6;" x="121.458814" xlink:href="#mf0846d07fa" y="9"/>
      </g>
     </g>
    </g>
    <g id="xtick_10">
     <g id="line2d_24">
      <g>
       <use style="stroke:#000000;stroke-width:0.6;" x="155.643559" xlink:href="#m4a2260c5cc" y="153"/>
      </g>
     </g>
     <g id="line2d_25">
      <g>
       <use style="stroke:#000000;stroke-width:0.6;" x="155.643559" xlink:href="#mf0846d07fa" y="9"/>
      </g>
     </g>
    </g>
    <g id="xtick_11">
     <g id="line2d_26">
      <g>
       <use style="stroke:#000000;stroke-width:0.6;" x="189.828305" xlink:href="#m4a2260c5cc" y="153"/>
      </g>
     </g>
     <g id="line2d_27">
      <g>
       <use style="stroke:#000000;stroke-width:0.6;" x="189.828305" xlink:href="#mf0846d07fa" y="9"/>
      </g>
     </g>
    </g>
    <g id="xtick_12">
     <g id="line2d_28">
      <g>
       <use style="stroke:#000000;stroke-width:0.6;" x="224.013051" xlink:href="#m4a2260c5cc" y="153"/>
      </g>
     </g>
     <g id="line2d_29">
      <g>
       <use style="stroke:#000000;stroke-width:0.6;" x="224.013051" xlink:href="#mf0846d07fa" y="9"/>
      </g>
     </g>
    </g>
    <g id="text_7">
     <!-- $\beta\mu$ -->
     <defs>
      <path d="M 2.703125 -13.09375 
L 16 40.203125 
Q 18.796875 51.5 23.40625 57.90625 
Q 31.09375 68.296875 42.796875 68.296875 
Q 48.09375 68.296875 52 64.9375 
Q 55.90625 61.59375 55.90625 56.296875 
Q 55.90625 51.203125 53.203125 46.84375 
Q 50.5 42.5 45.703125 39.796875 
Q 49.09375 38.59375 51.140625 35.046875 
Q 53.203125 31.5 53.203125 27.09375 
Q 53.203125 14.59375 44.453125 6.59375 
Q 35.703125 -1.40625 25 -1.40625 
Q 18.296875 -1.40625 14.40625 2.203125 
L 10.703125 -12.59375 
Q 9.59375 -17 6.90625 -21.5 
L -1.203125 -21.5 
Q 1.59375 -17.40625 2.703125 -13.09375 
z
M 29.296875 37.5 
L 34.796875 42.90625 
Q 40.5 43.203125 44.140625 46.703125 
Q 47.796875 50.203125 47.796875 54.703125 
Q 47.796875 57.703125 45.84375 59.453125 
Q 43.90625 61.203125 40.5 61.203125 
Q 34.203125 61.203125 30.296875 55.84375 
Q 26.40625 50.5 24.59375 43.296875 
L 16.796875 11.796875 
Q 17.796875 9.09375 20.84375 7.390625 
Q 23.90625 5.703125 27.5 5.703125 
Q 34.296875 5.703125 39.640625 11.75 
Q 45 17.796875 45 25.703125 
Q 45 35.796875 28.90625 35.796875 
z
" id="STIXNonUnicode-Italic-e1d9"/>
      <path d="M 53.59375 45.296875 
L 45.5 12.796875 
Q 45 11 45 9.703125 
Q 45 6.09375 49.703125 6.09375 
L 49.296875 4.703125 
L 45.59375 -1 
Q 39.40625 -1 37.5 2.09375 
Q 36.59375 3.5 36.59375 6.40625 
L 21.59375 -1 
Q 16 -1 14.09375 1.5 
L 10.59375 -12.59375 
Q 9.296875 -17.90625 6.796875 -21.5 
L -0.90625 -21.5 
Q 2 -17 3.09375 -12.703125 
L 17.5 45.296875 
L 25.40625 45.296875 
L 17.90625 14.90625 
Q 17.40625 12.703125 17.40625 11.40625 
Q 17.40625 6.09375 23.90625 6.09375 
Q 26.703125 6.09375 31.34375 9.046875 
Q 36 12 38.5 16.09375 
L 45.703125 45.296875 
z
" id="STIXNonUnicode-Italic-e1e3"/>
     </defs>
     <g transform="translate(125.605 171.225)scale(0.08 -0.08)">
      <use transform="translate(0 0.703125)" xlink:href="#STIXNonUnicode-Italic-e1d9"/>
      <use transform="translate(53.499985 0.703125)" xlink:href="#STIXNonUnicode-Italic-e1e3"/>
     </g>
    </g>
   </g>
   <g id="matplotlib.axis_2">
    <g id="ytick_1">
     <g id="line2d_30">
      <defs>
       <path d="M 0 0 
L 2.5 0 
" id="m5e63856608" style="stroke:#000000;stroke-width:0.8;"/>
      </defs>
      <g>
       <use style="stroke:#000000;stroke-width:0.8;" x="29.16" xlink:href="#m5e63856608" y="146.454545"/>
      </g>
     </g>
     <g id="line2d_31">
      <defs>
       <path d="M 0 0 
L -2.5 0 
" id="m4ba876d869" style="stroke:#000000;stroke-width:0.8;"/>
      </defs>
      <g>
       <use style="stroke:#000000;stroke-width:0.8;" x="230.85" xlink:href="#m4ba876d869" y="146.454545"/>
      </g>
     </g>
     <g id="text_8">
      <!-- $0$ -->
      <g transform="translate(21.66 149.49392)scale(0.08 -0.08)">
       <use transform="translate(0 0.40625)" xlink:href="#STIXGeneral-Regular-1d7e2"/>
      </g>
     </g>
    </g>
    <g id="ytick_2">
     <g id="line2d_32">
      <g>
       <use style="stroke:#000000;stroke-width:0.8;" x="29.16" xlink:href="#m5e63856608" y="113.727273"/>
      </g>
     </g>
     <g id="line2d_33">
      <g>
       <use style="stroke:#000000;stroke-width:0.8;" x="230.85" xlink:href="#m4ba876d869" y="113.727273"/>
      </g>
     </g>
     <g id="text_9">
      <!-- $0.25$ -->
      <defs>
       <path d="M 18.09375 4.296875 
Q 18.09375 2.09375 16.4375 0.5 
Q 14.796875 -1.09375 12.5 -1.09375 
Q 10.203125 -1.09375 8.59375 0.5 
Q 7 2.09375 7 4.390625 
Q 7 6.703125 8.640625 8.34375 
Q 10.296875 10 12.59375 10 
Q 14.796875 10 16.4375 8.296875 
Q 18.09375 6.59375 18.09375 4.296875 
z
" id="STIXGeneral-Regular-2e"/>
       <path d="M 45.796875 67.59375 
L 42.59375 60.5 
L 24.90625 60.5 
L 18.5 47.796875 
Q 29.90625 46.203125 37.25 39.75 
Q 44.59375 33.296875 44.59375 22.59375 
Q 44.59375 12.703125 37.84375 5.640625 
Q 31.09375 -1.40625 21 -1.40625 
Q 10 -1.40625 3.59375 5.59375 
L 8.296875 11.203125 
Q 13.40625 5.703125 20.5 5.703125 
Q 27.90625 5.703125 32.296875 10.75 
Q 36.703125 15.796875 36.703125 22.59375 
Q 36.703125 30 30.09375 35.203125 
Q 23.40625 40.703125 9.40625 40.703125 
L 8 42.40625 
L 19.59375 67.59375 
z
" id="STIXGeneral-Regular-1d7e7"/>
      </defs>
      <g transform="translate(11.66 116.766648)scale(0.08 -0.08)">
       <use transform="translate(0 0.40625)" xlink:href="#STIXGeneral-Regular-1d7e2"/>
       <use transform="translate(49.999985 0.40625)" xlink:href="#STIXGeneral-Regular-2e"/>
       <use transform="translate(74.999969 0.40625)" xlink:href="#STIXGeneral-Regular-1d7e4"/>
       <use transform="translate(124.999954 0.40625)" xlink:href="#STIXGeneral-Regular-1d7e7"/>
      </g>
     </g>
    </g>
    <g id="ytick_3">
     <g id="line2d_34">
      <g>
       <use style="stroke:#000000;stroke-width:0.8;" x="29.16" xlink:href="#m5e63856608" y="81"/>
      </g>
     </g>
     <g id="line2d_35">
      <g>
       <use style="stroke:#000000;stroke-width:0.8;" x="230.85" xlink:href="#m4ba876d869" y="81"/>
      </g>
     </g>
     <g id="text_10">
      <!-- $0.5$ -->
      <g transform="translate(15.66 84.039375)scale(0.08 -0.08)">
       <use transform="translate(0 0.40625)" xlink:href="#STIXGeneral-Regular-1d7e2"/>
       <use transform="translate(49.999985 0.40625)" xlink:href="#STIXGeneral-Regular-2e"/>
       <use transform="translate(74.999969 0.40625)" xlink:href="#STIXGeneral-Regular-1d7e7"/>
      </g>
     </g>
    </g>
    <g id="ytick_4">
     <g id="line2d_36">
      <g>
       <use style="stroke:#000000;stroke-width:0.8;" x="29.16" xlink:href="#m5e63856608" y="48.272727"/>
      </g>
     </g>
     <g id="line2d_37">
      <g>
       <use style="stroke:#000000;stroke-width:0.8;" x="230.85" xlink:href="#m4ba876d869" y="48.272727"/>
      </g>
     </g>
     <g id="text_11">
      <!-- $0.75$ -->
      <defs>
       <path d="M 45.09375 64.203125 
L 23 -0.796875 
L 14.796875 -0.796875 
L 35.40625 59.09375 
L 3.796875 59.09375 
L 6.90625 66.203125 
L 45.09375 66.203125 
z
" id="STIXGeneral-Regular-1d7e9"/>
      </defs>
      <g transform="translate(11.66 51.312102)scale(0.08 -0.08)">
       <use transform="translate(0 0.40625)" xlink:href="#STIXGeneral-Regular-1d7e2"/>
       <use transform="translate(49.999985 0.40625)" xlink:href="#STIXGeneral-Regular-2e"/>
       <use transform="translate(74.999969 0.40625)" xlink:href="#STIXGeneral-Regular-1d7e9"/>
       <use transform="translate(124.999954 0.40625)" xlink:href="#STIXGeneral-Regular-1d7e7"/>
      </g>
     </g>
    </g>
    <g id="ytick_5">
     <g id="line2d_38">
      <g>
       <use style="stroke:#000000;stroke-width:0.8;" x="29.16" xlink:href="#m5e63856608" y="15.545455"/>
      </g>
     </g>
     <g id="line2d_39">
      <g>
       <use style="stroke:#000000;stroke-width:0.8;" x="230.85" xlink:href="#m4ba876d869" y="15.545455"/>
      </g>
     </g>
     <g id="text_12">
      <!-- $1$ -->
      <g transform="translate(21.66 18.58483)scale(0.08 -0.08)">
       <use transform="translate(0 0.296875)" xlink:href="#STIXGeneral-Regular-1d7e3"/>
      </g>
     </g>
    </g>
    <g id="ytick_6">
     <g id="line2d_40">
      <defs>
       <path d="M 0 0 
L 1.5 0 
" id="mef75cc0b7d" style="stroke:#000000;stroke-width:0.6;"/>
      </defs>
      <g>
       <use style="stroke:#000000;stroke-width:0.6;" x="29.16" xlink:href="#mef75cc0b7d" y="130.090909"/>
      </g>
     </g>
     <g id="line2d_41">
      <defs>
       <path d="M 0 0 
L -1.5 0 
" id="m552af1d955" style="stroke:#000000;stroke-width:0.6;"/>
      </defs>
      <g>
       <use style="stroke:#000000;stroke-width:0.6;" x="230.85" xlink:href="#m552af1d955" y="130.090909"/>
      </g>
     </g>
    </g>
    <g id="ytick_7">
     <g id="line2d_42">
      <g>
       <use style="stroke:#000000;stroke-width:0.6;" x="29.16" xlink:href="#mef75cc0b7d" y="97.363636"/>
      </g>
     </g>
     <g id="line2d_43">
      <g>
       <use style="stroke:#000000;stroke-width:0.6;" x="230.85" xlink:href="#m552af1d955" y="97.363636"/>
      </g>
     </g>
    </g>
    <g id="ytick_8">
     <g id="line2d_44">
      <g>
       <use style="stroke:#000000;stroke-width:0.6;" x="29.16" xlink:href="#mef75cc0b7d" y="64.636364"/>
      </g>
     </g>
     <g id="line2d_45">
      <g>
       <use style="stroke:#000000;stroke-width:0.6;" x="230.85" xlink:href="#m552af1d955" y="64.636364"/>
      </g>
     </g>
    </g>
    <g id="ytick_9">
     <g id="line2d_46">
      <g>
       <use style="stroke:#000000;stroke-width:0.6;" x="29.16" xlink:href="#mef75cc0b7d" y="31.909091"/>
      </g>
     </g>
     <g id="line2d_47">
      <g>
       <use style="stroke:#000000;stroke-width:0.6;" x="230.85" xlink:href="#m552af1d955" y="31.909091"/>
      </g>
     </g>
    </g>
    <g id="text_13">
     <!-- $p$ -->
     <defs>
      <path d="M 25.59375 45.90625 
L 24.5 40.90625 
Q 31.40625 46.296875 39.59375 46.296875 
Q 46.09375 46.296875 49.9375 42.140625 
Q 53.796875 38 53.796875 30.703125 
Q 53.796875 18.40625 44.546875 8.703125 
Q 35.296875 -1 25 -1 
Q 19.40625 -1 15.203125 2.59375 
L 9.796875 -19.203125 
L 2.203125 -21.59375 
L 1.40625 -21.09375 
L 17.59375 44 
L 24.90625 46.40625 
z
M 21.90625 29.5 
L 17.59375 12.296875 
Q 19.90625 6.09375 26.40625 6.09375 
Q 34 6.09375 39.75 12.84375 
Q 45.5 19.59375 45.5 28.40625 
Q 45.5 33.203125 43 36.203125 
Q 40.5 39.203125 35.796875 39.203125 
Q 32.296875 39.203125 28.5 36.546875 
Q 24.703125 33.90625 21.90625 29.5 
z
" id="STIXGeneral-Italic-1d631"/>
     </defs>
     <g transform="translate(7.9 83)rotate(-90)scale(0.08 -0.08)">
      <use transform="translate(0 0.59375)" xlink:href="#STIXGeneral-Italic-1d631"/>
     </g>
    </g>
   </g>
   <g id="LineCollection_1">
    <path clip-path="url(#p883cf78df0)" d="M 35.996949 101.98796 
L 35.996949 99.576321 
" style="fill:none;stroke:#114b5f;"/>
    <path clip-path="url(#p883cf78df0)" d="M 53.089322 104.140981 
L 53.089322 101.808634 
" style="fill:none;stroke:#114b5f;"/>
    <path clip-path="url(#p883cf78df0)" d="M 70.181695 107.566615 
L 70.181695 104.500368 
" style="fill:none;stroke:#114b5f;"/>
    <path clip-path="url(#p883cf78df0)" d="M 87.274068 111.581198 
L 87.274068 109.437814 
" style="fill:none;stroke:#114b5f;"/>
    <path clip-path="url(#p883cf78df0)" d="M 104.366441 116.834629 
L 104.366441 114.796699 
" style="fill:none;stroke:#114b5f;"/>
    <path clip-path="url(#p883cf78df0)" d="M 121.458814 122.583169 
L 121.458814 120.958208 
" style="fill:none;stroke:#114b5f;"/>
    <path clip-path="url(#p883cf78df0)" d="M 138.551186 129.418894 
L 138.551186 125.093131 
" style="fill:none;stroke:#114b5f;"/>
    <path clip-path="url(#p883cf78df0)" d="M 155.643559 133.739297 
L 155.643559 130.023439 
" style="fill:none;stroke:#114b5f;"/>
    <path clip-path="url(#p883cf78df0)" d="M 172.735932 136.425898 
L 172.735932 134.754797 
" style="fill:none;stroke:#114b5f;"/>
    <path clip-path="url(#p883cf78df0)" d="M 189.828305 138.874608 
L 189.828305 137.306274 
" style="fill:none;stroke:#114b5f;"/>
    <path clip-path="url(#p883cf78df0)" d="M 206.920678 140.19269 
L 206.920678 139.637436 
" style="fill:none;stroke:#114b5f;"/>
    <path clip-path="url(#p883cf78df0)" d="M 224.013051 141.409452 
L 224.013051 140.962487 
" style="fill:none;stroke:#114b5f;"/>
   </g>
   <g id="LineCollection_2">
    <path clip-path="url(#p883cf78df0)" d="M 35.996949 67.122896 
L 35.996949 63.624786 
" style="fill:none;stroke:#5f9049;"/>
    <path clip-path="url(#p883cf78df0)" d="M 53.089322 70.351332 
L 53.089322 66.770006 
" style="fill:none;stroke:#5f9049;"/>
    <path clip-path="url(#p883cf78df0)" d="M 70.181695 74.646561 
L 70.181695 72.466 
" style="fill:none;stroke:#5f9049;"/>
    <path clip-path="url(#p883cf78df0)" d="M 87.274068 80.580554 
L 87.274068 79.608374 
" style="fill:none;stroke:#5f9049;"/>
    <path clip-path="url(#p883cf78df0)" d="M 104.366441 89.848077 
L 104.366441 87.603117 
" style="fill:none;stroke:#5f9049;"/>
    <path clip-path="url(#p883cf78df0)" d="M 121.458814 100.227308 
L 121.458814 97.890633 
" style="fill:none;stroke:#5f9049;"/>
    <path clip-path="url(#p883cf78df0)" d="M 138.551186 111.211825 
L 138.551186 106.193988 
" style="fill:none;stroke:#5f9049;"/>
    <path clip-path="url(#p883cf78df0)" d="M 155.643559 120.277945 
L 155.643559 114.781552 
" style="fill:none;stroke:#5f9049;"/>
    <path clip-path="url(#p883cf78df0)" d="M 172.735932 125.237372 
L 172.735932 124.080501 
" style="fill:none;stroke:#5f9049;"/>
    <path clip-path="url(#p883cf78df0)" d="M 189.828305 130.355064 
L 189.828305 128.930577 
" style="fill:none;stroke:#5f9049;"/>
    <path clip-path="url(#p883cf78df0)" d="M 206.920678 134.15512 
L 206.920678 132.297348 
" style="fill:none;stroke:#5f9049;"/>
    <path clip-path="url(#p883cf78df0)" d="M 224.013051 136.446679 
L 224.013051 134.641489 
" style="fill:none;stroke:#5f9049;"/>
   </g>
   <g id="LineCollection_3">
    <path clip-path="url(#p883cf78df0)" d="M 35.996949 45.599607 
L 35.996949 40.076674 
" style="fill:none;stroke:#d7b501;"/>
    <path clip-path="url(#p883cf78df0)" d="M 53.089322 47.707953 
L 53.089322 43.928012 
" style="fill:none;stroke:#d7b501;"/>
    <path clip-path="url(#p883cf78df0)" d="M 70.181695 52.644119 
L 70.181695 49.680257 
" style="fill:none;stroke:#d7b501;"/>
    <path clip-path="url(#p883cf78df0)" d="M 87.274068 58.8904 
L 87.274068 56.869283 
" style="fill:none;stroke:#d7b501;"/>
    <path clip-path="url(#p883cf78df0)" d="M 104.366441 68.294182 
L 104.366441 66.866095 
" style="fill:none;stroke:#d7b501;"/>
    <path clip-path="url(#p883cf78df0)" d="M 121.458814 81.217375 
L 121.458814 77.126399 
" style="fill:none;stroke:#d7b501;"/>
    <path clip-path="url(#p883cf78df0)" d="M 138.551186 94.238395 
L 138.551186 88.777605 
" style="fill:none;stroke:#d7b501;"/>
    <path clip-path="url(#p883cf78df0)" d="M 155.643559 106.092498 
L 155.643559 101.161695 
" style="fill:none;stroke:#d7b501;"/>
    <path clip-path="url(#p883cf78df0)" d="M 172.735932 115.298875 
L 172.735932 112.410747 
" style="fill:none;stroke:#d7b501;"/>
    <path clip-path="url(#p883cf78df0)" d="M 189.828305 121.672074 
L 189.828305 120.32424 
" style="fill:none;stroke:#d7b501;"/>
    <path clip-path="url(#p883cf78df0)" d="M 206.920678 126.969367 
L 206.920678 125.218432 
" style="fill:none;stroke:#d7b501;"/>
    <path clip-path="url(#p883cf78df0)" d="M 224.013051 130.424859 
L 224.013051 129.506907 
" style="fill:none;stroke:#d7b501;"/>
   </g>
   <g id="LineCollection_4">
    <path clip-path="url(#p883cf78df0)" d="M 35.996949 34.53303 
L 35.996949 25.751927 
" style="fill:none;stroke:#eca300;"/>
    <path clip-path="url(#p883cf78df0)" d="M 53.089322 35.617233 
L 53.089322 29.810233 
" style="fill:none;stroke:#eca300;"/>
    <path clip-path="url(#p883cf78df0)" d="M 70.181695 38.550489 
L 70.181695 34.946915 
" style="fill:none;stroke:#eca300;"/>
    <path clip-path="url(#p883cf78df0)" d="M 87.274068 44.684455 
L 87.274068 41.483718 
" style="fill:none;stroke:#eca300;"/>
    <path clip-path="url(#p883cf78df0)" d="M 104.366441 53.513598 
L 104.366441 50.538033 
" style="fill:none;stroke:#eca300;"/>
    <path clip-path="url(#p883cf78df0)" d="M 121.458814 64.811569 
L 121.458814 61.928966 
" style="fill:none;stroke:#eca300;"/>
    <path clip-path="url(#p883cf78df0)" d="M 138.551186 78.610194 
L 138.551186 74.856445 
" style="fill:none;stroke:#eca300;"/>
    <path clip-path="url(#p883cf78df0)" d="M 155.643559 92.735564 
L 155.643559 88.295856 
" style="fill:none;stroke:#eca300;"/>
    <path clip-path="url(#p883cf78df0)" d="M 172.735932 103.423248 
L 172.735932 102.162434 
" style="fill:none;stroke:#eca300;"/>
    <path clip-path="url(#p883cf78df0)" d="M 189.828305 113.097673 
L 189.828305 111.381338 
" style="fill:none;stroke:#eca300;"/>
    <path clip-path="url(#p883cf78df0)" d="M 206.920678 119.5663 
L 206.920678 118.626532 
" style="fill:none;stroke:#eca300;"/>
    <path clip-path="url(#p883cf78df0)" d="M 224.013051 124.352201 
L 224.013051 123.281637 
" style="fill:none;stroke:#eca300;"/>
   </g>
   <g id="LineCollection_5">
    <path clip-path="url(#p883cf78df0)" d="M 35.996949 28.352204 
L 35.996949 18.542996 
" style="fill:none;stroke:#db7502;"/>
    <path clip-path="url(#p883cf78df0)" d="M 53.089322 28.208131 
L 53.089322 22.384196 
" style="fill:none;stroke:#db7502;"/>
    <path clip-path="url(#p883cf78df0)" d="M 70.181695 30.32578 
L 70.181695 26.517786 
" style="fill:none;stroke:#db7502;"/>
    <path clip-path="url(#p883cf78df0)" d="M 87.274068 35.973102 
L 87.274068 30.905918 
" style="fill:none;stroke:#db7502;"/>
    <path clip-path="url(#p883cf78df0)" d="M 104.366441 43.174197 
L 104.366441 38.992571 
" style="fill:none;stroke:#db7502;"/>
    <path clip-path="url(#p883cf78df0)" d="M 121.458814 52.455375 
L 121.458814 49.859977 
" style="fill:none;stroke:#db7502;"/>
    <path clip-path="url(#p883cf78df0)" d="M 138.551186 65.589005 
L 138.551186 62.730327 
" style="fill:none;stroke:#db7502;"/>
    <path clip-path="url(#p883cf78df0)" d="M 155.643559 80.686345 
L 155.643559 76.343526 
" style="fill:none;stroke:#db7502;"/>
    <path clip-path="url(#p883cf78df0)" d="M 172.735932 93.151578 
L 172.735932 91.749359 
" style="fill:none;stroke:#db7502;"/>
    <path clip-path="url(#p883cf78df0)" d="M 189.828305 103.995391 
L 189.828305 102.617115 
" style="fill:none;stroke:#db7502;"/>
    <path clip-path="url(#p883cf78df0)" d="M 206.920678 112.722883 
L 206.920678 110.891419 
" style="fill:none;stroke:#db7502;"/>
    <path clip-path="url(#p883cf78df0)" d="M 224.013051 118.709722 
L 224.013051 116.669459 
" style="fill:none;stroke:#db7502;"/>
   </g>
   <g id="line2d_48">
    <defs>
     <path d="M -0.574025 -1.385819 
L -1.385819 -0.574025 
L -1.385819 0.574025 
L -0.574025 1.385819 
L 0.574025 1.385819 
L 1.385819 0.574025 
L 1.385819 -0.574025 
L 0.574025 -1.385819 
z
" id="m2e0ee7f25a" style="stroke:#114b5f;stroke-linejoin:miter;stroke-width:0.75;"/>
    </defs>
    <g clip-path="url(#p883cf78df0)">
     <use style="fill:#2faeda;stroke:#114b5f;stroke-linejoin:miter;stroke-width:0.75;" x="35.996949" xlink:href="#m2e0ee7f25a" y="100.78214"/>
     <use style="fill:#2faeda;stroke:#114b5f;stroke-linejoin:miter;stroke-width:0.75;" x="53.089322" xlink:href="#m2e0ee7f25a" y="102.974808"/>
     <use style="fill:#2faeda;stroke:#114b5f;stroke-linejoin:miter;stroke-width:0.75;" x="70.181695" xlink:href="#m2e0ee7f25a" y="106.033491"/>
     <use style="fill:#2faeda;stroke:#114b5f;stroke-linejoin:miter;stroke-width:0.75;" x="87.274068" xlink:href="#m2e0ee7f25a" y="110.509506"/>
     <use style="fill:#2faeda;stroke:#114b5f;stroke-linejoin:miter;stroke-width:0.75;" x="104.366441" xlink:href="#m2e0ee7f25a" y="115.815664"/>
     <use style="fill:#2faeda;stroke:#114b5f;stroke-linejoin:miter;stroke-width:0.75;" x="121.458814" xlink:href="#m2e0ee7f25a" y="121.770689"/>
     <use style="fill:#2faeda;stroke:#114b5f;stroke-linejoin:miter;stroke-width:0.75;" x="138.551186" xlink:href="#m2e0ee7f25a" y="127.256012"/>
     <use style="fill:#2faeda;stroke:#114b5f;stroke-linejoin:miter;stroke-width:0.75;" x="155.643559" xlink:href="#m2e0ee7f25a" y="131.881368"/>
     <use style="fill:#2faeda;stroke:#114b5f;stroke-linejoin:miter;stroke-width:0.75;" x="172.735932" xlink:href="#m2e0ee7f25a" y="135.590347"/>
     <use style="fill:#2faeda;stroke:#114b5f;stroke-linejoin:miter;stroke-width:0.75;" x="189.828305" xlink:href="#m2e0ee7f25a" y="138.090441"/>
     <use style="fill:#2faeda;stroke:#114b5f;stroke-linejoin:miter;stroke-width:0.75;" x="206.920678" xlink:href="#m2e0ee7f25a" y="139.915063"/>
     <use style="fill:#2faeda;stroke:#114b5f;stroke-linejoin:miter;stroke-width:0.75;" x="224.013051" xlink:href="#m2e0ee7f25a" y="141.18597"/>
    </g>
   </g>
   <g id="line2d_49">
    <defs>
     <path d="M 0 -1.5 
L -1.299038 -0.75 
L -1.299038 0.75 
L -0 1.5 
L 1.299038 0.75 
L 1.299038 -0.75 
z
" id="m00bd9f36ec" style="stroke:#5f9049;stroke-linejoin:miter;stroke-width:0.75;"/>
    </defs>
    <g clip-path="url(#p883cf78df0)">
     <use style="fill:#8ab975;stroke:#5f9049;stroke-linejoin:miter;stroke-width:0.75;" x="35.996949" xlink:href="#m00bd9f36ec" y="65.373841"/>
     <use style="fill:#8ab975;stroke:#5f9049;stroke-linejoin:miter;stroke-width:0.75;" x="53.089322" xlink:href="#m00bd9f36ec" y="68.560669"/>
     <use style="fill:#8ab975;stroke:#5f9049;stroke-linejoin:miter;stroke-width:0.75;" x="70.181695" xlink:href="#m00bd9f36ec" y="73.55628"/>
     <use style="fill:#8ab975;stroke:#5f9049;stroke-linejoin:miter;stroke-width:0.75;" x="87.274068" xlink:href="#m00bd9f36ec" y="80.094464"/>
     <use style="fill:#8ab975;stroke:#5f9049;stroke-linejoin:miter;stroke-width:0.75;" x="104.366441" xlink:href="#m00bd9f36ec" y="88.725597"/>
     <use style="fill:#8ab975;stroke:#5f9049;stroke-linejoin:miter;stroke-width:0.75;" x="121.458814" xlink:href="#m00bd9f36ec" y="99.05897"/>
     <use style="fill:#8ab975;stroke:#5f9049;stroke-linejoin:miter;stroke-width:0.75;" x="138.551186" xlink:href="#m00bd9f36ec" y="108.702906"/>
     <use style="fill:#8ab975;stroke:#5f9049;stroke-linejoin:miter;stroke-width:0.75;" x="155.643559" xlink:href="#m00bd9f36ec" y="117.529749"/>
     <use style="fill:#8ab975;stroke:#5f9049;stroke-linejoin:miter;stroke-width:0.75;" x="172.735932" xlink:href="#m00bd9f36ec" y="124.658937"/>
     <use style="fill:#8ab975;stroke:#5f9049;stroke-linejoin:miter;stroke-width:0.75;" x="189.828305" xlink:href="#m00bd9f36ec" y="129.64282"/>
     <use style="fill:#8ab975;stroke:#5f9049;stroke-linejoin:miter;stroke-width:0.75;" x="206.920678" xlink:href="#m00bd9f36ec" y="133.226234"/>
     <use style="fill:#8ab975;stroke:#5f9049;stroke-linejoin:miter;stroke-width:0.75;" x="224.013051" xlink:href="#m00bd9f36ec" y="135.544084"/>
    </g>
   </g>
   <g id="line2d_50">
    <defs>
     <path d="M 0 -1.5 
L -1.426585 -0.463525 
L -0.881678 1.213525 
L 0.881678 1.213525 
L 1.426585 -0.463525 
z
" id="mbe276889c1" style="stroke:#d7b501;stroke-linejoin:miter;stroke-width:0.75;"/>
    </defs>
    <g clip-path="url(#p883cf78df0)">
     <use style="fill:#feda1e;stroke:#d7b501;stroke-linejoin:miter;stroke-width:0.75;" x="35.996949" xlink:href="#mbe276889c1" y="42.838141"/>
     <use style="fill:#feda1e;stroke:#d7b501;stroke-linejoin:miter;stroke-width:0.75;" x="53.089322" xlink:href="#mbe276889c1" y="45.817983"/>
     <use style="fill:#feda1e;stroke:#d7b501;stroke-linejoin:miter;stroke-width:0.75;" x="70.181695" xlink:href="#mbe276889c1" y="51.162188"/>
     <use style="fill:#feda1e;stroke:#d7b501;stroke-linejoin:miter;stroke-width:0.75;" x="87.274068" xlink:href="#mbe276889c1" y="57.879842"/>
     <use style="fill:#feda1e;stroke:#d7b501;stroke-linejoin:miter;stroke-width:0.75;" x="104.366441" xlink:href="#mbe276889c1" y="67.580138"/>
     <use style="fill:#feda1e;stroke:#d7b501;stroke-linejoin:miter;stroke-width:0.75;" x="121.458814" xlink:href="#mbe276889c1" y="79.171887"/>
     <use style="fill:#feda1e;stroke:#d7b501;stroke-linejoin:miter;stroke-width:0.75;" x="138.551186" xlink:href="#mbe276889c1" y="91.508"/>
     <use style="fill:#feda1e;stroke:#d7b501;stroke-linejoin:miter;stroke-width:0.75;" x="155.643559" xlink:href="#mbe276889c1" y="103.627097"/>
     <use style="fill:#feda1e;stroke:#d7b501;stroke-linejoin:miter;stroke-width:0.75;" x="172.735932" xlink:href="#mbe276889c1" y="113.854811"/>
     <use style="fill:#feda1e;stroke:#d7b501;stroke-linejoin:miter;stroke-width:0.75;" x="189.828305" xlink:href="#mbe276889c1" y="120.998157"/>
     <use style="fill:#feda1e;stroke:#d7b501;stroke-linejoin:miter;stroke-width:0.75;" x="206.920678" xlink:href="#mbe276889c1" y="126.0939"/>
     <use style="fill:#feda1e;stroke:#d7b501;stroke-linejoin:miter;stroke-width:0.75;" x="224.013051" xlink:href="#mbe276889c1" y="129.965883"/>
    </g>
   </g>
   <g id="line2d_51">
    <defs>
     <path d="M -1.5 1.5 
L 1.5 1.5 
L 1.5 -1.5 
L -1.5 -1.5 
z
" id="m147fcee957" style="stroke:#eca300;stroke-linejoin:miter;stroke-width:0.75;"/>
    </defs>
    <g clip-path="url(#p883cf78df0)">
     <use style="fill:#ffca53;stroke:#eca300;stroke-linejoin:miter;stroke-width:0.75;" x="35.996949" xlink:href="#m147fcee957" y="30.142478"/>
     <use style="fill:#ffca53;stroke:#eca300;stroke-linejoin:miter;stroke-width:0.75;" x="53.089322" xlink:href="#m147fcee957" y="32.713733"/>
     <use style="fill:#ffca53;stroke:#eca300;stroke-linejoin:miter;stroke-width:0.75;" x="70.181695" xlink:href="#m147fcee957" y="36.748702"/>
     <use style="fill:#ffca53;stroke:#eca300;stroke-linejoin:miter;stroke-width:0.75;" x="87.274068" xlink:href="#m147fcee957" y="43.084086"/>
     <use style="fill:#ffca53;stroke:#eca300;stroke-linejoin:miter;stroke-width:0.75;" x="104.366441" xlink:href="#m147fcee957" y="52.025815"/>
     <use style="fill:#ffca53;stroke:#eca300;stroke-linejoin:miter;stroke-width:0.75;" x="121.458814" xlink:href="#m147fcee957" y="63.370267"/>
     <use style="fill:#ffca53;stroke:#eca300;stroke-linejoin:miter;stroke-width:0.75;" x="138.551186" xlink:href="#m147fcee957" y="76.733319"/>
     <use style="fill:#ffca53;stroke:#eca300;stroke-linejoin:miter;stroke-width:0.75;" x="155.643559" xlink:href="#m147fcee957" y="90.51571"/>
     <use style="fill:#ffca53;stroke:#eca300;stroke-linejoin:miter;stroke-width:0.75;" x="172.735932" xlink:href="#m147fcee957" y="102.792841"/>
     <use style="fill:#ffca53;stroke:#eca300;stroke-linejoin:miter;stroke-width:0.75;" x="189.828305" xlink:href="#m147fcee957" y="112.239506"/>
     <use style="fill:#ffca53;stroke:#eca300;stroke-linejoin:miter;stroke-width:0.75;" x="206.920678" xlink:href="#m147fcee957" y="119.096416"/>
     <use style="fill:#ffca53;stroke:#eca300;stroke-linejoin:miter;stroke-width:0.75;" x="224.013051" xlink:href="#m147fcee957" y="123.816919"/>
    </g>
   </g>
   <g id="line2d_52">
    <defs>
     <path d="M 0 -1.5 
L -1.5 1.5 
L 1.5 1.5 
z
" id="m577b87b6cf" style="stroke:#db7502;stroke-linejoin:miter;stroke-width:0.75;"/>
    </defs>
    <g clip-path="url(#p883cf78df0)">
     <use style="fill:#fdaf56;stroke:#db7502;stroke-linejoin:miter;stroke-width:0.75;" x="35.996949" xlink:href="#m577b87b6cf" y="23.4476"/>
     <use style="fill:#fdaf56;stroke:#db7502;stroke-linejoin:miter;stroke-width:0.75;" x="53.089322" xlink:href="#m577b87b6cf" y="25.296164"/>
     <use style="fill:#fdaf56;stroke:#db7502;stroke-linejoin:miter;stroke-width:0.75;" x="70.181695" xlink:href="#m577b87b6cf" y="28.421783"/>
     <use style="fill:#fdaf56;stroke:#db7502;stroke-linejoin:miter;stroke-width:0.75;" x="87.274068" xlink:href="#m577b87b6cf" y="33.43951"/>
     <use style="fill:#fdaf56;stroke:#db7502;stroke-linejoin:miter;stroke-width:0.75;" x="104.366441" xlink:href="#m577b87b6cf" y="41.083384"/>
     <use style="fill:#fdaf56;stroke:#db7502;stroke-linejoin:miter;stroke-width:0.75;" x="121.458814" xlink:href="#m577b87b6cf" y="51.157676"/>
     <use style="fill:#fdaf56;stroke:#db7502;stroke-linejoin:miter;stroke-width:0.75;" x="138.551186" xlink:href="#m577b87b6cf" y="64.159666"/>
     <use style="fill:#fdaf56;stroke:#db7502;stroke-linejoin:miter;stroke-width:0.75;" x="155.643559" xlink:href="#m577b87b6cf" y="78.514936"/>
     <use style="fill:#fdaf56;stroke:#db7502;stroke-linejoin:miter;stroke-width:0.75;" x="172.735932" xlink:href="#m577b87b6cf" y="92.450469"/>
     <use style="fill:#fdaf56;stroke:#db7502;stroke-linejoin:miter;stroke-width:0.75;" x="189.828305" xlink:href="#m577b87b6cf" y="103.306253"/>
     <use style="fill:#fdaf56;stroke:#db7502;stroke-linejoin:miter;stroke-width:0.75;" x="206.920678" xlink:href="#m577b87b6cf" y="111.807151"/>
     <use style="fill:#fdaf56;stroke:#db7502;stroke-linejoin:miter;stroke-width:0.75;" x="224.013051" xlink:href="#m577b87b6cf" y="117.689591"/>
    </g>
   </g>
   <g id="patch_3">
    <path d="M 29.16 153 
L 29.16 9 
" style="fill:none;stroke:#000000;stroke-linecap:square;stroke-linejoin:miter;stroke-width:0.8;"/>
   </g>
   <g id="patch_4">
    <path d="M 230.85 153 
L 230.85 9 
" style="fill:none;stroke:#000000;stroke-linecap:square;stroke-linejoin:miter;stroke-width:0.8;"/>
   </g>
   <g id="patch_5">
    <path d="M 29.16 153 
L 230.85 153 
" style="fill:none;stroke:#000000;stroke-linecap:square;stroke-linejoin:miter;stroke-width:0.8;"/>
   </g>
   <g id="patch_6">
    <path d="M 29.16 9 
L 230.85 9 
" style="fill:none;stroke:#000000;stroke-linecap:square;stroke-linejoin:miter;stroke-width:0.8;"/>
   </g>
   <g id="legend_1">
    <g id="line2d_53">
     <path d="M 166.062187 16.859062 
L 178.062187 16.859062 
" style="fill:none;stroke:#114b5f;stroke-dasharray:3.7,1.6;stroke-dashoffset:0;"/>
    </g>
    <g id="line2d_54"/>
    <g id="text_14">
     <!-- VE (3rd order) -->
     <defs>
      <path d="M 28.609375 0 
L 0.78125 72.90625 
L 11.078125 72.90625 
L 34.1875 11.53125 
L 57.328125 72.90625 
L 67.578125 72.90625 
L 39.796875 0 
z
" id="DejaVuSans-56"/>
      <path d="M 9.8125 72.90625 
L 55.90625 72.90625 
L 55.90625 64.59375 
L 19.671875 64.59375 
L 19.671875 43.015625 
L 54.390625 43.015625 
L 54.390625 34.71875 
L 19.671875 34.71875 
L 19.671875 8.296875 
L 56.78125 8.296875 
L 56.78125 0 
L 9.8125 0 
z
" id="DejaVuSans-45"/>
      <path id="DejaVuSans-20"/>
      <path d="M 31 75.875 
Q 24.46875 64.65625 21.28125 53.65625 
Q 18.109375 42.671875 18.109375 31.390625 
Q 18.109375 20.125 21.3125 9.0625 
Q 24.515625 -2 31 -13.1875 
L 23.1875 -13.1875 
Q 15.875 -1.703125 12.234375 9.375 
Q 8.59375 20.453125 8.59375 31.390625 
Q 8.59375 42.28125 12.203125 53.3125 
Q 15.828125 64.359375 23.1875 75.875 
z
" id="DejaVuSans-28"/>
      <path d="M 40.578125 39.3125 
Q 47.65625 37.796875 51.625 33 
Q 55.609375 28.21875 55.609375 21.1875 
Q 55.609375 10.40625 48.1875 4.484375 
Q 40.765625 -1.421875 27.09375 -1.421875 
Q 22.515625 -1.421875 17.65625 -0.515625 
Q 12.796875 0.390625 7.625 2.203125 
L 7.625 11.71875 
Q 11.71875 9.328125 16.59375 8.109375 
Q 21.484375 6.890625 26.8125 6.890625 
Q 36.078125 6.890625 40.9375 10.546875 
Q 45.796875 14.203125 45.796875 21.1875 
Q 45.796875 27.640625 41.28125 31.265625 
Q 36.765625 34.90625 28.71875 34.90625 
L 20.21875 34.90625 
L 20.21875 43.015625 
L 29.109375 43.015625 
Q 36.375 43.015625 40.234375 45.921875 
Q 44.09375 48.828125 44.09375 54.296875 
Q 44.09375 59.90625 40.109375 62.90625 
Q 36.140625 65.921875 28.71875 65.921875 
Q 24.65625 65.921875 20.015625 65.03125 
Q 15.375 64.15625 9.8125 62.3125 
L 9.8125 71.09375 
Q 15.4375 72.65625 20.34375 73.4375 
Q 25.25 74.21875 29.59375 74.21875 
Q 40.828125 74.21875 47.359375 69.109375 
Q 53.90625 64.015625 53.90625 55.328125 
Q 53.90625 49.265625 50.4375 45.09375 
Q 46.96875 40.921875 40.578125 39.3125 
z
" id="DejaVuSans-33"/>
      <path d="M 41.109375 46.296875 
Q 39.59375 47.171875 37.8125 47.578125 
Q 36.03125 48 33.890625 48 
Q 26.265625 48 22.1875 43.046875 
Q 18.109375 38.09375 18.109375 28.8125 
L 18.109375 0 
L 9.078125 0 
L 9.078125 54.6875 
L 18.109375 54.6875 
L 18.109375 46.1875 
Q 20.953125 51.171875 25.484375 53.578125 
Q 30.03125 56 36.53125 56 
Q 37.453125 56 38.578125 55.875 
Q 39.703125 55.765625 41.0625 55.515625 
z
" id="DejaVuSans-72"/>
      <path d="M 45.40625 46.390625 
L 45.40625 75.984375 
L 54.390625 75.984375 
L 54.390625 0 
L 45.40625 0 
L 45.40625 8.203125 
Q 42.578125 3.328125 38.25 0.953125 
Q 33.9375 -1.421875 27.875 -1.421875 
Q 17.96875 -1.421875 11.734375 6.484375 
Q 5.515625 14.40625 5.515625 27.296875 
Q 5.515625 40.1875 11.734375 48.09375 
Q 17.96875 56 27.875 56 
Q 33.9375 56 38.25 53.625 
Q 42.578125 51.265625 45.40625 46.390625 
z
M 14.796875 27.296875 
Q 14.796875 17.390625 18.875 11.75 
Q 22.953125 6.109375 30.078125 6.109375 
Q 37.203125 6.109375 41.296875 11.75 
Q 45.40625 17.390625 45.40625 27.296875 
Q 45.40625 37.203125 41.296875 42.84375 
Q 37.203125 48.484375 30.078125 48.484375 
Q 22.953125 48.484375 18.875 42.84375 
Q 14.796875 37.203125 14.796875 27.296875 
z
" id="DejaVuSans-64"/>
      <path d="M 30.609375 48.390625 
Q 23.390625 48.390625 19.1875 42.75 
Q 14.984375 37.109375 14.984375 27.296875 
Q 14.984375 17.484375 19.15625 11.84375 
Q 23.34375 6.203125 30.609375 6.203125 
Q 37.796875 6.203125 41.984375 11.859375 
Q 46.1875 17.53125 46.1875 27.296875 
Q 46.1875 37.015625 41.984375 42.703125 
Q 37.796875 48.390625 30.609375 48.390625 
z
M 30.609375 56 
Q 42.328125 56 49.015625 48.375 
Q 55.71875 40.765625 55.71875 27.296875 
Q 55.71875 13.875 49.015625 6.21875 
Q 42.328125 -1.421875 30.609375 -1.421875 
Q 18.84375 -1.421875 12.171875 6.21875 
Q 5.515625 13.875 5.515625 27.296875 
Q 5.515625 40.765625 12.171875 48.375 
Q 18.84375 56 30.609375 56 
z
" id="DejaVuSans-6f"/>
      <path d="M 56.203125 29.59375 
L 56.203125 25.203125 
L 14.890625 25.203125 
Q 15.484375 15.921875 20.484375 11.0625 
Q 25.484375 6.203125 34.421875 6.203125 
Q 39.59375 6.203125 44.453125 7.46875 
Q 49.3125 8.734375 54.109375 11.28125 
L 54.109375 2.78125 
Q 49.265625 0.734375 44.1875 -0.34375 
Q 39.109375 -1.421875 33.890625 -1.421875 
Q 20.796875 -1.421875 13.15625 6.1875 
Q 5.515625 13.8125 5.515625 26.8125 
Q 5.515625 40.234375 12.765625 48.109375 
Q 20.015625 56 32.328125 56 
Q 43.359375 56 49.78125 48.890625 
Q 56.203125 41.796875 56.203125 29.59375 
z
M 47.21875 32.234375 
Q 47.125 39.59375 43.09375 43.984375 
Q 39.0625 48.390625 32.421875 48.390625 
Q 24.90625 48.390625 20.390625 44.140625 
Q 15.875 39.890625 15.1875 32.171875 
z
" id="DejaVuSans-65"/>
      <path d="M 8.015625 75.875 
L 15.828125 75.875 
Q 23.140625 64.359375 26.78125 53.3125 
Q 30.421875 42.28125 30.421875 31.390625 
Q 30.421875 20.453125 26.78125 9.375 
Q 23.140625 -1.703125 15.828125 -13.1875 
L 8.015625 -13.1875 
Q 14.5 -2 17.703125 9.0625 
Q 20.90625 20.125 20.90625 31.390625 
Q 20.90625 42.671875 17.703125 53.65625 
Q 14.5 64.65625 8.015625 75.875 
z
" id="DejaVuSans-29"/>
     </defs>
     <g transform="translate(182.862188 18.959062)scale(0.06 -0.06)">
      <use xlink:href="#DejaVuSans-56"/>
      <use x="68.408203" xlink:href="#DejaVuSans-45"/>
      <use x="131.591797" xlink:href="#DejaVuSans-20"/>
      <use x="163.378906" xlink:href="#DejaVuSans-28"/>
      <use x="202.392578" xlink:href="#DejaVuSans-33"/>
      <use x="266.015625" xlink:href="#DejaVuSans-72"/>
      <use x="307.113281" xlink:href="#DejaVuSans-64"/>
      <use x="370.589844" xlink:href="#DejaVuSans-20"/>
      <use x="402.376953" xlink:href="#DejaVuSans-6f"/>
      <use x="463.558594" xlink:href="#DejaVuSans-72"/>
      <use x="504.65625" xlink:href="#DejaVuSans-64"/>
      <use x="568.132812" xlink:href="#DejaVuSans-65"/>
      <use x="629.65625" xlink:href="#DejaVuSans-72"/>
      <use x="670.769531" xlink:href="#DejaVuSans-29"/>
     </g>
    </g>
    <g id="LineCollection_6">
     <path d="M 172.062187 28.665938 
L 172.062187 22.665938 
" style="fill:none;stroke:#db7502;"/>
    </g>
    <g id="line2d_55"/>
    <g id="line2d_56">
     <g>
      <use style="fill:#fdaf56;stroke:#db7502;stroke-linejoin:miter;stroke-width:0.75;" x="172.062187" xlink:href="#m577b87b6cf" y="25.665938"/>
     </g>
    </g>
    <g id="text_15">
     <!-- $\beta h = 2.0$ -->
     <defs>
      <path d="M 31.09375 67.90625 
L 24.203125 40.5 
Q 28.59375 44 32.25 45.140625 
Q 35.90625 46.296875 40.5 46.296875 
Q 45.40625 46.296875 48.203125 43.796875 
Q 51 41.296875 51 36.59375 
Q 51 34.5 50.40625 32.09375 
L 42.40625 0 
L 34.5 0 
L 42 30.40625 
Q 42.5 32.59375 42.5 33.796875 
Q 42.5 39.203125 36 39.203125 
Q 33.09375 39.203125 28.640625 36.703125 
Q 24.203125 34.203125 21.703125 30.203125 
L 14.203125 0 
L 6.296875 0 
L 22.703125 66 
L 30.296875 68.40625 
z
" id="STIXGeneral-Italic-1d629"/>
      <path d="M 63.703125 32 
L 4.796875 32 
L 4.796875 38.59375 
L 63.703125 38.59375 
z
M 63.703125 12 
L 4.796875 12 
L 4.796875 18.59375 
L 63.703125 18.59375 
z
" id="STIXGeneral-Regular-3d"/>
     </defs>
     <g transform="translate(182.862188 27.765938)scale(0.06 -0.06)">
      <use transform="translate(0 0.59375)" xlink:href="#STIXNonUnicode-Italic-e1d9"/>
      <use transform="translate(53.499985 0.59375)" xlink:href="#STIXGeneral-Italic-1d629"/>
      <use transform="translate(117.31998 0.59375)" xlink:href="#STIXGeneral-Regular-3d"/>
      <use transform="translate(200.939963 0.59375)" xlink:href="#STIXGeneral-Regular-1d7e4"/>
      <use transform="translate(250.939948 0.59375)" xlink:href="#STIXGeneral-Regular-2e"/>
      <use transform="translate(275.939932 0.59375)" xlink:href="#STIXGeneral-Regular-1d7e2"/>
     </g>
    </g>
    <g id="LineCollection_7">
     <path d="M 172.062187 37.545 
L 172.062187 31.545 
" style="fill:none;stroke:#eca300;"/>
    </g>
    <g id="line2d_57"/>
    <g id="line2d_58">
     <g>
      <use style="fill:#ffca53;stroke:#eca300;stroke-linejoin:miter;stroke-width:0.75;" x="172.062187" xlink:href="#m147fcee957" y="34.545"/>
     </g>
    </g>
    <g id="text_16">
     <!-- $\beta h = 1.6$ -->
     <defs>
      <path d="M 44.796875 66.796875 
L 43 61.5 
Q 31.59375 60.703125 23.640625 54.953125 
Q 15.703125 49.203125 12.203125 38.796875 
Q 18.09375 43.09375 25.90625 43.09375 
Q 34.5 43.09375 40.75 37.296875 
Q 47 31.5 47 22 
Q 47 12.296875 40.953125 5.4375 
Q 34.90625 -1.40625 25.703125 -1.40625 
Q 18 -1.40625 12.75 2.640625 
Q 7.5 6.703125 5.34375 12.75 
Q 3.203125 18.796875 3.203125 26.40625 
Q 3.203125 34.90625 6.203125 43.046875 
Q 9.203125 51.203125 14.296875 56.203125 
Q 21 62.796875 27.09375 65.046875 
Q 33.203125 67.296875 44.703125 68.40625 
z
M 39 20.703125 
Q 39 27.90625 34.890625 31.953125 
Q 30.796875 36 25.09375 36 
Q 19.90625 36 16 32.953125 
Q 12.09375 29.90625 11.203125 24 
Q 11.203125 15.90625 15.203125 10.796875 
Q 19.203125 5.703125 26 5.703125 
Q 31.5 5.703125 35.25 9.953125 
Q 39 14.203125 39 20.703125 
z
" id="STIXGeneral-Regular-1d7e8"/>
     </defs>
     <g transform="translate(182.862188 36.645)scale(0.06 -0.06)">
      <use transform="translate(0 0.59375)" xlink:href="#STIXNonUnicode-Italic-e1d9"/>
      <use transform="translate(53.499985 0.59375)" xlink:href="#STIXGeneral-Italic-1d629"/>
      <use transform="translate(117.31998 0.59375)" xlink:href="#STIXGeneral-Regular-3d"/>
      <use transform="translate(200.939963 0.59375)" xlink:href="#STIXGeneral-Regular-1d7e3"/>
      <use transform="translate(250.939948 0.59375)" xlink:href="#STIXGeneral-Regular-2e"/>
      <use transform="translate(275.939932 0.59375)" xlink:href="#STIXGeneral-Regular-1d7e8"/>
     </g>
    </g>
    <g id="LineCollection_8">
     <path d="M 172.062187 46.424062 
L 172.062187 40.424062 
" style="fill:none;stroke:#d7b501;"/>
    </g>
    <g id="line2d_59"/>
    <g id="line2d_60">
     <g>
      <use style="fill:#feda1e;stroke:#d7b501;stroke-linejoin:miter;stroke-width:0.75;" x="172.062187" xlink:href="#mbe276889c1" y="43.424062"/>
     </g>
    </g>
    <g id="text_17">
     <!-- $\beta h = 1.2$ -->
     <g transform="translate(182.862188 45.524062)scale(0.06 -0.06)">
      <use transform="translate(0 0.59375)" xlink:href="#STIXNonUnicode-Italic-e1d9"/>
      <use transform="translate(53.499985 0.59375)" xlink:href="#STIXGeneral-Italic-1d629"/>
      <use transform="translate(117.31998 0.59375)" xlink:href="#STIXGeneral-Regular-3d"/>
      <use transform="translate(200.939963 0.59375)" xlink:href="#STIXGeneral-Regular-1d7e3"/>
      <use transform="translate(250.939948 0.59375)" xlink:href="#STIXGeneral-Regular-2e"/>
      <use transform="translate(275.939932 0.59375)" xlink:href="#STIXGeneral-Regular-1d7e4"/>
     </g>
    </g>
    <g id="LineCollection_9">
     <path d="M 172.062187 55.303125 
L 172.062187 49.303125 
" style="fill:none;stroke:#5f9049;"/>
    </g>
    <g id="line2d_61"/>
    <g id="line2d_62">
     <g>
      <use style="fill:#8ab975;stroke:#5f9049;stroke-linejoin:miter;stroke-width:0.75;" x="172.062187" xlink:href="#m00bd9f36ec" y="52.303125"/>
     </g>
    </g>
    <g id="text_18">
     <!-- $\beta h = 0.8$ -->
     <defs>
      <path d="M 44.703125 16.09375 
Q 44.703125 8.796875 39.390625 3.6875 
Q 34.09375 -1.40625 24.796875 -1.40625 
Q 16.296875 -1.40625 10.59375 3.4375 
Q 4.90625 8.296875 4.90625 15.40625 
Q 4.90625 20.796875 7.75 25.25 
Q 10.59375 29.703125 17.703125 34.5 
Q 6 41.40625 6 51.40625 
Q 6 58.59375 11.546875 63.09375 
Q 17.09375 67.59375 25.59375 67.59375 
Q 32.90625 67.59375 37.796875 62.84375 
Q 42.703125 58.09375 42.703125 52 
Q 42.703125 46.40625 40.09375 42.703125 
Q 37.5 39 31.09375 35.296875 
Q 44.703125 27 44.703125 16.09375 
z
M 35.5 51.5 
Q 35.5 55.5 32.390625 58 
Q 29.296875 60.5 24.40625 60.5 
Q 19.796875 60.5 16.84375 57.84375 
Q 13.90625 55.203125 13.90625 51.796875 
Q 13.90625 47.5 16.34375 44.84375 
Q 18.796875 42.203125 24.90625 39.40625 
Q 35.5 45.203125 35.5 51.5 
z
M 27.59375 28.59375 
L 24.09375 30.5 
Q 18.90625 28.703125 15.84375 24.640625 
Q 12.796875 20.59375 12.796875 16.296875 
Q 12.796875 11.796875 16 8.75 
Q 19.203125 5.703125 25.203125 5.703125 
Q 29.796875 5.703125 33.296875 8.453125 
Q 36.796875 11.203125 36.796875 15.796875 
Q 36.796875 20 34.6875 22.953125 
Q 32.59375 25.90625 27.59375 28.59375 
z
" id="STIXGeneral-Regular-1d7ea"/>
     </defs>
     <g transform="translate(182.862188 54.403125)scale(0.06 -0.06)">
      <use transform="translate(0 0.59375)" xlink:href="#STIXNonUnicode-Italic-e1d9"/>
      <use transform="translate(53.499985 0.59375)" xlink:href="#STIXGeneral-Italic-1d629"/>
      <use transform="translate(117.31998 0.59375)" xlink:href="#STIXGeneral-Regular-3d"/>
      <use transform="translate(200.939963 0.59375)" xlink:href="#STIXGeneral-Regular-1d7e2"/>
      <use transform="translate(250.939948 0.59375)" xlink:href="#STIXGeneral-Regular-2e"/>
      <use transform="translate(275.939932 0.59375)" xlink:href="#STIXGeneral-Regular-1d7ea"/>
     </g>
    </g>
    <g id="LineCollection_10">
     <path d="M 172.062187 64.182187 
L 172.062187 58.182187 
" style="fill:none;stroke:#114b5f;"/>
    </g>
    <g id="line2d_63"/>
    <g id="line2d_64">
     <g>
      <use style="fill:#2faeda;stroke:#114b5f;stroke-linejoin:miter;stroke-width:0.75;" x="172.062187" xlink:href="#m2e0ee7f25a" y="61.182187"/>
     </g>
    </g>
    <g id="text_19">
     <!-- $\beta h = 0.4$ -->
     <defs>
      <path d="M 48.90625 23.59375 
L 45.59375 16.5 
L 37.296875 16.5 
L 37.296875 0 
L 29.40625 0 
L 29.40625 16.5 
L 1.09375 16.5 
L 1.09375 23.296875 
L 32.296875 67.59375 
L 37.296875 67.59375 
L 37.296875 23.59375 
z
M 29.40625 23.59375 
L 29.40625 51 
L 10 23.59375 
z
" id="STIXGeneral-Regular-1d7e6"/>
     </defs>
     <g transform="translate(182.862188 63.282187)scale(0.06 -0.06)">
      <use transform="translate(0 0.59375)" xlink:href="#STIXNonUnicode-Italic-e1d9"/>
      <use transform="translate(53.499985 0.59375)" xlink:href="#STIXGeneral-Italic-1d629"/>
      <use transform="translate(117.31998 0.59375)" xlink:href="#STIXGeneral-Regular-3d"/>
      <use transform="translate(200.939963 0.59375)" xlink:href="#STIXGeneral-Regular-1d7e2"/>
      <use transform="translate(250.939948 0.59375)" xlink:href="#STIXGeneral-Regular-2e"/>
      <use transform="translate(275.939932 0.59375)" xlink:href="#STIXGeneral-Regular-1d7e6"/>
     </g>
    </g>
   </g>
  </g>
 </g>
 <defs>
  <clipPath id="p883cf78df0">
   <rect height="144" width="201.69" x="29.16" y="9"/>
  </clipPath>
 </defs>
</svg>
