<?xml version="1.0" encoding="utf-8" standalone="no"?>
<!DOCTYPE svg PUBLIC "-//W3C//DTD SVG 1.1//EN"
  "http://www.w3.org/Graphics/SVG/1.1/DTD/svg11.dtd">
<!-- Created with matplotlib (http://matplotlib.org/) -->
<svg height="180pt" version="1.1" viewBox="0 0 243 180" width="243pt" xmlns="http://www.w3.org/2000/svg" xmlns:xlink="http://www.w3.org/1999/xlink">
 <defs>
  <style type="text/css">
*{stroke-linecap:butt;stroke-linejoin:round;}
  </style>
 </defs>
 <g id="figure_1">
  <g id="patch_1">
   <path d="M 0 180 
L 243 180 
L 243 0 
L 0 0 
z
" style="fill:#ffffff;"/>
  </g>
  <g id="axes_1">
   <g id="patch_2">
    <path d="M 24.3 153 
L 230.85 153 
L 230.85 9 
L 24.3 9 
z
" style="fill:#ffffff;"/>
   </g>
   <g id="PolyCollection_1">
    <path clip-path="url(#pd2f0b8956f)" d="M 24.3 9 
L 24.3 153 
L 41.546925 153 
L 41.546925 9 
L 41.546925 9 
L 24.3 9 
z
" style="fill:#dddddd;"/>
   </g>
   <g id="line2d_1">
    <defs>
     <path d="M 0 1 
C 0.265203 1 0.51958 0.894634 0.707107 0.707107 
C 0.894634 0.51958 1 0.265203 1 0 
C 1 -0.265203 0.894634 -0.51958 0.707107 -0.707107 
C 0.51958 -0.894634 0.265203 -1 0 -1 
C -0.265203 -1 -0.51958 -0.894634 -0.707107 -0.707107 
C -0.894634 -0.51958 -1 -0.265203 -1 0 
C -1 0.265203 -0.894634 0.51958 -0.707107 0.707107 
C -0.51958 0.894634 -0.265203 1 0 1 
z
" id="m627f772924" style="stroke:#a42604;stroke-width:0.75;"/>
    </defs>
    <g clip-path="url(#pd2f0b8956f)">
     <use style="fill:#f94515;stroke:#a42604;stroke-width:0.75;" x="35.105562" xlink:href="#m627f772924" y="42.828571"/>
     <use style="fill:#f94515;stroke:#a42604;stroke-width:0.75;" x="35.508148" xlink:href="#m627f772924" y="38.028571"/>
     <use style="fill:#f94515;stroke:#a42604;stroke-width:0.75;" x="36.159032" xlink:href="#m627f772924" y="41.228571"/>
     <use style="fill:#f94515;stroke:#a42604;stroke-width:0.75;" x="36.393813" xlink:href="#m627f772924" y="41.457143"/>
     <use style="fill:#f94515;stroke:#a42604;stroke-width:0.75;" x="36.844299" xlink:href="#m627f772924" y="36.428571"/>
     <use style="fill:#f94515;stroke:#a42604;stroke-width:0.75;" x="37.317284" xlink:href="#m627f772924" y="44.314286"/>
     <use style="fill:#f94515;stroke:#a42604;stroke-width:0.75;" x="37.637338" xlink:href="#m627f772924" y="38.257143"/>
     <use style="fill:#f94515;stroke:#a42604;stroke-width:0.75;" x="37.833652" xlink:href="#m627f772924" y="35.742857"/>
     <use style="fill:#f94515;stroke:#a42604;stroke-width:0.75;" x="38.653586" xlink:href="#m627f772924" y="36.657143"/>
     <use style="fill:#f94515;stroke:#a42604;stroke-width:0.75;" x="38.235315" xlink:href="#m627f772924" y="31.4"/>
     <use style="fill:#f94515;stroke:#a42604;stroke-width:0.75;" x="38.967721" xlink:href="#m627f772924" y="25"/>
     <use style="fill:#f94515;stroke:#a42604;stroke-width:0.75;" x="39.331102" xlink:href="#m627f772924" y="24.314286"/>
     <use style="fill:#f94515;stroke:#a42604;stroke-width:0.75;" x="39.553057" xlink:href="#m627f772924" y="23.171429"/>
     <use style="fill:#f94515;stroke:#a42604;stroke-width:0.75;" x="39.897851" xlink:href="#m627f772924" y="32.2"/>
     <use style="fill:#f94515;stroke:#a42604;stroke-width:0.75;" x="40.212158" xlink:href="#m627f772924" y="42.6"/>
     <use style="fill:#f94515;stroke:#a42604;stroke-width:0.75;" x="40.611568" xlink:href="#m627f772924" y="51.285714"/>
     <use style="fill:#f94515;stroke:#a42604;stroke-width:0.75;" x="40.97802" xlink:href="#m627f772924" y="56.314286"/>
     <use style="fill:#f94515;stroke:#a42604;stroke-width:0.75;" x="41.521147" xlink:href="#m627f772924" y="62.257143"/>
     <use style="fill:#f94515;stroke:#a42604;stroke-width:0.75;" x="41.951904" xlink:href="#m627f772924" y="68.428571"/>
     <use style="fill:#f94515;stroke:#a42604;stroke-width:0.75;" x="42.388512" xlink:href="#m627f772924" y="66.6"/>
     <use style="fill:#f94515;stroke:#a42604;stroke-width:0.75;" x="43.06806" xlink:href="#m627f772924" y="70.6"/>
     <use style="fill:#f94515;stroke:#a42604;stroke-width:0.75;" x="43.818013" xlink:href="#m627f772924" y="70.257143"/>
     <use style="fill:#f94515;stroke:#a42604;stroke-width:0.75;" x="44.548272" xlink:href="#m627f772924" y="69.914286"/>
     <use style="fill:#f94515;stroke:#a42604;stroke-width:0.75;" x="45.461858" xlink:href="#m627f772924" y="71.057143"/>
     <use style="fill:#f94515;stroke:#a42604;stroke-width:0.75;" x="46.313113" xlink:href="#m627f772924" y="78.257143"/>
     <use style="fill:#f94515;stroke:#a42604;stroke-width:0.75;" x="47.305432" xlink:href="#m627f772924" y="78.257143"/>
     <use style="fill:#f94515;stroke:#a42604;stroke-width:0.75;" x="48.226287" xlink:href="#m627f772924" y="79.857143"/>
     <use style="fill:#f94515;stroke:#a42604;stroke-width:0.75;" x="49.004401" xlink:href="#m627f772924" y="84.542857"/>
     <use style="fill:#f94515;stroke:#a42604;stroke-width:0.75;" x="50.434674" xlink:href="#m627f772924" y="82.828571"/>
     <use style="fill:#f94515;stroke:#a42604;stroke-width:0.75;" x="51.413021" xlink:href="#m627f772924" y="83.057143"/>
     <use style="fill:#f94515;stroke:#a42604;stroke-width:0.75;" x="52.849336" xlink:href="#m627f772924" y="88.314286"/>
     <use style="fill:#f94515;stroke:#a42604;stroke-width:0.75;" x="53.557305" xlink:href="#m627f772924" y="88.314286"/>
     <use style="fill:#f94515;stroke:#a42604;stroke-width:0.75;" x="54.726752" xlink:href="#m627f772924" y="88.314286"/>
     <use style="fill:#f94515;stroke:#a42604;stroke-width:0.75;" x="56.256997" xlink:href="#m627f772924" y="90.6"/>
     <use style="fill:#f94515;stroke:#a42604;stroke-width:0.75;" x="57.049214" xlink:href="#m627f772924" y="90.371429"/>
     <use style="fill:#f94515;stroke:#a42604;stroke-width:0.75;" x="58.528429" xlink:href="#m627f772924" y="92.885714"/>
     <use style="fill:#f94515;stroke:#a42604;stroke-width:0.75;" x="61.141788" xlink:href="#m627f772924" y="95.514286"/>
     <use style="fill:#f94515;stroke:#a42604;stroke-width:0.75;" x="63.280368" xlink:href="#m627f772924" y="98.028571"/>
     <use style="fill:#f94515;stroke:#a42604;stroke-width:0.75;" x="65.743865" xlink:href="#m627f772924" y="99.285714"/>
     <use style="fill:#f94515;stroke:#a42604;stroke-width:0.75;" x="67.935964" xlink:href="#m627f772924" y="102.257143"/>
     <use style="fill:#f94515;stroke:#a42604;stroke-width:0.75;" x="71.613095" xlink:href="#m627f772924" y="104.314286"/>
     <use style="fill:#f94515;stroke:#a42604;stroke-width:0.75;" x="73.991055" xlink:href="#m627f772924" y="105.685714"/>
     <use style="fill:#f94515;stroke:#a42604;stroke-width:0.75;" x="77.521743" xlink:href="#m627f772924" y="107.285714"/>
     <use style="fill:#f94515;stroke:#a42604;stroke-width:0.75;" x="79.651658" xlink:href="#m627f772924" y="108.657143"/>
     <use style="fill:#f94515;stroke:#a42604;stroke-width:0.75;" x="82.007773" xlink:href="#m627f772924" y="109.914286"/>
     <use style="fill:#f94515;stroke:#a42604;stroke-width:0.75;" x="85.355438" xlink:href="#m627f772924" y="111.4"/>
     <use style="fill:#f94515;stroke:#a42604;stroke-width:0.75;" x="88.107729" xlink:href="#m627f772924" y="111.4"/>
     <use style="fill:#f94515;stroke:#a42604;stroke-width:0.75;" x="90.335947" xlink:href="#m627f772924" y="112.314286"/>
     <use style="fill:#f94515;stroke:#a42604;stroke-width:0.75;" x="94.855493" xlink:href="#m627f772924" y="114.142857"/>
     <use style="fill:#f94515;stroke:#a42604;stroke-width:0.75;" x="98.224348" xlink:href="#m627f772924" y="117.114286"/>
     <use style="fill:#f94515;stroke:#a42604;stroke-width:0.75;" x="101.559755" xlink:href="#m627f772924" y="118.257143"/>
     <use style="fill:#f94515;stroke:#a42604;stroke-width:0.75;" x="105.04628" xlink:href="#m627f772924" y="119.628571"/>
     <use style="fill:#f94515;stroke:#a42604;stroke-width:0.75;" x="110.360202" xlink:href="#m627f772924" y="121"/>
     <use style="fill:#f94515;stroke:#a42604;stroke-width:0.75;" x="114.239672" xlink:href="#m627f772924" y="121"/>
     <use style="fill:#f94515;stroke:#a42604;stroke-width:0.75;" x="118.760047" xlink:href="#m627f772924" y="122.371429"/>
     <use style="fill:#f94515;stroke:#a42604;stroke-width:0.75;" x="123.994839" xlink:href="#m627f772924" y="123.742857"/>
     <use style="fill:#f94515;stroke:#a42604;stroke-width:0.75;" x="127.982978" xlink:href="#m627f772924" y="124.657143"/>
     <use style="fill:#f94515;stroke:#a42604;stroke-width:0.75;" x="132.129818" xlink:href="#m627f772924" y="125.342857"/>
     <use style="fill:#f94515;stroke:#a42604;stroke-width:0.75;" x="137.551115" xlink:href="#m627f772924" y="127.171429"/>
     <use style="fill:#f94515;stroke:#a42604;stroke-width:0.75;" x="147.998376" xlink:href="#m627f772924" y="128.771429"/>
     <use style="fill:#f94515;stroke:#a42604;stroke-width:0.75;" x="152.946739" xlink:href="#m627f772924" y="129.685714"/>
     <use style="fill:#f94515;stroke:#a42604;stroke-width:0.75;" x="161.417261" xlink:href="#m627f772924" y="131.971429"/>
     <use style="fill:#f94515;stroke:#a42604;stroke-width:0.75;" x="171.156398" xlink:href="#m627f772924" y="132.885714"/>
     <use style="fill:#f94515;stroke:#a42604;stroke-width:0.75;" x="180.821035" xlink:href="#m627f772924" y="134.257143"/>
     <use style="fill:#f94515;stroke:#a42604;stroke-width:0.75;" x="187.081153" xlink:href="#m627f772924" y="134.942857"/>
     <use style="fill:#f94515;stroke:#a42604;stroke-width:0.75;" x="198.64314" xlink:href="#m627f772924" y="135.857143"/>
     <use style="fill:#f94515;stroke:#a42604;stroke-width:0.75;" x="230.781777" xlink:href="#m627f772924" y="140.771429"/>
     <use style="fill:#f94515;stroke:#a42604;stroke-width:0.75;" x="274.876978" xlink:href="#m627f772924" y="141.914286"/>
     <use style="fill:#f94515;stroke:#a42604;stroke-width:0.75;" x="384.417064" xlink:href="#m627f772924" y="145.685714"/>
     <use style="fill:#f94515;stroke:#a42604;stroke-width:0.75;" x="413.78098" xlink:href="#m627f772924" y="145.685714"/>
     <use style="fill:#f94515;stroke:#a42604;stroke-width:0.75;" x="437.364782" xlink:href="#m627f772924" y="145.685714"/>
     <use style="fill:#f94515;stroke:#a42604;stroke-width:0.75;" x="484.408707" xlink:href="#m627f772924" y="147.971429"/>
     <use style="fill:#f94515;stroke:#a42604;stroke-width:0.75;" x="603.551552" xlink:href="#m627f772924" y="148.428571"/>
     <use style="fill:#f94515;stroke:#a42604;stroke-width:0.75;" x="663.181626" xlink:href="#m627f772924" y="148.428571"/>
    </g>
   </g>
   <g id="matplotlib.axis_1">
    <g id="xtick_1">
     <g id="line2d_2">
      <defs>
       <path d="M 0 0 
L 0 -2.5 
" id="me144bf3867" style="stroke:#000000;stroke-width:0.8;"/>
      </defs>
      <g>
       <use style="stroke:#000000;stroke-width:0.8;" x="24.3" xlink:href="#me144bf3867" y="153"/>
      </g>
     </g>
     <g id="line2d_3">
      <defs>
       <path d="M 0 0 
L 0 2.5 
" id="m8097ce7b3b" style="stroke:#000000;stroke-width:0.8;"/>
      </defs>
      <g>
       <use style="stroke:#000000;stroke-width:0.8;" x="24.3" xlink:href="#m8097ce7b3b" y="9"/>
      </g>
     </g>
     <g id="text_1">
      <!-- $0$ -->
      <defs>
       <path d="M 47.703125 33 
Q 47.703125 23.796875 45.546875 16.34375 
Q 43.40625 8.90625 38.09375 3.75 
Q 32.796875 -1.40625 25 -1.40625 
Q 18.796875 -1.40625 14.25 1.6875 
Q 9.703125 4.796875 7.203125 10.046875 
Q 4.703125 15.296875 3.5 21.140625 
Q 2.296875 27 2.296875 33.59375 
Q 2.296875 42.90625 4.59375 50.34375 
Q 6.90625 57.796875 12.296875 62.6875 
Q 17.703125 67.59375 25.40625 67.59375 
Q 35.203125 67.59375 41.453125 57.9375 
Q 47.703125 48.296875 47.703125 33 
z
M 39.796875 33 
Q 39.796875 45.203125 35.75 52.84375 
Q 31.703125 60.5 25.203125 60.5 
Q 17.796875 60.5 14 52.75 
Q 10.203125 45 10.203125 33.40625 
Q 10.203125 28.203125 10.953125 23.546875 
Q 11.703125 18.90625 13.34375 14.75 
Q 15 10.59375 18 8.140625 
Q 21 5.703125 25 5.703125 
Q 30.09375 5.703125 33.546875 9.796875 
Q 37 13.90625 38.390625 19.84375 
Q 39.796875 25.796875 39.796875 33 
z
" id="STIXGeneral-Regular-1d7e2"/>
      </defs>
      <g transform="translate(22.3 162.57875)scale(0.08 -0.08)">
       <use transform="translate(0 0.40625)" xlink:href="#STIXGeneral-Regular-1d7e2"/>
      </g>
     </g>
    </g>
    <g id="xtick_2">
     <g id="line2d_4">
      <g>
       <use style="stroke:#000000;stroke-width:0.8;" x="75.9375" xlink:href="#me144bf3867" y="153"/>
      </g>
     </g>
     <g id="line2d_5">
      <g>
       <use style="stroke:#000000;stroke-width:0.8;" x="75.9375" xlink:href="#m8097ce7b3b" y="9"/>
      </g>
     </g>
     <g id="text_2">
      <!-- $0.5$ -->
      <defs>
       <path d="M 18.09375 4.296875 
Q 18.09375 2.09375 16.4375 0.5 
Q 14.796875 -1.09375 12.5 -1.09375 
Q 10.203125 -1.09375 8.59375 0.5 
Q 7 2.09375 7 4.390625 
Q 7 6.703125 8.640625 8.34375 
Q 10.296875 10 12.59375 10 
Q 14.796875 10 16.4375 8.296875 
Q 18.09375 6.59375 18.09375 4.296875 
z
" id="STIXGeneral-Regular-2e"/>
       <path d="M 45.796875 67.59375 
L 42.59375 60.5 
L 24.90625 60.5 
L 18.5 47.796875 
Q 29.90625 46.203125 37.25 39.75 
Q 44.59375 33.296875 44.59375 22.59375 
Q 44.59375 12.703125 37.84375 5.640625 
Q 31.09375 -1.40625 21 -1.40625 
Q 10 -1.40625 3.59375 5.59375 
L 8.296875 11.203125 
Q 13.40625 5.703125 20.5 5.703125 
Q 27.90625 5.703125 32.296875 10.75 
Q 36.703125 15.796875 36.703125 22.59375 
Q 36.703125 30 30.09375 35.203125 
Q 23.40625 40.703125 9.40625 40.703125 
L 8 42.40625 
L 19.59375 67.59375 
z
" id="STIXGeneral-Regular-1d7e7"/>
      </defs>
      <g transform="translate(70.9375 162.57875)scale(0.08 -0.08)">
       <use transform="translate(0 0.40625)" xlink:href="#STIXGeneral-Regular-1d7e2"/>
       <use transform="translate(49.999985 0.40625)" xlink:href="#STIXGeneral-Regular-2e"/>
       <use transform="translate(74.999969 0.40625)" xlink:href="#STIXGeneral-Regular-1d7e7"/>
      </g>
     </g>
    </g>
    <g id="xtick_3">
     <g id="line2d_6">
      <g>
       <use style="stroke:#000000;stroke-width:0.8;" x="127.575" xlink:href="#me144bf3867" y="153"/>
      </g>
     </g>
     <g id="line2d_7">
      <g>
       <use style="stroke:#000000;stroke-width:0.8;" x="127.575" xlink:href="#m8097ce7b3b" y="9"/>
      </g>
     </g>
     <g id="text_3">
      <!-- $1$ -->
      <defs>
       <path d="M 30.203125 0 
L 22.296875 0 
L 22.296875 57 
Q 20.09375 56 15.75 53.75 
Q 11.40625 51.5 10.796875 51.203125 
L 10.796875 58.5 
L 28.796875 67.703125 
L 30.203125 67.203125 
z
" id="STIXGeneral-Regular-1d7e3"/>
      </defs>
      <g transform="translate(125.575 162.57875)scale(0.08 -0.08)">
       <use transform="translate(0 0.296875)" xlink:href="#STIXGeneral-Regular-1d7e3"/>
      </g>
     </g>
    </g>
    <g id="xtick_4">
     <g id="line2d_8">
      <g>
       <use style="stroke:#000000;stroke-width:0.8;" x="179.2125" xlink:href="#me144bf3867" y="153"/>
      </g>
     </g>
     <g id="line2d_9">
      <g>
       <use style="stroke:#000000;stroke-width:0.8;" x="179.2125" xlink:href="#m8097ce7b3b" y="9"/>
      </g>
     </g>
     <g id="text_4">
      <!-- $1.5$ -->
      <g transform="translate(174.2125 162.57875)scale(0.08 -0.08)">
       <use transform="translate(0 0.296875)" xlink:href="#STIXGeneral-Regular-1d7e3"/>
       <use transform="translate(49.999985 0.296875)" xlink:href="#STIXGeneral-Regular-2e"/>
       <use transform="translate(74.999969 0.296875)" xlink:href="#STIXGeneral-Regular-1d7e7"/>
      </g>
     </g>
    </g>
    <g id="xtick_5">
     <g id="line2d_10">
      <g>
       <use style="stroke:#000000;stroke-width:0.8;" x="230.85" xlink:href="#me144bf3867" y="153"/>
      </g>
     </g>
     <g id="line2d_11">
      <g>
       <use style="stroke:#000000;stroke-width:0.8;" x="230.85" xlink:href="#m8097ce7b3b" y="9"/>
      </g>
     </g>
     <g id="text_5">
      <!-- $2$ -->
      <defs>
       <path d="M 46.90625 7.09375 
L 44 0 
L 3.5 0 
L 3.5 2.09375 
L 21 23.5 
L 21 23.40625 
L 26.59375 30.203125 
Q 30.5 34.90625 32.09375 36.953125 
Q 33.703125 39 35.203125 41.953125 
Q 36.703125 44.90625 36.703125 47.5 
Q 36.703125 53.703125 33.34375 57.09375 
Q 30 60.5 24.203125 60.5 
Q 19.59375 60.5 15.75 56.703125 
Q 11.90625 52.90625 10.90625 45.90625 
L 3.703125 47.59375 
Q 5.296875 56.5 11.1875 62.046875 
Q 17.09375 67.59375 24.90625 67.59375 
Q 33.59375 67.59375 39.09375 62.1875 
Q 44.59375 56.796875 44.59375 49.09375 
Q 44.59375 43.5 42.5 39.453125 
Q 40.40625 35.40625 33.703125 27 
L 17.703125 7.09375 
z
" id="STIXGeneral-Regular-1d7e4"/>
      </defs>
      <g transform="translate(228.85 162.57875)scale(0.08 -0.08)">
       <use transform="translate(0 0.40625)" xlink:href="#STIXGeneral-Regular-1d7e4"/>
      </g>
     </g>
    </g>
    <g id="xtick_6">
     <g id="line2d_12">
      <defs>
       <path d="M 0 0 
L 0 -1.5 
" id="mcf2ae50114" style="stroke:#000000;stroke-width:0.6;"/>
      </defs>
      <g>
       <use style="stroke:#000000;stroke-width:0.6;" x="50.11875" xlink:href="#mcf2ae50114" y="153"/>
      </g>
     </g>
     <g id="line2d_13">
      <defs>
       <path d="M 0 0 
L 0 1.5 
" id="m17c99fbc34" style="stroke:#000000;stroke-width:0.6;"/>
      </defs>
      <g>
       <use style="stroke:#000000;stroke-width:0.6;" x="50.11875" xlink:href="#m17c99fbc34" y="9"/>
      </g>
     </g>
    </g>
    <g id="xtick_7">
     <g id="line2d_14">
      <g>
       <use style="stroke:#000000;stroke-width:0.6;" x="101.75625" xlink:href="#mcf2ae50114" y="153"/>
      </g>
     </g>
     <g id="line2d_15">
      <g>
       <use style="stroke:#000000;stroke-width:0.6;" x="101.75625" xlink:href="#m17c99fbc34" y="9"/>
      </g>
     </g>
    </g>
    <g id="xtick_8">
     <g id="line2d_16">
      <g>
       <use style="stroke:#000000;stroke-width:0.6;" x="153.39375" xlink:href="#mcf2ae50114" y="153"/>
      </g>
     </g>
     <g id="line2d_17">
      <g>
       <use style="stroke:#000000;stroke-width:0.6;" x="153.39375" xlink:href="#m17c99fbc34" y="9"/>
      </g>
     </g>
    </g>
    <g id="xtick_9">
     <g id="line2d_18">
      <g>
       <use style="stroke:#000000;stroke-width:0.6;" x="205.03125" xlink:href="#mcf2ae50114" y="153"/>
      </g>
     </g>
     <g id="line2d_19">
      <g>
       <use style="stroke:#000000;stroke-width:0.6;" x="205.03125" xlink:href="#m17c99fbc34" y="9"/>
      </g>
     </g>
    </g>
    <g id="text_6">
     <!-- $T/T_F$ -->
     <defs>
      <path d="M 74.796875 66.203125 
L 73.90625 58.796875 
L 49.40625 58.796875 
L 34.703125 0 
L 26 0 
L 40.59375 58.796875 
L 16.09375 58.796875 
L 19 66.203125 
z
" id="STIXGeneral-Italic-1d61b"/>
      <path d="M 28.703125 67.59375 
L 5.90625 -1.40625 
L -0.90625 -1.40625 
L 22 67.59375 
z
" id="STIXGeneral-Regular-2f"/>
      <path d="M 67.90625 66.203125 
L 66.90625 58.796875 
L 30.703125 58.796875 
L 25.703125 38.59375 
L 55.296875 38.59375 
L 53.40625 31.09375 
L 23.796875 31.09375 
L 16.09375 0 
L 7.40625 0 
L 23.90625 66.203125 
z
" id="STIXGeneral-Italic-1d60d"/>
     </defs>
     <g transform="translate(119.975 172.32125)scale(0.08 -0.08)">
      <use transform="translate(0 0.40625)" xlink:href="#STIXGeneral-Italic-1d61b"/>
      <use transform="translate(60.799988 0.40625)" xlink:href="#STIXGeneral-Regular-2f"/>
      <use transform="translate(88.599976 0.40625)" xlink:href="#STIXGeneral-Italic-1d61b"/>
      <use transform="translate(149.399963 -13.182812)scale(0.7)" xlink:href="#STIXGeneral-Italic-1d60d"/>
     </g>
    </g>
   </g>
   <g id="matplotlib.axis_2">
    <g id="ytick_1">
     <g id="line2d_20">
      <defs>
       <path d="M 0 0 
L 2.5 0 
" id="m4d1e4b6097" style="stroke:#000000;stroke-width:0.8;"/>
      </defs>
      <g>
       <use style="stroke:#000000;stroke-width:0.8;" x="24.3" xlink:href="#m4d1e4b6097" y="153"/>
      </g>
     </g>
     <g id="line2d_21">
      <defs>
       <path d="M 0 0 
L -2.5 0 
" id="m24f8eceb7b" style="stroke:#000000;stroke-width:0.8;"/>
      </defs>
      <g>
       <use style="stroke:#000000;stroke-width:0.8;" x="230.85" xlink:href="#m24f8eceb7b" y="153"/>
      </g>
     </g>
     <g id="text_7">
      <!-- $0$ -->
      <g transform="translate(16.8 156.039375)scale(0.08 -0.08)">
       <use transform="translate(0 0.40625)" xlink:href="#STIXGeneral-Regular-1d7e2"/>
      </g>
     </g>
    </g>
    <g id="ytick_2">
     <g id="line2d_22">
      <g>
       <use style="stroke:#000000;stroke-width:0.8;" x="24.3" xlink:href="#m4d1e4b6097" y="117"/>
      </g>
     </g>
     <g id="line2d_23">
      <g>
       <use style="stroke:#000000;stroke-width:0.8;" x="230.85" xlink:href="#m24f8eceb7b" y="117"/>
      </g>
     </g>
     <g id="text_8">
      <!-- $1$ -->
      <g transform="translate(16.8 120.039375)scale(0.08 -0.08)">
       <use transform="translate(0 0.296875)" xlink:href="#STIXGeneral-Regular-1d7e3"/>
      </g>
     </g>
    </g>
    <g id="ytick_3">
     <g id="line2d_24">
      <g>
       <use style="stroke:#000000;stroke-width:0.8;" x="24.3" xlink:href="#m4d1e4b6097" y="81"/>
      </g>
     </g>
     <g id="line2d_25">
      <g>
       <use style="stroke:#000000;stroke-width:0.8;" x="230.85" xlink:href="#m24f8eceb7b" y="81"/>
      </g>
     </g>
     <g id="text_9">
      <!-- $2$ -->
      <g transform="translate(16.8 84.039375)scale(0.08 -0.08)">
       <use transform="translate(0 0.40625)" xlink:href="#STIXGeneral-Regular-1d7e4"/>
      </g>
     </g>
    </g>
    <g id="ytick_4">
     <g id="line2d_26">
      <g>
       <use style="stroke:#000000;stroke-width:0.8;" x="24.3" xlink:href="#m4d1e4b6097" y="45"/>
      </g>
     </g>
     <g id="line2d_27">
      <g>
       <use style="stroke:#000000;stroke-width:0.8;" x="230.85" xlink:href="#m24f8eceb7b" y="45"/>
      </g>
     </g>
     <g id="text_10">
      <!-- $3$ -->
      <defs>
       <path d="M 11.296875 49.203125 
L 4.203125 50.90625 
Q 6.40625 58.703125 11.5 63.140625 
Q 16.59375 67.59375 24.296875 67.59375 
Q 31.40625 67.59375 36.203125 63.09375 
Q 41 58.59375 41 51.90625 
Q 41 43 32.40625 37 
Q 38 35 41.046875 30.34375 
Q 44.09375 25.703125 44.09375 21 
Q 44.09375 11.296875 37.796875 5 
Q 31.40625 -1.40625 20.5 -1.40625 
Q 9.5 -1.40625 3.09375 5.59375 
L 7.796875 11.203125 
Q 12.90625 5.703125 20 5.703125 
Q 27.40625 5.703125 31.59375 9.296875 
Q 36.203125 13.203125 36.203125 19.09375 
Q 36.203125 24.296875 32.453125 27.796875 
Q 28.703125 31.296875 22.203125 32.203125 
L 15.796875 32.203125 
L 15.796875 34.296875 
L 20.59375 39.40625 
Q 25.09375 39.40625 29.09375 42.84375 
Q 33.09375 46.296875 33.09375 51.203125 
Q 33.09375 55.40625 30.4375 57.953125 
Q 27.796875 60.5 24 60.5 
Q 20 60.5 16.546875 57.640625 
Q 13.09375 54.796875 11.296875 49.203125 
z
" id="STIXGeneral-Regular-1d7e5"/>
      </defs>
      <g transform="translate(16.8 48.039375)scale(0.08 -0.08)">
       <use transform="translate(0 0.40625)" xlink:href="#STIXGeneral-Regular-1d7e5"/>
      </g>
     </g>
    </g>
    <g id="ytick_5">
     <g id="line2d_28">
      <g>
       <use style="stroke:#000000;stroke-width:0.8;" x="24.3" xlink:href="#m4d1e4b6097" y="9"/>
      </g>
     </g>
     <g id="line2d_29">
      <g>
       <use style="stroke:#000000;stroke-width:0.8;" x="230.85" xlink:href="#m24f8eceb7b" y="9"/>
      </g>
     </g>
     <g id="text_11">
      <!-- $4$ -->
      <defs>
       <path d="M 48.90625 23.59375 
L 45.59375 16.5 
L 37.296875 16.5 
L 37.296875 0 
L 29.40625 0 
L 29.40625 16.5 
L 1.09375 16.5 
L 1.09375 23.296875 
L 32.296875 67.59375 
L 37.296875 67.59375 
L 37.296875 23.59375 
z
M 29.40625 23.59375 
L 29.40625 51 
L 10 23.59375 
z
" id="STIXGeneral-Regular-1d7e6"/>
      </defs>
      <g transform="translate(16.8 12.039375)scale(0.08 -0.08)">
       <use transform="translate(0 0.40625)" xlink:href="#STIXGeneral-Regular-1d7e6"/>
      </g>
     </g>
    </g>
    <g id="ytick_6">
     <g id="line2d_30">
      <defs>
       <path d="M 0 0 
L 1.5 0 
" id="mdbbd911175" style="stroke:#000000;stroke-width:0.6;"/>
      </defs>
      <g>
       <use style="stroke:#000000;stroke-width:0.6;" x="24.3" xlink:href="#mdbbd911175" y="135"/>
      </g>
     </g>
     <g id="line2d_31">
      <defs>
       <path d="M 0 0 
L -1.5 0 
" id="m1116c59f66" style="stroke:#000000;stroke-width:0.6;"/>
      </defs>
      <g>
       <use style="stroke:#000000;stroke-width:0.6;" x="230.85" xlink:href="#m1116c59f66" y="135"/>
      </g>
     </g>
    </g>
    <g id="ytick_7">
     <g id="line2d_32">
      <g>
       <use style="stroke:#000000;stroke-width:0.6;" x="24.3" xlink:href="#mdbbd911175" y="99"/>
      </g>
     </g>
     <g id="line2d_33">
      <g>
       <use style="stroke:#000000;stroke-width:0.6;" x="230.85" xlink:href="#m1116c59f66" y="99"/>
      </g>
     </g>
    </g>
    <g id="ytick_8">
     <g id="line2d_34">
      <g>
       <use style="stroke:#000000;stroke-width:0.6;" x="24.3" xlink:href="#mdbbd911175" y="63"/>
      </g>
     </g>
     <g id="line2d_35">
      <g>
       <use style="stroke:#000000;stroke-width:0.6;" x="230.85" xlink:href="#m1116c59f66" y="63"/>
      </g>
     </g>
    </g>
    <g id="ytick_9">
     <g id="line2d_36">
      <g>
       <use style="stroke:#000000;stroke-width:0.6;" x="24.3" xlink:href="#mdbbd911175" y="27"/>
      </g>
     </g>
     <g id="line2d_37">
      <g>
       <use style="stroke:#000000;stroke-width:0.6;" x="230.85" xlink:href="#m1116c59f66" y="27"/>
      </g>
     </g>
    </g>
    <g id="text_12">
     <!-- $\kappa/\kappa_0$ -->
     <defs>
      <path d="M 51.703125 40.296875 
L 51.40625 39.203125 
Q 36.296875 38.40625 22.90625 24.09375 
L 42.796875 0 
L 32.40625 0 
L 16.203125 18.40625 
L 11.703125 0 
L 3.796875 0 
L 14.703125 44 
L 22.296875 46.40625 
L 23.09375 45.90625 
L 18.90625 29.203125 
Q 24.703125 35.203125 33.390625 40.34375 
Q 42.09375 45.5 49.703125 46.296875 
z
" id="STIXNonUnicode-Italic-e1e1"/>
     </defs>
     <g transform="translate(13.13625 87.44)rotate(-90)scale(0.08 -0.08)">
      <use transform="translate(0 0.40625)" xlink:href="#STIXNonUnicode-Italic-e1e1"/>
      <use transform="translate(47.199997 0.40625)" xlink:href="#STIXGeneral-Regular-2f"/>
      <use transform="translate(74.999985 0.40625)" xlink:href="#STIXNonUnicode-Italic-e1e1"/>
      <use transform="translate(122.992677 -13.182812)scale(0.7)" xlink:href="#STIXGeneral-Regular-1d7e2"/>
     </g>
    </g>
   </g>
   <g id="line2d_38">
    <path clip-path="url(#pd2f0b8956f)" d="M 244 140.265314 
L 243.251407 140.220156 
L 240.3861 140.042961 
L 237.556629 139.863606 
L 234.76265 139.682097 
L 232.003827 139.498444 
L 229.279825 139.312657 
L 226.590319 139.124751 
L 223.934985 138.934746 
L 221.313507 138.742662 
L 218.725572 138.548524 
L 216.170873 138.352362 
L 213.649108 138.154209 
L 211.159979 137.954103 
L 208.703195 137.752087 
L 206.278467 137.548208 
L 203.885514 137.342519 
L 201.524058 137.135078 
L 199.193826 136.925952 
L 196.894549 136.715211 
L 194.625966 136.502933 
L 192.387818 136.289205 
L 190.179851 136.074119 
L 188.001817 135.857777 
L 185.853473 135.64029 
L 183.73458 135.421777 
L 181.644904 135.202367 
L 179.584217 134.982202 
L 177.552294 134.761431 
L 175.548918 134.540218 
L 173.573874 134.318738 
L 171.626954 134.09718 
L 169.707955 133.875746 
L 167.816679 133.654654 
L 165.952934 133.434137 
L 164.116532 133.214445 
L 162.307293 132.995845 
L 160.525041 132.778625 
L 158.769605 132.563089 
L 157.040823 132.349567 
L 155.338536 132.138406 
L 153.662594 131.929981 
L 152.012851 131.72469 
L 150.389171 131.522957 
L 148.791422 131.325236 
L 147.21948 131.13201 
L 145.673231 130.943793 
L 144.152565 130.761134 
L 142.657384 130.584616 
L 141.187595 130.414861 
L 139.743118 130.25253 
L 138.323878 130.098327 
L 136.929815 129.953003 
L 135.560876 129.817354 
L 134.217019 129.692229 
L 132.898217 129.57853 
L 131.604453 129.477216 
L 130.335723 129.389309 
L 129.092038 129.315896 
L 127.873425 129.25813 
L 126.679927 129.217243 
L 125.511603 129.19454 
L 124.368531 129.191415 
L 123.250811 129.209346 
L 122.158562 129.249912 
L 121.091927 129.314788 
L 120.051075 129.405762 
L 119.036204 129.524737 
L 118.047537 129.673739 
L 117.085333 129.85493 
L 116.149886 130.070613 
L 115.241528 130.323244 
L 114.360633 130.615447 
L 113.507621 130.950019 
L 112.682963 131.329951 
L 111.887188 131.758439 
L 111.120885 131.851565 
" style="fill:none;stroke:#114b5f;stroke-dasharray:3.7,1.6;stroke-dashoffset:0;"/>
   </g>
   <g id="patch_3">
    <path d="M 24.3 153 
L 24.3 9 
" style="fill:none;stroke:#000000;stroke-linecap:square;stroke-linejoin:miter;stroke-width:0.8;"/>
   </g>
   <g id="patch_4">
    <path d="M 230.85 153 
L 230.85 9 
" style="fill:none;stroke:#000000;stroke-linecap:square;stroke-linejoin:miter;stroke-width:0.8;"/>
   </g>
   <g id="patch_5">
    <path d="M 24.3 153 
L 230.85 153 
" style="fill:none;stroke:#000000;stroke-linecap:square;stroke-linejoin:miter;stroke-width:0.8;"/>
   </g>
   <g id="patch_6">
    <path d="M 24.3 9 
L 230.85 9 
" style="fill:none;stroke:#000000;stroke-linecap:square;stroke-linejoin:miter;stroke-width:0.8;"/>
   </g>
   <g id="legend_1">
    <g id="line2d_39"/>
    <g id="line2d_40">
     <g>
      <use style="fill:#f94515;stroke:#a42604;stroke-width:0.75;" x="129.8225" xlink:href="#m627f772924" y="19.47875"/>
     </g>
    </g>
    <g id="text_13">
     <!-- experiment (MIT) -->
     <defs>
      <path d="M 56.203125 29.59375 
L 56.203125 25.203125 
L 14.890625 25.203125 
Q 15.484375 15.921875 20.484375 11.0625 
Q 25.484375 6.203125 34.421875 6.203125 
Q 39.59375 6.203125 44.453125 7.46875 
Q 49.3125 8.734375 54.109375 11.28125 
L 54.109375 2.78125 
Q 49.265625 0.734375 44.1875 -0.34375 
Q 39.109375 -1.421875 33.890625 -1.421875 
Q 20.796875 -1.421875 13.15625 6.1875 
Q 5.515625 13.8125 5.515625 26.8125 
Q 5.515625 40.234375 12.765625 48.109375 
Q 20.015625 56 32.328125 56 
Q 43.359375 56 49.78125 48.890625 
Q 56.203125 41.796875 56.203125 29.59375 
z
M 47.21875 32.234375 
Q 47.125 39.59375 43.09375 43.984375 
Q 39.0625 48.390625 32.421875 48.390625 
Q 24.90625 48.390625 20.390625 44.140625 
Q 15.875 39.890625 15.1875 32.171875 
z
" id="DejaVuSans-65"/>
      <path d="M 54.890625 54.6875 
L 35.109375 28.078125 
L 55.90625 0 
L 45.3125 0 
L 29.390625 21.484375 
L 13.484375 0 
L 2.875 0 
L 24.125 28.609375 
L 4.6875 54.6875 
L 15.28125 54.6875 
L 29.78125 35.203125 
L 44.28125 54.6875 
z
" id="DejaVuSans-78"/>
      <path d="M 18.109375 8.203125 
L 18.109375 -20.796875 
L 9.078125 -20.796875 
L 9.078125 54.6875 
L 18.109375 54.6875 
L 18.109375 46.390625 
Q 20.953125 51.265625 25.265625 53.625 
Q 29.59375 56 35.59375 56 
Q 45.5625 56 51.78125 48.09375 
Q 58.015625 40.1875 58.015625 27.296875 
Q 58.015625 14.40625 51.78125 6.484375 
Q 45.5625 -1.421875 35.59375 -1.421875 
Q 29.59375 -1.421875 25.265625 0.953125 
Q 20.953125 3.328125 18.109375 8.203125 
z
M 48.6875 27.296875 
Q 48.6875 37.203125 44.609375 42.84375 
Q 40.53125 48.484375 33.40625 48.484375 
Q 26.265625 48.484375 22.1875 42.84375 
Q 18.109375 37.203125 18.109375 27.296875 
Q 18.109375 17.390625 22.1875 11.75 
Q 26.265625 6.109375 33.40625 6.109375 
Q 40.53125 6.109375 44.609375 11.75 
Q 48.6875 17.390625 48.6875 27.296875 
z
" id="DejaVuSans-70"/>
      <path d="M 41.109375 46.296875 
Q 39.59375 47.171875 37.8125 47.578125 
Q 36.03125 48 33.890625 48 
Q 26.265625 48 22.1875 43.046875 
Q 18.109375 38.09375 18.109375 28.8125 
L 18.109375 0 
L 9.078125 0 
L 9.078125 54.6875 
L 18.109375 54.6875 
L 18.109375 46.1875 
Q 20.953125 51.171875 25.484375 53.578125 
Q 30.03125 56 36.53125 56 
Q 37.453125 56 38.578125 55.875 
Q 39.703125 55.765625 41.0625 55.515625 
z
" id="DejaVuSans-72"/>
      <path d="M 9.421875 54.6875 
L 18.40625 54.6875 
L 18.40625 0 
L 9.421875 0 
z
M 9.421875 75.984375 
L 18.40625 75.984375 
L 18.40625 64.59375 
L 9.421875 64.59375 
z
" id="DejaVuSans-69"/>
      <path d="M 52 44.1875 
Q 55.375 50.25 60.0625 53.125 
Q 64.75 56 71.09375 56 
Q 79.640625 56 84.28125 50.015625 
Q 88.921875 44.046875 88.921875 33.015625 
L 88.921875 0 
L 79.890625 0 
L 79.890625 32.71875 
Q 79.890625 40.578125 77.09375 44.375 
Q 74.3125 48.1875 68.609375 48.1875 
Q 61.625 48.1875 57.5625 43.546875 
Q 53.515625 38.921875 53.515625 30.90625 
L 53.515625 0 
L 44.484375 0 
L 44.484375 32.71875 
Q 44.484375 40.625 41.703125 44.40625 
Q 38.921875 48.1875 33.109375 48.1875 
Q 26.21875 48.1875 22.15625 43.53125 
Q 18.109375 38.875 18.109375 30.90625 
L 18.109375 0 
L 9.078125 0 
L 9.078125 54.6875 
L 18.109375 54.6875 
L 18.109375 46.1875 
Q 21.1875 51.21875 25.484375 53.609375 
Q 29.78125 56 35.6875 56 
Q 41.65625 56 45.828125 52.96875 
Q 50 49.953125 52 44.1875 
z
" id="DejaVuSans-6d"/>
      <path d="M 54.890625 33.015625 
L 54.890625 0 
L 45.90625 0 
L 45.90625 32.71875 
Q 45.90625 40.484375 42.875 44.328125 
Q 39.84375 48.1875 33.796875 48.1875 
Q 26.515625 48.1875 22.3125 43.546875 
Q 18.109375 38.921875 18.109375 30.90625 
L 18.109375 0 
L 9.078125 0 
L 9.078125 54.6875 
L 18.109375 54.6875 
L 18.109375 46.1875 
Q 21.34375 51.125 25.703125 53.5625 
Q 30.078125 56 35.796875 56 
Q 45.21875 56 50.046875 50.171875 
Q 54.890625 44.34375 54.890625 33.015625 
z
" id="DejaVuSans-6e"/>
      <path d="M 18.3125 70.21875 
L 18.3125 54.6875 
L 36.8125 54.6875 
L 36.8125 47.703125 
L 18.3125 47.703125 
L 18.3125 18.015625 
Q 18.3125 11.328125 20.140625 9.421875 
Q 21.96875 7.515625 27.59375 7.515625 
L 36.8125 7.515625 
L 36.8125 0 
L 27.59375 0 
Q 17.1875 0 13.234375 3.875 
Q 9.28125 7.765625 9.28125 18.015625 
L 9.28125 47.703125 
L 2.6875 47.703125 
L 2.6875 54.6875 
L 9.28125 54.6875 
L 9.28125 70.21875 
z
" id="DejaVuSans-74"/>
      <path id="DejaVuSans-20"/>
      <path d="M 31 75.875 
Q 24.46875 64.65625 21.28125 53.65625 
Q 18.109375 42.671875 18.109375 31.390625 
Q 18.109375 20.125 21.3125 9.0625 
Q 24.515625 -2 31 -13.1875 
L 23.1875 -13.1875 
Q 15.875 -1.703125 12.234375 9.375 
Q 8.59375 20.453125 8.59375 31.390625 
Q 8.59375 42.28125 12.203125 53.3125 
Q 15.828125 64.359375 23.1875 75.875 
z
" id="DejaVuSans-28"/>
      <path d="M 9.8125 72.90625 
L 24.515625 72.90625 
L 43.109375 23.296875 
L 61.8125 72.90625 
L 76.515625 72.90625 
L 76.515625 0 
L 66.890625 0 
L 66.890625 64.015625 
L 48.09375 14.015625 
L 38.1875 14.015625 
L 19.390625 64.015625 
L 19.390625 0 
L 9.8125 0 
z
" id="DejaVuSans-4d"/>
      <path d="M 9.8125 72.90625 
L 19.671875 72.90625 
L 19.671875 0 
L 9.8125 0 
z
" id="DejaVuSans-49"/>
      <path d="M -0.296875 72.90625 
L 61.375 72.90625 
L 61.375 64.59375 
L 35.5 64.59375 
L 35.5 0 
L 25.59375 0 
L 25.59375 64.59375 
L -0.296875 64.59375 
z
" id="DejaVuSans-54"/>
      <path d="M 8.015625 75.875 
L 15.828125 75.875 
Q 23.140625 64.359375 26.78125 53.3125 
Q 30.421875 42.28125 30.421875 31.390625 
Q 30.421875 20.453125 26.78125 9.375 
Q 23.140625 -1.703125 15.828125 -13.1875 
L 8.015625 -13.1875 
Q 14.5 -2 17.703125 9.0625 
Q 20.90625 20.125 20.90625 31.390625 
Q 20.90625 42.671875 17.703125 53.65625 
Q 14.5 64.65625 8.015625 75.875 
z
" id="DejaVuSans-29"/>
     </defs>
     <g transform="translate(144.2225 22.27875)scale(0.08 -0.08)">
      <use xlink:href="#DejaVuSans-65"/>
      <use x="61.507812" xlink:href="#DejaVuSans-78"/>
      <use x="120.6875" xlink:href="#DejaVuSans-70"/>
      <use x="184.164062" xlink:href="#DejaVuSans-65"/>
      <use x="245.6875" xlink:href="#DejaVuSans-72"/>
      <use x="286.800781" xlink:href="#DejaVuSans-69"/>
      <use x="314.583984" xlink:href="#DejaVuSans-6d"/>
      <use x="411.996094" xlink:href="#DejaVuSans-65"/>
      <use x="473.519531" xlink:href="#DejaVuSans-6e"/>
      <use x="536.898438" xlink:href="#DejaVuSans-74"/>
      <use x="576.107422" xlink:href="#DejaVuSans-20"/>
      <use x="607.894531" xlink:href="#DejaVuSans-28"/>
      <use x="646.908203" xlink:href="#DejaVuSans-4d"/>
      <use x="733.1875" xlink:href="#DejaVuSans-49"/>
      <use x="762.679688" xlink:href="#DejaVuSans-54"/>
      <use x="823.763672" xlink:href="#DejaVuSans-29"/>
     </g>
    </g>
    <g id="line2d_41">
     <path d="M 121.8225 31.22125 
L 137.8225 31.22125 
" style="fill:none;stroke:#114b5f;stroke-dasharray:3.7,1.6;stroke-dashoffset:0;"/>
    </g>
    <g id="line2d_42"/>
    <g id="text_14">
     <!-- 3rd order virial exp. -->
     <defs>
      <path d="M 40.578125 39.3125 
Q 47.65625 37.796875 51.625 33 
Q 55.609375 28.21875 55.609375 21.1875 
Q 55.609375 10.40625 48.1875 4.484375 
Q 40.765625 -1.421875 27.09375 -1.421875 
Q 22.515625 -1.421875 17.65625 -0.515625 
Q 12.796875 0.390625 7.625 2.203125 
L 7.625 11.71875 
Q 11.71875 9.328125 16.59375 8.109375 
Q 21.484375 6.890625 26.8125 6.890625 
Q 36.078125 6.890625 40.9375 10.546875 
Q 45.796875 14.203125 45.796875 21.1875 
Q 45.796875 27.640625 41.28125 31.265625 
Q 36.765625 34.90625 28.71875 34.90625 
L 20.21875 34.90625 
L 20.21875 43.015625 
L 29.109375 43.015625 
Q 36.375 43.015625 40.234375 45.921875 
Q 44.09375 48.828125 44.09375 54.296875 
Q 44.09375 59.90625 40.109375 62.90625 
Q 36.140625 65.921875 28.71875 65.921875 
Q 24.65625 65.921875 20.015625 65.03125 
Q 15.375 64.15625 9.8125 62.3125 
L 9.8125 71.09375 
Q 15.4375 72.65625 20.34375 73.4375 
Q 25.25 74.21875 29.59375 74.21875 
Q 40.828125 74.21875 47.359375 69.109375 
Q 53.90625 64.015625 53.90625 55.328125 
Q 53.90625 49.265625 50.4375 45.09375 
Q 46.96875 40.921875 40.578125 39.3125 
z
" id="DejaVuSans-33"/>
      <path d="M 45.40625 46.390625 
L 45.40625 75.984375 
L 54.390625 75.984375 
L 54.390625 0 
L 45.40625 0 
L 45.40625 8.203125 
Q 42.578125 3.328125 38.25 0.953125 
Q 33.9375 -1.421875 27.875 -1.421875 
Q 17.96875 -1.421875 11.734375 6.484375 
Q 5.515625 14.40625 5.515625 27.296875 
Q 5.515625 40.1875 11.734375 48.09375 
Q 17.96875 56 27.875 56 
Q 33.9375 56 38.25 53.625 
Q 42.578125 51.265625 45.40625 46.390625 
z
M 14.796875 27.296875 
Q 14.796875 17.390625 18.875 11.75 
Q 22.953125 6.109375 30.078125 6.109375 
Q 37.203125 6.109375 41.296875 11.75 
Q 45.40625 17.390625 45.40625 27.296875 
Q 45.40625 37.203125 41.296875 42.84375 
Q 37.203125 48.484375 30.078125 48.484375 
Q 22.953125 48.484375 18.875 42.84375 
Q 14.796875 37.203125 14.796875 27.296875 
z
" id="DejaVuSans-64"/>
      <path d="M 30.609375 48.390625 
Q 23.390625 48.390625 19.1875 42.75 
Q 14.984375 37.109375 14.984375 27.296875 
Q 14.984375 17.484375 19.15625 11.84375 
Q 23.34375 6.203125 30.609375 6.203125 
Q 37.796875 6.203125 41.984375 11.859375 
Q 46.1875 17.53125 46.1875 27.296875 
Q 46.1875 37.015625 41.984375 42.703125 
Q 37.796875 48.390625 30.609375 48.390625 
z
M 30.609375 56 
Q 42.328125 56 49.015625 48.375 
Q 55.71875 40.765625 55.71875 27.296875 
Q 55.71875 13.875 49.015625 6.21875 
Q 42.328125 -1.421875 30.609375 -1.421875 
Q 18.84375 -1.421875 12.171875 6.21875 
Q 5.515625 13.875 5.515625 27.296875 
Q 5.515625 40.765625 12.171875 48.375 
Q 18.84375 56 30.609375 56 
z
" id="DejaVuSans-6f"/>
      <path d="M 2.984375 54.6875 
L 12.5 54.6875 
L 29.59375 8.796875 
L 46.6875 54.6875 
L 56.203125 54.6875 
L 35.6875 0 
L 23.484375 0 
z
" id="DejaVuSans-76"/>
      <path d="M 34.28125 27.484375 
Q 23.390625 27.484375 19.1875 25 
Q 14.984375 22.515625 14.984375 16.5 
Q 14.984375 11.71875 18.140625 8.90625 
Q 21.296875 6.109375 26.703125 6.109375 
Q 34.1875 6.109375 38.703125 11.40625 
Q 43.21875 16.703125 43.21875 25.484375 
L 43.21875 27.484375 
z
M 52.203125 31.203125 
L 52.203125 0 
L 43.21875 0 
L 43.21875 8.296875 
Q 40.140625 3.328125 35.546875 0.953125 
Q 30.953125 -1.421875 24.3125 -1.421875 
Q 15.921875 -1.421875 10.953125 3.296875 
Q 6 8.015625 6 15.921875 
Q 6 25.140625 12.171875 29.828125 
Q 18.359375 34.515625 30.609375 34.515625 
L 43.21875 34.515625 
L 43.21875 35.40625 
Q 43.21875 41.609375 39.140625 45 
Q 35.0625 48.390625 27.6875 48.390625 
Q 23 48.390625 18.546875 47.265625 
Q 14.109375 46.140625 10.015625 43.890625 
L 10.015625 52.203125 
Q 14.9375 54.109375 19.578125 55.046875 
Q 24.21875 56 28.609375 56 
Q 40.484375 56 46.34375 49.84375 
Q 52.203125 43.703125 52.203125 31.203125 
z
" id="DejaVuSans-61"/>
      <path d="M 9.421875 75.984375 
L 18.40625 75.984375 
L 18.40625 0 
L 9.421875 0 
z
" id="DejaVuSans-6c"/>
      <path d="M 10.6875 12.40625 
L 21 12.40625 
L 21 0 
L 10.6875 0 
z
" id="DejaVuSans-2e"/>
     </defs>
     <g transform="translate(144.2225 34.02125)scale(0.08 -0.08)">
      <use xlink:href="#DejaVuSans-33"/>
      <use x="63.623047" xlink:href="#DejaVuSans-72"/>
      <use x="104.720703" xlink:href="#DejaVuSans-64"/>
      <use x="168.197266" xlink:href="#DejaVuSans-20"/>
      <use x="199.984375" xlink:href="#DejaVuSans-6f"/>
      <use x="261.166016" xlink:href="#DejaVuSans-72"/>
      <use x="302.263672" xlink:href="#DejaVuSans-64"/>
      <use x="365.740234" xlink:href="#DejaVuSans-65"/>
      <use x="427.263672" xlink:href="#DejaVuSans-72"/>
      <use x="468.376953" xlink:href="#DejaVuSans-20"/>
      <use x="500.164062" xlink:href="#DejaVuSans-76"/>
      <use x="559.34375" xlink:href="#DejaVuSans-69"/>
      <use x="587.126953" xlink:href="#DejaVuSans-72"/>
      <use x="628.240234" xlink:href="#DejaVuSans-69"/>
      <use x="656.023438" xlink:href="#DejaVuSans-61"/>
      <use x="717.302734" xlink:href="#DejaVuSans-6c"/>
      <use x="745.085938" xlink:href="#DejaVuSans-20"/>
      <use x="776.873047" xlink:href="#DejaVuSans-65"/>
      <use x="838.380859" xlink:href="#DejaVuSans-78"/>
      <use x="897.560547" xlink:href="#DejaVuSans-70"/>
      <use x="961.037109" xlink:href="#DejaVuSans-2e"/>
     </g>
    </g>
    <g id="LineCollection_1">
     <path d="M 129.8225 46.96375 
L 129.8225 38.96375 
" style="fill:none;stroke:#114b5f;"/>
    </g>
    <g id="line2d_43"/>
    <g id="line2d_44">
     <defs>
      <path d="M -1.5 1.5 
L 1.5 1.5 
L 1.5 -1.5 
L -1.5 -1.5 
z
" id="mf8798ba085" style="stroke:#114b5f;stroke-linejoin:miter;stroke-width:0.75;"/>
     </defs>
     <g>
      <use style="fill:#2faeda;stroke:#114b5f;stroke-linejoin:miter;stroke-width:0.75;" x="129.8225" xlink:href="#mf8798ba085" y="42.96375"/>
     </g>
    </g>
    <g id="text_15">
     <!-- CL -->
     <defs>
      <path d="M 64.40625 67.28125 
L 64.40625 56.890625 
Q 59.421875 61.53125 53.78125 63.8125 
Q 48.140625 66.109375 41.796875 66.109375 
Q 29.296875 66.109375 22.65625 58.46875 
Q 16.015625 50.828125 16.015625 36.375 
Q 16.015625 21.96875 22.65625 14.328125 
Q 29.296875 6.6875 41.796875 6.6875 
Q 48.140625 6.6875 53.78125 8.984375 
Q 59.421875 11.28125 64.40625 15.921875 
L 64.40625 5.609375 
Q 59.234375 2.09375 53.4375 0.328125 
Q 47.65625 -1.421875 41.21875 -1.421875 
Q 24.65625 -1.421875 15.125 8.703125 
Q 5.609375 18.84375 5.609375 36.375 
Q 5.609375 53.953125 15.125 64.078125 
Q 24.65625 74.21875 41.21875 74.21875 
Q 47.75 74.21875 53.53125 72.484375 
Q 59.328125 70.75 64.40625 67.28125 
z
" id="DejaVuSans-43"/>
      <path d="M 9.8125 72.90625 
L 19.671875 72.90625 
L 19.671875 8.296875 
L 55.171875 8.296875 
L 55.171875 0 
L 9.8125 0 
z
" id="DejaVuSans-4c"/>
     </defs>
     <g transform="translate(144.2225 45.76375)scale(0.08 -0.08)">
      <use xlink:href="#DejaVuSans-43"/>
      <use x="69.824219" xlink:href="#DejaVuSans-4c"/>
     </g>
    </g>
   </g>
   <g id="LineCollection_2">
    <path clip-path="url(#pd2f0b8956f)" style="fill:none;stroke:#114b5f;"/>
    <path clip-path="url(#pd2f0b8956f)" style="fill:none;stroke:#114b5f;"/>
    <path clip-path="url(#pd2f0b8956f)" style="fill:none;stroke:#114b5f;"/>
    <path clip-path="url(#pd2f0b8956f)" d="M 231.348715 139.929707 
L 231.348715 139.302735 
" style="fill:none;stroke:#114b5f;"/>
    <path clip-path="url(#pd2f0b8956f)" d="M 165.010944 132.606829 
L 165.010944 131.804623 
" style="fill:none;stroke:#114b5f;"/>
    <path clip-path="url(#pd2f0b8956f)" d="M 119.752339 124.46975 
L 119.752339 122.652975 
" style="fill:none;stroke:#114b5f;"/>
    <path clip-path="url(#pd2f0b8956f)" d="M 90.338064 113.937756 
L 90.338064 110.855758 
" style="fill:none;stroke:#114b5f;"/>
    <path clip-path="url(#pd2f0b8956f)" d="M 71.034367 102.340575 
L 71.034367 99.721379 
" style="fill:none;stroke:#114b5f;"/>
    <path clip-path="url(#pd2f0b8956f)" d="M 58.883432 94.565788 
L 58.883432 93.737647 
" style="fill:none;stroke:#114b5f;"/>
    <path clip-path="url(#pd2f0b8956f)" d="M 51.268673 91.04602 
L 51.268673 90.233295 
" style="fill:none;stroke:#114b5f;"/>
    <path clip-path="url(#pd2f0b8956f)" d="M 46.119406 84.835229 
L 46.119406 83.372808 
" style="fill:none;stroke:#114b5f;"/>
    <path clip-path="url(#pd2f0b8956f)" d="M 42.214945 73.801447 
L 42.214945 71.922397 
" style="fill:none;stroke:#114b5f;"/>
    <path clip-path="url(#pd2f0b8956f)" d="M 39.157093 64.747393 
L 39.157093 61.676449 
" style="fill:none;stroke:#114b5f;"/>
    <path clip-path="url(#pd2f0b8956f)" d="M 36.892692 67.675871 
L 36.892692 64.013007 
" style="fill:none;stroke:#114b5f;"/>
    <path clip-path="url(#pd2f0b8956f)" d="M 35.345795 75.784683 
L 35.345795 71.544986 
" style="fill:none;stroke:#114b5f;"/>
   </g>
   <g id="line2d_45">
    <g clip-path="url(#pd2f0b8956f)">
     <use style="fill:#2faeda;stroke:#114b5f;stroke-linejoin:miter;stroke-width:0.75;" x="633.222336" xlink:href="#mf8798ba085" y="148.246665"/>
     <use style="fill:#2faeda;stroke:#114b5f;stroke-linejoin:miter;stroke-width:0.75;" x="452.47562" xlink:href="#mf8798ba085" y="146.719592"/>
     <use style="fill:#2faeda;stroke:#114b5f;stroke-linejoin:miter;stroke-width:0.75;" x="320.56315" xlink:href="#mf8798ba085" y="144.051379"/>
     <use style="fill:#2faeda;stroke:#114b5f;stroke-linejoin:miter;stroke-width:0.75;" x="231.348715" xlink:href="#mf8798ba085" y="139.616221"/>
     <use style="fill:#2faeda;stroke:#114b5f;stroke-linejoin:miter;stroke-width:0.75;" x="165.010944" xlink:href="#mf8798ba085" y="132.205726"/>
     <use style="fill:#2faeda;stroke:#114b5f;stroke-linejoin:miter;stroke-width:0.75;" x="119.752339" xlink:href="#mf8798ba085" y="123.561363"/>
     <use style="fill:#2faeda;stroke:#114b5f;stroke-linejoin:miter;stroke-width:0.75;" x="90.338064" xlink:href="#mf8798ba085" y="112.396757"/>
     <use style="fill:#2faeda;stroke:#114b5f;stroke-linejoin:miter;stroke-width:0.75;" x="71.034367" xlink:href="#mf8798ba085" y="101.030977"/>
     <use style="fill:#2faeda;stroke:#114b5f;stroke-linejoin:miter;stroke-width:0.75;" x="58.883432" xlink:href="#mf8798ba085" y="94.151717"/>
     <use style="fill:#2faeda;stroke:#114b5f;stroke-linejoin:miter;stroke-width:0.75;" x="51.268673" xlink:href="#mf8798ba085" y="90.639657"/>
     <use style="fill:#2faeda;stroke:#114b5f;stroke-linejoin:miter;stroke-width:0.75;" x="46.119406" xlink:href="#mf8798ba085" y="84.104019"/>
     <use style="fill:#2faeda;stroke:#114b5f;stroke-linejoin:miter;stroke-width:0.75;" x="42.214945" xlink:href="#mf8798ba085" y="72.861922"/>
     <use style="fill:#2faeda;stroke:#114b5f;stroke-linejoin:miter;stroke-width:0.75;" x="39.157093" xlink:href="#mf8798ba085" y="63.211921"/>
     <use style="fill:#2faeda;stroke:#114b5f;stroke-linejoin:miter;stroke-width:0.75;" x="36.892692" xlink:href="#mf8798ba085" y="65.844439"/>
     <use style="fill:#2faeda;stroke:#114b5f;stroke-linejoin:miter;stroke-width:0.75;" x="35.345795" xlink:href="#mf8798ba085" y="73.664835"/>
    </g>
   </g>
  </g>
 </g>
 <defs>
  <clipPath id="pd2f0b8956f">
   <rect height="144" width="206.55" x="24.3" y="9"/>
  </clipPath>
 </defs>
</svg>
