<?xml version="1.0" encoding="utf-8" standalone="no"?>
<!DOCTYPE svg PUBLIC "-//W3C//DTD SVG 1.1//EN"
  "http://www.w3.org/Graphics/SVG/1.1/DTD/svg11.dtd">
<!-- Created with matplotlib (http://matplotlib.org/) -->
<svg height="165.6pt" version="1.1" viewBox="0 0 226.8 165.6" width="226.8pt" xmlns="http://www.w3.org/2000/svg" xmlns:xlink="http://www.w3.org/1999/xlink">
 <defs>
  <style type="text/css">
*{stroke-linecap:butt;stroke-linejoin:round;}
  </style>
 </defs>
 <g id="figure_1">
  <g id="patch_1">
   <path d="M 0 165.6 
L 226.8 165.6 
L 226.8 0 
L 0 0 
z
" style="fill:#ffffff;"/>
  </g>
  <g id="axes_1">
   <g id="patch_2">
    <path d="M 31.752 140.76 
L 222.264 140.76 
L 222.264 3.312 
L 31.752 3.312 
z
" style="fill:#ffffff;"/>
   </g>
   <g id="PolyCollection_1">
    <defs>
     <path d="M 32.108145 -118.589015 
L 32.108145 -208.104 
L 34.030567 -208.104 
L 36.914034 -208.104 
L 40.950954 -208.104 
L 43.065452 -208.104 
L 46.141161 -208.104 
L 48.255825 -208.104 
L 50.946884 -208.104 
L 53.445867 -208.104 
L 55.752442 -208.104 
L 57.290213 -208.104 
L 59.981273 -208.104 
L 62.480089 -208.104 
L 65.171148 -208.104 
L 67.573679 -208.104 
L 70.168451 -208.104 
L 72.666936 -208.104 
L 73.627981 -208.104 
L 77.087843 -208.104 
L 78.625449 -208.104 
L 81.316177 -208.104 
L 82.853617 -208.104 
L 84.10286 -208.104 
L 86.505556 -208.104 
L 88.619557 -208.104 
L 89.676557 -208.104 
L 91.502361 -208.104 
L 95.346044 -208.104 
L 96.691243 -208.104 
L 98.228683 -208.104 
L 99.9582 -208.104 
L 101.207277 -208.104 
L 102.744717 -208.104 
L 103.609475 -208.104 
L 105.338992 -208.104 
L 106.876266 -208.104 
L 109.182344 -208.104 
L 111.296179 -208.104 
L 112.737333 -208.104 
L 116.004124 -208.104 
L 117.82943 -208.104 
L 120.327584 -208.104 
L 122.633165 -208.104 
L 124.650713 -208.104 
L 126.572141 -208.104 
L 128.397447 -208.104 
L 129.93439 -208.104 
L 131.951939 -208.104 
L 134.449595 -208.104 
L 136.851131 -208.104 
L 137.811679 -208.104 
L 139.348456 -208.104 
L 142.230266 -208.104 
L 144.535846 -208.104 
L 146.264866 -208.104 
L 147.41749 -208.104 
L 149.914816 -208.104 
L 152.027822 -208.104 
L 152.411975 -208.104 
L 154.332906 -208.104 
L 155.485364 -208.104 
L 157.982524 -208.104 
L 160.287607 -208.104 
L 161.055913 -208.104 
L 162.016295 -208.104 
L 163.360996 -208.104 
L 166.049901 -208.104 
L 167.010283 -208.104 
L 168.546895 -208.104 
L 171.427876 -208.104 
L 173.156398 -208.104 
L 176.1335 -208.104 
L 177.381914 -208.104 
L 178.72645 -208.104 
L 181.031201 -208.104 
L 183.143877 -208.104 
L 185.064475 -208.104 
L 187.84917 -208.104 
L 189.28966 -208.104 
L 191.40217 -208.104 
L 194.475061 -208.104 
L 196.779813 -208.104 
L 198.50817 -208.104 
L 201.196909 -208.104 
L 205.038272 -208.104 
L 207.150947 -208.104 
L 209.263623 -208.104 
L 211.568043 -208.104 
L 214.44919 -208.104 
L 217.042139 -208.104 
L 219.731209 -208.104 
L 221.363776 -208.104 
L 221.363776 -59.723354 
L 221.363776 -59.723354 
L 219.731209 -60.57648 
L 217.042139 -61.903564 
L 214.44919 -63.230648 
L 211.568043 -64.652524 
L 209.263623 -66.0744 
L 207.150947 -67.211901 
L 205.038272 -68.349401 
L 201.196909 -70.340028 
L 198.50817 -71.856695 
L 196.779813 -72.899404 
L 194.475061 -74.131697 
L 191.40217 -75.837948 
L 189.28966 -77.07024 
L 187.84917 -77.828574 
L 185.064475 -79.440033 
L 183.143877 -80.482742 
L 181.031201 -81.620243 
L 178.72645 -82.852535 
L 177.381914 -83.516077 
L 176.1335 -84.179619 
L 173.156398 -85.696287 
L 171.427876 -86.644204 
L 168.546895 -88.160872 
L 167.010283 -88.919206 
L 166.049901 -89.393164 
L 163.360996 -90.81504 
L 162.016295 -91.38379 
L 161.055913 -91.857749 
L 160.287607 -92.236916 
L 157.982524 -93.279625 
L 155.485364 -94.417126 
L 154.332906 -94.985876 
L 152.411975 -95.839001 
L 152.027822 -96.028585 
L 149.914816 -96.976502 
L 147.41749 -98.019211 
L 146.264866 -98.49317 
L 144.535846 -99.156712 
L 142.230266 -99.915046 
L 139.348456 -100.957754 
L 137.811679 -101.621297 
L 136.851131 -102.000463 
L 134.449595 -102.853589 
L 131.951939 -103.706714 
L 129.93439 -104.275465 
L 128.397447 -104.844215 
L 126.572141 -105.412966 
L 124.650713 -105.981716 
L 122.633165 -106.550466 
L 120.327584 -107.3088 
L 117.82943 -107.87755 
L 116.004124 -108.446301 
L 112.737333 -109.204634 
L 111.296179 -109.583801 
L 109.182344 -110.05776 
L 106.876266 -110.531719 
L 105.338992 -110.910886 
L 103.609475 -111.290052 
L 102.744717 -111.479636 
L 101.207277 -111.764011 
L 99.9582 -112.048386 
L 98.228683 -112.427553 
L 96.691243 -112.711928 
L 95.346044 -112.996303 
L 91.502361 -113.659846 
L 89.676557 -113.944221 
L 88.619557 -114.133804 
L 86.505556 -114.512971 
L 84.10286 -114.702554 
L 82.853617 -114.892138 
L 81.316177 -115.176513 
L 78.625449 -115.55568 
L 77.087843 -115.745263 
L 73.627981 -116.029639 
L 72.666936 -116.12443 
L 70.168451 -116.503597 
L 67.573679 -116.787972 
L 65.171148 -117.072348 
L 62.480089 -117.261931 
L 59.981273 -117.451514 
L 57.290213 -117.641098 
L 55.752442 -117.73589 
L 53.445867 -117.925473 
L 50.946884 -118.020265 
L 48.255825 -118.209848 
L 46.141161 -118.209848 
L 43.065452 -118.30464 
L 40.950954 -118.399432 
L 36.914034 -118.494223 
L 34.030567 -118.589015 
L 32.108145 -118.589015 
z
" id="m5f8ab50845" style="stroke:#d9ecdd;"/>
    </defs>
    <g clip-path="url(#p10a289d666)">
     <use style="fill:#d9ecdd;stroke:#d9ecdd;" x="0" xlink:href="#m5f8ab50845" y="165.6"/>
    </g>
   </g>
   <g id="PolyCollection_2">
    <defs>
     <path d="M 32.108145 -118.589015 
L 32.108145 -24.84 
L 34.030567 -24.84 
L 36.914034 -24.84 
L 40.950954 -24.84 
L 43.065452 -24.84 
L 46.141161 -24.84 
L 48.255825 -24.84 
L 50.946884 -24.84 
L 53.445867 -24.84 
L 55.752442 -24.84 
L 57.290213 -24.84 
L 59.981273 -24.84 
L 62.480089 -24.84 
L 65.171148 -24.84 
L 67.573679 -24.84 
L 70.168451 -24.84 
L 72.666936 -24.84 
L 73.627981 -24.84 
L 77.087843 -24.84 
L 78.625449 -24.84 
L 81.316177 -24.84 
L 82.853617 -24.84 
L 84.10286 -24.84 
L 86.505556 -24.84 
L 88.619557 -24.84 
L 89.676557 -24.84 
L 91.502361 -24.84 
L 95.346044 -24.84 
L 96.691243 -24.84 
L 98.228683 -24.84 
L 99.9582 -24.84 
L 101.207277 -24.84 
L 102.744717 -24.84 
L 103.609475 -24.84 
L 105.338992 -24.84 
L 106.876266 -24.84 
L 109.182344 -24.84 
L 111.296179 -24.84 
L 112.737333 -24.84 
L 116.004124 -24.84 
L 117.82943 -24.84 
L 120.327584 -24.84 
L 122.633165 -24.84 
L 124.650713 -24.84 
L 126.572141 -24.84 
L 128.397447 -24.84 
L 129.93439 -24.84 
L 131.951939 -24.84 
L 134.449595 -24.84 
L 136.851131 -24.84 
L 137.811679 -24.84 
L 139.348456 -24.84 
L 142.230266 -24.84 
L 144.535846 -24.84 
L 146.264866 -24.84 
L 147.41749 -24.84 
L 149.914816 -24.84 
L 152.027822 -24.84 
L 152.411975 -24.84 
L 154.332906 -24.84 
L 155.485364 -24.84 
L 157.982524 -24.84 
L 160.287607 -24.84 
L 161.055913 -24.84 
L 162.016295 -24.84 
L 163.360996 -24.84 
L 166.049901 -24.84 
L 167.010283 -24.84 
L 168.546895 -24.84 
L 171.427876 -24.84 
L 173.156398 -24.84 
L 176.1335 -24.84 
L 177.381914 -24.84 
L 178.72645 -24.84 
L 181.031201 -24.84 
L 183.143877 -24.84 
L 185.064475 -24.84 
L 187.84917 -24.84 
L 189.28966 -24.84 
L 191.40217 -24.84 
L 194.475061 -24.84 
L 196.779813 -24.84 
L 198.50817 -24.84 
L 201.196909 -24.84 
L 205.038272 -24.84 
L 207.150947 -24.84 
L 209.263623 -24.84 
L 211.568043 -24.84 
L 214.44919 -24.84 
L 217.042139 -24.84 
L 219.731209 -24.84 
L 221.363776 -24.84 
L 221.363776 -59.723354 
L 221.363776 -59.723354 
L 219.731209 -60.57648 
L 217.042139 -61.903564 
L 214.44919 -63.230648 
L 211.568043 -64.652524 
L 209.263623 -66.0744 
L 207.150947 -67.211901 
L 205.038272 -68.349401 
L 201.196909 -70.340028 
L 198.50817 -71.856695 
L 196.779813 -72.899404 
L 194.475061 -74.131697 
L 191.40217 -75.837948 
L 189.28966 -77.07024 
L 187.84917 -77.828574 
L 185.064475 -79.440033 
L 183.143877 -80.482742 
L 181.031201 -81.620243 
L 178.72645 -82.852535 
L 177.381914 -83.516077 
L 176.1335 -84.179619 
L 173.156398 -85.696287 
L 171.427876 -86.644204 
L 168.546895 -88.160872 
L 167.010283 -88.919206 
L 166.049901 -89.393164 
L 163.360996 -90.81504 
L 162.016295 -91.38379 
L 161.055913 -91.857749 
L 160.287607 -92.236916 
L 157.982524 -93.279625 
L 155.485364 -94.417126 
L 154.332906 -94.985876 
L 152.411975 -95.839001 
L 152.027822 -96.028585 
L 149.914816 -96.976502 
L 147.41749 -98.019211 
L 146.264866 -98.49317 
L 144.535846 -99.156712 
L 142.230266 -99.915046 
L 139.348456 -100.957754 
L 137.811679 -101.621297 
L 136.851131 -102.000463 
L 134.449595 -102.853589 
L 131.951939 -103.706714 
L 129.93439 -104.275465 
L 128.397447 -104.844215 
L 126.572141 -105.412966 
L 124.650713 -105.981716 
L 122.633165 -106.550466 
L 120.327584 -107.3088 
L 117.82943 -107.87755 
L 116.004124 -108.446301 
L 112.737333 -109.204634 
L 111.296179 -109.583801 
L 109.182344 -110.05776 
L 106.876266 -110.531719 
L 105.338992 -110.910886 
L 103.609475 -111.290052 
L 102.744717 -111.479636 
L 101.207277 -111.764011 
L 99.9582 -112.048386 
L 98.228683 -112.427553 
L 96.691243 -112.711928 
L 95.346044 -112.996303 
L 91.502361 -113.659846 
L 89.676557 -113.944221 
L 88.619557 -114.133804 
L 86.505556 -114.512971 
L 84.10286 -114.702554 
L 82.853617 -114.892138 
L 81.316177 -115.176513 
L 78.625449 -115.55568 
L 77.087843 -115.745263 
L 73.627981 -116.029639 
L 72.666936 -116.12443 
L 70.168451 -116.503597 
L 67.573679 -116.787972 
L 65.171148 -117.072348 
L 62.480089 -117.261931 
L 59.981273 -117.451514 
L 57.290213 -117.641098 
L 55.752442 -117.73589 
L 53.445867 -117.925473 
L 50.946884 -118.020265 
L 48.255825 -118.209848 
L 46.141161 -118.209848 
L 43.065452 -118.30464 
L 40.950954 -118.399432 
L 36.914034 -118.494223 
L 34.030567 -118.589015 
L 32.108145 -118.589015 
z
" id="m961ce2ecee" style="stroke:#d7d7d7;"/>
    </defs>
    <g clip-path="url(#p10a289d666)">
     <use style="fill:#d7d7d7;stroke:#d7d7d7;" x="0" xlink:href="#m961ce2ecee" y="165.6"/>
    </g>
   </g>
   <g id="PolyCollection_3">
    <defs>
     <path d="M 31.976393 -24.84 
L 31.976393 -98.208794 
L 32.072514 -98.208794 
L 34.763739 -98.114003 
L 38.992901 -98.019211 
L 41.491884 -97.924419 
L 44.567593 -97.829628 
L 46.874333 -97.734836 
L 50.911088 -97.545252 
L 53.79472 -97.545252 
L 56.101295 -97.355669 
L 59.368915 -97.071294 
L 62.25205 -96.786919 
L 66.288473 -96.407752 
L 70.709546 -96.123377 
L 73.977 -95.74421 
L 77.629105 -95.459834 
L 80.031635 -95.175459 
L 83.971771 -94.701501 
L 90.314105 -93.753583 
L 96.079548 -92.710874 
L 101.268429 -91.762957 
L 106.649387 -90.720248 
L 111.453453 -89.582748 
L 114.33576 -88.824414 
L 120.100871 -87.592121 
L 125.865319 -85.980662 
L 129.90025 -84.74837 
L 132.974302 -83.705661 
L 137.393387 -82.283785 
L 140.659349 -81.051492 
L 145.077936 -79.345241 
L 149.88051 -77.354615 
L 152.185594 -76.311906 
L 157.179747 -73.942113 
L 161.59734 -71.667112 
L 164.094168 -70.340028 
L 166.590665 -68.82336 
L 170.335244 -66.453567 
L 172.735123 -64.652524 
L 174.846803 -62.946273 
L 176.477547 -61.050439 
L 176.477547 -24.84 
L 176.477547 -24.84 
L 174.846803 -24.84 
L 172.735123 -24.84 
L 170.335244 -24.84 
L 166.590665 -24.84 
L 164.094168 -24.84 
L 161.59734 -24.84 
L 157.179747 -24.84 
L 152.185594 -24.84 
L 149.88051 -24.84 
L 145.077936 -24.84 
L 140.659349 -24.84 
L 137.393387 -24.84 
L 132.974302 -24.84 
L 129.90025 -24.84 
L 125.865319 -24.84 
L 120.100871 -24.84 
L 114.33576 -24.84 
L 111.453453 -24.84 
L 106.649387 -24.84 
L 101.268429 -24.84 
L 96.079548 -24.84 
L 90.314105 -24.84 
L 83.971771 -24.84 
L 80.031635 -24.84 
L 77.629105 -24.84 
L 73.977 -24.84 
L 70.709546 -24.84 
L 66.288473 -24.84 
L 62.25205 -24.84 
L 59.368915 -24.84 
L 56.101295 -24.84 
L 53.79472 -24.84 
L 50.911088 -24.84 
L 46.874333 -24.84 
L 44.567593 -24.84 
L 41.491884 -24.84 
L 38.992901 -24.84 
L 34.763739 -24.84 
L 32.072514 -24.84 
L 31.976393 -24.84 
z
" id="m69e80f99fd" style="stroke:#db7502;"/>
    </defs>
    <g clip-path="url(#p10a289d666)">
     <use style="fill:#db7502;stroke:#db7502;" x="0" xlink:href="#m69e80f99fd" y="165.6"/>
    </g>
   </g>
   <g id="PolyCollection_4">
    <defs>
     <path d="M 32.086819 -24.84 
L 32.086819 -97.952979 
L 37.276513 -97.948488 
L 39.285427 -97.864323 
L 43.135845 -97.778563 
L 46.149216 -97.693528 
L 48.827768 -97.526355 
L 51.171501 -97.277044 
L 54.519691 -97.109292 
L 57.533062 -96.859401 
L 59.709385 -96.692663 
L 63.057575 -96.277628 
L 64.56426 -96.111469 
L 68.414678 -95.860854 
L 71.26064 -95.528681 
L 73.771782 -95.279225 
L 75.445877 -94.948066 
L 77.957019 -94.616183 
L 82.142257 -94.117996 
L 86.662313 -93.537092 
L 89.675684 -93.039918 
L 93.526102 -92.129883 
L 97.37652 -91.384703 
L 99.720253 -90.888109 
L 102.901033 -90.308364 
L 106.249223 -89.481191 
L 108.760366 -88.819597 
L 110.936689 -88.323148 
L 113.113012 -87.744272 
L 114.619698 -87.413258 
L 116.963431 -86.751809 
L 122.487944 -85.34576 
L 125.333905 -84.519021 
L 128.012457 -83.61 
L 130.858418 -82.618406 
L 132.197694 -82.040254 
L 135.880703 -80.635798 
L 139.145188 -79.396559 
L 140.735578 -78.81819 
L 144.920815 -77.330872 
L 147.264548 -76.257285 
L 149.775691 -75.101126 
L 152.119424 -74.109967 
L 154.044633 -73.201598 
L 156.304661 -72.128083 
L 157.895051 -71.302431 
L 159.569146 -70.559134 
L 161.829174 -69.320765 
L 165.344773 -67.504316 
L 168.609258 -65.523229 
L 171.538924 -63.624859 
L 174.217476 -61.644279 
L 176.477547 -61.050439 
L 176.477547 -24.84 
L 176.477547 -24.84 
L 174.217476 -24.84 
L 171.538924 -24.84 
L 168.609258 -24.84 
L 165.344773 -24.84 
L 161.829174 -24.84 
L 159.569146 -24.84 
L 157.895051 -24.84 
L 156.304661 -24.84 
L 154.044633 -24.84 
L 152.119424 -24.84 
L 149.775691 -24.84 
L 147.264548 -24.84 
L 144.920815 -24.84 
L 140.735578 -24.84 
L 139.145188 -24.84 
L 135.880703 -24.84 
L 132.197694 -24.84 
L 130.858418 -24.84 
L 128.012457 -24.84 
L 125.333905 -24.84 
L 122.487944 -24.84 
L 116.963431 -24.84 
L 114.619698 -24.84 
L 113.113012 -24.84 
L 110.936689 -24.84 
L 108.760366 -24.84 
L 106.249223 -24.84 
L 102.901033 -24.84 
L 99.720253 -24.84 
L 97.37652 -24.84 
L 93.526102 -24.84 
L 89.675684 -24.84 
L 86.662313 -24.84 
L 82.142257 -24.84 
L 77.957019 -24.84 
L 75.445877 -24.84 
L 73.771782 -24.84 
L 71.26064 -24.84 
L 68.414678 -24.84 
L 64.56426 -24.84 
L 63.057575 -24.84 
L 59.709385 -24.84 
L 57.533062 -24.84 
L 54.519691 -24.84 
L 51.171501 -24.84 
L 48.827768 -24.84 
L 46.149216 -24.84 
L 43.135845 -24.84 
L 39.285427 -24.84 
L 37.276513 -24.84 
L 32.086819 -24.84 
z
" id="m0fcc24e527" style="stroke:#90d8f8;"/>
    </defs>
    <g clip-path="url(#p10a289d666)">
     <use style="fill:#90d8f8;stroke:#90d8f8;" x="0" xlink:href="#m0fcc24e527" y="165.6"/>
    </g>
   </g>
   <g id="PolyCollection_5">
    <defs>
     <path d="M 176.669293 -24.84 
L 176.669293 -60.766063 
L 178.973216 -59.059812 
L 180.60396 -57.163978 
L 182.138417 -55.173352 
L 183.4803 -52.993142 
L 184.726063 -50.812932 
L 185.875373 -48.443139 
L 186.832109 -45.883763 
L 187.693056 -43.51397 
L 188.458047 -41.238968 
L 189.22221 -38.490008 
L 189.698506 -36.025423 
L 190.174969 -33.65563 
L 190.36257 -31.001462 
L 190.550006 -28.252502 
L 190.640659 -25.124375 
L 190.640659 -24.84 
L 190.640659 -24.84 
L 190.550006 -24.84 
L 190.36257 -24.84 
L 190.174969 -24.84 
L 189.698506 -24.84 
L 189.22221 -24.84 
L 188.458047 -24.84 
L 187.693056 -24.84 
L 186.832109 -24.84 
L 185.875373 -24.84 
L 184.726063 -24.84 
L 183.4803 -24.84 
L 182.138417 -24.84 
L 180.60396 -24.84 
L 178.973216 -24.84 
L 176.669293 -24.84 
z
" id="mec310c5963" style="stroke:#90d8f8;"/>
    </defs>
    <g clip-path="url(#p10a289d666)">
     <use style="fill:#90d8f8;stroke:#90d8f8;" x="0" xlink:href="#mec310c5963" y="165.6"/>
    </g>
   </g>
   <g id="matplotlib.axis_1">
    <g id="xtick_1">
     <g id="line2d_1">
      <defs>
       <path d="M 0 0 
L 0 -2.5 
" id="m2a6e6e0cc0" style="stroke:#000000;stroke-width:0.8;"/>
      </defs>
      <g>
       <use style="stroke:#000000;stroke-width:0.8;" x="31.752" xlink:href="#m2a6e6e0cc0" y="140.76"/>
      </g>
     </g>
     <g id="line2d_2">
      <defs>
       <path d="M 0 0 
L 0 2.5 
" id="m81f9645fe5" style="stroke:#000000;stroke-width:0.8;"/>
      </defs>
      <g>
       <use style="stroke:#000000;stroke-width:0.8;" x="31.752" xlink:href="#m81f9645fe5" y="3.312"/>
      </g>
     </g>
     <g id="text_1">
      <!-- $0$ -->
      <defs>
       <path d="M 47.703125 33 
Q 47.703125 23.796875 45.546875 16.34375 
Q 43.40625 8.90625 38.09375 3.75 
Q 32.796875 -1.40625 25 -1.40625 
Q 18.796875 -1.40625 14.25 1.6875 
Q 9.703125 4.796875 7.203125 10.046875 
Q 4.703125 15.296875 3.5 21.140625 
Q 2.296875 27 2.296875 33.59375 
Q 2.296875 42.90625 4.59375 50.34375 
Q 6.90625 57.796875 12.296875 62.6875 
Q 17.703125 67.59375 25.40625 67.59375 
Q 35.203125 67.59375 41.453125 57.9375 
Q 47.703125 48.296875 47.703125 33 
z
M 39.796875 33 
Q 39.796875 45.203125 35.75 52.84375 
Q 31.703125 60.5 25.203125 60.5 
Q 17.796875 60.5 14 52.75 
Q 10.203125 45 10.203125 33.40625 
Q 10.203125 28.203125 10.953125 23.546875 
Q 11.703125 18.90625 13.34375 14.75 
Q 15 10.59375 18 8.140625 
Q 21 5.703125 25 5.703125 
Q 30.09375 5.703125 33.546875 9.796875 
Q 37 13.90625 38.390625 19.84375 
Q 39.796875 25.796875 39.796875 33 
z
" id="STIXGeneral-Regular-1d7e2"/>
      </defs>
      <g transform="translate(29.752 150.33875)scale(0.08 -0.08)">
       <use transform="translate(0 0.40625)" xlink:href="#STIXGeneral-Regular-1d7e2"/>
      </g>
     </g>
    </g>
    <g id="xtick_2">
     <g id="line2d_3">
      <g>
       <use style="stroke:#000000;stroke-width:0.8;" x="69.8544" xlink:href="#m2a6e6e0cc0" y="140.76"/>
      </g>
     </g>
     <g id="line2d_4">
      <g>
       <use style="stroke:#000000;stroke-width:0.8;" x="69.8544" xlink:href="#m81f9645fe5" y="3.312"/>
      </g>
     </g>
     <g id="text_2">
      <!-- $0.2$ -->
      <defs>
       <path d="M 18.09375 4.296875 
Q 18.09375 2.09375 16.4375 0.5 
Q 14.796875 -1.09375 12.5 -1.09375 
Q 10.203125 -1.09375 8.59375 0.5 
Q 7 2.09375 7 4.390625 
Q 7 6.703125 8.640625 8.34375 
Q 10.296875 10 12.59375 10 
Q 14.796875 10 16.4375 8.296875 
Q 18.09375 6.59375 18.09375 4.296875 
z
" id="STIXGeneral-Regular-2e"/>
       <path d="M 46.90625 7.09375 
L 44 0 
L 3.5 0 
L 3.5 2.09375 
L 21 23.5 
L 21 23.40625 
L 26.59375 30.203125 
Q 30.5 34.90625 32.09375 36.953125 
Q 33.703125 39 35.203125 41.953125 
Q 36.703125 44.90625 36.703125 47.5 
Q 36.703125 53.703125 33.34375 57.09375 
Q 30 60.5 24.203125 60.5 
Q 19.59375 60.5 15.75 56.703125 
Q 11.90625 52.90625 10.90625 45.90625 
L 3.703125 47.59375 
Q 5.296875 56.5 11.1875 62.046875 
Q 17.09375 67.59375 24.90625 67.59375 
Q 33.59375 67.59375 39.09375 62.1875 
Q 44.59375 56.796875 44.59375 49.09375 
Q 44.59375 43.5 42.5 39.453125 
Q 40.40625 35.40625 33.703125 27 
L 17.703125 7.09375 
z
" id="STIXGeneral-Regular-1d7e4"/>
      </defs>
      <g transform="translate(64.8544 150.33875)scale(0.08 -0.08)">
       <use transform="translate(0 0.40625)" xlink:href="#STIXGeneral-Regular-1d7e2"/>
       <use transform="translate(49.999985 0.40625)" xlink:href="#STIXGeneral-Regular-2e"/>
       <use transform="translate(74.999969 0.40625)" xlink:href="#STIXGeneral-Regular-1d7e4"/>
      </g>
     </g>
    </g>
    <g id="xtick_3">
     <g id="line2d_5">
      <g>
       <use style="stroke:#000000;stroke-width:0.8;" x="107.9568" xlink:href="#m2a6e6e0cc0" y="140.76"/>
      </g>
     </g>
     <g id="line2d_6">
      <g>
       <use style="stroke:#000000;stroke-width:0.8;" x="107.9568" xlink:href="#m81f9645fe5" y="3.312"/>
      </g>
     </g>
     <g id="text_3">
      <!-- $0.4$ -->
      <defs>
       <path d="M 48.90625 23.59375 
L 45.59375 16.5 
L 37.296875 16.5 
L 37.296875 0 
L 29.40625 0 
L 29.40625 16.5 
L 1.09375 16.5 
L 1.09375 23.296875 
L 32.296875 67.59375 
L 37.296875 67.59375 
L 37.296875 23.59375 
z
M 29.40625 23.59375 
L 29.40625 51 
L 10 23.59375 
z
" id="STIXGeneral-Regular-1d7e6"/>
      </defs>
      <g transform="translate(102.9568 150.33875)scale(0.08 -0.08)">
       <use transform="translate(0 0.40625)" xlink:href="#STIXGeneral-Regular-1d7e2"/>
       <use transform="translate(49.999985 0.40625)" xlink:href="#STIXGeneral-Regular-2e"/>
       <use transform="translate(74.999969 0.40625)" xlink:href="#STIXGeneral-Regular-1d7e6"/>
      </g>
     </g>
    </g>
    <g id="xtick_4">
     <g id="line2d_7">
      <g>
       <use style="stroke:#000000;stroke-width:0.8;" x="146.0592" xlink:href="#m2a6e6e0cc0" y="140.76"/>
      </g>
     </g>
     <g id="line2d_8">
      <g>
       <use style="stroke:#000000;stroke-width:0.8;" x="146.0592" xlink:href="#m81f9645fe5" y="3.312"/>
      </g>
     </g>
     <g id="text_4">
      <!-- $0.6$ -->
      <defs>
       <path d="M 44.796875 66.796875 
L 43 61.5 
Q 31.59375 60.703125 23.640625 54.953125 
Q 15.703125 49.203125 12.203125 38.796875 
Q 18.09375 43.09375 25.90625 43.09375 
Q 34.5 43.09375 40.75 37.296875 
Q 47 31.5 47 22 
Q 47 12.296875 40.953125 5.4375 
Q 34.90625 -1.40625 25.703125 -1.40625 
Q 18 -1.40625 12.75 2.640625 
Q 7.5 6.703125 5.34375 12.75 
Q 3.203125 18.796875 3.203125 26.40625 
Q 3.203125 34.90625 6.203125 43.046875 
Q 9.203125 51.203125 14.296875 56.203125 
Q 21 62.796875 27.09375 65.046875 
Q 33.203125 67.296875 44.703125 68.40625 
z
M 39 20.703125 
Q 39 27.90625 34.890625 31.953125 
Q 30.796875 36 25.09375 36 
Q 19.90625 36 16 32.953125 
Q 12.09375 29.90625 11.203125 24 
Q 11.203125 15.90625 15.203125 10.796875 
Q 19.203125 5.703125 26 5.703125 
Q 31.5 5.703125 35.25 9.953125 
Q 39 14.203125 39 20.703125 
z
" id="STIXGeneral-Regular-1d7e8"/>
      </defs>
      <g transform="translate(141.0592 150.33875)scale(0.08 -0.08)">
       <use transform="translate(0 0.59375)" xlink:href="#STIXGeneral-Regular-1d7e2"/>
       <use transform="translate(49.999985 0.59375)" xlink:href="#STIXGeneral-Regular-2e"/>
       <use transform="translate(74.999969 0.59375)" xlink:href="#STIXGeneral-Regular-1d7e8"/>
      </g>
     </g>
    </g>
    <g id="xtick_5">
     <g id="line2d_9">
      <g>
       <use style="stroke:#000000;stroke-width:0.8;" x="184.1616" xlink:href="#m2a6e6e0cc0" y="140.76"/>
      </g>
     </g>
     <g id="line2d_10">
      <g>
       <use style="stroke:#000000;stroke-width:0.8;" x="184.1616" xlink:href="#m81f9645fe5" y="3.312"/>
      </g>
     </g>
     <g id="text_5">
      <!-- $0.8$ -->
      <defs>
       <path d="M 44.703125 16.09375 
Q 44.703125 8.796875 39.390625 3.6875 
Q 34.09375 -1.40625 24.796875 -1.40625 
Q 16.296875 -1.40625 10.59375 3.4375 
Q 4.90625 8.296875 4.90625 15.40625 
Q 4.90625 20.796875 7.75 25.25 
Q 10.59375 29.703125 17.703125 34.5 
Q 6 41.40625 6 51.40625 
Q 6 58.59375 11.546875 63.09375 
Q 17.09375 67.59375 25.59375 67.59375 
Q 32.90625 67.59375 37.796875 62.84375 
Q 42.703125 58.09375 42.703125 52 
Q 42.703125 46.40625 40.09375 42.703125 
Q 37.5 39 31.09375 35.296875 
Q 44.703125 27 44.703125 16.09375 
z
M 35.5 51.5 
Q 35.5 55.5 32.390625 58 
Q 29.296875 60.5 24.40625 60.5 
Q 19.796875 60.5 16.84375 57.84375 
Q 13.90625 55.203125 13.90625 51.796875 
Q 13.90625 47.5 16.34375 44.84375 
Q 18.796875 42.203125 24.90625 39.40625 
Q 35.5 45.203125 35.5 51.5 
z
M 27.59375 28.59375 
L 24.09375 30.5 
Q 18.90625 28.703125 15.84375 24.640625 
Q 12.796875 20.59375 12.796875 16.296875 
Q 12.796875 11.796875 16 8.75 
Q 19.203125 5.703125 25.203125 5.703125 
Q 29.796875 5.703125 33.296875 8.453125 
Q 36.796875 11.203125 36.796875 15.796875 
Q 36.796875 20 34.6875 22.953125 
Q 32.59375 25.90625 27.59375 28.59375 
z
" id="STIXGeneral-Regular-1d7ea"/>
      </defs>
      <g transform="translate(179.1616 150.33875)scale(0.08 -0.08)">
       <use transform="translate(0 0.40625)" xlink:href="#STIXGeneral-Regular-1d7e2"/>
       <use transform="translate(49.999985 0.40625)" xlink:href="#STIXGeneral-Regular-2e"/>
       <use transform="translate(74.999969 0.40625)" xlink:href="#STIXGeneral-Regular-1d7ea"/>
      </g>
     </g>
    </g>
    <g id="xtick_6">
     <g id="line2d_11">
      <g>
       <use style="stroke:#000000;stroke-width:0.8;" x="222.264" xlink:href="#m2a6e6e0cc0" y="140.76"/>
      </g>
     </g>
     <g id="line2d_12">
      <g>
       <use style="stroke:#000000;stroke-width:0.8;" x="222.264" xlink:href="#m81f9645fe5" y="3.312"/>
      </g>
     </g>
     <g id="text_6">
      <!-- $1$ -->
      <defs>
       <path d="M 30.203125 0 
L 22.296875 0 
L 22.296875 57 
Q 20.09375 56 15.75 53.75 
Q 11.40625 51.5 10.796875 51.203125 
L 10.796875 58.5 
L 28.796875 67.703125 
L 30.203125 67.203125 
z
" id="STIXGeneral-Regular-1d7e3"/>
      </defs>
      <g transform="translate(220.264 150.33875)scale(0.08 -0.08)">
       <use transform="translate(0 0.296875)" xlink:href="#STIXGeneral-Regular-1d7e3"/>
      </g>
     </g>
    </g>
    <g id="xtick_7">
     <g id="line2d_13">
      <defs>
       <path d="M 0 0 
L 0 -1.5 
" id="m7f5da0bebd" style="stroke:#000000;stroke-width:0.6;"/>
      </defs>
      <g>
       <use style="stroke:#000000;stroke-width:0.6;" x="50.8032" xlink:href="#m7f5da0bebd" y="140.76"/>
      </g>
     </g>
     <g id="line2d_14">
      <defs>
       <path d="M 0 0 
L 0 1.5 
" id="maac955314d" style="stroke:#000000;stroke-width:0.6;"/>
      </defs>
      <g>
       <use style="stroke:#000000;stroke-width:0.6;" x="50.8032" xlink:href="#maac955314d" y="3.312"/>
      </g>
     </g>
    </g>
    <g id="xtick_8">
     <g id="line2d_15">
      <g>
       <use style="stroke:#000000;stroke-width:0.6;" x="88.9056" xlink:href="#m7f5da0bebd" y="140.76"/>
      </g>
     </g>
     <g id="line2d_16">
      <g>
       <use style="stroke:#000000;stroke-width:0.6;" x="88.9056" xlink:href="#maac955314d" y="3.312"/>
      </g>
     </g>
    </g>
    <g id="xtick_9">
     <g id="line2d_17">
      <g>
       <use style="stroke:#000000;stroke-width:0.6;" x="127.008" xlink:href="#m7f5da0bebd" y="140.76"/>
      </g>
     </g>
     <g id="line2d_18">
      <g>
       <use style="stroke:#000000;stroke-width:0.6;" x="127.008" xlink:href="#maac955314d" y="3.312"/>
      </g>
     </g>
    </g>
    <g id="xtick_10">
     <g id="line2d_19">
      <g>
       <use style="stroke:#000000;stroke-width:0.6;" x="165.1104" xlink:href="#m7f5da0bebd" y="140.76"/>
      </g>
     </g>
     <g id="line2d_20">
      <g>
       <use style="stroke:#000000;stroke-width:0.6;" x="165.1104" xlink:href="#maac955314d" y="3.312"/>
      </g>
     </g>
    </g>
    <g id="xtick_11">
     <g id="line2d_21">
      <g>
       <use style="stroke:#000000;stroke-width:0.6;" x="203.2128" xlink:href="#m7f5da0bebd" y="140.76"/>
      </g>
     </g>
     <g id="line2d_22">
      <g>
       <use style="stroke:#000000;stroke-width:0.6;" x="203.2128" xlink:href="#maac955314d" y="3.312"/>
      </g>
     </g>
    </g>
    <g id="text_7">
     <!-- $h/\mu$ -->
     <defs>
      <path d="M 31.09375 67.90625 
L 24.203125 40.5 
Q 28.59375 44 32.25 45.140625 
Q 35.90625 46.296875 40.5 46.296875 
Q 45.40625 46.296875 48.203125 43.796875 
Q 51 41.296875 51 36.59375 
Q 51 34.5 50.40625 32.09375 
L 42.40625 0 
L 34.5 0 
L 42 30.40625 
Q 42.5 32.59375 42.5 33.796875 
Q 42.5 39.203125 36 39.203125 
Q 33.09375 39.203125 28.640625 36.703125 
Q 24.203125 34.203125 21.703125 30.203125 
L 14.203125 0 
L 6.296875 0 
L 22.703125 66 
L 30.296875 68.40625 
z
" id="STIXGeneral-Italic-1d629"/>
      <path d="M 28.703125 67.59375 
L 5.90625 -1.40625 
L -0.90625 -1.40625 
L 22 67.59375 
z
" id="STIXGeneral-Regular-2f"/>
      <path d="M 53.59375 45.296875 
L 45.5 12.796875 
Q 45 11 45 9.703125 
Q 45 6.09375 49.703125 6.09375 
L 49.296875 4.703125 
L 45.59375 -1 
Q 39.40625 -1 37.5 2.09375 
Q 36.59375 3.5 36.59375 6.40625 
L 21.59375 -1 
Q 16 -1 14.09375 1.5 
L 10.59375 -12.59375 
Q 9.296875 -17.90625 6.796875 -21.5 
L -0.90625 -21.5 
Q 2 -17 3.09375 -12.703125 
L 17.5 45.296875 
L 25.40625 45.296875 
L 17.90625 14.90625 
Q 17.40625 12.703125 17.40625 11.40625 
Q 17.40625 6.09375 23.90625 6.09375 
Q 26.703125 6.09375 31.34375 9.046875 
Q 36 12 38.5 16.09375 
L 45.703125 45.296875 
z
" id="STIXNonUnicode-Italic-e1e3"/>
     </defs>
     <g transform="translate(121.688 161.985)scale(0.08 -0.08)">
      <use transform="translate(0 0.59375)" xlink:href="#STIXGeneral-Italic-1d629"/>
      <use transform="translate(48.699997 0.59375)" xlink:href="#STIXGeneral-Regular-2f"/>
      <use transform="translate(76.499985 0.59375)" xlink:href="#STIXNonUnicode-Italic-e1e3"/>
     </g>
    </g>
   </g>
   <g id="matplotlib.axis_2">
    <g id="ytick_1">
     <g id="line2d_23">
      <defs>
       <path d="M 0 0 
L 2.5 0 
" id="me8d25adfee" style="stroke:#000000;stroke-width:0.8;"/>
      </defs>
      <g>
       <use style="stroke:#000000;stroke-width:0.8;" x="31.752" xlink:href="#me8d25adfee" y="140.76"/>
      </g>
     </g>
     <g id="line2d_24">
      <defs>
       <path d="M 0 0 
L -2.5 0 
" id="mc33b45c04d" style="stroke:#000000;stroke-width:0.8;"/>
      </defs>
      <g>
       <use style="stroke:#000000;stroke-width:0.8;" x="222.264" xlink:href="#mc33b45c04d" y="140.76"/>
      </g>
     </g>
     <g id="text_8">
      <!-- $0$ -->
      <g transform="translate(24.252 143.799375)scale(0.08 -0.08)">
       <use transform="translate(0 0.40625)" xlink:href="#STIXGeneral-Regular-1d7e2"/>
      </g>
     </g>
    </g>
    <g id="ytick_2">
     <g id="line2d_25">
      <g>
       <use style="stroke:#000000;stroke-width:0.8;" x="31.752" xlink:href="#me8d25adfee" y="113.2704"/>
      </g>
     </g>
     <g id="line2d_26">
      <g>
       <use style="stroke:#000000;stroke-width:0.8;" x="222.264" xlink:href="#mc33b45c04d" y="113.2704"/>
      </g>
     </g>
     <g id="text_9">
      <!-- $0.15$ -->
      <defs>
       <path d="M 45.796875 67.59375 
L 42.59375 60.5 
L 24.90625 60.5 
L 18.5 47.796875 
Q 29.90625 46.203125 37.25 39.75 
Q 44.59375 33.296875 44.59375 22.59375 
Q 44.59375 12.703125 37.84375 5.640625 
Q 31.09375 -1.40625 21 -1.40625 
Q 10 -1.40625 3.59375 5.59375 
L 8.296875 11.203125 
Q 13.40625 5.703125 20.5 5.703125 
Q 27.90625 5.703125 32.296875 10.75 
Q 36.703125 15.796875 36.703125 22.59375 
Q 36.703125 30 30.09375 35.203125 
Q 23.40625 40.703125 9.40625 40.703125 
L 8 42.40625 
L 19.59375 67.59375 
z
" id="STIXGeneral-Regular-1d7e7"/>
      </defs>
      <g transform="translate(14.252 116.309775)scale(0.08 -0.08)">
       <use transform="translate(0 0.296875)" xlink:href="#STIXGeneral-Regular-1d7e2"/>
       <use transform="translate(49.999985 0.296875)" xlink:href="#STIXGeneral-Regular-2e"/>
       <use transform="translate(74.999969 0.296875)" xlink:href="#STIXGeneral-Regular-1d7e3"/>
       <use transform="translate(124.999954 0.296875)" xlink:href="#STIXGeneral-Regular-1d7e7"/>
      </g>
     </g>
    </g>
    <g id="ytick_3">
     <g id="line2d_27">
      <g>
       <use style="stroke:#000000;stroke-width:0.8;" x="31.752" xlink:href="#me8d25adfee" y="85.7808"/>
      </g>
     </g>
     <g id="line2d_28">
      <g>
       <use style="stroke:#000000;stroke-width:0.8;" x="222.264" xlink:href="#mc33b45c04d" y="85.7808"/>
      </g>
     </g>
     <g id="text_10">
      <!-- $0.3$ -->
      <defs>
       <path d="M 11.296875 49.203125 
L 4.203125 50.90625 
Q 6.40625 58.703125 11.5 63.140625 
Q 16.59375 67.59375 24.296875 67.59375 
Q 31.40625 67.59375 36.203125 63.09375 
Q 41 58.59375 41 51.90625 
Q 41 43 32.40625 37 
Q 38 35 41.046875 30.34375 
Q 44.09375 25.703125 44.09375 21 
Q 44.09375 11.296875 37.796875 5 
Q 31.40625 -1.40625 20.5 -1.40625 
Q 9.5 -1.40625 3.09375 5.59375 
L 7.796875 11.203125 
Q 12.90625 5.703125 20 5.703125 
Q 27.40625 5.703125 31.59375 9.296875 
Q 36.203125 13.203125 36.203125 19.09375 
Q 36.203125 24.296875 32.453125 27.796875 
Q 28.703125 31.296875 22.203125 32.203125 
L 15.796875 32.203125 
L 15.796875 34.296875 
L 20.59375 39.40625 
Q 25.09375 39.40625 29.09375 42.84375 
Q 33.09375 46.296875 33.09375 51.203125 
Q 33.09375 55.40625 30.4375 57.953125 
Q 27.796875 60.5 24 60.5 
Q 20 60.5 16.546875 57.640625 
Q 13.09375 54.796875 11.296875 49.203125 
z
" id="STIXGeneral-Regular-1d7e5"/>
      </defs>
      <g transform="translate(18.252 88.820175)scale(0.08 -0.08)">
       <use transform="translate(0 0.40625)" xlink:href="#STIXGeneral-Regular-1d7e2"/>
       <use transform="translate(49.999985 0.40625)" xlink:href="#STIXGeneral-Regular-2e"/>
       <use transform="translate(74.999969 0.40625)" xlink:href="#STIXGeneral-Regular-1d7e5"/>
      </g>
     </g>
    </g>
    <g id="ytick_4">
     <g id="line2d_29">
      <g>
       <use style="stroke:#000000;stroke-width:0.8;" x="31.752" xlink:href="#me8d25adfee" y="58.2912"/>
      </g>
     </g>
     <g id="line2d_30">
      <g>
       <use style="stroke:#000000;stroke-width:0.8;" x="222.264" xlink:href="#mc33b45c04d" y="58.2912"/>
      </g>
     </g>
     <g id="text_11">
      <!-- $0.45$ -->
      <g transform="translate(14.252 61.330575)scale(0.08 -0.08)">
       <use transform="translate(0 0.40625)" xlink:href="#STIXGeneral-Regular-1d7e2"/>
       <use transform="translate(49.999985 0.40625)" xlink:href="#STIXGeneral-Regular-2e"/>
       <use transform="translate(74.999969 0.40625)" xlink:href="#STIXGeneral-Regular-1d7e6"/>
       <use transform="translate(124.999954 0.40625)" xlink:href="#STIXGeneral-Regular-1d7e7"/>
      </g>
     </g>
    </g>
    <g id="ytick_5">
     <g id="line2d_31">
      <g>
       <use style="stroke:#000000;stroke-width:0.8;" x="31.752" xlink:href="#me8d25adfee" y="30.8016"/>
      </g>
     </g>
     <g id="line2d_32">
      <g>
       <use style="stroke:#000000;stroke-width:0.8;" x="222.264" xlink:href="#mc33b45c04d" y="30.8016"/>
      </g>
     </g>
     <g id="text_12">
      <!-- $0.6$ -->
      <g transform="translate(18.252 33.840975)scale(0.08 -0.08)">
       <use transform="translate(0 0.59375)" xlink:href="#STIXGeneral-Regular-1d7e2"/>
       <use transform="translate(49.999985 0.59375)" xlink:href="#STIXGeneral-Regular-2e"/>
       <use transform="translate(74.999969 0.59375)" xlink:href="#STIXGeneral-Regular-1d7e8"/>
      </g>
     </g>
    </g>
    <g id="ytick_6">
     <g id="line2d_33">
      <g>
       <use style="stroke:#000000;stroke-width:0.8;" x="31.752" xlink:href="#me8d25adfee" y="3.312"/>
      </g>
     </g>
     <g id="line2d_34">
      <g>
       <use style="stroke:#000000;stroke-width:0.8;" x="222.264" xlink:href="#mc33b45c04d" y="3.312"/>
      </g>
     </g>
     <g id="text_13">
      <!-- $0.75$ -->
      <defs>
       <path d="M 45.09375 64.203125 
L 23 -0.796875 
L 14.796875 -0.796875 
L 35.40625 59.09375 
L 3.796875 59.09375 
L 6.90625 66.203125 
L 45.09375 66.203125 
z
" id="STIXGeneral-Regular-1d7e9"/>
      </defs>
      <g transform="translate(14.252 6.351375)scale(0.08 -0.08)">
       <use transform="translate(0 0.40625)" xlink:href="#STIXGeneral-Regular-1d7e2"/>
       <use transform="translate(49.999985 0.40625)" xlink:href="#STIXGeneral-Regular-2e"/>
       <use transform="translate(74.999969 0.40625)" xlink:href="#STIXGeneral-Regular-1d7e9"/>
       <use transform="translate(124.999954 0.40625)" xlink:href="#STIXGeneral-Regular-1d7e7"/>
      </g>
     </g>
    </g>
    <g id="ytick_7">
     <g id="line2d_35">
      <defs>
       <path d="M 0 0 
L 1.5 0 
" id="mfa10651573" style="stroke:#000000;stroke-width:0.6;"/>
      </defs>
      <g>
       <use style="stroke:#000000;stroke-width:0.6;" x="31.752" xlink:href="#mfa10651573" y="127.0152"/>
      </g>
     </g>
     <g id="line2d_36">
      <defs>
       <path d="M 0 0 
L -1.5 0 
" id="m7c388fb8a6" style="stroke:#000000;stroke-width:0.6;"/>
      </defs>
      <g>
       <use style="stroke:#000000;stroke-width:0.6;" x="222.264" xlink:href="#m7c388fb8a6" y="127.0152"/>
      </g>
     </g>
    </g>
    <g id="ytick_8">
     <g id="line2d_37">
      <g>
       <use style="stroke:#000000;stroke-width:0.6;" x="31.752" xlink:href="#mfa10651573" y="99.5256"/>
      </g>
     </g>
     <g id="line2d_38">
      <g>
       <use style="stroke:#000000;stroke-width:0.6;" x="222.264" xlink:href="#m7c388fb8a6" y="99.5256"/>
      </g>
     </g>
    </g>
    <g id="ytick_9">
     <g id="line2d_39">
      <g>
       <use style="stroke:#000000;stroke-width:0.6;" x="31.752" xlink:href="#mfa10651573" y="72.036"/>
      </g>
     </g>
     <g id="line2d_40">
      <g>
       <use style="stroke:#000000;stroke-width:0.6;" x="222.264" xlink:href="#m7c388fb8a6" y="72.036"/>
      </g>
     </g>
    </g>
    <g id="ytick_10">
     <g id="line2d_41">
      <g>
       <use style="stroke:#000000;stroke-width:0.6;" x="31.752" xlink:href="#mfa10651573" y="44.5464"/>
      </g>
     </g>
     <g id="line2d_42">
      <g>
       <use style="stroke:#000000;stroke-width:0.6;" x="222.264" xlink:href="#m7c388fb8a6" y="44.5464"/>
      </g>
     </g>
    </g>
    <g id="ytick_11">
     <g id="line2d_43">
      <g>
       <use style="stroke:#000000;stroke-width:0.6;" x="31.752" xlink:href="#mfa10651573" y="17.0568"/>
      </g>
     </g>
     <g id="line2d_44">
      <g>
       <use style="stroke:#000000;stroke-width:0.6;" x="222.264" xlink:href="#m7c388fb8a6" y="17.0568"/>
      </g>
     </g>
    </g>
    <g id="text_14">
     <!-- $T/\mu$ -->
     <defs>
      <path d="M 74.796875 66.203125 
L 73.90625 58.796875 
L 49.40625 58.796875 
L 34.703125 0 
L 26 0 
L 40.59375 58.796875 
L 16.09375 58.796875 
L 19 66.203125 
z
" id="STIXGeneral-Italic-1d61b"/>
     </defs>
     <g transform="translate(8.492 77.836)rotate(-90)scale(0.08 -0.08)">
      <use transform="translate(0 0.40625)" xlink:href="#STIXGeneral-Italic-1d61b"/>
      <use transform="translate(60.799988 0.40625)" xlink:href="#STIXGeneral-Regular-2f"/>
      <use transform="translate(88.599976 0.40625)" xlink:href="#STIXNonUnicode-Italic-e1e3"/>
     </g>
    </g>
   </g>
   <g id="line2d_45">
    <path clip-path="url(#p10a289d666)" d="M 32.108145 47.010985 
L 34.030567 47.010985 
L 36.914034 47.105777 
L 40.950954 47.200568 
L 43.065452 47.29536 
L 46.141161 47.390152 
L 48.255825 47.390152 
L 50.946884 47.579735 
L 53.445867 47.674527 
L 55.752442 47.86411 
L 57.290213 47.958902 
L 59.981273 48.148486 
L 62.480089 48.338069 
L 65.171148 48.527652 
L 67.573679 48.812028 
L 70.168451 49.096403 
L 72.666936 49.47557 
L 73.627981 49.570361 
L 77.087843 49.854737 
L 78.625449 50.04432 
L 81.316177 50.423487 
L 82.853617 50.707862 
L 84.10286 50.897446 
L 86.505556 51.087029 
L 88.619557 51.466196 
L 89.676557 51.655779 
L 91.502361 51.940154 
L 95.346044 52.603697 
L 96.691243 52.888072 
L 98.228683 53.172447 
L 99.9582 53.551614 
L 101.207277 53.835989 
L 102.744717 54.120364 
L 103.609475 54.309948 
L 105.338992 54.689114 
L 106.876266 55.068281 
L 109.182344 55.54224 
L 111.296179 56.016199 
L 112.737333 56.395366 
L 116.004124 57.153699 
L 117.82943 57.72245 
L 120.327584 58.2912 
L 122.633165 59.049534 
L 124.650713 59.618284 
L 126.572141 60.187034 
L 128.397447 60.755785 
L 129.93439 61.324535 
L 131.951939 61.893286 
L 134.449595 62.746411 
L 136.851131 63.599537 
L 137.811679 63.978703 
L 139.348456 64.642246 
L 142.230266 65.684954 
L 144.535846 66.443288 
L 146.264866 67.10683 
L 147.41749 67.580789 
L 149.914816 68.623498 
L 152.027822 69.571415 
L 152.411975 69.760999 
L 154.332906 70.614124 
L 155.485364 71.182874 
L 157.982524 72.320375 
L 160.287607 73.363084 
L 161.055913 73.742251 
L 162.016295 74.21621 
L 163.360996 74.78496 
L 166.049901 76.206836 
L 167.010283 76.680794 
L 168.546895 77.439128 
L 171.427876 78.955796 
L 173.156398 79.903713 
L 176.1335 81.420381 
L 177.381914 82.083923 
L 178.72645 82.747465 
L 181.031201 83.979757 
L 183.143877 85.117258 
L 185.064475 86.159967 
L 187.84917 87.771426 
L 189.28966 88.52976 
L 191.40217 89.762052 
L 194.475061 91.468303 
L 196.779813 92.700596 
L 198.50817 93.743305 
L 201.196909 95.259972 
L 205.038272 97.250599 
L 207.150947 98.388099 
L 209.263623 99.5256 
L 211.568043 100.947476 
L 214.44919 102.369352 
L 217.042139 103.696436 
L 219.731209 105.02352 
L 221.363776 105.876646 
" style="fill:none;stroke:#000000;stroke-dasharray:1,1.65;stroke-dashoffset:0;"/>
   </g>
   <g id="line2d_46">
    <path clip-path="url(#p10a289d666)" d="M 31.976393 67.391206 
L 32.072514 67.391206 
L 34.763739 67.485997 
L 38.992901 67.580789 
L 41.491884 67.675581 
L 44.567593 67.770372 
L 46.874333 67.865164 
L 50.911088 68.054748 
L 53.79472 68.054748 
L 56.101295 68.244331 
L 59.368915 68.528706 
L 62.25205 68.813081 
L 66.288473 69.192248 
L 70.709546 69.476623 
L 73.977 69.85579 
L 77.629105 70.140166 
L 80.031635 70.424541 
L 83.971771 70.898499 
L 90.314105 71.846417 
L 96.079548 72.889126 
L 101.268429 73.837043 
L 106.649387 74.879752 
L 111.453453 76.017252 
L 114.33576 76.775586 
L 120.100871 78.007879 
L 125.865319 79.619338 
L 129.90025 80.85163 
L 132.974302 81.894339 
L 137.393387 83.316215 
L 140.659349 84.548508 
L 145.077936 86.254759 
L 149.88051 88.245385 
L 152.185594 89.288094 
L 157.179747 91.657887 
L 161.59734 93.932888 
L 164.094168 95.259972 
L 166.590665 96.77664 
L 170.335244 99.146433 
L 172.735123 100.947476 
L 174.846803 102.653727 
L 176.477547 104.549561 
" style="fill:none;stroke:#000000;stroke-linecap:square;"/>
   </g>
   <g id="line2d_47">
    <path clip-path="url(#p10a289d666)" d="M 32.086819 67.647021 
L 37.276513 67.651512 
L 39.285427 67.735677 
L 43.135845 67.821437 
L 46.149216 67.906472 
L 48.827768 68.073645 
L 51.171501 68.322956 
L 54.519691 68.490708 
L 57.533062 68.740599 
L 59.709385 68.907337 
L 63.057575 69.322372 
L 64.56426 69.488531 
L 68.414678 69.739146 
L 71.26064 70.071319 
L 73.771782 70.320775 
L 75.445877 70.651934 
L 77.957019 70.983817 
L 82.142257 71.482004 
L 86.662313 72.062908 
L 89.675684 72.560082 
L 93.526102 73.470117 
L 97.37652 74.215297 
L 99.720253 74.711891 
L 102.901033 75.291636 
L 106.249223 76.118809 
L 108.760366 76.780403 
L 110.936689 77.276852 
L 113.113012 77.855728 
L 114.619698 78.186742 
L 116.963431 78.848191 
L 122.487944 80.25424 
L 125.333905 81.080979 
L 128.012457 81.99 
L 130.858418 82.981594 
L 132.197694 83.559746 
L 135.880703 84.964202 
L 139.145188 86.203441 
L 140.735578 86.78181 
L 144.920815 88.269128 
L 147.264548 89.342715 
L 149.775691 90.498874 
L 152.119424 91.490033 
L 154.044633 92.398402 
L 156.304661 93.471917 
L 157.895051 94.297569 
L 159.569146 95.040866 
L 161.829174 96.279235 
L 165.344773 98.095684 
L 168.609258 100.076771 
L 171.538924 101.975141 
L 174.217476 103.955721 
L 176.477547 104.549561 
" style="fill:none;stroke:#808080;stroke-dasharray:3.7,1.6;stroke-dashoffset:0;"/>
   </g>
   <g id="line2d_48">
    <path clip-path="url(#p10a289d666)" d="M 176.669293 104.833937 
L 178.973216 106.540188 
L 180.60396 108.436022 
L 182.138417 110.426648 
L 183.4803 112.606858 
L 184.726063 114.787068 
L 185.875373 117.156861 
L 186.832109 119.716237 
L 187.693056 122.08603 
L 188.458047 124.361032 
L 189.22221 127.109992 
L 189.698506 129.574577 
L 190.174969 131.94437 
L 190.36257 134.598538 
L 190.550006 137.347498 
L 190.640659 140.475625 
" style="fill:none;stroke:#808080;stroke-dasharray:3.7,1.6;stroke-dashoffset:0;"/>
   </g>
   <g id="patch_3">
    <path d="M 31.752 140.76 
L 31.752 3.312 
" style="fill:none;stroke:#000000;stroke-linecap:square;stroke-linejoin:miter;stroke-width:0.8;"/>
   </g>
   <g id="patch_4">
    <path d="M 222.264 140.76 
L 222.264 3.312 
" style="fill:none;stroke:#000000;stroke-linecap:square;stroke-linejoin:miter;stroke-width:0.8;"/>
   </g>
   <g id="patch_5">
    <path d="M 31.752 140.76 
L 222.264 140.76 
" style="fill:none;stroke:#000000;stroke-linecap:square;stroke-linejoin:miter;stroke-width:0.8;"/>
   </g>
   <g id="patch_6">
    <path d="M 31.752 3.312 
L 222.264 3.312 
" style="fill:none;stroke:#000000;stroke-linecap:square;stroke-linejoin:miter;stroke-width:0.8;"/>
   </g>
   <g id="patch_7">
    <path d="M 126.961589 101.784462 
Q 135.669978 96.158238 143.439276 91.138733 
" style="fill:none;stroke:#db7502;stroke-linecap:round;"/>
    <path d="M 140.7722 91.433191 
L 143.439276 91.138733 
L 142.074597 93.449068 
L 140.7722 91.433191 
z
" style="fill:#db7502;stroke:#db7502;stroke-linecap:round;"/>
   </g>
   <g id="text_15">
    <!-- Sarma -->
    <defs>
     <path d="M 53.515625 70.515625 
L 53.515625 60.890625 
Q 47.90625 63.578125 42.921875 64.890625 
Q 37.9375 66.21875 33.296875 66.21875 
Q 25.25 66.21875 20.875 63.09375 
Q 16.5 59.96875 16.5 54.203125 
Q 16.5 49.359375 19.40625 46.890625 
Q 22.3125 44.4375 30.421875 42.921875 
L 36.375 41.703125 
Q 47.40625 39.59375 52.65625 34.296875 
Q 57.90625 29 57.90625 20.125 
Q 57.90625 9.515625 50.796875 4.046875 
Q 43.703125 -1.421875 29.984375 -1.421875 
Q 24.8125 -1.421875 18.96875 -0.25 
Q 13.140625 0.921875 6.890625 3.21875 
L 6.890625 13.375 
Q 12.890625 10.015625 18.65625 8.296875 
Q 24.421875 6.59375 29.984375 6.59375 
Q 38.421875 6.59375 43.015625 9.90625 
Q 47.609375 13.234375 47.609375 19.390625 
Q 47.609375 24.75 44.3125 27.78125 
Q 41.015625 30.8125 33.5 32.328125 
L 27.484375 33.5 
Q 16.453125 35.6875 11.515625 40.375 
Q 6.59375 45.0625 6.59375 53.421875 
Q 6.59375 63.09375 13.40625 68.65625 
Q 20.21875 74.21875 32.171875 74.21875 
Q 37.3125 74.21875 42.625 73.28125 
Q 47.953125 72.359375 53.515625 70.515625 
z
" id="DejaVuSans-53"/>
     <path d="M 34.28125 27.484375 
Q 23.390625 27.484375 19.1875 25 
Q 14.984375 22.515625 14.984375 16.5 
Q 14.984375 11.71875 18.140625 8.90625 
Q 21.296875 6.109375 26.703125 6.109375 
Q 34.1875 6.109375 38.703125 11.40625 
Q 43.21875 16.703125 43.21875 25.484375 
L 43.21875 27.484375 
z
M 52.203125 31.203125 
L 52.203125 0 
L 43.21875 0 
L 43.21875 8.296875 
Q 40.140625 3.328125 35.546875 0.953125 
Q 30.953125 -1.421875 24.3125 -1.421875 
Q 15.921875 -1.421875 10.953125 3.296875 
Q 6 8.015625 6 15.921875 
Q 6 25.140625 12.171875 29.828125 
Q 18.359375 34.515625 30.609375 34.515625 
L 43.21875 34.515625 
L 43.21875 35.40625 
Q 43.21875 41.609375 39.140625 45 
Q 35.0625 48.390625 27.6875 48.390625 
Q 23 48.390625 18.546875 47.265625 
Q 14.109375 46.140625 10.015625 43.890625 
L 10.015625 52.203125 
Q 14.9375 54.109375 19.578125 55.046875 
Q 24.21875 56 28.609375 56 
Q 40.484375 56 46.34375 49.84375 
Q 52.203125 43.703125 52.203125 31.203125 
z
" id="DejaVuSans-61"/>
     <path d="M 41.109375 46.296875 
Q 39.59375 47.171875 37.8125 47.578125 
Q 36.03125 48 33.890625 48 
Q 26.265625 48 22.1875 43.046875 
Q 18.109375 38.09375 18.109375 28.8125 
L 18.109375 0 
L 9.078125 0 
L 9.078125 54.6875 
L 18.109375 54.6875 
L 18.109375 46.1875 
Q 20.953125 51.171875 25.484375 53.578125 
Q 30.03125 56 36.53125 56 
Q 37.453125 56 38.578125 55.875 
Q 39.703125 55.765625 41.0625 55.515625 
z
" id="DejaVuSans-72"/>
     <path d="M 52 44.1875 
Q 55.375 50.25 60.0625 53.125 
Q 64.75 56 71.09375 56 
Q 79.640625 56 84.28125 50.015625 
Q 88.921875 44.046875 88.921875 33.015625 
L 88.921875 0 
L 79.890625 0 
L 79.890625 32.71875 
Q 79.890625 40.578125 77.09375 44.375 
Q 74.3125 48.1875 68.609375 48.1875 
Q 61.625 48.1875 57.5625 43.546875 
Q 53.515625 38.921875 53.515625 30.90625 
L 53.515625 0 
L 44.484375 0 
L 44.484375 32.71875 
Q 44.484375 40.625 41.703125 44.40625 
Q 38.921875 48.1875 33.109375 48.1875 
Q 26.21875 48.1875 22.15625 43.53125 
Q 18.109375 38.875 18.109375 30.90625 
L 18.109375 0 
L 9.078125 0 
L 9.078125 54.6875 
L 18.109375 54.6875 
L 18.109375 46.1875 
Q 21.1875 51.21875 25.484375 53.609375 
Q 29.78125 56 35.6875 56 
Q 41.65625 56 45.828125 52.96875 
Q 50 49.953125 52 44.1875 
z
" id="DejaVuSans-6d"/>
    </defs>
    <g style="fill:#db7502;" transform="translate(107.9568 109.428105)scale(0.06 -0.06)">
     <use xlink:href="#DejaVuSans-53"/>
     <use x="63.476562" xlink:href="#DejaVuSans-61"/>
     <use x="124.755859" xlink:href="#DejaVuSans-72"/>
     <use x="165.853516" xlink:href="#DejaVuSans-6d"/>
     <use x="263.265625" xlink:href="#DejaVuSans-61"/>
    </g>
   </g>
   <g id="text_16">
    <!-- $2^{\mathrm{nd}}$ order transition -->
    <defs>
     <path d="M 42.40625 0 
L 34.5 0 
L 34.5 30.40625 
Q 34.5 39.203125 26.296875 39.203125 
Q 23.40625 39.203125 19.5 36.703125 
Q 15.59375 34.203125 14.203125 30.203125 
L 14.203125 0 
L 6.296875 0 
L 6.296875 44 
L 12.796875 46.40625 
L 13.703125 45.90625 
L 13.90625 40.203125 
Q 17.59375 43.796875 21.046875 45.046875 
Q 24.5 46.296875 29 46.296875 
Q 31.90625 46.296875 34.90625 44.9375 
Q 37.90625 43.59375 39.703125 41.796875 
Q 42.40625 38.203125 42.40625 32.09375 
z
" id="STIXGeneral-Regular-1d5c7"/>
     <path d="M 43.703125 1.296875 
L 36.5 -1.09375 
L 35.59375 -0.59375 
L 35.40625 4.40625 
Q 29.796875 -1 21.703125 -1 
Q 16.5 -1 12.59375 1.296875 
Q 8.296875 3.90625 5.546875 9.203125 
Q 2.796875 14.5 2.796875 20.90625 
Q 2.796875 31.5 9.140625 38.890625 
Q 15.5 46.296875 24.5 46.296875 
Q 30.09375 46.296875 35.203125 42.59375 
L 35.203125 66 
L 42.203125 68.40625 
L 43.09375 67.90625 
L 43.09375 12.796875 
Q 43.09375 6.203125 43.703125 1.296875 
z
M 35.203125 15.796875 
L 35.203125 32.90625 
Q 30.90625 39.203125 24.90625 39.203125 
Q 19.40625 39.203125 15.046875 34.390625 
Q 10.703125 29.59375 10.703125 22.203125 
Q 10.703125 17.90625 12.203125 14.15625 
Q 13.703125 10.40625 16.296875 8.5 
Q 19.5 6.09375 23.703125 6.09375 
Q 27.203125 6.09375 30.390625 8.75 
Q 33.59375 11.40625 35.203125 15.796875 
z
" id="STIXGeneral-Regular-1d5bd"/>
     <path id="DejaVuSans-20"/>
     <path d="M 30.609375 48.390625 
Q 23.390625 48.390625 19.1875 42.75 
Q 14.984375 37.109375 14.984375 27.296875 
Q 14.984375 17.484375 19.15625 11.84375 
Q 23.34375 6.203125 30.609375 6.203125 
Q 37.796875 6.203125 41.984375 11.859375 
Q 46.1875 17.53125 46.1875 27.296875 
Q 46.1875 37.015625 41.984375 42.703125 
Q 37.796875 48.390625 30.609375 48.390625 
z
M 30.609375 56 
Q 42.328125 56 49.015625 48.375 
Q 55.71875 40.765625 55.71875 27.296875 
Q 55.71875 13.875 49.015625 6.21875 
Q 42.328125 -1.421875 30.609375 -1.421875 
Q 18.84375 -1.421875 12.171875 6.21875 
Q 5.515625 13.875 5.515625 27.296875 
Q 5.515625 40.765625 12.171875 48.375 
Q 18.84375 56 30.609375 56 
z
" id="DejaVuSans-6f"/>
     <path d="M 45.40625 46.390625 
L 45.40625 75.984375 
L 54.390625 75.984375 
L 54.390625 0 
L 45.40625 0 
L 45.40625 8.203125 
Q 42.578125 3.328125 38.25 0.953125 
Q 33.9375 -1.421875 27.875 -1.421875 
Q 17.96875 -1.421875 11.734375 6.484375 
Q 5.515625 14.40625 5.515625 27.296875 
Q 5.515625 40.1875 11.734375 48.09375 
Q 17.96875 56 27.875 56 
Q 33.9375 56 38.25 53.625 
Q 42.578125 51.265625 45.40625 46.390625 
z
M 14.796875 27.296875 
Q 14.796875 17.390625 18.875 11.75 
Q 22.953125 6.109375 30.078125 6.109375 
Q 37.203125 6.109375 41.296875 11.75 
Q 45.40625 17.390625 45.40625 27.296875 
Q 45.40625 37.203125 41.296875 42.84375 
Q 37.203125 48.484375 30.078125 48.484375 
Q 22.953125 48.484375 18.875 42.84375 
Q 14.796875 37.203125 14.796875 27.296875 
z
" id="DejaVuSans-64"/>
     <path d="M 56.203125 29.59375 
L 56.203125 25.203125 
L 14.890625 25.203125 
Q 15.484375 15.921875 20.484375 11.0625 
Q 25.484375 6.203125 34.421875 6.203125 
Q 39.59375 6.203125 44.453125 7.46875 
Q 49.3125 8.734375 54.109375 11.28125 
L 54.109375 2.78125 
Q 49.265625 0.734375 44.1875 -0.34375 
Q 39.109375 -1.421875 33.890625 -1.421875 
Q 20.796875 -1.421875 13.15625 6.1875 
Q 5.515625 13.8125 5.515625 26.8125 
Q 5.515625 40.234375 12.765625 48.109375 
Q 20.015625 56 32.328125 56 
Q 43.359375 56 49.78125 48.890625 
Q 56.203125 41.796875 56.203125 29.59375 
z
M 47.21875 32.234375 
Q 47.125 39.59375 43.09375 43.984375 
Q 39.0625 48.390625 32.421875 48.390625 
Q 24.90625 48.390625 20.390625 44.140625 
Q 15.875 39.890625 15.1875 32.171875 
z
" id="DejaVuSans-65"/>
     <path d="M 18.3125 70.21875 
L 18.3125 54.6875 
L 36.8125 54.6875 
L 36.8125 47.703125 
L 18.3125 47.703125 
L 18.3125 18.015625 
Q 18.3125 11.328125 20.140625 9.421875 
Q 21.96875 7.515625 27.59375 7.515625 
L 36.8125 7.515625 
L 36.8125 0 
L 27.59375 0 
Q 17.1875 0 13.234375 3.875 
Q 9.28125 7.765625 9.28125 18.015625 
L 9.28125 47.703125 
L 2.6875 47.703125 
L 2.6875 54.6875 
L 9.28125 54.6875 
L 9.28125 70.21875 
z
" id="DejaVuSans-74"/>
     <path d="M 54.890625 33.015625 
L 54.890625 0 
L 45.90625 0 
L 45.90625 32.71875 
Q 45.90625 40.484375 42.875 44.328125 
Q 39.84375 48.1875 33.796875 48.1875 
Q 26.515625 48.1875 22.3125 43.546875 
Q 18.109375 38.921875 18.109375 30.90625 
L 18.109375 0 
L 9.078125 0 
L 9.078125 54.6875 
L 18.109375 54.6875 
L 18.109375 46.1875 
Q 21.34375 51.125 25.703125 53.5625 
Q 30.078125 56 35.796875 56 
Q 45.21875 56 50.046875 50.171875 
Q 54.890625 44.34375 54.890625 33.015625 
z
" id="DejaVuSans-6e"/>
     <path d="M 44.28125 53.078125 
L 44.28125 44.578125 
Q 40.484375 46.53125 36.375 47.5 
Q 32.28125 48.484375 27.875 48.484375 
Q 21.1875 48.484375 17.84375 46.4375 
Q 14.5 44.390625 14.5 40.28125 
Q 14.5 37.15625 16.890625 35.375 
Q 19.28125 33.59375 26.515625 31.984375 
L 29.59375 31.296875 
Q 39.15625 29.25 43.1875 25.515625 
Q 47.21875 21.78125 47.21875 15.09375 
Q 47.21875 7.46875 41.1875 3.015625 
Q 35.15625 -1.421875 24.609375 -1.421875 
Q 20.21875 -1.421875 15.453125 -0.5625 
Q 10.6875 0.296875 5.421875 2 
L 5.421875 11.28125 
Q 10.40625 8.6875 15.234375 7.390625 
Q 20.0625 6.109375 24.8125 6.109375 
Q 31.15625 6.109375 34.5625 8.28125 
Q 37.984375 10.453125 37.984375 14.40625 
Q 37.984375 18.0625 35.515625 20.015625 
Q 33.0625 21.96875 24.703125 23.78125 
L 21.578125 24.515625 
Q 13.234375 26.265625 9.515625 29.90625 
Q 5.8125 33.546875 5.8125 39.890625 
Q 5.8125 47.609375 11.28125 51.796875 
Q 16.75 56 26.8125 56 
Q 31.78125 56 36.171875 55.265625 
Q 40.578125 54.546875 44.28125 53.078125 
z
" id="DejaVuSans-73"/>
     <path d="M 9.421875 54.6875 
L 18.40625 54.6875 
L 18.40625 0 
L 9.421875 0 
z
M 9.421875 75.984375 
L 18.40625 75.984375 
L 18.40625 64.59375 
L 9.421875 64.59375 
z
" id="DejaVuSans-69"/>
    </defs>
    <g transform="translate(43.18272 85.7808)scale(0.06 -0.06)">
     <use transform="translate(0 0.878125)" xlink:href="#STIXGeneral-Regular-1d7e4"/>
     <use transform="translate(50.79268 37.115625)scale(0.7)" xlink:href="#STIXGeneral-Regular-1d5c7"/>
     <use transform="translate(84.882678 37.115625)scale(0.7)" xlink:href="#STIXGeneral-Regular-1d5bd"/>
     <use transform="translate(121.727517 0.878125)" xlink:href="#DejaVuSans-20"/>
     <use transform="translate(153.514627 0.878125)" xlink:href="#DejaVuSans-6f"/>
     <use transform="translate(214.696267 0.878125)" xlink:href="#DejaVuSans-72"/>
     <use transform="translate(255.809549 0.878125)" xlink:href="#DejaVuSans-64"/>
     <use transform="translate(319.286111 0.878125)" xlink:href="#DejaVuSans-65"/>
     <use transform="translate(380.809549 0.878125)" xlink:href="#DejaVuSans-72"/>
     <use transform="translate(421.92283 0.878125)" xlink:href="#DejaVuSans-20"/>
     <use transform="translate(453.709939 0.878125)" xlink:href="#DejaVuSans-74"/>
     <use transform="translate(492.918924 0.878125)" xlink:href="#DejaVuSans-72"/>
     <use transform="translate(534.032205 0.878125)" xlink:href="#DejaVuSans-61"/>
     <use transform="translate(595.311502 0.878125)" xlink:href="#DejaVuSans-6e"/>
     <use transform="translate(658.690408 0.878125)" xlink:href="#DejaVuSans-73"/>
     <use transform="translate(710.790017 0.878125)" xlink:href="#DejaVuSans-69"/>
     <use transform="translate(738.573221 0.878125)" xlink:href="#DejaVuSans-74"/>
     <use transform="translate(777.782205 0.878125)" xlink:href="#DejaVuSans-69"/>
     <use transform="translate(805.565408 0.878125)" xlink:href="#DejaVuSans-6f"/>
     <use transform="translate(866.747049 0.878125)" xlink:href="#DejaVuSans-6e"/>
    </g>
   </g>
   <g id="text_17">
    <!-- $1^{\mathrm{st}}$ order transition -->
    <defs>
     <path d="M 33 32.09375 
L 31.5 32.09375 
Q 28.703125 36.5 25.890625 37.890625 
Q 23.09375 39.296875 19.203125 39.296875 
Q 16 39.296875 14.390625 37.6875 
Q 12.796875 36.09375 12.796875 34.203125 
Q 12.796875 31.703125 14.890625 29.953125 
Q 17 28.203125 21.203125 26.5 
Q 29.5 23 32.25 20.09375 
Q 35 17.203125 35 11.796875 
Q 35 5.203125 28.90625 1.40625 
Q 25.09375 -1 18.90625 -1 
Q 14.40625 -1 11.34375 0.296875 
Q 8.296875 1.59375 5 4.5 
L 5 14.796875 
L 6.5 14.796875 
Q 10.40625 6.09375 19.5 6.09375 
Q 22.703125 6.09375 24.890625 7.546875 
Q 27.09375 9 27.09375 11.796875 
Q 27.09375 13.796875 25.25 15.25 
Q 23.40625 16.703125 18.5 18.90625 
Q 10.90625 22.296875 7.90625 25.59375 
Q 4.90625 28.90625 4.90625 33.796875 
Q 4.90625 39 8.90625 42.640625 
Q 12.90625 46.296875 19.40625 46.296875 
Q 28 46.296875 33 41 
z
" id="STIXGeneral-Regular-1d5cc"/>
     <path d="M 28.703125 8.703125 
L 27.59375 1.203125 
Q 24.703125 -1 18.796875 -1 
Q 13.703125 -1 10.890625 2.046875 
Q 8.09375 5.09375 8.09375 10.40625 
L 8.09375 38.203125 
L 0.09375 38.203125 
L 0.09375 39.90625 
L 4.59375 45.296875 
L 8.09375 45.296875 
L 8.09375 51.703125 
L 14.203125 58 
L 16 58 
L 16 45.296875 
L 26.40625 45.296875 
L 26.40625 38.203125 
L 16 38.203125 
L 16 13.703125 
Q 16 9.296875 17.296875 7.6875 
Q 18.59375 6.09375 21.09375 6.09375 
Q 24.796875 6.09375 27.5 8.703125 
z
" id="STIXGeneral-Regular-1d5cd"/>
    </defs>
    <g style="fill:#808080;" transform="translate(127.008 131.5968)scale(0.06 -0.06)">
     <use transform="translate(0 0.1625)" xlink:href="#STIXGeneral-Regular-1d7e3"/>
     <use transform="translate(50.79268 36.4)scale(0.7)" xlink:href="#STIXGeneral-Regular-1d5cc"/>
     <use transform="translate(78.022676 36.4)scale(0.7)" xlink:href="#STIXGeneral-Regular-1d5cd"/>
     <use transform="translate(100.657513 0.1625)" xlink:href="#DejaVuSans-20"/>
     <use transform="translate(132.444622 0.1625)" xlink:href="#DejaVuSans-6f"/>
     <use transform="translate(193.626263 0.1625)" xlink:href="#DejaVuSans-72"/>
     <use transform="translate(234.739544 0.1625)" xlink:href="#DejaVuSans-64"/>
     <use transform="translate(298.216107 0.1625)" xlink:href="#DejaVuSans-65"/>
     <use transform="translate(359.739544 0.1625)" xlink:href="#DejaVuSans-72"/>
     <use transform="translate(400.852826 0.1625)" xlink:href="#DejaVuSans-20"/>
     <use transform="translate(432.639935 0.1625)" xlink:href="#DejaVuSans-74"/>
     <use transform="translate(471.848919 0.1625)" xlink:href="#DejaVuSans-72"/>
     <use transform="translate(512.962201 0.1625)" xlink:href="#DejaVuSans-61"/>
     <use transform="translate(574.241497 0.1625)" xlink:href="#DejaVuSans-6e"/>
     <use transform="translate(637.620404 0.1625)" xlink:href="#DejaVuSans-73"/>
     <use transform="translate(689.720013 0.1625)" xlink:href="#DejaVuSans-69"/>
     <use transform="translate(717.503216 0.1625)" xlink:href="#DejaVuSans-74"/>
     <use transform="translate(756.712201 0.1625)" xlink:href="#DejaVuSans-69"/>
     <use transform="translate(784.495404 0.1625)" xlink:href="#DejaVuSans-6f"/>
     <use transform="translate(845.677044 0.1625)" xlink:href="#DejaVuSans-6e"/>
    </g>
   </g>
   <g id="LineCollection_1">
    <path d="M 31.752 87.61344 
L 31.752 76.6176 
" style="fill:none;stroke:#5fad41;"/>
   </g>
   <g id="LineCollection_2">
    <path d="M 193.6872 140.76 
L 204.355872 140.76 
" style="fill:none;stroke:#5fad41;"/>
   </g>
   <g id="line2d_49">
    <defs>
     <path d="M 2 0 
L -2 -0 
" id="m8078b7c3eb" style="stroke:#5fad41;stroke-width:0.75;"/>
    </defs>
    <g>
     <use style="fill:#5fad41;stroke:#5fad41;stroke-width:0.75;" x="31.752" xlink:href="#m8078b7c3eb" y="87.61344"/>
    </g>
   </g>
   <g id="line2d_50">
    <g>
     <use style="fill:#5fad41;stroke:#5fad41;stroke-width:0.75;" x="31.752" xlink:href="#m8078b7c3eb" y="76.6176"/>
    </g>
   </g>
   <g id="line2d_51">
    <defs>
     <path d="M 0 2 
L 0 -2 
" id="mf4ee8dc3e9" style="stroke:#5fad41;stroke-width:0.75;"/>
    </defs>
    <g>
     <use style="fill:#5fad41;stroke:#5fad41;stroke-width:0.75;" x="193.6872" xlink:href="#mf4ee8dc3e9" y="140.76"/>
    </g>
   </g>
   <g id="line2d_52">
    <g>
     <use style="fill:#5fad41;stroke:#5fad41;stroke-width:0.75;" x="204.355872" xlink:href="#mf4ee8dc3e9" y="140.76"/>
    </g>
   </g>
   <g id="text_18">
    <!-- normal -->
    <defs>
     <path d="M 9.421875 75.984375 
L 18.40625 75.984375 
L 18.40625 0 
L 9.421875 0 
z
" id="DejaVuSans-6c"/>
    </defs>
    <g style="fill:#4a5b1c;" transform="translate(174.636 21.6384)scale(0.07 -0.07)">
     <use xlink:href="#DejaVuSans-6e"/>
     <use x="63.378906" xlink:href="#DejaVuSans-6f"/>
     <use x="124.560547" xlink:href="#DejaVuSans-72"/>
     <use x="165.658203" xlink:href="#DejaVuSans-6d"/>
     <use x="263.070312" xlink:href="#DejaVuSans-61"/>
     <use x="324.349609" xlink:href="#DejaVuSans-6c"/>
    </g>
   </g>
   <g id="text_19">
    <!-- superfluid -->
    <defs>
     <path d="M 8.5 21.578125 
L 8.5 54.6875 
L 17.484375 54.6875 
L 17.484375 21.921875 
Q 17.484375 14.15625 20.5 10.265625 
Q 23.53125 6.390625 29.59375 6.390625 
Q 36.859375 6.390625 41.078125 11.03125 
Q 45.3125 15.671875 45.3125 23.6875 
L 45.3125 54.6875 
L 54.296875 54.6875 
L 54.296875 0 
L 45.3125 0 
L 45.3125 8.40625 
Q 42.046875 3.421875 37.71875 1 
Q 33.40625 -1.421875 27.6875 -1.421875 
Q 18.265625 -1.421875 13.375 4.4375 
Q 8.5 10.296875 8.5 21.578125 
z
M 31.109375 56 
z
" id="DejaVuSans-75"/>
     <path d="M 18.109375 8.203125 
L 18.109375 -20.796875 
L 9.078125 -20.796875 
L 9.078125 54.6875 
L 18.109375 54.6875 
L 18.109375 46.390625 
Q 20.953125 51.265625 25.265625 53.625 
Q 29.59375 56 35.59375 56 
Q 45.5625 56 51.78125 48.09375 
Q 58.015625 40.1875 58.015625 27.296875 
Q 58.015625 14.40625 51.78125 6.484375 
Q 45.5625 -1.421875 35.59375 -1.421875 
Q 29.59375 -1.421875 25.265625 0.953125 
Q 20.953125 3.328125 18.109375 8.203125 
z
M 48.6875 27.296875 
Q 48.6875 37.203125 44.609375 42.84375 
Q 40.53125 48.484375 33.40625 48.484375 
Q 26.265625 48.484375 22.1875 42.84375 
Q 18.109375 37.203125 18.109375 27.296875 
Q 18.109375 17.390625 22.1875 11.75 
Q 26.265625 6.109375 33.40625 6.109375 
Q 40.53125 6.109375 44.609375 11.75 
Q 48.6875 17.390625 48.6875 27.296875 
z
" id="DejaVuSans-70"/>
     <path d="M 37.109375 75.984375 
L 37.109375 68.5 
L 28.515625 68.5 
Q 23.6875 68.5 21.796875 66.546875 
Q 19.921875 64.59375 19.921875 59.515625 
L 19.921875 54.6875 
L 34.71875 54.6875 
L 34.71875 47.703125 
L 19.921875 47.703125 
L 19.921875 0 
L 10.890625 0 
L 10.890625 47.703125 
L 2.296875 47.703125 
L 2.296875 54.6875 
L 10.890625 54.6875 
L 10.890625 58.5 
Q 10.890625 67.625 15.140625 71.796875 
Q 19.390625 75.984375 28.609375 75.984375 
z
" id="DejaVuSans-66"/>
    </defs>
    <g style="fill:#272473;" transform="translate(45.08784 130.68048)scale(0.07 -0.07)">
     <use xlink:href="#DejaVuSans-73"/>
     <use x="52.099609" xlink:href="#DejaVuSans-75"/>
     <use x="115.478516" xlink:href="#DejaVuSans-70"/>
     <use x="178.955078" xlink:href="#DejaVuSans-65"/>
     <use x="240.478516" xlink:href="#DejaVuSans-72"/>
     <use x="281.591797" xlink:href="#DejaVuSans-66"/>
     <use x="316.796875" xlink:href="#DejaVuSans-6c"/>
     <use x="344.580078" xlink:href="#DejaVuSans-75"/>
     <use x="407.958984" xlink:href="#DejaVuSans-69"/>
     <use x="435.742188" xlink:href="#DejaVuSans-64"/>
    </g>
   </g>
   <g id="text_20">
    <!-- pseudogap? -->
    <defs>
     <path d="M 45.40625 27.984375 
Q 45.40625 37.75 41.375 43.109375 
Q 37.359375 48.484375 30.078125 48.484375 
Q 22.859375 48.484375 18.828125 43.109375 
Q 14.796875 37.75 14.796875 27.984375 
Q 14.796875 18.265625 18.828125 12.890625 
Q 22.859375 7.515625 30.078125 7.515625 
Q 37.359375 7.515625 41.375 12.890625 
Q 45.40625 18.265625 45.40625 27.984375 
z
M 54.390625 6.78125 
Q 54.390625 -7.171875 48.1875 -13.984375 
Q 42 -20.796875 29.203125 -20.796875 
Q 24.46875 -20.796875 20.265625 -20.09375 
Q 16.0625 -19.390625 12.109375 -17.921875 
L 12.109375 -9.1875 
Q 16.0625 -11.328125 19.921875 -12.34375 
Q 23.78125 -13.375 27.78125 -13.375 
Q 36.625 -13.375 41.015625 -8.765625 
Q 45.40625 -4.15625 45.40625 5.171875 
L 45.40625 9.625 
Q 42.625 4.78125 38.28125 2.390625 
Q 33.9375 0 27.875 0 
Q 17.828125 0 11.671875 7.65625 
Q 5.515625 15.328125 5.515625 27.984375 
Q 5.515625 40.671875 11.671875 48.328125 
Q 17.828125 56 27.875 56 
Q 33.9375 56 38.28125 53.609375 
Q 42.625 51.21875 45.40625 46.390625 
L 45.40625 54.6875 
L 54.390625 54.6875 
z
" id="DejaVuSans-67"/>
     <path d="M 19.09375 12.40625 
L 29 12.40625 
L 29 0 
L 19.09375 0 
z
M 28.71875 19.578125 
L 19.390625 19.578125 
L 19.390625 27.09375 
Q 19.390625 32.03125 20.75 35.203125 
Q 22.125 38.375 26.515625 42.578125 
L 30.90625 46.921875 
Q 33.6875 49.515625 34.9375 51.8125 
Q 36.1875 54.109375 36.1875 56.5 
Q 36.1875 60.84375 32.984375 63.53125 
Q 29.78125 66.21875 24.515625 66.21875 
Q 20.65625 66.21875 16.28125 64.5 
Q 11.921875 62.796875 7.171875 59.515625 
L 7.171875 68.703125 
Q 11.765625 71.484375 16.46875 72.84375 
Q 21.1875 74.21875 26.21875 74.21875 
Q 35.203125 74.21875 40.640625 69.484375 
Q 46.09375 64.75 46.09375 56.984375 
Q 46.09375 53.265625 44.328125 49.921875 
Q 42.578125 46.578125 38.1875 42.390625 
L 33.890625 38.1875 
Q 31.59375 35.890625 30.640625 34.59375 
Q 29.6875 33.296875 29.296875 32.078125 
Q 29 31.0625 28.859375 29.59375 
Q 28.71875 28.125 28.71875 25.59375 
z
" id="DejaVuSans-3f"/>
    </defs>
    <g style="fill:#808080;" transform="translate(108.28428 69.150717)rotate(-347)scale(0.07 -0.07)">
     <use xlink:href="#DejaVuSans-70"/>
     <use x="63.476562" xlink:href="#DejaVuSans-73"/>
     <use x="115.576172" xlink:href="#DejaVuSans-65"/>
     <use x="177.099609" xlink:href="#DejaVuSans-75"/>
     <use x="240.478516" xlink:href="#DejaVuSans-64"/>
     <use x="303.955078" xlink:href="#DejaVuSans-6f"/>
     <use x="365.136719" xlink:href="#DejaVuSans-67"/>
     <use x="428.613281" xlink:href="#DejaVuSans-61"/>
     <use x="489.892578" xlink:href="#DejaVuSans-70"/>
     <use x="553.369141" xlink:href="#DejaVuSans-3f"/>
    </g>
   </g>
   <g id="line2d_53">
    <defs>
     <path d="M 1.5 0 
L -1.5 -1.5 
L -1.5 1.5 
z
" id="m462d0b92f7" style="stroke:#a42604;stroke-linejoin:miter;stroke-width:0.75;"/>
    </defs>
    <g>
     <use style="fill:#f94515;stroke:#a42604;stroke-linejoin:miter;stroke-width:0.75;" x="31.752" xlink:href="#m462d0b92f7" y="67.4544"/>
    </g>
   </g>
   <g id="line2d_54">
    <defs>
     <path d="M 1.5 0 
L -1.5 -1.5 
L -1.5 1.5 
z
" id="mf2c8e74b81" style="stroke:#5fad41;stroke-linejoin:miter;stroke-width:0.75;"/>
    </defs>
    <g>
     <use style="fill:#adda9c;stroke:#5fad41;stroke-linejoin:miter;stroke-width:0.75;" x="31.752" xlink:href="#mf2c8e74b81" y="82.11552"/>
    </g>
   </g>
   <g id="line2d_55">
    <defs>
     <path d="M 1.5 0 
L -1.5 -1.5 
L -1.5 1.5 
z
" id="mf4834b6971" style="stroke:#fa9f42;stroke-linejoin:miter;stroke-width:0.75;"/>
    </defs>
    <g>
     <use style="fill:#fbb874;stroke:#fa9f42;stroke-linejoin:miter;stroke-width:0.75;" x="31.752" xlink:href="#mf4834b6971" y="71.603774"/>
    </g>
   </g>
   <g id="line2d_56">
    <defs>
     <path d="M 0 -1.5 
L -1.5 1.5 
L 1.5 1.5 
z
" id="mcecaf05887" style="stroke:#0d153a;stroke-linejoin:miter;stroke-width:0.75;"/>
    </defs>
    <g>
     <use style="fill:#20338d;stroke:#0d153a;stroke-linejoin:miter;stroke-width:0.75;" x="214.64352" xlink:href="#mcecaf05887" y="140.76"/>
    </g>
   </g>
   <g id="line2d_57">
    <defs>
     <path d="M 0 -1.5 
L -1.5 1.5 
L 1.5 1.5 
z
" id="mfb94898674" style="stroke:#5fad41;stroke-linejoin:miter;stroke-width:0.75;"/>
    </defs>
    <g>
     <use style="fill:#adda9c;stroke:#5fad41;stroke-linejoin:miter;stroke-width:0.75;" x="199.021536" xlink:href="#mfb94898674" y="140.76"/>
    </g>
   </g>
   <g id="line2d_58">
    <defs>
     <path d="M 0 2 
C 0.530406 2 1.03916 1.789267 1.414214 1.414214 
C 1.789267 1.03916 2 0.530406 2 0 
C 2 -0.530406 1.789267 -1.03916 1.414214 -1.414214 
C 1.03916 -1.789267 0.530406 -2 0 -2 
C -0.530406 -2 -1.03916 -1.789267 -1.414214 -1.414214 
C -1.789267 -1.03916 -2 -0.530406 -2 0 
C -2 0.530406 -1.789267 1.03916 -1.414214 1.414214 
C -1.03916 1.789267 -0.530406 2 0 2 
z
" id="m913785adb5" style="stroke:#000000;stroke-width:0.75;"/>
    </defs>
    <g clip-path="url(#p10a289d666)">
     <use style="fill:#666666;stroke:#000000;stroke-width:0.75;" x="176.477547" xlink:href="#m913785adb5" y="104.549561"/>
    </g>
   </g>
  </g>
 </g>
 <defs>
  <clipPath id="p10a289d666">
   <rect height="137.448" width="190.512" x="31.752" y="3.312"/>
  </clipPath>
 </defs>
</svg>
