<?xml version="1.0" encoding="utf-8" standalone="no"?>
<!DOCTYPE svg PUBLIC "-//W3C//DTD SVG 1.1//EN"
  "http://www.w3.org/Graphics/SVG/1.1/DTD/svg11.dtd">
<!-- Created with matplotlib (http://matplotlib.org/) -->
<svg height="540pt" version="1.1" viewBox="0 0 720 540" width="720pt" xmlns="http://www.w3.org/2000/svg" xmlns:xlink="http://www.w3.org/1999/xlink">
 <defs>
  <style type="text/css">
*{stroke-linecap:butt;stroke-linejoin:round;}
  </style>
 </defs>
 <g id="figure_1">
  <g id="patch_1">
   <path d="M 0 540 
L 720 540 
L 720 0 
L 0 0 
z
" style="fill:#ffffff;"/>
  </g>
  <g id="axes_1">
   <g id="patch_2">
    <path d="M 86.4 475.2 
L 702 475.2 
L 702 21.6 
L 86.4 21.6 
z
" style="fill:#ffffff;"/>
   </g>
   <g id="PolyCollection_1">
    <defs>
     <path d="M 232.2 -96.984512 
L 232.2 -108.280247 
L 252.45 -117.087797 
L 272.7 -124.580244 
L 292.95 -134.280276 
L 313.2 -146.800742 
L 333.45 -161.545784 
L 353.7 -173.793222 
L 373.95 -194.88839 
L 394.2 -218.223938 
L 414.45 -247.172359 
L 434.7 -269.842647 
L 454.95 -294.644773 
L 475.2 -313.20671 
L 495.45 -335.23492 
L 515.7 -348.192558 
L 535.95 -356.649361 
L 556.2 -367.10484 
L 576.45 -366.204471 
L 596.7 -365.955957 
L 616.95 -362.567137 
L 637.2 -363.365938 
L 637.2 -359.223296 
L 637.2 -359.223296 
L 616.95 -358.25184 
L 596.7 -361.630444 
L 576.45 -361.313008 
L 556.2 -361.365726 
L 535.95 -349.885164 
L 515.7 -340.995666 
L 495.45 -327.280588 
L 475.2 -304.998224 
L 454.95 -285.570729 
L 434.7 -260.296063 
L 414.45 -236.857203 
L 394.2 -208.031676 
L 373.95 -184.074559 
L 353.7 -162.906003 
L 333.45 -150.380281 
L 313.2 -135.277833 
L 292.95 -122.729489 
L 272.7 -112.886777 
L 252.45 -105.42548 
L 232.2 -96.984512 
z
" id="m1181b7deaf" style="stroke:#187795;stroke-opacity:0.4;"/>
    </defs>
    <g clip-path="url(#p1b4dd29a05)">
     <use style="fill:#187795;fill-opacity:0.4;stroke:#187795;stroke-opacity:0.4;" x="0" xlink:href="#m1181b7deaf" y="540"/>
    </g>
   </g>
   <g id="PolyCollection_2">
    <defs>
     <path d="M 232.2 -105.470169 
L 232.2 -116.927643 
L 252.45 -126.625627 
L 272.7 -133.304461 
L 292.95 -141.897364 
L 313.2 -155.625166 
L 333.45 -167.483485 
L 353.7 -180.846596 
L 373.95 -198.989173 
L 394.2 -222.424158 
L 414.45 -249.734098 
L 434.7 -275.592138 
L 454.95 -297.100786 
L 475.2 -315.952908 
L 495.45 -336.374875 
L 515.7 -350.011078 
L 535.95 -357.978136 
L 556.2 -364.03289 
L 576.45 -364.197621 
L 596.7 -368.573969 
L 616.95 -363.430248 
L 637.2 -366.283747 
L 637.2 -361.86967 
L 637.2 -361.86967 
L 616.95 -359.297829 
L 596.7 -364.054975 
L 576.45 -359.396361 
L 556.2 -358.523328 
L 535.95 -351.710977 
L 515.7 -342.967123 
L 495.45 -328.71491 
L 475.2 -307.828437 
L 454.95 -288.007131 
L 434.7 -265.994949 
L 414.45 -239.558389 
L 394.2 -212.254439 
L 373.95 -188.038402 
L 353.7 -169.868085 
L 333.45 -156.170025 
L 313.2 -143.799694 
L 292.95 -130.135173 
L 272.7 -121.466525 
L 252.45 -114.810186 
L 232.2 -105.470169 
z
" id="m26b3c51b0f" style="stroke:#5f9049;stroke-opacity:0.4;"/>
    </defs>
    <g clip-path="url(#p1b4dd29a05)">
     <use style="fill:#5f9049;fill-opacity:0.4;stroke:#5f9049;stroke-opacity:0.4;" x="0" xlink:href="#m26b3c51b0f" y="540"/>
    </g>
   </g>
   <g id="PolyCollection_3">
    <defs>
     <path d="M 232.2 -134.455158 
L 232.2 -146.49253 
L 252.45 -154.163146 
L 272.7 -158.920489 
L 292.95 -165.380215 
L 313.2 -177.075193 
L 333.45 -187.323475 
L 353.7 -200.228724 
L 373.95 -216.757441 
L 394.2 -236.090678 
L 414.45 -260.71656 
L 434.7 -284.554457 
L 454.95 -305.658836 
L 475.2 -323.368172 
L 495.45 -340.732789 
L 515.7 -353.523794 
L 535.95 -361.229618 
L 556.2 -365.871598 
L 576.45 -366.066962 
L 596.7 -365.930843 
L 616.95 -363.315395 
L 637.2 -363.47132 
L 637.2 -359.233829 
L 637.2 -359.233829 
L 616.95 -359.107816 
L 596.7 -361.386552 
L 576.45 -361.194184 
L 556.2 -360.488386 
L 535.95 -354.927642 
L 515.7 -346.412098 
L 495.45 -332.941501 
L 475.2 -315.024679 
L 454.95 -296.609742 
L 434.7 -275.041337 
L 414.45 -250.612142 
L 394.2 -225.763738 
L 373.95 -205.821948 
L 353.7 -189.170287 
L 333.45 -175.789882 
L 313.2 -165.207329 
L 292.95 -153.491262 
L 272.7 -146.899099 
L 252.45 -141.869084 
L 232.2 -134.455158 
z
" id="m99a69c3057" style="stroke:#9ca903;stroke-opacity:0.4;"/>
    </defs>
    <g clip-path="url(#p1b4dd29a05)">
     <use style="fill:#9ca903;fill-opacity:0.4;stroke:#9ca903;stroke-opacity:0.4;" x="0" xlink:href="#m99a69c3057" y="540"/>
    </g>
   </g>
   <g id="PolyCollection_4">
    <defs>
     <path d="M 232.2 -183.632628 
L 232.2 -196.535132 
L 252.45 -203.087971 
L 272.7 -202.889075 
L 292.95 -203.397259 
L 313.2 -212.783493 
L 333.45 -220.655871 
L 353.7 -231.438262 
L 373.95 -245.265483 
L 394.2 -260.488077 
L 414.45 -281.246616 
L 434.7 -301.20622 
L 454.95 -316.221468 
L 475.2 -334.024992 
L 495.45 -347.669416 
L 515.7 -359.680301 
L 535.95 -363.379981 
L 556.2 -364.789614 
L 576.45 -365.576123 
L 596.7 -364.996402 
L 616.95 -365.832846 
L 637.2 -359.933816 
L 637.2 -355.796363 
L 637.2 -355.796363 
L 616.95 -361.463486 
L 596.7 -360.473045 
L 576.45 -360.624147 
L 556.2 -359.308799 
L 535.95 -357.19223 
L 515.7 -352.738527 
L 495.45 -340.13667 
L 475.2 -325.686859 
L 454.95 -307.366373 
L 434.7 -291.694571 
L 414.45 -271.083624 
L 394.2 -250.128366 
L 373.95 -234.51469 
L 353.7 -220.229756 
L 333.45 -209.027965 
L 313.2 -200.736386 
L 292.95 -191.582434 
L 272.7 -190.349345 
L 252.45 -189.98747 
L 232.2 -183.632628 
z
" id="m9ed95f6943" style="stroke:#d7b501;stroke-opacity:0.4;"/>
    </defs>
    <g clip-path="url(#p1b4dd29a05)">
     <use style="fill:#d7b501;fill-opacity:0.4;stroke:#d7b501;stroke-opacity:0.4;" x="0" xlink:href="#m9ed95f6943" y="540"/>
    </g>
   </g>
   <g id="PolyCollection_5">
    <defs>
     <path d="M 232.2 -260.287141 
L 232.2 -274.80612 
L 252.45 -271.44422 
L 272.7 -269.819643 
L 292.95 -264.393094 
L 313.2 -267.736814 
L 333.45 -271.963335 
L 353.7 -271.447993 
L 373.95 -284.465946 
L 394.2 -295.044623 
L 414.45 -310.388036 
L 434.7 -322.947755 
L 454.95 -336.150876 
L 475.2 -347.915628 
L 495.45 -357.896706 
L 515.7 -367.260078 
L 535.95 -370.069886 
L 556.2 -368.999693 
L 576.45 -369.511688 
L 596.7 -367.990092 
L 616.95 -364.62314 
L 637.2 -368.174108 
L 637.2 -363.766546 
L 637.2 -363.766546 
L 616.95 -360.133438 
L 596.7 -363.140719 
L 576.45 -364.702336 
L 556.2 -363.596618 
L 535.95 -364.002222 
L 515.7 -360.520069 
L 495.45 -350.440009 
L 475.2 -339.738752 
L 454.95 -327.423924 
L 434.7 -313.70176 
L 414.45 -300.607081 
L 394.2 -284.602222 
L 373.95 -273.500829 
L 353.7 -260.29041 
L 333.45 -259.936332 
L 313.2 -255.344673 
L 292.95 -251.688052 
L 272.7 -256.255213 
L 252.45 -257.404727 
L 232.2 -260.287141 
z
" id="m6efe226183" style="stroke:#eca300;stroke-opacity:0.4;"/>
    </defs>
    <g clip-path="url(#p1b4dd29a05)">
     <use style="fill:#eca300;fill-opacity:0.4;stroke:#eca300;stroke-opacity:0.4;" x="0" xlink:href="#m6efe226183" y="540"/>
    </g>
   </g>
   <g id="PolyCollection_6">
    <defs>
     <path d="M 232.2 -362.366853 
L 232.2 -378.707015 
L 252.45 -366.564884 
L 272.7 -357.185941 
L 292.95 -343.952117 
L 313.2 -341.260125 
L 333.45 -336.76799 
L 353.7 -334.019821 
L 373.95 -335.35373 
L 394.2 -338.909117 
L 414.45 -343.558882 
L 434.7 -351.245553 
L 454.95 -359.099887 
L 475.2 -365.499418 
L 495.45 -371.343553 
L 515.7 -375.128204 
L 535.95 -375.738978 
L 556.2 -376.842661 
L 576.45 -371.575643 
L 596.7 -369.753548 
L 616.95 -366.840364 
L 637.2 -369.209435 
L 637.2 -364.71407 
L 637.2 -364.71407 
L 616.95 -354.565583 
L 596.7 -365.119901 
L 576.45 -366.651207 
L 556.2 -368.720853 
L 535.95 -369.751404 
L 515.7 -368.576639 
L 495.45 -363.967535 
L 475.2 -357.507428 
L 454.95 -350.424427 
L 434.7 -342.280494 
L 414.45 -334.01504 
L 394.2 -328.616198 
L 373.95 -324.237934 
L 353.7 -322.738006 
L 333.45 -324.321317 
L 313.2 -328.234655 
L 292.95 -330.605523 
L 272.7 -342.598038 
L 252.45 -351.178911 
L 232.2 -362.366853 
z
" id="mbf810d714f" style="stroke:#db7502;stroke-opacity:0.4;"/>
    </defs>
    <g clip-path="url(#p1b4dd29a05)">
     <use style="fill:#db7502;fill-opacity:0.4;stroke:#db7502;stroke-opacity:0.4;" x="0" xlink:href="#mbf810d714f" y="540"/>
    </g>
   </g>
   <g id="matplotlib.axis_1">
    <g id="xtick_1">
     <g id="line2d_1">
      <defs>
       <path d="M 0 0 
L 0 3.5 
" id="me66c137863" style="stroke:#000000;stroke-width:0.8;"/>
      </defs>
      <g>
       <use style="stroke:#000000;stroke-width:0.8;" x="151.2" xlink:href="#me66c137863" y="475.2"/>
      </g>
     </g>
     <g id="text_1">
      <!-- $-3$ -->
      <defs>
       <path d="M 65.90625 23 
C 67.59375 23 69.40625 23 69.40625 25 
C 69.40625 27 67.59375 27 65.90625 27 
L 11.796875 27 
C 10.09375 27 8.296875 27 8.296875 25 
C 8.296875 23 10.09375 23 11.796875 23 
z
" id="CMSY10-0"/>
       <path d="M 22.09375 33.703125 
C 31 33.703125 34.90625 25.96875 34.90625 17.03125 
C 34.90625 5 28.5 0.390625 22.703125 0.390625 
C 17.40625 0.390625 8.796875 3.03125 6.09375 10.828125 
C 6.59375 10.625 7.09375 10.625 7.59375 10.625 
C 10 10.625 11.796875 12.21875 11.796875 14.8125 
C 11.796875 17.703125 9.59375 19 7.59375 19 
C 5.90625 19 3.296875 18.203125 3.296875 14.46875 
C 3.296875 5.234375 12.296875 -2 22.90625 -2 
C 34 -2 42.5 6.71875 42.5 16.953125 
C 42.5 26.671875 34.5 33.703125 25 34.796875 
C 32.59375 36.375 39.90625 43.0625 39.90625 52.015625 
C 39.90625 59.6875 32 65.296875 23 65.296875 
C 13.90625 65.296875 5.90625 59.828125 5.90625 52.015625 
C 5.90625 48.59375 8.5 48 9.796875 48 
C 11.90625 48 13.703125 49.296875 13.703125 51.890625 
C 13.703125 54.46875 11.90625 55.765625 9.796875 55.765625 
C 9.40625 55.765625 8.90625 55.765625 8.5 55.578125 
C 11.40625 61.859375 19.296875 63 22.796875 63 
C 26.296875 63 32.90625 61.328125 32.90625 51.875 
C 32.90625 49.109375 32.5 44.1875 29.09375 39.84375 
C 26.09375 36 22.703125 36 19.40625 35.6875 
C 18.90625 35.6875 16.59375 35.453125 16.203125 35.453125 
C 15.5 35.359375 15.09375 35.265625 15.09375 34.5 
C 15.09375 33.796875 15.203125 33.703125 17.203125 33.703125 
z
" id="CMR17-51"/>
      </defs>
      <g transform="translate(136.418646 499.235969)scale(0.24 -0.24)">
       <use transform="scale(0.996264)" xlink:href="#CMSY10-0"/>
       <use transform="translate(77.487468 0)scale(0.996264)" xlink:href="#CMR17-51"/>
      </g>
     </g>
    </g>
    <g id="xtick_2">
     <g id="line2d_2">
      <g>
       <use style="stroke:#000000;stroke-width:0.8;" x="232.2" xlink:href="#me66c137863" y="475.2"/>
      </g>
     </g>
     <g id="text_2">
      <!-- $-2$ -->
      <defs>
       <path d="M 41.703125 15.453125 
L 39.90625 15.453125 
C 38.90625 8.375 38.09375 7.171875 37.703125 6.5625 
C 37.203125 5.765625 30 5.765625 28.59375 5.765625 
L 9.40625 5.765625 
C 13 9.671875 20 16.75 28.5 24.953125 
C 34.59375 30.734375 41.703125 37.53125 41.703125 47.421875 
C 41.703125 59.21875 32.296875 66 21.796875 66 
C 10.796875 66 4.09375 56.3125 4.09375 47.34375 
C 4.09375 43.4375 7 42.9375 8.203125 42.9375 
C 9.203125 42.9375 12.203125 43.546875 12.203125 47.03125 
C 12.203125 50.109375 9.59375 51 8.203125 51 
C 7.59375 51 7 50.90625 6.59375 50.703125 
C 8.5 59.21875 14.296875 63.40625 20.40625 63.40625 
C 29.09375 63.40625 34.796875 56.515625 34.796875 47.421875 
C 34.796875 38.734375 29.703125 31.25 24 24.75 
L 4.09375 2.28125 
L 4.09375 0 
L 39.296875 0 
z
" id="CMR17-50"/>
      </defs>
      <g transform="translate(217.418646 499.235969)scale(0.24 -0.24)">
       <use transform="scale(0.996264)" xlink:href="#CMSY10-0"/>
       <use transform="translate(77.487468 0)scale(0.996264)" xlink:href="#CMR17-50"/>
      </g>
     </g>
    </g>
    <g id="xtick_3">
     <g id="line2d_3">
      <g>
       <use style="stroke:#000000;stroke-width:0.8;" x="313.2" xlink:href="#me66c137863" y="475.2"/>
      </g>
     </g>
     <g id="text_3">
      <!-- $-1$ -->
      <defs>
       <path d="M 26.59375 63.40625 
C 26.59375 65.5 26.5 65.5 25.09375 65.5 
C 21.203125 61.1875 15.296875 59.796875 9.703125 59.796875 
C 9.40625 59.796875 8.90625 59.796875 8.796875 59.5 
C 8.703125 59.296875 8.703125 59.09375 8.703125 57 
C 11.796875 57 17 57.59375 21 59.984375 
L 21 7.203125 
C 21 3.6875 20.796875 2.5 12.203125 2.5 
L 9.203125 2.5 
L 9.203125 0 
C 14 0 19 0 23.796875 0 
C 28.59375 0 33.59375 0 38.40625 0 
L 38.40625 2.5 
L 35.40625 2.5 
C 26.796875 2.5 26.59375 3.59375 26.59375 7.15625 
z
" id="CMR17-49"/>
      </defs>
      <g transform="translate(298.418646 499.235969)scale(0.24 -0.24)">
       <use transform="scale(0.996264)" xlink:href="#CMSY10-0"/>
       <use transform="translate(77.487468 0)scale(0.996264)" xlink:href="#CMR17-49"/>
      </g>
     </g>
    </g>
    <g id="xtick_4">
     <g id="line2d_4">
      <g>
       <use style="stroke:#000000;stroke-width:0.8;" x="394.2" xlink:href="#me66c137863" y="475.2"/>
      </g>
     </g>
     <g id="text_4">
      <!-- $0$ -->
      <defs>
       <path d="M 42 31.640625 
C 42 37.75 41.90625 48.125 37.703125 56.109375 
C 34 63.109375 28.09375 65.59375 22.90625 65.59375 
C 18.09375 65.59375 12 63.40625 8.203125 56.203125 
C 4.203125 48.71875 3.796875 39.4375 3.796875 31.640625 
C 3.796875 25.953125 3.90625 17.28125 7 9.671875 
C 11.296875 -0.609375 19 -2 22.90625 -2 
C 27.5 -2 34.5 -0.109375 38.59375 9.375 
C 41.59375 16.28125 42 24.359375 42 31.640625 
z
M 22.90625 -0.40625 
C 16.5 -0.40625 12.703125 5.078125 11.296875 12.6875 
C 10.203125 18.5625 10.203125 27.15625 10.203125 32.75 
C 10.203125 40.4375 10.203125 46.828125 11.5 52.921875 
C 13.40625 61.390625 19 64 22.90625 64 
C 27 64 32.296875 61.296875 34.203125 53.125 
C 35.5 47.4375 35.59375 40.734375 35.59375 32.75 
C 35.59375 26.25 35.59375 18.265625 34.40625 12.375 
C 32.296875 1.484375 26.40625 -0.40625 22.90625 -0.40625 
z
" id="CMR17-48"/>
      </defs>
      <g transform="translate(388.717143 499.235969)scale(0.24 -0.24)">
       <use transform="scale(0.996264)" xlink:href="#CMR17-48"/>
      </g>
     </g>
    </g>
    <g id="xtick_5">
     <g id="line2d_5">
      <g>
       <use style="stroke:#000000;stroke-width:0.8;" x="475.2" xlink:href="#me66c137863" y="475.2"/>
      </g>
     </g>
     <g id="text_5">
      <!-- $1$ -->
      <g transform="translate(469.717143 499.235969)scale(0.24 -0.24)">
       <use transform="scale(0.996264)" xlink:href="#CMR17-49"/>
      </g>
     </g>
    </g>
    <g id="xtick_6">
     <g id="line2d_6">
      <g>
       <use style="stroke:#000000;stroke-width:0.8;" x="556.2" xlink:href="#me66c137863" y="475.2"/>
      </g>
     </g>
     <g id="text_6">
      <!-- $2$ -->
      <g transform="translate(550.717143 499.235969)scale(0.24 -0.24)">
       <use transform="scale(0.996264)" xlink:href="#CMR17-50"/>
      </g>
     </g>
    </g>
    <g id="xtick_7">
     <g id="line2d_7">
      <g>
       <use style="stroke:#000000;stroke-width:0.8;" x="637.2" xlink:href="#me66c137863" y="475.2"/>
      </g>
     </g>
     <g id="text_7">
      <!-- $3$ -->
      <g transform="translate(631.717143 499.235969)scale(0.24 -0.24)">
       <use transform="scale(0.996264)" xlink:href="#CMR17-51"/>
      </g>
     </g>
    </g>
    <g id="text_8">
     <!-- $\beta\mu$ -->
     <defs>
      <path d="M 56.59375 57.828125 
C 56.59375 63.765625 51.5 70 42.40625 70 
C 29.5 70 21.296875 54.328125 18.703125 44 
L 2.90625 -18.3125 
C 2.703125 -19.109375 3.296875 -19.3125 3.796875 -19.3125 
C 4.5 -19.3125 5 -19.21875 5.09375 -18.71875 
L 12.09375 9.15625 
C 13.09375 3.578125 18.59375 -1 24.5 -1 
C 38.796875 -1 52.296875 10.15625 52.296875 24.984375 
C 52.296875 28.765625 51.40625 32.546875 49.296875 35.734375 
C 48.09375 37.625 46.59375 39.015625 45 40.21875 
C 52.203125 43.984375 56.59375 50 56.59375 57.828125 
z
M 39.203125 40.3125 
C 37.59375 39.71875 36 39.515625 34.09375 39.515625 
C 32.703125 39.515625 31.40625 39.421875 29.59375 40.015625 
C 30.59375 40.71875 32.09375 40.90625 34.203125 40.90625 
C 36 40.90625 37.796875 40.71875 39.203125 40.3125 
z
M 51.40625 58.71875 
C 51.40625 53.28125 48.703125 45.359375 42.203125 41.703125 
C 40.296875 42.46875 37.703125 43 35.5 43 
C 33.40625 43 27.40625 43 27.40625 39.921875 
C 27.40625 37.328125 32.90625 37.328125 34.59375 37.328125 
C 37.203125 37.328125 39.5 38 41.90625 38.8125 
C 45.09375 36.21875 46.5 32.828125 46.5 27.859375 
C 46.5 22.078125 44.90625 17.421875 43 13.140625 
C 39.703125 5.765625 31.90625 1 25 1 
C 17.703125 1 13.90625 6.75 13.90625 13.5 
C 13.90625 14.40625 13.90625 15.703125 14.296875 17.171875 
L 20.796875 43.296875 
C 24.09375 56.296875 32.5 68.015625 42.203125 68.015625 
C 49.40625 68.015625 51.40625 63.0625 51.40625 58.71875 
z
" id="CMMI12-12"/>
      <path d="M 14.40625 2.1875 
C 16.90625 -0.09375 20.59375 -1 24 -1 
C 30.40625 -1 34.796875 3.25 37.09375 6.328125 
C 38.09375 1.078125 42.296875 -1 45.796875 -1 
C 48.796875 -1 51.203125 0.78125 53 4.328125 
C 54.59375 7.703125 56 13.734375 56 14.109375 
C 56 14.609375 55.59375 15 55 15 
C 54.09375 15 54 14.5 53.59375 13.03125 
C 52.09375 7.203125 50.203125 1 46.09375 1 
C 43.203125 1 43 3.578125 43 5.59375 
C 43 7.875 43.90625 11.484375 44.59375 14.46875 
L 47.40625 25.234375 
C 47.796875 27.140625 48.90625 31.609375 49.40625 33.421875 
C 50 35.8125 51.09375 40.109375 51.09375 40.5 
C 51.09375 42 49.90625 43 48.40625 43 
C 47.5 43 45.40625 42.59375 44.59375 39.609375 
L 37.59375 11.875 
C 37.09375 9.875 37.09375 9.671875 35.796875 8.078125 
C 34.59375 6.390625 30.703125 1 24.40625 1 
C 18.796875 1 17 5.09375 17 9.765625 
C 17 12.671875 17.90625 16.15625 18.296875 17.859375 
L 22.796875 35.828125 
C 23.296875 37.71875 24.09375 40.90625 24.09375 41.515625 
C 24.09375 43.109375 22.796875 44 21.5 44 
C 20.59375 44 18.40625 43.703125 17.59375 40.5 
L 3.09375 -17.296875 
C 3 -17.796875 2.796875 -18.390625 2.796875 -19 
C 2.796875 -20.5 4 -21.5 5.5 -21.5 
C 8.40625 -21.5 9 -19.1875 9.703125 -16.40625 
z
" id="CMMI12-22"/>
     </defs>
     <g transform="translate(379.885751 525.364702)scale(0.24 -0.24)">
      <use transform="scale(0.996264)" xlink:href="#CMMI12-12"/>
      <use transform="translate(60.594016 0)scale(0.996264)" xlink:href="#CMMI12-22"/>
     </g>
    </g>
   </g>
   <g id="matplotlib.axis_2">
    <g id="ytick_1">
     <g id="line2d_8">
      <defs>
       <path d="M 0 0 
L -3.5 0 
" id="m236e2f6a24" style="stroke:#000000;stroke-width:0.8;"/>
      </defs>
      <g>
       <use style="stroke:#000000;stroke-width:0.8;" x="86.4" xlink:href="#m236e2f6a24" y="460.567742"/>
      </g>
     </g>
     <g id="text_9">
      <!-- $1.0$ -->
      <defs>
       <path d="M 18.40625 4.796875 
C 18.40625 7.6875 16 9.671875 13.59375 9.671875 
C 10.703125 9.671875 8.703125 7.28125 8.703125 4.890625 
C 8.703125 2 11.09375 0 13.5 0 
C 16.40625 0 18.40625 2.390625 18.40625 4.796875 
z
" id="CMMI12-58"/>
      </defs>
      <g transform="translate(50.965248 469.085726)scale(0.24 -0.24)">
       <use transform="scale(0.996264)" xlink:href="#CMR17-49"/>
       <use transform="translate(45.690477 0)scale(0.996264)" xlink:href="#CMMI12-58"/>
       <use transform="translate(72.787654 0)scale(0.996264)" xlink:href="#CMR17-48"/>
      </g>
     </g>
    </g>
    <g id="ytick_2">
     <g id="line2d_9">
      <g>
       <use style="stroke:#000000;stroke-width:0.8;" x="86.4" xlink:href="#m236e2f6a24" y="387.406452"/>
      </g>
     </g>
     <g id="text_10">
      <!-- $1.5$ -->
      <defs>
       <path d="M 11.40625 57.6875 
C 12.40625 57.28125 16.5 56 20.703125 56 
C 30 56 35.09375 61.109375 38 64.0625 
C 38 64.953125 38 65.5 37.40625 65.5 
C 37.296875 65.5 37.09375 65.5 36.296875 65.046875 
C 32.796875 63.40625 28.703125 62.078125 23.703125 62.078125 
C 20.703125 62.078125 16.203125 62.484375 11.296875 64.671875 
C 10.203125 65.171875 10 65.171875 9.90625 65.171875 
C 9.40625 65.171875 9.296875 65.0625 9.296875 63.078125 
L 9.296875 34.421875 
C 9.296875 32.640625 9.296875 32.140625 10.296875 32.140625 
C 10.796875 32.140625 11 32.34375 11.5 33.03125 
C 14.703125 37.515625 19.09375 39.40625 24.09375 39.40625 
C 27.59375 39.40625 35.09375 37.21875 35.09375 20.140625 
C 35.09375 16.953125 35.09375 11.171875 32.09375 6.578125 
C 29.59375 2.484375 25.703125 0.390625 21.40625 0.390625 
C 14.796875 0.390625 8.09375 5 6.296875 12.71875 
C 6.703125 12.609375 7.5 12.421875 7.90625 12.421875 
C 9.203125 12.421875 11.703125 13.125 11.703125 16.21875 
C 11.703125 18.90625 9.796875 20 7.90625 20 
C 5.59375 20 4.09375 18.59375 4.09375 15.796875 
C 4.09375 7.09375 11 -2 21.59375 -2 
C 31.90625 -2 41.703125 6.875 41.703125 19.75 
C 41.703125 31.71875 33.90625 41 24.203125 41 
C 19.09375 41 14.796875 39.109375 11.40625 35.53125 
z
" id="CMR17-53"/>
      </defs>
      <g transform="translate(50.965248 395.924436)scale(0.24 -0.24)">
       <use transform="scale(0.996264)" xlink:href="#CMR17-49"/>
       <use transform="translate(45.690477 0)scale(0.996264)" xlink:href="#CMMI12-58"/>
       <use transform="translate(72.787654 0)scale(0.996264)" xlink:href="#CMR17-53"/>
      </g>
     </g>
    </g>
    <g id="ytick_3">
     <g id="line2d_10">
      <g>
       <use style="stroke:#000000;stroke-width:0.8;" x="86.4" xlink:href="#m236e2f6a24" y="314.245161"/>
      </g>
     </g>
     <g id="text_11">
      <!-- $2.0$ -->
      <g transform="translate(50.965248 322.763146)scale(0.24 -0.24)">
       <use transform="scale(0.996264)" xlink:href="#CMR17-50"/>
       <use transform="translate(45.690477 0)scale(0.996264)" xlink:href="#CMMI12-58"/>
       <use transform="translate(72.787654 0)scale(0.996264)" xlink:href="#CMR17-48"/>
      </g>
     </g>
    </g>
    <g id="ytick_4">
     <g id="line2d_11">
      <g>
       <use style="stroke:#000000;stroke-width:0.8;" x="86.4" xlink:href="#m236e2f6a24" y="241.083871"/>
      </g>
     </g>
     <g id="text_12">
      <!-- $2.5$ -->
      <g transform="translate(50.965248 249.601855)scale(0.24 -0.24)">
       <use transform="scale(0.996264)" xlink:href="#CMR17-50"/>
       <use transform="translate(45.690477 0)scale(0.996264)" xlink:href="#CMMI12-58"/>
       <use transform="translate(72.787654 0)scale(0.996264)" xlink:href="#CMR17-53"/>
      </g>
     </g>
    </g>
    <g id="ytick_5">
     <g id="line2d_12">
      <g>
       <use style="stroke:#000000;stroke-width:0.8;" x="86.4" xlink:href="#m236e2f6a24" y="167.922581"/>
      </g>
     </g>
     <g id="text_13">
      <!-- $3.0$ -->
      <g transform="translate(50.965248 176.440565)scale(0.24 -0.24)">
       <use transform="scale(0.996264)" xlink:href="#CMR17-51"/>
       <use transform="translate(45.690477 0)scale(0.996264)" xlink:href="#CMMI12-58"/>
       <use transform="translate(72.787654 0)scale(0.996264)" xlink:href="#CMR17-48"/>
      </g>
     </g>
    </g>
    <g id="ytick_6">
     <g id="line2d_13">
      <g>
       <use style="stroke:#000000;stroke-width:0.8;" x="86.4" xlink:href="#m236e2f6a24" y="94.76129"/>
      </g>
     </g>
     <g id="text_14">
      <!-- $3.5$ -->
      <g transform="translate(50.965248 103.279275)scale(0.24 -0.24)">
       <use transform="scale(0.996264)" xlink:href="#CMR17-51"/>
       <use transform="translate(45.690477 0)scale(0.996264)" xlink:href="#CMMI12-58"/>
       <use transform="translate(72.787654 0)scale(0.996264)" xlink:href="#CMR17-53"/>
      </g>
     </g>
    </g>
    <g id="ytick_7">
     <g id="line2d_14">
      <g>
       <use style="stroke:#000000;stroke-width:0.8;" x="86.4" xlink:href="#m236e2f6a24" y="21.6"/>
      </g>
     </g>
     <g id="text_15">
      <!-- $4.0$ -->
      <defs>
       <path d="M 33.59375 64.40625 
C 33.59375 66.5 33.5 66.5 31.703125 66.5 
L 2 19.59375 
L 2 17 
L 27.796875 17 
L 27.796875 7.140625 
C 27.796875 3.5 27.59375 2.5 20.59375 2.5 
L 18.703125 2.5 
L 18.703125 0 
C 21.90625 0 27.296875 0 30.703125 0 
C 34.09375 0 39.5 0 42.703125 0 
L 42.703125 2.5 
L 40.796875 2.5 
C 33.796875 2.5 33.59375 3.5 33.59375 7.140625 
L 33.59375 17 
L 43.796875 17 
L 43.796875 19.59375 
L 33.59375 19.59375 
z
M 28.09375 57.859375 
L 28.09375 19.59375 
L 4 19.59375 
z
" id="CMR17-52"/>
      </defs>
      <g transform="translate(50.965248 30.117984)scale(0.24 -0.24)">
       <use transform="scale(0.996264)" xlink:href="#CMR17-52"/>
       <use transform="translate(45.690477 0)scale(0.996264)" xlink:href="#CMMI12-58"/>
       <use transform="translate(72.787654 0)scale(0.996264)" xlink:href="#CMR17-48"/>
      </g>
     </g>
    </g>
    <g id="text_16">
     <!-- $n/\bar{n}_0$ -->
     <defs>
      <path d="M 20.59375 29.234375 
C 20.796875 29.84375 23.296875 34.828125 27 38.015625 
C 29.59375 40.40625 33 42.015625 36.90625 42.015625 
C 40.90625 42.015625 42.296875 39.015625 42.296875 35.03125 
C 42.296875 29.34375 38.203125 17.96875 36.203125 12.578125 
C 35.296875 10.171875 34.796875 8.875 34.796875 7.078125 
C 34.796875 2.59375 37.90625 -1 42.703125 -1 
C 52 -1 55.5 13.671875 55.5 14.265625 
C 55.5 14.765625 55.09375 15.171875 54.5 15.171875 
C 53.59375 15.171875 53.5 14.875 53 13.171875 
C 50.703125 4.984375 46.90625 1 43 1 
C 42 1 40.40625 1 40.40625 4.203125 
C 40.40625 6.703125 41.5 9.703125 42.09375 11.09375 
C 44.09375 16.609375 48.296875 27.8125 48.296875 33.515625 
C 48.296875 39.5 44.796875 44 37.203125 44 
C 28.296875 44 23.59375 37.734375 21.796875 35.234375 
C 21.5 40.90625 17.40625 44 13 44 
C 9.796875 44 7.59375 42.109375 5.90625 38.71875 
C 4.09375 35.125 2.703125 29.140625 2.703125 28.734375 
C 2.703125 28.34375 3.09375 27.84375 3.796875 27.84375 
C 4.59375 27.84375 4.703125 27.9375 5.296875 30.234375 
C 6.90625 36.328125 8.703125 42.015625 12.703125 42.015625 
C 15 42.015625 15.796875 40.40625 15.796875 37.421875 
C 15.796875 35.21875 14.796875 31.328125 14.09375 28.234375 
L 11.296875 17.46875 
C 10.90625 15.5625 9.796875 11.078125 9.296875 9.28125 
C 8.59375 6.6875 7.5 2 7.5 1.5 
C 7.5 0.09375 8.59375 -1 10.09375 -1 
C 11.296875 -1 12.703125 -0.40625 13.5 1.09375 
C 13.703125 1.59375 14.59375 5.09375 15.09375 7.078125 
L 17.296875 16.0625 
z
" id="CMMI12-110"/>
      <path d="M 42.90625 71.28125 
C 42.90625 71.390625 43.5 72.90625 43.5 73.09375 
C 43.5 74.296875 42.5 75 41.703125 75 
C 41.203125 75 40.296875 75 39.5 72.796875 
L 6 -21.296875 
C 6 -21.40625 5.40625 -22.890625 5.40625 -23.09375 
C 5.40625 -24.296875 6.40625 -25 7.203125 -25 
C 7.796875 -25 8.703125 -24.890625 9.40625 -22.796875 
z
" id="CMMI12-61"/>
      <path d="M 39.90625 55 
L 39.90625 57.28125 
L 5.90625 57.28125 
L 5.90625 55 
z
" id="CMR17-22"/>
     </defs>
     <g transform="translate(41.872484 272.325272)rotate(-90)scale(0.24 -0.24)">
      <use transform="translate(0 14.943915)scale(0.996264)" xlink:href="#CMMI12-110"/>
      <use transform="translate(58.230047 14.943915)scale(0.996264)" xlink:href="#CMMI12-61"/>
      <use transform="translate(113.274759 14.950375)scale(0.996264)" xlink:href="#CMR17-22"/>
      <use transform="translate(107.004966 14.943915)scale(0.996264)" xlink:href="#CMMI12-110"/>
      <use transform="translate(165.235013 0)scale(0.697382)" xlink:href="#CMR17-48"/>
     </g>
    </g>
   </g>
   <g id="line2d_15">
    <path clip-path="url(#p1b4dd29a05)" d="M 70.2 456.793892 
L 82.989474 456.151828 
L 95.778947 455.401291 
L 108.568421 454.524272 
L 121.357895 453.499914 
L 134.147368 452.304118 
L 146.936842 450.909147 
L 159.726316 449.28321 
L 172.515789 447.390095 
L 185.305263 445.188888 
L 198.094737 442.633873 
L 210.884211 439.674765 
L 223.673684 436.257508 
L 236.463158 432.325992 
L 249.252632 427.825255 
L 262.042105 422.707005 
L 274.831579 416.938762 
L 287.621053 410.518557 
L 300.410526 403.498122 
L 313.2 396.018922 
" style="fill:none;stroke:#187795;stroke-linecap:square;stroke-width:3;"/>
   </g>
   <g id="line2d_16">
    <path clip-path="url(#p1b4dd29a05)" d="M 70.2 445.286629 
L 82.989474 444.703687 
L 95.778947 444.021808 
L 108.568421 443.224425 
L 121.357895 442.292313 
L 134.147368 441.203224 
L 146.936842 439.931499 
L 159.726316 438.447696 
L 172.515789 436.718257 
L 185.305263 434.705285 
L 198.094737 432.366537 
L 210.884211 429.655802 
L 223.673684 426.52393 
L 236.463158 422.920925 
L 249.252632 418.799725 
L 262.042105 414.122642 
L 274.831579 408.871888 
L 287.621053 403.066376 
L 300.410526 396.787999 
L 313.2 390.222211 
" style="fill:none;stroke:#5f9049;stroke-linecap:square;stroke-width:3;"/>
   </g>
   <g id="line2d_17">
    <path clip-path="url(#p1b4dd29a05)" d="M 70.2 409.121099 
L 82.989474 408.758693 
L 95.778947 408.331752 
L 108.568421 407.828528 
L 121.357895 407.235128 
L 134.147368 406.535172 
L 146.936842 405.709434 
L 159.726316 404.735504 
L 172.515789 403.587517 
L 185.305263 402.23607 
L 198.094737 400.648454 
L 210.884211 398.789487 
L 223.673684 396.623308 
L 236.463158 394.116741 
L 249.252632 391.245109 
L 262.042105 388.001791 
L 274.831579 384.413479 
L 287.621053 380.563932 
L 300.410526 376.63039 
L 313.2 372.938723 
" style="fill:none;stroke:#9ca903;stroke-linecap:square;stroke-width:3;"/>
   </g>
   <g id="line2d_18">
    <path clip-path="url(#p1b4dd29a05)" d="M 70.2 343.227368 
L 82.989474 343.39876 
L 95.778947 343.583859 
L 108.568421 343.780235 
L 121.357895 343.983816 
L 134.147368 344.188423 
L 146.936842 344.385287 
L 159.726316 344.562601 
L 172.515789 344.705244 
L 185.305263 344.794844 
L 198.094737 344.810499 
L 210.884211 344.73059 
L 223.673684 344.536341 
L 236.463158 344.218073 
L 249.252632 343.78548 
L 262.042105 343.283824 
L 274.831579 342.81876 
L 287.621053 342.593673 
L 300.410526 342.965191 
L 313.2 344.525156 
" style="fill:none;stroke:#d7b501;stroke-linecap:square;stroke-width:3;"/>
   </g>
   <g id="line2d_19">
    <path clip-path="url(#p1b4dd29a05)" d="M 70.2 238.726987 
L 82.989474 240.078242 
L 95.778947 241.60076 
L 108.568421 243.306165 
L 121.357895 245.203778 
L 134.147368 247.299656 
L 146.936842 249.595653 
L 159.726316 252.088679 
L 172.515789 254.770443 
L 185.305263 257.628092 
L 198.094737 260.646311 
L 210.884211 263.811692 
L 223.673684 267.120381 
L 236.463158 270.590409 
L 249.252632 274.28058 
L 262.042105 278.318497 
L 274.831579 282.941461 
L 287.621053 288.555623 
L 300.410526 295.821445 
L 313.2 305.777382 
" style="fill:none;stroke:#eca300;stroke-linecap:square;stroke-width:3;"/>
   </g>
   <g id="line2d_20">
    <path clip-path="url(#p1b4dd29a05)" d="M 70.2 82.418252 
L 82.989474 86.24205 
L 95.778947 90.525394 
L 108.568421 95.293791 
L 121.357895 100.566089 
L 134.147368 106.352636 
L 146.936842 112.653873 
L 159.726316 119.4598 
L 172.515789 126.750918 
L 185.305263 134.501393 
L 198.094737 142.685313 
L 210.884211 151.287118 
L 223.673684 160.317466 
L 236.463158 169.836255 
L 249.252632 179.985136 
L 262.042105 191.032991 
L 274.831579 203.439657 
L 287.621053 217.945925 
L 300.410526 235.70196 
L 313.2 258.452354 
" style="fill:none;stroke:#db7502;stroke-linecap:square;stroke-width:3;"/>
   </g>
   <g id="patch_3">
    <path d="M 86.4 475.2 
L 86.4 21.6 
" style="fill:none;stroke:#000000;stroke-linecap:square;stroke-linejoin:miter;stroke-width:2;"/>
   </g>
   <g id="patch_4">
    <path d="M 702 475.2 
L 702 21.6 
" style="fill:none;stroke:#000000;stroke-linecap:square;stroke-linejoin:miter;stroke-width:2;"/>
   </g>
   <g id="patch_5">
    <path d="M 86.4 475.2 
L 702 475.2 
" style="fill:none;stroke:#000000;stroke-linecap:square;stroke-linejoin:miter;stroke-width:2;"/>
   </g>
   <g id="patch_6">
    <path d="M 86.4 21.6 
L 702 21.6 
" style="fill:none;stroke:#000000;stroke-linecap:square;stroke-linejoin:miter;stroke-width:2;"/>
   </g>
   <g id="legend_1">
    <g id="line2d_21">
     <path d="M 434.125892 411.746974 
L 478.125892 411.746974 
" style="fill:none;stroke:#187795;stroke-linecap:square;stroke-width:3;"/>
    </g>
    <g id="line2d_22"/>
    <g id="text_17">
     <!-- 3rd order virial exp. -->
     <defs>
      <path d="M 22.09375 33 
L 23.203125 33 
L 26.90625 33 
C 36.59375 33 41.59375 28.59375 41.59375 20.0625 
C 41.59375 11.125 36.09375 5.8125 26.90625 5.8125 
C 17.296875 5.8125 12.59375 10.640625 12 21.015625 
L 3.203125 21.015625 
C 3.59375 15.28125 4.59375 11.5625 6.296875 8.34375 
C 9.90625 1.515625 16.90625 -2 26.59375 -2 
C 41.203125 -2 50.59375 6.734375 50.59375 20.203125 
C 50.59375 29.25 47.09375 34.28125 38.59375 37.203125 
C 45.203125 39.78125 48.5 44.71875 48.5 51.734375 
C 48.5 63.78125 40.40625 71 26.90625 71 
C 12.59375 71 5 63.28125 4.703125 48.359375 
L 13.5 48.359375 
C 13.59375 52.59375 14 54.953125 15.09375 57.109375 
C 17.09375 60.9375 21.5 63.296875 27 63.296875 
C 34.796875 63.296875 39.5 58.75 39.5 51.359375 
C 39.5 46.421875 37.703125 43.453125 33.796875 41.890625 
C 31.40625 40.90625 28.296875 40.5 22.09375 40.5 
z
" id="Nimbus_Sans_L_Regular-51"/>
      <path d="M 6.90625 52.484375 
L 6.90625 0 
L 15.296875 0 
L 15.296875 27.203125 
C 15.296875 34.703125 17.203125 39.609375 21.203125 42.5 
C 23.796875 44.40625 26.296875 45 32.09375 45 
L 32.09375 53.625 
C 30.703125 53.8125 30 53.8125 28.90625 53.8125 
C 23.5 53.8125 19.40625 50.625 14.59375 42.90625 
L 14.59375 52.484375 
z
" id="Nimbus_Sans_L_Regular-114"/>
      <path d="M 49.5 73 
L 41.203125 73 
L 41.203125 45.890625 
C 37.703125 51.1875 32.09375 54 25.09375 54 
C 11.5 54 2.59375 43.140625 2.59375 26.484375 
C 2.59375 8.84375 11.296875 -2 25.40625 -2 
C 32.59375 -2 37.59375 0.703125 42.09375 7.203125 
L 42.09375 -0.03125 
L 49.5 -0.03125 
z
M 26.5 46.1875 
C 35.5 46.1875 41.203125 38.234375 41.203125 25.796875 
C 41.203125 13.765625 35.40625 5.8125 26.59375 5.8125 
C 17.40625 5.8125 11.296875 13.859375 11.296875 26 
C 11.296875 38.125 17.40625 46.1875 26.5 46.1875 
z
" id="Nimbus_Sans_L_Regular-100"/>
      <path d="M 27.203125 54 
C 12.5 54 3.59375 43.53125 3.59375 25.984375 
C 3.59375 8.453125 12.40625 -2 27.296875 -2 
C 42 -2 51 8.453125 51 25.59375 
C 51 43.625 42.296875 54 27.203125 54 
z
M 27.296875 46.28125 
C 36.703125 46.28125 42.296875 38.625 42.296875 25.703125 
C 42.296875 13.453125 36.5 5.703125 27.296875 5.703125 
C 18 5.703125 12.296875 13.359375 12.296875 25.984375 
C 12.296875 38.53125 18 46.28125 27.296875 46.28125 
z
" id="Nimbus_Sans_L_Regular-111"/>
      <path d="M 51.296875 23.890625 
C 51.296875 31.78125 50.703125 36.53125 49.203125 40.375 
C 45.796875 48.859375 37.796875 54 28 54 
C 13.40625 54 4 42.84375 4 25.703125 
C 4 8.546875 13.09375 -2 27.796875 -2 
C 39.796875 -2 48.09375 4.84375 50.203125 16.3125 
L 41.796875 16.3125 
C 39.5 9.34375 34.796875 5.703125 28.09375 5.703125 
C 22.796875 5.703125 18.296875 8.125 15.5 12.578125 
C 13.5 15.59375 12.796875 18.640625 12.703125 23.890625 
z
M 12.90625 31 
C 13.59375 40.265625 19.5 46.28125 27.90625 46.28125 
C 36.09375 46.28125 42.40625 39.53125 42.40625 31 
C 42.40625 31 42.40625 31 42.296875 31 
z
" id="Nimbus_Sans_L_Regular-101"/>
      <path d="M 28.5 0 
L 48.59375 52.5 
L 39.203125 52.5 
L 24.40625 9.921875 
L 10.40625 52.5 
L 1 52.5 
L 19.40625 0 
z
" id="Nimbus_Sans_L_Regular-118"/>
      <path d="M 15 52.484375 
L 6.703125 52.484375 
L 6.703125 0 
L 15 0 
z
M 15 73 
L 6.59375 73 
L 6.59375 62.484375 
L 15 62.484375 
z
" id="Nimbus_Sans_L_Regular-105"/>
      <path d="M 53.5 5.203125 
C 52.59375 5 52.203125 5 51.703125 5 
C 48.796875 5 47.203125 6.484375 47.203125 9.078125 
L 47.203125 39.765625 
C 47.203125 49.015625 40.40625 54 27.5 54 
C 19.90625 54 13.59375 51.8125 10.09375 47.90625 
C 7.703125 45.203125 6.703125 42.21875 6.5 37.03125 
L 14.90625 37.03125 
C 15.59375 43.390625 19.40625 46.28125 27.203125 46.28125 
C 34.703125 46.28125 38.90625 43.484375 38.90625 38.515625 
L 38.90625 36.328125 
C 38.90625 32.828125 36.796875 31.34375 30.203125 30.546875 
C 18.40625 29.0625 16.59375 28.65625 13.40625 27.359375 
C 7.296875 24.875 4.203125 20.1875 4.203125 13.421875 
C 4.203125 3.96875 10.796875 -2 21.40625 -2 
C 28 -2 33.296875 0.296875 39.203125 5.703125 
C 39.796875 0.390625 42.40625 -2 47.796875 -2 
C 49.5 -2 50.796875 -1.8125 53.5 -1.09375 
z
M 38.90625 16.75 
C 38.90625 13.953125 38.09375 12.265625 35.59375 9.984375 
C 32.203125 6.890625 28.09375 5.3125 23.203125 5.3125 
C 16.703125 5.3125 12.90625 8.390625 12.90625 13.65625 
C 12.90625 19.140625 16.59375 21.921875 25.5 23.21875 
C 34.296875 24.40625 36.09375 24.8125 38.90625 26.09375 
z
" id="Nimbus_Sans_L_Regular-97"/>
      <path d="M 15.203125 73 
L 6.796875 73 
L 6.796875 -0.03125 
L 15.203125 -0.03125 
z
" id="Nimbus_Sans_L_Regular-108"/>
      <path d="M 29.203125 27.140625 
L 46.796875 52.484375 
L 37.40625 52.484375 
L 24.796875 33.453125 
L 12.203125 52.484375 
L 2.703125 52.484375 
L 20.203125 26.75 
L 1.703125 0 
L 11.203125 0 
L 24.5 20.125 
L 37.59375 0 
L 47.296875 0 
z
" id="Nimbus_Sans_L_Regular-120"/>
      <path d="M 5.40625 -22 
L 13.796875 -22 
L 13.796875 5 
C 18.203125 -0.421875 23.09375 -2.8125 29.90625 -2.8125 
C 43.40625 -2.8125 52.296875 8.15625 52.296875 24.984375 
C 52.296875 42.71875 43.703125 53.8125 29.796875 53.8125 
C 22.703125 53.8125 17 50.59375 13.09375 44.390625 
L 13.09375 52.328125 
L 5.40625 52.328125 
z
M 28.40625 46 
C 37.59375 46 43.59375 37.8125 43.59375 25.1875 
C 43.59375 13.171875 37.5 5 28.40625 5 
C 19.59375 5 13.796875 13.078125 13.796875 25.5 
C 13.796875 37.921875 19.59375 46 28.40625 46 
z
" id="Nimbus_Sans_L_Regular-112"/>
      <path d="M 19.09375 10.421875 
L 8.703125 10.421875 
L 8.703125 0 
L 19.09375 0 
z
" id="Nimbus_Sans_L_Regular-46"/>
     </defs>
     <g transform="translate(495.725892 419.446974)scale(0.22 -0.22)">
      <use transform="scale(0.996264)" xlink:href="#Nimbus_Sans_L_Regular-51"/>
      <use transform="translate(55.391677 0)scale(0.996264)" xlink:href="#Nimbus_Sans_L_Regular-114"/>
      <use transform="translate(88.566907 0)scale(0.996264)" xlink:href="#Nimbus_Sans_L_Regular-100"/>
      <use transform="translate(171.653753 0)scale(0.996264)" xlink:href="#Nimbus_Sans_L_Regular-111"/>
      <use transform="translate(227.04543 0)scale(0.996264)" xlink:href="#Nimbus_Sans_L_Regular-114"/>
      <use transform="translate(260.22066 0)scale(0.996264)" xlink:href="#Nimbus_Sans_L_Regular-100"/>
      <use transform="translate(315.612337 0)scale(0.996264)" xlink:href="#Nimbus_Sans_L_Regular-101"/>
      <use transform="translate(371.004014 0)scale(0.996264)" xlink:href="#Nimbus_Sans_L_Regular-114"/>
      <use transform="translate(431.874413 0)scale(0.996264)" xlink:href="#Nimbus_Sans_L_Regular-118"/>
      <use transform="translate(481.687614 0)scale(0.996264)" xlink:href="#Nimbus_Sans_L_Regular-105"/>
      <use transform="translate(503.804398 0)scale(0.996264)" xlink:href="#Nimbus_Sans_L_Regular-114"/>
      <use transform="translate(538.473005 0)scale(0.996264)" xlink:href="#Nimbus_Sans_L_Regular-105"/>
      <use transform="translate(560.58979 0)scale(0.996264)" xlink:href="#Nimbus_Sans_L_Regular-97"/>
      <use transform="translate(615.981467 0)scale(0.996264)" xlink:href="#Nimbus_Sans_L_Regular-108"/>
      <use transform="translate(665.793421 0)scale(0.996264)" xlink:href="#Nimbus_Sans_L_Regular-101"/>
      <use transform="translate(718.19699 0)scale(0.996264)" xlink:href="#Nimbus_Sans_L_Regular-120"/>
      <use transform="translate(768.01019 0)scale(0.996264)" xlink:href="#Nimbus_Sans_L_Regular-112"/>
      <use transform="translate(819.915141 0)scale(0.996264)" xlink:href="#Nimbus_Sans_L_Regular-46"/>
     </g>
    </g>
    <g id="line2d_23"/>
    <g id="line2d_24">
     <defs>
      <path d="M -4 4 
L 4 4 
L 4 -4 
L -4 -4 
z
" id="med1126109b" style="stroke:#187795;stroke-linejoin:miter;stroke-width:3;"/>
     </defs>
     <g>
      <use style="fill:#187795;stroke:#187795;stroke-linejoin:miter;stroke-width:3;" x="456.125892" xlink:href="#med1126109b" y="443.031639"/>
     </g>
    </g>
    <g id="text_18">
     <!-- complex Langevin -->
     <defs>
      <path d="M 47.09375 34.9375 
C 46.703125 40.03125 45.59375 43.328125 43.59375 46.21875 
C 40 51.109375 33.703125 54 26.40625 54 
C 12.296875 54 3.09375 42.84375 3.09375 25.5 
C 3.09375 8.65625 12.09375 -2 26.296875 -2 
C 38.796875 -2 46.703125 5.46875 47.703125 18.234375 
L 39.296875 18.234375 
C 37.90625 9.875 33.59375 5.703125 26.5 5.703125 
C 17.296875 5.703125 11.796875 13.171875 11.796875 25.5 
C 11.796875 38.53125 17.203125 46.28125 26.296875 46.28125 
C 33.296875 46.28125 37.703125 42.203125 38.703125 34.9375 
z
" id="Nimbus_Sans_L_Regular-99"/>
      <path d="M 7 52.484375 
L 7 0 
L 15.40625 0 
L 15.40625 32.953125 
C 15.40625 40.578125 20.90625 46.6875 27.703125 46.6875 
C 33.90625 46.6875 37.40625 42.875 37.40625 36.15625 
L 37.40625 0 
L 45.796875 0 
L 45.796875 32.953125 
C 45.796875 40.578125 51.296875 46.6875 58.09375 46.6875 
C 64.203125 46.6875 67.796875 42.78125 67.796875 36.15625 
L 67.796875 0 
L 76.203125 0 
L 76.203125 39.375 
C 76.203125 48.78125 70.796875 54 61 54 
C 54 54 49.796875 51.890625 44.90625 45.984375 
C 41.796875 51.59375 37.59375 54 30.796875 54 
C 23.796875 54 19.203125 51.390625 14.703125 45.078125 
L 14.703125 52.484375 
z
" id="Nimbus_Sans_L_Regular-109"/>
      <path d="M 17.296875 73 
L 8 73 
L 8 0 
L 53.296875 0 
L 53.296875 8.21875 
L 17.296875 8.21875 
z
" id="Nimbus_Sans_L_Regular-76"/>
      <path d="M 7 52.484375 
L 7 0 
L 15.40625 0 
L 15.40625 28.953125 
C 15.40625 39.671875 21 46.6875 29.59375 46.6875 
C 36.203125 46.6875 40.40625 42.671875 40.40625 36.359375 
L 40.40625 0 
L 48.703125 0 
L 48.703125 39.671875 
C 48.703125 48.390625 42.203125 54 32.09375 54 
C 24.296875 54 19.296875 50.984375 14.703125 43.6875 
L 14.703125 52.484375 
z
" id="Nimbus_Sans_L_Regular-110"/>
      <path d="M 41.203125 52.203125 
L 41.203125 44.59375 
C 37 50.8125 31.90625 53.71875 25.203125 53.71875 
C 11.90625 53.71875 2.90625 42.0625 2.90625 25 
C 2.90625 16.375 5.203125 9.34375 9.5 4.3125 
C 13.40625 -0.109375 19 -2.703125 24.5 -2.703125 
C 31.09375 -2.703125 35.703125 0.09375 40.40625 6.703125 
L 40.40625 4.03125 
C 40.40625 -3 39.5 -7.265625 37.40625 -10.140625 
C 35.203125 -13.1875 30.90625 -14.984375 25.796875 -14.984375 
C 22 -14.984375 18.59375 -14 16.296875 -12.234375 
C 14.40625 -10.75 13.59375 -9.375 13.09375 -6.34375 
L 4.59375 -6.34375 
C 5.5 -16.140625 13.203125 -22 25.5 -22 
C 33.296875 -22 40 -19.484375 43.40625 -15.296875 
C 47.40625 -10.484375 48.90625 -3.890625 48.90625 8.40625 
L 48.90625 52.203125 
z
M 26.09375 46 
C 35.09375 46 40.40625 38.359375 40.40625 25.203125 
C 40.40625 12.625 35 5 26.203125 5 
C 17.09375 5 11.59375 12.75 11.59375 25.5 
C 11.59375 38.15625 17.203125 46 26.09375 46 
z
" id="Nimbus_Sans_L_Regular-103"/>
     </defs>
     <g transform="translate(495.725892 450.731639)scale(0.22 -0.22)">
      <use transform="scale(0.996264)" xlink:href="#Nimbus_Sans_L_Regular-99"/>
      <use transform="translate(49.8132 0)scale(0.996264)" xlink:href="#Nimbus_Sans_L_Regular-111"/>
      <use transform="translate(105.204877 0)scale(0.996264)" xlink:href="#Nimbus_Sans_L_Regular-109"/>
      <use transform="translate(188.193308 0)scale(0.996264)" xlink:href="#Nimbus_Sans_L_Regular-112"/>
      <use transform="translate(243.584985 0)scale(0.996264)" xlink:href="#Nimbus_Sans_L_Regular-108"/>
      <use transform="translate(265.701769 0)scale(0.996264)" xlink:href="#Nimbus_Sans_L_Regular-101"/>
      <use transform="translate(318.105338 0)scale(0.996264)" xlink:href="#Nimbus_Sans_L_Regular-120"/>
      <use transform="translate(395.613708 0)scale(0.996264)" xlink:href="#Nimbus_Sans_L_Regular-76"/>
      <use transform="translate(451.005385 0)scale(0.996264)" xlink:href="#Nimbus_Sans_L_Regular-97"/>
      <use transform="translate(506.397062 0)scale(0.996264)" xlink:href="#Nimbus_Sans_L_Regular-110"/>
      <use transform="translate(561.788739 0)scale(0.996264)" xlink:href="#Nimbus_Sans_L_Regular-103"/>
      <use transform="translate(617.180416 0)scale(0.996264)" xlink:href="#Nimbus_Sans_L_Regular-101"/>
      <use transform="translate(669.583985 0)scale(0.996264)" xlink:href="#Nimbus_Sans_L_Regular-118"/>
      <use transform="translate(719.397185 0)scale(0.996264)" xlink:href="#Nimbus_Sans_L_Regular-105"/>
      <use transform="translate(741.51397 0)scale(0.996264)" xlink:href="#Nimbus_Sans_L_Regular-110"/>
     </g>
    </g>
   </g>
   <g id="line2d_25">
    <g clip-path="url(#p1b4dd29a05)">
     <use style="fill:#187795;stroke:#187795;stroke-linejoin:miter;stroke-width:3;" x="232.2" xlink:href="#med1126109b" y="437.36762"/>
     <use style="fill:#187795;stroke:#187795;stroke-linejoin:miter;stroke-width:3;" x="252.45" xlink:href="#med1126109b" y="428.743362"/>
     <use style="fill:#187795;stroke:#187795;stroke-linejoin:miter;stroke-width:3;" x="272.7" xlink:href="#med1126109b" y="421.266489"/>
     <use style="fill:#187795;stroke:#187795;stroke-linejoin:miter;stroke-width:3;" x="292.95" xlink:href="#med1126109b" y="411.495118"/>
     <use style="fill:#187795;stroke:#187795;stroke-linejoin:miter;stroke-width:3;" x="313.2" xlink:href="#med1126109b" y="398.960713"/>
     <use style="fill:#187795;stroke:#187795;stroke-linejoin:miter;stroke-width:3;" x="333.45" xlink:href="#med1126109b" y="384.036967"/>
     <use style="fill:#187795;stroke:#187795;stroke-linejoin:miter;stroke-width:3;" x="353.7" xlink:href="#med1126109b" y="371.650387"/>
     <use style="fill:#187795;stroke:#187795;stroke-linejoin:miter;stroke-width:3;" x="373.95" xlink:href="#med1126109b" y="350.518526"/>
     <use style="fill:#187795;stroke:#187795;stroke-linejoin:miter;stroke-width:3;" x="394.2" xlink:href="#med1126109b" y="326.872193"/>
     <use style="fill:#187795;stroke:#187795;stroke-linejoin:miter;stroke-width:3;" x="414.45" xlink:href="#med1126109b" y="297.985219"/>
     <use style="fill:#187795;stroke:#187795;stroke-linejoin:miter;stroke-width:3;" x="434.7" xlink:href="#med1126109b" y="274.930645"/>
     <use style="fill:#187795;stroke:#187795;stroke-linejoin:miter;stroke-width:3;" x="454.95" xlink:href="#med1126109b" y="249.892249"/>
     <use style="fill:#187795;stroke:#187795;stroke-linejoin:miter;stroke-width:3;" x="475.2" xlink:href="#med1126109b" y="230.897533"/>
     <use style="fill:#187795;stroke:#187795;stroke-linejoin:miter;stroke-width:3;" x="495.45" xlink:href="#med1126109b" y="208.742246"/>
     <use style="fill:#187795;stroke:#187795;stroke-linejoin:miter;stroke-width:3;" x="515.7" xlink:href="#med1126109b" y="195.405888"/>
     <use style="fill:#187795;stroke:#187795;stroke-linejoin:miter;stroke-width:3;" x="535.95" xlink:href="#med1126109b" y="186.732738"/>
     <use style="fill:#187795;stroke:#187795;stroke-linejoin:miter;stroke-width:3;" x="556.2" xlink:href="#med1126109b" y="175.764717"/>
     <use style="fill:#187795;stroke:#187795;stroke-linejoin:miter;stroke-width:3;" x="576.45" xlink:href="#med1126109b" y="176.24126"/>
     <use style="fill:#187795;stroke:#187795;stroke-linejoin:miter;stroke-width:3;" x="596.7" xlink:href="#med1126109b" y="176.206799"/>
     <use style="fill:#187795;stroke:#187795;stroke-linejoin:miter;stroke-width:3;" x="616.95" xlink:href="#med1126109b" y="179.590512"/>
     <use style="fill:#187795;stroke:#187795;stroke-linejoin:miter;stroke-width:3;" x="637.2" xlink:href="#med1126109b" y="178.705383"/>
    </g>
   </g>
   <g id="line2d_26">
    <defs>
     <path d="M -4 4 
L 4 4 
L 4 -4 
L -4 -4 
z
" id="me5000c7fa3" style="stroke:#5f9049;stroke-linejoin:miter;stroke-width:3;"/>
    </defs>
    <g clip-path="url(#p1b4dd29a05)">
     <use style="fill:#5f9049;stroke:#5f9049;stroke-linejoin:miter;stroke-width:3;" x="232.2" xlink:href="#me5000c7fa3" y="428.801094"/>
     <use style="fill:#5f9049;stroke:#5f9049;stroke-linejoin:miter;stroke-width:3;" x="252.45" xlink:href="#me5000c7fa3" y="419.282093"/>
     <use style="fill:#5f9049;stroke:#5f9049;stroke-linejoin:miter;stroke-width:3;" x="272.7" xlink:href="#me5000c7fa3" y="412.614507"/>
     <use style="fill:#5f9049;stroke:#5f9049;stroke-linejoin:miter;stroke-width:3;" x="292.95" xlink:href="#me5000c7fa3" y="403.983732"/>
     <use style="fill:#5f9049;stroke:#5f9049;stroke-linejoin:miter;stroke-width:3;" x="313.2" xlink:href="#me5000c7fa3" y="390.28757"/>
     <use style="fill:#5f9049;stroke:#5f9049;stroke-linejoin:miter;stroke-width:3;" x="333.45" xlink:href="#me5000c7fa3" y="378.173245"/>
     <use style="fill:#5f9049;stroke:#5f9049;stroke-linejoin:miter;stroke-width:3;" x="353.7" xlink:href="#me5000c7fa3" y="364.642659"/>
     <use style="fill:#5f9049;stroke:#5f9049;stroke-linejoin:miter;stroke-width:3;" x="373.95" xlink:href="#me5000c7fa3" y="346.486213"/>
     <use style="fill:#5f9049;stroke:#5f9049;stroke-linejoin:miter;stroke-width:3;" x="394.2" xlink:href="#me5000c7fa3" y="322.660701"/>
     <use style="fill:#5f9049;stroke:#5f9049;stroke-linejoin:miter;stroke-width:3;" x="414.45" xlink:href="#me5000c7fa3" y="295.353756"/>
     <use style="fill:#5f9049;stroke:#5f9049;stroke-linejoin:miter;stroke-width:3;" x="434.7" xlink:href="#me5000c7fa3" y="269.206457"/>
     <use style="fill:#5f9049;stroke:#5f9049;stroke-linejoin:miter;stroke-width:3;" x="454.95" xlink:href="#me5000c7fa3" y="247.446041"/>
     <use style="fill:#5f9049;stroke:#5f9049;stroke-linejoin:miter;stroke-width:3;" x="475.2" xlink:href="#me5000c7fa3" y="228.109327"/>
     <use style="fill:#5f9049;stroke:#5f9049;stroke-linejoin:miter;stroke-width:3;" x="495.45" xlink:href="#me5000c7fa3" y="207.455108"/>
     <use style="fill:#5f9049;stroke:#5f9049;stroke-linejoin:miter;stroke-width:3;" x="515.7" xlink:href="#me5000c7fa3" y="193.510899"/>
     <use style="fill:#5f9049;stroke:#5f9049;stroke-linejoin:miter;stroke-width:3;" x="535.95" xlink:href="#me5000c7fa3" y="185.155443"/>
     <use style="fill:#5f9049;stroke:#5f9049;stroke-linejoin:miter;stroke-width:3;" x="556.2" xlink:href="#me5000c7fa3" y="178.721891"/>
     <use style="fill:#5f9049;stroke:#5f9049;stroke-linejoin:miter;stroke-width:3;" x="576.45" xlink:href="#me5000c7fa3" y="178.203009"/>
     <use style="fill:#5f9049;stroke:#5f9049;stroke-linejoin:miter;stroke-width:3;" x="596.7" xlink:href="#me5000c7fa3" y="173.685528"/>
     <use style="fill:#5f9049;stroke:#5f9049;stroke-linejoin:miter;stroke-width:3;" x="616.95" xlink:href="#me5000c7fa3" y="178.635962"/>
     <use style="fill:#5f9049;stroke:#5f9049;stroke-linejoin:miter;stroke-width:3;" x="637.2" xlink:href="#me5000c7fa3" y="175.923291"/>
    </g>
   </g>
   <g id="line2d_27">
    <defs>
     <path d="M -4 4 
L 4 4 
L 4 -4 
L -4 -4 
z
" id="mde69e166a1" style="stroke:#9ca903;stroke-linejoin:miter;stroke-width:3;"/>
    </defs>
    <g clip-path="url(#p1b4dd29a05)">
     <use style="fill:#9ca903;stroke:#9ca903;stroke-linejoin:miter;stroke-width:3;" x="232.2" xlink:href="#mde69e166a1" y="399.526156"/>
     <use style="fill:#9ca903;stroke:#9ca903;stroke-linejoin:miter;stroke-width:3;" x="252.45" xlink:href="#mde69e166a1" y="391.983885"/>
     <use style="fill:#9ca903;stroke:#9ca903;stroke-linejoin:miter;stroke-width:3;" x="272.7" xlink:href="#mde69e166a1" y="387.090206"/>
     <use style="fill:#9ca903;stroke:#9ca903;stroke-linejoin:miter;stroke-width:3;" x="292.95" xlink:href="#mde69e166a1" y="380.564262"/>
     <use style="fill:#9ca903;stroke:#9ca903;stroke-linejoin:miter;stroke-width:3;" x="313.2" xlink:href="#mde69e166a1" y="368.858739"/>
     <use style="fill:#9ca903;stroke:#9ca903;stroke-linejoin:miter;stroke-width:3;" x="333.45" xlink:href="#mde69e166a1" y="358.443322"/>
     <use style="fill:#9ca903;stroke:#9ca903;stroke-linejoin:miter;stroke-width:3;" x="353.7" xlink:href="#mde69e166a1" y="345.300495"/>
     <use style="fill:#9ca903;stroke:#9ca903;stroke-linejoin:miter;stroke-width:3;" x="373.95" xlink:href="#mde69e166a1" y="328.710306"/>
     <use style="fill:#9ca903;stroke:#9ca903;stroke-linejoin:miter;stroke-width:3;" x="394.2" xlink:href="#mde69e166a1" y="309.072792"/>
     <use style="fill:#9ca903;stroke:#9ca903;stroke-linejoin:miter;stroke-width:3;" x="414.45" xlink:href="#mde69e166a1" y="284.335649"/>
     <use style="fill:#9ca903;stroke:#9ca903;stroke-linejoin:miter;stroke-width:3;" x="434.7" xlink:href="#mde69e166a1" y="260.202103"/>
     <use style="fill:#9ca903;stroke:#9ca903;stroke-linejoin:miter;stroke-width:3;" x="454.95" xlink:href="#mde69e166a1" y="238.865711"/>
     <use style="fill:#9ca903;stroke:#9ca903;stroke-linejoin:miter;stroke-width:3;" x="475.2" xlink:href="#mde69e166a1" y="220.803575"/>
     <use style="fill:#9ca903;stroke:#9ca903;stroke-linejoin:miter;stroke-width:3;" x="495.45" xlink:href="#mde69e166a1" y="203.162855"/>
     <use style="fill:#9ca903;stroke:#9ca903;stroke-linejoin:miter;stroke-width:3;" x="515.7" xlink:href="#mde69e166a1" y="190.032054"/>
     <use style="fill:#9ca903;stroke:#9ca903;stroke-linejoin:miter;stroke-width:3;" x="535.95" xlink:href="#mde69e166a1" y="181.92137"/>
     <use style="fill:#9ca903;stroke:#9ca903;stroke-linejoin:miter;stroke-width:3;" x="556.2" xlink:href="#mde69e166a1" y="176.820008"/>
     <use style="fill:#9ca903;stroke:#9ca903;stroke-linejoin:miter;stroke-width:3;" x="576.45" xlink:href="#mde69e166a1" y="176.369427"/>
     <use style="fill:#9ca903;stroke:#9ca903;stroke-linejoin:miter;stroke-width:3;" x="596.7" xlink:href="#mde69e166a1" y="176.341302"/>
     <use style="fill:#9ca903;stroke:#9ca903;stroke-linejoin:miter;stroke-width:3;" x="616.95" xlink:href="#mde69e166a1" y="178.788395"/>
     <use style="fill:#9ca903;stroke:#9ca903;stroke-linejoin:miter;stroke-width:3;" x="637.2" xlink:href="#mde69e166a1" y="178.647426"/>
    </g>
   </g>
   <g id="line2d_28">
    <defs>
     <path d="M -4 4 
L 4 4 
L 4 -4 
L -4 -4 
z
" id="mb9f7a1dc86" style="stroke:#d7b501;stroke-linejoin:miter;stroke-width:3;"/>
    </defs>
    <g clip-path="url(#p1b4dd29a05)">
     <use style="fill:#d7b501;stroke:#d7b501;stroke-linejoin:miter;stroke-width:3;" x="232.2" xlink:href="#mb9f7a1dc86" y="349.91612"/>
     <use style="fill:#d7b501;stroke:#d7b501;stroke-linejoin:miter;stroke-width:3;" x="252.45" xlink:href="#mb9f7a1dc86" y="343.46228"/>
     <use style="fill:#d7b501;stroke:#d7b501;stroke-linejoin:miter;stroke-width:3;" x="272.7" xlink:href="#mb9f7a1dc86" y="343.38079"/>
     <use style="fill:#d7b501;stroke:#d7b501;stroke-linejoin:miter;stroke-width:3;" x="292.95" xlink:href="#mb9f7a1dc86" y="342.510153"/>
     <use style="fill:#d7b501;stroke:#d7b501;stroke-linejoin:miter;stroke-width:3;" x="313.2" xlink:href="#mb9f7a1dc86" y="333.24006"/>
     <use style="fill:#d7b501;stroke:#d7b501;stroke-linejoin:miter;stroke-width:3;" x="333.45" xlink:href="#mb9f7a1dc86" y="325.158082"/>
     <use style="fill:#d7b501;stroke:#d7b501;stroke-linejoin:miter;stroke-width:3;" x="353.7" xlink:href="#mb9f7a1dc86" y="314.165991"/>
     <use style="fill:#d7b501;stroke:#d7b501;stroke-linejoin:miter;stroke-width:3;" x="373.95" xlink:href="#mb9f7a1dc86" y="300.109914"/>
     <use style="fill:#d7b501;stroke:#d7b501;stroke-linejoin:miter;stroke-width:3;" x="394.2" xlink:href="#mb9f7a1dc86" y="284.691778"/>
     <use style="fill:#d7b501;stroke:#d7b501;stroke-linejoin:miter;stroke-width:3;" x="414.45" xlink:href="#mb9f7a1dc86" y="263.83488"/>
     <use style="fill:#d7b501;stroke:#d7b501;stroke-linejoin:miter;stroke-width:3;" x="434.7" xlink:href="#mb9f7a1dc86" y="243.549605"/>
     <use style="fill:#d7b501;stroke:#d7b501;stroke-linejoin:miter;stroke-width:3;" x="454.95" xlink:href="#mb9f7a1dc86" y="228.206079"/>
     <use style="fill:#d7b501;stroke:#d7b501;stroke-linejoin:miter;stroke-width:3;" x="475.2" xlink:href="#mb9f7a1dc86" y="210.144075"/>
     <use style="fill:#d7b501;stroke:#d7b501;stroke-linejoin:miter;stroke-width:3;" x="495.45" xlink:href="#mb9f7a1dc86" y="196.096957"/>
     <use style="fill:#d7b501;stroke:#d7b501;stroke-linejoin:miter;stroke-width:3;" x="515.7" xlink:href="#mb9f7a1dc86" y="183.790586"/>
     <use style="fill:#d7b501;stroke:#d7b501;stroke-linejoin:miter;stroke-width:3;" x="535.95" xlink:href="#mb9f7a1dc86" y="179.713895"/>
     <use style="fill:#d7b501;stroke:#d7b501;stroke-linejoin:miter;stroke-width:3;" x="556.2" xlink:href="#mb9f7a1dc86" y="177.950793"/>
     <use style="fill:#d7b501;stroke:#d7b501;stroke-linejoin:miter;stroke-width:3;" x="576.45" xlink:href="#mb9f7a1dc86" y="176.899865"/>
     <use style="fill:#d7b501;stroke:#d7b501;stroke-linejoin:miter;stroke-width:3;" x="596.7" xlink:href="#mb9f7a1dc86" y="177.265277"/>
     <use style="fill:#d7b501;stroke:#d7b501;stroke-linejoin:miter;stroke-width:3;" x="616.95" xlink:href="#mb9f7a1dc86" y="176.351834"/>
     <use style="fill:#d7b501;stroke:#d7b501;stroke-linejoin:miter;stroke-width:3;" x="637.2" xlink:href="#mb9f7a1dc86" y="182.134911"/>
    </g>
   </g>
   <g id="line2d_29">
    <defs>
     <path d="M -4 4 
L 4 4 
L 4 -4 
L -4 -4 
z
" id="m4690da3fcc" style="stroke:#eca300;stroke-linejoin:miter;stroke-width:3;"/>
    </defs>
    <g clip-path="url(#p1b4dd29a05)">
     <use style="fill:#eca300;stroke:#eca300;stroke-linejoin:miter;stroke-width:3;" x="232.2" xlink:href="#m4690da3fcc" y="272.453369"/>
     <use style="fill:#eca300;stroke:#eca300;stroke-linejoin:miter;stroke-width:3;" x="252.45" xlink:href="#m4690da3fcc" y="275.575527"/>
     <use style="fill:#eca300;stroke:#eca300;stroke-linejoin:miter;stroke-width:3;" x="272.7" xlink:href="#m4690da3fcc" y="276.962572"/>
     <use style="fill:#eca300;stroke:#eca300;stroke-linejoin:miter;stroke-width:3;" x="292.95" xlink:href="#m4690da3fcc" y="281.959427"/>
     <use style="fill:#eca300;stroke:#eca300;stroke-linejoin:miter;stroke-width:3;" x="313.2" xlink:href="#m4690da3fcc" y="278.459257"/>
     <use style="fill:#eca300;stroke:#eca300;stroke-linejoin:miter;stroke-width:3;" x="333.45" xlink:href="#m4690da3fcc" y="274.050167"/>
     <use style="fill:#eca300;stroke:#eca300;stroke-linejoin:miter;stroke-width:3;" x="353.7" xlink:href="#m4690da3fcc" y="274.130799"/>
     <use style="fill:#eca300;stroke:#eca300;stroke-linejoin:miter;stroke-width:3;" x="373.95" xlink:href="#m4690da3fcc" y="261.016612"/>
     <use style="fill:#eca300;stroke:#eca300;stroke-linejoin:miter;stroke-width:3;" x="394.2" xlink:href="#m4690da3fcc" y="250.176578"/>
     <use style="fill:#eca300;stroke:#eca300;stroke-linejoin:miter;stroke-width:3;" x="414.45" xlink:href="#m4690da3fcc" y="234.502442"/>
     <use style="fill:#eca300;stroke:#eca300;stroke-linejoin:miter;stroke-width:3;" x="434.7" xlink:href="#m4690da3fcc" y="221.675242"/>
     <use style="fill:#eca300;stroke:#eca300;stroke-linejoin:miter;stroke-width:3;" x="454.95" xlink:href="#m4690da3fcc" y="208.2126"/>
     <use style="fill:#eca300;stroke:#eca300;stroke-linejoin:miter;stroke-width:3;" x="475.2" xlink:href="#m4690da3fcc" y="196.17281"/>
     <use style="fill:#eca300;stroke:#eca300;stroke-linejoin:miter;stroke-width:3;" x="495.45" xlink:href="#m4690da3fcc" y="185.831643"/>
     <use style="fill:#eca300;stroke:#eca300;stroke-linejoin:miter;stroke-width:3;" x="515.7" xlink:href="#m4690da3fcc" y="176.109927"/>
     <use style="fill:#eca300;stroke:#eca300;stroke-linejoin:miter;stroke-width:3;" x="535.95" xlink:href="#m4690da3fcc" y="172.963946"/>
     <use style="fill:#eca300;stroke:#eca300;stroke-linejoin:miter;stroke-width:3;" x="556.2" xlink:href="#m4690da3fcc" y="173.701844"/>
     <use style="fill:#eca300;stroke:#eca300;stroke-linejoin:miter;stroke-width:3;" x="576.45" xlink:href="#m4690da3fcc" y="172.892988"/>
     <use style="fill:#eca300;stroke:#eca300;stroke-linejoin:miter;stroke-width:3;" x="596.7" xlink:href="#m4690da3fcc" y="174.434594"/>
     <use style="fill:#eca300;stroke:#eca300;stroke-linejoin:miter;stroke-width:3;" x="616.95" xlink:href="#m4690da3fcc" y="177.621711"/>
     <use style="fill:#eca300;stroke:#eca300;stroke-linejoin:miter;stroke-width:3;" x="637.2" xlink:href="#m4690da3fcc" y="174.029673"/>
    </g>
   </g>
   <g id="line2d_30">
    <defs>
     <path d="M -4 4 
L 4 4 
L 4 -4 
L -4 -4 
z
" id="m724ac661cf" style="stroke:#db7502;stroke-linejoin:miter;stroke-width:3;"/>
    </defs>
    <g clip-path="url(#p1b4dd29a05)">
     <use style="fill:#db7502;stroke:#db7502;stroke-linejoin:miter;stroke-width:3;" x="232.2" xlink:href="#m724ac661cf" y="169.463066"/>
     <use style="fill:#db7502;stroke:#db7502;stroke-linejoin:miter;stroke-width:3;" x="252.45" xlink:href="#m724ac661cf" y="181.128103"/>
     <use style="fill:#db7502;stroke:#db7502;stroke-linejoin:miter;stroke-width:3;" x="272.7" xlink:href="#m724ac661cf" y="190.108011"/>
     <use style="fill:#db7502;stroke:#db7502;stroke-linejoin:miter;stroke-width:3;" x="292.95" xlink:href="#m724ac661cf" y="202.72118"/>
     <use style="fill:#db7502;stroke:#db7502;stroke-linejoin:miter;stroke-width:3;" x="313.2" xlink:href="#m724ac661cf" y="205.25261"/>
     <use style="fill:#db7502;stroke:#db7502;stroke-linejoin:miter;stroke-width:3;" x="333.45" xlink:href="#m724ac661cf" y="209.455347"/>
     <use style="fill:#db7502;stroke:#db7502;stroke-linejoin:miter;stroke-width:3;" x="353.7" xlink:href="#m724ac661cf" y="211.621087"/>
     <use style="fill:#db7502;stroke:#db7502;stroke-linejoin:miter;stroke-width:3;" x="373.95" xlink:href="#m724ac661cf" y="210.204168"/>
     <use style="fill:#db7502;stroke:#db7502;stroke-linejoin:miter;stroke-width:3;" x="394.2" xlink:href="#m724ac661cf" y="206.237343"/>
     <use style="fill:#db7502;stroke:#db7502;stroke-linejoin:miter;stroke-width:3;" x="414.45" xlink:href="#m724ac661cf" y="201.213039"/>
     <use style="fill:#db7502;stroke:#db7502;stroke-linejoin:miter;stroke-width:3;" x="434.7" xlink:href="#m724ac661cf" y="193.236977"/>
     <use style="fill:#db7502;stroke:#db7502;stroke-linejoin:miter;stroke-width:3;" x="454.95" xlink:href="#m724ac661cf" y="185.237843"/>
     <use style="fill:#db7502;stroke:#db7502;stroke-linejoin:miter;stroke-width:3;" x="475.2" xlink:href="#m724ac661cf" y="178.496577"/>
     <use style="fill:#db7502;stroke:#db7502;stroke-linejoin:miter;stroke-width:3;" x="495.45" xlink:href="#m724ac661cf" y="172.344456"/>
     <use style="fill:#db7502;stroke:#db7502;stroke-linejoin:miter;stroke-width:3;" x="515.7" xlink:href="#m724ac661cf" y="168.147578"/>
     <use style="fill:#db7502;stroke:#db7502;stroke-linejoin:miter;stroke-width:3;" x="535.95" xlink:href="#m724ac661cf" y="167.254809"/>
     <use style="fill:#db7502;stroke:#db7502;stroke-linejoin:miter;stroke-width:3;" x="556.2" xlink:href="#m724ac661cf" y="167.218243"/>
     <use style="fill:#db7502;stroke:#db7502;stroke-linejoin:miter;stroke-width:3;" x="576.45" xlink:href="#m724ac661cf" y="170.886575"/>
     <use style="fill:#db7502;stroke:#db7502;stroke-linejoin:miter;stroke-width:3;" x="596.7" xlink:href="#m724ac661cf" y="172.563275"/>
     <use style="fill:#db7502;stroke:#db7502;stroke-linejoin:miter;stroke-width:3;" x="616.95" xlink:href="#m724ac661cf" y="179.297027"/>
     <use style="fill:#db7502;stroke:#db7502;stroke-linejoin:miter;stroke-width:3;" x="637.2" xlink:href="#m724ac661cf" y="173.038248"/>
    </g>
   </g>
  </g>
 </g>
 <defs>
  <clipPath id="p1b4dd29a05">
   <rect height="453.6" width="615.6" x="86.4" y="21.6"/>
  </clipPath>
 </defs>
</svg>
