<?xml version="1.0" encoding="utf-8" standalone="no"?>
<!DOCTYPE svg PUBLIC "-//W3C//DTD SVG 1.1//EN"
  "http://www.w3.org/Graphics/SVG/1.1/DTD/svg11.dtd">
<!-- Created with matplotlib (http://matplotlib.org/) -->
<svg height="165.6pt" version="1.1" viewBox="0 0 226.8 165.6" width="226.8pt" xmlns="http://www.w3.org/2000/svg" xmlns:xlink="http://www.w3.org/1999/xlink">
 <defs>
  <style type="text/css">
*{stroke-linecap:butt;stroke-linejoin:round;}
  </style>
 </defs>
 <g id="figure_1">
  <g id="patch_1">
   <path d="M 0 165.6 
L 226.8 165.6 
L 226.8 0 
L 0 0 
z
" style="fill:#ffffff;"/>
  </g>
  <g id="axes_1">
   <g id="patch_2">
    <path d="M 31.752 140.76 
L 222.264 140.76 
L 222.264 3.312 
L 31.752 3.312 
z
" style="fill:#ffffff;"/>
   </g>
   <g id="PolyCollection_1">
    <defs>
     <path d="M 32.108145 -118.589015 
L 32.108145 -208.104 
L 34.030567 -208.104 
L 36.914034 -208.104 
L 40.950954 -208.104 
L 43.065452 -208.104 
L 46.141161 -208.104 
L 48.255825 -208.104 
L 50.946884 -208.104 
L 53.445867 -208.104 
L 55.752442 -208.104 
L 57.290213 -208.104 
L 59.981273 -208.104 
L 62.480089 -208.104 
L 65.171148 -208.104 
L 67.573679 -208.104 
L 70.168451 -208.104 
L 72.666936 -208.104 
L 73.627981 -208.104 
L 77.087843 -208.104 
L 78.625449 -208.104 
L 81.316177 -208.104 
L 82.853617 -208.104 
L 84.10286 -208.104 
L 86.505556 -208.104 
L 88.619557 -208.104 
L 89.676557 -208.104 
L 91.502361 -208.104 
L 95.346044 -208.104 
L 96.691243 -208.104 
L 98.228683 -208.104 
L 99.9582 -208.104 
L 101.207277 -208.104 
L 102.744717 -208.104 
L 103.609475 -208.104 
L 105.338992 -208.104 
L 106.876266 -208.104 
L 109.182344 -208.104 
L 111.296179 -208.104 
L 112.737333 -208.104 
L 116.004124 -208.104 
L 117.82943 -208.104 
L 120.327584 -208.104 
L 122.633165 -208.104 
L 124.650713 -208.104 
L 126.572141 -208.104 
L 128.397447 -208.104 
L 129.93439 -208.104 
L 131.951939 -208.104 
L 134.449595 -208.104 
L 136.851131 -208.104 
L 137.811679 -208.104 
L 139.348456 -208.104 
L 142.230266 -208.104 
L 144.535846 -208.104 
L 146.264866 -208.104 
L 147.41749 -208.104 
L 149.914816 -208.104 
L 152.027822 -208.104 
L 152.411975 -208.104 
L 154.332906 -208.104 
L 155.485364 -208.104 
L 157.982524 -208.104 
L 160.287607 -208.104 
L 161.055913 -208.104 
L 162.016295 -208.104 
L 163.360996 -208.104 
L 166.049901 -208.104 
L 167.010283 -208.104 
L 168.546895 -208.104 
L 171.427876 -208.104 
L 173.156398 -208.104 
L 176.1335 -208.104 
L 177.381914 -208.104 
L 178.72645 -208.104 
L 181.031201 -208.104 
L 183.143877 -208.104 
L 185.064475 -208.104 
L 187.84917 -208.104 
L 189.28966 -208.104 
L 191.40217 -208.104 
L 194.475061 -208.104 
L 196.779813 -208.104 
L 198.50817 -208.104 
L 201.196909 -208.104 
L 205.038272 -208.104 
L 207.150947 -208.104 
L 209.263623 -208.104 
L 211.568043 -208.104 
L 214.44919 -208.104 
L 217.042139 -208.104 
L 219.731209 -208.104 
L 221.363776 -208.104 
L 221.363776 -59.723354 
L 221.363776 -59.723354 
L 219.731209 -60.57648 
L 217.042139 -61.903564 
L 214.44919 -63.230648 
L 211.568043 -64.652524 
L 209.263623 -66.0744 
L 207.150947 -67.211901 
L 205.038272 -68.349401 
L 201.196909 -70.340028 
L 198.50817 -71.856695 
L 196.779813 -72.899404 
L 194.475061 -74.131697 
L 191.40217 -75.837948 
L 189.28966 -77.07024 
L 187.84917 -77.828574 
L 185.064475 -79.440033 
L 183.143877 -80.482742 
L 181.031201 -81.620243 
L 178.72645 -82.852535 
L 177.381914 -83.516077 
L 176.1335 -84.179619 
L 173.156398 -85.696287 
L 171.427876 -86.644204 
L 168.546895 -88.160872 
L 167.010283 -88.919206 
L 166.049901 -89.393164 
L 163.360996 -90.81504 
L 162.016295 -91.38379 
L 161.055913 -91.857749 
L 160.287607 -92.236916 
L 157.982524 -93.279625 
L 155.485364 -94.417126 
L 154.332906 -94.985876 
L 152.411975 -95.839001 
L 152.027822 -96.028585 
L 149.914816 -96.976502 
L 147.41749 -98.019211 
L 146.264866 -98.49317 
L 144.535846 -99.156712 
L 142.230266 -99.915046 
L 139.348456 -100.957754 
L 137.811679 -101.621297 
L 136.851131 -102.000463 
L 134.449595 -102.853589 
L 131.951939 -103.706714 
L 129.93439 -104.275465 
L 128.397447 -104.844215 
L 126.572141 -105.412966 
L 124.650713 -105.981716 
L 122.633165 -106.550466 
L 120.327584 -107.3088 
L 117.82943 -107.87755 
L 116.004124 -108.446301 
L 112.737333 -109.204634 
L 111.296179 -109.583801 
L 109.182344 -110.05776 
L 106.876266 -110.531719 
L 105.338992 -110.910886 
L 103.609475 -111.290052 
L 102.744717 -111.479636 
L 101.207277 -111.764011 
L 99.9582 -112.048386 
L 98.228683 -112.427553 
L 96.691243 -112.711928 
L 95.346044 -112.996303 
L 91.502361 -113.659846 
L 89.676557 -113.944221 
L 88.619557 -114.133804 
L 86.505556 -114.512971 
L 84.10286 -114.702554 
L 82.853617 -114.892138 
L 81.316177 -115.176513 
L 78.625449 -115.55568 
L 77.087843 -115.745263 
L 73.627981 -116.029639 
L 72.666936 -116.12443 
L 70.168451 -116.503597 
L 67.573679 -116.787972 
L 65.171148 -117.072348 
L 62.480089 -117.261931 
L 59.981273 -117.451514 
L 57.290213 -117.641098 
L 55.752442 -117.73589 
L 53.445867 -117.925473 
L 50.946884 -118.020265 
L 48.255825 -118.209848 
L 46.141161 -118.209848 
L 43.065452 -118.30464 
L 40.950954 -118.399432 
L 36.914034 -118.494223 
L 34.030567 -118.589015 
L 32.108145 -118.589015 
z
" id="m895376197c" style="stroke:#d9ecdd;"/>
    </defs>
    <g clip-path="url(#pa9eaf98e6b)">
     <use style="fill:#d9ecdd;stroke:#d9ecdd;" x="0" xlink:href="#m895376197c" y="165.6"/>
    </g>
   </g>
   <g id="PolyCollection_2">
    <defs>
     <path d="M 32.108145 -118.589015 
L 32.108145 -24.84 
L 34.030567 -24.84 
L 36.914034 -24.84 
L 40.950954 -24.84 
L 43.065452 -24.84 
L 46.141161 -24.84 
L 48.255825 -24.84 
L 50.946884 -24.84 
L 53.445867 -24.84 
L 55.752442 -24.84 
L 57.290213 -24.84 
L 59.981273 -24.84 
L 62.480089 -24.84 
L 65.171148 -24.84 
L 67.573679 -24.84 
L 70.168451 -24.84 
L 72.666936 -24.84 
L 73.627981 -24.84 
L 77.087843 -24.84 
L 78.625449 -24.84 
L 81.316177 -24.84 
L 82.853617 -24.84 
L 84.10286 -24.84 
L 86.505556 -24.84 
L 88.619557 -24.84 
L 89.676557 -24.84 
L 91.502361 -24.84 
L 95.346044 -24.84 
L 96.691243 -24.84 
L 98.228683 -24.84 
L 99.9582 -24.84 
L 101.207277 -24.84 
L 102.744717 -24.84 
L 103.609475 -24.84 
L 105.338992 -24.84 
L 106.876266 -24.84 
L 109.182344 -24.84 
L 111.296179 -24.84 
L 112.737333 -24.84 
L 116.004124 -24.84 
L 117.82943 -24.84 
L 120.327584 -24.84 
L 122.633165 -24.84 
L 124.650713 -24.84 
L 126.572141 -24.84 
L 128.397447 -24.84 
L 129.93439 -24.84 
L 131.951939 -24.84 
L 134.449595 -24.84 
L 136.851131 -24.84 
L 137.811679 -24.84 
L 139.348456 -24.84 
L 142.230266 -24.84 
L 144.535846 -24.84 
L 146.264866 -24.84 
L 147.41749 -24.84 
L 149.914816 -24.84 
L 152.027822 -24.84 
L 152.411975 -24.84 
L 154.332906 -24.84 
L 155.485364 -24.84 
L 157.982524 -24.84 
L 160.287607 -24.84 
L 161.055913 -24.84 
L 162.016295 -24.84 
L 163.360996 -24.84 
L 166.049901 -24.84 
L 167.010283 -24.84 
L 168.546895 -24.84 
L 171.427876 -24.84 
L 173.156398 -24.84 
L 176.1335 -24.84 
L 177.381914 -24.84 
L 178.72645 -24.84 
L 181.031201 -24.84 
L 183.143877 -24.84 
L 185.064475 -24.84 
L 187.84917 -24.84 
L 189.28966 -24.84 
L 191.40217 -24.84 
L 194.475061 -24.84 
L 196.779813 -24.84 
L 198.50817 -24.84 
L 201.196909 -24.84 
L 205.038272 -24.84 
L 207.150947 -24.84 
L 209.263623 -24.84 
L 211.568043 -24.84 
L 214.44919 -24.84 
L 217.042139 -24.84 
L 219.731209 -24.84 
L 221.363776 -24.84 
L 221.363776 -59.723354 
L 221.363776 -59.723354 
L 219.731209 -60.57648 
L 217.042139 -61.903564 
L 214.44919 -63.230648 
L 211.568043 -64.652524 
L 209.263623 -66.0744 
L 207.150947 -67.211901 
L 205.038272 -68.349401 
L 201.196909 -70.340028 
L 198.50817 -71.856695 
L 196.779813 -72.899404 
L 194.475061 -74.131697 
L 191.40217 -75.837948 
L 189.28966 -77.07024 
L 187.84917 -77.828574 
L 185.064475 -79.440033 
L 183.143877 -80.482742 
L 181.031201 -81.620243 
L 178.72645 -82.852535 
L 177.381914 -83.516077 
L 176.1335 -84.179619 
L 173.156398 -85.696287 
L 171.427876 -86.644204 
L 168.546895 -88.160872 
L 167.010283 -88.919206 
L 166.049901 -89.393164 
L 163.360996 -90.81504 
L 162.016295 -91.38379 
L 161.055913 -91.857749 
L 160.287607 -92.236916 
L 157.982524 -93.279625 
L 155.485364 -94.417126 
L 154.332906 -94.985876 
L 152.411975 -95.839001 
L 152.027822 -96.028585 
L 149.914816 -96.976502 
L 147.41749 -98.019211 
L 146.264866 -98.49317 
L 144.535846 -99.156712 
L 142.230266 -99.915046 
L 139.348456 -100.957754 
L 137.811679 -101.621297 
L 136.851131 -102.000463 
L 134.449595 -102.853589 
L 131.951939 -103.706714 
L 129.93439 -104.275465 
L 128.397447 -104.844215 
L 126.572141 -105.412966 
L 124.650713 -105.981716 
L 122.633165 -106.550466 
L 120.327584 -107.3088 
L 117.82943 -107.87755 
L 116.004124 -108.446301 
L 112.737333 -109.204634 
L 111.296179 -109.583801 
L 109.182344 -110.05776 
L 106.876266 -110.531719 
L 105.338992 -110.910886 
L 103.609475 -111.290052 
L 102.744717 -111.479636 
L 101.207277 -111.764011 
L 99.9582 -112.048386 
L 98.228683 -112.427553 
L 96.691243 -112.711928 
L 95.346044 -112.996303 
L 91.502361 -113.659846 
L 89.676557 -113.944221 
L 88.619557 -114.133804 
L 86.505556 -114.512971 
L 84.10286 -114.702554 
L 82.853617 -114.892138 
L 81.316177 -115.176513 
L 78.625449 -115.55568 
L 77.087843 -115.745263 
L 73.627981 -116.029639 
L 72.666936 -116.12443 
L 70.168451 -116.503597 
L 67.573679 -116.787972 
L 65.171148 -117.072348 
L 62.480089 -117.261931 
L 59.981273 -117.451514 
L 57.290213 -117.641098 
L 55.752442 -117.73589 
L 53.445867 -117.925473 
L 50.946884 -118.020265 
L 48.255825 -118.209848 
L 46.141161 -118.209848 
L 43.065452 -118.30464 
L 40.950954 -118.399432 
L 36.914034 -118.494223 
L 34.030567 -118.589015 
L 32.108145 -118.589015 
z
" id="ma0574cd0d8" style="stroke:#d7d7d7;"/>
    </defs>
    <g clip-path="url(#pa9eaf98e6b)">
     <use style="fill:#d7d7d7;stroke:#d7d7d7;" x="0" xlink:href="#ma0574cd0d8" y="165.6"/>
    </g>
   </g>
   <g id="PolyCollection_3">
    <defs>
     <path d="M 31.976393 -24.84 
L 31.976393 -98.208794 
L 32.072514 -98.208794 
L 34.763739 -98.114003 
L 38.992901 -98.019211 
L 41.491884 -97.924419 
L 44.567593 -97.829628 
L 46.874333 -97.734836 
L 50.911088 -97.545252 
L 53.79472 -97.545252 
L 56.101295 -97.355669 
L 59.368915 -97.071294 
L 62.25205 -96.786919 
L 66.288473 -96.407752 
L 70.709546 -96.123377 
L 73.977 -95.74421 
L 77.629105 -95.459834 
L 80.031635 -95.175459 
L 83.971771 -94.701501 
L 90.314105 -93.753583 
L 96.079548 -92.710874 
L 101.268429 -91.762957 
L 106.649387 -90.720248 
L 111.453453 -89.582748 
L 114.33576 -88.824414 
L 120.100871 -87.592121 
L 125.865319 -85.980662 
L 129.90025 -84.74837 
L 132.974302 -83.705661 
L 137.393387 -82.283785 
L 140.659349 -81.051492 
L 145.077936 -79.345241 
L 149.88051 -77.354615 
L 152.185594 -76.311906 
L 157.179747 -73.942113 
L 161.59734 -71.667112 
L 164.094168 -70.340028 
L 166.590665 -68.82336 
L 170.335244 -66.453567 
L 172.735123 -64.652524 
L 174.846803 -62.946273 
L 176.477547 -61.050439 
L 176.477547 -24.84 
L 176.477547 -24.84 
L 174.846803 -24.84 
L 172.735123 -24.84 
L 170.335244 -24.84 
L 166.590665 -24.84 
L 164.094168 -24.84 
L 161.59734 -24.84 
L 157.179747 -24.84 
L 152.185594 -24.84 
L 149.88051 -24.84 
L 145.077936 -24.84 
L 140.659349 -24.84 
L 137.393387 -24.84 
L 132.974302 -24.84 
L 129.90025 -24.84 
L 125.865319 -24.84 
L 120.100871 -24.84 
L 114.33576 -24.84 
L 111.453453 -24.84 
L 106.649387 -24.84 
L 101.268429 -24.84 
L 96.079548 -24.84 
L 90.314105 -24.84 
L 83.971771 -24.84 
L 80.031635 -24.84 
L 77.629105 -24.84 
L 73.977 -24.84 
L 70.709546 -24.84 
L 66.288473 -24.84 
L 62.25205 -24.84 
L 59.368915 -24.84 
L 56.101295 -24.84 
L 53.79472 -24.84 
L 50.911088 -24.84 
L 46.874333 -24.84 
L 44.567593 -24.84 
L 41.491884 -24.84 
L 38.992901 -24.84 
L 34.763739 -24.84 
L 32.072514 -24.84 
L 31.976393 -24.84 
z
" id="me66c78b70e" style="stroke:#db7502;"/>
    </defs>
    <g clip-path="url(#pa9eaf98e6b)">
     <use style="fill:#db7502;stroke:#db7502;" x="0" xlink:href="#me66c78b70e" y="165.6"/>
    </g>
   </g>
   <g id="PolyCollection_4">
    <defs>
     <path d="M 32.086819 -24.84 
L 32.086819 -97.952979 
L 37.276513 -97.948488 
L 39.285427 -97.864323 
L 43.135845 -97.778563 
L 46.149216 -97.693528 
L 48.827768 -97.526355 
L 51.171501 -97.277044 
L 54.519691 -97.109292 
L 57.533062 -96.859401 
L 59.709385 -96.692663 
L 63.057575 -96.277628 
L 64.56426 -96.111469 
L 68.414678 -95.860854 
L 71.26064 -95.528681 
L 73.771782 -95.279225 
L 75.445877 -94.948066 
L 77.957019 -94.616183 
L 82.142257 -94.117996 
L 86.662313 -93.537092 
L 89.675684 -93.039918 
L 93.526102 -92.129883 
L 97.37652 -91.384703 
L 99.720253 -90.888109 
L 102.901033 -90.308364 
L 106.249223 -89.481191 
L 108.760366 -88.819597 
L 110.936689 -88.323148 
L 113.113012 -87.744272 
L 114.619698 -87.413258 
L 116.963431 -86.751809 
L 122.487944 -85.34576 
L 125.333905 -84.519021 
L 128.012457 -83.61 
L 130.858418 -82.618406 
L 132.197694 -82.040254 
L 135.880703 -80.635798 
L 139.145188 -79.396559 
L 140.735578 -78.81819 
L 144.920815 -77.330872 
L 147.264548 -76.257285 
L 149.775691 -75.101126 
L 152.119424 -74.109967 
L 154.044633 -73.201598 
L 156.304661 -72.128083 
L 157.895051 -71.302431 
L 159.569146 -70.559134 
L 161.829174 -69.320765 
L 165.344773 -67.504316 
L 168.609258 -65.523229 
L 171.538924 -63.624859 
L 174.217476 -61.644279 
L 176.477547 -61.050439 
L 176.477547 -24.84 
L 176.477547 -24.84 
L 174.217476 -24.84 
L 171.538924 -24.84 
L 168.609258 -24.84 
L 165.344773 -24.84 
L 161.829174 -24.84 
L 159.569146 -24.84 
L 157.895051 -24.84 
L 156.304661 -24.84 
L 154.044633 -24.84 
L 152.119424 -24.84 
L 149.775691 -24.84 
L 147.264548 -24.84 
L 144.920815 -24.84 
L 140.735578 -24.84 
L 139.145188 -24.84 
L 135.880703 -24.84 
L 132.197694 -24.84 
L 130.858418 -24.84 
L 128.012457 -24.84 
L 125.333905 -24.84 
L 122.487944 -24.84 
L 116.963431 -24.84 
L 114.619698 -24.84 
L 113.113012 -24.84 
L 110.936689 -24.84 
L 108.760366 -24.84 
L 106.249223 -24.84 
L 102.901033 -24.84 
L 99.720253 -24.84 
L 97.37652 -24.84 
L 93.526102 -24.84 
L 89.675684 -24.84 
L 86.662313 -24.84 
L 82.142257 -24.84 
L 77.957019 -24.84 
L 75.445877 -24.84 
L 73.771782 -24.84 
L 71.26064 -24.84 
L 68.414678 -24.84 
L 64.56426 -24.84 
L 63.057575 -24.84 
L 59.709385 -24.84 
L 57.533062 -24.84 
L 54.519691 -24.84 
L 51.171501 -24.84 
L 48.827768 -24.84 
L 46.149216 -24.84 
L 43.135845 -24.84 
L 39.285427 -24.84 
L 37.276513 -24.84 
L 32.086819 -24.84 
z
" id="m03835a89c2" style="stroke:#90d8f8;"/>
    </defs>
    <g clip-path="url(#pa9eaf98e6b)">
     <use style="fill:#90d8f8;stroke:#90d8f8;" x="0" xlink:href="#m03835a89c2" y="165.6"/>
    </g>
   </g>
   <g id="PolyCollection_5">
    <defs>
     <path d="M 176.669293 -24.84 
L 176.669293 -60.766063 
L 178.973216 -59.059812 
L 180.60396 -57.163978 
L 182.138417 -55.173352 
L 183.4803 -52.993142 
L 184.726063 -50.812932 
L 185.875373 -48.443139 
L 186.832109 -45.883763 
L 187.693056 -43.51397 
L 188.458047 -41.238968 
L 189.22221 -38.490008 
L 189.698506 -36.025423 
L 190.174969 -33.65563 
L 190.36257 -31.001462 
L 190.550006 -28.252502 
L 190.640659 -25.124375 
L 190.640659 -24.84 
L 190.640659 -24.84 
L 190.550006 -24.84 
L 190.36257 -24.84 
L 190.174969 -24.84 
L 189.698506 -24.84 
L 189.22221 -24.84 
L 188.458047 -24.84 
L 187.693056 -24.84 
L 186.832109 -24.84 
L 185.875373 -24.84 
L 184.726063 -24.84 
L 183.4803 -24.84 
L 182.138417 -24.84 
L 180.60396 -24.84 
L 178.973216 -24.84 
L 176.669293 -24.84 
z
" id="m99c055a693" style="stroke:#90d8f8;"/>
    </defs>
    <g clip-path="url(#pa9eaf98e6b)">
     <use style="fill:#90d8f8;stroke:#90d8f8;" x="0" xlink:href="#m99c055a693" y="165.6"/>
    </g>
   </g>
   <g id="matplotlib.axis_1">
    <g id="xtick_1">
     <g id="line2d_1">
      <defs>
       <path d="M 0 0 
L 0 -2.5 
" id="mea9281aad5" style="stroke:#000000;stroke-width:0.8;"/>
      </defs>
      <g>
       <use style="stroke:#000000;stroke-width:0.8;" x="31.752" xlink:href="#mea9281aad5" y="140.76"/>
      </g>
     </g>
     <g id="line2d_2">
      <defs>
       <path d="M 0 0 
L 0 2.5 
" id="m3c23263676" style="stroke:#000000;stroke-width:0.8;"/>
      </defs>
      <g>
       <use style="stroke:#000000;stroke-width:0.8;" x="31.752" xlink:href="#m3c23263676" y="3.312"/>
      </g>
     </g>
     <g id="text_1">
      <!-- $0$ -->
      <defs>
       <path d="M 47.703125 33 
Q 47.703125 23.796875 45.546875 16.34375 
Q 43.40625 8.90625 38.09375 3.75 
Q 32.796875 -1.40625 25 -1.40625 
Q 18.796875 -1.40625 14.25 1.6875 
Q 9.703125 4.796875 7.203125 10.046875 
Q 4.703125 15.296875 3.5 21.140625 
Q 2.296875 27 2.296875 33.59375 
Q 2.296875 42.90625 4.59375 50.34375 
Q 6.90625 57.796875 12.296875 62.6875 
Q 17.703125 67.59375 25.40625 67.59375 
Q 35.203125 67.59375 41.453125 57.9375 
Q 47.703125 48.296875 47.703125 33 
z
M 39.796875 33 
Q 39.796875 45.203125 35.75 52.84375 
Q 31.703125 60.5 25.203125 60.5 
Q 17.796875 60.5 14 52.75 
Q 10.203125 45 10.203125 33.40625 
Q 10.203125 28.203125 10.953125 23.546875 
Q 11.703125 18.90625 13.34375 14.75 
Q 15 10.59375 18 8.140625 
Q 21 5.703125 25 5.703125 
Q 30.09375 5.703125 33.546875 9.796875 
Q 37 13.90625 38.390625 19.84375 
Q 39.796875 25.796875 39.796875 33 
z
" id="STIXGeneral-Regular-1d7e2"/>
      </defs>
      <g transform="translate(29.752 150.33875)scale(0.08 -0.08)">
       <use transform="translate(0 0.40625)" xlink:href="#STIXGeneral-Regular-1d7e2"/>
      </g>
     </g>
    </g>
    <g id="xtick_2">
     <g id="line2d_3">
      <g>
       <use style="stroke:#000000;stroke-width:0.8;" x="69.8544" xlink:href="#mea9281aad5" y="140.76"/>
      </g>
     </g>
     <g id="line2d_4">
      <g>
       <use style="stroke:#000000;stroke-width:0.8;" x="69.8544" xlink:href="#m3c23263676" y="3.312"/>
      </g>
     </g>
     <g id="text_2">
      <!-- $0.2$ -->
      <defs>
       <path d="M 18.09375 4.296875 
Q 18.09375 2.09375 16.4375 0.5 
Q 14.796875 -1.09375 12.5 -1.09375 
Q 10.203125 -1.09375 8.59375 0.5 
Q 7 2.09375 7 4.390625 
Q 7 6.703125 8.640625 8.34375 
Q 10.296875 10 12.59375 10 
Q 14.796875 10 16.4375 8.296875 
Q 18.09375 6.59375 18.09375 4.296875 
z
" id="STIXGeneral-Regular-2e"/>
       <path d="M 46.90625 7.09375 
L 44 0 
L 3.5 0 
L 3.5 2.09375 
L 21 23.5 
L 21 23.40625 
L 26.59375 30.203125 
Q 30.5 34.90625 32.09375 36.953125 
Q 33.703125 39 35.203125 41.953125 
Q 36.703125 44.90625 36.703125 47.5 
Q 36.703125 53.703125 33.34375 57.09375 
Q 30 60.5 24.203125 60.5 
Q 19.59375 60.5 15.75 56.703125 
Q 11.90625 52.90625 10.90625 45.90625 
L 3.703125 47.59375 
Q 5.296875 56.5 11.1875 62.046875 
Q 17.09375 67.59375 24.90625 67.59375 
Q 33.59375 67.59375 39.09375 62.1875 
Q 44.59375 56.796875 44.59375 49.09375 
Q 44.59375 43.5 42.5 39.453125 
Q 40.40625 35.40625 33.703125 27 
L 17.703125 7.09375 
z
" id="STIXGeneral-Regular-1d7e4"/>
      </defs>
      <g transform="translate(64.8544 150.33875)scale(0.08 -0.08)">
       <use transform="translate(0 0.40625)" xlink:href="#STIXGeneral-Regular-1d7e2"/>
       <use transform="translate(49.999985 0.40625)" xlink:href="#STIXGeneral-Regular-2e"/>
       <use transform="translate(74.999969 0.40625)" xlink:href="#STIXGeneral-Regular-1d7e4"/>
      </g>
     </g>
    </g>
    <g id="xtick_3">
     <g id="line2d_5">
      <g>
       <use style="stroke:#000000;stroke-width:0.8;" x="107.9568" xlink:href="#mea9281aad5" y="140.76"/>
      </g>
     </g>
     <g id="line2d_6">
      <g>
       <use style="stroke:#000000;stroke-width:0.8;" x="107.9568" xlink:href="#m3c23263676" y="3.312"/>
      </g>
     </g>
     <g id="text_3">
      <!-- $0.4$ -->
      <defs>
       <path d="M 48.90625 23.59375 
L 45.59375 16.5 
L 37.296875 16.5 
L 37.296875 0 
L 29.40625 0 
L 29.40625 16.5 
L 1.09375 16.5 
L 1.09375 23.296875 
L 32.296875 67.59375 
L 37.296875 67.59375 
L 37.296875 23.59375 
z
M 29.40625 23.59375 
L 29.40625 51 
L 10 23.59375 
z
" id="STIXGeneral-Regular-1d7e6"/>
      </defs>
      <g transform="translate(102.9568 150.33875)scale(0.08 -0.08)">
       <use transform="translate(0 0.40625)" xlink:href="#STIXGeneral-Regular-1d7e2"/>
       <use transform="translate(49.999985 0.40625)" xlink:href="#STIXGeneral-Regular-2e"/>
       <use transform="translate(74.999969 0.40625)" xlink:href="#STIXGeneral-Regular-1d7e6"/>
      </g>
     </g>
    </g>
    <g id="xtick_4">
     <g id="line2d_7">
      <g>
       <use style="stroke:#000000;stroke-width:0.8;" x="146.0592" xlink:href="#mea9281aad5" y="140.76"/>
      </g>
     </g>
     <g id="line2d_8">
      <g>
       <use style="stroke:#000000;stroke-width:0.8;" x="146.0592" xlink:href="#m3c23263676" y="3.312"/>
      </g>
     </g>
     <g id="text_4">
      <!-- $0.6$ -->
      <defs>
       <path d="M 44.796875 66.796875 
L 43 61.5 
Q 31.59375 60.703125 23.640625 54.953125 
Q 15.703125 49.203125 12.203125 38.796875 
Q 18.09375 43.09375 25.90625 43.09375 
Q 34.5 43.09375 40.75 37.296875 
Q 47 31.5 47 22 
Q 47 12.296875 40.953125 5.4375 
Q 34.90625 -1.40625 25.703125 -1.40625 
Q 18 -1.40625 12.75 2.640625 
Q 7.5 6.703125 5.34375 12.75 
Q 3.203125 18.796875 3.203125 26.40625 
Q 3.203125 34.90625 6.203125 43.046875 
Q 9.203125 51.203125 14.296875 56.203125 
Q 21 62.796875 27.09375 65.046875 
Q 33.203125 67.296875 44.703125 68.40625 
z
M 39 20.703125 
Q 39 27.90625 34.890625 31.953125 
Q 30.796875 36 25.09375 36 
Q 19.90625 36 16 32.953125 
Q 12.09375 29.90625 11.203125 24 
Q 11.203125 15.90625 15.203125 10.796875 
Q 19.203125 5.703125 26 5.703125 
Q 31.5 5.703125 35.25 9.953125 
Q 39 14.203125 39 20.703125 
z
" id="STIXGeneral-Regular-1d7e8"/>
      </defs>
      <g transform="translate(141.0592 150.33875)scale(0.08 -0.08)">
       <use transform="translate(0 0.59375)" xlink:href="#STIXGeneral-Regular-1d7e2"/>
       <use transform="translate(49.999985 0.59375)" xlink:href="#STIXGeneral-Regular-2e"/>
       <use transform="translate(74.999969 0.59375)" xlink:href="#STIXGeneral-Regular-1d7e8"/>
      </g>
     </g>
    </g>
    <g id="xtick_5">
     <g id="line2d_9">
      <g>
       <use style="stroke:#000000;stroke-width:0.8;" x="184.1616" xlink:href="#mea9281aad5" y="140.76"/>
      </g>
     </g>
     <g id="line2d_10">
      <g>
       <use style="stroke:#000000;stroke-width:0.8;" x="184.1616" xlink:href="#m3c23263676" y="3.312"/>
      </g>
     </g>
     <g id="text_5">
      <!-- $0.8$ -->
      <defs>
       <path d="M 44.703125 16.09375 
Q 44.703125 8.796875 39.390625 3.6875 
Q 34.09375 -1.40625 24.796875 -1.40625 
Q 16.296875 -1.40625 10.59375 3.4375 
Q 4.90625 8.296875 4.90625 15.40625 
Q 4.90625 20.796875 7.75 25.25 
Q 10.59375 29.703125 17.703125 34.5 
Q 6 41.40625 6 51.40625 
Q 6 58.59375 11.546875 63.09375 
Q 17.09375 67.59375 25.59375 67.59375 
Q 32.90625 67.59375 37.796875 62.84375 
Q 42.703125 58.09375 42.703125 52 
Q 42.703125 46.40625 40.09375 42.703125 
Q 37.5 39 31.09375 35.296875 
Q 44.703125 27 44.703125 16.09375 
z
M 35.5 51.5 
Q 35.5 55.5 32.390625 58 
Q 29.296875 60.5 24.40625 60.5 
Q 19.796875 60.5 16.84375 57.84375 
Q 13.90625 55.203125 13.90625 51.796875 
Q 13.90625 47.5 16.34375 44.84375 
Q 18.796875 42.203125 24.90625 39.40625 
Q 35.5 45.203125 35.5 51.5 
z
M 27.59375 28.59375 
L 24.09375 30.5 
Q 18.90625 28.703125 15.84375 24.640625 
Q 12.796875 20.59375 12.796875 16.296875 
Q 12.796875 11.796875 16 8.75 
Q 19.203125 5.703125 25.203125 5.703125 
Q 29.796875 5.703125 33.296875 8.453125 
Q 36.796875 11.203125 36.796875 15.796875 
Q 36.796875 20 34.6875 22.953125 
Q 32.59375 25.90625 27.59375 28.59375 
z
" id="STIXGeneral-Regular-1d7ea"/>
      </defs>
      <g transform="translate(179.1616 150.33875)scale(0.08 -0.08)">
       <use transform="translate(0 0.40625)" xlink:href="#STIXGeneral-Regular-1d7e2"/>
       <use transform="translate(49.999985 0.40625)" xlink:href="#STIXGeneral-Regular-2e"/>
       <use transform="translate(74.999969 0.40625)" xlink:href="#STIXGeneral-Regular-1d7ea"/>
      </g>
     </g>
    </g>
    <g id="xtick_6">
     <g id="line2d_11">
      <g>
       <use style="stroke:#000000;stroke-width:0.8;" x="222.264" xlink:href="#mea9281aad5" y="140.76"/>
      </g>
     </g>
     <g id="line2d_12">
      <g>
       <use style="stroke:#000000;stroke-width:0.8;" x="222.264" xlink:href="#m3c23263676" y="3.312"/>
      </g>
     </g>
     <g id="text_6">
      <!-- $1$ -->
      <defs>
       <path d="M 30.203125 0 
L 22.296875 0 
L 22.296875 57 
Q 20.09375 56 15.75 53.75 
Q 11.40625 51.5 10.796875 51.203125 
L 10.796875 58.5 
L 28.796875 67.703125 
L 30.203125 67.203125 
z
" id="STIXGeneral-Regular-1d7e3"/>
      </defs>
      <g transform="translate(220.264 150.33875)scale(0.08 -0.08)">
       <use transform="translate(0 0.296875)" xlink:href="#STIXGeneral-Regular-1d7e3"/>
      </g>
     </g>
    </g>
    <g id="xtick_7">
     <g id="line2d_13">
      <defs>
       <path d="M 0 0 
L 0 -1.5 
" id="mf7447205b2" style="stroke:#000000;stroke-width:0.6;"/>
      </defs>
      <g>
       <use style="stroke:#000000;stroke-width:0.6;" x="50.8032" xlink:href="#mf7447205b2" y="140.76"/>
      </g>
     </g>
     <g id="line2d_14">
      <defs>
       <path d="M 0 0 
L 0 1.5 
" id="m37e9e8464d" style="stroke:#000000;stroke-width:0.6;"/>
      </defs>
      <g>
       <use style="stroke:#000000;stroke-width:0.6;" x="50.8032" xlink:href="#m37e9e8464d" y="3.312"/>
      </g>
     </g>
    </g>
    <g id="xtick_8">
     <g id="line2d_15">
      <g>
       <use style="stroke:#000000;stroke-width:0.6;" x="88.9056" xlink:href="#mf7447205b2" y="140.76"/>
      </g>
     </g>
     <g id="line2d_16">
      <g>
       <use style="stroke:#000000;stroke-width:0.6;" x="88.9056" xlink:href="#m37e9e8464d" y="3.312"/>
      </g>
     </g>
    </g>
    <g id="xtick_9">
     <g id="line2d_17">
      <g>
       <use style="stroke:#000000;stroke-width:0.6;" x="127.008" xlink:href="#mf7447205b2" y="140.76"/>
      </g>
     </g>
     <g id="line2d_18">
      <g>
       <use style="stroke:#000000;stroke-width:0.6;" x="127.008" xlink:href="#m37e9e8464d" y="3.312"/>
      </g>
     </g>
    </g>
    <g id="xtick_10">
     <g id="line2d_19">
      <g>
       <use style="stroke:#000000;stroke-width:0.6;" x="165.1104" xlink:href="#mf7447205b2" y="140.76"/>
      </g>
     </g>
     <g id="line2d_20">
      <g>
       <use style="stroke:#000000;stroke-width:0.6;" x="165.1104" xlink:href="#m37e9e8464d" y="3.312"/>
      </g>
     </g>
    </g>
    <g id="xtick_11">
     <g id="line2d_21">
      <g>
       <use style="stroke:#000000;stroke-width:0.6;" x="203.2128" xlink:href="#mf7447205b2" y="140.76"/>
      </g>
     </g>
     <g id="line2d_22">
      <g>
       <use style="stroke:#000000;stroke-width:0.6;" x="203.2128" xlink:href="#m37e9e8464d" y="3.312"/>
      </g>
     </g>
    </g>
    <g id="text_7">
     <!-- $h/\mu$ -->
     <defs>
      <path d="M 31.09375 67.90625 
L 24.203125 40.5 
Q 28.59375 44 32.25 45.140625 
Q 35.90625 46.296875 40.5 46.296875 
Q 45.40625 46.296875 48.203125 43.796875 
Q 51 41.296875 51 36.59375 
Q 51 34.5 50.40625 32.09375 
L 42.40625 0 
L 34.5 0 
L 42 30.40625 
Q 42.5 32.59375 42.5 33.796875 
Q 42.5 39.203125 36 39.203125 
Q 33.09375 39.203125 28.640625 36.703125 
Q 24.203125 34.203125 21.703125 30.203125 
L 14.203125 0 
L 6.296875 0 
L 22.703125 66 
L 30.296875 68.40625 
z
" id="STIXGeneral-Italic-1d629"/>
      <path d="M 28.703125 67.59375 
L 5.90625 -1.40625 
L -0.90625 -1.40625 
L 22 67.59375 
z
" id="STIXGeneral-Regular-2f"/>
      <path d="M 53.59375 45.296875 
L 45.5 12.796875 
Q 45 11 45 9.703125 
Q 45 6.09375 49.703125 6.09375 
L 49.296875 4.703125 
L 45.59375 -1 
Q 39.40625 -1 37.5 2.09375 
Q 36.59375 3.5 36.59375 6.40625 
L 21.59375 -1 
Q 16 -1 14.09375 1.5 
L 10.59375 -12.59375 
Q 9.296875 -17.90625 6.796875 -21.5 
L -0.90625 -21.5 
Q 2 -17 3.09375 -12.703125 
L 17.5 45.296875 
L 25.40625 45.296875 
L 17.90625 14.90625 
Q 17.40625 12.703125 17.40625 11.40625 
Q 17.40625 6.09375 23.90625 6.09375 
Q 26.703125 6.09375 31.34375 9.046875 
Q 36 12 38.5 16.09375 
L 45.703125 45.296875 
z
" id="STIXNonUnicode-Italic-e1e3"/>
     </defs>
     <g transform="translate(121.688 161.985)scale(0.08 -0.08)">
      <use transform="translate(0 0.59375)" xlink:href="#STIXGeneral-Italic-1d629"/>
      <use transform="translate(48.699997 0.59375)" xlink:href="#STIXGeneral-Regular-2f"/>
      <use transform="translate(76.499985 0.59375)" xlink:href="#STIXNonUnicode-Italic-e1e3"/>
     </g>
    </g>
   </g>
   <g id="matplotlib.axis_2">
    <g id="ytick_1">
     <g id="line2d_23">
      <defs>
       <path d="M 0 0 
L 2.5 0 
" id="mec9662d131" style="stroke:#000000;stroke-width:0.8;"/>
      </defs>
      <g>
       <use style="stroke:#000000;stroke-width:0.8;" x="31.752" xlink:href="#mec9662d131" y="140.76"/>
      </g>
     </g>
     <g id="line2d_24">
      <defs>
       <path d="M 0 0 
L -2.5 0 
" id="ma23346c390" style="stroke:#000000;stroke-width:0.8;"/>
      </defs>
      <g>
       <use style="stroke:#000000;stroke-width:0.8;" x="222.264" xlink:href="#ma23346c390" y="140.76"/>
      </g>
     </g>
     <g id="text_8">
      <!-- $0$ -->
      <g transform="translate(24.252 143.799375)scale(0.08 -0.08)">
       <use transform="translate(0 0.40625)" xlink:href="#STIXGeneral-Regular-1d7e2"/>
      </g>
     </g>
    </g>
    <g id="ytick_2">
     <g id="line2d_25">
      <g>
       <use style="stroke:#000000;stroke-width:0.8;" x="31.752" xlink:href="#mec9662d131" y="113.2704"/>
      </g>
     </g>
     <g id="line2d_26">
      <g>
       <use style="stroke:#000000;stroke-width:0.8;" x="222.264" xlink:href="#ma23346c390" y="113.2704"/>
      </g>
     </g>
     <g id="text_9">
      <!-- $0.15$ -->
      <defs>
       <path d="M 45.796875 67.59375 
L 42.59375 60.5 
L 24.90625 60.5 
L 18.5 47.796875 
Q 29.90625 46.203125 37.25 39.75 
Q 44.59375 33.296875 44.59375 22.59375 
Q 44.59375 12.703125 37.84375 5.640625 
Q 31.09375 -1.40625 21 -1.40625 
Q 10 -1.40625 3.59375 5.59375 
L 8.296875 11.203125 
Q 13.40625 5.703125 20.5 5.703125 
Q 27.90625 5.703125 32.296875 10.75 
Q 36.703125 15.796875 36.703125 22.59375 
Q 36.703125 30 30.09375 35.203125 
Q 23.40625 40.703125 9.40625 40.703125 
L 8 42.40625 
L 19.59375 67.59375 
z
" id="STIXGeneral-Regular-1d7e7"/>
      </defs>
      <g transform="translate(14.252 116.309775)scale(0.08 -0.08)">
       <use transform="translate(0 0.296875)" xlink:href="#STIXGeneral-Regular-1d7e2"/>
       <use transform="translate(49.999985 0.296875)" xlink:href="#STIXGeneral-Regular-2e"/>
       <use transform="translate(74.999969 0.296875)" xlink:href="#STIXGeneral-Regular-1d7e3"/>
       <use transform="translate(124.999954 0.296875)" xlink:href="#STIXGeneral-Regular-1d7e7"/>
      </g>
     </g>
    </g>
    <g id="ytick_3">
     <g id="line2d_27">
      <g>
       <use style="stroke:#000000;stroke-width:0.8;" x="31.752" xlink:href="#mec9662d131" y="85.7808"/>
      </g>
     </g>
     <g id="line2d_28">
      <g>
       <use style="stroke:#000000;stroke-width:0.8;" x="222.264" xlink:href="#ma23346c390" y="85.7808"/>
      </g>
     </g>
     <g id="text_10">
      <!-- $0.3$ -->
      <defs>
       <path d="M 11.296875 49.203125 
L 4.203125 50.90625 
Q 6.40625 58.703125 11.5 63.140625 
Q 16.59375 67.59375 24.296875 67.59375 
Q 31.40625 67.59375 36.203125 63.09375 
Q 41 58.59375 41 51.90625 
Q 41 43 32.40625 37 
Q 38 35 41.046875 30.34375 
Q 44.09375 25.703125 44.09375 21 
Q 44.09375 11.296875 37.796875 5 
Q 31.40625 -1.40625 20.5 -1.40625 
Q 9.5 -1.40625 3.09375 5.59375 
L 7.796875 11.203125 
Q 12.90625 5.703125 20 5.703125 
Q 27.40625 5.703125 31.59375 9.296875 
Q 36.203125 13.203125 36.203125 19.09375 
Q 36.203125 24.296875 32.453125 27.796875 
Q 28.703125 31.296875 22.203125 32.203125 
L 15.796875 32.203125 
L 15.796875 34.296875 
L 20.59375 39.40625 
Q 25.09375 39.40625 29.09375 42.84375 
Q 33.09375 46.296875 33.09375 51.203125 
Q 33.09375 55.40625 30.4375 57.953125 
Q 27.796875 60.5 24 60.5 
Q 20 60.5 16.546875 57.640625 
Q 13.09375 54.796875 11.296875 49.203125 
z
" id="STIXGeneral-Regular-1d7e5"/>
      </defs>
      <g transform="translate(18.252 88.820175)scale(0.08 -0.08)">
       <use transform="translate(0 0.40625)" xlink:href="#STIXGeneral-Regular-1d7e2"/>
       <use transform="translate(49.999985 0.40625)" xlink:href="#STIXGeneral-Regular-2e"/>
       <use transform="translate(74.999969 0.40625)" xlink:href="#STIXGeneral-Regular-1d7e5"/>
      </g>
     </g>
    </g>
    <g id="ytick_4">
     <g id="line2d_29">
      <g>
       <use style="stroke:#000000;stroke-width:0.8;" x="31.752" xlink:href="#mec9662d131" y="58.2912"/>
      </g>
     </g>
     <g id="line2d_30">
      <g>
       <use style="stroke:#000000;stroke-width:0.8;" x="222.264" xlink:href="#ma23346c390" y="58.2912"/>
      </g>
     </g>
     <g id="text_11">
      <!-- $0.45$ -->
      <g transform="translate(14.252 61.330575)scale(0.08 -0.08)">
       <use transform="translate(0 0.40625)" xlink:href="#STIXGeneral-Regular-1d7e2"/>
       <use transform="translate(49.999985 0.40625)" xlink:href="#STIXGeneral-Regular-2e"/>
       <use transform="translate(74.999969 0.40625)" xlink:href="#STIXGeneral-Regular-1d7e6"/>
       <use transform="translate(124.999954 0.40625)" xlink:href="#STIXGeneral-Regular-1d7e7"/>
      </g>
     </g>
    </g>
    <g id="ytick_5">
     <g id="line2d_31">
      <g>
       <use style="stroke:#000000;stroke-width:0.8;" x="31.752" xlink:href="#mec9662d131" y="30.8016"/>
      </g>
     </g>
     <g id="line2d_32">
      <g>
       <use style="stroke:#000000;stroke-width:0.8;" x="222.264" xlink:href="#ma23346c390" y="30.8016"/>
      </g>
     </g>
     <g id="text_12">
      <!-- $0.6$ -->
      <g transform="translate(18.252 33.840975)scale(0.08 -0.08)">
       <use transform="translate(0 0.59375)" xlink:href="#STIXGeneral-Regular-1d7e2"/>
       <use transform="translate(49.999985 0.59375)" xlink:href="#STIXGeneral-Regular-2e"/>
       <use transform="translate(74.999969 0.59375)" xlink:href="#STIXGeneral-Regular-1d7e8"/>
      </g>
     </g>
    </g>
    <g id="ytick_6">
     <g id="line2d_33">
      <g>
       <use style="stroke:#000000;stroke-width:0.8;" x="31.752" xlink:href="#mec9662d131" y="3.312"/>
      </g>
     </g>
     <g id="line2d_34">
      <g>
       <use style="stroke:#000000;stroke-width:0.8;" x="222.264" xlink:href="#ma23346c390" y="3.312"/>
      </g>
     </g>
     <g id="text_13">
      <!-- $0.75$ -->
      <defs>
       <path d="M 45.09375 64.203125 
L 23 -0.796875 
L 14.796875 -0.796875 
L 35.40625 59.09375 
L 3.796875 59.09375 
L 6.90625 66.203125 
L 45.09375 66.203125 
z
" id="STIXGeneral-Regular-1d7e9"/>
      </defs>
      <g transform="translate(14.252 6.351375)scale(0.08 -0.08)">
       <use transform="translate(0 0.40625)" xlink:href="#STIXGeneral-Regular-1d7e2"/>
       <use transform="translate(49.999985 0.40625)" xlink:href="#STIXGeneral-Regular-2e"/>
       <use transform="translate(74.999969 0.40625)" xlink:href="#STIXGeneral-Regular-1d7e9"/>
       <use transform="translate(124.999954 0.40625)" xlink:href="#STIXGeneral-Regular-1d7e7"/>
      </g>
     </g>
    </g>
    <g id="ytick_7">
     <g id="line2d_35">
      <defs>
       <path d="M 0 0 
L 1.5 0 
" id="me3762d53af" style="stroke:#000000;stroke-width:0.6;"/>
      </defs>
      <g>
       <use style="stroke:#000000;stroke-width:0.6;" x="31.752" xlink:href="#me3762d53af" y="127.0152"/>
      </g>
     </g>
     <g id="line2d_36">
      <defs>
       <path d="M 0 0 
L -1.5 0 
" id="m83670f9cfc" style="stroke:#000000;stroke-width:0.6;"/>
      </defs>
      <g>
       <use style="stroke:#000000;stroke-width:0.6;" x="222.264" xlink:href="#m83670f9cfc" y="127.0152"/>
      </g>
     </g>
    </g>
    <g id="ytick_8">
     <g id="line2d_37">
      <g>
       <use style="stroke:#000000;stroke-width:0.6;" x="31.752" xlink:href="#me3762d53af" y="99.5256"/>
      </g>
     </g>
     <g id="line2d_38">
      <g>
       <use style="stroke:#000000;stroke-width:0.6;" x="222.264" xlink:href="#m83670f9cfc" y="99.5256"/>
      </g>
     </g>
    </g>
    <g id="ytick_9">
     <g id="line2d_39">
      <g>
       <use style="stroke:#000000;stroke-width:0.6;" x="31.752" xlink:href="#me3762d53af" y="72.036"/>
      </g>
     </g>
     <g id="line2d_40">
      <g>
       <use style="stroke:#000000;stroke-width:0.6;" x="222.264" xlink:href="#m83670f9cfc" y="72.036"/>
      </g>
     </g>
    </g>
    <g id="ytick_10">
     <g id="line2d_41">
      <g>
       <use style="stroke:#000000;stroke-width:0.6;" x="31.752" xlink:href="#me3762d53af" y="44.5464"/>
      </g>
     </g>
     <g id="line2d_42">
      <g>
       <use style="stroke:#000000;stroke-width:0.6;" x="222.264" xlink:href="#m83670f9cfc" y="44.5464"/>
      </g>
     </g>
    </g>
    <g id="ytick_11">
     <g id="line2d_43">
      <g>
       <use style="stroke:#000000;stroke-width:0.6;" x="31.752" xlink:href="#me3762d53af" y="17.0568"/>
      </g>
     </g>
     <g id="line2d_44">
      <g>
       <use style="stroke:#000000;stroke-width:0.6;" x="222.264" xlink:href="#m83670f9cfc" y="17.0568"/>
      </g>
     </g>
    </g>
    <g id="text_14">
     <!-- $T/\mu$ -->
     <defs>
      <path d="M 74.796875 66.203125 
L 73.90625 58.796875 
L 49.40625 58.796875 
L 34.703125 0 
L 26 0 
L 40.59375 58.796875 
L 16.09375 58.796875 
L 19 66.203125 
z
" id="STIXGeneral-Italic-1d61b"/>
     </defs>
     <g transform="translate(8.492 77.836)rotate(-90)scale(0.08 -0.08)">
      <use transform="translate(0 0.40625)" xlink:href="#STIXGeneral-Italic-1d61b"/>
      <use transform="translate(60.799988 0.40625)" xlink:href="#STIXGeneral-Regular-2f"/>
      <use transform="translate(88.599976 0.40625)" xlink:href="#STIXNonUnicode-Italic-e1e3"/>
     </g>
    </g>
   </g>
   <g id="line2d_45">
    <path clip-path="url(#pa9eaf98e6b)" d="M 32.108145 47.010985 
L 34.030567 47.010985 
L 36.914034 47.105777 
L 40.950954 47.200568 
L 43.065452 47.29536 
L 46.141161 47.390152 
L 48.255825 47.390152 
L 50.946884 47.579735 
L 53.445867 47.674527 
L 55.752442 47.86411 
L 57.290213 47.958902 
L 59.981273 48.148486 
L 62.480089 48.338069 
L 65.171148 48.527652 
L 67.573679 48.812028 
L 70.168451 49.096403 
L 72.666936 49.47557 
L 73.627981 49.570361 
L 77.087843 49.854737 
L 78.625449 50.04432 
L 81.316177 50.423487 
L 82.853617 50.707862 
L 84.10286 50.897446 
L 86.505556 51.087029 
L 88.619557 51.466196 
L 89.676557 51.655779 
L 91.502361 51.940154 
L 95.346044 52.603697 
L 96.691243 52.888072 
L 98.228683 53.172447 
L 99.9582 53.551614 
L 101.207277 53.835989 
L 102.744717 54.120364 
L 103.609475 54.309948 
L 105.338992 54.689114 
L 106.876266 55.068281 
L 109.182344 55.54224 
L 111.296179 56.016199 
L 112.737333 56.395366 
L 116.004124 57.153699 
L 117.82943 57.72245 
L 120.327584 58.2912 
L 122.633165 59.049534 
L 124.650713 59.618284 
L 126.572141 60.187034 
L 128.397447 60.755785 
L 129.93439 61.324535 
L 131.951939 61.893286 
L 134.449595 62.746411 
L 136.851131 63.599537 
L 137.811679 63.978703 
L 139.348456 64.642246 
L 142.230266 65.684954 
L 144.535846 66.443288 
L 146.264866 67.10683 
L 147.41749 67.580789 
L 149.914816 68.623498 
L 152.027822 69.571415 
L 152.411975 69.760999 
L 154.332906 70.614124 
L 155.485364 71.182874 
L 157.982524 72.320375 
L 160.287607 73.363084 
L 161.055913 73.742251 
L 162.016295 74.21621 
L 163.360996 74.78496 
L 166.049901 76.206836 
L 167.010283 76.680794 
L 168.546895 77.439128 
L 171.427876 78.955796 
L 173.156398 79.903713 
L 176.1335 81.420381 
L 177.381914 82.083923 
L 178.72645 82.747465 
L 181.031201 83.979757 
L 183.143877 85.117258 
L 185.064475 86.159967 
L 187.84917 87.771426 
L 189.28966 88.52976 
L 191.40217 89.762052 
L 194.475061 91.468303 
L 196.779813 92.700596 
L 198.50817 93.743305 
L 201.196909 95.259972 
L 205.038272 97.250599 
L 207.150947 98.388099 
L 209.263623 99.5256 
L 211.568043 100.947476 
L 214.44919 102.369352 
L 217.042139 103.696436 
L 219.731209 105.02352 
L 221.363776 105.876646 
" style="fill:none;stroke:#000000;stroke-dasharray:1,1.65;stroke-dashoffset:0;"/>
   </g>
   <g id="line2d_46">
    <path clip-path="url(#pa9eaf98e6b)" d="M 31.976393 67.391206 
L 32.072514 67.391206 
L 34.763739 67.485997 
L 38.992901 67.580789 
L 41.491884 67.675581 
L 44.567593 67.770372 
L 46.874333 67.865164 
L 50.911088 68.054748 
L 53.79472 68.054748 
L 56.101295 68.244331 
L 59.368915 68.528706 
L 62.25205 68.813081 
L 66.288473 69.192248 
L 70.709546 69.476623 
L 73.977 69.85579 
L 77.629105 70.140166 
L 80.031635 70.424541 
L 83.971771 70.898499 
L 90.314105 71.846417 
L 96.079548 72.889126 
L 101.268429 73.837043 
L 106.649387 74.879752 
L 111.453453 76.017252 
L 114.33576 76.775586 
L 120.100871 78.007879 
L 125.865319 79.619338 
L 129.90025 80.85163 
L 132.974302 81.894339 
L 137.393387 83.316215 
L 140.659349 84.548508 
L 145.077936 86.254759 
L 149.88051 88.245385 
L 152.185594 89.288094 
L 157.179747 91.657887 
L 161.59734 93.932888 
L 164.094168 95.259972 
L 166.590665 96.77664 
L 170.335244 99.146433 
L 172.735123 100.947476 
L 174.846803 102.653727 
L 176.477547 104.549561 
" style="fill:none;stroke:#000000;stroke-linecap:square;"/>
   </g>
   <g id="line2d_47">
    <path clip-path="url(#pa9eaf98e6b)" d="M 32.086819 67.647021 
L 37.276513 67.651512 
L 39.285427 67.735677 
L 43.135845 67.821437 
L 46.149216 67.906472 
L 48.827768 68.073645 
L 51.171501 68.322956 
L 54.519691 68.490708 
L 57.533062 68.740599 
L 59.709385 68.907337 
L 63.057575 69.322372 
L 64.56426 69.488531 
L 68.414678 69.739146 
L 71.26064 70.071319 
L 73.771782 70.320775 
L 75.445877 70.651934 
L 77.957019 70.983817 
L 82.142257 71.482004 
L 86.662313 72.062908 
L 89.675684 72.560082 
L 93.526102 73.470117 
L 97.37652 74.215297 
L 99.720253 74.711891 
L 102.901033 75.291636 
L 106.249223 76.118809 
L 108.760366 76.780403 
L 110.936689 77.276852 
L 113.113012 77.855728 
L 114.619698 78.186742 
L 116.963431 78.848191 
L 122.487944 80.25424 
L 125.333905 81.080979 
L 128.012457 81.99 
L 130.858418 82.981594 
L 132.197694 83.559746 
L 135.880703 84.964202 
L 139.145188 86.203441 
L 140.735578 86.78181 
L 144.920815 88.269128 
L 147.264548 89.342715 
L 149.775691 90.498874 
L 152.119424 91.490033 
L 154.044633 92.398402 
L 156.304661 93.471917 
L 157.895051 94.297569 
L 159.569146 95.040866 
L 161.829174 96.279235 
L 165.344773 98.095684 
L 168.609258 100.076771 
L 171.538924 101.975141 
L 174.217476 103.955721 
L 176.477547 104.549561 
" style="fill:none;stroke:#808080;stroke-dasharray:3.7,1.6;stroke-dashoffset:0;"/>
   </g>
   <g id="line2d_48">
    <path clip-path="url(#pa9eaf98e6b)" d="M 176.669293 104.833937 
L 178.973216 106.540188 
L 180.60396 108.436022 
L 182.138417 110.426648 
L 183.4803 112.606858 
L 184.726063 114.787068 
L 185.875373 117.156861 
L 186.832109 119.716237 
L 187.693056 122.08603 
L 188.458047 124.361032 
L 189.22221 127.109992 
L 189.698506 129.574577 
L 190.174969 131.94437 
L 190.36257 134.598538 
L 190.550006 137.347498 
L 190.640659 140.475625 
" style="fill:none;stroke:#808080;stroke-dasharray:3.7,1.6;stroke-dashoffset:0;"/>
   </g>
   <g id="patch_3">
    <path d="M 31.752 140.76 
L 31.752 3.312 
" style="fill:none;stroke:#000000;stroke-linecap:square;stroke-linejoin:miter;stroke-width:0.8;"/>
   </g>
   <g id="patch_4">
    <path d="M 222.264 140.76 
L 222.264 3.312 
" style="fill:none;stroke:#000000;stroke-linecap:square;stroke-linejoin:miter;stroke-width:0.8;"/>
   </g>
   <g id="patch_5">
    <path d="M 31.752 140.76 
L 222.264 140.76 
" style="fill:none;stroke:#000000;stroke-linecap:square;stroke-linejoin:miter;stroke-width:0.8;"/>
   </g>
   <g id="patch_6">
    <path d="M 31.752 3.312 
L 222.264 3.312 
" style="fill:none;stroke:#000000;stroke-linecap:square;stroke-linejoin:miter;stroke-width:0.8;"/>
   </g>
   <g id="line2d_49">
    <defs>
     <path d="M 0 2 
C 0.530406 2 1.03916 1.789267 1.414214 1.414214 
C 1.789267 1.03916 2 0.530406 2 0 
C 2 -0.530406 1.789267 -1.03916 1.414214 -1.414214 
C 1.03916 -1.789267 0.530406 -2 0 -2 
C -0.530406 -2 -1.03916 -1.789267 -1.414214 -1.414214 
C -1.789267 -1.03916 -2 -0.530406 -2 0 
C -2 0.530406 -1.789267 1.03916 -1.414214 1.414214 
C -1.03916 1.789267 -0.530406 2 0 2 
z
" id="m13273ec6a3" style="stroke:#000000;stroke-width:0.75;"/>
    </defs>
    <g clip-path="url(#pa9eaf98e6b)">
     <use style="fill:#666666;stroke:#000000;stroke-width:0.75;" x="176.477547" xlink:href="#m13273ec6a3" y="104.549561"/>
    </g>
   </g>
   <g id="line2d_50">
    <path clip-path="url(#pa9eaf98e6b)" d="M 31.752 -1 
L 31.752 140.029137 
L 31.752 140.393838 
L 31.752 140.515729 
L 31.752 140.576736 
" style="fill:none;stroke:#114b5f;stroke-dasharray:7.4,3.2;stroke-dashoffset:0;stroke-width:2;"/>
   </g>
   <g id="line2d_51">
    <path clip-path="url(#pa9eaf98e6b)" d="M 90.698615 -1 
L 32.055907 140.029137 
L 31.904257 140.393838 
L 31.853573 140.515729 
L 31.828205 140.576736 
" style="fill:none;stroke:#5f9049;stroke-dasharray:7.4,3.2;stroke-dashoffset:0;stroke-width:2;"/>
   </g>
   <g id="line2d_52">
    <path clip-path="url(#pa9eaf98e6b)" d="M 149.64523 -1 
L 32.359815 140.029137 
L 32.056515 140.393838 
L 31.955145 140.515729 
L 31.90441 140.576736 
" style="fill:none;stroke:#d7b501;stroke-dasharray:7.4,3.2;stroke-dashoffset:0;stroke-width:2;"/>
   </g>
   <g id="line2d_53">
    <path clip-path="url(#pa9eaf98e6b)" d="M 208.591845 -1 
L 32.663722 140.029137 
L 32.208772 140.393838 
L 32.056718 140.515729 
L 31.980614 140.576736 
" style="fill:none;stroke:#eca300;stroke-dasharray:7.4,3.2;stroke-dashoffset:0;stroke-width:2;"/>
   </g>
   <g id="line2d_54">
    <path clip-path="url(#pa9eaf98e6b)" d="M 227.8 22.891635 
L 32.96763 140.029137 
L 32.361029 140.393838 
L 32.15829 140.515729 
L 32.056819 140.576736 
" style="fill:none;stroke:#db7502;stroke-dasharray:7.4,3.2;stroke-dashoffset:0;stroke-width:2;"/>
   </g>
   <g id="line2d_55">
    <path clip-path="url(#pa9eaf98e6b)" d="M 227.8 46.465308 
L 33.271537 140.029137 
L 32.513287 140.393838 
L 32.259863 140.515729 
L 32.133024 140.576736 
" style="fill:none;stroke:#cc5101;stroke-dasharray:7.4,3.2;stroke-dashoffset:0;stroke-width:2;"/>
   </g>
   <g id="text_15">
    <!-- $\beta h = 0.0$ -->
    <defs>
     <path d="M 2.703125 -13.09375 
L 16 40.203125 
Q 18.796875 51.5 23.40625 57.90625 
Q 31.09375 68.296875 42.796875 68.296875 
Q 48.09375 68.296875 52 64.9375 
Q 55.90625 61.59375 55.90625 56.296875 
Q 55.90625 51.203125 53.203125 46.84375 
Q 50.5 42.5 45.703125 39.796875 
Q 49.09375 38.59375 51.140625 35.046875 
Q 53.203125 31.5 53.203125 27.09375 
Q 53.203125 14.59375 44.453125 6.59375 
Q 35.703125 -1.40625 25 -1.40625 
Q 18.296875 -1.40625 14.40625 2.203125 
L 10.703125 -12.59375 
Q 9.59375 -17 6.90625 -21.5 
L -1.203125 -21.5 
Q 1.59375 -17.40625 2.703125 -13.09375 
z
M 29.296875 37.5 
L 34.796875 42.90625 
Q 40.5 43.203125 44.140625 46.703125 
Q 47.796875 50.203125 47.796875 54.703125 
Q 47.796875 57.703125 45.84375 59.453125 
Q 43.90625 61.203125 40.5 61.203125 
Q 34.203125 61.203125 30.296875 55.84375 
Q 26.40625 50.5 24.59375 43.296875 
L 16.796875 11.796875 
Q 17.796875 9.09375 20.84375 7.390625 
Q 23.90625 5.703125 27.5 5.703125 
Q 34.296875 5.703125 39.640625 11.75 
Q 45 17.796875 45 25.703125 
Q 45 35.796875 28.90625 35.796875 
z
" id="STIXNonUnicode-Italic-e1d9"/>
     <path d="M 63.703125 32 
L 4.796875 32 
L 4.796875 38.59375 
L 63.703125 38.59375 
z
M 63.703125 12 
L 4.796875 12 
L 4.796875 18.59375 
L 63.703125 18.59375 
z
" id="STIXGeneral-Regular-3d"/>
    </defs>
    <g style="fill:#114b5f;" transform="translate(39.63962 32.5727)rotate(-90)scale(0.08 -0.08)">
     <use transform="translate(0 0.59375)" xlink:href="#STIXNonUnicode-Italic-e1d9"/>
     <use transform="translate(53.499985 0.59375)" xlink:href="#STIXGeneral-Italic-1d629"/>
     <use transform="translate(117.31998 0.59375)" xlink:href="#STIXGeneral-Regular-3d"/>
     <use transform="translate(200.939963 0.59375)" xlink:href="#STIXGeneral-Regular-1d7e2"/>
     <use transform="translate(250.939948 0.59375)" xlink:href="#STIXGeneral-Regular-2e"/>
     <use transform="translate(275.939932 0.59375)" xlink:href="#STIXGeneral-Regular-1d7e2"/>
    </g>
   </g>
   <g id="text_16">
    <!-- $\beta h = 0.4$ -->
    <g style="fill:#5f9049;" transform="translate(86.79204 31.004376)rotate(-67)scale(0.08 -0.08)">
     <use transform="translate(0 0.59375)" xlink:href="#STIXNonUnicode-Italic-e1d9"/>
     <use transform="translate(53.499985 0.59375)" xlink:href="#STIXGeneral-Italic-1d629"/>
     <use transform="translate(117.31998 0.59375)" xlink:href="#STIXGeneral-Regular-3d"/>
     <use transform="translate(200.939963 0.59375)" xlink:href="#STIXGeneral-Regular-1d7e2"/>
     <use transform="translate(250.939948 0.59375)" xlink:href="#STIXGeneral-Regular-2e"/>
     <use transform="translate(275.939932 0.59375)" xlink:href="#STIXGeneral-Regular-1d7e6"/>
    </g>
   </g>
   <g id="text_17">
    <!-- $\beta h = 0.8$ -->
    <g style="fill:#d7b501;" transform="translate(139.14353 26.435119)rotate(-49)scale(0.08 -0.08)">
     <use transform="translate(0 0.59375)" xlink:href="#STIXNonUnicode-Italic-e1d9"/>
     <use transform="translate(53.499985 0.59375)" xlink:href="#STIXGeneral-Italic-1d629"/>
     <use transform="translate(117.31998 0.59375)" xlink:href="#STIXGeneral-Regular-3d"/>
     <use transform="translate(200.939963 0.59375)" xlink:href="#STIXGeneral-Regular-1d7e2"/>
     <use transform="translate(250.939948 0.59375)" xlink:href="#STIXGeneral-Regular-2e"/>
     <use transform="translate(275.939932 0.59375)" xlink:href="#STIXGeneral-Regular-1d7ea"/>
    </g>
   </g>
   <g id="text_18">
    <!-- $\beta h = 1.2$ -->
    <g style="fill:#eca300;" transform="translate(185.856838 26.049553)rotate(-37)scale(0.08 -0.08)">
     <use transform="translate(0 0.59375)" xlink:href="#STIXNonUnicode-Italic-e1d9"/>
     <use transform="translate(53.499985 0.59375)" xlink:href="#STIXGeneral-Italic-1d629"/>
     <use transform="translate(117.31998 0.59375)" xlink:href="#STIXGeneral-Regular-3d"/>
     <use transform="translate(200.939963 0.59375)" xlink:href="#STIXGeneral-Regular-1d7e3"/>
     <use transform="translate(250.939948 0.59375)" xlink:href="#STIXGeneral-Regular-2e"/>
     <use transform="translate(275.939932 0.59375)" xlink:href="#STIXGeneral-Regular-1d7e4"/>
    </g>
   </g>
   <g id="text_19">
    <!-- $\beta h = 1.6$ -->
    <g style="fill:#db7502;" transform="translate(194.682454 51.858547)rotate(-29)scale(0.08 -0.08)">
     <use transform="translate(0 0.59375)" xlink:href="#STIXNonUnicode-Italic-e1d9"/>
     <use transform="translate(53.499985 0.59375)" xlink:href="#STIXGeneral-Italic-1d629"/>
     <use transform="translate(117.31998 0.59375)" xlink:href="#STIXGeneral-Regular-3d"/>
     <use transform="translate(200.939963 0.59375)" xlink:href="#STIXGeneral-Regular-1d7e3"/>
     <use transform="translate(250.939948 0.59375)" xlink:href="#STIXGeneral-Regular-2e"/>
     <use transform="translate(275.939932 0.59375)" xlink:href="#STIXGeneral-Regular-1d7e8"/>
    </g>
   </g>
   <g id="text_20">
    <!-- $\beta h = 2.0$ -->
    <g style="fill:#cc5101;" transform="translate(194.215382 72.046957)rotate(-24)scale(0.08 -0.08)">
     <use transform="translate(0 0.59375)" xlink:href="#STIXNonUnicode-Italic-e1d9"/>
     <use transform="translate(53.499985 0.59375)" xlink:href="#STIXGeneral-Italic-1d629"/>
     <use transform="translate(117.31998 0.59375)" xlink:href="#STIXGeneral-Regular-3d"/>
     <use transform="translate(200.939963 0.59375)" xlink:href="#STIXGeneral-Regular-1d7e4"/>
     <use transform="translate(250.939948 0.59375)" xlink:href="#STIXGeneral-Regular-2e"/>
     <use transform="translate(275.939932 0.59375)" xlink:href="#STIXGeneral-Regular-1d7e2"/>
    </g>
   </g>
  </g>
 </g>
 <defs>
  <clipPath id="pa9eaf98e6b">
   <rect height="137.448" width="190.512" x="31.752" y="3.312"/>
  </clipPath>
 </defs>
</svg>
