<?xml version="1.0" encoding="utf-8" standalone="no"?>
<!DOCTYPE svg PUBLIC "-//W3C//DTD SVG 1.1//EN"
  "http://www.w3.org/Graphics/SVG/1.1/DTD/svg11.dtd">
<!-- Created with matplotlib (http://matplotlib.org/) -->
<svg height="165.6pt" version="1.1" viewBox="0 0 226.8 165.6" width="226.8pt" xmlns="http://www.w3.org/2000/svg" xmlns:xlink="http://www.w3.org/1999/xlink">
 <defs>
  <style type="text/css">
*{stroke-linecap:butt;stroke-linejoin:round;}
  </style>
 </defs>
 <g id="figure_1">
  <g id="patch_1">
   <path d="M 0 165.6 
L 226.8 165.6 
L 226.8 0 
L 0 0 
z
" style="fill:#ffffff;"/>
  </g>
  <g id="axes_1">
   <g id="patch_2">
    <path d="M 31.752 140.76 
L 222.264 140.76 
L 222.264 3.312 
L 31.752 3.312 
z
" style="fill:#ffffff;"/>
   </g>
   <g id="PolyCollection_1">
    <path clip-path="url(#p7a99c1e144)" d="M -158.76 -134.136 
L -158.76 140.753128 
L 45.895387 140.753128 
L 45.895387 -134.136 
L 45.895387 -134.136 
L -158.76 -134.136 
z
" style="fill:#dddddd;"/>
   </g>
   <g id="line2d_1">
    <path clip-path="url(#p7a99c1e144)" d="M 54.020363 113.475418 
L 55.027475 113.656264 
L 56.482192 114.01876 
L 57.825008 114.29027 
L 59.391626 115.108335 
L 60.790393 115.744348 
L 62.189159 116.380362 
L 63.979581 117.198105 
L 65.6581 118.016009 
L 67.224719 118.651782 
L 69.01514 119.196087 
L 70.805561 119.740393 
L 72.37218 120.102728 
L 73.882848 120.465143 
L 75.393515 120.554121 
L 76.736331 120.825631 
L 78.30295 121.09682 
L 79.813618 121.36809 
L 81.100483 121.548535 
L 82.667101 121.728578 
L 84.121819 121.999928 
L 85.576536 122.180131 
L 87.199105 122.542386 
L 90.276391 122.993699 
L 88.709773 122.72251 
L 91.84301 123.264888 
L 93.297727 123.627384 
L 94.976247 123.898412 
L 96.654767 124.260587 
L 97.885681 124.532258 
L 99.564201 124.803286 
L 101.18677 125.256687 
L 102.473635 125.528277 
L 104.431908 125.981196 
L 106.502083 126.433954 
L 108.068701 126.705143 
L 109.63532 127.158624 
L 110.642432 127.430616 
L 112.20905 127.792951 
L 113.775669 128.155287 
L 114.670879 128.518585 
L 116.181547 128.607563 
L 117.24461 129.061766 
L 118.587426 129.150985 
L 119.706439 129.331671 
L 121.161156 129.785312 
L 122.39207 129.965837 
L 123.622985 130.510946 
L 124.350344 130.874486 
L 124.965801 131.055894 
L 126.644321 130.962339 
L 128.434742 131.233207 
L 129.441854 131.596345 
L 130.78467 131.959001 
L 133.582203 132.410715 
L 132.351288 132.321336 
L 134.701216 132.864839 
L 135.820229 133.045524 
L 137.274946 133.043436 
L 138.282058 133.224283 
L 139.960578 133.951041 
L 141.079591 134.131726 
L 142.758111 134.311609 
L 144.548532 134.491331 
L 146.394904 134.853265 
L 148.017473 135.124373 
L 149.584092 135.304417 
L 150.591204 135.485263 
L 152.157822 135.57416 
L 153.388737 135.663539 
" style="fill:none;stroke:#0d153a;stroke-linecap:square;"/>
   </g>
   <g id="line2d_2">
    <path clip-path="url(#p7a99c1e144)" d="M 26.723674 140.169695 
L 33.243144 139.279562 
L 39.105468 137.498333 
L 40.811957 136.508486 
L 48.468884 133.341857 
L 51.624257 132.451724 
L 54.455401 132.05672 
L 56.402994 132.255598 
L 57.927107 132.850441 
L 58.513926 133.24682 
L 59.371387 131.464765 
L 60.743781 129.682986 
L 62.305298 127.802319 
L 66.082739 124.338611 
L 67.164425 123.646118 
L 67.793641 123.052375 
L 69.208281 122.360156 
L 70.36563 121.568773 
L 71.476361 121.074469 
L 72.891001 120.184336 
L 77.919327 118.505296 
L 80.39078 118.012642 
L 81.421907 117.81569 
L 84.754509 117.522464 
L 90.410927 117.629192 
L 94.162055 118.229399 
L 97.463533 118.829606 
L 99.375745 119.427613 
L 100.538516 119.62814 
L 104.426055 120.825529 
L 105.291363 121.223833 
L 106.540457 121.524212 
L 108.598847 122.322196 
L 110.602195 122.823377 
L 112.139528 123.52151 
L 114.449112 124.42072 
L 114.828478 124.620148 
L 116.931477 125.22228 
L 117.347255 125.521009 
L 118.492353 125.921789 
L 119.528323 126.223268 
L 120.094397 126.522821 
L 124.620122 128.029941 
L 124.987504 128.229918 
L 125.246955 128.132268 
L 126.360404 128.633449 
L 126.900713 128.834527 
L 127.191026 128.836177 
L 128.368807 129.338183 
L 128.961936 129.440785 
L 131.627443 130.349073 
L 136.566836 131.771746 
L 137.008661 131.973374 
L 137.476687 131.977225 
L 138.034529 132.278979 
L 138.866454 132.385156 
L 139.61273 132.688836 
L 139.61273 132.688836 
" style="fill:none;stroke:#0d153a;stroke-dasharray:3.7,1.6;stroke-dashoffset:0;"/>
   </g>
   <g id="line2d_3">
    <defs>
     <path d="M 0 -1.5 
L -1.5 1.5 
L 1.5 1.5 
z
" id="m285b2b7f14" style="stroke:#5fad41;stroke-linejoin:miter;stroke-width:0.75;"/>
    </defs>
    <g clip-path="url(#p7a99c1e144)">
     <use style="fill:#adda9c;stroke:#5fad41;stroke-linejoin:miter;stroke-width:0.75;" x="44.714433" xlink:href="#m285b2b7f14" y="113.02698"/>
     <use style="fill:#adda9c;stroke:#5fad41;stroke-linejoin:miter;stroke-width:0.75;" x="47.96281" xlink:href="#m285b2b7f14" y="112.149443"/>
     <use style="fill:#adda9c;stroke:#5fad41;stroke-linejoin:miter;stroke-width:0.75;" x="51.00617" xlink:href="#m285b2b7f14" y="111.6837"/>
     <use style="fill:#adda9c;stroke:#5fad41;stroke-linejoin:miter;stroke-width:0.75;" x="53.497215" xlink:href="#m285b2b7f14" y="111.455949"/>
     <use style="fill:#adda9c;stroke:#5fad41;stroke-linejoin:miter;stroke-width:0.75;" x="57.022784" xlink:href="#m285b2b7f14" y="111.302282"/>
     <use style="fill:#adda9c;stroke:#5fad41;stroke-linejoin:miter;stroke-width:0.75;" x="62.051106" xlink:href="#m285b2b7f14" y="111.350801"/>
     <use style="fill:#adda9c;stroke:#5fad41;stroke-linejoin:miter;stroke-width:0.75;" x="65.50304" xlink:href="#m285b2b7f14" y="111.541098"/>
     <use style="fill:#adda9c;stroke:#5fad41;stroke-linejoin:miter;stroke-width:0.75;" x="69.985208" xlink:href="#m285b2b7f14" y="111.961483"/>
     <use style="fill:#adda9c;stroke:#5fad41;stroke-linejoin:miter;stroke-width:0.75;" x="76.139408" xlink:href="#m285b2b7f14" y="112.845961"/>
     <use style="fill:#adda9c;stroke:#5fad41;stroke-linejoin:miter;stroke-width:0.75;" x="80.232741" xlink:href="#m285b2b7f14" y="113.624122"/>
     <use style="fill:#adda9c;stroke:#5fad41;stroke-linejoin:miter;stroke-width:0.75;" x="85.419088" xlink:href="#m285b2b7f14" y="114.817309"/>
     <use style="fill:#adda9c;stroke:#5fad41;stroke-linejoin:miter;stroke-width:0.75;" x="90.117143" xlink:href="#m285b2b7f14" y="116.083617"/>
     <use style="fill:#adda9c;stroke:#5fad41;stroke-linejoin:miter;stroke-width:0.75;" x="95.256005" xlink:href="#m285b2b7f14" y="117.646126"/>
     <use style="fill:#adda9c;stroke:#5fad41;stroke-linejoin:miter;stroke-width:0.75;" x="100.284341" xlink:href="#m285b2b7f14" y="119.321342"/>
     <use style="fill:#adda9c;stroke:#5fad41;stroke-linejoin:miter;stroke-width:0.75;" x="104.53573" xlink:href="#m285b2b7f14" y="120.82035"/>
     <use style="fill:#adda9c;stroke:#5fad41;stroke-linejoin:miter;stroke-width:0.75;" x="108.218425" xlink:href="#m285b2b7f14" y="122.157169"/>
     <use style="fill:#adda9c;stroke:#5fad41;stroke-linejoin:miter;stroke-width:0.75;" x="111.466811" xlink:href="#m285b2b7f14" y="123.349874"/>
     <use style="fill:#adda9c;stroke:#5fad41;stroke-linejoin:miter;stroke-width:0.75;" x="114.372619" xlink:href="#m285b2b7f14" y="124.416402"/>
     <use style="fill:#adda9c;stroke:#5fad41;stroke-linejoin:miter;stroke-width:0.75;" x="117.001207" xlink:href="#m285b2b7f14" y="125.372834"/>
     <use style="fill:#adda9c;stroke:#5fad41;stroke-linejoin:miter;stroke-width:0.75;" x="119.400942" xlink:href="#m285b2b7f14" y="126.233533"/>
     <use style="fill:#adda9c;stroke:#5fad41;stroke-linejoin:miter;stroke-width:0.75;" x="122.649324" xlink:href="#m285b2b7f14" y="127.371534"/>
     <use style="fill:#adda9c;stroke:#5fad41;stroke-linejoin:miter;stroke-width:0.75;" x="125.555103" xlink:href="#m285b2b7f14" y="128.356005"/>
     <use style="fill:#adda9c;stroke:#5fad41;stroke-linejoin:miter;stroke-width:0.75;" x="128.183727" xlink:href="#m285b2b7f14" y="129.214093"/>
     <use style="fill:#adda9c;stroke:#5fad41;stroke-linejoin:miter;stroke-width:0.75;" x="132.074567" xlink:href="#m285b2b7f14" y="130.419993"/>
     <use style="fill:#adda9c;stroke:#5fad41;stroke-linejoin:miter;stroke-width:0.75;" x="139.643388" xlink:href="#m285b2b7f14" y="132.52171"/>
     <use style="fill:#adda9c;stroke:#5fad41;stroke-linejoin:miter;stroke-width:0.75;" x="148.923105" xlink:href="#m285b2b7f14" y="134.636795"/>
     <use style="fill:#adda9c;stroke:#5fad41;stroke-linejoin:miter;stroke-width:0.75;" x="158.759999" xlink:href="#m285b2b7f14" y="136.357891"/>
     <use style="fill:#adda9c;stroke:#5fad41;stroke-linejoin:miter;stroke-width:0.75;" x="169.942497" xlink:href="#m285b2b7f14" y="137.772286"/>
     <use style="fill:#adda9c;stroke:#5fad41;stroke-linejoin:miter;stroke-width:0.75;" x="177.876609" xlink:href="#m285b2b7f14" y="138.501977"/>
    </g>
   </g>
   <g id="line2d_4">
    <path clip-path="url(#p7a99c1e144)" d="M 52.341843 117.579392 
L 54.57987 115.753262 
L 56.146488 114.474971 
L 58.496416 113.468994 
L 60.622541 112.827921 
L 62.412962 112.460768 
L 64.091482 112.184921 
L 65.993804 111.999899 
L 68.679436 112.08719 
L 70.917463 112.083978 
L 73.379292 112.353882 
L 75.169713 112.533604 
L 78.079147 112.894012 
L 79.813618 113.256106 
L 81.71594 113.709105 
L 83.450411 113.980053 
L 84.793226 114.342709 
L 86.247944 114.705205 
L 88.933575 115.430517 
L 90.500194 115.975144 
L 92.066812 116.519771 
L 93.185826 116.882748 
L 94.696493 117.33631 
" style="fill:none;stroke:#a42604;stroke-linecap:square;"/>
   </g>
   <g id="line2d_5">
    <defs>
     <path d="M -0 2.12132 
L 1.272792 0 
L 0 -2.12132 
L -1.272792 -0 
z
" id="m9f8abf8dd9" style="stroke:#fa9f42;stroke-linejoin:miter;stroke-width:0.75;"/>
    </defs>
    <g clip-path="url(#p7a99c1e144)">
     <use style="fill:#fbb874;stroke:#fa9f42;stroke-linejoin:miter;stroke-width:0.75;" x="31.886928" xlink:href="#m9f8abf8dd9" y="137.195211"/>
     <use style="fill:#fbb874;stroke:#fa9f42;stroke-linejoin:miter;stroke-width:0.75;" x="36.881571" xlink:href="#m9f8abf8dd9" y="134.289925"/>
     <use style="fill:#fbb874;stroke:#fa9f42;stroke-linejoin:miter;stroke-width:0.75;" x="40.666735" xlink:href="#m9f8abf8dd9" y="132.05165"/>
     <use style="fill:#fbb874;stroke:#fa9f42;stroke-linejoin:miter;stroke-width:0.75;" x="44.142794" xlink:href="#m9f8abf8dd9" y="127.525833"/>
     <use style="fill:#fbb874;stroke:#fa9f42;stroke-linejoin:miter;stroke-width:0.75;" x="45.450444" xlink:href="#m9f8abf8dd9" y="125.953817"/>
     <use style="fill:#fbb874;stroke:#fa9f42;stroke-linejoin:miter;stroke-width:0.75;" x="47.334994" xlink:href="#m9f8abf8dd9" y="122.904761"/>
     <use style="fill:#fbb874;stroke:#fa9f42;stroke-linejoin:miter;stroke-width:0.75;" x="49.753596" xlink:href="#m9f8abf8dd9" y="120.04677"/>
     <use style="fill:#fbb874;stroke:#fa9f42;stroke-linejoin:miter;stroke-width:0.75;" x="52.446522" xlink:href="#m9f8abf8dd9" y="116.188285"/>
     <use style="fill:#fbb874;stroke:#fa9f42;stroke-linejoin:miter;stroke-width:0.75;" x="53.64566" xlink:href="#m9f8abf8dd9" y="114.6641"/>
     <use style="fill:#fbb874;stroke:#fa9f42;stroke-linejoin:miter;stroke-width:0.75;" x="56.029143" xlink:href="#m9f8abf8dd9" y="112.330721"/>
     <use style="fill:#fbb874;stroke:#fa9f42;stroke-linejoin:miter;stroke-width:0.75;" x="59.021951" xlink:href="#m9f8abf8dd9" y="110.951251"/>
     <use style="fill:#fbb874;stroke:#fa9f42;stroke-linejoin:miter;stroke-width:0.75;" x="61.616967" xlink:href="#m9f8abf8dd9" y="109.69082"/>
     <use style="fill:#fbb874;stroke:#fa9f42;stroke-linejoin:miter;stroke-width:0.75;" x="63.641862" xlink:href="#m9f8abf8dd9" y="109.526159"/>
     <use style="fill:#fbb874;stroke:#fa9f42;stroke-linejoin:miter;stroke-width:0.75;" x="68.252009" xlink:href="#m9f8abf8dd9" y="109.245717"/>
     <use style="fill:#fbb874;stroke:#fa9f42;stroke-linejoin:miter;stroke-width:0.75;" x="71.328308" xlink:href="#m9f8abf8dd9" y="109.106966"/>
     <use style="fill:#fbb874;stroke:#fa9f42;stroke-linejoin:miter;stroke-width:0.75;" x="74.534238" xlink:href="#m9f8abf8dd9" y="109.612318"/>
    </g>
   </g>
   <g id="line2d_6">
    <defs>
     <path d="M -0 2.12132 
L 1.272792 0 
L 0 -2.12132 
L -1.272792 -0 
z
" id="m9bbea6b47b" style="stroke:#0d153a;stroke-linejoin:miter;stroke-width:0.75;"/>
    </defs>
    <g clip-path="url(#p7a99c1e144)">
     <use style="fill:#0d153a;stroke:#0d153a;stroke-linejoin:miter;stroke-width:0.75;" x="34.762993" xlink:href="#m9bbea6b47b" y="128.507895"/>
     <use style="fill:#0d153a;stroke:#0d153a;stroke-linejoin:miter;stroke-width:0.75;" x="37.089835" xlink:href="#m9bbea6b47b" y="124.513939"/>
     <use style="fill:#0d153a;stroke:#0d153a;stroke-linejoin:miter;stroke-width:0.75;" x="39.497361" xlink:href="#m9bbea6b47b" y="119.334101"/>
     <use style="fill:#0d153a;stroke:#0d153a;stroke-linejoin:miter;stroke-width:0.75;" x="40.82869" xlink:href="#m9bbea6b47b" y="117.639408"/>
     <use style="fill:#0d153a;stroke:#0d153a;stroke-linejoin:miter;stroke-width:0.75;" x="42.38253" xlink:href="#m9bbea6b47b" y="115.678347"/>
     <use style="fill:#0d153a;stroke:#0d153a;stroke-linejoin:miter;stroke-width:0.75;" x="44.462099" xlink:href="#m9bbea6b47b" y="114.176641"/>
     <use style="fill:#0d153a;stroke:#0d153a;stroke-linejoin:miter;stroke-width:0.75;" x="46.251847" xlink:href="#m9bbea6b47b" y="113.642986"/>
     <use style="fill:#0d153a;stroke:#0d153a;stroke-linejoin:miter;stroke-width:0.75;" x="48.655405" xlink:href="#m9bbea6b47b" y="113.302342"/>
     <use style="fill:#0d153a;stroke:#0d153a;stroke-linejoin:miter;stroke-width:0.75;" x="50.628281" xlink:href="#m9bbea6b47b" y="112.913508"/>
     <use style="fill:#0d153a;stroke:#0d153a;stroke-linejoin:miter;stroke-width:0.75;" x="52.619013" xlink:href="#m9bbea6b47b" y="112.669727"/>
    </g>
   </g>
   <g id="matplotlib.axis_1">
    <g id="xtick_1">
     <g id="line2d_7">
      <defs>
       <path d="M 0 0 
L 0 -2.5 
" id="m29ba89d4e7" style="stroke:#000000;stroke-width:0.8;"/>
      </defs>
      <g>
       <use style="stroke:#000000;stroke-width:0.8;" x="31.752" xlink:href="#m29ba89d4e7" y="140.76"/>
      </g>
     </g>
     <g id="line2d_8">
      <defs>
       <path d="M 0 0 
L 0 2.5 
" id="m775ee8da98" style="stroke:#000000;stroke-width:0.8;"/>
      </defs>
      <g>
       <use style="stroke:#000000;stroke-width:0.8;" x="31.752" xlink:href="#m775ee8da98" y="3.312"/>
      </g>
     </g>
     <g id="text_1">
      <!-- $10^{-1}$ -->
      <defs>
       <path d="M 30.203125 0 
L 22.296875 0 
L 22.296875 57 
Q 20.09375 56 15.75 53.75 
Q 11.40625 51.5 10.796875 51.203125 
L 10.796875 58.5 
L 28.796875 67.703125 
L 30.203125 67.203125 
z
" id="STIXGeneral-Regular-1d7e3"/>
       <path d="M 47.703125 33 
Q 47.703125 23.796875 45.546875 16.34375 
Q 43.40625 8.90625 38.09375 3.75 
Q 32.796875 -1.40625 25 -1.40625 
Q 18.796875 -1.40625 14.25 1.6875 
Q 9.703125 4.796875 7.203125 10.046875 
Q 4.703125 15.296875 3.5 21.140625 
Q 2.296875 27 2.296875 33.59375 
Q 2.296875 42.90625 4.59375 50.34375 
Q 6.90625 57.796875 12.296875 62.6875 
Q 17.703125 67.59375 25.40625 67.59375 
Q 35.203125 67.59375 41.453125 57.9375 
Q 47.703125 48.296875 47.703125 33 
z
M 39.796875 33 
Q 39.796875 45.203125 35.75 52.84375 
Q 31.703125 60.5 25.203125 60.5 
Q 17.796875 60.5 14 52.75 
Q 10.203125 45 10.203125 33.40625 
Q 10.203125 28.203125 10.953125 23.546875 
Q 11.703125 18.90625 13.34375 14.75 
Q 15 10.59375 18 8.140625 
Q 21 5.703125 25 5.703125 
Q 30.09375 5.703125 33.546875 9.796875 
Q 37 13.90625 38.390625 19.84375 
Q 39.796875 25.796875 39.796875 33 
z
" id="STIXGeneral-Regular-1d7e2"/>
       <path d="M 62.09375 22 
L 6.40625 22 
L 6.40625 28.59375 
L 62.09375 28.59375 
z
" id="STIXGeneral-Regular-2212"/>
      </defs>
      <g transform="translate(24.272 150.33875)scale(0.08 -0.08)">
       <use transform="translate(0 0.370312)" xlink:href="#STIXGeneral-Regular-1d7e3"/>
       <use transform="translate(49.999985 0.370312)" xlink:href="#STIXGeneral-Regular-1d7e2"/>
       <use transform="translate(100.792665 36.607813)scale(0.7)" xlink:href="#STIXGeneral-Regular-2212"/>
       <use transform="translate(148.742654 36.607813)scale(0.7)" xlink:href="#STIXGeneral-Regular-1d7e3"/>
      </g>
     </g>
    </g>
    <g id="xtick_2">
     <g id="line2d_9">
      <g>
       <use style="stroke:#000000;stroke-width:0.8;" x="95.256" xlink:href="#m29ba89d4e7" y="140.76"/>
      </g>
     </g>
     <g id="line2d_10">
      <g>
       <use style="stroke:#000000;stroke-width:0.8;" x="95.256" xlink:href="#m775ee8da98" y="3.312"/>
      </g>
     </g>
     <g id="text_2">
      <!-- $10^{0}$ -->
      <g transform="translate(89.696 150.33875)scale(0.08 -0.08)">
       <use transform="translate(0 0.446875)" xlink:href="#STIXGeneral-Regular-1d7e3"/>
       <use transform="translate(49.999985 0.446875)" xlink:href="#STIXGeneral-Regular-1d7e2"/>
       <use transform="translate(100.792665 36.684375)scale(0.7)" xlink:href="#STIXGeneral-Regular-1d7e2"/>
      </g>
     </g>
    </g>
    <g id="xtick_3">
     <g id="line2d_11">
      <g>
       <use style="stroke:#000000;stroke-width:0.8;" x="158.76" xlink:href="#m29ba89d4e7" y="140.76"/>
      </g>
     </g>
     <g id="line2d_12">
      <g>
       <use style="stroke:#000000;stroke-width:0.8;" x="158.76" xlink:href="#m775ee8da98" y="3.312"/>
      </g>
     </g>
     <g id="text_3">
      <!-- $10^{1}$ -->
      <g transform="translate(153.2 150.33875)scale(0.08 -0.08)">
       <use transform="translate(0 0.370312)" xlink:href="#STIXGeneral-Regular-1d7e3"/>
       <use transform="translate(49.999985 0.370312)" xlink:href="#STIXGeneral-Regular-1d7e2"/>
       <use transform="translate(100.792665 36.607813)scale(0.7)" xlink:href="#STIXGeneral-Regular-1d7e3"/>
      </g>
     </g>
    </g>
    <g id="xtick_4">
     <g id="line2d_13">
      <g>
       <use style="stroke:#000000;stroke-width:0.8;" x="222.264" xlink:href="#m29ba89d4e7" y="140.76"/>
      </g>
     </g>
     <g id="line2d_14">
      <g>
       <use style="stroke:#000000;stroke-width:0.8;" x="222.264" xlink:href="#m775ee8da98" y="3.312"/>
      </g>
     </g>
     <g id="text_4">
      <!-- $10^{2}$ -->
      <defs>
       <path d="M 46.90625 7.09375 
L 44 0 
L 3.5 0 
L 3.5 2.09375 
L 21 23.5 
L 21 23.40625 
L 26.59375 30.203125 
Q 30.5 34.90625 32.09375 36.953125 
Q 33.703125 39 35.203125 41.953125 
Q 36.703125 44.90625 36.703125 47.5 
Q 36.703125 53.703125 33.34375 57.09375 
Q 30 60.5 24.203125 60.5 
Q 19.59375 60.5 15.75 56.703125 
Q 11.90625 52.90625 10.90625 45.90625 
L 3.703125 47.59375 
Q 5.296875 56.5 11.1875 62.046875 
Q 17.09375 67.59375 24.90625 67.59375 
Q 33.59375 67.59375 39.09375 62.1875 
Q 44.59375 56.796875 44.59375 49.09375 
Q 44.59375 43.5 42.5 39.453125 
Q 40.40625 35.40625 33.703125 27 
L 17.703125 7.09375 
z
" id="STIXGeneral-Regular-1d7e4"/>
      </defs>
      <g transform="translate(216.704 150.33875)scale(0.08 -0.08)">
       <use transform="translate(0 0.446875)" xlink:href="#STIXGeneral-Regular-1d7e3"/>
       <use transform="translate(49.999985 0.446875)" xlink:href="#STIXGeneral-Regular-1d7e2"/>
       <use transform="translate(100.792665 36.684375)scale(0.7)" xlink:href="#STIXGeneral-Regular-1d7e4"/>
      </g>
     </g>
    </g>
    <g id="xtick_5">
     <g id="line2d_15">
      <defs>
       <path d="M 0 0 
L 0 -1.5 
" id="mc200408115" style="stroke:#000000;stroke-width:0.6;"/>
      </defs>
      <g>
       <use style="stroke:#000000;stroke-width:0.6;" x="50.868609" xlink:href="#mc200408115" y="140.76"/>
      </g>
     </g>
     <g id="line2d_16">
      <defs>
       <path d="M 0 0 
L 0 1.5 
" id="me1ae08e98d" style="stroke:#000000;stroke-width:0.6;"/>
      </defs>
      <g>
       <use style="stroke:#000000;stroke-width:0.6;" x="50.868609" xlink:href="#me1ae08e98d" y="3.312"/>
      </g>
     </g>
    </g>
    <g id="xtick_6">
     <g id="line2d_17">
      <g>
       <use style="stroke:#000000;stroke-width:0.6;" x="62.051108" xlink:href="#mc200408115" y="140.76"/>
      </g>
     </g>
     <g id="line2d_18">
      <g>
       <use style="stroke:#000000;stroke-width:0.6;" x="62.051108" xlink:href="#me1ae08e98d" y="3.312"/>
      </g>
     </g>
    </g>
    <g id="xtick_7">
     <g id="line2d_19">
      <g>
       <use style="stroke:#000000;stroke-width:0.6;" x="69.985218" xlink:href="#mc200408115" y="140.76"/>
      </g>
     </g>
     <g id="line2d_20">
      <g>
       <use style="stroke:#000000;stroke-width:0.6;" x="69.985218" xlink:href="#me1ae08e98d" y="3.312"/>
      </g>
     </g>
    </g>
    <g id="xtick_8">
     <g id="line2d_21">
      <g>
       <use style="stroke:#000000;stroke-width:0.6;" x="76.139391" xlink:href="#mc200408115" y="140.76"/>
      </g>
     </g>
     <g id="line2d_22">
      <g>
       <use style="stroke:#000000;stroke-width:0.6;" x="76.139391" xlink:href="#me1ae08e98d" y="3.312"/>
      </g>
     </g>
    </g>
    <g id="xtick_9">
     <g id="line2d_23">
      <g>
       <use style="stroke:#000000;stroke-width:0.6;" x="81.167717" xlink:href="#mc200408115" y="140.76"/>
      </g>
     </g>
     <g id="line2d_24">
      <g>
       <use style="stroke:#000000;stroke-width:0.6;" x="81.167717" xlink:href="#me1ae08e98d" y="3.312"/>
      </g>
     </g>
    </g>
    <g id="xtick_10">
     <g id="line2d_25">
      <g>
       <use style="stroke:#000000;stroke-width:0.6;" x="85.419106" xlink:href="#mc200408115" y="140.76"/>
      </g>
     </g>
     <g id="line2d_26">
      <g>
       <use style="stroke:#000000;stroke-width:0.6;" x="85.419106" xlink:href="#me1ae08e98d" y="3.312"/>
      </g>
     </g>
    </g>
    <g id="xtick_11">
     <g id="line2d_27">
      <g>
       <use style="stroke:#000000;stroke-width:0.6;" x="89.101827" xlink:href="#mc200408115" y="140.76"/>
      </g>
     </g>
     <g id="line2d_28">
      <g>
       <use style="stroke:#000000;stroke-width:0.6;" x="89.101827" xlink:href="#me1ae08e98d" y="3.312"/>
      </g>
     </g>
    </g>
    <g id="xtick_12">
     <g id="line2d_29">
      <g>
       <use style="stroke:#000000;stroke-width:0.6;" x="92.350216" xlink:href="#mc200408115" y="140.76"/>
      </g>
     </g>
     <g id="line2d_30">
      <g>
       <use style="stroke:#000000;stroke-width:0.6;" x="92.350216" xlink:href="#me1ae08e98d" y="3.312"/>
      </g>
     </g>
    </g>
    <g id="xtick_13">
     <g id="line2d_31">
      <g>
       <use style="stroke:#000000;stroke-width:0.6;" x="114.372609" xlink:href="#mc200408115" y="140.76"/>
      </g>
     </g>
     <g id="line2d_32">
      <g>
       <use style="stroke:#000000;stroke-width:0.6;" x="114.372609" xlink:href="#me1ae08e98d" y="3.312"/>
      </g>
     </g>
    </g>
    <g id="xtick_14">
     <g id="line2d_33">
      <g>
       <use style="stroke:#000000;stroke-width:0.6;" x="125.555108" xlink:href="#mc200408115" y="140.76"/>
      </g>
     </g>
     <g id="line2d_34">
      <g>
       <use style="stroke:#000000;stroke-width:0.6;" x="125.555108" xlink:href="#me1ae08e98d" y="3.312"/>
      </g>
     </g>
    </g>
    <g id="xtick_15">
     <g id="line2d_35">
      <g>
       <use style="stroke:#000000;stroke-width:0.6;" x="133.489218" xlink:href="#mc200408115" y="140.76"/>
      </g>
     </g>
     <g id="line2d_36">
      <g>
       <use style="stroke:#000000;stroke-width:0.6;" x="133.489218" xlink:href="#me1ae08e98d" y="3.312"/>
      </g>
     </g>
    </g>
    <g id="xtick_16">
     <g id="line2d_37">
      <g>
       <use style="stroke:#000000;stroke-width:0.6;" x="139.643391" xlink:href="#mc200408115" y="140.76"/>
      </g>
     </g>
     <g id="line2d_38">
      <g>
       <use style="stroke:#000000;stroke-width:0.6;" x="139.643391" xlink:href="#me1ae08e98d" y="3.312"/>
      </g>
     </g>
    </g>
    <g id="xtick_17">
     <g id="line2d_39">
      <g>
       <use style="stroke:#000000;stroke-width:0.6;" x="144.671717" xlink:href="#mc200408115" y="140.76"/>
      </g>
     </g>
     <g id="line2d_40">
      <g>
       <use style="stroke:#000000;stroke-width:0.6;" x="144.671717" xlink:href="#me1ae08e98d" y="3.312"/>
      </g>
     </g>
    </g>
    <g id="xtick_18">
     <g id="line2d_41">
      <g>
       <use style="stroke:#000000;stroke-width:0.6;" x="148.923106" xlink:href="#mc200408115" y="140.76"/>
      </g>
     </g>
     <g id="line2d_42">
      <g>
       <use style="stroke:#000000;stroke-width:0.6;" x="148.923106" xlink:href="#me1ae08e98d" y="3.312"/>
      </g>
     </g>
    </g>
    <g id="xtick_19">
     <g id="line2d_43">
      <g>
       <use style="stroke:#000000;stroke-width:0.6;" x="152.605827" xlink:href="#mc200408115" y="140.76"/>
      </g>
     </g>
     <g id="line2d_44">
      <g>
       <use style="stroke:#000000;stroke-width:0.6;" x="152.605827" xlink:href="#me1ae08e98d" y="3.312"/>
      </g>
     </g>
    </g>
    <g id="xtick_20">
     <g id="line2d_45">
      <g>
       <use style="stroke:#000000;stroke-width:0.6;" x="155.854216" xlink:href="#mc200408115" y="140.76"/>
      </g>
     </g>
     <g id="line2d_46">
      <g>
       <use style="stroke:#000000;stroke-width:0.6;" x="155.854216" xlink:href="#me1ae08e98d" y="3.312"/>
      </g>
     </g>
    </g>
    <g id="xtick_21">
     <g id="line2d_47">
      <g>
       <use style="stroke:#000000;stroke-width:0.6;" x="177.876609" xlink:href="#mc200408115" y="140.76"/>
      </g>
     </g>
     <g id="line2d_48">
      <g>
       <use style="stroke:#000000;stroke-width:0.6;" x="177.876609" xlink:href="#me1ae08e98d" y="3.312"/>
      </g>
     </g>
    </g>
    <g id="xtick_22">
     <g id="line2d_49">
      <g>
       <use style="stroke:#000000;stroke-width:0.6;" x="189.059108" xlink:href="#mc200408115" y="140.76"/>
      </g>
     </g>
     <g id="line2d_50">
      <g>
       <use style="stroke:#000000;stroke-width:0.6;" x="189.059108" xlink:href="#me1ae08e98d" y="3.312"/>
      </g>
     </g>
    </g>
    <g id="xtick_23">
     <g id="line2d_51">
      <g>
       <use style="stroke:#000000;stroke-width:0.6;" x="196.993218" xlink:href="#mc200408115" y="140.76"/>
      </g>
     </g>
     <g id="line2d_52">
      <g>
       <use style="stroke:#000000;stroke-width:0.6;" x="196.993218" xlink:href="#me1ae08e98d" y="3.312"/>
      </g>
     </g>
    </g>
    <g id="xtick_24">
     <g id="line2d_53">
      <g>
       <use style="stroke:#000000;stroke-width:0.6;" x="203.147391" xlink:href="#mc200408115" y="140.76"/>
      </g>
     </g>
     <g id="line2d_54">
      <g>
       <use style="stroke:#000000;stroke-width:0.6;" x="203.147391" xlink:href="#me1ae08e98d" y="3.312"/>
      </g>
     </g>
    </g>
    <g id="xtick_25">
     <g id="line2d_55">
      <g>
       <use style="stroke:#000000;stroke-width:0.6;" x="208.175717" xlink:href="#mc200408115" y="140.76"/>
      </g>
     </g>
     <g id="line2d_56">
      <g>
       <use style="stroke:#000000;stroke-width:0.6;" x="208.175717" xlink:href="#me1ae08e98d" y="3.312"/>
      </g>
     </g>
    </g>
    <g id="xtick_26">
     <g id="line2d_57">
      <g>
       <use style="stroke:#000000;stroke-width:0.6;" x="212.427106" xlink:href="#mc200408115" y="140.76"/>
      </g>
     </g>
     <g id="line2d_58">
      <g>
       <use style="stroke:#000000;stroke-width:0.6;" x="212.427106" xlink:href="#me1ae08e98d" y="3.312"/>
      </g>
     </g>
    </g>
    <g id="xtick_27">
     <g id="line2d_59">
      <g>
       <use style="stroke:#000000;stroke-width:0.6;" x="216.109827" xlink:href="#mc200408115" y="140.76"/>
      </g>
     </g>
     <g id="line2d_60">
      <g>
       <use style="stroke:#000000;stroke-width:0.6;" x="216.109827" xlink:href="#me1ae08e98d" y="3.312"/>
      </g>
     </g>
    </g>
    <g id="xtick_28">
     <g id="line2d_61">
      <g>
       <use style="stroke:#000000;stroke-width:0.6;" x="219.358216" xlink:href="#mc200408115" y="140.76"/>
      </g>
     </g>
     <g id="line2d_62">
      <g>
       <use style="stroke:#000000;stroke-width:0.6;" x="219.358216" xlink:href="#me1ae08e98d" y="3.312"/>
      </g>
     </g>
    </g>
    <g id="text_5">
     <!-- $T/T_F$ -->
     <defs>
      <path d="M 74.796875 66.203125 
L 73.90625 58.796875 
L 49.40625 58.796875 
L 34.703125 0 
L 26 0 
L 40.59375 58.796875 
L 16.09375 58.796875 
L 19 66.203125 
z
" id="STIXGeneral-Italic-1d61b"/>
      <path d="M 28.703125 67.59375 
L 5.90625 -1.40625 
L -0.90625 -1.40625 
L 22 67.59375 
z
" id="STIXGeneral-Regular-2f"/>
      <path d="M 67.90625 66.203125 
L 66.90625 58.796875 
L 30.703125 58.796875 
L 25.703125 38.59375 
L 55.296875 38.59375 
L 53.40625 31.09375 
L 23.796875 31.09375 
L 16.09375 0 
L 7.40625 0 
L 23.90625 66.203125 
z
" id="STIXGeneral-Italic-1d60d"/>
     </defs>
     <g transform="translate(119.408 160.08125)scale(0.08 -0.08)">
      <use transform="translate(0 0.40625)" xlink:href="#STIXGeneral-Italic-1d61b"/>
      <use transform="translate(60.799988 0.40625)" xlink:href="#STIXGeneral-Regular-2f"/>
      <use transform="translate(88.599976 0.40625)" xlink:href="#STIXGeneral-Italic-1d61b"/>
      <use transform="translate(149.399963 -13.182812)scale(0.7)" xlink:href="#STIXGeneral-Italic-1d60d"/>
     </g>
    </g>
   </g>
   <g id="matplotlib.axis_2">
    <g id="ytick_1">
     <g id="line2d_63">
      <defs>
       <path d="M 0 0 
L 2.5 0 
" id="meef46aecc2" style="stroke:#000000;stroke-width:0.8;"/>
      </defs>
      <g>
       <use style="stroke:#000000;stroke-width:0.8;" x="31.752" xlink:href="#meef46aecc2" y="140.76"/>
      </g>
     </g>
     <g id="line2d_64">
      <defs>
       <path d="M 0 0 
L -2.5 0 
" id="mdf63e5f6b2" style="stroke:#000000;stroke-width:0.8;"/>
      </defs>
      <g>
       <use style="stroke:#000000;stroke-width:0.8;" x="222.264" xlink:href="#mdf63e5f6b2" y="140.76"/>
      </g>
     </g>
     <g id="text_6">
      <!-- $0$ -->
      <g transform="translate(24.252 143.799375)scale(0.08 -0.08)">
       <use transform="translate(0 0.40625)" xlink:href="#STIXGeneral-Regular-1d7e2"/>
      </g>
     </g>
    </g>
    <g id="ytick_2">
     <g id="line2d_65">
      <g>
       <use style="stroke:#000000;stroke-width:0.8;" x="31.752" xlink:href="#meef46aecc2" y="106.398"/>
      </g>
     </g>
     <g id="line2d_66">
      <g>
       <use style="stroke:#000000;stroke-width:0.8;" x="222.264" xlink:href="#mdf63e5f6b2" y="106.398"/>
      </g>
     </g>
     <g id="text_7">
      <!-- $0.5$ -->
      <defs>
       <path d="M 18.09375 4.296875 
Q 18.09375 2.09375 16.4375 0.5 
Q 14.796875 -1.09375 12.5 -1.09375 
Q 10.203125 -1.09375 8.59375 0.5 
Q 7 2.09375 7 4.390625 
Q 7 6.703125 8.640625 8.34375 
Q 10.296875 10 12.59375 10 
Q 14.796875 10 16.4375 8.296875 
Q 18.09375 6.59375 18.09375 4.296875 
z
" id="STIXGeneral-Regular-2e"/>
       <path d="M 45.796875 67.59375 
L 42.59375 60.5 
L 24.90625 60.5 
L 18.5 47.796875 
Q 29.90625 46.203125 37.25 39.75 
Q 44.59375 33.296875 44.59375 22.59375 
Q 44.59375 12.703125 37.84375 5.640625 
Q 31.09375 -1.40625 21 -1.40625 
Q 10 -1.40625 3.59375 5.59375 
L 8.296875 11.203125 
Q 13.40625 5.703125 20.5 5.703125 
Q 27.90625 5.703125 32.296875 10.75 
Q 36.703125 15.796875 36.703125 22.59375 
Q 36.703125 30 30.09375 35.203125 
Q 23.40625 40.703125 9.40625 40.703125 
L 8 42.40625 
L 19.59375 67.59375 
z
" id="STIXGeneral-Regular-1d7e7"/>
      </defs>
      <g transform="translate(18.252 109.437375)scale(0.08 -0.08)">
       <use transform="translate(0 0.40625)" xlink:href="#STIXGeneral-Regular-1d7e2"/>
       <use transform="translate(49.999985 0.40625)" xlink:href="#STIXGeneral-Regular-2e"/>
       <use transform="translate(74.999969 0.40625)" xlink:href="#STIXGeneral-Regular-1d7e7"/>
      </g>
     </g>
    </g>
    <g id="ytick_3">
     <g id="line2d_67">
      <g>
       <use style="stroke:#000000;stroke-width:0.8;" x="31.752" xlink:href="#meef46aecc2" y="72.036"/>
      </g>
     </g>
     <g id="line2d_68">
      <g>
       <use style="stroke:#000000;stroke-width:0.8;" x="222.264" xlink:href="#mdf63e5f6b2" y="72.036"/>
      </g>
     </g>
     <g id="text_8">
      <!-- $1$ -->
      <g transform="translate(24.252 75.075375)scale(0.08 -0.08)">
       <use transform="translate(0 0.296875)" xlink:href="#STIXGeneral-Regular-1d7e3"/>
      </g>
     </g>
    </g>
    <g id="ytick_4">
     <g id="line2d_69">
      <g>
       <use style="stroke:#000000;stroke-width:0.8;" x="31.752" xlink:href="#meef46aecc2" y="37.674"/>
      </g>
     </g>
     <g id="line2d_70">
      <g>
       <use style="stroke:#000000;stroke-width:0.8;" x="222.264" xlink:href="#mdf63e5f6b2" y="37.674"/>
      </g>
     </g>
     <g id="text_9">
      <!-- $1.5$ -->
      <g transform="translate(18.252 40.713375)scale(0.08 -0.08)">
       <use transform="translate(0 0.296875)" xlink:href="#STIXGeneral-Regular-1d7e3"/>
       <use transform="translate(49.999985 0.296875)" xlink:href="#STIXGeneral-Regular-2e"/>
       <use transform="translate(74.999969 0.296875)" xlink:href="#STIXGeneral-Regular-1d7e7"/>
      </g>
     </g>
    </g>
    <g id="ytick_5">
     <g id="line2d_71">
      <g>
       <use style="stroke:#000000;stroke-width:0.8;" x="31.752" xlink:href="#meef46aecc2" y="3.312"/>
      </g>
     </g>
     <g id="line2d_72">
      <g>
       <use style="stroke:#000000;stroke-width:0.8;" x="222.264" xlink:href="#mdf63e5f6b2" y="3.312"/>
      </g>
     </g>
     <g id="text_10">
      <!-- $2$ -->
      <g transform="translate(24.252 6.351375)scale(0.08 -0.08)">
       <use transform="translate(0 0.40625)" xlink:href="#STIXGeneral-Regular-1d7e4"/>
      </g>
     </g>
    </g>
    <g id="ytick_6">
     <g id="line2d_73">
      <defs>
       <path d="M 0 0 
L 1.5 0 
" id="m93b256f4a7" style="stroke:#000000;stroke-width:0.6;"/>
      </defs>
      <g>
       <use style="stroke:#000000;stroke-width:0.6;" x="31.752" xlink:href="#m93b256f4a7" y="123.579"/>
      </g>
     </g>
     <g id="line2d_74">
      <defs>
       <path d="M 0 0 
L -1.5 0 
" id="m0eecfa4f82" style="stroke:#000000;stroke-width:0.6;"/>
      </defs>
      <g>
       <use style="stroke:#000000;stroke-width:0.6;" x="222.264" xlink:href="#m0eecfa4f82" y="123.579"/>
      </g>
     </g>
    </g>
    <g id="ytick_7">
     <g id="line2d_75">
      <g>
       <use style="stroke:#000000;stroke-width:0.6;" x="31.752" xlink:href="#m93b256f4a7" y="89.217"/>
      </g>
     </g>
     <g id="line2d_76">
      <g>
       <use style="stroke:#000000;stroke-width:0.6;" x="222.264" xlink:href="#m0eecfa4f82" y="89.217"/>
      </g>
     </g>
    </g>
    <g id="ytick_8">
     <g id="line2d_77">
      <g>
       <use style="stroke:#000000;stroke-width:0.6;" x="31.752" xlink:href="#m93b256f4a7" y="54.855"/>
      </g>
     </g>
     <g id="line2d_78">
      <g>
       <use style="stroke:#000000;stroke-width:0.6;" x="222.264" xlink:href="#m0eecfa4f82" y="54.855"/>
      </g>
     </g>
    </g>
    <g id="ytick_9">
     <g id="line2d_79">
      <g>
       <use style="stroke:#000000;stroke-width:0.6;" x="31.752" xlink:href="#m93b256f4a7" y="20.493"/>
      </g>
     </g>
     <g id="line2d_80">
      <g>
       <use style="stroke:#000000;stroke-width:0.6;" x="222.264" xlink:href="#m0eecfa4f82" y="20.493"/>
      </g>
     </g>
    </g>
    <g id="text_11">
     <!-- $\chi/\chi_{\mathrm{P}}$ -->
     <defs>
      <path d="M 55.203125 45.296875 
L 28.40625 12.40625 
Q 27.296875 5.296875 27.296875 0.796875 
Q 27.296875 -2 28.09375 -5.203125 
Q 28.90625 -8.40625 31.34375 -11.34375 
Q 33.796875 -14.296875 37.40625 -14.296875 
L 37 -15.703125 
L 30.59375 -21.5 
Q 20 -21.5 20 -3.5 
Q 20 -1.40625 20.203125 2.203125 
Q 18.296875 -0.203125 11.5 -8.34375 
Q 4.703125 -16.5 1.40625 -20.90625 
L -7.203125 -20.90625 
L 19.796875 12.5 
Q 21 18.796875 21 24 
Q 21 26.90625 20.140625 30.15625 
Q 19.296875 33.40625 16.890625 36.296875 
Q 14.5 39.203125 11 39.203125 
L 11.296875 40.5 
L 17.796875 46.296875 
Q 28.296875 46.296875 28.296875 28.203125 
Q 28.296875 26.203125 28.09375 22.59375 
L 46.5 45.296875 
z
" id="STIXNonUnicode-Italic-e1ee"/>
      <path d="M 7.40625 66.203125 
L 25.796875 66.203125 
Q 51.203125 66.203125 51.203125 47.796875 
Q 51.203125 39.09375 45.046875 33.796875 
Q 38.90625 28.5 28.09375 28.5 
L 16.09375 28.5 
L 16.09375 0 
L 7.40625 0 
z
M 16.09375 35.90625 
L 24.90625 35.90625 
Q 34.203125 35.90625 38.296875 38.90625 
Q 42.40625 41.90625 42.40625 47.90625 
Q 42.40625 53.40625 38.15625 56.09375 
Q 33.90625 58.796875 24.40625 58.796875 
L 16.09375 58.796875 
z
" id="STIXGeneral-Regular-1d5af"/>
     </defs>
     <g transform="translate(12.492 78.876)rotate(-90)scale(0.08 -0.08)">
      <use transform="translate(0 0.40625)" xlink:href="#STIXNonUnicode-Italic-e1ee"/>
      <use transform="translate(51.399994 0.40625)" xlink:href="#STIXGeneral-Regular-2f"/>
      <use transform="translate(79.199982 0.40625)" xlink:href="#STIXNonUnicode-Italic-e1ee"/>
      <use transform="translate(131.392671 -13.182812)scale(0.7)" xlink:href="#STIXGeneral-Regular-1d5af"/>
     </g>
    </g>
   </g>
   <g id="LineCollection_1">
    <path clip-path="url(#p7a99c1e144)" d="M 35.002994 36.377124 
L 41.605945 36.377124 
" style="fill:none;stroke:#a42604;"/>
    <path clip-path="url(#p7a99c1e144)" d="M 38.469317 94.157371 
L 46.050235 94.157371 
" style="fill:none;stroke:#a42604;"/>
    <path clip-path="url(#p7a99c1e144)" d="M 48.834435 47.92561 
L 53.441762 47.92561 
" style="fill:none;stroke:#a42604;"/>
    <path clip-path="url(#p7a99c1e144)" d="M 57.257559 73.651498 
L 58.934002 73.651498 
" style="fill:none;stroke:#a42604;"/>
    <path clip-path="url(#p7a99c1e144)" d="M 61.934179 65.570526 
L 62.531922 65.570526 
" style="fill:none;stroke:#a42604;"/>
    <path clip-path="url(#p7a99c1e144)" d="M 70.658835 74.102809 
L 71.35438 74.102809 
" style="fill:none;stroke:#a42604;"/>
    <path clip-path="url(#p7a99c1e144)" d="M 74.924037 79.618887 
L 76.69643 79.618887 
" style="fill:none;stroke:#a42604;"/>
    <path clip-path="url(#p7a99c1e144)" d="M 79.594408 86.924951 
L 81.561234 86.924951 
" style="fill:none;stroke:#a42604;"/>
    <path clip-path="url(#p7a99c1e144)" d="M 86.886394 84.192703 
L 88.658786 84.192703 
" style="fill:none;stroke:#a42604;"/>
    <path clip-path="url(#p7a99c1e144)" d="M 90.862041 92.933474 
L 93.307597 92.933474 
" style="fill:none;stroke:#a42604;"/>
    <path clip-path="url(#p7a99c1e144)" d="M 99.297664 105.764572 
L 101.360957 105.764572 
" style="fill:none;stroke:#a42604;"/>
    <path clip-path="url(#p7a99c1e144)" d="M 107.108348 109.294451 
L 108.490885 109.294451 
" style="fill:none;stroke:#a42604;"/>
    <path clip-path="url(#p7a99c1e144)" d="M 114.185251 118.553542 
L 115.664235 118.553542 
" style="fill:none;stroke:#a42604;"/>
    <path clip-path="url(#p7a99c1e144)" d="M 119.292557 121.740418 
L 120.969 121.740418 
" style="fill:none;stroke:#a42604;"/>
    <path clip-path="url(#p7a99c1e144)" d="M 130.604978 126.671169 
L 133.815439 126.671169 
" style="fill:none;stroke:#a42604;"/>
    <path clip-path="url(#p7a99c1e144)" d="M 135.11651 130.044308 
L 137.562066 130.044308 
" style="fill:none;stroke:#a42604;"/>
    <path clip-path="url(#p7a99c1e144)" d="M 140.17278 132.505703 
L 145.606089 132.505703 
" style="fill:none;stroke:#a42604;"/>
    <path clip-path="url(#p7a99c1e144)" d="M 159.631789 135.776007 
L 165.335754 135.776007 
" style="fill:none;stroke:#a42604;"/>
   </g>
   <g id="LineCollection_2">
    <path clip-path="url(#p7a99c1e144)" d="M 38.501605 64.295875 
L 38.501605 8.458372 
" style="fill:none;stroke:#a42604;"/>
    <path clip-path="url(#p7a99c1e144)" d="M 42.519436 117.512508 
L 42.519436 70.802234 
" style="fill:none;stroke:#a42604;"/>
    <path clip-path="url(#p7a99c1e144)" d="M 51.234198 69.759542 
L 51.234198 26.091678 
" style="fill:none;stroke:#a42604;"/>
    <path clip-path="url(#p7a99c1e144)" d="M 58.108516 79.915283 
L 58.108516 67.387712 
" style="fill:none;stroke:#a42604;"/>
    <path clip-path="url(#p7a99c1e144)" d="M 62.23467 69.239315 
L 62.23467 61.901738 
" style="fill:none;stroke:#a42604;"/>
    <path clip-path="url(#p7a99c1e144)" d="M 71.0088 76.429689 
L 71.0088 71.775928 
" style="fill:none;stroke:#a42604;"/>
    <path clip-path="url(#p7a99c1e144)" d="M 75.824469 81.140092 
L 75.824469 78.097682 
" style="fill:none;stroke:#a42604;"/>
    <path clip-path="url(#p7a99c1e144)" d="M 80.59535 89.430465 
L 80.59535 84.419436 
" style="fill:none;stroke:#a42604;"/>
    <path clip-path="url(#p7a99c1e144)" d="M 87.786825 86.877348 
L 87.786825 81.508058 
" style="fill:none;stroke:#a42604;"/>
    <path clip-path="url(#p7a99c1e144)" d="M 92.111917 96.154849 
L 92.111917 89.712099 
" style="fill:none;stroke:#a42604;"/>
    <path clip-path="url(#p7a99c1e144)" d="M 100.348601 107.643708 
L 100.348601 103.885437 
" style="fill:none;stroke:#a42604;"/>
    <path clip-path="url(#p7a99c1e144)" d="M 107.808279 112.247545 
L 107.808279 106.341358 
" style="fill:none;stroke:#a42604;"/>
    <path clip-path="url(#p7a99c1e144)" d="M 114.934656 120.522658 
L 114.934656 116.584426 
" style="fill:none;stroke:#a42604;"/>
    <path clip-path="url(#p7a99c1e144)" d="M 120.143514 122.545927 
L 120.143514 120.934908 
" style="fill:none;stroke:#a42604;"/>
    <path clip-path="url(#p7a99c1e144)" d="M 132.256897 127.834775 
L 132.256897 125.507563 
" style="fill:none;stroke:#a42604;"/>
    <path clip-path="url(#p7a99c1e144)" d="M 136.366386 130.849486 
L 136.366386 129.23913 
" style="fill:none;stroke:#a42604;"/>
    <path clip-path="url(#p7a99c1e144)" d="M 143.023018 133.221896 
L 143.023018 131.78951 
" style="fill:none;stroke:#a42604;"/>
    <path clip-path="url(#p7a99c1e144)" d="M 162.630971 137.296881 
L 162.630971 134.255134 
" style="fill:none;stroke:#a42604;"/>
   </g>
   <g id="line2d_81">
    <path clip-path="url(#p7a99c1e144)" d="M 181.996886 138.791634 
L 175.515147 138.272637 
L 169.041172 137.619 
L 162.578187 136.797522 
L 156.130719 135.768165 
L 149.70508 134.483681 
L 143.309997 132.890115 
L 136.957393 130.928911 
L 130.66328 128.541623 
L 124.448677 125.678332 
L 118.340312 122.31042 
L 112.370774 118.446748 
L 106.577633 114.149419 
L 101.001162 109.541994 
L 95.680626 104.802185 
L 90.649767 100.135902 
L 85.932669 95.739305 
L 81.541264 91.76352 
L 77.475121 88.295443 
L 73.72326 85.35849 
L 70.267105 82.927396 
L 67.083608 80.947666 
L 64.147904 79.35263 
L 61.435228 78.075196 
L 58.922117 77.054386 
L 56.587055 76.238073 
L 54.41072 75.583379 
L 52.375989 75.055899 
L 50.467816 74.628457 
L 48.673036 74.279784 
L 46.980155 73.993325 
L 45.379139 73.756214 
L 43.861216 73.558452 
L 42.418707 73.392252 
L 41.044871 73.251528 
L 39.733772 73.131509 
L 38.480168 73.02843 
L 37.279415 72.939308 
L 36.127384 72.861765 
L 35.020392 72.793894 
L 33.955145 72.734156 
L 32.928685 72.681299 
L 31.938349 72.634301 
L 30.981733 72.592323 
L 30.056657 72.554667 
L 29.161145 72.520755 
L 28.293395 72.490102 
L 27.451762 72.462299 
L 26.634741 72.436998 
L 25.840953 72.413906 
L 25.069128 72.392771 
L 24.318096 72.373374 
L 23.586779 72.355529 
L 22.874178 72.339073 
L 22.179368 72.323864 
L 21.50149 72.309779 
L 20.839744 72.296709 
L 20.193388 72.284557 
L 19.561727 72.27324 
L 18.944112 72.262681 
L 18.339937 72.252815 
L 17.748632 72.243582 
L 17.169665 72.234928 
L 16.602533 72.226807 
L 16.046766 72.219174 
L 15.501919 72.211991 
L 14.967574 72.205224 
L 14.443336 72.198841 
L 13.928831 72.192813 
L 13.423706 72.187115 
L 12.927626 72.181723 
L 12.440275 72.176614 
L 11.961352 72.17177 
L 11.490572 72.167173 
L 11.027664 72.162806 
L 10.572369 72.158653 
L 10.124442 72.154702 
L 9.68365 72.150939 
L 9.249768 72.147352 
L 8.822586 72.143931 
L 8.401899 72.140665 
L 7.987513 72.137546 
L 7.579244 72.134564 
L 7.176913 72.131712 
L 6.780351 72.128982 
L 6.389396 72.126368 
L 6.003891 72.123862 
L 5.623687 72.121459 
L 5.24864 72.119153 
L 4.878613 72.11694 
L 4.513474 72.114814 
L 4.153094 72.11277 
L 3.797353 72.110806 
L 3.446133 72.108915 
L 3.099319 72.107096 
L 2.756804 72.105344 
L 2.418482 72.103656 
L 2.084252 72.102029 
L 1.754017 72.10046 
L 1.427681 72.098946 
" style="fill:none;stroke:#808080;stroke-dasharray:1,1.65;stroke-dashoffset:0;"/>
   </g>
   <g id="line2d_82">
    <path clip-path="url(#p7a99c1e144)" d="M 181.771677 138.799828 
L 179.882305 138.66342 
L 177.991541 138.517699 
L 176.099242 138.362063 
L 174.20525 138.195877 
L 172.309394 138.018471 
L 170.411485 137.829142 
L 168.511316 137.627155 
L 166.608662 137.411739 
L 164.703277 137.182091 
L 162.794893 136.937378 
L 160.883221 136.676737 
L 158.967946 136.399278 
L 157.048726 136.10409 
L 155.125196 135.790246 
L 153.196962 135.456808 
L 151.263603 135.102835 
L 149.324673 134.727398 
L 147.379697 134.329585 
L 145.428177 133.908525 
L 143.469594 133.463397 
L 141.503413 132.993459 
L 139.529086 132.498072 
L 137.546063 131.976726 
L 135.553802 131.429083 
L 133.551782 130.855012 
L 131.539524 130.254645 
L 129.516609 129.628407 
L 127.48271 128.977139 
L 125.437623 128.302115 
L 123.381315 127.605168 
L 121.313974 126.888786 
L 119.236075 126.156251 
L 117.148457 125.411791 
L 115.052423 124.660781 
L 112.949857 123.909988 
L 110.843372 123.167888 
L 108.736493 122.445067 
L 106.633884 121.754763 
L 104.541647 121.113575 
L 102.467701 120.542426 
L 100.422291 120.067881 
L 98.418685 119.723974 
L 96.474152 119.554772 
L 94.611381 119.618059 
L 92.86062 119.9907 
L 91.26304 120.776734 
L 89.876286 122.120005 
L 88.784218 124.224957 
L 88.115311 127.393396 
" style="fill:none;stroke:#114b5f;stroke-dasharray:3.7,1.6;stroke-dashoffset:0;"/>
   </g>
   <g id="line2d_83">
    <defs>
     <path d="M 0 1.5 
C 0.397805 1.5 0.77937 1.341951 1.06066 1.06066 
C 1.341951 0.77937 1.5 0.397805 1.5 0 
C 1.5 -0.397805 1.341951 -0.77937 1.06066 -1.06066 
C 0.77937 -1.341951 0.397805 -1.5 0 -1.5 
C -0.397805 -1.5 -0.77937 -1.341951 -1.06066 -1.06066 
C -1.341951 -0.77937 -1.5 -0.397805 -1.5 0 
C -1.5 0.397805 -1.341951 0.77937 -1.06066 1.06066 
C -0.77937 1.341951 -0.397805 1.5 0 1.5 
z
" id="mdf086b843a" style="stroke:#a42604;stroke-width:0.75;"/>
    </defs>
    <g clip-path="url(#p7a99c1e144)">
     <use style="fill:#f94515;stroke:#a42604;stroke-width:0.75;" x="38.501605" xlink:href="#mdf086b843a" y="36.377124"/>
     <use style="fill:#f94515;stroke:#a42604;stroke-width:0.75;" x="42.519436" xlink:href="#mdf086b843a" y="94.157371"/>
     <use style="fill:#f94515;stroke:#a42604;stroke-width:0.75;" x="51.234198" xlink:href="#mdf086b843a" y="47.92561"/>
     <use style="fill:#f94515;stroke:#a42604;stroke-width:0.75;" x="58.108516" xlink:href="#mdf086b843a" y="73.651498"/>
     <use style="fill:#f94515;stroke:#a42604;stroke-width:0.75;" x="62.23467" xlink:href="#mdf086b843a" y="65.570526"/>
     <use style="fill:#f94515;stroke:#a42604;stroke-width:0.75;" x="71.0088" xlink:href="#mdf086b843a" y="74.102809"/>
     <use style="fill:#f94515;stroke:#a42604;stroke-width:0.75;" x="75.824469" xlink:href="#mdf086b843a" y="79.618887"/>
     <use style="fill:#f94515;stroke:#a42604;stroke-width:0.75;" x="80.59535" xlink:href="#mdf086b843a" y="86.924951"/>
     <use style="fill:#f94515;stroke:#a42604;stroke-width:0.75;" x="87.786825" xlink:href="#mdf086b843a" y="84.192703"/>
     <use style="fill:#f94515;stroke:#a42604;stroke-width:0.75;" x="92.111917" xlink:href="#mdf086b843a" y="92.933474"/>
     <use style="fill:#f94515;stroke:#a42604;stroke-width:0.75;" x="100.348601" xlink:href="#mdf086b843a" y="105.764572"/>
     <use style="fill:#f94515;stroke:#a42604;stroke-width:0.75;" x="107.808279" xlink:href="#mdf086b843a" y="109.294451"/>
     <use style="fill:#f94515;stroke:#a42604;stroke-width:0.75;" x="114.934656" xlink:href="#mdf086b843a" y="118.553542"/>
     <use style="fill:#f94515;stroke:#a42604;stroke-width:0.75;" x="120.143514" xlink:href="#mdf086b843a" y="121.740418"/>
     <use style="fill:#f94515;stroke:#a42604;stroke-width:0.75;" x="132.256897" xlink:href="#mdf086b843a" y="126.671169"/>
     <use style="fill:#f94515;stroke:#a42604;stroke-width:0.75;" x="136.366386" xlink:href="#mdf086b843a" y="130.044308"/>
     <use style="fill:#f94515;stroke:#a42604;stroke-width:0.75;" x="143.023018" xlink:href="#mdf086b843a" y="132.505703"/>
     <use style="fill:#f94515;stroke:#a42604;stroke-width:0.75;" x="162.630971" xlink:href="#mdf086b843a" y="135.776007"/>
    </g>
   </g>
   <g id="patch_3">
    <path d="M 31.752 140.76 
L 31.752 3.312 
" style="fill:none;stroke:#000000;stroke-linecap:square;stroke-linejoin:miter;stroke-width:0.8;"/>
   </g>
   <g id="patch_4">
    <path d="M 222.264 140.76 
L 222.264 3.312 
" style="fill:none;stroke:#000000;stroke-linecap:square;stroke-linejoin:miter;stroke-width:0.8;"/>
   </g>
   <g id="patch_5">
    <path d="M 31.752 140.76 
L 222.264 140.76 
" style="fill:none;stroke:#000000;stroke-linecap:square;stroke-linejoin:miter;stroke-width:0.8;"/>
   </g>
   <g id="patch_6">
    <path d="M 31.752 3.312 
L 222.264 3.312 
" style="fill:none;stroke:#000000;stroke-linecap:square;stroke-linejoin:miter;stroke-width:0.8;"/>
   </g>
   <g id="legend_1">
    <g id="line2d_84">
     <path d="M 123.368063 11.171062 
L 135.368063 11.171062 
" style="fill:none;stroke:#808080;stroke-dasharray:1,1.65;stroke-dashoffset:0;"/>
    </g>
    <g id="line2d_85"/>
    <g id="text_12">
     <!-- non-interacting -->
     <defs>
      <path d="M 54.890625 33.015625 
L 54.890625 0 
L 45.90625 0 
L 45.90625 32.71875 
Q 45.90625 40.484375 42.875 44.328125 
Q 39.84375 48.1875 33.796875 48.1875 
Q 26.515625 48.1875 22.3125 43.546875 
Q 18.109375 38.921875 18.109375 30.90625 
L 18.109375 0 
L 9.078125 0 
L 9.078125 54.6875 
L 18.109375 54.6875 
L 18.109375 46.1875 
Q 21.34375 51.125 25.703125 53.5625 
Q 30.078125 56 35.796875 56 
Q 45.21875 56 50.046875 50.171875 
Q 54.890625 44.34375 54.890625 33.015625 
z
" id="DejaVuSans-6e"/>
      <path d="M 30.609375 48.390625 
Q 23.390625 48.390625 19.1875 42.75 
Q 14.984375 37.109375 14.984375 27.296875 
Q 14.984375 17.484375 19.15625 11.84375 
Q 23.34375 6.203125 30.609375 6.203125 
Q 37.796875 6.203125 41.984375 11.859375 
Q 46.1875 17.53125 46.1875 27.296875 
Q 46.1875 37.015625 41.984375 42.703125 
Q 37.796875 48.390625 30.609375 48.390625 
z
M 30.609375 56 
Q 42.328125 56 49.015625 48.375 
Q 55.71875 40.765625 55.71875 27.296875 
Q 55.71875 13.875 49.015625 6.21875 
Q 42.328125 -1.421875 30.609375 -1.421875 
Q 18.84375 -1.421875 12.171875 6.21875 
Q 5.515625 13.875 5.515625 27.296875 
Q 5.515625 40.765625 12.171875 48.375 
Q 18.84375 56 30.609375 56 
z
" id="DejaVuSans-6f"/>
      <path d="M 4.890625 31.390625 
L 31.203125 31.390625 
L 31.203125 23.390625 
L 4.890625 23.390625 
z
" id="DejaVuSans-2d"/>
      <path d="M 9.421875 54.6875 
L 18.40625 54.6875 
L 18.40625 0 
L 9.421875 0 
z
M 9.421875 75.984375 
L 18.40625 75.984375 
L 18.40625 64.59375 
L 9.421875 64.59375 
z
" id="DejaVuSans-69"/>
      <path d="M 18.3125 70.21875 
L 18.3125 54.6875 
L 36.8125 54.6875 
L 36.8125 47.703125 
L 18.3125 47.703125 
L 18.3125 18.015625 
Q 18.3125 11.328125 20.140625 9.421875 
Q 21.96875 7.515625 27.59375 7.515625 
L 36.8125 7.515625 
L 36.8125 0 
L 27.59375 0 
Q 17.1875 0 13.234375 3.875 
Q 9.28125 7.765625 9.28125 18.015625 
L 9.28125 47.703125 
L 2.6875 47.703125 
L 2.6875 54.6875 
L 9.28125 54.6875 
L 9.28125 70.21875 
z
" id="DejaVuSans-74"/>
      <path d="M 56.203125 29.59375 
L 56.203125 25.203125 
L 14.890625 25.203125 
Q 15.484375 15.921875 20.484375 11.0625 
Q 25.484375 6.203125 34.421875 6.203125 
Q 39.59375 6.203125 44.453125 7.46875 
Q 49.3125 8.734375 54.109375 11.28125 
L 54.109375 2.78125 
Q 49.265625 0.734375 44.1875 -0.34375 
Q 39.109375 -1.421875 33.890625 -1.421875 
Q 20.796875 -1.421875 13.15625 6.1875 
Q 5.515625 13.8125 5.515625 26.8125 
Q 5.515625 40.234375 12.765625 48.109375 
Q 20.015625 56 32.328125 56 
Q 43.359375 56 49.78125 48.890625 
Q 56.203125 41.796875 56.203125 29.59375 
z
M 47.21875 32.234375 
Q 47.125 39.59375 43.09375 43.984375 
Q 39.0625 48.390625 32.421875 48.390625 
Q 24.90625 48.390625 20.390625 44.140625 
Q 15.875 39.890625 15.1875 32.171875 
z
" id="DejaVuSans-65"/>
      <path d="M 41.109375 46.296875 
Q 39.59375 47.171875 37.8125 47.578125 
Q 36.03125 48 33.890625 48 
Q 26.265625 48 22.1875 43.046875 
Q 18.109375 38.09375 18.109375 28.8125 
L 18.109375 0 
L 9.078125 0 
L 9.078125 54.6875 
L 18.109375 54.6875 
L 18.109375 46.1875 
Q 20.953125 51.171875 25.484375 53.578125 
Q 30.03125 56 36.53125 56 
Q 37.453125 56 38.578125 55.875 
Q 39.703125 55.765625 41.0625 55.515625 
z
" id="DejaVuSans-72"/>
      <path d="M 34.28125 27.484375 
Q 23.390625 27.484375 19.1875 25 
Q 14.984375 22.515625 14.984375 16.5 
Q 14.984375 11.71875 18.140625 8.90625 
Q 21.296875 6.109375 26.703125 6.109375 
Q 34.1875 6.109375 38.703125 11.40625 
Q 43.21875 16.703125 43.21875 25.484375 
L 43.21875 27.484375 
z
M 52.203125 31.203125 
L 52.203125 0 
L 43.21875 0 
L 43.21875 8.296875 
Q 40.140625 3.328125 35.546875 0.953125 
Q 30.953125 -1.421875 24.3125 -1.421875 
Q 15.921875 -1.421875 10.953125 3.296875 
Q 6 8.015625 6 15.921875 
Q 6 25.140625 12.171875 29.828125 
Q 18.359375 34.515625 30.609375 34.515625 
L 43.21875 34.515625 
L 43.21875 35.40625 
Q 43.21875 41.609375 39.140625 45 
Q 35.0625 48.390625 27.6875 48.390625 
Q 23 48.390625 18.546875 47.265625 
Q 14.109375 46.140625 10.015625 43.890625 
L 10.015625 52.203125 
Q 14.9375 54.109375 19.578125 55.046875 
Q 24.21875 56 28.609375 56 
Q 40.484375 56 46.34375 49.84375 
Q 52.203125 43.703125 52.203125 31.203125 
z
" id="DejaVuSans-61"/>
      <path d="M 48.78125 52.59375 
L 48.78125 44.1875 
Q 44.96875 46.296875 41.140625 47.34375 
Q 37.3125 48.390625 33.40625 48.390625 
Q 24.65625 48.390625 19.8125 42.84375 
Q 14.984375 37.3125 14.984375 27.296875 
Q 14.984375 17.28125 19.8125 11.734375 
Q 24.65625 6.203125 33.40625 6.203125 
Q 37.3125 6.203125 41.140625 7.25 
Q 44.96875 8.296875 48.78125 10.40625 
L 48.78125 2.09375 
Q 45.015625 0.34375 40.984375 -0.53125 
Q 36.96875 -1.421875 32.421875 -1.421875 
Q 20.0625 -1.421875 12.78125 6.34375 
Q 5.515625 14.109375 5.515625 27.296875 
Q 5.515625 40.671875 12.859375 48.328125 
Q 20.21875 56 33.015625 56 
Q 37.15625 56 41.109375 55.140625 
Q 45.0625 54.296875 48.78125 52.59375 
z
" id="DejaVuSans-63"/>
      <path d="M 45.40625 27.984375 
Q 45.40625 37.75 41.375 43.109375 
Q 37.359375 48.484375 30.078125 48.484375 
Q 22.859375 48.484375 18.828125 43.109375 
Q 14.796875 37.75 14.796875 27.984375 
Q 14.796875 18.265625 18.828125 12.890625 
Q 22.859375 7.515625 30.078125 7.515625 
Q 37.359375 7.515625 41.375 12.890625 
Q 45.40625 18.265625 45.40625 27.984375 
z
M 54.390625 6.78125 
Q 54.390625 -7.171875 48.1875 -13.984375 
Q 42 -20.796875 29.203125 -20.796875 
Q 24.46875 -20.796875 20.265625 -20.09375 
Q 16.0625 -19.390625 12.109375 -17.921875 
L 12.109375 -9.1875 
Q 16.0625 -11.328125 19.921875 -12.34375 
Q 23.78125 -13.375 27.78125 -13.375 
Q 36.625 -13.375 41.015625 -8.765625 
Q 45.40625 -4.15625 45.40625 5.171875 
L 45.40625 9.625 
Q 42.625 4.78125 38.28125 2.390625 
Q 33.9375 0 27.875 0 
Q 17.828125 0 11.671875 7.65625 
Q 5.515625 15.328125 5.515625 27.984375 
Q 5.515625 40.671875 11.671875 48.328125 
Q 17.828125 56 27.875 56 
Q 33.9375 56 38.28125 53.609375 
Q 42.625 51.21875 45.40625 46.390625 
L 45.40625 54.6875 
L 54.390625 54.6875 
z
" id="DejaVuSans-67"/>
     </defs>
     <g transform="translate(140.168063 13.271062)scale(0.06 -0.06)">
      <use xlink:href="#DejaVuSans-6e"/>
      <use x="63.378906" xlink:href="#DejaVuSans-6f"/>
      <use x="124.560547" xlink:href="#DejaVuSans-6e"/>
      <use x="187.939453" xlink:href="#DejaVuSans-2d"/>
      <use x="224.023438" xlink:href="#DejaVuSans-69"/>
      <use x="251.806641" xlink:href="#DejaVuSans-6e"/>
      <use x="315.185547" xlink:href="#DejaVuSans-74"/>
      <use x="354.394531" xlink:href="#DejaVuSans-65"/>
      <use x="415.917969" xlink:href="#DejaVuSans-72"/>
      <use x="457.03125" xlink:href="#DejaVuSans-61"/>
      <use x="518.310547" xlink:href="#DejaVuSans-63"/>
      <use x="573.291016" xlink:href="#DejaVuSans-74"/>
      <use x="612.5" xlink:href="#DejaVuSans-69"/>
      <use x="640.283203" xlink:href="#DejaVuSans-6e"/>
      <use x="703.662109" xlink:href="#DejaVuSans-67"/>
     </g>
    </g>
    <g id="line2d_86">
     <path d="M 123.368063 19.977937 
L 135.368063 19.977937 
" style="fill:none;stroke:#114b5f;stroke-dasharray:3.7,1.6;stroke-dashoffset:0;"/>
    </g>
    <g id="line2d_87"/>
    <g id="text_13">
     <!-- 3rd order virial exp. -->
     <defs>
      <path d="M 40.578125 39.3125 
Q 47.65625 37.796875 51.625 33 
Q 55.609375 28.21875 55.609375 21.1875 
Q 55.609375 10.40625 48.1875 4.484375 
Q 40.765625 -1.421875 27.09375 -1.421875 
Q 22.515625 -1.421875 17.65625 -0.515625 
Q 12.796875 0.390625 7.625 2.203125 
L 7.625 11.71875 
Q 11.71875 9.328125 16.59375 8.109375 
Q 21.484375 6.890625 26.8125 6.890625 
Q 36.078125 6.890625 40.9375 10.546875 
Q 45.796875 14.203125 45.796875 21.1875 
Q 45.796875 27.640625 41.28125 31.265625 
Q 36.765625 34.90625 28.71875 34.90625 
L 20.21875 34.90625 
L 20.21875 43.015625 
L 29.109375 43.015625 
Q 36.375 43.015625 40.234375 45.921875 
Q 44.09375 48.828125 44.09375 54.296875 
Q 44.09375 59.90625 40.109375 62.90625 
Q 36.140625 65.921875 28.71875 65.921875 
Q 24.65625 65.921875 20.015625 65.03125 
Q 15.375 64.15625 9.8125 62.3125 
L 9.8125 71.09375 
Q 15.4375 72.65625 20.34375 73.4375 
Q 25.25 74.21875 29.59375 74.21875 
Q 40.828125 74.21875 47.359375 69.109375 
Q 53.90625 64.015625 53.90625 55.328125 
Q 53.90625 49.265625 50.4375 45.09375 
Q 46.96875 40.921875 40.578125 39.3125 
z
" id="DejaVuSans-33"/>
      <path d="M 45.40625 46.390625 
L 45.40625 75.984375 
L 54.390625 75.984375 
L 54.390625 0 
L 45.40625 0 
L 45.40625 8.203125 
Q 42.578125 3.328125 38.25 0.953125 
Q 33.9375 -1.421875 27.875 -1.421875 
Q 17.96875 -1.421875 11.734375 6.484375 
Q 5.515625 14.40625 5.515625 27.296875 
Q 5.515625 40.1875 11.734375 48.09375 
Q 17.96875 56 27.875 56 
Q 33.9375 56 38.25 53.625 
Q 42.578125 51.265625 45.40625 46.390625 
z
M 14.796875 27.296875 
Q 14.796875 17.390625 18.875 11.75 
Q 22.953125 6.109375 30.078125 6.109375 
Q 37.203125 6.109375 41.296875 11.75 
Q 45.40625 17.390625 45.40625 27.296875 
Q 45.40625 37.203125 41.296875 42.84375 
Q 37.203125 48.484375 30.078125 48.484375 
Q 22.953125 48.484375 18.875 42.84375 
Q 14.796875 37.203125 14.796875 27.296875 
z
" id="DejaVuSans-64"/>
      <path id="DejaVuSans-20"/>
      <path d="M 2.984375 54.6875 
L 12.5 54.6875 
L 29.59375 8.796875 
L 46.6875 54.6875 
L 56.203125 54.6875 
L 35.6875 0 
L 23.484375 0 
z
" id="DejaVuSans-76"/>
      <path d="M 9.421875 75.984375 
L 18.40625 75.984375 
L 18.40625 0 
L 9.421875 0 
z
" id="DejaVuSans-6c"/>
      <path d="M 54.890625 54.6875 
L 35.109375 28.078125 
L 55.90625 0 
L 45.3125 0 
L 29.390625 21.484375 
L 13.484375 0 
L 2.875 0 
L 24.125 28.609375 
L 4.6875 54.6875 
L 15.28125 54.6875 
L 29.78125 35.203125 
L 44.28125 54.6875 
z
" id="DejaVuSans-78"/>
      <path d="M 18.109375 8.203125 
L 18.109375 -20.796875 
L 9.078125 -20.796875 
L 9.078125 54.6875 
L 18.109375 54.6875 
L 18.109375 46.390625 
Q 20.953125 51.265625 25.265625 53.625 
Q 29.59375 56 35.59375 56 
Q 45.5625 56 51.78125 48.09375 
Q 58.015625 40.1875 58.015625 27.296875 
Q 58.015625 14.40625 51.78125 6.484375 
Q 45.5625 -1.421875 35.59375 -1.421875 
Q 29.59375 -1.421875 25.265625 0.953125 
Q 20.953125 3.328125 18.109375 8.203125 
z
M 48.6875 27.296875 
Q 48.6875 37.203125 44.609375 42.84375 
Q 40.53125 48.484375 33.40625 48.484375 
Q 26.265625 48.484375 22.1875 42.84375 
Q 18.109375 37.203125 18.109375 27.296875 
Q 18.109375 17.390625 22.1875 11.75 
Q 26.265625 6.109375 33.40625 6.109375 
Q 40.53125 6.109375 44.609375 11.75 
Q 48.6875 17.390625 48.6875 27.296875 
z
" id="DejaVuSans-70"/>
      <path d="M 10.6875 12.40625 
L 21 12.40625 
L 21 0 
L 10.6875 0 
z
" id="DejaVuSans-2e"/>
     </defs>
     <g transform="translate(140.168063 22.077937)scale(0.06 -0.06)">
      <use xlink:href="#DejaVuSans-33"/>
      <use x="63.623047" xlink:href="#DejaVuSans-72"/>
      <use x="104.720703" xlink:href="#DejaVuSans-64"/>
      <use x="168.197266" xlink:href="#DejaVuSans-20"/>
      <use x="199.984375" xlink:href="#DejaVuSans-6f"/>
      <use x="261.166016" xlink:href="#DejaVuSans-72"/>
      <use x="302.263672" xlink:href="#DejaVuSans-64"/>
      <use x="365.740234" xlink:href="#DejaVuSans-65"/>
      <use x="427.263672" xlink:href="#DejaVuSans-72"/>
      <use x="468.376953" xlink:href="#DejaVuSans-20"/>
      <use x="500.164062" xlink:href="#DejaVuSans-76"/>
      <use x="559.34375" xlink:href="#DejaVuSans-69"/>
      <use x="587.126953" xlink:href="#DejaVuSans-72"/>
      <use x="628.240234" xlink:href="#DejaVuSans-69"/>
      <use x="656.023438" xlink:href="#DejaVuSans-61"/>
      <use x="717.302734" xlink:href="#DejaVuSans-6c"/>
      <use x="745.085938" xlink:href="#DejaVuSans-20"/>
      <use x="776.873047" xlink:href="#DejaVuSans-65"/>
      <use x="838.380859" xlink:href="#DejaVuSans-78"/>
      <use x="897.560547" xlink:href="#DejaVuSans-70"/>
      <use x="961.037109" xlink:href="#DejaVuSans-2e"/>
     </g>
    </g>
    <g id="line2d_88">
     <path d="M 123.368063 28.784813 
L 135.368063 28.784813 
" style="fill:none;stroke:#0d153a;stroke-linecap:square;"/>
    </g>
    <g id="line2d_89"/>
    <g id="text_14">
     <!-- T-matrix (Pantel '14) -->
     <defs>
      <path d="M -0.296875 72.90625 
L 61.375 72.90625 
L 61.375 64.59375 
L 35.5 64.59375 
L 35.5 0 
L 25.59375 0 
L 25.59375 64.59375 
L -0.296875 64.59375 
z
" id="DejaVuSans-54"/>
      <path d="M 52 44.1875 
Q 55.375 50.25 60.0625 53.125 
Q 64.75 56 71.09375 56 
Q 79.640625 56 84.28125 50.015625 
Q 88.921875 44.046875 88.921875 33.015625 
L 88.921875 0 
L 79.890625 0 
L 79.890625 32.71875 
Q 79.890625 40.578125 77.09375 44.375 
Q 74.3125 48.1875 68.609375 48.1875 
Q 61.625 48.1875 57.5625 43.546875 
Q 53.515625 38.921875 53.515625 30.90625 
L 53.515625 0 
L 44.484375 0 
L 44.484375 32.71875 
Q 44.484375 40.625 41.703125 44.40625 
Q 38.921875 48.1875 33.109375 48.1875 
Q 26.21875 48.1875 22.15625 43.53125 
Q 18.109375 38.875 18.109375 30.90625 
L 18.109375 0 
L 9.078125 0 
L 9.078125 54.6875 
L 18.109375 54.6875 
L 18.109375 46.1875 
Q 21.1875 51.21875 25.484375 53.609375 
Q 29.78125 56 35.6875 56 
Q 41.65625 56 45.828125 52.96875 
Q 50 49.953125 52 44.1875 
z
" id="DejaVuSans-6d"/>
      <path d="M 31 75.875 
Q 24.46875 64.65625 21.28125 53.65625 
Q 18.109375 42.671875 18.109375 31.390625 
Q 18.109375 20.125 21.3125 9.0625 
Q 24.515625 -2 31 -13.1875 
L 23.1875 -13.1875 
Q 15.875 -1.703125 12.234375 9.375 
Q 8.59375 20.453125 8.59375 31.390625 
Q 8.59375 42.28125 12.203125 53.3125 
Q 15.828125 64.359375 23.1875 75.875 
z
" id="DejaVuSans-28"/>
      <path d="M 19.671875 64.796875 
L 19.671875 37.40625 
L 32.078125 37.40625 
Q 38.96875 37.40625 42.71875 40.96875 
Q 46.484375 44.53125 46.484375 51.125 
Q 46.484375 57.671875 42.71875 61.234375 
Q 38.96875 64.796875 32.078125 64.796875 
z
M 9.8125 72.90625 
L 32.078125 72.90625 
Q 44.34375 72.90625 50.609375 67.359375 
Q 56.890625 61.8125 56.890625 51.125 
Q 56.890625 40.328125 50.609375 34.8125 
Q 44.34375 29.296875 32.078125 29.296875 
L 19.671875 29.296875 
L 19.671875 0 
L 9.8125 0 
z
" id="DejaVuSans-50"/>
      <path d="M 17.921875 72.90625 
L 17.921875 45.796875 
L 9.625 45.796875 
L 9.625 72.90625 
z
" id="DejaVuSans-27"/>
      <path d="M 12.40625 8.296875 
L 28.515625 8.296875 
L 28.515625 63.921875 
L 10.984375 60.40625 
L 10.984375 69.390625 
L 28.421875 72.90625 
L 38.28125 72.90625 
L 38.28125 8.296875 
L 54.390625 8.296875 
L 54.390625 0 
L 12.40625 0 
z
" id="DejaVuSans-31"/>
      <path d="M 37.796875 64.3125 
L 12.890625 25.390625 
L 37.796875 25.390625 
z
M 35.203125 72.90625 
L 47.609375 72.90625 
L 47.609375 25.390625 
L 58.015625 25.390625 
L 58.015625 17.1875 
L 47.609375 17.1875 
L 47.609375 0 
L 37.796875 0 
L 37.796875 17.1875 
L 4.890625 17.1875 
L 4.890625 26.703125 
z
" id="DejaVuSans-34"/>
      <path d="M 8.015625 75.875 
L 15.828125 75.875 
Q 23.140625 64.359375 26.78125 53.3125 
Q 30.421875 42.28125 30.421875 31.390625 
Q 30.421875 20.453125 26.78125 9.375 
Q 23.140625 -1.703125 15.828125 -13.1875 
L 8.015625 -13.1875 
Q 14.5 -2 17.703125 9.0625 
Q 20.90625 20.125 20.90625 31.390625 
Q 20.90625 42.671875 17.703125 53.65625 
Q 14.5 64.65625 8.015625 75.875 
z
" id="DejaVuSans-29"/>
     </defs>
     <g transform="translate(140.168063 30.884813)scale(0.06 -0.06)">
      <use xlink:href="#DejaVuSans-54"/>
      <use x="60.943359" xlink:href="#DejaVuSans-2d"/>
      <use x="97.027344" xlink:href="#DejaVuSans-6d"/>
      <use x="194.439453" xlink:href="#DejaVuSans-61"/>
      <use x="255.71875" xlink:href="#DejaVuSans-74"/>
      <use x="294.927734" xlink:href="#DejaVuSans-72"/>
      <use x="336.041016" xlink:href="#DejaVuSans-69"/>
      <use x="363.824219" xlink:href="#DejaVuSans-78"/>
      <use x="423.003906" xlink:href="#DejaVuSans-20"/>
      <use x="454.791016" xlink:href="#DejaVuSans-28"/>
      <use x="493.804688" xlink:href="#DejaVuSans-50"/>
      <use x="554.044922" xlink:href="#DejaVuSans-61"/>
      <use x="615.324219" xlink:href="#DejaVuSans-6e"/>
      <use x="678.703125" xlink:href="#DejaVuSans-74"/>
      <use x="717.912109" xlink:href="#DejaVuSans-65"/>
      <use x="779.435547" xlink:href="#DejaVuSans-6c"/>
      <use x="807.21875" xlink:href="#DejaVuSans-20"/>
      <use x="839.005859" xlink:href="#DejaVuSans-27"/>
      <use x="866.496094" xlink:href="#DejaVuSans-31"/>
      <use x="930.119141" xlink:href="#DejaVuSans-34"/>
      <use x="993.742188" xlink:href="#DejaVuSans-29"/>
     </g>
    </g>
    <g id="line2d_90">
     <path d="M 123.368063 37.591687 
L 135.368063 37.591687 
" style="fill:none;stroke:#0d153a;stroke-dasharray:3.7,1.6;stroke-dashoffset:0;"/>
    </g>
    <g id="line2d_91"/>
    <g id="text_15">
     <!-- T-matrix (Palestini '12) -->
     <defs>
      <path d="M 44.28125 53.078125 
L 44.28125 44.578125 
Q 40.484375 46.53125 36.375 47.5 
Q 32.28125 48.484375 27.875 48.484375 
Q 21.1875 48.484375 17.84375 46.4375 
Q 14.5 44.390625 14.5 40.28125 
Q 14.5 37.15625 16.890625 35.375 
Q 19.28125 33.59375 26.515625 31.984375 
L 29.59375 31.296875 
Q 39.15625 29.25 43.1875 25.515625 
Q 47.21875 21.78125 47.21875 15.09375 
Q 47.21875 7.46875 41.1875 3.015625 
Q 35.15625 -1.421875 24.609375 -1.421875 
Q 20.21875 -1.421875 15.453125 -0.5625 
Q 10.6875 0.296875 5.421875 2 
L 5.421875 11.28125 
Q 10.40625 8.6875 15.234375 7.390625 
Q 20.0625 6.109375 24.8125 6.109375 
Q 31.15625 6.109375 34.5625 8.28125 
Q 37.984375 10.453125 37.984375 14.40625 
Q 37.984375 18.0625 35.515625 20.015625 
Q 33.0625 21.96875 24.703125 23.78125 
L 21.578125 24.515625 
Q 13.234375 26.265625 9.515625 29.90625 
Q 5.8125 33.546875 5.8125 39.890625 
Q 5.8125 47.609375 11.28125 51.796875 
Q 16.75 56 26.8125 56 
Q 31.78125 56 36.171875 55.265625 
Q 40.578125 54.546875 44.28125 53.078125 
z
" id="DejaVuSans-73"/>
      <path d="M 19.1875 8.296875 
L 53.609375 8.296875 
L 53.609375 0 
L 7.328125 0 
L 7.328125 8.296875 
Q 12.9375 14.109375 22.625 23.890625 
Q 32.328125 33.6875 34.8125 36.53125 
Q 39.546875 41.84375 41.421875 45.53125 
Q 43.3125 49.21875 43.3125 52.78125 
Q 43.3125 58.59375 39.234375 62.25 
Q 35.15625 65.921875 28.609375 65.921875 
Q 23.96875 65.921875 18.8125 64.3125 
Q 13.671875 62.703125 7.8125 59.421875 
L 7.8125 69.390625 
Q 13.765625 71.78125 18.9375 73 
Q 24.125 74.21875 28.421875 74.21875 
Q 39.75 74.21875 46.484375 68.546875 
Q 53.21875 62.890625 53.21875 53.421875 
Q 53.21875 48.921875 51.53125 44.890625 
Q 49.859375 40.875 45.40625 35.40625 
Q 44.1875 33.984375 37.640625 27.21875 
Q 31.109375 20.453125 19.1875 8.296875 
z
" id="DejaVuSans-32"/>
     </defs>
     <g transform="translate(140.168063 39.691688)scale(0.06 -0.06)">
      <use xlink:href="#DejaVuSans-54"/>
      <use x="60.943359" xlink:href="#DejaVuSans-2d"/>
      <use x="97.027344" xlink:href="#DejaVuSans-6d"/>
      <use x="194.439453" xlink:href="#DejaVuSans-61"/>
      <use x="255.71875" xlink:href="#DejaVuSans-74"/>
      <use x="294.927734" xlink:href="#DejaVuSans-72"/>
      <use x="336.041016" xlink:href="#DejaVuSans-69"/>
      <use x="363.824219" xlink:href="#DejaVuSans-78"/>
      <use x="423.003906" xlink:href="#DejaVuSans-20"/>
      <use x="454.791016" xlink:href="#DejaVuSans-28"/>
      <use x="493.804688" xlink:href="#DejaVuSans-50"/>
      <use x="554.044922" xlink:href="#DejaVuSans-61"/>
      <use x="615.324219" xlink:href="#DejaVuSans-6c"/>
      <use x="643.107422" xlink:href="#DejaVuSans-65"/>
      <use x="704.630859" xlink:href="#DejaVuSans-73"/>
      <use x="756.730469" xlink:href="#DejaVuSans-74"/>
      <use x="795.939453" xlink:href="#DejaVuSans-69"/>
      <use x="823.722656" xlink:href="#DejaVuSans-6e"/>
      <use x="887.101562" xlink:href="#DejaVuSans-69"/>
      <use x="914.884766" xlink:href="#DejaVuSans-20"/>
      <use x="946.671875" xlink:href="#DejaVuSans-27"/>
      <use x="974.162109" xlink:href="#DejaVuSans-31"/>
      <use x="1037.785156" xlink:href="#DejaVuSans-32"/>
      <use x="1101.408203" xlink:href="#DejaVuSans-29"/>
     </g>
    </g>
    <g id="line2d_92"/>
    <g id="line2d_93">
     <g>
      <use style="fill:#adda9c;stroke:#5fad41;stroke-linejoin:miter;stroke-width:0.75;" x="129.368063" xlink:href="#m285b2b7f14" y="46.398563"/>
     </g>
    </g>
    <g id="text_16">
     <!-- Luttinger Ward (Enss '12) -->
     <defs>
      <path d="M 9.8125 72.90625 
L 19.671875 72.90625 
L 19.671875 8.296875 
L 55.171875 8.296875 
L 55.171875 0 
L 9.8125 0 
z
" id="DejaVuSans-4c"/>
      <path d="M 8.5 21.578125 
L 8.5 54.6875 
L 17.484375 54.6875 
L 17.484375 21.921875 
Q 17.484375 14.15625 20.5 10.265625 
Q 23.53125 6.390625 29.59375 6.390625 
Q 36.859375 6.390625 41.078125 11.03125 
Q 45.3125 15.671875 45.3125 23.6875 
L 45.3125 54.6875 
L 54.296875 54.6875 
L 54.296875 0 
L 45.3125 0 
L 45.3125 8.40625 
Q 42.046875 3.421875 37.71875 1 
Q 33.40625 -1.421875 27.6875 -1.421875 
Q 18.265625 -1.421875 13.375 4.4375 
Q 8.5 10.296875 8.5 21.578125 
z
M 31.109375 56 
z
" id="DejaVuSans-75"/>
      <path d="M 3.328125 72.90625 
L 13.28125 72.90625 
L 28.609375 11.28125 
L 43.890625 72.90625 
L 54.984375 72.90625 
L 70.3125 11.28125 
L 85.59375 72.90625 
L 95.609375 72.90625 
L 77.296875 0 
L 64.890625 0 
L 49.515625 63.28125 
L 33.984375 0 
L 21.578125 0 
z
" id="DejaVuSans-57"/>
      <path d="M 9.8125 72.90625 
L 55.90625 72.90625 
L 55.90625 64.59375 
L 19.671875 64.59375 
L 19.671875 43.015625 
L 54.390625 43.015625 
L 54.390625 34.71875 
L 19.671875 34.71875 
L 19.671875 8.296875 
L 56.78125 8.296875 
L 56.78125 0 
L 9.8125 0 
z
" id="DejaVuSans-45"/>
     </defs>
     <g transform="translate(140.168063 48.498563)scale(0.06 -0.06)">
      <use xlink:href="#DejaVuSans-4c"/>
      <use x="55.697266" xlink:href="#DejaVuSans-75"/>
      <use x="119.076172" xlink:href="#DejaVuSans-74"/>
      <use x="158.285156" xlink:href="#DejaVuSans-74"/>
      <use x="197.494141" xlink:href="#DejaVuSans-69"/>
      <use x="225.277344" xlink:href="#DejaVuSans-6e"/>
      <use x="288.65625" xlink:href="#DejaVuSans-67"/>
      <use x="352.132812" xlink:href="#DejaVuSans-65"/>
      <use x="413.65625" xlink:href="#DejaVuSans-72"/>
      <use x="454.769531" xlink:href="#DejaVuSans-20"/>
      <use x="486.556641" xlink:href="#DejaVuSans-57"/>
      <use x="585.339844" xlink:href="#DejaVuSans-61"/>
      <use x="646.619141" xlink:href="#DejaVuSans-72"/>
      <use x="687.716797" xlink:href="#DejaVuSans-64"/>
      <use x="751.193359" xlink:href="#DejaVuSans-20"/>
      <use x="782.980469" xlink:href="#DejaVuSans-28"/>
      <use x="821.994141" xlink:href="#DejaVuSans-45"/>
      <use x="885.177734" xlink:href="#DejaVuSans-6e"/>
      <use x="948.556641" xlink:href="#DejaVuSans-73"/>
      <use x="1000.65625" xlink:href="#DejaVuSans-73"/>
      <use x="1052.755859" xlink:href="#DejaVuSans-20"/>
      <use x="1084.542969" xlink:href="#DejaVuSans-27"/>
      <use x="1112.033203" xlink:href="#DejaVuSans-31"/>
      <use x="1175.65625" xlink:href="#DejaVuSans-32"/>
      <use x="1239.279297" xlink:href="#DejaVuSans-29"/>
     </g>
    </g>
    <g id="line2d_94">
     <path d="M 123.368063 55.205437 
L 135.368063 55.205437 
" style="fill:none;stroke:#a42604;stroke-linecap:square;"/>
    </g>
    <g id="line2d_95"/>
    <g id="text_17">
     <!-- ETMA (Kashimura '12) -->
     <defs>
      <path d="M 9.8125 72.90625 
L 24.515625 72.90625 
L 43.109375 23.296875 
L 61.8125 72.90625 
L 76.515625 72.90625 
L 76.515625 0 
L 66.890625 0 
L 66.890625 64.015625 
L 48.09375 14.015625 
L 38.1875 14.015625 
L 19.390625 64.015625 
L 19.390625 0 
L 9.8125 0 
z
" id="DejaVuSans-4d"/>
      <path d="M 34.1875 63.1875 
L 20.796875 26.90625 
L 47.609375 26.90625 
z
M 28.609375 72.90625 
L 39.796875 72.90625 
L 67.578125 0 
L 57.328125 0 
L 50.6875 18.703125 
L 17.828125 18.703125 
L 11.1875 0 
L 0.78125 0 
z
" id="DejaVuSans-41"/>
      <path d="M 9.8125 72.90625 
L 19.671875 72.90625 
L 19.671875 42.09375 
L 52.390625 72.90625 
L 65.09375 72.90625 
L 28.90625 38.921875 
L 67.671875 0 
L 54.6875 0 
L 19.671875 35.109375 
L 19.671875 0 
L 9.8125 0 
z
" id="DejaVuSans-4b"/>
      <path d="M 54.890625 33.015625 
L 54.890625 0 
L 45.90625 0 
L 45.90625 32.71875 
Q 45.90625 40.484375 42.875 44.328125 
Q 39.84375 48.1875 33.796875 48.1875 
Q 26.515625 48.1875 22.3125 43.546875 
Q 18.109375 38.921875 18.109375 30.90625 
L 18.109375 0 
L 9.078125 0 
L 9.078125 75.984375 
L 18.109375 75.984375 
L 18.109375 46.1875 
Q 21.34375 51.125 25.703125 53.5625 
Q 30.078125 56 35.796875 56 
Q 45.21875 56 50.046875 50.171875 
Q 54.890625 44.34375 54.890625 33.015625 
z
" id="DejaVuSans-68"/>
     </defs>
     <g transform="translate(140.168063 57.305437)scale(0.06 -0.06)">
      <use xlink:href="#DejaVuSans-45"/>
      <use x="63.183594" xlink:href="#DejaVuSans-54"/>
      <use x="124.267578" xlink:href="#DejaVuSans-4d"/>
      <use x="210.546875" xlink:href="#DejaVuSans-41"/>
      <use x="278.955078" xlink:href="#DejaVuSans-20"/>
      <use x="310.742188" xlink:href="#DejaVuSans-28"/>
      <use x="349.755859" xlink:href="#DejaVuSans-4b"/>
      <use x="415.316406" xlink:href="#DejaVuSans-61"/>
      <use x="476.595703" xlink:href="#DejaVuSans-73"/>
      <use x="528.695312" xlink:href="#DejaVuSans-68"/>
      <use x="592.074219" xlink:href="#DejaVuSans-69"/>
      <use x="619.857422" xlink:href="#DejaVuSans-6d"/>
      <use x="717.269531" xlink:href="#DejaVuSans-75"/>
      <use x="780.648438" xlink:href="#DejaVuSans-72"/>
      <use x="821.761719" xlink:href="#DejaVuSans-61"/>
      <use x="883.041016" xlink:href="#DejaVuSans-20"/>
      <use x="914.828125" xlink:href="#DejaVuSans-27"/>
      <use x="942.318359" xlink:href="#DejaVuSans-31"/>
      <use x="1005.941406" xlink:href="#DejaVuSans-32"/>
      <use x="1069.564453" xlink:href="#DejaVuSans-29"/>
     </g>
    </g>
    <g id="line2d_96"/>
    <g id="line2d_97">
     <g>
      <use style="fill:#fbb874;stroke:#fa9f42;stroke-linejoin:miter;stroke-width:0.75;" x="129.368063" xlink:href="#m9f8abf8dd9" y="64.012313"/>
     </g>
    </g>
    <g id="text_18">
     <!-- AFQMC (Wlazlowski '13) -->
     <defs>
      <path d="M 9.8125 72.90625 
L 51.703125 72.90625 
L 51.703125 64.59375 
L 19.671875 64.59375 
L 19.671875 43.109375 
L 48.578125 43.109375 
L 48.578125 34.8125 
L 19.671875 34.8125 
L 19.671875 0 
L 9.8125 0 
z
" id="DejaVuSans-46"/>
      <path d="M 39.40625 66.21875 
Q 28.65625 66.21875 22.328125 58.203125 
Q 16.015625 50.203125 16.015625 36.375 
Q 16.015625 22.609375 22.328125 14.59375 
Q 28.65625 6.59375 39.40625 6.59375 
Q 50.140625 6.59375 56.421875 14.59375 
Q 62.703125 22.609375 62.703125 36.375 
Q 62.703125 50.203125 56.421875 58.203125 
Q 50.140625 66.21875 39.40625 66.21875 
z
M 53.21875 1.3125 
L 66.21875 -12.890625 
L 54.296875 -12.890625 
L 43.5 -1.21875 
Q 41.890625 -1.3125 41.03125 -1.359375 
Q 40.1875 -1.421875 39.40625 -1.421875 
Q 24.03125 -1.421875 14.8125 8.859375 
Q 5.609375 19.140625 5.609375 36.375 
Q 5.609375 53.65625 14.8125 63.9375 
Q 24.03125 74.21875 39.40625 74.21875 
Q 54.734375 74.21875 63.90625 63.9375 
Q 73.09375 53.65625 73.09375 36.375 
Q 73.09375 23.6875 67.984375 14.640625 
Q 62.890625 5.609375 53.21875 1.3125 
z
" id="DejaVuSans-51"/>
      <path d="M 64.40625 67.28125 
L 64.40625 56.890625 
Q 59.421875 61.53125 53.78125 63.8125 
Q 48.140625 66.109375 41.796875 66.109375 
Q 29.296875 66.109375 22.65625 58.46875 
Q 16.015625 50.828125 16.015625 36.375 
Q 16.015625 21.96875 22.65625 14.328125 
Q 29.296875 6.6875 41.796875 6.6875 
Q 48.140625 6.6875 53.78125 8.984375 
Q 59.421875 11.28125 64.40625 15.921875 
L 64.40625 5.609375 
Q 59.234375 2.09375 53.4375 0.328125 
Q 47.65625 -1.421875 41.21875 -1.421875 
Q 24.65625 -1.421875 15.125 8.703125 
Q 5.609375 18.84375 5.609375 36.375 
Q 5.609375 53.953125 15.125 64.078125 
Q 24.65625 74.21875 41.21875 74.21875 
Q 47.75 74.21875 53.53125 72.484375 
Q 59.328125 70.75 64.40625 67.28125 
z
" id="DejaVuSans-43"/>
      <path d="M 5.515625 54.6875 
L 48.1875 54.6875 
L 48.1875 46.484375 
L 14.40625 7.171875 
L 48.1875 7.171875 
L 48.1875 0 
L 4.296875 0 
L 4.296875 8.203125 
L 38.09375 47.515625 
L 5.515625 47.515625 
z
" id="DejaVuSans-7a"/>
      <path d="M 4.203125 54.6875 
L 13.1875 54.6875 
L 24.421875 12.015625 
L 35.59375 54.6875 
L 46.1875 54.6875 
L 57.421875 12.015625 
L 68.609375 54.6875 
L 77.59375 54.6875 
L 63.28125 0 
L 52.6875 0 
L 40.921875 44.828125 
L 29.109375 0 
L 18.5 0 
z
" id="DejaVuSans-77"/>
      <path d="M 9.078125 75.984375 
L 18.109375 75.984375 
L 18.109375 31.109375 
L 44.921875 54.6875 
L 56.390625 54.6875 
L 27.390625 29.109375 
L 57.625 0 
L 45.90625 0 
L 18.109375 26.703125 
L 18.109375 0 
L 9.078125 0 
z
" id="DejaVuSans-6b"/>
     </defs>
     <g transform="translate(140.168063 66.112313)scale(0.06 -0.06)">
      <use xlink:href="#DejaVuSans-41"/>
      <use x="68.408203" xlink:href="#DejaVuSans-46"/>
      <use x="125.927734" xlink:href="#DejaVuSans-51"/>
      <use x="204.638672" xlink:href="#DejaVuSans-4d"/>
      <use x="290.917969" xlink:href="#DejaVuSans-43"/>
      <use x="360.742188" xlink:href="#DejaVuSans-20"/>
      <use x="392.529297" xlink:href="#DejaVuSans-28"/>
      <use x="431.542969" xlink:href="#DejaVuSans-57"/>
      <use x="530.419922" xlink:href="#DejaVuSans-6c"/>
      <use x="558.203125" xlink:href="#DejaVuSans-61"/>
      <use x="619.482422" xlink:href="#DejaVuSans-7a"/>
      <use x="671.972656" xlink:href="#DejaVuSans-6c"/>
      <use x="699.755859" xlink:href="#DejaVuSans-6f"/>
      <use x="760.9375" xlink:href="#DejaVuSans-77"/>
      <use x="842.724609" xlink:href="#DejaVuSans-73"/>
      <use x="894.824219" xlink:href="#DejaVuSans-6b"/>
      <use x="952.734375" xlink:href="#DejaVuSans-69"/>
      <use x="980.517578" xlink:href="#DejaVuSans-20"/>
      <use x="1012.304688" xlink:href="#DejaVuSans-27"/>
      <use x="1039.794922" xlink:href="#DejaVuSans-31"/>
      <use x="1103.417969" xlink:href="#DejaVuSans-33"/>
      <use x="1167.041016" xlink:href="#DejaVuSans-29"/>
     </g>
    </g>
    <g id="line2d_98"/>
    <g id="line2d_99">
     <g>
      <use style="fill:#0d153a;stroke:#0d153a;stroke-linejoin:miter;stroke-width:0.75;" x="129.368063" xlink:href="#m9bbea6b47b" y="72.819187"/>
     </g>
    </g>
    <g id="text_19">
     <!-- AFQMC (Jensen '18) -->
     <defs>
      <path d="M 9.8125 72.90625 
L 19.671875 72.90625 
L 19.671875 5.078125 
Q 19.671875 -8.109375 14.671875 -14.0625 
Q 9.671875 -20.015625 -1.421875 -20.015625 
L -5.171875 -20.015625 
L -5.171875 -11.71875 
L -2.09375 -11.71875 
Q 4.4375 -11.71875 7.125 -8.046875 
Q 9.8125 -4.390625 9.8125 5.078125 
z
" id="DejaVuSans-4a"/>
      <path d="M 31.78125 34.625 
Q 24.75 34.625 20.71875 30.859375 
Q 16.703125 27.09375 16.703125 20.515625 
Q 16.703125 13.921875 20.71875 10.15625 
Q 24.75 6.390625 31.78125 6.390625 
Q 38.8125 6.390625 42.859375 10.171875 
Q 46.921875 13.96875 46.921875 20.515625 
Q 46.921875 27.09375 42.890625 30.859375 
Q 38.875 34.625 31.78125 34.625 
z
M 21.921875 38.8125 
Q 15.578125 40.375 12.03125 44.71875 
Q 8.5 49.078125 8.5 55.328125 
Q 8.5 64.0625 14.71875 69.140625 
Q 20.953125 74.21875 31.78125 74.21875 
Q 42.671875 74.21875 48.875 69.140625 
Q 55.078125 64.0625 55.078125 55.328125 
Q 55.078125 49.078125 51.53125 44.71875 
Q 48 40.375 41.703125 38.8125 
Q 48.828125 37.15625 52.796875 32.3125 
Q 56.78125 27.484375 56.78125 20.515625 
Q 56.78125 9.90625 50.3125 4.234375 
Q 43.84375 -1.421875 31.78125 -1.421875 
Q 19.734375 -1.421875 13.25 4.234375 
Q 6.78125 9.90625 6.78125 20.515625 
Q 6.78125 27.484375 10.78125 32.3125 
Q 14.796875 37.15625 21.921875 38.8125 
z
M 18.3125 54.390625 
Q 18.3125 48.734375 21.84375 45.5625 
Q 25.390625 42.390625 31.78125 42.390625 
Q 38.140625 42.390625 41.71875 45.5625 
Q 45.3125 48.734375 45.3125 54.390625 
Q 45.3125 60.0625 41.71875 63.234375 
Q 38.140625 66.40625 31.78125 66.40625 
Q 25.390625 66.40625 21.84375 63.234375 
Q 18.3125 60.0625 18.3125 54.390625 
z
" id="DejaVuSans-38"/>
     </defs>
     <g transform="translate(140.168063 74.919187)scale(0.06 -0.06)">
      <use xlink:href="#DejaVuSans-41"/>
      <use x="68.408203" xlink:href="#DejaVuSans-46"/>
      <use x="125.927734" xlink:href="#DejaVuSans-51"/>
      <use x="204.638672" xlink:href="#DejaVuSans-4d"/>
      <use x="290.917969" xlink:href="#DejaVuSans-43"/>
      <use x="360.742188" xlink:href="#DejaVuSans-20"/>
      <use x="392.529297" xlink:href="#DejaVuSans-28"/>
      <use x="431.542969" xlink:href="#DejaVuSans-4a"/>
      <use x="461.035156" xlink:href="#DejaVuSans-65"/>
      <use x="522.558594" xlink:href="#DejaVuSans-6e"/>
      <use x="585.9375" xlink:href="#DejaVuSans-73"/>
      <use x="638.037109" xlink:href="#DejaVuSans-65"/>
      <use x="699.560547" xlink:href="#DejaVuSans-6e"/>
      <use x="762.939453" xlink:href="#DejaVuSans-20"/>
      <use x="794.726562" xlink:href="#DejaVuSans-27"/>
      <use x="822.216797" xlink:href="#DejaVuSans-31"/>
      <use x="885.839844" xlink:href="#DejaVuSans-38"/>
      <use x="949.462891" xlink:href="#DejaVuSans-29"/>
     </g>
    </g>
    <g id="LineCollection_3">
     <path d="M 129.368063 84.626063 
L 129.368063 78.626063 
" style="fill:none;stroke:#114b5f;"/>
    </g>
    <g id="line2d_100"/>
    <g id="line2d_101">
     <defs>
      <path d="M -1.5 1.5 
L 1.5 1.5 
L 1.5 -1.5 
L -1.5 -1.5 
z
" id="m31b03f1c6e" style="stroke:#114b5f;stroke-linejoin:miter;stroke-width:0.75;"/>
     </defs>
     <g>
      <use style="fill:#2faeda;stroke:#114b5f;stroke-linejoin:miter;stroke-width:0.75;" x="129.368063" xlink:href="#m31b03f1c6e" y="81.626063"/>
     </g>
    </g>
    <g id="text_20">
     <!-- CL -->
     <g transform="translate(140.168063 83.726062)scale(0.06 -0.06)">
      <use xlink:href="#DejaVuSans-43"/>
      <use x="69.824219" xlink:href="#DejaVuSans-4c"/>
     </g>
    </g>
    <g id="LineCollection_4">
     <path d="M 126.368063 90.432938 
L 132.368063 90.432938 
" style="fill:none;stroke:#a42604;"/>
    </g>
    <g id="LineCollection_5">
     <path d="M 129.368063 93.432938 
L 129.368063 87.432938 
" style="fill:none;stroke:#a42604;"/>
    </g>
    <g id="line2d_102"/>
    <g id="line2d_103">
     <g>
      <use style="fill:#f94515;stroke:#a42604;stroke-width:0.75;" x="129.368063" xlink:href="#mdf086b843a" y="90.432938"/>
     </g>
    </g>
    <g id="text_21">
     <!-- experiment (MIT '11) -->
     <defs>
      <path d="M 9.8125 72.90625 
L 19.671875 72.90625 
L 19.671875 0 
L 9.8125 0 
z
" id="DejaVuSans-49"/>
     </defs>
     <g transform="translate(140.168063 92.532938)scale(0.06 -0.06)">
      <use xlink:href="#DejaVuSans-65"/>
      <use x="61.507812" xlink:href="#DejaVuSans-78"/>
      <use x="120.6875" xlink:href="#DejaVuSans-70"/>
      <use x="184.164062" xlink:href="#DejaVuSans-65"/>
      <use x="245.6875" xlink:href="#DejaVuSans-72"/>
      <use x="286.800781" xlink:href="#DejaVuSans-69"/>
      <use x="314.583984" xlink:href="#DejaVuSans-6d"/>
      <use x="411.996094" xlink:href="#DejaVuSans-65"/>
      <use x="473.519531" xlink:href="#DejaVuSans-6e"/>
      <use x="536.898438" xlink:href="#DejaVuSans-74"/>
      <use x="576.107422" xlink:href="#DejaVuSans-20"/>
      <use x="607.894531" xlink:href="#DejaVuSans-28"/>
      <use x="646.908203" xlink:href="#DejaVuSans-4d"/>
      <use x="733.1875" xlink:href="#DejaVuSans-49"/>
      <use x="762.679688" xlink:href="#DejaVuSans-54"/>
      <use x="823.763672" xlink:href="#DejaVuSans-20"/>
      <use x="855.550781" xlink:href="#DejaVuSans-27"/>
      <use x="883.041016" xlink:href="#DejaVuSans-31"/>
      <use x="946.664062" xlink:href="#DejaVuSans-31"/>
      <use x="1010.287109" xlink:href="#DejaVuSans-29"/>
     </g>
    </g>
   </g>
   <g id="LineCollection_6">
    <path clip-path="url(#p7a99c1e144)" d="M 144.190068 133.763578 
L 144.190068 133.5816 
" style="fill:none;stroke:#114b5f;"/>
    <path clip-path="url(#p7a99c1e144)" d="M 134.477779 131.309535 
L 134.477779 131.080405 
" style="fill:none;stroke:#114b5f;"/>
    <path clip-path="url(#p7a99c1e144)" d="M 124.320638 128.263124 
L 124.320638 128.102657 
" style="fill:none;stroke:#114b5f;"/>
    <path clip-path="url(#p7a99c1e144)" d="M 114.439118 124.515276 
L 114.439118 124.336735 
" style="fill:none;stroke:#114b5f;"/>
    <path clip-path="url(#p7a99c1e144)" d="M 103.786662 120.659074 
L 103.786662 120.576663 
" style="fill:none;stroke:#114b5f;"/>
    <path clip-path="url(#p7a99c1e144)" d="M 93.083615 117.329341 
L 93.083615 117.227133 
" style="fill:none;stroke:#114b5f;"/>
    <path clip-path="url(#p7a99c1e144)" d="M 82.923471 114.430149 
L 82.923471 114.269844 
" style="fill:none;stroke:#114b5f;"/>
    <path clip-path="url(#p7a99c1e144)" d="M 73.38784 112.638151 
L 73.38784 112.36994 
" style="fill:none;stroke:#114b5f;"/>
    <path clip-path="url(#p7a99c1e144)" d="M 65.083527 112.542463 
L 65.083527 112.431855 
" style="fill:none;stroke:#114b5f;"/>
    <path clip-path="url(#p7a99c1e144)" d="M 58.224555 112.983437 
L 58.224555 112.772221 
" style="fill:none;stroke:#114b5f;"/>
    <path clip-path="url(#p7a99c1e144)" d="M 52.381129 113.76158 
L 52.381129 113.541772 
" style="fill:none;stroke:#114b5f;"/>
    <path clip-path="url(#p7a99c1e144)" d="M 46.943447 114.877163 
L 46.943447 114.571571 
" style="fill:none;stroke:#114b5f;"/>
    <path clip-path="url(#p7a99c1e144)" d="M 41.781738 116.163196 
L 41.781738 115.605686 
" style="fill:none;stroke:#114b5f;"/>
   </g>
   <g id="line2d_104">
    <g clip-path="url(#p7a99c1e144)">
     <use style="fill:#2faeda;stroke:#114b5f;stroke-linejoin:miter;stroke-width:0.75;" x="144.190068" xlink:href="#m31b03f1c6e" y="133.672589"/>
     <use style="fill:#2faeda;stroke:#114b5f;stroke-linejoin:miter;stroke-width:0.75;" x="134.477779" xlink:href="#m31b03f1c6e" y="131.19497"/>
     <use style="fill:#2faeda;stroke:#114b5f;stroke-linejoin:miter;stroke-width:0.75;" x="124.320638" xlink:href="#m31b03f1c6e" y="128.182891"/>
     <use style="fill:#2faeda;stroke:#114b5f;stroke-linejoin:miter;stroke-width:0.75;" x="114.439118" xlink:href="#m31b03f1c6e" y="124.426006"/>
     <use style="fill:#2faeda;stroke:#114b5f;stroke-linejoin:miter;stroke-width:0.75;" x="103.786662" xlink:href="#m31b03f1c6e" y="120.617869"/>
     <use style="fill:#2faeda;stroke:#114b5f;stroke-linejoin:miter;stroke-width:0.75;" x="93.083615" xlink:href="#m31b03f1c6e" y="117.278237"/>
     <use style="fill:#2faeda;stroke:#114b5f;stroke-linejoin:miter;stroke-width:0.75;" x="82.923471" xlink:href="#m31b03f1c6e" y="114.349996"/>
     <use style="fill:#2faeda;stroke:#114b5f;stroke-linejoin:miter;stroke-width:0.75;" x="73.38784" xlink:href="#m31b03f1c6e" y="112.504046"/>
     <use style="fill:#2faeda;stroke:#114b5f;stroke-linejoin:miter;stroke-width:0.75;" x="65.083527" xlink:href="#m31b03f1c6e" y="112.487159"/>
     <use style="fill:#2faeda;stroke:#114b5f;stroke-linejoin:miter;stroke-width:0.75;" x="58.224555" xlink:href="#m31b03f1c6e" y="112.877829"/>
     <use style="fill:#2faeda;stroke:#114b5f;stroke-linejoin:miter;stroke-width:0.75;" x="52.381129" xlink:href="#m31b03f1c6e" y="113.651676"/>
     <use style="fill:#2faeda;stroke:#114b5f;stroke-linejoin:miter;stroke-width:0.75;" x="46.943447" xlink:href="#m31b03f1c6e" y="114.724367"/>
     <use style="fill:#2faeda;stroke:#114b5f;stroke-linejoin:miter;stroke-width:0.75;" x="41.781738" xlink:href="#m31b03f1c6e" y="115.884441"/>
    </g>
   </g>
  </g>
 </g>
 <defs>
  <clipPath id="p7a99c1e144">
   <rect height="137.448" width="190.512" x="31.752" y="3.312"/>
  </clipPath>
 </defs>
</svg>
