<?xml version="1.0" encoding="utf-8" standalone="no"?>
<!DOCTYPE svg PUBLIC "-//W3C//DTD SVG 1.1//EN"
  "http://www.w3.org/Graphics/SVG/1.1/DTD/svg11.dtd">
<!-- Created with matplotlib (http://matplotlib.org/) -->
<svg height="180pt" version="1.1" viewBox="0 0 243 180" width="243pt" xmlns="http://www.w3.org/2000/svg" xmlns:xlink="http://www.w3.org/1999/xlink">
 <defs>
  <style type="text/css">
*{stroke-linecap:butt;stroke-linejoin:round;}
  </style>
 </defs>
 <g id="figure_1">
  <g id="patch_1">
   <path d="M 0 180 
L 243 180 
L 243 0 
L 0 0 
z
" style="fill:#ffffff;"/>
  </g>
  <g id="axes_1">
   <g id="patch_2">
    <path d="M 24.3 153 
L 230.85 153 
L 230.85 9 
L 24.3 9 
z
" style="fill:#ffffff;"/>
   </g>
   <g id="line2d_1">
    <path clip-path="url(#pe7dcd1fb6e)" d="M -1 133.270986 
L 0.579972 133.277846 
L 2.723348 133.287748 
L 4.866724 133.298286 
L 7.0101 133.309501 
L 9.153476 133.321439 
L 11.296852 133.334146 
L 13.440228 133.347674 
L 15.583604 133.362078 
L 17.72698 133.377417 
L 19.870356 133.393754 
L 22.013732 133.411157 
L 24.157108 133.429699 
L 26.300484 133.449458 
L 28.44386 133.470521 
L 30.587236 133.492977 
L 32.730612 133.516926 
L 34.873988 133.542475 
L 37.017364 133.56974 
L 39.16074 133.598846 
L 41.304116 133.629931 
L 43.447492 133.663143 
L 45.590868 133.698645 
L 47.734244 133.736616 
L 49.87762 133.777249 
L 52.020996 133.820759 
L 54.164372 133.86738 
L 56.307748 133.917374 
L 58.451124 133.971025 
L 60.5945 134.028652 
L 62.737876 134.090608 
L 64.881252 134.157285 
L 67.024628 134.229121 
L 69.168004 134.306604 
L 71.31138 134.390282 
L 73.454756 134.480771 
L 75.598132 134.578762 
L 77.741508 134.685034 
L 79.884884 134.800468 
L 82.02826 134.926059 
L 84.171636 135.062936 
L 86.315012 135.212379 
L 88.458388 135.375842 
L 90.601764 135.554984 
L 92.74514 135.751691 
L 94.888516 135.968118 
L 97.031892 136.206724 
L 99.175268 136.470325 
L 101.318644 136.76214 
" style="fill:none;stroke:#114b5f;stroke-dasharray:3.7,1.6;stroke-dashoffset:0;"/>
   </g>
   <g id="line2d_2">
    <path clip-path="url(#pe7dcd1fb6e)" d="M -1 114.998814 
L 0.579972 115.019351 
L 2.723348 115.048926 
L 4.866724 115.080319 
L 7.0101 115.113641 
L 9.153476 115.149008 
L 11.296852 115.186543 
L 13.440228 115.226378 
L 15.583604 115.268652 
L 17.72698 115.313514 
L 19.870356 115.361119 
L 22.013732 115.411635 
L 24.157108 115.465239 
L 26.300484 115.522121 
L 28.44386 115.582482 
L 30.587236 115.646537 
L 32.730612 115.714515 
L 34.873988 115.786664 
L 37.017364 115.863247 
L 39.16074 115.944547 
L 41.304116 116.030869 
L 43.447492 116.122542 
L 45.590868 116.219922 
L 47.734244 116.323394 
L 49.87762 116.433379 
L 52.020996 116.550332 
L 54.164372 116.674754 
L 56.307748 116.807193 
L 58.451124 116.948252 
L 60.5945 117.098596 
L 62.737876 117.258963 
L 64.881252 117.43017 
L 67.024628 117.613131 
L 69.168004 117.808863 
L 71.31138 118.018507 
L 73.454756 118.243347 
L 75.598132 118.484826 
L 77.741508 118.744575 
L 79.884884 119.024439 
L 82.02826 119.32651 
L 84.171636 119.653165 
L 86.315012 120.007106 
L 88.458388 120.391415 
L 90.601764 120.809606 
L 92.74514 121.265693 
L 94.888516 121.764269 
L 97.031892 122.310589 
L 99.175268 122.910672 
L 101.318644 123.571419 
" style="fill:none;stroke:#5f9049;stroke-dasharray:3.7,1.6;stroke-dashoffset:0;"/>
   </g>
   <g id="line2d_3">
    <path clip-path="url(#pe7dcd1fb6e)" d="M -1 91.543087 
L 0.579972 91.595178 
L 2.723348 91.669981 
L 4.866724 91.749144 
L 7.0101 91.832903 
L 9.153476 91.921506 
L 11.296852 92.015211 
L 13.440228 92.114288 
L 15.583604 92.21902 
L 17.72698 92.329702 
L 19.870356 92.446646 
L 22.013732 92.570174 
L 24.157108 92.700627 
L 26.300484 92.838361 
L 28.44386 92.983747 
L 30.587236 93.137179 
L 32.730612 93.299067 
L 34.873988 93.469847 
L 37.017364 93.649975 
L 39.16074 93.839935 
L 41.304116 94.040243 
L 43.447492 94.251445 
L 45.590868 94.474125 
L 47.734244 94.708909 
L 49.87762 94.956473 
L 52.020996 95.217544 
L 54.164372 95.492916 
L 56.307748 95.783454 
L 58.451124 96.090105 
L 60.5945 96.413914 
L 62.737876 96.75604 
L 64.881252 97.117767 
L 67.024628 97.500532 
L 69.168004 97.905945 
L 71.31138 98.335819 
L 73.454756 98.792196 
L 75.598132 99.277393 
L 77.741508 99.794036 
L 79.884884 100.345112 
L 82.02826 100.934028 
L 84.171636 101.56467 
L 86.315012 102.241482 
L 88.458388 102.969549 
L 90.601764 103.754696 
L 92.74514 104.603601 
L 94.888516 105.523926 
L 97.031892 106.524463 
L 99.175268 107.615309 
L 101.318644 108.808066 
" style="fill:none;stroke:#d7b501;stroke-dasharray:3.7,1.6;stroke-dashoffset:0;"/>
   </g>
   <g id="line2d_4">
    <path clip-path="url(#pe7dcd1fb6e)" d="M -1 59.52082 
L 0.579972 59.64376 
L 2.723348 59.819735 
L 4.866724 60.005341 
L 7.0101 60.201027 
L 9.153476 60.407257 
L 11.296852 60.624507 
L 13.440228 60.853267 
L 15.583604 61.094042 
L 17.72698 61.347346 
L 19.870356 61.613711 
L 22.013732 61.89368 
L 24.157108 62.187811 
L 26.300484 62.496675 
L 28.44386 62.820858 
L 30.587236 63.160965 
L 32.730612 63.517615 
L 34.873988 63.89145 
L 37.017364 64.283131 
L 39.16074 64.693349 
L 41.304116 65.122821 
L 43.447492 65.572302 
L 45.590868 66.042589 
L 47.734244 66.534527 
L 49.87762 67.049021 
L 52.020996 67.587047 
L 54.164372 68.149665 
L 56.307748 68.738035 
L 58.451124 69.353434 
L 60.5945 69.997281 
L 62.737876 70.671161 
L 64.881252 71.376852 
L 67.024628 72.116362 
L 69.168004 72.891968 
L 71.31138 73.706259 
L 73.454756 74.562189 
L 75.598132 75.463136 
L 77.741508 76.412971 
L 79.884884 77.416137 
L 82.02826 78.477735 
L 84.171636 79.603631 
L 86.315012 80.80057 
L 88.458388 82.076314 
L 90.601764 83.439796 
L 92.74514 84.901296 
L 94.888516 86.47265 
L 97.031892 88.167481 
L 99.175268 90.001471 
L 101.318644 91.992671 
" style="fill:none;stroke:#eca300;stroke-dasharray:3.7,1.6;stroke-dashoffset:0;"/>
   </g>
   <g id="line2d_5">
    <path clip-path="url(#pe7dcd1fb6e)" d="M -1 14.592008 
L 0.579972 14.866889 
L 2.723348 15.258849 
L 4.866724 15.67061 
L 7.0101 16.102924 
L 9.153476 16.556546 
L 11.296852 17.032237 
L 13.440228 17.53076 
L 15.583604 18.052876 
L 17.72698 18.599349 
L 19.870356 19.170937 
L 22.013732 19.768396 
L 24.157108 20.39248 
L 26.300484 21.043937 
L 28.44386 21.723513 
L 30.587236 22.431952 
L 32.730612 23.169996 
L 34.873988 23.938395 
L 37.017364 24.737904 
L 39.16074 25.569294 
L 41.304116 26.433357 
L 43.447492 27.330917 
L 45.590868 28.262841 
L 47.734244 29.230055 
L 49.87762 30.233556 
L 52.020996 31.274438 
L 54.164372 32.35391 
L 56.307748 33.473326 
L 58.451124 34.634214 
L 60.5945 35.838313 
L 62.737876 37.087615 
L 64.881252 38.384411 
L 67.024628 39.731342 
L 69.168004 41.131469 
L 71.31138 42.588334 
L 73.454756 44.106045 
L 75.598132 45.68937 
L 77.741508 47.343834 
L 79.884884 49.075849 
L 82.02826 50.892842 
L 84.171636 52.803419 
L 86.315012 54.817539 
L 88.458388 56.946724 
L 90.601764 59.204295 
L 92.74514 61.605643 
L 94.888516 64.168542 
L 97.031892 66.913509 
L 99.175268 69.864218 
L 101.318644 73.047976 
" style="fill:none;stroke:#db7502;stroke-dasharray:3.7,1.6;stroke-dashoffset:0;"/>
   </g>
   <g id="matplotlib.axis_1">
    <g id="xtick_1">
     <g id="line2d_6">
      <defs>
       <path d="M 0 0 
L 0 -2.5 
" id="mbe59585876" style="stroke:#000000;stroke-width:0.8;"/>
      </defs>
      <g>
       <use style="stroke:#000000;stroke-width:0.8;" x="31.301695" xlink:href="#mbe59585876" y="153"/>
      </g>
     </g>
     <g id="line2d_7">
      <defs>
       <path d="M 0 0 
L 0 2.5 
" id="m0a6dc21808" style="stroke:#000000;stroke-width:0.8;"/>
      </defs>
      <g>
       <use style="stroke:#000000;stroke-width:0.8;" x="31.301695" xlink:href="#m0a6dc21808" y="9"/>
      </g>
     </g>
     <g id="text_1">
      <!-- $-3$ -->
      <defs>
       <path d="M 62.09375 22 
L 6.40625 22 
L 6.40625 28.59375 
L 62.09375 28.59375 
z
" id="STIXGeneral-Regular-2212"/>
       <path d="M 11.296875 49.203125 
L 4.203125 50.90625 
Q 6.40625 58.703125 11.5 63.140625 
Q 16.59375 67.59375 24.296875 67.59375 
Q 31.40625 67.59375 36.203125 63.09375 
Q 41 58.59375 41 51.90625 
Q 41 43 32.40625 37 
Q 38 35 41.046875 30.34375 
Q 44.09375 25.703125 44.09375 21 
Q 44.09375 11.296875 37.796875 5 
Q 31.40625 -1.40625 20.5 -1.40625 
Q 9.5 -1.40625 3.09375 5.59375 
L 7.796875 11.203125 
Q 12.90625 5.703125 20 5.703125 
Q 27.40625 5.703125 31.59375 9.296875 
Q 36.203125 13.203125 36.203125 19.09375 
Q 36.203125 24.296875 32.453125 27.796875 
Q 28.703125 31.296875 22.203125 32.203125 
L 15.796875 32.203125 
L 15.796875 34.296875 
L 20.59375 39.40625 
Q 25.09375 39.40625 29.09375 42.84375 
Q 33.09375 46.296875 33.09375 51.203125 
Q 33.09375 55.40625 30.4375 57.953125 
Q 27.796875 60.5 24 60.5 
Q 20 60.5 16.546875 57.640625 
Q 13.09375 54.796875 11.296875 49.203125 
z
" id="STIXGeneral-Regular-1d7e5"/>
      </defs>
      <g transform="translate(26.541695 162.57875)scale(0.08 -0.08)">
       <use transform="translate(0 0.40625)" xlink:href="#STIXGeneral-Regular-2212"/>
       <use transform="translate(68.499985 0.40625)" xlink:href="#STIXGeneral-Regular-1d7e5"/>
      </g>
     </g>
    </g>
    <g id="xtick_2">
     <g id="line2d_8">
      <g>
       <use style="stroke:#000000;stroke-width:0.8;" x="66.310169" xlink:href="#mbe59585876" y="153"/>
      </g>
     </g>
     <g id="line2d_9">
      <g>
       <use style="stroke:#000000;stroke-width:0.8;" x="66.310169" xlink:href="#m0a6dc21808" y="9"/>
      </g>
     </g>
     <g id="text_2">
      <!-- $-2$ -->
      <defs>
       <path d="M 46.90625 7.09375 
L 44 0 
L 3.5 0 
L 3.5 2.09375 
L 21 23.5 
L 21 23.40625 
L 26.59375 30.203125 
Q 30.5 34.90625 32.09375 36.953125 
Q 33.703125 39 35.203125 41.953125 
Q 36.703125 44.90625 36.703125 47.5 
Q 36.703125 53.703125 33.34375 57.09375 
Q 30 60.5 24.203125 60.5 
Q 19.59375 60.5 15.75 56.703125 
Q 11.90625 52.90625 10.90625 45.90625 
L 3.703125 47.59375 
Q 5.296875 56.5 11.1875 62.046875 
Q 17.09375 67.59375 24.90625 67.59375 
Q 33.59375 67.59375 39.09375 62.1875 
Q 44.59375 56.796875 44.59375 49.09375 
Q 44.59375 43.5 42.5 39.453125 
Q 40.40625 35.40625 33.703125 27 
L 17.703125 7.09375 
z
" id="STIXGeneral-Regular-1d7e4"/>
      </defs>
      <g transform="translate(61.550169 162.57875)scale(0.08 -0.08)">
       <use transform="translate(0 0.40625)" xlink:href="#STIXGeneral-Regular-2212"/>
       <use transform="translate(68.499985 0.40625)" xlink:href="#STIXGeneral-Regular-1d7e4"/>
      </g>
     </g>
    </g>
    <g id="xtick_3">
     <g id="line2d_10">
      <g>
       <use style="stroke:#000000;stroke-width:0.8;" x="101.318644" xlink:href="#mbe59585876" y="153"/>
      </g>
     </g>
     <g id="line2d_11">
      <g>
       <use style="stroke:#000000;stroke-width:0.8;" x="101.318644" xlink:href="#m0a6dc21808" y="9"/>
      </g>
     </g>
     <g id="text_3">
      <!-- $-1$ -->
      <defs>
       <path d="M 30.203125 0 
L 22.296875 0 
L 22.296875 57 
Q 20.09375 56 15.75 53.75 
Q 11.40625 51.5 10.796875 51.203125 
L 10.796875 58.5 
L 28.796875 67.703125 
L 30.203125 67.203125 
z
" id="STIXGeneral-Regular-1d7e3"/>
      </defs>
      <g transform="translate(96.558644 162.57875)scale(0.08 -0.08)">
       <use transform="translate(0 0.296875)" xlink:href="#STIXGeneral-Regular-2212"/>
       <use transform="translate(68.499985 0.296875)" xlink:href="#STIXGeneral-Regular-1d7e3"/>
      </g>
     </g>
    </g>
    <g id="xtick_4">
     <g id="line2d_12">
      <g>
       <use style="stroke:#000000;stroke-width:0.8;" x="136.327119" xlink:href="#mbe59585876" y="153"/>
      </g>
     </g>
     <g id="line2d_13">
      <g>
       <use style="stroke:#000000;stroke-width:0.8;" x="136.327119" xlink:href="#m0a6dc21808" y="9"/>
      </g>
     </g>
     <g id="text_4">
      <!-- $0$ -->
      <defs>
       <path d="M 47.703125 33 
Q 47.703125 23.796875 45.546875 16.34375 
Q 43.40625 8.90625 38.09375 3.75 
Q 32.796875 -1.40625 25 -1.40625 
Q 18.796875 -1.40625 14.25 1.6875 
Q 9.703125 4.796875 7.203125 10.046875 
Q 4.703125 15.296875 3.5 21.140625 
Q 2.296875 27 2.296875 33.59375 
Q 2.296875 42.90625 4.59375 50.34375 
Q 6.90625 57.796875 12.296875 62.6875 
Q 17.703125 67.59375 25.40625 67.59375 
Q 35.203125 67.59375 41.453125 57.9375 
Q 47.703125 48.296875 47.703125 33 
z
M 39.796875 33 
Q 39.796875 45.203125 35.75 52.84375 
Q 31.703125 60.5 25.203125 60.5 
Q 17.796875 60.5 14 52.75 
Q 10.203125 45 10.203125 33.40625 
Q 10.203125 28.203125 10.953125 23.546875 
Q 11.703125 18.90625 13.34375 14.75 
Q 15 10.59375 18 8.140625 
Q 21 5.703125 25 5.703125 
Q 30.09375 5.703125 33.546875 9.796875 
Q 37 13.90625 38.390625 19.84375 
Q 39.796875 25.796875 39.796875 33 
z
" id="STIXGeneral-Regular-1d7e2"/>
      </defs>
      <g transform="translate(134.327119 162.57875)scale(0.08 -0.08)">
       <use transform="translate(0 0.40625)" xlink:href="#STIXGeneral-Regular-1d7e2"/>
      </g>
     </g>
    </g>
    <g id="xtick_5">
     <g id="line2d_14">
      <g>
       <use style="stroke:#000000;stroke-width:0.8;" x="171.335593" xlink:href="#mbe59585876" y="153"/>
      </g>
     </g>
     <g id="line2d_15">
      <g>
       <use style="stroke:#000000;stroke-width:0.8;" x="171.335593" xlink:href="#m0a6dc21808" y="9"/>
      </g>
     </g>
     <g id="text_5">
      <!-- $1$ -->
      <g transform="translate(169.335593 162.57875)scale(0.08 -0.08)">
       <use transform="translate(0 0.296875)" xlink:href="#STIXGeneral-Regular-1d7e3"/>
      </g>
     </g>
    </g>
    <g id="xtick_6">
     <g id="line2d_16">
      <g>
       <use style="stroke:#000000;stroke-width:0.8;" x="206.344068" xlink:href="#mbe59585876" y="153"/>
      </g>
     </g>
     <g id="line2d_17">
      <g>
       <use style="stroke:#000000;stroke-width:0.8;" x="206.344068" xlink:href="#m0a6dc21808" y="9"/>
      </g>
     </g>
     <g id="text_6">
      <!-- $2$ -->
      <g transform="translate(204.344068 162.57875)scale(0.08 -0.08)">
       <use transform="translate(0 0.40625)" xlink:href="#STIXGeneral-Regular-1d7e4"/>
      </g>
     </g>
    </g>
    <g id="xtick_7">
     <g id="line2d_18">
      <defs>
       <path d="M 0 0 
L 0 -1.5 
" id="macc30d486d" style="stroke:#000000;stroke-width:0.6;"/>
      </defs>
      <g>
       <use style="stroke:#000000;stroke-width:0.6;" x="48.805932" xlink:href="#macc30d486d" y="153"/>
      </g>
     </g>
     <g id="line2d_19">
      <defs>
       <path d="M 0 0 
L 0 1.5 
" id="m76a6fff16d" style="stroke:#000000;stroke-width:0.6;"/>
      </defs>
      <g>
       <use style="stroke:#000000;stroke-width:0.6;" x="48.805932" xlink:href="#m76a6fff16d" y="9"/>
      </g>
     </g>
    </g>
    <g id="xtick_8">
     <g id="line2d_20">
      <g>
       <use style="stroke:#000000;stroke-width:0.6;" x="83.814407" xlink:href="#macc30d486d" y="153"/>
      </g>
     </g>
     <g id="line2d_21">
      <g>
       <use style="stroke:#000000;stroke-width:0.6;" x="83.814407" xlink:href="#m76a6fff16d" y="9"/>
      </g>
     </g>
    </g>
    <g id="xtick_9">
     <g id="line2d_22">
      <g>
       <use style="stroke:#000000;stroke-width:0.6;" x="118.822881" xlink:href="#macc30d486d" y="153"/>
      </g>
     </g>
     <g id="line2d_23">
      <g>
       <use style="stroke:#000000;stroke-width:0.6;" x="118.822881" xlink:href="#m76a6fff16d" y="9"/>
      </g>
     </g>
    </g>
    <g id="xtick_10">
     <g id="line2d_24">
      <g>
       <use style="stroke:#000000;stroke-width:0.6;" x="153.831356" xlink:href="#macc30d486d" y="153"/>
      </g>
     </g>
     <g id="line2d_25">
      <g>
       <use style="stroke:#000000;stroke-width:0.6;" x="153.831356" xlink:href="#m76a6fff16d" y="9"/>
      </g>
     </g>
    </g>
    <g id="xtick_11">
     <g id="line2d_26">
      <g>
       <use style="stroke:#000000;stroke-width:0.6;" x="188.839831" xlink:href="#macc30d486d" y="153"/>
      </g>
     </g>
     <g id="line2d_27">
      <g>
       <use style="stroke:#000000;stroke-width:0.6;" x="188.839831" xlink:href="#m76a6fff16d" y="9"/>
      </g>
     </g>
    </g>
    <g id="xtick_12">
     <g id="line2d_28">
      <g>
       <use style="stroke:#000000;stroke-width:0.6;" x="223.848305" xlink:href="#macc30d486d" y="153"/>
      </g>
     </g>
     <g id="line2d_29">
      <g>
       <use style="stroke:#000000;stroke-width:0.6;" x="223.848305" xlink:href="#m76a6fff16d" y="9"/>
      </g>
     </g>
    </g>
    <g id="text_7">
     <!-- $\beta\mu$ -->
     <defs>
      <path d="M 2.703125 -13.09375 
L 16 40.203125 
Q 18.796875 51.5 23.40625 57.90625 
Q 31.09375 68.296875 42.796875 68.296875 
Q 48.09375 68.296875 52 64.9375 
Q 55.90625 61.59375 55.90625 56.296875 
Q 55.90625 51.203125 53.203125 46.84375 
Q 50.5 42.5 45.703125 39.796875 
Q 49.09375 38.59375 51.140625 35.046875 
Q 53.203125 31.5 53.203125 27.09375 
Q 53.203125 14.59375 44.453125 6.59375 
Q 35.703125 -1.40625 25 -1.40625 
Q 18.296875 -1.40625 14.40625 2.203125 
L 10.703125 -12.59375 
Q 9.59375 -17 6.90625 -21.5 
L -1.203125 -21.5 
Q 1.59375 -17.40625 2.703125 -13.09375 
z
M 29.296875 37.5 
L 34.796875 42.90625 
Q 40.5 43.203125 44.140625 46.703125 
Q 47.796875 50.203125 47.796875 54.703125 
Q 47.796875 57.703125 45.84375 59.453125 
Q 43.90625 61.203125 40.5 61.203125 
Q 34.203125 61.203125 30.296875 55.84375 
Q 26.40625 50.5 24.59375 43.296875 
L 16.796875 11.796875 
Q 17.796875 9.09375 20.84375 7.390625 
Q 23.90625 5.703125 27.5 5.703125 
Q 34.296875 5.703125 39.640625 11.75 
Q 45 17.796875 45 25.703125 
Q 45 35.796875 28.90625 35.796875 
z
" id="STIXNonUnicode-Italic-e1d9"/>
      <path d="M 53.59375 45.296875 
L 45.5 12.796875 
Q 45 11 45 9.703125 
Q 45 6.09375 49.703125 6.09375 
L 49.296875 4.703125 
L 45.59375 -1 
Q 39.40625 -1 37.5 2.09375 
Q 36.59375 3.5 36.59375 6.40625 
L 21.59375 -1 
Q 16 -1 14.09375 1.5 
L 10.59375 -12.59375 
Q 9.296875 -17.90625 6.796875 -21.5 
L -0.90625 -21.5 
Q 2 -17 3.09375 -12.703125 
L 17.5 45.296875 
L 25.40625 45.296875 
L 17.90625 14.90625 
Q 17.40625 12.703125 17.40625 11.40625 
Q 17.40625 6.09375 23.90625 6.09375 
Q 26.703125 6.09375 31.34375 9.046875 
Q 36 12 38.5 16.09375 
L 45.703125 45.296875 
z
" id="STIXNonUnicode-Italic-e1e3"/>
     </defs>
     <g transform="translate(123.175 171.225)scale(0.08 -0.08)">
      <use transform="translate(0 0.703125)" xlink:href="#STIXNonUnicode-Italic-e1d9"/>
      <use transform="translate(53.499985 0.703125)" xlink:href="#STIXNonUnicode-Italic-e1e3"/>
     </g>
    </g>
   </g>
   <g id="matplotlib.axis_2">
    <g id="ytick_1">
     <g id="line2d_30">
      <defs>
       <path d="M 0 0 
L 2.5 0 
" id="md12727046c" style="stroke:#000000;stroke-width:0.8;"/>
      </defs>
      <g>
       <use style="stroke:#000000;stroke-width:0.8;" x="24.3" xlink:href="#md12727046c" y="149.108108"/>
      </g>
     </g>
     <g id="line2d_31">
      <defs>
       <path d="M 0 0 
L -2.5 0 
" id="mf67b6274ad" style="stroke:#000000;stroke-width:0.8;"/>
      </defs>
      <g>
       <use style="stroke:#000000;stroke-width:0.8;" x="230.85" xlink:href="#mf67b6274ad" y="149.108108"/>
      </g>
     </g>
     <g id="text_8">
      <!-- $0$ -->
      <g transform="translate(16.8 152.147483)scale(0.08 -0.08)">
       <use transform="translate(0 0.40625)" xlink:href="#STIXGeneral-Regular-1d7e2"/>
      </g>
     </g>
    </g>
    <g id="ytick_2">
     <g id="line2d_32">
      <g>
       <use style="stroke:#000000;stroke-width:0.8;" x="24.3" xlink:href="#md12727046c" y="110.189189"/>
      </g>
     </g>
     <g id="line2d_33">
      <g>
       <use style="stroke:#000000;stroke-width:0.8;" x="230.85" xlink:href="#mf67b6274ad" y="110.189189"/>
      </g>
     </g>
     <g id="text_9">
      <!-- $1$ -->
      <g transform="translate(16.8 113.228564)scale(0.08 -0.08)">
       <use transform="translate(0 0.296875)" xlink:href="#STIXGeneral-Regular-1d7e3"/>
      </g>
     </g>
    </g>
    <g id="ytick_3">
     <g id="line2d_34">
      <g>
       <use style="stroke:#000000;stroke-width:0.8;" x="24.3" xlink:href="#md12727046c" y="71.27027"/>
      </g>
     </g>
     <g id="line2d_35">
      <g>
       <use style="stroke:#000000;stroke-width:0.8;" x="230.85" xlink:href="#mf67b6274ad" y="71.27027"/>
      </g>
     </g>
     <g id="text_10">
      <!-- $2$ -->
      <g transform="translate(16.8 74.309645)scale(0.08 -0.08)">
       <use transform="translate(0 0.40625)" xlink:href="#STIXGeneral-Regular-1d7e4"/>
      </g>
     </g>
    </g>
    <g id="ytick_4">
     <g id="line2d_36">
      <g>
       <use style="stroke:#000000;stroke-width:0.8;" x="24.3" xlink:href="#md12727046c" y="32.351351"/>
      </g>
     </g>
     <g id="line2d_37">
      <g>
       <use style="stroke:#000000;stroke-width:0.8;" x="230.85" xlink:href="#mf67b6274ad" y="32.351351"/>
      </g>
     </g>
     <g id="text_11">
      <!-- $3$ -->
      <g transform="translate(16.8 35.390726)scale(0.08 -0.08)">
       <use transform="translate(0 0.40625)" xlink:href="#STIXGeneral-Regular-1d7e5"/>
      </g>
     </g>
    </g>
    <g id="ytick_5">
     <g id="line2d_38">
      <defs>
       <path d="M 0 0 
L 1.5 0 
" id="m7c13d47a45" style="stroke:#000000;stroke-width:0.6;"/>
      </defs>
      <g>
       <use style="stroke:#000000;stroke-width:0.6;" x="24.3" xlink:href="#m7c13d47a45" y="129.648649"/>
      </g>
     </g>
     <g id="line2d_39">
      <defs>
       <path d="M 0 0 
L -1.5 0 
" id="m665a578908" style="stroke:#000000;stroke-width:0.6;"/>
      </defs>
      <g>
       <use style="stroke:#000000;stroke-width:0.6;" x="230.85" xlink:href="#m665a578908" y="129.648649"/>
      </g>
     </g>
    </g>
    <g id="ytick_6">
     <g id="line2d_40">
      <g>
       <use style="stroke:#000000;stroke-width:0.6;" x="24.3" xlink:href="#m7c13d47a45" y="90.72973"/>
      </g>
     </g>
     <g id="line2d_41">
      <g>
       <use style="stroke:#000000;stroke-width:0.6;" x="230.85" xlink:href="#m665a578908" y="90.72973"/>
      </g>
     </g>
    </g>
    <g id="ytick_7">
     <g id="line2d_42">
      <g>
       <use style="stroke:#000000;stroke-width:0.6;" x="24.3" xlink:href="#m7c13d47a45" y="51.810811"/>
      </g>
     </g>
     <g id="line2d_43">
      <g>
       <use style="stroke:#000000;stroke-width:0.6;" x="230.85" xlink:href="#m665a578908" y="51.810811"/>
      </g>
     </g>
    </g>
    <g id="ytick_8">
     <g id="line2d_44">
      <g>
       <use style="stroke:#000000;stroke-width:0.6;" x="24.3" xlink:href="#m7c13d47a45" y="12.891892"/>
      </g>
     </g>
     <g id="line2d_45">
      <g>
       <use style="stroke:#000000;stroke-width:0.6;" x="230.85" xlink:href="#m665a578908" y="12.891892"/>
      </g>
     </g>
    </g>
    <g id="text_12">
     <!-- $m\,/n_0$ -->
     <defs>
      <path d="M 25.296875 45.90625 
L 23.90625 40.203125 
Q 30.296875 46.296875 39.296875 46.296875 
Q 48.09375 46.296875 50.796875 39.796875 
Q 58.203125 46.296875 66.59375 46.296875 
Q 71.5 46.296875 74.5 43.6875 
Q 77.5 41.09375 77.5 36.09375 
Q 77.5 34 76.90625 31.5 
L 69.09375 0 
L 61.40625 0 
L 68.703125 29.296875 
Q 69.296875 31.703125 69.296875 33.5 
Q 69.296875 39.203125 63.203125 39.203125 
Q 60.5 39.203125 56 36.640625 
Q 51.5 34.09375 49.203125 30.203125 
L 41.703125 0 
L 34 0 
L 41.09375 29 
Q 41.796875 32.203125 41.796875 33.5 
Q 41.796875 39.203125 35.90625 39.203125 
Q 33.203125 39.203125 28.640625 36.703125 
Q 24.09375 34.203125 21.703125 30.203125 
L 14.203125 0 
L 6.5 0 
L 17.40625 44 
L 24.5 46.40625 
z
" id="STIXGeneral-Italic-1d62e"/>
      <path d="M 28.703125 67.59375 
L 5.90625 -1.40625 
L -0.90625 -1.40625 
L 22 67.59375 
z
" id="STIXGeneral-Regular-2f"/>
      <path d="M 25.09375 45.90625 
L 23.90625 40.203125 
Q 28.40625 43.796875 32.203125 45.046875 
Q 36 46.296875 40.5 46.296875 
Q 45.203125 46.296875 48.09375 43.75 
Q 51 41.203125 51 37.203125 
Q 51 34.796875 50.40625 32.09375 
L 42.40625 0 
L 34.5 0 
L 42 30.40625 
Q 42.5 32.59375 42.5 33.90625 
Q 42.5 39.203125 36 39.203125 
Q 33.09375 39.203125 28.640625 36.703125 
Q 24.203125 34.203125 21.703125 30.203125 
L 14.203125 0 
L 6.296875 0 
L 17.203125 44 
L 24.296875 46.40625 
z
" id="STIXGeneral-Italic-1d62f"/>
     </defs>
     <g transform="translate(14.13625 89.08)rotate(-90)scale(0.08 -0.08)">
      <use transform="translate(0 0.40625)" xlink:href="#STIXGeneral-Italic-1d62e"/>
      <use transform="translate(88.200241 0.40625)" xlink:href="#STIXGeneral-Regular-2f"/>
      <use transform="translate(116.000229 0.40625)" xlink:href="#STIXGeneral-Italic-1d62f"/>
      <use transform="translate(164.700226 -13.182812)scale(0.7)" xlink:href="#STIXGeneral-Regular-1d7e2"/>
     </g>
    </g>
   </g>
   <g id="LineCollection_1">
    <path clip-path="url(#pe7dcd1fb6e)" d="M 31.301695 133.654772 
L 31.301695 133.350245 
" style="fill:none;stroke:#114b5f;"/>
    <path clip-path="url(#pe7dcd1fb6e)" d="M 48.805932 133.874794 
L 48.805932 133.584853 
" style="fill:none;stroke:#114b5f;"/>
    <path clip-path="url(#pe7dcd1fb6e)" d="M 66.310169 134.080307 
L 66.310169 134.007468 
" style="fill:none;stroke:#114b5f;"/>
    <path clip-path="url(#pe7dcd1fb6e)" d="M 83.814407 134.664004 
L 83.814407 134.521633 
" style="fill:none;stroke:#114b5f;"/>
    <path clip-path="url(#pe7dcd1fb6e)" d="M 101.318644 135.415963 
L 101.318644 135.36823 
" style="fill:none;stroke:#114b5f;"/>
    <path clip-path="url(#pe7dcd1fb6e)" d="M 118.822881 136.55957 
L 118.822881 136.518386 
" style="fill:none;stroke:#114b5f;"/>
    <path clip-path="url(#pe7dcd1fb6e)" d="M 136.327119 137.876502 
L 136.327119 137.837639 
" style="fill:none;stroke:#114b5f;"/>
    <path clip-path="url(#pe7dcd1fb6e)" d="M 153.831356 139.46115 
L 153.831356 139.379132 
" style="fill:none;stroke:#114b5f;"/>
    <path clip-path="url(#pe7dcd1fb6e)" d="M 171.335593 141.136066 
L 171.335593 141.112313 
" style="fill:none;stroke:#114b5f;"/>
    <path clip-path="url(#pe7dcd1fb6e)" d="M 188.839831 142.653494 
L 188.839831 142.613014 
" style="fill:none;stroke:#114b5f;"/>
    <path clip-path="url(#pe7dcd1fb6e)" d="M 206.344068 143.84471 
L 206.344068 143.814658 
" style="fill:none;stroke:#114b5f;"/>
    <path clip-path="url(#pe7dcd1fb6e)" d="M 223.848305 144.663284 
L 223.848305 144.630736 
" style="fill:none;stroke:#114b5f;"/>
   </g>
   <g id="LineCollection_2">
    <path clip-path="url(#pe7dcd1fb6e)" d="M 31.301695 116.025624 
L 31.301695 115.351185 
" style="fill:none;stroke:#5f9049;"/>
    <path clip-path="url(#pe7dcd1fb6e)" d="M 48.805932 116.578834 
L 48.805932 115.978023 
" style="fill:none;stroke:#5f9049;"/>
    <path clip-path="url(#pe7dcd1fb6e)" d="M 66.310169 117.379281 
L 66.310169 116.812601 
" style="fill:none;stroke:#5f9049;"/>
    <path clip-path="url(#pe7dcd1fb6e)" d="M 83.814407 118.618009 
L 83.814407 118.526065 
" style="fill:none;stroke:#5f9049;"/>
    <path clip-path="url(#pe7dcd1fb6e)" d="M 101.318644 120.627166 
L 101.318644 120.570005 
" style="fill:none;stroke:#5f9049;"/>
    <path clip-path="url(#pe7dcd1fb6e)" d="M 118.822881 123.068092 
L 118.822881 123.018891 
" style="fill:none;stroke:#5f9049;"/>
    <path clip-path="url(#pe7dcd1fb6e)" d="M 136.327119 126.057671 
L 136.327119 125.881508 
" style="fill:none;stroke:#5f9049;"/>
    <path clip-path="url(#pe7dcd1fb6e)" d="M 153.831356 129.438083 
L 153.831356 129.361699 
" style="fill:none;stroke:#5f9049;"/>
    <path clip-path="url(#pe7dcd1fb6e)" d="M 171.335593 132.857322 
L 171.335593 132.800136 
" style="fill:none;stroke:#5f9049;"/>
    <path clip-path="url(#pe7dcd1fb6e)" d="M 188.839831 136.015294 
L 188.839831 135.947968 
" style="fill:none;stroke:#5f9049;"/>
    <path clip-path="url(#pe7dcd1fb6e)" d="M 206.344068 138.422283 
L 206.344068 138.344921 
" style="fill:none;stroke:#5f9049;"/>
    <path clip-path="url(#pe7dcd1fb6e)" d="M 223.848305 139.912658 
L 223.848305 139.791516 
" style="fill:none;stroke:#5f9049;"/>
   </g>
   <g id="LineCollection_3">
    <path clip-path="url(#pe7dcd1fb6e)" d="M 31.301695 93.997454 
L 31.301695 92.858886 
" style="fill:none;stroke:#d7b501;"/>
    <path clip-path="url(#pe7dcd1fb6e)" d="M 48.805932 94.968747 
L 48.805932 94.233346 
" style="fill:none;stroke:#d7b501;"/>
    <path clip-path="url(#pe7dcd1fb6e)" d="M 66.310169 97.124632 
L 66.310169 96.486129 
" style="fill:none;stroke:#d7b501;"/>
    <path clip-path="url(#pe7dcd1fb6e)" d="M 83.814407 99.624893 
L 83.814407 99.418683 
" style="fill:none;stroke:#d7b501;"/>
    <path clip-path="url(#pe7dcd1fb6e)" d="M 101.318644 103.609961 
L 101.318644 103.450751 
" style="fill:none;stroke:#d7b501;"/>
    <path clip-path="url(#pe7dcd1fb6e)" d="M 118.822881 108.183718 
L 118.822881 107.823723 
" style="fill:none;stroke:#d7b501;"/>
    <path clip-path="url(#pe7dcd1fb6e)" d="M 136.327119 113.326157 
L 136.327119 113.119766 
" style="fill:none;stroke:#d7b501;"/>
    <path clip-path="url(#pe7dcd1fb6e)" d="M 153.831356 118.671746 
L 153.831356 118.501204 
" style="fill:none;stroke:#d7b501;"/>
    <path clip-path="url(#pe7dcd1fb6e)" d="M 171.335593 124.304558 
L 171.335593 124.225631 
" style="fill:none;stroke:#d7b501;"/>
    <path clip-path="url(#pe7dcd1fb6e)" d="M 188.839831 129.106333 
L 188.839831 128.966106 
" style="fill:none;stroke:#d7b501;"/>
    <path clip-path="url(#pe7dcd1fb6e)" d="M 206.344068 132.616965 
L 206.344068 132.396117 
" style="fill:none;stroke:#d7b501;"/>
    <path clip-path="url(#pe7dcd1fb6e)" d="M 223.848305 135.106896 
L 223.848305 134.929666 
" style="fill:none;stroke:#d7b501;"/>
   </g>
   <g id="LineCollection_4">
    <path clip-path="url(#pe7dcd1fb6e)" d="M 31.301695 64.201088 
L 31.301695 62.342553 
" style="fill:none;stroke:#eca300;"/>
    <path clip-path="url(#pe7dcd1fb6e)" d="M 48.805932 67.251993 
L 48.805932 66.098335 
" style="fill:none;stroke:#eca300;"/>
    <path clip-path="url(#pe7dcd1fb6e)" d="M 66.310169 70.787262 
L 66.310169 69.938854 
" style="fill:none;stroke:#eca300;"/>
    <path clip-path="url(#pe7dcd1fb6e)" d="M 83.814407 76.779448 
L 83.814407 76.22972 
" style="fill:none;stroke:#eca300;"/>
    <path clip-path="url(#pe7dcd1fb6e)" d="M 101.318644 83.430034 
L 101.318644 83.139363 
" style="fill:none;stroke:#eca300;"/>
    <path clip-path="url(#pe7dcd1fb6e)" d="M 118.822881 90.899287 
L 118.822881 90.831943 
" style="fill:none;stroke:#eca300;"/>
    <path clip-path="url(#pe7dcd1fb6e)" d="M 136.327119 99.009128 
L 136.327119 98.83458 
" style="fill:none;stroke:#eca300;"/>
    <path clip-path="url(#pe7dcd1fb6e)" d="M 153.831356 107.273629 
L 153.831356 107.10928 
" style="fill:none;stroke:#eca300;"/>
    <path clip-path="url(#pe7dcd1fb6e)" d="M 171.335593 115.102475 
L 171.335593 115.009297 
" style="fill:none;stroke:#eca300;"/>
    <path clip-path="url(#pe7dcd1fb6e)" d="M 188.839831 121.747106 
L 188.839831 121.57347 
" style="fill:none;stroke:#eca300;"/>
    <path clip-path="url(#pe7dcd1fb6e)" d="M 206.344068 126.487877 
L 206.344068 126.378545 
" style="fill:none;stroke:#eca300;"/>
    <path clip-path="url(#pe7dcd1fb6e)" d="M 223.848305 129.628496 
L 223.848305 129.45281 
" style="fill:none;stroke:#eca300;"/>
   </g>
   <g id="LineCollection_5">
    <path clip-path="url(#pe7dcd1fb6e)" d="M 31.301695 23.474891 
L 31.301695 21.348546 
" style="fill:none;stroke:#db7502;"/>
    <path clip-path="url(#pe7dcd1fb6e)" d="M 48.805932 29.906422 
L 48.805932 28.720533 
" style="fill:none;stroke:#db7502;"/>
    <path clip-path="url(#pe7dcd1fb6e)" d="M 66.310169 38.15003 
L 66.310169 37.300281 
" style="fill:none;stroke:#db7502;"/>
    <path clip-path="url(#pe7dcd1fb6e)" d="M 83.814407 48.433181 
L 83.814407 47.414394 
" style="fill:none;stroke:#db7502;"/>
    <path clip-path="url(#pe7dcd1fb6e)" d="M 101.318644 59.744494 
L 101.318644 59.228309 
" style="fill:none;stroke:#db7502;"/>
    <path clip-path="url(#pe7dcd1fb6e)" d="M 118.822881 71.545579 
L 118.822881 71.049824 
" style="fill:none;stroke:#db7502;"/>
    <path clip-path="url(#pe7dcd1fb6e)" d="M 136.327119 83.446511 
L 136.327119 83.203679 
" style="fill:none;stroke:#db7502;"/>
    <path clip-path="url(#pe7dcd1fb6e)" d="M 153.831356 94.975967 
L 153.831356 94.835487 
" style="fill:none;stroke:#db7502;"/>
    <path clip-path="url(#pe7dcd1fb6e)" d="M 171.335593 105.427516 
L 171.335593 105.336245 
" style="fill:none;stroke:#db7502;"/>
    <path clip-path="url(#pe7dcd1fb6e)" d="M 188.839831 113.656402 
L 188.839831 113.506615 
" style="fill:none;stroke:#db7502;"/>
    <path clip-path="url(#pe7dcd1fb6e)" d="M 206.344068 119.919427 
L 206.344068 119.788968 
" style="fill:none;stroke:#db7502;"/>
    <path clip-path="url(#pe7dcd1fb6e)" d="M 223.848305 123.997547 
L 223.848305 123.865455 
" style="fill:none;stroke:#db7502;"/>
   </g>
   <g id="line2d_46">
    <defs>
     <path d="M -0.574025 -1.385819 
L -1.385819 -0.574025 
L -1.385819 0.574025 
L -0.574025 1.385819 
L 0.574025 1.385819 
L 1.385819 0.574025 
L 1.385819 -0.574025 
L 0.574025 -1.385819 
z
" id="m96d9581ddb" style="stroke:#114b5f;stroke-linejoin:miter;stroke-width:0.75;"/>
    </defs>
    <g clip-path="url(#pe7dcd1fb6e)">
     <use style="fill:#2faeda;stroke:#114b5f;stroke-linejoin:miter;stroke-width:0.75;" x="31.301695" xlink:href="#m96d9581ddb" y="133.502508"/>
     <use style="fill:#2faeda;stroke:#114b5f;stroke-linejoin:miter;stroke-width:0.75;" x="48.805932" xlink:href="#m96d9581ddb" y="133.729824"/>
     <use style="fill:#2faeda;stroke:#114b5f;stroke-linejoin:miter;stroke-width:0.75;" x="66.310169" xlink:href="#m96d9581ddb" y="134.043887"/>
     <use style="fill:#2faeda;stroke:#114b5f;stroke-linejoin:miter;stroke-width:0.75;" x="83.814407" xlink:href="#m96d9581ddb" y="134.592818"/>
     <use style="fill:#2faeda;stroke:#114b5f;stroke-linejoin:miter;stroke-width:0.75;" x="101.318644" xlink:href="#m96d9581ddb" y="135.392096"/>
     <use style="fill:#2faeda;stroke:#114b5f;stroke-linejoin:miter;stroke-width:0.75;" x="118.822881" xlink:href="#m96d9581ddb" y="136.538978"/>
     <use style="fill:#2faeda;stroke:#114b5f;stroke-linejoin:miter;stroke-width:0.75;" x="136.327119" xlink:href="#m96d9581ddb" y="137.857071"/>
     <use style="fill:#2faeda;stroke:#114b5f;stroke-linejoin:miter;stroke-width:0.75;" x="153.831356" xlink:href="#m96d9581ddb" y="139.420141"/>
     <use style="fill:#2faeda;stroke:#114b5f;stroke-linejoin:miter;stroke-width:0.75;" x="171.335593" xlink:href="#m96d9581ddb" y="141.124189"/>
     <use style="fill:#2faeda;stroke:#114b5f;stroke-linejoin:miter;stroke-width:0.75;" x="188.839831" xlink:href="#m96d9581ddb" y="142.633254"/>
     <use style="fill:#2faeda;stroke:#114b5f;stroke-linejoin:miter;stroke-width:0.75;" x="206.344068" xlink:href="#m96d9581ddb" y="143.829684"/>
     <use style="fill:#2faeda;stroke:#114b5f;stroke-linejoin:miter;stroke-width:0.75;" x="223.848305" xlink:href="#m96d9581ddb" y="144.64701"/>
    </g>
   </g>
   <g id="line2d_47">
    <defs>
     <path d="M 0 -1.5 
L -1.299038 -0.75 
L -1.299038 0.75 
L -0 1.5 
L 1.299038 0.75 
L 1.299038 -0.75 
z
" id="mfdcdd9a2a9" style="stroke:#5f9049;stroke-linejoin:miter;stroke-width:0.75;"/>
    </defs>
    <g clip-path="url(#pe7dcd1fb6e)">
     <use style="fill:#8ab975;stroke:#5f9049;stroke-linejoin:miter;stroke-width:0.75;" x="31.301695" xlink:href="#mfdcdd9a2a9" y="115.688405"/>
     <use style="fill:#8ab975;stroke:#5f9049;stroke-linejoin:miter;stroke-width:0.75;" x="48.805932" xlink:href="#mfdcdd9a2a9" y="116.278428"/>
     <use style="fill:#8ab975;stroke:#5f9049;stroke-linejoin:miter;stroke-width:0.75;" x="66.310169" xlink:href="#mfdcdd9a2a9" y="117.095941"/>
     <use style="fill:#8ab975;stroke:#5f9049;stroke-linejoin:miter;stroke-width:0.75;" x="83.814407" xlink:href="#mfdcdd9a2a9" y="118.572037"/>
     <use style="fill:#8ab975;stroke:#5f9049;stroke-linejoin:miter;stroke-width:0.75;" x="101.318644" xlink:href="#mfdcdd9a2a9" y="120.598585"/>
     <use style="fill:#8ab975;stroke:#5f9049;stroke-linejoin:miter;stroke-width:0.75;" x="118.822881" xlink:href="#mfdcdd9a2a9" y="123.043492"/>
     <use style="fill:#8ab975;stroke:#5f9049;stroke-linejoin:miter;stroke-width:0.75;" x="136.327119" xlink:href="#mfdcdd9a2a9" y="125.969589"/>
     <use style="fill:#8ab975;stroke:#5f9049;stroke-linejoin:miter;stroke-width:0.75;" x="153.831356" xlink:href="#mfdcdd9a2a9" y="129.399891"/>
     <use style="fill:#8ab975;stroke:#5f9049;stroke-linejoin:miter;stroke-width:0.75;" x="171.335593" xlink:href="#mfdcdd9a2a9" y="132.828729"/>
     <use style="fill:#8ab975;stroke:#5f9049;stroke-linejoin:miter;stroke-width:0.75;" x="188.839831" xlink:href="#mfdcdd9a2a9" y="135.981631"/>
     <use style="fill:#8ab975;stroke:#5f9049;stroke-linejoin:miter;stroke-width:0.75;" x="206.344068" xlink:href="#mfdcdd9a2a9" y="138.383602"/>
     <use style="fill:#8ab975;stroke:#5f9049;stroke-linejoin:miter;stroke-width:0.75;" x="223.848305" xlink:href="#mfdcdd9a2a9" y="139.852087"/>
    </g>
   </g>
   <g id="line2d_48">
    <defs>
     <path d="M 0 -1.5 
L -1.426585 -0.463525 
L -0.881678 1.213525 
L 0.881678 1.213525 
L 1.426585 -0.463525 
z
" id="m9796307cf3" style="stroke:#d7b501;stroke-linejoin:miter;stroke-width:0.75;"/>
    </defs>
    <g clip-path="url(#pe7dcd1fb6e)">
     <use style="fill:#feda1e;stroke:#d7b501;stroke-linejoin:miter;stroke-width:0.75;" x="31.301695" xlink:href="#m9796307cf3" y="93.42817"/>
     <use style="fill:#feda1e;stroke:#d7b501;stroke-linejoin:miter;stroke-width:0.75;" x="48.805932" xlink:href="#m9796307cf3" y="94.601047"/>
     <use style="fill:#feda1e;stroke:#d7b501;stroke-linejoin:miter;stroke-width:0.75;" x="66.310169" xlink:href="#m9796307cf3" y="96.805381"/>
     <use style="fill:#feda1e;stroke:#d7b501;stroke-linejoin:miter;stroke-width:0.75;" x="83.814407" xlink:href="#m9796307cf3" y="99.521788"/>
     <use style="fill:#feda1e;stroke:#d7b501;stroke-linejoin:miter;stroke-width:0.75;" x="101.318644" xlink:href="#m9796307cf3" y="103.530356"/>
     <use style="fill:#feda1e;stroke:#d7b501;stroke-linejoin:miter;stroke-width:0.75;" x="118.822881" xlink:href="#m9796307cf3" y="108.003721"/>
     <use style="fill:#feda1e;stroke:#d7b501;stroke-linejoin:miter;stroke-width:0.75;" x="136.327119" xlink:href="#m9796307cf3" y="113.222961"/>
     <use style="fill:#feda1e;stroke:#d7b501;stroke-linejoin:miter;stroke-width:0.75;" x="153.831356" xlink:href="#m9796307cf3" y="118.586475"/>
     <use style="fill:#feda1e;stroke:#d7b501;stroke-linejoin:miter;stroke-width:0.75;" x="171.335593" xlink:href="#m9796307cf3" y="124.265095"/>
     <use style="fill:#feda1e;stroke:#d7b501;stroke-linejoin:miter;stroke-width:0.75;" x="188.839831" xlink:href="#m9796307cf3" y="129.036219"/>
     <use style="fill:#feda1e;stroke:#d7b501;stroke-linejoin:miter;stroke-width:0.75;" x="206.344068" xlink:href="#m9796307cf3" y="132.506541"/>
     <use style="fill:#feda1e;stroke:#d7b501;stroke-linejoin:miter;stroke-width:0.75;" x="223.848305" xlink:href="#m9796307cf3" y="135.018281"/>
    </g>
   </g>
   <g id="line2d_49">
    <defs>
     <path d="M -1.5 1.5 
L 1.5 1.5 
L 1.5 -1.5 
L -1.5 -1.5 
z
" id="mc4576670fa" style="stroke:#eca300;stroke-linejoin:miter;stroke-width:0.75;"/>
    </defs>
    <g clip-path="url(#pe7dcd1fb6e)">
     <use style="fill:#ffca53;stroke:#eca300;stroke-linejoin:miter;stroke-width:0.75;" x="31.301695" xlink:href="#mc4576670fa" y="63.27182"/>
     <use style="fill:#ffca53;stroke:#eca300;stroke-linejoin:miter;stroke-width:0.75;" x="48.805932" xlink:href="#mc4576670fa" y="66.675164"/>
     <use style="fill:#ffca53;stroke:#eca300;stroke-linejoin:miter;stroke-width:0.75;" x="66.310169" xlink:href="#mc4576670fa" y="70.363058"/>
     <use style="fill:#ffca53;stroke:#eca300;stroke-linejoin:miter;stroke-width:0.75;" x="83.814407" xlink:href="#mc4576670fa" y="76.504584"/>
     <use style="fill:#ffca53;stroke:#eca300;stroke-linejoin:miter;stroke-width:0.75;" x="101.318644" xlink:href="#mc4576670fa" y="83.284699"/>
     <use style="fill:#ffca53;stroke:#eca300;stroke-linejoin:miter;stroke-width:0.75;" x="118.822881" xlink:href="#mc4576670fa" y="90.865615"/>
     <use style="fill:#ffca53;stroke:#eca300;stroke-linejoin:miter;stroke-width:0.75;" x="136.327119" xlink:href="#mc4576670fa" y="98.921854"/>
     <use style="fill:#ffca53;stroke:#eca300;stroke-linejoin:miter;stroke-width:0.75;" x="153.831356" xlink:href="#mc4576670fa" y="107.191454"/>
     <use style="fill:#ffca53;stroke:#eca300;stroke-linejoin:miter;stroke-width:0.75;" x="171.335593" xlink:href="#mc4576670fa" y="115.055886"/>
     <use style="fill:#ffca53;stroke:#eca300;stroke-linejoin:miter;stroke-width:0.75;" x="188.839831" xlink:href="#mc4576670fa" y="121.660288"/>
     <use style="fill:#ffca53;stroke:#eca300;stroke-linejoin:miter;stroke-width:0.75;" x="206.344068" xlink:href="#mc4576670fa" y="126.433211"/>
     <use style="fill:#ffca53;stroke:#eca300;stroke-linejoin:miter;stroke-width:0.75;" x="223.848305" xlink:href="#mc4576670fa" y="129.540653"/>
    </g>
   </g>
   <g id="line2d_50">
    <defs>
     <path d="M 0 -1.5 
L -1.5 1.5 
L 1.5 1.5 
z
" id="maa1e7a09e6" style="stroke:#db7502;stroke-linejoin:miter;stroke-width:0.75;"/>
    </defs>
    <g clip-path="url(#pe7dcd1fb6e)">
     <use style="fill:#fdaf56;stroke:#db7502;stroke-linejoin:miter;stroke-width:0.75;" x="31.301695" xlink:href="#maa1e7a09e6" y="22.411718"/>
     <use style="fill:#fdaf56;stroke:#db7502;stroke-linejoin:miter;stroke-width:0.75;" x="48.805932" xlink:href="#maa1e7a09e6" y="29.313477"/>
     <use style="fill:#fdaf56;stroke:#db7502;stroke-linejoin:miter;stroke-width:0.75;" x="66.310169" xlink:href="#maa1e7a09e6" y="37.725156"/>
     <use style="fill:#fdaf56;stroke:#db7502;stroke-linejoin:miter;stroke-width:0.75;" x="83.814407" xlink:href="#maa1e7a09e6" y="47.923788"/>
     <use style="fill:#fdaf56;stroke:#db7502;stroke-linejoin:miter;stroke-width:0.75;" x="101.318644" xlink:href="#maa1e7a09e6" y="59.486401"/>
     <use style="fill:#fdaf56;stroke:#db7502;stroke-linejoin:miter;stroke-width:0.75;" x="118.822881" xlink:href="#maa1e7a09e6" y="71.297701"/>
     <use style="fill:#fdaf56;stroke:#db7502;stroke-linejoin:miter;stroke-width:0.75;" x="136.327119" xlink:href="#maa1e7a09e6" y="83.325095"/>
     <use style="fill:#fdaf56;stroke:#db7502;stroke-linejoin:miter;stroke-width:0.75;" x="153.831356" xlink:href="#maa1e7a09e6" y="94.905727"/>
     <use style="fill:#fdaf56;stroke:#db7502;stroke-linejoin:miter;stroke-width:0.75;" x="171.335593" xlink:href="#maa1e7a09e6" y="105.381881"/>
     <use style="fill:#fdaf56;stroke:#db7502;stroke-linejoin:miter;stroke-width:0.75;" x="188.839831" xlink:href="#maa1e7a09e6" y="113.581508"/>
     <use style="fill:#fdaf56;stroke:#db7502;stroke-linejoin:miter;stroke-width:0.75;" x="206.344068" xlink:href="#maa1e7a09e6" y="119.854198"/>
     <use style="fill:#fdaf56;stroke:#db7502;stroke-linejoin:miter;stroke-width:0.75;" x="223.848305" xlink:href="#maa1e7a09e6" y="123.931501"/>
    </g>
   </g>
   <g id="patch_3">
    <path d="M 24.3 153 
L 24.3 9 
" style="fill:none;stroke:#000000;stroke-linecap:square;stroke-linejoin:miter;stroke-width:0.8;"/>
   </g>
   <g id="patch_4">
    <path d="M 230.85 153 
L 230.85 9 
" style="fill:none;stroke:#000000;stroke-linecap:square;stroke-linejoin:miter;stroke-width:0.8;"/>
   </g>
   <g id="patch_5">
    <path d="M 24.3 153 
L 230.85 153 
" style="fill:none;stroke:#000000;stroke-linecap:square;stroke-linejoin:miter;stroke-width:0.8;"/>
   </g>
   <g id="patch_6">
    <path d="M 24.3 9 
L 230.85 9 
" style="fill:none;stroke:#000000;stroke-linecap:square;stroke-linejoin:miter;stroke-width:0.8;"/>
   </g>
   <g id="legend_1">
    <g id="line2d_51">
     <path d="M 166.062188 16.859062 
L 178.062188 16.859062 
" style="fill:none;stroke:#114b5f;stroke-dasharray:3.7,1.6;stroke-dashoffset:0;"/>
    </g>
    <g id="line2d_52"/>
    <g id="text_13">
     <!-- VE (3rd order) -->
     <defs>
      <path d="M 28.609375 0 
L 0.78125 72.90625 
L 11.078125 72.90625 
L 34.1875 11.53125 
L 57.328125 72.90625 
L 67.578125 72.90625 
L 39.796875 0 
z
" id="DejaVuSans-56"/>
      <path d="M 9.8125 72.90625 
L 55.90625 72.90625 
L 55.90625 64.59375 
L 19.671875 64.59375 
L 19.671875 43.015625 
L 54.390625 43.015625 
L 54.390625 34.71875 
L 19.671875 34.71875 
L 19.671875 8.296875 
L 56.78125 8.296875 
L 56.78125 0 
L 9.8125 0 
z
" id="DejaVuSans-45"/>
      <path id="DejaVuSans-20"/>
      <path d="M 31 75.875 
Q 24.46875 64.65625 21.28125 53.65625 
Q 18.109375 42.671875 18.109375 31.390625 
Q 18.109375 20.125 21.3125 9.0625 
Q 24.515625 -2 31 -13.1875 
L 23.1875 -13.1875 
Q 15.875 -1.703125 12.234375 9.375 
Q 8.59375 20.453125 8.59375 31.390625 
Q 8.59375 42.28125 12.203125 53.3125 
Q 15.828125 64.359375 23.1875 75.875 
z
" id="DejaVuSans-28"/>
      <path d="M 40.578125 39.3125 
Q 47.65625 37.796875 51.625 33 
Q 55.609375 28.21875 55.609375 21.1875 
Q 55.609375 10.40625 48.1875 4.484375 
Q 40.765625 -1.421875 27.09375 -1.421875 
Q 22.515625 -1.421875 17.65625 -0.515625 
Q 12.796875 0.390625 7.625 2.203125 
L 7.625 11.71875 
Q 11.71875 9.328125 16.59375 8.109375 
Q 21.484375 6.890625 26.8125 6.890625 
Q 36.078125 6.890625 40.9375 10.546875 
Q 45.796875 14.203125 45.796875 21.1875 
Q 45.796875 27.640625 41.28125 31.265625 
Q 36.765625 34.90625 28.71875 34.90625 
L 20.21875 34.90625 
L 20.21875 43.015625 
L 29.109375 43.015625 
Q 36.375 43.015625 40.234375 45.921875 
Q 44.09375 48.828125 44.09375 54.296875 
Q 44.09375 59.90625 40.109375 62.90625 
Q 36.140625 65.921875 28.71875 65.921875 
Q 24.65625 65.921875 20.015625 65.03125 
Q 15.375 64.15625 9.8125 62.3125 
L 9.8125 71.09375 
Q 15.4375 72.65625 20.34375 73.4375 
Q 25.25 74.21875 29.59375 74.21875 
Q 40.828125 74.21875 47.359375 69.109375 
Q 53.90625 64.015625 53.90625 55.328125 
Q 53.90625 49.265625 50.4375 45.09375 
Q 46.96875 40.921875 40.578125 39.3125 
z
" id="DejaVuSans-33"/>
      <path d="M 41.109375 46.296875 
Q 39.59375 47.171875 37.8125 47.578125 
Q 36.03125 48 33.890625 48 
Q 26.265625 48 22.1875 43.046875 
Q 18.109375 38.09375 18.109375 28.8125 
L 18.109375 0 
L 9.078125 0 
L 9.078125 54.6875 
L 18.109375 54.6875 
L 18.109375 46.1875 
Q 20.953125 51.171875 25.484375 53.578125 
Q 30.03125 56 36.53125 56 
Q 37.453125 56 38.578125 55.875 
Q 39.703125 55.765625 41.0625 55.515625 
z
" id="DejaVuSans-72"/>
      <path d="M 45.40625 46.390625 
L 45.40625 75.984375 
L 54.390625 75.984375 
L 54.390625 0 
L 45.40625 0 
L 45.40625 8.203125 
Q 42.578125 3.328125 38.25 0.953125 
Q 33.9375 -1.421875 27.875 -1.421875 
Q 17.96875 -1.421875 11.734375 6.484375 
Q 5.515625 14.40625 5.515625 27.296875 
Q 5.515625 40.1875 11.734375 48.09375 
Q 17.96875 56 27.875 56 
Q 33.9375 56 38.25 53.625 
Q 42.578125 51.265625 45.40625 46.390625 
z
M 14.796875 27.296875 
Q 14.796875 17.390625 18.875 11.75 
Q 22.953125 6.109375 30.078125 6.109375 
Q 37.203125 6.109375 41.296875 11.75 
Q 45.40625 17.390625 45.40625 27.296875 
Q 45.40625 37.203125 41.296875 42.84375 
Q 37.203125 48.484375 30.078125 48.484375 
Q 22.953125 48.484375 18.875 42.84375 
Q 14.796875 37.203125 14.796875 27.296875 
z
" id="DejaVuSans-64"/>
      <path d="M 30.609375 48.390625 
Q 23.390625 48.390625 19.1875 42.75 
Q 14.984375 37.109375 14.984375 27.296875 
Q 14.984375 17.484375 19.15625 11.84375 
Q 23.34375 6.203125 30.609375 6.203125 
Q 37.796875 6.203125 41.984375 11.859375 
Q 46.1875 17.53125 46.1875 27.296875 
Q 46.1875 37.015625 41.984375 42.703125 
Q 37.796875 48.390625 30.609375 48.390625 
z
M 30.609375 56 
Q 42.328125 56 49.015625 48.375 
Q 55.71875 40.765625 55.71875 27.296875 
Q 55.71875 13.875 49.015625 6.21875 
Q 42.328125 -1.421875 30.609375 -1.421875 
Q 18.84375 -1.421875 12.171875 6.21875 
Q 5.515625 13.875 5.515625 27.296875 
Q 5.515625 40.765625 12.171875 48.375 
Q 18.84375 56 30.609375 56 
z
" id="DejaVuSans-6f"/>
      <path d="M 56.203125 29.59375 
L 56.203125 25.203125 
L 14.890625 25.203125 
Q 15.484375 15.921875 20.484375 11.0625 
Q 25.484375 6.203125 34.421875 6.203125 
Q 39.59375 6.203125 44.453125 7.46875 
Q 49.3125 8.734375 54.109375 11.28125 
L 54.109375 2.78125 
Q 49.265625 0.734375 44.1875 -0.34375 
Q 39.109375 -1.421875 33.890625 -1.421875 
Q 20.796875 -1.421875 13.15625 6.1875 
Q 5.515625 13.8125 5.515625 26.8125 
Q 5.515625 40.234375 12.765625 48.109375 
Q 20.015625 56 32.328125 56 
Q 43.359375 56 49.78125 48.890625 
Q 56.203125 41.796875 56.203125 29.59375 
z
M 47.21875 32.234375 
Q 47.125 39.59375 43.09375 43.984375 
Q 39.0625 48.390625 32.421875 48.390625 
Q 24.90625 48.390625 20.390625 44.140625 
Q 15.875 39.890625 15.1875 32.171875 
z
" id="DejaVuSans-65"/>
      <path d="M 8.015625 75.875 
L 15.828125 75.875 
Q 23.140625 64.359375 26.78125 53.3125 
Q 30.421875 42.28125 30.421875 31.390625 
Q 30.421875 20.453125 26.78125 9.375 
Q 23.140625 -1.703125 15.828125 -13.1875 
L 8.015625 -13.1875 
Q 14.5 -2 17.703125 9.0625 
Q 20.90625 20.125 20.90625 31.390625 
Q 20.90625 42.671875 17.703125 53.65625 
Q 14.5 64.65625 8.015625 75.875 
z
" id="DejaVuSans-29"/>
     </defs>
     <g transform="translate(182.862188 18.959062)scale(0.06 -0.06)">
      <use xlink:href="#DejaVuSans-56"/>
      <use x="68.408203" xlink:href="#DejaVuSans-45"/>
      <use x="131.591797" xlink:href="#DejaVuSans-20"/>
      <use x="163.378906" xlink:href="#DejaVuSans-28"/>
      <use x="202.392578" xlink:href="#DejaVuSans-33"/>
      <use x="266.015625" xlink:href="#DejaVuSans-72"/>
      <use x="307.113281" xlink:href="#DejaVuSans-64"/>
      <use x="370.589844" xlink:href="#DejaVuSans-20"/>
      <use x="402.376953" xlink:href="#DejaVuSans-6f"/>
      <use x="463.558594" xlink:href="#DejaVuSans-72"/>
      <use x="504.65625" xlink:href="#DejaVuSans-64"/>
      <use x="568.132812" xlink:href="#DejaVuSans-65"/>
      <use x="629.65625" xlink:href="#DejaVuSans-72"/>
      <use x="670.769531" xlink:href="#DejaVuSans-29"/>
     </g>
    </g>
    <g id="LineCollection_6">
     <path d="M 172.062188 28.665938 
L 172.062188 22.665938 
" style="fill:none;stroke:#db7502;"/>
    </g>
    <g id="line2d_53"/>
    <g id="line2d_54">
     <g>
      <use style="fill:#fdaf56;stroke:#db7502;stroke-linejoin:miter;stroke-width:0.75;" x="172.062188" xlink:href="#maa1e7a09e6" y="25.665938"/>
     </g>
    </g>
    <g id="text_14">
     <!-- $\beta h = 2.0$ -->
     <defs>
      <path d="M 31.09375 67.90625 
L 24.203125 40.5 
Q 28.59375 44 32.25 45.140625 
Q 35.90625 46.296875 40.5 46.296875 
Q 45.40625 46.296875 48.203125 43.796875 
Q 51 41.296875 51 36.59375 
Q 51 34.5 50.40625 32.09375 
L 42.40625 0 
L 34.5 0 
L 42 30.40625 
Q 42.5 32.59375 42.5 33.796875 
Q 42.5 39.203125 36 39.203125 
Q 33.09375 39.203125 28.640625 36.703125 
Q 24.203125 34.203125 21.703125 30.203125 
L 14.203125 0 
L 6.296875 0 
L 22.703125 66 
L 30.296875 68.40625 
z
" id="STIXGeneral-Italic-1d629"/>
      <path d="M 63.703125 32 
L 4.796875 32 
L 4.796875 38.59375 
L 63.703125 38.59375 
z
M 63.703125 12 
L 4.796875 12 
L 4.796875 18.59375 
L 63.703125 18.59375 
z
" id="STIXGeneral-Regular-3d"/>
      <path d="M 18.09375 4.296875 
Q 18.09375 2.09375 16.4375 0.5 
Q 14.796875 -1.09375 12.5 -1.09375 
Q 10.203125 -1.09375 8.59375 0.5 
Q 7 2.09375 7 4.390625 
Q 7 6.703125 8.640625 8.34375 
Q 10.296875 10 12.59375 10 
Q 14.796875 10 16.4375 8.296875 
Q 18.09375 6.59375 18.09375 4.296875 
z
" id="STIXGeneral-Regular-2e"/>
     </defs>
     <g transform="translate(182.862188 27.765938)scale(0.06 -0.06)">
      <use transform="translate(0 0.59375)" xlink:href="#STIXNonUnicode-Italic-e1d9"/>
      <use transform="translate(53.499985 0.59375)" xlink:href="#STIXGeneral-Italic-1d629"/>
      <use transform="translate(117.31998 0.59375)" xlink:href="#STIXGeneral-Regular-3d"/>
      <use transform="translate(200.939963 0.59375)" xlink:href="#STIXGeneral-Regular-1d7e4"/>
      <use transform="translate(250.939948 0.59375)" xlink:href="#STIXGeneral-Regular-2e"/>
      <use transform="translate(275.939932 0.59375)" xlink:href="#STIXGeneral-Regular-1d7e2"/>
     </g>
    </g>
    <g id="LineCollection_7">
     <path d="M 172.062188 37.545 
L 172.062188 31.545 
" style="fill:none;stroke:#eca300;"/>
    </g>
    <g id="line2d_55"/>
    <g id="line2d_56">
     <g>
      <use style="fill:#ffca53;stroke:#eca300;stroke-linejoin:miter;stroke-width:0.75;" x="172.062188" xlink:href="#mc4576670fa" y="34.545"/>
     </g>
    </g>
    <g id="text_15">
     <!-- $\beta h = 1.6$ -->
     <defs>
      <path d="M 44.796875 66.796875 
L 43 61.5 
Q 31.59375 60.703125 23.640625 54.953125 
Q 15.703125 49.203125 12.203125 38.796875 
Q 18.09375 43.09375 25.90625 43.09375 
Q 34.5 43.09375 40.75 37.296875 
Q 47 31.5 47 22 
Q 47 12.296875 40.953125 5.4375 
Q 34.90625 -1.40625 25.703125 -1.40625 
Q 18 -1.40625 12.75 2.640625 
Q 7.5 6.703125 5.34375 12.75 
Q 3.203125 18.796875 3.203125 26.40625 
Q 3.203125 34.90625 6.203125 43.046875 
Q 9.203125 51.203125 14.296875 56.203125 
Q 21 62.796875 27.09375 65.046875 
Q 33.203125 67.296875 44.703125 68.40625 
z
M 39 20.703125 
Q 39 27.90625 34.890625 31.953125 
Q 30.796875 36 25.09375 36 
Q 19.90625 36 16 32.953125 
Q 12.09375 29.90625 11.203125 24 
Q 11.203125 15.90625 15.203125 10.796875 
Q 19.203125 5.703125 26 5.703125 
Q 31.5 5.703125 35.25 9.953125 
Q 39 14.203125 39 20.703125 
z
" id="STIXGeneral-Regular-1d7e8"/>
     </defs>
     <g transform="translate(182.862188 36.645)scale(0.06 -0.06)">
      <use transform="translate(0 0.59375)" xlink:href="#STIXNonUnicode-Italic-e1d9"/>
      <use transform="translate(53.499985 0.59375)" xlink:href="#STIXGeneral-Italic-1d629"/>
      <use transform="translate(117.31998 0.59375)" xlink:href="#STIXGeneral-Regular-3d"/>
      <use transform="translate(200.939963 0.59375)" xlink:href="#STIXGeneral-Regular-1d7e3"/>
      <use transform="translate(250.939948 0.59375)" xlink:href="#STIXGeneral-Regular-2e"/>
      <use transform="translate(275.939932 0.59375)" xlink:href="#STIXGeneral-Regular-1d7e8"/>
     </g>
    </g>
    <g id="LineCollection_8">
     <path d="M 172.062188 46.424062 
L 172.062188 40.424062 
" style="fill:none;stroke:#d7b501;"/>
    </g>
    <g id="line2d_57"/>
    <g id="line2d_58">
     <g>
      <use style="fill:#feda1e;stroke:#d7b501;stroke-linejoin:miter;stroke-width:0.75;" x="172.062188" xlink:href="#m9796307cf3" y="43.424062"/>
     </g>
    </g>
    <g id="text_16">
     <!-- $\beta h = 1.2$ -->
     <g transform="translate(182.862188 45.524062)scale(0.06 -0.06)">
      <use transform="translate(0 0.59375)" xlink:href="#STIXNonUnicode-Italic-e1d9"/>
      <use transform="translate(53.499985 0.59375)" xlink:href="#STIXGeneral-Italic-1d629"/>
      <use transform="translate(117.31998 0.59375)" xlink:href="#STIXGeneral-Regular-3d"/>
      <use transform="translate(200.939963 0.59375)" xlink:href="#STIXGeneral-Regular-1d7e3"/>
      <use transform="translate(250.939948 0.59375)" xlink:href="#STIXGeneral-Regular-2e"/>
      <use transform="translate(275.939932 0.59375)" xlink:href="#STIXGeneral-Regular-1d7e4"/>
     </g>
    </g>
    <g id="LineCollection_9">
     <path d="M 172.062188 55.303125 
L 172.062188 49.303125 
" style="fill:none;stroke:#5f9049;"/>
    </g>
    <g id="line2d_59"/>
    <g id="line2d_60">
     <g>
      <use style="fill:#8ab975;stroke:#5f9049;stroke-linejoin:miter;stroke-width:0.75;" x="172.062188" xlink:href="#mfdcdd9a2a9" y="52.303125"/>
     </g>
    </g>
    <g id="text_17">
     <!-- $\beta h = 0.8$ -->
     <defs>
      <path d="M 44.703125 16.09375 
Q 44.703125 8.796875 39.390625 3.6875 
Q 34.09375 -1.40625 24.796875 -1.40625 
Q 16.296875 -1.40625 10.59375 3.4375 
Q 4.90625 8.296875 4.90625 15.40625 
Q 4.90625 20.796875 7.75 25.25 
Q 10.59375 29.703125 17.703125 34.5 
Q 6 41.40625 6 51.40625 
Q 6 58.59375 11.546875 63.09375 
Q 17.09375 67.59375 25.59375 67.59375 
Q 32.90625 67.59375 37.796875 62.84375 
Q 42.703125 58.09375 42.703125 52 
Q 42.703125 46.40625 40.09375 42.703125 
Q 37.5 39 31.09375 35.296875 
Q 44.703125 27 44.703125 16.09375 
z
M 35.5 51.5 
Q 35.5 55.5 32.390625 58 
Q 29.296875 60.5 24.40625 60.5 
Q 19.796875 60.5 16.84375 57.84375 
Q 13.90625 55.203125 13.90625 51.796875 
Q 13.90625 47.5 16.34375 44.84375 
Q 18.796875 42.203125 24.90625 39.40625 
Q 35.5 45.203125 35.5 51.5 
z
M 27.59375 28.59375 
L 24.09375 30.5 
Q 18.90625 28.703125 15.84375 24.640625 
Q 12.796875 20.59375 12.796875 16.296875 
Q 12.796875 11.796875 16 8.75 
Q 19.203125 5.703125 25.203125 5.703125 
Q 29.796875 5.703125 33.296875 8.453125 
Q 36.796875 11.203125 36.796875 15.796875 
Q 36.796875 20 34.6875 22.953125 
Q 32.59375 25.90625 27.59375 28.59375 
z
" id="STIXGeneral-Regular-1d7ea"/>
     </defs>
     <g transform="translate(182.862188 54.403125)scale(0.06 -0.06)">
      <use transform="translate(0 0.59375)" xlink:href="#STIXNonUnicode-Italic-e1d9"/>
      <use transform="translate(53.499985 0.59375)" xlink:href="#STIXGeneral-Italic-1d629"/>
      <use transform="translate(117.31998 0.59375)" xlink:href="#STIXGeneral-Regular-3d"/>
      <use transform="translate(200.939963 0.59375)" xlink:href="#STIXGeneral-Regular-1d7e2"/>
      <use transform="translate(250.939948 0.59375)" xlink:href="#STIXGeneral-Regular-2e"/>
      <use transform="translate(275.939932 0.59375)" xlink:href="#STIXGeneral-Regular-1d7ea"/>
     </g>
    </g>
    <g id="LineCollection_10">
     <path d="M 172.062188 64.182187 
L 172.062188 58.182187 
" style="fill:none;stroke:#114b5f;"/>
    </g>
    <g id="line2d_61"/>
    <g id="line2d_62">
     <g>
      <use style="fill:#2faeda;stroke:#114b5f;stroke-linejoin:miter;stroke-width:0.75;" x="172.062188" xlink:href="#m96d9581ddb" y="61.182187"/>
     </g>
    </g>
    <g id="text_18">
     <!-- $\beta h = 0.4$ -->
     <defs>
      <path d="M 48.90625 23.59375 
L 45.59375 16.5 
L 37.296875 16.5 
L 37.296875 0 
L 29.40625 0 
L 29.40625 16.5 
L 1.09375 16.5 
L 1.09375 23.296875 
L 32.296875 67.59375 
L 37.296875 67.59375 
L 37.296875 23.59375 
z
M 29.40625 23.59375 
L 29.40625 51 
L 10 23.59375 
z
" id="STIXGeneral-Regular-1d7e6"/>
     </defs>
     <g transform="translate(182.862188 63.282187)scale(0.06 -0.06)">
      <use transform="translate(0 0.59375)" xlink:href="#STIXNonUnicode-Italic-e1d9"/>
      <use transform="translate(53.499985 0.59375)" xlink:href="#STIXGeneral-Italic-1d629"/>
      <use transform="translate(117.31998 0.59375)" xlink:href="#STIXGeneral-Regular-3d"/>
      <use transform="translate(200.939963 0.59375)" xlink:href="#STIXGeneral-Regular-1d7e2"/>
      <use transform="translate(250.939948 0.59375)" xlink:href="#STIXGeneral-Regular-2e"/>
      <use transform="translate(275.939932 0.59375)" xlink:href="#STIXGeneral-Regular-1d7e6"/>
     </g>
    </g>
   </g>
  </g>
 </g>
 <defs>
  <clipPath id="pe7dcd1fb6e">
   <rect height="144" width="206.55" x="24.3" y="9"/>
  </clipPath>
 </defs>
</svg>
