<?xml version="1.0" encoding="utf-8" standalone="no"?>
<!DOCTYPE svg PUBLIC "-//W3C//DTD SVG 1.1//EN"
  "http://www.w3.org/Graphics/SVG/1.1/DTD/svg11.dtd">
<!-- Created with matplotlib (https://matplotlib.org/) -->
<svg height="180pt" version="1.1" viewBox="0 0 243 180" width="243pt" xmlns="http://www.w3.org/2000/svg" xmlns:xlink="http://www.w3.org/1999/xlink">
 <defs>
  <style type="text/css">
*{stroke-linecap:butt;stroke-linejoin:round;}
  </style>
 </defs>
 <g id="figure_1">
  <g id="patch_1">
   <path d="M 0 180 
L 243 180 
L 243 0 
L 0 0 
z
" style="fill:#ffffff;"/>
  </g>
  <g id="axes_1">
   <g id="patch_2">
    <path d="M 36.45 147.6 
L 236.925 147.6 
L 236.925 4.5 
L 36.45 4.5 
z
" style="fill:#ffffff;"/>
   </g>
   <g id="PolyCollection_1">
    <path clip-path="url(#pe508790982)" d="M 36.45 -424.8 
L 36.45 147.6 
L 53.189662 147.6 
L 53.189662 -424.8 
L 53.189662 -424.8 
L 36.45 -424.8 
z
" style="fill:#dddddd;"/>
   </g>
   <g id="PolyCollection_2">
    <path clip-path="url(#pe508790982)" d="M 627.462855 51.89994 
L 627.462855 46.17594 
L 611.798305 51.230828 
L 597.051221 55.311513 
L 583.062351 58.475156 
L 569.700609 60.790129 
L 556.857957 62.33631 
L 544.445474 63.203345 
L 532.39028 63.487554 
L 520.633093 63.288183 
L 509.126233 62.703606 
L 497.831973 61.827924 
L 486.721136 60.748245 
L 475.771886 59.542754 
L 464.968662 58.279581 
L 454.301227 57.016353 
L 443.7669 55.928932 
L 433.388305 55.270381 
L 423.194508 54.975976 
L 413.209029 54.982526 
L 403.450386 55.236833 
L 393.932687 55.694022 
L 384.666199 56.316196 
L 375.657872 57.071339 
L 366.911826 57.932403 
L 358.429787 58.876555 
L 350.211474 59.884542 
L 342.254949 60.940153 
L 334.556918 62.029767 
L 327.112991 63.141969 
L 319.917071 64.192853 
L 312.949268 64.865393 
L 306.182153 65.180724 
L 299.592915 65.201601 
L 293.162992 64.987131 
L 286.877435 64.591857 
L 280.724361 64.065118 
L 274.694491 63.450673 
L 268.780734 62.786577 
L 262.977835 62.105252 
L 257.282056 61.433729 
L 251.6909 60.794005 
L 246.202866 60.203467 
L 240.817235 59.675377 
L 235.533875 59.2183 
L 230.352816 58.827962 
L 225.274074 58.508406 
L 220.297972 58.264551 
L 215.425048 58.098903 
L 210.655954 58.011973 
L 205.991366 58.002648 
L 201.431915 58.068523 
L 196.978134 58.206196 
L 192.630415 58.411516 
L 188.388974 58.679802 
L 184.253835 59.006026 
L 180.224814 59.38496 
L 176.301518 59.811308 
L 172.483339 60.279732 
L 168.769412 60.781315 
L 165.158558 61.309892 
L 161.64944 61.861899 
L 158.240592 62.433826 
L 154.930427 63.022265 
L 151.717244 63.623943 
L 148.599243 64.235755 
L 145.574531 64.854777 
L 142.641139 65.478279 
L 139.797031 66.103735 
L 137.040116 66.728817 
L 134.368261 67.3514 
L 131.7793 67.969556 
L 129.271047 68.581545 
L 126.841023 69.144124 
L 124.485522 69.612539 
L 122.200853 70.002125 
L 119.983758 70.326595 
L 117.831341 70.597924 
L 115.741014 70.8265 
L 113.710447 71.021272 
L 111.73753 71.189892 
L 109.820334 71.338849 
L 107.957088 71.473593 
L 106.146148 71.59866 
L 104.38598 71.717775 
L 102.675139 71.833956 
L 101.012259 71.949606 
L 99.396106 72.088219 
L 97.826135 72.303152 
L 96.302016 72.584694 
L 94.823238 72.921178 
L 93.389128 73.302455 
L 91.998888 73.719704 
L 90.651614 74.16527 
L 89.346324 74.632516 
L 88.081971 75.1157 
L 86.857464 75.609861 
L 85.671681 76.110722 
L 84.523478 76.614605 
L 83.411706 77.118358 
L 82.335211 77.619285 
L 81.292859 78.124429 
L 80.283791 78.684299 
L 79.307359 79.298188 
L 78.362835 79.957154 
L 77.449428 80.653577 
L 76.566297 81.380979 
L 75.712564 82.133865 
L 74.88733 82.907593 
L 74.089685 83.698256 
L 73.318714 84.502585 
L 72.573506 85.317863 
L 71.853158 86.141849 
L 71.156783 86.972717 
L 70.48351 87.809003 
L 69.832486 88.64802 
L 69.202834 89.463186 
L 68.593625 90.246428 
L 68.003969 90.999366 
L 67.433026 91.723535 
L 66.879996 92.420386 
L 66.344122 93.091297 
L 65.824686 93.737571 
L 65.321006 94.360444 
L 64.832436 94.961088 
L 64.358361 95.540614 
L 63.898197 96.100077 
L 63.451389 96.64048 
L 63.01741 97.162773 
L 62.595757 97.667501 
L 62.185893 98.07718 
L 61.787122 98.33795 
L 61.398772 98.457574 
L 61.020227 98.443767 
L 60.650926 98.304186 
L 60.290353 98.046416 
L 59.938038 97.67795 
L 59.593545 97.206177 
L 59.25648 96.63836 
L 58.926476 95.981617 
L 58.603197 95.242906 
L 58.286335 94.429007 
L 57.975605 93.546503 
L 57.670745 92.601775 
L 57.371518 91.611027 
L 57.077727 90.595852 
L 56.789201 89.559896 
L 56.505775 88.506341 
L 56.227298 87.438192 
L 55.953628 86.358283 
L 55.684628 85.269277 
L 55.420173 84.173672 
L 55.160144 83.073808 
L 54.904427 81.971866 
L 54.652915 80.869878 
L 54.405509 79.769731 
L 54.162111 78.673172 
L 53.922632 77.581811 
L 53.68699 76.522334 
L 53.455178 75.58013 
L 53.227229 74.753978 
L 53.003166 74.035395 
L 52.783001 73.416593 
L 52.566734 72.890416 
L 52.35436 72.450289 
L 52.145863 72.09017 
L 51.941222 71.804503 
L 51.740409 71.588179 
L 51.543391 71.436503 
L 51.35013 71.345158 
L 51.160585 71.310175 
L 50.974708 71.327905 
L 50.792453 71.41538 
L 50.613842 71.730841 
L 50.438967 72.297781 
L 50.267904 73.105296 
L 50.100713 74.144833 
L 49.937437 75.410048 
L 49.778102 76.89668 
L 49.622725 78.602477 
L 49.47131 80.527135 
L 49.323852 82.672275 
L 49.180338 85.041445 
L 49.040745 87.64015 
L 48.905048 90.47591 
L 48.773214 93.558351 
L 48.645208 96.89032 
L 48.52094 100.220123 
L 48.400224 103.428511 
L 48.282872 106.515632 
L 48.168709 109.481435 
L 48.057571 112.325699 
L 47.949303 115.048071 
L 47.843762 117.64809 
L 47.740813 120.12522 
L 47.640328 122.478873 
L 47.542188 124.708431 
L 47.44628 126.813275 
L 47.352498 128.7928 
L 47.260742 130.646435 
L 47.170919 132.373665 
L 47.170919 138.097665 
L 47.170919 138.097665 
L 47.260742 136.370435 
L 47.352498 134.5168 
L 47.44628 132.537275 
L 47.542188 130.432431 
L 47.640328 128.202873 
L 47.740813 125.84922 
L 47.843762 123.37209 
L 47.949303 120.772071 
L 48.057571 118.049699 
L 48.168709 115.205435 
L 48.282872 112.239632 
L 48.400224 109.152511 
L 48.52094 105.944123 
L 48.645208 102.61432 
L 48.773214 99.282351 
L 48.905048 96.19991 
L 49.040745 93.36415 
L 49.180338 90.765445 
L 49.323852 88.396275 
L 49.47131 86.251135 
L 49.622725 84.326477 
L 49.778102 82.62068 
L 49.937437 81.134048 
L 50.100713 79.868833 
L 50.267904 78.829296 
L 50.438967 78.021781 
L 50.613842 77.454841 
L 50.792453 77.13938 
L 50.974708 77.051905 
L 51.160585 77.034175 
L 51.35013 77.069158 
L 51.543391 77.160503 
L 51.740409 77.312179 
L 51.941222 77.528503 
L 52.145863 77.81417 
L 52.35436 78.174289 
L 52.566734 78.614416 
L 52.783001 79.140593 
L 53.003166 79.759395 
L 53.227229 80.477978 
L 53.455178 81.30413 
L 53.68699 82.246334 
L 53.922632 83.305811 
L 54.162111 84.397172 
L 54.405509 85.493731 
L 54.652915 86.593878 
L 54.904427 87.695866 
L 55.160144 88.797808 
L 55.420173 89.897672 
L 55.684628 90.993277 
L 55.953628 92.082283 
L 56.227298 93.162192 
L 56.505775 94.230341 
L 56.789201 95.283896 
L 57.077727 96.319852 
L 57.371518 97.335027 
L 57.670745 98.325775 
L 57.975605 99.270503 
L 58.286335 100.153007 
L 58.603197 100.966906 
L 58.926476 101.705617 
L 59.25648 102.36236 
L 59.593545 102.930177 
L 59.938038 103.40195 
L 60.290353 103.770416 
L 60.650926 104.028186 
L 61.020227 104.167767 
L 61.398772 104.181574 
L 61.787122 104.06195 
L 62.185893 103.80118 
L 62.595757 103.391501 
L 63.01741 102.886773 
L 63.451389 102.36448 
L 63.898197 101.824077 
L 64.358361 101.264614 
L 64.832436 100.685088 
L 65.321006 100.084444 
L 65.824686 99.461571 
L 66.344122 98.815297 
L 66.879996 98.144386 
L 67.433026 97.447535 
L 68.003969 96.723366 
L 68.593625 95.970428 
L 69.202834 95.187186 
L 69.832486 94.37202 
L 70.48351 93.533003 
L 71.156783 92.696717 
L 71.853158 91.865849 
L 72.573506 91.041863 
L 73.318714 90.226585 
L 74.089685 89.422256 
L 74.88733 88.631593 
L 75.712564 87.857865 
L 76.566297 87.104979 
L 77.449428 86.377577 
L 78.362835 85.681154 
L 79.307359 85.022188 
L 80.283791 84.408299 
L 81.292859 83.848429 
L 82.335211 83.343285 
L 83.411706 82.842358 
L 84.523478 82.338605 
L 85.671681 81.834722 
L 86.857464 81.333861 
L 88.081971 80.8397 
L 89.346324 80.356516 
L 90.651614 79.88927 
L 91.998888 79.443704 
L 93.389128 79.026455 
L 94.823238 78.645178 
L 96.302016 78.308694 
L 97.826135 78.027152 
L 99.396106 77.812219 
L 101.012259 77.673606 
L 102.675139 77.557956 
L 104.38598 77.441775 
L 106.146148 77.32266 
L 107.957088 77.197593 
L 109.820334 77.062849 
L 111.73753 76.913892 
L 113.710447 76.745272 
L 115.741014 76.5505 
L 117.831341 76.321924 
L 119.983758 76.050595 
L 122.200853 75.726125 
L 124.485522 75.336539 
L 126.841023 74.868124 
L 129.271047 74.305545 
L 131.7793 73.693556 
L 134.368261 73.0754 
L 137.040116 72.452817 
L 139.797031 71.827735 
L 142.641139 71.202279 
L 145.574531 70.578777 
L 148.599243 69.959755 
L 151.717244 69.347943 
L 154.930427 68.746265 
L 158.240592 68.157826 
L 161.64944 67.585899 
L 165.158558 67.033892 
L 168.769412 66.505315 
L 172.483339 66.003732 
L 176.301518 65.535308 
L 180.224814 65.10896 
L 184.253835 64.730026 
L 188.388974 64.403802 
L 192.630415 64.135516 
L 196.978134 63.930196 
L 201.431915 63.792523 
L 205.991366 63.726648 
L 210.655954 63.735973 
L 215.425048 63.822903 
L 220.297972 63.988551 
L 225.274074 64.232406 
L 230.352816 64.551962 
L 235.533875 64.9423 
L 240.817235 65.399377 
L 246.202866 65.927467 
L 251.6909 66.518005 
L 257.282056 67.157729 
L 262.977835 67.829252 
L 268.780734 68.510577 
L 274.694491 69.174673 
L 280.724361 69.789118 
L 286.877435 70.315857 
L 293.162992 70.711131 
L 299.592915 70.925601 
L 306.182153 70.904724 
L 312.949268 70.589393 
L 319.917071 69.916853 
L 327.112991 68.865969 
L 334.556918 67.753767 
L 342.254949 66.664153 
L 350.211474 65.608542 
L 358.429787 64.600555 
L 366.911826 63.656403 
L 375.657872 62.795339 
L 384.666199 62.040196 
L 393.932687 61.418022 
L 403.450386 60.960833 
L 413.209029 60.706526 
L 423.194508 60.699976 
L 433.388305 60.994381 
L 443.7669 61.652932 
L 454.301227 62.740353 
L 464.968662 64.003581 
L 475.771886 65.266754 
L 486.721136 66.472245 
L 497.831973 67.551924 
L 509.126233 68.427606 
L 520.633093 69.012183 
L 532.39028 69.211554 
L 544.445474 68.927345 
L 556.857957 68.06031 
L 569.700609 66.514129 
L 583.062351 64.199156 
L 597.051221 61.035513 
L 611.798305 56.954828 
L 627.462855 51.89994 
z
" style="fill:#114b5f;fill-opacity:0.5;"/>
   </g>
   <g id="LineCollection_1">
    <path clip-path="url(#pe508790982)" d="M 164.202857 67.345186 
L 164.202857 58.082172 
" style="fill:none;stroke:#a42604;"/>
    <path clip-path="url(#pe508790982)" d="M 155.9925 68.486072 
L 155.9925 59.900403 
" style="fill:none;stroke:#a42604;"/>
    <path clip-path="url(#pe508790982)" d="M 147.500156 69.947547 
L 147.500156 61.361547 
" style="fill:none;stroke:#a42604;"/>
    <path clip-path="url(#pe508790982)" d="M 141.606563 70.684247 
L 141.606563 61.740166 
" style="fill:none;stroke:#a42604;"/>
    <path clip-path="url(#pe508790982)" d="M 138.265312 69.443881 
L 138.265312 60.500131 
" style="fill:none;stroke:#a42604;"/>
    <path clip-path="url(#pe508790982)" d="M 134.877656 71.244887 
L 134.877656 63.374056 
" style="fill:none;stroke:#a42604;"/>
    <path clip-path="url(#pe508790982)" d="M 131.397187 73.224769 
L 131.397187 65.354269 
" style="fill:none;stroke:#a42604;"/>
    <path clip-path="url(#pe508790982)" d="M 127.7775 73.595438 
L 127.7775 65.367188 
" style="fill:none;stroke:#a42604;"/>
    <path clip-path="url(#pe508790982)" d="M 124.250625 76.291316 
L 124.250625 68.062734 
" style="fill:none;stroke:#a42604;"/>
    <path clip-path="url(#pe508790982)" d="M 120.445313 80.776441 
L 120.445313 71.833022 
" style="fill:none;stroke:#a42604;"/>
    <path clip-path="url(#pe508790982)" d="M 116.500781 80.790684 
L 116.500781 71.846934 
" style="fill:none;stroke:#a42604;"/>
    <path clip-path="url(#pe508790982)" d="M 112.649063 80.804431 
L 112.649063 72.576181 
" style="fill:none;stroke:#a42604;"/>
    <path clip-path="url(#pe508790982)" d="M 108.704531 81.534009 
L 108.704531 71.874759 
" style="fill:none;stroke:#a42604;"/>
    <path clip-path="url(#pe508790982)" d="M 104.806406 78.328337 
L 104.806406 69.742006 
" style="fill:none;stroke:#a42604;"/>
    <path clip-path="url(#pe508790982)" d="M 100.861875 80.48875 
L 100.861875 71.18725 
" style="fill:none;stroke:#a42604;"/>
    <path clip-path="url(#pe508790982)" d="M 98.402344 82.644028 
L 98.402344 73.700278 
" style="fill:none;stroke:#a42604;"/>
    <path clip-path="url(#pe508790982)" d="M 95.803594 85.157553 
L 95.803594 76.929303 
" style="fill:none;stroke:#a42604;"/>
    <path clip-path="url(#pe508790982)" d="M 93.204844 84.988119 
L 93.204844 76.759538 
" style="fill:none;stroke:#a42604;"/>
    <path clip-path="url(#pe508790982)" d="M 90.6525 83.923813 
L 90.6525 76.053313 
" style="fill:none;stroke:#a42604;"/>
    <path clip-path="url(#pe508790982)" d="M 88.100156 85.900712 
L 88.100156 77.672131 
" style="fill:none;stroke:#a42604;"/>
    <path clip-path="url(#pe508790982)" d="M 85.455 86.983237 
L 85.455 78.754987 
" style="fill:none;stroke:#a42604;"/>
    <path clip-path="url(#pe508790982)" d="M 82.763437 88.423844 
L 82.763437 79.122344 
" style="fill:none;stroke:#a42604;"/>
    <path clip-path="url(#pe508790982)" d="M 79.14375 91.298763 
L 79.14375 80.924013 
" style="fill:none;stroke:#a42604;"/>
    <path clip-path="url(#pe508790982)" d="M 76.91625 89.160213 
L 76.91625 78.069963 
" style="fill:none;stroke:#a42604;"/>
    <path clip-path="url(#pe508790982)" d="M 74.781562 88.810081 
L 74.781562 78.793081 
" style="fill:none;stroke:#a42604;"/>
    <path clip-path="url(#pe508790982)" d="M 72.554063 88.460281 
L 72.554063 78.801031 
" style="fill:none;stroke:#a42604;"/>
    <path clip-path="url(#pe508790982)" d="M 70.372969 89.004856 
L 70.372969 77.914275 
" style="fill:none;stroke:#a42604;"/>
    <path clip-path="url(#pe508790982)" d="M 69.8625 89.185388 
L 69.8625 77.737388 
" style="fill:none;stroke:#a42604;"/>
    <path clip-path="url(#pe508790982)" d="M 68.795156 85.969612 
L 68.795156 75.236781 
" style="fill:none;stroke:#a42604;"/>
    <path clip-path="url(#pe508790982)" d="M 67.727812 91.339506 
L 67.727812 79.176006 
" style="fill:none;stroke:#a42604;"/>
    <path clip-path="url(#pe508790982)" d="M 66.614062 89.912481 
L 66.614062 77.391231 
" style="fill:none;stroke:#a42604;"/>
    <path clip-path="url(#pe508790982)" d="M 65.546719 92.241666 
L 65.546719 79.720416 
" style="fill:none;stroke:#a42604;"/>
    <path clip-path="url(#pe508790982)" d="M 64.386562 96.181056 
L 64.386562 83.659806 
" style="fill:none;stroke:#a42604;"/>
    <path clip-path="url(#pe508790982)" d="M 63.272813 87.599031 
L 63.272813 75.077781 
" style="fill:none;stroke:#a42604;"/>
    <path clip-path="url(#pe508790982)" d="M 62.205469 90.464675 
L 62.205469 76.870506 
" style="fill:none;stroke:#a42604;"/>
    <path clip-path="url(#pe508790982)" d="M 61.091719 96.371525 
L 61.091719 82.419606 
" style="fill:none;stroke:#a42604;"/>
    <path clip-path="url(#pe508790982)" d="M 60.627656 100.666347 
L 60.627656 87.071847 
" style="fill:none;stroke:#a42604;"/>
    <path clip-path="url(#pe508790982)" d="M 59.745937 92.262203 
L 59.745937 78.668034 
" style="fill:none;stroke:#a42604;"/>
    <path clip-path="url(#pe508790982)" d="M 58.864219 91.371141 
L 58.864219 76.345641 
" style="fill:none;stroke:#a42604;"/>
    <path clip-path="url(#pe508790982)" d="M 58.028906 96.382622 
L 58.028906 77.421872 
" style="fill:none;stroke:#a42604;"/>
    <path clip-path="url(#pe508790982)" d="M 57.24 83.148687 
L 57.24 66.692187 
" style="fill:none;stroke:#a42604;"/>
    <path clip-path="url(#pe508790982)" d="M 56.590312 84.224256 
L 56.590312 67.410006 
" style="fill:none;stroke:#a42604;"/>
    <path clip-path="url(#pe508790982)" d="M 55.801406 88.162488 
L 55.801406 70.632406 
" style="fill:none;stroke:#a42604;"/>
    <path clip-path="url(#pe508790982)" d="M 54.966094 94.604638 
L 54.966094 77.432969 
" style="fill:none;stroke:#a42604;"/>
    <path clip-path="url(#pe508790982)" d="M 54.27 87.630831 
L 54.27 69.743994 
" style="fill:none;stroke:#a42604;"/>
    <path clip-path="url(#pe508790982)" d="M 53.805937 93.714569 
L 53.805937 76.542569 
" style="fill:none;stroke:#a42604;"/>
    <path clip-path="url(#pe508790982)" d="M 53.388281 83.877437 
L 53.388281 65.990931 
" style="fill:none;stroke:#a42604;"/>
    <path clip-path="url(#pe508790982)" d="M 53.017031 75.113887 
L 53.017031 57.227381 
" style="fill:none;stroke:#a42604;"/>
    <path clip-path="url(#pe508790982)" d="M 52.460156 67.067162 
L 52.460156 49.537081 
" style="fill:none;stroke:#a42604;"/>
    <path clip-path="url(#pe508790982)" d="M 52.088906 54.725781 
L 52.088906 37.911863 
" style="fill:none;stroke:#a42604;"/>
    <path clip-path="url(#pe508790982)" d="M 51.810469 42.921191 
L 51.810469 25.033691 
" style="fill:none;stroke:#a42604;"/>
    <path clip-path="url(#pe508790982)" d="M 51.3 49.183969 
L 51.3 16.628056 
" style="fill:none;stroke:#a42604;"/>
    <path clip-path="url(#pe508790982)" d="M 50.835937 43.461294 
L 50.835937 27.004794 
" style="fill:none;stroke:#a42604;"/>
    <path clip-path="url(#pe508790982)" d="M 50.18625 59.920112 
L 50.18625 40.601612 
" style="fill:none;stroke:#a42604;"/>
    <path clip-path="url(#pe508790982)" d="M 50.5575 64.390663 
L 50.5575 46.145413 
" style="fill:none;stroke:#a42604;"/>
    <path clip-path="url(#pe508790982)" d="M 49.815 70.296188 
L 49.815 52.050938 
" style="fill:none;stroke:#a42604;"/>
    <path clip-path="url(#pe508790982)" d="M 48.747656 83.894497 
L 48.747656 58.494247 
" style="fill:none;stroke:#a42604;"/>
    <path clip-path="url(#pe508790982)" d="M 48.376406 97.489825 
L 48.376406 69.944069 
" style="fill:none;stroke:#a42604;"/>
    <path clip-path="url(#pe508790982)" d="M 48.051562 94.271566 
L 48.051562 73.522397 
" style="fill:none;stroke:#a42604;"/>
    <path clip-path="url(#pe508790982)" d="M 47.401875 96.420716 
L 47.401875 71.377884 
" style="fill:none;stroke:#a42604;"/>
    <path clip-path="url(#pe508790982)" d="M 46.891406 128.977787 
L 46.891406 71.021956 
" style="fill:none;stroke:#a42604;"/>
    <path clip-path="url(#pe508790982)" d="M 46.195312 155.453937 
L 46.195312 93.920275 
" style="fill:none;stroke:#a42604;"/>
    <path clip-path="url(#pe508790982)" d="M 45.824062 157.959347 
L 45.824062 130.770016 
" style="fill:none;stroke:#a42604;"/>
   </g>
   <g id="line2d_1">
    <defs>
     <path d="M 0 1.5 
C 0.397805 1.5 0.77937 1.341951 1.06066 1.06066 
C 1.341951 0.77937 1.5 0.397805 1.5 0 
C 1.5 -0.397805 1.341951 -0.77937 1.06066 -1.06066 
C 0.77937 -1.341951 0.397805 -1.5 0 -1.5 
C -0.397805 -1.5 -0.77937 -1.341951 -1.06066 -1.06066 
C -1.341951 -0.77937 -1.5 -0.397805 -1.5 0 
C -1.5 0.397805 -1.341951 0.77937 -1.06066 1.06066 
C -0.77937 1.341951 -0.397805 1.5 0 1.5 
z
" id="mc8dd808727" style="stroke:#a42604;stroke-width:0.75;"/>
    </defs>
    <g clip-path="url(#pe508790982)">
     <use style="fill:#f94515;stroke:#a42604;stroke-width:0.75;" x="164.202857" xlink:href="#mc8dd808727" y="62.713679"/>
     <use style="fill:#f94515;stroke:#a42604;stroke-width:0.75;" x="155.9925" xlink:href="#mc8dd808727" y="64.193238"/>
     <use style="fill:#f94515;stroke:#a42604;stroke-width:0.75;" x="147.500156" xlink:href="#mc8dd808727" y="65.654547"/>
     <use style="fill:#f94515;stroke:#a42604;stroke-width:0.75;" x="141.606563" xlink:href="#mc8dd808727" y="66.212206"/>
     <use style="fill:#f94515;stroke:#a42604;stroke-width:0.75;" x="138.265312" xlink:href="#mc8dd808727" y="64.972006"/>
     <use style="fill:#f94515;stroke:#a42604;stroke-width:0.75;" x="134.877656" xlink:href="#mc8dd808727" y="67.309472"/>
     <use style="fill:#f94515;stroke:#a42604;stroke-width:0.75;" x="131.397187" xlink:href="#mc8dd808727" y="69.289519"/>
     <use style="fill:#f94515;stroke:#a42604;stroke-width:0.75;" x="127.7775" xlink:href="#mc8dd808727" y="69.481313"/>
     <use style="fill:#f94515;stroke:#a42604;stroke-width:0.75;" x="124.250625" xlink:href="#mc8dd808727" y="72.177025"/>
     <use style="fill:#f94515;stroke:#a42604;stroke-width:0.75;" x="120.445313" xlink:href="#mc8dd808727" y="76.304731"/>
     <use style="fill:#f94515;stroke:#a42604;stroke-width:0.75;" x="116.500781" xlink:href="#mc8dd808727" y="76.318809"/>
     <use style="fill:#f94515;stroke:#a42604;stroke-width:0.75;" x="112.649063" xlink:href="#mc8dd808727" y="76.690306"/>
     <use style="fill:#f94515;stroke:#a42604;stroke-width:0.75;" x="108.704531" xlink:href="#mc8dd808727" y="76.704384"/>
     <use style="fill:#f94515;stroke:#a42604;stroke-width:0.75;" x="104.806406" xlink:href="#mc8dd808727" y="74.035172"/>
     <use style="fill:#f94515;stroke:#a42604;stroke-width:0.75;" x="100.861875" xlink:href="#mc8dd808727" y="75.838"/>
     <use style="fill:#f94515;stroke:#a42604;stroke-width:0.75;" x="98.402344" xlink:href="#mc8dd808727" y="78.172153"/>
     <use style="fill:#f94515;stroke:#a42604;stroke-width:0.75;" x="95.803594" xlink:href="#mc8dd808727" y="81.043428"/>
     <use style="fill:#f94515;stroke:#a42604;stroke-width:0.75;" x="93.204844" xlink:href="#mc8dd808727" y="80.873828"/>
     <use style="fill:#f94515;stroke:#a42604;stroke-width:0.75;" x="90.6525" xlink:href="#mc8dd808727" y="79.988563"/>
     <use style="fill:#f94515;stroke:#a42604;stroke-width:0.75;" x="88.100156" xlink:href="#mc8dd808727" y="81.786422"/>
     <use style="fill:#f94515;stroke:#a42604;stroke-width:0.75;" x="85.455" xlink:href="#mc8dd808727" y="82.869112"/>
     <use style="fill:#f94515;stroke:#a42604;stroke-width:0.75;" x="82.763437" xlink:href="#mc8dd808727" y="83.773094"/>
     <use style="fill:#f94515;stroke:#a42604;stroke-width:0.75;" x="79.14375" xlink:href="#mc8dd808727" y="86.111388"/>
     <use style="fill:#f94515;stroke:#a42604;stroke-width:0.75;" x="76.91625" xlink:href="#mc8dd808727" y="83.615088"/>
     <use style="fill:#f94515;stroke:#a42604;stroke-width:0.75;" x="74.781562" xlink:href="#mc8dd808727" y="83.801581"/>
     <use style="fill:#f94515;stroke:#a42604;stroke-width:0.75;" x="72.554063" xlink:href="#mc8dd808727" y="83.630656"/>
     <use style="fill:#f94515;stroke:#a42604;stroke-width:0.75;" x="70.372969" xlink:href="#mc8dd808727" y="83.459566"/>
     <use style="fill:#f94515;stroke:#a42604;stroke-width:0.75;" x="69.8625" xlink:href="#mc8dd808727" y="83.461388"/>
     <use style="fill:#f94515;stroke:#a42604;stroke-width:0.75;" x="68.795156" xlink:href="#mc8dd808727" y="80.603197"/>
     <use style="fill:#f94515;stroke:#a42604;stroke-width:0.75;" x="67.727812" xlink:href="#mc8dd808727" y="85.257756"/>
     <use style="fill:#f94515;stroke:#a42604;stroke-width:0.75;" x="66.614062" xlink:href="#mc8dd808727" y="83.651856"/>
     <use style="fill:#f94515;stroke:#a42604;stroke-width:0.75;" x="65.546719" xlink:href="#mc8dd808727" y="85.981041"/>
     <use style="fill:#f94515;stroke:#a42604;stroke-width:0.75;" x="64.386562" xlink:href="#mc8dd808727" y="89.920431"/>
     <use style="fill:#f94515;stroke:#a42604;stroke-width:0.75;" x="63.272813" xlink:href="#mc8dd808727" y="81.338406"/>
     <use style="fill:#f94515;stroke:#a42604;stroke-width:0.75;" x="62.205469" xlink:href="#mc8dd808727" y="83.667591"/>
     <use style="fill:#f94515;stroke:#a42604;stroke-width:0.75;" x="61.091719" xlink:href="#mc8dd808727" y="89.395566"/>
     <use style="fill:#f94515;stroke:#a42604;stroke-width:0.75;" x="60.627656" xlink:href="#mc8dd808727" y="93.869097"/>
     <use style="fill:#f94515;stroke:#a42604;stroke-width:0.75;" x="59.745937" xlink:href="#mc8dd808727" y="85.465119"/>
     <use style="fill:#f94515;stroke:#a42604;stroke-width:0.75;" x="58.864219" xlink:href="#mc8dd808727" y="83.858391"/>
     <use style="fill:#f94515;stroke:#a42604;stroke-width:0.75;" x="58.028906" xlink:href="#mc8dd808727" y="86.902247"/>
     <use style="fill:#f94515;stroke:#a42604;stroke-width:0.75;" x="57.24" xlink:href="#mc8dd808727" y="74.920437"/>
     <use style="fill:#f94515;stroke:#a42604;stroke-width:0.75;" x="56.590312" xlink:href="#mc8dd808727" y="75.817131"/>
     <use style="fill:#f94515;stroke:#a42604;stroke-width:0.75;" x="55.801406" xlink:href="#mc8dd808727" y="79.397447"/>
     <use style="fill:#f94515;stroke:#a42604;stroke-width:0.75;" x="54.966094" xlink:href="#mc8dd808727" y="86.018803"/>
     <use style="fill:#f94515;stroke:#a42604;stroke-width:0.75;" x="54.27" xlink:href="#mc8dd808727" y="78.687413"/>
     <use style="fill:#f94515;stroke:#a42604;stroke-width:0.75;" x="53.805937" xlink:href="#mc8dd808727" y="85.128569"/>
     <use style="fill:#f94515;stroke:#a42604;stroke-width:0.75;" x="53.388281" xlink:href="#mc8dd808727" y="74.934184"/>
     <use style="fill:#f94515;stroke:#a42604;stroke-width:0.75;" x="53.017031" xlink:href="#mc8dd808727" y="66.170634"/>
     <use style="fill:#f94515;stroke:#a42604;stroke-width:0.75;" x="52.460156" xlink:href="#mc8dd808727" y="58.302122"/>
     <use style="fill:#f94515;stroke:#a42604;stroke-width:0.75;" x="52.088906" xlink:href="#mc8dd808727" y="46.318822"/>
     <use style="fill:#f94515;stroke:#a42604;stroke-width:0.75;" x="51.810469" xlink:href="#mc8dd808727" y="33.977441"/>
     <use style="fill:#f94515;stroke:#a42604;stroke-width:0.75;" x="51.3" xlink:href="#mc8dd808727" y="32.906013"/>
     <use style="fill:#f94515;stroke:#a42604;stroke-width:0.75;" x="50.835937" xlink:href="#mc8dd808727" y="35.233044"/>
     <use style="fill:#f94515;stroke:#a42604;stroke-width:0.75;" x="50.18625" xlink:href="#mc8dd808727" y="50.260862"/>
     <use style="fill:#f94515;stroke:#a42604;stroke-width:0.75;" x="50.5575" xlink:href="#mc8dd808727" y="55.268038"/>
     <use style="fill:#f94515;stroke:#a42604;stroke-width:0.75;" x="49.815" xlink:href="#mc8dd808727" y="61.173563"/>
     <use style="fill:#f94515;stroke:#a42604;stroke-width:0.75;" x="48.747656" xlink:href="#mc8dd808727" y="71.194372"/>
     <use style="fill:#f94515;stroke:#a42604;stroke-width:0.75;" x="48.376406" xlink:href="#mc8dd808727" y="83.716947"/>
     <use style="fill:#f94515;stroke:#a42604;stroke-width:0.75;" x="48.051562" xlink:href="#mc8dd808727" y="83.896981"/>
     <use style="fill:#f94515;stroke:#a42604;stroke-width:0.75;" x="47.401875" xlink:href="#mc8dd808727" y="83.8993"/>
     <use style="fill:#f94515;stroke:#a42604;stroke-width:0.75;" x="46.891406" xlink:href="#mc8dd808727" y="99.999872"/>
     <use style="fill:#f94515;stroke:#a42604;stroke-width:0.75;" x="46.195312" xlink:href="#mc8dd808727" y="124.687106"/>
     <use style="fill:#f94515;stroke:#a42604;stroke-width:0.75;" x="45.824062" xlink:href="#mc8dd808727" y="144.364681"/>
    </g>
   </g>
   <g id="matplotlib.axis_1">
    <g id="xtick_1">
     <g id="line2d_2">
      <defs>
       <path d="M 0 0 
L 0 -2.5 
" id="mf42199aff1" style="stroke:#000000;stroke-width:0.8;"/>
      </defs>
      <g>
       <use style="stroke:#000000;stroke-width:0.8;" x="36.45" xlink:href="#mf42199aff1" y="147.6"/>
      </g>
     </g>
     <g id="line2d_3">
      <defs>
       <path d="M 0 0 
L 0 2.5 
" id="m11f88a749a" style="stroke:#000000;stroke-width:0.8;"/>
      </defs>
      <g>
       <use style="stroke:#000000;stroke-width:0.8;" x="36.45" xlink:href="#m11f88a749a" y="4.5"/>
      </g>
     </g>
     <g id="text_1">
      <!-- $0$ -->
      <defs>
       <path d="M 47.703125 33 
Q 47.703125 23.796875 45.546875 16.34375 
Q 43.40625 8.90625 38.09375 3.75 
Q 32.796875 -1.40625 25 -1.40625 
Q 18.796875 -1.40625 14.25 1.6875 
Q 9.703125 4.796875 7.203125 10.046875 
Q 4.703125 15.296875 3.5 21.140625 
Q 2.296875 27 2.296875 33.59375 
Q 2.296875 42.90625 4.59375 50.34375 
Q 6.90625 57.796875 12.296875 62.6875 
Q 17.703125 67.59375 25.40625 67.59375 
Q 35.203125 67.59375 41.453125 57.9375 
Q 47.703125 48.296875 47.703125 33 
z
M 39.796875 33 
Q 39.796875 45.203125 35.75 52.84375 
Q 31.703125 60.5 25.203125 60.5 
Q 17.796875 60.5 14 52.75 
Q 10.203125 45 10.203125 33.40625 
Q 10.203125 28.203125 10.953125 23.546875 
Q 11.703125 18.90625 13.34375 14.75 
Q 15 10.59375 18 8.140625 
Q 21 5.703125 25 5.703125 
Q 30.09375 5.703125 33.546875 9.796875 
Q 37 13.90625 38.390625 19.84375 
Q 39.796875 25.796875 39.796875 33 
z
" id="STIXGeneral-Regular-120802"/>
      </defs>
      <g transform="translate(34.45 157.17875)scale(0.08 -0.08)">
       <use transform="translate(0 0.40625)" xlink:href="#STIXGeneral-Regular-120802"/>
      </g>
     </g>
    </g>
    <g id="xtick_2">
     <g id="line2d_4">
      <g>
       <use style="stroke:#000000;stroke-width:0.8;" x="86.56875" xlink:href="#mf42199aff1" y="147.6"/>
      </g>
     </g>
     <g id="line2d_5">
      <g>
       <use style="stroke:#000000;stroke-width:0.8;" x="86.56875" xlink:href="#m11f88a749a" y="4.5"/>
      </g>
     </g>
     <g id="text_2">
      <!-- $0.5$ -->
      <defs>
       <path d="M 18.09375 4.296875 
Q 18.09375 2.09375 16.4375 0.5 
Q 14.796875 -1.09375 12.5 -1.09375 
Q 10.203125 -1.09375 8.59375 0.5 
Q 7 2.09375 7 4.390625 
Q 7 6.703125 8.640625 8.34375 
Q 10.296875 10 12.59375 10 
Q 14.796875 10 16.4375 8.296875 
Q 18.09375 6.59375 18.09375 4.296875 
z
" id="STIXGeneral-Regular-46"/>
       <path d="M 45.796875 67.59375 
L 42.59375 60.5 
L 24.90625 60.5 
L 18.5 47.796875 
Q 29.90625 46.203125 37.25 39.75 
Q 44.59375 33.296875 44.59375 22.59375 
Q 44.59375 12.703125 37.84375 5.640625 
Q 31.09375 -1.40625 21 -1.40625 
Q 10 -1.40625 3.59375 5.59375 
L 8.296875 11.203125 
Q 13.40625 5.703125 20.5 5.703125 
Q 27.90625 5.703125 32.296875 10.75 
Q 36.703125 15.796875 36.703125 22.59375 
Q 36.703125 30 30.09375 35.203125 
Q 23.40625 40.703125 9.40625 40.703125 
L 8 42.40625 
L 19.59375 67.59375 
z
" id="STIXGeneral-Regular-120807"/>
      </defs>
      <g transform="translate(81.56875 157.17875)scale(0.08 -0.08)">
       <use transform="translate(0 0.40625)" xlink:href="#STIXGeneral-Regular-120802"/>
       <use transform="translate(49.999985 0.40625)" xlink:href="#STIXGeneral-Regular-46"/>
       <use transform="translate(74.999969 0.40625)" xlink:href="#STIXGeneral-Regular-120807"/>
      </g>
     </g>
    </g>
    <g id="xtick_3">
     <g id="line2d_6">
      <g>
       <use style="stroke:#000000;stroke-width:0.8;" x="136.6875" xlink:href="#mf42199aff1" y="147.6"/>
      </g>
     </g>
     <g id="line2d_7">
      <g>
       <use style="stroke:#000000;stroke-width:0.8;" x="136.6875" xlink:href="#m11f88a749a" y="4.5"/>
      </g>
     </g>
     <g id="text_3">
      <!-- $1$ -->
      <defs>
       <path d="M 30.203125 0 
L 22.296875 0 
L 22.296875 57 
Q 20.09375 56 15.75 53.75 
Q 11.40625 51.5 10.796875 51.203125 
L 10.796875 58.5 
L 28.796875 67.703125 
L 30.203125 67.203125 
z
" id="STIXGeneral-Regular-120803"/>
      </defs>
      <g transform="translate(134.6875 157.17875)scale(0.08 -0.08)">
       <use transform="translate(0 0.296875)" xlink:href="#STIXGeneral-Regular-120803"/>
      </g>
     </g>
    </g>
    <g id="xtick_4">
     <g id="line2d_8">
      <g>
       <use style="stroke:#000000;stroke-width:0.8;" x="186.80625" xlink:href="#mf42199aff1" y="147.6"/>
      </g>
     </g>
     <g id="line2d_9">
      <g>
       <use style="stroke:#000000;stroke-width:0.8;" x="186.80625" xlink:href="#m11f88a749a" y="4.5"/>
      </g>
     </g>
     <g id="text_4">
      <!-- $1.5$ -->
      <g transform="translate(181.80625 157.17875)scale(0.08 -0.08)">
       <use transform="translate(0 0.296875)" xlink:href="#STIXGeneral-Regular-120803"/>
       <use transform="translate(49.999985 0.296875)" xlink:href="#STIXGeneral-Regular-46"/>
       <use transform="translate(74.999969 0.296875)" xlink:href="#STIXGeneral-Regular-120807"/>
      </g>
     </g>
    </g>
    <g id="xtick_5">
     <g id="line2d_10">
      <g>
       <use style="stroke:#000000;stroke-width:0.8;" x="236.925" xlink:href="#mf42199aff1" y="147.6"/>
      </g>
     </g>
     <g id="line2d_11">
      <g>
       <use style="stroke:#000000;stroke-width:0.8;" x="236.925" xlink:href="#m11f88a749a" y="4.5"/>
      </g>
     </g>
     <g id="text_5">
      <!-- $2$ -->
      <defs>
       <path d="M 46.90625 7.09375 
L 44 0 
L 3.5 0 
L 3.5 2.09375 
L 21 23.5 
L 21 23.40625 
L 26.59375 30.203125 
Q 30.5 34.90625 32.09375 36.953125 
Q 33.703125 39 35.203125 41.953125 
Q 36.703125 44.90625 36.703125 47.5 
Q 36.703125 53.703125 33.34375 57.09375 
Q 30 60.5 24.203125 60.5 
Q 19.59375 60.5 15.75 56.703125 
Q 11.90625 52.90625 10.90625 45.90625 
L 3.703125 47.59375 
Q 5.296875 56.5 11.1875 62.046875 
Q 17.09375 67.59375 24.90625 67.59375 
Q 33.59375 67.59375 39.09375 62.1875 
Q 44.59375 56.796875 44.59375 49.09375 
Q 44.59375 43.5 42.5 39.453125 
Q 40.40625 35.40625 33.703125 27 
L 17.703125 7.09375 
z
" id="STIXGeneral-Regular-120804"/>
      </defs>
      <g transform="translate(234.925 157.17875)scale(0.08 -0.08)">
       <use transform="translate(0 0.40625)" xlink:href="#STIXGeneral-Regular-120804"/>
      </g>
     </g>
    </g>
    <g id="text_6">
     <!-- $T/T_F$ -->
     <defs>
      <path d="M 74.796875 66.203125 
L 73.90625 58.796875 
L 49.40625 58.796875 
L 34.703125 0 
L 26 0 
L 40.59375 58.796875 
L 16.09375 58.796875 
L 19 66.203125 
z
" id="STIXGeneral-Italic-120347"/>
      <path d="M 28.703125 67.59375 
L 5.90625 -1.40625 
L -0.90625 -1.40625 
L 22 67.59375 
z
" id="STIXGeneral-Regular-47"/>
      <path d="M 67.90625 66.203125 
L 66.90625 58.796875 
L 30.703125 58.796875 
L 25.703125 38.59375 
L 55.296875 38.59375 
L 53.40625 31.09375 
L 23.796875 31.09375 
L 16.09375 0 
L 7.40625 0 
L 23.90625 66.203125 
z
" id="STIXGeneral-Italic-120333"/>
     </defs>
     <g transform="translate(129.0875 168.92125)scale(0.08 -0.08)">
      <use transform="translate(0 0.40625)" xlink:href="#STIXGeneral-Italic-120347"/>
      <use transform="translate(60.799988 0.40625)" xlink:href="#STIXGeneral-Regular-47"/>
      <use transform="translate(88.599976 0.40625)" xlink:href="#STIXGeneral-Italic-120347"/>
      <use transform="translate(149.399963 -13.182812)scale(0.7)" xlink:href="#STIXGeneral-Italic-120333"/>
     </g>
    </g>
   </g>
   <g id="matplotlib.axis_2">
    <g id="ytick_1">
     <g id="line2d_12">
      <defs>
       <path d="M 0 0 
L 2.5 0 
" id="m2b4fd19c97" style="stroke:#000000;stroke-width:0.8;"/>
      </defs>
      <g>
       <use style="stroke:#000000;stroke-width:0.8;" x="36.45" xlink:href="#m2b4fd19c97" y="147.6"/>
      </g>
     </g>
     <g id="line2d_13">
      <defs>
       <path d="M 0 0 
L -2.5 0 
" id="m2b379e72fa" style="stroke:#000000;stroke-width:0.8;"/>
      </defs>
      <g>
       <use style="stroke:#000000;stroke-width:0.8;" x="236.925" xlink:href="#m2b379e72fa" y="147.6"/>
      </g>
     </g>
     <g id="text_7">
      <!-- $0$ -->
      <g transform="translate(28.95 150.639375)scale(0.08 -0.08)">
       <use transform="translate(0 0.40625)" xlink:href="#STIXGeneral-Regular-120802"/>
      </g>
     </g>
    </g>
    <g id="ytick_2">
     <g id="line2d_14">
      <g>
       <use style="stroke:#000000;stroke-width:0.8;" x="36.45" xlink:href="#m2b4fd19c97" y="118.98"/>
      </g>
     </g>
     <g id="line2d_15">
      <g>
       <use style="stroke:#000000;stroke-width:0.8;" x="236.925" xlink:href="#m2b379e72fa" y="118.98"/>
      </g>
     </g>
     <g id="text_8">
      <!-- $0.5$ -->
      <g transform="translate(22.95 122.019375)scale(0.08 -0.08)">
       <use transform="translate(0 0.40625)" xlink:href="#STIXGeneral-Regular-120802"/>
       <use transform="translate(49.999985 0.40625)" xlink:href="#STIXGeneral-Regular-46"/>
       <use transform="translate(74.999969 0.40625)" xlink:href="#STIXGeneral-Regular-120807"/>
      </g>
     </g>
    </g>
    <g id="ytick_3">
     <g id="line2d_16">
      <g>
       <use style="stroke:#000000;stroke-width:0.8;" x="36.45" xlink:href="#m2b4fd19c97" y="90.36"/>
      </g>
     </g>
     <g id="line2d_17">
      <g>
       <use style="stroke:#000000;stroke-width:0.8;" x="236.925" xlink:href="#m2b379e72fa" y="90.36"/>
      </g>
     </g>
     <g id="text_9">
      <!-- $1$ -->
      <g transform="translate(28.95 93.399375)scale(0.08 -0.08)">
       <use transform="translate(0 0.296875)" xlink:href="#STIXGeneral-Regular-120803"/>
      </g>
     </g>
    </g>
    <g id="ytick_4">
     <g id="line2d_18">
      <g>
       <use style="stroke:#000000;stroke-width:0.8;" x="36.45" xlink:href="#m2b4fd19c97" y="61.74"/>
      </g>
     </g>
     <g id="line2d_19">
      <g>
       <use style="stroke:#000000;stroke-width:0.8;" x="236.925" xlink:href="#m2b379e72fa" y="61.74"/>
      </g>
     </g>
     <g id="text_10">
      <!-- $1.5$ -->
      <g transform="translate(22.95 64.779375)scale(0.08 -0.08)">
       <use transform="translate(0 0.296875)" xlink:href="#STIXGeneral-Regular-120803"/>
       <use transform="translate(49.999985 0.296875)" xlink:href="#STIXGeneral-Regular-46"/>
       <use transform="translate(74.999969 0.296875)" xlink:href="#STIXGeneral-Regular-120807"/>
      </g>
     </g>
    </g>
    <g id="ytick_5">
     <g id="line2d_20">
      <g>
       <use style="stroke:#000000;stroke-width:0.8;" x="36.45" xlink:href="#m2b4fd19c97" y="33.12"/>
      </g>
     </g>
     <g id="line2d_21">
      <g>
       <use style="stroke:#000000;stroke-width:0.8;" x="236.925" xlink:href="#m2b379e72fa" y="33.12"/>
      </g>
     </g>
     <g id="text_11">
      <!-- $2$ -->
      <g transform="translate(28.95 36.159375)scale(0.08 -0.08)">
       <use transform="translate(0 0.40625)" xlink:href="#STIXGeneral-Regular-120804"/>
      </g>
     </g>
    </g>
    <g id="ytick_6">
     <g id="line2d_22">
      <g>
       <use style="stroke:#000000;stroke-width:0.8;" x="36.45" xlink:href="#m2b4fd19c97" y="4.5"/>
      </g>
     </g>
     <g id="line2d_23">
      <g>
       <use style="stroke:#000000;stroke-width:0.8;" x="236.925" xlink:href="#m2b379e72fa" y="4.5"/>
      </g>
     </g>
     <g id="text_12">
      <!-- $2.5$ -->
      <g transform="translate(22.95 7.539375)scale(0.08 -0.08)">
       <use transform="translate(0 0.40625)" xlink:href="#STIXGeneral-Regular-120804"/>
       <use transform="translate(49.999985 0.40625)" xlink:href="#STIXGeneral-Regular-46"/>
       <use transform="translate(74.999969 0.40625)" xlink:href="#STIXGeneral-Regular-120807"/>
      </g>
     </g>
    </g>
    <g id="text_13">
     <!-- $c_V/N$ -->
     <defs>
      <path d="M 50.296875 37.09375 
L 44.59375 31.703125 
L 43 31.703125 
Q 41.59375 39.203125 33.5 39.203125 
Q 27.09375 39.203125 21.046875 33.09375 
Q 15 27 15 16.90625 
Q 15 11.796875 17.84375 8.9375 
Q 20.703125 6.09375 25.296875 6.09375 
Q 33.40625 6.09375 40.796875 16.59375 
L 46.40625 13.203125 
Q 36.796875 -1 22.90625 -1 
Q 15.5 -1 11.09375 3.203125 
Q 6.703125 7.40625 6.703125 15 
Q 6.703125 28 15.890625 37.140625 
Q 25.09375 46.296875 35.703125 46.296875 
Q 41.203125 46.296875 45.140625 44 
Q 49.09375 41.703125 50.296875 37.09375 
z
" id="STIXGeneral-Italic-120356"/>
      <path d="M 78.796875 66.203125 
L 33.703125 -1.09375 
L 31.09375 -1.09375 
L 19.59375 66.203125 
L 29.09375 66.203125 
L 36.796875 16.40625 
L 69.203125 66.203125 
z
" id="STIXGeneral-Italic-120349"/>
      <path d="M 76.59375 66.203125 
L 59.703125 -1.40625 
L 53.203125 0 
L 30.09375 56.40625 
L 16.09375 0 
L 7.40625 0 
L 23.90625 66.203125 
L 36 66.203125 
L 55.796875 17.796875 
L 67.90625 66.203125 
z
" id="STIXGeneral-Italic-120341"/>
     </defs>
     <g transform="translate(17.28625 83.61)rotate(-90)scale(0.08 -0.08)">
      <use transform="translate(0 0.40625)" xlink:href="#STIXGeneral-Italic-120356"/>
      <use transform="translate(45.599991 -13.182812)scale(0.7)" xlink:href="#STIXGeneral-Italic-120349"/>
      <use transform="translate(93.64483 0.40625)" xlink:href="#STIXGeneral-Regular-47"/>
      <use transform="translate(121.444818 0.40625)" xlink:href="#STIXGeneral-Italic-120341"/>
     </g>
    </g>
   </g>
   <g id="line2d_24">
    <path clip-path="url(#pe508790982)" d="M 36.721172 147.295129 
L 37.80175 144.779353 
L 38.611398 142.644702 
L 39.421529 140.662555 
L 39.960731 139.061532 
L 40.36483 137.765449 
L 40.903065 135.859416 
L 41.577369 133.953453 
L 41.981226 132.581118 
L 42.250706 131.74248 
L 42.653596 130.065135 
L 43.193523 128.692869 
L 43.59738 127.320534 
L 44.135373 125.338249 
L 44.810886 123.813547 
L 45.6186 121.068877 
L 46.833314 117.943152 
L 47.779757 116.037327 
L 48.724266 113.521482 
L 49.805811 111.310716 
L 50.481081 109.709762 
L 51.56311 107.651501 
L 52.374208 105.974364 
L 53.320892 104.14479 
L 54.269026 102.772731 
L 55.216194 101.095663 
L 56.028742 99.876039 
L 56.840807 98.503911 
L 58.466629 96.293421 
L 59.821762 94.540308 
L 61.719481 92.253703 
L 63.482338 90.348292 
L 66.194781 87.528335 
L 67.95933 86.15669 
L 69.451741 84.784907 
L 72.709669 82.346488 
L 75.424769 80.365308 
L 78.412975 78.689274 
L 81.401181 77.013241 
L 83.982629 75.794514 
L 86.835974 74.499674 
L 90.64132 73.052811 
L 95.26284 71.530111 
L 99.61343 70.388534 
L 104.508539 69.323485 
L 108.044405 68.715261 
L 112.12479 68.183564 
L 115.79745 67.804166 
L 118.926076 67.500744 
L 122.735047 67.197667 
L 127.360192 66.818751 
L 132.121165 66.363652 
L 135.522171 66.13662 
L 139.059004 65.833405 
L 144.500564 65.454904 
L 149.126193 65.228493 
L 153.479441 64.925692 
L 158.241139 64.69935 
L 162.322732 64.548915 
L 165.58791 64.398067 
L 168.717019 64.247149 
L 173.342889 64.096991 
L 177.288413 63.946487 
L 181.233937 63.795984 
L 185.043392 63.645411 
L 191.029955 63.495943 
L 197.969002 63.346958 
L 201.23418 63.196109 
L 204.63591 63.197834 
L 209.806057 63.047952 
L 217.697589 62.89945 
L 223.956532 62.826372 
L 228.582643 62.752465 
L 234.569206 62.602997 
L 238.106522 62.452287 
L 243.820946 62.30268 
L 244 62.298911 
" style="fill:none;stroke:#808080;stroke-dasharray:1,1.65;stroke-dashoffset:0;"/>
   </g>
   <g id="line2d_25">
    <path clip-path="url(#pe508790982)" d="M 86.56875 61.74 
L 236.925 61.74 
" style="fill:none;stroke:#808080;stroke-dasharray:3.7,1.6;stroke-dashoffset:0;"/>
   </g>
   <g id="patch_3">
    <path d="M 36.45 147.6 
L 36.45 4.5 
" style="fill:none;stroke:#000000;stroke-linecap:square;stroke-linejoin:miter;stroke-width:0.8;"/>
   </g>
   <g id="patch_4">
    <path d="M 236.925 147.6 
L 236.925 4.5 
" style="fill:none;stroke:#000000;stroke-linecap:square;stroke-linejoin:miter;stroke-width:0.8;"/>
   </g>
   <g id="patch_5">
    <path d="M 36.45 147.6 
L 236.925 147.6 
" style="fill:none;stroke:#000000;stroke-linecap:square;stroke-linejoin:miter;stroke-width:0.8;"/>
   </g>
   <g id="patch_6">
    <path d="M 36.45 4.5 
L 236.925 4.5 
" style="fill:none;stroke:#000000;stroke-linecap:square;stroke-linejoin:miter;stroke-width:0.8;"/>
   </g>
   <g id="line2d_26">
    <path clip-path="url(#pe508790982)" d="M 244 62.849464 
L 235.533875 62.0803 
L 225.274074 61.370406 
L 215.425048 60.960903 
L 205.991366 60.864648 
L 196.978134 61.068196 
L 188.388974 61.541802 
L 180.224814 62.24696 
L 172.483339 63.141732 
L 165.158558 64.171892 
L 154.930427 65.884265 
L 145.574531 67.716777 
L 137.040116 69.590817 
L 124.485522 72.474539 
L 119.983758 73.188595 
L 113.710447 73.883272 
L 104.38598 74.579775 
L 99.396106 74.950219 
L 96.302016 75.446694 
L 93.389128 76.164455 
L 90.651614 77.02727 
L 86.857464 78.471861 
L 82.335211 80.481285 
L 80.283791 81.546299 
L 78.362835 82.819154 
L 76.566297 84.242979 
L 74.089685 86.560256 
L 71.853158 89.003849 
L 69.202834 92.325186 
L 64.358361 98.402614 
L 62.185893 100.93918 
L 61.787122 101.19995 
L 61.398772 101.319574 
L 61.020227 101.305767 
L 60.650926 101.166186 
L 59.938038 100.53995 
L 59.25648 99.50036 
L 58.603197 98.104906 
L 57.670745 95.463775 
L 56.227298 90.300192 
L 54.652915 83.731878 
L 53.003166 76.897395 
L 52.35436 75.312289 
L 51.740409 74.450179 
L 51.35013 74.207158 
L 50.974708 74.189905 
L 50.792453 74.27738 
L 50.613842 74.592841 
L 50.267904 75.967296 
L 49.937437 78.272048 
L 49.47131 83.389135 
L 49.040745 90.50215 
L 48.52094 103.082123 
L 47.352498 131.6548 
L 47.170919 135.235665 
L 47.170919 135.235665 
" style="fill:none;stroke:#114b5f;stroke-linecap:square;"/>
   </g>
   <g id="legend_1">
    <g id="line2d_27">
     <path d="M 119.985 112.45125 
L 135.985 112.45125 
" style="fill:none;stroke:#114b5f;stroke-linecap:square;"/>
    </g>
    <g id="line2d_28"/>
    <g id="text_14">
     <!-- CL -->
     <defs>
      <path d="M 64.40625 67.28125 
L 64.40625 56.890625 
Q 59.421875 61.53125 53.78125 63.8125 
Q 48.140625 66.109375 41.796875 66.109375 
Q 29.296875 66.109375 22.65625 58.46875 
Q 16.015625 50.828125 16.015625 36.375 
Q 16.015625 21.96875 22.65625 14.328125 
Q 29.296875 6.6875 41.796875 6.6875 
Q 48.140625 6.6875 53.78125 8.984375 
Q 59.421875 11.28125 64.40625 15.921875 
L 64.40625 5.609375 
Q 59.234375 2.09375 53.4375 0.328125 
Q 47.65625 -1.421875 41.21875 -1.421875 
Q 24.65625 -1.421875 15.125 8.703125 
Q 5.609375 18.84375 5.609375 36.375 
Q 5.609375 53.953125 15.125 64.078125 
Q 24.65625 74.21875 41.21875 74.21875 
Q 47.75 74.21875 53.53125 72.484375 
Q 59.328125 70.75 64.40625 67.28125 
z
" id="DejaVuSans-67"/>
      <path d="M 9.8125 72.90625 
L 19.671875 72.90625 
L 19.671875 8.296875 
L 55.171875 8.296875 
L 55.171875 0 
L 9.8125 0 
z
" id="DejaVuSans-76"/>
     </defs>
     <g transform="translate(142.385 115.25125)scale(0.08 -0.08)">
      <use xlink:href="#DejaVuSans-67"/>
      <use x="69.824219" xlink:href="#DejaVuSans-76"/>
     </g>
    </g>
    <g id="line2d_29"/>
    <g id="line2d_30">
     <defs>
      <path d="M -0 2.12132 
L 1.272792 0 
L 0 -2.12132 
L -1.272792 -0 
z
" id="m0ebae32833" style="stroke:#fa9f42;stroke-linejoin:miter;stroke-width:0.75;"/>
     </defs>
     <g>
      <use style="fill:#fbb874;stroke:#fa9f42;stroke-linejoin:miter;stroke-width:0.75;" x="127.985" xlink:href="#m0ebae32833" y="124.19375"/>
     </g>
    </g>
    <g id="text_15">
     <!-- Luttinger Ward (Enss) -->
     <defs>
      <path d="M 8.5 21.578125 
L 8.5 54.6875 
L 17.484375 54.6875 
L 17.484375 21.921875 
Q 17.484375 14.15625 20.5 10.265625 
Q 23.53125 6.390625 29.59375 6.390625 
Q 36.859375 6.390625 41.078125 11.03125 
Q 45.3125 15.671875 45.3125 23.6875 
L 45.3125 54.6875 
L 54.296875 54.6875 
L 54.296875 0 
L 45.3125 0 
L 45.3125 8.40625 
Q 42.046875 3.421875 37.71875 1 
Q 33.40625 -1.421875 27.6875 -1.421875 
Q 18.265625 -1.421875 13.375 4.4375 
Q 8.5 10.296875 8.5 21.578125 
z
M 31.109375 56 
z
" id="DejaVuSans-117"/>
      <path d="M 18.3125 70.21875 
L 18.3125 54.6875 
L 36.8125 54.6875 
L 36.8125 47.703125 
L 18.3125 47.703125 
L 18.3125 18.015625 
Q 18.3125 11.328125 20.140625 9.421875 
Q 21.96875 7.515625 27.59375 7.515625 
L 36.8125 7.515625 
L 36.8125 0 
L 27.59375 0 
Q 17.1875 0 13.234375 3.875 
Q 9.28125 7.765625 9.28125 18.015625 
L 9.28125 47.703125 
L 2.6875 47.703125 
L 2.6875 54.6875 
L 9.28125 54.6875 
L 9.28125 70.21875 
z
" id="DejaVuSans-116"/>
      <path d="M 9.421875 54.6875 
L 18.40625 54.6875 
L 18.40625 0 
L 9.421875 0 
z
M 9.421875 75.984375 
L 18.40625 75.984375 
L 18.40625 64.59375 
L 9.421875 64.59375 
z
" id="DejaVuSans-105"/>
      <path d="M 54.890625 33.015625 
L 54.890625 0 
L 45.90625 0 
L 45.90625 32.71875 
Q 45.90625 40.484375 42.875 44.328125 
Q 39.84375 48.1875 33.796875 48.1875 
Q 26.515625 48.1875 22.3125 43.546875 
Q 18.109375 38.921875 18.109375 30.90625 
L 18.109375 0 
L 9.078125 0 
L 9.078125 54.6875 
L 18.109375 54.6875 
L 18.109375 46.1875 
Q 21.34375 51.125 25.703125 53.5625 
Q 30.078125 56 35.796875 56 
Q 45.21875 56 50.046875 50.171875 
Q 54.890625 44.34375 54.890625 33.015625 
z
" id="DejaVuSans-110"/>
      <path d="M 45.40625 27.984375 
Q 45.40625 37.75 41.375 43.109375 
Q 37.359375 48.484375 30.078125 48.484375 
Q 22.859375 48.484375 18.828125 43.109375 
Q 14.796875 37.75 14.796875 27.984375 
Q 14.796875 18.265625 18.828125 12.890625 
Q 22.859375 7.515625 30.078125 7.515625 
Q 37.359375 7.515625 41.375 12.890625 
Q 45.40625 18.265625 45.40625 27.984375 
z
M 54.390625 6.78125 
Q 54.390625 -7.171875 48.1875 -13.984375 
Q 42 -20.796875 29.203125 -20.796875 
Q 24.46875 -20.796875 20.265625 -20.09375 
Q 16.0625 -19.390625 12.109375 -17.921875 
L 12.109375 -9.1875 
Q 16.0625 -11.328125 19.921875 -12.34375 
Q 23.78125 -13.375 27.78125 -13.375 
Q 36.625 -13.375 41.015625 -8.765625 
Q 45.40625 -4.15625 45.40625 5.171875 
L 45.40625 9.625 
Q 42.625 4.78125 38.28125 2.390625 
Q 33.9375 0 27.875 0 
Q 17.828125 0 11.671875 7.65625 
Q 5.515625 15.328125 5.515625 27.984375 
Q 5.515625 40.671875 11.671875 48.328125 
Q 17.828125 56 27.875 56 
Q 33.9375 56 38.28125 53.609375 
Q 42.625 51.21875 45.40625 46.390625 
L 45.40625 54.6875 
L 54.390625 54.6875 
z
" id="DejaVuSans-103"/>
      <path d="M 56.203125 29.59375 
L 56.203125 25.203125 
L 14.890625 25.203125 
Q 15.484375 15.921875 20.484375 11.0625 
Q 25.484375 6.203125 34.421875 6.203125 
Q 39.59375 6.203125 44.453125 7.46875 
Q 49.3125 8.734375 54.109375 11.28125 
L 54.109375 2.78125 
Q 49.265625 0.734375 44.1875 -0.34375 
Q 39.109375 -1.421875 33.890625 -1.421875 
Q 20.796875 -1.421875 13.15625 6.1875 
Q 5.515625 13.8125 5.515625 26.8125 
Q 5.515625 40.234375 12.765625 48.109375 
Q 20.015625 56 32.328125 56 
Q 43.359375 56 49.78125 48.890625 
Q 56.203125 41.796875 56.203125 29.59375 
z
M 47.21875 32.234375 
Q 47.125 39.59375 43.09375 43.984375 
Q 39.0625 48.390625 32.421875 48.390625 
Q 24.90625 48.390625 20.390625 44.140625 
Q 15.875 39.890625 15.1875 32.171875 
z
" id="DejaVuSans-101"/>
      <path d="M 41.109375 46.296875 
Q 39.59375 47.171875 37.8125 47.578125 
Q 36.03125 48 33.890625 48 
Q 26.265625 48 22.1875 43.046875 
Q 18.109375 38.09375 18.109375 28.8125 
L 18.109375 0 
L 9.078125 0 
L 9.078125 54.6875 
L 18.109375 54.6875 
L 18.109375 46.1875 
Q 20.953125 51.171875 25.484375 53.578125 
Q 30.03125 56 36.53125 56 
Q 37.453125 56 38.578125 55.875 
Q 39.703125 55.765625 41.0625 55.515625 
z
" id="DejaVuSans-114"/>
      <path id="DejaVuSans-32"/>
      <path d="M 3.328125 72.90625 
L 13.28125 72.90625 
L 28.609375 11.28125 
L 43.890625 72.90625 
L 54.984375 72.90625 
L 70.3125 11.28125 
L 85.59375 72.90625 
L 95.609375 72.90625 
L 77.296875 0 
L 64.890625 0 
L 49.515625 63.28125 
L 33.984375 0 
L 21.578125 0 
z
" id="DejaVuSans-87"/>
      <path d="M 34.28125 27.484375 
Q 23.390625 27.484375 19.1875 25 
Q 14.984375 22.515625 14.984375 16.5 
Q 14.984375 11.71875 18.140625 8.90625 
Q 21.296875 6.109375 26.703125 6.109375 
Q 34.1875 6.109375 38.703125 11.40625 
Q 43.21875 16.703125 43.21875 25.484375 
L 43.21875 27.484375 
z
M 52.203125 31.203125 
L 52.203125 0 
L 43.21875 0 
L 43.21875 8.296875 
Q 40.140625 3.328125 35.546875 0.953125 
Q 30.953125 -1.421875 24.3125 -1.421875 
Q 15.921875 -1.421875 10.953125 3.296875 
Q 6 8.015625 6 15.921875 
Q 6 25.140625 12.171875 29.828125 
Q 18.359375 34.515625 30.609375 34.515625 
L 43.21875 34.515625 
L 43.21875 35.40625 
Q 43.21875 41.609375 39.140625 45 
Q 35.0625 48.390625 27.6875 48.390625 
Q 23 48.390625 18.546875 47.265625 
Q 14.109375 46.140625 10.015625 43.890625 
L 10.015625 52.203125 
Q 14.9375 54.109375 19.578125 55.046875 
Q 24.21875 56 28.609375 56 
Q 40.484375 56 46.34375 49.84375 
Q 52.203125 43.703125 52.203125 31.203125 
z
" id="DejaVuSans-97"/>
      <path d="M 45.40625 46.390625 
L 45.40625 75.984375 
L 54.390625 75.984375 
L 54.390625 0 
L 45.40625 0 
L 45.40625 8.203125 
Q 42.578125 3.328125 38.25 0.953125 
Q 33.9375 -1.421875 27.875 -1.421875 
Q 17.96875 -1.421875 11.734375 6.484375 
Q 5.515625 14.40625 5.515625 27.296875 
Q 5.515625 40.1875 11.734375 48.09375 
Q 17.96875 56 27.875 56 
Q 33.9375 56 38.25 53.625 
Q 42.578125 51.265625 45.40625 46.390625 
z
M 14.796875 27.296875 
Q 14.796875 17.390625 18.875 11.75 
Q 22.953125 6.109375 30.078125 6.109375 
Q 37.203125 6.109375 41.296875 11.75 
Q 45.40625 17.390625 45.40625 27.296875 
Q 45.40625 37.203125 41.296875 42.84375 
Q 37.203125 48.484375 30.078125 48.484375 
Q 22.953125 48.484375 18.875 42.84375 
Q 14.796875 37.203125 14.796875 27.296875 
z
" id="DejaVuSans-100"/>
      <path d="M 31 75.875 
Q 24.46875 64.65625 21.28125 53.65625 
Q 18.109375 42.671875 18.109375 31.390625 
Q 18.109375 20.125 21.3125 9.0625 
Q 24.515625 -2 31 -13.1875 
L 23.1875 -13.1875 
Q 15.875 -1.703125 12.234375 9.375 
Q 8.59375 20.453125 8.59375 31.390625 
Q 8.59375 42.28125 12.203125 53.3125 
Q 15.828125 64.359375 23.1875 75.875 
z
" id="DejaVuSans-40"/>
      <path d="M 9.8125 72.90625 
L 55.90625 72.90625 
L 55.90625 64.59375 
L 19.671875 64.59375 
L 19.671875 43.015625 
L 54.390625 43.015625 
L 54.390625 34.71875 
L 19.671875 34.71875 
L 19.671875 8.296875 
L 56.78125 8.296875 
L 56.78125 0 
L 9.8125 0 
z
" id="DejaVuSans-69"/>
      <path d="M 44.28125 53.078125 
L 44.28125 44.578125 
Q 40.484375 46.53125 36.375 47.5 
Q 32.28125 48.484375 27.875 48.484375 
Q 21.1875 48.484375 17.84375 46.4375 
Q 14.5 44.390625 14.5 40.28125 
Q 14.5 37.15625 16.890625 35.375 
Q 19.28125 33.59375 26.515625 31.984375 
L 29.59375 31.296875 
Q 39.15625 29.25 43.1875 25.515625 
Q 47.21875 21.78125 47.21875 15.09375 
Q 47.21875 7.46875 41.1875 3.015625 
Q 35.15625 -1.421875 24.609375 -1.421875 
Q 20.21875 -1.421875 15.453125 -0.5625 
Q 10.6875 0.296875 5.421875 2 
L 5.421875 11.28125 
Q 10.40625 8.6875 15.234375 7.390625 
Q 20.0625 6.109375 24.8125 6.109375 
Q 31.15625 6.109375 34.5625 8.28125 
Q 37.984375 10.453125 37.984375 14.40625 
Q 37.984375 18.0625 35.515625 20.015625 
Q 33.0625 21.96875 24.703125 23.78125 
L 21.578125 24.515625 
Q 13.234375 26.265625 9.515625 29.90625 
Q 5.8125 33.546875 5.8125 39.890625 
Q 5.8125 47.609375 11.28125 51.796875 
Q 16.75 56 26.8125 56 
Q 31.78125 56 36.171875 55.265625 
Q 40.578125 54.546875 44.28125 53.078125 
z
" id="DejaVuSans-115"/>
      <path d="M 8.015625 75.875 
L 15.828125 75.875 
Q 23.140625 64.359375 26.78125 53.3125 
Q 30.421875 42.28125 30.421875 31.390625 
Q 30.421875 20.453125 26.78125 9.375 
Q 23.140625 -1.703125 15.828125 -13.1875 
L 8.015625 -13.1875 
Q 14.5 -2 17.703125 9.0625 
Q 20.90625 20.125 20.90625 31.390625 
Q 20.90625 42.671875 17.703125 53.65625 
Q 14.5 64.65625 8.015625 75.875 
z
" id="DejaVuSans-41"/>
     </defs>
     <g transform="translate(142.385 126.99375)scale(0.08 -0.08)">
      <use xlink:href="#DejaVuSans-76"/>
      <use x="55.697266" xlink:href="#DejaVuSans-117"/>
      <use x="119.076172" xlink:href="#DejaVuSans-116"/>
      <use x="158.285156" xlink:href="#DejaVuSans-116"/>
      <use x="197.494141" xlink:href="#DejaVuSans-105"/>
      <use x="225.277344" xlink:href="#DejaVuSans-110"/>
      <use x="288.65625" xlink:href="#DejaVuSans-103"/>
      <use x="352.132812" xlink:href="#DejaVuSans-101"/>
      <use x="413.65625" xlink:href="#DejaVuSans-114"/>
      <use x="454.769531" xlink:href="#DejaVuSans-32"/>
      <use x="486.556641" xlink:href="#DejaVuSans-87"/>
      <use x="585.339844" xlink:href="#DejaVuSans-97"/>
      <use x="646.619141" xlink:href="#DejaVuSans-114"/>
      <use x="687.716797" xlink:href="#DejaVuSans-100"/>
      <use x="751.193359" xlink:href="#DejaVuSans-32"/>
      <use x="782.980469" xlink:href="#DejaVuSans-40"/>
      <use x="821.994141" xlink:href="#DejaVuSans-69"/>
      <use x="885.177734" xlink:href="#DejaVuSans-110"/>
      <use x="948.556641" xlink:href="#DejaVuSans-115"/>
      <use x="1000.65625" xlink:href="#DejaVuSans-115"/>
      <use x="1052.755859" xlink:href="#DejaVuSans-41"/>
     </g>
    </g>
    <g id="LineCollection_2">
     <path d="M 127.985 139.93625 
L 127.985 131.93625 
" style="fill:none;stroke:#a42604;"/>
    </g>
    <g id="line2d_31"/>
    <g id="line2d_32">
     <g>
      <use style="fill:#f94515;stroke:#a42604;stroke-width:0.75;" x="127.985" xlink:href="#mc8dd808727" y="135.93625"/>
     </g>
    </g>
    <g id="text_16">
     <!-- MIT experiment -->
     <defs>
      <path d="M 9.8125 72.90625 
L 24.515625 72.90625 
L 43.109375 23.296875 
L 61.8125 72.90625 
L 76.515625 72.90625 
L 76.515625 0 
L 66.890625 0 
L 66.890625 64.015625 
L 48.09375 14.015625 
L 38.1875 14.015625 
L 19.390625 64.015625 
L 19.390625 0 
L 9.8125 0 
z
" id="DejaVuSans-77"/>
      <path d="M 9.8125 72.90625 
L 19.671875 72.90625 
L 19.671875 0 
L 9.8125 0 
z
" id="DejaVuSans-73"/>
      <path d="M -0.296875 72.90625 
L 61.375 72.90625 
L 61.375 64.59375 
L 35.5 64.59375 
L 35.5 0 
L 25.59375 0 
L 25.59375 64.59375 
L -0.296875 64.59375 
z
" id="DejaVuSans-84"/>
      <path d="M 54.890625 54.6875 
L 35.109375 28.078125 
L 55.90625 0 
L 45.3125 0 
L 29.390625 21.484375 
L 13.484375 0 
L 2.875 0 
L 24.125 28.609375 
L 4.6875 54.6875 
L 15.28125 54.6875 
L 29.78125 35.203125 
L 44.28125 54.6875 
z
" id="DejaVuSans-120"/>
      <path d="M 18.109375 8.203125 
L 18.109375 -20.796875 
L 9.078125 -20.796875 
L 9.078125 54.6875 
L 18.109375 54.6875 
L 18.109375 46.390625 
Q 20.953125 51.265625 25.265625 53.625 
Q 29.59375 56 35.59375 56 
Q 45.5625 56 51.78125 48.09375 
Q 58.015625 40.1875 58.015625 27.296875 
Q 58.015625 14.40625 51.78125 6.484375 
Q 45.5625 -1.421875 35.59375 -1.421875 
Q 29.59375 -1.421875 25.265625 0.953125 
Q 20.953125 3.328125 18.109375 8.203125 
z
M 48.6875 27.296875 
Q 48.6875 37.203125 44.609375 42.84375 
Q 40.53125 48.484375 33.40625 48.484375 
Q 26.265625 48.484375 22.1875 42.84375 
Q 18.109375 37.203125 18.109375 27.296875 
Q 18.109375 17.390625 22.1875 11.75 
Q 26.265625 6.109375 33.40625 6.109375 
Q 40.53125 6.109375 44.609375 11.75 
Q 48.6875 17.390625 48.6875 27.296875 
z
" id="DejaVuSans-112"/>
      <path d="M 52 44.1875 
Q 55.375 50.25 60.0625 53.125 
Q 64.75 56 71.09375 56 
Q 79.640625 56 84.28125 50.015625 
Q 88.921875 44.046875 88.921875 33.015625 
L 88.921875 0 
L 79.890625 0 
L 79.890625 32.71875 
Q 79.890625 40.578125 77.09375 44.375 
Q 74.3125 48.1875 68.609375 48.1875 
Q 61.625 48.1875 57.5625 43.546875 
Q 53.515625 38.921875 53.515625 30.90625 
L 53.515625 0 
L 44.484375 0 
L 44.484375 32.71875 
Q 44.484375 40.625 41.703125 44.40625 
Q 38.921875 48.1875 33.109375 48.1875 
Q 26.21875 48.1875 22.15625 43.53125 
Q 18.109375 38.875 18.109375 30.90625 
L 18.109375 0 
L 9.078125 0 
L 9.078125 54.6875 
L 18.109375 54.6875 
L 18.109375 46.1875 
Q 21.1875 51.21875 25.484375 53.609375 
Q 29.78125 56 35.6875 56 
Q 41.65625 56 45.828125 52.96875 
Q 50 49.953125 52 44.1875 
z
" id="DejaVuSans-109"/>
     </defs>
     <g transform="translate(142.385 138.73625)scale(0.08 -0.08)">
      <use xlink:href="#DejaVuSans-77"/>
      <use x="86.279297" xlink:href="#DejaVuSans-73"/>
      <use x="115.771484" xlink:href="#DejaVuSans-84"/>
      <use x="176.855469" xlink:href="#DejaVuSans-32"/>
      <use x="208.642578" xlink:href="#DejaVuSans-101"/>
      <use x="270.150391" xlink:href="#DejaVuSans-120"/>
      <use x="329.330078" xlink:href="#DejaVuSans-112"/>
      <use x="392.806641" xlink:href="#DejaVuSans-101"/>
      <use x="454.330078" xlink:href="#DejaVuSans-114"/>
      <use x="495.443359" xlink:href="#DejaVuSans-105"/>
      <use x="523.226562" xlink:href="#DejaVuSans-109"/>
      <use x="620.638672" xlink:href="#DejaVuSans-101"/>
      <use x="682.162109" xlink:href="#DejaVuSans-110"/>
      <use x="745.541016" xlink:href="#DejaVuSans-116"/>
     </g>
    </g>
   </g>
   <g id="line2d_33">
    <g clip-path="url(#pe508790982)">
     <use style="fill:#fbb874;stroke:#fa9f42;stroke-linejoin:miter;stroke-width:0.75;" x="39.457124" xlink:href="#m0ebae32833" y="146.81895"/>
     <use style="fill:#fbb874;stroke:#fa9f42;stroke-linejoin:miter;stroke-width:0.75;" x="41.461875" xlink:href="#m0ebae32833" y="145.786247"/>
     <use style="fill:#fbb874;stroke:#fa9f42;stroke-linejoin:miter;stroke-width:0.75;" x="43.466628" xlink:href="#m0ebae32833" y="142.281926"/>
     <use style="fill:#fbb874;stroke:#fa9f42;stroke-linejoin:miter;stroke-width:0.75;" x="45.471376" xlink:href="#m0ebae32833" y="133.850217"/>
     <use style="fill:#fbb874;stroke:#fa9f42;stroke-linejoin:miter;stroke-width:0.75;" x="47.476124" xlink:href="#m0ebae32833" y="118.486026"/>
     <use style="fill:#fbb874;stroke:#fa9f42;stroke-linejoin:miter;stroke-width:0.75;" x="49.480875" xlink:href="#m0ebae32833" y="92.432791"/>
     <use style="fill:#fbb874;stroke:#fa9f42;stroke-linejoin:miter;stroke-width:0.75;" x="50.984439" xlink:href="#m0ebae32833" y="58.775724"/>
     <use style="fill:#fbb874;stroke:#fa9f42;stroke-linejoin:miter;stroke-width:0.75;" x="51.866738" xlink:href="#m0ebae32833" y="-1"/>
     <use style="fill:#fbb874;stroke:#fa9f42;stroke-linejoin:miter;stroke-width:0.75;" x="52.109435" xlink:href="#m0ebae32833" y="-1"/>
     <use style="fill:#fbb874;stroke:#fa9f42;stroke-linejoin:miter;stroke-width:0.75;" x="53.490369" xlink:href="#m0ebae32833" y="90.617225"/>
     <use style="fill:#fbb874;stroke:#fa9f42;stroke-linejoin:miter;stroke-width:0.75;" x="55.545241" xlink:href="#m0ebae32833" y="95.410977"/>
     <use style="fill:#fbb874;stroke:#fa9f42;stroke-linejoin:miter;stroke-width:0.75;" x="57.549998" xlink:href="#m0ebae32833" y="92.592785"/>
     <use style="fill:#fbb874;stroke:#fa9f42;stroke-linejoin:miter;stroke-width:0.75;" x="60.005815" xlink:href="#m0ebae32833" y="94.058552"/>
     <use style="fill:#fbb874;stroke:#fa9f42;stroke-linejoin:miter;stroke-width:0.75;" x="64.015312" xlink:href="#m0ebae32833" y="91.72878"/>
     <use style="fill:#fbb874;stroke:#fa9f42;stroke-linejoin:miter;stroke-width:0.75;" x="68.526" xlink:href="#m0ebae32833" y="88.388121"/>
     <use style="fill:#fbb874;stroke:#fa9f42;stroke-linejoin:miter;stroke-width:0.75;" x="73.53787" xlink:href="#m0ebae32833" y="84.628246"/>
     <use style="fill:#fbb874;stroke:#fa9f42;stroke-linejoin:miter;stroke-width:0.75;" x="81.556884" xlink:href="#m0ebae32833" y="82.681727"/>
     <use style="fill:#fbb874;stroke:#fa9f42;stroke-linejoin:miter;stroke-width:0.75;" x="90.578276" xlink:href="#m0ebae32833" y="79.031821"/>
     <use style="fill:#fbb874;stroke:#fa9f42;stroke-linejoin:miter;stroke-width:0.75;" x="100.601987" xlink:href="#m0ebae32833" y="76.627835"/>
     <use style="fill:#fbb874;stroke:#fa9f42;stroke-linejoin:miter;stroke-width:0.75;" x="113.131676" xlink:href="#m0ebae32833" y="72.130788"/>
     <use style="fill:#fbb874;stroke:#fa9f42;stroke-linejoin:miter;stroke-width:0.75;" x="128.167334" xlink:href="#m0ebae32833" y="70.613106"/>
     <use style="fill:#fbb874;stroke:#fa9f42;stroke-linejoin:miter;stroke-width:0.75;" x="146.711294" xlink:href="#m0ebae32833" y="67.486627"/>
     <use style="fill:#fbb874;stroke:#fa9f42;stroke-linejoin:miter;stroke-width:0.75;" x="166.758823" xlink:href="#m0ebae32833" y="66.298696"/>
     <use style="fill:#fbb874;stroke:#fa9f42;stroke-linejoin:miter;stroke-width:0.75;" x="186.806259" xlink:href="#m0ebae32833" y="64.914383"/>
     <use style="fill:#fbb874;stroke:#fa9f42;stroke-linejoin:miter;stroke-width:0.75;" x="201.841857" xlink:href="#m0ebae32833" y="63.833048"/>
     <use style="fill:#fbb874;stroke:#fa9f42;stroke-linejoin:miter;stroke-width:0.75;" x="211.86559" xlink:href="#m0ebae32833" y="63.445906"/>
     <use style="fill:#fbb874;stroke:#fa9f42;stroke-linejoin:miter;stroke-width:0.75;" x="221.889305" xlink:href="#m0ebae32833" y="62.829687"/>
     <use style="fill:#fbb874;stroke:#fa9f42;stroke-linejoin:miter;stroke-width:0.75;" x="231.913139" xlink:href="#m0ebae32833" y="62.653924"/>
     <use style="fill:#fbb874;stroke:#fa9f42;stroke-linejoin:miter;stroke-width:0.75;" x="241.936848" xlink:href="#m0ebae32833" y="62.359665"/>
     <use style="fill:#fbb874;stroke:#fa9f42;stroke-linejoin:miter;stroke-width:0.75;" x="251.960551" xlink:href="#m0ebae32833" y="63.90335"/>
     <use style="fill:#fbb874;stroke:#fa9f42;stroke-linejoin:miter;stroke-width:0.75;" x="261.984331" xlink:href="#m0ebae32833" y="61.703039"/>
     <use style="fill:#fbb874;stroke:#fa9f42;stroke-linejoin:miter;stroke-width:0.75;" x="272.008124" xlink:href="#m0ebae32833" y="61.557003"/>
     <use style="fill:#fbb874;stroke:#fa9f42;stroke-linejoin:miter;stroke-width:0.75;" x="282.031885" xlink:href="#m0ebae32833" y="62.770913"/>
     <use style="fill:#fbb874;stroke:#fa9f42;stroke-linejoin:miter;stroke-width:0.75;" x="292.055549" xlink:href="#m0ebae32833" y="61.558387"/>
     <use style="fill:#fbb874;stroke:#fa9f42;stroke-linejoin:miter;stroke-width:0.75;" x="302.079318" xlink:href="#m0ebae32833" y="61.092215"/>
     <use style="fill:#fbb874;stroke:#fa9f42;stroke-linejoin:miter;stroke-width:0.75;" x="322.126847" xlink:href="#m0ebae32833" y="61.626157"/>
     <use style="fill:#fbb874;stroke:#fa9f42;stroke-linejoin:miter;stroke-width:0.75;" x="352.198206" xlink:href="#m0ebae32833" y="61.454542"/>
     <use style="fill:#fbb874;stroke:#fa9f42;stroke-linejoin:miter;stroke-width:0.75;" x="392.29316" xlink:href="#m0ebae32833" y="61.11788"/>
     <use style="fill:#fbb874;stroke:#fa9f42;stroke-linejoin:miter;stroke-width:0.75;" x="477.494899" xlink:href="#m0ebae32833" y="61.020692"/>
     <use style="fill:#fbb874;stroke:#fa9f42;stroke-linejoin:miter;stroke-width:0.75;" x="637.87496" xlink:href="#m0ebae32833" y="61.067104"/>
     <use style="fill:#fbb874;stroke:#fa9f42;stroke-linejoin:miter;stroke-width:0.75;" x="888.468715" xlink:href="#m0ebae32833" y="61.250791"/>
     <use style="fill:#fbb874;stroke:#fa9f42;stroke-linejoin:miter;stroke-width:0.75;" x="1289.418668" xlink:href="#m0ebae32833" y="61.427049"/>
     <use style="fill:#fbb874;stroke:#fa9f42;stroke-linejoin:miter;stroke-width:0.75;" x="1790.606187" xlink:href="#m0ebae32833" y="61.52327"/>
    </g>
   </g>
  </g>
 </g>
 <defs>
  <clipPath id="pe508790982">
   <rect height="143.1" width="200.475" x="36.45" y="4.5"/>
  </clipPath>
 </defs>
</svg>
