<?xml version="1.0" encoding="utf-8" standalone="no"?>
<!DOCTYPE svg PUBLIC "-//W3C//DTD SVG 1.1//EN"
  "http://www.w3.org/Graphics/SVG/1.1/DTD/svg11.dtd">
<!-- Created with matplotlib (http://matplotlib.org/) -->
<svg height="180pt" version="1.1" viewBox="0 0 243 180" width="243pt" xmlns="http://www.w3.org/2000/svg" xmlns:xlink="http://www.w3.org/1999/xlink">
 <defs>
  <style type="text/css">
*{stroke-linecap:butt;stroke-linejoin:round;}
  </style>
 </defs>
 <g id="figure_1">
  <g id="patch_1">
   <path d="M 0 180 
L 243 180 
L 243 0 
L 0 0 
z
" style="fill:#ffffff;"/>
  </g>
  <g id="axes_1">
   <g id="patch_2">
    <path d="M 24.3 153 
L 230.85 153 
L 230.85 9 
L 24.3 9 
z
" style="fill:#ffffff;"/>
   </g>
   <g id="line2d_1">
    <defs>
     <path d="M 0 1.5 
C 0.397805 1.5 0.77937 1.341951 1.06066 1.06066 
C 1.341951 0.77937 1.5 0.397805 1.5 0 
C 1.5 -0.397805 1.341951 -0.77937 1.06066 -1.06066 
C 0.77937 -1.341951 0.397805 -1.5 0 -1.5 
C -0.397805 -1.5 -0.77937 -1.341951 -1.06066 -1.06066 
C -1.341951 -0.77937 -1.5 -0.397805 -1.5 0 
C -1.5 0.397805 -1.341951 0.77937 -1.06066 1.06066 
C -0.77937 1.341951 -0.397805 1.5 0 1.5 
z
" id="m5cec547d37" style="stroke:#a42604;stroke-width:0.75;"/>
    </defs>
    <g clip-path="url(#p430d4dec77)">
     <use style="fill:#f94515;stroke:#a42604;stroke-width:0.75;" x="108.583701" xlink:href="#m5cec547d37" y="143.508475"/>
     <use style="fill:#f94515;stroke:#a42604;stroke-width:0.75;" x="111.2519" xlink:href="#m5cec547d37" y="142.559322"/>
     <use style="fill:#f94515;stroke:#a42604;stroke-width:0.75;" x="114.234005" xlink:href="#m5cec547d37" y="141.610169"/>
     <use style="fill:#f94515;stroke:#a42604;stroke-width:0.75;" x="117.373062" xlink:href="#m5cec547d37" y="140.661017"/>
     <use style="fill:#f94515;stroke:#a42604;stroke-width:0.75;" x="120.355167" xlink:href="#m5cec547d37" y="139.522034"/>
     <use style="fill:#f94515;stroke:#a42604;stroke-width:0.75;" x="123.337272" xlink:href="#m5cec547d37" y="138.19322"/>
     <use style="fill:#f94515;stroke:#a42604;stroke-width:0.75;" x="128.987576" xlink:href="#m5cec547d37" y="135.535593"/>
     <use style="fill:#f94515;stroke:#a42604;stroke-width:0.75;" x="131.969681" xlink:href="#m5cec547d37" y="134.20678"/>
     <use style="fill:#f94515;stroke:#a42604;stroke-width:0.75;" x="135.108739" xlink:href="#m5cec547d37" y="132.688136"/>
     <use style="fill:#f94515;stroke:#a42604;stroke-width:0.75;" x="137.933891" xlink:href="#m5cec547d37" y="131.169492"/>
     <use style="fill:#f94515;stroke:#a42604;stroke-width:0.75;" x="140.915995" xlink:href="#m5cec547d37" y="129.650847"/>
     <use style="fill:#f94515;stroke:#a42604;stroke-width:0.75;" x="143.8981" xlink:href="#m5cec547d37" y="128.037288"/>
     <use style="fill:#f94515;stroke:#a42604;stroke-width:0.75;" x="149.548404" xlink:href="#m5cec547d37" y="124.810169"/>
     <use style="fill:#f94515;stroke:#a42604;stroke-width:0.75;" x="152.687462" xlink:href="#m5cec547d37" y="123.101695"/>
     <use style="fill:#f94515;stroke:#a42604;stroke-width:0.75;" x="155.512614" xlink:href="#m5cec547d37" y="121.298305"/>
     <use style="fill:#f94515;stroke:#a42604;stroke-width:0.75;" x="158.494719" xlink:href="#m5cec547d37" y="119.4"/>
     <use style="fill:#f94515;stroke:#a42604;stroke-width:0.75;" x="161.476824" xlink:href="#m5cec547d37" y="117.59661"/>
     <use style="fill:#f94515;stroke:#a42604;stroke-width:0.75;" x="164.458929" xlink:href="#m5cec547d37" y="115.79322"/>
     <use style="fill:#f94515;stroke:#a42604;stroke-width:0.75;" x="167.441033" xlink:href="#m5cec547d37" y="113.989831"/>
     <use style="fill:#f94515;stroke:#a42604;stroke-width:0.75;" x="170.423138" xlink:href="#m5cec547d37" y="111.99661"/>
     <use style="fill:#f94515;stroke:#a42604;stroke-width:0.75;" x="173.405243" xlink:href="#m5cec547d37" y="110.098305"/>
     <use style="fill:#f94515;stroke:#a42604;stroke-width:0.75;" x="176.230395" xlink:href="#m5cec547d37" y="108.2"/>
     <use style="fill:#f94515;stroke:#a42604;stroke-width:0.75;" x="179.369453" xlink:href="#m5cec547d37" y="106.20678"/>
     <use style="fill:#f94515;stroke:#a42604;stroke-width:0.75;" x="182.194605" xlink:href="#m5cec547d37" y="104.40339"/>
     <use style="fill:#f94515;stroke:#a42604;stroke-width:0.75;" x="185.019757" xlink:href="#m5cec547d37" y="102.410169"/>
     <use style="fill:#f94515;stroke:#a42604;stroke-width:0.75;" x="188.001862" xlink:href="#m5cec547d37" y="100.511864"/>
     <use style="fill:#f94515;stroke:#a42604;stroke-width:0.75;" x="190.827014" xlink:href="#m5cec547d37" y="98.80339"/>
     <use style="fill:#f94515;stroke:#a42604;stroke-width:0.75;" x="193.652166" xlink:href="#m5cec547d37" y="96.905085"/>
     <use style="fill:#f94515;stroke:#a42604;stroke-width:0.75;" x="196.948176" xlink:href="#m5cec547d37" y="95.101695"/>
     <use style="fill:#f94515;stroke:#a42604;stroke-width:0.75;" x="199.773328" xlink:href="#m5cec547d37" y="93.298305"/>
     <use style="fill:#f94515;stroke:#a42604;stroke-width:0.75;" x="202.912386" xlink:href="#m5cec547d37" y="91.4"/>
     <use style="fill:#f94515;stroke:#a42604;stroke-width:0.75;" x="205.737538" xlink:href="#m5cec547d37" y="89.786441"/>
     <use style="fill:#f94515;stroke:#a42604;stroke-width:0.75;" x="208.56269" xlink:href="#m5cec547d37" y="87.983051"/>
     <use style="fill:#f94515;stroke:#a42604;stroke-width:0.75;" x="211.544795" xlink:href="#m5cec547d37" y="86.369492"/>
     <use style="fill:#f94515;stroke:#a42604;stroke-width:0.75;" x="214.5269" xlink:href="#m5cec547d37" y="84.566102"/>
    </g>
   </g>
   <g id="matplotlib.axis_1">
    <g id="xtick_1">
     <g id="line2d_2">
      <defs>
       <path d="M 0 0 
L 0 -2.5 
" id="mc0c395b895" style="stroke:#000000;stroke-width:0.8;"/>
      </defs>
      <g>
       <use style="stroke:#000000;stroke-width:0.8;" x="24.3" xlink:href="#mc0c395b895" y="153"/>
      </g>
     </g>
     <g id="line2d_3">
      <defs>
       <path d="M 0 0 
L 0 2.5 
" id="m59fc65b9b6" style="stroke:#000000;stroke-width:0.8;"/>
      </defs>
      <g>
       <use style="stroke:#000000;stroke-width:0.8;" x="24.3" xlink:href="#m59fc65b9b6" y="9"/>
      </g>
     </g>
     <g id="text_1">
      <!-- $-4$ -->
      <defs>
       <path d="M 62.09375 22 
L 6.40625 22 
L 6.40625 28.59375 
L 62.09375 28.59375 
z
" id="STIXGeneral-Regular-2212"/>
       <path d="M 48.90625 23.59375 
L 45.59375 16.5 
L 37.296875 16.5 
L 37.296875 0 
L 29.40625 0 
L 29.40625 16.5 
L 1.09375 16.5 
L 1.09375 23.296875 
L 32.296875 67.59375 
L 37.296875 67.59375 
L 37.296875 23.59375 
z
M 29.40625 23.59375 
L 29.40625 51 
L 10 23.59375 
z
" id="STIXGeneral-Regular-1d7e6"/>
      </defs>
      <g transform="translate(19.54 162.57875)scale(0.08 -0.08)">
       <use transform="translate(0 0.40625)" xlink:href="#STIXGeneral-Regular-2212"/>
       <use transform="translate(68.499985 0.40625)" xlink:href="#STIXGeneral-Regular-1d7e6"/>
      </g>
     </g>
    </g>
    <g id="xtick_2">
     <g id="line2d_4">
      <g>
       <use style="stroke:#000000;stroke-width:0.8;" x="53.807143" xlink:href="#mc0c395b895" y="153"/>
      </g>
     </g>
     <g id="line2d_5">
      <g>
       <use style="stroke:#000000;stroke-width:0.8;" x="53.807143" xlink:href="#m59fc65b9b6" y="9"/>
      </g>
     </g>
     <g id="text_2">
      <!-- $-3$ -->
      <defs>
       <path d="M 11.296875 49.203125 
L 4.203125 50.90625 
Q 6.40625 58.703125 11.5 63.140625 
Q 16.59375 67.59375 24.296875 67.59375 
Q 31.40625 67.59375 36.203125 63.09375 
Q 41 58.59375 41 51.90625 
Q 41 43 32.40625 37 
Q 38 35 41.046875 30.34375 
Q 44.09375 25.703125 44.09375 21 
Q 44.09375 11.296875 37.796875 5 
Q 31.40625 -1.40625 20.5 -1.40625 
Q 9.5 -1.40625 3.09375 5.59375 
L 7.796875 11.203125 
Q 12.90625 5.703125 20 5.703125 
Q 27.40625 5.703125 31.59375 9.296875 
Q 36.203125 13.203125 36.203125 19.09375 
Q 36.203125 24.296875 32.453125 27.796875 
Q 28.703125 31.296875 22.203125 32.203125 
L 15.796875 32.203125 
L 15.796875 34.296875 
L 20.59375 39.40625 
Q 25.09375 39.40625 29.09375 42.84375 
Q 33.09375 46.296875 33.09375 51.203125 
Q 33.09375 55.40625 30.4375 57.953125 
Q 27.796875 60.5 24 60.5 
Q 20 60.5 16.546875 57.640625 
Q 13.09375 54.796875 11.296875 49.203125 
z
" id="STIXGeneral-Regular-1d7e5"/>
      </defs>
      <g transform="translate(49.047143 162.57875)scale(0.08 -0.08)">
       <use transform="translate(0 0.40625)" xlink:href="#STIXGeneral-Regular-2212"/>
       <use transform="translate(68.499985 0.40625)" xlink:href="#STIXGeneral-Regular-1d7e5"/>
      </g>
     </g>
    </g>
    <g id="xtick_3">
     <g id="line2d_6">
      <g>
       <use style="stroke:#000000;stroke-width:0.8;" x="83.314286" xlink:href="#mc0c395b895" y="153"/>
      </g>
     </g>
     <g id="line2d_7">
      <g>
       <use style="stroke:#000000;stroke-width:0.8;" x="83.314286" xlink:href="#m59fc65b9b6" y="9"/>
      </g>
     </g>
     <g id="text_3">
      <!-- $-2$ -->
      <defs>
       <path d="M 46.90625 7.09375 
L 44 0 
L 3.5 0 
L 3.5 2.09375 
L 21 23.5 
L 21 23.40625 
L 26.59375 30.203125 
Q 30.5 34.90625 32.09375 36.953125 
Q 33.703125 39 35.203125 41.953125 
Q 36.703125 44.90625 36.703125 47.5 
Q 36.703125 53.703125 33.34375 57.09375 
Q 30 60.5 24.203125 60.5 
Q 19.59375 60.5 15.75 56.703125 
Q 11.90625 52.90625 10.90625 45.90625 
L 3.703125 47.59375 
Q 5.296875 56.5 11.1875 62.046875 
Q 17.09375 67.59375 24.90625 67.59375 
Q 33.59375 67.59375 39.09375 62.1875 
Q 44.59375 56.796875 44.59375 49.09375 
Q 44.59375 43.5 42.5 39.453125 
Q 40.40625 35.40625 33.703125 27 
L 17.703125 7.09375 
z
" id="STIXGeneral-Regular-1d7e4"/>
      </defs>
      <g transform="translate(78.554286 162.57875)scale(0.08 -0.08)">
       <use transform="translate(0 0.40625)" xlink:href="#STIXGeneral-Regular-2212"/>
       <use transform="translate(68.499985 0.40625)" xlink:href="#STIXGeneral-Regular-1d7e4"/>
      </g>
     </g>
    </g>
    <g id="xtick_4">
     <g id="line2d_8">
      <g>
       <use style="stroke:#000000;stroke-width:0.8;" x="112.821429" xlink:href="#mc0c395b895" y="153"/>
      </g>
     </g>
     <g id="line2d_9">
      <g>
       <use style="stroke:#000000;stroke-width:0.8;" x="112.821429" xlink:href="#m59fc65b9b6" y="9"/>
      </g>
     </g>
     <g id="text_4">
      <!-- $-1$ -->
      <defs>
       <path d="M 30.203125 0 
L 22.296875 0 
L 22.296875 57 
Q 20.09375 56 15.75 53.75 
Q 11.40625 51.5 10.796875 51.203125 
L 10.796875 58.5 
L 28.796875 67.703125 
L 30.203125 67.203125 
z
" id="STIXGeneral-Regular-1d7e3"/>
      </defs>
      <g transform="translate(108.061429 162.57875)scale(0.08 -0.08)">
       <use transform="translate(0 0.296875)" xlink:href="#STIXGeneral-Regular-2212"/>
       <use transform="translate(68.499985 0.296875)" xlink:href="#STIXGeneral-Regular-1d7e3"/>
      </g>
     </g>
    </g>
    <g id="xtick_5">
     <g id="line2d_10">
      <g>
       <use style="stroke:#000000;stroke-width:0.8;" x="142.328571" xlink:href="#mc0c395b895" y="153"/>
      </g>
     </g>
     <g id="line2d_11">
      <g>
       <use style="stroke:#000000;stroke-width:0.8;" x="142.328571" xlink:href="#m59fc65b9b6" y="9"/>
      </g>
     </g>
     <g id="text_5">
      <!-- $0$ -->
      <defs>
       <path d="M 47.703125 33 
Q 47.703125 23.796875 45.546875 16.34375 
Q 43.40625 8.90625 38.09375 3.75 
Q 32.796875 -1.40625 25 -1.40625 
Q 18.796875 -1.40625 14.25 1.6875 
Q 9.703125 4.796875 7.203125 10.046875 
Q 4.703125 15.296875 3.5 21.140625 
Q 2.296875 27 2.296875 33.59375 
Q 2.296875 42.90625 4.59375 50.34375 
Q 6.90625 57.796875 12.296875 62.6875 
Q 17.703125 67.59375 25.40625 67.59375 
Q 35.203125 67.59375 41.453125 57.9375 
Q 47.703125 48.296875 47.703125 33 
z
M 39.796875 33 
Q 39.796875 45.203125 35.75 52.84375 
Q 31.703125 60.5 25.203125 60.5 
Q 17.796875 60.5 14 52.75 
Q 10.203125 45 10.203125 33.40625 
Q 10.203125 28.203125 10.953125 23.546875 
Q 11.703125 18.90625 13.34375 14.75 
Q 15 10.59375 18 8.140625 
Q 21 5.703125 25 5.703125 
Q 30.09375 5.703125 33.546875 9.796875 
Q 37 13.90625 38.390625 19.84375 
Q 39.796875 25.796875 39.796875 33 
z
" id="STIXGeneral-Regular-1d7e2"/>
      </defs>
      <g transform="translate(140.328571 162.57875)scale(0.08 -0.08)">
       <use transform="translate(0 0.40625)" xlink:href="#STIXGeneral-Regular-1d7e2"/>
      </g>
     </g>
    </g>
    <g id="xtick_6">
     <g id="line2d_12">
      <g>
       <use style="stroke:#000000;stroke-width:0.8;" x="171.835714" xlink:href="#mc0c395b895" y="153"/>
      </g>
     </g>
     <g id="line2d_13">
      <g>
       <use style="stroke:#000000;stroke-width:0.8;" x="171.835714" xlink:href="#m59fc65b9b6" y="9"/>
      </g>
     </g>
     <g id="text_6">
      <!-- $1$ -->
      <g transform="translate(169.835714 162.57875)scale(0.08 -0.08)">
       <use transform="translate(0 0.296875)" xlink:href="#STIXGeneral-Regular-1d7e3"/>
      </g>
     </g>
    </g>
    <g id="xtick_7">
     <g id="line2d_14">
      <g>
       <use style="stroke:#000000;stroke-width:0.8;" x="201.342857" xlink:href="#mc0c395b895" y="153"/>
      </g>
     </g>
     <g id="line2d_15">
      <g>
       <use style="stroke:#000000;stroke-width:0.8;" x="201.342857" xlink:href="#m59fc65b9b6" y="9"/>
      </g>
     </g>
     <g id="text_7">
      <!-- $2$ -->
      <g transform="translate(199.342857 162.57875)scale(0.08 -0.08)">
       <use transform="translate(0 0.40625)" xlink:href="#STIXGeneral-Regular-1d7e4"/>
      </g>
     </g>
    </g>
    <g id="xtick_8">
     <g id="line2d_16">
      <g>
       <use style="stroke:#000000;stroke-width:0.8;" x="230.85" xlink:href="#mc0c395b895" y="153"/>
      </g>
     </g>
     <g id="line2d_17">
      <g>
       <use style="stroke:#000000;stroke-width:0.8;" x="230.85" xlink:href="#m59fc65b9b6" y="9"/>
      </g>
     </g>
     <g id="text_8">
      <!-- $3$ -->
      <g transform="translate(228.85 162.57875)scale(0.08 -0.08)">
       <use transform="translate(0 0.40625)" xlink:href="#STIXGeneral-Regular-1d7e5"/>
      </g>
     </g>
    </g>
    <g id="xtick_9">
     <g id="line2d_18">
      <defs>
       <path d="M 0 0 
L 0 -1.5 
" id="m1a31a0fbbe" style="stroke:#000000;stroke-width:0.6;"/>
      </defs>
      <g>
       <use style="stroke:#000000;stroke-width:0.6;" x="39.053571" xlink:href="#m1a31a0fbbe" y="153"/>
      </g>
     </g>
     <g id="line2d_19">
      <defs>
       <path d="M 0 0 
L 0 1.5 
" id="m7618c44552" style="stroke:#000000;stroke-width:0.6;"/>
      </defs>
      <g>
       <use style="stroke:#000000;stroke-width:0.6;" x="39.053571" xlink:href="#m7618c44552" y="9"/>
      </g>
     </g>
    </g>
    <g id="xtick_10">
     <g id="line2d_20">
      <g>
       <use style="stroke:#000000;stroke-width:0.6;" x="68.560714" xlink:href="#m1a31a0fbbe" y="153"/>
      </g>
     </g>
     <g id="line2d_21">
      <g>
       <use style="stroke:#000000;stroke-width:0.6;" x="68.560714" xlink:href="#m7618c44552" y="9"/>
      </g>
     </g>
    </g>
    <g id="xtick_11">
     <g id="line2d_22">
      <g>
       <use style="stroke:#000000;stroke-width:0.6;" x="98.067857" xlink:href="#m1a31a0fbbe" y="153"/>
      </g>
     </g>
     <g id="line2d_23">
      <g>
       <use style="stroke:#000000;stroke-width:0.6;" x="98.067857" xlink:href="#m7618c44552" y="9"/>
      </g>
     </g>
    </g>
    <g id="xtick_12">
     <g id="line2d_24">
      <g>
       <use style="stroke:#000000;stroke-width:0.6;" x="127.575" xlink:href="#m1a31a0fbbe" y="153"/>
      </g>
     </g>
     <g id="line2d_25">
      <g>
       <use style="stroke:#000000;stroke-width:0.6;" x="127.575" xlink:href="#m7618c44552" y="9"/>
      </g>
     </g>
    </g>
    <g id="xtick_13">
     <g id="line2d_26">
      <g>
       <use style="stroke:#000000;stroke-width:0.6;" x="157.082143" xlink:href="#m1a31a0fbbe" y="153"/>
      </g>
     </g>
     <g id="line2d_27">
      <g>
       <use style="stroke:#000000;stroke-width:0.6;" x="157.082143" xlink:href="#m7618c44552" y="9"/>
      </g>
     </g>
    </g>
    <g id="xtick_14">
     <g id="line2d_28">
      <g>
       <use style="stroke:#000000;stroke-width:0.6;" x="186.589286" xlink:href="#m1a31a0fbbe" y="153"/>
      </g>
     </g>
     <g id="line2d_29">
      <g>
       <use style="stroke:#000000;stroke-width:0.6;" x="186.589286" xlink:href="#m7618c44552" y="9"/>
      </g>
     </g>
    </g>
    <g id="xtick_15">
     <g id="line2d_30">
      <g>
       <use style="stroke:#000000;stroke-width:0.6;" x="216.096429" xlink:href="#m1a31a0fbbe" y="153"/>
      </g>
     </g>
     <g id="line2d_31">
      <g>
       <use style="stroke:#000000;stroke-width:0.6;" x="216.096429" xlink:href="#m7618c44552" y="9"/>
      </g>
     </g>
    </g>
    <g id="text_9">
     <!-- $\beta\mu$ -->
     <defs>
      <path d="M 2.703125 -13.09375 
L 16 40.203125 
Q 18.796875 51.5 23.40625 57.90625 
Q 31.09375 68.296875 42.796875 68.296875 
Q 48.09375 68.296875 52 64.9375 
Q 55.90625 61.59375 55.90625 56.296875 
Q 55.90625 51.203125 53.203125 46.84375 
Q 50.5 42.5 45.703125 39.796875 
Q 49.09375 38.59375 51.140625 35.046875 
Q 53.203125 31.5 53.203125 27.09375 
Q 53.203125 14.59375 44.453125 6.59375 
Q 35.703125 -1.40625 25 -1.40625 
Q 18.296875 -1.40625 14.40625 2.203125 
L 10.703125 -12.59375 
Q 9.59375 -17 6.90625 -21.5 
L -1.203125 -21.5 
Q 1.59375 -17.40625 2.703125 -13.09375 
z
M 29.296875 37.5 
L 34.796875 42.90625 
Q 40.5 43.203125 44.140625 46.703125 
Q 47.796875 50.203125 47.796875 54.703125 
Q 47.796875 57.703125 45.84375 59.453125 
Q 43.90625 61.203125 40.5 61.203125 
Q 34.203125 61.203125 30.296875 55.84375 
Q 26.40625 50.5 24.59375 43.296875 
L 16.796875 11.796875 
Q 17.796875 9.09375 20.84375 7.390625 
Q 23.90625 5.703125 27.5 5.703125 
Q 34.296875 5.703125 39.640625 11.75 
Q 45 17.796875 45 25.703125 
Q 45 35.796875 28.90625 35.796875 
z
" id="STIXNonUnicode-Italic-e1d9"/>
      <path d="M 53.59375 45.296875 
L 45.5 12.796875 
Q 45 11 45 9.703125 
Q 45 6.09375 49.703125 6.09375 
L 49.296875 4.703125 
L 45.59375 -1 
Q 39.40625 -1 37.5 2.09375 
Q 36.59375 3.5 36.59375 6.40625 
L 21.59375 -1 
Q 16 -1 14.09375 1.5 
L 10.59375 -12.59375 
Q 9.296875 -17.90625 6.796875 -21.5 
L -0.90625 -21.5 
Q 2 -17 3.09375 -12.703125 
L 17.5 45.296875 
L 25.40625 45.296875 
L 17.90625 14.90625 
Q 17.40625 12.703125 17.40625 11.40625 
Q 17.40625 6.09375 23.90625 6.09375 
Q 26.703125 6.09375 31.34375 9.046875 
Q 36 12 38.5 16.09375 
L 45.703125 45.296875 
z
" id="STIXNonUnicode-Italic-e1e3"/>
     </defs>
     <g transform="translate(123.175 171.225)scale(0.08 -0.08)">
      <use transform="translate(0 0.703125)" xlink:href="#STIXNonUnicode-Italic-e1d9"/>
      <use transform="translate(53.499985 0.703125)" xlink:href="#STIXNonUnicode-Italic-e1e3"/>
     </g>
    </g>
   </g>
   <g id="matplotlib.axis_2">
    <g id="ytick_1">
     <g id="line2d_32">
      <defs>
       <path d="M 0 0 
L 2.5 0 
" id="ma05ac32ad8" style="stroke:#000000;stroke-width:0.8;"/>
      </defs>
      <g>
       <use style="stroke:#000000;stroke-width:0.8;" x="24.3" xlink:href="#ma05ac32ad8" y="153"/>
      </g>
     </g>
     <g id="line2d_33">
      <defs>
       <path d="M 0 0 
L -2.5 0 
" id="m59357ab65e" style="stroke:#000000;stroke-width:0.8;"/>
      </defs>
      <g>
       <use style="stroke:#000000;stroke-width:0.8;" x="230.85" xlink:href="#m59357ab65e" y="153"/>
      </g>
     </g>
     <g id="text_10">
      <!-- $1$ -->
      <g transform="translate(16.8 156.039375)scale(0.08 -0.08)">
       <use transform="translate(0 0.296875)" xlink:href="#STIXGeneral-Regular-1d7e3"/>
      </g>
     </g>
    </g>
    <g id="ytick_2">
     <g id="line2d_34">
      <g>
       <use style="stroke:#000000;stroke-width:0.8;" x="24.3" xlink:href="#ma05ac32ad8" y="105"/>
      </g>
     </g>
     <g id="line2d_35">
      <g>
       <use style="stroke:#000000;stroke-width:0.8;" x="230.85" xlink:href="#m59357ab65e" y="105"/>
      </g>
     </g>
     <g id="text_11">
      <!-- $2$ -->
      <g transform="translate(16.8 108.039375)scale(0.08 -0.08)">
       <use transform="translate(0 0.40625)" xlink:href="#STIXGeneral-Regular-1d7e4"/>
      </g>
     </g>
    </g>
    <g id="ytick_3">
     <g id="line2d_36">
      <g>
       <use style="stroke:#000000;stroke-width:0.8;" x="24.3" xlink:href="#ma05ac32ad8" y="57"/>
      </g>
     </g>
     <g id="line2d_37">
      <g>
       <use style="stroke:#000000;stroke-width:0.8;" x="230.85" xlink:href="#m59357ab65e" y="57"/>
      </g>
     </g>
     <g id="text_12">
      <!-- $3$ -->
      <g transform="translate(16.8 60.039375)scale(0.08 -0.08)">
       <use transform="translate(0 0.40625)" xlink:href="#STIXGeneral-Regular-1d7e5"/>
      </g>
     </g>
    </g>
    <g id="ytick_4">
     <g id="line2d_38">
      <g>
       <use style="stroke:#000000;stroke-width:0.8;" x="24.3" xlink:href="#ma05ac32ad8" y="9"/>
      </g>
     </g>
     <g id="line2d_39">
      <g>
       <use style="stroke:#000000;stroke-width:0.8;" x="230.85" xlink:href="#m59357ab65e" y="9"/>
      </g>
     </g>
     <g id="text_13">
      <!-- $4$ -->
      <g transform="translate(16.8 12.039375)scale(0.08 -0.08)">
       <use transform="translate(0 0.40625)" xlink:href="#STIXGeneral-Regular-1d7e6"/>
      </g>
     </g>
    </g>
    <g id="ytick_5">
     <g id="line2d_40">
      <defs>
       <path d="M 0 0 
L 1.5 0 
" id="m28208849f4" style="stroke:#000000;stroke-width:0.6;"/>
      </defs>
      <g>
       <use style="stroke:#000000;stroke-width:0.6;" x="24.3" xlink:href="#m28208849f4" y="129"/>
      </g>
     </g>
     <g id="line2d_41">
      <defs>
       <path d="M 0 0 
L -1.5 0 
" id="m1225c2afdd" style="stroke:#000000;stroke-width:0.6;"/>
      </defs>
      <g>
       <use style="stroke:#000000;stroke-width:0.6;" x="230.85" xlink:href="#m1225c2afdd" y="129"/>
      </g>
     </g>
    </g>
    <g id="ytick_6">
     <g id="line2d_42">
      <g>
       <use style="stroke:#000000;stroke-width:0.6;" x="24.3" xlink:href="#m28208849f4" y="81"/>
      </g>
     </g>
     <g id="line2d_43">
      <g>
       <use style="stroke:#000000;stroke-width:0.6;" x="230.85" xlink:href="#m1225c2afdd" y="81"/>
      </g>
     </g>
    </g>
    <g id="ytick_7">
     <g id="line2d_44">
      <g>
       <use style="stroke:#000000;stroke-width:0.6;" x="24.3" xlink:href="#m28208849f4" y="33"/>
      </g>
     </g>
     <g id="line2d_45">
      <g>
       <use style="stroke:#000000;stroke-width:0.6;" x="230.85" xlink:href="#m1225c2afdd" y="33"/>
      </g>
     </g>
    </g>
    <g id="text_14">
     <!-- $P\,/P_0$ -->
     <defs>
      <path d="M 23.90625 66.203125 
L 42.296875 66.203125 
Q 63.796875 66.203125 63.796875 52.90625 
Q 63.796875 42.703125 55.6875 35.59375 
Q 47.59375 28.5 35.203125 28.5 
L 23.203125 28.5 
L 16.09375 0 
L 7.40625 0 
z
M 25 35.90625 
L 33.796875 35.90625 
Q 44.296875 35.90625 49.5 39.953125 
Q 54.703125 44 54.703125 50.796875 
Q 54.703125 58.796875 39 58.796875 
L 30.703125 58.796875 
z
" id="STIXGeneral-Italic-1d617"/>
      <path d="M 28.703125 67.59375 
L 5.90625 -1.40625 
L -0.90625 -1.40625 
L 22 67.59375 
z
" id="STIXGeneral-Regular-2f"/>
     </defs>
     <g transform="translate(13.13625 88.32)rotate(-90)scale(0.08 -0.08)">
      <use transform="translate(0 0.40625)" xlink:href="#STIXGeneral-Italic-1d617"/>
      <use transform="translate(65.100235 0.40625)" xlink:href="#STIXGeneral-Regular-2f"/>
      <use transform="translate(92.900223 0.40625)" xlink:href="#STIXGeneral-Italic-1d617"/>
      <use transform="translate(145.400208 -13.182812)scale(0.7)" xlink:href="#STIXGeneral-Regular-1d7e2"/>
     </g>
    </g>
   </g>
   <g id="line2d_46">
    <path clip-path="url(#p430d4dec77)" d="M -1 152.735232 
L 22.668952 152.413153 
L 39.275987 151.975067 
L 51.731263 151.445485 
L 53.807143 151.334102 
L 53.807143 151.334102 
" style="fill:none;stroke:#114b5f;stroke-dasharray:3.7,1.6;stroke-dashoffset:0;"/>
   </g>
   <g id="line2d_47">
    <path clip-path="url(#p430d4dec77)" d="M 54.622667 151.285714 
L 66.855528 150.515402 
L 73.37972 149.807768 
L 80.719436 148.751128 
L 92.136773 146.838509 
L 99.47649 145.411884 
L 105.185158 144.061657 
L 110.078302 142.673872 
L 114.971447 141.044424 
L 119.864591 139.166625 
L 124.757735 137.050657 
L 130.466403 134.312338 
L 136.175072 131.319759 
L 141.88374 128.082966 
L 147.592408 124.600293 
L 154.116601 120.351442 
L 163.087365 114.209204 
L 174.504702 106.395441 
L 181.028894 102.205652 
L 186.737563 98.799717 
L 192.446231 95.663362 
L 198.154899 92.781926 
L 204.679092 89.735282 
L 214.46538 85.442709 
L 216.096429 84.73846 
L 216.096429 84.73846 
" style="fill:none;stroke:#114b5f;stroke-linecap:square;"/>
   </g>
   <g id="line2d_48">
    <path clip-path="url(#p430d4dec77)" d="M -1 148.863044 
L 22.668952 148.564299 
L 39.275987 148.157764 
L 52.769203 147.61527 
L 53.807143 147.562674 
L 53.807143 147.562674 
" style="fill:none;stroke:#5f9049;stroke-dasharray:3.7,1.6;stroke-dashoffset:0;"/>
   </g>
   <g id="line2d_49">
    <path clip-path="url(#p430d4dec77)" d="M 54.622667 147.513207 
L 64.408955 146.773691 
L 76.641816 145.674599 
L 83.981533 144.788217 
L 90.505725 143.78967 
L 97.029917 142.561243 
L 103.55411 141.082916 
L 109.262778 139.565766 
L 114.971447 137.812873 
L 120.680115 135.802801 
L 125.573259 133.852724 
L 130.466403 131.675531 
L 135.359548 129.268484 
L 141.068216 126.19377 
L 147.592408 122.39044 
L 154.932125 117.828229 
L 163.087365 112.489728 
L 175.320226 104.435288 
L 181.028894 100.945144 
L 186.737563 97.708388 
L 192.446231 94.711887 
L 198.970424 91.53492 
L 207.125664 87.841689 
L 216.096429 83.996962 
L 216.096429 83.996962 
" style="fill:none;stroke:#5f9049;stroke-linecap:square;"/>
   </g>
   <g id="line2d_50">
    <path clip-path="url(#p430d4dec77)" d="M -1 136.631388 
L 26.820711 136.363627 
L 45.503625 135.976291 
L 53.807143 135.708584 
L 53.807143 135.708584 
" style="fill:none;stroke:#d7b501;stroke-dasharray:3.7,1.6;stroke-dashoffset:0;"/>
   </g>
   <g id="line2d_51">
    <path clip-path="url(#p430d4dec77)" d="M 54.622667 135.673796 
L 67.671052 135.00408 
L 75.826292 134.377254 
L 83.981533 133.523569 
L 92.952297 132.35372 
L 101.107538 131.08302 
L 108.447254 129.720105 
L 114.155922 128.422961 
L 119.049067 127.088322 
L 123.942211 125.52965 
L 128.835355 123.755239 
L 134.544024 121.44293 
L 141.068216 118.525725 
L 147.592408 115.361064 
L 154.932125 111.537407 
L 162.271841 107.436439 
L 179.397846 97.671201 
L 185.106515 94.761305 
L 191.630707 91.70711 
L 198.970424 88.548067 
L 207.941188 84.956705 
L 216.096429 81.826201 
L 216.096429 81.826201 
" style="fill:none;stroke:#d7b501;stroke-linecap:square;"/>
   </g>
   <g id="line2d_52">
    <path clip-path="url(#p430d4dec77)" d="M -1 114.103555 
L 53.807143 114.103667 
L 53.807143 114.103667 
" style="fill:none;stroke:#eca300;stroke-dasharray:3.7,1.6;stroke-dashoffset:0;"/>
   </g>
   <g id="line2d_53">
    <path clip-path="url(#p430d4dec77)" d="M 54.622667 114.10592 
L 66.855528 113.998839 
L 79.903912 113.723741 
L 89.690201 113.299611 
L 100.292014 112.61614 
L 109.262778 111.842522 
L 115.786971 111.069331 
L 121.495639 110.185371 
L 128.019831 108.936748 
L 134.544024 107.46882 
L 140.252692 105.990092 
L 145.96136 104.275123 
L 151.670029 102.291522 
L 157.378697 100.067881 
L 165.533938 96.612327 
L 177.766798 91.417324 
L 185.106515 88.593633 
L 192.446231 86.013633 
L 203.048044 82.559043 
L 216.096429 78.380575 
L 216.096429 78.380575 
" style="fill:none;stroke:#eca300;stroke-linecap:square;"/>
   </g>
   <g id="line2d_54">
    <path clip-path="url(#p430d4dec77)" d="M -1 77.737232 
L 18.517193 78.139369 
L 34.086289 78.68286 
L 46.541565 79.327119 
L 53.807143 79.812113 
L 53.807143 79.812113 
" style="fill:none;stroke:#db7502;stroke-dasharray:3.7,1.6;stroke-dashoffset:0;"/>
   </g>
   <g id="line2d_55">
    <path clip-path="url(#p430d4dec77)" d="M 54.622667 79.87132 
L 61.146859 80.487649 
L 73.37972 81.643524 
L 90.505725 83.164262 
L 117.418019 85.990138 
L 125.573259 86.516136 
L 132.097452 86.717092 
L 137.80612 86.690548 
L 143.514788 86.456057 
L 149.223457 86.009254 
L 154.932125 85.357687 
L 161.456317 84.382713 
L 168.796034 83.053434 
L 186.737563 79.468963 
L 203.048044 76.081456 
L 213.649856 73.650588 
L 216.096429 73.051341 
L 216.096429 73.051341 
" style="fill:none;stroke:#db7502;stroke-linecap:square;"/>
   </g>
   <g id="line2d_56">
    <path clip-path="url(#p430d4dec77)" d="M -1 21.880043 
L 10.213676 22.5221 
L 19.555133 23.255283 
L 27.85865 24.102316 
L 36.162168 25.176518 
L 43.427746 26.338509 
L 50.693324 27.740693 
L 53.807143 28.42284 
L 53.807143 28.42284 
" style="fill:none;stroke:#cc5101;stroke-dasharray:3.7,1.6;stroke-dashoffset:0;"/>
   </g>
   <g id="line2d_57">
    <path clip-path="url(#p430d4dec77)" d="M 54.622667 28.597073 
L 60.331335 29.94037 
L 66.040004 31.496566 
L 72.564196 33.507355 
L 79.903912 36.025863 
L 87.243629 38.79151 
L 95.398869 42.124195 
L 106.000682 46.7343 
L 124.757735 54.951817 
L 132.097452 57.88956 
L 138.621644 60.2403 
L 144.330312 62.061778 
L 150.038981 63.64661 
L 155.747649 64.97518 
L 160.640793 65.89418 
L 165.533938 66.607604 
L 171.242606 67.204623 
L 177.766798 67.632048 
L 184.290991 67.83755 
L 190.815183 67.841347 
L 197.339375 67.646477 
L 203.863568 67.252156 
L 210.38776 66.656456 
L 216.096429 65.968131 
L 216.096429 65.968131 
" style="fill:none;stroke:#cc5101;stroke-linecap:square;"/>
   </g>
   <g id="patch_3">
    <path d="M 24.3 153 
L 24.3 9 
" style="fill:none;stroke:#000000;stroke-linecap:square;stroke-linejoin:miter;stroke-width:0.8;"/>
   </g>
   <g id="patch_4">
    <path d="M 230.85 153 
L 230.85 9 
" style="fill:none;stroke:#000000;stroke-linecap:square;stroke-linejoin:miter;stroke-width:0.8;"/>
   </g>
   <g id="patch_5">
    <path d="M 24.3 153 
L 230.85 153 
" style="fill:none;stroke:#000000;stroke-linecap:square;stroke-linejoin:miter;stroke-width:0.8;"/>
   </g>
   <g id="patch_6">
    <path d="M 24.3 9 
L 230.85 9 
" style="fill:none;stroke:#000000;stroke-linecap:square;stroke-linejoin:miter;stroke-width:0.8;"/>
   </g>
   <g id="legend_1">
    <g id="line2d_58">
     <path d="M 110.69 19.47875 
L 126.69 19.47875 
" style="fill:none;stroke:#114b5f;stroke-linecap:square;"/>
    </g>
    <g id="line2d_59"/>
    <g id="text_15">
     <!-- $\beta h = 0.0$ -->
     <defs>
      <path d="M 31.09375 67.90625 
L 24.203125 40.5 
Q 28.59375 44 32.25 45.140625 
Q 35.90625 46.296875 40.5 46.296875 
Q 45.40625 46.296875 48.203125 43.796875 
Q 51 41.296875 51 36.59375 
Q 51 34.5 50.40625 32.09375 
L 42.40625 0 
L 34.5 0 
L 42 30.40625 
Q 42.5 32.59375 42.5 33.796875 
Q 42.5 39.203125 36 39.203125 
Q 33.09375 39.203125 28.640625 36.703125 
Q 24.203125 34.203125 21.703125 30.203125 
L 14.203125 0 
L 6.296875 0 
L 22.703125 66 
L 30.296875 68.40625 
z
" id="STIXGeneral-Italic-1d629"/>
      <path d="M 63.703125 32 
L 4.796875 32 
L 4.796875 38.59375 
L 63.703125 38.59375 
z
M 63.703125 12 
L 4.796875 12 
L 4.796875 18.59375 
L 63.703125 18.59375 
z
" id="STIXGeneral-Regular-3d"/>
      <path d="M 18.09375 4.296875 
Q 18.09375 2.09375 16.4375 0.5 
Q 14.796875 -1.09375 12.5 -1.09375 
Q 10.203125 -1.09375 8.59375 0.5 
Q 7 2.09375 7 4.390625 
Q 7 6.703125 8.640625 8.34375 
Q 10.296875 10 12.59375 10 
Q 14.796875 10 16.4375 8.296875 
Q 18.09375 6.59375 18.09375 4.296875 
z
" id="STIXGeneral-Regular-2e"/>
     </defs>
     <g transform="translate(133.09 22.27875)scale(0.08 -0.08)">
      <use transform="translate(0 0.59375)" xlink:href="#STIXNonUnicode-Italic-e1d9"/>
      <use transform="translate(53.499985 0.59375)" xlink:href="#STIXGeneral-Italic-1d629"/>
      <use transform="translate(117.31998 0.59375)" xlink:href="#STIXGeneral-Regular-3d"/>
      <use transform="translate(200.939963 0.59375)" xlink:href="#STIXGeneral-Regular-1d7e2"/>
      <use transform="translate(250.939948 0.59375)" xlink:href="#STIXGeneral-Regular-2e"/>
      <use transform="translate(275.939932 0.59375)" xlink:href="#STIXGeneral-Regular-1d7e2"/>
     </g>
    </g>
    <g id="line2d_60">
     <path d="M 110.69 31.3175 
L 126.69 31.3175 
" style="fill:none;stroke:#5f9049;stroke-linecap:square;"/>
    </g>
    <g id="line2d_61"/>
    <g id="text_16">
     <!-- $\beta h = 0.4$ -->
     <g transform="translate(133.09 34.1175)scale(0.08 -0.08)">
      <use transform="translate(0 0.59375)" xlink:href="#STIXNonUnicode-Italic-e1d9"/>
      <use transform="translate(53.499985 0.59375)" xlink:href="#STIXGeneral-Italic-1d629"/>
      <use transform="translate(117.31998 0.59375)" xlink:href="#STIXGeneral-Regular-3d"/>
      <use transform="translate(200.939963 0.59375)" xlink:href="#STIXGeneral-Regular-1d7e2"/>
      <use transform="translate(250.939948 0.59375)" xlink:href="#STIXGeneral-Regular-2e"/>
      <use transform="translate(275.939932 0.59375)" xlink:href="#STIXGeneral-Regular-1d7e6"/>
     </g>
    </g>
    <g id="line2d_62">
     <path d="M 110.69 43.15625 
L 126.69 43.15625 
" style="fill:none;stroke:#d7b501;stroke-linecap:square;"/>
    </g>
    <g id="line2d_63"/>
    <g id="text_17">
     <!-- $\beta h = 0.8$ -->
     <defs>
      <path d="M 44.703125 16.09375 
Q 44.703125 8.796875 39.390625 3.6875 
Q 34.09375 -1.40625 24.796875 -1.40625 
Q 16.296875 -1.40625 10.59375 3.4375 
Q 4.90625 8.296875 4.90625 15.40625 
Q 4.90625 20.796875 7.75 25.25 
Q 10.59375 29.703125 17.703125 34.5 
Q 6 41.40625 6 51.40625 
Q 6 58.59375 11.546875 63.09375 
Q 17.09375 67.59375 25.59375 67.59375 
Q 32.90625 67.59375 37.796875 62.84375 
Q 42.703125 58.09375 42.703125 52 
Q 42.703125 46.40625 40.09375 42.703125 
Q 37.5 39 31.09375 35.296875 
Q 44.703125 27 44.703125 16.09375 
z
M 35.5 51.5 
Q 35.5 55.5 32.390625 58 
Q 29.296875 60.5 24.40625 60.5 
Q 19.796875 60.5 16.84375 57.84375 
Q 13.90625 55.203125 13.90625 51.796875 
Q 13.90625 47.5 16.34375 44.84375 
Q 18.796875 42.203125 24.90625 39.40625 
Q 35.5 45.203125 35.5 51.5 
z
M 27.59375 28.59375 
L 24.09375 30.5 
Q 18.90625 28.703125 15.84375 24.640625 
Q 12.796875 20.59375 12.796875 16.296875 
Q 12.796875 11.796875 16 8.75 
Q 19.203125 5.703125 25.203125 5.703125 
Q 29.796875 5.703125 33.296875 8.453125 
Q 36.796875 11.203125 36.796875 15.796875 
Q 36.796875 20 34.6875 22.953125 
Q 32.59375 25.90625 27.59375 28.59375 
z
" id="STIXGeneral-Regular-1d7ea"/>
     </defs>
     <g transform="translate(133.09 45.95625)scale(0.08 -0.08)">
      <use transform="translate(0 0.59375)" xlink:href="#STIXNonUnicode-Italic-e1d9"/>
      <use transform="translate(53.499985 0.59375)" xlink:href="#STIXGeneral-Italic-1d629"/>
      <use transform="translate(117.31998 0.59375)" xlink:href="#STIXGeneral-Regular-3d"/>
      <use transform="translate(200.939963 0.59375)" xlink:href="#STIXGeneral-Regular-1d7e2"/>
      <use transform="translate(250.939948 0.59375)" xlink:href="#STIXGeneral-Regular-2e"/>
      <use transform="translate(275.939932 0.59375)" xlink:href="#STIXGeneral-Regular-1d7ea"/>
     </g>
    </g>
    <g id="line2d_64">
     <path d="M 175.17 19.47875 
L 191.17 19.47875 
" style="fill:none;stroke:#eca300;stroke-linecap:square;"/>
    </g>
    <g id="line2d_65"/>
    <g id="text_18">
     <!-- $\beta h = 1.2$ -->
     <g transform="translate(197.57 22.27875)scale(0.08 -0.08)">
      <use transform="translate(0 0.59375)" xlink:href="#STIXNonUnicode-Italic-e1d9"/>
      <use transform="translate(53.499985 0.59375)" xlink:href="#STIXGeneral-Italic-1d629"/>
      <use transform="translate(117.31998 0.59375)" xlink:href="#STIXGeneral-Regular-3d"/>
      <use transform="translate(200.939963 0.59375)" xlink:href="#STIXGeneral-Regular-1d7e3"/>
      <use transform="translate(250.939948 0.59375)" xlink:href="#STIXGeneral-Regular-2e"/>
      <use transform="translate(275.939932 0.59375)" xlink:href="#STIXGeneral-Regular-1d7e4"/>
     </g>
    </g>
    <g id="line2d_66">
     <path d="M 175.17 31.3175 
L 191.17 31.3175 
" style="fill:none;stroke:#db7502;stroke-linecap:square;"/>
    </g>
    <g id="line2d_67"/>
    <g id="text_19">
     <!-- $\beta h = 1.6$ -->
     <defs>
      <path d="M 44.796875 66.796875 
L 43 61.5 
Q 31.59375 60.703125 23.640625 54.953125 
Q 15.703125 49.203125 12.203125 38.796875 
Q 18.09375 43.09375 25.90625 43.09375 
Q 34.5 43.09375 40.75 37.296875 
Q 47 31.5 47 22 
Q 47 12.296875 40.953125 5.4375 
Q 34.90625 -1.40625 25.703125 -1.40625 
Q 18 -1.40625 12.75 2.640625 
Q 7.5 6.703125 5.34375 12.75 
Q 3.203125 18.796875 3.203125 26.40625 
Q 3.203125 34.90625 6.203125 43.046875 
Q 9.203125 51.203125 14.296875 56.203125 
Q 21 62.796875 27.09375 65.046875 
Q 33.203125 67.296875 44.703125 68.40625 
z
M 39 20.703125 
Q 39 27.90625 34.890625 31.953125 
Q 30.796875 36 25.09375 36 
Q 19.90625 36 16 32.953125 
Q 12.09375 29.90625 11.203125 24 
Q 11.203125 15.90625 15.203125 10.796875 
Q 19.203125 5.703125 26 5.703125 
Q 31.5 5.703125 35.25 9.953125 
Q 39 14.203125 39 20.703125 
z
" id="STIXGeneral-Regular-1d7e8"/>
     </defs>
     <g transform="translate(197.57 34.1175)scale(0.08 -0.08)">
      <use transform="translate(0 0.59375)" xlink:href="#STIXNonUnicode-Italic-e1d9"/>
      <use transform="translate(53.499985 0.59375)" xlink:href="#STIXGeneral-Italic-1d629"/>
      <use transform="translate(117.31998 0.59375)" xlink:href="#STIXGeneral-Regular-3d"/>
      <use transform="translate(200.939963 0.59375)" xlink:href="#STIXGeneral-Regular-1d7e3"/>
      <use transform="translate(250.939948 0.59375)" xlink:href="#STIXGeneral-Regular-2e"/>
      <use transform="translate(275.939932 0.59375)" xlink:href="#STIXGeneral-Regular-1d7e8"/>
     </g>
    </g>
    <g id="line2d_68">
     <path d="M 175.17 43.15625 
L 191.17 43.15625 
" style="fill:none;stroke:#cc5101;stroke-linecap:square;"/>
    </g>
    <g id="line2d_69"/>
    <g id="text_20">
     <!-- $\beta h = 2.0$ -->
     <g transform="translate(197.57 45.95625)scale(0.08 -0.08)">
      <use transform="translate(0 0.59375)" xlink:href="#STIXNonUnicode-Italic-e1d9"/>
      <use transform="translate(53.499985 0.59375)" xlink:href="#STIXGeneral-Italic-1d629"/>
      <use transform="translate(117.31998 0.59375)" xlink:href="#STIXGeneral-Regular-3d"/>
      <use transform="translate(200.939963 0.59375)" xlink:href="#STIXGeneral-Regular-1d7e4"/>
      <use transform="translate(250.939948 0.59375)" xlink:href="#STIXGeneral-Regular-2e"/>
      <use transform="translate(275.939932 0.59375)" xlink:href="#STIXGeneral-Regular-1d7e2"/>
     </g>
    </g>
   </g>
  </g>
 </g>
 <defs>
  <clipPath id="p430d4dec77">
   <rect height="144" width="206.55" x="24.3" y="9"/>
  </clipPath>
 </defs>
</svg>
