<?xml version="1.0" encoding="utf-8" standalone="no"?>
<!DOCTYPE svg PUBLIC "-//W3C//DTD SVG 1.1//EN"
  "http://www.w3.org/Graphics/SVG/1.1/DTD/svg11.dtd">
<!-- Created with matplotlib (http://matplotlib.org/) -->
<svg height="252pt" version="1.1" viewBox="0 0 243 252" width="243pt" xmlns="http://www.w3.org/2000/svg" xmlns:xlink="http://www.w3.org/1999/xlink">
 <defs>
  <style type="text/css">
*{stroke-linecap:butt;stroke-linejoin:round;}
  </style>
 </defs>
 <g id="figure_1">
  <g id="patch_1">
   <path d="M 0 252 
L 243 252 
L 243 0 
L 0 0 
z
" style="fill:#ffffff;"/>
  </g>
  <g id="axes_1">
   <g id="patch_2">
    <path d="M 24.3 107.921739 
L 230.85 107.921739 
L 230.85 12.6 
L 24.3 12.6 
z
" style="fill:#ffffff;"/>
   </g>
   <g id="PolyCollection_1">
    <path clip-path="url(#p743dfaa2e3)" d="M 340.2 -138.326087 
L 340.2 179.413043 
L 374.22 179.413043 
L 374.22 -138.326087 
L 374.22 -138.326087 
L 340.2 -138.326087 
z
" style="fill:#dddddd;"/>
   </g>
   <g id="matplotlib.axis_1">
    <g id="xtick_1">
     <g id="line2d_1">
      <defs>
       <path d="M 0 0 
L 0 -2.5 
" id="m9f0dbd806b" style="stroke:#000000;stroke-width:0.8;"/>
      </defs>
      <g>
       <use style="stroke:#000000;stroke-width:0.8;" x="24.3" xlink:href="#m9f0dbd806b" y="107.921739"/>
      </g>
     </g>
     <g id="line2d_2">
      <defs>
       <path d="M 0 0 
L 0 2.5 
" id="m19b3724be0" style="stroke:#000000;stroke-width:0.8;"/>
      </defs>
      <g>
       <use style="stroke:#000000;stroke-width:0.8;" x="24.3" xlink:href="#m19b3724be0" y="12.6"/>
      </g>
     </g>
     <g id="text_1">
      <!-- $-4$ -->
      <defs>
       <path d="M 62.09375 22 
L 6.40625 22 
L 6.40625 28.59375 
L 62.09375 28.59375 
z
" id="STIXGeneral-Regular-2212"/>
       <path d="M 48.90625 23.59375 
L 45.59375 16.5 
L 37.296875 16.5 
L 37.296875 0 
L 29.40625 0 
L 29.40625 16.5 
L 1.09375 16.5 
L 1.09375 23.296875 
L 32.296875 67.59375 
L 37.296875 67.59375 
L 37.296875 23.59375 
z
M 29.40625 23.59375 
L 29.40625 51 
L 10 23.59375 
z
" id="STIXGeneral-Regular-1d7e6"/>
      </defs>
      <g transform="translate(19.54 117.500489)scale(0.08 -0.08)">
       <use transform="translate(0 0.40625)" xlink:href="#STIXGeneral-Regular-2212"/>
       <use transform="translate(68.499985 0.40625)" xlink:href="#STIXGeneral-Regular-1d7e6"/>
      </g>
     </g>
    </g>
    <g id="xtick_2">
     <g id="line2d_3">
      <g>
       <use style="stroke:#000000;stroke-width:0.8;" x="72.9" xlink:href="#m9f0dbd806b" y="107.921739"/>
      </g>
     </g>
     <g id="line2d_4">
      <g>
       <use style="stroke:#000000;stroke-width:0.8;" x="72.9" xlink:href="#m19b3724be0" y="12.6"/>
      </g>
     </g>
     <g id="text_2">
      <!-- $-3$ -->
      <defs>
       <path d="M 11.296875 49.203125 
L 4.203125 50.90625 
Q 6.40625 58.703125 11.5 63.140625 
Q 16.59375 67.59375 24.296875 67.59375 
Q 31.40625 67.59375 36.203125 63.09375 
Q 41 58.59375 41 51.90625 
Q 41 43 32.40625 37 
Q 38 35 41.046875 30.34375 
Q 44.09375 25.703125 44.09375 21 
Q 44.09375 11.296875 37.796875 5 
Q 31.40625 -1.40625 20.5 -1.40625 
Q 9.5 -1.40625 3.09375 5.59375 
L 7.796875 11.203125 
Q 12.90625 5.703125 20 5.703125 
Q 27.40625 5.703125 31.59375 9.296875 
Q 36.203125 13.203125 36.203125 19.09375 
Q 36.203125 24.296875 32.453125 27.796875 
Q 28.703125 31.296875 22.203125 32.203125 
L 15.796875 32.203125 
L 15.796875 34.296875 
L 20.59375 39.40625 
Q 25.09375 39.40625 29.09375 42.84375 
Q 33.09375 46.296875 33.09375 51.203125 
Q 33.09375 55.40625 30.4375 57.953125 
Q 27.796875 60.5 24 60.5 
Q 20 60.5 16.546875 57.640625 
Q 13.09375 54.796875 11.296875 49.203125 
z
" id="STIXGeneral-Regular-1d7e5"/>
      </defs>
      <g transform="translate(68.14 117.500489)scale(0.08 -0.08)">
       <use transform="translate(0 0.40625)" xlink:href="#STIXGeneral-Regular-2212"/>
       <use transform="translate(68.499985 0.40625)" xlink:href="#STIXGeneral-Regular-1d7e5"/>
      </g>
     </g>
    </g>
    <g id="xtick_3">
     <g id="line2d_5">
      <g>
       <use style="stroke:#000000;stroke-width:0.8;" x="121.5" xlink:href="#m9f0dbd806b" y="107.921739"/>
      </g>
     </g>
     <g id="line2d_6">
      <g>
       <use style="stroke:#000000;stroke-width:0.8;" x="121.5" xlink:href="#m19b3724be0" y="12.6"/>
      </g>
     </g>
     <g id="text_3">
      <!-- $-2$ -->
      <defs>
       <path d="M 46.90625 7.09375 
L 44 0 
L 3.5 0 
L 3.5 2.09375 
L 21 23.5 
L 21 23.40625 
L 26.59375 30.203125 
Q 30.5 34.90625 32.09375 36.953125 
Q 33.703125 39 35.203125 41.953125 
Q 36.703125 44.90625 36.703125 47.5 
Q 36.703125 53.703125 33.34375 57.09375 
Q 30 60.5 24.203125 60.5 
Q 19.59375 60.5 15.75 56.703125 
Q 11.90625 52.90625 10.90625 45.90625 
L 3.703125 47.59375 
Q 5.296875 56.5 11.1875 62.046875 
Q 17.09375 67.59375 24.90625 67.59375 
Q 33.59375 67.59375 39.09375 62.1875 
Q 44.59375 56.796875 44.59375 49.09375 
Q 44.59375 43.5 42.5 39.453125 
Q 40.40625 35.40625 33.703125 27 
L 17.703125 7.09375 
z
" id="STIXGeneral-Regular-1d7e4"/>
      </defs>
      <g transform="translate(116.74 117.500489)scale(0.08 -0.08)">
       <use transform="translate(0 0.40625)" xlink:href="#STIXGeneral-Regular-2212"/>
       <use transform="translate(68.499985 0.40625)" xlink:href="#STIXGeneral-Regular-1d7e4"/>
      </g>
     </g>
    </g>
    <g id="xtick_4">
     <g id="line2d_7">
      <g>
       <use style="stroke:#000000;stroke-width:0.8;" x="170.1" xlink:href="#m9f0dbd806b" y="107.921739"/>
      </g>
     </g>
     <g id="line2d_8">
      <g>
       <use style="stroke:#000000;stroke-width:0.8;" x="170.1" xlink:href="#m19b3724be0" y="12.6"/>
      </g>
     </g>
     <g id="text_4">
      <!-- $-1$ -->
      <defs>
       <path d="M 30.203125 0 
L 22.296875 0 
L 22.296875 57 
Q 20.09375 56 15.75 53.75 
Q 11.40625 51.5 10.796875 51.203125 
L 10.796875 58.5 
L 28.796875 67.703125 
L 30.203125 67.203125 
z
" id="STIXGeneral-Regular-1d7e3"/>
      </defs>
      <g transform="translate(165.34 117.500489)scale(0.08 -0.08)">
       <use transform="translate(0 0.296875)" xlink:href="#STIXGeneral-Regular-2212"/>
       <use transform="translate(68.499985 0.296875)" xlink:href="#STIXGeneral-Regular-1d7e3"/>
      </g>
     </g>
    </g>
    <g id="xtick_5">
     <g id="line2d_9">
      <g>
       <use style="stroke:#000000;stroke-width:0.8;" x="218.7" xlink:href="#m9f0dbd806b" y="107.921739"/>
      </g>
     </g>
     <g id="line2d_10">
      <g>
       <use style="stroke:#000000;stroke-width:0.8;" x="218.7" xlink:href="#m19b3724be0" y="12.6"/>
      </g>
     </g>
     <g id="text_5">
      <!-- $0$ -->
      <defs>
       <path d="M 47.703125 33 
Q 47.703125 23.796875 45.546875 16.34375 
Q 43.40625 8.90625 38.09375 3.75 
Q 32.796875 -1.40625 25 -1.40625 
Q 18.796875 -1.40625 14.25 1.6875 
Q 9.703125 4.796875 7.203125 10.046875 
Q 4.703125 15.296875 3.5 21.140625 
Q 2.296875 27 2.296875 33.59375 
Q 2.296875 42.90625 4.59375 50.34375 
Q 6.90625 57.796875 12.296875 62.6875 
Q 17.703125 67.59375 25.40625 67.59375 
Q 35.203125 67.59375 41.453125 57.9375 
Q 47.703125 48.296875 47.703125 33 
z
M 39.796875 33 
Q 39.796875 45.203125 35.75 52.84375 
Q 31.703125 60.5 25.203125 60.5 
Q 17.796875 60.5 14 52.75 
Q 10.203125 45 10.203125 33.40625 
Q 10.203125 28.203125 10.953125 23.546875 
Q 11.703125 18.90625 13.34375 14.75 
Q 15 10.59375 18 8.140625 
Q 21 5.703125 25 5.703125 
Q 30.09375 5.703125 33.546875 9.796875 
Q 37 13.90625 38.390625 19.84375 
Q 39.796875 25.796875 39.796875 33 
z
" id="STIXGeneral-Regular-1d7e2"/>
      </defs>
      <g transform="translate(216.7 117.500489)scale(0.08 -0.08)">
       <use transform="translate(0 0.40625)" xlink:href="#STIXGeneral-Regular-1d7e2"/>
      </g>
     </g>
    </g>
    <g id="xtick_6">
     <g id="line2d_11">
      <defs>
       <path d="M 0 0 
L 0 -1.5 
" id="m9180f72ac3" style="stroke:#000000;stroke-width:0.6;"/>
      </defs>
      <g>
       <use style="stroke:#000000;stroke-width:0.6;" x="48.6" xlink:href="#m9180f72ac3" y="107.921739"/>
      </g>
     </g>
     <g id="line2d_12">
      <defs>
       <path d="M 0 0 
L 0 1.5 
" id="mc215e3941d" style="stroke:#000000;stroke-width:0.6;"/>
      </defs>
      <g>
       <use style="stroke:#000000;stroke-width:0.6;" x="48.6" xlink:href="#mc215e3941d" y="12.6"/>
      </g>
     </g>
    </g>
    <g id="xtick_7">
     <g id="line2d_13">
      <g>
       <use style="stroke:#000000;stroke-width:0.6;" x="97.2" xlink:href="#m9180f72ac3" y="107.921739"/>
      </g>
     </g>
     <g id="line2d_14">
      <g>
       <use style="stroke:#000000;stroke-width:0.6;" x="97.2" xlink:href="#mc215e3941d" y="12.6"/>
      </g>
     </g>
    </g>
    <g id="xtick_8">
     <g id="line2d_15">
      <g>
       <use style="stroke:#000000;stroke-width:0.6;" x="145.8" xlink:href="#m9180f72ac3" y="107.921739"/>
      </g>
     </g>
     <g id="line2d_16">
      <g>
       <use style="stroke:#000000;stroke-width:0.6;" x="145.8" xlink:href="#mc215e3941d" y="12.6"/>
      </g>
     </g>
    </g>
    <g id="xtick_9">
     <g id="line2d_17">
      <g>
       <use style="stroke:#000000;stroke-width:0.6;" x="194.4" xlink:href="#m9180f72ac3" y="107.921739"/>
      </g>
     </g>
     <g id="line2d_18">
      <g>
       <use style="stroke:#000000;stroke-width:0.6;" x="194.4" xlink:href="#mc215e3941d" y="12.6"/>
      </g>
     </g>
    </g>
    <g id="text_6">
     <!-- $\beta\mu$ -->
     <defs>
      <path d="M 2.703125 -13.09375 
L 16 40.203125 
Q 18.796875 51.5 23.40625 57.90625 
Q 31.09375 68.296875 42.796875 68.296875 
Q 48.09375 68.296875 52 64.9375 
Q 55.90625 61.59375 55.90625 56.296875 
Q 55.90625 51.203125 53.203125 46.84375 
Q 50.5 42.5 45.703125 39.796875 
Q 49.09375 38.59375 51.140625 35.046875 
Q 53.203125 31.5 53.203125 27.09375 
Q 53.203125 14.59375 44.453125 6.59375 
Q 35.703125 -1.40625 25 -1.40625 
Q 18.296875 -1.40625 14.40625 2.203125 
L 10.703125 -12.59375 
Q 9.59375 -17 6.90625 -21.5 
L -1.203125 -21.5 
Q 1.59375 -17.40625 2.703125 -13.09375 
z
M 29.296875 37.5 
L 34.796875 42.90625 
Q 40.5 43.203125 44.140625 46.703125 
Q 47.796875 50.203125 47.796875 54.703125 
Q 47.796875 57.703125 45.84375 59.453125 
Q 43.90625 61.203125 40.5 61.203125 
Q 34.203125 61.203125 30.296875 55.84375 
Q 26.40625 50.5 24.59375 43.296875 
L 16.796875 11.796875 
Q 17.796875 9.09375 20.84375 7.390625 
Q 23.90625 5.703125 27.5 5.703125 
Q 34.296875 5.703125 39.640625 11.75 
Q 45 17.796875 45 25.703125 
Q 45 35.796875 28.90625 35.796875 
z
" id="STIXNonUnicode-Italic-e1d9"/>
      <path d="M 53.59375 45.296875 
L 45.5 12.796875 
Q 45 11 45 9.703125 
Q 45 6.09375 49.703125 6.09375 
L 49.296875 4.703125 
L 45.59375 -1 
Q 39.40625 -1 37.5 2.09375 
Q 36.59375 3.5 36.59375 6.40625 
L 21.59375 -1 
Q 16 -1 14.09375 1.5 
L 10.59375 -12.59375 
Q 9.296875 -17.90625 6.796875 -21.5 
L -0.90625 -21.5 
Q 2 -17 3.09375 -12.703125 
L 17.5 45.296875 
L 25.40625 45.296875 
L 17.90625 14.90625 
Q 17.40625 12.703125 17.40625 11.40625 
Q 17.40625 6.09375 23.90625 6.09375 
Q 26.703125 6.09375 31.34375 9.046875 
Q 36 12 38.5 16.09375 
L 45.703125 45.296875 
z
" id="STIXNonUnicode-Italic-e1e3"/>
     </defs>
     <g transform="translate(123.175 127.146739)scale(0.08 -0.08)">
      <use transform="translate(0 0.703125)" xlink:href="#STIXNonUnicode-Italic-e1d9"/>
      <use transform="translate(53.499985 0.703125)" xlink:href="#STIXNonUnicode-Italic-e1e3"/>
     </g>
    </g>
   </g>
   <g id="matplotlib.axis_2">
    <g id="ytick_1">
     <g id="line2d_19">
      <defs>
       <path d="M 0 0 
L 2.5 0 
" id="mab1f27a81a" style="stroke:#000000;stroke-width:0.8;"/>
      </defs>
      <g>
       <use style="stroke:#000000;stroke-width:0.8;" x="24.3" xlink:href="#mab1f27a81a" y="99.978261"/>
      </g>
     </g>
     <g id="line2d_20">
      <defs>
       <path d="M 0 0 
L -2.5 0 
" id="m92c2a420cb" style="stroke:#000000;stroke-width:0.8;"/>
      </defs>
      <g>
       <use style="stroke:#000000;stroke-width:0.8;" x="230.85" xlink:href="#m92c2a420cb" y="99.978261"/>
      </g>
     </g>
     <g id="text_7">
      <!-- $1$ -->
      <g transform="translate(16.8 103.017636)scale(0.08 -0.08)">
       <use transform="translate(0 0.296875)" xlink:href="#STIXGeneral-Regular-1d7e3"/>
      </g>
     </g>
    </g>
    <g id="ytick_2">
     <g id="line2d_21">
      <g>
       <use style="stroke:#000000;stroke-width:0.8;" x="24.3" xlink:href="#mab1f27a81a" y="60.26087"/>
      </g>
     </g>
     <g id="line2d_22">
      <g>
       <use style="stroke:#000000;stroke-width:0.8;" x="230.85" xlink:href="#m92c2a420cb" y="60.26087"/>
      </g>
     </g>
     <g id="text_8">
      <!-- $1.5$ -->
      <defs>
       <path d="M 18.09375 4.296875 
Q 18.09375 2.09375 16.4375 0.5 
Q 14.796875 -1.09375 12.5 -1.09375 
Q 10.203125 -1.09375 8.59375 0.5 
Q 7 2.09375 7 4.390625 
Q 7 6.703125 8.640625 8.34375 
Q 10.296875 10 12.59375 10 
Q 14.796875 10 16.4375 8.296875 
Q 18.09375 6.59375 18.09375 4.296875 
z
" id="STIXGeneral-Regular-2e"/>
       <path d="M 45.796875 67.59375 
L 42.59375 60.5 
L 24.90625 60.5 
L 18.5 47.796875 
Q 29.90625 46.203125 37.25 39.75 
Q 44.59375 33.296875 44.59375 22.59375 
Q 44.59375 12.703125 37.84375 5.640625 
Q 31.09375 -1.40625 21 -1.40625 
Q 10 -1.40625 3.59375 5.59375 
L 8.296875 11.203125 
Q 13.40625 5.703125 20.5 5.703125 
Q 27.90625 5.703125 32.296875 10.75 
Q 36.703125 15.796875 36.703125 22.59375 
Q 36.703125 30 30.09375 35.203125 
Q 23.40625 40.703125 9.40625 40.703125 
L 8 42.40625 
L 19.59375 67.59375 
z
" id="STIXGeneral-Regular-1d7e7"/>
      </defs>
      <g transform="translate(10.8 63.300245)scale(0.08 -0.08)">
       <use transform="translate(0 0.296875)" xlink:href="#STIXGeneral-Regular-1d7e3"/>
       <use transform="translate(49.999985 0.296875)" xlink:href="#STIXGeneral-Regular-2e"/>
       <use transform="translate(74.999969 0.296875)" xlink:href="#STIXGeneral-Regular-1d7e7"/>
      </g>
     </g>
    </g>
    <g id="ytick_3">
     <g id="line2d_23">
      <g>
       <use style="stroke:#000000;stroke-width:0.8;" x="24.3" xlink:href="#mab1f27a81a" y="20.543478"/>
      </g>
     </g>
     <g id="line2d_24">
      <g>
       <use style="stroke:#000000;stroke-width:0.8;" x="230.85" xlink:href="#m92c2a420cb" y="20.543478"/>
      </g>
     </g>
     <g id="text_9">
      <!-- $2$ -->
      <g transform="translate(16.8 23.582853)scale(0.08 -0.08)">
       <use transform="translate(0 0.40625)" xlink:href="#STIXGeneral-Regular-1d7e4"/>
      </g>
     </g>
    </g>
    <g id="ytick_4">
     <g id="line2d_25">
      <defs>
       <path d="M 0 0 
L 1.5 0 
" id="m3fd7af3f5b" style="stroke:#000000;stroke-width:0.6;"/>
      </defs>
      <g>
       <use style="stroke:#000000;stroke-width:0.6;" x="24.3" xlink:href="#m3fd7af3f5b" y="80.119565"/>
      </g>
     </g>
     <g id="line2d_26">
      <defs>
       <path d="M 0 0 
L -1.5 0 
" id="m3108083642" style="stroke:#000000;stroke-width:0.6;"/>
      </defs>
      <g>
       <use style="stroke:#000000;stroke-width:0.6;" x="230.85" xlink:href="#m3108083642" y="80.119565"/>
      </g>
     </g>
    </g>
    <g id="ytick_5">
     <g id="line2d_27">
      <g>
       <use style="stroke:#000000;stroke-width:0.6;" x="24.3" xlink:href="#m3fd7af3f5b" y="40.402174"/>
      </g>
     </g>
     <g id="line2d_28">
      <g>
       <use style="stroke:#000000;stroke-width:0.6;" x="230.85" xlink:href="#m3108083642" y="40.402174"/>
      </g>
     </g>
    </g>
    <g id="text_10">
     <!-- $n/n_0$ -->
     <defs>
      <path d="M 25.09375 45.90625 
L 23.90625 40.203125 
Q 28.40625 43.796875 32.203125 45.046875 
Q 36 46.296875 40.5 46.296875 
Q 45.203125 46.296875 48.09375 43.75 
Q 51 41.203125 51 37.203125 
Q 51 34.796875 50.40625 32.09375 
L 42.40625 0 
L 34.5 0 
L 42 30.40625 
Q 42.5 32.59375 42.5 33.90625 
Q 42.5 39.203125 36 39.203125 
Q 33.09375 39.203125 28.640625 36.703125 
Q 24.203125 34.203125 21.703125 30.203125 
L 14.203125 0 
L 6.296875 0 
L 17.203125 44 
L 24.296875 46.40625 
z
" id="STIXGeneral-Italic-1d62f"/>
      <path d="M 28.703125 67.59375 
L 5.90625 -1.40625 
L -0.90625 -1.40625 
L 22 67.59375 
z
" id="STIXGeneral-Regular-2f"/>
     </defs>
     <g transform="translate(7.13625 66.78087)rotate(-90)scale(0.08 -0.08)">
      <use transform="translate(0 0.40625)" xlink:href="#STIXGeneral-Italic-1d62f"/>
      <use transform="translate(48.699997 0.40625)" xlink:href="#STIXGeneral-Regular-2f"/>
      <use transform="translate(76.499985 0.40625)" xlink:href="#STIXGeneral-Italic-1d62f"/>
      <use transform="translate(125.199982 -13.182812)scale(0.7)" xlink:href="#STIXGeneral-Regular-1d7e2"/>
     </g>
    </g>
   </g>
   <g id="line2d_29">
    <path clip-path="url(#p743dfaa2e3)" d="M 24.3 99.978261 
L 28.019388 99.978261 
L 31.738776 99.978261 
L 35.458163 99.978261 
L 39.177551 99.978261 
L 42.896939 99.978261 
L 46.616327 99.978261 
L 50.335714 99.978261 
L 54.055102 99.978261 
L 57.77449 99.978261 
L 61.493878 99.978261 
L 65.213265 99.978261 
L 68.932653 99.978261 
L 72.652041 99.978261 
L 76.371429 99.978261 
L 80.090816 99.978261 
L 83.810204 99.978261 
L 87.529592 99.978261 
L 91.24898 99.978261 
L 94.968367 99.978261 
L 98.687755 99.978261 
L 102.407143 99.978261 
L 106.126531 99.978261 
L 109.845918 99.978261 
L 113.565306 99.978261 
L 117.284694 99.978261 
L 121.004082 99.978261 
L 124.723469 99.978261 
L 128.442857 99.978261 
L 132.162245 99.978261 
L 135.881633 99.978261 
L 139.60102 99.978261 
L 143.320408 99.978261 
L 147.039796 99.978261 
L 150.759184 99.978261 
L 154.478571 99.978261 
L 158.197959 99.978261 
L 161.917347 99.978261 
L 165.636735 99.978261 
L 169.356122 99.978261 
L 173.07551 99.978261 
L 176.794898 99.978261 
L 180.514286 99.978261 
L 184.233673 99.978261 
L 187.953061 99.978261 
L 191.672449 99.978261 
L 195.391837 99.978261 
L 199.111224 99.978261 
L 202.830612 99.978261 
L 206.55 99.978261 
" style="fill:none;stroke:#114b5f;stroke-dasharray:3.7,1.6;stroke-dashoffset:0;"/>
   </g>
   <g id="line2d_30">
    <path clip-path="url(#p743dfaa2e3)" d="M 24.3 97.905634 
L 28.019388 97.7395 
L 31.738776 97.559942 
L 35.458163 97.365856 
L 39.177551 97.156047 
L 42.896939 96.929219 
L 46.616327 96.683962 
L 50.335714 96.418749 
L 54.055102 96.131918 
L 57.77449 95.821665 
L 61.493878 95.486029 
L 65.213265 95.122876 
L 68.932653 94.729884 
L 72.652041 94.304525 
L 76.371429 93.844047 
L 80.090816 93.345448 
L 83.810204 92.805455 
L 87.529592 92.220498 
L 91.24898 91.586677 
L 94.968367 90.899733 
L 98.687755 90.155008 
L 102.407143 89.347406 
L 106.126531 88.471348 
L 109.845918 87.520724 
L 113.565306 86.48883 
L 117.284694 85.368313 
L 121.004082 84.151101 
L 124.723469 82.828318 
L 128.442857 81.390208 
L 132.162245 79.826029 
L 135.881633 78.123952 
L 139.60102 76.270935 
L 143.320408 74.252591 
L 147.039796 72.053035 
L 150.759184 69.654718 
L 154.478571 67.038232 
L 158.197959 64.182101 
L 161.917347 61.062542 
L 165.636735 57.653198 
L 169.356122 53.924837 
L 173.07551 49.845016 
L 176.794898 45.377699 
L 180.514286 40.482836 
L 184.233673 35.115878 
L 187.953061 29.227239 
L 191.672449 22.761687 
L 195.391837 15.657657 
L 199.111224 7.846473 
L 202.830612 -0.748527 
L 202.929437 -1 
" style="fill:none;stroke:#114b5f;stroke-dasharray:1,1.65;stroke-dashoffset:0;"/>
   </g>
   <g id="line2d_31">
    <path clip-path="url(#p743dfaa2e3)" d="M 24.3 97.93423 
L 28.019388 97.772845 
L 31.738776 97.598825 
L 35.458163 97.411201 
L 39.177551 97.20893 
L 42.896939 96.990896 
L 46.616327 96.755901 
L 50.335714 96.502661 
L 54.055102 96.229804 
L 57.77449 95.93586 
L 61.493878 95.619261 
L 65.213265 95.278332 
L 68.932653 94.911287 
L 72.652041 94.516228 
L 76.371429 94.091136 
L 80.090816 93.63387 
L 83.810204 93.142166 
L 87.529592 92.613633 
L 91.24898 92.045754 
L 94.968367 91.435893 
L 98.687755 90.781291 
L 102.407143 90.079085 
L 106.126531 89.326313 
L 109.845918 88.519937 
L 113.565306 87.656866 
L 117.284694 86.733991 
L 121.004082 85.748227 
L 124.723469 84.696572 
L 128.442857 83.576176 
L 132.162245 82.384438 
L 135.881633 81.119117 
L 139.60102 79.778478 
L 143.320408 78.361476 
L 147.039796 76.867975 
L 150.759184 75.299029 
L 154.478571 73.657222 
L 158.197959 71.947093 
L 161.917347 70.175649 
L 165.636735 68.353003 
L 169.356122 66.493151 
L 173.07551 64.614922 
L 176.794898 62.743141 
L 180.514286 60.910049 
L 184.233673 59.15703 
L 187.953061 57.53672 
L 191.672449 56.115581 
L 195.391837 54.977027 
L 199.111224 54.225236 
L 202.830612 53.989794 
L 206.55 54.43134 
" style="fill:none;stroke:#114b5f;stroke-linecap:square;"/>
   </g>
   <g id="patch_3">
    <path d="M 24.3 107.921739 
L 24.3 12.6 
" style="fill:none;stroke:#000000;stroke-linecap:square;stroke-linejoin:miter;stroke-width:0.8;"/>
   </g>
   <g id="patch_4">
    <path d="M 230.85 107.921739 
L 230.85 12.6 
" style="fill:none;stroke:#000000;stroke-linecap:square;stroke-linejoin:miter;stroke-width:0.8;"/>
   </g>
   <g id="patch_5">
    <path d="M 24.3 107.921739 
L 230.85 107.921739 
" style="fill:none;stroke:#000000;stroke-linecap:square;stroke-linejoin:miter;stroke-width:0.8;"/>
   </g>
   <g id="patch_6">
    <path d="M 24.3 12.6 
L 230.85 12.6 
" style="fill:none;stroke:#000000;stroke-linecap:square;stroke-linejoin:miter;stroke-width:0.8;"/>
   </g>
   <g id="legend_1">
    <g id="LineCollection_1">
     <path d="M 35.7 23.46 
L 35.7 17.46 
" style="fill:none;stroke:#114b5f;"/>
    </g>
    <g id="line2d_32"/>
    <g id="line2d_33">
     <defs>
      <path d="M -1.5 1.5 
L 1.5 1.5 
L 1.5 -1.5 
L -1.5 -1.5 
z
" id="m094355b6eb" style="stroke:#114b5f;stroke-linejoin:miter;stroke-width:0.75;"/>
     </defs>
     <g>
      <use style="fill:#2faeda;stroke:#114b5f;stroke-linejoin:miter;stroke-width:0.75;" x="35.7" xlink:href="#m094355b6eb" y="20.46"/>
     </g>
    </g>
    <g id="text_11">
     <!-- CL ($\beta h = 0.0$) -->
     <defs>
      <path d="M 64.40625 67.28125 
L 64.40625 56.890625 
Q 59.421875 61.53125 53.78125 63.8125 
Q 48.140625 66.109375 41.796875 66.109375 
Q 29.296875 66.109375 22.65625 58.46875 
Q 16.015625 50.828125 16.015625 36.375 
Q 16.015625 21.96875 22.65625 14.328125 
Q 29.296875 6.6875 41.796875 6.6875 
Q 48.140625 6.6875 53.78125 8.984375 
Q 59.421875 11.28125 64.40625 15.921875 
L 64.40625 5.609375 
Q 59.234375 2.09375 53.4375 0.328125 
Q 47.65625 -1.421875 41.21875 -1.421875 
Q 24.65625 -1.421875 15.125 8.703125 
Q 5.609375 18.84375 5.609375 36.375 
Q 5.609375 53.953125 15.125 64.078125 
Q 24.65625 74.21875 41.21875 74.21875 
Q 47.75 74.21875 53.53125 72.484375 
Q 59.328125 70.75 64.40625 67.28125 
z
" id="DejaVuSans-43"/>
      <path d="M 9.8125 72.90625 
L 19.671875 72.90625 
L 19.671875 8.296875 
L 55.171875 8.296875 
L 55.171875 0 
L 9.8125 0 
z
" id="DejaVuSans-4c"/>
      <path id="DejaVuSans-20"/>
      <path d="M 31 75.875 
Q 24.46875 64.65625 21.28125 53.65625 
Q 18.109375 42.671875 18.109375 31.390625 
Q 18.109375 20.125 21.3125 9.0625 
Q 24.515625 -2 31 -13.1875 
L 23.1875 -13.1875 
Q 15.875 -1.703125 12.234375 9.375 
Q 8.59375 20.453125 8.59375 31.390625 
Q 8.59375 42.28125 12.203125 53.3125 
Q 15.828125 64.359375 23.1875 75.875 
z
" id="DejaVuSans-28"/>
      <path d="M 31.09375 67.90625 
L 24.203125 40.5 
Q 28.59375 44 32.25 45.140625 
Q 35.90625 46.296875 40.5 46.296875 
Q 45.40625 46.296875 48.203125 43.796875 
Q 51 41.296875 51 36.59375 
Q 51 34.5 50.40625 32.09375 
L 42.40625 0 
L 34.5 0 
L 42 30.40625 
Q 42.5 32.59375 42.5 33.796875 
Q 42.5 39.203125 36 39.203125 
Q 33.09375 39.203125 28.640625 36.703125 
Q 24.203125 34.203125 21.703125 30.203125 
L 14.203125 0 
L 6.296875 0 
L 22.703125 66 
L 30.296875 68.40625 
z
" id="STIXGeneral-Italic-1d629"/>
      <path d="M 63.703125 32 
L 4.796875 32 
L 4.796875 38.59375 
L 63.703125 38.59375 
z
M 63.703125 12 
L 4.796875 12 
L 4.796875 18.59375 
L 63.703125 18.59375 
z
" id="STIXGeneral-Regular-3d"/>
      <path d="M 8.015625 75.875 
L 15.828125 75.875 
Q 23.140625 64.359375 26.78125 53.3125 
Q 30.421875 42.28125 30.421875 31.390625 
Q 30.421875 20.453125 26.78125 9.375 
Q 23.140625 -1.703125 15.828125 -13.1875 
L 8.015625 -13.1875 
Q 14.5 -2 17.703125 9.0625 
Q 20.90625 20.125 20.90625 31.390625 
Q 20.90625 42.671875 17.703125 53.65625 
Q 14.5 64.65625 8.015625 75.875 
z
" id="DejaVuSans-29"/>
     </defs>
     <g transform="translate(46.5 22.56)scale(0.06 -0.06)">
      <use transform="translate(0 0.125)" xlink:href="#DejaVuSans-43"/>
      <use transform="translate(69.824219 0.125)" xlink:href="#DejaVuSans-4c"/>
      <use transform="translate(125.537109 0.125)" xlink:href="#DejaVuSans-20"/>
      <use transform="translate(157.324219 0.125)" xlink:href="#DejaVuSans-28"/>
      <use transform="translate(196.337891 0.125)" xlink:href="#STIXNonUnicode-Italic-e1d9"/>
      <use transform="translate(249.837875 0.125)" xlink:href="#STIXGeneral-Italic-1d629"/>
      <use transform="translate(313.65787 0.125)" xlink:href="#STIXGeneral-Regular-3d"/>
      <use transform="translate(397.277853 0.125)" xlink:href="#STIXGeneral-Regular-1d7e2"/>
      <use transform="translate(447.277838 0.125)" xlink:href="#STIXGeneral-Regular-2e"/>
      <use transform="translate(472.277823 0.125)" xlink:href="#STIXGeneral-Regular-1d7e2"/>
      <use transform="translate(522.277808 0.125)" xlink:href="#DejaVuSans-29"/>
     </g>
    </g>
    <g id="line2d_34">
     <path d="M 29.7 29.339063 
L 41.7 29.339063 
" style="fill:none;stroke:#114b5f;stroke-dasharray:3.7,1.6;stroke-dashoffset:0;"/>
    </g>
    <g id="line2d_35"/>
    <g id="text_12">
     <!-- 1st order virial exp. -->
     <defs>
      <path d="M 12.40625 8.296875 
L 28.515625 8.296875 
L 28.515625 63.921875 
L 10.984375 60.40625 
L 10.984375 69.390625 
L 28.421875 72.90625 
L 38.28125 72.90625 
L 38.28125 8.296875 
L 54.390625 8.296875 
L 54.390625 0 
L 12.40625 0 
z
" id="DejaVuSans-31"/>
      <path d="M 44.28125 53.078125 
L 44.28125 44.578125 
Q 40.484375 46.53125 36.375 47.5 
Q 32.28125 48.484375 27.875 48.484375 
Q 21.1875 48.484375 17.84375 46.4375 
Q 14.5 44.390625 14.5 40.28125 
Q 14.5 37.15625 16.890625 35.375 
Q 19.28125 33.59375 26.515625 31.984375 
L 29.59375 31.296875 
Q 39.15625 29.25 43.1875 25.515625 
Q 47.21875 21.78125 47.21875 15.09375 
Q 47.21875 7.46875 41.1875 3.015625 
Q 35.15625 -1.421875 24.609375 -1.421875 
Q 20.21875 -1.421875 15.453125 -0.5625 
Q 10.6875 0.296875 5.421875 2 
L 5.421875 11.28125 
Q 10.40625 8.6875 15.234375 7.390625 
Q 20.0625 6.109375 24.8125 6.109375 
Q 31.15625 6.109375 34.5625 8.28125 
Q 37.984375 10.453125 37.984375 14.40625 
Q 37.984375 18.0625 35.515625 20.015625 
Q 33.0625 21.96875 24.703125 23.78125 
L 21.578125 24.515625 
Q 13.234375 26.265625 9.515625 29.90625 
Q 5.8125 33.546875 5.8125 39.890625 
Q 5.8125 47.609375 11.28125 51.796875 
Q 16.75 56 26.8125 56 
Q 31.78125 56 36.171875 55.265625 
Q 40.578125 54.546875 44.28125 53.078125 
z
" id="DejaVuSans-73"/>
      <path d="M 18.3125 70.21875 
L 18.3125 54.6875 
L 36.8125 54.6875 
L 36.8125 47.703125 
L 18.3125 47.703125 
L 18.3125 18.015625 
Q 18.3125 11.328125 20.140625 9.421875 
Q 21.96875 7.515625 27.59375 7.515625 
L 36.8125 7.515625 
L 36.8125 0 
L 27.59375 0 
Q 17.1875 0 13.234375 3.875 
Q 9.28125 7.765625 9.28125 18.015625 
L 9.28125 47.703125 
L 2.6875 47.703125 
L 2.6875 54.6875 
L 9.28125 54.6875 
L 9.28125 70.21875 
z
" id="DejaVuSans-74"/>
      <path d="M 30.609375 48.390625 
Q 23.390625 48.390625 19.1875 42.75 
Q 14.984375 37.109375 14.984375 27.296875 
Q 14.984375 17.484375 19.15625 11.84375 
Q 23.34375 6.203125 30.609375 6.203125 
Q 37.796875 6.203125 41.984375 11.859375 
Q 46.1875 17.53125 46.1875 27.296875 
Q 46.1875 37.015625 41.984375 42.703125 
Q 37.796875 48.390625 30.609375 48.390625 
z
M 30.609375 56 
Q 42.328125 56 49.015625 48.375 
Q 55.71875 40.765625 55.71875 27.296875 
Q 55.71875 13.875 49.015625 6.21875 
Q 42.328125 -1.421875 30.609375 -1.421875 
Q 18.84375 -1.421875 12.171875 6.21875 
Q 5.515625 13.875 5.515625 27.296875 
Q 5.515625 40.765625 12.171875 48.375 
Q 18.84375 56 30.609375 56 
z
" id="DejaVuSans-6f"/>
      <path d="M 41.109375 46.296875 
Q 39.59375 47.171875 37.8125 47.578125 
Q 36.03125 48 33.890625 48 
Q 26.265625 48 22.1875 43.046875 
Q 18.109375 38.09375 18.109375 28.8125 
L 18.109375 0 
L 9.078125 0 
L 9.078125 54.6875 
L 18.109375 54.6875 
L 18.109375 46.1875 
Q 20.953125 51.171875 25.484375 53.578125 
Q 30.03125 56 36.53125 56 
Q 37.453125 56 38.578125 55.875 
Q 39.703125 55.765625 41.0625 55.515625 
z
" id="DejaVuSans-72"/>
      <path d="M 45.40625 46.390625 
L 45.40625 75.984375 
L 54.390625 75.984375 
L 54.390625 0 
L 45.40625 0 
L 45.40625 8.203125 
Q 42.578125 3.328125 38.25 0.953125 
Q 33.9375 -1.421875 27.875 -1.421875 
Q 17.96875 -1.421875 11.734375 6.484375 
Q 5.515625 14.40625 5.515625 27.296875 
Q 5.515625 40.1875 11.734375 48.09375 
Q 17.96875 56 27.875 56 
Q 33.9375 56 38.25 53.625 
Q 42.578125 51.265625 45.40625 46.390625 
z
M 14.796875 27.296875 
Q 14.796875 17.390625 18.875 11.75 
Q 22.953125 6.109375 30.078125 6.109375 
Q 37.203125 6.109375 41.296875 11.75 
Q 45.40625 17.390625 45.40625 27.296875 
Q 45.40625 37.203125 41.296875 42.84375 
Q 37.203125 48.484375 30.078125 48.484375 
Q 22.953125 48.484375 18.875 42.84375 
Q 14.796875 37.203125 14.796875 27.296875 
z
" id="DejaVuSans-64"/>
      <path d="M 56.203125 29.59375 
L 56.203125 25.203125 
L 14.890625 25.203125 
Q 15.484375 15.921875 20.484375 11.0625 
Q 25.484375 6.203125 34.421875 6.203125 
Q 39.59375 6.203125 44.453125 7.46875 
Q 49.3125 8.734375 54.109375 11.28125 
L 54.109375 2.78125 
Q 49.265625 0.734375 44.1875 -0.34375 
Q 39.109375 -1.421875 33.890625 -1.421875 
Q 20.796875 -1.421875 13.15625 6.1875 
Q 5.515625 13.8125 5.515625 26.8125 
Q 5.515625 40.234375 12.765625 48.109375 
Q 20.015625 56 32.328125 56 
Q 43.359375 56 49.78125 48.890625 
Q 56.203125 41.796875 56.203125 29.59375 
z
M 47.21875 32.234375 
Q 47.125 39.59375 43.09375 43.984375 
Q 39.0625 48.390625 32.421875 48.390625 
Q 24.90625 48.390625 20.390625 44.140625 
Q 15.875 39.890625 15.1875 32.171875 
z
" id="DejaVuSans-65"/>
      <path d="M 2.984375 54.6875 
L 12.5 54.6875 
L 29.59375 8.796875 
L 46.6875 54.6875 
L 56.203125 54.6875 
L 35.6875 0 
L 23.484375 0 
z
" id="DejaVuSans-76"/>
      <path d="M 9.421875 54.6875 
L 18.40625 54.6875 
L 18.40625 0 
L 9.421875 0 
z
M 9.421875 75.984375 
L 18.40625 75.984375 
L 18.40625 64.59375 
L 9.421875 64.59375 
z
" id="DejaVuSans-69"/>
      <path d="M 34.28125 27.484375 
Q 23.390625 27.484375 19.1875 25 
Q 14.984375 22.515625 14.984375 16.5 
Q 14.984375 11.71875 18.140625 8.90625 
Q 21.296875 6.109375 26.703125 6.109375 
Q 34.1875 6.109375 38.703125 11.40625 
Q 43.21875 16.703125 43.21875 25.484375 
L 43.21875 27.484375 
z
M 52.203125 31.203125 
L 52.203125 0 
L 43.21875 0 
L 43.21875 8.296875 
Q 40.140625 3.328125 35.546875 0.953125 
Q 30.953125 -1.421875 24.3125 -1.421875 
Q 15.921875 -1.421875 10.953125 3.296875 
Q 6 8.015625 6 15.921875 
Q 6 25.140625 12.171875 29.828125 
Q 18.359375 34.515625 30.609375 34.515625 
L 43.21875 34.515625 
L 43.21875 35.40625 
Q 43.21875 41.609375 39.140625 45 
Q 35.0625 48.390625 27.6875 48.390625 
Q 23 48.390625 18.546875 47.265625 
Q 14.109375 46.140625 10.015625 43.890625 
L 10.015625 52.203125 
Q 14.9375 54.109375 19.578125 55.046875 
Q 24.21875 56 28.609375 56 
Q 40.484375 56 46.34375 49.84375 
Q 52.203125 43.703125 52.203125 31.203125 
z
" id="DejaVuSans-61"/>
      <path d="M 9.421875 75.984375 
L 18.40625 75.984375 
L 18.40625 0 
L 9.421875 0 
z
" id="DejaVuSans-6c"/>
      <path d="M 54.890625 54.6875 
L 35.109375 28.078125 
L 55.90625 0 
L 45.3125 0 
L 29.390625 21.484375 
L 13.484375 0 
L 2.875 0 
L 24.125 28.609375 
L 4.6875 54.6875 
L 15.28125 54.6875 
L 29.78125 35.203125 
L 44.28125 54.6875 
z
" id="DejaVuSans-78"/>
      <path d="M 18.109375 8.203125 
L 18.109375 -20.796875 
L 9.078125 -20.796875 
L 9.078125 54.6875 
L 18.109375 54.6875 
L 18.109375 46.390625 
Q 20.953125 51.265625 25.265625 53.625 
Q 29.59375 56 35.59375 56 
Q 45.5625 56 51.78125 48.09375 
Q 58.015625 40.1875 58.015625 27.296875 
Q 58.015625 14.40625 51.78125 6.484375 
Q 45.5625 -1.421875 35.59375 -1.421875 
Q 29.59375 -1.421875 25.265625 0.953125 
Q 20.953125 3.328125 18.109375 8.203125 
z
M 48.6875 27.296875 
Q 48.6875 37.203125 44.609375 42.84375 
Q 40.53125 48.484375 33.40625 48.484375 
Q 26.265625 48.484375 22.1875 42.84375 
Q 18.109375 37.203125 18.109375 27.296875 
Q 18.109375 17.390625 22.1875 11.75 
Q 26.265625 6.109375 33.40625 6.109375 
Q 40.53125 6.109375 44.609375 11.75 
Q 48.6875 17.390625 48.6875 27.296875 
z
" id="DejaVuSans-70"/>
      <path d="M 10.6875 12.40625 
L 21 12.40625 
L 21 0 
L 10.6875 0 
z
" id="DejaVuSans-2e"/>
     </defs>
     <g transform="translate(46.5 31.439063)scale(0.06 -0.06)">
      <use xlink:href="#DejaVuSans-31"/>
      <use x="63.623047" xlink:href="#DejaVuSans-73"/>
      <use x="115.722656" xlink:href="#DejaVuSans-74"/>
      <use x="154.931641" xlink:href="#DejaVuSans-20"/>
      <use x="186.71875" xlink:href="#DejaVuSans-6f"/>
      <use x="247.900391" xlink:href="#DejaVuSans-72"/>
      <use x="288.998047" xlink:href="#DejaVuSans-64"/>
      <use x="352.474609" xlink:href="#DejaVuSans-65"/>
      <use x="413.998047" xlink:href="#DejaVuSans-72"/>
      <use x="455.111328" xlink:href="#DejaVuSans-20"/>
      <use x="486.898438" xlink:href="#DejaVuSans-76"/>
      <use x="546.078125" xlink:href="#DejaVuSans-69"/>
      <use x="573.861328" xlink:href="#DejaVuSans-72"/>
      <use x="614.974609" xlink:href="#DejaVuSans-69"/>
      <use x="642.757812" xlink:href="#DejaVuSans-61"/>
      <use x="704.037109" xlink:href="#DejaVuSans-6c"/>
      <use x="731.820312" xlink:href="#DejaVuSans-20"/>
      <use x="763.607422" xlink:href="#DejaVuSans-65"/>
      <use x="825.115234" xlink:href="#DejaVuSans-78"/>
      <use x="884.294922" xlink:href="#DejaVuSans-70"/>
      <use x="947.771484" xlink:href="#DejaVuSans-2e"/>
     </g>
    </g>
    <g id="line2d_36">
     <path d="M 29.7 38.145937 
L 41.7 38.145937 
" style="fill:none;stroke:#114b5f;stroke-dasharray:1,1.65;stroke-dashoffset:0;"/>
    </g>
    <g id="line2d_37"/>
    <g id="text_13">
     <!-- 2nd order virial exp. -->
     <defs>
      <path d="M 19.1875 8.296875 
L 53.609375 8.296875 
L 53.609375 0 
L 7.328125 0 
L 7.328125 8.296875 
Q 12.9375 14.109375 22.625 23.890625 
Q 32.328125 33.6875 34.8125 36.53125 
Q 39.546875 41.84375 41.421875 45.53125 
Q 43.3125 49.21875 43.3125 52.78125 
Q 43.3125 58.59375 39.234375 62.25 
Q 35.15625 65.921875 28.609375 65.921875 
Q 23.96875 65.921875 18.8125 64.3125 
Q 13.671875 62.703125 7.8125 59.421875 
L 7.8125 69.390625 
Q 13.765625 71.78125 18.9375 73 
Q 24.125 74.21875 28.421875 74.21875 
Q 39.75 74.21875 46.484375 68.546875 
Q 53.21875 62.890625 53.21875 53.421875 
Q 53.21875 48.921875 51.53125 44.890625 
Q 49.859375 40.875 45.40625 35.40625 
Q 44.1875 33.984375 37.640625 27.21875 
Q 31.109375 20.453125 19.1875 8.296875 
z
" id="DejaVuSans-32"/>
      <path d="M 54.890625 33.015625 
L 54.890625 0 
L 45.90625 0 
L 45.90625 32.71875 
Q 45.90625 40.484375 42.875 44.328125 
Q 39.84375 48.1875 33.796875 48.1875 
Q 26.515625 48.1875 22.3125 43.546875 
Q 18.109375 38.921875 18.109375 30.90625 
L 18.109375 0 
L 9.078125 0 
L 9.078125 54.6875 
L 18.109375 54.6875 
L 18.109375 46.1875 
Q 21.34375 51.125 25.703125 53.5625 
Q 30.078125 56 35.796875 56 
Q 45.21875 56 50.046875 50.171875 
Q 54.890625 44.34375 54.890625 33.015625 
z
" id="DejaVuSans-6e"/>
     </defs>
     <g transform="translate(46.5 40.245937)scale(0.06 -0.06)">
      <use xlink:href="#DejaVuSans-32"/>
      <use x="63.623047" xlink:href="#DejaVuSans-6e"/>
      <use x="127.001953" xlink:href="#DejaVuSans-64"/>
      <use x="190.478516" xlink:href="#DejaVuSans-20"/>
      <use x="222.265625" xlink:href="#DejaVuSans-6f"/>
      <use x="283.447266" xlink:href="#DejaVuSans-72"/>
      <use x="324.544922" xlink:href="#DejaVuSans-64"/>
      <use x="388.021484" xlink:href="#DejaVuSans-65"/>
      <use x="449.544922" xlink:href="#DejaVuSans-72"/>
      <use x="490.658203" xlink:href="#DejaVuSans-20"/>
      <use x="522.445312" xlink:href="#DejaVuSans-76"/>
      <use x="581.625" xlink:href="#DejaVuSans-69"/>
      <use x="609.408203" xlink:href="#DejaVuSans-72"/>
      <use x="650.521484" xlink:href="#DejaVuSans-69"/>
      <use x="678.304688" xlink:href="#DejaVuSans-61"/>
      <use x="739.583984" xlink:href="#DejaVuSans-6c"/>
      <use x="767.367188" xlink:href="#DejaVuSans-20"/>
      <use x="799.154297" xlink:href="#DejaVuSans-65"/>
      <use x="860.662109" xlink:href="#DejaVuSans-78"/>
      <use x="919.841797" xlink:href="#DejaVuSans-70"/>
      <use x="983.318359" xlink:href="#DejaVuSans-2e"/>
     </g>
    </g>
    <g id="line2d_38">
     <path d="M 29.7 46.952813 
L 41.7 46.952813 
" style="fill:none;stroke:#114b5f;stroke-linecap:square;"/>
    </g>
    <g id="line2d_39"/>
    <g id="text_14">
     <!-- 3rd order virial exp. -->
     <defs>
      <path d="M 40.578125 39.3125 
Q 47.65625 37.796875 51.625 33 
Q 55.609375 28.21875 55.609375 21.1875 
Q 55.609375 10.40625 48.1875 4.484375 
Q 40.765625 -1.421875 27.09375 -1.421875 
Q 22.515625 -1.421875 17.65625 -0.515625 
Q 12.796875 0.390625 7.625 2.203125 
L 7.625 11.71875 
Q 11.71875 9.328125 16.59375 8.109375 
Q 21.484375 6.890625 26.8125 6.890625 
Q 36.078125 6.890625 40.9375 10.546875 
Q 45.796875 14.203125 45.796875 21.1875 
Q 45.796875 27.640625 41.28125 31.265625 
Q 36.765625 34.90625 28.71875 34.90625 
L 20.21875 34.90625 
L 20.21875 43.015625 
L 29.109375 43.015625 
Q 36.375 43.015625 40.234375 45.921875 
Q 44.09375 48.828125 44.09375 54.296875 
Q 44.09375 59.90625 40.109375 62.90625 
Q 36.140625 65.921875 28.71875 65.921875 
Q 24.65625 65.921875 20.015625 65.03125 
Q 15.375 64.15625 9.8125 62.3125 
L 9.8125 71.09375 
Q 15.4375 72.65625 20.34375 73.4375 
Q 25.25 74.21875 29.59375 74.21875 
Q 40.828125 74.21875 47.359375 69.109375 
Q 53.90625 64.015625 53.90625 55.328125 
Q 53.90625 49.265625 50.4375 45.09375 
Q 46.96875 40.921875 40.578125 39.3125 
z
" id="DejaVuSans-33"/>
     </defs>
     <g transform="translate(46.5 49.052813)scale(0.06 -0.06)">
      <use xlink:href="#DejaVuSans-33"/>
      <use x="63.623047" xlink:href="#DejaVuSans-72"/>
      <use x="104.720703" xlink:href="#DejaVuSans-64"/>
      <use x="168.197266" xlink:href="#DejaVuSans-20"/>
      <use x="199.984375" xlink:href="#DejaVuSans-6f"/>
      <use x="261.166016" xlink:href="#DejaVuSans-72"/>
      <use x="302.263672" xlink:href="#DejaVuSans-64"/>
      <use x="365.740234" xlink:href="#DejaVuSans-65"/>
      <use x="427.263672" xlink:href="#DejaVuSans-72"/>
      <use x="468.376953" xlink:href="#DejaVuSans-20"/>
      <use x="500.164062" xlink:href="#DejaVuSans-76"/>
      <use x="559.34375" xlink:href="#DejaVuSans-69"/>
      <use x="587.126953" xlink:href="#DejaVuSans-72"/>
      <use x="628.240234" xlink:href="#DejaVuSans-69"/>
      <use x="656.023438" xlink:href="#DejaVuSans-61"/>
      <use x="717.302734" xlink:href="#DejaVuSans-6c"/>
      <use x="745.085938" xlink:href="#DejaVuSans-20"/>
      <use x="776.873047" xlink:href="#DejaVuSans-65"/>
      <use x="838.380859" xlink:href="#DejaVuSans-78"/>
      <use x="897.560547" xlink:href="#DejaVuSans-70"/>
      <use x="961.037109" xlink:href="#DejaVuSans-2e"/>
     </g>
    </g>
   </g>
   <g id="LineCollection_2">
    <path clip-path="url(#p743dfaa2e3)" d="M 72.9 94.816081 
L 72.9 93.570839 
" style="fill:none;stroke:#114b5f;"/>
    <path clip-path="url(#p743dfaa2e3)" d="M 97.2 91.225866 
L 97.2 90.136927 
" style="fill:none;stroke:#114b5f;"/>
    <path clip-path="url(#p743dfaa2e3)" d="M 121.5 84.79697 
L 121.5 83.384187 
" style="fill:none;stroke:#114b5f;"/>
    <path clip-path="url(#p743dfaa2e3)" d="M 145.8 78.162099 
L 145.8 76.773748 
" style="fill:none;stroke:#114b5f;"/>
    <path clip-path="url(#p743dfaa2e3)" d="M 170.1 64.403323 
L 170.1 63.623696 
" style="fill:none;stroke:#114b5f;"/>
    <path clip-path="url(#p743dfaa2e3)" d="M 194.4 46.793712 
L 194.4 44.824349 
" style="fill:none;stroke:#114b5f;"/>
    <path clip-path="url(#p743dfaa2e3)" d="M 218.7 27.269995 
L 218.7 23.7195 
" style="fill:none;stroke:#114b5f;"/>
    <path clip-path="url(#p743dfaa2e3)" d="M 243 4.309305 
L 243 1.684909 
" style="fill:none;stroke:#114b5f;"/>
    <path clip-path="url(#p743dfaa2e3)" style="fill:none;stroke:#114b5f;"/>
    <path clip-path="url(#p743dfaa2e3)" style="fill:none;stroke:#114b5f;"/>
    <path clip-path="url(#p743dfaa2e3)" style="fill:none;stroke:#114b5f;"/>
    <path clip-path="url(#p743dfaa2e3)" style="fill:none;stroke:#114b5f;"/>
   </g>
   <g id="line2d_40">
    <g clip-path="url(#p743dfaa2e3)">
     <use style="fill:#2faeda;stroke:#114b5f;stroke-linejoin:miter;stroke-width:0.75;" x="72.9" xlink:href="#m094355b6eb" y="94.19346"/>
     <use style="fill:#2faeda;stroke:#114b5f;stroke-linejoin:miter;stroke-width:0.75;" x="97.2" xlink:href="#m094355b6eb" y="90.681396"/>
     <use style="fill:#2faeda;stroke:#114b5f;stroke-linejoin:miter;stroke-width:0.75;" x="121.5" xlink:href="#m094355b6eb" y="84.090578"/>
     <use style="fill:#2faeda;stroke:#114b5f;stroke-linejoin:miter;stroke-width:0.75;" x="145.8" xlink:href="#m094355b6eb" y="77.467923"/>
     <use style="fill:#2faeda;stroke:#114b5f;stroke-linejoin:miter;stroke-width:0.75;" x="170.1" xlink:href="#m094355b6eb" y="64.01351"/>
     <use style="fill:#2faeda;stroke:#114b5f;stroke-linejoin:miter;stroke-width:0.75;" x="194.4" xlink:href="#m094355b6eb" y="45.809031"/>
     <use style="fill:#2faeda;stroke:#114b5f;stroke-linejoin:miter;stroke-width:0.75;" x="218.7" xlink:href="#m094355b6eb" y="25.494748"/>
     <use style="fill:#2faeda;stroke:#114b5f;stroke-linejoin:miter;stroke-width:0.75;" x="243" xlink:href="#m094355b6eb" y="2.997107"/>
     <use style="fill:#2faeda;stroke:#114b5f;stroke-linejoin:miter;stroke-width:0.75;" x="248.14166" xlink:href="#m094355b6eb" y="-1"/>
    </g>
   </g>
  </g>
  <g id="axes_2">
   <g id="patch_7">
    <path d="M 24.3 231.84 
L 230.85 231.84 
L 230.85 136.518261 
L 24.3 136.518261 
z
" style="fill:#ffffff;"/>
   </g>
   <g id="PolyCollection_2">
    <path clip-path="url(#p45bb98bf09)" d="M 340.2 140.851067 
L 340.2 314.16332 
L 374.22 314.16332 
L 374.22 140.851067 
L 374.22 140.851067 
L 340.2 140.851067 
z
" style="fill:#dddddd;"/>
   </g>
   <g id="matplotlib.axis_3">
    <g id="xtick_10">
     <g id="line2d_41">
      <g>
       <use style="stroke:#000000;stroke-width:0.8;" x="24.3" xlink:href="#m9f0dbd806b" y="231.84"/>
      </g>
     </g>
     <g id="line2d_42">
      <g>
       <use style="stroke:#000000;stroke-width:0.8;" x="24.3" xlink:href="#m19b3724be0" y="136.518261"/>
      </g>
     </g>
     <g id="text_15">
      <!-- $-4$ -->
      <g transform="translate(19.54 241.41875)scale(0.08 -0.08)">
       <use transform="translate(0 0.40625)" xlink:href="#STIXGeneral-Regular-2212"/>
       <use transform="translate(68.499985 0.40625)" xlink:href="#STIXGeneral-Regular-1d7e6"/>
      </g>
     </g>
    </g>
    <g id="xtick_11">
     <g id="line2d_43">
      <g>
       <use style="stroke:#000000;stroke-width:0.8;" x="72.9" xlink:href="#m9f0dbd806b" y="231.84"/>
      </g>
     </g>
     <g id="line2d_44">
      <g>
       <use style="stroke:#000000;stroke-width:0.8;" x="72.9" xlink:href="#m19b3724be0" y="136.518261"/>
      </g>
     </g>
     <g id="text_16">
      <!-- $-3$ -->
      <g transform="translate(68.14 241.41875)scale(0.08 -0.08)">
       <use transform="translate(0 0.40625)" xlink:href="#STIXGeneral-Regular-2212"/>
       <use transform="translate(68.499985 0.40625)" xlink:href="#STIXGeneral-Regular-1d7e5"/>
      </g>
     </g>
    </g>
    <g id="xtick_12">
     <g id="line2d_45">
      <g>
       <use style="stroke:#000000;stroke-width:0.8;" x="121.5" xlink:href="#m9f0dbd806b" y="231.84"/>
      </g>
     </g>
     <g id="line2d_46">
      <g>
       <use style="stroke:#000000;stroke-width:0.8;" x="121.5" xlink:href="#m19b3724be0" y="136.518261"/>
      </g>
     </g>
     <g id="text_17">
      <!-- $-2$ -->
      <g transform="translate(116.74 241.41875)scale(0.08 -0.08)">
       <use transform="translate(0 0.40625)" xlink:href="#STIXGeneral-Regular-2212"/>
       <use transform="translate(68.499985 0.40625)" xlink:href="#STIXGeneral-Regular-1d7e4"/>
      </g>
     </g>
    </g>
    <g id="xtick_13">
     <g id="line2d_47">
      <g>
       <use style="stroke:#000000;stroke-width:0.8;" x="170.1" xlink:href="#m9f0dbd806b" y="231.84"/>
      </g>
     </g>
     <g id="line2d_48">
      <g>
       <use style="stroke:#000000;stroke-width:0.8;" x="170.1" xlink:href="#m19b3724be0" y="136.518261"/>
      </g>
     </g>
     <g id="text_18">
      <!-- $-1$ -->
      <g transform="translate(165.34 241.41875)scale(0.08 -0.08)">
       <use transform="translate(0 0.296875)" xlink:href="#STIXGeneral-Regular-2212"/>
       <use transform="translate(68.499985 0.296875)" xlink:href="#STIXGeneral-Regular-1d7e3"/>
      </g>
     </g>
    </g>
    <g id="xtick_14">
     <g id="line2d_49">
      <g>
       <use style="stroke:#000000;stroke-width:0.8;" x="218.7" xlink:href="#m9f0dbd806b" y="231.84"/>
      </g>
     </g>
     <g id="line2d_50">
      <g>
       <use style="stroke:#000000;stroke-width:0.8;" x="218.7" xlink:href="#m19b3724be0" y="136.518261"/>
      </g>
     </g>
     <g id="text_19">
      <!-- $0$ -->
      <g transform="translate(216.7 241.41875)scale(0.08 -0.08)">
       <use transform="translate(0 0.40625)" xlink:href="#STIXGeneral-Regular-1d7e2"/>
      </g>
     </g>
    </g>
    <g id="xtick_15">
     <g id="line2d_51">
      <g>
       <use style="stroke:#000000;stroke-width:0.6;" x="48.6" xlink:href="#m9180f72ac3" y="231.84"/>
      </g>
     </g>
     <g id="line2d_52">
      <g>
       <use style="stroke:#000000;stroke-width:0.6;" x="48.6" xlink:href="#mc215e3941d" y="136.518261"/>
      </g>
     </g>
    </g>
    <g id="xtick_16">
     <g id="line2d_53">
      <g>
       <use style="stroke:#000000;stroke-width:0.6;" x="97.2" xlink:href="#m9180f72ac3" y="231.84"/>
      </g>
     </g>
     <g id="line2d_54">
      <g>
       <use style="stroke:#000000;stroke-width:0.6;" x="97.2" xlink:href="#mc215e3941d" y="136.518261"/>
      </g>
     </g>
    </g>
    <g id="xtick_17">
     <g id="line2d_55">
      <g>
       <use style="stroke:#000000;stroke-width:0.6;" x="145.8" xlink:href="#m9180f72ac3" y="231.84"/>
      </g>
     </g>
     <g id="line2d_56">
      <g>
       <use style="stroke:#000000;stroke-width:0.6;" x="145.8" xlink:href="#mc215e3941d" y="136.518261"/>
      </g>
     </g>
    </g>
    <g id="xtick_18">
     <g id="line2d_57">
      <g>
       <use style="stroke:#000000;stroke-width:0.6;" x="194.4" xlink:href="#m9180f72ac3" y="231.84"/>
      </g>
     </g>
     <g id="line2d_58">
      <g>
       <use style="stroke:#000000;stroke-width:0.6;" x="194.4" xlink:href="#mc215e3941d" y="136.518261"/>
      </g>
     </g>
    </g>
    <g id="text_20">
     <!-- $\beta\mu$ -->
     <g transform="translate(123.175 251.065)scale(0.08 -0.08)">
      <use transform="translate(0 0.703125)" xlink:href="#STIXNonUnicode-Italic-e1d9"/>
      <use transform="translate(53.499985 0.703125)" xlink:href="#STIXNonUnicode-Italic-e1e3"/>
     </g>
    </g>
   </g>
   <g id="matplotlib.axis_4">
    <g id="ytick_6">
     <g id="line2d_59">
      <g>
       <use style="stroke:#000000;stroke-width:0.8;" x="24.3" xlink:href="#mab1f27a81a" y="227.507194"/>
      </g>
     </g>
     <g id="line2d_60">
      <g>
       <use style="stroke:#000000;stroke-width:0.8;" x="230.85" xlink:href="#m92c2a420cb" y="227.507194"/>
      </g>
     </g>
     <g id="text_21">
      <!-- $2$ -->
      <g transform="translate(16.8 230.546569)scale(0.08 -0.08)">
       <use transform="translate(0 0.40625)" xlink:href="#STIXGeneral-Regular-1d7e4"/>
      </g>
     </g>
    </g>
    <g id="ytick_7">
     <g id="line2d_61">
      <g>
       <use style="stroke:#000000;stroke-width:0.8;" x="24.3" xlink:href="#mab1f27a81a" y="205.843162"/>
      </g>
     </g>
     <g id="line2d_62">
      <g>
       <use style="stroke:#000000;stroke-width:0.8;" x="230.85" xlink:href="#m92c2a420cb" y="205.843162"/>
      </g>
     </g>
     <g id="text_22">
      <!-- $2.5$ -->
      <g transform="translate(10.8 208.882537)scale(0.08 -0.08)">
       <use transform="translate(0 0.40625)" xlink:href="#STIXGeneral-Regular-1d7e4"/>
       <use transform="translate(49.999985 0.40625)" xlink:href="#STIXGeneral-Regular-2e"/>
       <use transform="translate(74.999969 0.40625)" xlink:href="#STIXGeneral-Regular-1d7e7"/>
      </g>
     </g>
    </g>
    <g id="ytick_8">
     <g id="line2d_63">
      <g>
       <use style="stroke:#000000;stroke-width:0.8;" x="24.3" xlink:href="#mab1f27a81a" y="184.17913"/>
      </g>
     </g>
     <g id="line2d_64">
      <g>
       <use style="stroke:#000000;stroke-width:0.8;" x="230.85" xlink:href="#m92c2a420cb" y="184.17913"/>
      </g>
     </g>
     <g id="text_23">
      <!-- $3$ -->
      <g transform="translate(16.8 187.218505)scale(0.08 -0.08)">
       <use transform="translate(0 0.40625)" xlink:href="#STIXGeneral-Regular-1d7e5"/>
      </g>
     </g>
    </g>
    <g id="ytick_9">
     <g id="line2d_65">
      <g>
       <use style="stroke:#000000;stroke-width:0.8;" x="24.3" xlink:href="#mab1f27a81a" y="162.515099"/>
      </g>
     </g>
     <g id="line2d_66">
      <g>
       <use style="stroke:#000000;stroke-width:0.8;" x="230.85" xlink:href="#m92c2a420cb" y="162.515099"/>
      </g>
     </g>
     <g id="text_24">
      <!-- $3.5$ -->
      <g transform="translate(10.8 165.554474)scale(0.08 -0.08)">
       <use transform="translate(0 0.40625)" xlink:href="#STIXGeneral-Regular-1d7e5"/>
       <use transform="translate(49.999985 0.40625)" xlink:href="#STIXGeneral-Regular-2e"/>
       <use transform="translate(74.999969 0.40625)" xlink:href="#STIXGeneral-Regular-1d7e7"/>
      </g>
     </g>
    </g>
    <g id="ytick_10">
     <g id="line2d_67">
      <g>
       <use style="stroke:#000000;stroke-width:0.8;" x="24.3" xlink:href="#mab1f27a81a" y="140.851067"/>
      </g>
     </g>
     <g id="line2d_68">
      <g>
       <use style="stroke:#000000;stroke-width:0.8;" x="230.85" xlink:href="#m92c2a420cb" y="140.851067"/>
      </g>
     </g>
     <g id="text_25">
      <!-- $4.0$ -->
      <g transform="translate(10.8 143.890442)scale(0.08 -0.08)">
       <use transform="translate(0 0.40625)" xlink:href="#STIXGeneral-Regular-1d7e6"/>
       <use transform="translate(49.999985 0.40625)" xlink:href="#STIXGeneral-Regular-2e"/>
       <use transform="translate(74.999969 0.40625)" xlink:href="#STIXGeneral-Regular-1d7e2"/>
      </g>
     </g>
    </g>
    <g id="ytick_11">
     <g id="line2d_69">
      <g>
       <use style="stroke:#000000;stroke-width:0.6;" x="24.3" xlink:href="#m3fd7af3f5b" y="216.675178"/>
      </g>
     </g>
     <g id="line2d_70">
      <g>
       <use style="stroke:#000000;stroke-width:0.6;" x="230.85" xlink:href="#m3108083642" y="216.675178"/>
      </g>
     </g>
    </g>
    <g id="ytick_12">
     <g id="line2d_71">
      <g>
       <use style="stroke:#000000;stroke-width:0.6;" x="24.3" xlink:href="#m3fd7af3f5b" y="195.011146"/>
      </g>
     </g>
     <g id="line2d_72">
      <g>
       <use style="stroke:#000000;stroke-width:0.6;" x="230.85" xlink:href="#m3108083642" y="195.011146"/>
      </g>
     </g>
    </g>
    <g id="ytick_13">
     <g id="line2d_73">
      <g>
       <use style="stroke:#000000;stroke-width:0.6;" x="24.3" xlink:href="#m3fd7af3f5b" y="173.347115"/>
      </g>
     </g>
     <g id="line2d_74">
      <g>
       <use style="stroke:#000000;stroke-width:0.6;" x="230.85" xlink:href="#m3108083642" y="173.347115"/>
      </g>
     </g>
    </g>
    <g id="ytick_14">
     <g id="line2d_75">
      <g>
       <use style="stroke:#000000;stroke-width:0.6;" x="24.3" xlink:href="#m3fd7af3f5b" y="151.683083"/>
      </g>
     </g>
     <g id="line2d_76">
      <g>
       <use style="stroke:#000000;stroke-width:0.6;" x="230.85" xlink:href="#m3108083642" y="151.683083"/>
      </g>
     </g>
    </g>
    <g id="text_26">
     <!-- $n/n_0$ -->
     <g transform="translate(7.13625 190.69913)rotate(-90)scale(0.08 -0.08)">
      <use transform="translate(0 0.40625)" xlink:href="#STIXGeneral-Italic-1d62f"/>
      <use transform="translate(48.699997 0.40625)" xlink:href="#STIXGeneral-Regular-2f"/>
      <use transform="translate(76.499985 0.40625)" xlink:href="#STIXGeneral-Italic-1d62f"/>
      <use transform="translate(125.199982 -13.182812)scale(0.7)" xlink:href="#STIXGeneral-Regular-1d7e2"/>
     </g>
    </g>
   </g>
   <g id="line2d_77">
    <path clip-path="url(#p45bb98bf09)" d="M 24.3 157.965305 
L 28.019388 158.452707 
L 31.738776 158.97103 
L 35.458163 159.521688 
L 39.177551 160.106086 
L 42.896939 160.725608 
L 46.616327 161.38161 
L 50.335714 162.075402 
L 54.055102 162.808239 
L 57.77449 163.581302 
L 61.493878 164.395689 
L 65.213265 165.252399 
L 68.932653 166.152314 
L 72.652041 167.096188 
L 76.371429 168.084634 
L 80.090816 169.118111 
L 83.810204 170.196909 
L 87.529592 171.321144 
L 91.24898 172.490749 
L 94.968367 173.705466 
L 98.687755 174.964843 
L 102.407143 176.268233 
L 106.126531 177.614794 
L 109.845918 179.00349 
L 113.565306 180.433099 
L 117.284694 181.902216 
L 121.004082 183.409267 
L 124.723469 184.952509 
L 128.442857 186.530052 
L 132.162245 188.13986 
L 135.881633 189.779771 
L 139.60102 191.447507 
L 143.320408 193.140685 
L 147.039796 194.856832 
L 150.759184 196.593397 
L 154.478571 198.347765 
L 158.197959 200.117268 
L 161.917347 201.899202 
L 165.636735 203.690836 
L 169.356122 205.489429 
L 173.07551 207.292242 
L 176.794898 209.096552 
L 180.514286 210.899666 
L 184.233673 212.698934 
L 187.953061 214.491763 
L 191.672449 216.275627 
L 195.391837 218.048081 
L 199.111224 219.806768 
L 202.830612 221.549428 
L 206.55 223.273907 
" style="fill:none;stroke:#cc5101;stroke-dasharray:3.7,1.6;stroke-dashoffset:0;"/>
   </g>
   <g id="line2d_78">
    <path clip-path="url(#p45bb98bf09)" d="M 24.3 156.834781 
L 28.019388 157.231564 
L 31.738776 157.651947 
L 35.458163 158.09674 
L 39.177551 158.566697 
L 42.896939 159.062494 
L 46.616327 159.58472 
L 50.335714 160.13385 
L 54.055102 160.710233 
L 57.77449 161.314068 
L 61.493878 161.945381 
L 65.213265 162.604007 
L 68.932653 163.289563 
L 72.652041 164.001423 
L 76.371429 164.7387 
L 80.090816 165.500213 
L 83.810204 166.284469 
L 87.529592 167.089637 
L 91.24898 167.913522 
L 94.968367 168.753542 
L 98.687755 169.606705 
L 102.407143 170.469585 
L 106.126531 171.338296 
L 109.845918 172.208469 
L 113.565306 173.075227 
L 117.284694 173.933154 
L 121.004082 174.77627 
L 124.723469 175.597995 
L 128.442857 176.391113 
L 132.162245 177.147733 
L 135.881633 177.859239 
L 139.60102 178.516238 
L 143.320408 179.108501 
L 147.039796 179.624891 
L 150.759184 180.053283 
L 154.478571 180.380476 
L 158.197959 180.59209 
L 161.917347 180.672446 
L 165.636735 180.604438 
L 169.356122 180.36938 
L 173.07551 179.946836 
L 176.794898 179.314428 
L 180.514286 178.447616 
L 184.233673 177.319452 
L 187.953061 175.900296 
L 191.672449 174.157496 
L 195.391837 172.055024 
L 199.111224 169.553065 
L 202.830612 166.607544 
L 206.55 163.169591 
" style="fill:none;stroke:#cc5101;stroke-dasharray:1,1.65;stroke-dashoffset:0;"/>
   </g>
   <g id="line2d_79">
    <path clip-path="url(#p45bb98bf09)" d="M 24.3 156.893462 
L 28.019388 157.299991 
L 31.738776 157.73174 
L 35.458163 158.189793 
L 39.177551 158.675218 
L 42.896939 159.189063 
L 46.616327 159.732346 
L 50.335714 160.306048 
L 54.055102 160.911106 
L 57.77449 161.548409 
L 61.493878 162.218788 
L 65.213265 162.92302 
L 68.932653 163.661822 
L 72.652041 164.43586 
L 76.371429 165.245753 
L 80.090816 166.092086 
L 83.810204 166.975436 
L 87.529592 167.896392 
L 91.24898 168.855597 
L 94.968367 169.853799 
L 98.687755 170.891905 
L 102.407143 171.971068 
L 106.126531 173.092774 
L 109.845918 174.258961 
L 113.565306 175.472162 
L 117.284694 176.735671 
L 121.004082 178.053745 
L 124.723469 179.431851 
L 128.442857 180.876955 
L 132.162245 182.397862 
L 135.881633 184.005637 
L 139.60102 185.714092 
L 143.320408 187.540373 
L 147.039796 189.505661 
L 150.759184 191.636011 
L 154.478571 193.963351 
L 158.197959 196.526684 
L 161.917347 199.373516 
L 165.636735 202.561581 
L 169.356122 206.160901 
L 173.07551 210.256259 
L 176.794898 214.950168 
L 180.514286 220.366438 
L 184.233673 226.654462 
L 187.953061 233.994374 
L 191.672449 242.603247 
L 195.391837 252.742568 
L 195.47173 253 
" style="fill:none;stroke:#cc5101;stroke-linecap:square;"/>
   </g>
   <g id="patch_8">
    <path d="M 24.3 231.84 
L 24.3 136.518261 
" style="fill:none;stroke:#000000;stroke-linecap:square;stroke-linejoin:miter;stroke-width:0.8;"/>
   </g>
   <g id="patch_9">
    <path d="M 230.85 231.84 
L 230.85 136.518261 
" style="fill:none;stroke:#000000;stroke-linecap:square;stroke-linejoin:miter;stroke-width:0.8;"/>
   </g>
   <g id="patch_10">
    <path d="M 24.3 231.84 
L 230.85 231.84 
" style="fill:none;stroke:#000000;stroke-linecap:square;stroke-linejoin:miter;stroke-width:0.8;"/>
   </g>
   <g id="patch_11">
    <path d="M 24.3 136.518261 
L 230.85 136.518261 
" style="fill:none;stroke:#000000;stroke-linecap:square;stroke-linejoin:miter;stroke-width:0.8;"/>
   </g>
   <g id="legend_2">
    <g id="LineCollection_3">
     <path d="M 35.7 199.599375 
L 35.7 193.599375 
" style="fill:none;stroke:#cc5101;"/>
    </g>
    <g id="line2d_80"/>
    <g id="line2d_81">
     <defs>
      <path d="M -1.5 1.5 
L 1.5 1.5 
L 1.5 -1.5 
L -1.5 -1.5 
z
" id="m7085c15425" style="stroke:#cc5101;stroke-linejoin:miter;stroke-width:0.75;"/>
     </defs>
     <g>
      <use style="fill:#fe8435;stroke:#cc5101;stroke-linejoin:miter;stroke-width:0.75;" x="35.7" xlink:href="#m7085c15425" y="196.599375"/>
     </g>
    </g>
    <g id="text_27">
     <!-- CL ($\beta h = 2.0$) -->
     <g transform="translate(46.5 198.699375)scale(0.06 -0.06)">
      <use transform="translate(0 0.125)" xlink:href="#DejaVuSans-43"/>
      <use transform="translate(69.824219 0.125)" xlink:href="#DejaVuSans-4c"/>
      <use transform="translate(125.537109 0.125)" xlink:href="#DejaVuSans-20"/>
      <use transform="translate(157.324219 0.125)" xlink:href="#DejaVuSans-28"/>
      <use transform="translate(196.337891 0.125)" xlink:href="#STIXNonUnicode-Italic-e1d9"/>
      <use transform="translate(249.837875 0.125)" xlink:href="#STIXGeneral-Italic-1d629"/>
      <use transform="translate(313.65787 0.125)" xlink:href="#STIXGeneral-Regular-3d"/>
      <use transform="translate(397.277853 0.125)" xlink:href="#STIXGeneral-Regular-1d7e4"/>
      <use transform="translate(447.277838 0.125)" xlink:href="#STIXGeneral-Regular-2e"/>
      <use transform="translate(472.277823 0.125)" xlink:href="#STIXGeneral-Regular-1d7e2"/>
      <use transform="translate(522.277808 0.125)" xlink:href="#DejaVuSans-29"/>
     </g>
    </g>
    <g id="line2d_82">
     <path d="M 29.7 205.478438 
L 41.7 205.478438 
" style="fill:none;stroke:#cc5101;stroke-dasharray:3.7,1.6;stroke-dashoffset:0;"/>
    </g>
    <g id="line2d_83"/>
    <g id="text_28">
     <!-- 1st order virial exp. -->
     <g transform="translate(46.5 207.578438)scale(0.06 -0.06)">
      <use xlink:href="#DejaVuSans-31"/>
      <use x="63.623047" xlink:href="#DejaVuSans-73"/>
      <use x="115.722656" xlink:href="#DejaVuSans-74"/>
      <use x="154.931641" xlink:href="#DejaVuSans-20"/>
      <use x="186.71875" xlink:href="#DejaVuSans-6f"/>
      <use x="247.900391" xlink:href="#DejaVuSans-72"/>
      <use x="288.998047" xlink:href="#DejaVuSans-64"/>
      <use x="352.474609" xlink:href="#DejaVuSans-65"/>
      <use x="413.998047" xlink:href="#DejaVuSans-72"/>
      <use x="455.111328" xlink:href="#DejaVuSans-20"/>
      <use x="486.898438" xlink:href="#DejaVuSans-76"/>
      <use x="546.078125" xlink:href="#DejaVuSans-69"/>
      <use x="573.861328" xlink:href="#DejaVuSans-72"/>
      <use x="614.974609" xlink:href="#DejaVuSans-69"/>
      <use x="642.757812" xlink:href="#DejaVuSans-61"/>
      <use x="704.037109" xlink:href="#DejaVuSans-6c"/>
      <use x="731.820312" xlink:href="#DejaVuSans-20"/>
      <use x="763.607422" xlink:href="#DejaVuSans-65"/>
      <use x="825.115234" xlink:href="#DejaVuSans-78"/>
      <use x="884.294922" xlink:href="#DejaVuSans-70"/>
      <use x="947.771484" xlink:href="#DejaVuSans-2e"/>
     </g>
    </g>
    <g id="line2d_84">
     <path d="M 29.7 214.285313 
L 41.7 214.285313 
" style="fill:none;stroke:#cc5101;stroke-dasharray:1,1.65;stroke-dashoffset:0;"/>
    </g>
    <g id="line2d_85"/>
    <g id="text_29">
     <!-- 2nd order virial exp. -->
     <g transform="translate(46.5 216.385313)scale(0.06 -0.06)">
      <use xlink:href="#DejaVuSans-32"/>
      <use x="63.623047" xlink:href="#DejaVuSans-6e"/>
      <use x="127.001953" xlink:href="#DejaVuSans-64"/>
      <use x="190.478516" xlink:href="#DejaVuSans-20"/>
      <use x="222.265625" xlink:href="#DejaVuSans-6f"/>
      <use x="283.447266" xlink:href="#DejaVuSans-72"/>
      <use x="324.544922" xlink:href="#DejaVuSans-64"/>
      <use x="388.021484" xlink:href="#DejaVuSans-65"/>
      <use x="449.544922" xlink:href="#DejaVuSans-72"/>
      <use x="490.658203" xlink:href="#DejaVuSans-20"/>
      <use x="522.445312" xlink:href="#DejaVuSans-76"/>
      <use x="581.625" xlink:href="#DejaVuSans-69"/>
      <use x="609.408203" xlink:href="#DejaVuSans-72"/>
      <use x="650.521484" xlink:href="#DejaVuSans-69"/>
      <use x="678.304688" xlink:href="#DejaVuSans-61"/>
      <use x="739.583984" xlink:href="#DejaVuSans-6c"/>
      <use x="767.367188" xlink:href="#DejaVuSans-20"/>
      <use x="799.154297" xlink:href="#DejaVuSans-65"/>
      <use x="860.662109" xlink:href="#DejaVuSans-78"/>
      <use x="919.841797" xlink:href="#DejaVuSans-70"/>
      <use x="983.318359" xlink:href="#DejaVuSans-2e"/>
     </g>
    </g>
    <g id="line2d_86">
     <path d="M 29.7 223.092188 
L 41.7 223.092188 
" style="fill:none;stroke:#cc5101;stroke-linecap:square;"/>
    </g>
    <g id="line2d_87"/>
    <g id="text_30">
     <!-- 3rd order virial exp. -->
     <g transform="translate(46.5 225.192188)scale(0.06 -0.06)">
      <use xlink:href="#DejaVuSans-33"/>
      <use x="63.623047" xlink:href="#DejaVuSans-72"/>
      <use x="104.720703" xlink:href="#DejaVuSans-64"/>
      <use x="168.197266" xlink:href="#DejaVuSans-20"/>
      <use x="199.984375" xlink:href="#DejaVuSans-6f"/>
      <use x="261.166016" xlink:href="#DejaVuSans-72"/>
      <use x="302.263672" xlink:href="#DejaVuSans-64"/>
      <use x="365.740234" xlink:href="#DejaVuSans-65"/>
      <use x="427.263672" xlink:href="#DejaVuSans-72"/>
      <use x="468.376953" xlink:href="#DejaVuSans-20"/>
      <use x="500.164062" xlink:href="#DejaVuSans-76"/>
      <use x="559.34375" xlink:href="#DejaVuSans-69"/>
      <use x="587.126953" xlink:href="#DejaVuSans-72"/>
      <use x="628.240234" xlink:href="#DejaVuSans-69"/>
      <use x="656.023438" xlink:href="#DejaVuSans-61"/>
      <use x="717.302734" xlink:href="#DejaVuSans-6c"/>
      <use x="745.085938" xlink:href="#DejaVuSans-20"/>
      <use x="776.873047" xlink:href="#DejaVuSans-65"/>
      <use x="838.380859" xlink:href="#DejaVuSans-78"/>
      <use x="897.560547" xlink:href="#DejaVuSans-70"/>
      <use x="961.037109" xlink:href="#DejaVuSans-2e"/>
     </g>
    </g>
   </g>
   <g id="LineCollection_4">
    <path clip-path="url(#p45bb98bf09)" d="M 72.9 165.163128 
L 72.9 162.941234 
" style="fill:none;stroke:#cc5101;"/>
    <path clip-path="url(#p45bb98bf09)" d="M 97.2 170.766156 
L 97.2 169.361664 
" style="fill:none;stroke:#cc5101;"/>
    <path clip-path="url(#p45bb98bf09)" d="M 121.5 177.050665 
L 121.5 176.217859 
" style="fill:none;stroke:#cc5101;"/>
    <path clip-path="url(#p45bb98bf09)" d="M 145.8 184.297632 
L 145.8 183.062182 
" style="fill:none;stroke:#cc5101;"/>
    <path clip-path="url(#p45bb98bf09)" d="M 170.1 190.836232 
L 170.1 189.577148 
" style="fill:none;stroke:#cc5101;"/>
    <path clip-path="url(#p45bb98bf09)" d="M 194.4 195.495077 
L 194.4 194.836822 
" style="fill:none;stroke:#cc5101;"/>
    <path clip-path="url(#p45bb98bf09)" d="M 218.7 198.118465 
L 218.7 197.211749 
" style="fill:none;stroke:#cc5101;"/>
    <path clip-path="url(#p45bb98bf09)" d="M 243 198.606146 
L 243 197.177301 
" style="fill:none;stroke:#cc5101;"/>
    <path clip-path="url(#p45bb98bf09)" style="fill:none;stroke:#cc5101;"/>
    <path clip-path="url(#p45bb98bf09)" style="fill:none;stroke:#cc5101;"/>
    <path clip-path="url(#p45bb98bf09)" style="fill:none;stroke:#cc5101;"/>
    <path clip-path="url(#p45bb98bf09)" style="fill:none;stroke:#cc5101;"/>
   </g>
   <g id="line2d_88">
    <g clip-path="url(#p45bb98bf09)">
     <use style="fill:#fe8435;stroke:#cc5101;stroke-linejoin:miter;stroke-width:0.75;" x="72.9" xlink:href="#m7085c15425" y="164.052181"/>
     <use style="fill:#fe8435;stroke:#cc5101;stroke-linejoin:miter;stroke-width:0.75;" x="97.2" xlink:href="#m7085c15425" y="170.06391"/>
     <use style="fill:#fe8435;stroke:#cc5101;stroke-linejoin:miter;stroke-width:0.75;" x="121.5" xlink:href="#m7085c15425" y="176.634262"/>
     <use style="fill:#fe8435;stroke:#cc5101;stroke-linejoin:miter;stroke-width:0.75;" x="145.8" xlink:href="#m7085c15425" y="183.679907"/>
     <use style="fill:#fe8435;stroke:#cc5101;stroke-linejoin:miter;stroke-width:0.75;" x="170.1" xlink:href="#m7085c15425" y="190.20669"/>
     <use style="fill:#fe8435;stroke:#cc5101;stroke-linejoin:miter;stroke-width:0.75;" x="194.4" xlink:href="#m7085c15425" y="195.165949"/>
     <use style="fill:#fe8435;stroke:#cc5101;stroke-linejoin:miter;stroke-width:0.75;" x="218.7" xlink:href="#m7085c15425" y="197.665107"/>
     <use style="fill:#fe8435;stroke:#cc5101;stroke-linejoin:miter;stroke-width:0.75;" x="243" xlink:href="#m7085c15425" y="197.891724"/>
     <use style="fill:#fe8435;stroke:#cc5101;stroke-linejoin:miter;stroke-width:0.75;" x="267.3" xlink:href="#m7085c15425" y="196.160122"/>
     <use style="fill:#fe8435;stroke:#cc5101;stroke-linejoin:miter;stroke-width:0.75;" x="291.6" xlink:href="#m7085c15425" y="194.166885"/>
     <use style="fill:#fe8435;stroke:#cc5101;stroke-linejoin:miter;stroke-width:0.75;" x="315.9" xlink:href="#m7085c15425" y="191.110473"/>
     <use style="fill:#fe8435;stroke:#cc5101;stroke-linejoin:miter;stroke-width:0.75;" x="340.2" xlink:href="#m7085c15425" y="186.604111"/>
    </g>
   </g>
  </g>
 </g>
 <defs>
  <clipPath id="p743dfaa2e3">
   <rect height="95.321739" width="206.55" x="24.3" y="12.6"/>
  </clipPath>
  <clipPath id="p45bb98bf09">
   <rect height="95.321739" width="206.55" x="24.3" y="136.518261"/>
  </clipPath>
 </defs>
</svg>
