<?xml version="1.0" encoding="utf-8" standalone="no"?>
<!DOCTYPE svg PUBLIC "-//W3C//DTD SVG 1.1//EN"
  "http://www.w3.org/Graphics/SVG/1.1/DTD/svg11.dtd">
<!-- Created with matplotlib (http://matplotlib.org/) -->
<svg height="540pt" version="1.1" viewBox="0 0 720 540" width="720pt" xmlns="http://www.w3.org/2000/svg" xmlns:xlink="http://www.w3.org/1999/xlink">
 <defs>
  <style type="text/css">
*{stroke-linecap:butt;stroke-linejoin:round;}
  </style>
 </defs>
 <g id="figure_1">
  <g id="patch_1">
   <path d="M 0 540 
L 720 540 
L 720 0 
L 0 0 
z
" style="fill:#ffffff;"/>
  </g>
  <g id="axes_1">
   <g id="patch_2">
    <path d="M 86.4 475.2 
L 702 475.2 
L 702 21.6 
L 86.4 21.6 
z
" style="fill:#ffffff;"/>
   </g>
   <g id="PolyCollection_1">
    <defs>
     <path d="M 232.2 -96.984512 
L 232.2 -108.280247 
L 252.45 -117.087797 
L 272.7 -124.580244 
L 292.95 -134.280276 
L 313.2 -146.800742 
L 333.45 -161.545784 
L 353.7 -173.793222 
L 373.95 -194.88839 
L 394.2 -218.223938 
L 414.45 -247.172359 
L 434.7 -269.842647 
L 454.95 -294.644773 
L 475.2 -313.20671 
L 495.45 -335.23492 
L 515.7 -348.192558 
L 535.95 -356.649361 
L 556.2 -367.10484 
L 576.45 -366.204471 
L 596.7 -365.955957 
L 616.95 -362.567137 
L 637.2 -363.365938 
L 637.2 -359.223296 
L 637.2 -359.223296 
L 616.95 -358.25184 
L 596.7 -361.630444 
L 576.45 -361.313008 
L 556.2 -361.365726 
L 535.95 -349.885164 
L 515.7 -340.995666 
L 495.45 -327.280588 
L 475.2 -304.998224 
L 454.95 -285.570729 
L 434.7 -260.296063 
L 414.45 -236.857203 
L 394.2 -208.031676 
L 373.95 -184.074559 
L 353.7 -162.906003 
L 333.45 -150.380281 
L 313.2 -135.277833 
L 292.95 -122.729489 
L 272.7 -112.886777 
L 252.45 -105.42548 
L 232.2 -96.984512 
z
" id="md66dfd4d33" style="stroke:#187795;stroke-opacity:0.4;"/>
    </defs>
    <g clip-path="url(#p8399ae8ed5)">
     <use style="fill:#187795;fill-opacity:0.4;stroke:#187795;stroke-opacity:0.4;" x="0" xlink:href="#md66dfd4d33" y="540"/>
    </g>
   </g>
   <g id="matplotlib.axis_1">
    <g id="xtick_1">
     <g id="line2d_1">
      <defs>
       <path d="M 0 0 
L 0 3.5 
" id="m345c2773db" style="stroke:#000000;stroke-width:0.8;"/>
      </defs>
      <g>
       <use style="stroke:#000000;stroke-width:0.8;" x="151.2" xlink:href="#m345c2773db" y="475.2"/>
      </g>
     </g>
     <g id="text_1">
      <!-- $-3$ -->
      <defs>
       <path d="M 65.90625 23 
C 67.59375 23 69.40625 23 69.40625 25 
C 69.40625 27 67.59375 27 65.90625 27 
L 11.796875 27 
C 10.09375 27 8.296875 27 8.296875 25 
C 8.296875 23 10.09375 23 11.796875 23 
z
" id="CMSY10-0"/>
       <path d="M 22.09375 33.703125 
C 31 33.703125 34.90625 25.96875 34.90625 17.03125 
C 34.90625 5 28.5 0.390625 22.703125 0.390625 
C 17.40625 0.390625 8.796875 3.03125 6.09375 10.828125 
C 6.59375 10.625 7.09375 10.625 7.59375 10.625 
C 10 10.625 11.796875 12.21875 11.796875 14.8125 
C 11.796875 17.703125 9.59375 19 7.59375 19 
C 5.90625 19 3.296875 18.203125 3.296875 14.46875 
C 3.296875 5.234375 12.296875 -2 22.90625 -2 
C 34 -2 42.5 6.71875 42.5 16.953125 
C 42.5 26.671875 34.5 33.703125 25 34.796875 
C 32.59375 36.375 39.90625 43.0625 39.90625 52.015625 
C 39.90625 59.6875 32 65.296875 23 65.296875 
C 13.90625 65.296875 5.90625 59.828125 5.90625 52.015625 
C 5.90625 48.59375 8.5 48 9.796875 48 
C 11.90625 48 13.703125 49.296875 13.703125 51.890625 
C 13.703125 54.46875 11.90625 55.765625 9.796875 55.765625 
C 9.40625 55.765625 8.90625 55.765625 8.5 55.578125 
C 11.40625 61.859375 19.296875 63 22.796875 63 
C 26.296875 63 32.90625 61.328125 32.90625 51.875 
C 32.90625 49.109375 32.5 44.1875 29.09375 39.84375 
C 26.09375 36 22.703125 36 19.40625 35.6875 
C 18.90625 35.6875 16.59375 35.453125 16.203125 35.453125 
C 15.5 35.359375 15.09375 35.265625 15.09375 34.5 
C 15.09375 33.796875 15.203125 33.703125 17.203125 33.703125 
z
" id="CMR17-51"/>
      </defs>
      <g transform="translate(136.418646 499.235969)scale(0.24 -0.24)">
       <use transform="scale(0.996264)" xlink:href="#CMSY10-0"/>
       <use transform="translate(77.487468 0)scale(0.996264)" xlink:href="#CMR17-51"/>
      </g>
     </g>
    </g>
    <g id="xtick_2">
     <g id="line2d_2">
      <g>
       <use style="stroke:#000000;stroke-width:0.8;" x="232.2" xlink:href="#m345c2773db" y="475.2"/>
      </g>
     </g>
     <g id="text_2">
      <!-- $-2$ -->
      <defs>
       <path d="M 41.703125 15.453125 
L 39.90625 15.453125 
C 38.90625 8.375 38.09375 7.171875 37.703125 6.5625 
C 37.203125 5.765625 30 5.765625 28.59375 5.765625 
L 9.40625 5.765625 
C 13 9.671875 20 16.75 28.5 24.953125 
C 34.59375 30.734375 41.703125 37.53125 41.703125 47.421875 
C 41.703125 59.21875 32.296875 66 21.796875 66 
C 10.796875 66 4.09375 56.3125 4.09375 47.34375 
C 4.09375 43.4375 7 42.9375 8.203125 42.9375 
C 9.203125 42.9375 12.203125 43.546875 12.203125 47.03125 
C 12.203125 50.109375 9.59375 51 8.203125 51 
C 7.59375 51 7 50.90625 6.59375 50.703125 
C 8.5 59.21875 14.296875 63.40625 20.40625 63.40625 
C 29.09375 63.40625 34.796875 56.515625 34.796875 47.421875 
C 34.796875 38.734375 29.703125 31.25 24 24.75 
L 4.09375 2.28125 
L 4.09375 0 
L 39.296875 0 
z
" id="CMR17-50"/>
      </defs>
      <g transform="translate(217.418646 499.235969)scale(0.24 -0.24)">
       <use transform="scale(0.996264)" xlink:href="#CMSY10-0"/>
       <use transform="translate(77.487468 0)scale(0.996264)" xlink:href="#CMR17-50"/>
      </g>
     </g>
    </g>
    <g id="xtick_3">
     <g id="line2d_3">
      <g>
       <use style="stroke:#000000;stroke-width:0.8;" x="313.2" xlink:href="#m345c2773db" y="475.2"/>
      </g>
     </g>
     <g id="text_3">
      <!-- $-1$ -->
      <defs>
       <path d="M 26.59375 63.40625 
C 26.59375 65.5 26.5 65.5 25.09375 65.5 
C 21.203125 61.1875 15.296875 59.796875 9.703125 59.796875 
C 9.40625 59.796875 8.90625 59.796875 8.796875 59.5 
C 8.703125 59.296875 8.703125 59.09375 8.703125 57 
C 11.796875 57 17 57.59375 21 59.984375 
L 21 7.203125 
C 21 3.6875 20.796875 2.5 12.203125 2.5 
L 9.203125 2.5 
L 9.203125 0 
C 14 0 19 0 23.796875 0 
C 28.59375 0 33.59375 0 38.40625 0 
L 38.40625 2.5 
L 35.40625 2.5 
C 26.796875 2.5 26.59375 3.59375 26.59375 7.15625 
z
" id="CMR17-49"/>
      </defs>
      <g transform="translate(298.418646 499.235969)scale(0.24 -0.24)">
       <use transform="scale(0.996264)" xlink:href="#CMSY10-0"/>
       <use transform="translate(77.487468 0)scale(0.996264)" xlink:href="#CMR17-49"/>
      </g>
     </g>
    </g>
    <g id="xtick_4">
     <g id="line2d_4">
      <g>
       <use style="stroke:#000000;stroke-width:0.8;" x="394.2" xlink:href="#m345c2773db" y="475.2"/>
      </g>
     </g>
     <g id="text_4">
      <!-- $0$ -->
      <defs>
       <path d="M 42 31.640625 
C 42 37.75 41.90625 48.125 37.703125 56.109375 
C 34 63.109375 28.09375 65.59375 22.90625 65.59375 
C 18.09375 65.59375 12 63.40625 8.203125 56.203125 
C 4.203125 48.71875 3.796875 39.4375 3.796875 31.640625 
C 3.796875 25.953125 3.90625 17.28125 7 9.671875 
C 11.296875 -0.609375 19 -2 22.90625 -2 
C 27.5 -2 34.5 -0.109375 38.59375 9.375 
C 41.59375 16.28125 42 24.359375 42 31.640625 
z
M 22.90625 -0.40625 
C 16.5 -0.40625 12.703125 5.078125 11.296875 12.6875 
C 10.203125 18.5625 10.203125 27.15625 10.203125 32.75 
C 10.203125 40.4375 10.203125 46.828125 11.5 52.921875 
C 13.40625 61.390625 19 64 22.90625 64 
C 27 64 32.296875 61.296875 34.203125 53.125 
C 35.5 47.4375 35.59375 40.734375 35.59375 32.75 
C 35.59375 26.25 35.59375 18.265625 34.40625 12.375 
C 32.296875 1.484375 26.40625 -0.40625 22.90625 -0.40625 
z
" id="CMR17-48"/>
      </defs>
      <g transform="translate(388.717143 499.235969)scale(0.24 -0.24)">
       <use transform="scale(0.996264)" xlink:href="#CMR17-48"/>
      </g>
     </g>
    </g>
    <g id="xtick_5">
     <g id="line2d_5">
      <g>
       <use style="stroke:#000000;stroke-width:0.8;" x="475.2" xlink:href="#m345c2773db" y="475.2"/>
      </g>
     </g>
     <g id="text_5">
      <!-- $1$ -->
      <g transform="translate(469.717143 499.235969)scale(0.24 -0.24)">
       <use transform="scale(0.996264)" xlink:href="#CMR17-49"/>
      </g>
     </g>
    </g>
    <g id="xtick_6">
     <g id="line2d_6">
      <g>
       <use style="stroke:#000000;stroke-width:0.8;" x="556.2" xlink:href="#m345c2773db" y="475.2"/>
      </g>
     </g>
     <g id="text_6">
      <!-- $2$ -->
      <g transform="translate(550.717143 499.235969)scale(0.24 -0.24)">
       <use transform="scale(0.996264)" xlink:href="#CMR17-50"/>
      </g>
     </g>
    </g>
    <g id="xtick_7">
     <g id="line2d_7">
      <g>
       <use style="stroke:#000000;stroke-width:0.8;" x="637.2" xlink:href="#m345c2773db" y="475.2"/>
      </g>
     </g>
     <g id="text_7">
      <!-- $3$ -->
      <g transform="translate(631.717143 499.235969)scale(0.24 -0.24)">
       <use transform="scale(0.996264)" xlink:href="#CMR17-51"/>
      </g>
     </g>
    </g>
    <g id="text_8">
     <!-- $\beta\mu$ -->
     <defs>
      <path d="M 56.59375 57.828125 
C 56.59375 63.765625 51.5 70 42.40625 70 
C 29.5 70 21.296875 54.328125 18.703125 44 
L 2.90625 -18.3125 
C 2.703125 -19.109375 3.296875 -19.3125 3.796875 -19.3125 
C 4.5 -19.3125 5 -19.21875 5.09375 -18.71875 
L 12.09375 9.15625 
C 13.09375 3.578125 18.59375 -1 24.5 -1 
C 38.796875 -1 52.296875 10.15625 52.296875 24.984375 
C 52.296875 28.765625 51.40625 32.546875 49.296875 35.734375 
C 48.09375 37.625 46.59375 39.015625 45 40.21875 
C 52.203125 43.984375 56.59375 50 56.59375 57.828125 
z
M 39.203125 40.3125 
C 37.59375 39.71875 36 39.515625 34.09375 39.515625 
C 32.703125 39.515625 31.40625 39.421875 29.59375 40.015625 
C 30.59375 40.71875 32.09375 40.90625 34.203125 40.90625 
C 36 40.90625 37.796875 40.71875 39.203125 40.3125 
z
M 51.40625 58.71875 
C 51.40625 53.28125 48.703125 45.359375 42.203125 41.703125 
C 40.296875 42.46875 37.703125 43 35.5 43 
C 33.40625 43 27.40625 43 27.40625 39.921875 
C 27.40625 37.328125 32.90625 37.328125 34.59375 37.328125 
C 37.203125 37.328125 39.5 38 41.90625 38.8125 
C 45.09375 36.21875 46.5 32.828125 46.5 27.859375 
C 46.5 22.078125 44.90625 17.421875 43 13.140625 
C 39.703125 5.765625 31.90625 1 25 1 
C 17.703125 1 13.90625 6.75 13.90625 13.5 
C 13.90625 14.40625 13.90625 15.703125 14.296875 17.171875 
L 20.796875 43.296875 
C 24.09375 56.296875 32.5 68.015625 42.203125 68.015625 
C 49.40625 68.015625 51.40625 63.0625 51.40625 58.71875 
z
" id="CMMI12-12"/>
      <path d="M 14.40625 2.1875 
C 16.90625 -0.09375 20.59375 -1 24 -1 
C 30.40625 -1 34.796875 3.25 37.09375 6.328125 
C 38.09375 1.078125 42.296875 -1 45.796875 -1 
C 48.796875 -1 51.203125 0.78125 53 4.328125 
C 54.59375 7.703125 56 13.734375 56 14.109375 
C 56 14.609375 55.59375 15 55 15 
C 54.09375 15 54 14.5 53.59375 13.03125 
C 52.09375 7.203125 50.203125 1 46.09375 1 
C 43.203125 1 43 3.578125 43 5.59375 
C 43 7.875 43.90625 11.484375 44.59375 14.46875 
L 47.40625 25.234375 
C 47.796875 27.140625 48.90625 31.609375 49.40625 33.421875 
C 50 35.8125 51.09375 40.109375 51.09375 40.5 
C 51.09375 42 49.90625 43 48.40625 43 
C 47.5 43 45.40625 42.59375 44.59375 39.609375 
L 37.59375 11.875 
C 37.09375 9.875 37.09375 9.671875 35.796875 8.078125 
C 34.59375 6.390625 30.703125 1 24.40625 1 
C 18.796875 1 17 5.09375 17 9.765625 
C 17 12.671875 17.90625 16.15625 18.296875 17.859375 
L 22.796875 35.828125 
C 23.296875 37.71875 24.09375 40.90625 24.09375 41.515625 
C 24.09375 43.109375 22.796875 44 21.5 44 
C 20.59375 44 18.40625 43.703125 17.59375 40.5 
L 3.09375 -17.296875 
C 3 -17.796875 2.796875 -18.390625 2.796875 -19 
C 2.796875 -20.5 4 -21.5 5.5 -21.5 
C 8.40625 -21.5 9 -19.1875 9.703125 -16.40625 
z
" id="CMMI12-22"/>
     </defs>
     <g transform="translate(379.885751 525.364702)scale(0.24 -0.24)">
      <use transform="scale(0.996264)" xlink:href="#CMMI12-12"/>
      <use transform="translate(60.594016 0)scale(0.996264)" xlink:href="#CMMI12-22"/>
     </g>
    </g>
   </g>
   <g id="matplotlib.axis_2">
    <g id="ytick_1">
     <g id="line2d_8">
      <defs>
       <path d="M 0 0 
L -3.5 0 
" id="m90c975d0a8" style="stroke:#000000;stroke-width:0.8;"/>
      </defs>
      <g>
       <use style="stroke:#000000;stroke-width:0.8;" x="86.4" xlink:href="#m90c975d0a8" y="460.567742"/>
      </g>
     </g>
     <g id="text_9">
      <!-- $1.0$ -->
      <defs>
       <path d="M 18.40625 4.796875 
C 18.40625 7.6875 16 9.671875 13.59375 9.671875 
C 10.703125 9.671875 8.703125 7.28125 8.703125 4.890625 
C 8.703125 2 11.09375 0 13.5 0 
C 16.40625 0 18.40625 2.390625 18.40625 4.796875 
z
" id="CMMI12-58"/>
      </defs>
      <g transform="translate(50.965248 469.085726)scale(0.24 -0.24)">
       <use transform="scale(0.996264)" xlink:href="#CMR17-49"/>
       <use transform="translate(45.690477 0)scale(0.996264)" xlink:href="#CMMI12-58"/>
       <use transform="translate(72.787654 0)scale(0.996264)" xlink:href="#CMR17-48"/>
      </g>
     </g>
    </g>
    <g id="ytick_2">
     <g id="line2d_9">
      <g>
       <use style="stroke:#000000;stroke-width:0.8;" x="86.4" xlink:href="#m90c975d0a8" y="387.406452"/>
      </g>
     </g>
     <g id="text_10">
      <!-- $1.5$ -->
      <defs>
       <path d="M 11.40625 57.6875 
C 12.40625 57.28125 16.5 56 20.703125 56 
C 30 56 35.09375 61.109375 38 64.0625 
C 38 64.953125 38 65.5 37.40625 65.5 
C 37.296875 65.5 37.09375 65.5 36.296875 65.046875 
C 32.796875 63.40625 28.703125 62.078125 23.703125 62.078125 
C 20.703125 62.078125 16.203125 62.484375 11.296875 64.671875 
C 10.203125 65.171875 10 65.171875 9.90625 65.171875 
C 9.40625 65.171875 9.296875 65.0625 9.296875 63.078125 
L 9.296875 34.421875 
C 9.296875 32.640625 9.296875 32.140625 10.296875 32.140625 
C 10.796875 32.140625 11 32.34375 11.5 33.03125 
C 14.703125 37.515625 19.09375 39.40625 24.09375 39.40625 
C 27.59375 39.40625 35.09375 37.21875 35.09375 20.140625 
C 35.09375 16.953125 35.09375 11.171875 32.09375 6.578125 
C 29.59375 2.484375 25.703125 0.390625 21.40625 0.390625 
C 14.796875 0.390625 8.09375 5 6.296875 12.71875 
C 6.703125 12.609375 7.5 12.421875 7.90625 12.421875 
C 9.203125 12.421875 11.703125 13.125 11.703125 16.21875 
C 11.703125 18.90625 9.796875 20 7.90625 20 
C 5.59375 20 4.09375 18.59375 4.09375 15.796875 
C 4.09375 7.09375 11 -2 21.59375 -2 
C 31.90625 -2 41.703125 6.875 41.703125 19.75 
C 41.703125 31.71875 33.90625 41 24.203125 41 
C 19.09375 41 14.796875 39.109375 11.40625 35.53125 
z
" id="CMR17-53"/>
      </defs>
      <g transform="translate(50.965248 395.924436)scale(0.24 -0.24)">
       <use transform="scale(0.996264)" xlink:href="#CMR17-49"/>
       <use transform="translate(45.690477 0)scale(0.996264)" xlink:href="#CMMI12-58"/>
       <use transform="translate(72.787654 0)scale(0.996264)" xlink:href="#CMR17-53"/>
      </g>
     </g>
    </g>
    <g id="ytick_3">
     <g id="line2d_10">
      <g>
       <use style="stroke:#000000;stroke-width:0.8;" x="86.4" xlink:href="#m90c975d0a8" y="314.245161"/>
      </g>
     </g>
     <g id="text_11">
      <!-- $2.0$ -->
      <g transform="translate(50.965248 322.763146)scale(0.24 -0.24)">
       <use transform="scale(0.996264)" xlink:href="#CMR17-50"/>
       <use transform="translate(45.690477 0)scale(0.996264)" xlink:href="#CMMI12-58"/>
       <use transform="translate(72.787654 0)scale(0.996264)" xlink:href="#CMR17-48"/>
      </g>
     </g>
    </g>
    <g id="ytick_4">
     <g id="line2d_11">
      <g>
       <use style="stroke:#000000;stroke-width:0.8;" x="86.4" xlink:href="#m90c975d0a8" y="241.083871"/>
      </g>
     </g>
     <g id="text_12">
      <!-- $2.5$ -->
      <g transform="translate(50.965248 249.601855)scale(0.24 -0.24)">
       <use transform="scale(0.996264)" xlink:href="#CMR17-50"/>
       <use transform="translate(45.690477 0)scale(0.996264)" xlink:href="#CMMI12-58"/>
       <use transform="translate(72.787654 0)scale(0.996264)" xlink:href="#CMR17-53"/>
      </g>
     </g>
    </g>
    <g id="ytick_5">
     <g id="line2d_12">
      <g>
       <use style="stroke:#000000;stroke-width:0.8;" x="86.4" xlink:href="#m90c975d0a8" y="167.922581"/>
      </g>
     </g>
     <g id="text_13">
      <!-- $3.0$ -->
      <g transform="translate(50.965248 176.440565)scale(0.24 -0.24)">
       <use transform="scale(0.996264)" xlink:href="#CMR17-51"/>
       <use transform="translate(45.690477 0)scale(0.996264)" xlink:href="#CMMI12-58"/>
       <use transform="translate(72.787654 0)scale(0.996264)" xlink:href="#CMR17-48"/>
      </g>
     </g>
    </g>
    <g id="ytick_6">
     <g id="line2d_13">
      <g>
       <use style="stroke:#000000;stroke-width:0.8;" x="86.4" xlink:href="#m90c975d0a8" y="94.76129"/>
      </g>
     </g>
     <g id="text_14">
      <!-- $3.5$ -->
      <g transform="translate(50.965248 103.279275)scale(0.24 -0.24)">
       <use transform="scale(0.996264)" xlink:href="#CMR17-51"/>
       <use transform="translate(45.690477 0)scale(0.996264)" xlink:href="#CMMI12-58"/>
       <use transform="translate(72.787654 0)scale(0.996264)" xlink:href="#CMR17-53"/>
      </g>
     </g>
    </g>
    <g id="ytick_7">
     <g id="line2d_14">
      <g>
       <use style="stroke:#000000;stroke-width:0.8;" x="86.4" xlink:href="#m90c975d0a8" y="21.6"/>
      </g>
     </g>
     <g id="text_15">
      <!-- $4.0$ -->
      <defs>
       <path d="M 33.59375 64.40625 
C 33.59375 66.5 33.5 66.5 31.703125 66.5 
L 2 19.59375 
L 2 17 
L 27.796875 17 
L 27.796875 7.140625 
C 27.796875 3.5 27.59375 2.5 20.59375 2.5 
L 18.703125 2.5 
L 18.703125 0 
C 21.90625 0 27.296875 0 30.703125 0 
C 34.09375 0 39.5 0 42.703125 0 
L 42.703125 2.5 
L 40.796875 2.5 
C 33.796875 2.5 33.59375 3.5 33.59375 7.140625 
L 33.59375 17 
L 43.796875 17 
L 43.796875 19.59375 
L 33.59375 19.59375 
z
M 28.09375 57.859375 
L 28.09375 19.59375 
L 4 19.59375 
z
" id="CMR17-52"/>
      </defs>
      <g transform="translate(50.965248 30.117984)scale(0.24 -0.24)">
       <use transform="scale(0.996264)" xlink:href="#CMR17-52"/>
       <use transform="translate(45.690477 0)scale(0.996264)" xlink:href="#CMMI12-58"/>
       <use transform="translate(72.787654 0)scale(0.996264)" xlink:href="#CMR17-48"/>
      </g>
     </g>
    </g>
    <g id="text_16">
     <!-- $n/\bar{n}_0$ -->
     <defs>
      <path d="M 20.59375 29.234375 
C 20.796875 29.84375 23.296875 34.828125 27 38.015625 
C 29.59375 40.40625 33 42.015625 36.90625 42.015625 
C 40.90625 42.015625 42.296875 39.015625 42.296875 35.03125 
C 42.296875 29.34375 38.203125 17.96875 36.203125 12.578125 
C 35.296875 10.171875 34.796875 8.875 34.796875 7.078125 
C 34.796875 2.59375 37.90625 -1 42.703125 -1 
C 52 -1 55.5 13.671875 55.5 14.265625 
C 55.5 14.765625 55.09375 15.171875 54.5 15.171875 
C 53.59375 15.171875 53.5 14.875 53 13.171875 
C 50.703125 4.984375 46.90625 1 43 1 
C 42 1 40.40625 1 40.40625 4.203125 
C 40.40625 6.703125 41.5 9.703125 42.09375 11.09375 
C 44.09375 16.609375 48.296875 27.8125 48.296875 33.515625 
C 48.296875 39.5 44.796875 44 37.203125 44 
C 28.296875 44 23.59375 37.734375 21.796875 35.234375 
C 21.5 40.90625 17.40625 44 13 44 
C 9.796875 44 7.59375 42.109375 5.90625 38.71875 
C 4.09375 35.125 2.703125 29.140625 2.703125 28.734375 
C 2.703125 28.34375 3.09375 27.84375 3.796875 27.84375 
C 4.59375 27.84375 4.703125 27.9375 5.296875 30.234375 
C 6.90625 36.328125 8.703125 42.015625 12.703125 42.015625 
C 15 42.015625 15.796875 40.40625 15.796875 37.421875 
C 15.796875 35.21875 14.796875 31.328125 14.09375 28.234375 
L 11.296875 17.46875 
C 10.90625 15.5625 9.796875 11.078125 9.296875 9.28125 
C 8.59375 6.6875 7.5 2 7.5 1.5 
C 7.5 0.09375 8.59375 -1 10.09375 -1 
C 11.296875 -1 12.703125 -0.40625 13.5 1.09375 
C 13.703125 1.59375 14.59375 5.09375 15.09375 7.078125 
L 17.296875 16.0625 
z
" id="CMMI12-110"/>
      <path d="M 42.90625 71.28125 
C 42.90625 71.390625 43.5 72.90625 43.5 73.09375 
C 43.5 74.296875 42.5 75 41.703125 75 
C 41.203125 75 40.296875 75 39.5 72.796875 
L 6 -21.296875 
C 6 -21.40625 5.40625 -22.890625 5.40625 -23.09375 
C 5.40625 -24.296875 6.40625 -25 7.203125 -25 
C 7.796875 -25 8.703125 -24.890625 9.40625 -22.796875 
z
" id="CMMI12-61"/>
      <path d="M 39.90625 55 
L 39.90625 57.28125 
L 5.90625 57.28125 
L 5.90625 55 
z
" id="CMR17-22"/>
     </defs>
     <g transform="translate(41.872484 272.325272)rotate(-90)scale(0.24 -0.24)">
      <use transform="translate(0 14.943915)scale(0.996264)" xlink:href="#CMMI12-110"/>
      <use transform="translate(58.230047 14.943915)scale(0.996264)" xlink:href="#CMMI12-61"/>
      <use transform="translate(113.274759 14.950375)scale(0.996264)" xlink:href="#CMR17-22"/>
      <use transform="translate(107.004966 14.943915)scale(0.996264)" xlink:href="#CMMI12-110"/>
      <use transform="translate(165.235013 0)scale(0.697382)" xlink:href="#CMR17-48"/>
     </g>
    </g>
   </g>
   <g id="LineCollection_1">
    <path clip-path="url(#p8399ae8ed5)" style="fill:none;stroke:#fa9f42;stroke-width:3;"/>
    <path clip-path="url(#p8399ae8ed5)" style="fill:none;stroke:#fa9f42;stroke-width:3;"/>
    <path clip-path="url(#p8399ae8ed5)" d="M 701.910576 128.61141 
L 701.910576 109.089929 
" style="fill:none;stroke:#fa9f42;stroke-width:3;"/>
    <path clip-path="url(#p8399ae8ed5)" d="M 678.326859 131.36959 
L 678.326859 111.960485 
" style="fill:none;stroke:#fa9f42;stroke-width:3;"/>
    <path clip-path="url(#p8399ae8ed5)" d="M 662.334219 143.569236 
L 662.334219 124.658213 
" style="fill:none;stroke:#fa9f42;stroke-width:3;"/>
    <path clip-path="url(#p8399ae8ed5)" d="M 653.080617 152.392634 
L 653.080617 133.841857 
" style="fill:none;stroke:#fa9f42;stroke-width:3;"/>
    <path clip-path="url(#p8399ae8ed5)" d="M 640.444779 161.804687 
L 640.444779 143.637861 
" style="fill:none;stroke:#fa9f42;stroke-width:3;"/>
    <path clip-path="url(#p8399ae8ed5)" d="M 632.726451 167.299393 
L 632.726451 149.357025 
" style="fill:none;stroke:#fa9f42;stroke-width:3;"/>
    <path clip-path="url(#p8399ae8ed5)" d="M 618.362721 176.830553 
L 618.362721 159.277111 
" style="fill:none;stroke:#fa9f42;stroke-width:3;"/>
    <path clip-path="url(#p8399ae8ed5)" d="M 595.832814 189.799416 
L 595.832814 172.775369 
" style="fill:none;stroke:#fa9f42;stroke-width:3;"/>
    <path clip-path="url(#p8399ae8ed5)" d="M 589.270842 193.157666 
L 589.270842 176.270577 
" style="fill:none;stroke:#fa9f42;stroke-width:3;"/>
    <path clip-path="url(#p8399ae8ed5)" d="M 579.137904 198.033134 
L 579.137904 181.345044 
" style="fill:none;stroke:#fa9f42;stroke-width:3;"/>
    <path clip-path="url(#p8399ae8ed5)" d="M 571.924935 201.320124 
L 571.924935 184.766358 
" style="fill:none;stroke:#fa9f42;stroke-width:3;"/>
    <path clip-path="url(#p8399ae8ed5)" d="M 556.081173 208.221868 
L 556.081173 191.949626 
" style="fill:none;stroke:#fa9f42;stroke-width:3;"/>
    <path clip-path="url(#p8399ae8ed5)" d="M 550.136826 210.771978 
L 550.136826 194.603918 
" style="fill:none;stroke:#fa9f42;stroke-width:3;"/>
    <path clip-path="url(#p8399ae8ed5)" d="M 536.08041 216.937133 
L 536.08041 201.020748 
" style="fill:none;stroke:#fa9f42;stroke-width:3;"/>
    <path clip-path="url(#p8399ae8ed5)" d="M 527.266476 220.973734 
L 527.266476 205.222109 
" style="fill:none;stroke:#fa9f42;stroke-width:3;"/>
    <path clip-path="url(#p8399ae8ed5)" d="M 516.983202 225.95675 
L 516.983202 210.408513 
" style="fill:none;stroke:#fa9f42;stroke-width:3;"/>
    <path clip-path="url(#p8399ae8ed5)" d="M 504.594171 232.574774 
L 504.594171 217.296648 
" style="fill:none;stroke:#fa9f42;stroke-width:3;"/>
    <path clip-path="url(#p8399ae8ed5)" d="M 482.814081 246.191846 
L 482.814081 231.469453 
" style="fill:none;stroke:#fa9f42;stroke-width:3;"/>
    <path clip-path="url(#p8399ae8ed5)" d="M 455.541543 267.744284 
L 455.541543 253.901583 
" style="fill:none;stroke:#fa9f42;stroke-width:3;"/>
    <path clip-path="url(#p8399ae8ed5)" d="M 453.642984 269.382951 
L 453.642984 255.607265 
" style="fill:none;stroke:#fa9f42;stroke-width:3;"/>
    <path clip-path="url(#p8399ae8ed5)" d="M 447.18858 274.986667 
L 447.18858 261.439537 
" style="fill:none;stroke:#fa9f42;stroke-width:3;"/>
    <path clip-path="url(#p8399ae8ed5)" d="M 434.644272 285.665435 
L 434.644272 272.554346 
" style="fill:none;stroke:#fa9f42;stroke-width:3;"/>
    <path clip-path="url(#p8399ae8ed5)" d="M 430.883604 288.700604 
L 430.883604 275.713305 
" style="fill:none;stroke:#fa9f42;stroke-width:3;"/>
    <path clip-path="url(#p8399ae8ed5)" d="M 414.155646 300.251162 
L 414.155646 287.735314 
" style="fill:none;stroke:#fa9f42;stroke-width:3;"/>
   </g>
   <g id="LineCollection_2">
    <path clip-path="url(#p8399ae8ed5)" d="M 272.7 422.116306 
L 272.7 415.342513 
" style="fill:none;stroke:#0d153a;stroke-width:3;"/>
    <path clip-path="url(#p8399ae8ed5)" d="M 313.2 399.90179 
L 313.2 392.313615 
" style="fill:none;stroke:#0d153a;stroke-width:3;"/>
    <path clip-path="url(#p8399ae8ed5)" d="M 321.3 394.60858 
L 321.3 386.826357 
" style="fill:none;stroke:#0d153a;stroke-width:3;"/>
    <path clip-path="url(#p8399ae8ed5)" d="M 325.35 391.729453 
L 325.35 383.841682 
" style="fill:none;stroke:#0d153a;stroke-width:3;"/>
    <path clip-path="url(#p8399ae8ed5)" d="M 353.7 370.068899 
L 353.7 361.387054 
" style="fill:none;stroke:#0d153a;stroke-width:3;"/>
    <path clip-path="url(#p8399ae8ed5)" d="M 394.2 334.121903 
L 394.2 324.122246 
" style="fill:none;stroke:#0d153a;stroke-width:3;"/>
    <path clip-path="url(#p8399ae8ed5)" d="M 434.7 299.429055 
L 434.7 283.661811 
" style="fill:none;stroke:#0d153a;stroke-width:3;"/>
    <path clip-path="url(#p8399ae8ed5)" d="M 475.2 266.490876 
L 475.2 249.034494 
" style="fill:none;stroke:#0d153a;stroke-width:3;"/>
    <path clip-path="url(#p8399ae8ed5)" d="M 515.7 238.39956 
L 515.7 219.502598 
" style="fill:none;stroke:#0d153a;stroke-width:3;"/>
    <path clip-path="url(#p8399ae8ed5)" d="M 556.2 218.070933 
L 556.2 190.700624 
" style="fill:none;stroke:#0d153a;stroke-width:3;"/>
    <path clip-path="url(#p8399ae8ed5)" d="M 576.45 212.758398 
L 576.45 178.199858 
" style="fill:none;stroke:#0d153a;stroke-width:3;"/>
   </g>
   <g id="line2d_15">
    <defs>
     <path d="M 3 0 
L -3 -0 
" id="m7cfcdd3d84" style="stroke:#fa9f42;stroke-width:3;"/>
    </defs>
    <g clip-path="url(#p8399ae8ed5)">
     <use style="fill:#fa9f42;stroke:#fa9f42;stroke-width:3;" x="744.025068" xlink:href="#m7cfcdd3d84" y="110.242366"/>
     <use style="fill:#fa9f42;stroke:#fa9f42;stroke-width:3;" x="721.570248" xlink:href="#m7cfcdd3d84" y="119.204331"/>
     <use style="fill:#fa9f42;stroke:#fa9f42;stroke-width:3;" x="701.910576" xlink:href="#m7cfcdd3d84" y="128.61141"/>
     <use style="fill:#fa9f42;stroke:#fa9f42;stroke-width:3;" x="678.326859" xlink:href="#m7cfcdd3d84" y="131.36959"/>
     <use style="fill:#fa9f42;stroke:#fa9f42;stroke-width:3;" x="662.334219" xlink:href="#m7cfcdd3d84" y="143.569236"/>
     <use style="fill:#fa9f42;stroke:#fa9f42;stroke-width:3;" x="653.080617" xlink:href="#m7cfcdd3d84" y="152.392634"/>
     <use style="fill:#fa9f42;stroke:#fa9f42;stroke-width:3;" x="640.444779" xlink:href="#m7cfcdd3d84" y="161.804687"/>
     <use style="fill:#fa9f42;stroke:#fa9f42;stroke-width:3;" x="632.726451" xlink:href="#m7cfcdd3d84" y="167.299393"/>
     <use style="fill:#fa9f42;stroke:#fa9f42;stroke-width:3;" x="618.362721" xlink:href="#m7cfcdd3d84" y="176.830553"/>
     <use style="fill:#fa9f42;stroke:#fa9f42;stroke-width:3;" x="595.832814" xlink:href="#m7cfcdd3d84" y="189.799416"/>
     <use style="fill:#fa9f42;stroke:#fa9f42;stroke-width:3;" x="589.270842" xlink:href="#m7cfcdd3d84" y="193.157666"/>
     <use style="fill:#fa9f42;stroke:#fa9f42;stroke-width:3;" x="579.137904" xlink:href="#m7cfcdd3d84" y="198.033134"/>
     <use style="fill:#fa9f42;stroke:#fa9f42;stroke-width:3;" x="571.924935" xlink:href="#m7cfcdd3d84" y="201.320124"/>
     <use style="fill:#fa9f42;stroke:#fa9f42;stroke-width:3;" x="556.081173" xlink:href="#m7cfcdd3d84" y="208.221868"/>
     <use style="fill:#fa9f42;stroke:#fa9f42;stroke-width:3;" x="550.136826" xlink:href="#m7cfcdd3d84" y="210.771978"/>
     <use style="fill:#fa9f42;stroke:#fa9f42;stroke-width:3;" x="536.08041" xlink:href="#m7cfcdd3d84" y="216.937133"/>
     <use style="fill:#fa9f42;stroke:#fa9f42;stroke-width:3;" x="527.266476" xlink:href="#m7cfcdd3d84" y="220.973734"/>
     <use style="fill:#fa9f42;stroke:#fa9f42;stroke-width:3;" x="516.983202" xlink:href="#m7cfcdd3d84" y="225.95675"/>
     <use style="fill:#fa9f42;stroke:#fa9f42;stroke-width:3;" x="504.594171" xlink:href="#m7cfcdd3d84" y="232.574774"/>
     <use style="fill:#fa9f42;stroke:#fa9f42;stroke-width:3;" x="482.814081" xlink:href="#m7cfcdd3d84" y="246.191846"/>
     <use style="fill:#fa9f42;stroke:#fa9f42;stroke-width:3;" x="455.541543" xlink:href="#m7cfcdd3d84" y="267.744284"/>
     <use style="fill:#fa9f42;stroke:#fa9f42;stroke-width:3;" x="453.642984" xlink:href="#m7cfcdd3d84" y="269.382951"/>
     <use style="fill:#fa9f42;stroke:#fa9f42;stroke-width:3;" x="447.18858" xlink:href="#m7cfcdd3d84" y="274.986667"/>
     <use style="fill:#fa9f42;stroke:#fa9f42;stroke-width:3;" x="434.644272" xlink:href="#m7cfcdd3d84" y="285.665435"/>
     <use style="fill:#fa9f42;stroke:#fa9f42;stroke-width:3;" x="430.883604" xlink:href="#m7cfcdd3d84" y="288.700604"/>
     <use style="fill:#fa9f42;stroke:#fa9f42;stroke-width:3;" x="414.155646" xlink:href="#m7cfcdd3d84" y="300.251162"/>
    </g>
   </g>
   <g id="line2d_16">
    <g clip-path="url(#p8399ae8ed5)">
     <use style="fill:#fa9f42;stroke:#fa9f42;stroke-width:3;" x="744.025068" xlink:href="#m7cfcdd3d84" y="89.971128"/>
     <use style="fill:#fa9f42;stroke:#fa9f42;stroke-width:3;" x="721.570248" xlink:href="#m7cfcdd3d84" y="99.2989"/>
     <use style="fill:#fa9f42;stroke:#fa9f42;stroke-width:3;" x="701.910576" xlink:href="#m7cfcdd3d84" y="109.089929"/>
     <use style="fill:#fa9f42;stroke:#fa9f42;stroke-width:3;" x="678.326859" xlink:href="#m7cfcdd3d84" y="111.960485"/>
     <use style="fill:#fa9f42;stroke:#fa9f42;stroke-width:3;" x="662.334219" xlink:href="#m7cfcdd3d84" y="124.658213"/>
     <use style="fill:#fa9f42;stroke:#fa9f42;stroke-width:3;" x="653.080617" xlink:href="#m7cfcdd3d84" y="133.841857"/>
     <use style="fill:#fa9f42;stroke:#fa9f42;stroke-width:3;" x="640.444779" xlink:href="#m7cfcdd3d84" y="143.637861"/>
     <use style="fill:#fa9f42;stroke:#fa9f42;stroke-width:3;" x="632.726451" xlink:href="#m7cfcdd3d84" y="149.357025"/>
     <use style="fill:#fa9f42;stroke:#fa9f42;stroke-width:3;" x="618.362721" xlink:href="#m7cfcdd3d84" y="159.277111"/>
     <use style="fill:#fa9f42;stroke:#fa9f42;stroke-width:3;" x="595.832814" xlink:href="#m7cfcdd3d84" y="172.775369"/>
     <use style="fill:#fa9f42;stroke:#fa9f42;stroke-width:3;" x="589.270842" xlink:href="#m7cfcdd3d84" y="176.270577"/>
     <use style="fill:#fa9f42;stroke:#fa9f42;stroke-width:3;" x="579.137904" xlink:href="#m7cfcdd3d84" y="181.345044"/>
     <use style="fill:#fa9f42;stroke:#fa9f42;stroke-width:3;" x="571.924935" xlink:href="#m7cfcdd3d84" y="184.766358"/>
     <use style="fill:#fa9f42;stroke:#fa9f42;stroke-width:3;" x="556.081173" xlink:href="#m7cfcdd3d84" y="191.949626"/>
     <use style="fill:#fa9f42;stroke:#fa9f42;stroke-width:3;" x="550.136826" xlink:href="#m7cfcdd3d84" y="194.603918"/>
     <use style="fill:#fa9f42;stroke:#fa9f42;stroke-width:3;" x="536.08041" xlink:href="#m7cfcdd3d84" y="201.020748"/>
     <use style="fill:#fa9f42;stroke:#fa9f42;stroke-width:3;" x="527.266476" xlink:href="#m7cfcdd3d84" y="205.222109"/>
     <use style="fill:#fa9f42;stroke:#fa9f42;stroke-width:3;" x="516.983202" xlink:href="#m7cfcdd3d84" y="210.408513"/>
     <use style="fill:#fa9f42;stroke:#fa9f42;stroke-width:3;" x="504.594171" xlink:href="#m7cfcdd3d84" y="217.296648"/>
     <use style="fill:#fa9f42;stroke:#fa9f42;stroke-width:3;" x="482.814081" xlink:href="#m7cfcdd3d84" y="231.469453"/>
     <use style="fill:#fa9f42;stroke:#fa9f42;stroke-width:3;" x="455.541543" xlink:href="#m7cfcdd3d84" y="253.901583"/>
     <use style="fill:#fa9f42;stroke:#fa9f42;stroke-width:3;" x="453.642984" xlink:href="#m7cfcdd3d84" y="255.607265"/>
     <use style="fill:#fa9f42;stroke:#fa9f42;stroke-width:3;" x="447.18858" xlink:href="#m7cfcdd3d84" y="261.439537"/>
     <use style="fill:#fa9f42;stroke:#fa9f42;stroke-width:3;" x="434.644272" xlink:href="#m7cfcdd3d84" y="272.554346"/>
     <use style="fill:#fa9f42;stroke:#fa9f42;stroke-width:3;" x="430.883604" xlink:href="#m7cfcdd3d84" y="275.713305"/>
     <use style="fill:#fa9f42;stroke:#fa9f42;stroke-width:3;" x="414.155646" xlink:href="#m7cfcdd3d84" y="287.735314"/>
    </g>
   </g>
   <g id="line2d_17">
    <defs>
     <path d="M 3 0 
L -3 -0 
" id="m77c59e4f88" style="stroke:#0d153a;stroke-width:3;"/>
    </defs>
    <g clip-path="url(#p8399ae8ed5)">
     <use style="fill:#0d153a;stroke:#0d153a;stroke-width:3;" x="272.7" xlink:href="#m77c59e4f88" y="422.116306"/>
     <use style="fill:#0d153a;stroke:#0d153a;stroke-width:3;" x="313.2" xlink:href="#m77c59e4f88" y="399.90179"/>
     <use style="fill:#0d153a;stroke:#0d153a;stroke-width:3;" x="321.3" xlink:href="#m77c59e4f88" y="394.60858"/>
     <use style="fill:#0d153a;stroke:#0d153a;stroke-width:3;" x="325.35" xlink:href="#m77c59e4f88" y="391.729453"/>
     <use style="fill:#0d153a;stroke:#0d153a;stroke-width:3;" x="353.7" xlink:href="#m77c59e4f88" y="370.068899"/>
     <use style="fill:#0d153a;stroke:#0d153a;stroke-width:3;" x="394.2" xlink:href="#m77c59e4f88" y="334.121903"/>
     <use style="fill:#0d153a;stroke:#0d153a;stroke-width:3;" x="434.7" xlink:href="#m77c59e4f88" y="299.429055"/>
     <use style="fill:#0d153a;stroke:#0d153a;stroke-width:3;" x="475.2" xlink:href="#m77c59e4f88" y="266.490876"/>
     <use style="fill:#0d153a;stroke:#0d153a;stroke-width:3;" x="515.7" xlink:href="#m77c59e4f88" y="238.39956"/>
     <use style="fill:#0d153a;stroke:#0d153a;stroke-width:3;" x="556.2" xlink:href="#m77c59e4f88" y="218.070933"/>
     <use style="fill:#0d153a;stroke:#0d153a;stroke-width:3;" x="576.45" xlink:href="#m77c59e4f88" y="212.758398"/>
    </g>
   </g>
   <g id="line2d_18">
    <g clip-path="url(#p8399ae8ed5)">
     <use style="fill:#0d153a;stroke:#0d153a;stroke-width:3;" x="272.7" xlink:href="#m77c59e4f88" y="415.342513"/>
     <use style="fill:#0d153a;stroke:#0d153a;stroke-width:3;" x="313.2" xlink:href="#m77c59e4f88" y="392.313615"/>
     <use style="fill:#0d153a;stroke:#0d153a;stroke-width:3;" x="321.3" xlink:href="#m77c59e4f88" y="386.826357"/>
     <use style="fill:#0d153a;stroke:#0d153a;stroke-width:3;" x="325.35" xlink:href="#m77c59e4f88" y="383.841682"/>
     <use style="fill:#0d153a;stroke:#0d153a;stroke-width:3;" x="353.7" xlink:href="#m77c59e4f88" y="361.387054"/>
     <use style="fill:#0d153a;stroke:#0d153a;stroke-width:3;" x="394.2" xlink:href="#m77c59e4f88" y="324.122246"/>
     <use style="fill:#0d153a;stroke:#0d153a;stroke-width:3;" x="434.7" xlink:href="#m77c59e4f88" y="283.661811"/>
     <use style="fill:#0d153a;stroke:#0d153a;stroke-width:3;" x="475.2" xlink:href="#m77c59e4f88" y="249.034494"/>
     <use style="fill:#0d153a;stroke:#0d153a;stroke-width:3;" x="515.7" xlink:href="#m77c59e4f88" y="219.502598"/>
     <use style="fill:#0d153a;stroke:#0d153a;stroke-width:3;" x="556.2" xlink:href="#m77c59e4f88" y="190.700624"/>
     <use style="fill:#0d153a;stroke:#0d153a;stroke-width:3;" x="576.45" xlink:href="#m77c59e4f88" y="178.199858"/>
    </g>
   </g>
   <g id="line2d_19">
    <defs>
     <path d="M -0 7.071068 
L 4.242641 0 
L -0 -7.071068 
L -4.242641 -0 
z
" id="m94808c86a5"/>
    </defs>
    <g clip-path="url(#p8399ae8ed5)">
     <use style="fill:#a42604;" x="715.496139" xlink:href="#m94808c86a5" y="22.001509"/>
     <use style="fill:#a42604;" x="705.636009" xlink:href="#m94808c86a5" y="25.777363"/>
     <use style="fill:#a42604;" x="703.264248" xlink:href="#m94808c86a5" y="26.950139"/>
     <use style="fill:#a42604;" x="693.619254" xlink:href="#m94808c86a5" y="31.695526"/>
     <use style="fill:#a42604;" x="687.134961" xlink:href="#m94808c86a5" y="35.872158"/>
     <use style="fill:#a42604;" x="674.875449" xlink:href="#m94808c86a5" y="47.338581"/>
     <use style="fill:#a42604;" x="663.467814" xlink:href="#m94808c86a5" y="59.379466"/>
     <use style="fill:#a42604;" x="656.390925" xlink:href="#m94808c86a5" y="66.942002"/>
     <use style="fill:#a42604;" x="649.383129" xlink:href="#m94808c86a5" y="75.323067"/>
     <use style="fill:#a42604;" x="642.063969" xlink:href="#m94808c86a5" y="84.156415"/>
     <use style="fill:#a42604;" x="636.410817" xlink:href="#m94808c86a5" y="91.042063"/>
     <use style="fill:#a42604;" x="633.687921" xlink:href="#m94808c86a5" y="94.906589"/>
     <use style="fill:#a42604;" x="628.304661" xlink:href="#m94808c86a5" y="103.543425"/>
     <use style="fill:#a42604;" x="624.245427" xlink:href="#m94808c86a5" y="110.231245"/>
     <use style="fill:#a42604;" x="620.13087" xlink:href="#m94808c86a5" y="117.585857"/>
     <use style="fill:#a42604;" x="616.959639" xlink:href="#m94808c86a5" y="124.151644"/>
     <use style="fill:#a42604;" x="614.150559" xlink:href="#m94808c86a5" y="130.20179"/>
     <use style="fill:#a42604;" x="610.932429" xlink:href="#m94808c86a5" y="136.798743"/>
     <use style="fill:#a42604;" x="607.285566" xlink:href="#m94808c86a5" y="143.085054"/>
     <use style="fill:#a42604;" x="603.599904" xlink:href="#m94808c86a5" y="148.276433"/>
     <use style="fill:#a42604;" x="599.264865" xlink:href="#m94808c86a5" y="153.446302"/>
     <use style="fill:#a42604;" x="594.104436" xlink:href="#m94808c86a5" y="158.73879"/>
     <use style="fill:#a42604;" x="588.238902" xlink:href="#m94808c86a5" y="163.736877"/>
     <use style="fill:#a42604;" x="583.742106" xlink:href="#m94808c86a5" y="167.427425"/>
     <use style="fill:#a42604;" x="576.338868" xlink:href="#m94808c86a5" y="173.475669"/>
     <use style="fill:#a42604;" x="567.626103" xlink:href="#m94808c86a5" y="180.541001"/>
     <use style="fill:#a42604;" x="560.75544" xlink:href="#m94808c86a5" y="186.738787"/>
     <use style="fill:#a42604;" x="554.989212" xlink:href="#m94808c86a5" y="192.166915"/>
     <use style="fill:#a42604;" x="548.604225" xlink:href="#m94808c86a5" y="197.502422"/>
     <use style="fill:#a42604;" x="541.58193" xlink:href="#m94808c86a5" y="202.775302"/>
     <use style="fill:#a42604;" x="535.197105" xlink:href="#m94808c86a5" y="207.684718"/>
     <use style="fill:#a42604;" x="528.57576" xlink:href="#m94808c86a5" y="212.219108"/>
     <use style="fill:#a42604;" x="525.421053" xlink:href="#m94808c86a5" y="214.295572"/>
     <use style="fill:#a42604;" x="517.895829" xlink:href="#m94808c86a5" y="220.001275"/>
     <use style="fill:#a42604;" x="511.404165" xlink:href="#m94808c86a5" y="225.481494"/>
     <use style="fill:#a42604;" x="504.92619" xlink:href="#m94808c86a5" y="230.548791"/>
     <use style="fill:#a42604;" x="498.577977" xlink:href="#m94808c86a5" y="235.215311"/>
     <use style="fill:#a42604;" x="492.872499" xlink:href="#m94808c86a5" y="239.815108"/>
     <use style="fill:#a42604;" x="487.462914" xlink:href="#m94808c86a5" y="244.236684"/>
     <use style="fill:#a42604;" x="482.54994" xlink:href="#m94808c86a5" y="248.42985"/>
     <use style="fill:#a42604;" x="477.941202" xlink:href="#m94808c86a5" y="252.466305"/>
     <use style="fill:#a42604;" x="475.698312" xlink:href="#m94808c86a5" y="254.346842"/>
     <use style="fill:#a42604;" x="466.846753" xlink:href="#m94808c86a5" y="261.700284"/>
     <use style="fill:#a42604;" x="458.552402" xlink:href="#m94808c86a5" y="268.564569"/>
     <use style="fill:#a42604;" x="451.154883" xlink:href="#m94808c86a5" y="274.708215"/>
     <use style="fill:#a42604;" x="443.994531" xlink:href="#m94808c86a5" y="280.444499"/>
     <use style="fill:#a42604;" x="433.187665" xlink:href="#m94808c86a5" y="289.005979"/>
     <use style="fill:#a42604;" x="425.93512" xlink:href="#m94808c86a5" y="295.109533"/>
     <use style="fill:#a42604;" x="419.352112" xlink:href="#m94808c86a5" y="300.798116"/>
     <use style="fill:#a42604;" x="413.409838" xlink:href="#m94808c86a5" y="306.113284"/>
     <use style="fill:#a42604;" x="407.831215" xlink:href="#m94808c86a5" y="311.13127"/>
     <use style="fill:#a42604;" x="402.457245" xlink:href="#m94808c86a5" y="315.830127"/>
     <use style="fill:#a42604;" x="397.451101" xlink:href="#m94808c86a5" y="320.336717"/>
     <use style="fill:#a42604;" x="393.013264" xlink:href="#m94808c86a5" y="324.614018"/>
     <use style="fill:#a42604;" x="386.335362" xlink:href="#m94808c86a5" y="331.262624"/>
     <use style="fill:#a42604;" x="380.165405" xlink:href="#m94808c86a5" y="337.08875"/>
     <use style="fill:#a42604;" x="374.195511" xlink:href="#m94808c86a5" y="342.294029"/>
     <use style="fill:#a42604;" x="368.742988" xlink:href="#m94808c86a5" y="346.945039"/>
     <use style="fill:#a42604;" x="363.417845" xlink:href="#m94808c86a5" y="351.405537"/>
     <use style="fill:#a42604;" x="358.615671" xlink:href="#m94808c86a5" y="355.609384"/>
     <use style="fill:#a42604;" x="354.445151" xlink:href="#m94808c86a5" y="359.571361"/>
     <use style="fill:#a42604;" x="350.444456" xlink:href="#m94808c86a5" y="363.408085"/>
     <use style="fill:#a42604;" x="346.687749" xlink:href="#m94808c86a5" y="366.9965"/>
     <use style="fill:#a42604;" x="343.212379" xlink:href="#m94808c86a5" y="370.417815"/>
     <use style="fill:#a42604;" x="339.93955" xlink:href="#m94808c86a5" y="373.565652"/>
     <use style="fill:#a42604;" x="334.382091" xlink:href="#m94808c86a5" y="378.558325"/>
     <use style="fill:#a42604;" x="326.878178" xlink:href="#m94808c86a5" y="384.979106"/>
     <use style="fill:#a42604;" x="320.062579" xlink:href="#m94808c86a5" y="390.571994"/>
     <use style="fill:#a42604;" x="313.549912" xlink:href="#m94808c86a5" y="395.426539"/>
     <use style="fill:#a42604;" x="307.455237" xlink:href="#m94808c86a5" y="399.745542"/>
     <use style="fill:#a42604;" x="301.780701" xlink:href="#m94808c86a5" y="403.576414"/>
     <use style="fill:#a42604;" x="296.333532" xlink:href="#m94808c86a5" y="406.939492"/>
     <use style="fill:#a42604;" x="291.352275" xlink:href="#m94808c86a5" y="410.143225"/>
     <use style="fill:#a42604;" x="286.634835" xlink:href="#m94808c86a5" y="413.005733"/>
     <use style="fill:#a42604;" x="281.930922" xlink:href="#m94808c86a5" y="415.543699"/>
     <use style="fill:#a42604;" x="275.363928" xlink:href="#m94808c86a5" y="418.921555"/>
     <use style="fill:#a42604;" x="267.07293" xlink:href="#m94808c86a5" y="422.748476"/>
     <use style="fill:#a42604;" x="259.059762" xlink:href="#m94808c86a5" y="425.906117"/>
     <use style="fill:#a42604;" x="251.898957" xlink:href="#m94808c86a5" y="428.781063"/>
     <use style="fill:#a42604;" x="245.837079" xlink:href="#m94808c86a5" y="431.828524"/>
     <use style="fill:#a42604;" x="240.416721" xlink:href="#m94808c86a5" y="434.489985"/>
     <use style="fill:#a42604;" x="234.879156" xlink:href="#m94808c86a5" y="436.702675"/>
     <use style="fill:#a42604;" x="229.64526" xlink:href="#m94808c86a5" y="438.682127"/>
     <use style="fill:#a42604;" x="224.611677" xlink:href="#m94808c86a5" y="440.381518"/>
     <use style="fill:#a42604;" x="220.080699" xlink:href="#m94808c86a5" y="441.542295"/>
     <use style="fill:#a42604;" x="212.174289" xlink:href="#m94808c86a5" y="441.776118"/>
     <use style="fill:#a42604;" x="204.951681" xlink:href="#m94808c86a5" y="442.405598"/>
     <use style="fill:#a42604;" x="200.609352" xlink:href="#m94808c86a5" y="444.527714"/>
     <use style="fill:#a42604;" x="196.25625" xlink:href="#m94808c86a5" y="446.428006"/>
     <use style="fill:#a42604;" x="191.661849" xlink:href="#m94808c86a5" y="447.548544"/>
     <use style="fill:#a42604;" x="188.414802" xlink:href="#m94808c86a5" y="449.639055"/>
     <use style="fill:#a42604;" x="186.186654" xlink:href="#m94808c86a5" y="452.129758"/>
     <use style="fill:#a42604;" x="181.829259" xlink:href="#m94808c86a5" y="453.028032"/>
     <use style="fill:#a42604;" x="177.417918" xlink:href="#m94808c86a5" y="454.116672"/>
    </g>
   </g>
   <g id="line2d_20">
    <path clip-path="url(#p8399ae8ed5)" d="M 70.2 456.793892 
L 82.989474 456.151828 
L 95.778947 455.401291 
L 108.568421 454.524272 
L 121.357895 453.499914 
L 134.147368 452.304118 
L 146.936842 450.909147 
L 159.726316 449.28321 
L 172.515789 447.390095 
L 185.305263 445.188888 
L 198.094737 442.633873 
L 210.884211 439.674765 
L 223.673684 436.257508 
L 236.463158 432.325992 
L 249.252632 427.825255 
L 262.042105 422.707005 
L 274.831579 416.938762 
L 287.621053 410.518557 
L 300.410526 403.498122 
L 313.2 396.018922 
" style="fill:none;stroke:#ff6700;stroke-linecap:square;stroke-width:4;"/>
   </g>
   <g id="line2d_21">
    <defs>
     <path d="M -0 5.656854 
L 3.394113 0 
L 0 -5.656854 
L -3.394113 -0 
z
" id="m807f47a725" style="stroke:#fa9f42;stroke-linejoin:miter;stroke-width:3;"/>
    </defs>
    <g clip-path="url(#p8399ae8ed5)">
     <use style="fill:#fa9f42;stroke:#fa9f42;stroke-linejoin:miter;stroke-width:3;" x="744.025068" xlink:href="#m807f47a725" y="100.106747"/>
     <use style="fill:#fa9f42;stroke:#fa9f42;stroke-linejoin:miter;stroke-width:3;" x="721.570248" xlink:href="#m807f47a725" y="109.251615"/>
     <use style="fill:#fa9f42;stroke:#fa9f42;stroke-linejoin:miter;stroke-width:3;" x="701.910576" xlink:href="#m807f47a725" y="118.850669"/>
     <use style="fill:#fa9f42;stroke:#fa9f42;stroke-linejoin:miter;stroke-width:3;" x="678.326859" xlink:href="#m807f47a725" y="121.665038"/>
     <use style="fill:#fa9f42;stroke:#fa9f42;stroke-linejoin:miter;stroke-width:3;" x="662.334219" xlink:href="#m807f47a725" y="134.113724"/>
     <use style="fill:#fa9f42;stroke:#fa9f42;stroke-linejoin:miter;stroke-width:3;" x="653.080617" xlink:href="#m807f47a725" y="143.117245"/>
     <use style="fill:#fa9f42;stroke:#fa9f42;stroke-linejoin:miter;stroke-width:3;" x="640.444779" xlink:href="#m807f47a725" y="152.721274"/>
     <use style="fill:#fa9f42;stroke:#fa9f42;stroke-linejoin:miter;stroke-width:3;" x="632.726451" xlink:href="#m807f47a725" y="158.328209"/>
     <use style="fill:#fa9f42;stroke:#fa9f42;stroke-linejoin:miter;stroke-width:3;" x="618.362721" xlink:href="#m807f47a725" y="168.053832"/>
     <use style="fill:#fa9f42;stroke:#fa9f42;stroke-linejoin:miter;stroke-width:3;" x="595.832814" xlink:href="#m807f47a725" y="181.287393"/>
     <use style="fill:#fa9f42;stroke:#fa9f42;stroke-linejoin:miter;stroke-width:3;" x="589.270842" xlink:href="#m807f47a725" y="184.714121"/>
     <use style="fill:#fa9f42;stroke:#fa9f42;stroke-linejoin:miter;stroke-width:3;" x="579.137904" xlink:href="#m807f47a725" y="189.689089"/>
     <use style="fill:#fa9f42;stroke:#fa9f42;stroke-linejoin:miter;stroke-width:3;" x="571.924935" xlink:href="#m807f47a725" y="193.043241"/>
     <use style="fill:#fa9f42;stroke:#fa9f42;stroke-linejoin:miter;stroke-width:3;" x="556.081173" xlink:href="#m807f47a725" y="200.085747"/>
     <use style="fill:#fa9f42;stroke:#fa9f42;stroke-linejoin:miter;stroke-width:3;" x="550.136826" xlink:href="#m807f47a725" y="202.687948"/>
     <use style="fill:#fa9f42;stroke:#fa9f42;stroke-linejoin:miter;stroke-width:3;" x="536.08041" xlink:href="#m807f47a725" y="208.978941"/>
     <use style="fill:#fa9f42;stroke:#fa9f42;stroke-linejoin:miter;stroke-width:3;" x="527.266476" xlink:href="#m807f47a725" y="213.097922"/>
     <use style="fill:#fa9f42;stroke:#fa9f42;stroke-linejoin:miter;stroke-width:3;" x="516.983202" xlink:href="#m807f47a725" y="218.182631"/>
     <use style="fill:#fa9f42;stroke:#fa9f42;stroke-linejoin:miter;stroke-width:3;" x="504.594171" xlink:href="#m807f47a725" y="224.935711"/>
     <use style="fill:#fa9f42;stroke:#fa9f42;stroke-linejoin:miter;stroke-width:3;" x="482.814081" xlink:href="#m807f47a725" y="238.83065"/>
     <use style="fill:#fa9f42;stroke:#fa9f42;stroke-linejoin:miter;stroke-width:3;" x="455.541543" xlink:href="#m807f47a725" y="260.822933"/>
     <use style="fill:#fa9f42;stroke:#fa9f42;stroke-linejoin:miter;stroke-width:3;" x="453.642984" xlink:href="#m807f47a725" y="262.495108"/>
     <use style="fill:#fa9f42;stroke:#fa9f42;stroke-linejoin:miter;stroke-width:3;" x="447.18858" xlink:href="#m807f47a725" y="268.213102"/>
     <use style="fill:#fa9f42;stroke:#fa9f42;stroke-linejoin:miter;stroke-width:3;" x="434.644272" xlink:href="#m807f47a725" y="279.109891"/>
     <use style="fill:#fa9f42;stroke:#fa9f42;stroke-linejoin:miter;stroke-width:3;" x="430.883604" xlink:href="#m807f47a725" y="282.206954"/>
     <use style="fill:#fa9f42;stroke:#fa9f42;stroke-linejoin:miter;stroke-width:3;" x="414.155646" xlink:href="#m807f47a725" y="293.993238"/>
    </g>
   </g>
   <g id="line2d_22">
    <defs>
     <path d="M -3 3 
L 3 3 
L 3 -3 
L -3 -3 
z
" id="m5d76e54d7c" style="stroke:#0d153a;stroke-linejoin:miter;stroke-width:3;"/>
    </defs>
    <g clip-path="url(#p8399ae8ed5)">
     <use style="fill:#0d153a;stroke:#0d153a;stroke-linejoin:miter;stroke-width:3;" x="272.7" xlink:href="#m5d76e54d7c" y="418.729409"/>
     <use style="fill:#0d153a;stroke:#0d153a;stroke-linejoin:miter;stroke-width:3;" x="313.2" xlink:href="#m5d76e54d7c" y="396.107702"/>
     <use style="fill:#0d153a;stroke:#0d153a;stroke-linejoin:miter;stroke-width:3;" x="321.3" xlink:href="#m5d76e54d7c" y="390.717469"/>
     <use style="fill:#0d153a;stroke:#0d153a;stroke-linejoin:miter;stroke-width:3;" x="325.35" xlink:href="#m5d76e54d7c" y="387.785567"/>
     <use style="fill:#0d153a;stroke:#0d153a;stroke-linejoin:miter;stroke-width:3;" x="353.7" xlink:href="#m5d76e54d7c" y="365.727976"/>
     <use style="fill:#0d153a;stroke:#0d153a;stroke-linejoin:miter;stroke-width:3;" x="394.2" xlink:href="#m5d76e54d7c" y="329.122075"/>
     <use style="fill:#0d153a;stroke:#0d153a;stroke-linejoin:miter;stroke-width:3;" x="434.7" xlink:href="#m5d76e54d7c" y="291.545433"/>
     <use style="fill:#0d153a;stroke:#0d153a;stroke-linejoin:miter;stroke-width:3;" x="475.2" xlink:href="#m5d76e54d7c" y="257.762685"/>
     <use style="fill:#0d153a;stroke:#0d153a;stroke-linejoin:miter;stroke-width:3;" x="515.7" xlink:href="#m5d76e54d7c" y="228.951079"/>
     <use style="fill:#0d153a;stroke:#0d153a;stroke-linejoin:miter;stroke-width:3;" x="556.2" xlink:href="#m5d76e54d7c" y="204.385779"/>
     <use style="fill:#0d153a;stroke:#0d153a;stroke-linejoin:miter;stroke-width:3;" x="576.45" xlink:href="#m5d76e54d7c" y="195.479128"/>
    </g>
   </g>
   <g id="patch_3">
    <path d="M 86.4 475.2 
L 86.4 21.6 
" style="fill:none;stroke:#000000;stroke-linecap:square;stroke-linejoin:miter;stroke-width:2;"/>
   </g>
   <g id="patch_4">
    <path d="M 702 475.2 
L 702 21.6 
" style="fill:none;stroke:#000000;stroke-linecap:square;stroke-linejoin:miter;stroke-width:2;"/>
   </g>
   <g id="patch_5">
    <path d="M 86.4 475.2 
L 702 475.2 
" style="fill:none;stroke:#000000;stroke-linecap:square;stroke-linejoin:miter;stroke-width:2;"/>
   </g>
   <g id="patch_6">
    <path d="M 86.4 21.6 
L 702 21.6 
" style="fill:none;stroke:#000000;stroke-linecap:square;stroke-linejoin:miter;stroke-width:2;"/>
   </g>
   <g id="legend_1">
    <g id="LineCollection_3">
     <path d="M 128.2 60.316305 
L 128.2 38.316305 
" style="fill:none;stroke:#fa9f42;stroke-width:3;"/>
    </g>
    <g id="line2d_23">
     <g>
      <use style="fill:#fa9f42;stroke:#fa9f42;stroke-width:3;" x="128.2" xlink:href="#m7cfcdd3d84" y="60.316305"/>
     </g>
    </g>
    <g id="line2d_24">
     <g>
      <use style="fill:#fa9f42;stroke:#fa9f42;stroke-width:3;" x="128.2" xlink:href="#m7cfcdd3d84" y="38.316305"/>
     </g>
    </g>
    <g id="line2d_25"/>
    <g id="line2d_26">
     <g>
      <use style="fill:#fa9f42;stroke:#fa9f42;stroke-linejoin:miter;stroke-width:3;" x="128.2" xlink:href="#m807f47a725" y="49.316305"/>
     </g>
    </g>
    <g id="text_17">
     <!-- DHMC -->
     <defs>
      <path d="M 8.90625 0 
L 37 0 
C 55.40625 0 66.703125 13.828125 66.703125 36.546875 
C 66.703125 59.171875 55.5 73 37 73 
L 8.90625 73 
z
M 18.203125 8.21875 
L 18.203125 64.78125 
L 35.40625 64.78125 
C 49.796875 64.78125 57.40625 55.0625 57.40625 36.453125 
C 57.40625 18.03125 49.796875 8.21875 35.40625 8.21875 
z
" id="Nimbus_Sans_L_Regular-68"/>
      <path d="M 55.09375 33 
L 55.09375 -0.03125 
L 64.40625 -0.03125 
L 64.40625 73 
L 55.09375 73 
L 55.09375 41.21875 
L 17.59375 41.21875 
L 17.59375 73 
L 8.296875 73 
L 8.296875 -0.03125 
L 17.703125 -0.03125 
L 17.703125 33 
z
" id="Nimbus_Sans_L_Regular-72"/>
      <path d="M 46.796875 -0.03125 
L 67.296875 61.171875 
L 67.296875 -0.03125 
L 76.09375 -0.03125 
L 76.09375 73 
L 63.203125 73 
L 42 9.390625 
L 20.40625 73 
L 7.5 73 
L 7.5 -0.03125 
L 16.296875 -0.03125 
L 16.296875 61.171875 
L 37 -0.03125 
z
" id="Nimbus_Sans_L_Regular-77"/>
      <path d="M 66.203125 50.453125 
C 63.296875 66.4375 54.09375 74.21875 38.09375 74.21875 
C 28.296875 74.21875 20.40625 71.125 15 65.125 
C 8.40625 57.953125 4.796875 47.578125 4.796875 35.796875 
C 4.796875 23.828125 8.5 13.5625 15.40625 6.46875 
C 21 0.6875 28.203125 -2 37.703125 -2 
C 55.5 -2 65.5 7.578125 67.703125 26.828125 
L 58.09375 26.828125 
C 57.296875 21.859375 56.296875 18.46875 54.796875 15.578125 
C 51.796875 9.59375 45.59375 6.203125 37.796875 6.203125 
C 23.296875 6.203125 14.09375 17.765625 14.09375 35.90625 
C 14.09375 54.546875 22.90625 66 37 66 
C 42.90625 66 48.40625 64.21875 51.40625 61.40625 
C 54.09375 58.921875 55.59375 55.828125 56.703125 50.453125 
z
" id="Nimbus_Sans_L_Regular-67"/>
     </defs>
     <g transform="translate(167.8 57.016305)scale(0.22 -0.22)">
      <use transform="scale(0.996264)" xlink:href="#Nimbus_Sans_L_Regular-68"/>
      <use transform="translate(71.929985 0)scale(0.996264)" xlink:href="#Nimbus_Sans_L_Regular-72"/>
      <use transform="translate(143.85997 0)scale(0.996264)" xlink:href="#Nimbus_Sans_L_Regular-77"/>
      <use transform="translate(226.8484 0)scale(0.996264)" xlink:href="#Nimbus_Sans_L_Regular-67"/>
     </g>
    </g>
    <g id="LineCollection_4">
     <path d="M 128.2 91.60097 
L 128.2 69.60097 
" style="fill:none;stroke:#0d153a;stroke-width:3;"/>
    </g>
    <g id="line2d_27">
     <g>
      <use style="fill:#0d153a;stroke:#0d153a;stroke-width:3;" x="128.2" xlink:href="#m77c59e4f88" y="91.60097"/>
     </g>
    </g>
    <g id="line2d_28">
     <g>
      <use style="fill:#0d153a;stroke:#0d153a;stroke-width:3;" x="128.2" xlink:href="#m77c59e4f88" y="69.60097"/>
     </g>
    </g>
    <g id="line2d_29"/>
    <g id="line2d_30">
     <g>
      <use style="fill:#0d153a;stroke:#0d153a;stroke-linejoin:miter;stroke-width:3;" x="128.2" xlink:href="#m5d76e54d7c" y="80.60097"/>
     </g>
    </g>
    <g id="text_18">
     <!-- BDMC -->
     <defs>
      <path d="M 7.90625 0 
L 40.796875 0 
C 47.703125 0 52.796875 1.890625 56.703125 6.0625 
C 60.296875 9.828125 62.296875 14.984375 62.296875 20.65625 
C 62.296875 29.390625 58.296875 34.640625 49 38.21875 
C 55.59375 41.359375 59.09375 46.8125 59.09375 54.296875 
C 59.09375 59.640625 57.09375 64.40625 53.296875 67.84375 
C 49.5 71.375 44.5 73 37.5 73 
L 7.90625 73 
z
M 17.203125 41.21875 
L 17.203125 64.78125 
L 35.203125 64.78125 
C 40.40625 64.78125 43.296875 64.0625 45.796875 62.140625 
C 48.40625 60.109375 49.796875 57.0625 49.796875 52.984375 
C 49.796875 49.03125 48.40625 45.890625 45.796875 43.84375 
C 43.296875 41.921875 40.40625 41.21875 35.203125 41.21875 
z
M 17.203125 8.21875 
L 17.203125 33 
L 39.90625 33 
C 44.40625 33 47.40625 31.90625 49.59375 29.546875 
C 51.796875 27.265625 53 24.109375 53 20.5625 
C 53 17.109375 51.796875 13.953125 49.59375 11.671875 
C 47.40625 9.296875 44.40625 8.21875 39.90625 8.21875 
z
" id="Nimbus_Sans_L_Regular-66"/>
     </defs>
     <g transform="translate(167.8 88.30097)scale(0.22 -0.22)">
      <use transform="scale(0.996264)" xlink:href="#Nimbus_Sans_L_Regular-66"/>
      <use transform="translate(66.450031 0)scale(0.996264)" xlink:href="#Nimbus_Sans_L_Regular-68"/>
      <use transform="translate(138.380016 0)scale(0.996264)" xlink:href="#Nimbus_Sans_L_Regular-77"/>
      <use transform="translate(221.368446 0)scale(0.996264)" xlink:href="#Nimbus_Sans_L_Regular-67"/>
     </g>
    </g>
    <g id="line2d_31"/>
    <g id="line2d_32">
     <g>
      <use style="fill:#a42604;" x="128.2" xlink:href="#m94808c86a5" y="112.291234"/>
     </g>
    </g>
    <g id="text_19">
     <!-- experiment (MIT) -->
     <defs>
      <path d="M 51.296875 23.890625 
C 51.296875 31.78125 50.703125 36.53125 49.203125 40.375 
C 45.796875 48.859375 37.796875 54 28 54 
C 13.40625 54 4 42.84375 4 25.703125 
C 4 8.546875 13.09375 -2 27.796875 -2 
C 39.796875 -2 48.09375 4.84375 50.203125 16.3125 
L 41.796875 16.3125 
C 39.5 9.34375 34.796875 5.703125 28.09375 5.703125 
C 22.796875 5.703125 18.296875 8.125 15.5 12.578125 
C 13.5 15.59375 12.796875 18.640625 12.703125 23.890625 
z
M 12.90625 31 
C 13.59375 40.265625 19.5 46.28125 27.90625 46.28125 
C 36.09375 46.28125 42.40625 39.53125 42.40625 31 
C 42.40625 31 42.40625 31 42.296875 31 
z
" id="Nimbus_Sans_L_Regular-101"/>
      <path d="M 29.203125 27.140625 
L 46.796875 52.484375 
L 37.40625 52.484375 
L 24.796875 33.453125 
L 12.203125 52.484375 
L 2.703125 52.484375 
L 20.203125 26.75 
L 1.703125 0 
L 11.203125 0 
L 24.5 20.125 
L 37.59375 0 
L 47.296875 0 
z
" id="Nimbus_Sans_L_Regular-120"/>
      <path d="M 5.40625 -22 
L 13.796875 -22 
L 13.796875 5 
C 18.203125 -0.421875 23.09375 -2.8125 29.90625 -2.8125 
C 43.40625 -2.8125 52.296875 8.15625 52.296875 24.984375 
C 52.296875 42.71875 43.703125 53.8125 29.796875 53.8125 
C 22.703125 53.8125 17 50.59375 13.09375 44.390625 
L 13.09375 52.328125 
L 5.40625 52.328125 
z
M 28.40625 46 
C 37.59375 46 43.59375 37.8125 43.59375 25.1875 
C 43.59375 13.171875 37.5 5 28.40625 5 
C 19.59375 5 13.796875 13.078125 13.796875 25.5 
C 13.796875 37.921875 19.59375 46 28.40625 46 
z
" id="Nimbus_Sans_L_Regular-112"/>
      <path d="M 6.90625 52.484375 
L 6.90625 0 
L 15.296875 0 
L 15.296875 27.203125 
C 15.296875 34.703125 17.203125 39.609375 21.203125 42.5 
C 23.796875 44.40625 26.296875 45 32.09375 45 
L 32.09375 53.625 
C 30.703125 53.8125 30 53.8125 28.90625 53.8125 
C 23.5 53.8125 19.40625 50.625 14.59375 42.90625 
L 14.59375 52.484375 
z
" id="Nimbus_Sans_L_Regular-114"/>
      <path d="M 15 52.484375 
L 6.703125 52.484375 
L 6.703125 0 
L 15 0 
z
M 15 73 
L 6.59375 73 
L 6.59375 62.484375 
L 15 62.484375 
z
" id="Nimbus_Sans_L_Regular-105"/>
      <path d="M 7 52.484375 
L 7 0 
L 15.40625 0 
L 15.40625 32.953125 
C 15.40625 40.578125 20.90625 46.6875 27.703125 46.6875 
C 33.90625 46.6875 37.40625 42.875 37.40625 36.15625 
L 37.40625 0 
L 45.796875 0 
L 45.796875 32.953125 
C 45.796875 40.578125 51.296875 46.6875 58.09375 46.6875 
C 64.203125 46.6875 67.796875 42.78125 67.796875 36.15625 
L 67.796875 0 
L 76.203125 0 
L 76.203125 39.375 
C 76.203125 48.78125 70.796875 54 61 54 
C 54 54 49.796875 51.890625 44.90625 45.984375 
C 41.796875 51.59375 37.59375 54 30.796875 54 
C 23.796875 54 19.203125 51.390625 14.703125 45.078125 
L 14.703125 52.484375 
z
" id="Nimbus_Sans_L_Regular-109"/>
      <path d="M 7 52.484375 
L 7 0 
L 15.40625 0 
L 15.40625 28.953125 
C 15.40625 39.671875 21 46.6875 29.59375 46.6875 
C 36.203125 46.6875 40.40625 42.671875 40.40625 36.359375 
L 40.40625 0 
L 48.703125 0 
L 48.703125 39.671875 
C 48.703125 48.390625 42.203125 54 32.09375 54 
C 24.296875 54 19.296875 50.984375 14.703125 43.6875 
L 14.703125 52.484375 
z
" id="Nimbus_Sans_L_Regular-110"/>
      <path d="M 25.40625 52.8125 
L 16.796875 52.8125 
L 16.796875 67 
L 8.5 67 
L 8.5 52.8125 
L 1.40625 52.8125 
L 1.40625 46 
L 8.5 46 
L 8.5 6.3125 
C 8.5 1 12.09375 -2 18.59375 -2 
C 20.59375 -2 22.59375 -1.8125 25.40625 -1.296875 
L 25.40625 5.71875 
C 24.296875 5.40625 23 5.3125 21.40625 5.3125 
C 17.796875 5.3125 16.796875 6.3125 16.796875 10.015625 
L 16.796875 46 
L 25.40625 46 
z
" id="Nimbus_Sans_L_Regular-116"/>
      <path d="M 23.59375 73 
C 13.59375 59.84375 7.296875 41.5625 7.296875 25.796875 
C 7.296875 9.9375 13.59375 -8.34375 23.59375 -21.5 
L 29.09375 -21.5 
C 20.296875 -7.140625 15.40625 9.734375 15.40625 25.796875 
C 15.40625 41.765625 20.296875 58.734375 29.09375 73 
z
" id="Nimbus_Sans_L_Regular-40"/>
      <path d="M 19.40625 73 
L 10 73 
L 10 -0.03125 
L 19.40625 -0.03125 
z
" id="Nimbus_Sans_L_Regular-73"/>
      <path d="M 35.40625 64.78125 
L 59.296875 64.78125 
L 59.296875 73 
L 2.09375 73 
L 2.09375 64.78125 
L 26.09375 64.78125 
L 26.09375 -0.21875 
L 35.40625 -0.21875 
z
" id="Nimbus_Sans_L_Regular-84"/>
      <path d="M 9.296875 -21.5 
C 19.296875 -8.34375 25.59375 9.9375 25.59375 25.6875 
C 25.59375 41.5625 19.296875 59.84375 9.296875 73 
L 3.796875 73 
C 12.59375 58.640625 17.5 41.765625 17.5 25.6875 
C 17.5 9.734375 12.59375 -7.25 3.796875 -21.5 
z
" id="Nimbus_Sans_L_Regular-41"/>
     </defs>
     <g transform="translate(167.8 119.991234)scale(0.22 -0.22)">
      <use transform="scale(0.996264)" xlink:href="#Nimbus_Sans_L_Regular-101"/>
      <use transform="translate(52.403569 0)scale(0.996264)" xlink:href="#Nimbus_Sans_L_Regular-120"/>
      <use transform="translate(102.21677 0)scale(0.996264)" xlink:href="#Nimbus_Sans_L_Regular-112"/>
      <use transform="translate(157.608446 0)scale(0.996264)" xlink:href="#Nimbus_Sans_L_Regular-101"/>
      <use transform="translate(213.000123 0)scale(0.996264)" xlink:href="#Nimbus_Sans_L_Regular-114"/>
      <use transform="translate(247.668731 0)scale(0.996264)" xlink:href="#Nimbus_Sans_L_Regular-105"/>
      <use transform="translate(269.785515 0)scale(0.996264)" xlink:href="#Nimbus_Sans_L_Regular-109"/>
      <use transform="translate(352.773945 0)scale(0.996264)" xlink:href="#Nimbus_Sans_L_Regular-101"/>
      <use transform="translate(408.165622 0)scale(0.996264)" xlink:href="#Nimbus_Sans_L_Regular-110"/>
      <use transform="translate(463.557299 0)scale(0.996264)" xlink:href="#Nimbus_Sans_L_Regular-116"/>
      <use transform="translate(518.947638 0)scale(0.996264)" xlink:href="#Nimbus_Sans_L_Regular-40"/>
      <use transform="translate(552.122868 0)scale(0.996264)" xlink:href="#Nimbus_Sans_L_Regular-77"/>
      <use transform="translate(635.111298 0)scale(0.996264)" xlink:href="#Nimbus_Sans_L_Regular-73"/>
      <use transform="translate(662.806468 0)scale(0.996264)" xlink:href="#Nimbus_Sans_L_Regular-84"/>
      <use transform="translate(723.678099 0)scale(0.996264)" xlink:href="#Nimbus_Sans_L_Regular-41"/>
     </g>
    </g>
    <g id="line2d_33">
     <path d="M 106.2 143.5759 
L 150.2 143.5759 
" style="fill:none;stroke:#ff6700;stroke-linecap:square;stroke-width:4;"/>
    </g>
    <g id="line2d_34"/>
    <g id="text_20">
     <!-- 3rd order virial exp. -->
     <defs>
      <path d="M 22.09375 33 
L 23.203125 33 
L 26.90625 33 
C 36.59375 33 41.59375 28.59375 41.59375 20.0625 
C 41.59375 11.125 36.09375 5.8125 26.90625 5.8125 
C 17.296875 5.8125 12.59375 10.640625 12 21.015625 
L 3.203125 21.015625 
C 3.59375 15.28125 4.59375 11.5625 6.296875 8.34375 
C 9.90625 1.515625 16.90625 -2 26.59375 -2 
C 41.203125 -2 50.59375 6.734375 50.59375 20.203125 
C 50.59375 29.25 47.09375 34.28125 38.59375 37.203125 
C 45.203125 39.78125 48.5 44.71875 48.5 51.734375 
C 48.5 63.78125 40.40625 71 26.90625 71 
C 12.59375 71 5 63.28125 4.703125 48.359375 
L 13.5 48.359375 
C 13.59375 52.59375 14 54.953125 15.09375 57.109375 
C 17.09375 60.9375 21.5 63.296875 27 63.296875 
C 34.796875 63.296875 39.5 58.75 39.5 51.359375 
C 39.5 46.421875 37.703125 43.453125 33.796875 41.890625 
C 31.40625 40.90625 28.296875 40.5 22.09375 40.5 
z
" id="Nimbus_Sans_L_Regular-51"/>
      <path d="M 49.5 73 
L 41.203125 73 
L 41.203125 45.890625 
C 37.703125 51.1875 32.09375 54 25.09375 54 
C 11.5 54 2.59375 43.140625 2.59375 26.484375 
C 2.59375 8.84375 11.296875 -2 25.40625 -2 
C 32.59375 -2 37.59375 0.703125 42.09375 7.203125 
L 42.09375 -0.03125 
L 49.5 -0.03125 
z
M 26.5 46.1875 
C 35.5 46.1875 41.203125 38.234375 41.203125 25.796875 
C 41.203125 13.765625 35.40625 5.8125 26.59375 5.8125 
C 17.40625 5.8125 11.296875 13.859375 11.296875 26 
C 11.296875 38.125 17.40625 46.1875 26.5 46.1875 
z
" id="Nimbus_Sans_L_Regular-100"/>
      <path d="M 27.203125 54 
C 12.5 54 3.59375 43.53125 3.59375 25.984375 
C 3.59375 8.453125 12.40625 -2 27.296875 -2 
C 42 -2 51 8.453125 51 25.59375 
C 51 43.625 42.296875 54 27.203125 54 
z
M 27.296875 46.28125 
C 36.703125 46.28125 42.296875 38.625 42.296875 25.703125 
C 42.296875 13.453125 36.5 5.703125 27.296875 5.703125 
C 18 5.703125 12.296875 13.359375 12.296875 25.984375 
C 12.296875 38.53125 18 46.28125 27.296875 46.28125 
z
" id="Nimbus_Sans_L_Regular-111"/>
      <path d="M 28.5 0 
L 48.59375 52.5 
L 39.203125 52.5 
L 24.40625 9.921875 
L 10.40625 52.5 
L 1 52.5 
L 19.40625 0 
z
" id="Nimbus_Sans_L_Regular-118"/>
      <path d="M 53.5 5.203125 
C 52.59375 5 52.203125 5 51.703125 5 
C 48.796875 5 47.203125 6.484375 47.203125 9.078125 
L 47.203125 39.765625 
C 47.203125 49.015625 40.40625 54 27.5 54 
C 19.90625 54 13.59375 51.8125 10.09375 47.90625 
C 7.703125 45.203125 6.703125 42.21875 6.5 37.03125 
L 14.90625 37.03125 
C 15.59375 43.390625 19.40625 46.28125 27.203125 46.28125 
C 34.703125 46.28125 38.90625 43.484375 38.90625 38.515625 
L 38.90625 36.328125 
C 38.90625 32.828125 36.796875 31.34375 30.203125 30.546875 
C 18.40625 29.0625 16.59375 28.65625 13.40625 27.359375 
C 7.296875 24.875 4.203125 20.1875 4.203125 13.421875 
C 4.203125 3.96875 10.796875 -2 21.40625 -2 
C 28 -2 33.296875 0.296875 39.203125 5.703125 
C 39.796875 0.390625 42.40625 -2 47.796875 -2 
C 49.5 -2 50.796875 -1.8125 53.5 -1.09375 
z
M 38.90625 16.75 
C 38.90625 13.953125 38.09375 12.265625 35.59375 9.984375 
C 32.203125 6.890625 28.09375 5.3125 23.203125 5.3125 
C 16.703125 5.3125 12.90625 8.390625 12.90625 13.65625 
C 12.90625 19.140625 16.59375 21.921875 25.5 23.21875 
C 34.296875 24.40625 36.09375 24.8125 38.90625 26.09375 
z
" id="Nimbus_Sans_L_Regular-97"/>
      <path d="M 15.203125 73 
L 6.796875 73 
L 6.796875 -0.03125 
L 15.203125 -0.03125 
z
" id="Nimbus_Sans_L_Regular-108"/>
      <path d="M 19.09375 10.421875 
L 8.703125 10.421875 
L 8.703125 0 
L 19.09375 0 
z
" id="Nimbus_Sans_L_Regular-46"/>
     </defs>
     <g transform="translate(167.8 151.2759)scale(0.22 -0.22)">
      <use transform="scale(0.996264)" xlink:href="#Nimbus_Sans_L_Regular-51"/>
      <use transform="translate(55.391677 0)scale(0.996264)" xlink:href="#Nimbus_Sans_L_Regular-114"/>
      <use transform="translate(88.566907 0)scale(0.996264)" xlink:href="#Nimbus_Sans_L_Regular-100"/>
      <use transform="translate(171.653753 0)scale(0.996264)" xlink:href="#Nimbus_Sans_L_Regular-111"/>
      <use transform="translate(227.04543 0)scale(0.996264)" xlink:href="#Nimbus_Sans_L_Regular-114"/>
      <use transform="translate(260.22066 0)scale(0.996264)" xlink:href="#Nimbus_Sans_L_Regular-100"/>
      <use transform="translate(315.612337 0)scale(0.996264)" xlink:href="#Nimbus_Sans_L_Regular-101"/>
      <use transform="translate(371.004014 0)scale(0.996264)" xlink:href="#Nimbus_Sans_L_Regular-114"/>
      <use transform="translate(431.874413 0)scale(0.996264)" xlink:href="#Nimbus_Sans_L_Regular-118"/>
      <use transform="translate(481.687614 0)scale(0.996264)" xlink:href="#Nimbus_Sans_L_Regular-105"/>
      <use transform="translate(503.804398 0)scale(0.996264)" xlink:href="#Nimbus_Sans_L_Regular-114"/>
      <use transform="translate(538.473005 0)scale(0.996264)" xlink:href="#Nimbus_Sans_L_Regular-105"/>
      <use transform="translate(560.58979 0)scale(0.996264)" xlink:href="#Nimbus_Sans_L_Regular-97"/>
      <use transform="translate(615.981467 0)scale(0.996264)" xlink:href="#Nimbus_Sans_L_Regular-108"/>
      <use transform="translate(665.793421 0)scale(0.996264)" xlink:href="#Nimbus_Sans_L_Regular-101"/>
      <use transform="translate(718.19699 0)scale(0.996264)" xlink:href="#Nimbus_Sans_L_Regular-120"/>
      <use transform="translate(768.01019 0)scale(0.996264)" xlink:href="#Nimbus_Sans_L_Regular-112"/>
      <use transform="translate(819.915141 0)scale(0.996264)" xlink:href="#Nimbus_Sans_L_Regular-46"/>
     </g>
    </g>
    <g id="line2d_35"/>
    <g id="line2d_36">
     <defs>
      <path d="M -4 4 
L 4 4 
L 4 -4 
L -4 -4 
z
" id="ma78734047b" style="stroke:#187795;stroke-linejoin:miter;stroke-width:3;"/>
     </defs>
     <g>
      <use style="fill:#187795;stroke:#187795;stroke-linejoin:miter;stroke-width:3;" x="128.2" xlink:href="#ma78734047b" y="174.860565"/>
     </g>
    </g>
    <g id="text_21">
     <!-- complex Langevin -->
     <defs>
      <path d="M 47.09375 34.9375 
C 46.703125 40.03125 45.59375 43.328125 43.59375 46.21875 
C 40 51.109375 33.703125 54 26.40625 54 
C 12.296875 54 3.09375 42.84375 3.09375 25.5 
C 3.09375 8.65625 12.09375 -2 26.296875 -2 
C 38.796875 -2 46.703125 5.46875 47.703125 18.234375 
L 39.296875 18.234375 
C 37.90625 9.875 33.59375 5.703125 26.5 5.703125 
C 17.296875 5.703125 11.796875 13.171875 11.796875 25.5 
C 11.796875 38.53125 17.203125 46.28125 26.296875 46.28125 
C 33.296875 46.28125 37.703125 42.203125 38.703125 34.9375 
z
" id="Nimbus_Sans_L_Regular-99"/>
      <path d="M 17.296875 73 
L 8 73 
L 8 0 
L 53.296875 0 
L 53.296875 8.21875 
L 17.296875 8.21875 
z
" id="Nimbus_Sans_L_Regular-76"/>
      <path d="M 41.203125 52.203125 
L 41.203125 44.59375 
C 37 50.8125 31.90625 53.71875 25.203125 53.71875 
C 11.90625 53.71875 2.90625 42.0625 2.90625 25 
C 2.90625 16.375 5.203125 9.34375 9.5 4.3125 
C 13.40625 -0.109375 19 -2.703125 24.5 -2.703125 
C 31.09375 -2.703125 35.703125 0.09375 40.40625 6.703125 
L 40.40625 4.03125 
C 40.40625 -3 39.5 -7.265625 37.40625 -10.140625 
C 35.203125 -13.1875 30.90625 -14.984375 25.796875 -14.984375 
C 22 -14.984375 18.59375 -14 16.296875 -12.234375 
C 14.40625 -10.75 13.59375 -9.375 13.09375 -6.34375 
L 4.59375 -6.34375 
C 5.5 -16.140625 13.203125 -22 25.5 -22 
C 33.296875 -22 40 -19.484375 43.40625 -15.296875 
C 47.40625 -10.484375 48.90625 -3.890625 48.90625 8.40625 
L 48.90625 52.203125 
z
M 26.09375 46 
C 35.09375 46 40.40625 38.359375 40.40625 25.203125 
C 40.40625 12.625 35 5 26.203125 5 
C 17.09375 5 11.59375 12.75 11.59375 25.5 
C 11.59375 38.15625 17.203125 46 26.09375 46 
z
" id="Nimbus_Sans_L_Regular-103"/>
     </defs>
     <g transform="translate(167.8 182.560565)scale(0.22 -0.22)">
      <use transform="scale(0.996264)" xlink:href="#Nimbus_Sans_L_Regular-99"/>
      <use transform="translate(49.8132 0)scale(0.996264)" xlink:href="#Nimbus_Sans_L_Regular-111"/>
      <use transform="translate(105.204877 0)scale(0.996264)" xlink:href="#Nimbus_Sans_L_Regular-109"/>
      <use transform="translate(188.193308 0)scale(0.996264)" xlink:href="#Nimbus_Sans_L_Regular-112"/>
      <use transform="translate(243.584985 0)scale(0.996264)" xlink:href="#Nimbus_Sans_L_Regular-108"/>
      <use transform="translate(265.701769 0)scale(0.996264)" xlink:href="#Nimbus_Sans_L_Regular-101"/>
      <use transform="translate(318.105338 0)scale(0.996264)" xlink:href="#Nimbus_Sans_L_Regular-120"/>
      <use transform="translate(395.613708 0)scale(0.996264)" xlink:href="#Nimbus_Sans_L_Regular-76"/>
      <use transform="translate(451.005385 0)scale(0.996264)" xlink:href="#Nimbus_Sans_L_Regular-97"/>
      <use transform="translate(506.397062 0)scale(0.996264)" xlink:href="#Nimbus_Sans_L_Regular-110"/>
      <use transform="translate(561.788739 0)scale(0.996264)" xlink:href="#Nimbus_Sans_L_Regular-103"/>
      <use transform="translate(617.180416 0)scale(0.996264)" xlink:href="#Nimbus_Sans_L_Regular-101"/>
      <use transform="translate(669.583985 0)scale(0.996264)" xlink:href="#Nimbus_Sans_L_Regular-118"/>
      <use transform="translate(719.397185 0)scale(0.996264)" xlink:href="#Nimbus_Sans_L_Regular-105"/>
      <use transform="translate(741.51397 0)scale(0.996264)" xlink:href="#Nimbus_Sans_L_Regular-110"/>
     </g>
    </g>
   </g>
   <g id="line2d_37">
    <g clip-path="url(#p8399ae8ed5)">
     <use style="fill:#187795;stroke:#187795;stroke-linejoin:miter;stroke-width:3;" x="232.2" xlink:href="#ma78734047b" y="437.36762"/>
     <use style="fill:#187795;stroke:#187795;stroke-linejoin:miter;stroke-width:3;" x="252.45" xlink:href="#ma78734047b" y="428.743362"/>
     <use style="fill:#187795;stroke:#187795;stroke-linejoin:miter;stroke-width:3;" x="272.7" xlink:href="#ma78734047b" y="421.266489"/>
     <use style="fill:#187795;stroke:#187795;stroke-linejoin:miter;stroke-width:3;" x="292.95" xlink:href="#ma78734047b" y="411.495118"/>
     <use style="fill:#187795;stroke:#187795;stroke-linejoin:miter;stroke-width:3;" x="313.2" xlink:href="#ma78734047b" y="398.960713"/>
     <use style="fill:#187795;stroke:#187795;stroke-linejoin:miter;stroke-width:3;" x="333.45" xlink:href="#ma78734047b" y="384.036967"/>
     <use style="fill:#187795;stroke:#187795;stroke-linejoin:miter;stroke-width:3;" x="353.7" xlink:href="#ma78734047b" y="371.650387"/>
     <use style="fill:#187795;stroke:#187795;stroke-linejoin:miter;stroke-width:3;" x="373.95" xlink:href="#ma78734047b" y="350.518526"/>
     <use style="fill:#187795;stroke:#187795;stroke-linejoin:miter;stroke-width:3;" x="394.2" xlink:href="#ma78734047b" y="326.872193"/>
     <use style="fill:#187795;stroke:#187795;stroke-linejoin:miter;stroke-width:3;" x="414.45" xlink:href="#ma78734047b" y="297.985219"/>
     <use style="fill:#187795;stroke:#187795;stroke-linejoin:miter;stroke-width:3;" x="434.7" xlink:href="#ma78734047b" y="274.930645"/>
     <use style="fill:#187795;stroke:#187795;stroke-linejoin:miter;stroke-width:3;" x="454.95" xlink:href="#ma78734047b" y="249.892249"/>
     <use style="fill:#187795;stroke:#187795;stroke-linejoin:miter;stroke-width:3;" x="475.2" xlink:href="#ma78734047b" y="230.897533"/>
     <use style="fill:#187795;stroke:#187795;stroke-linejoin:miter;stroke-width:3;" x="495.45" xlink:href="#ma78734047b" y="208.742246"/>
     <use style="fill:#187795;stroke:#187795;stroke-linejoin:miter;stroke-width:3;" x="515.7" xlink:href="#ma78734047b" y="195.405888"/>
     <use style="fill:#187795;stroke:#187795;stroke-linejoin:miter;stroke-width:3;" x="535.95" xlink:href="#ma78734047b" y="186.732738"/>
     <use style="fill:#187795;stroke:#187795;stroke-linejoin:miter;stroke-width:3;" x="556.2" xlink:href="#ma78734047b" y="175.764717"/>
     <use style="fill:#187795;stroke:#187795;stroke-linejoin:miter;stroke-width:3;" x="576.45" xlink:href="#ma78734047b" y="176.24126"/>
     <use style="fill:#187795;stroke:#187795;stroke-linejoin:miter;stroke-width:3;" x="596.7" xlink:href="#ma78734047b" y="176.206799"/>
     <use style="fill:#187795;stroke:#187795;stroke-linejoin:miter;stroke-width:3;" x="616.95" xlink:href="#ma78734047b" y="179.590512"/>
     <use style="fill:#187795;stroke:#187795;stroke-linejoin:miter;stroke-width:3;" x="637.2" xlink:href="#ma78734047b" y="178.705383"/>
    </g>
   </g>
  </g>
 </g>
 <defs>
  <clipPath id="p8399ae8ed5">
   <rect height="453.6" width="615.6" x="86.4" y="21.6"/>
  </clipPath>
 </defs>
</svg>
