<?xml version="1.0" encoding="utf-8" standalone="no"?>
<!DOCTYPE svg PUBLIC "-//W3C//DTD SVG 1.1//EN"
  "http://www.w3.org/Graphics/SVG/1.1/DTD/svg11.dtd">
<!-- Created with matplotlib (http://matplotlib.org/) -->
<svg height="105.12pt" version="1.1" viewBox="0 0 144 105.12" width="144pt" xmlns="http://www.w3.org/2000/svg" xmlns:xlink="http://www.w3.org/1999/xlink">
 <defs>
  <style type="text/css">
*{stroke-linecap:butt;stroke-linejoin:round;}
  </style>
 </defs>
 <g id="figure_1">
  <g id="patch_1">
   <path d="M 0 105.12 
L 144 105.12 
L 144 0 
L 0 0 
z
" style="fill:#ffffff;"/>
  </g>
  <g id="axes_1">
   <g id="patch_2">
    <path d="M 20.16 89.352 
L 141.12 89.352 
L 141.12 2.1024 
L 20.16 2.1024 
z
" style="fill:#ffffff;"/>
   </g>
   <g id="PolyCollection_1">
    <path clip-path="url(#pfac37b89c9)" d="M -308.538998 -608.6448 
L -308.538998 89.33455 
L 50.03132 89.33455 
L 50.03132 -608.6448 
L 50.03132 -608.6448 
L -308.538998 -608.6448 
z
" style="fill:#dddddd;"/>
   </g>
   <g id="line2d_1">
    <path clip-path="url(#pfac37b89c9)" d="M 64.266837 20.072887 
L 66.031366 20.53208 
L 68.580131 21.452504 
L 70.932837 22.141904 
L 73.67766 24.219076 
L 76.128395 25.833998 
L 78.57913 27.448919 
L 81.716071 29.525276 
L 84.656954 31.60204 
L 87.401777 33.21635 
L 90.538718 34.598413 
L 93.675659 35.980476 
L 96.420483 36.900492 
L 99.067277 37.820712 
L 101.714071 38.046637 
L 104.066776 38.736038 
L 106.8116 39.424622 
L 109.458394 40.113411 
L 111.71307 40.571584 
L 114.457893 41.028737 
L 117.006658 41.717729 
L 119.555423 42.17529 
L 122.398275 43.095102 
L 127.789893 44.241044 
L 125.045069 43.552459 
L 130.534716 44.929629 
L 133.083481 45.850052 
L 136.024363 46.538229 
L 138.965245 47.457837 
L 141.121892 48.147645 
L 144.062774 48.835822 
L 145 49.215361 
" style="fill:none;stroke:#0d153a;stroke-linecap:square;"/>
   </g>
   <g id="line2d_2">
    <path clip-path="url(#pfac37b89c9)" d="M 16.44116 87.85314 
L 27.863719 85.592975 
L 32.699859 83.331414 
L 38.134915 81.070203 
L 41.124801 78.556853 
L 54.540264 70.516367 
L 60.068695 68.256203 
L 65.029053 67.253238 
L 68.44137 67.758213 
L 71.111722 69.268598 
L 72.139868 70.275055 
L 73.642199 65.750187 
L 74.618415 63.739367 
L 78.782614 56.450757 
L 80.094579 54.691726 
L 80.949841 53.183786 
L 85.40095 47.655953 
L 87.296137 45.89762 
L 88.398567 44.390029 
L 90.877114 42.632396 
L 92.904869 40.622973 
L 94.850947 39.367869 
L 97.329494 37.107705 
L 101.934984 34.850335 
L 106.139467 32.844404 
L 107.626386 32.34362 
L 112.276228 31.093405 
L 118.115175 30.348864 
L 123.675449 30.359341 
L 125.731975 30.614971 
L 128.025609 30.619861 
L 132.601998 31.636096 
L 140.382259 33.667869 
L 143.732586 35.186286 
L 145 35.503047 
L 145 35.503047 
" style="fill:none;stroke:#0d153a;stroke-dasharray:3.7,1.6;stroke-dashoffset:0;"/>
   </g>
   <g id="line2d_3">
    <defs>
     <path d="M 0 -1.5 
L -1.5 1.5 
L 1.5 1.5 
z
" id="m3334eb4f7d" style="stroke:#5fad41;stroke-linejoin:miter;stroke-width:0.75;"/>
    </defs>
    <g clip-path="url(#pfac37b89c9)">
     <use style="fill:#adda9c;stroke:#5fad41;stroke-linejoin:miter;stroke-width:0.75;" x="47.962208" xlink:href="#m3334eb4f7d" y="18.934244"/>
     <use style="fill:#adda9c;stroke:#5fad41;stroke-linejoin:miter;stroke-width:0.75;" x="53.653587" xlink:href="#m3334eb4f7d" y="16.706064"/>
     <use style="fill:#adda9c;stroke:#5fad41;stroke-linejoin:miter;stroke-width:0.75;" x="58.985763" xlink:href="#m3334eb4f7d" y="15.523482"/>
     <use style="fill:#adda9c;stroke:#5fad41;stroke-linejoin:miter;stroke-width:0.75;" x="63.350245" xlink:href="#m3334eb4f7d" y="14.945192"/>
     <use style="fill:#adda9c;stroke:#5fad41;stroke-linejoin:miter;stroke-width:0.75;" x="69.527286" xlink:href="#m3334eb4f7d" y="14.555012"/>
     <use style="fill:#adda9c;stroke:#5fad41;stroke-linejoin:miter;stroke-width:0.75;" x="78.337251" xlink:href="#m3334eb4f7d" y="14.678208"/>
     <use style="fill:#adda9c;stroke:#5fad41;stroke-linejoin:miter;stroke-width:0.75;" x="84.385277" xlink:href="#m3334eb4f7d" y="15.161397"/>
     <use style="fill:#adda9c;stroke:#5fad41;stroke-linejoin:miter;stroke-width:0.75;" x="92.238344" xlink:href="#m3334eb4f7d" y="16.228808"/>
     <use style="fill:#adda9c;stroke:#5fad41;stroke-linejoin:miter;stroke-width:0.75;" x="103.020926" xlink:href="#m3334eb4f7d" y="18.474613"/>
     <use style="fill:#adda9c;stroke:#5fad41;stroke-linejoin:miter;stroke-width:0.75;" x="110.192727" xlink:href="#m3334eb4f7d" y="20.450467"/>
     <use style="fill:#adda9c;stroke:#5fad41;stroke-linejoin:miter;stroke-width:0.75;" x="119.279563" xlink:href="#m3334eb4f7d" y="23.480122"/>
     <use style="fill:#adda9c;stroke:#5fad41;stroke-linejoin:miter;stroke-width:0.75;" x="127.510879" xlink:href="#m3334eb4f7d" y="26.695445"/>
     <use style="fill:#adda9c;stroke:#5fad41;stroke-linejoin:miter;stroke-width:0.75;" x="136.51452" xlink:href="#m3334eb4f7d" y="30.662859"/>
     <use style="fill:#adda9c;stroke:#5fad41;stroke-linejoin:miter;stroke-width:0.75;" x="145.32451" xlink:href="#m3334eb4f7d" y="34.916451"/>
     <use style="fill:#adda9c;stroke:#5fad41;stroke-linejoin:miter;stroke-width:0.75;" x="152.773236" xlink:href="#m3334eb4f7d" y="38.722628"/>
     <use style="fill:#adda9c;stroke:#5fad41;stroke-linejoin:miter;stroke-width:0.75;" x="159.22557" xlink:href="#m3334eb4f7d" y="42.116986"/>
     <use style="fill:#adda9c;stroke:#5fad41;stroke-linejoin:miter;stroke-width:0.75;" x="164.916965" xlink:href="#m3334eb4f7d" y="45.14542"/>
     <use style="fill:#adda9c;stroke:#5fad41;stroke-linejoin:miter;stroke-width:0.75;" x="170.008141" xlink:href="#m3334eb4f7d" y="47.853473"/>
     <use style="fill:#adda9c;stroke:#5fad41;stroke-linejoin:miter;stroke-width:0.75;" x="174.613609" xlink:href="#m3334eb4f7d" y="50.281978"/>
     <use style="fill:#adda9c;stroke:#5fad41;stroke-linejoin:miter;stroke-width:0.75;" x="178.818109" xlink:href="#m3334eb4f7d" y="52.467406"/>
     <use style="fill:#adda9c;stroke:#5fad41;stroke-linejoin:miter;stroke-width:0.75;" x="184.509498" xlink:href="#m3334eb4f7d" y="55.356938"/>
     <use style="fill:#adda9c;stroke:#5fad41;stroke-linejoin:miter;stroke-width:0.75;" x="189.600624" xlink:href="#m3334eb4f7d" y="57.856639"/>
     <use style="fill:#adda9c;stroke:#5fad41;stroke-linejoin:miter;stroke-width:0.75;" x="194.206153" xlink:href="#m3334eb4f7d" y="60.035436"/>
     <use style="fill:#adda9c;stroke:#5fad41;stroke-linejoin:miter;stroke-width:0.75;" x="201.023173" xlink:href="#m3334eb4f7d" y="63.097374"/>
     <use style="fill:#adda9c;stroke:#5fad41;stroke-linejoin:miter;stroke-width:0.75;" x="214.284267" xlink:href="#m3334eb4f7d" y="68.433908"/>
     <use style="fill:#adda9c;stroke:#5fad41;stroke-linejoin:miter;stroke-width:0.75;" x="230.542971" xlink:href="#m3334eb4f7d" y="73.804383"/>
     <use style="fill:#adda9c;stroke:#5fad41;stroke-linejoin:miter;stroke-width:0.75;" x="247.777885" xlink:href="#m3334eb4f7d" y="78.174471"/>
     <use style="fill:#adda9c;stroke:#5fad41;stroke-linejoin:miter;stroke-width:0.75;" x="267.370392" xlink:href="#m3334eb4f7d" y="81.765804"/>
     <use style="fill:#adda9c;stroke:#5fad41;stroke-linejoin:miter;stroke-width:0.75;" x="281.271501" xlink:href="#m3334eb4f7d" y="83.618584"/>
    </g>
   </g>
   <g id="line2d_4">
    <path clip-path="url(#pfac37b89c9)" d="M 61.325955 30.493413 
L 65.247131 25.856631 
L 67.991954 22.610883 
L 72.10919 20.056575 
L 75.834307 18.428808 
L 78.971248 17.496558 
L 81.91213 16.796147 
L 85.24513 16.326351 
L 89.950542 16.547995 
L 93.871718 16.539839 
L 98.185012 17.225161 
L 101.321953 17.681499 
L 106.419482 18.596621 
L 109.458394 19.516025 
L 112.791394 20.666249 
L 115.830305 21.354222 
L 118.183011 22.275053 
L 120.731776 23.195477 
L 125.437187 25.03714 
L 128.18201 26.420018 
L 130.926834 27.802897 
L 132.887422 28.724544 
L 135.534216 29.876195 
" style="fill:none;stroke:#a42604;stroke-linecap:square;"/>
   </g>
   <g id="line2d_5">
    <defs>
     <path d="M -0 2.12132 
L 1.272792 0 
L 0 -2.12132 
L -1.272792 -0 
z
" id="m6226e79fd4" style="stroke:#fa9f42;stroke-linejoin:miter;stroke-width:0.75;"/>
    </defs>
    <g clip-path="url(#pfac37b89c9)">
     <use style="fill:#fbb874;stroke:#fa9f42;stroke-linejoin:miter;stroke-width:0.75;" x="25.487536" xlink:href="#m6226e79fd4" y="80.300536"/>
     <use style="fill:#fbb874;stroke:#fa9f42;stroke-linejoin:miter;stroke-width:0.75;" x="34.238494" xlink:href="#m6226e79fd4" y="72.923637"/>
     <use style="fill:#fbb874;stroke:#fa9f42;stroke-linejoin:miter;stroke-width:0.75;" x="40.870363" xlink:href="#m6226e79fd4" y="67.240364"/>
     <use style="fill:#fbb874;stroke:#fa9f42;stroke-linejoin:miter;stroke-width:0.75;" x="46.960656" xlink:href="#m6226e79fd4" y="55.748723"/>
     <use style="fill:#fbb874;stroke:#fa9f42;stroke-linejoin:miter;stroke-width:0.75;" x="49.251749" xlink:href="#m6226e79fd4" y="51.757171"/>
     <use style="fill:#fbb874;stroke:#fa9f42;stroke-linejoin:miter;stroke-width:0.75;" x="52.553611" xlink:href="#m6226e79fd4" y="44.01522"/>
     <use style="fill:#fbb874;stroke:#fa9f42;stroke-linejoin:miter;stroke-width:0.75;" x="56.791168" xlink:href="#m6226e79fd4" y="36.758407"/>
     <use style="fill:#fbb874;stroke:#fa9f42;stroke-linejoin:miter;stroke-width:0.75;" x="61.50936" xlink:href="#m6226e79fd4" y="26.961209"/>
     <use style="fill:#fbb874;stroke:#fa9f42;stroke-linejoin:miter;stroke-width:0.75;" x="63.610332" xlink:href="#m6226e79fd4" y="23.091105"/>
     <use style="fill:#fbb874;stroke:#fa9f42;stroke-linejoin:miter;stroke-width:0.75;" x="67.786357" xlink:href="#m6226e79fd4" y="17.166353"/>
     <use style="fill:#fbb874;stroke:#fa9f42;stroke-linejoin:miter;stroke-width:0.75;" x="73.029964" xlink:href="#m6226e79fd4" y="13.663697"/>
     <use style="fill:#fbb874;stroke:#fa9f42;stroke-linejoin:miter;stroke-width:0.75;" x="77.576609" xlink:href="#m6226e79fd4" y="10.463299"/>
     <use style="fill:#fbb874;stroke:#fa9f42;stroke-linejoin:miter;stroke-width:0.75;" x="81.124366" xlink:href="#m6226e79fd4" y="10.045203"/>
     <use style="fill:#fbb874;stroke:#fa9f42;stroke-linejoin:miter;stroke-width:0.75;" x="89.201661" xlink:href="#m6226e79fd4" y="9.333126"/>
     <use style="fill:#fbb874;stroke:#fa9f42;stroke-linejoin:miter;stroke-width:0.75;" x="94.591547" xlink:href="#m6226e79fd4" y="8.980818"/>
     <use style="fill:#fbb874;stroke:#fa9f42;stroke-linejoin:miter;stroke-width:0.75;" x="100.208558" xlink:href="#m6226e79fd4" y="10.263972"/>
    </g>
   </g>
   <g id="line2d_6">
    <defs>
     <path d="M -0 2.12132 
L 1.272792 0 
L 0 -2.12132 
L -1.272792 -0 
z
" id="m9aa2ac5178" style="stroke:#0d153a;stroke-linejoin:miter;stroke-width:0.75;"/>
    </defs>
    <g clip-path="url(#pfac37b89c9)">
     <use style="fill:#0d153a;stroke:#0d153a;stroke-linejoin:miter;stroke-width:0.75;" x="30.5266" xlink:href="#m9aa2ac5178" y="58.242307"/>
     <use style="fill:#0d153a;stroke:#0d153a;stroke-linejoin:miter;stroke-width:0.75;" x="34.603387" xlink:href="#m9aa2ac5178" y="48.101133"/>
     <use style="fill:#0d153a;stroke:#0d153a;stroke-linejoin:miter;stroke-width:0.75;" x="38.821538" xlink:href="#m9aa2ac5178" y="34.948849"/>
     <use style="fill:#0d153a;stroke:#0d153a;stroke-linejoin:miter;stroke-width:0.75;" x="41.154118" xlink:href="#m9aa2ac5178" y="30.6458"/>
     <use style="fill:#0d153a;stroke:#0d153a;stroke-linejoin:miter;stroke-width:0.75;" x="43.876554" xlink:href="#m9aa2ac5178" y="25.666412"/>
     <use style="fill:#0d153a;stroke:#0d153a;stroke-linejoin:miter;stroke-width:0.75;" x="47.520102" xlink:href="#m9aa2ac5178" y="21.853385"/>
     <use style="fill:#0d153a;stroke:#0d153a;stroke-linejoin:miter;stroke-width:0.75;" x="50.655862" xlink:href="#m9aa2ac5178" y="20.498365"/>
     <use style="fill:#0d153a;stroke:#0d153a;stroke-linejoin:miter;stroke-width:0.75;" x="54.867061" xlink:href="#m9aa2ac5178" y="19.633425"/>
     <use style="fill:#0d153a;stroke:#0d153a;stroke-linejoin:miter;stroke-width:0.75;" x="58.323677" xlink:href="#m9aa2ac5178" y="18.646126"/>
     <use style="fill:#0d153a;stroke:#0d153a;stroke-linejoin:miter;stroke-width:0.75;" x="61.811576" xlink:href="#m9aa2ac5178" y="18.027133"/>
    </g>
   </g>
   <g id="matplotlib.axis_1">
    <g id="xtick_1">
     <g id="line2d_7">
      <defs>
       <path d="M 0 0 
L 0 -2.5 
" id="mb6a237b189" style="stroke:#000000;stroke-width:0.8;"/>
      </defs>
      <g>
       <use style="stroke:#000000;stroke-width:0.8;" x="25.251133" xlink:href="#mb6a237b189" y="89.352"/>
      </g>
     </g>
     <g id="line2d_8">
      <defs>
       <path d="M 0 0 
L 0 2.5 
" id="m2ac23394e5" style="stroke:#000000;stroke-width:0.8;"/>
      </defs>
      <g>
       <use style="stroke:#000000;stroke-width:0.8;" x="25.251133" xlink:href="#m2ac23394e5" y="2.1024"/>
      </g>
     </g>
     <g id="text_1">
      <!-- $0.1$ -->
      <defs>
       <path d="M 47.703125 33 
Q 47.703125 23.796875 45.546875 16.34375 
Q 43.40625 8.90625 38.09375 3.75 
Q 32.796875 -1.40625 25 -1.40625 
Q 18.796875 -1.40625 14.25 1.6875 
Q 9.703125 4.796875 7.203125 10.046875 
Q 4.703125 15.296875 3.5 21.140625 
Q 2.296875 27 2.296875 33.59375 
Q 2.296875 42.90625 4.59375 50.34375 
Q 6.90625 57.796875 12.296875 62.6875 
Q 17.703125 67.59375 25.40625 67.59375 
Q 35.203125 67.59375 41.453125 57.9375 
Q 47.703125 48.296875 47.703125 33 
z
M 39.796875 33 
Q 39.796875 45.203125 35.75 52.84375 
Q 31.703125 60.5 25.203125 60.5 
Q 17.796875 60.5 14 52.75 
Q 10.203125 45 10.203125 33.40625 
Q 10.203125 28.203125 10.953125 23.546875 
Q 11.703125 18.90625 13.34375 14.75 
Q 15 10.59375 18 8.140625 
Q 21 5.703125 25 5.703125 
Q 30.09375 5.703125 33.546875 9.796875 
Q 37 13.90625 38.390625 19.84375 
Q 39.796875 25.796875 39.796875 33 
z
" id="STIXGeneral-Regular-1d7e2"/>
       <path d="M 18.09375 4.296875 
Q 18.09375 2.09375 16.4375 0.5 
Q 14.796875 -1.09375 12.5 -1.09375 
Q 10.203125 -1.09375 8.59375 0.5 
Q 7 2.09375 7 4.390625 
Q 7 6.703125 8.640625 8.34375 
Q 10.296875 10 12.59375 10 
Q 14.796875 10 16.4375 8.296875 
Q 18.09375 6.59375 18.09375 4.296875 
z
" id="STIXGeneral-Regular-2e"/>
       <path d="M 30.203125 0 
L 22.296875 0 
L 22.296875 57 
Q 20.09375 56 15.75 53.75 
Q 11.40625 51.5 10.796875 51.203125 
L 10.796875 58.5 
L 28.796875 67.703125 
L 30.203125 67.203125 
z
" id="STIXGeneral-Regular-1d7e3"/>
      </defs>
      <g transform="translate(20.251133 98.93075)scale(0.08 -0.08)">
       <use transform="translate(0 0.296875)" xlink:href="#STIXGeneral-Regular-1d7e2"/>
       <use transform="translate(49.999985 0.296875)" xlink:href="#STIXGeneral-Regular-2e"/>
       <use transform="translate(74.999969 0.296875)" xlink:href="#STIXGeneral-Regular-1d7e3"/>
      </g>
     </g>
    </g>
    <g id="xtick_2">
     <g id="line2d_9">
      <g>
       <use style="stroke:#000000;stroke-width:0.8;" x="103.020896" xlink:href="#mb6a237b189" y="89.352"/>
      </g>
     </g>
     <g id="line2d_10">
      <g>
       <use style="stroke:#000000;stroke-width:0.8;" x="103.020896" xlink:href="#m2ac23394e5" y="2.1024"/>
      </g>
     </g>
     <g id="text_2">
      <!-- $0.5$ -->
      <defs>
       <path d="M 45.796875 67.59375 
L 42.59375 60.5 
L 24.90625 60.5 
L 18.5 47.796875 
Q 29.90625 46.203125 37.25 39.75 
Q 44.59375 33.296875 44.59375 22.59375 
Q 44.59375 12.703125 37.84375 5.640625 
Q 31.09375 -1.40625 21 -1.40625 
Q 10 -1.40625 3.59375 5.59375 
L 8.296875 11.203125 
Q 13.40625 5.703125 20.5 5.703125 
Q 27.90625 5.703125 32.296875 10.75 
Q 36.703125 15.796875 36.703125 22.59375 
Q 36.703125 30 30.09375 35.203125 
Q 23.40625 40.703125 9.40625 40.703125 
L 8 42.40625 
L 19.59375 67.59375 
z
" id="STIXGeneral-Regular-1d7e7"/>
      </defs>
      <g transform="translate(98.020896 98.93075)scale(0.08 -0.08)">
       <use transform="translate(0 0.40625)" xlink:href="#STIXGeneral-Regular-1d7e2"/>
       <use transform="translate(49.999985 0.40625)" xlink:href="#STIXGeneral-Regular-2e"/>
       <use transform="translate(74.999969 0.40625)" xlink:href="#STIXGeneral-Regular-1d7e7"/>
      </g>
     </g>
    </g>
    <g id="xtick_3">
     <g id="line2d_11">
      <g>
       <use style="stroke:#000000;stroke-width:0.8;" x="136.51451" xlink:href="#mb6a237b189" y="89.352"/>
      </g>
     </g>
     <g id="line2d_12">
      <g>
       <use style="stroke:#000000;stroke-width:0.8;" x="136.51451" xlink:href="#m2ac23394e5" y="2.1024"/>
      </g>
     </g>
     <g id="text_3">
      <!-- $1$ -->
      <g transform="translate(134.51451 98.93075)scale(0.08 -0.08)">
       <use transform="translate(0 0.296875)" xlink:href="#STIXGeneral-Regular-1d7e3"/>
      </g>
     </g>
    </g>
    <g id="xtick_4">
     <g id="line2d_13">
      <defs>
       <path d="M 0 0 
L 0 -1.5 
" id="m1e89b618f1" style="stroke:#000000;stroke-width:0.6;"/>
      </defs>
      <g>
       <use style="stroke:#000000;stroke-width:0.6;" x="20.16" xlink:href="#m1e89b618f1" y="89.352"/>
      </g>
     </g>
     <g id="line2d_14">
      <defs>
       <path d="M 0 0 
L 0 1.5 
" id="m19035728d3" style="stroke:#000000;stroke-width:0.6;"/>
      </defs>
      <g>
       <use style="stroke:#000000;stroke-width:0.6;" x="20.16" xlink:href="#m19035728d3" y="2.1024"/>
      </g>
     </g>
    </g>
    <g id="xtick_5">
     <g id="line2d_15">
      <g>
       <use style="stroke:#000000;stroke-width:0.6;" x="58.744747" xlink:href="#m1e89b618f1" y="89.352"/>
      </g>
     </g>
     <g id="line2d_16">
      <g>
       <use style="stroke:#000000;stroke-width:0.6;" x="58.744747" xlink:href="#m19035728d3" y="2.1024"/>
      </g>
     </g>
    </g>
    <g id="xtick_6">
     <g id="line2d_17">
      <g>
       <use style="stroke:#000000;stroke-width:0.6;" x="78.337255" xlink:href="#m1e89b618f1" y="89.352"/>
      </g>
     </g>
     <g id="line2d_18">
      <g>
       <use style="stroke:#000000;stroke-width:0.6;" x="78.337255" xlink:href="#m19035728d3" y="2.1024"/>
      </g>
     </g>
    </g>
    <g id="xtick_7">
     <g id="line2d_19">
      <g>
       <use style="stroke:#000000;stroke-width:0.6;" x="92.238361" xlink:href="#m1e89b618f1" y="89.352"/>
      </g>
     </g>
     <g id="line2d_20">
      <g>
       <use style="stroke:#000000;stroke-width:0.6;" x="92.238361" xlink:href="#m19035728d3" y="2.1024"/>
      </g>
     </g>
    </g>
    <g id="xtick_8">
     <g id="line2d_21">
      <g>
       <use style="stroke:#000000;stroke-width:0.6;" x="103.020896" xlink:href="#m1e89b618f1" y="89.352"/>
      </g>
     </g>
     <g id="line2d_22">
      <g>
       <use style="stroke:#000000;stroke-width:0.6;" x="103.020896" xlink:href="#m19035728d3" y="2.1024"/>
      </g>
     </g>
    </g>
    <g id="xtick_9">
     <g id="line2d_23">
      <g>
       <use style="stroke:#000000;stroke-width:0.6;" x="111.830869" xlink:href="#m1e89b618f1" y="89.352"/>
      </g>
     </g>
     <g id="line2d_24">
      <g>
       <use style="stroke:#000000;stroke-width:0.6;" x="111.830869" xlink:href="#m19035728d3" y="2.1024"/>
      </g>
     </g>
    </g>
    <g id="xtick_10">
     <g id="line2d_25">
      <g>
       <use style="stroke:#000000;stroke-width:0.6;" x="119.279595" xlink:href="#m1e89b618f1" y="89.352"/>
      </g>
     </g>
     <g id="line2d_26">
      <g>
       <use style="stroke:#000000;stroke-width:0.6;" x="119.279595" xlink:href="#m19035728d3" y="2.1024"/>
      </g>
     </g>
    </g>
    <g id="xtick_11">
     <g id="line2d_27">
      <g>
       <use style="stroke:#000000;stroke-width:0.6;" x="125.731975" xlink:href="#m1e89b618f1" y="89.352"/>
      </g>
     </g>
     <g id="line2d_28">
      <g>
       <use style="stroke:#000000;stroke-width:0.6;" x="125.731975" xlink:href="#m19035728d3" y="2.1024"/>
      </g>
     </g>
    </g>
    <g id="xtick_12">
     <g id="line2d_29">
      <g>
       <use style="stroke:#000000;stroke-width:0.6;" x="131.423377" xlink:href="#m1e89b618f1" y="89.352"/>
      </g>
     </g>
     <g id="line2d_30">
      <g>
       <use style="stroke:#000000;stroke-width:0.6;" x="131.423377" xlink:href="#m19035728d3" y="2.1024"/>
      </g>
     </g>
    </g>
   </g>
   <g id="matplotlib.axis_2">
    <g id="ytick_1">
     <g id="line2d_31">
      <defs>
       <path d="M 0 0 
L 2.5 0 
" id="m4068d03bf1" style="stroke:#000000;stroke-width:0.8;"/>
      </defs>
      <g>
       <use style="stroke:#000000;stroke-width:0.8;" x="20.16" xlink:href="#m4068d03bf1" y="89.352"/>
      </g>
     </g>
     <g id="line2d_32">
      <defs>
       <path d="M 0 0 
L -2.5 0 
" id="m30940b9fad" style="stroke:#000000;stroke-width:0.8;"/>
      </defs>
      <g>
       <use style="stroke:#000000;stroke-width:0.8;" x="141.12" xlink:href="#m30940b9fad" y="89.352"/>
      </g>
     </g>
     <g id="text_4">
      <!-- $0$ -->
      <g transform="translate(12.66 92.391375)scale(0.08 -0.08)">
       <use transform="translate(0 0.40625)" xlink:href="#STIXGeneral-Regular-1d7e2"/>
      </g>
     </g>
    </g>
    <g id="ytick_2">
     <g id="line2d_33">
      <g>
       <use style="stroke:#000000;stroke-width:0.8;" x="20.16" xlink:href="#m4068d03bf1" y="54.45216"/>
      </g>
     </g>
     <g id="line2d_34">
      <g>
       <use style="stroke:#000000;stroke-width:0.8;" x="141.12" xlink:href="#m30940b9fad" y="54.45216"/>
      </g>
     </g>
     <g id="text_5">
      <!-- $0.2$ -->
      <defs>
       <path d="M 46.90625 7.09375 
L 44 0 
L 3.5 0 
L 3.5 2.09375 
L 21 23.5 
L 21 23.40625 
L 26.59375 30.203125 
Q 30.5 34.90625 32.09375 36.953125 
Q 33.703125 39 35.203125 41.953125 
Q 36.703125 44.90625 36.703125 47.5 
Q 36.703125 53.703125 33.34375 57.09375 
Q 30 60.5 24.203125 60.5 
Q 19.59375 60.5 15.75 56.703125 
Q 11.90625 52.90625 10.90625 45.90625 
L 3.703125 47.59375 
Q 5.296875 56.5 11.1875 62.046875 
Q 17.09375 67.59375 24.90625 67.59375 
Q 33.59375 67.59375 39.09375 62.1875 
Q 44.59375 56.796875 44.59375 49.09375 
Q 44.59375 43.5 42.5 39.453125 
Q 40.40625 35.40625 33.703125 27 
L 17.703125 7.09375 
z
" id="STIXGeneral-Regular-1d7e4"/>
      </defs>
      <g transform="translate(6.66 57.491535)scale(0.08 -0.08)">
       <use transform="translate(0 0.40625)" xlink:href="#STIXGeneral-Regular-1d7e2"/>
       <use transform="translate(49.999985 0.40625)" xlink:href="#STIXGeneral-Regular-2e"/>
       <use transform="translate(74.999969 0.40625)" xlink:href="#STIXGeneral-Regular-1d7e4"/>
      </g>
     </g>
    </g>
    <g id="ytick_3">
     <g id="line2d_35">
      <g>
       <use style="stroke:#000000;stroke-width:0.8;" x="20.16" xlink:href="#m4068d03bf1" y="19.55232"/>
      </g>
     </g>
     <g id="line2d_36">
      <g>
       <use style="stroke:#000000;stroke-width:0.8;" x="141.12" xlink:href="#m30940b9fad" y="19.55232"/>
      </g>
     </g>
     <g id="text_6">
      <!-- $0.4$ -->
      <defs>
       <path d="M 48.90625 23.59375 
L 45.59375 16.5 
L 37.296875 16.5 
L 37.296875 0 
L 29.40625 0 
L 29.40625 16.5 
L 1.09375 16.5 
L 1.09375 23.296875 
L 32.296875 67.59375 
L 37.296875 67.59375 
L 37.296875 23.59375 
z
M 29.40625 23.59375 
L 29.40625 51 
L 10 23.59375 
z
" id="STIXGeneral-Regular-1d7e6"/>
      </defs>
      <g transform="translate(6.66 22.591695)scale(0.08 -0.08)">
       <use transform="translate(0 0.40625)" xlink:href="#STIXGeneral-Regular-1d7e2"/>
       <use transform="translate(49.999985 0.40625)" xlink:href="#STIXGeneral-Regular-2e"/>
       <use transform="translate(74.999969 0.40625)" xlink:href="#STIXGeneral-Regular-1d7e6"/>
      </g>
     </g>
    </g>
   </g>
   <g id="line2d_37">
    <path clip-path="url(#pfac37b89c9)" d="M 145 8.045015 
L 137.994002 -1 
" style="fill:none;stroke:#808080;stroke-dasharray:1,1.65;stroke-dashoffset:0;"/>
   </g>
   <g id="patch_3">
    <path d="M 20.16 89.352 
L 20.16 2.1024 
" style="fill:none;stroke:#000000;stroke-linecap:square;stroke-linejoin:miter;stroke-width:0.8;"/>
   </g>
   <g id="patch_4">
    <path d="M 141.12 89.352 
L 141.12 2.1024 
" style="fill:none;stroke:#000000;stroke-linecap:square;stroke-linejoin:miter;stroke-width:0.8;"/>
   </g>
   <g id="patch_5">
    <path d="M 20.16 89.352 
L 141.12 89.352 
" style="fill:none;stroke:#000000;stroke-linecap:square;stroke-linejoin:miter;stroke-width:0.8;"/>
   </g>
   <g id="patch_6">
    <path d="M 20.16 2.1024 
L 141.12 2.1024 
" style="fill:none;stroke:#000000;stroke-linecap:square;stroke-linejoin:miter;stroke-width:0.8;"/>
   </g>
   <g id="LineCollection_1">
    <path clip-path="url(#pfac37b89c9)" style="fill:none;stroke:#114b5f;"/>
    <path clip-path="url(#pfac37b89c9)" style="fill:none;stroke:#114b5f;"/>
    <path clip-path="url(#pfac37b89c9)" style="fill:none;stroke:#114b5f;"/>
    <path clip-path="url(#pfac37b89c9)" style="fill:none;stroke:#114b5f;"/>
    <path clip-path="url(#pfac37b89c9)" style="fill:none;stroke:#114b5f;"/>
    <path clip-path="url(#pfac37b89c9)" d="M 132.708342 29.858502 
L 132.708342 29.598982 
" style="fill:none;stroke:#114b5f;"/>
    <path clip-path="url(#pfac37b89c9)" d="M 114.907071 22.497073 
L 114.907071 22.090038 
" style="fill:none;stroke:#114b5f;"/>
    <path clip-path="url(#pfac37b89c9)" d="M 98.19999 17.946959 
L 98.19999 17.265934 
" style="fill:none;stroke:#114b5f;"/>
    <path clip-path="url(#pfac37b89c9)" d="M 83.650262 17.703993 
L 83.650262 17.423146 
" style="fill:none;stroke:#114b5f;"/>
    <path clip-path="url(#pfac37b89c9)" d="M 71.632871 18.823682 
L 71.632871 18.287379 
" style="fill:none;stroke:#114b5f;"/>
    <path clip-path="url(#pfac37b89c9)" d="M 61.394787 20.79949 
L 61.394787 20.241368 
" style="fill:none;stroke:#114b5f;"/>
    <path clip-path="url(#pfac37b89c9)" d="M 51.867593 23.6321 
L 51.867593 22.856162 
" style="fill:none;stroke:#114b5f;"/>
    <path clip-path="url(#pfac37b89c9)" d="M 42.823924 26.897507 
L 42.823924 25.481915 
" style="fill:none;stroke:#114b5f;"/>
   </g>
   <g id="line2d_38">
    <defs>
     <path d="M -1.5 1.5 
L 1.5 1.5 
L 1.5 -1.5 
L -1.5 -1.5 
z
" id="m480d5991a7" style="stroke:#114b5f;stroke-linejoin:miter;stroke-width:0.75;"/>
    </defs>
    <g clip-path="url(#pfac37b89c9)">
     <use style="fill:#2faeda;stroke:#114b5f;stroke-linejoin:miter;stroke-width:0.75;" x="222.250364" xlink:href="#m480d5991a7" y="71.356139"/>
     <use style="fill:#2faeda;stroke:#114b5f;stroke-linejoin:miter;stroke-width:0.75;" x="205.233765" xlink:href="#m480d5991a7" y="65.065141"/>
     <use style="fill:#2faeda;stroke:#114b5f;stroke-linejoin:miter;stroke-width:0.75;" x="187.437756" xlink:href="#m480d5991a7" y="57.417079"/>
     <use style="fill:#2faeda;stroke:#114b5f;stroke-linejoin:miter;stroke-width:0.75;" x="170.124653" xlink:href="#m480d5991a7" y="47.877858"/>
     <use style="fill:#2faeda;stroke:#114b5f;stroke-linejoin:miter;stroke-width:0.75;" x="151.460817" xlink:href="#m480d5991a7" y="38.208501"/>
     <use style="fill:#2faeda;stroke:#114b5f;stroke-linejoin:miter;stroke-width:0.75;" x="132.708342" xlink:href="#m480d5991a7" y="29.728742"/>
     <use style="fill:#2faeda;stroke:#114b5f;stroke-linejoin:miter;stroke-width:0.75;" x="114.907071" xlink:href="#m480d5991a7" y="22.293555"/>
     <use style="fill:#2faeda;stroke:#114b5f;stroke-linejoin:miter;stroke-width:0.75;" x="98.19999" xlink:href="#m480d5991a7" y="17.606446"/>
     <use style="fill:#2faeda;stroke:#114b5f;stroke-linejoin:miter;stroke-width:0.75;" x="83.650262" xlink:href="#m480d5991a7" y="17.563569"/>
     <use style="fill:#2faeda;stroke:#114b5f;stroke-linejoin:miter;stroke-width:0.75;" x="71.632871" xlink:href="#m480d5991a7" y="18.555531"/>
     <use style="fill:#2faeda;stroke:#114b5f;stroke-linejoin:miter;stroke-width:0.75;" x="61.394787" xlink:href="#m480d5991a7" y="20.520429"/>
     <use style="fill:#2faeda;stroke:#114b5f;stroke-linejoin:miter;stroke-width:0.75;" x="51.867593" xlink:href="#m480d5991a7" y="23.244131"/>
     <use style="fill:#2faeda;stroke:#114b5f;stroke-linejoin:miter;stroke-width:0.75;" x="42.823924" xlink:href="#m480d5991a7" y="26.189711"/>
    </g>
   </g>
  </g>
 </g>
 <defs>
  <clipPath id="pfac37b89c9">
   <rect height="87.2496" width="120.96" x="20.16" y="2.1024"/>
  </clipPath>
 </defs>
</svg>
