<?xml version="1.0" encoding="utf-8" standalone="no"?>
<!DOCTYPE svg PUBLIC "-//W3C//DTD SVG 1.1//EN"
  "http://www.w3.org/Graphics/SVG/1.1/DTD/svg11.dtd">
<!-- Created with matplotlib (http://matplotlib.org/) -->
<svg height="180pt" version="1.1" viewBox="0 0 243 180" width="243pt" xmlns="http://www.w3.org/2000/svg" xmlns:xlink="http://www.w3.org/1999/xlink">
 <defs>
  <style type="text/css">
*{stroke-linecap:butt;stroke-linejoin:round;}
  </style>
 </defs>
 <g id="figure_1">
  <g id="patch_1">
   <path d="M 0 180 
L 243 180 
L 243 0 
L 0 0 
z
" style="fill:#ffffff;"/>
  </g>
  <g id="axes_1">
   <g id="patch_2">
    <path d="M 24.3 153 
L 230.85 153 
L 230.85 9 
L 24.3 9 
z
" style="fill:#ffffff;"/>
   </g>
   <g id="PolyCollection_1">
    <path clip-path="url(#p95db463a6e)" d="M 24.3 -7047 
L 24.3 153 
L 67.417313 153 
L 67.417313 -7047 
L 67.417313 -7047 
L 24.3 -7047 
z
" style="fill:#dddddd;"/>
   </g>
   <g id="matplotlib.axis_1">
    <g id="xtick_1">
     <g id="line2d_1">
      <defs>
       <path d="M 0 0 
L 0 -2.5 
" id="m53587007b5" style="stroke:#000000;stroke-width:0.8;"/>
      </defs>
      <g>
       <use style="stroke:#000000;stroke-width:0.8;" x="24.3" xlink:href="#m53587007b5" y="153"/>
      </g>
     </g>
     <g id="line2d_2">
      <defs>
       <path d="M 0 0 
L 0 2.5 
" id="m6fc214ed43" style="stroke:#000000;stroke-width:0.8;"/>
      </defs>
      <g>
       <use style="stroke:#000000;stroke-width:0.8;" x="24.3" xlink:href="#m6fc214ed43" y="9"/>
      </g>
     </g>
     <g id="text_1">
      <!-- $0$ -->
      <defs>
       <path d="M 47.703125 33 
Q 47.703125 23.796875 45.546875 16.34375 
Q 43.40625 8.90625 38.09375 3.75 
Q 32.796875 -1.40625 25 -1.40625 
Q 18.796875 -1.40625 14.25 1.6875 
Q 9.703125 4.796875 7.203125 10.046875 
Q 4.703125 15.296875 3.5 21.140625 
Q 2.296875 27 2.296875 33.59375 
Q 2.296875 42.90625 4.59375 50.34375 
Q 6.90625 57.796875 12.296875 62.6875 
Q 17.703125 67.59375 25.40625 67.59375 
Q 35.203125 67.59375 41.453125 57.9375 
Q 47.703125 48.296875 47.703125 33 
z
M 39.796875 33 
Q 39.796875 45.203125 35.75 52.84375 
Q 31.703125 60.5 25.203125 60.5 
Q 17.796875 60.5 14 52.75 
Q 10.203125 45 10.203125 33.40625 
Q 10.203125 28.203125 10.953125 23.546875 
Q 11.703125 18.90625 13.34375 14.75 
Q 15 10.59375 18 8.140625 
Q 21 5.703125 25 5.703125 
Q 30.09375 5.703125 33.546875 9.796875 
Q 37 13.90625 38.390625 19.84375 
Q 39.796875 25.796875 39.796875 33 
z
" id="STIXGeneral-Regular-1d7e2"/>
      </defs>
      <g transform="translate(22.3 162.57875)scale(0.08 -0.08)">
       <use transform="translate(0 0.40625)" xlink:href="#STIXGeneral-Regular-1d7e2"/>
      </g>
     </g>
    </g>
    <g id="xtick_2">
     <g id="line2d_3">
      <g>
       <use style="stroke:#000000;stroke-width:0.8;" x="75.9375" xlink:href="#m53587007b5" y="153"/>
      </g>
     </g>
     <g id="line2d_4">
      <g>
       <use style="stroke:#000000;stroke-width:0.8;" x="75.9375" xlink:href="#m6fc214ed43" y="9"/>
      </g>
     </g>
     <g id="text_2">
      <!-- $0.2$ -->
      <defs>
       <path d="M 18.09375 4.296875 
Q 18.09375 2.09375 16.4375 0.5 
Q 14.796875 -1.09375 12.5 -1.09375 
Q 10.203125 -1.09375 8.59375 0.5 
Q 7 2.09375 7 4.390625 
Q 7 6.703125 8.640625 8.34375 
Q 10.296875 10 12.59375 10 
Q 14.796875 10 16.4375 8.296875 
Q 18.09375 6.59375 18.09375 4.296875 
z
" id="STIXGeneral-Regular-2e"/>
       <path d="M 46.90625 7.09375 
L 44 0 
L 3.5 0 
L 3.5 2.09375 
L 21 23.5 
L 21 23.40625 
L 26.59375 30.203125 
Q 30.5 34.90625 32.09375 36.953125 
Q 33.703125 39 35.203125 41.953125 
Q 36.703125 44.90625 36.703125 47.5 
Q 36.703125 53.703125 33.34375 57.09375 
Q 30 60.5 24.203125 60.5 
Q 19.59375 60.5 15.75 56.703125 
Q 11.90625 52.90625 10.90625 45.90625 
L 3.703125 47.59375 
Q 5.296875 56.5 11.1875 62.046875 
Q 17.09375 67.59375 24.90625 67.59375 
Q 33.59375 67.59375 39.09375 62.1875 
Q 44.59375 56.796875 44.59375 49.09375 
Q 44.59375 43.5 42.5 39.453125 
Q 40.40625 35.40625 33.703125 27 
L 17.703125 7.09375 
z
" id="STIXGeneral-Regular-1d7e4"/>
      </defs>
      <g transform="translate(70.9375 162.57875)scale(0.08 -0.08)">
       <use transform="translate(0 0.40625)" xlink:href="#STIXGeneral-Regular-1d7e2"/>
       <use transform="translate(49.999985 0.40625)" xlink:href="#STIXGeneral-Regular-2e"/>
       <use transform="translate(74.999969 0.40625)" xlink:href="#STIXGeneral-Regular-1d7e4"/>
      </g>
     </g>
    </g>
    <g id="xtick_3">
     <g id="line2d_5">
      <g>
       <use style="stroke:#000000;stroke-width:0.8;" x="127.575" xlink:href="#m53587007b5" y="153"/>
      </g>
     </g>
     <g id="line2d_6">
      <g>
       <use style="stroke:#000000;stroke-width:0.8;" x="127.575" xlink:href="#m6fc214ed43" y="9"/>
      </g>
     </g>
     <g id="text_3">
      <!-- $0.4$ -->
      <defs>
       <path d="M 48.90625 23.59375 
L 45.59375 16.5 
L 37.296875 16.5 
L 37.296875 0 
L 29.40625 0 
L 29.40625 16.5 
L 1.09375 16.5 
L 1.09375 23.296875 
L 32.296875 67.59375 
L 37.296875 67.59375 
L 37.296875 23.59375 
z
M 29.40625 23.59375 
L 29.40625 51 
L 10 23.59375 
z
" id="STIXGeneral-Regular-1d7e6"/>
      </defs>
      <g transform="translate(122.575 162.57875)scale(0.08 -0.08)">
       <use transform="translate(0 0.40625)" xlink:href="#STIXGeneral-Regular-1d7e2"/>
       <use transform="translate(49.999985 0.40625)" xlink:href="#STIXGeneral-Regular-2e"/>
       <use transform="translate(74.999969 0.40625)" xlink:href="#STIXGeneral-Regular-1d7e6"/>
      </g>
     </g>
    </g>
    <g id="xtick_4">
     <g id="line2d_7">
      <g>
       <use style="stroke:#000000;stroke-width:0.8;" x="179.2125" xlink:href="#m53587007b5" y="153"/>
      </g>
     </g>
     <g id="line2d_8">
      <g>
       <use style="stroke:#000000;stroke-width:0.8;" x="179.2125" xlink:href="#m6fc214ed43" y="9"/>
      </g>
     </g>
     <g id="text_4">
      <!-- $0.6$ -->
      <defs>
       <path d="M 44.796875 66.796875 
L 43 61.5 
Q 31.59375 60.703125 23.640625 54.953125 
Q 15.703125 49.203125 12.203125 38.796875 
Q 18.09375 43.09375 25.90625 43.09375 
Q 34.5 43.09375 40.75 37.296875 
Q 47 31.5 47 22 
Q 47 12.296875 40.953125 5.4375 
Q 34.90625 -1.40625 25.703125 -1.40625 
Q 18 -1.40625 12.75 2.640625 
Q 7.5 6.703125 5.34375 12.75 
Q 3.203125 18.796875 3.203125 26.40625 
Q 3.203125 34.90625 6.203125 43.046875 
Q 9.203125 51.203125 14.296875 56.203125 
Q 21 62.796875 27.09375 65.046875 
Q 33.203125 67.296875 44.703125 68.40625 
z
M 39 20.703125 
Q 39 27.90625 34.890625 31.953125 
Q 30.796875 36 25.09375 36 
Q 19.90625 36 16 32.953125 
Q 12.09375 29.90625 11.203125 24 
Q 11.203125 15.90625 15.203125 10.796875 
Q 19.203125 5.703125 26 5.703125 
Q 31.5 5.703125 35.25 9.953125 
Q 39 14.203125 39 20.703125 
z
" id="STIXGeneral-Regular-1d7e8"/>
      </defs>
      <g transform="translate(174.2125 162.57875)scale(0.08 -0.08)">
       <use transform="translate(0 0.59375)" xlink:href="#STIXGeneral-Regular-1d7e2"/>
       <use transform="translate(49.999985 0.59375)" xlink:href="#STIXGeneral-Regular-2e"/>
       <use transform="translate(74.999969 0.59375)" xlink:href="#STIXGeneral-Regular-1d7e8"/>
      </g>
     </g>
    </g>
    <g id="xtick_5">
     <g id="line2d_9">
      <g>
       <use style="stroke:#000000;stroke-width:0.8;" x="230.85" xlink:href="#m53587007b5" y="153"/>
      </g>
     </g>
     <g id="line2d_10">
      <g>
       <use style="stroke:#000000;stroke-width:0.8;" x="230.85" xlink:href="#m6fc214ed43" y="9"/>
      </g>
     </g>
    </g>
    <g id="xtick_6">
     <g id="line2d_11">
      <defs>
       <path d="M 0 0 
L 0 -1.5 
" id="md07d165d5c" style="stroke:#000000;stroke-width:0.6;"/>
      </defs>
      <g>
       <use style="stroke:#000000;stroke-width:0.6;" x="50.11875" xlink:href="#md07d165d5c" y="153"/>
      </g>
     </g>
     <g id="line2d_12">
      <defs>
       <path d="M 0 0 
L 0 1.5 
" id="m9236d38fc2" style="stroke:#000000;stroke-width:0.6;"/>
      </defs>
      <g>
       <use style="stroke:#000000;stroke-width:0.6;" x="50.11875" xlink:href="#m9236d38fc2" y="9"/>
      </g>
     </g>
    </g>
    <g id="xtick_7">
     <g id="line2d_13">
      <g>
       <use style="stroke:#000000;stroke-width:0.6;" x="127.575" xlink:href="#md07d165d5c" y="153"/>
      </g>
     </g>
     <g id="line2d_14">
      <g>
       <use style="stroke:#000000;stroke-width:0.6;" x="127.575" xlink:href="#m9236d38fc2" y="9"/>
      </g>
     </g>
    </g>
    <g id="xtick_8">
     <g id="line2d_15">
      <g>
       <use style="stroke:#000000;stroke-width:0.6;" x="153.39375" xlink:href="#md07d165d5c" y="153"/>
      </g>
     </g>
     <g id="line2d_16">
      <g>
       <use style="stroke:#000000;stroke-width:0.6;" x="153.39375" xlink:href="#m9236d38fc2" y="9"/>
      </g>
     </g>
    </g>
    <g id="xtick_9">
     <g id="line2d_17">
      <g>
       <use style="stroke:#000000;stroke-width:0.6;" x="205.03125" xlink:href="#md07d165d5c" y="153"/>
      </g>
     </g>
     <g id="line2d_18">
      <g>
       <use style="stroke:#000000;stroke-width:0.6;" x="205.03125" xlink:href="#m9236d38fc2" y="9"/>
      </g>
     </g>
    </g>
    <g id="text_5">
     <!-- $T/T_F$ -->
     <defs>
      <path d="M 74.796875 66.203125 
L 73.90625 58.796875 
L 49.40625 58.796875 
L 34.703125 0 
L 26 0 
L 40.59375 58.796875 
L 16.09375 58.796875 
L 19 66.203125 
z
" id="STIXGeneral-Italic-1d61b"/>
      <path d="M 28.703125 67.59375 
L 5.90625 -1.40625 
L -0.90625 -1.40625 
L 22 67.59375 
z
" id="STIXGeneral-Regular-2f"/>
      <path d="M 67.90625 66.203125 
L 66.90625 58.796875 
L 30.703125 58.796875 
L 25.703125 38.59375 
L 55.296875 38.59375 
L 53.40625 31.09375 
L 23.796875 31.09375 
L 16.09375 0 
L 7.40625 0 
L 23.90625 66.203125 
z
" id="STIXGeneral-Italic-1d60d"/>
     </defs>
     <g transform="translate(119.975 174.32125)scale(0.08 -0.08)">
      <use transform="translate(0 0.40625)" xlink:href="#STIXGeneral-Italic-1d61b"/>
      <use transform="translate(60.799988 0.40625)" xlink:href="#STIXGeneral-Regular-2f"/>
      <use transform="translate(88.599976 0.40625)" xlink:href="#STIXGeneral-Italic-1d61b"/>
      <use transform="translate(149.399963 -13.182812)scale(0.7)" xlink:href="#STIXGeneral-Italic-1d60d"/>
     </g>
    </g>
   </g>
   <g id="matplotlib.axis_2">
    <g id="ytick_1">
     <g id="line2d_19">
      <defs>
       <path d="M 0 0 
L 2.5 0 
" id="m7626ebc9d3" style="stroke:#000000;stroke-width:0.8;"/>
      </defs>
      <g>
       <use style="stroke:#000000;stroke-width:0.8;" x="24.3" xlink:href="#m7626ebc9d3" y="153"/>
      </g>
     </g>
     <g id="line2d_20">
      <defs>
       <path d="M 0 0 
L -2.5 0 
" id="ma54fd0086d" style="stroke:#000000;stroke-width:0.8;"/>
      </defs>
      <g>
       <use style="stroke:#000000;stroke-width:0.8;" x="230.85" xlink:href="#ma54fd0086d" y="153"/>
      </g>
     </g>
     <g id="text_6">
      <!-- $0$ -->
      <g transform="translate(16.8 156.039375)scale(0.08 -0.08)">
       <use transform="translate(0 0.40625)" xlink:href="#STIXGeneral-Regular-1d7e2"/>
      </g>
     </g>
    </g>
    <g id="ytick_2">
     <g id="line2d_21">
      <g>
       <use style="stroke:#000000;stroke-width:0.8;" x="24.3" xlink:href="#m7626ebc9d3" y="117"/>
      </g>
     </g>
     <g id="line2d_22">
      <g>
       <use style="stroke:#000000;stroke-width:0.8;" x="230.85" xlink:href="#ma54fd0086d" y="117"/>
      </g>
     </g>
     <g id="text_7">
      <!-- $0.5$ -->
      <defs>
       <path d="M 45.796875 67.59375 
L 42.59375 60.5 
L 24.90625 60.5 
L 18.5 47.796875 
Q 29.90625 46.203125 37.25 39.75 
Q 44.59375 33.296875 44.59375 22.59375 
Q 44.59375 12.703125 37.84375 5.640625 
Q 31.09375 -1.40625 21 -1.40625 
Q 10 -1.40625 3.59375 5.59375 
L 8.296875 11.203125 
Q 13.40625 5.703125 20.5 5.703125 
Q 27.90625 5.703125 32.296875 10.75 
Q 36.703125 15.796875 36.703125 22.59375 
Q 36.703125 30 30.09375 35.203125 
Q 23.40625 40.703125 9.40625 40.703125 
L 8 42.40625 
L 19.59375 67.59375 
z
" id="STIXGeneral-Regular-1d7e7"/>
      </defs>
      <g transform="translate(10.8 120.039375)scale(0.08 -0.08)">
       <use transform="translate(0 0.40625)" xlink:href="#STIXGeneral-Regular-1d7e2"/>
       <use transform="translate(49.999985 0.40625)" xlink:href="#STIXGeneral-Regular-2e"/>
       <use transform="translate(74.999969 0.40625)" xlink:href="#STIXGeneral-Regular-1d7e7"/>
      </g>
     </g>
    </g>
    <g id="ytick_3">
     <g id="line2d_23">
      <g>
       <use style="stroke:#000000;stroke-width:0.8;" x="24.3" xlink:href="#m7626ebc9d3" y="81"/>
      </g>
     </g>
     <g id="line2d_24">
      <g>
       <use style="stroke:#000000;stroke-width:0.8;" x="230.85" xlink:href="#ma54fd0086d" y="81"/>
      </g>
     </g>
     <g id="text_8">
      <!-- $1$ -->
      <defs>
       <path d="M 30.203125 0 
L 22.296875 0 
L 22.296875 57 
Q 20.09375 56 15.75 53.75 
Q 11.40625 51.5 10.796875 51.203125 
L 10.796875 58.5 
L 28.796875 67.703125 
L 30.203125 67.203125 
z
" id="STIXGeneral-Regular-1d7e3"/>
      </defs>
      <g transform="translate(16.8 84.039375)scale(0.08 -0.08)">
       <use transform="translate(0 0.296875)" xlink:href="#STIXGeneral-Regular-1d7e3"/>
      </g>
     </g>
    </g>
    <g id="ytick_4">
     <g id="line2d_25">
      <g>
       <use style="stroke:#000000;stroke-width:0.8;" x="24.3" xlink:href="#m7626ebc9d3" y="45"/>
      </g>
     </g>
     <g id="line2d_26">
      <g>
       <use style="stroke:#000000;stroke-width:0.8;" x="230.85" xlink:href="#ma54fd0086d" y="45"/>
      </g>
     </g>
     <g id="text_9">
      <!-- $1.5$ -->
      <g transform="translate(10.8 48.039375)scale(0.08 -0.08)">
       <use transform="translate(0 0.296875)" xlink:href="#STIXGeneral-Regular-1d7e3"/>
       <use transform="translate(49.999985 0.296875)" xlink:href="#STIXGeneral-Regular-2e"/>
       <use transform="translate(74.999969 0.296875)" xlink:href="#STIXGeneral-Regular-1d7e7"/>
      </g>
     </g>
    </g>
    <g id="ytick_5">
     <g id="line2d_27">
      <g>
       <use style="stroke:#000000;stroke-width:0.8;" x="24.3" xlink:href="#m7626ebc9d3" y="9"/>
      </g>
     </g>
     <g id="line2d_28">
      <g>
       <use style="stroke:#000000;stroke-width:0.8;" x="230.85" xlink:href="#ma54fd0086d" y="9"/>
      </g>
     </g>
     <g id="text_10">
      <!-- $2$ -->
      <g transform="translate(16.8 12.039375)scale(0.08 -0.08)">
       <use transform="translate(0 0.40625)" xlink:href="#STIXGeneral-Regular-1d7e4"/>
      </g>
     </g>
    </g>
    <g id="ytick_6">
     <g id="line2d_29">
      <defs>
       <path d="M 0 0 
L 1.5 0 
" id="mff2fa1a6d1" style="stroke:#000000;stroke-width:0.6;"/>
      </defs>
      <g>
       <use style="stroke:#000000;stroke-width:0.6;" x="24.3" xlink:href="#mff2fa1a6d1" y="135"/>
      </g>
     </g>
     <g id="line2d_30">
      <defs>
       <path d="M 0 0 
L -1.5 0 
" id="mc143ea6fef" style="stroke:#000000;stroke-width:0.6;"/>
      </defs>
      <g>
       <use style="stroke:#000000;stroke-width:0.6;" x="230.85" xlink:href="#mc143ea6fef" y="135"/>
      </g>
     </g>
    </g>
    <g id="ytick_7">
     <g id="line2d_31">
      <g>
       <use style="stroke:#000000;stroke-width:0.6;" x="24.3" xlink:href="#mff2fa1a6d1" y="99"/>
      </g>
     </g>
     <g id="line2d_32">
      <g>
       <use style="stroke:#000000;stroke-width:0.6;" x="230.85" xlink:href="#mc143ea6fef" y="99"/>
      </g>
     </g>
    </g>
    <g id="ytick_8">
     <g id="line2d_33">
      <g>
       <use style="stroke:#000000;stroke-width:0.6;" x="24.3" xlink:href="#mff2fa1a6d1" y="63"/>
      </g>
     </g>
     <g id="line2d_34">
      <g>
       <use style="stroke:#000000;stroke-width:0.6;" x="230.85" xlink:href="#mc143ea6fef" y="63"/>
      </g>
     </g>
    </g>
    <g id="ytick_9">
     <g id="line2d_35">
      <g>
       <use style="stroke:#000000;stroke-width:0.6;" x="24.3" xlink:href="#mff2fa1a6d1" y="27"/>
      </g>
     </g>
     <g id="line2d_36">
      <g>
       <use style="stroke:#000000;stroke-width:0.6;" x="230.85" xlink:href="#mc143ea6fef" y="27"/>
      </g>
     </g>
    </g>
    <g id="text_11">
     <!-- $E\,/E_0$ -->
     <defs>
      <path d="M 67.796875 66.203125 
L 65.90625 58.796875 
L 30.703125 58.796875 
L 25.703125 38.59375 
L 56.203125 38.59375 
L 54.296875 31.09375 
L 23.796875 31.09375 
L 17.90625 7.40625 
L 55.796875 7.40625 
L 52.296875 0 
L 7.40625 0 
L 23.90625 66.203125 
z
" id="STIXGeneral-Italic-1d60c"/>
     </defs>
     <g transform="translate(5.13625 88.8)rotate(-90)scale(0.08 -0.08)">
      <use transform="translate(0 0.40625)" xlink:href="#STIXGeneral-Italic-1d60c"/>
      <use transform="translate(70.900238 0.40625)" xlink:href="#STIXGeneral-Regular-2f"/>
      <use transform="translate(98.700226 0.40625)" xlink:href="#STIXGeneral-Italic-1d60c"/>
      <use transform="translate(157.000214 -13.182812)scale(0.7)" xlink:href="#STIXGeneral-Regular-1d7e2"/>
     </g>
    </g>
   </g>
   <g id="LineCollection_1">
    <path clip-path="url(#p95db463a6e)" d="M 24.3 126.576 
L 24.3 125.856 
" style="fill:none;stroke:#114b5f;"/>
   </g>
   <g id="line2d_37">
    <defs>
     <path d="M -0 2.12132 
L 1.272792 0 
L 0 -2.12132 
L -1.272792 -0 
z
" id="md1030f4e20" style="stroke:#fa9f42;stroke-linejoin:miter;stroke-width:0.75;"/>
    </defs>
    <g clip-path="url(#p95db463a6e)">
     <use style="fill:#fbb874;stroke:#fa9f42;stroke-linejoin:miter;stroke-width:0.75;" x="49.532808" xlink:href="#md1030f4e20" y="124.425791"/>
     <use style="fill:#fbb874;stroke:#fa9f42;stroke-linejoin:miter;stroke-width:0.75;" x="51.361687" xlink:href="#md1030f4e20" y="123.572704"/>
     <use style="fill:#fbb874;stroke:#fa9f42;stroke-linejoin:miter;stroke-width:0.75;" x="53.189564" xlink:href="#md1030f4e20" y="122.569385"/>
     <use style="fill:#fbb874;stroke:#fa9f42;stroke-linejoin:miter;stroke-width:0.75;" x="54.694031" xlink:href="#md1030f4e20" y="121.616458"/>
     <use style="fill:#fbb874;stroke:#fa9f42;stroke-linejoin:miter;stroke-width:0.75;" x="56.949565" xlink:href="#md1030f4e20" y="120.011798"/>
     <use style="fill:#fbb874;stroke:#fa9f42;stroke-linejoin:miter;stroke-width:0.75;" x="58.347118" xlink:href="#md1030f4e20" y="119.209206"/>
     <use style="fill:#fbb874;stroke:#fa9f42;stroke-linejoin:miter;stroke-width:0.75;" x="60.387823" xlink:href="#md1030f4e20" y="117.754986"/>
     <use style="fill:#fbb874;stroke:#fa9f42;stroke-linejoin:miter;stroke-width:0.75;" x="61.785376" xlink:href="#md1030f4e20" y="116.952394"/>
     <use style="fill:#fbb874;stroke:#fa9f42;stroke-linejoin:miter;stroke-width:0.75;" x="64.257739" xlink:href="#md1030f4e20" y="115.497755"/>
     <use style="fill:#fbb874;stroke:#fa9f42;stroke-linejoin:miter;stroke-width:0.75;" x="68.663893" xlink:href="#md1030f4e20" y="112.739232"/>
     <use style="fill:#fbb874;stroke:#fa9f42;stroke-linejoin:miter;stroke-width:0.75;" x="70.061113" xlink:href="#md1030f4e20" y="111.886563"/>
     <use style="fill:#fbb874;stroke:#fa9f42;stroke-linejoin:miter;stroke-width:0.75;" x="72.319982" xlink:href="#md1030f4e20" y="110.782672"/>
     <use style="fill:#fbb874;stroke:#fa9f42;stroke-linejoin:miter;stroke-width:0.75;" x="74.040946" xlink:href="#md1030f4e20" y="109.92969"/>
     <use style="fill:#fbb874;stroke:#fa9f42;stroke-linejoin:miter;stroke-width:0.75;" x="77.805283" xlink:href="#md1030f4e20" y="108.023102"/>
     <use style="fill:#fbb874;stroke:#fa9f42;stroke-linejoin:miter;stroke-width:0.75;" x="79.526913" xlink:href="#md1030f4e20" y="107.270274"/>
     <use style="fill:#fbb874;stroke:#fa9f42;stroke-linejoin:miter;stroke-width:0.75;" x="83.723243" xlink:href="#md1030f4e20" y="105.413345"/>
     <use style="fill:#fbb874;stroke:#fa9f42;stroke-linejoin:miter;stroke-width:0.75;" x="86.628599" xlink:href="#md1030f4e20" y="104.158595"/>
     <use style="fill:#fbb874;stroke:#fa9f42;stroke-linejoin:miter;stroke-width:0.75;" x="90.395271" xlink:href="#md1030f4e20" y="102.602547"/>
     <use style="fill:#fbb874;stroke:#fa9f42;stroke-linejoin:miter;stroke-width:0.75;" x="95.346002" xlink:href="#md1030f4e20" y="100.594654"/>
     <use style="fill:#fbb874;stroke:#fa9f42;stroke-linejoin:miter;stroke-width:0.75;" x="106.102776" xlink:href="#md1030f4e20" y="95.376185"/>
     <use style="fill:#fbb874;stroke:#fa9f42;stroke-linejoin:miter;stroke-width:0.75;" x="122.988335" xlink:href="#md1030f4e20" y="86.796595"/>
     <use style="fill:#fbb874;stroke:#fa9f42;stroke-linejoin:miter;stroke-width:0.75;" x="124.386889" xlink:href="#md1030f4e20" y="86.144234"/>
     <use style="fill:#fbb874;stroke:#fa9f42;stroke-linejoin:miter;stroke-width:0.75;" x="129.227037" xlink:href="#md1030f4e20" y="83.735831"/>
     <use style="fill:#fbb874;stroke:#fa9f42;stroke-linejoin:miter;stroke-width:0.75;" x="139.444571" xlink:href="#md1030f4e20" y="78.567962"/>
     <use style="fill:#fbb874;stroke:#fa9f42;stroke-linejoin:miter;stroke-width:0.75;" x="142.670001" xlink:href="#md1030f4e20" y="76.762052"/>
     <use style="fill:#fbb874;stroke:#fa9f42;stroke-linejoin:miter;stroke-width:0.75;" x="158.57699" xlink:href="#md1030f4e20" y="67.081711"/>
    </g>
   </g>
   <g id="line2d_38">
    <defs>
     <path d="M 0 1.5 
C 0.397805 1.5 0.77937 1.341951 1.06066 1.06066 
C 1.341951 0.77937 1.5 0.397805 1.5 0 
C 1.5 -0.397805 1.341951 -0.77937 1.06066 -1.06066 
C 0.77937 -1.341951 0.397805 -1.5 0 -1.5 
C -0.397805 -1.5 -0.77937 -1.341951 -1.06066 -1.06066 
C -1.341951 -0.77937 -1.5 -0.397805 -1.5 0 
C -1.5 0.397805 -1.341951 0.77937 -1.06066 1.06066 
C -0.77937 1.341951 -0.397805 1.5 0 1.5 
z
" id="mf7ffea5b75" style="stroke:#5fad41;stroke-width:0.75;"/>
    </defs>
    <g clip-path="url(#p95db463a6e)">
     <use style="fill:#adda9c;stroke:#5fad41;stroke-width:0.75;" x="67.311246" xlink:href="#mf7ffea5b75" y="121.016973"/>
     <use style="fill:#adda9c;stroke:#5fad41;stroke-width:0.75;" x="71.93316" xlink:href="#mf7ffea5b75" y="117.382281"/>
     <use style="fill:#adda9c;stroke:#5fad41;stroke-width:0.75;" x="70.123472" xlink:href="#mf7ffea5b75" y="113.732452"/>
     <use style="fill:#adda9c;stroke:#5fad41;stroke-width:0.75;" x="79.323104" xlink:href="#mf7ffea5b75" y="112.235114"/>
     <use style="fill:#adda9c;stroke:#5fad41;stroke-width:0.75;" x="75.675816" xlink:href="#mf7ffea5b75" y="108.580962"/>
     <use style="fill:#adda9c;stroke:#5fad41;stroke-width:0.75;" x="80.7455" xlink:href="#mf7ffea5b75" y="106.46631"/>
     <use style="fill:#adda9c;stroke:#5fad41;stroke-width:0.75;" x="88.590192" xlink:href="#mf7ffea5b75" y="101.927809"/>
     <use style="fill:#adda9c;stroke:#5fad41;stroke-width:0.75;" x="84.481179" xlink:href="#mf7ffea5b75" y="98.576367"/>
     <use style="fill:#adda9c;stroke:#5fad41;stroke-width:0.75;" x="85.819836" xlink:href="#mf7ffea5b75" y="103.744074"/>
     <use style="fill:#adda9c;stroke:#5fad41;stroke-width:0.75;" x="102.880443" xlink:href="#mf7ffea5b75" y="95.581691"/>
     <use style="fill:#adda9c;stroke:#5fad41;stroke-width:0.75;" x="110.741418" xlink:href="#mf7ffea5b75" y="88.916646"/>
     <use style="fill:#adda9c;stroke:#5fad41;stroke-width:0.75;" x="112.091705" xlink:href="#mf7ffea5b75" y="92.565394"/>
     <use style="fill:#adda9c;stroke:#5fad41;stroke-width:0.75;" x="117.205584" xlink:href="#mf7ffea5b75" y="84.678694"/>
     <use style="fill:#adda9c;stroke:#5fad41;stroke-width:0.75;" x="127.356581" xlink:href="#mf7ffea5b75" y="78.930431"/>
     <use style="fill:#adda9c;stroke:#5fad41;stroke-width:0.75;" x="125.54922" xlink:href="#mf7ffea5b75" y="74.97681"/>
     <use style="fill:#adda9c;stroke:#5fad41;stroke-width:0.75;" x="143.048293" xlink:href="#mf7ffea5b75" y="69.549636"/>
     <use style="fill:#adda9c;stroke:#5fad41;stroke-width:0.75;" x="156.876817" xlink:href="#mf7ffea5b75" y="63.50623"/>
     <use style="fill:#adda9c;stroke:#5fad41;stroke-width:0.75;" x="157.825856" xlink:href="#mf7ffea5b75" y="59.559096"/>
     <use style="fill:#adda9c;stroke:#5fad41;stroke-width:0.75;" x="168.436253" xlink:href="#mf7ffea5b75" y="53.811914"/>
     <use style="fill:#adda9c;stroke:#5fad41;stroke-width:0.75;" x="173.069797" xlink:href="#mf7ffea5b75" y="48.658261"/>
    </g>
   </g>
   <g id="line2d_39">
    <defs>
     <path d="M 0 1.5 
C 0.397805 1.5 0.77937 1.341951 1.06066 1.06066 
C 1.341951 0.77937 1.5 0.397805 1.5 0 
C 1.5 -0.397805 1.341951 -0.77937 1.06066 -1.06066 
C 0.77937 -1.341951 0.397805 -1.5 0 -1.5 
C -0.397805 -1.5 -0.77937 -1.341951 -1.06066 -1.06066 
C -1.341951 -0.77937 -1.5 -0.397805 -1.5 0 
C -1.5 0.397805 -1.341951 0.77937 -1.06066 1.06066 
C -0.77937 1.341951 -0.397805 1.5 0 1.5 
z
" id="m40f74a5683" style="stroke:#a42604;stroke-width:0.75;"/>
    </defs>
    <g clip-path="url(#p95db463a6e)">
     <use style="fill:#f94515;stroke:#a42604;stroke-width:0.75;" x="48.785745" xlink:href="#m40f74a5683" y="125.678448"/>
     <use style="fill:#f94515;stroke:#a42604;stroke-width:0.75;" x="49.864225" xlink:href="#m40f74a5683" y="125.577247"/>
     <use style="fill:#f94515;stroke:#a42604;stroke-width:0.75;" x="51.157866" xlink:href="#m40f74a5683" y="125.375683"/>
     <use style="fill:#f94515;stroke:#a42604;stroke-width:0.75;" x="52.664002" xlink:href="#m40f74a5683" y="124.673141"/>
     <use style="fill:#f94515;stroke:#a42604;stroke-width:0.75;" x="54.169803" xlink:href="#m40f74a5683" y="123.920521"/>
     <use style="fill:#f94515;stroke:#a42604;stroke-width:0.75;" x="55.137699" xlink:href="#m40f74a5683" y="123.41881"/>
     <use style="fill:#f94515;stroke:#a42604;stroke-width:0.75;" x="56.21351" xlink:href="#m40f74a5683" y="122.916994"/>
     <use style="fill:#f94515;stroke:#a42604;stroke-width:0.75;" x="54.168802" xlink:href="#m40f74a5683" y="123.770291"/>
     <use style="fill:#f94515;stroke:#a42604;stroke-width:0.75;" x="57.503482" xlink:href="#m40f74a5683" y="122.164584"/>
     <use style="fill:#f94515;stroke:#a42604;stroke-width:0.75;" x="58.254548" xlink:href="#m40f74a5683" y="121.512851"/>
     <use style="fill:#f94515;stroke:#a42604;stroke-width:0.75;" x="59.116198" xlink:href="#m40f74a5683" y="121.261629"/>
     <use style="fill:#f94515;stroke:#a42604;stroke-width:0.75;" x="59.542519" xlink:href="#m40f74a5683" y="120.459979"/>
     <use style="fill:#f94515;stroke:#a42604;stroke-width:0.75;" x="59.974511" xlink:href="#m40f74a5683" y="120.509637"/>
     <use style="fill:#f94515;stroke:#a42604;stroke-width:0.75;" x="60.61833" xlink:href="#m40f74a5683" y="119.958163"/>
     <use style="fill:#f94515;stroke:#a42604;stroke-width:0.75;" x="61.368729" xlink:href="#m40f74a5683" y="119.206276"/>
     <use style="fill:#f94515;stroke:#a42604;stroke-width:0.75;" x="62.120128" xlink:href="#m40f74a5683" y="118.60462"/>
     <use style="fill:#f94515;stroke:#a42604;stroke-width:0.75;" x="62.977775" xlink:href="#m40f74a5683" y="117.752474"/>
     <use style="fill:#f94515;stroke:#a42604;stroke-width:0.75;" x="63.836088" xlink:href="#m40f74a5683" y="117.000483"/>
     <use style="fill:#f94515;stroke:#a42604;stroke-width:0.75;" x="64.586153" xlink:href="#m40f74a5683" y="116.198519"/>
     <use style="fill:#f94515;stroke:#a42604;stroke-width:0.75;" x="65.553382" xlink:href="#m40f74a5683" y="115.596653"/>
     <use style="fill:#f94515;stroke:#a42604;stroke-width:0.75;" x="66.519611" xlink:href="#m40f74a5683" y="114.844557"/>
     <use style="fill:#f94515;stroke:#a42604;stroke-width:0.75;" x="67.809583" xlink:href="#m40f74a5683" y="114.092147"/>
     <use style="fill:#f94515;stroke:#a42604;stroke-width:0.75;" x="69.099888" xlink:href="#m40f74a5683" y="113.389814"/>
     <use style="fill:#f94515;stroke:#a42604;stroke-width:0.75;" x="70.067451" xlink:href="#m40f74a5683" y="112.838025"/>
     <use style="fill:#f94515;stroke:#a42604;stroke-width:0.75;" x="72.00291" xlink:href="#m40f74a5683" y="111.784525"/>
     <use style="fill:#f94515;stroke:#a42604;stroke-width:0.75;" x="74.153864" xlink:href="#m40f74a5683" y="110.680739"/>
     <use style="fill:#f94515;stroke:#a42604;stroke-width:0.75;" x="76.088989" xlink:href="#m40f74a5683" y="109.577162"/>
     <use style="fill:#f94515;stroke:#a42604;stroke-width:0.75;" x="77.808285" xlink:href="#m40f74a5683" y="108.473795"/>
     <use style="fill:#f94515;stroke:#a42604;stroke-width:0.75;" x="79.527581" xlink:href="#m40f74a5683" y="107.370427"/>
     <use style="fill:#f94515;stroke:#a42604;stroke-width:0.75;" x="81.894698" xlink:href="#m40f74a5683" y="106.316509"/>
     <use style="fill:#f94515;stroke:#a42604;stroke-width:0.75;" x="83.938405" xlink:href="#m40f74a5683" y="105.312981"/>
     <use style="fill:#f94515;stroke:#a42604;stroke-width:0.75;" x="86.521018" xlink:href="#m40f74a5683" y="104.208777"/>
     <use style="fill:#f94515;stroke:#a42604;stroke-width:0.75;" x="87.70441" xlink:href="#m40f74a5683" y="103.656779"/>
     <use style="fill:#f94515;stroke:#a42604;stroke-width:0.75;" x="90.49985" xlink:href="#m40f74a5683" y="102.101672"/>
     <use style="fill:#f94515;stroke:#a42604;stroke-width:0.75;" x="93.295957" xlink:href="#m40f74a5683" y="100.64672"/>
     <use style="fill:#f94515;stroke:#a42604;stroke-width:0.75;" x="96.092732" xlink:href="#m40f74a5683" y="99.291921"/>
     <use style="fill:#f94515;stroke:#a42604;stroke-width:0.75;" x="99.212583" xlink:href="#m40f74a5683" y="97.836654"/>
     <use style="fill:#f94515;stroke:#a42604;stroke-width:0.75;" x="101.901109" xlink:href="#m40f74a5683" y="96.431883"/>
     <use style="fill:#f94515;stroke:#a42604;stroke-width:0.75;" x="104.696883" xlink:href="#m40f74a5683" y="94.926853"/>
     <use style="fill:#f94515;stroke:#a42604;stroke-width:0.75;" x="107.600905" xlink:href="#m40f74a5683" y="93.471796"/>
     <use style="fill:#f94515;stroke:#a42604;stroke-width:0.75;" x="110.181516" xlink:href="#m40f74a5683" y="92.067129"/>
     <use style="fill:#f94515;stroke:#a42604;stroke-width:0.75;" x="111.579737" xlink:href="#m40f74a5683" y="91.364692"/>
     <use style="fill:#f94515;stroke:#a42604;stroke-width:0.75;" x="117.06437" xlink:href="#m40f74a5683" y="88.504968"/>
     <use style="fill:#f94515;stroke:#a42604;stroke-width:0.75;" x="122.872081" xlink:href="#m40f74a5683" y="85.544776"/>
     <use style="fill:#f94515;stroke:#a42604;stroke-width:0.75;" x="128.249133" xlink:href="#m40f74a5683" y="82.735234"/>
     <use style="fill:#f94515;stroke:#a42604;stroke-width:0.75;" x="133.949262" xlink:href="#m40f74a5683" y="79.825224"/>
     <use style="fill:#f94515;stroke:#a42604;stroke-width:0.75;" x="143.198566" xlink:href="#m40f74a5683" y="75.108989"/>
     <use style="fill:#f94515;stroke:#a42604;stroke-width:0.75;" x="150.081087" xlink:href="#m40f74a5683" y="71.496751"/>
     <use style="fill:#f94515;stroke:#a42604;stroke-width:0.75;" x="156.963274" xlink:href="#m40f74a5683" y="67.834435"/>
     <use style="fill:#f94515;stroke:#a42604;stroke-width:0.75;" x="163.522717" xlink:href="#m40f74a5683" y="64.322664"/>
     <use style="fill:#f94515;stroke:#a42604;stroke-width:0.75;" x="170.297656" xlink:href="#m40f74a5683" y="60.760607"/>
     <use style="fill:#f94515;stroke:#a42604;stroke-width:0.75;" x="176.748184" xlink:href="#m40f74a5683" y="57.09871"/>
    </g>
   </g>
   <g id="line2d_40">
    <path clip-path="url(#p95db463a6e)" d="M 24.3 125.928 
L 230.85 125.928 
" style="fill:none;stroke:#808080;stroke-dasharray:3.7,1.6;stroke-dashoffset:0;"/>
   </g>
   <g id="line2d_41">
    <defs>
     <path d="M -2 2 
L 2 2 
L 2 -2 
L -2 -2 
z
" id="m6b757cb651" style="stroke:#114b5f;stroke-linejoin:miter;stroke-width:0.75;"/>
    </defs>
    <g clip-path="url(#p95db463a6e)">
     <use style="fill:#114b5f;stroke:#114b5f;stroke-linejoin:miter;stroke-width:0.75;" x="24.3" xlink:href="#m6b757cb651" y="126.216"/>
    </g>
   </g>
   <g id="patch_3">
    <path d="M 24.3 153 
L 24.3 9 
" style="fill:none;stroke:#000000;stroke-linecap:square;stroke-linejoin:miter;stroke-width:0.8;"/>
   </g>
   <g id="patch_4">
    <path d="M 230.85 153 
L 230.85 9 
" style="fill:none;stroke:#000000;stroke-linecap:square;stroke-linejoin:miter;stroke-width:0.8;"/>
   </g>
   <g id="patch_5">
    <path d="M 24.3 153 
L 230.85 153 
" style="fill:none;stroke:#000000;stroke-linecap:square;stroke-linejoin:miter;stroke-width:0.8;"/>
   </g>
   <g id="patch_6">
    <path d="M 24.3 9 
L 230.85 9 
" style="fill:none;stroke:#000000;stroke-linecap:square;stroke-linejoin:miter;stroke-width:0.8;"/>
   </g>
   <g id="text_12">
    <!-- $\xi = 0.376$ -->
    <defs>
     <path d="M 46.40625 60.59375 
L 43.40625 53.09375 
Q 36.09375 53 30.9375 50.640625 
Q 25.796875 48.296875 25.796875 43.796875 
Q 25.796875 41.703125 27.40625 40.40625 
Q 34 42.703125 43.90625 43.296875 
L 44.90625 42.59375 
L 40.59375 35.40625 
Q 26.59375 35.40625 18.5 27.296875 
Q 12.796875 21.59375 12.796875 14.40625 
Q 12.796875 11.09375 14.4375 9 
Q 16.09375 6.90625 19.296875 6.90625 
L 25.09375 6.90625 
Q 37.796875 6.90625 37.796875 -1.203125 
Q 37.796875 -8.90625 31.296875 -15.203125 
Q 24.796875 -21.5 18.296875 -21.5 
Q 13.40625 -21.5 11.296875 -19.40625 
L 13.09375 -12.203125 
L 14.796875 -12.203125 
Q 17.09375 -14.296875 20.203125 -14.296875 
Q 23 -14.296875 26.203125 -11.140625 
Q 29.40625 -8 29.40625 -4.296875 
Q 29.40625 -1 22.796875 -1 
L 16.203125 -1 
Q 10.796875 -1 7.546875 2.34375 
Q 4.296875 5.703125 4.296875 11.296875 
Q 4.296875 21.5 13.59375 31.296875 
Q 16.90625 34.796875 20.09375 36.796875 
Q 17.703125 39.296875 17.703125 42.296875 
Q 17.703125 45.296875 18.796875 47.546875 
Q 19.90625 49.796875 22.703125 52.59375 
Q 19.5 55 19.5 58.90625 
Q 19.5 64.296875 24 68.296875 
L 25.203125 68.296875 
L 29.90625 66.59375 
Q 27.09375 63.203125 27.09375 61 
Q 27.09375 58.59375 29.5 57 
Q 36.59375 60 45.203125 61 
z
" id="STIXNonUnicode-Italic-e1e5"/>
     <path d="M 63.703125 32 
L 4.796875 32 
L 4.796875 38.59375 
L 63.703125 38.59375 
z
M 63.703125 12 
L 4.796875 12 
L 4.796875 18.59375 
L 63.703125 18.59375 
z
" id="STIXGeneral-Regular-3d"/>
     <path d="M 11.296875 49.203125 
L 4.203125 50.90625 
Q 6.40625 58.703125 11.5 63.140625 
Q 16.59375 67.59375 24.296875 67.59375 
Q 31.40625 67.59375 36.203125 63.09375 
Q 41 58.59375 41 51.90625 
Q 41 43 32.40625 37 
Q 38 35 41.046875 30.34375 
Q 44.09375 25.703125 44.09375 21 
Q 44.09375 11.296875 37.796875 5 
Q 31.40625 -1.40625 20.5 -1.40625 
Q 9.5 -1.40625 3.09375 5.59375 
L 7.796875 11.203125 
Q 12.90625 5.703125 20 5.703125 
Q 27.40625 5.703125 31.59375 9.296875 
Q 36.203125 13.203125 36.203125 19.09375 
Q 36.203125 24.296875 32.453125 27.796875 
Q 28.703125 31.296875 22.203125 32.203125 
L 15.796875 32.203125 
L 15.796875 34.296875 
L 20.59375 39.40625 
Q 25.09375 39.40625 29.09375 42.84375 
Q 33.09375 46.296875 33.09375 51.203125 
Q 33.09375 55.40625 30.4375 57.953125 
Q 27.796875 60.5 24 60.5 
Q 20 60.5 16.546875 57.640625 
Q 13.09375 54.796875 11.296875 49.203125 
z
" id="STIXGeneral-Regular-1d7e5"/>
     <path d="M 45.09375 64.203125 
L 23 -0.796875 
L 14.796875 -0.796875 
L 35.40625 59.09375 
L 3.796875 59.09375 
L 6.90625 66.203125 
L 45.09375 66.203125 
z
" id="STIXGeneral-Regular-1d7e9"/>
    </defs>
    <g style="fill:#808080;" transform="translate(179.2125 122.328)scale(0.08 -0.08)">
     <use transform="translate(0 0.59375)" xlink:href="#STIXNonUnicode-Italic-e1e5"/>
     <use transform="translate(58.519992 0.59375)" xlink:href="#STIXGeneral-Regular-3d"/>
     <use transform="translate(142.139975 0.59375)" xlink:href="#STIXGeneral-Regular-1d7e2"/>
     <use transform="translate(192.13996 0.59375)" xlink:href="#STIXGeneral-Regular-2e"/>
     <use transform="translate(217.139944 0.59375)" xlink:href="#STIXGeneral-Regular-1d7e5"/>
     <use transform="translate(267.139929 0.59375)" xlink:href="#STIXGeneral-Regular-1d7e9"/>
     <use transform="translate(317.139914 0.59375)" xlink:href="#STIXGeneral-Regular-1d7e8"/>
    </g>
   </g>
   <g id="legend_1">
    <g id="line2d_42">
     <path d="M 31.5 19.47875 
L 47.5 19.47875 
" style="fill:none;stroke:#187795;stroke-linecap:square;"/>
    </g>
    <g id="line2d_43"/>
    <g id="text_13">
     <!-- CL -->
     <defs>
      <path d="M 64.40625 67.28125 
L 64.40625 56.890625 
Q 59.421875 61.53125 53.78125 63.8125 
Q 48.140625 66.109375 41.796875 66.109375 
Q 29.296875 66.109375 22.65625 58.46875 
Q 16.015625 50.828125 16.015625 36.375 
Q 16.015625 21.96875 22.65625 14.328125 
Q 29.296875 6.6875 41.796875 6.6875 
Q 48.140625 6.6875 53.78125 8.984375 
Q 59.421875 11.28125 64.40625 15.921875 
L 64.40625 5.609375 
Q 59.234375 2.09375 53.4375 0.328125 
Q 47.65625 -1.421875 41.21875 -1.421875 
Q 24.65625 -1.421875 15.125 8.703125 
Q 5.609375 18.84375 5.609375 36.375 
Q 5.609375 53.953125 15.125 64.078125 
Q 24.65625 74.21875 41.21875 74.21875 
Q 47.75 74.21875 53.53125 72.484375 
Q 59.328125 70.75 64.40625 67.28125 
z
" id="DejaVuSans-43"/>
      <path d="M 9.8125 72.90625 
L 19.671875 72.90625 
L 19.671875 8.296875 
L 55.171875 8.296875 
L 55.171875 0 
L 9.8125 0 
z
" id="DejaVuSans-4c"/>
     </defs>
     <g transform="translate(53.9 22.27875)scale(0.08 -0.08)">
      <use xlink:href="#DejaVuSans-43"/>
      <use x="69.824219" xlink:href="#DejaVuSans-4c"/>
     </g>
    </g>
    <g id="line2d_44"/>
    <g id="line2d_45">
     <g>
      <use style="fill:#fbb874;stroke:#fa9f42;stroke-linejoin:miter;stroke-width:0.75;" x="39.5" xlink:href="#md1030f4e20" y="31.22125"/>
     </g>
    </g>
    <g id="text_14">
     <!-- DHMC -->
     <defs>
      <path d="M 19.671875 64.796875 
L 19.671875 8.109375 
L 31.59375 8.109375 
Q 46.6875 8.109375 53.6875 14.9375 
Q 60.6875 21.78125 60.6875 36.53125 
Q 60.6875 51.171875 53.6875 57.984375 
Q 46.6875 64.796875 31.59375 64.796875 
z
M 9.8125 72.90625 
L 30.078125 72.90625 
Q 51.265625 72.90625 61.171875 64.09375 
Q 71.09375 55.28125 71.09375 36.53125 
Q 71.09375 17.671875 61.125 8.828125 
Q 51.171875 0 30.078125 0 
L 9.8125 0 
z
" id="DejaVuSans-44"/>
      <path d="M 9.8125 72.90625 
L 19.671875 72.90625 
L 19.671875 43.015625 
L 55.515625 43.015625 
L 55.515625 72.90625 
L 65.375 72.90625 
L 65.375 0 
L 55.515625 0 
L 55.515625 34.71875 
L 19.671875 34.71875 
L 19.671875 0 
L 9.8125 0 
z
" id="DejaVuSans-48"/>
      <path d="M 9.8125 72.90625 
L 24.515625 72.90625 
L 43.109375 23.296875 
L 61.8125 72.90625 
L 76.515625 72.90625 
L 76.515625 0 
L 66.890625 0 
L 66.890625 64.015625 
L 48.09375 14.015625 
L 38.1875 14.015625 
L 19.390625 64.015625 
L 19.390625 0 
L 9.8125 0 
z
" id="DejaVuSans-4d"/>
     </defs>
     <g transform="translate(53.9 34.02125)scale(0.08 -0.08)">
      <use xlink:href="#DejaVuSans-44"/>
      <use x="77.001953" xlink:href="#DejaVuSans-48"/>
      <use x="152.197266" xlink:href="#DejaVuSans-4d"/>
      <use x="238.476562" xlink:href="#DejaVuSans-43"/>
     </g>
    </g>
    <g id="line2d_46"/>
    <g id="line2d_47">
     <g>
      <use style="fill:#adda9c;stroke:#5fad41;stroke-width:0.75;" x="39.5" xlink:href="#mf7ffea5b75" y="42.96375"/>
     </g>
    </g>
    <g id="text_15">
     <!-- experiment (ENS) -->
     <defs>
      <path d="M 56.203125 29.59375 
L 56.203125 25.203125 
L 14.890625 25.203125 
Q 15.484375 15.921875 20.484375 11.0625 
Q 25.484375 6.203125 34.421875 6.203125 
Q 39.59375 6.203125 44.453125 7.46875 
Q 49.3125 8.734375 54.109375 11.28125 
L 54.109375 2.78125 
Q 49.265625 0.734375 44.1875 -0.34375 
Q 39.109375 -1.421875 33.890625 -1.421875 
Q 20.796875 -1.421875 13.15625 6.1875 
Q 5.515625 13.8125 5.515625 26.8125 
Q 5.515625 40.234375 12.765625 48.109375 
Q 20.015625 56 32.328125 56 
Q 43.359375 56 49.78125 48.890625 
Q 56.203125 41.796875 56.203125 29.59375 
z
M 47.21875 32.234375 
Q 47.125 39.59375 43.09375 43.984375 
Q 39.0625 48.390625 32.421875 48.390625 
Q 24.90625 48.390625 20.390625 44.140625 
Q 15.875 39.890625 15.1875 32.171875 
z
" id="DejaVuSans-65"/>
      <path d="M 54.890625 54.6875 
L 35.109375 28.078125 
L 55.90625 0 
L 45.3125 0 
L 29.390625 21.484375 
L 13.484375 0 
L 2.875 0 
L 24.125 28.609375 
L 4.6875 54.6875 
L 15.28125 54.6875 
L 29.78125 35.203125 
L 44.28125 54.6875 
z
" id="DejaVuSans-78"/>
      <path d="M 18.109375 8.203125 
L 18.109375 -20.796875 
L 9.078125 -20.796875 
L 9.078125 54.6875 
L 18.109375 54.6875 
L 18.109375 46.390625 
Q 20.953125 51.265625 25.265625 53.625 
Q 29.59375 56 35.59375 56 
Q 45.5625 56 51.78125 48.09375 
Q 58.015625 40.1875 58.015625 27.296875 
Q 58.015625 14.40625 51.78125 6.484375 
Q 45.5625 -1.421875 35.59375 -1.421875 
Q 29.59375 -1.421875 25.265625 0.953125 
Q 20.953125 3.328125 18.109375 8.203125 
z
M 48.6875 27.296875 
Q 48.6875 37.203125 44.609375 42.84375 
Q 40.53125 48.484375 33.40625 48.484375 
Q 26.265625 48.484375 22.1875 42.84375 
Q 18.109375 37.203125 18.109375 27.296875 
Q 18.109375 17.390625 22.1875 11.75 
Q 26.265625 6.109375 33.40625 6.109375 
Q 40.53125 6.109375 44.609375 11.75 
Q 48.6875 17.390625 48.6875 27.296875 
z
" id="DejaVuSans-70"/>
      <path d="M 41.109375 46.296875 
Q 39.59375 47.171875 37.8125 47.578125 
Q 36.03125 48 33.890625 48 
Q 26.265625 48 22.1875 43.046875 
Q 18.109375 38.09375 18.109375 28.8125 
L 18.109375 0 
L 9.078125 0 
L 9.078125 54.6875 
L 18.109375 54.6875 
L 18.109375 46.1875 
Q 20.953125 51.171875 25.484375 53.578125 
Q 30.03125 56 36.53125 56 
Q 37.453125 56 38.578125 55.875 
Q 39.703125 55.765625 41.0625 55.515625 
z
" id="DejaVuSans-72"/>
      <path d="M 9.421875 54.6875 
L 18.40625 54.6875 
L 18.40625 0 
L 9.421875 0 
z
M 9.421875 75.984375 
L 18.40625 75.984375 
L 18.40625 64.59375 
L 9.421875 64.59375 
z
" id="DejaVuSans-69"/>
      <path d="M 52 44.1875 
Q 55.375 50.25 60.0625 53.125 
Q 64.75 56 71.09375 56 
Q 79.640625 56 84.28125 50.015625 
Q 88.921875 44.046875 88.921875 33.015625 
L 88.921875 0 
L 79.890625 0 
L 79.890625 32.71875 
Q 79.890625 40.578125 77.09375 44.375 
Q 74.3125 48.1875 68.609375 48.1875 
Q 61.625 48.1875 57.5625 43.546875 
Q 53.515625 38.921875 53.515625 30.90625 
L 53.515625 0 
L 44.484375 0 
L 44.484375 32.71875 
Q 44.484375 40.625 41.703125 44.40625 
Q 38.921875 48.1875 33.109375 48.1875 
Q 26.21875 48.1875 22.15625 43.53125 
Q 18.109375 38.875 18.109375 30.90625 
L 18.109375 0 
L 9.078125 0 
L 9.078125 54.6875 
L 18.109375 54.6875 
L 18.109375 46.1875 
Q 21.1875 51.21875 25.484375 53.609375 
Q 29.78125 56 35.6875 56 
Q 41.65625 56 45.828125 52.96875 
Q 50 49.953125 52 44.1875 
z
" id="DejaVuSans-6d"/>
      <path d="M 54.890625 33.015625 
L 54.890625 0 
L 45.90625 0 
L 45.90625 32.71875 
Q 45.90625 40.484375 42.875 44.328125 
Q 39.84375 48.1875 33.796875 48.1875 
Q 26.515625 48.1875 22.3125 43.546875 
Q 18.109375 38.921875 18.109375 30.90625 
L 18.109375 0 
L 9.078125 0 
L 9.078125 54.6875 
L 18.109375 54.6875 
L 18.109375 46.1875 
Q 21.34375 51.125 25.703125 53.5625 
Q 30.078125 56 35.796875 56 
Q 45.21875 56 50.046875 50.171875 
Q 54.890625 44.34375 54.890625 33.015625 
z
" id="DejaVuSans-6e"/>
      <path d="M 18.3125 70.21875 
L 18.3125 54.6875 
L 36.8125 54.6875 
L 36.8125 47.703125 
L 18.3125 47.703125 
L 18.3125 18.015625 
Q 18.3125 11.328125 20.140625 9.421875 
Q 21.96875 7.515625 27.59375 7.515625 
L 36.8125 7.515625 
L 36.8125 0 
L 27.59375 0 
Q 17.1875 0 13.234375 3.875 
Q 9.28125 7.765625 9.28125 18.015625 
L 9.28125 47.703125 
L 2.6875 47.703125 
L 2.6875 54.6875 
L 9.28125 54.6875 
L 9.28125 70.21875 
z
" id="DejaVuSans-74"/>
      <path id="DejaVuSans-20"/>
      <path d="M 31 75.875 
Q 24.46875 64.65625 21.28125 53.65625 
Q 18.109375 42.671875 18.109375 31.390625 
Q 18.109375 20.125 21.3125 9.0625 
Q 24.515625 -2 31 -13.1875 
L 23.1875 -13.1875 
Q 15.875 -1.703125 12.234375 9.375 
Q 8.59375 20.453125 8.59375 31.390625 
Q 8.59375 42.28125 12.203125 53.3125 
Q 15.828125 64.359375 23.1875 75.875 
z
" id="DejaVuSans-28"/>
      <path d="M 9.8125 72.90625 
L 55.90625 72.90625 
L 55.90625 64.59375 
L 19.671875 64.59375 
L 19.671875 43.015625 
L 54.390625 43.015625 
L 54.390625 34.71875 
L 19.671875 34.71875 
L 19.671875 8.296875 
L 56.78125 8.296875 
L 56.78125 0 
L 9.8125 0 
z
" id="DejaVuSans-45"/>
      <path d="M 9.8125 72.90625 
L 23.09375 72.90625 
L 55.421875 11.921875 
L 55.421875 72.90625 
L 64.984375 72.90625 
L 64.984375 0 
L 51.703125 0 
L 19.390625 60.984375 
L 19.390625 0 
L 9.8125 0 
z
" id="DejaVuSans-4e"/>
      <path d="M 53.515625 70.515625 
L 53.515625 60.890625 
Q 47.90625 63.578125 42.921875 64.890625 
Q 37.9375 66.21875 33.296875 66.21875 
Q 25.25 66.21875 20.875 63.09375 
Q 16.5 59.96875 16.5 54.203125 
Q 16.5 49.359375 19.40625 46.890625 
Q 22.3125 44.4375 30.421875 42.921875 
L 36.375 41.703125 
Q 47.40625 39.59375 52.65625 34.296875 
Q 57.90625 29 57.90625 20.125 
Q 57.90625 9.515625 50.796875 4.046875 
Q 43.703125 -1.421875 29.984375 -1.421875 
Q 24.8125 -1.421875 18.96875 -0.25 
Q 13.140625 0.921875 6.890625 3.21875 
L 6.890625 13.375 
Q 12.890625 10.015625 18.65625 8.296875 
Q 24.421875 6.59375 29.984375 6.59375 
Q 38.421875 6.59375 43.015625 9.90625 
Q 47.609375 13.234375 47.609375 19.390625 
Q 47.609375 24.75 44.3125 27.78125 
Q 41.015625 30.8125 33.5 32.328125 
L 27.484375 33.5 
Q 16.453125 35.6875 11.515625 40.375 
Q 6.59375 45.0625 6.59375 53.421875 
Q 6.59375 63.09375 13.40625 68.65625 
Q 20.21875 74.21875 32.171875 74.21875 
Q 37.3125 74.21875 42.625 73.28125 
Q 47.953125 72.359375 53.515625 70.515625 
z
" id="DejaVuSans-53"/>
      <path d="M 8.015625 75.875 
L 15.828125 75.875 
Q 23.140625 64.359375 26.78125 53.3125 
Q 30.421875 42.28125 30.421875 31.390625 
Q 30.421875 20.453125 26.78125 9.375 
Q 23.140625 -1.703125 15.828125 -13.1875 
L 8.015625 -13.1875 
Q 14.5 -2 17.703125 9.0625 
Q 20.90625 20.125 20.90625 31.390625 
Q 20.90625 42.671875 17.703125 53.65625 
Q 14.5 64.65625 8.015625 75.875 
z
" id="DejaVuSans-29"/>
     </defs>
     <g transform="translate(53.9 45.76375)scale(0.08 -0.08)">
      <use xlink:href="#DejaVuSans-65"/>
      <use x="61.507812" xlink:href="#DejaVuSans-78"/>
      <use x="120.6875" xlink:href="#DejaVuSans-70"/>
      <use x="184.164062" xlink:href="#DejaVuSans-65"/>
      <use x="245.6875" xlink:href="#DejaVuSans-72"/>
      <use x="286.800781" xlink:href="#DejaVuSans-69"/>
      <use x="314.583984" xlink:href="#DejaVuSans-6d"/>
      <use x="411.996094" xlink:href="#DejaVuSans-65"/>
      <use x="473.519531" xlink:href="#DejaVuSans-6e"/>
      <use x="536.898438" xlink:href="#DejaVuSans-74"/>
      <use x="576.107422" xlink:href="#DejaVuSans-20"/>
      <use x="607.894531" xlink:href="#DejaVuSans-28"/>
      <use x="646.908203" xlink:href="#DejaVuSans-45"/>
      <use x="710.091797" xlink:href="#DejaVuSans-4e"/>
      <use x="784.896484" xlink:href="#DejaVuSans-53"/>
      <use x="848.373047" xlink:href="#DejaVuSans-29"/>
     </g>
    </g>
    <g id="line2d_48"/>
    <g id="line2d_49">
     <g>
      <use style="fill:#f94515;stroke:#a42604;stroke-width:0.75;" x="39.5" xlink:href="#m40f74a5683" y="54.70625"/>
     </g>
    </g>
    <g id="text_16">
     <!-- experiment (MIT) -->
     <defs>
      <path d="M 9.8125 72.90625 
L 19.671875 72.90625 
L 19.671875 0 
L 9.8125 0 
z
" id="DejaVuSans-49"/>
      <path d="M -0.296875 72.90625 
L 61.375 72.90625 
L 61.375 64.59375 
L 35.5 64.59375 
L 35.5 0 
L 25.59375 0 
L 25.59375 64.59375 
L -0.296875 64.59375 
z
" id="DejaVuSans-54"/>
     </defs>
     <g transform="translate(53.9 57.50625)scale(0.08 -0.08)">
      <use xlink:href="#DejaVuSans-65"/>
      <use x="61.507812" xlink:href="#DejaVuSans-78"/>
      <use x="120.6875" xlink:href="#DejaVuSans-70"/>
      <use x="184.164062" xlink:href="#DejaVuSans-65"/>
      <use x="245.6875" xlink:href="#DejaVuSans-72"/>
      <use x="286.800781" xlink:href="#DejaVuSans-69"/>
      <use x="314.583984" xlink:href="#DejaVuSans-6d"/>
      <use x="411.996094" xlink:href="#DejaVuSans-65"/>
      <use x="473.519531" xlink:href="#DejaVuSans-6e"/>
      <use x="536.898438" xlink:href="#DejaVuSans-74"/>
      <use x="576.107422" xlink:href="#DejaVuSans-20"/>
      <use x="607.894531" xlink:href="#DejaVuSans-28"/>
      <use x="646.908203" xlink:href="#DejaVuSans-4d"/>
      <use x="733.1875" xlink:href="#DejaVuSans-49"/>
      <use x="762.679688" xlink:href="#DejaVuSans-54"/>
      <use x="823.763672" xlink:href="#DejaVuSans-29"/>
     </g>
    </g>
   </g>
   <g id="line2d_50">
    <path clip-path="url(#p95db463a6e)" d="M 204.959335 41.000533 
L 173.632498 59.45341 
L 157.101414 68.934891 
L 142.913568 76.808824 
L 130.764995 83.302759 
L 121.101164 88.221281 
L 112.790852 92.213492 
L 105.124094 95.66088 
L 97.264572 98.951241 
L 89.26662 102.057487 
L 79.561777 105.821391 
L 74.728534 107.963264 
L 70.409777 110.121608 
L 65.956162 112.60962 
L 56.522468 117.981763 
L 54.760278 118.654183 
L 53.068869 119.062292 
L 51.914488 119.220677 
L 51.914488 119.220677 
" style="fill:none;stroke:#187795;stroke-linecap:square;"/>
   </g>
  </g>
 </g>
 <defs>
  <clipPath id="p95db463a6e">
   <rect height="144" width="206.55" x="24.3" y="9"/>
  </clipPath>
 </defs>
</svg>
