<?xml version="1.0" encoding="utf-8" standalone="no"?>
<!DOCTYPE svg PUBLIC "-//W3C//DTD SVG 1.1//EN"
  "http://www.w3.org/Graphics/SVG/1.1/DTD/svg11.dtd">
<!-- Created with matplotlib (https://matplotlib.org/) -->
<svg height="180pt" version="1.1" viewBox="0 0 288 180" width="288pt" xmlns="http://www.w3.org/2000/svg" xmlns:xlink="http://www.w3.org/1999/xlink">
 <defs>
  <style type="text/css">
*{stroke-linecap:butt;stroke-linejoin:round;}
  </style>
 </defs>
 <g id="figure_1">
  <g id="patch_1">
   <path d="M 0 180 
L 288 180 
L 288 0 
L 0 0 
z
" style="fill:none;"/>
  </g>
  <g id="axes_1">
   <g id="patch_2">
    <path d="M 28.8 158.4 
L 280.8 158.4 
L 280.8 3.6 
L 28.8 3.6 
z
" style="fill:none;"/>
   </g>
   <g id="LineCollection_1">
    <path clip-path="url(#p603a0b9f24)" d="M 280.449252 10.422432 
L 280.449252 5.329638 
" style="fill:none;stroke:#a42604;"/>
    <path clip-path="url(#p603a0b9f24)" d="M 279.239076 9.390265 
L 279.239076 9.390265 
" style="fill:none;stroke:#a42604;"/>
    <path clip-path="url(#p603a0b9f24)" d="M 276.846516 12.774423 
L 276.846516 12.774423 
" style="fill:none;stroke:#a42604;"/>
    <path clip-path="url(#p603a0b9f24)" d="M 275.042412 15.3949 
L 275.042412 15.3949 
" style="fill:none;stroke:#a42604;"/>
    <path clip-path="url(#p603a0b9f24)" d="M 273.21372 18.276645 
L 273.21372 18.276645 
" style="fill:none;stroke:#a42604;"/>
    <path clip-path="url(#p603a0b9f24)" d="M 271.804284 20.849307 
L 271.804284 20.849307 
" style="fill:none;stroke:#a42604;"/>
    <path clip-path="url(#p603a0b9f24)" d="M 270.555804 23.219925 
L 270.555804 23.219925 
" style="fill:none;stroke:#a42604;"/>
    <path clip-path="url(#p603a0b9f24)" d="M 269.125524 25.804799 
L 269.125524 25.804799 
" style="fill:none;stroke:#a42604;"/>
    <path clip-path="url(#p603a0b9f24)" d="M 267.504696 28.267953 
L 267.504696 28.267953 
" style="fill:none;stroke:#a42604;"/>
    <path clip-path="url(#p603a0b9f24)" d="M 265.866624 30.302083 
L 265.866624 30.302083 
" style="fill:none;stroke:#a42604;"/>
    <path clip-path="url(#p603a0b9f24)" d="M 263.93994 32.327784 
L 263.93994 32.327784 
" style="fill:none;stroke:#a42604;"/>
    <path clip-path="url(#p603a0b9f24)" d="M 261.646416 34.401531 
L 261.646416 34.401531 
" style="fill:none;stroke:#a42604;"/>
    <path clip-path="url(#p603a0b9f24)" d="M 259.039512 36.359923 
L 259.039512 36.359923 
" style="fill:none;stroke:#a42604;"/>
    <path clip-path="url(#p603a0b9f24)" d="M 257.040936 37.805984 
L 257.040936 37.805984 
" style="fill:none;stroke:#a42604;"/>
    <path clip-path="url(#p603a0b9f24)" d="M 253.750608 40.175857 
L 253.750608 40.175857 
" style="fill:none;stroke:#a42604;"/>
    <path clip-path="url(#p603a0b9f24)" d="M 249.878268 45.571449 
L 249.878268 40.31706 
" style="fill:none;stroke:#a42604;"/>
    <path clip-path="url(#p603a0b9f24)" d="M 246.82464 45.372723 
L 246.82464 45.372723 
" style="fill:none;stroke:#a42604;"/>
    <path clip-path="url(#p603a0b9f24)" d="M 244.261872 47.499617 
L 244.261872 47.499617 
" style="fill:none;stroke:#a42604;"/>
    <path clip-path="url(#p603a0b9f24)" d="M 241.4241 49.59022 
L 241.4241 49.59022 
" style="fill:none;stroke:#a42604;"/>
    <path clip-path="url(#p603a0b9f24)" d="M 238.30308 51.656284 
L 238.30308 51.656284 
" style="fill:none;stroke:#a42604;"/>
    <path clip-path="url(#p603a0b9f24)" d="M 235.46538 53.579932 
L 235.46538 53.579932 
" style="fill:none;stroke:#a42604;"/>
    <path clip-path="url(#p603a0b9f24)" d="M 232.52256 55.356635 
L 232.52256 55.356635 
" style="fill:none;stroke:#a42604;"/>
    <path clip-path="url(#p603a0b9f24)" d="M 231.120468 56.170252 
L 231.120468 56.170252 
" style="fill:none;stroke:#a42604;"/>
    <path clip-path="url(#p603a0b9f24)" d="M 227.775924 58.405908 
L 227.775924 58.405908 
" style="fill:none;stroke:#a42604;"/>
    <path clip-path="url(#p603a0b9f24)" d="M 224.89074 60.553213 
L 224.89074 60.553213 
" style="fill:none;stroke:#a42604;"/>
    <path clip-path="url(#p603a0b9f24)" d="M 222.01164 62.538724 
L 222.01164 62.538724 
" style="fill:none;stroke:#a42604;"/>
    <path clip-path="url(#p603a0b9f24)" d="M 219.190212 64.367199 
L 219.190212 64.367199 
" style="fill:none;stroke:#a42604;"/>
    <path clip-path="url(#p603a0b9f24)" d="M 216.654444 66.169529 
L 216.654444 66.169529 
" style="fill:none;stroke:#a42604;"/>
    <path clip-path="url(#p603a0b9f24)" d="M 214.250184 69.89701 
L 214.250184 65.907046 
" style="fill:none;stroke:#a42604;"/>
    <path clip-path="url(#p603a0b9f24)" d="M 212.06664 69.545029 
L 212.06664 69.545029 
" style="fill:none;stroke:#a42604;"/>
    <path clip-path="url(#p603a0b9f24)" d="M 210.018312 71.126627 
L 210.018312 71.126627 
" style="fill:none;stroke:#a42604;"/>
    <path clip-path="url(#p603a0b9f24)" d="M 209.021472 71.863475 
L 209.021472 71.863475 
" style="fill:none;stroke:#a42604;"/>
    <path clip-path="url(#p603a0b9f24)" d="M 205.087446 74.744761 
L 205.087446 74.744761 
" style="fill:none;stroke:#a42604;"/>
    <path clip-path="url(#p603a0b9f24)" d="M 201.401068 77.434383 
L 201.401068 77.434383 
" style="fill:none;stroke:#a42604;"/>
    <path clip-path="url(#p603a0b9f24)" d="M 198.113281 79.841637 
L 198.113281 79.841637 
" style="fill:none;stroke:#a42604;"/>
    <path clip-path="url(#p603a0b9f24)" d="M 194.930903 82.089276 
L 194.930903 82.089276 
" style="fill:none;stroke:#a42604;"/>
    <path clip-path="url(#p603a0b9f24)" d="M 190.127851 85.443907 
L 190.127851 85.443907 
" style="fill:none;stroke:#a42604;"/>
    <path clip-path="url(#p603a0b9f24)" d="M 186.904498 87.835452 
L 186.904498 87.835452 
" style="fill:none;stroke:#a42604;"/>
    <path clip-path="url(#p603a0b9f24)" d="M 183.978716 90.0644 
L 183.978716 90.0644 
" style="fill:none;stroke:#a42604;"/>
    <path clip-path="url(#p603a0b9f24)" d="M 181.337706 92.147033 
L 181.337706 92.147033 
" style="fill:none;stroke:#a42604;"/>
    <path clip-path="url(#p603a0b9f24)" d="M 178.858318 94.113223 
L 178.858318 94.113223 
" style="fill:none;stroke:#a42604;"/>
    <path clip-path="url(#p603a0b9f24)" d="M 176.469887 97.746124 
L 176.469887 94.162612 
" style="fill:none;stroke:#a42604;"/>
    <path clip-path="url(#p603a0b9f24)" d="M 174.244934 97.720177 
L 174.244934 97.720177 
" style="fill:none;stroke:#a42604;"/>
    <path clip-path="url(#p603a0b9f24)" d="M 172.272562 99.396145 
L 172.272562 99.396145 
" style="fill:none;stroke:#a42604;"/>
    <path clip-path="url(#p603a0b9f24)" d="M 169.304605 102.001257 
L 169.304605 102.001257 
" style="fill:none;stroke:#a42604;"/>
    <path clip-path="url(#p603a0b9f24)" d="M 166.562402 104.284099 
L 166.562402 104.284099 
" style="fill:none;stroke:#a42604;"/>
    <path clip-path="url(#p603a0b9f24)" d="M 163.909116 106.323675 
L 163.909116 106.323675 
" style="fill:none;stroke:#a42604;"/>
    <path clip-path="url(#p603a0b9f24)" d="M 161.485772 108.146072 
L 161.485772 108.146072 
" style="fill:none;stroke:#a42604;"/>
    <path clip-path="url(#p603a0b9f24)" d="M 159.119042 109.893821 
L 159.119042 109.893821 
" style="fill:none;stroke:#a42604;"/>
    <path clip-path="url(#p603a0b9f24)" d="M 156.984743 111.541008 
L 156.984743 111.541008 
" style="fill:none;stroke:#a42604;"/>
    <path clip-path="url(#p603a0b9f24)" d="M 155.131178 113.093423 
L 155.131178 113.093423 
" style="fill:none;stroke:#a42604;"/>
    <path clip-path="url(#p603a0b9f24)" d="M 153.353092 114.59676 
L 153.353092 114.59676 
" style="fill:none;stroke:#a42604;"/>
    <path clip-path="url(#p603a0b9f24)" d="M 151.683444 116.002803 
L 151.683444 116.002803 
" style="fill:none;stroke:#a42604;"/>
    <path clip-path="url(#p603a0b9f24)" d="M 150.138835 117.343371 
L 150.138835 117.343371 
" style="fill:none;stroke:#a42604;"/>
    <path clip-path="url(#p603a0b9f24)" d="M 148.684244 121.67919 
L 148.684244 115.474375 
" style="fill:none;stroke:#a42604;"/>
    <path clip-path="url(#p603a0b9f24)" d="M 146.214263 120.533053 
L 146.214263 120.533053 
" style="fill:none;stroke:#a42604;"/>
    <path clip-path="url(#p603a0b9f24)" d="M 142.87919 123.048897 
L 142.87919 123.048897 
" style="fill:none;stroke:#a42604;"/>
    <path clip-path="url(#p603a0b9f24)" d="M 139.850035 125.240349 
L 139.850035 125.240349 
" style="fill:none;stroke:#a42604;"/>
    <path clip-path="url(#p603a0b9f24)" d="M 136.955516 127.142497 
L 136.955516 127.142497 
" style="fill:none;stroke:#a42604;"/>
    <path clip-path="url(#p603a0b9f24)" d="M 134.246772 128.834805 
L 134.246772 128.834805 
" style="fill:none;stroke:#a42604;"/>
    <path clip-path="url(#p603a0b9f24)" d="M 131.724756 130.335849 
L 131.724756 130.335849 
" style="fill:none;stroke:#a42604;"/>
    <path clip-path="url(#p603a0b9f24)" d="M 129.303792 131.653599 
L 129.303792 131.653599 
" style="fill:none;stroke:#a42604;"/>
    <path clip-path="url(#p603a0b9f24)" d="M 127.0899 132.908912 
L 127.0899 132.908912 
" style="fill:none;stroke:#a42604;"/>
    <path clip-path="url(#p603a0b9f24)" d="M 124.99326 134.030524 
L 124.99326 134.030524 
" style="fill:none;stroke:#a42604;"/>
    <path clip-path="url(#p603a0b9f24)" d="M 122.902632 135.024971 
L 122.902632 135.024971 
" style="fill:none;stroke:#a42604;"/>
   </g>
   <g id="PolyCollection_1">
    <path clip-path="url(#p603a0b9f24)" d="M 262.8 -19.333333 
L 262.8 210 
L 288 210 
L 288 -19.333333 
L 288 -19.333333 
L 262.8 -19.333333 
z
" style="fill:#dddddd;"/>
   </g>
   <g id="line2d_1">
    <defs>
     <path d="M 0 -1.5 
L -1.5 1.5 
L 1.5 1.5 
z
" id="m09ea6cd2e0" style="stroke:#5fad41;stroke-linejoin:miter;stroke-width:0.75;"/>
    </defs>
    <g clip-path="url(#p603a0b9f24)">
     <use style="fill:#adda9c;stroke:#5fad41;stroke-linejoin:miter;stroke-width:0.75;" x="126.56268" xlink:href="#m09ea6cd2e0" y="131.428107"/>
     <use style="fill:#adda9c;stroke:#5fad41;stroke-linejoin:miter;stroke-width:0.75;" x="137.444112" xlink:href="#m09ea6cd2e0" y="124.771707"/>
     <use style="fill:#adda9c;stroke:#5fad41;stroke-linejoin:miter;stroke-width:0.75;" x="147.934152" xlink:href="#m09ea6cd2e0" y="116.907293"/>
     <use style="fill:#adda9c;stroke:#5fad41;stroke-linejoin:miter;stroke-width:0.75;" x="158.088132" xlink:href="#m09ea6cd2e0" y="108.013747"/>
     <use style="fill:#adda9c;stroke:#5fad41;stroke-linejoin:miter;stroke-width:0.75;" x="167.94648" xlink:href="#m09ea6cd2e0" y="98.441373"/>
     <use style="fill:#adda9c;stroke:#5fad41;stroke-linejoin:miter;stroke-width:0.75;" x="177.532452" xlink:href="#m09ea6cd2e0" y="88.65916"/>
     <use style="fill:#adda9c;stroke:#5fad41;stroke-linejoin:miter;stroke-width:0.75;" x="186.8472" xlink:href="#m09ea6cd2e0" y="79.148707"/>
     <use style="fill:#adda9c;stroke:#5fad41;stroke-linejoin:miter;stroke-width:0.75;" x="195.860412" xlink:href="#m09ea6cd2e0" y="70.313067"/>
     <use style="fill:#adda9c;stroke:#5fad41;stroke-linejoin:miter;stroke-width:0.75;" x="204.490764" xlink:href="#m09ea6cd2e0" y="62.428013"/>
     <use style="fill:#adda9c;stroke:#5fad41;stroke-linejoin:miter;stroke-width:0.75;" x="212.56632" xlink:href="#m09ea6cd2e0" y="55.6644"/>
     <use style="fill:#adda9c;stroke:#5fad41;stroke-linejoin:miter;stroke-width:0.75;" x="219.75012" xlink:href="#m09ea6cd2e0" y="50.162693"/>
     <use style="fill:#adda9c;stroke:#5fad41;stroke-linejoin:miter;stroke-width:0.75;" x="225.33696" xlink:href="#m09ea6cd2e0" y="46.20096"/>
     <use style="fill:#adda9c;stroke:#5fad41;stroke-linejoin:miter;stroke-width:0.75;" x="231.05664" xlink:href="#m09ea6cd2e0" y="42.403773"/>
     <use style="fill:#adda9c;stroke:#5fad41;stroke-linejoin:miter;stroke-width:0.75;" x="241.22196" xlink:href="#m09ea6cd2e0" y="36.152147"/>
     <use style="fill:#adda9c;stroke:#5fad41;stroke-linejoin:miter;stroke-width:0.75;" x="251.82144" xlink:href="#m09ea6cd2e0" y="30.0192"/>
     <use style="fill:#adda9c;stroke:#5fad41;stroke-linejoin:miter;stroke-width:0.75;" x="262.90296" xlink:href="#m09ea6cd2e0" y="23.338147"/>
     <use style="fill:#adda9c;stroke:#5fad41;stroke-linejoin:miter;stroke-width:0.75;" x="268.254" xlink:href="#m09ea6cd2e0" y="19.52548"/>
    </g>
   </g>
   <g id="line2d_2">
    <defs>
     <path d="M 0 1 
C 0.265203 1 0.51958 0.894634 0.707107 0.707107 
C 0.894634 0.51958 1 0.265203 1 0 
C 1 -0.265203 0.894634 -0.51958 0.707107 -0.707107 
C 0.51958 -0.894634 0.265203 -1 0 -1 
C -0.265203 -1 -0.51958 -0.894634 -0.707107 -0.707107 
C -0.894634 -0.51958 -1 -0.265203 -1 0 
C -1 0.265203 -0.894634 0.51958 -0.707107 0.707107 
C -0.51958 0.894634 -0.265203 1 0 1 
z
" id="m657d329f14" style="stroke:#a42604;stroke-width:0.75;"/>
    </defs>
    <g clip-path="url(#p603a0b9f24)">
     <use style="fill:#f94515;stroke:#a42604;stroke-width:0.75;" x="280.449252" xlink:href="#m657d329f14" y="7.876035"/>
     <use style="fill:#f94515;stroke:#a42604;stroke-width:0.75;" x="279.239076" xlink:href="#m657d329f14" y="9.390265"/>
     <use style="fill:#f94515;stroke:#a42604;stroke-width:0.75;" x="276.846516" xlink:href="#m657d329f14" y="12.774423"/>
     <use style="fill:#f94515;stroke:#a42604;stroke-width:0.75;" x="275.042412" xlink:href="#m657d329f14" y="15.3949"/>
     <use style="fill:#f94515;stroke:#a42604;stroke-width:0.75;" x="273.21372" xlink:href="#m657d329f14" y="18.276645"/>
     <use style="fill:#f94515;stroke:#a42604;stroke-width:0.75;" x="271.804284" xlink:href="#m657d329f14" y="20.849307"/>
     <use style="fill:#f94515;stroke:#a42604;stroke-width:0.75;" x="270.555804" xlink:href="#m657d329f14" y="23.219925"/>
     <use style="fill:#f94515;stroke:#a42604;stroke-width:0.75;" x="269.125524" xlink:href="#m657d329f14" y="25.804799"/>
     <use style="fill:#f94515;stroke:#a42604;stroke-width:0.75;" x="267.504696" xlink:href="#m657d329f14" y="28.267953"/>
     <use style="fill:#f94515;stroke:#a42604;stroke-width:0.75;" x="265.866624" xlink:href="#m657d329f14" y="30.302083"/>
     <use style="fill:#f94515;stroke:#a42604;stroke-width:0.75;" x="263.93994" xlink:href="#m657d329f14" y="32.327784"/>
     <use style="fill:#f94515;stroke:#a42604;stroke-width:0.75;" x="261.646416" xlink:href="#m657d329f14" y="34.401531"/>
     <use style="fill:#f94515;stroke:#a42604;stroke-width:0.75;" x="259.039512" xlink:href="#m657d329f14" y="36.359923"/>
     <use style="fill:#f94515;stroke:#a42604;stroke-width:0.75;" x="257.040936" xlink:href="#m657d329f14" y="37.805984"/>
     <use style="fill:#f94515;stroke:#a42604;stroke-width:0.75;" x="253.750608" xlink:href="#m657d329f14" y="40.175857"/>
     <use style="fill:#f94515;stroke:#a42604;stroke-width:0.75;" x="249.878268" xlink:href="#m657d329f14" y="42.944255"/>
     <use style="fill:#f94515;stroke:#a42604;stroke-width:0.75;" x="246.82464" xlink:href="#m657d329f14" y="45.372723"/>
     <use style="fill:#f94515;stroke:#a42604;stroke-width:0.75;" x="244.261872" xlink:href="#m657d329f14" y="47.499617"/>
     <use style="fill:#f94515;stroke:#a42604;stroke-width:0.75;" x="241.4241" xlink:href="#m657d329f14" y="49.59022"/>
     <use style="fill:#f94515;stroke:#a42604;stroke-width:0.75;" x="238.30308" xlink:href="#m657d329f14" y="51.656284"/>
     <use style="fill:#f94515;stroke:#a42604;stroke-width:0.75;" x="235.46538" xlink:href="#m657d329f14" y="53.579932"/>
     <use style="fill:#f94515;stroke:#a42604;stroke-width:0.75;" x="232.52256" xlink:href="#m657d329f14" y="55.356635"/>
     <use style="fill:#f94515;stroke:#a42604;stroke-width:0.75;" x="231.120468" xlink:href="#m657d329f14" y="56.170252"/>
     <use style="fill:#f94515;stroke:#a42604;stroke-width:0.75;" x="227.775924" xlink:href="#m657d329f14" y="58.405908"/>
     <use style="fill:#f94515;stroke:#a42604;stroke-width:0.75;" x="224.89074" xlink:href="#m657d329f14" y="60.553213"/>
     <use style="fill:#f94515;stroke:#a42604;stroke-width:0.75;" x="222.01164" xlink:href="#m657d329f14" y="62.538724"/>
     <use style="fill:#f94515;stroke:#a42604;stroke-width:0.75;" x="219.190212" xlink:href="#m657d329f14" y="64.367199"/>
     <use style="fill:#f94515;stroke:#a42604;stroke-width:0.75;" x="216.654444" xlink:href="#m657d329f14" y="66.169529"/>
     <use style="fill:#f94515;stroke:#a42604;stroke-width:0.75;" x="214.250184" xlink:href="#m657d329f14" y="67.902028"/>
     <use style="fill:#f94515;stroke:#a42604;stroke-width:0.75;" x="212.06664" xlink:href="#m657d329f14" y="69.545029"/>
     <use style="fill:#f94515;stroke:#a42604;stroke-width:0.75;" x="210.018312" xlink:href="#m657d329f14" y="71.126627"/>
     <use style="fill:#f94515;stroke:#a42604;stroke-width:0.75;" x="209.021472" xlink:href="#m657d329f14" y="71.863475"/>
     <use style="fill:#f94515;stroke:#a42604;stroke-width:0.75;" x="205.087446" xlink:href="#m657d329f14" y="74.744761"/>
     <use style="fill:#f94515;stroke:#a42604;stroke-width:0.75;" x="201.401068" xlink:href="#m657d329f14" y="77.434383"/>
     <use style="fill:#f94515;stroke:#a42604;stroke-width:0.75;" x="198.113281" xlink:href="#m657d329f14" y="79.841637"/>
     <use style="fill:#f94515;stroke:#a42604;stroke-width:0.75;" x="194.930903" xlink:href="#m657d329f14" y="82.089276"/>
     <use style="fill:#f94515;stroke:#a42604;stroke-width:0.75;" x="190.127851" xlink:href="#m657d329f14" y="85.443907"/>
     <use style="fill:#f94515;stroke:#a42604;stroke-width:0.75;" x="186.904498" xlink:href="#m657d329f14" y="87.835452"/>
     <use style="fill:#f94515;stroke:#a42604;stroke-width:0.75;" x="183.978716" xlink:href="#m657d329f14" y="90.0644"/>
     <use style="fill:#f94515;stroke:#a42604;stroke-width:0.75;" x="181.337706" xlink:href="#m657d329f14" y="92.147033"/>
     <use style="fill:#f94515;stroke:#a42604;stroke-width:0.75;" x="178.858318" xlink:href="#m657d329f14" y="94.113223"/>
     <use style="fill:#f94515;stroke:#a42604;stroke-width:0.75;" x="176.469887" xlink:href="#m657d329f14" y="95.954368"/>
     <use style="fill:#f94515;stroke:#a42604;stroke-width:0.75;" x="174.244934" xlink:href="#m657d329f14" y="97.720177"/>
     <use style="fill:#f94515;stroke:#a42604;stroke-width:0.75;" x="172.272562" xlink:href="#m657d329f14" y="99.396145"/>
     <use style="fill:#f94515;stroke:#a42604;stroke-width:0.75;" x="169.304605" xlink:href="#m657d329f14" y="102.001257"/>
     <use style="fill:#f94515;stroke:#a42604;stroke-width:0.75;" x="166.562402" xlink:href="#m657d329f14" y="104.284099"/>
     <use style="fill:#f94515;stroke:#a42604;stroke-width:0.75;" x="163.909116" xlink:href="#m657d329f14" y="106.323675"/>
     <use style="fill:#f94515;stroke:#a42604;stroke-width:0.75;" x="161.485772" xlink:href="#m657d329f14" y="108.146072"/>
     <use style="fill:#f94515;stroke:#a42604;stroke-width:0.75;" x="159.119042" xlink:href="#m657d329f14" y="109.893821"/>
     <use style="fill:#f94515;stroke:#a42604;stroke-width:0.75;" x="156.984743" xlink:href="#m657d329f14" y="111.541008"/>
     <use style="fill:#f94515;stroke:#a42604;stroke-width:0.75;" x="155.131178" xlink:href="#m657d329f14" y="113.093423"/>
     <use style="fill:#f94515;stroke:#a42604;stroke-width:0.75;" x="153.353092" xlink:href="#m657d329f14" y="114.59676"/>
     <use style="fill:#f94515;stroke:#a42604;stroke-width:0.75;" x="151.683444" xlink:href="#m657d329f14" y="116.002803"/>
     <use style="fill:#f94515;stroke:#a42604;stroke-width:0.75;" x="150.138835" xlink:href="#m657d329f14" y="117.343371"/>
     <use style="fill:#f94515;stroke:#a42604;stroke-width:0.75;" x="148.684244" xlink:href="#m657d329f14" y="118.576783"/>
     <use style="fill:#f94515;stroke:#a42604;stroke-width:0.75;" x="146.214263" xlink:href="#m657d329f14" y="120.533053"/>
     <use style="fill:#f94515;stroke:#a42604;stroke-width:0.75;" x="142.87919" xlink:href="#m657d329f14" y="123.048897"/>
     <use style="fill:#f94515;stroke:#a42604;stroke-width:0.75;" x="139.850035" xlink:href="#m657d329f14" y="125.240349"/>
     <use style="fill:#f94515;stroke:#a42604;stroke-width:0.75;" x="136.955516" xlink:href="#m657d329f14" y="127.142497"/>
     <use style="fill:#f94515;stroke:#a42604;stroke-width:0.75;" x="134.246772" xlink:href="#m657d329f14" y="128.834805"/>
     <use style="fill:#f94515;stroke:#a42604;stroke-width:0.75;" x="131.724756" xlink:href="#m657d329f14" y="130.335849"/>
     <use style="fill:#f94515;stroke:#a42604;stroke-width:0.75;" x="129.303792" xlink:href="#m657d329f14" y="131.653599"/>
     <use style="fill:#f94515;stroke:#a42604;stroke-width:0.75;" x="127.0899" xlink:href="#m657d329f14" y="132.908912"/>
     <use style="fill:#f94515;stroke:#a42604;stroke-width:0.75;" x="124.99326" xlink:href="#m657d329f14" y="134.030524"/>
     <use style="fill:#f94515;stroke:#a42604;stroke-width:0.75;" x="122.902632" xlink:href="#m657d329f14" y="135.024971"/>
    </g>
   </g>
   <g id="matplotlib.axis_1">
    <g id="xtick_1">
     <g id="line2d_3">
      <defs>
       <path d="M 0 0 
L 0 -2.5 
" id="me85e536378" style="stroke:#000000;stroke-width:0.8;"/>
      </defs>
      <g>
       <use style="stroke:#000000;stroke-width:0.8;" x="28.8" xlink:href="#me85e536378" y="158.4"/>
      </g>
     </g>
     <g id="line2d_4">
      <defs>
       <path d="M 0 0 
L 0 2.5 
" id="medcd518867" style="stroke:#000000;stroke-width:0.8;"/>
      </defs>
      <g>
       <use style="stroke:#000000;stroke-width:0.8;" x="28.8" xlink:href="#medcd518867" y="3.6"/>
      </g>
     </g>
     <g id="text_1">
      <!-- $-4$ -->
      <defs>
       <path d="M 62.09375 22 
L 6.40625 22 
L 6.40625 28.59375 
L 62.09375 28.59375 
z
" id="STIXGeneral-Regular-8722"/>
       <path d="M 48.90625 23.59375 
L 45.59375 16.5 
L 37.296875 16.5 
L 37.296875 0 
L 29.40625 0 
L 29.40625 16.5 
L 1.09375 16.5 
L 1.09375 23.296875 
L 32.296875 67.59375 
L 37.296875 67.59375 
L 37.296875 23.59375 
z
M 29.40625 23.59375 
L 29.40625 51 
L 10 23.59375 
z
" id="STIXGeneral-Regular-120806"/>
      </defs>
      <g transform="translate(24.04 167.97875)scale(0.08 -0.08)">
       <use transform="translate(0 0.40625)" xlink:href="#STIXGeneral-Regular-8722"/>
       <use transform="translate(68.499985 0.40625)" xlink:href="#STIXGeneral-Regular-120806"/>
      </g>
     </g>
    </g>
    <g id="xtick_2">
     <g id="line2d_5">
      <g>
       <use style="stroke:#000000;stroke-width:0.8;" x="64.8" xlink:href="#me85e536378" y="158.4"/>
      </g>
     </g>
     <g id="line2d_6">
      <g>
       <use style="stroke:#000000;stroke-width:0.8;" x="64.8" xlink:href="#medcd518867" y="3.6"/>
      </g>
     </g>
     <g id="text_2">
      <!-- $-3$ -->
      <defs>
       <path d="M 11.296875 49.203125 
L 4.203125 50.90625 
Q 6.40625 58.703125 11.5 63.140625 
Q 16.59375 67.59375 24.296875 67.59375 
Q 31.40625 67.59375 36.203125 63.09375 
Q 41 58.59375 41 51.90625 
Q 41 43 32.40625 37 
Q 38 35 41.046875 30.34375 
Q 44.09375 25.703125 44.09375 21 
Q 44.09375 11.296875 37.796875 5 
Q 31.40625 -1.40625 20.5 -1.40625 
Q 9.5 -1.40625 3.09375 5.59375 
L 7.796875 11.203125 
Q 12.90625 5.703125 20 5.703125 
Q 27.40625 5.703125 31.59375 9.296875 
Q 36.203125 13.203125 36.203125 19.09375 
Q 36.203125 24.296875 32.453125 27.796875 
Q 28.703125 31.296875 22.203125 32.203125 
L 15.796875 32.203125 
L 15.796875 34.296875 
L 20.59375 39.40625 
Q 25.09375 39.40625 29.09375 42.84375 
Q 33.09375 46.296875 33.09375 51.203125 
Q 33.09375 55.40625 30.4375 57.953125 
Q 27.796875 60.5 24 60.5 
Q 20 60.5 16.546875 57.640625 
Q 13.09375 54.796875 11.296875 49.203125 
z
" id="STIXGeneral-Regular-120805"/>
      </defs>
      <g transform="translate(60.04 167.97875)scale(0.08 -0.08)">
       <use transform="translate(0 0.40625)" xlink:href="#STIXGeneral-Regular-8722"/>
       <use transform="translate(68.499985 0.40625)" xlink:href="#STIXGeneral-Regular-120805"/>
      </g>
     </g>
    </g>
    <g id="xtick_3">
     <g id="line2d_7">
      <g>
       <use style="stroke:#000000;stroke-width:0.8;" x="100.8" xlink:href="#me85e536378" y="158.4"/>
      </g>
     </g>
     <g id="line2d_8">
      <g>
       <use style="stroke:#000000;stroke-width:0.8;" x="100.8" xlink:href="#medcd518867" y="3.6"/>
      </g>
     </g>
     <g id="text_3">
      <!-- $-2$ -->
      <defs>
       <path d="M 46.90625 7.09375 
L 44 0 
L 3.5 0 
L 3.5 2.09375 
L 21 23.5 
L 21 23.40625 
L 26.59375 30.203125 
Q 30.5 34.90625 32.09375 36.953125 
Q 33.703125 39 35.203125 41.953125 
Q 36.703125 44.90625 36.703125 47.5 
Q 36.703125 53.703125 33.34375 57.09375 
Q 30 60.5 24.203125 60.5 
Q 19.59375 60.5 15.75 56.703125 
Q 11.90625 52.90625 10.90625 45.90625 
L 3.703125 47.59375 
Q 5.296875 56.5 11.1875 62.046875 
Q 17.09375 67.59375 24.90625 67.59375 
Q 33.59375 67.59375 39.09375 62.1875 
Q 44.59375 56.796875 44.59375 49.09375 
Q 44.59375 43.5 42.5 39.453125 
Q 40.40625 35.40625 33.703125 27 
L 17.703125 7.09375 
z
" id="STIXGeneral-Regular-120804"/>
      </defs>
      <g transform="translate(96.04 167.97875)scale(0.08 -0.08)">
       <use transform="translate(0 0.40625)" xlink:href="#STIXGeneral-Regular-8722"/>
       <use transform="translate(68.499985 0.40625)" xlink:href="#STIXGeneral-Regular-120804"/>
      </g>
     </g>
    </g>
    <g id="xtick_4">
     <g id="line2d_9">
      <g>
       <use style="stroke:#000000;stroke-width:0.8;" x="136.8" xlink:href="#me85e536378" y="158.4"/>
      </g>
     </g>
     <g id="line2d_10">
      <g>
       <use style="stroke:#000000;stroke-width:0.8;" x="136.8" xlink:href="#medcd518867" y="3.6"/>
      </g>
     </g>
     <g id="text_4">
      <!-- $-1$ -->
      <defs>
       <path d="M 30.203125 0 
L 22.296875 0 
L 22.296875 57 
Q 20.09375 56 15.75 53.75 
Q 11.40625 51.5 10.796875 51.203125 
L 10.796875 58.5 
L 28.796875 67.703125 
L 30.203125 67.203125 
z
" id="STIXGeneral-Regular-120803"/>
      </defs>
      <g transform="translate(132.04 167.97875)scale(0.08 -0.08)">
       <use transform="translate(0 0.296875)" xlink:href="#STIXGeneral-Regular-8722"/>
       <use transform="translate(68.499985 0.296875)" xlink:href="#STIXGeneral-Regular-120803"/>
      </g>
     </g>
    </g>
    <g id="xtick_5">
     <g id="line2d_11">
      <g>
       <use style="stroke:#000000;stroke-width:0.8;" x="172.8" xlink:href="#me85e536378" y="158.4"/>
      </g>
     </g>
     <g id="line2d_12">
      <g>
       <use style="stroke:#000000;stroke-width:0.8;" x="172.8" xlink:href="#medcd518867" y="3.6"/>
      </g>
     </g>
     <g id="text_5">
      <!-- $0$ -->
      <defs>
       <path d="M 47.703125 33 
Q 47.703125 23.796875 45.546875 16.34375 
Q 43.40625 8.90625 38.09375 3.75 
Q 32.796875 -1.40625 25 -1.40625 
Q 18.796875 -1.40625 14.25 1.6875 
Q 9.703125 4.796875 7.203125 10.046875 
Q 4.703125 15.296875 3.5 21.140625 
Q 2.296875 27 2.296875 33.59375 
Q 2.296875 42.90625 4.59375 50.34375 
Q 6.90625 57.796875 12.296875 62.6875 
Q 17.703125 67.59375 25.40625 67.59375 
Q 35.203125 67.59375 41.453125 57.9375 
Q 47.703125 48.296875 47.703125 33 
z
M 39.796875 33 
Q 39.796875 45.203125 35.75 52.84375 
Q 31.703125 60.5 25.203125 60.5 
Q 17.796875 60.5 14 52.75 
Q 10.203125 45 10.203125 33.40625 
Q 10.203125 28.203125 10.953125 23.546875 
Q 11.703125 18.90625 13.34375 14.75 
Q 15 10.59375 18 8.140625 
Q 21 5.703125 25 5.703125 
Q 30.09375 5.703125 33.546875 9.796875 
Q 37 13.90625 38.390625 19.84375 
Q 39.796875 25.796875 39.796875 33 
z
" id="STIXGeneral-Regular-120802"/>
      </defs>
      <g transform="translate(170.8 167.97875)scale(0.08 -0.08)">
       <use transform="translate(0 0.40625)" xlink:href="#STIXGeneral-Regular-120802"/>
      </g>
     </g>
    </g>
    <g id="xtick_6">
     <g id="line2d_13">
      <g>
       <use style="stroke:#000000;stroke-width:0.8;" x="208.8" xlink:href="#me85e536378" y="158.4"/>
      </g>
     </g>
     <g id="line2d_14">
      <g>
       <use style="stroke:#000000;stroke-width:0.8;" x="208.8" xlink:href="#medcd518867" y="3.6"/>
      </g>
     </g>
     <g id="text_6">
      <!-- $1$ -->
      <g transform="translate(206.8 167.97875)scale(0.08 -0.08)">
       <use transform="translate(0 0.296875)" xlink:href="#STIXGeneral-Regular-120803"/>
      </g>
     </g>
    </g>
    <g id="xtick_7">
     <g id="line2d_15">
      <g>
       <use style="stroke:#000000;stroke-width:0.8;" x="244.8" xlink:href="#me85e536378" y="158.4"/>
      </g>
     </g>
     <g id="line2d_16">
      <g>
       <use style="stroke:#000000;stroke-width:0.8;" x="244.8" xlink:href="#medcd518867" y="3.6"/>
      </g>
     </g>
     <g id="text_7">
      <!-- $2$ -->
      <g transform="translate(242.8 167.97875)scale(0.08 -0.08)">
       <use transform="translate(0 0.40625)" xlink:href="#STIXGeneral-Regular-120804"/>
      </g>
     </g>
    </g>
    <g id="xtick_8">
     <g id="line2d_17">
      <g>
       <use style="stroke:#000000;stroke-width:0.8;" x="280.8" xlink:href="#me85e536378" y="158.4"/>
      </g>
     </g>
     <g id="line2d_18">
      <g>
       <use style="stroke:#000000;stroke-width:0.8;" x="280.8" xlink:href="#medcd518867" y="3.6"/>
      </g>
     </g>
     <g id="text_8">
      <!-- $3$ -->
      <g transform="translate(278.8 167.97875)scale(0.08 -0.08)">
       <use transform="translate(0 0.40625)" xlink:href="#STIXGeneral-Regular-120805"/>
      </g>
     </g>
    </g>
    <g id="xtick_9">
     <g id="line2d_19">
      <defs>
       <path d="M 0 0 
L 0 -1.5 
" id="m36829ff2b8" style="stroke:#000000;stroke-width:0.6;"/>
      </defs>
      <g>
       <use style="stroke:#000000;stroke-width:0.6;" x="46.8" xlink:href="#m36829ff2b8" y="158.4"/>
      </g>
     </g>
     <g id="line2d_20">
      <defs>
       <path d="M 0 0 
L 0 1.5 
" id="md951378abd" style="stroke:#000000;stroke-width:0.6;"/>
      </defs>
      <g>
       <use style="stroke:#000000;stroke-width:0.6;" x="46.8" xlink:href="#md951378abd" y="3.6"/>
      </g>
     </g>
    </g>
    <g id="xtick_10">
     <g id="line2d_21">
      <g>
       <use style="stroke:#000000;stroke-width:0.6;" x="82.8" xlink:href="#m36829ff2b8" y="158.4"/>
      </g>
     </g>
     <g id="line2d_22">
      <g>
       <use style="stroke:#000000;stroke-width:0.6;" x="82.8" xlink:href="#md951378abd" y="3.6"/>
      </g>
     </g>
    </g>
    <g id="xtick_11">
     <g id="line2d_23">
      <g>
       <use style="stroke:#000000;stroke-width:0.6;" x="118.8" xlink:href="#m36829ff2b8" y="158.4"/>
      </g>
     </g>
     <g id="line2d_24">
      <g>
       <use style="stroke:#000000;stroke-width:0.6;" x="118.8" xlink:href="#md951378abd" y="3.6"/>
      </g>
     </g>
    </g>
    <g id="xtick_12">
     <g id="line2d_25">
      <g>
       <use style="stroke:#000000;stroke-width:0.6;" x="154.8" xlink:href="#m36829ff2b8" y="158.4"/>
      </g>
     </g>
     <g id="line2d_26">
      <g>
       <use style="stroke:#000000;stroke-width:0.6;" x="154.8" xlink:href="#md951378abd" y="3.6"/>
      </g>
     </g>
    </g>
    <g id="xtick_13">
     <g id="line2d_27">
      <g>
       <use style="stroke:#000000;stroke-width:0.6;" x="190.8" xlink:href="#m36829ff2b8" y="158.4"/>
      </g>
     </g>
     <g id="line2d_28">
      <g>
       <use style="stroke:#000000;stroke-width:0.6;" x="190.8" xlink:href="#md951378abd" y="3.6"/>
      </g>
     </g>
    </g>
    <g id="xtick_14">
     <g id="line2d_29">
      <g>
       <use style="stroke:#000000;stroke-width:0.6;" x="226.8" xlink:href="#m36829ff2b8" y="158.4"/>
      </g>
     </g>
     <g id="line2d_30">
      <g>
       <use style="stroke:#000000;stroke-width:0.6;" x="226.8" xlink:href="#md951378abd" y="3.6"/>
      </g>
     </g>
    </g>
    <g id="xtick_15">
     <g id="line2d_31">
      <g>
       <use style="stroke:#000000;stroke-width:0.6;" x="262.8" xlink:href="#m36829ff2b8" y="158.4"/>
      </g>
     </g>
     <g id="line2d_32">
      <g>
       <use style="stroke:#000000;stroke-width:0.6;" x="262.8" xlink:href="#md951378abd" y="3.6"/>
      </g>
     </g>
    </g>
    <g id="text_9">
     <!-- $\beta\mu$ -->
     <defs>
      <path d="M 2.703125 -13.09375 
L 16 40.203125 
Q 18.796875 51.5 23.40625 57.90625 
Q 31.09375 68.296875 42.796875 68.296875 
Q 48.09375 68.296875 52 64.9375 
Q 55.90625 61.59375 55.90625 56.296875 
Q 55.90625 51.203125 53.203125 46.84375 
Q 50.5 42.5 45.703125 39.796875 
Q 49.09375 38.59375 51.140625 35.046875 
Q 53.203125 31.5 53.203125 27.09375 
Q 53.203125 14.59375 44.453125 6.59375 
Q 35.703125 -1.40625 25 -1.40625 
Q 18.296875 -1.40625 14.40625 2.203125 
L 10.703125 -12.59375 
Q 9.59375 -17 6.90625 -21.5 
L -1.203125 -21.5 
Q 1.59375 -17.40625 2.703125 -13.09375 
z
M 29.296875 37.5 
L 34.796875 42.90625 
Q 40.5 43.203125 44.140625 46.703125 
Q 47.796875 50.203125 47.796875 54.703125 
Q 47.796875 57.703125 45.84375 59.453125 
Q 43.90625 61.203125 40.5 61.203125 
Q 34.203125 61.203125 30.296875 55.84375 
Q 26.40625 50.5 24.59375 43.296875 
L 16.796875 11.796875 
Q 17.796875 9.09375 20.84375 7.390625 
Q 23.90625 5.703125 27.5 5.703125 
Q 34.296875 5.703125 39.640625 11.75 
Q 45 17.796875 45 25.703125 
Q 45 35.796875 28.90625 35.796875 
z
" id="STIXNonUnicode-Italic-57817"/>
      <path d="M 53.59375 45.296875 
L 45.5 12.796875 
Q 45 11 45 9.703125 
Q 45 6.09375 49.703125 6.09375 
L 49.296875 4.703125 
L 45.59375 -1 
Q 39.40625 -1 37.5 2.09375 
Q 36.59375 3.5 36.59375 6.40625 
L 21.59375 -1 
Q 16 -1 14.09375 1.5 
L 10.59375 -12.59375 
Q 9.296875 -17.90625 6.796875 -21.5 
L -0.90625 -21.5 
Q 2 -17 3.09375 -12.703125 
L 17.5 45.296875 
L 25.40625 45.296875 
L 17.90625 14.90625 
Q 17.40625 12.703125 17.40625 11.40625 
Q 17.40625 6.09375 23.90625 6.09375 
Q 26.703125 6.09375 31.34375 9.046875 
Q 36 12 38.5 16.09375 
L 45.703125 45.296875 
z
" id="STIXNonUnicode-Italic-57827"/>
     </defs>
     <g transform="translate(150.4 177.625)scale(0.08 -0.08)">
      <use transform="translate(0 0.703125)" xlink:href="#STIXNonUnicode-Italic-57817"/>
      <use transform="translate(53.499985 0.703125)" xlink:href="#STIXNonUnicode-Italic-57827"/>
     </g>
    </g>
   </g>
   <g id="matplotlib.axis_2">
    <g id="ytick_1">
     <g id="line2d_33">
      <defs>
       <path d="M 0 0 
L 2.5 0 
" id="mdc1e8776f8" style="stroke:#000000;stroke-width:0.8;"/>
      </defs>
      <g>
       <use style="stroke:#000000;stroke-width:0.8;" x="28.8" xlink:href="#mdc1e8776f8" y="152.666667"/>
      </g>
     </g>
     <g id="line2d_34">
      <defs>
       <path d="M 0 0 
L -2.5 0 
" id="m1ebaf3aa72" style="stroke:#000000;stroke-width:0.8;"/>
      </defs>
      <g>
       <use style="stroke:#000000;stroke-width:0.8;" x="280.8" xlink:href="#m1ebaf3aa72" y="152.666667"/>
      </g>
     </g>
     <g id="text_10">
      <!-- $1$ -->
      <g transform="translate(21.3 155.706042)scale(0.08 -0.08)">
       <use transform="translate(0 0.296875)" xlink:href="#STIXGeneral-Regular-120803"/>
      </g>
     </g>
    </g>
    <g id="ytick_2">
     <g id="line2d_35">
      <g>
       <use style="stroke:#000000;stroke-width:0.8;" x="28.8" xlink:href="#mdc1e8776f8" y="124"/>
      </g>
     </g>
     <g id="line2d_36">
      <g>
       <use style="stroke:#000000;stroke-width:0.8;" x="280.8" xlink:href="#m1ebaf3aa72" y="124"/>
      </g>
     </g>
     <g id="text_11">
      <!-- $1.5$ -->
      <defs>
       <path d="M 18.09375 4.296875 
Q 18.09375 2.09375 16.4375 0.5 
Q 14.796875 -1.09375 12.5 -1.09375 
Q 10.203125 -1.09375 8.59375 0.5 
Q 7 2.09375 7 4.390625 
Q 7 6.703125 8.640625 8.34375 
Q 10.296875 10 12.59375 10 
Q 14.796875 10 16.4375 8.296875 
Q 18.09375 6.59375 18.09375 4.296875 
z
" id="STIXGeneral-Regular-46"/>
       <path d="M 45.796875 67.59375 
L 42.59375 60.5 
L 24.90625 60.5 
L 18.5 47.796875 
Q 29.90625 46.203125 37.25 39.75 
Q 44.59375 33.296875 44.59375 22.59375 
Q 44.59375 12.703125 37.84375 5.640625 
Q 31.09375 -1.40625 21 -1.40625 
Q 10 -1.40625 3.59375 5.59375 
L 8.296875 11.203125 
Q 13.40625 5.703125 20.5 5.703125 
Q 27.90625 5.703125 32.296875 10.75 
Q 36.703125 15.796875 36.703125 22.59375 
Q 36.703125 30 30.09375 35.203125 
Q 23.40625 40.703125 9.40625 40.703125 
L 8 42.40625 
L 19.59375 67.59375 
z
" id="STIXGeneral-Regular-120807"/>
      </defs>
      <g transform="translate(15.3 127.039375)scale(0.08 -0.08)">
       <use transform="translate(0 0.296875)" xlink:href="#STIXGeneral-Regular-120803"/>
       <use transform="translate(49.999985 0.296875)" xlink:href="#STIXGeneral-Regular-46"/>
       <use transform="translate(74.999969 0.296875)" xlink:href="#STIXGeneral-Regular-120807"/>
      </g>
     </g>
    </g>
    <g id="ytick_3">
     <g id="line2d_37">
      <g>
       <use style="stroke:#000000;stroke-width:0.8;" x="28.8" xlink:href="#mdc1e8776f8" y="95.333333"/>
      </g>
     </g>
     <g id="line2d_38">
      <g>
       <use style="stroke:#000000;stroke-width:0.8;" x="280.8" xlink:href="#m1ebaf3aa72" y="95.333333"/>
      </g>
     </g>
     <g id="text_12">
      <!-- $2$ -->
      <g transform="translate(21.3 98.372708)scale(0.08 -0.08)">
       <use transform="translate(0 0.40625)" xlink:href="#STIXGeneral-Regular-120804"/>
      </g>
     </g>
    </g>
    <g id="ytick_4">
     <g id="line2d_39">
      <g>
       <use style="stroke:#000000;stroke-width:0.8;" x="28.8" xlink:href="#mdc1e8776f8" y="66.666667"/>
      </g>
     </g>
     <g id="line2d_40">
      <g>
       <use style="stroke:#000000;stroke-width:0.8;" x="280.8" xlink:href="#m1ebaf3aa72" y="66.666667"/>
      </g>
     </g>
     <g id="text_13">
      <!-- $2.5$ -->
      <g transform="translate(15.3 69.706042)scale(0.08 -0.08)">
       <use transform="translate(0 0.40625)" xlink:href="#STIXGeneral-Regular-120804"/>
       <use transform="translate(49.999985 0.40625)" xlink:href="#STIXGeneral-Regular-46"/>
       <use transform="translate(74.999969 0.40625)" xlink:href="#STIXGeneral-Regular-120807"/>
      </g>
     </g>
    </g>
    <g id="ytick_5">
     <g id="line2d_41">
      <g>
       <use style="stroke:#000000;stroke-width:0.8;" x="28.8" xlink:href="#mdc1e8776f8" y="38"/>
      </g>
     </g>
     <g id="line2d_42">
      <g>
       <use style="stroke:#000000;stroke-width:0.8;" x="280.8" xlink:href="#m1ebaf3aa72" y="38"/>
      </g>
     </g>
     <g id="text_14">
      <!-- $3$ -->
      <g transform="translate(21.3 41.039375)scale(0.08 -0.08)">
       <use transform="translate(0 0.40625)" xlink:href="#STIXGeneral-Regular-120805"/>
      </g>
     </g>
    </g>
    <g id="ytick_6">
     <g id="line2d_43">
      <g>
       <use style="stroke:#000000;stroke-width:0.8;" x="28.8" xlink:href="#mdc1e8776f8" y="9.333333"/>
      </g>
     </g>
     <g id="line2d_44">
      <g>
       <use style="stroke:#000000;stroke-width:0.8;" x="280.8" xlink:href="#m1ebaf3aa72" y="9.333333"/>
      </g>
     </g>
     <g id="text_15">
      <!-- $3.5$ -->
      <g transform="translate(15.3 12.372708)scale(0.08 -0.08)">
       <use transform="translate(0 0.40625)" xlink:href="#STIXGeneral-Regular-120805"/>
       <use transform="translate(49.999985 0.40625)" xlink:href="#STIXGeneral-Regular-46"/>
       <use transform="translate(74.999969 0.40625)" xlink:href="#STIXGeneral-Regular-120807"/>
      </g>
     </g>
    </g>
    <g id="ytick_7">
     <g id="line2d_45">
      <defs>
       <path d="M 0 0 
L 1.5 0 
" id="m72c9fddc17" style="stroke:#000000;stroke-width:0.6;"/>
      </defs>
      <g>
       <use style="stroke:#000000;stroke-width:0.6;" x="28.8" xlink:href="#m72c9fddc17" y="138.333333"/>
      </g>
     </g>
     <g id="line2d_46">
      <defs>
       <path d="M 0 0 
L -1.5 0 
" id="mfbf8139d53" style="stroke:#000000;stroke-width:0.6;"/>
      </defs>
      <g>
       <use style="stroke:#000000;stroke-width:0.6;" x="280.8" xlink:href="#mfbf8139d53" y="138.333333"/>
      </g>
     </g>
    </g>
    <g id="ytick_8">
     <g id="line2d_47">
      <g>
       <use style="stroke:#000000;stroke-width:0.6;" x="28.8" xlink:href="#m72c9fddc17" y="109.666667"/>
      </g>
     </g>
     <g id="line2d_48">
      <g>
       <use style="stroke:#000000;stroke-width:0.6;" x="280.8" xlink:href="#mfbf8139d53" y="109.666667"/>
      </g>
     </g>
    </g>
    <g id="ytick_9">
     <g id="line2d_49">
      <g>
       <use style="stroke:#000000;stroke-width:0.6;" x="28.8" xlink:href="#m72c9fddc17" y="81"/>
      </g>
     </g>
     <g id="line2d_50">
      <g>
       <use style="stroke:#000000;stroke-width:0.6;" x="280.8" xlink:href="#mfbf8139d53" y="81"/>
      </g>
     </g>
    </g>
    <g id="ytick_10">
     <g id="line2d_51">
      <g>
       <use style="stroke:#000000;stroke-width:0.6;" x="28.8" xlink:href="#m72c9fddc17" y="52.333333"/>
      </g>
     </g>
     <g id="line2d_52">
      <g>
       <use style="stroke:#000000;stroke-width:0.6;" x="280.8" xlink:href="#mfbf8139d53" y="52.333333"/>
      </g>
     </g>
    </g>
    <g id="ytick_11">
     <g id="line2d_53">
      <g>
       <use style="stroke:#000000;stroke-width:0.6;" x="28.8" xlink:href="#m72c9fddc17" y="23.666667"/>
      </g>
     </g>
     <g id="line2d_54">
      <g>
       <use style="stroke:#000000;stroke-width:0.6;" x="280.8" xlink:href="#mfbf8139d53" y="23.666667"/>
      </g>
     </g>
    </g>
    <g id="text_16">
     <!-- $n/n_0$ -->
     <defs>
      <path d="M 25.09375 45.90625 
L 23.90625 40.203125 
Q 28.40625 43.796875 32.203125 45.046875 
Q 36 46.296875 40.5 46.296875 
Q 45.203125 46.296875 48.09375 43.75 
Q 51 41.203125 51 37.203125 
Q 51 34.796875 50.40625 32.09375 
L 42.40625 0 
L 34.5 0 
L 42 30.40625 
Q 42.5 32.59375 42.5 33.90625 
Q 42.5 39.203125 36 39.203125 
Q 33.09375 39.203125 28.640625 36.703125 
Q 24.203125 34.203125 21.703125 30.203125 
L 14.203125 0 
L 6.296875 0 
L 17.203125 44 
L 24.296875 46.40625 
z
" id="STIXGeneral-Italic-120367"/>
      <path d="M 28.703125 67.59375 
L 5.90625 -1.40625 
L -0.90625 -1.40625 
L 22 67.59375 
z
" id="STIXGeneral-Regular-47"/>
     </defs>
     <g transform="translate(11.63625 87.52)rotate(-90)scale(0.08 -0.08)">
      <use transform="translate(0 0.40625)" xlink:href="#STIXGeneral-Italic-120367"/>
      <use transform="translate(48.699997 0.40625)" xlink:href="#STIXGeneral-Regular-47"/>
      <use transform="translate(76.499985 0.40625)" xlink:href="#STIXGeneral-Italic-120367"/>
      <use transform="translate(125.199982 -13.182812)scale(0.7)" xlink:href="#STIXGeneral-Regular-120802"/>
     </g>
    </g>
   </g>
   <g id="LineCollection_2">
    <path clip-path="url(#p603a0b9f24)" d="M 262.414584 46.571964 
L 262.414584 39.90146 
" style="fill:none;stroke:#fa9f42;"/>
    <path clip-path="url(#p603a0b9f24)" d="M 259.498152 47.887821 
L 259.498152 41.270981 
" style="fill:none;stroke:#fa9f42;"/>
    <path clip-path="url(#p603a0b9f24)" d="M 254.994624 49.798168 
L 254.994624 43.259301 
" style="fill:none;stroke:#fa9f42;"/>
    <path clip-path="url(#p603a0b9f24)" d="M 251.78886 51.086104 
L 251.78886 44.599869 
" style="fill:none;stroke:#fa9f42;"/>
    <path clip-path="url(#p603a0b9f24)" d="M 244.747188 53.790403 
L 244.747188 47.414477 
" style="fill:none;stroke:#fa9f42;"/>
    <path clip-path="url(#p603a0b9f24)" d="M 242.105256 54.789608 
L 242.105256 48.454504 
" style="fill:none;stroke:#fa9f42;"/>
    <path clip-path="url(#p603a0b9f24)" d="M 235.85796 57.205291 
L 235.85796 50.9688 
" style="fill:none;stroke:#fa9f42;"/>
    <path clip-path="url(#p603a0b9f24)" d="M 231.940656 58.786945 
L 231.940656 52.615012 
" style="fill:none;stroke:#fa9f42;"/>
    <path clip-path="url(#p603a0b9f24)" d="M 227.370312 60.739432 
L 227.370312 54.647192 
" style="fill:none;stroke:#fa9f42;"/>
    <path clip-path="url(#p603a0b9f24)" d="M 221.864076 63.332561 
L 221.864076 57.346159 
" style="fill:none;stroke:#fa9f42;"/>
    <path clip-path="url(#p603a0b9f24)" d="M 212.184036 68.668116 
L 212.184036 62.899465 
" style="fill:none;stroke:#fa9f42;"/>
    <path clip-path="url(#p603a0b9f24)" d="M 200.062908 77.112972 
L 200.062908 71.689009 
" style="fill:none;stroke:#fa9f42;"/>
    <path clip-path="url(#p603a0b9f24)" d="M 199.219104 77.755048 
L 199.219104 72.357344 
" style="fill:none;stroke:#fa9f42;"/>
    <path clip-path="url(#p603a0b9f24)" d="M 196.35048 79.950743 
L 196.35048 74.642593 
" style="fill:none;stroke:#fa9f42;"/>
    <path clip-path="url(#p603a0b9f24)" d="M 190.775232 84.134987 
L 190.775232 78.997691 
" style="fill:none;stroke:#fa9f42;"/>
    <path clip-path="url(#p603a0b9f24)" d="M 189.103824 85.324252 
L 189.103824 80.23546 
" style="fill:none;stroke:#fa9f42;"/>
    <path clip-path="url(#p603a0b9f24)" d="M 181.669176 89.850088 
L 181.669176 84.946024 
" style="fill:none;stroke:#fa9f42;"/>
   </g>
   <g id="line2d_55">
    <path clip-path="url(#p603a0b9f24)" d="M 28.8 151.191354 
L 31.555102 151.074872 
L 34.310204 150.949271 
L 37.065306 150.81385 
L 39.820408 150.667858 
L 42.57551 150.510488 
L 45.330612 150.340876 
L 48.085714 150.158097 
L 50.840816 149.961158 
L 53.595918 149.748999 
L 56.35102 149.520489 
L 59.106122 149.274417 
L 61.861224 149.009497 
L 64.616327 148.724357 
L 67.371429 148.417539 
L 70.126531 148.0875 
L 72.881633 147.732605 
L 75.636735 147.351128 
L 78.391837 146.941252 
L 81.146939 146.501075 
L 83.902041 146.028606 
L 86.657143 145.521777 
L 89.412245 144.978452 
L 92.167347 144.396437 
L 94.922449 143.773502 
L 97.677551 143.107402 
L 100.432653 142.395911 
L 103.187755 141.636862 
L 105.942857 140.828198 
L 108.697959 139.968042 
L 111.453061 139.054776 
L 114.208163 138.087148 
L 116.963265 137.064404 
L 119.718367 135.986446 
L 122.473469 134.854034 
L 125.228571 133.669033 
L 127.983673 132.43472 
L 130.738776 131.156152 
L 133.493878 129.840628 
L 136.24898 128.498249 
L 139.004082 127.142607 
L 141.759184 125.79162 
L 144.514286 124.468556 
L 147.269388 123.203286 
L 150.02449 122.033801 
L 152.779592 121.008071 
L 155.534694 120.186301 
L 158.289796 119.643684 
L 161.044898 119.47375 
L 163.8 119.792443 
" style="fill:none;stroke:#114b5f;stroke-dasharray:3.7,1.6;stroke-dashoffset:0;"/>
   </g>
   <g id="line2d_56">
    <defs>
     <path d="M -0 2.12132 
L 1.272792 0 
L 0 -2.12132 
L -1.272792 -0 
z
" id="m61a3a83d69" style="stroke:#fa9f42;stroke-linejoin:miter;stroke-width:0.75;"/>
    </defs>
    <g clip-path="url(#p603a0b9f24)">
     <use style="fill:#fbb874;stroke:#fa9f42;stroke-linejoin:miter;stroke-width:0.75;" x="262.414584" xlink:href="#m61a3a83d69" y="43.236712"/>
     <use style="fill:#fbb874;stroke:#fa9f42;stroke-linejoin:miter;stroke-width:0.75;" x="259.498152" xlink:href="#m61a3a83d69" y="44.579401"/>
     <use style="fill:#fbb874;stroke:#fa9f42;stroke-linejoin:miter;stroke-width:0.75;" x="254.994624" xlink:href="#m61a3a83d69" y="46.528735"/>
     <use style="fill:#fbb874;stroke:#fa9f42;stroke-linejoin:miter;stroke-width:0.75;" x="251.78886" xlink:href="#m61a3a83d69" y="47.842987"/>
     <use style="fill:#fbb874;stroke:#fa9f42;stroke-linejoin:miter;stroke-width:0.75;" x="244.747188" xlink:href="#m61a3a83d69" y="50.60244"/>
     <use style="fill:#fbb874;stroke:#fa9f42;stroke-linejoin:miter;stroke-width:0.75;" x="242.105256" xlink:href="#m61a3a83d69" y="51.622056"/>
     <use style="fill:#fbb874;stroke:#fa9f42;stroke-linejoin:miter;stroke-width:0.75;" x="235.85796" xlink:href="#m61a3a83d69" y="54.087045"/>
     <use style="fill:#fbb874;stroke:#fa9f42;stroke-linejoin:miter;stroke-width:0.75;" x="231.940656" xlink:href="#m61a3a83d69" y="55.700979"/>
     <use style="fill:#fbb874;stroke:#fa9f42;stroke-linejoin:miter;stroke-width:0.75;" x="227.370312" xlink:href="#m61a3a83d69" y="57.693312"/>
     <use style="fill:#fbb874;stroke:#fa9f42;stroke-linejoin:miter;stroke-width:0.75;" x="221.864076" xlink:href="#m61a3a83d69" y="60.33936"/>
     <use style="fill:#fbb874;stroke:#fa9f42;stroke-linejoin:miter;stroke-width:0.75;" x="212.184036" xlink:href="#m61a3a83d69" y="65.783791"/>
     <use style="fill:#fbb874;stroke:#fa9f42;stroke-linejoin:miter;stroke-width:0.75;" x="200.062908" xlink:href="#m61a3a83d69" y="74.400991"/>
     <use style="fill:#fbb874;stroke:#fa9f42;stroke-linejoin:miter;stroke-width:0.75;" x="199.219104" xlink:href="#m61a3a83d69" y="75.056196"/>
     <use style="fill:#fbb874;stroke:#fa9f42;stroke-linejoin:miter;stroke-width:0.75;" x="196.35048" xlink:href="#m61a3a83d69" y="77.296668"/>
     <use style="fill:#fbb874;stroke:#fa9f42;stroke-linejoin:miter;stroke-width:0.75;" x="190.775232" xlink:href="#m61a3a83d69" y="81.566339"/>
     <use style="fill:#fbb874;stroke:#fa9f42;stroke-linejoin:miter;stroke-width:0.75;" x="189.103824" xlink:href="#m61a3a83d69" y="82.779856"/>
     <use style="fill:#fbb874;stroke:#fa9f42;stroke-linejoin:miter;stroke-width:0.75;" x="181.669176" xlink:href="#m61a3a83d69" y="87.398056"/>
    </g>
   </g>
   <g id="patch_3">
    <path d="M 28.8 158.4 
L 28.8 3.6 
" style="fill:none;stroke:#000000;stroke-linecap:square;stroke-linejoin:miter;stroke-width:0.8;"/>
   </g>
   <g id="patch_4">
    <path d="M 280.8 158.4 
L 280.8 3.6 
" style="fill:none;stroke:#000000;stroke-linecap:square;stroke-linejoin:miter;stroke-width:0.8;"/>
   </g>
   <g id="patch_5">
    <path d="M 28.8 158.4 
L 280.8 158.4 
" style="fill:none;stroke:#000000;stroke-linecap:square;stroke-linejoin:miter;stroke-width:0.8;"/>
   </g>
   <g id="patch_6">
    <path d="M 28.8 3.6 
L 280.8 3.6 
" style="fill:none;stroke:#000000;stroke-linecap:square;stroke-linejoin:miter;stroke-width:0.8;"/>
   </g>
   <g id="LineCollection_3">
    <path clip-path="url(#p603a0b9f24)" d="M 118.8 137.600304 
L 118.8 134.94614 
" style="fill:none;stroke:#0d153a;"/>
    <path clip-path="url(#p603a0b9f24)" d="M 136.8 128.896027 
L 136.8 125.922766 
" style="fill:none;stroke:#0d153a;"/>
    <path clip-path="url(#p603a0b9f24)" d="M 140.4 126.821998 
L 140.4 123.772703 
" style="fill:none;stroke:#0d153a;"/>
    <path clip-path="url(#p603a0b9f24)" d="M 142.2 125.693874 
L 142.2 122.603222 
" style="fill:none;stroke:#0d153a;"/>
    <path clip-path="url(#p603a0b9f24)" d="M 154.8 117.206655 
L 154.8 113.804863 
" style="fill:none;stroke:#0d153a;"/>
    <path clip-path="url(#p603a0b9f24)" d="M 172.8 103.121604 
L 172.8 99.203455 
" style="fill:none;stroke:#0d153a;"/>
    <path clip-path="url(#p603a0b9f24)" d="M 190.8 89.527963 
L 190.8 83.34991 
" style="fill:none;stroke:#0d153a;"/>
    <path clip-path="url(#p603a0b9f24)" d="M 208.8 76.621851 
L 208.8 69.781946 
" style="fill:none;stroke:#0d153a;"/>
    <path clip-path="url(#p603a0b9f24)" d="M 226.8 65.614878 
L 226.8 58.210512 
" style="fill:none;stroke:#0d153a;"/>
    <path clip-path="url(#p603a0b9f24)" d="M 244.8 57.649545 
L 244.8 46.925083 
" style="fill:none;stroke:#0d153a;"/>
    <path clip-path="url(#p603a0b9f24)" d="M 253.8 55.567944 
L 253.8 42.026929 
" style="fill:none;stroke:#0d153a;"/>
   </g>
   <g id="line2d_57">
    <defs>
     <path d="M -0 2.12132 
L 1.272792 0 
L 0 -2.12132 
L -1.272792 -0 
z
" id="me43f317445" style="stroke:#0d153a;stroke-linejoin:miter;stroke-width:0.75;"/>
    </defs>
    <g clip-path="url(#p603a0b9f24)">
     <use style="fill:#20338d;stroke:#0d153a;stroke-linejoin:miter;stroke-width:0.75;" x="118.8" xlink:href="#me43f317445" y="136.273222"/>
     <use style="fill:#20338d;stroke:#0d153a;stroke-linejoin:miter;stroke-width:0.75;" x="136.8" xlink:href="#me43f317445" y="127.409397"/>
     <use style="fill:#20338d;stroke:#0d153a;stroke-linejoin:miter;stroke-width:0.75;" x="140.4" xlink:href="#me43f317445" y="125.29735"/>
     <use style="fill:#20338d;stroke:#0d153a;stroke-linejoin:miter;stroke-width:0.75;" x="142.2" xlink:href="#me43f317445" y="124.148548"/>
     <use style="fill:#20338d;stroke:#0d153a;stroke-linejoin:miter;stroke-width:0.75;" x="154.8" xlink:href="#me43f317445" y="115.505759"/>
     <use style="fill:#20338d;stroke:#0d153a;stroke-linejoin:miter;stroke-width:0.75;" x="172.8" xlink:href="#me43f317445" y="101.16253"/>
     <use style="fill:#20338d;stroke:#0d153a;stroke-linejoin:miter;stroke-width:0.75;" x="190.8" xlink:href="#me43f317445" y="86.438937"/>
     <use style="fill:#20338d;stroke:#0d153a;stroke-linejoin:miter;stroke-width:0.75;" x="208.8" xlink:href="#me43f317445" y="73.201899"/>
     <use style="fill:#20338d;stroke:#0d153a;stroke-linejoin:miter;stroke-width:0.75;" x="226.8" xlink:href="#me43f317445" y="61.912695"/>
     <use style="fill:#20338d;stroke:#0d153a;stroke-linejoin:miter;stroke-width:0.75;" x="244.8" xlink:href="#me43f317445" y="52.287314"/>
     <use style="fill:#20338d;stroke:#0d153a;stroke-linejoin:miter;stroke-width:0.75;" x="253.8" xlink:href="#me43f317445" y="48.797436"/>
    </g>
   </g>
   <g id="legend_1">
    <g id="LineCollection_4">
     <path d="M 44 18.07875 
L 44 10.07875 
" style="fill:none;stroke:#114b5f;"/>
    </g>
    <g id="line2d_58"/>
    <g id="line2d_59">
     <defs>
      <path d="M -1.5 1.5 
L 1.5 1.5 
L 1.5 -1.5 
L -1.5 -1.5 
z
" id="m9a9d4f2269" style="stroke:#114b5f;stroke-linejoin:miter;stroke-width:0.75;"/>
     </defs>
     <g>
      <use style="fill:#2faeda;stroke:#114b5f;stroke-linejoin:miter;stroke-width:0.75;" x="44" xlink:href="#m9a9d4f2269" y="14.07875"/>
     </g>
    </g>
    <g id="text_17">
     <!-- CL -->
     <defs>
      <path d="M 64.40625 67.28125 
L 64.40625 56.890625 
Q 59.421875 61.53125 53.78125 63.8125 
Q 48.140625 66.109375 41.796875 66.109375 
Q 29.296875 66.109375 22.65625 58.46875 
Q 16.015625 50.828125 16.015625 36.375 
Q 16.015625 21.96875 22.65625 14.328125 
Q 29.296875 6.6875 41.796875 6.6875 
Q 48.140625 6.6875 53.78125 8.984375 
Q 59.421875 11.28125 64.40625 15.921875 
L 64.40625 5.609375 
Q 59.234375 2.09375 53.4375 0.328125 
Q 47.65625 -1.421875 41.21875 -1.421875 
Q 24.65625 -1.421875 15.125 8.703125 
Q 5.609375 18.84375 5.609375 36.375 
Q 5.609375 53.953125 15.125 64.078125 
Q 24.65625 74.21875 41.21875 74.21875 
Q 47.75 74.21875 53.53125 72.484375 
Q 59.328125 70.75 64.40625 67.28125 
z
" id="DejaVuSans-67"/>
      <path d="M 9.8125 72.90625 
L 19.671875 72.90625 
L 19.671875 8.296875 
L 55.171875 8.296875 
L 55.171875 0 
L 9.8125 0 
z
" id="DejaVuSans-76"/>
     </defs>
     <g transform="translate(58.4 16.87875)scale(0.08 -0.08)">
      <use xlink:href="#DejaVuSans-67"/>
      <use x="69.824219" xlink:href="#DejaVuSans-76"/>
     </g>
    </g>
    <g id="LineCollection_5">
     <path d="M 44 29.82125 
L 44 21.82125 
" style="fill:none;stroke:#fa9f42;"/>
    </g>
    <g id="line2d_60"/>
    <g id="line2d_61">
     <g>
      <use style="fill:#fbb874;stroke:#fa9f42;stroke-linejoin:miter;stroke-width:0.75;" x="44" xlink:href="#m61a3a83d69" y="25.82125"/>
     </g>
    </g>
    <g id="text_18">
     <!-- DHMC -->
     <defs>
      <path d="M 19.671875 64.796875 
L 19.671875 8.109375 
L 31.59375 8.109375 
Q 46.6875 8.109375 53.6875 14.9375 
Q 60.6875 21.78125 60.6875 36.53125 
Q 60.6875 51.171875 53.6875 57.984375 
Q 46.6875 64.796875 31.59375 64.796875 
z
M 9.8125 72.90625 
L 30.078125 72.90625 
Q 51.265625 72.90625 61.171875 64.09375 
Q 71.09375 55.28125 71.09375 36.53125 
Q 71.09375 17.671875 61.125 8.828125 
Q 51.171875 0 30.078125 0 
L 9.8125 0 
z
" id="DejaVuSans-68"/>
      <path d="M 9.8125 72.90625 
L 19.671875 72.90625 
L 19.671875 43.015625 
L 55.515625 43.015625 
L 55.515625 72.90625 
L 65.375 72.90625 
L 65.375 0 
L 55.515625 0 
L 55.515625 34.71875 
L 19.671875 34.71875 
L 19.671875 0 
L 9.8125 0 
z
" id="DejaVuSans-72"/>
      <path d="M 9.8125 72.90625 
L 24.515625 72.90625 
L 43.109375 23.296875 
L 61.8125 72.90625 
L 76.515625 72.90625 
L 76.515625 0 
L 66.890625 0 
L 66.890625 64.015625 
L 48.09375 14.015625 
L 38.1875 14.015625 
L 19.390625 64.015625 
L 19.390625 0 
L 9.8125 0 
z
" id="DejaVuSans-77"/>
     </defs>
     <g transform="translate(58.4 28.62125)scale(0.08 -0.08)">
      <use xlink:href="#DejaVuSans-68"/>
      <use x="77.001953" xlink:href="#DejaVuSans-72"/>
      <use x="152.197266" xlink:href="#DejaVuSans-77"/>
      <use x="238.476562" xlink:href="#DejaVuSans-67"/>
     </g>
    </g>
    <g id="LineCollection_6">
     <path d="M 44 41.56375 
L 44 33.56375 
" style="fill:none;stroke:#0d153a;"/>
    </g>
    <g id="line2d_62"/>
    <g id="line2d_63">
     <g>
      <use style="fill:#20338d;stroke:#0d153a;stroke-linejoin:miter;stroke-width:0.75;" x="44" xlink:href="#me43f317445" y="37.56375"/>
     </g>
    </g>
    <g id="text_19">
     <!-- BDMC -->
     <defs>
      <path d="M 19.671875 34.8125 
L 19.671875 8.109375 
L 35.5 8.109375 
Q 43.453125 8.109375 47.28125 11.40625 
Q 51.125 14.703125 51.125 21.484375 
Q 51.125 28.328125 47.28125 31.5625 
Q 43.453125 34.8125 35.5 34.8125 
z
M 19.671875 64.796875 
L 19.671875 42.828125 
L 34.28125 42.828125 
Q 41.5 42.828125 45.03125 45.53125 
Q 48.578125 48.25 48.578125 53.8125 
Q 48.578125 59.328125 45.03125 62.0625 
Q 41.5 64.796875 34.28125 64.796875 
z
M 9.8125 72.90625 
L 35.015625 72.90625 
Q 46.296875 72.90625 52.390625 68.21875 
Q 58.5 63.53125 58.5 54.890625 
Q 58.5 48.1875 55.375 44.234375 
Q 52.25 40.28125 46.1875 39.3125 
Q 53.46875 37.75 57.5 32.78125 
Q 61.53125 27.828125 61.53125 20.40625 
Q 61.53125 10.640625 54.890625 5.3125 
Q 48.25 0 35.984375 0 
L 9.8125 0 
z
" id="DejaVuSans-66"/>
     </defs>
     <g transform="translate(58.4 40.36375)scale(0.08 -0.08)">
      <use xlink:href="#DejaVuSans-66"/>
      <use x="68.603516" xlink:href="#DejaVuSans-68"/>
      <use x="145.605469" xlink:href="#DejaVuSans-77"/>
      <use x="231.884766" xlink:href="#DejaVuSans-67"/>
     </g>
    </g>
    <g id="line2d_64"/>
    <g id="line2d_65">
     <g>
      <use style="fill:#adda9c;stroke:#5fad41;stroke-linejoin:miter;stroke-width:0.75;" x="44" xlink:href="#m09ea6cd2e0" y="49.30625"/>
     </g>
    </g>
    <g id="text_20">
     <!-- Luttinger Ward -->
     <defs>
      <path d="M 8.5 21.578125 
L 8.5 54.6875 
L 17.484375 54.6875 
L 17.484375 21.921875 
Q 17.484375 14.15625 20.5 10.265625 
Q 23.53125 6.390625 29.59375 6.390625 
Q 36.859375 6.390625 41.078125 11.03125 
Q 45.3125 15.671875 45.3125 23.6875 
L 45.3125 54.6875 
L 54.296875 54.6875 
L 54.296875 0 
L 45.3125 0 
L 45.3125 8.40625 
Q 42.046875 3.421875 37.71875 1 
Q 33.40625 -1.421875 27.6875 -1.421875 
Q 18.265625 -1.421875 13.375 4.4375 
Q 8.5 10.296875 8.5 21.578125 
z
M 31.109375 56 
z
" id="DejaVuSans-117"/>
      <path d="M 18.3125 70.21875 
L 18.3125 54.6875 
L 36.8125 54.6875 
L 36.8125 47.703125 
L 18.3125 47.703125 
L 18.3125 18.015625 
Q 18.3125 11.328125 20.140625 9.421875 
Q 21.96875 7.515625 27.59375 7.515625 
L 36.8125 7.515625 
L 36.8125 0 
L 27.59375 0 
Q 17.1875 0 13.234375 3.875 
Q 9.28125 7.765625 9.28125 18.015625 
L 9.28125 47.703125 
L 2.6875 47.703125 
L 2.6875 54.6875 
L 9.28125 54.6875 
L 9.28125 70.21875 
z
" id="DejaVuSans-116"/>
      <path d="M 9.421875 54.6875 
L 18.40625 54.6875 
L 18.40625 0 
L 9.421875 0 
z
M 9.421875 75.984375 
L 18.40625 75.984375 
L 18.40625 64.59375 
L 9.421875 64.59375 
z
" id="DejaVuSans-105"/>
      <path d="M 54.890625 33.015625 
L 54.890625 0 
L 45.90625 0 
L 45.90625 32.71875 
Q 45.90625 40.484375 42.875 44.328125 
Q 39.84375 48.1875 33.796875 48.1875 
Q 26.515625 48.1875 22.3125 43.546875 
Q 18.109375 38.921875 18.109375 30.90625 
L 18.109375 0 
L 9.078125 0 
L 9.078125 54.6875 
L 18.109375 54.6875 
L 18.109375 46.1875 
Q 21.34375 51.125 25.703125 53.5625 
Q 30.078125 56 35.796875 56 
Q 45.21875 56 50.046875 50.171875 
Q 54.890625 44.34375 54.890625 33.015625 
z
" id="DejaVuSans-110"/>
      <path d="M 45.40625 27.984375 
Q 45.40625 37.75 41.375 43.109375 
Q 37.359375 48.484375 30.078125 48.484375 
Q 22.859375 48.484375 18.828125 43.109375 
Q 14.796875 37.75 14.796875 27.984375 
Q 14.796875 18.265625 18.828125 12.890625 
Q 22.859375 7.515625 30.078125 7.515625 
Q 37.359375 7.515625 41.375 12.890625 
Q 45.40625 18.265625 45.40625 27.984375 
z
M 54.390625 6.78125 
Q 54.390625 -7.171875 48.1875 -13.984375 
Q 42 -20.796875 29.203125 -20.796875 
Q 24.46875 -20.796875 20.265625 -20.09375 
Q 16.0625 -19.390625 12.109375 -17.921875 
L 12.109375 -9.1875 
Q 16.0625 -11.328125 19.921875 -12.34375 
Q 23.78125 -13.375 27.78125 -13.375 
Q 36.625 -13.375 41.015625 -8.765625 
Q 45.40625 -4.15625 45.40625 5.171875 
L 45.40625 9.625 
Q 42.625 4.78125 38.28125 2.390625 
Q 33.9375 0 27.875 0 
Q 17.828125 0 11.671875 7.65625 
Q 5.515625 15.328125 5.515625 27.984375 
Q 5.515625 40.671875 11.671875 48.328125 
Q 17.828125 56 27.875 56 
Q 33.9375 56 38.28125 53.609375 
Q 42.625 51.21875 45.40625 46.390625 
L 45.40625 54.6875 
L 54.390625 54.6875 
z
" id="DejaVuSans-103"/>
      <path d="M 56.203125 29.59375 
L 56.203125 25.203125 
L 14.890625 25.203125 
Q 15.484375 15.921875 20.484375 11.0625 
Q 25.484375 6.203125 34.421875 6.203125 
Q 39.59375 6.203125 44.453125 7.46875 
Q 49.3125 8.734375 54.109375 11.28125 
L 54.109375 2.78125 
Q 49.265625 0.734375 44.1875 -0.34375 
Q 39.109375 -1.421875 33.890625 -1.421875 
Q 20.796875 -1.421875 13.15625 6.1875 
Q 5.515625 13.8125 5.515625 26.8125 
Q 5.515625 40.234375 12.765625 48.109375 
Q 20.015625 56 32.328125 56 
Q 43.359375 56 49.78125 48.890625 
Q 56.203125 41.796875 56.203125 29.59375 
z
M 47.21875 32.234375 
Q 47.125 39.59375 43.09375 43.984375 
Q 39.0625 48.390625 32.421875 48.390625 
Q 24.90625 48.390625 20.390625 44.140625 
Q 15.875 39.890625 15.1875 32.171875 
z
" id="DejaVuSans-101"/>
      <path d="M 41.109375 46.296875 
Q 39.59375 47.171875 37.8125 47.578125 
Q 36.03125 48 33.890625 48 
Q 26.265625 48 22.1875 43.046875 
Q 18.109375 38.09375 18.109375 28.8125 
L 18.109375 0 
L 9.078125 0 
L 9.078125 54.6875 
L 18.109375 54.6875 
L 18.109375 46.1875 
Q 20.953125 51.171875 25.484375 53.578125 
Q 30.03125 56 36.53125 56 
Q 37.453125 56 38.578125 55.875 
Q 39.703125 55.765625 41.0625 55.515625 
z
" id="DejaVuSans-114"/>
      <path id="DejaVuSans-32"/>
      <path d="M 3.328125 72.90625 
L 13.28125 72.90625 
L 28.609375 11.28125 
L 43.890625 72.90625 
L 54.984375 72.90625 
L 70.3125 11.28125 
L 85.59375 72.90625 
L 95.609375 72.90625 
L 77.296875 0 
L 64.890625 0 
L 49.515625 63.28125 
L 33.984375 0 
L 21.578125 0 
z
" id="DejaVuSans-87"/>
      <path d="M 34.28125 27.484375 
Q 23.390625 27.484375 19.1875 25 
Q 14.984375 22.515625 14.984375 16.5 
Q 14.984375 11.71875 18.140625 8.90625 
Q 21.296875 6.109375 26.703125 6.109375 
Q 34.1875 6.109375 38.703125 11.40625 
Q 43.21875 16.703125 43.21875 25.484375 
L 43.21875 27.484375 
z
M 52.203125 31.203125 
L 52.203125 0 
L 43.21875 0 
L 43.21875 8.296875 
Q 40.140625 3.328125 35.546875 0.953125 
Q 30.953125 -1.421875 24.3125 -1.421875 
Q 15.921875 -1.421875 10.953125 3.296875 
Q 6 8.015625 6 15.921875 
Q 6 25.140625 12.171875 29.828125 
Q 18.359375 34.515625 30.609375 34.515625 
L 43.21875 34.515625 
L 43.21875 35.40625 
Q 43.21875 41.609375 39.140625 45 
Q 35.0625 48.390625 27.6875 48.390625 
Q 23 48.390625 18.546875 47.265625 
Q 14.109375 46.140625 10.015625 43.890625 
L 10.015625 52.203125 
Q 14.9375 54.109375 19.578125 55.046875 
Q 24.21875 56 28.609375 56 
Q 40.484375 56 46.34375 49.84375 
Q 52.203125 43.703125 52.203125 31.203125 
z
" id="DejaVuSans-97"/>
      <path d="M 45.40625 46.390625 
L 45.40625 75.984375 
L 54.390625 75.984375 
L 54.390625 0 
L 45.40625 0 
L 45.40625 8.203125 
Q 42.578125 3.328125 38.25 0.953125 
Q 33.9375 -1.421875 27.875 -1.421875 
Q 17.96875 -1.421875 11.734375 6.484375 
Q 5.515625 14.40625 5.515625 27.296875 
Q 5.515625 40.1875 11.734375 48.09375 
Q 17.96875 56 27.875 56 
Q 33.9375 56 38.25 53.625 
Q 42.578125 51.265625 45.40625 46.390625 
z
M 14.796875 27.296875 
Q 14.796875 17.390625 18.875 11.75 
Q 22.953125 6.109375 30.078125 6.109375 
Q 37.203125 6.109375 41.296875 11.75 
Q 45.40625 17.390625 45.40625 27.296875 
Q 45.40625 37.203125 41.296875 42.84375 
Q 37.203125 48.484375 30.078125 48.484375 
Q 22.953125 48.484375 18.875 42.84375 
Q 14.796875 37.203125 14.796875 27.296875 
z
" id="DejaVuSans-100"/>
     </defs>
     <g transform="translate(58.4 52.10625)scale(0.08 -0.08)">
      <use xlink:href="#DejaVuSans-76"/>
      <use x="55.697266" xlink:href="#DejaVuSans-117"/>
      <use x="119.076172" xlink:href="#DejaVuSans-116"/>
      <use x="158.285156" xlink:href="#DejaVuSans-116"/>
      <use x="197.494141" xlink:href="#DejaVuSans-105"/>
      <use x="225.277344" xlink:href="#DejaVuSans-110"/>
      <use x="288.65625" xlink:href="#DejaVuSans-103"/>
      <use x="352.132812" xlink:href="#DejaVuSans-101"/>
      <use x="413.65625" xlink:href="#DejaVuSans-114"/>
      <use x="454.769531" xlink:href="#DejaVuSans-32"/>
      <use x="486.556641" xlink:href="#DejaVuSans-87"/>
      <use x="585.339844" xlink:href="#DejaVuSans-97"/>
      <use x="646.619141" xlink:href="#DejaVuSans-114"/>
      <use x="687.716797" xlink:href="#DejaVuSans-100"/>
     </g>
    </g>
    <g id="LineCollection_7">
     <path d="M 44 65.04875 
L 44 57.04875 
" style="fill:none;stroke:#a42604;"/>
    </g>
    <g id="line2d_66"/>
    <g id="line2d_67">
     <g>
      <use style="fill:#f94515;stroke:#a42604;stroke-width:0.75;" x="44" xlink:href="#m657d329f14" y="61.04875"/>
     </g>
    </g>
    <g id="text_21">
     <!-- experiment (MIT) -->
     <defs>
      <path d="M 54.890625 54.6875 
L 35.109375 28.078125 
L 55.90625 0 
L 45.3125 0 
L 29.390625 21.484375 
L 13.484375 0 
L 2.875 0 
L 24.125 28.609375 
L 4.6875 54.6875 
L 15.28125 54.6875 
L 29.78125 35.203125 
L 44.28125 54.6875 
z
" id="DejaVuSans-120"/>
      <path d="M 18.109375 8.203125 
L 18.109375 -20.796875 
L 9.078125 -20.796875 
L 9.078125 54.6875 
L 18.109375 54.6875 
L 18.109375 46.390625 
Q 20.953125 51.265625 25.265625 53.625 
Q 29.59375 56 35.59375 56 
Q 45.5625 56 51.78125 48.09375 
Q 58.015625 40.1875 58.015625 27.296875 
Q 58.015625 14.40625 51.78125 6.484375 
Q 45.5625 -1.421875 35.59375 -1.421875 
Q 29.59375 -1.421875 25.265625 0.953125 
Q 20.953125 3.328125 18.109375 8.203125 
z
M 48.6875 27.296875 
Q 48.6875 37.203125 44.609375 42.84375 
Q 40.53125 48.484375 33.40625 48.484375 
Q 26.265625 48.484375 22.1875 42.84375 
Q 18.109375 37.203125 18.109375 27.296875 
Q 18.109375 17.390625 22.1875 11.75 
Q 26.265625 6.109375 33.40625 6.109375 
Q 40.53125 6.109375 44.609375 11.75 
Q 48.6875 17.390625 48.6875 27.296875 
z
" id="DejaVuSans-112"/>
      <path d="M 52 44.1875 
Q 55.375 50.25 60.0625 53.125 
Q 64.75 56 71.09375 56 
Q 79.640625 56 84.28125 50.015625 
Q 88.921875 44.046875 88.921875 33.015625 
L 88.921875 0 
L 79.890625 0 
L 79.890625 32.71875 
Q 79.890625 40.578125 77.09375 44.375 
Q 74.3125 48.1875 68.609375 48.1875 
Q 61.625 48.1875 57.5625 43.546875 
Q 53.515625 38.921875 53.515625 30.90625 
L 53.515625 0 
L 44.484375 0 
L 44.484375 32.71875 
Q 44.484375 40.625 41.703125 44.40625 
Q 38.921875 48.1875 33.109375 48.1875 
Q 26.21875 48.1875 22.15625 43.53125 
Q 18.109375 38.875 18.109375 30.90625 
L 18.109375 0 
L 9.078125 0 
L 9.078125 54.6875 
L 18.109375 54.6875 
L 18.109375 46.1875 
Q 21.1875 51.21875 25.484375 53.609375 
Q 29.78125 56 35.6875 56 
Q 41.65625 56 45.828125 52.96875 
Q 50 49.953125 52 44.1875 
z
" id="DejaVuSans-109"/>
      <path d="M 31 75.875 
Q 24.46875 64.65625 21.28125 53.65625 
Q 18.109375 42.671875 18.109375 31.390625 
Q 18.109375 20.125 21.3125 9.0625 
Q 24.515625 -2 31 -13.1875 
L 23.1875 -13.1875 
Q 15.875 -1.703125 12.234375 9.375 
Q 8.59375 20.453125 8.59375 31.390625 
Q 8.59375 42.28125 12.203125 53.3125 
Q 15.828125 64.359375 23.1875 75.875 
z
" id="DejaVuSans-40"/>
      <path d="M 9.8125 72.90625 
L 19.671875 72.90625 
L 19.671875 0 
L 9.8125 0 
z
" id="DejaVuSans-73"/>
      <path d="M -0.296875 72.90625 
L 61.375 72.90625 
L 61.375 64.59375 
L 35.5 64.59375 
L 35.5 0 
L 25.59375 0 
L 25.59375 64.59375 
L -0.296875 64.59375 
z
" id="DejaVuSans-84"/>
      <path d="M 8.015625 75.875 
L 15.828125 75.875 
Q 23.140625 64.359375 26.78125 53.3125 
Q 30.421875 42.28125 30.421875 31.390625 
Q 30.421875 20.453125 26.78125 9.375 
Q 23.140625 -1.703125 15.828125 -13.1875 
L 8.015625 -13.1875 
Q 14.5 -2 17.703125 9.0625 
Q 20.90625 20.125 20.90625 31.390625 
Q 20.90625 42.671875 17.703125 53.65625 
Q 14.5 64.65625 8.015625 75.875 
z
" id="DejaVuSans-41"/>
     </defs>
     <g transform="translate(58.4 63.84875)scale(0.08 -0.08)">
      <use xlink:href="#DejaVuSans-101"/>
      <use x="61.507812" xlink:href="#DejaVuSans-120"/>
      <use x="120.6875" xlink:href="#DejaVuSans-112"/>
      <use x="184.164062" xlink:href="#DejaVuSans-101"/>
      <use x="245.6875" xlink:href="#DejaVuSans-114"/>
      <use x="286.800781" xlink:href="#DejaVuSans-105"/>
      <use x="314.583984" xlink:href="#DejaVuSans-109"/>
      <use x="411.996094" xlink:href="#DejaVuSans-101"/>
      <use x="473.519531" xlink:href="#DejaVuSans-110"/>
      <use x="536.898438" xlink:href="#DejaVuSans-116"/>
      <use x="576.107422" xlink:href="#DejaVuSans-32"/>
      <use x="607.894531" xlink:href="#DejaVuSans-40"/>
      <use x="646.908203" xlink:href="#DejaVuSans-77"/>
      <use x="733.1875" xlink:href="#DejaVuSans-73"/>
      <use x="762.679688" xlink:href="#DejaVuSans-84"/>
      <use x="823.763672" xlink:href="#DejaVuSans-41"/>
     </g>
    </g>
    <g id="line2d_68">
     <path d="M 36 72.79125 
L 52 72.79125 
" style="fill:none;stroke:#114b5f;stroke-dasharray:3.7,1.6;stroke-dashoffset:0;"/>
    </g>
    <g id="line2d_69"/>
    <g id="text_22">
     <!-- 3rd order virial exp. -->
     <defs>
      <path d="M 40.578125 39.3125 
Q 47.65625 37.796875 51.625 33 
Q 55.609375 28.21875 55.609375 21.1875 
Q 55.609375 10.40625 48.1875 4.484375 
Q 40.765625 -1.421875 27.09375 -1.421875 
Q 22.515625 -1.421875 17.65625 -0.515625 
Q 12.796875 0.390625 7.625 2.203125 
L 7.625 11.71875 
Q 11.71875 9.328125 16.59375 8.109375 
Q 21.484375 6.890625 26.8125 6.890625 
Q 36.078125 6.890625 40.9375 10.546875 
Q 45.796875 14.203125 45.796875 21.1875 
Q 45.796875 27.640625 41.28125 31.265625 
Q 36.765625 34.90625 28.71875 34.90625 
L 20.21875 34.90625 
L 20.21875 43.015625 
L 29.109375 43.015625 
Q 36.375 43.015625 40.234375 45.921875 
Q 44.09375 48.828125 44.09375 54.296875 
Q 44.09375 59.90625 40.109375 62.90625 
Q 36.140625 65.921875 28.71875 65.921875 
Q 24.65625 65.921875 20.015625 65.03125 
Q 15.375 64.15625 9.8125 62.3125 
L 9.8125 71.09375 
Q 15.4375 72.65625 20.34375 73.4375 
Q 25.25 74.21875 29.59375 74.21875 
Q 40.828125 74.21875 47.359375 69.109375 
Q 53.90625 64.015625 53.90625 55.328125 
Q 53.90625 49.265625 50.4375 45.09375 
Q 46.96875 40.921875 40.578125 39.3125 
z
" id="DejaVuSans-51"/>
      <path d="M 30.609375 48.390625 
Q 23.390625 48.390625 19.1875 42.75 
Q 14.984375 37.109375 14.984375 27.296875 
Q 14.984375 17.484375 19.15625 11.84375 
Q 23.34375 6.203125 30.609375 6.203125 
Q 37.796875 6.203125 41.984375 11.859375 
Q 46.1875 17.53125 46.1875 27.296875 
Q 46.1875 37.015625 41.984375 42.703125 
Q 37.796875 48.390625 30.609375 48.390625 
z
M 30.609375 56 
Q 42.328125 56 49.015625 48.375 
Q 55.71875 40.765625 55.71875 27.296875 
Q 55.71875 13.875 49.015625 6.21875 
Q 42.328125 -1.421875 30.609375 -1.421875 
Q 18.84375 -1.421875 12.171875 6.21875 
Q 5.515625 13.875 5.515625 27.296875 
Q 5.515625 40.765625 12.171875 48.375 
Q 18.84375 56 30.609375 56 
z
" id="DejaVuSans-111"/>
      <path d="M 2.984375 54.6875 
L 12.5 54.6875 
L 29.59375 8.796875 
L 46.6875 54.6875 
L 56.203125 54.6875 
L 35.6875 0 
L 23.484375 0 
z
" id="DejaVuSans-118"/>
      <path d="M 9.421875 75.984375 
L 18.40625 75.984375 
L 18.40625 0 
L 9.421875 0 
z
" id="DejaVuSans-108"/>
      <path d="M 10.6875 12.40625 
L 21 12.40625 
L 21 0 
L 10.6875 0 
z
" id="DejaVuSans-46"/>
     </defs>
     <g transform="translate(58.4 75.59125)scale(0.08 -0.08)">
      <use xlink:href="#DejaVuSans-51"/>
      <use x="63.623047" xlink:href="#DejaVuSans-114"/>
      <use x="104.720703" xlink:href="#DejaVuSans-100"/>
      <use x="168.197266" xlink:href="#DejaVuSans-32"/>
      <use x="199.984375" xlink:href="#DejaVuSans-111"/>
      <use x="261.166016" xlink:href="#DejaVuSans-114"/>
      <use x="302.263672" xlink:href="#DejaVuSans-100"/>
      <use x="365.740234" xlink:href="#DejaVuSans-101"/>
      <use x="427.263672" xlink:href="#DejaVuSans-114"/>
      <use x="468.376953" xlink:href="#DejaVuSans-32"/>
      <use x="500.164062" xlink:href="#DejaVuSans-118"/>
      <use x="559.34375" xlink:href="#DejaVuSans-105"/>
      <use x="587.126953" xlink:href="#DejaVuSans-114"/>
      <use x="628.240234" xlink:href="#DejaVuSans-105"/>
      <use x="656.023438" xlink:href="#DejaVuSans-97"/>
      <use x="717.302734" xlink:href="#DejaVuSans-108"/>
      <use x="745.085938" xlink:href="#DejaVuSans-32"/>
      <use x="776.873047" xlink:href="#DejaVuSans-101"/>
      <use x="838.380859" xlink:href="#DejaVuSans-120"/>
      <use x="897.560547" xlink:href="#DejaVuSans-112"/>
      <use x="961.037109" xlink:href="#DejaVuSans-46"/>
     </g>
    </g>
   </g>
   <g id="LineCollection_8">
    <path clip-path="url(#p603a0b9f24)" d="M 64.8 148.94078 
L 64.8 148.042007 
" style="fill:none;stroke:#114b5f;"/>
    <path clip-path="url(#p603a0b9f24)" d="M 82.8 146.349485 
L 82.8 145.563525 
" style="fill:none;stroke:#114b5f;"/>
    <path clip-path="url(#p603a0b9f24)" d="M 100.8 141.709325 
L 100.8 140.689626 
" style="fill:none;stroke:#114b5f;"/>
    <path clip-path="url(#p603a0b9f24)" d="M 118.8 136.9205 
L 118.8 135.918436 
" style="fill:none;stroke:#114b5f;"/>
    <path clip-path="url(#p603a0b9f24)" d="M 136.8 126.989883 
L 136.8 126.427174 
" style="fill:none;stroke:#114b5f;"/>
    <path clip-path="url(#p603a0b9f24)" d="M 154.8 114.279862 
L 154.8 112.858443 
" style="fill:none;stroke:#114b5f;"/>
    <path clip-path="url(#p603a0b9f24)" d="M 172.8 100.188305 
L 172.8 97.625678 
" style="fill:none;stroke:#114b5f;"/>
    <path clip-path="url(#p603a0b9f24)" d="M 190.8 83.616058 
L 190.8 81.721858 
" style="fill:none;stroke:#114b5f;"/>
    <path clip-path="url(#p603a0b9f24)" d="M 208.8 69.082187 
L 208.8 68.986351 
" style="fill:none;stroke:#114b5f;"/>
    <path clip-path="url(#p603a0b9f24)" d="M 226.8 60.807721 
L 226.8 60.531723 
" style="fill:none;stroke:#114b5f;"/>
    <path clip-path="url(#p603a0b9f24)" d="M 244.8 55.272399 
L 244.8 54.611374 
" style="fill:none;stroke:#114b5f;"/>
    <path clip-path="url(#p603a0b9f24)" d="M 262.8 47.290759 
L 262.8 46.718333 
" style="fill:none;stroke:#114b5f;"/>
   </g>
   <g id="line2d_70">
    <g clip-path="url(#p603a0b9f24)">
     <use style="fill:#2faeda;stroke:#114b5f;stroke-linejoin:miter;stroke-width:0.75;" x="64.8" xlink:href="#m9a9d4f2269" y="148.491393"/>
     <use style="fill:#2faeda;stroke:#114b5f;stroke-linejoin:miter;stroke-width:0.75;" x="82.8" xlink:href="#m9a9d4f2269" y="145.956505"/>
     <use style="fill:#2faeda;stroke:#114b5f;stroke-linejoin:miter;stroke-width:0.75;" x="100.8" xlink:href="#m9a9d4f2269" y="141.199476"/>
     <use style="fill:#2faeda;stroke:#114b5f;stroke-linejoin:miter;stroke-width:0.75;" x="118.8" xlink:href="#m9a9d4f2269" y="136.419468"/>
     <use style="fill:#2faeda;stroke:#114b5f;stroke-linejoin:miter;stroke-width:0.75;" x="136.8" xlink:href="#m9a9d4f2269" y="126.708529"/>
     <use style="fill:#2faeda;stroke:#114b5f;stroke-linejoin:miter;stroke-width:0.75;" x="154.8" xlink:href="#m9a9d4f2269" y="113.569153"/>
     <use style="fill:#2faeda;stroke:#114b5f;stroke-linejoin:miter;stroke-width:0.75;" x="172.8" xlink:href="#m9a9d4f2269" y="98.906992"/>
     <use style="fill:#2faeda;stroke:#114b5f;stroke-linejoin:miter;stroke-width:0.75;" x="190.8" xlink:href="#m9a9d4f2269" y="82.668958"/>
     <use style="fill:#2faeda;stroke:#114b5f;stroke-linejoin:miter;stroke-width:0.75;" x="208.8" xlink:href="#m9a9d4f2269" y="69.034269"/>
     <use style="fill:#2faeda;stroke:#114b5f;stroke-linejoin:miter;stroke-width:0.75;" x="226.8" xlink:href="#m9a9d4f2269" y="60.669722"/>
     <use style="fill:#2faeda;stroke:#114b5f;stroke-linejoin:miter;stroke-width:0.75;" x="244.8" xlink:href="#m9a9d4f2269" y="54.941886"/>
     <use style="fill:#2faeda;stroke:#114b5f;stroke-linejoin:miter;stroke-width:0.75;" x="262.8" xlink:href="#m9a9d4f2269" y="47.004546"/>
    </g>
   </g>
  </g>
 </g>
 <defs>
  <clipPath id="p603a0b9f24">
   <rect height="154.8" width="252" x="28.8" y="3.6"/>
  </clipPath>
 </defs>
</svg>
