<?xml version="1.0" encoding="UTF-8" standalone="no"?>
<!-- Created with Inkscape (http://www.inkscape.org/) -->

<svg
   xmlns:dc="http://purl.org/dc/elements/1.1/"
   xmlns:cc="http://creativecommons.org/ns#"
   xmlns:rdf="http://www.w3.org/1999/02/22-rdf-syntax-ns#"
   xmlns:svg="http://www.w3.org/2000/svg"
   xmlns="http://www.w3.org/2000/svg"
   xmlns:sodipodi="http://sodipodi.sourceforge.net/DTD/sodipodi-0.dtd"
   xmlns:inkscape="http://www.inkscape.org/namespaces/inkscape"
   width="315.21832mm"
   height="49.992451mm"
   viewBox="0 0 315.21833 49.992452"
   version="1.1"
   id="svg8"
   inkscape:version="0.92.3 (2405546, 2018-03-11)"
   sodipodi:docname="arrow_aux.svg">
  <defs
     id="defs2">
    <marker
       inkscape:stockid="Arrow2Mstart"
       orient="auto"
       refY="0"
       refX="0"
       id="Arrow2Mstart"
       style="overflow:visible"
       inkscape:isstock="true">
      <path
         id="path843"
         style="fill:#000000;fill-opacity:1;fill-rule:evenodd;stroke:#000000;stroke-width:0.625;stroke-linejoin:round;stroke-opacity:1"
         d="M 8.7185878,4.0337352 -2.2072895,0.01601326 8.7185884,-4.0017078 c -1.7454984,2.3720609 -1.7354408,5.6174519 -6e-7,8.035443 z"
         transform="scale(0.6)"
         inkscape:connector-curvature="0" />
    </marker>
    <marker
       inkscape:stockid="Arrow2Lstart"
       orient="auto"
       refY="0"
       refX="0"
       id="marker1399"
       style="overflow:visible"
       inkscape:isstock="true">
      <path
         id="path1397"
         style="fill:#000000;fill-opacity:1;fill-rule:evenodd;stroke:#000000;stroke-width:0.625;stroke-linejoin:round;stroke-opacity:1"
         d="M 8.7185878,4.0337352 -2.2072895,0.01601326 8.7185884,-4.0017078 c -1.7454984,2.3720609 -1.7354408,5.6174519 -6e-7,8.035443 z"
         transform="matrix(1.1,0,0,1.1,1.1,0)"
         inkscape:connector-curvature="0" />
    </marker>
    <marker
       inkscape:stockid="Arrow2Mend"
       orient="auto"
       refY="0"
       refX="0"
       id="Arrow2Mend"
       style="overflow:visible"
       inkscape:isstock="true">
      <path
         id="path846"
         style="fill:#a42604;fill-opacity:1;fill-rule:evenodd;stroke:#a42604;stroke-width:0.625;stroke-linejoin:round;stroke-opacity:1"
         d="M 8.7185878,4.0337352 -2.2072895,0.01601326 8.7185884,-4.0017078 c -1.7454984,2.3720609 -1.7354408,5.6174519 -6e-7,8.035443 z"
         transform="scale(-0.6)"
         inkscape:connector-curvature="0" />
    </marker>
    <marker
       inkscape:stockid="Arrow2Lstart"
       orient="auto"
       refY="0"
       refX="0"
       id="Arrow2Lstart"
       style="overflow:visible"
       inkscape:isstock="true">
      <path
         id="path837"
         style="fill:#000000;fill-opacity:1;fill-rule:evenodd;stroke:#000000;stroke-width:0.625;stroke-linejoin:round;stroke-opacity:1"
         d="M 8.7185878,4.0337352 -2.2072895,0.01601326 8.7185884,-4.0017078 c -1.7454984,2.3720609 -1.7354408,5.6174519 -6e-7,8.035443 z"
         transform="matrix(1.1,0,0,1.1,1.1,0)"
         inkscape:connector-curvature="0" />
    </marker>
    <marker
       inkscape:stockid="Arrow2Lend"
       orient="auto"
       refY="0"
       refX="0"
       id="Arrow2Lend"
       style="overflow:visible"
       inkscape:isstock="true">
      <path
         id="path840"
         style="fill:#000000;fill-opacity:1;fill-rule:evenodd;stroke:#000000;stroke-width:0.625;stroke-linejoin:round;stroke-opacity:1"
         d="M 8.7185878,4.0337352 -2.2072895,0.01601326 8.7185884,-4.0017078 c -1.7454984,2.3720609 -1.7354408,5.6174519 -6e-7,8.035443 z"
         transform="matrix(-1.1,0,0,-1.1,-1.1,0)"
         inkscape:connector-curvature="0" />
    </marker>
    <marker
       inkscape:stockid="Arrow1Lend"
       orient="auto"
       refY="0"
       refX="0"
       id="Arrow1Lend"
       style="overflow:visible"
       inkscape:isstock="true">
      <path
         id="path822"
         d="M 0,0 5,-5 -12.5,0 5,5 Z"
         style="fill:#000000;fill-opacity:1;fill-rule:evenodd;stroke:#000000;stroke-width:1.00000003pt;stroke-opacity:1"
         transform="matrix(-0.8,0,0,-0.8,-10,0)"
         inkscape:connector-curvature="0" />
    </marker>
    <marker
       inkscape:stockid="Arrow1Lstart"
       orient="auto"
       refY="0"
       refX="0"
       id="Arrow1Lstart"
       style="overflow:visible"
       inkscape:isstock="true">
      <path
         id="path819"
         d="M 0,0 5,-5 -12.5,0 5,5 Z"
         style="fill:#000000;fill-opacity:1;fill-rule:evenodd;stroke:#000000;stroke-width:1.00000003pt;stroke-opacity:1"
         transform="matrix(0.8,0,0,0.8,10,0)"
         inkscape:connector-curvature="0" />
    </marker>
    <clipPath
       id="clipPath12194"
       clipPathUnits="userSpaceOnUse">
      <path
         inkscape:connector-curvature="0"
         id="path12192"
         d="M 0,-2.868931e-5 H 595.276 V 841.88997 H 0 Z" />
    </clipPath>
    <clipPath
       id="clipPath12204"
       clipPathUnits="userSpaceOnUse">
      <path
         inkscape:connector-curvature="0"
         id="path12202"
         d="m 322.538,774.792 h 60.956 v 22.412 h -60.956 z" />
    </clipPath>
    <clipPath
       id="clipPath12228"
       clipPathUnits="userSpaceOnUse">
      <path
         inkscape:connector-curvature="0"
         id="path12226"
         d="m 322.538,685.471 h 60.956 v 89.32 h -60.956 z" />
    </clipPath>
    <clipPath
       id="clipPath12284"
       clipPathUnits="userSpaceOnUse">
      <path
         inkscape:connector-curvature="0"
         id="path12282"
         d="m 322.538,596.15 h 60.956 v 89.321 h -60.956 z" />
    </clipPath>
    <clipPath
       id="clipPath12340"
       clipPathUnits="userSpaceOnUse">
      <path
         inkscape:connector-curvature="0"
         id="path12338"
         d="m 322.538,506.83 h 60.956 v 89.32 h -60.956 z" />
    </clipPath>
    <clipPath
       id="clipPath12396"
       clipPathUnits="userSpaceOnUse">
      <path
         inkscape:connector-curvature="0"
         id="path12394"
         d="m 322.538,417.508 h 60.956 v 89.321 h -60.956 z" />
    </clipPath>
    <clipPath
       id="clipPath12452"
       clipPathUnits="userSpaceOnUse">
      <path
         inkscape:connector-curvature="0"
         id="path12450"
         d="m 322.538,328.187 h 60.956 v 89.321 h -60.956 z" />
    </clipPath>
    <clipPath
       id="clipPath12508"
       clipPathUnits="userSpaceOnUse">
      <path
         inkscape:connector-curvature="0"
         id="path12506"
         d="m 322.538,238.867 h 60.956 v 89.32 h -60.956 z" />
    </clipPath>
    <clipPath
       id="clipPath12564"
       clipPathUnits="userSpaceOnUse">
      <path
         inkscape:connector-curvature="0"
         id="path12562"
         d="m 322.538,149.546 h 60.956 v 89.321 h -60.956 z" />
    </clipPath>
    <clipPath
       id="clipPath12620"
       clipPathUnits="userSpaceOnUse">
      <path
         inkscape:connector-curvature="0"
         id="path12618"
         d="m 322.538,60.22397 h 60.956 v 89.321 h -60.956 z" />
    </clipPath>
    <clipPath
       id="clipPath12676"
       clipPathUnits="userSpaceOnUse">
      <path
         inkscape:connector-curvature="0"
         id="path12674"
         d="m 322.538,24.76997 h 60.956 v 35.455 h -60.956 z" />
    </clipPath>
    <clipPath
       id="clipPath12708"
       clipPathUnits="userSpaceOnUse">
      <path
         inkscape:connector-curvature="0"
         id="path12706"
         d="m 211.782,774.792 h 110.756 v 22.412 H 211.782 Z" />
    </clipPath>
    <clipPath
       id="clipPath12724"
       clipPathUnits="userSpaceOnUse">
      <path
         inkscape:connector-curvature="0"
         id="path12722"
         d="m 211.782,685.471 h 110.756 v 89.32 H 211.782 Z" />
    </clipPath>
    <clipPath
       id="clipPath12756"
       clipPathUnits="userSpaceOnUse">
      <path
         inkscape:connector-curvature="0"
         id="path12754"
         d="m 211.782,596.15 h 110.756 v 89.321 H 211.782 Z" />
    </clipPath>
    <clipPath
       id="clipPath12788"
       clipPathUnits="userSpaceOnUse">
      <path
         inkscape:connector-curvature="0"
         id="path12786"
         d="m 211.782,506.83 h 110.756 v 89.32 H 211.782 Z" />
    </clipPath>
    <clipPath
       id="clipPath12820"
       clipPathUnits="userSpaceOnUse">
      <path
         inkscape:connector-curvature="0"
         id="path12818"
         d="m 211.782,417.508 h 110.756 v 89.321 H 211.782 Z" />
    </clipPath>
    <clipPath
       id="clipPath12852"
       clipPathUnits="userSpaceOnUse">
      <path
         inkscape:connector-curvature="0"
         id="path12850"
         d="m 211.782,328.187 h 110.756 v 89.321 H 211.782 Z" />
    </clipPath>
    <clipPath
       id="clipPath12884"
       clipPathUnits="userSpaceOnUse">
      <path
         inkscape:connector-curvature="0"
         id="path12882"
         d="m 211.782,238.867 h 110.756 v 89.32 H 211.782 Z" />
    </clipPath>
    <clipPath
       id="clipPath12916"
       clipPathUnits="userSpaceOnUse">
      <path
         inkscape:connector-curvature="0"
         id="path12914"
         d="m 211.782,149.546 h 110.756 v 89.321 H 211.782 Z" />
    </clipPath>
    <clipPath
       id="clipPath12948"
       clipPathUnits="userSpaceOnUse">
      <path
         inkscape:connector-curvature="0"
         id="path12946"
         d="m 211.782,60.22397 h 110.756 v 89.321 H 211.782 Z" />
    </clipPath>
    <clipPath
       id="clipPath12980"
       clipPathUnits="userSpaceOnUse">
      <path
         inkscape:connector-curvature="0"
         id="path12978"
         d="m 211.782,24.76997 h 110.756 v 35.455 H 211.782 Z" />
    </clipPath>
    <clipPath
       id="clipPath13000"
       clipPathUnits="userSpaceOnUse">
      <path
         inkscape:connector-curvature="0"
         id="path12998"
         d="m 505.159,774.792 h 60.956 v 22.412 h -60.956 z" />
    </clipPath>
    <clipPath
       id="clipPath13024"
       clipPathUnits="userSpaceOnUse">
      <path
         inkscape:connector-curvature="0"
         id="path13022"
         d="m 505.159,685.471 h 60.956 v 89.32 h -60.956 z" />
    </clipPath>
    <clipPath
       id="clipPath13080"
       clipPathUnits="userSpaceOnUse">
      <path
         inkscape:connector-curvature="0"
         id="path13078"
         d="m 505.159,596.15 h 60.956 v 89.321 h -60.956 z" />
    </clipPath>
    <clipPath
       id="clipPath13136"
       clipPathUnits="userSpaceOnUse">
      <path
         inkscape:connector-curvature="0"
         id="path13134"
         d="m 505.159,506.83 h 60.956 v 89.32 h -60.956 z" />
    </clipPath>
    <clipPath
       id="clipPath13192"
       clipPathUnits="userSpaceOnUse">
      <path
         inkscape:connector-curvature="0"
         id="path13190"
         d="m 505.159,417.508 h 60.956 v 89.321 h -60.956 z" />
    </clipPath>
    <clipPath
       id="clipPath13248"
       clipPathUnits="userSpaceOnUse">
      <path
         inkscape:connector-curvature="0"
         id="path13246"
         d="m 505.159,328.187 h 60.956 v 89.321 h -60.956 z" />
    </clipPath>
    <clipPath
       id="clipPath13304"
       clipPathUnits="userSpaceOnUse">
      <path
         inkscape:connector-curvature="0"
         id="path13302"
         d="m 505.159,238.867 h 60.956 v 89.32 h -60.956 z" />
    </clipPath>
    <clipPath
       id="clipPath13360"
       clipPathUnits="userSpaceOnUse">
      <path
         inkscape:connector-curvature="0"
         id="path13358"
         d="m 505.159,149.546 h 60.956 v 89.321 h -60.956 z" />
    </clipPath>
    <clipPath
       id="clipPath13416"
       clipPathUnits="userSpaceOnUse">
      <path
         inkscape:connector-curvature="0"
         id="path13414"
         d="m 505.159,60.22397 h 60.956 v 89.321 h -60.956 z" />
    </clipPath>
    <clipPath
       id="clipPath13472"
       clipPathUnits="userSpaceOnUse">
      <path
         inkscape:connector-curvature="0"
         id="path13470"
         d="m 505.159,24.76997 h 60.956 v 35.455 h -60.956 z" />
    </clipPath>
    <clipPath
       id="clipPath13504"
       clipPathUnits="userSpaceOnUse">
      <path
         inkscape:connector-curvature="0"
         id="path13502"
         d="m 394.403,774.792 h 110.756 v 22.412 H 394.403 Z" />
    </clipPath>
    <clipPath
       id="clipPath13520"
       clipPathUnits="userSpaceOnUse">
      <path
         inkscape:connector-curvature="0"
         id="path13518"
         d="m 394.403,685.471 h 110.756 v 89.32 H 394.403 Z" />
    </clipPath>
    <clipPath
       id="clipPath13552"
       clipPathUnits="userSpaceOnUse">
      <path
         inkscape:connector-curvature="0"
         id="path13550"
         d="m 394.403,596.15 h 110.756 v 89.321 H 394.403 Z" />
    </clipPath>
    <clipPath
       id="clipPath13584"
       clipPathUnits="userSpaceOnUse">
      <path
         inkscape:connector-curvature="0"
         id="path13582"
         d="m 394.403,506.83 h 110.756 v 89.32 H 394.403 Z" />
    </clipPath>
    <clipPath
       id="clipPath13616"
       clipPathUnits="userSpaceOnUse">
      <path
         inkscape:connector-curvature="0"
         id="path13614"
         d="m 394.403,417.508 h 110.756 v 89.321 H 394.403 Z" />
    </clipPath>
    <clipPath
       id="clipPath13648"
       clipPathUnits="userSpaceOnUse">
      <path
         inkscape:connector-curvature="0"
         id="path13646"
         d="m 394.403,328.187 h 110.756 v 89.321 H 394.403 Z" />
    </clipPath>
    <clipPath
       id="clipPath13680"
       clipPathUnits="userSpaceOnUse">
      <path
         inkscape:connector-curvature="0"
         id="path13678"
         d="m 394.403,238.867 h 110.756 v 89.32 H 394.403 Z" />
    </clipPath>
    <clipPath
       id="clipPath13712"
       clipPathUnits="userSpaceOnUse">
      <path
         inkscape:connector-curvature="0"
         id="path13710"
         d="m 394.403,149.546 h 110.756 v 89.321 H 394.403 Z" />
    </clipPath>
    <clipPath
       id="clipPath13744"
       clipPathUnits="userSpaceOnUse">
      <path
         inkscape:connector-curvature="0"
         id="path13742"
         d="m 394.403,60.22397 h 110.756 v 89.321 H 394.403 Z" />
    </clipPath>
    <clipPath
       id="clipPath13776"
       clipPathUnits="userSpaceOnUse">
      <path
         inkscape:connector-curvature="0"
         id="path13774"
         d="m 394.403,24.76997 h 110.756 v 35.455 H 394.403 Z" />
    </clipPath>
    <clipPath
       id="clipPath13796"
       clipPathUnits="userSpaceOnUse">
      <path
         inkscape:connector-curvature="0"
         id="path13794"
         d="m 139.916,774.792 h 60.957 v 22.412 h -60.957 z" />
    </clipPath>
    <clipPath
       id="clipPath13820"
       clipPathUnits="userSpaceOnUse">
      <path
         inkscape:connector-curvature="0"
         id="path13818"
         d="m 139.916,685.471 h 60.957 v 89.32 h -60.957 z" />
    </clipPath>
    <clipPath
       id="clipPath13876"
       clipPathUnits="userSpaceOnUse">
      <path
         inkscape:connector-curvature="0"
         id="path13874"
         d="m 139.916,596.15 h 60.957 v 89.321 h -60.957 z" />
    </clipPath>
    <clipPath
       id="clipPath13932"
       clipPathUnits="userSpaceOnUse">
      <path
         inkscape:connector-curvature="0"
         id="path13930"
         d="m 139.916,506.83 h 60.957 v 89.32 h -60.957 z" />
    </clipPath>
    <clipPath
       id="clipPath13988"
       clipPathUnits="userSpaceOnUse">
      <path
         inkscape:connector-curvature="0"
         id="path13986"
         d="m 139.916,417.508 h 60.957 v 89.321 h -60.957 z" />
    </clipPath>
    <clipPath
       id="clipPath14044"
       clipPathUnits="userSpaceOnUse">
      <path
         inkscape:connector-curvature="0"
         id="path14042"
         d="m 139.916,328.187 h 60.957 v 89.321 h -60.957 z" />
    </clipPath>
    <clipPath
       id="clipPath14100"
       clipPathUnits="userSpaceOnUse">
      <path
         inkscape:connector-curvature="0"
         id="path14098"
         d="m 139.916,238.867 h 60.957 v 89.32 h -60.957 z" />
    </clipPath>
    <clipPath
       id="clipPath14156"
       clipPathUnits="userSpaceOnUse">
      <path
         inkscape:connector-curvature="0"
         id="path14154"
         d="m 139.916,149.546 h 60.957 v 89.321 h -60.957 z" />
    </clipPath>
    <clipPath
       id="clipPath14212"
       clipPathUnits="userSpaceOnUse">
      <path
         inkscape:connector-curvature="0"
         id="path14210"
         d="m 139.916,60.22397 h 60.957 v 89.321 h -60.957 z" />
    </clipPath>
    <clipPath
       id="clipPath14268"
       clipPathUnits="userSpaceOnUse">
      <path
         inkscape:connector-curvature="0"
         id="path14266"
         d="m 139.916,24.76997 h 60.957 v 35.455 h -60.957 z" />
    </clipPath>
    <clipPath
       id="clipPath14300"
       clipPathUnits="userSpaceOnUse">
      <path
         inkscape:connector-curvature="0"
         id="path14298"
         d="m 29.16,774.792 h 110.756 v 22.412 H 29.16 Z" />
    </clipPath>
    <clipPath
       id="clipPath14316"
       clipPathUnits="userSpaceOnUse">
      <path
         inkscape:connector-curvature="0"
         id="path14314"
         d="m 29.16,685.471 h 110.756 v 89.32 H 29.16 Z" />
    </clipPath>
    <clipPath
       id="clipPath14348"
       clipPathUnits="userSpaceOnUse">
      <path
         inkscape:connector-curvature="0"
         id="path14346"
         d="m 29.16,596.15 h 110.756 v 89.321 H 29.16 Z" />
    </clipPath>
    <clipPath
       id="clipPath14380"
       clipPathUnits="userSpaceOnUse">
      <path
         inkscape:connector-curvature="0"
         id="path14378"
         d="m 29.16,506.83 h 110.756 v 89.32 H 29.16 Z" />
    </clipPath>
    <clipPath
       id="clipPath14412"
       clipPathUnits="userSpaceOnUse">
      <path
         inkscape:connector-curvature="0"
         id="path14410"
         d="m 29.16,417.508 h 110.756 v 89.321 H 29.16 Z" />
    </clipPath>
    <clipPath
       id="clipPath14444"
       clipPathUnits="userSpaceOnUse">
      <path
         inkscape:connector-curvature="0"
         id="path14442"
         d="m 29.16,328.187 h 110.756 v 89.321 H 29.16 Z" />
    </clipPath>
    <clipPath
       id="clipPath14476"
       clipPathUnits="userSpaceOnUse">
      <path
         inkscape:connector-curvature="0"
         id="path14474"
         d="m 29.16,238.867 h 110.756 v 89.32 H 29.16 Z" />
    </clipPath>
    <clipPath
       id="clipPath14508"
       clipPathUnits="userSpaceOnUse">
      <path
         inkscape:connector-curvature="0"
         id="path14506"
         d="m 29.16,149.546 h 110.756 v 89.321 H 29.16 Z" />
    </clipPath>
    <clipPath
       id="clipPath14540"
       clipPathUnits="userSpaceOnUse">
      <path
         inkscape:connector-curvature="0"
         id="path14538"
         d="m 29.16,60.22397 h 110.756 v 89.321 H 29.16 Z" />
    </clipPath>
    <clipPath
       id="clipPath14572"
       clipPathUnits="userSpaceOnUse">
      <path
         inkscape:connector-curvature="0"
         id="path14570"
         d="m 29.16,24.76997 h 110.756 v 35.455 H 29.16 Z" />
    </clipPath>
    <clipPath
       id="clipPath14592"
       clipPathUnits="userSpaceOnUse">
      <path
         inkscape:connector-curvature="0"
         id="path14590"
         d="M 0,-2.868931e-5 H 595.276 V 841.88997 H 0 Z" />
    </clipPath>
  </defs>
  <sodipodi:namedview
     id="base"
     pagecolor="#ffffff"
     bordercolor="#666666"
     borderopacity="1.0"
     inkscape:pageopacity="0.0"
     inkscape:pageshadow="2"
     inkscape:zoom="0.64"
     inkscape:cx="269.33626"
     inkscape:cy="155.38934"
     inkscape:document-units="mm"
     inkscape:current-layer="layer1"
     showgrid="false"
     fit-margin-top="19.7"
     fit-margin-left="20"
     fit-margin-bottom="19.9"
     fit-margin-right="20"
     inkscape:window-width="1920"
     inkscape:window-height="1025"
     inkscape:window-x="0"
     inkscape:window-y="27"
     inkscape:window-maximized="1" />
  <metadata
     id="metadata5">
    <rdf:RDF>
      <cc:Work
         rdf:about="">
        <dc:format>image/svg+xml</dc:format>
        <dc:type
           rdf:resource="http://purl.org/dc/dcmitype/StillImage" />
        <dc:title></dc:title>
      </cc:Work>
    </rdf:RDF>
  </metadata>
  <g
     inkscape:label="axis"
     inkscape:groupmode="layer"
     id="layer1"
     transform="translate(-13.639881,-107.66491)"
     style="display:inline">
    <g
       clip-path="url(#clipPath12620)"
       id="g12616"
       transform="matrix(0.35277777,0,0,-0.35277777,207.10488,343.57512)">
      <g
         transform="translate(322.6293,60.45267)"
         id="g12622">
        <path
           inkscape:connector-curvature="0"
           id="path12624"
           style="fill:none;stroke:#d0d2d3;stroke-width:0.292;stroke-linecap:butt;stroke-linejoin:miter;stroke-miterlimit:10;stroke-dasharray:none;stroke-opacity:1"
           d="M 0,0 H 122.196" />
      </g>
      <g
         transform="translate(200.4335,60.45267)"
         id="g12626">
        <path
           inkscape:connector-curvature="0"
           id="path12628"
           style="fill:none;stroke:#d0d2d3;stroke-width:0.292;stroke-linecap:butt;stroke-linejoin:miter;stroke-miterlimit:10;stroke-dasharray:none;stroke-opacity:1"
           d="M 0,0 H 122.196" />
      </g>
      <g
         transform="translate(322.6293,78.31698)"
         id="g12630">
        <path
           inkscape:connector-curvature="0"
           id="path12632"
           style="fill:none;stroke:#d0d2d3;stroke-width:0.292;stroke-linecap:butt;stroke-linejoin:miter;stroke-miterlimit:10;stroke-dasharray:none;stroke-opacity:1"
           d="M 0,0 H 122.196" />
      </g>
      <g
         transform="translate(200.4335,78.31698)"
         id="g12634">
        <path
           inkscape:connector-curvature="0"
           id="path12636"
           style="fill:none;stroke:#d0d2d3;stroke-width:0.292;stroke-linecap:butt;stroke-linejoin:miter;stroke-miterlimit:10;stroke-dasharray:none;stroke-opacity:1"
           d="M 0,0 H 122.196" />
      </g>
      <g
         transform="translate(322.6293,96.18118)"
         id="g12638">
        <path
           inkscape:connector-curvature="0"
           id="path12640"
           style="fill:none;stroke:#d0d2d3;stroke-width:0.292;stroke-linecap:butt;stroke-linejoin:miter;stroke-miterlimit:10;stroke-dasharray:none;stroke-opacity:1"
           d="M 0,0 H 122.196" />
      </g>
      <g
         transform="translate(200.4335,96.18118)"
         id="g12642">
        <path
           inkscape:connector-curvature="0"
           id="path12644"
           style="fill:none;stroke:#d0d2d3;stroke-width:0.292;stroke-linecap:butt;stroke-linejoin:miter;stroke-miterlimit:10;stroke-dasharray:none;stroke-opacity:1"
           d="M 0,0 H 122.196" />
      </g>
      <g
         transform="translate(322.6293,114.0455)"
         id="g12646">
        <path
           inkscape:connector-curvature="0"
           id="path12648"
           style="fill:none;stroke:#d0d2d3;stroke-width:0.292;stroke-linecap:butt;stroke-linejoin:miter;stroke-miterlimit:10;stroke-dasharray:none;stroke-opacity:1"
           d="M 0,0 H 122.196" />
      </g>
      <g
         transform="translate(200.4335,114.0455)"
         id="g12650">
        <path
           inkscape:connector-curvature="0"
           id="path12652"
           style="fill:none;stroke:#d0d2d3;stroke-width:0.292;stroke-linecap:butt;stroke-linejoin:miter;stroke-miterlimit:10;stroke-dasharray:none;stroke-opacity:1"
           d="M 0,0 H 122.196" />
      </g>
      <g
         transform="translate(322.6293,131.9097)"
         id="g12654">
        <path
           inkscape:connector-curvature="0"
           id="path12656"
           style="fill:none;stroke:#d0d2d3;stroke-width:0.292;stroke-linecap:butt;stroke-linejoin:miter;stroke-miterlimit:10;stroke-dasharray:none;stroke-opacity:1"
           d="M 0,0 H 122.196" />
      </g>
      <g
         transform="translate(200.4335,131.9097)"
         id="g12658">
        <path
           inkscape:connector-curvature="0"
           id="path12660"
           style="fill:none;stroke:#d0d2d3;stroke-width:0.292;stroke-linecap:butt;stroke-linejoin:miter;stroke-miterlimit:10;stroke-dasharray:none;stroke-opacity:1"
           d="M 0,0 H 122.196" />
      </g>
      <g
         transform="translate(322.6293,149.774)"
         id="g12662">
        <path
           inkscape:connector-curvature="0"
           id="path12664"
           style="fill:none;stroke:#d0d2d3;stroke-width:0.292;stroke-linecap:butt;stroke-linejoin:miter;stroke-miterlimit:10;stroke-dasharray:none;stroke-opacity:1"
           d="M 0,0 H 122.196" />
      </g>
      <g
         transform="translate(200.4335,149.774)"
         id="g12666">
        <path
           inkscape:connector-curvature="0"
           id="path12668"
           style="fill:none;stroke:#d0d2d3;stroke-width:0.292;stroke-linecap:butt;stroke-linejoin:miter;stroke-miterlimit:10;stroke-dasharray:none;stroke-opacity:1"
           d="M 0,0 H 122.196" />
      </g>
    </g>
    <g
       clip-path="url(#clipPath12676)"
       id="g12672"
       transform="matrix(0.35277777,0,0,-0.35277777,207.10488,343.57512)">
      <g
         transform="translate(322.6293,24.72417)"
         id="g12678">
        <path
           inkscape:connector-curvature="0"
           id="path12680"
           style="fill:none;stroke:#d0d2d3;stroke-width:0.292;stroke-linecap:butt;stroke-linejoin:miter;stroke-miterlimit:10;stroke-dasharray:none;stroke-opacity:1"
           d="M 0,0 H 122.196" />
      </g>
      <g
         transform="translate(200.4335,24.72417)"
         id="g12682">
        <path
           inkscape:connector-curvature="0"
           id="path12684"
           style="fill:none;stroke:#d0d2d3;stroke-width:0.292;stroke-linecap:butt;stroke-linejoin:miter;stroke-miterlimit:10;stroke-dasharray:none;stroke-opacity:1"
           d="M 0,0 H 122.196" />
      </g>
      <g
         transform="translate(322.6293,42.58837)"
         id="g12686">
        <path
           inkscape:connector-curvature="0"
           id="path12688"
           style="fill:none;stroke:#d0d2d3;stroke-width:0.292;stroke-linecap:butt;stroke-linejoin:miter;stroke-miterlimit:10;stroke-dasharray:none;stroke-opacity:1"
           d="M 0,0 H 122.196" />
      </g>
      <g
         transform="translate(200.4335,42.58837)"
         id="g12690">
        <path
           inkscape:connector-curvature="0"
           id="path12692"
           style="fill:none;stroke:#d0d2d3;stroke-width:0.292;stroke-linecap:butt;stroke-linejoin:miter;stroke-miterlimit:10;stroke-dasharray:none;stroke-opacity:1"
           d="M 0,0 H 122.196" />
      </g>
      <g
         transform="translate(322.6293,60.45267)"
         id="g12694">
        <path
           inkscape:connector-curvature="0"
           id="path12696"
           style="fill:none;stroke:#d0d2d3;stroke-width:0.292;stroke-linecap:butt;stroke-linejoin:miter;stroke-miterlimit:10;stroke-dasharray:none;stroke-opacity:1"
           d="M 0,0 H 122.196" />
      </g>
      <g
         transform="translate(200.4335,60.45267)"
         id="g12698">
        <path
           inkscape:connector-curvature="0"
           id="path12700"
           style="fill:none;stroke:#d0d2d3;stroke-width:0.292;stroke-linecap:butt;stroke-linejoin:miter;stroke-miterlimit:10;stroke-dasharray:none;stroke-opacity:1"
           d="M 0,0 H 122.196" />
      </g>
    </g>
    <g
       clip-path="url(#clipPath12948)"
       id="g12944"
       transform="matrix(0.35277777,0,0,-0.35277777,207.10488,343.57512)">
      <g
         transform="translate(200.4335,60.45267)"
         id="g12950">
        <path
           inkscape:connector-curvature="0"
           id="path12952"
           style="fill:none;stroke:#d0d2d3;stroke-width:0.292;stroke-linecap:butt;stroke-linejoin:miter;stroke-miterlimit:10;stroke-dasharray:none;stroke-opacity:1"
           d="M 0,0 H 122.196" />
      </g>
      <g
         transform="translate(200.4335,78.31698)"
         id="g12954">
        <path
           inkscape:connector-curvature="0"
           id="path12956"
           style="fill:none;stroke:#d0d2d3;stroke-width:0.292;stroke-linecap:butt;stroke-linejoin:miter;stroke-miterlimit:10;stroke-dasharray:none;stroke-opacity:1"
           d="M 0,0 H 122.196" />
      </g>
      <g
         transform="translate(200.4335,96.18118)"
         id="g12958">
        <path
           inkscape:connector-curvature="0"
           id="path12960"
           style="fill:none;stroke:#d0d2d3;stroke-width:0.292;stroke-linecap:butt;stroke-linejoin:miter;stroke-miterlimit:10;stroke-dasharray:none;stroke-opacity:1"
           d="M 0,0 H 122.196" />
      </g>
      <g
         transform="translate(200.4335,114.0455)"
         id="g12962">
        <path
           inkscape:connector-curvature="0"
           id="path12964"
           style="fill:none;stroke:#d0d2d3;stroke-width:0.292;stroke-linecap:butt;stroke-linejoin:miter;stroke-miterlimit:10;stroke-dasharray:none;stroke-opacity:1"
           d="M 0,0 H 122.196" />
      </g>
      <g
         transform="translate(200.4335,131.9097)"
         id="g12966">
        <path
           inkscape:connector-curvature="0"
           id="path12968"
           style="fill:none;stroke:#d0d2d3;stroke-width:0.292;stroke-linecap:butt;stroke-linejoin:miter;stroke-miterlimit:10;stroke-dasharray:none;stroke-opacity:1"
           d="M 0,0 H 122.196" />
      </g>
      <g
         transform="translate(200.4335,149.774)"
         id="g12970">
        <path
           inkscape:connector-curvature="0"
           id="path12972"
           style="fill:none;stroke:#d0d2d3;stroke-width:0.292;stroke-linecap:butt;stroke-linejoin:miter;stroke-miterlimit:10;stroke-dasharray:none;stroke-opacity:1"
           d="M 0,0 H 122.196" />
      </g>
    </g>
    <g
       clip-path="url(#clipPath12980)"
       id="g12976"
       transform="matrix(0.35277777,0,0,-0.35277777,207.10488,343.57512)">
      <g
         transform="translate(200.4335,24.72417)"
         id="g12982">
        <path
           inkscape:connector-curvature="0"
           id="path12984"
           style="fill:none;stroke:#d0d2d3;stroke-width:0.292;stroke-linecap:butt;stroke-linejoin:miter;stroke-miterlimit:10;stroke-dasharray:none;stroke-opacity:1"
           d="M 0,0 H 122.196" />
      </g>
      <g
         transform="translate(200.4335,42.58837)"
         id="g12986">
        <path
           inkscape:connector-curvature="0"
           id="path12988"
           style="fill:none;stroke:#d0d2d3;stroke-width:0.292;stroke-linecap:butt;stroke-linejoin:miter;stroke-miterlimit:10;stroke-dasharray:none;stroke-opacity:1"
           d="M 0,0 H 122.196" />
      </g>
      <g
         transform="translate(200.4335,60.45267)"
         id="g12990">
        <path
           inkscape:connector-curvature="0"
           id="path12992"
           style="fill:none;stroke:#d0d2d3;stroke-width:0.292;stroke-linecap:butt;stroke-linejoin:miter;stroke-miterlimit:10;stroke-dasharray:none;stroke-opacity:1"
           d="M 0,0 H 122.196" />
      </g>
    </g>
    <g
       clip-path="url(#clipPath13416)"
       id="g13412"
       transform="matrix(0.35277777,0,0,-0.35277777,207.10488,343.57512)">
      <g
         transform="translate(505.2509,60.45267)"
         id="g13418">
        <path
           inkscape:connector-curvature="0"
           id="path13420"
           style="fill:none;stroke:#d0d2d3;stroke-width:0.292;stroke-linecap:butt;stroke-linejoin:miter;stroke-miterlimit:10;stroke-dasharray:none;stroke-opacity:1"
           d="M 0,0 H 122.196" />
      </g>
      <g
         transform="translate(383.0551,60.45267)"
         id="g13422">
        <path
           inkscape:connector-curvature="0"
           id="path13424"
           style="fill:none;stroke:#d0d2d3;stroke-width:0.292;stroke-linecap:butt;stroke-linejoin:miter;stroke-miterlimit:10;stroke-dasharray:none;stroke-opacity:1"
           d="M 0,0 H 122.196" />
      </g>
      <g
         transform="translate(505.2509,78.31698)"
         id="g13426">
        <path
           inkscape:connector-curvature="0"
           id="path13428"
           style="fill:none;stroke:#d0d2d3;stroke-width:0.292;stroke-linecap:butt;stroke-linejoin:miter;stroke-miterlimit:10;stroke-dasharray:none;stroke-opacity:1"
           d="M 0,0 H 122.196" />
      </g>
      <g
         transform="translate(383.0551,78.31698)"
         id="g13430">
        <path
           inkscape:connector-curvature="0"
           id="path13432"
           style="fill:none;stroke:#d0d2d3;stroke-width:0.292;stroke-linecap:butt;stroke-linejoin:miter;stroke-miterlimit:10;stroke-dasharray:none;stroke-opacity:1"
           d="M 0,0 H 122.196" />
      </g>
      <g
         transform="translate(505.2509,96.18118)"
         id="g13434">
        <path
           inkscape:connector-curvature="0"
           id="path13436"
           style="fill:none;stroke:#d0d2d3;stroke-width:0.292;stroke-linecap:butt;stroke-linejoin:miter;stroke-miterlimit:10;stroke-dasharray:none;stroke-opacity:1"
           d="M 0,0 H 122.196" />
      </g>
      <g
         transform="translate(383.0551,96.18118)"
         id="g13438">
        <path
           inkscape:connector-curvature="0"
           id="path13440"
           style="fill:none;stroke:#d0d2d3;stroke-width:0.292;stroke-linecap:butt;stroke-linejoin:miter;stroke-miterlimit:10;stroke-dasharray:none;stroke-opacity:1"
           d="M 0,0 H 122.196" />
      </g>
      <g
         transform="translate(505.2509,114.0455)"
         id="g13442">
        <path
           inkscape:connector-curvature="0"
           id="path13444"
           style="fill:none;stroke:#d0d2d3;stroke-width:0.292;stroke-linecap:butt;stroke-linejoin:miter;stroke-miterlimit:10;stroke-dasharray:none;stroke-opacity:1"
           d="M 0,0 H 122.196" />
      </g>
      <g
         transform="translate(383.0551,114.0455)"
         id="g13446">
        <path
           inkscape:connector-curvature="0"
           id="path13448"
           style="fill:none;stroke:#d0d2d3;stroke-width:0.292;stroke-linecap:butt;stroke-linejoin:miter;stroke-miterlimit:10;stroke-dasharray:none;stroke-opacity:1"
           d="M 0,0 H 122.196" />
      </g>
      <g
         transform="translate(505.2509,131.9097)"
         id="g13450">
        <path
           inkscape:connector-curvature="0"
           id="path13452"
           style="fill:none;stroke:#d0d2d3;stroke-width:0.292;stroke-linecap:butt;stroke-linejoin:miter;stroke-miterlimit:10;stroke-dasharray:none;stroke-opacity:1"
           d="M 0,0 H 122.196" />
      </g>
      <g
         transform="translate(383.0551,131.9097)"
         id="g13454">
        <path
           inkscape:connector-curvature="0"
           id="path13456"
           style="fill:none;stroke:#d0d2d3;stroke-width:0.292;stroke-linecap:butt;stroke-linejoin:miter;stroke-miterlimit:10;stroke-dasharray:none;stroke-opacity:1"
           d="M 0,0 H 122.196" />
      </g>
      <g
         transform="translate(505.2509,149.774)"
         id="g13458">
        <path
           inkscape:connector-curvature="0"
           id="path13460"
           style="fill:none;stroke:#d0d2d3;stroke-width:0.292;stroke-linecap:butt;stroke-linejoin:miter;stroke-miterlimit:10;stroke-dasharray:none;stroke-opacity:1"
           d="M 0,0 H 122.196" />
      </g>
      <g
         transform="translate(383.0551,149.774)"
         id="g13462">
        <path
           inkscape:connector-curvature="0"
           id="path13464"
           style="fill:none;stroke:#d0d2d3;stroke-width:0.292;stroke-linecap:butt;stroke-linejoin:miter;stroke-miterlimit:10;stroke-dasharray:none;stroke-opacity:1"
           d="M 0,0 H 122.196" />
      </g>
    </g>
    <g
       clip-path="url(#clipPath13472)"
       id="g13468"
       transform="matrix(0.35277777,0,0,-0.35277777,207.10488,343.57512)">
      <g
         transform="translate(505.2509,24.72417)"
         id="g13474">
        <path
           inkscape:connector-curvature="0"
           id="path13476"
           style="fill:none;stroke:#d0d2d3;stroke-width:0.292;stroke-linecap:butt;stroke-linejoin:miter;stroke-miterlimit:10;stroke-dasharray:none;stroke-opacity:1"
           d="M 0,0 H 122.196" />
      </g>
      <g
         transform="translate(383.0551,24.72417)"
         id="g13478">
        <path
           inkscape:connector-curvature="0"
           id="path13480"
           style="fill:none;stroke:#d0d2d3;stroke-width:0.292;stroke-linecap:butt;stroke-linejoin:miter;stroke-miterlimit:10;stroke-dasharray:none;stroke-opacity:1"
           d="M 0,0 H 122.196" />
      </g>
      <g
         transform="translate(505.2509,42.58837)"
         id="g13482">
        <path
           inkscape:connector-curvature="0"
           id="path13484"
           style="fill:none;stroke:#d0d2d3;stroke-width:0.292;stroke-linecap:butt;stroke-linejoin:miter;stroke-miterlimit:10;stroke-dasharray:none;stroke-opacity:1"
           d="M 0,0 H 122.196" />
      </g>
      <g
         transform="translate(383.0551,42.58837)"
         id="g13486">
        <path
           inkscape:connector-curvature="0"
           id="path13488"
           style="fill:none;stroke:#d0d2d3;stroke-width:0.292;stroke-linecap:butt;stroke-linejoin:miter;stroke-miterlimit:10;stroke-dasharray:none;stroke-opacity:1"
           d="M 0,0 H 122.196" />
      </g>
      <g
         transform="translate(505.2509,60.45267)"
         id="g13490">
        <path
           inkscape:connector-curvature="0"
           id="path13492"
           style="fill:none;stroke:#d0d2d3;stroke-width:0.292;stroke-linecap:butt;stroke-linejoin:miter;stroke-miterlimit:10;stroke-dasharray:none;stroke-opacity:1"
           d="M 0,0 H 122.196" />
      </g>
      <g
         transform="translate(383.0551,60.45267)"
         id="g13494">
        <path
           inkscape:connector-curvature="0"
           id="path13496"
           style="fill:none;stroke:#d0d2d3;stroke-width:0.292;stroke-linecap:butt;stroke-linejoin:miter;stroke-miterlimit:10;stroke-dasharray:none;stroke-opacity:1"
           d="M 0,0 H 122.196" />
      </g>
    </g>
    <g
       clip-path="url(#clipPath13744)"
       id="g13740"
       transform="matrix(0.35277777,0,0,-0.35277777,207.10488,343.57512)">
      <g
         transform="translate(383.0551,60.45267)"
         id="g13746">
        <path
           inkscape:connector-curvature="0"
           id="path13748"
           style="fill:none;stroke:#d0d2d3;stroke-width:0.292;stroke-linecap:butt;stroke-linejoin:miter;stroke-miterlimit:10;stroke-dasharray:none;stroke-opacity:1"
           d="M 0,0 H 122.196" />
      </g>
      <g
         transform="translate(383.0551,78.31698)"
         id="g13750">
        <path
           inkscape:connector-curvature="0"
           id="path13752"
           style="fill:none;stroke:#d0d2d3;stroke-width:0.292;stroke-linecap:butt;stroke-linejoin:miter;stroke-miterlimit:10;stroke-dasharray:none;stroke-opacity:1"
           d="M 0,0 H 122.196" />
      </g>
      <g
         transform="translate(383.0551,96.18118)"
         id="g13754">
        <path
           inkscape:connector-curvature="0"
           id="path13756"
           style="fill:none;stroke:#d0d2d3;stroke-width:0.292;stroke-linecap:butt;stroke-linejoin:miter;stroke-miterlimit:10;stroke-dasharray:none;stroke-opacity:1"
           d="M 0,0 H 122.196" />
      </g>
      <g
         transform="translate(383.0551,114.0455)"
         id="g13758">
        <path
           inkscape:connector-curvature="0"
           id="path13760"
           style="fill:none;stroke:#d0d2d3;stroke-width:0.292;stroke-linecap:butt;stroke-linejoin:miter;stroke-miterlimit:10;stroke-dasharray:none;stroke-opacity:1"
           d="M 0,0 H 122.196" />
      </g>
      <g
         transform="translate(383.0551,131.9097)"
         id="g13762">
        <path
           inkscape:connector-curvature="0"
           id="path13764"
           style="fill:none;stroke:#d0d2d3;stroke-width:0.292;stroke-linecap:butt;stroke-linejoin:miter;stroke-miterlimit:10;stroke-dasharray:none;stroke-opacity:1"
           d="M 0,0 H 122.196" />
      </g>
      <g
         transform="translate(383.0551,149.774)"
         id="g13766">
        <path
           inkscape:connector-curvature="0"
           id="path13768"
           style="fill:none;stroke:#d0d2d3;stroke-width:0.292;stroke-linecap:butt;stroke-linejoin:miter;stroke-miterlimit:10;stroke-dasharray:none;stroke-opacity:1"
           d="M 0,0 H 122.196" />
      </g>
    </g>
    <g
       clip-path="url(#clipPath13776)"
       id="g13772"
       transform="matrix(0.35277777,0,0,-0.35277777,207.10488,343.57512)">
      <g
         transform="translate(383.0551,24.72417)"
         id="g13778">
        <path
           inkscape:connector-curvature="0"
           id="path13780"
           style="fill:none;stroke:#d0d2d3;stroke-width:0.292;stroke-linecap:butt;stroke-linejoin:miter;stroke-miterlimit:10;stroke-dasharray:none;stroke-opacity:1"
           d="M 0,0 H 122.196" />
      </g>
      <g
         transform="translate(383.0551,42.58837)"
         id="g13782">
        <path
           inkscape:connector-curvature="0"
           id="path13784"
           style="fill:none;stroke:#d0d2d3;stroke-width:0.292;stroke-linecap:butt;stroke-linejoin:miter;stroke-miterlimit:10;stroke-dasharray:none;stroke-opacity:1"
           d="M 0,0 H 122.196" />
      </g>
      <g
         transform="translate(383.0551,60.45267)"
         id="g13786">
        <path
           inkscape:connector-curvature="0"
           id="path13788"
           style="fill:none;stroke:#d0d2d3;stroke-width:0.292;stroke-linecap:butt;stroke-linejoin:miter;stroke-miterlimit:10;stroke-dasharray:none;stroke-opacity:1"
           d="M 0,0 H 122.196" />
      </g>
    </g>
    <g
       clip-path="url(#clipPath14212)"
       id="g14208"
       transform="matrix(0.35277777,0,0,-0.35277777,207.10488,343.57512)">
      <g
         transform="translate(140.0077,60.45267)"
         id="g14214">
        <path
           inkscape:connector-curvature="0"
           id="path14216"
           style="fill:none;stroke:#d0d2d3;stroke-width:0.292;stroke-linecap:butt;stroke-linejoin:miter;stroke-miterlimit:10;stroke-dasharray:none;stroke-opacity:1"
           d="M 0,0 H 122.196" />
      </g>
      <g
         transform="translate(17.8119,60.45267)"
         id="g14218">
        <path
           inkscape:connector-curvature="0"
           id="path14220"
           style="fill:none;stroke:#d0d2d3;stroke-width:0.292;stroke-linecap:butt;stroke-linejoin:miter;stroke-miterlimit:10;stroke-dasharray:none;stroke-opacity:1"
           d="M 0,0 H 122.196" />
      </g>
      <g
         transform="translate(140.0077,78.31698)"
         id="g14222">
        <path
           inkscape:connector-curvature="0"
           id="path14224"
           style="fill:none;stroke:#d0d2d3;stroke-width:0.292;stroke-linecap:butt;stroke-linejoin:miter;stroke-miterlimit:10;stroke-dasharray:none;stroke-opacity:1"
           d="M 0,0 H 122.196" />
      </g>
      <g
         transform="translate(17.8119,78.31698)"
         id="g14226">
        <path
           inkscape:connector-curvature="0"
           id="path14228"
           style="fill:none;stroke:#d0d2d3;stroke-width:0.292;stroke-linecap:butt;stroke-linejoin:miter;stroke-miterlimit:10;stroke-dasharray:none;stroke-opacity:1"
           d="M 0,0 H 122.196" />
      </g>
      <g
         transform="translate(140.0077,96.18118)"
         id="g14230">
        <path
           inkscape:connector-curvature="0"
           id="path14232"
           style="fill:none;stroke:#d0d2d3;stroke-width:0.292;stroke-linecap:butt;stroke-linejoin:miter;stroke-miterlimit:10;stroke-dasharray:none;stroke-opacity:1"
           d="M 0,0 H 122.196" />
      </g>
      <g
         transform="translate(17.8119,96.18118)"
         id="g14234">
        <path
           inkscape:connector-curvature="0"
           id="path14236"
           style="fill:none;stroke:#d0d2d3;stroke-width:0.292;stroke-linecap:butt;stroke-linejoin:miter;stroke-miterlimit:10;stroke-dasharray:none;stroke-opacity:1"
           d="M 0,0 H 122.196" />
      </g>
      <g
         transform="translate(140.0077,114.0455)"
         id="g14238">
        <path
           inkscape:connector-curvature="0"
           id="path14240"
           style="fill:none;stroke:#d0d2d3;stroke-width:0.292;stroke-linecap:butt;stroke-linejoin:miter;stroke-miterlimit:10;stroke-dasharray:none;stroke-opacity:1"
           d="M 0,0 H 122.196" />
      </g>
      <g
         transform="translate(17.8119,114.0455)"
         id="g14242">
        <path
           inkscape:connector-curvature="0"
           id="path14244"
           style="fill:none;stroke:#d0d2d3;stroke-width:0.292;stroke-linecap:butt;stroke-linejoin:miter;stroke-miterlimit:10;stroke-dasharray:none;stroke-opacity:1"
           d="M 0,0 H 122.196" />
      </g>
      <g
         transform="translate(140.0077,131.9097)"
         id="g14246">
        <path
           inkscape:connector-curvature="0"
           id="path14248"
           style="fill:none;stroke:#d0d2d3;stroke-width:0.292;stroke-linecap:butt;stroke-linejoin:miter;stroke-miterlimit:10;stroke-dasharray:none;stroke-opacity:1"
           d="M 0,0 H 122.196" />
      </g>
      <g
         transform="translate(17.8119,131.9097)"
         id="g14250">
        <path
           inkscape:connector-curvature="0"
           id="path14252"
           style="fill:none;stroke:#d0d2d3;stroke-width:0.292;stroke-linecap:butt;stroke-linejoin:miter;stroke-miterlimit:10;stroke-dasharray:none;stroke-opacity:1"
           d="M 0,0 H 122.196" />
      </g>
      <g
         transform="translate(140.0077,149.774)"
         id="g14254">
        <path
           inkscape:connector-curvature="0"
           id="path14256"
           style="fill:none;stroke:#d0d2d3;stroke-width:0.292;stroke-linecap:butt;stroke-linejoin:miter;stroke-miterlimit:10;stroke-dasharray:none;stroke-opacity:1"
           d="M 0,0 H 122.196" />
      </g>
      <g
         transform="translate(17.8119,149.774)"
         id="g14258">
        <path
           inkscape:connector-curvature="0"
           id="path14260"
           style="fill:none;stroke:#d0d2d3;stroke-width:0.292;stroke-linecap:butt;stroke-linejoin:miter;stroke-miterlimit:10;stroke-dasharray:none;stroke-opacity:1"
           d="M 0,0 H 122.196" />
      </g>
    </g>
    <g
       clip-path="url(#clipPath14268)"
       id="g14264"
       transform="matrix(0.35277777,0,0,-0.35277777,207.10488,343.57512)">
      <g
         transform="translate(140.0077,24.72417)"
         id="g14270">
        <path
           inkscape:connector-curvature="0"
           id="path14272"
           style="fill:none;stroke:#d0d2d3;stroke-width:0.292;stroke-linecap:butt;stroke-linejoin:miter;stroke-miterlimit:10;stroke-dasharray:none;stroke-opacity:1"
           d="M 0,0 H 122.196" />
      </g>
      <g
         transform="translate(17.8119,24.72417)"
         id="g14274">
        <path
           inkscape:connector-curvature="0"
           id="path14276"
           style="fill:none;stroke:#d0d2d3;stroke-width:0.292;stroke-linecap:butt;stroke-linejoin:miter;stroke-miterlimit:10;stroke-dasharray:none;stroke-opacity:1"
           d="M 0,0 H 122.196" />
      </g>
      <g
         transform="translate(140.0077,42.58837)"
         id="g14278">
        <path
           inkscape:connector-curvature="0"
           id="path14280"
           style="fill:none;stroke:#d0d2d3;stroke-width:0.292;stroke-linecap:butt;stroke-linejoin:miter;stroke-miterlimit:10;stroke-dasharray:none;stroke-opacity:1"
           d="M 0,0 H 122.196" />
      </g>
      <g
         transform="translate(17.8119,42.58837)"
         id="g14282">
        <path
           inkscape:connector-curvature="0"
           id="path14284"
           style="fill:none;stroke:#d0d2d3;stroke-width:0.292;stroke-linecap:butt;stroke-linejoin:miter;stroke-miterlimit:10;stroke-dasharray:none;stroke-opacity:1"
           d="M 0,0 H 122.196" />
      </g>
      <g
         transform="translate(140.0077,60.45267)"
         id="g14286">
        <path
           inkscape:connector-curvature="0"
           id="path14288"
           style="fill:none;stroke:#d0d2d3;stroke-width:0.292;stroke-linecap:butt;stroke-linejoin:miter;stroke-miterlimit:10;stroke-dasharray:none;stroke-opacity:1"
           d="M 0,0 H 122.196" />
      </g>
      <g
         transform="translate(17.8119,60.45267)"
         id="g14290">
        <path
           inkscape:connector-curvature="0"
           id="path14292"
           style="fill:none;stroke:#d0d2d3;stroke-width:0.292;stroke-linecap:butt;stroke-linejoin:miter;stroke-miterlimit:10;stroke-dasharray:none;stroke-opacity:1"
           d="M 0,0 H 122.196" />
      </g>
    </g>
    <g
       clip-path="url(#clipPath14540)"
       id="g14536"
       transform="matrix(0.35277777,0,0,-0.35277777,207.10488,343.57512)">
      <g
         transform="translate(17.8119,60.45267)"
         id="g14542">
        <path
           inkscape:connector-curvature="0"
           id="path14544"
           style="fill:none;stroke:#d0d2d3;stroke-width:0.292;stroke-linecap:butt;stroke-linejoin:miter;stroke-miterlimit:10;stroke-dasharray:none;stroke-opacity:1"
           d="M 0,0 H 122.196" />
      </g>
      <g
         transform="translate(17.8119,78.31698)"
         id="g14546">
        <path
           inkscape:connector-curvature="0"
           id="path14548"
           style="fill:none;stroke:#d0d2d3;stroke-width:0.292;stroke-linecap:butt;stroke-linejoin:miter;stroke-miterlimit:10;stroke-dasharray:none;stroke-opacity:1"
           d="M 0,0 H 122.196" />
      </g>
      <g
         transform="translate(17.8119,96.18118)"
         id="g14550">
        <path
           inkscape:connector-curvature="0"
           id="path14552"
           style="fill:none;stroke:#d0d2d3;stroke-width:0.292;stroke-linecap:butt;stroke-linejoin:miter;stroke-miterlimit:10;stroke-dasharray:none;stroke-opacity:1"
           d="M 0,0 H 122.196" />
      </g>
      <g
         transform="translate(17.8119,114.0455)"
         id="g14554">
        <path
           inkscape:connector-curvature="0"
           id="path14556"
           style="fill:none;stroke:#d0d2d3;stroke-width:0.292;stroke-linecap:butt;stroke-linejoin:miter;stroke-miterlimit:10;stroke-dasharray:none;stroke-opacity:1"
           d="M 0,0 H 122.196" />
      </g>
      <g
         transform="translate(17.8119,131.9097)"
         id="g14558">
        <path
           inkscape:connector-curvature="0"
           id="path14560"
           style="fill:none;stroke:#d0d2d3;stroke-width:0.292;stroke-linecap:butt;stroke-linejoin:miter;stroke-miterlimit:10;stroke-dasharray:none;stroke-opacity:1"
           d="M 0,0 H 122.196" />
      </g>
      <g
         transform="translate(17.8119,149.774)"
         id="g14562">
        <path
           inkscape:connector-curvature="0"
           id="path14564"
           style="fill:none;stroke:#d0d2d3;stroke-width:0.292;stroke-linecap:butt;stroke-linejoin:miter;stroke-miterlimit:10;stroke-dasharray:none;stroke-opacity:1"
           d="M 0,0 H 122.196" />
      </g>
    </g>
    <g
       clip-path="url(#clipPath14572)"
       id="g14568"
       transform="matrix(0.35277777,0,0,-0.35277777,207.10488,343.57512)">
      <g
         transform="translate(17.8119,24.72417)"
         id="g14574">
        <path
           inkscape:connector-curvature="0"
           id="path14576"
           style="fill:none;stroke:#d0d2d3;stroke-width:0.292;stroke-linecap:butt;stroke-linejoin:miter;stroke-miterlimit:10;stroke-dasharray:none;stroke-opacity:1"
           d="M 0,0 H 122.196" />
      </g>
      <g
         transform="translate(17.8119,42.58837)"
         id="g14578">
        <path
           inkscape:connector-curvature="0"
           id="path14580"
           style="fill:none;stroke:#d0d2d3;stroke-width:0.292;stroke-linecap:butt;stroke-linejoin:miter;stroke-miterlimit:10;stroke-dasharray:none;stroke-opacity:1"
           d="M 0,0 H 122.196" />
      </g>
      <g
         transform="translate(17.8119,60.45267)"
         id="g14582">
        <path
           inkscape:connector-curvature="0"
           id="path14584"
           style="fill:none;stroke:#d0d2d3;stroke-width:0.292;stroke-linecap:butt;stroke-linejoin:miter;stroke-miterlimit:10;stroke-dasharray:none;stroke-opacity:1"
           d="M 0,0 H 122.196" />
      </g>
    </g>
    <g
       transform="matrix(0.22449497,0,0,0.85537779,325.21982,78.792647)"
       id="g14606" />
    <path
       inkscape:connector-curvature="0"
       id="path14600"
       style="display:inline;fill:#a42604;fill-opacity:1;fill-rule:nonzero;stroke:none;stroke-width:0.51238459"
       d="m 26.720219,133.23042 c -0.699548,-0.0145 -1.497033,0.27705 -1.843452,0.92517 v 0 c -0.177544,0.33212 -0.07204,0.74485 0.243079,0.95108 0.440551,0.28832 0.994696,0.39895 1.512908,0.42774 v 0 c 0.635772,0.0353 1.17988,-0.45146 1.215175,-1.08728 0.03529,-0.63577 -0.451401,-1.17986 -1.087231,-1.21517 -0.01307,-10e-4 -0.02702,-10e-4 -0.04052,-10e-4 z m 1.757439,0.0935 c -0.584937,-0.0428 -1.170963,-0.0816 -1.757439,-0.0935 v 0 c -0.636628,-0.0131 -1.163265,0.49256 -1.176278,1.12925 -0.01307,0.62085 0.468727,1.14026 1.088769,1.17474 0.554349,0.0308 1.107928,0.0757 1.661143,0.12229 v 0 c 0.64392,0.0543 1.209902,-0.4237 1.264209,-1.06761 0.05432,-0.64386 -0.42363,-1.2099 -1.06755,-1.26421 -0.0044,-3.6e-4 -0.0087,-5e-4 -0.01307,-0.001 z m 2.584873,0.0866 c -0.861828,-0.006 -1.725093,-0.0237 -2.584873,-0.0866 v 0 c -0.644486,-0.0472 -1.205182,0.43697 -1.252371,1.08144 -0.04677,0.6394 0.429686,1.19744 1.068566,1.25135 0.900274,0.0758 1.802828,0.1239 2.705294,0.16458 v -6e-5 c 0.665387,0.0301 1.229104,-0.48502 1.25914,-1.1504 0.02992,-0.66538 -0.485082,-1.22911 -1.150455,-1.25909 -0.0151,-5.1e-4 -0.03021,-0.001 -0.04531,-0.001 v 4e-5 z m 3.521879,0.0225 c -1.173984,-0.006 -2.347953,-0.0131 -3.521879,-0.0225 v -4e-5 c -0.666055,-0.006 -1.210004,0.53093 -1.214971,1.19693 -0.0058,0.64842 0.503833,1.18457 1.151587,1.21378 1.176177,0.053 2.352615,0.10138 3.529097,0.14706 v 0 c 0.699824,0.0272 1.289118,-0.51817 1.316264,-1.218 0.02716,-0.69981 -0.518169,-1.2891 -1.217978,-1.31626 -0.01452,-5.1e-4 -0.02803,-0.001 -0.04212,-0.001 z m 4.177621,0.0892 c -1.392052,-0.049 -2.784757,-0.0816 -4.177621,-0.0892 v 0 c -0.700332,-0.004 -1.271224,0.5607 -1.275073,1.26103 -0.0029,0.68392 0.535496,1.24765 1.218907,1.27414 1.374637,0.0533 2.748896,0.11533 4.12285,0.18292 v 0 c 0.72575,0.0357 1.343018,-0.5236 1.378733,-1.24935 0.03573,-0.72569 -0.523601,-1.34296 -1.24935,-1.37867 -0.0058,-3.1e-4 -0.01162,-5.1e-4 -0.01845,-5.1e-4 v -4e-5 z m 4.572682,0.15444 c -1.524252,-0.0494 -3.048489,-0.1008 -4.572624,-0.15444 v 4e-5 c -0.726156,-0.0256 -1.335537,0.54237 -1.361057,1.26853 -0.02527,0.71892 0.531546,1.32486 1.250062,1.36027 1.528914,0.0752 3.05822,0.14219 4.587802,0.20209 v 0 c 0.73901,0.0289 1.36155,-0.54667 1.390497,-1.28568 0.0289,-0.73896 -0.546651,-1.36156 -1.285675,-1.39051 -0.0029,-1e-4 -0.0058,-2e-4 -0.0087,-3e-4 z m 3.673381,0.1098 c -1.224601,-0.0311 -2.448998,-0.0702 -3.673381,-0.1098 v 0 c -0.739171,-0.024 -1.357833,0.55577 -1.381812,1.295 -0.02382,0.73568 0.550456,1.35269 1.285995,1.38149 1.235349,0.0484 2.470973,0.095 3.707048,0.12084 v 0 c 0.742192,0.0155 1.356482,-0.57356 1.372008,-1.31575 0.0154,-0.73988 -0.57002,-1.3531 -1.309858,-1.37185 z m 8.301241,0.037 c -1.861593,-0.001 -3.723185,-0.003 -5.584778,-0.0116 -0.905342,-0.004 -1.811338,-0.003 -2.716463,-0.0257 v 0 c -0.74209,-0.0187 -1.358951,0.56757 -1.377745,1.3097 -0.01888,0.74215 0.567566,1.35895 1.309699,1.37776 0.0015,4e-5 0.0044,10e-5 0.0058,1.4e-4 0.922293,0.0193 1.84521,0.0183 2.767705,0.0218 1.864774,0.007 3.729591,0.009 5.594422,0.009 v 0 c 0.74039,3.1e-4 1.340853,-0.5997 1.341115,-1.34009 3.05e-4,-0.74029 -0.59949,-1.34071 -1.339837,-1.34111 z m 9.868324,2.60936 v 0 c 0.728263,-0.0192 1.303163,-0.62505 1.283991,-1.3533 -0.01888,-0.72067 -0.612911,-1.29259 -1.333795,-1.28435 -3.272554,0.0376 -6.54582,0.0302 -9.81852,0.0283 v 0 c -0.74039,-4.7e-4 -1.340912,0.59943 -1.341376,1.33983 -4.22e-4,0.74039 0.599446,1.34096 1.339836,1.34137 1.02e-4,0 1.6e-4,0 2.62e-4,0 1.991744,0.001 3.983576,-0.001 5.975277,-0.0166 1.298167,-0.009 2.596566,-0.0212 3.894325,-0.0553 z m 0,0 c 1.231428,-0.0324 2.463436,-0.0434 3.69527,-0.0511 1.836799,-0.0116 3.673686,-0.0116 5.510558,-0.006 v 0 c 0.727667,0.001 1.319082,-0.58653 1.320926,-1.31417 0.0015,-0.72768 -0.586549,-1.31902 -1.314186,-1.32092 -0.0029,0 -0.0058,0 -0.0073,0 -3.084799,0.0102 -6.169772,0.0195 -9.254411,0.0548 v 0 c -0.728481,0.009 -1.312226,0.60569 -1.30386,1.33416 0.0087,0.72845 0.605677,1.31221 1.334128,1.30386 0.0058,-1e-4 0.01307,-2e-4 0.01946,-3.6e-4 z m 16.951777,-2.69841 c -0.866883,-0.0102 -1.734041,-0.007 -2.600966,-0.007 -1.715406,0.001 -3.430826,0.007 -5.146174,0.0131 v -6e-5 c -0.727681,0.003 -1.315508,0.59448 -1.312995,1.32212 0.0029,0.72456 0.589599,1.31114 1.314186,1.31298 2.573733,0.007 5.147597,0.009 7.721315,0.0243 v 0 c 0.736048,0.004 1.336351,-0.58859 1.340868,-1.32468 0.0044,-0.73275 -0.583513,-1.33163 -1.316234,-1.34069 z m 7.903653,2.66916 v 0 c 0.730717,-4.7e-4 1.32277,-0.59319 1.322305,-1.32395 -3.77e-4,-0.72989 -0.591908,-1.32155 -1.321797,-1.32232 -1.761695,-10e-4 -3.523404,-0.004 -5.285098,-0.009 -0.873041,-0.003 -1.74611,-0.003 -2.619063,-0.0131 v 0 c -0.73599,-0.009 -1.340026,0.58007 -1.349162,1.31611 -0.0087,0.73599 0.580086,1.34004 1.316119,1.34916 0.0029,4e-5 0.0058,4e-5 0.0087,10e-5 2.642622,0.0161 5.285607,0.006 7.928272,0.003 z m 0,0 c 3.605494,-0.001 7.211396,-0.0145 10.816321,-0.0792 v 0 c 0.73052,-0.0131 1.31211,-0.61589 1.29905,-1.34634 -0.0131,-0.7305 -0.61588,-1.31211 -1.34634,-1.29904 -0.001,4e-5 -0.001,4e-5 -0.003,1e-4 -3.58772,0.0732 -7.176875,0.0818 -10.765202,0.0781 v 0 c -0.730717,-5.1e-4 -1.323743,0.59104 -1.324455,1.32175 -3.92e-4,0.73077 0.590979,1.32375 1.321739,1.32452 3.78e-4,0 0.0015,0 0.0015,0 z m 10.816321,-0.0792 c 1.87728,-0.0335 3.75498,-0.0627 5.63184,-0.11561 v 0 c 0.73356,-0.0206 1.31156,-0.63213 1.29089,-1.36577 -0.0206,-0.73357 -0.63211,-1.31154 -1.36571,-1.2909 -3.7e-4,0 -0.001,6e-5 -0.001,6e-5 -1.86842,0.0545 -3.73753,0.0887 -5.60636,0.12694 v 0 c -0.73045,0.015 -1.310525,0.61911 -1.295565,1.34961 0.01481,0.72914 0.617065,1.30868 1.346245,1.29567 z m 5.63184,-0.11561 c 0.94191,-0.0266 1.88392,-0.0495 2.82605,-0.0686 v -4e-5 c 0.73414,-0.0148 1.31723,-0.62199 1.30242,-1.35613 -0.0148,-0.73415 -0.62203,-1.3173 -1.35618,-1.30243 -0.94958,0.0192 -1.89905,0.0429 -2.84844,0.0705 v 0 c -0.73357,0.0213 -1.31092,0.6334 -1.28957,1.36698 0.0214,0.73307 0.63259,1.31028 1.36572,1.28963 z m 2.82605,-0.0686 c 1.3989,-0.0283 2.79756,-0.0729 4.19608,-0.11764 v 5e-5 c 0.73648,-0.0235 1.31452,-0.63972 1.29095,-1.37627 -0.0235,-0.7365 -0.63973,-1.31447 -1.37621,-1.29095 -0.001,6e-5 -0.003,1e-4 -0.004,1.6e-4 -1.3864,0.0491 -2.77303,0.098 -4.16004,0.12607 v 0 c -0.73415,0.0148 -1.31724,0.62197 -1.30245,1.35617 0.0148,0.73409 0.62206,1.31724 1.35614,1.30238 l 6e-5,5e-5 z m 4.19608,-0.11764 c 1.84894,-0.0591 3.6973,-0.13377 5.54491,-0.22484 v 0 c 0.74,-0.0365 1.31028,-0.66584 1.27385,-1.40578 -0.0365,-0.73998 -0.66589,-1.31026 -1.40582,-1.27384 -0.001,5e-5 -0.001,1.1e-4 -0.003,1.6e-4 -1.83275,0.0935 -3.66631,0.17247 -5.50029,0.23733 v -4e-5 c -0.73646,0.026 -1.31233,0.64416 -1.2863,1.38062 0.026,0.73465 0.6413,1.3099 1.37606,1.28644 v -5e-5 z m 5.54497,-0.22484 c 1.3967,-0.0688 2.79351,-0.13813 4.18961,-0.21961 h -4e-5 c 0.74094,-0.0433 1.30652,-0.67901 1.26328,-1.41992 -0.0433,-0.74096 -0.67895,-1.30652 -1.41994,-1.26328 0,0 0,0 0,0 -1.38875,0.081 -2.77807,0.15239 -4.16737,0.22335 v 0 c -0.73988,0.0378 -1.30904,0.66819 -1.27126,1.40808 0.0378,0.73896 0.66669,1.30781 1.40572,1.27138 z m 4.18961,-0.21961 c 1.40855,-0.0824 2.81606,-0.18353 4.22327,-0.28534 v 0 c 0.73553,-0.0532 1.28866,-0.69259 1.23548,-1.42812 -0.053,-0.7323 -0.68723,-1.28445 -1.41988,-1.23603 -1.39825,0.0924 -2.79665,0.18456 -4.19561,0.26629 v 0 c -0.7409,0.0433 -1.30646,0.67901 -1.26324,1.41997 0.0433,0.74095 0.67907,1.30649 1.41998,1.26323 0,0 0,0 0,0 z m 4.22327,-0.28534 c 1.85399,-0.13406 3.70887,-0.25476 5.56445,-0.36267 v 0 c 0.72826,-0.0424 1.28429,-0.66708 1.24199,-1.39532 -0.0423,-0.72616 -0.66359,-1.28152 -1.38991,-1.24228 -1.86763,0.10094 -3.73461,0.2128 -5.60093,0.33612 v 0 c -0.73584,0.0487 -1.2929,0.6846 -1.24428,1.42043 0.0487,0.73585 0.68461,1.29296 1.42045,1.24428 0.003,-1.6e-4 0.006,-3.6e-4 0.009,-5.2e-4 z m 5.56445,-0.36267 c 1.80216,-0.10487 3.60607,-0.18118 5.41084,-0.22268 v 0 c 0.7402,-0.017 1.32643,-0.63084 1.30939,-1.37104 -0.017,-0.74019 -0.63084,-1.32646 -1.37103,-1.30946 -0.009,2.2e-4 -0.0173,5.4e-4 -0.0258,0.001 -1.8243,0.0773 -3.64803,0.16622 -5.47125,0.2647 v 0 c -0.72845,0.0394 -1.28706,0.66179 -1.24771,1.39026 0.0394,0.72841 0.6618,1.287 1.39026,1.24765 0.001,-1e-4 0.003,-2e-4 0.006,-3e-4 z m 5.41078,-0.22268 c 2.15834,-0.0497 4.31677,-0.0937 6.47516,-0.13623 v 0 c 0.75942,-0.015 1.36292,-0.64269 1.34796,-1.40205 -0.015,-0.7594 -0.64269,-1.36288 -1.40206,-1.34792 -0.001,4e-5 -0.004,1e-4 -0.007,1.4e-4 -2.16774,0.053 -4.33549,0.1146 -6.50196,0.20639 v 0 c -0.73972,0.0314 -1.314,0.65637 -1.2827,1.39611 0.0309,0.72962 0.64013,1.30027 1.37016,1.28352 z m 6.47516,-0.13623 c 2.10608,-0.0414 4.21234,-0.0899 6.31727,-0.17201 v 0 c 0.76421,-0.0298 1.35954,-0.67354 1.32971,-1.43775 -0.0298,-0.76422 -0.6735,-1.35957 -1.43773,-1.32974 -1.6e-4,0 -3.2e-4,0 -3.9e-4,0 -2.08915,0.0822 -4.17937,0.13856 -6.26944,0.18967 v 0 c -0.7593,0.0186 -1.35981,0.64915 -1.34122,1.40851 0.0185,0.75673 0.6451,1.35622 1.40189,1.34132 z m 6.31727,-0.17201 c 1.27259,-0.0497 2.54529,-0.0983 3.81826,-0.13682 v 0 c 0.7647,-0.0231 1.36592,-0.66164 1.34286,-1.42633 -0.0231,-0.76463 -0.66163,-1.36587 -1.4263,-1.3428 -1.28132,0.0386 -2.56239,0.088 -3.8433,0.13842 v 0 c -0.76424,0.0301 -1.35938,0.67398 -1.32928,1.4382 0.0301,0.76403 0.67366,1.3591 1.43776,1.32928 z m 3.81832,-0.13682 c 1.32118,-0.0398 2.64191,-0.0935 3.96254,-0.14798 v 0 c 0.76052,-0.0314 1.35162,-0.67333 1.32026,-1.43381 -0.0312,-0.75761 -0.66857,-1.34767 -1.42627,-1.32057 -1.31326,0.0471 -2.62654,0.0937 -3.94003,0.13319 v 0 c -0.76469,0.0231 -1.36594,0.66163 -1.34286,1.42631 0.0231,0.76469 0.66168,1.36592 1.42636,1.34281 0,0 0,0 0,0 z m 3.96254,-0.14798 c 1.28839,-0.0532 2.57677,-0.10602 3.86561,-0.14629 v 0 c 0.75672,-0.0237 1.35097,-0.6562 1.32735,-1.4129 -0.0237,-0.75633 -0.65566,-1.35049 -1.41199,-1.32733 -1.29582,0.0397 -2.59138,0.0858 -3.88698,0.13217 v 0 c -0.7607,0.0272 -1.35528,0.66595 -1.32807,1.42659 0.0272,0.76068 0.66589,1.35524 1.42659,1.32804 0.003,-4e-5 0.006,-1.5e-4 0.007,-2.5e-4 z m 3.86561,-0.14629 c 0.87964,-0.0274 1.75914,-0.0595 2.63843,-0.0961 v 0 c 0.75619,-0.0315 1.34362,-0.67009 1.31214,-1.42627 -0.0315,-0.75612 -0.67011,-1.34357 -1.42629,-1.31206 -0.86948,0.0363 -1.73908,0.0677 -2.60892,0.0943 v 0 c -0.75669,0.0231 -1.35136,0.65529 -1.32825,1.41198 0.0231,0.75668 0.65529,1.35141 1.41204,1.32826 2.6e-4,0 3.7e-4,0 0.001,0 z m 2.63843,-0.0961 c 1.67032,-0.0696 3.34285,-0.0969 5.01416,-0.13188 v -4e-5 c 0.761,-0.016 1.36499,-0.64576 1.34899,-1.40681 -0.016,-0.761 -0.64574,-1.36499 -1.40678,-1.349 -0.001,0 -0.003,4e-5 -0.006,1e-4 -1.68826,0.0426 -3.37734,0.079 -5.06472,0.14936 v 0 c -0.75618,0.0315 -1.34357,0.67009 -1.31206,1.42627 0.0315,0.75613 0.67004,1.34358 1.42622,1.31206 z m 5.01416,-0.13188 c 2.49684,-0.0524 4.99432,-0.0741 7.49166,-0.0664 v 4e-5 c 0.7736,0.003 1.40272,-0.62284 1.40508,-1.39645 0.003,-0.77359 -0.62281,-1.40266 -1.3964,-1.40501 -0.003,-6e-5 -0.007,0 -0.0102,0 -2.51794,0.0116 -5.03587,0.0487 -7.55306,0.11198 v 0 c -0.76094,0.0192 -1.36228,0.65155 -1.34312,1.41249 0.0192,0.75869 0.64797,1.35915 1.40671,1.34322 z m 12.68024,-0.0742 v 0 c 0.77759,-0.0116 1.39907,-0.65026 1.38809,-1.42785 -0.0116,-0.77176 -0.64103,-1.39092 -1.4129,-1.3882 -1.72198,0.006 -3.44398,0.0145 -5.16595,0.0224 v 0 c -0.77361,0.003 -1.39781,0.63366 -1.3942,1.40725 0.003,0.76936 0.62704,1.39179 1.39638,1.3942 1.7293,0.006 3.45938,0.0166 5.18858,-0.007 z m -6e-5,0 c 0.90796,-0.0131 1.81583,-0.0293 2.72363,-0.05 v 0 c 0.77192,-0.0176 1.38349,-0.65754 1.36596,-1.42945 -0.0174,-0.76974 -0.654,-1.38046 -1.42374,-1.36611 -0.89675,0.0167 -1.79366,0.0264 -2.6906,0.0295 v 0 c -0.77764,0.003 -1.40589,0.63535 -1.40316,1.413 0.003,0.77764 0.63535,1.40588 1.41301,1.40316 0.006,0 0.0102,-4e-5 0.015,-10e-5 z m 2.72363,-0.05 c 0.90317,-0.0205 1.80611,-0.0505 2.70867,-0.0902 v 0 c 0.76694,-0.0337 1.36139,-0.68264 1.32774,-1.44958 -0.0334,-0.76262 -0.67567,-1.35556 -1.43856,-1.3282 -0.88496,0.0318 -1.7703,0.0559 -2.65563,0.0725 v 0 c -0.77203,0.0145 -1.38621,0.65185 -1.37182,1.42386 0.0145,0.77201 0.65186,1.38621 1.42386,1.3718 0.001,0 0.003,-4e-5 0.006,-1e-4 z m 2.70867,-0.0902 c 0.92558,-0.0405 1.8514,-0.0765 2.77728,-0.10893 v 0 c 0.75914,-0.0266 1.35304,-0.66344 1.32652,-1.42258 -0.0263,-0.75234 -0.65249,-1.34373 -1.40508,-1.32702 -0.93661,0.0208 -1.87321,0.0472 -2.80951,0.0808 v 0 c -0.76717,0.0276 -1.36676,0.67179 -1.33925,1.43898 0.0276,0.7672 0.67177,1.36679 1.43898,1.33927 0.003,-1.5e-4 0.007,-3.1e-4 0.0116,-4.7e-4 z m 2.77728,-0.10893 c 0.9643,-0.0337 1.92855,-0.0694 2.89273,-0.10704 v 0 c 0.75319,-0.0295 1.33988,-0.66385 1.31045,-1.41705 -0.0295,-0.75212 -0.66223,-1.3385 -1.41447,-1.31053 -0.95556,0.0356 -1.91131,0.0638 -2.86727,0.085 v 0 c -0.75945,0.0168 -1.36139,0.64617 -1.34453,1.40558 0.0169,0.75944 0.6461,1.3614 1.40557,1.34454 0.006,-1e-4 0.0116,-3.1e-4 0.0176,-5.1e-4 z m 2.89273,-0.10704 c 1.87568,-0.0734 3.75383,-0.0986 5.63047,-0.13304 v 0 c 0.75743,-0.0145 1.36013,-0.6393 1.3462,-1.39676 -0.0145,-0.75741 -0.6393,-1.36013 -1.3967,-1.34618 -0.001,4e-5 -0.003,1e-4 -0.006,1e-4 -1.8928,0.0423 -3.78648,0.078 -5.67856,0.14838 v 0 c -0.7532,0.028 -1.34111,0.66133 -1.31308,1.41459 0.028,0.7532 0.66133,1.34111 1.41453,1.31308 0.001,-4e-5 0.001,-4e-5 0.003,-1e-4 z m 5.63047,-0.13304 c 2.80492,-0.0517 5.61023,-0.0738 8.41562,-0.0661 v 0 c 0.77011,0.001 1.39618,-0.62049 1.39828,-1.39066 0.001,-0.77016 -0.6205,-1.3962 -1.39064,-1.39829 -0.003,0 -0.006,0 -0.0102,0 -2.82345,0.0116 -5.64678,0.0491 -8.46954,0.11227 v 0 c -0.75737,0.017 -1.35762,0.64463 -1.34068,1.40203 0.0168,0.75526 0.64126,1.35469 1.39662,1.34081 z m 15.55026,-0.0832 v 0 c 0.77764,-0.007 1.40188,-0.64438 1.3942,-1.42203 -0.007,-0.77734 -0.64381,-1.40142 -1.42115,-1.3942 -2.36988,0.0219 -4.73977,0.0346 -7.10969,0.0443 v 0 c -0.77015,0.003 -1.39188,0.63012 -1.38866,1.40029 0.003,0.76637 0.62424,1.38657 1.39066,1.38866 2.37818,0.007 4.75652,0.006 7.13464,-0.017 z m 0,0 c 1.49427,-0.0148 2.98895,-0.0309 4.48274,-0.0732 v 0 c 0.77341,-0.0219 1.38261,-0.66651 1.36074,-1.43989 -0.0218,-0.76889 -0.65933,-1.37647 -1.42836,-1.36106 -1.48049,0.0296 -2.96139,0.0442 -4.44207,0.0579 v 0 c -0.77771,0.007 -1.4023,0.64346 -1.39507,1.42116 0.007,0.77764 0.64344,1.40223 1.42113,1.39507 3.2e-4,0 3.9e-4,0 10e-4,0 z m 4.48274,-0.0732 c 1.04815,-0.0296 2.09608,-0.0675 3.14364,-0.11358 v 0 c 0.76157,-0.0335 1.35172,-0.67804 1.31825,-1.4396 -0.0331,-0.75172 -0.6622,-1.33845 -1.41441,-1.31909 -1.0383,0.0267 -2.07667,0.0504 -3.1151,0.0713 v 0 c -0.77355,0.0155 -1.38806,0.65509 -1.37258,1.42864 0.0154,0.77355 0.65514,1.3881 1.42869,1.37257 0.003,-6e-5 0.007,-1.6e-4 0.0116,-2.6e-4 z m 3.1436,-0.11358 c 1.0806,-0.0475 2.16133,-0.093 3.24211,-0.13667 v 0 c 0.74045,-0.0299 1.31636,-0.65447 1.28644,-1.39486 -0.0293,-0.72544 -0.63041,-1.29593 -1.35633,-1.28742 -1.08956,0.0131 -2.17907,0.0322 -3.26834,0.0601 v 5e-5 c -0.76208,0.0196 -1.36394,0.65324 -1.3443,1.41526 0.0196,0.76207 0.65329,1.36392 1.4153,1.34429 0.009,-2e-4 0.0167,-5e-4 0.0251,-0.001 z m 3.24211,-0.13667 c 1.08357,-0.0439 2.16763,-0.0754 3.25194,-0.0925 v 0 c 0.72934,-0.0116 1.31118,-0.61216 1.29965,-1.34148 -0.0116,-0.72934 -0.61214,-1.3112 -1.34145,-1.29962 -0.001,0 -0.003,6e-5 -0.006,1e-4 -1.09148,0.0216 -2.18307,0.0385 -3.2747,0.0513 v 0 c -0.74096,0.009 -1.33467,0.61634 -1.326,1.3573 0.009,0.74101 0.6164,1.33466 1.35736,1.32601 0.0131,-1.6e-4 0.0257,-5.1e-4 0.0385,-0.001 z m 3.25194,-0.0925 c 1.07882,-0.0171 2.15756,-0.0395 3.23617,-0.067 v 0 c 0.73095,-0.0186 1.30844,-0.62624 1.28978,-1.35721 -0.0186,-0.73096 -0.62623,-1.30842 -1.35721,-1.28983 0,0 0,0 0,0 -1.07189,0.0273 -2.14386,0.0517 -3.21587,0.0729 v 5e-5 c -0.72929,0.0145 -1.30874,0.61737 -1.29423,1.34665 0.0145,0.72723 0.61415,1.30586 1.34136,1.29434 z m 3.23617,-0.067 c 1.13294,-0.0289 2.26608,-0.0539 3.39921,-0.0763 v 0 c 0.72729,-0.0145 1.30524,-0.61548 1.29091,-1.34276 -0.0145,-0.72334 -0.60927,-1.29982 -1.33268,-1.29111 -1.1418,0.0131 -2.28339,0.0341 -3.42487,0.0632 v 0 c -0.73091,0.0186 -1.30842,0.62629 -1.28982,1.35721 0.0186,0.73097 0.62629,1.30842 1.35721,1.28983 4e-5,0 4e-5,0 4e-5,0 z m 3.39921,-0.0763 c 1.13991,-0.0224 2.27976,-0.0466 3.41956,-0.0731 v 0 c 0.72534,-0.0169 1.29966,-0.61856 1.28281,-1.34389 -0.0169,-0.72533 -0.61856,-1.29966 -1.34389,-1.2828 -0.001,4e-5 -0.003,1e-4 -0.006,1.5e-4 -1.13135,0.0309 -2.26306,0.0523 -3.39476,0.0658 v 0 c -0.72738,0.009 -1.30996,0.60549 -1.3012,1.33287 0.009,0.72737 0.60549,1.30991 1.33282,1.3012 0.003,-6e-5 0.007,-1e-4 0.0102,-2e-4 z m 3.41956,-0.0731 c 1.7543,-0.0408 3.50906,-0.0664 5.26363,-0.093 v 0 c 0.72733,-0.0116 1.308,-0.60958 1.297,-1.3369 -0.0116,-0.72733 -0.60954,-1.30803 -1.33687,-1.297 0,0 0,0 -6e-5,0 -1.76342,0.0267 -3.52719,0.052 -5.29027,0.10036 v 0 c -0.72521,0.0199 -1.29703,0.62393 -1.27718,1.34916 0.0199,0.72314 0.62051,1.29419 1.34375,1.27738 z m 5.26363,-0.093 c 2.51709,-0.038 5.03413,-0.0787 7.55112,-0.12113 v 0 c 0.71459,-0.0116 1.28413,-0.60113 1.27209,-1.31575 -0.0116,-0.70863 -0.59182,-1.27583 -1.30053,-1.2722 -2.52094,0.0131 -5.04192,0.037 -7.56255,0.0752 v 0 c -0.72735,0.0116 -1.30802,0.60958 -1.29699,1.33691 0.0116,0.72734 0.60952,1.30802 1.33686,1.29699 z m 7.55112,-0.12113 c 2.01797,-0.034 4.03804,-0.0723 6.05334,-0.18655 v 0 c 0.65807,-0.0373 1.16123,-0.60098 1.12394,-1.25904 -0.0353,-0.62383 -0.54596,-1.11479 -1.17071,-1.12566 -2.01132,-0.035 -4.02354,-0.027 -6.03501,-0.0167 v 0 c -0.71473,0.003 -1.29117,0.58597 -1.28748,1.30069 0.003,0.71467 0.58597,1.29111 1.3007,1.28747 0.006,-5e-5 0.0102,-1.1e-4 0.0153,-2.1e-4 z m 6.05334,-0.18655 c 1.46083,-0.0828 2.92363,-0.13028 4.38658,-0.15259 v 0 c 0.61206,-0.009 1.10071,-0.513 1.09139,-1.1251 -0.009,-0.60932 -0.50874,-1.09691 -1.11812,-1.09148 -1.46886,0.0131 -2.93786,0.0102 -4.40662,-0.0155 v 0 c -0.65898,-0.0116 -1.20253,0.51342 -1.21399,1.17244 -0.0116,0.65898 0.51342,1.20251 1.17243,1.21399 0.0295,5.3e-4 0.059,-5e-5 0.0883,-10e-4 z m 4.38658,-0.15259 c 1.49878,-0.0228 2.9975,-0.0555 4.49578,-0.10109 v 0 c 0.57996,-0.0177 1.03583,-0.50219 1.01815,-1.08216 -0.0171,-0.5608 -0.4718,-1.00924 -1.03276,-1.01852 -1.50251,-0.0248 -3.00524,-0.0282 -4.5079,-0.0147 v -5e-5 c -0.6121,0.006 -1.10389,0.50614 -1.09846,1.11822 0.006,0.6121 0.50608,1.10393 1.11824,1.09846 10e-4,0 0.004,-6e-5 0.007,-10e-5 z m 4.49578,-0.10109 c 1.46444,-0.0446 2.92975,-0.0654 4.39488,-0.0661 v 4e-5 c 0.5525,-3.1e-4 1.00017,-0.4485 0.99986,-1.001 -3e-4,-0.5525 -0.44844,-1.00011 -1.00094,-0.99981 -10e-5,0 -1.6e-4,0 -2.2e-4,0 -1.4694,0.001 -2.93893,-0.009 -4.40819,-0.0338 v 0 c -0.58017,-0.0102 -1.05833,0.45295 -1.06791,1.03313 -0.0102,0.58017 0.45295,1.05827 1.03312,1.06791 0.0164,2.5e-4 0.033,1.4e-4 0.0494,-3.6e-4 z m 8.85036,-2.03755 c -1.48546,-0.0212 -2.97116,-0.0304 -4.45678,-0.0293 v 0 c -0.55252,3.6e-4 -1.00007,0.44859 -0.99965,1.0011 3.8e-4,0.55244 0.44854,1.00001 1.00099,0.99971 1.47407,-0.001 2.94805,0.0116 4.42188,0.0395 v 0 c 0.55527,0.0102 1.01401,-0.43096 1.02457,-0.98624 0.0102,-0.55527 -0.43097,-1.014 -0.98624,-1.02462 -0.001,-4e-5 -0.003,-4e-5 -0.004,-1e-4 z m 4.28943,0.13696 c -1.42884,-0.0715 -2.8589,-0.11648 -4.28937,-0.13696 v 0 c -0.55538,-0.007 -1.01202,0.43578 -1.01995,0.9911 -0.007,0.55348 0.43291,1.0093 0.98633,1.01986 1.40798,0.0269 2.81556,0.0745 4.222,0.1448 v 0 c 0.55752,0.0279 1.03204,-0.40145 1.05991,-0.95892 0.0279,-0.55753 -0.40145,-1.03205 -0.95892,-1.05992 z m 3.95104,0.13028 c -1.31764,-0.0186 -2.63494,-0.0645 -3.95104,-0.13028 v 0 c -0.55747,-0.0279 -1.03204,0.40141 -1.05992,0.95892 -0.0279,0.55749 0.40146,1.032 0.95893,1.05993 0,0 0,0 0,0 1.30986,0.0655 2.61844,0.16078 3.92291,0.29687 v 0 c 0.60186,0.0629 1.14072,-0.37419 1.2035,-0.97609 0.0629,-0.6019 -0.37419,-1.14072 -0.97609,-1.20354 -0.0327,-0.003 -0.0655,-0.006 -0.0983,-0.006 z m 4.90378,0.14031 c -1.63398,-0.0617 -3.26865,-0.11721 -4.90378,-0.14031 v 0 c -0.60507,-0.009 -1.10249,0.47509 -1.11105,1.08016 -0.009,0.56701 0.41791,1.04645 0.98189,1.10527 1.60776,0.1678 3.21219,0.36789 4.81538,0.57417 v 0 c 0.72062,0.0927 1.37991,-0.41631 1.4726,-1.13693 0.0928,-0.72056 -0.41626,-1.37989 -1.13689,-1.47259 -0.0392,-0.006 -0.0786,-0.009 -0.11808,-0.0102 z m 5.33034,0.29924 c -1.77402,-0.14205 -3.55206,-0.23201 -5.33034,-0.29924 v 0 c -0.726,-0.0275 -1.3368,0.53882 -1.36422,1.26482 -0.0257,0.6802 0.4716,1.26765 1.14666,1.35449 1.74801,0.22489 3.49632,0.44675 5.24555,0.66164 v 0 c 0.82161,0.10094 1.56948,-0.48328 1.67042,-1.30488 0.10095,-0.82161 -0.48328,-1.56949 -1.30489,-1.67044 -0.0211,-0.003 -0.0421,-0.004 -0.0632,-0.006 z m 2.96538,3.26875 v 0 c 0.79982,-0.004 1.44498,-0.6556 1.44097,-1.45542 -0.003,-0.66287 -0.45632,-1.23891 -1.09978,-1.39841 -0.43686,-0.10835 -0.88623,-0.16817 -1.3324,-0.22288 -0.65626,-0.0805 -1.31525,-0.13929 -1.97421,-0.19204 v 0 c -0.82516,-0.0659 -1.54761,0.54937 -1.61361,1.37452 -0.0641,0.80055 0.51423,1.50928 1.31134,1.60719 0.65155,0.08 1.30392,0.15551 1.95783,0.21409 0.43506,0.0389 0.87274,0.0752 1.30986,0.0729 z" />
    <path
       inkscape:connector-curvature="0"
       id="path14602"
       style="display:inline;fill:#a42604;fill-opacity:1;fill-rule:nonzero;stroke:none;stroke-width:0.51238459"
       d="m 300.03125,126.77269 c 0.14467,-0.40664 0.29457,-0.81209 0.4632,-1.20944 0.0918,-0.21643 0.18675,-0.43425 0.309,-0.63555 l 4e-4,4.9e-4 c 0.40856,-0.32906 0.47302,-0.92696 0.14408,-1.33548 -0.32905,-0.40858 -0.92696,-0.47304 -1.33548,-0.14408 -0.24758,0.19937 -0.37901,0.50937 -0.35017,0.82591 -0.0379,0.24318 -0.11038,0.48242 -0.1802,0.71801 -0.12956,0.4366 -0.27448,0.86859 -0.42312,1.29905 v 0 c -0.13101,0.37952 0.0704,0.79348 0.44997,0.92454 0.37707,0.13014 0.78866,-0.0677 0.92234,-0.44361 h -4e-5 z m 1.25396,-3.56672 c -0.15598,-0.13086 -0.33817,-0.23077 -0.53467,-0.28544 -0.36549,-0.10167 -0.76704,-0.0391 -1.07719,0.18522 v 5e-5 c -0.12026,0.087 -0.22346,0.19542 -0.30446,0.31978 -0.12796,0.1965 -0.18809,0.4201 -0.21018,0.65053 v 0 c -0.0684,0.71355 0.45454,1.34742 1.16808,1.41587 0.71355,0.0684 1.34742,-0.45458 1.41582,-1.16809 0.0408,-0.42523 -0.13028,-0.84328 -0.4574,-1.11792 z m 0.81971,2.13747 c -0.0414,-0.35878 -0.0969,-0.71842 -0.19573,-1.06627 -0.11416,-0.40186 -0.2979,-0.79737 -0.62398,-1.0712 v 0 c -0.54898,-0.46088 -1.36761,-0.38951 -1.82855,0.15946 -0.16893,0.20121 -0.27284,0.44901 -0.29795,0.71052 -0.0186,0.1942 -0.0187,0.39038 -0.019,0.5853 -3.9e-4,0.29529 0.006,0.59047 0.0116,0.88566 v 0 c 0.0185,0.81817 0.69659,1.46655 1.51475,1.44814 0.81823,-0.0184 1.46661,-0.69658 1.44821,-1.51475 -10e-4,-0.0458 -0.004,-0.0914 -0.009,-0.13682 z m 0.18887,3.73042 c -0.0171,-0.73866 -0.0391,-1.47731 -0.076,-2.21525 -0.0253,-0.50557 -0.0549,-1.01206 -0.113,-1.51513 v 0 c -0.094,-0.81299 -0.82919,-1.39593 -1.64219,-1.30195 -0.76023,0.0879 -1.32851,0.74018 -1.31134,1.50532 0.0266,1.187 0.0222,2.37501 0.0215,3.5622 v 0 c -4e-4,0.86194 0.69782,1.56108 1.5597,1.56159 0.86193,5.4e-4 1.56109,-0.69776 1.5616,-1.55969 4e-5,-0.0131 -1.1e-4,-0.0247 -4e-4,-0.037 z m 0.16873,4.59849 c -0.0815,-1.53178 -0.13319,-3.06503 -0.16873,-4.59855 v 0 c -0.02,-0.86167 -0.73471,-1.54402 -1.59644,-1.52403 -0.84723,0.0198 -1.52393,0.71185 -1.52445,1.55934 -0.001,1.57681 0.0272,3.15424 0.10762,4.72911 v 0 c 0.0449,0.87873 0.79368,1.55472 1.67237,1.50978 0.87874,-0.0449 1.55473,-0.79363 1.50979,-1.67237 -4e-5,-0.001 -10e-5,-0.001 -1.5e-4,-0.003 v -5e-5 z m 0.14379,3.06006 c -0.0338,-1.02052 -0.0895,-2.04051 -0.14379,-3.06006 v 0 c -0.0468,-0.87863 -0.79686,-1.55304 -1.67551,-1.5063 -0.87735,0.0466 -1.55134,0.79475 -1.5065,1.67221 0.0513,1.00289 0.10341,2.00589 0.14292,3.00939 v 0 c 0.0344,0.87879 0.77488,1.56329 1.65368,1.5288 0.87508,-0.0343 1.5582,-0.76877 1.5292,-1.64404 z m -2.11154,2.07265 v 0 c 0.81429,0.30405 1.72089,-0.10966 2.0249,-0.92398 0.0173,-0.046 0.0322,-0.0931 0.045,-0.14059 0.0876,-0.32465 0.0526,-0.67579 0.0415,-1.00806 v 0 c -0.0292,-0.87906 -0.76545,-1.56796 -1.6445,-1.53875 -0.879,0.0292 -1.56794,0.76545 -1.53875,1.64444 1e-4,0.003 2.6e-4,0.006 3.7e-4,0.0102 0.006,0.15945 0.0131,0.31905 0.0277,0.47799 0.033,0.36569 0.13682,0.7113 0.37635,1.00269 v 0 c 0.17651,0.21484 0.40683,0.37911 0.66742,0.47612 l -2e-4,5.1e-4 z m 2.09858,-1.8451 c -0.0272,-0.42798 -0.14204,-0.8481 -0.28027,-1.25226 -0.15377,-0.44968 -0.34254,-0.88705 -0.54447,-1.31694 v 0 c -0.1191,-0.25352 -0.42122,-0.36245 -0.6747,-0.24338 -0.0654,0.0307 -0.12331,0.075 -0.17022,0.12985 -0.32121,0.37655 -0.62465,0.77186 -0.87663,1.19861 -0.25942,0.43923 -0.47033,0.92363 -0.51885,1.43618 v 0 c -0.08,0.84537 0.54026,1.59561 1.38564,1.6757 0.84539,0.08 1.59563,-0.54031 1.67571,-1.38565 0.007,-0.0805 0.009,-0.16145 0.003,-0.24215 h 6e-5 z" />
    <path
       inkscape:connector-curvature="0"
       id="path14604"
       style="display:inline;fill:#a42604;fill-opacity:1;fill-rule:nonzero;stroke:none;stroke-width:0.51238459"
       d="m 299.62046,125.32412 c 0.0376,0.007 0.0751,0.0145 0.11257,0.0221 v 0 c 0.39381,0.0786 0.77673,-0.17698 0.85527,-0.57075 0.0292,-0.14629 0.0131,-0.29795 -0.0473,-0.43451 l 10e-4,0.001 c 0.20844,-0.76718 -0.24449,-1.55816 -1.01175,-1.7666 -0.11605,-0.0315 -0.23573,-0.0484 -0.35606,-0.0503 -0.58289,-0.009 -1.14866,0.29262 -1.39895,0.84133 v 0 c -0.16875,0.36985 -0.16602,0.79522 0.007,1.16292 0.12956,0.27484 0.3436,0.48778 0.59606,0.64877 v 0 c 0.36983,0.23596 0.82709,0.29032 1.24202,0.14772 l -4e-4,-0.001 z m 1.7103,-2.27954 c -0.37052,-0.13784 -0.74629,-0.2645 -1.1295,-0.36241 -0.3352,-0.0857 -0.67963,-0.15162 -1.02658,-0.15679 v 0 c -0.79495,-0.0116 -1.44895,0.62305 -1.46079,1.41796 -0.007,0.49917 0.2443,0.96656 0.66517,1.23506 0.25072,0.15991 0.51843,0.29303 0.7882,0.41738 0.33756,0.15562 0.68193,0.29647 1.02826,0.43123 v 0 c 0.82125,0.31958 1.74606,-0.0871 2.06563,-0.90835 0.31963,-0.8213 -0.0871,-1.74611 -0.90836,-2.06569 -0.007,-0.003 -0.0147,-0.006 -0.0221,-0.009 z m 2.9747,1.00986 c -0.99674,-0.31999 -1.99343,-0.64463 -2.9747,-1.00986 v 0 c -0.82591,-0.30738 -1.74462,0.11285 -2.05199,0.93883 -0.30422,0.81726 0.10399,1.72736 0.91675,2.0436 1.02831,0.40012 2.07839,0.74547 3.12857,1.08293 v 0 c 0.84374,0.2711 1.74748,-0.19307 2.0186,-1.03682 0.27109,-0.84368 -0.19313,-1.74743 -1.03688,-2.01854 -1e-4,-4e-5 -2.5e-4,-1e-4 -3.5e-4,-1.4e-4 z m 3.99276,1.25344 c -1.33349,-0.4097 -2.66456,-0.82699 -3.99276,-1.25344 v 0 c -0.8438,-0.27091 -1.74744,0.19352 -2.01834,1.03731 -0.27079,0.84364 0.19338,1.74714 1.03692,2.01819 1.34515,0.43224 2.69539,0.84896 4.04932,1.25278 v 0 c 0.84467,0.25188 1.73356,-0.22863 1.98544,-1.07324 0.25045,-0.8397 -0.223,-1.72423 -1.06058,-1.9816 z m 3.60391,1.22444 c -1.18345,-0.45755 -2.39135,-0.85189 -3.60391,-1.22444 v 0 c -0.84251,-0.25886 -1.73535,0.21428 -1.99426,1.05679 -0.25885,0.84251 0.21428,1.73535 1.0568,1.9942 0.004,0.001 0.009,0.003 0.0131,0.003 1.16742,0.34817 2.333,0.7035 3.49114,1.0817 v 0 c 0.81182,0.26506 1.68477,-0.17815 1.94982,-0.98993 0.25518,-0.78138 -0.14562,-1.62579 -0.91224,-1.92216 z m 2.27636,1.06551 c -0.30875,-0.20019 -0.63944,-0.3658 -0.97301,-0.52007 -0.42743,-0.19778 -0.86414,-0.37563 -1.30335,-0.54544 v 0 c -0.79651,-0.308 -1.69185,0.088 -1.99985,0.88459 -0.30793,0.7965 0.0882,1.69183 0.88465,1.99984 0.0256,0.0102 0.0516,0.0192 0.0776,0.0276 0.67266,0.21961 1.349,0.43654 2.00804,0.69509 v 0 c 0.73834,0.28972 1.57168,-0.0739 1.86133,-0.81233 0.24922,-0.6352 0.0171,-1.35808 -0.55543,-1.72935 z m 1.23486,1.57251 c -0.13304,-0.69546 -0.66415,-1.20242 -1.23486,-1.57251 v 0 c -0.66543,-0.43153 -1.55472,-0.24195 -1.98625,0.42348 -0.43153,0.66543 -0.24195,1.55468 0.42348,1.98626 0.0809,0.0524 0.16705,0.0967 0.25686,0.13188 0.0404,0.0158 0.08,0.0327 0.11939,0.051 l -10e-4,0.001 c 0.42466,0.60907 1.26271,0.75859 1.87179,0.33391 0.43518,-0.30342 0.65124,-0.83436 0.55159,-1.3554 z m -1.0881,2.11856 c 0.26997,-0.21182 0.52929,-0.44521 0.73368,-0.72253 0.2957,-0.40119 0.44957,-0.89886 0.35442,-1.39619 v 0 c -0.13958,-0.72928 -0.84395,-1.20733 -1.57323,-1.06775 -0.46966,0.0899 -0.85625,0.42245 -1.01525,0.8735 -0.0131,0.0102 -0.0285,0.019 -0.0439,0.0279 v 0 c -0.66128,0.38153 -0.88812,1.22695 -0.50655,1.88829 0.38152,0.66133 1.22697,0.88812 1.8883,0.50655 0.0566,-0.0327 0.11097,-0.0694 0.16253,-0.10981 z m -1.69779,1.05074 c 0.60267,-0.28581 1.17295,-0.63899 1.69773,-1.0507 v 0 c 0.60066,-0.47128 0.7056,-1.34028 0.23432,-1.94097 -0.42466,-0.54127 -1.18269,-0.68792 -1.77854,-0.34411 -0.41842,0.24138 -0.85625,0.44895 -1.30812,0.61963 v 0 c -0.76309,0.28822 -1.14804,1.14041 -0.85988,1.90346 0.28822,0.76309 1.14042,1.14804 1.90351,0.85982 0.0376,-0.0145 0.0747,-0.0299 0.11096,-0.0472 z m -1.89793,0.79312 c 0.64191,-0.24092 1.27819,-0.49926 1.89793,-0.79312 h -6e-5 c 0.73702,-0.34949 1.05121,-1.23029 0.70171,-1.9673 -0.32945,-0.6948 -1.13693,-1.02052 -1.85626,-0.74885 -0.57859,0.21853 -1.1648,0.41662 -1.75363,0.60564 v 0 c -0.80856,0.25963 -1.25355,1.12551 -0.99393,1.9341 0.25958,0.80854 1.1255,1.25355 1.93404,0.99391 0.0237,-0.007 0.0471,-0.0157 0.0702,-0.0244 z m -2.17579,0.77002 c 0.72969,-0.24381 1.45542,-0.49974 2.17579,-0.77002 v 0 c 0.79507,-0.29836 1.19776,-1.18479 0.89934,-1.97985 -0.28822,-0.76802 -1.12858,-1.17454 -1.90965,-0.92378 -0.71426,0.22934 -1.42848,0.45843 -2.14284,0.68737 v 0 c -0.82628,0.26485 -1.28148,1.14932 -1.01669,1.97565 0.26481,0.82627 1.14934,1.28146 1.97565,1.01667 0.006,-0.001 0.0116,-0.004 0.0184,-0.006 z m -2.11077,0.72593 c 0.70135,-0.24855 1.40507,-0.49015 2.11077,-0.72593 v 0 c 0.82299,-0.27501 1.26723,-1.16507 0.99223,-1.98802 -0.27258,-0.81581 -1.1505,-1.26076 -1.96959,-0.99826 -0.72724,0.23308 -1.45246,0.47256 -2.17503,0.71953 v 0 c -0.82802,0.28299 -1.2699,1.18366 -0.98691,2.01167 0.28299,0.82802 1.18367,1.2699 2.01167,0.98691 0.006,-0.001 0.0116,-0.004 0.0168,-0.006 z m -1.75349,0.6826 c 0.57547,-0.24973 1.16231,-0.47308 1.75349,-0.6826 v 0 c 0.82484,-0.29225 1.25647,-1.19784 0.96421,-2.02263 -0.29,-0.81827 -1.18442,-1.25083 -2.00589,-0.97005 -0.66101,0.22597 -1.31718,0.4673 -1.96207,0.73615 v 0 c -0.81413,0.33934 -1.19898,1.27445 -0.85958,2.08858 0.33941,0.81413 1.27451,1.19898 2.08864,0.85957 0.007,-0.003 0.0145,-0.006 0.0212,-0.009 z m -1.36442,0.65002 c 0.44521,-0.236 0.90226,-0.44947 1.36442,-0.65002 v 0 c 0.80912,-0.35108 1.18044,-1.29166 0.82936,-2.10078 -0.34756,-0.80089 -1.27378,-1.17427 -2.07962,-0.83835 -0.54809,0.22846 -1.08892,0.4759 -1.61422,0.75315 v 0 c -0.78348,0.41354 -1.08338,1.38395 -0.66978,2.16744 0.41355,0.78348 1.38394,1.08339 2.16743,0.66984 10e-4,-4.6e-4 10e-4,-0.001 0.003,-0.001 h -6e-5 z m -1.07606,0.62086 c 0.34945,-0.22243 0.71016,-0.42693 1.07606,-0.62086 h 6e-5 c 0.78277,-0.41493 1.08097,-1.38585 0.66609,-2.16862 -0.41442,-0.78184 -1.38364,-1.08046 -2.16621,-0.66738 -0.44213,0.2334 -0.87731,0.48051 -1.29919,0.74895 v 0 c -0.74779,0.47576 -0.96831,1.46768 -0.49257,2.21551 0.47581,0.74782 1.46773,0.96834 2.21555,0.49254 6e-5,-4e-5 1.6e-4,-1e-4 2.1e-4,-1.4e-4 z m -0.72036,0.51263 c 0.22668,-0.18839 0.4719,-0.35452 0.72031,-0.51259 v 0 c 0.74777,-0.4759 0.96815,-1.46782 0.4923,-2.21559 -0.47585,-0.74762 -1.46762,-0.9681 -2.21534,-0.4924 -0.36308,0.23092 -0.71801,0.47697 -1.04916,0.75222 v 0 c -0.68163,0.5666 -0.77489,1.5785 -0.20828,2.26013 0.56658,0.68162 1.57844,0.77488 2.26012,0.20829 0,0 5e-5,0 5e-5,-6e-5 z m -0.24292,0.23822 c 0.063,-0.0919 0.15823,-0.16782 0.24292,-0.23822 v 0 c 0.68162,-0.56659 0.77482,-1.5785 0.20817,-2.26012 -0.56658,-0.68158 -1.57844,-0.77483 -2.26006,-0.20824 -0.31399,0.26096 -0.60642,0.55328 -0.83801,0.89088 v 0 c -0.50142,0.73092 -0.31532,1.72997 0.41565,2.23134 0.73091,0.50142 1.72991,0.31532 2.23133,-0.4156 0,0 0,-4e-5 0,-4e-5 z m -1.04455,0.91542 v 0 c 0.0813,-0.0116 0.159,-0.0412 0.22745,-0.0869 0.32076,-0.21316 0.60026,-0.51249 0.8171,-0.82862 v 0 c 0.50138,-0.73092 0.31528,-1.72992 -0.41564,-2.23134 -0.73097,-0.50136 -1.72996,-0.31526 -2.23134,0.41564 l -0.1037,0.17207 c -0.0301,0.0572 -0.0566,0.1162 -0.0797,0.17656 l -4e-4,-3.1e-4 c -0.0225,0.0578 -0.0417,0.11692 -0.0574,0.17694 -0.14059,0.53795 -0.0225,1.115 0.3241,1.55052 0.18598,0.23376 0.43076,0.41919 0.70626,0.53467 0.25266,0.10588 0.54021,0.15981 0.81362,0.1207 z" />
  </g>
  <g
     inkscape:groupmode="layer"
     id="layer2"
     inkscape:label="particles_balanced"
     style="display:inline"
     transform="translate(-5.2154424,-132.59838)">
    <text
       xml:space="preserve"
       style="font-style:normal;font-weight:normal;font-size:7.05555534px;line-height:1.25;font-family:sans-serif;letter-spacing:0px;word-spacing:0px;fill:#000000;fill-opacity:1;stroke:none;stroke-width:0.26458332"
       x="48.108513"
       y="87.442886"
       id="text3302"><tspan
         sodipodi:role="line"
         id="tspan3300"
         x="48.108513"
         y="93.685402"
         style="stroke-width:0.26458332" /></text>
  </g>
  <g
     inkscape:groupmode="layer"
     id="layer3"
     inkscape:label="particles_polarized"
     style="display:inline"
     transform="translate(-5.2154424,-132.59838)" />
  <g
     inkscape:groupmode="layer"
     id="layer4"
     inkscape:label="particles_polaron"
     style="display:inline"
     transform="translate(-5.2154424,-132.59838)" />
  <g
     inkscape:groupmode="layer"
     id="layer5"
     inkscape:label="polarized_SF"
     style="display:inline"
     transform="translate(-5.2154424,-132.59838)" />
</svg>
