<?xml version="1.0" encoding="UTF-8" standalone="no"?>
<!-- Created with Inkscape (http://www.inkscape.org/) -->

<svg
   xmlns:dc="http://purl.org/dc/elements/1.1/"
   xmlns:cc="http://creativecommons.org/ns#"
   xmlns:rdf="http://www.w3.org/1999/02/22-rdf-syntax-ns#"
   xmlns:svg="http://www.w3.org/2000/svg"
   xmlns="http://www.w3.org/2000/svg"
   xmlns:sodipodi="http://sodipodi.sourceforge.net/DTD/sodipodi-0.dtd"
   xmlns:inkscape="http://www.inkscape.org/namespaces/inkscape"
   width="174.22179mm"
   height="12.576982mm"
   viewBox="0 0 174.22179 12.576982"
   version="1.1"
   id="svg1564"
   inkscape:version="0.92.3 (2405546, 2018-03-11)"
   sodipodi:docname="brace_yellow.svg">
  <defs
     id="defs1558" />
  <sodipodi:namedview
     id="base"
     pagecolor="#ffffff"
     bordercolor="#666666"
     borderopacity="1.0"
     inkscape:pageopacity="0.0"
     inkscape:pageshadow="2"
     inkscape:zoom="1.4"
     inkscape:cx="333.33159"
     inkscape:cy="87.146616"
     inkscape:document-units="mm"
     inkscape:current-layer="layer1"
     showgrid="false"
     fit-margin-top="0"
     fit-margin-left="0"
     fit-margin-right="0"
     fit-margin-bottom="0"
     inkscape:window-width="1920"
     inkscape:window-height="1172"
     inkscape:window-x="1920"
     inkscape:window-y="0"
     inkscape:window-maximized="1" />
  <metadata
     id="metadata1561">
    <rdf:RDF>
      <cc:Work
         rdf:about="">
        <dc:format>image/svg+xml</dc:format>
        <dc:type
           rdf:resource="http://purl.org/dc/dcmitype/StillImage" />
        <dc:title></dc:title>
      </cc:Work>
    </rdf:RDF>
  </metadata>
  <g
     inkscape:label="Layer 1"
     inkscape:groupmode="layer"
     id="layer1"
     transform="translate(54.604946,-156.15197)">
    <path
       inkscape:connector-curvature="0"
       id="path869"
       style="fill:#fe9920;fill-opacity:1;fill-rule:nonzero;stroke:none;stroke-width:0.35277778"
       d="m 119.59886,158.46136 c 0.0721,-0.7347 -0.0776,-1.48728 -0.35871,-2.16578 v 0 c -0.0492,-0.11867 -0.18527,-0.17501 -0.30395,-0.12583 -0.0207,0.009 -0.0401,0.0201 -0.0576,0.0343 -0.60322,0.48969 -1.08652,1.16512 -1.26563,1.92835 v 0 c -0.12724,0.54233 0.20924,1.08514 0.7516,1.21243 0.54232,0.12724 1.08514,-0.20924 1.21242,-0.75156 0.0102,-0.0434 0.0175,-0.0875 0.0218,-0.13187 z m -0.0594,1.93054 c -0.008,-0.64319 -0.004,-1.28983 0.0594,-1.93054 v 3e-5 c 0.0544,-0.55443 -0.35087,-1.048 -0.9053,-1.10243 -0.5031,-0.0494 -0.96506,0.28127 -1.08056,0.77343 -0.16937,0.72185 -0.24352,1.4654 -0.28966,2.20419 v 0 c -0.0382,0.6114 0.42643,1.13799 1.03783,1.1762 0.6114,0.0382 1.13799,-0.42648 1.1762,-1.03788 0.002,-0.0276 0.002,-0.0553 0.002,-0.083 z m -0.012,1.80657 c 0.0314,-0.60096 0.0195,-1.20519 0.012,-1.80657 v 0 c -0.008,-0.61253 -0.5104,-1.10289 -1.12293,-1.09527 -0.58035,0.007 -1.05699,0.46065 -1.09318,1.03995 -0.0363,0.58043 -0.0734,1.16082 -0.10365,1.74159 v 0 c -0.0332,0.6373 0.4565,1.18082 1.09375,1.21402 0.63726,0.0332 1.18079,-0.45646 1.21402,-1.09372 z m -0.0993,0.98993 c 0.0534,-0.32741 0.082,-0.65881 0.0993,-0.98993 v 0 c 0.0332,-0.63726 -0.45646,-1.18082 -1.09372,-1.21405 -0.63726,-0.0332 -1.18082,0.45646 -1.21405,1.09375 0,0 0,0 0,0 -0.0136,0.26042 -0.0322,0.52092 -0.0652,0.77964 h -4e-5 c -0.0804,0.62946 0.36477,1.20488 0.99424,1.28524 0.61401,0.0784 1.17979,-0.34371 1.27949,-0.95465 z m -0.26773,0.95797 c 0.12393,-0.30836 0.21424,-0.62999 0.26773,-0.958 v 0 c 0.1022,-0.62629 -0.32266,-1.21684 -0.94894,-1.31904 -0.62629,-0.10216 -1.21684,0.32269 -1.31904,0.94897 -0.002,0.0132 -0.004,0.0264 -0.006,0.0396 -0.0237,0.18616 -0.0629,0.37028 -0.11611,0.55023 v 0 c -0.17606,0.59567 0.16409,1.22128 0.75976,1.39735 0.5561,0.1644 1.14606,-0.121 1.36235,-0.65909 z m -1.72381,1.01219 c 0.32399,0.0193 0.65331,-0.0289 0.94671,-0.17223 0.3538,-0.17286 0.63042,-0.47505 0.7771,-0.83993 h -3e-5 c 0.23167,-0.57633 -0.0477,-1.23133 -0.62407,-1.463 -0.48715,-0.19579 -1.04492,-0.0285 -1.3439,0.40305 h 0.001 c -0.56028,0.16894 -0.87747,0.76013 -0.70849,1.32037 0.12824,0.42514 0.50797,0.72525 0.95123,0.75174 z m -1.36585,-0.55619 c 0.3507,0.37091 0.86879,0.52645 1.36585,0.55619 v 0 c 0.58413,0.0349 1.08596,-0.41035 1.12088,-0.99448 0.0349,-0.58413 -0.41032,-1.08599 -0.99448,-1.12088 -0.0677,-0.004 -0.13554,-0.002 -0.20274,0.007 -0.22977,0.0305 -0.46091,0.0598 -0.69258,0.0707 v 0 c -0.48464,0.0229 -0.85897,0.4343 -0.83611,0.91895 0.01,0.20997 0.0947,0.4094 0.23918,0.56215 z m -0.31126,-0.0493 c 0.0989,0.0114 0.19894,0.0281 0.29309,0.0612 0.0203,0.007 0.0405,0.0147 0.0593,0.0252 0.009,0.005 -0.0978,-0.079 0.0267,0.0273 h 4e-5 c 0.36893,0.3151 0.92347,0.27142 1.23857,-0.0975 0.3151,-0.36897 0.27142,-0.9235 -0.0975,-1.2386 -0.16988,-0.1451 -0.38871,-0.22003 -0.61192,-0.20948 -0.24175,0.0114 -0.48884,-0.0226 -0.72799,-0.053 v -4e-5 c -0.40975,-0.052 -0.78408,0.23798 -0.83608,0.6477 -0.052,0.40975 0.23795,0.78408 0.6477,0.83608 0.003,3.7e-4 0.005,7.2e-4 0.008,0.001 z m -3.56905,-0.0218 c 0.81665,-0.0102 1.6335,-0.0187 2.45022,-0.0127 0.25375,0.002 0.50772,0.005 0.76133,0.0135 0.11903,0.004 0.23911,0.007 0.35754,0.021 v 0 c 0.41028,0.0475 0.78137,-0.24663 0.82885,-0.65695 0.0471,-0.40707 -0.24218,-0.77625 -0.64872,-0.82786 -0.17248,-0.0219 -0.34682,-0.0312 -0.52035,-0.0403 -0.24966,-0.0131 -0.49957,-0.022 -0.74944,-0.0298 -0.82589,-0.0257 -1.65231,-0.0387 -2.47851,-0.05 v 0 c -0.43716,-0.006 -0.7964,0.34354 -0.80236,0.7807 -0.006,0.43716 0.34354,0.7964 0.7807,0.80236 0.007,1.1e-4 0.0138,1.1e-4 0.0207,3e-5 z m -5.14442,-0.0692 c 1.71246,0.092 3.43017,0.0907 5.14446,0.0692 v 0 c 0.43716,-0.006 0.78708,-0.36434 0.78161,-0.80151 -0.005,-0.42908 -0.35165,-0.77572 -0.78073,-0.78158 -1.67855,-0.023 -3.35975,-0.0641 -5.034,-0.19272 v 0 c -0.47089,-0.0362 -0.88198,0.31627 -0.91814,0.78719 -0.0362,0.47089 0.31627,0.88198 0.78719,0.91814 0.007,3.4e-4 0.013,0.001 0.0196,0.001 z m -3.23067,-0.13481 c 1.07752,0.0246 2.15452,0.0771 3.23066,0.1348 v 0 c 0.47163,0.0253 0.87447,-0.33648 0.8998,-0.80807 0.0249,-0.46398 -0.32519,-0.86297 -0.78846,-0.89853 -1.09869,-0.0844 -2.19943,-0.15889 -3.30126,-0.18478 v 0 c -0.48507,-0.0114 -0.88752,0.37257 -0.89895,0.85764 -0.0114,0.48506 0.37257,0.88751 0.85764,0.89891 2.1e-4,0 2.6e-4,3e-5 7.9e-4,3e-5 z m -7.993026,-0.0293 c 1.79116,2.1e-4 3.58217,0.001 5.373256,0.008 0.87313,0.003 1.74682,0.002 2.61977,0.0216 v 0 c 0.48507,0.0111 0.8873,-0.37318 0.89838,-0.85821 0.0111,-0.48486 -0.37282,-0.88699 -0.85764,-0.89838 -0.88427,-0.0208 -1.76936,-0.0196 -2.65377,-0.0231 -1.793196,-0.007 -3.586436,-0.008 -5.379646,-0.009 v 0 c -0.48581,-1.4e-4 -0.87979,0.39359 -0.87993,0.8794 -1.4e-4,0.48585 0.39359,0.8798 0.8794,0.87994 7e-5,0 1.4e-4,0 1.8e-4,0 z m -7.84666,0.0188 c 0.83658,-0.0147 1.67358,-0.0124 2.51022,-0.0144 1.77882,-0.004 3.55766,-0.005 5.33644,-0.004 v 0 c 0.48584,7e-5 0.87972,-0.39374 0.87976,-0.87958 7e-5,-0.48574 -0.39363,-0.87962 -0.87941,-0.87976 -1.78135,-3.4e-4 -3.56288,1.1e-4 -5.34419,0.0109 -0.55711,0.004 -1.11429,0.008 -1.67132,0.016 -0.29503,0.004 -0.59034,0.008 -0.88512,0.0216 v 0 c -0.47745,0.0213 -0.84727,0.42552 -0.826,0.90297 0.0208,0.46835 0.41088,0.83492 0.87962,0.8267 z m -2.20021,0.11645 c 0.73177,-0.064 1.46573,-0.10357 2.20021,-0.11645 v 0 c 0.47784,-0.008 0.85841,-0.40248 0.85005,-0.88032 -0.008,-0.47784 -0.40252,-0.85842 -0.88035,-0.85005 -0.008,1.4e-4 -0.0156,3.5e-4 -0.0234,6.9e-4 -0.77001,0.0343 -1.53896,0.0917 -2.30572,0.17025 v 0 c -0.46242,0.0474 -0.7989,0.46069 -0.75149,0.92312 0.0469,0.45758 0.45241,0.79279 0.91066,0.75272 z m -2.19575,0.1729 c 0.73243,-0.0507 1.46434,-0.10894 2.19575,-0.1729 v 0 c 0.4631,-0.0405 0.80568,-0.44877 0.76518,-0.91186 -0.0405,-0.46309 -0.44877,-0.80567 -0.91186,-0.76517 -0.004,3.5e-4 -0.008,6.9e-4 -0.0125,0.001 -0.71515,0.0733 -1.43157,0.1355 -2.14894,0.18266 v 0 c -0.46013,0.0303 -0.80861,0.42778 -0.77834,0.88791 0.0302,0.46009 0.42778,0.80857 0.88787,0.77833 10e-4,-7e-5 0.002,-1.4e-4 0.003,-2.1e-4 v 4e-5 z m -3.05111,0.10396 c 1.01699,-0.0157 2.03613,-0.0338 3.05111,-0.10396 v -4e-5 c 0.46002,-0.0318 0.80715,-0.43049 0.77533,-0.89051 -0.0317,-0.4589 -0.4287,-0.80568 -0.88769,-0.77551 -0.98157,0.0645 -1.96815,0.0659 -2.95138,0.0653 v 0 c -0.47078,-2.9e-4 -0.85266,0.38114 -0.85294,0.85189 -2.7e-4,0.47078 0.3811,0.85266 0.85188,0.85294 0.005,0 0.009,-3e-5 0.0137,-1e-4 z m -2.86653,0.0662 c 0.95493,-0.0379 1.91103,-0.0515 2.86653,-0.0662 v -3e-5 c 0.47071,-0.007 0.84642,-0.39473 0.83915,-0.86547 -0.007,-0.46539 -0.38636,-0.83898 -0.85181,-0.83926 -0.97501,-7.1e-4 -1.95178,-0.003 -2.92608,0.0399 v 0 c -0.47798,0.0209 -0.8485,0.42541 -0.82755,0.90339 0.0209,0.47657 0.42312,0.8466 0.89976,0.82769 z m -2.0695,0.0925 c 0.68968,-0.0336 1.37954,-0.0652 2.0695,-0.0925 v 0 c 0.47808,-0.0189 0.85026,-0.42185 0.83132,-0.89994 -0.019,-0.47805 -0.42189,-0.85023 -0.89994,-0.83128 -10e-4,3e-5 -0.002,1e-4 -0.004,1.4e-4 -0.70559,0.0309 -1.41023,0.0836 -2.11363,0.147 v 0 c -0.46232,0.0417 -0.80331,0.45022 -0.76165,0.9125 0.0404,0.44891 0.42778,0.78598 0.87796,0.76408 z m -2.92132,0.14644 c 0.97377,-0.0497 1.94744,-0.099 2.92132,-0.14644 v 0 c 0.46362,-0.0226 0.82116,-0.41674 0.79862,-0.88036 -0.0226,-0.46366 -0.41674,-0.8212 -0.88036,-0.79862 -0.0115,7.2e-4 -0.0231,0.001 -0.0346,0.002 -0.95938,0.0864 -1.92197,0.13804 -2.88414,0.18168 v -3e-5 c -0.45332,0.0206 -0.80412,0.4047 -0.78359,0.85802 0.0206,0.45329 0.40471,0.80412 0.85803,0.78359 0.001,-7e-5 0.003,-1.7e-4 0.005,-2.4e-4 z m -11.71875,0.11444 c 2.62767,-0.006 5.25544,-0.0145 7.883,-0.04 0.83132,-0.008 1.66275,-0.0176 2.49393,-0.0341 0.44735,-0.009 0.89492,-0.0175 1.34182,-0.0403 v 0 c 0.45318,-0.0231 0.8018,-0.4093 0.77865,-0.86248 -0.023,-0.45134 -0.40629,-0.79935 -0.85778,-0.77889 -0.48044,0.0218 -0.96177,0.0274 -1.44265,0.034 -0.77533,0.0108 -1.55091,0.0161 -2.32628,0.0201 -2.62361,0.0135 -5.24736,0.0103 -7.87097,0.005 v 0 c -0.46852,-10e-4 -0.8491,0.37811 -0.85005,0.84663 -10e-4,0.46853 0.37811,0.8491 0.84663,0.85006 0.001,0 0.002,0 0.004,0 z m -11.62924,-0.0551 c 0.48432,0.0224 0.96964,0.0278 1.45432,0.0343 0.77142,0.0103 1.54277,0.0152 2.31422,0.0189 2.62023,0.0123 5.24052,0.008 7.8607,0.002 v 0 c 0.46853,-0.001 0.84745,-0.38181 0.84635,-0.85033 -0.001,-0.46708 -0.37955,-0.8454 -0.84663,-0.84635 -2.61948,-0.005 -5.23896,-0.009 -7.85844,-0.003 -0.82053,0.002 -1.64105,0.005 -2.46158,0.0118 -0.43148,0.004 -0.86321,0.007 -1.29459,0.0193 v 0 c -0.4457,0.0127 -0.79675,0.38432 -0.78405,0.83005 0.012,0.42235 0.34767,0.76398 0.7697,0.78352 z m -3.85943,0.0519 c 1.28418,-0.0736 2.57383,-0.11144 3.85943,-0.0519 v 0 c 0.44541,0.0206 0.82324,-0.32371 0.84387,-0.76916 0.0206,-0.44542 -0.3237,-0.82324 -0.76916,-0.84388 -0.0201,-0.001 -0.0402,-0.001 -0.0603,-6.8e-4 -1.32712,0.0378 -2.65254,0.12985 -3.975212,0.24257 v 0 c -0.392501,0.0334 -0.683612,0.37874 -0.650171,0.77127 0.0328,0.38485 0.36594,0.6737 0.751563,0.65158 z m -5.015833,0.13201 c 1.67259,-7.1e-4 3.345781,-0.0363 5.015833,-0.13201 v 0 c 0.39328,-0.0225 0.69384,-0.35962 0.67134,-0.75293 -0.0225,-0.39331 -0.35966,-0.69388 -0.752974,-0.67134 -0.007,3.5e-4 -0.0132,7.2e-4 -0.01979,0.001 -1.634519,0.13924 -3.275859,0.19202 -4.91599,0.19505 v 4e-5 c -0.375499,6.9e-4 -0.67931,0.30564 -0.6786,0.68114 7.93e-4,0.37511 0.30504,0.67878 0.680151,0.6786 z m -3.91033,10e-4 c 1.303441,-2.9e-4 2.60689,-6.8e-4 3.91033,-10e-4 v -4e-5 c 0.3755,-1.4e-4 0.679771,-0.30465 0.67963,-0.68015 -1.8e-4,-0.3755 -0.304699,-0.67977 -0.68019,-0.67959 -2.65e-4,0 -7.94e-4,0 -0.0011,0 -0.782288,10e-4 -1.564608,0.007 -2.346708,0.023 -0.534461,0.0111 -1.069412,0.0256 -1.602992,0.0596 l 3.2e-5,3e-5 c -0.35274,0.0225 -0.620432,0.32664 -0.597921,0.67935 0.02151,0.33701 0.301101,0.5993 0.638781,0.59923 z m -2.977229,0.01 c 0.992399,-0.005 1.984799,-0.01 2.977229,-0.01 v 0 c 0.353449,-7e-5 0.639871,-0.28667 0.6398,-0.64008 -6.9e-5,-0.35345 -0.286631,-0.63987 -0.64008,-0.6398 -0.0136,0 -0.0271,3.7e-4 -0.0406,0.001 -0.98044,0.0625 -1.963529,0.0833 -2.945731,0.0935 v 3e-5 c -0.329919,0.004 -0.594609,0.27365 -0.59118,0.6036 0.004,0.32872 0.27178,0.59295 0.60053,0.59122 z m -5.04,0.0314 c 1.679998,-0.0114 3.359999,-0.0225 5.040029,-0.0314 v 0 c 0.32996,-0.002 0.596019,-0.27066 0.59426,-0.60061 -0.0021,-0.32996 -0.27065,-0.59602 -0.60061,-0.59426 -0.0011,0 -0.0021,0 -0.003,4e-5 -1.676749,0.0174 -3.35389,0.008 -5.030649,-0.004 v 0 c -0.33958,-0.002 -0.61672,0.2711 -0.61902,0.61068 -0.0021,0.33958 0.271108,0.61673 0.610698,0.61902 0.003,5e-5 0.006,5e-5 0.008,0 z m -4.357971,0.0744 c 0.5461,-0.0257 1.093089,-0.0353 1.639639,-0.0447 0.906042,-0.0155 1.81215,-0.0236 2.7183,-0.0297 v 0 c 0.339582,-0.002 0.613021,-0.27944 0.61073,-0.61902 -0.0021,-0.33635 -0.274389,-0.60844 -0.61073,-0.6107 -0.911119,-0.006 -1.822418,-0.01 -2.733569,-0.003 -0.56138,0.004 -1.12349,0.009 -1.684369,0.035 v 4e-5 c -0.351301,0.0165 -0.622692,0.31478 -0.60611,0.6661 0.01651,0.35134 0.31478,0.62269 0.666109,0.60616 z m -2.117611,0.12753 c 0.705202,-0.0528 1.411211,-0.0942 2.117611,-0.12753 v 0 c 0.35134,-0.0166 0.622689,-0.31482 0.60615,-0.66616 -0.01659,-0.3513 -0.31482,-0.62269 -0.666149,-0.6061 0,0 0,0 0,0 -0.714981,0.0337 -1.429782,0.0712 -2.14426,0.11406 v 0 c -0.355241,0.0213 -0.62597,0.32653 -0.604661,0.68174 0.0213,0.35525 0.326499,0.62593 0.681739,0.60466 0.003,-2.2e-4 0.006,-3.5e-4 0.01,-7.2e-4 v -3e-5 z m -2.325478,0.13794 c 0.775649,-0.0366 1.55109,-0.0799 2.325478,-0.13794 v 4e-5 c 0.354851,-0.0266 0.62099,-0.33579 0.594461,-0.69067 -0.0263,-0.35116 -0.3296,-0.61616 -0.681109,-0.5951 -0.764331,0.0458 -1.529321,0.0798 -2.294462,0.1084 v -4e-5 c -0.363259,0.0136 -0.64675,0.3191 -0.633169,0.68238 0.0136,0.3633 0.31909,0.64679 0.682379,0.63321 0.0021,-7e-5 0.004,-1.8e-4 0.006,-3e-4 z m -2.540641,0.0776 c 0.847241,-0.0108 1.694249,-0.0376 2.540641,-0.0776 v 0 c 0.363148,-0.0172 0.643609,-0.32541 0.626459,-0.68857 -0.01701,-0.3606 -0.32131,-0.64022 -0.682091,-0.62674 -0.833159,0.0312 -1.666769,0.0521 -2.500489,0.0608 v 0 c -0.367811,0.004 -0.662869,0.30517 -0.659059,0.67296 0.004,0.36785 0.305149,0.66292 0.67296,0.65907 2.64e-4,0 0.0011,0 0.0021,0 z m -2.360821,0.0434 c 0.786841,-0.0191 1.573781,-0.0333 2.360821,-0.0434 v 0 c 0.367811,-0.005 0.66217,-0.3067 0.657479,-0.67451 -0.005,-0.36721 -0.30576,-0.66132 -0.672959,-0.65751 -0.79284,0.008 -1.58567,0.0219 -2.37829,0.0418 v 0 c -0.36826,0.009 -0.659339,0.31523 -0.6501,0.68353 0.009,0.36806 0.31496,0.65907 0.683049,0.6501 z m -3.029059,0.0992 c 1.009481,-0.0382 2.019131,-0.0746 3.02903,-0.0992 v 0 c 0.3683,-0.009 0.659579,-0.31475 0.650621,-0.68305 -0.009,-0.36827 -0.314751,-0.65956 -0.683051,-0.65063 -1.41e-4,3e-5 -2.65e-4,3e-5 -2.65e-4,3e-5 -1.017021,0.0255 -2.033759,0.0675 -3.050111,0.11215 v 0 c -0.36467,0.016 -0.64728,0.32464 -0.63127,0.68927 0.01601,0.3631 0.322091,0.64518 0.685282,0.63143 z m -4.745561,0.28995 c 1.580052,-0.12052 3.161911,-0.22998 4.745561,-0.28995 v 0 c 0.364739,-0.0138 0.649219,-0.32067 0.635429,-0.68541 -0.01381,-0.36478 -0.320709,-0.64926 -0.685448,-0.63543 -0.0011,4e-5 -0.003,7e-5 -0.004,1.4e-4 -1.59833,0.0702 -3.194931,0.17953 -4.79029,0.29785 v 0 c -0.36255,0.0269 -0.63465,0.34263 -0.607771,0.70517 0.0269,0.36255 0.342619,0.63465 0.70513,0.60774 2.65e-4,-5e-5 0.0011,-8e-5 0.0011,-1.1e-4 z m -4.949619,0.36357 c 1.650331,-0.11469 3.300101,-0.23774 4.949619,-0.36357 v 0 c 0.362511,-0.0276 0.633942,-0.34392 0.606282,-0.7064 -0.0276,-0.36195 -0.343001,-0.63325 -0.705022,-0.6064 -1.640459,0.12167 -3.2825,0.22921 -4.926259,0.29437 v 0 c -0.38196,0.0151 -0.679309,0.337 -0.66418,0.71896 0.01511,0.38194 0.33705,0.6793 0.71896,0.66416 0.007,-2.9e-4 0.01371,-6.8e-4 0.02061,-0.001 z m -2.82422802,0.15945 c 0.362233,-0.007 0.724357,-0.0272 1.086061,-0.0477 0.579684,-0.0328 1.15894702,-0.0715 1.73816702,-0.11176 v 0 c 0.38132,-0.0265 0.668981,-0.35709 0.64248,-0.73844 -0.02601,-0.37331 -0.343921,-0.65839 -0.71786,-0.64356 -0.923681,0.0366 -1.84817202,0.0788 -2.77258902,0.0907 v 0 c -0.40065098,0.005 -0.72129198,0.33412 -0.71613998,0.73476 0.0052,0.40065 0.334116,0.72125 0.73480098,0.7161 0.0019,0 0.0035,-3e-5 0.0051,-7e-5 z m -2.32589998,0.11003 c 0.774417,-0.046 1.55007,-0.0946 2.32586498,-0.11003 v 0 c 0.400614,-0.008 0.718926,-0.33916 0.710989,-0.73974 -0.0079,-0.39863 -0.336021,-0.71617 -0.734661,-0.71106 -0.79583198,0.0102 -1.59169898,0.0569 -2.38618998,0.10118 v 0 c -0.403119,0.0224 -0.711695,0.36746 -0.689255,0.77058 0.02246,0.40308 0.367453,0.71169 0.770572,0.68921 7.94e-4,-3e-5 0.0019,-1e-4 0.0028,-1.4e-4 z m -2.938004,0.21439 c 0.978077,-0.0877 1.957776,-0.15618 2.938004,-0.21439 v 0 c 0.403014,-0.0239 0.710354,-0.37006 0.686401,-0.77307 -0.02384,-0.402 -0.368337,-0.70897 -0.770398,-0.68658 -0.995045,0.0554 -1.989595,0.12118 -2.982595,0.20617 v 4e-5 c -0.40541,0.0347 -0.705943,0.39143 -0.671229,0.79684 0.03468,0.40541 0.391477,0.70595 0.796856,0.67127 0.0011,-1.1e-4 0.0021,-1.8e-4 0.0028,-2.9e-4 z m -3.223295,0.2777 c 1.074669,-0.09 2.149192,-0.18143 3.223295,-0.2777 v 0 c 0.405273,-0.0363 0.704358,-0.3943 0.66802,-0.79958 -0.03619,-0.40409 -0.392324,-0.70287 -0.796571,-0.66825 -1.071316,0.0917 -2.143162,0.17761 -3.215076,0.26178 v 0 c -0.409821,0.0322 -0.715963,0.39049 -0.683755,0.80032 0.03217,0.40978 0.390491,0.71592 0.800312,0.68375 0.0013,-1.1e-4 0.0024,-2.1e-4 0.0038,-3.1e-4 z m -3.449248,0.26102 c 1.150548,-0.0758 2.300216,-0.16485 3.449248,-0.26102 v 0 c 0.409647,-0.0343 0.713952,-0.39416 0.679662,-0.8038 -0.03418,-0.40817 -0.391689,-0.712 -0.799994,-0.67995 -1.136155,0.0892 -2.273546,0.16436 -3.412173,0.21316 v -4e-5 c -0.423227,0.0181 -0.751628,0.37592 -0.733496,0.79914 0.01812,0.42323 0.37592,0.7516 0.799147,0.73346 0.0059,-2.4e-4 0.01172,-6.8e-4 0.0176,-0.001 z m -2.594081,0.14824 c 0.865259,-0.0381 1.729846,-0.0913 2.594081,-0.14824 v 0 c 0.422661,-0.0278 0.742738,-0.39306 0.714904,-0.81576 -0.02741,-0.41586 -0.381812,-0.73371 -0.798161,-0.71589 -0.850019,0.0364 -1.700741,0.0669 -2.551607,0.0726 v 0 c -0.444077,0.003 -0.801616,0.36537 -0.798618,0.80941 0.0028,0.44404 0.365373,0.80162 0.809413,0.79862 0.01,-7e-5 0.02,-3.1e-4 0.02999,-7.1e-4 z m -2.077826,0.0684 c 0.692854,-0.0151 1.385499,-0.0379 2.077826,-0.0684 v 0 c 0.443653,-0.0195 0.787434,-0.39504 0.767855,-0.83866 -0.01902,-0.43198 -0.376272,-0.77156 -0.808672,-0.76863 -0.686893,0.005 -1.373788,0.009 -2.060716,0.0139 v 0 c -0.45893,0.003 -0.828463,0.37768 -0.825359,0.83661 0.0032,0.45893 0.377647,0.82846 0.836578,0.82536 0.0042,-4e-5 0.0083,-1.1e-4 0.01249,-1.8e-4 z m -2.061985,0.0751 c 0.686927,-0.0348 1.374349,-0.0601 2.061985,-0.0751 v 0 c 0.458856,-0.01 0.822711,-0.39006 0.812694,-0.84892 -0.0099,-0.45396 -0.382341,-0.8159 -0.836401,-0.81287 -0.701429,0.005 -1.402752,0.0167 -2.103897,0.0353 v 0 c -0.470112,0.0125 -0.841092,0.40364 -0.828638,0.87376 0.01246,0.47011 0.403648,0.84109 0.87376,0.82864 0.0068,-2.2e-4 0.01365,-3.7e-4 0.0205,-7.1e-4 z m -2.877505,0.1166 c 0.959379,-0.0332 1.918795,-0.068 2.877539,-0.1166 v 0 c 0.469652,-0.0238 0.831109,-0.42382 0.807297,-0.89348 -0.02339,-0.46168 -0.410882,-0.82035 -0.872985,-0.8081 -0.955286,0.0254 -1.910538,0.0514 -2.865789,0.0776 v 0 c -0.480695,0.0132 -0.859684,0.41356 -0.846492,0.89422 0.01315,0.48069 0.413528,0.85972 0.894223,0.84652 0.0021,-3e-5 0.0041,-1e-4 0.0062,-1.7e-4 z m -11.639231,0.11634 c 2.603675,-0.0142 5.207175,-0.0297 7.810747,-0.0557 0.828109,-0.008 1.656186,-0.0174 2.48426,-0.0308 0.448098,-0.007 0.896303,-0.0144 1.344224,-0.0299 v 0 c 0.480589,-0.0166 0.856721,-0.41967 0.840105,-0.90026 -0.01654,-0.47815 -0.415782,-0.8534 -0.894043,-0.84031 -0.487188,0.0134 -0.974725,0.0158 -1.462088,0.0188 -0.773784,0.005 -1.54746,0.006 -2.321279,0.006 -2.600782,-7e-5 -5.201496,-0.0118 -7.802244,-0.025 v 0 c -0.512975,-0.002 -0.93091,0.41109 -0.933521,0.92407 -0.0025,0.51294 0.411127,0.93087 0.924066,0.93348 0.0032,4e-5 0.0065,4e-5 0.0098,0 z m -10.455805,0.0585 c 3.485233,-0.0269 6.970571,-0.0395 10.455805,-0.0585 v 0 c 0.512973,-0.003 0.926535,-0.42086 0.923748,-0.93383 -0.0028,-0.50913 -0.414938,-0.92114 -0.924066,-0.92372 -2.506557,-0.0128 -5.013078,-0.0252 -7.51967,-0.0331 -0.701217,-0.002 -1.402398,-0.004 -2.103649,-0.004 -0.28829,1.1e-4 -0.577074,-0.003 -0.865329,0.005 v 0 c -0.537951,0.0142 -0.962589,0.46175 -0.948443,0.9997 0.01397,0.5309 0.450532,0.95286 0.981604,0.94876 z m -1.971499,0.10069 c 0.655673,-0.0466 1.313851,-0.0956 1.971499,-0.10069 v 0 c 0.538127,-0.004 0.971021,-0.44379 0.966858,-0.98192 -0.0042,-0.53812 -0.443759,-0.97098 -0.981922,-0.96686 -0.006,7e-5 -0.01207,1.8e-4 -0.0181,3.2e-4 -0.690668,0.0182 -1.380913,0.0638 -2.070241,0.10855 v 4e-5 c -0.535975,0.0348 -0.94227,0.49752 -0.90745,1.03349 0.03482,0.53598 0.497522,0.94224 1.033497,0.90745 0.0021,-1.4e-4 0.0039,-2.9e-4 0.0059,-3.4e-4 v 4e-5 z m -2.857605,0.25132 c 0.951159,-0.0984 1.90373,-0.18366 2.85757,-0.25132 v -4e-5 c 0.535764,-0.038 0.939271,-0.50317 0.901242,-1.03893 -0.03789,-0.53347 -0.499428,-0.93627 -1.03311,-0.90159 -0.974902,0.0633 -1.948639,0.14393 -2.921071,0.23773 v 0 c -0.53982,0.0521 -0.935213,0.53189 -0.883143,1.07171 0.05207,0.53982 0.531918,0.93521 1.071703,0.88314 0.0021,-2.5e-4 0.0046,-3.4e-4 0.0068,-6.8e-4 z m -2.16976,0.16958 c 0.290759,-0.004 0.581413,-0.0254 0.87122,-0.0483 0.433388,-0.0342 0.866105,-0.0766 1.29854,-0.12132 v 0 c 0.539432,-0.0558 0.931474,-0.53838 0.875665,-1.07781 -0.05556,-0.53679 -0.533859,-0.92816 -1.071034,-0.87634 -0.418888,0.0404 -0.837988,0.0792 -1.257547,0.11201 -0.253329,0.0198 -0.507118,0.0392 -0.761188,0.047 v 0 c -0.542467,0.0166 -0.968763,0.46975 -0.952218,1.01219 0.01637,0.53636 0.459987,0.9604 0.996562,0.95257 z m -0.422134,0.013 c -0.0084,0.003 -0.05584,0.0175 -0.05006,0.0164 0.02628,-0.005 0.05302,-0.008 0.07962,-0.0106 0.130281,-0.0134 0.26169,-0.0169 0.392571,-0.0188 v 0 c 0.542643,-0.008 0.976136,-0.45428 0.968199,-0.99692 -0.0079,-0.54264 -0.454272,-0.9761 -0.996915,-0.9682 -0.0052,1.1e-4 -0.01041,2.1e-4 -0.01563,3.7e-4 -0.149472,0.005 -0.299085,0.008 -0.448628,0.008 -0.06438,-7e-5 -0.129822,0.001 -0.193992,-0.005 v 0 c -0.562223,-0.0535 -1.061368,0.35883 -1.114885,0.92105 -0.05352,0.56223 0.358846,1.06137 0.921068,1.11489 0.155575,0.0148 0.312455,-0.006 0.458646,-0.0615 z m -1.729387,-0.9495 c 0.109361,0.25047 0.253929,0.48976 0.456071,0.67645 0.340995,0.31496 0.831991,0.43995 1.273316,0.27301 v 0 c 0.52825,-0.19977 0.794526,-0.78997 0.594713,-1.31819 -0.07327,-0.19378 -0.203694,-0.36071 -0.373945,-0.47872 -0.0032,-0.006 -0.0073,-0.0146 -0.0099,-0.0203 v 0 c -0.244359,-0.53366 -0.875055,-0.76818 -1.408702,-0.52381 -0.526979,0.2413 -0.763446,0.86035 -0.53153,1.39153 z m -0.343359,-0.99995 c 0.08139,0.3435 0.202283,0.67673 0.343394,0.99995 h -3.5e-5 c 0.234879,0.53791 0.861342,0.78355 1.399222,0.54871 0.537916,-0.23488 0.78359,-0.86131 0.548711,-1.39922 -0.0025,-0.006 -0.0051,-0.0115 -0.0077,-0.0173 -0.08759,-0.1912 -0.1651,-0.39006 -0.208561,-0.59637 v 0 c -0.120993,-0.57461 -0.684908,-0.94235 -1.259512,-0.82134 -0.57464,0.12103 -0.94234,0.68491 -0.821337,1.25955 0.0018,0.009 0.0038,0.0173 0.0058,0.026 z m -0.138702,-1.20044 c 0.01429,0.40199 0.04575,0.8081 0.138712,1.20046 v 0 c 0.135361,0.5714 0.708308,0.92485 1.279737,0.78949 0.561269,-0.13297 0.914153,-0.68926 0.795302,-1.25371 -0.0551,-0.26155 -0.06526,-0.53414 -0.07179,-0.80048 h 3.6e-5 c -0.0145,-0.59161 -0.505814,-1.05943 -1.097387,-1.04497 -0.591608,0.0145 -1.059427,0.50578 -1.044963,1.09739 1.06e-4,0.004 2.12e-4,0.008 3.52e-4,0.0118 z m -0.04801,-0.85062 c 0.02879,0.28229 0.03796,0.56712 0.04801,0.85055 v 0 c 0.02099,0.59139 0.517419,1.05381 1.108816,1.03282 0.586775,-0.0208 1.047538,-0.51001 1.03318,-1.09699 -0.0086,-0.35028 -0.01969,-0.7038 -0.07098,-1.05089 v 0 c -0.08625,-0.5835 -0.629214,-0.98658 -1.212709,-0.90033 -0.564973,0.0835 -0.964247,0.59669 -0.906321,1.16484 z m -0.09655,-0.45547 c 0.04463,0.14862 0.08079,0.30081 0.09655,0.45543 v 0 c 0.0598,0.58681 0.583988,1.01403 1.170799,0.95423 0.58681,-0.0598 1.014024,-0.58399 0.954193,-1.1708 -0.0018,-0.016 -0.0036,-0.032 -0.006,-0.0479 -0.04085,-0.27636 -0.108444,-0.54846 -0.192652,-0.81467 v 0 c -0.176283,-0.55739 -0.771031,-0.86631 -1.328384,-0.69 -0.551674,0.17445 -0.86099,0.75957 -0.694549,1.31368 z m -0.190712,-0.87598 c 0.04117,0.29626 0.104669,0.58945 0.190712,0.87594 v 0 c 0.168134,0.5599 0.758331,0.87743 1.318189,0.7093 0.559894,-0.16817 0.877429,-0.75833 0.709295,-1.31823 -0.0014,-0.005 -0.0028,-0.01 -0.0046,-0.0147 -0.04314,-0.13646 -0.06562,-0.27898 -0.06847,-0.42203 v 0 c -0.01178,-0.59514 -0.503766,-1.06807 -1.098938,-1.05629 -0.595136,0.0118 -1.06807,0.5038 -1.056287,1.09894 7.06e-4,0.0425 0.0042,0.0849 0.01005,0.12704 z m -0.154658,-0.55372 c 0.06918,0.17843 0.128235,0.36364 0.154658,0.55372 v 0 c 0.08195,0.58959 0.626322,1.00114 1.215919,0.91919 0.540879,-0.0751 0.940082,-0.54296 0.929252,-1.08892 -0.0078,-0.39419 -0.09398,-0.78369 -0.225601,-1.15425 v 0 c -0.204541,-0.5758 -0.837107,-0.87679 -1.412946,-0.67229 -0.575804,0.20454 -0.876794,0.83714 -0.672253,1.41295 0.0035,0.01 0.0072,0.0198 0.01097,0.0296 z m 0,0 v 0 c 0.220875,0.56973 0.861801,0.85255 1.431537,0.63168 0.558306,-0.21643 0.843104,-0.83771 0.642691,-1.40194 -0.09645,-0.27157 -0.269734,-0.51675 -0.500945,-0.69 -0.280035,-0.20987 -0.652603,-0.31203 -0.994092,-0.20295 v 0 c -0.09528,0.0304 -0.184785,0.0766 -0.26483,0.13656 -0.464256,0.3478 -0.509941,1.02214 -0.314361,1.52665 z" />
  </g>
</svg>
