<?xml version="1.0" encoding="UTF-8" standalone="no"?>
<svg
   xmlns:dc="http://purl.org/dc/elements/1.1/"
   xmlns:cc="http://creativecommons.org/ns#"
   xmlns:rdf="http://www.w3.org/1999/02/22-rdf-syntax-ns#"
   xmlns:svg="http://www.w3.org/2000/svg"
   xmlns="http://www.w3.org/2000/svg"
   xmlns:sodipodi="http://sodipodi.sourceforge.net/DTD/sodipodi-0.dtd"
   xmlns:inkscape="http://www.inkscape.org/namespaces/inkscape"
   version="1.1"
   id="Capa_1"
   x="0px"
   y="0px"
   width="512px"
   height="512px"
   viewBox="0 0 460.492 460.492"
   style="enable-background:new 0 0 460.492 460.492;"
   xml:space="preserve"
   class=""
   sodipodi:docname="bullet.svg"
   inkscape:version="0.92.3 (2405546, 2018-03-11)"><metadata
   id="metadata985"><rdf:RDF><cc:Work
       rdf:about=""><dc:format>image/svg+xml</dc:format><dc:type
         rdf:resource="http://purl.org/dc/dcmitype/StillImage" /><dc:title></dc:title></cc:Work></rdf:RDF></metadata><defs
   id="defs983">
	

		
	</defs><sodipodi:namedview
   pagecolor="#ffffff"
   bordercolor="#666666"
   borderopacity="1"
   objecttolerance="10"
   gridtolerance="10"
   guidetolerance="10"
   inkscape:pageopacity="0"
   inkscape:pageshadow="2"
   inkscape:window-width="1920"
   inkscape:window-height="1025"
   id="namedview981"
   showgrid="false"
   inkscape:zoom="1.6484375"
   inkscape:cx="256"
   inkscape:cy="256"
   inkscape:window-x="0"
   inkscape:window-y="27"
   inkscape:window-maximized="1"
   inkscape:current-layer="Capa_1" /><path
   style="fill:#d34f21;fill-opacity:1"
   inkscape:connector-curvature="0"
   id="path972"
   data-old_color="#000000"
   class="active-path"
   data-original="#000000"
   d="m 349.574,139.747 c -6.592,-3.469 -12.279,-6.464 -16.118,-8.871 C 305.562,113.385 275.593,96.178 244.394,79.73 215.16,64.313 184.481,49.374 153.219,35.318 145.119,31.679 137.34,27.097 129.104,22.253 115.52,14.265 101.477,5.998 85.278,1.774 70.406,-2.099 58.331,0.427 50.356,8.798 39.723,19.962 39.103,38.09 39.893,54.345 c 1.333,27.121 1.655,54.857 1.97,81.684 0.152,12.901 0.308,25.796 0.559,38.682 0.478,23.737 0.731,47.469 0.983,71.196 0.66,61.388 1.34,124.857 6,187.393 0.155,2.087 0.571,4.144 1.274,6.251 1.912,12.213 11.243,20.941 22.625,20.941 3.057,0 6.178,-0.625 9.265,-1.844 59.946,-23.698 120.519,-58.711 185.194,-107.038 27.507,-20.561 55.629,-43.274 83.578,-67.512 5.134,-4.453 11.979,-9.252 19.22,-14.346 19.348,-13.568 41.274,-28.959 48.348,-49.538 2.727,-7.949 3.926,-20.416 -5.905,-34.652 -13.489,-19.524 -42.352,-34.718 -63.43,-45.815 z m 9.749,69.189 C 294.025,268.96 200.035,348.73 97.914,396.875 94.492,334.681 93.966,271.541 93.469,210.331 c -0.396,-48.109 -0.808,-97.7 -2.621,-146.797 102.549,43.152 194.824,93.127 268.475,145.402 z" /> <path
   style="fill:#d34f21;fill-opacity:1;stroke:#e6550d;stroke-width:0.34895957;stroke-linejoin:round;stroke-miterlimit:4;stroke-dasharray:none;stroke-dashoffset:0;stroke-opacity:1;paint-order:normal"
   d="m 78.905168,409.93515 c -3.01e-4,-0.73441 -0.418501,-9.84321 -0.929341,-20.24176 C 75.778402,344.96258 74.780487,299.47718 73.854205,201.82922 73.224897,135.48817 72.374451,86.760172 71.371563,59.580617 71.085306,51.822967 70.888037,45.442356 70.933176,45.401483 c 0.150631,-0.136399 17.547742,7.014744 36.693864,15.083137 75.86696,31.971201 148.29049,68.06968 210.51783,104.92963 23.27899,13.78915 61.09522,37.7518 62.1582,39.38717 0.18882,0.29051 -0.74441,1.42867 -2.07383,2.52928 -1.32944,1.10058 -8.07782,6.86851 -14.99639,12.81758 -86.48417,74.36526 -166.98926,131.15748 -241.40296,170.29745 -10.97223,5.77114 -31.745767,15.99018 -38.032078,18.70896 -4.811001,2.0807 -4.892103,2.09364 -4.892644,0.78046 z"
   id="path1012"
   inkscape:connector-curvature="0" /></svg>