<?xml version="1.0" encoding="UTF-8" standalone="no"?>
<!-- Created with Inkscape (http://www.inkscape.org/) -->

<svg
   xmlns:dc="http://purl.org/dc/elements/1.1/"
   xmlns:cc="http://creativecommons.org/ns#"
   xmlns:rdf="http://www.w3.org/1999/02/22-rdf-syntax-ns#"
   xmlns:svg="http://www.w3.org/2000/svg"
   xmlns="http://www.w3.org/2000/svg"
   xmlns:sodipodi="http://sodipodi.sourceforge.net/DTD/sodipodi-0.dtd"
   xmlns:inkscape="http://www.inkscape.org/namespaces/inkscape"
   width="130.40373mm"
   height="82.890823mm"
   viewBox="0 0 462.06047 293.70764"
   id="svg2"
   version="1.1"
   inkscape:version="0.91 r13725"
   sodipodi:docname="cl.svg">
  <defs
     id="defs4" />
  <sodipodi:namedview
     id="base"
     pagecolor="#ffffff"
     bordercolor="#666666"
     borderopacity="1.0"
     inkscape:pageopacity="0.0"
     inkscape:pageshadow="2"
     inkscape:zoom="3.959798"
     inkscape:cx="148.31681"
     inkscape:cy="166.81636"
     inkscape:document-units="px"
     inkscape:current-layer="layer1"
     showgrid="false"
     fit-margin-top="0"
     fit-margin-left="0"
     fit-margin-right="0"
     fit-margin-bottom="0"
     inkscape:window-width="1920"
     inkscape:window-height="1056"
     inkscape:window-x="0"
     inkscape:window-y="24"
     inkscape:window-maximized="1" />
  <metadata
     id="metadata7">
    <rdf:RDF>
      <cc:Work
         rdf:about="">
        <dc:format>image/svg+xml</dc:format>
        <dc:type
           rdf:resource="http://purl.org/dc/dcmitype/StillImage" />
        <dc:title></dc:title>
      </cc:Work>
    </rdf:RDF>
  </metadata>
  <g
     inkscape:label="Layer 1"
     inkscape:groupmode="layer"
     id="layer1"
     transform="translate(-228.18036,-282.76296)">
    <g
       id="g4289"
       transform="matrix(11.229563,0,0,10.883704,394.09481,282.76296)"
       style="fill:#187795;fill-opacity:1">
      <g
         id="g4291"
         style="fill:#187795;fill-opacity:1">
        <path
           id="path4293"
           data-old_color="#a42604"
           class="active-path"
           data-original="#000000"
           d="m 0.614,2.145 0,22.695 c 0,1.188 0.961,2.146 2.145,2.146 l 21.467,0 c 1.184,0 2.146,-0.959 2.146,-2.146 l 0,-22.695 C 26.372,0.963 25.409,0 24.225,0 L 2.759,0 C 1.575,0 0.614,0.963 0.614,2.145 Z M 8.778,20.82 c 0,1.533 -1.244,2.779 -2.777,2.779 -1.535,0 -2.777,-1.246 -2.777,-2.779 0,-1.531 1.242,-2.777 2.777,-2.777 1.533,0 2.777,1.246 2.777,2.777 z M 23.696,5.596 c 0,1.535 -1.246,2.779 -2.779,2.779 -1.531,0 -2.775,-1.244 -2.775,-2.779 0,-1.533 1.244,-2.777 2.775,-2.777 1.533,-10e-4 2.779,1.243 2.779,2.777 z"
           inkscape:connector-curvature="0"
           style="fill:#187795;fill-opacity:1" />
        <g
           id="g4295"
           style="fill:#187795;fill-opacity:1" />
        <g
           id="g4297"
           style="fill:#187795;fill-opacity:1" />
        <g
           id="g4299"
           style="fill:#187795;fill-opacity:1" />
        <g
           id="g4301"
           style="fill:#187795;fill-opacity:1" />
        <g
           id="g4303"
           style="fill:#187795;fill-opacity:1" />
        <g
           id="g4305"
           style="fill:#187795;fill-opacity:1" />
        <g
           id="g4307"
           style="fill:#187795;fill-opacity:1" />
        <g
           id="g4309"
           style="fill:#187795;fill-opacity:1" />
        <g
           id="g4311"
           style="fill:#187795;fill-opacity:1" />
        <g
           id="g4313"
           style="fill:#187795;fill-opacity:1" />
        <g
           id="g4315"
           style="fill:#187795;fill-opacity:1" />
        <g
           id="g4317"
           style="fill:#187795;fill-opacity:1" />
        <g
           id="g4319"
           style="fill:#187795;fill-opacity:1" />
        <g
           id="g4321"
           style="fill:#187795;fill-opacity:1" />
        <g
           id="g4323"
           style="fill:#187795;fill-opacity:1" />
      </g>
    </g>
    <g
       id="g4575"
       transform="matrix(0.13778076,0,0,0.13778076,246.18036,392.87527)">
      <g
         id="g4535">
        <path
           id="path4537"
           d="m 516.667,200 -183.334,0 0,-183.333 C 333.333,7.462 325.871,0 316.667,0 l -100,0 C 207.462,0 200,7.462 200,16.667 L 200,200 16.667,200 C 7.462,200 0,207.462 0,216.667 l 0,100 c 0,9.204 7.462,16.666 16.667,16.666 l 183.333,0 0,183.334 c 0,9.204 7.462,16.666 16.667,16.666 l 100,0 c 9.204,0 16.667,-7.462 16.667,-16.666 l 0,-183.334 183.333,0 c 9.204,0 16.667,-7.462 16.667,-16.666 l 0,-100 C 533.333,207.462 525.871,200 516.667,200 Z"
           inkscape:connector-curvature="0"
           style="fill:#187795;fill-opacity:1" />
      </g>
      <g
         id="g4539" />
      <g
         id="g4541" />
      <g
         id="g4543" />
      <g
         id="g4545" />
      <g
         id="g4547" />
      <g
         id="g4549" />
      <g
         id="g4551" />
      <g
         id="g4553" />
      <g
         id="g4555" />
      <g
         id="g4557" />
      <g
         id="g4559" />
      <g
         id="g4561" />
      <g
         id="g4563" />
      <g
         id="g4565" />
      <g
         id="g4567" />
    </g>
    <g
       id="g4640"
       transform="matrix(3.3492788,0,0,3.3492788,305.4058,376.02832)"
       style="fill:#187795;fill-opacity:1">
      <g
         id="g4595"
         style="fill:#187795;fill-opacity:1">
        <g
           id="info"
           style="fill:#187795;fill-opacity:1">
          <g
             id="g4598"
             style="fill:#187795;fill-opacity:1">
            <path
               id="path4600"
               d="m 10,16 c 1.105,0 2,0.895 2,2 l 0,8 c 0,1.105 -0.895,2 -2,2 l -2,0 0,4 16,0 0,-4 -1.992,0 c -1.102,0 -2,-0.895 -2,-2 L 20,12 8,12 l 0,4 2,0 z"
               inkscape:connector-curvature="0"
               style="fill:#187795;fill-opacity:1" />
            <circle
               id="circle4602"
               r="4"
               cy="4"
               cx="16"
               style="fill:#187795;fill-opacity:1" />
          </g>
        </g>
      </g>
      <g
         id="g4604"
         style="fill:#187795;fill-opacity:1" />
      <g
         id="g4606"
         style="fill:#187795;fill-opacity:1" />
      <g
         id="g4608"
         style="fill:#187795;fill-opacity:1" />
      <g
         id="g4610"
         style="fill:#187795;fill-opacity:1" />
      <g
         id="g4612"
         style="fill:#187795;fill-opacity:1" />
      <g
         id="g4614"
         style="fill:#187795;fill-opacity:1" />
      <g
         id="g4616"
         style="fill:#187795;fill-opacity:1" />
      <g
         id="g4618"
         style="fill:#187795;fill-opacity:1" />
      <g
         id="g4620"
         style="fill:#187795;fill-opacity:1" />
      <g
         id="g4622"
         style="fill:#187795;fill-opacity:1" />
      <g
         id="g4624"
         style="fill:#187795;fill-opacity:1" />
      <g
         id="g4626"
         style="fill:#187795;fill-opacity:1" />
      <g
         id="g4628"
         style="fill:#187795;fill-opacity:1" />
      <g
         id="g4630"
         style="fill:#187795;fill-opacity:1" />
      <g
         id="g4632"
         style="fill:#187795;fill-opacity:1" />
    </g>
  </g>
</svg>
