<?xml version="1.0" encoding="UTF-8" standalone="no"?>
<!-- Created with Inkscape (http://www.inkscape.org/) -->

<svg
   xmlns:dc="http://purl.org/dc/elements/1.1/"
   xmlns:cc="http://creativecommons.org/ns#"
   xmlns:rdf="http://www.w3.org/1999/02/22-rdf-syntax-ns#"
   xmlns:svg="http://www.w3.org/2000/svg"
   xmlns="http://www.w3.org/2000/svg"
   xmlns:sodipodi="http://sodipodi.sourceforge.net/DTD/sodipodi-0.dtd"
   xmlns:inkscape="http://www.inkscape.org/namespaces/inkscape"
   width="56.68504mm"
   height="130.91724mm"
   viewBox="0 0 56.68504 130.91724"
   version="1.1"
   id="svg12096"
   inkscape:version="0.92.3 (2405546, 2018-03-11)"
   sodipodi:docname="curve.svg">
  <defs
     id="defs12090" />
  <sodipodi:namedview
     id="base"
     pagecolor="#ffffff"
     bordercolor="#666666"
     borderopacity="1.0"
     inkscape:pageopacity="0.0"
     inkscape:pageshadow="2"
     inkscape:zoom="0.98994949"
     inkscape:cx="99.307209"
     inkscape:cy="276.02318"
     inkscape:document-units="mm"
     inkscape:current-layer="layer1"
     showgrid="false"
     fit-margin-top="0"
     fit-margin-left="0"
     fit-margin-right="0"
     fit-margin-bottom="0"
     inkscape:window-width="1920"
     inkscape:window-height="1025"
     inkscape:window-x="0"
     inkscape:window-y="27"
     inkscape:window-maximized="1" />
  <metadata
     id="metadata12093">
    <rdf:RDF>
      <cc:Work
         rdf:about="">
        <dc:format>image/svg+xml</dc:format>
        <dc:type
           rdf:resource="http://purl.org/dc/dcmitype/StillImage" />
        <dc:title></dc:title>
      </cc:Work>
    </rdf:RDF>
  </metadata>
  <g
     inkscape:label="Layer 1"
     inkscape:groupmode="layer"
     id="layer1"
     transform="translate(-212.05029,-42.553279)">
    <path
       inkscape:connector-curvature="0"
       id="path11292"
       style="fill:#a42604;fill-opacity:1;fill-rule:nonzero;stroke:none;stroke-width:0.35277775"
       d="m 267.44303,43.070873 c 0.14281,-3.28e-4 0.28568,0.02529 0.4245,0.05681 0.20669,0.04693 0.40926,0.111573 0.60876,0.182749 v 0 c 0.10085,0.03597 0.21177,-0.01662 0.24772,-0.117443 0.0342,-0.09579 -0.0115,-0.201697 -0.1046,-0.242609 -0.20807,-0.09143 -0.41928,-0.176717 -0.63567,-0.246503 -0.16701,-0.05385 -0.33832,-0.09969 -0.51294,-0.120075 v 0 c -0.13406,-0.01563 -0.25541,0.08034 -0.27104,0.214386 -0.0157,0.134049 0.0803,0.255397 0.21438,0.271043 0.01,0.0011 0.0192,0.0018 0.0289,0.0018 z m -0.82338,-0.506522 v 0 c -0.16055,0.01101 -0.28176,0.150068 -0.27075,0.310617 0.011,0.160553 0.15007,0.281785 0.31062,0.270786 0.0111,-7.07e-4 0.0222,-0.0021 0.0332,-0.0042 0.2474,-0.04586 0.49872,-0.0701 0.75035,-0.07068 v 0 c 0.13494,-3.1e-4 0.24413,-0.109965 0.24381,-0.244924 -2.6e-4,-0.123782 -0.0931,-0.227799 -0.21604,-0.24215 -0.28233,-0.03295 -0.56762,-0.03888 -0.85115,-0.01944 z m 0,0 c -0.36826,0.02522 -0.7288,0.136137 -1.07195,0.266968 v 4e-6 c -0.17251,0.06578 -0.25904,0.258974 -0.19329,0.4315 0.0658,0.172529 0.25898,0.259062 0.43152,0.193276 0.007,-0.0025 0.0131,-0.0053 0.0196,-0.0082 0.28349,-0.129254 0.57951,-0.249329 0.88717,-0.306366 v 0 c 0.15825,-0.02932 0.26275,-0.181381 0.23339,-0.339609 -0.0269,-0.145528 -0.15875,-0.24771 -0.30642,-0.237592 z m -1.07195,0.266968 c -0.47209,0.180002 -0.93225,0.391093 -1.38663,0.611459 v 0 c -0.18514,0.08977 -0.26239,0.312607 -0.17265,0.497717 0.0898,0.185109 0.31263,0.262396 0.49774,0.172621 0.005,-0.0025 0.01,-0.0048 0.0142,-0.0073 0.4288,-0.231175 0.8618,-0.455778 1.30513,-0.657927 v 0 c 0.16803,-0.0766 0.24211,-0.274896 0.16549,-0.442899 -0.0732,-0.160503 -0.25848,-0.236534 -0.4233,-0.173683 z m -1.38663,0.611459 c -0.52927,0.256678 -1.05117,0.528514 -1.56485,0.815037 v 0 c -0.19431,0.108377 -0.26398,0.353748 -0.15561,0.548058 0.10837,0.194306 0.35373,0.263969 0.54804,0.155596 0.003,-0.0018 0.006,-0.0035 0.009,-0.0054 0.49491,-0.293635 0.99586,-0.577162 1.50237,-0.850265 v 0 c 0.18116,-0.09764 0.24879,-0.323584 0.15117,-0.504669 -0.0947,-0.175612 -0.31094,-0.245448 -0.49043,-0.15839 z m -1.56485,0.815037 c -0.8497,0.473911 -1.68038,0.982924 -2.5116,1.488207 v 0 c -0.20874,0.126887 -0.2751,0.39896 -0.1482,0.607692 0.12689,0.208731 0.39895,0.275082 0.60769,0.148194 0.004,-0.0021 0.007,-0.0042 0.0102,-0.0064 0.80828,-0.522128 1.6159,-1.048286 2.44366,-1.539388 v 0 c 0.19135,-0.113525 0.25442,-0.360671 0.1409,-0.552014 -0.11141,-0.187741 -0.35204,-0.252603 -0.54268,-0.146272 z m -2.5116,1.488193 c -0.89468,0.543814 -1.78904,1.088827 -2.67332,1.649624 v 0 c -0.22073,0.140003 -0.2862,0.432449 -0.14619,0.6532 0.14002,0.22075 0.43244,0.286208 0.65321,0.146205 7.9e-4,-3.44e-4 0.002,-0.0011 0.002,-0.0014 0.87877,-0.564667 1.75627,-1.131267 2.63366,-1.698036 v 0 c 0.20519,-0.132544 0.26407,-0.406328 0.13153,-0.611518 -0.13,-0.201224 -0.39655,-0.262389 -0.60127,-0.137964 z m -2.67332,1.649628 c -0.94008,0.596229 -1.8737,1.202802 -2.8073,1.809192 v 0 c -0.22482,0.146032 -0.28871,0.44668 -0.14266,0.671509 0.14602,0.224829 0.44665,0.288706 0.67148,0.14267 10e-4,-7.14e-4 0.002,-0.0014 0.003,-0.0021 0.92556,-0.611677 1.85121,-1.223602 2.78459,-1.823367 v -3e-6 c 0.21992,-0.141313 0.28363,-0.434143 0.14231,-0.654057 -0.14069,-0.218991 -0.43183,-0.283249 -0.65169,-0.143835 v 3e-6 z m -2.8073,1.809192 c -0.99695,0.647559 -1.99365,1.295503 -2.9882,1.946688 v 0 c -0.24246,0.158746 -0.31034,0.48399 -0.15159,0.726454 0.15875,0.242464 0.48398,0.310328 0.72644,0.151578 0.007,-0.0044 0.0133,-0.0089 0.0198,-0.01362 0.95748,-0.691462 1.94042,-1.347975 2.92562,-1.999044 v 0 c 0.22367,-0.14781 0.28515,-0.448952 0.13734,-0.672616 -0.147,-0.222413 -0.44584,-0.284671 -0.6694,-0.139453 z m -2.9882,1.94667 c -0.73476,0.48102 -1.45796,0.979826 -2.16711,1.497905 v 0 c -0.25362,0.185276 -0.309,0.541067 -0.12372,0.794692 0.18528,0.253613 0.54105,0.308999 0.79466,0.12372 0.003,-0.0025 0.006,-0.0048 0.01,-0.0072 0.68669,-0.524344 1.38078,-1.038839 2.08118,-1.544691 v 0 c 0.23487,-0.169679 0.28779,-0.497692 0.1181,-0.732632 -0.16421,-0.227354 -0.47815,-0.285404 -0.71282,-0.131794 z m -2.16711,1.497905 c -0.55796,0.407632 -1.11411,0.818717 -1.65495,1.248965 v 0 c -0.25256,0.200942 -0.2944,0.568536 -0.0935,0.82109 0.20094,0.252553 0.56853,0.294428 0.82109,0.09349 7.9e-4,-7.15e-4 0.002,-0.0014 0.002,-0.0021 0.52842,-0.425238 1.06627,-0.838694 1.60534,-1.250279 v 0 c 0.24963,-0.190606 0.2975,-0.54748 0.1069,-0.797116 -0.18775,-0.245918 -0.53764,-0.296616 -0.78747,-0.114099 z m -1.65495,1.248965 c -0.58173,0.462809 -1.15295,0.938847 -1.72339,1.415379 v 0 c -0.24998,0.208809 -0.28332,0.580708 -0.0745,0.830651 0.2088,0.249978 0.5807,0.283316 0.83065,0.07454 7.9e-4,-7.15e-4 10e-4,-0.0011 0.002,-0.0018 0.56137,-0.473216 1.12342,-0.946009 1.69545,-1.406349 v 0 c 0.25142,-0.202318 0.29121,-0.570159 0.0889,-0.821584 -0.20151,-0.250437 -0.56748,-0.291077 -0.81905,-0.09095 z m -1.72339,1.415379 c -0.58784,0.491067 -1.17652,0.981146 -1.77102,1.464134 v 0 c -0.25788,0.20955 -0.29707,0.588433 -0.0876,0.846314 0.20955,0.25788 0.58844,0.297074 0.84632,0.08756 0.003,-0.0025 0.006,-0.0051 0.009,-0.0078 0.58635,-0.496359 1.17365,-0.991623 1.76103,-1.486747 v 0 c 0.24903,-0.209938 0.28074,-0.581977 0.0708,-0.830968 -0.20927,-0.24825 -0.57979,-0.28067 -0.82896,-0.07253 z m -1.77098,1.464134 c -0.6513,0.529096 -1.30059,1.060661 -1.94984,1.592298 v 0 c -0.28032,0.229552 -0.32149,0.642902 -0.0919,0.923219 0.22955,0.280352 0.6429,0.321522 0.92322,0.09197 0.009,-0.0077 0.0185,-0.01559 0.0274,-0.02378 0.61217,-0.560564 1.22555,-1.121198 1.85917,-1.657597 v 0 c 0.25361,-0.214665 0.28515,-0.594289 0.0704,-0.847901 -0.21159,-0.249979 -0.5843,-0.284727 -0.83852,-0.07821 z m -1.94984,1.592298 c -0.67712,0.55446 -1.35273,1.11386 -1.99485,1.708926 v 0 c -0.28907,0.267864 -0.30625,0.719349 -0.0384,1.00838 0.26786,0.289066 0.71931,0.306246 1.00838,0.03838 0.004,-0.0041 0.009,-0.0082 0.013,-0.01238 0.61171,-0.596265 1.24061,-1.175032 1.87053,-1.751894 v 0 c 0.26723,-0.244687 0.28547,-0.659695 0.0408,-0.926889 -0.23516,-0.256822 -0.63003,-0.28515 -0.89948,-0.06452 z m -1.99485,1.708926 c -0.63782,0.591043 -1.27173,1.186285 -1.90529,1.781951 v 0 c -0.29185,0.274355 -0.30603,0.733389 -0.0316,1.025242 0.27439,0.291853 0.73339,0.306035 1.02525,0.03164 0.63542,-0.597323 1.27017,-1.19574 1.89473,-1.804458 v 0 c 0.28222,-0.275061 0.28801,-0.726828 0.0129,-1.00905 -0.27015,-0.277178 -0.71208,-0.288431 -0.996,-0.02533 z m -1.90529,1.781915 c -0.97948,0.920821 -1.93043,1.87191 -2.87076,2.832488 v 0 c -0.27601,0.28194 -0.27118,0.734201 0.0107,1.010179 0.28007,0.274179 0.7287,0.271498 1.00549,-0.006 0.93687,-0.939165 1.88154,-1.871098 2.84815,-2.779783 v 0 c 0.29189,-0.274355 0.30603,-0.733389 0.0317,-1.025242 -0.27439,-0.291889 -0.73339,-0.30607 -1.02528,-0.03168 0,0 0,0 0,0 z m -2.87076,2.832488 c -0.94735,0.967705 -1.88387,1.94691 -2.78804,2.95522 v 0 c -0.25671,0.286279 -0.23276,0.72651 0.0536,0.983262 0.28462,0.25527 0.72182,0.233257 0.97938,-0.04925 0.89853,-0.985379 1.82961,-1.940983 2.77132,-2.885016 v 0 c 0.27862,-0.279295 0.27806,-0.731626 -0.001,-1.01025 -0.2793,-0.278624 -0.73159,-0.27806 -1.01025,0.0014 -0.001,0.0018 -0.003,0.0032 -0.005,0.0048 z m -2.78804,2.95522 c -0.58201,0.64904 -1.16367,1.298998 -1.72953,1.962291 v 0 c -0.2443,0.286313 -0.21022,0.716491 0.0761,0.960789 0.2829,0.241337 0.707,0.211421 0.95314,-0.06727 0.57107,-0.646501 1.15203,-1.284393 1.73323,-1.921793 h -3e-5 c 0.25911,-0.284163 0.23883,-0.72457 -0.0454,-0.983685 -0.28417,-0.259116 -0.72457,-0.238796 -0.98369,0.04537 -0.001,0.0014 -0.002,0.0028 -0.004,0.0043 z m -1.72953,1.962256 c -0.53848,0.63119 -1.06122,1.275927 -1.58199,1.921756 v 0 c -0.23947,0.297003 -0.19287,0.731909 0.10414,0.97141 0.29704,0.239501 0.73194,0.192863 0.97144,-0.10414 0.003,-0.0039 0.006,-0.0078 0.009,-0.01172 0.49329,-0.639585 0.99152,-1.278149 1.52643,-1.883762 v 0 c 0.24921,-0.282117 0.2225,-0.712824 -0.0596,-0.96199 -0.28211,-0.249204 -0.71282,-0.222497 -0.96198,0.05962 -0.003,0.0028 -0.005,0.0058 -0.008,0.0088 z m -1.58199,1.921756 c -0.68344,0.847585 -1.35001,1.708679 -2.00216,2.580606 v -3.7e-5 c -0.2359,0.31542 -0.17145,0.762354 0.14397,0.998257 0.31542,0.235902 0.76232,0.17145 0.99826,-0.143933 0.001,-0.0013 0.002,-0.0024 0.003,-0.0037 0.63849,-0.865188 1.28538,-1.724237 1.94204,-2.575666 v 0 c 0.23304,-0.30212 0.17702,-0.735931 -0.12513,-0.968976 -0.2975,-0.229446 -0.72383,-0.17907 -0.9597,0.113419 z m -2.00216,2.580606 c -0.70248,0.939234 -1.38948,1.89004 -2.06449,2.849208 h -3e-5 c -0.22952,0.326144 -0.15117,0.77657 0.17494,1.006089 0.32614,0.229515 0.7766,0.151198 1.00612,-0.174943 7.1e-4,-7.94e-4 0.001,-0.0013 0.002,-0.0024 0.66365,-0.950947 1.33819,-1.89438 2.02678,-2.827406 v 0 c 0.23383,-0.316918 0.16652,-0.763429 -0.15038,-0.997286 -0.31549,-0.232833 -0.75974,-0.167323 -0.99459,0.146651 v 3.4e-5 z m -2.06449,2.849208 c -0.70164,0.996987 -1.3886,2.004309 -2.05994,3.02193 v 0 c -0.22387,0.339337 -0.13028,0.795867 0.20906,1.019739 0.3393,0.223838 0.79583,0.130246 1.0197,-0.20909 0.001,-0.0024 0.003,-0.0047 0.005,-0.007 0.65081,-1.011412 1.32094,-2.010444 2.00925,-2.99674 v 0 c 0.22824,-0.327025 0.14813,-0.777171 -0.1789,-1.005416 -0.32614,-0.227579 -0.77491,-0.148627 -1.00379,0.176598 z m -2.05994,3.02193 c -0.51883,0.786448 -1.03657,1.573988 -1.53843,2.371408 v 0 c -0.22419,0.356235 -0.11715,0.82677 0.23908,1.050959 0.35624,0.224192 0.82677,0.117158 1.05096,-0.239077 0.004,-0.0068 0.008,-0.01357 0.0124,-0.02045 0.46852,-0.799148 0.96809,-1.580338 1.46928,-2.359203 v 0 c 0.21996,-0.341841 0.12115,-0.797311 -0.22069,-1.01727 -0.33909,-0.218191 -0.79061,-0.122907 -1.01265,0.213643 z m -1.53843,2.371408 c -0.34854,0.553791 -0.69091,1.111496 -1.02566,1.673754 v 0 c -0.22169,0.372322 -0.0996,0.853863 0.2728,1.07555 0.37232,0.221684 0.85386,0.09955 1.07555,-0.272804 0.002,-0.0032 0.004,-0.0064 0.006,-0.0096 0.32254,-0.559752 0.64742,-1.118163 0.97416,-1.675447 v 0 c 0.21286,-0.363115 0.0911,-0.830051 -0.27199,-1.042953 -0.35507,-0.208175 -0.81129,-0.09684 -1.0305,0.251531 z m -1.02566,1.673754 c -0.47117,0.791456 -0.91677,1.598367 -1.36106,2.405097 v 0 c -0.21082,0.382836 -0.0714,0.86406 0.31144,1.07488 0.3828,0.21082 0.86402,0.0714 1.07484,-0.311433 0.43766,-0.794668 0.87584,-1.58937 1.32877,-2.375463 v 3.4e-5 c 0.21636,-0.375462 0.0873,-0.855239 -0.28811,-1.071562 -0.37165,-0.214173 -0.84642,-0.09014 -1.06588,0.278447 z m -1.36106,2.405097 c -0.7325,1.330079 -1.39262,2.700054 -2.03284,4.076454 v 0 c -0.18429,0.39624 -0.0125,0.866881 0.38375,1.051171 0.39624,0.18429 0.86685,0.01249 1.05117,-0.383717 0.62509,-1.343872 1.26912,-2.68178 1.98424,-3.980495 v 0 c 0.21082,-0.382799 0.0714,-0.86406 -0.31147,-1.074843 -0.3828,-0.21082 -0.86403,-0.07137 -1.07485,0.31143 z m -2.03284,4.076454 c -0.63768,1.370999 -1.26139,2.750325 -1.82376,4.154239 v 0 c -0.16252,0.405659 0.0346,0.866211 0.44023,1.0287 0.40566,0.162525 0.86625,-0.03461 1.02874,-0.44023 0.55171,-1.37728 1.1641,-2.730288 1.78971,-4.075255 v 0 c 0.18433,-0.39624 0.0125,-0.866881 -0.38371,-1.051206 -0.39624,-0.184293 -0.86689,-0.01249 -1.05118,0.383752 -3e-5,0 -3e-5,0 -3e-5,0 z m -1.82376,4.154239 c -0.43758,1.092306 -0.83308,2.201756 -1.17595,3.327471 v 0 c -0.12551,0.41215 0.10682,0.848043 0.51897,0.973561 0.40831,0.124354 0.84074,-0.102481 0.9705,-0.509093 0.34519,-1.081688 0.73325,-2.149546 1.15545,-3.203469 v 0 c 0.16249,-0.405659 -0.0346,-0.866246 -0.44027,-1.028737 -0.40562,-0.162488 -0.86621,0.03461 -1.0287,0.440267 0,0 0,0 0,0 z m -1.17595,3.327471 c -0.32071,1.052936 -0.60677,2.116663 -0.85012,3.190173 v 0 c -0.0934,0.41197 0.16489,0.82162 0.57683,0.915 0.41042,0.093 0.81886,-0.16295 0.91408,-0.57288 0.24013,-1.03381 0.52603,-2.056799 0.84868,-3.067825 v 0 c 0.13098,-0.410458 -0.0956,-0.849384 -0.50603,-0.980371 -0.41045,-0.130985 -0.84938,0.09557 -0.98037,0.506026 -0.001,0.0032 -0.002,0.0066 -0.003,0.0099 z m -0.85012,3.190173 c -0.18119,0.79943 -0.3605,1.60013 -0.50991,2.40622 v 0 c -0.0765,0.41307 0.19622,0.80998 0.60929,0.88653 0.4131,0.0765 0.81001,-0.19625 0.88656,-0.60931 0,0 0,0 0,0 0.14545,-0.78493 0.32442,-1.56387 0.505,-2.34132 h -3e-5 c 0.0956,-0.41145 -0.16051,-0.82247 -0.57196,-0.91803 -0.41144,-0.0956 -0.82247,0.16051 -0.91803,0.57196 -3.2e-4,0.001 -7.1e-4,0.002 -0.001,0.004 z m -0.50991,2.40622 c -0.14379,0.77587 -0.25001,1.55886 -0.35122,2.34121 v 0 c -0.0538,0.41632 0.23999,0.79742 0.65627,0.85129 0.41607,0.0538 0.79703,-0.23964 0.85118,-0.65564 0.0983,-0.75501 0.20084,-1.5108 0.33962,-2.25964 v 0 c 0.0766,-0.41307 -0.19625,-0.80998 -0.60931,-0.88653 -0.41307,-0.0765 -0.80998,0.19624 -0.88654,0.60931 0,0 0,0 0,0 z m -0.35122,2.34121 c -0.13155,1.01717 -0.23816,2.03751 -0.32436,3.0595 v 0 c -0.0353,0.41893 0.27564,0.78719 0.69456,0.82254 0.41893,0.0353 0.78719,-0.27566 0.82254,-0.69458 4e-5,-8e-4 7e-5,-0.001 1.4e-4,-0.002 0.0819,-0.99893 0.18514,-1.99616 0.31457,-2.99008 v 0 c 0.0542,-0.41619 -0.23929,-0.79758 -0.65553,-0.85177 -0.41624,-0.0542 -0.79763,0.23929 -0.85182,0.65554 -3e-5,2.1e-4 -7e-5,2.6e-4 -1e-4,7.9e-4 z m -0.32436,3.05947 c -0.069,0.81837 -0.13755,1.63685 -0.2001,2.45572 h 10e-6 c -0.033,0.43176 0.29031,0.80849 0.72204,0.84148 0.43176,0.033 0.8085,-0.2903 0.84148,-0.72207 0.001,-0.0124 0.001,-0.0248 0.002,-0.0373 0.0231,-0.805 0.086,-1.60919 0.15184,-2.41162 h 3e-5 c 0.0344,-0.419 -0.27742,-0.78655 -0.69645,-0.82095 -0.41833,-0.0343 -0.7855,0.27647 -0.82079,0.69469 v 0 z m -0.2001,2.45572 c -0.0635,0.83107 -0.0761,1.66642 -0.0837,2.49954 h -1e-5 c -0.004,0.44457 0.35316,0.80825 0.79777,0.81223 0.44457,0.004 0.80825,-0.35313 0.81224,-0.79773 0.007,-0.81065 0.0159,-1.62148 0.0391,-2.43188 v 0 c 0.0124,-0.43282 -0.3284,-0.79375 -0.76122,-0.80617 -0.41836,-0.012 -0.77237,0.30671 -0.80424,0.72401 z m -0.0837,2.4995 c -0.01,1.10402 -0.0178,2.208 -0.0241,3.31205 h -10e-6 c -0.003,0.45456 0.3638,0.82519 0.81836,0.82776 0.45456,0.002 0.82519,-0.36378 0.8278,-0.81834 0,-0.006 0,-0.0114 -1.1e-4,-0.017 -0.0164,-1.09654 -0.0218,-2.19329 -0.0119,-3.2899 v 0 c 0.004,-0.44457 -0.35313,-0.80824 -0.79774,-0.81227 -0.44457,-0.004 -0.80825,0.35313 -0.81227,0.79774 z m -0.0241,3.31205 c -0.007,1.17363 0.0235,2.34749 0.092,3.51917 h 1e-5 c 0.028,0.47953 0.43944,0.84558 0.919,0.81757 0.47953,-0.028 0.84554,-0.43946 0.81753,-0.91899 -7.1e-4,-0.01 -0.001,-0.0192 -0.002,-0.0288 -0.10368,-1.12931 -0.1633,-2.26261 -0.1803,-3.39655 v 0 c -0.007,-0.45451 -0.38079,-0.81749 -0.83531,-0.81068 -0.44789,0.007 -0.80818,0.37038 -0.81074,0.8183 v 0 z m 0.092,3.51917 c 0.0661,1.13239 0.16379,2.26304 0.29879,3.38935 v 0 c 0.0591,0.49265 0.50627,0.84413 0.99889,0.78507 0.49266,-0.059 0.84416,-0.50627 0.78511,-0.99889 -0.13187,-1.10017 -0.24709,-2.20235 -0.3484,-3.30574 v 0 c -0.0439,-0.47833 -0.46726,-0.8305 -0.94562,-0.78662 -0.46715,0.0429 -0.81611,0.44849 -0.78876,0.91683 z m 0.29879,3.38935 c 0.13342,1.11312 0.30431,2.22162 0.50871,3.32387 h 3e-5 c 0.0895,0.48271 0.55341,0.80145 1.03611,0.71194 0.4789,-0.0888 0.79714,-0.54648 0.71371,-1.02633 -0.18606,-1.07008 -0.3453,-2.14489 -0.47456,-3.2233 v 0 c -0.0591,-0.49265 -0.50627,-0.84412 -0.99893,-0.7851 -0.49261,0.0591 -0.84412,0.5063 -0.78507,0.99892 0,0 0,0 0,0 z m 0.50871,3.32387 c 0.20366,1.09792 0.42555,2.19248 0.66714,3.28267 v 0 c 0.10632,0.47992 0.58155,0.78274 1.06143,0.67642 0.47989,-0.10633 0.78275,-0.58159 0.67642,-1.06148 -7.1e-4,-0.004 -0.002,-0.007 -0.002,-0.0111 -0.24924,-1.06016 -0.46606,-2.12792 -0.6526,-3.20089 v 0 c -0.0841,-0.4837 -0.54438,-0.80762 -1.02807,-0.72351 -0.48369,0.0841 -0.80761,0.5444 -0.72351,1.02806 7.1e-4,0.003 0.001,0.007 0.002,0.01 h -3e-5 z m 0.6671,3.28267 c 0.24225,1.0934 0.51223,2.18063 0.80772,3.26087 v 0 c 0.13123,0.4797 0.6265,0.76221 1.10621,0.63098 0.4797,-0.13124 0.76221,-0.6265 0.63097,-1.10621 0,0 0,0 0,0 -0.28878,-1.05565 -0.55915,-2.11635 -0.80955,-3.18177 v 0 c -0.11247,-0.47851 -0.59154,-0.77523 -1.07001,-0.66277 -0.47417,0.11145 -0.77068,0.58332 -0.66534,1.0589 z m 0.80772,3.26087 c 0.29877,1.09213 0.62421,2.17699 0.976,3.25321 v 0 c 0.153,0.4681 0.65652,0.72351 1.12462,0.57051 0.4646,-0.15187 0.72037,-0.6495 0.57337,-1.1157 -0.3326,-1.05494 -0.64492,-2.11631 -0.93681,-3.18325 v 0 c -0.13123,-0.47971 -0.62649,-0.76221 -1.1062,-0.63098 -0.47971,0.13123 -0.76221,0.6265 -0.63098,1.10621 z m 0.976,3.25321 c 0.34886,1.06726 0.69885,2.13416 1.04997,3.20068 v 0 c 0.15504,0.471 0.66255,0.72711 1.13354,0.57207 0.471,-0.15505 0.72711,-0.66259 0.57207,-1.13358 -0.002,-0.005 -0.003,-0.01 -0.005,-0.015 -0.36675,-1.05111 -0.7178,-2.10764 -1.05251,-3.16936 v 0 c -0.14806,-0.46965 -0.64887,-0.73039 -1.11856,-0.5823 -0.46968,0.14806 -0.73039,0.64887 -0.58229,1.11855 0.001,0.003 0.002,0.006 0.003,0.009 z m 1.04997,3.20068 c 0.35507,1.07858 0.73653,2.14848 1.1449,3.20805 h -3e-5 c 0.18228,0.47293 0.71339,0.70856 1.18632,0.52627 0.4729,-0.18224 0.70852,-0.71338 0.52627,-1.18628 -7.1e-4,-0.002 -0.001,-0.004 -0.002,-0.005 -0.40481,-1.03237 -0.78969,-2.07253 -1.15495,-3.11954 v 0 c -0.16337,-0.46817 -0.67533,-0.71529 -1.1435,-0.55196 -0.46235,0.16133 -0.71017,0.66333 -0.55703,1.12847 z m 1.1449,3.20805 c 0.40464,1.04994 0.82131,2.09518 1.24972,3.13563 v 0 c 0.1954,0.47459 0.73854,0.7009 1.2131,0.5055 0.47459,-0.19541 0.70089,-0.73851 0.50549,-1.2131 -0.001,-0.002 -0.002,-0.005 -0.003,-0.007 -0.43102,-1.02352 -0.84945,-2.05232 -1.2549,-3.08621 v 0 c -0.18504,-0.47169 -0.71752,-0.7042 -1.18936,-0.51917 -0.46986,0.18429 -0.70277,0.71342 -0.52126,1.18434 z m 1.24972,3.13563 c 0.42093,1.02235 0.85129,2.04079 1.29226,3.05467 v 0 c 0.20856,0.47949 0.76634,0.69917 1.24587,0.49061 0.47949,-0.20856 0.69917,-0.76634 0.49061,-1.24587 -0.002,-0.004 -0.004,-0.008 -0.005,-0.0116 -0.44874,-0.99511 -0.88421,-1.99622 -1.30786,-3.00228 h 4e-5 c -0.19918,-0.473 -0.74411,-0.69497 -1.21712,-0.49579 -0.47032,0.19805 -0.69296,0.73836 -0.49865,1.21024 z m 1.29226,3.05467 c 0.42898,0.98629 0.87711,1.96441 1.34546,2.93264 v 0 c 0.23029,0.47611 0.80296,0.67536 1.27906,0.44506 0.47608,-0.23029 0.67536,-0.80295 0.44507,-1.27903 -0.45907,-0.94904 -0.90488,-1.90447 -1.33823,-2.86554 l -3e-5,4e-5 c -0.21495,-0.47671 -0.77562,-0.68887 -1.25233,-0.47393 -0.47216,0.21294 -0.68559,0.76578 -0.479,1.24076 z m 1.34546,2.93264 c 0.45399,0.93853 0.93818,1.86253 1.45686,2.76694 v 0 c 0.25884,0.45131 0.83454,0.60735 1.28584,0.34851 0.44465,-0.25502 0.60378,-0.81873 0.35818,-1.26859 -0.48144,-0.8818 -0.93931,-1.77645 -1.37675,-2.68083 v 0 c -0.23029,-0.47611 -0.80296,-0.67539 -1.27907,-0.4451 -0.47611,0.2303 -0.67536,0.80296 -0.44506,1.27907 0,0 0,0 0,0 z m 1.45686,2.76694 c 0.49629,0.86533 1.02666,1.71129 1.59329,2.53235 v 0 c 0.28773,0.41688 0.85891,0.52158 1.27579,0.23389 0.41303,-0.28508 0.52024,-0.84917 0.24059,-1.26591 -0.52578,-0.78348 -1.01353,-1.5923 -1.46565,-2.42044 v 3e-5 c -0.24934,-0.45667 -0.82162,-0.62473 -1.27826,-0.37539 -0.45663,0.24931 -0.62469,0.82159 -0.37539,1.27822 0.003,0.006 0.006,0.0115 0.01,0.0173 z m 1.59329,2.53235 c 0.52017,0.75371 1.0516,1.49976 1.59805,2.23467 v 0 c 0.29802,0.40079 0.86451,0.48408 1.26534,0.18605 0.39924,-0.29686 0.48369,-0.86049 0.18898,-1.26135 -0.52839,-0.71879 -1.03889,-1.45063 -1.53599,-2.19139 v 0 c -0.28226,-0.42058 -0.85203,-0.53273 -1.27261,-0.25047 -0.42058,0.28226 -0.53273,0.85203 -0.25047,1.27261 0.002,0.003 0.004,0.007 0.007,0.01 z m 1.59805,2.23467 c 0.50899,0.68449 1.03494,1.3566 1.57945,2.01323 h 4e-5 c 0.3097,0.37345 0.86349,0.42513 1.23694,0.11543 0.36389,-0.30173 0.42373,-0.83732 0.13544,-1.21194 -0.50659,-0.65838 -1.00549,-1.3227 -1.49751,-1.99202 h -4e-5 c -0.29584,-0.40242 -0.86187,-0.48881 -1.26428,-0.19297 -0.40241,0.29584 -0.48881,0.86187 -0.19297,1.26428 0.001,0.001 0.002,0.002 0.003,0.004 z m 1.57945,2.01323 c 0.48941,0.59013 0.97932,1.17979 1.46999,1.76879 l -3e-5,4e-5 c 0.30416,0.36509 0.8467,0.41451 1.21179,0.11038 0.36513,-0.30416 0.41455,-0.8467 0.11038,-1.21179 -0.001,-0.002 -0.003,-0.004 -0.004,-0.005 -0.48626,-0.57432 -0.95634,-1.16226 -1.41527,-1.75864 v 0 c -0.29587,-0.38452 -0.84741,-0.45635 -1.23193,-0.16047 -0.3845,0.29587 -0.45632,0.84744 -0.16045,1.23193 0.006,0.008 0.0132,0.0168 0.02,0.0251 z m 1.46996,1.76879 c 0.43444,0.52158 0.87189,1.04066 1.31353,1.55614 v 0 c 0.31203,0.36421 0.86021,0.40651 1.22442,0.0945 0.36421,-0.31199 0.40651,-0.86021 0.0945,-1.22438 -0.001,-0.002 -0.003,-0.004 -0.004,-0.005 -0.44041,-0.5062 -0.87679,-1.01586 -1.31036,-1.52788 v 0 c -0.30705,-0.36266 -0.84998,-0.40774 -1.2126,-0.10065 -0.36061,0.30529 -0.40753,0.84427 -0.10513,1.20731 z m 1.31353,1.55618 c 0.40072,0.46771 0.80575,0.93179 1.21613,1.39107 v 0 c 0.32343,0.36198 0.87905,0.3932 1.241,0.0698 0.36199,-0.32342 0.39325,-0.87905 0.0698,-1.241 -0.003,-0.004 -0.006,-0.007 -0.009,-0.0103 -0.40774,-0.44214 -0.80832,-0.89087 -1.20307,-1.34462 v 0 c -0.31482,-0.36181 -0.86332,-0.39991 -1.22513,-0.0851 -0.35983,0.31309 -0.39977,0.85785 -0.0894,1.22005 z m 1.21613,1.39107 c 0.48024,0.53749 0.94418,1.08952 1.40385,1.64461 v 0 c 0.31968,0.38605 0.89182,0.43985 1.27786,0.12016 0.38605,-0.31969 0.43985,-0.89179 0.12016,-1.27783 -0.006,-0.008 -0.0128,-0.0153 -0.0194,-0.0228 -0.48916,-0.55252 -0.98062,-1.10313 -1.48093,-1.64563 v 0 c -0.32907,-0.35684 -0.88512,-0.37931 -1.24195,-0.0502 -0.35285,0.3254 -0.37934,0.87376 -0.0596,1.23169 z m 1.40385,1.64461 c 0.44577,0.53834 0.88787,1.08088 1.3046,1.64218 v 0 c 0.31902,0.42965 0.92594,0.51936 1.35562,0.20035 0.42965,-0.31899 0.51936,-0.92594 0.20035,-1.35559 -0.0184,-0.0248 -0.038,-0.0487 -0.0587,-0.0717 -0.47759,-0.52906 -0.95085,-1.062 -1.42325,-1.59569 v 0 c -0.33225,-0.37528 -0.90583,-0.41021 -1.28115,-0.078 -0.36657,0.32452 -0.40968,0.88131 -0.0974,1.25839 z m 1.3046,1.64222 c 0.26635,0.35867 0.53256,0.71734 0.79848,1.07629 v 0 c 0.35094,0.47374 1.01949,0.57326 1.4932,0.22232 0.47375,-0.35094 0.57327,-1.01949 0.22232,-1.4932 -0.0485,-0.0654 -0.10424,-0.1251 -0.1663,-0.17784 -0.30596,-0.26014 -0.58176,-0.55689 -0.85047,-0.85457 v 4e-5 c -0.3586,-0.39723 -0.97134,-0.42856 -1.36857,-0.07 -0.37059,0.33461 -0.42629,0.89602 -0.12862,1.29692 z m 0.79848,1.07629 c 0.30882,0.41684 0.85873,0.76016 1.39316,0.60152 v 0 c 0.10082,-0.0299 0.19536,-0.0778 0.27911,-0.14143 0.33902,-0.25742 0.44644,-0.71504 0.35934,-1.11647 -0.067,-0.30864 -0.2425,-0.5884 -0.48239,-0.79234 v 0 c -0.44915,-0.38188 -1.12285,-0.32734 -1.50473,0.12182 -0.32153,0.37817 -0.33998,0.92805 -0.0445,1.3269 z" />
    <path
       inkscape:connector-curvature="0"
       id="path11294"
       style="fill:#a42604;fill-opacity:1;fill-rule:nonzero;stroke:none;stroke-width:0.35277775"
       d="m 229.36219,170.2324 c -0.16326,0.0383 -0.31372,0.12711 -0.40439,0.27246 v 3e-5 c -0.0945,0.15152 -0.10876,0.33976 -0.0382,0.50384 0.0703,0.16326 0.21297,0.27587 0.37627,0.33535 v 0 c 0.30152,0.10978 0.63497,-0.0456 0.74479,-0.34714 0.10978,-0.30151 -0.0457,-0.63496 -0.34717,-0.74478 -0.10615,-0.0387 -0.2213,-0.0455 -0.33133,-0.0198 z m 0,0 v 0 c -0.31242,0.0732 -0.50638,0.3858 -0.43317,0.69826 0.0447,0.19085 0.18266,0.34632 0.36688,0.41338 0.26805,0.0976 0.5284,0.21869 0.78822,0.33599 v -4e-5 c 0.35948,0.16228 0.78239,0.002 0.94466,-0.35704 0.16228,-0.35945 0.002,-0.78239 -0.35704,-0.94467 -0.0362,-0.0163 -0.0737,-0.0296 -0.11215,-0.0397 -0.20807,-0.0547 -0.41938,-0.101 -0.63345,-0.12457 -0.1869,-0.0205 -0.37976,-0.0247 -0.56395,0.0184 z m 0.72193,1.44763 c 0.40283,0.18182 0.81523,0.34297 1.23599,0.4784 v 0 c 0.41557,0.13374 0.86088,-0.0947 0.99462,-0.51029 0.13374,-0.41557 -0.0947,-0.86089 -0.51029,-0.99462 -0.0191,-0.006 -0.0384,-0.0116 -0.0579,-0.0162 -0.39674,-0.0951 -0.79241,-0.19498 -1.18696,-0.29874 v -3e-5 c -0.38139,-0.1003 -0.77191,0.12756 -0.87224,0.50899 -0.0887,0.33715 0.0791,0.68908 0.3968,0.83248 z m 1.23602,0.4784 c 0.48038,0.15459 0.9675,0.28783 1.45595,0.4142 v 3e-5 c 0.44761,0.11578 0.90435,-0.15321 1.02017,-0.60081 0.11581,-0.44761 -0.15318,-0.90438 -0.60079,-1.02017 -0.0149,-0.004 -0.0299,-0.007 -0.0449,-0.0103 -0.46944,-0.0943 -0.93838,-0.19244 -1.40405,-0.30406 v 0 c -0.42453,-0.10174 -0.85118,0.15991 -0.95292,0.58445 -0.0963,0.40188 0.13317,0.81012 0.52655,0.93669 z m 1.45595,0.4142 c 0.488,0.12626 0.97554,0.25446 1.46181,0.38731 v 0 c 0.45871,0.12531 0.93214,-0.14499 1.05745,-0.60371 0.12531,-0.45868 -0.14499,-0.93214 -0.60367,-1.05745 -4e-5,0 -4e-5,0 -4e-5,0 -0.50878,-0.13896 -1.02408,-0.25361 -1.54107,-0.35743 v 0 c -0.45332,-0.091 -0.89458,0.2027 -0.98559,0.65602 -0.0875,0.43575 0.18079,0.86396 0.61111,0.97529 z m 1.46184,0.38731 c 0.31517,0.0861 0.63081,0.17389 0.93994,0.28011 v 0 c 0.44172,0.15173 0.9228,-0.0834 1.07453,-0.52508 0.14312,-0.41666 -0.0576,-0.87337 -0.46129,-1.04969 -0.35394,-0.15462 -0.7275,-0.2649 -1.09943,-0.3665 v 0 c -0.45872,-0.12531 -0.93218,0.14499 -1.05746,0.60371 -0.1253,0.45872 0.14496,0.93214 0.60368,1.05745 0,0 0,0 3e-5,0 z m 0.93998,0.28011 c 0.20299,0.0697 0.40714,0.13822 0.61496,0.19237 v 0 c 0.45382,0.11821 0.91758,-0.15385 1.03583,-0.60766 0.11821,-0.45385 -0.15385,-0.91758 -0.60766,-1.03583 -0.0507,-0.0132 -0.10248,-0.0217 -0.15473,-0.0254 0.0134,0.001 -7.1e-4,-7.9e-4 -0.006,-0.002 -0.0192,-0.004 -0.0383,-0.01 -0.0571,-0.0154 -0.0724,-0.0222 -0.1428,-0.0508 -0.21209,-0.0811 v 0 c -0.42799,-0.18694 -0.9265,0.008 -1.11344,0.43649 -0.18693,0.42803 0.008,0.92654 0.43649,1.11348 0.0209,0.009 0.0422,0.0174 0.0638,0.0248 z m 0.18369,-1.18131 v 0 c -0.3048,0.35641 -0.26299,0.89245 0.0934,1.19725 0.0978,0.0837 0.21333,0.14397 0.33786,0.17643 0.24528,0.0639 0.5062,0.0484 0.7391,-0.0539 0.22684,-0.0996 0.41162,-0.27305 0.54818,-0.47763 v 0 c 0.29623,-0.44379 0.1766,-1.04366 -0.26716,-1.33988 -0.44376,-0.29623 -1.04365,-0.1766 -1.33988,0.26716 -0.0477,0.0714 -0.0856,0.1489 -0.11282,0.23036 l 0.001,1.8e-4 z m 0.0344,-0.61458 c -0.0732,0.33444 -0.11691,0.68249 -0.0798,1.02454 v 0 c 0.0575,0.53044 0.53414,0.91383 1.06458,0.8563 0.28441,-0.0308 0.54049,-0.18609 0.69934,-0.42401 0.16383,-0.24535 0.29337,-0.51311 0.40986,-0.78352 v 0 c 0.24144,-0.56038 -0.0171,-1.21041 -0.5775,-1.45182 -0.56038,-0.24144 -1.21038,0.0171 -1.45182,0.5775 -0.0279,0.0648 -0.0496,0.13208 -0.0647,0.20101 z m 0.0901,-0.79237 c -0.0115,0.26522 -0.0333,0.53262 -0.0901,0.79244 v 0 c -0.13039,0.59609 0.24716,1.18502 0.84325,1.31541 0.51692,0.11306 1.04143,-0.15625 1.25077,-0.6422 0.18538,-0.43039 0.26465,-0.90033 0.28487,-1.36635 v 0 c 0.0274,-0.63203 -0.46271,-1.16663 -1.09474,-1.19408 -0.63207,-0.0274 -1.16667,0.46271 -1.19412,1.09478 0,0 0,0 0,0 z m 0.0398,-1.34627 c -0.009,0.44887 -0.0203,0.89775 -0.0398,1.34627 h -3e-5 c -0.0274,0.63203 0.46273,1.16667 1.09477,1.19408 0.63204,0.0274 1.16667,-0.4627 1.19408,-1.09478 0.0209,-0.48122 0.0197,-0.96333 0.0105,-1.44483 v 0 c -0.0119,-0.62396 -0.52736,-1.12014 -1.15132,-1.10822 -0.60692,0.0116 -1.09622,0.50059 -1.10822,1.10748 z m 0.0593,-1.26898 c -0.0423,0.42111 -0.051,0.84614 -0.0593,1.26901 v 0 c -0.0123,0.62396 0.48355,1.13972 1.10751,1.15203 0.62396,0.0123 1.13972,-0.48355 1.15203,-1.10751 2.9e-4,-0.0146 2.9e-4,-0.0292 0,-0.0439 -0.008,-0.44023 -0.0187,-0.88572 -0.0844,-1.32189 h 4e-5 c -0.0878,-0.58244 -0.63109,-0.98347 -1.21356,-0.8957 -0.48203,0.0726 -0.85347,0.46284 -0.90226,0.94791 z m -0.0365,-1.36469 c 0.019,0.30558 0.0357,0.61151 0.0423,0.91765 0.003,0.14813 0.009,0.29933 -0.006,0.44707 v 0 c -0.0589,0.58608 0.36844,1.10896 0.95451,1.16784 0.58607,0.0589 1.10896,-0.36844 1.16784,-0.95451 0.009,-0.0885 0.007,-0.17769 -0.007,-0.26564 -0.0254,-0.16891 -0.0403,-0.33969 -0.0557,-0.50973 -0.0283,-0.31207 -0.0515,-0.62452 -0.0736,-0.93705 h -4e-5 c -0.0394,-0.55848 -0.52419,-0.9792 -1.08264,-0.93976 -0.55517,0.0393 -0.97486,0.51869 -0.94033,1.07413 z m -0.0869,-1.82453 c 0.0132,0.60865 0.0491,1.21698 0.0869,1.8245 v 0 c 0.0348,0.5588 0.51587,0.98361 1.07467,0.9489 0.5588,-0.0348 0.98361,-0.5159 0.94886,-1.07467 -1.7e-4,-0.003 -3.4e-4,-0.006 -7.1e-4,-0.009 -0.0398,-0.56303 -0.0777,-1.12942 -0.0676,-1.69425 v 0 c 0.01,-0.56395 -0.4391,-1.02926 -1.00309,-1.03925 -0.56398,-0.01 -1.0293,0.43914 -1.03925,1.00313 -2.4e-4,0.0134 -2.1e-4,0.0268 7e-5,0.0402 z m 1.05594,-1.36726 c -0.41064,0.004 -0.74878,0.29799 -0.91493,0.65546 -0.10305,0.22172 -0.1463,0.46814 -0.14101,0.71177 v 0 c 0.0122,0.56395 0.47928,1.0112 1.0432,0.99899 0.54832,-0.0119 0.98937,-0.45466 0.99907,-1.00301 0.008,-0.47968 -0.14136,-1.04543 -0.60675,-1.27635 v 0 c -0.11789,-0.0585 -0.24796,-0.0883 -0.37958,-0.0869 z" />
  </g>
</svg>
