<?xml version="1.0" encoding="UTF-8" standalone="no"?>
<!-- Created with Inkscape (http://www.inkscape.org/) -->

<svg
   xmlns:dc="http://purl.org/dc/elements/1.1/"
   xmlns:cc="http://creativecommons.org/ns#"
   xmlns:rdf="http://www.w3.org/1999/02/22-rdf-syntax-ns#"
   xmlns:svg="http://www.w3.org/2000/svg"
   xmlns="http://www.w3.org/2000/svg"
   xmlns:sodipodi="http://sodipodi.sourceforge.net/DTD/sodipodi-0.dtd"
   xmlns:inkscape="http://www.inkscape.org/namespaces/inkscape"
   version="1.1"
   id="svg2"
   xml:space="preserve"
   width="674.17249"
   height="224.28114"
   viewBox="0 0 674.17249 224.28114"
   sodipodi:docname="det_circle.svg"
   inkscape:version="0.92.3 (2405546, 2018-03-11)"><metadata
     id="metadata8"><rdf:RDF><cc:Work
         rdf:about=""><dc:format>image/svg+xml</dc:format><dc:type
           rdf:resource="http://purl.org/dc/dcmitype/StillImage" /><dc:title></dc:title></cc:Work></rdf:RDF></metadata><defs
     id="defs6" /><sodipodi:namedview
     pagecolor="#ffffff"
     bordercolor="#666666"
     borderopacity="1"
     objecttolerance="10"
     gridtolerance="10"
     guidetolerance="10"
     inkscape:pageopacity="0"
     inkscape:pageshadow="2"
     inkscape:window-width="1920"
     inkscape:window-height="1025"
     id="namedview4"
     showgrid="false"
     fit-margin-top="0"
     fit-margin-left="0"
     fit-margin-right="0"
     fit-margin-bottom="0"
     inkscape:zoom="0.71666667"
     inkscape:cx="421.65256"
     inkscape:cy="38.692345"
     inkscape:window-x="0"
     inkscape:window-y="27"
     inkscape:window-maximized="1"
     inkscape:current-layer="g10" /><g
     id="g10"
     inkscape:groupmode="layer"
     inkscape:label="slides page 18"
     transform="matrix(1.3333333,0,0,-1.3333333,-807.5534,521.42379)"><g
       id="g12" /><g
       id="g14"><path
         d="m 697.9403,352.163 c 0.4263,0.9139 0.8722,1.8221 1.3829,2.6922 0.263,0.4481 0.5387,0.92 0.9009,1.2974 v 0 c 0.8348,0.8699 0.8063,2.2518 -0.0636,3.0866 -0.8699,0.8348 -2.2518,0.8063 -3.0866,-0.0636 0,0 -10e-5,0 -10e-5,-10e-5 -0.6004,-0.6257 -1.0787,-1.3652 -1.516,-2.1103 -0.5802,-0.9886 -1.0899,-2.0182 -1.5743,-3.0566 v 0 c -0.5096,-1.0926 -0.037,-2.3915 1.0556,-2.9012 1.0927,-0.5096 2.3916,-0.037 2.9012,1.0556 z m 2.2838,3.9896 c 0.6784,0.7069 1.5395,1.2355 2.4013,1.6874 v 0 c 1.1531,0.6047 1.5977,2.0297 0.993,3.1828 -0.6047,1.1531 -2.0297,1.5977 -3.1828,0.993 -0.1137,-0.0596 -0.2224,-0.1284 -0.3249,-0.2057 -1.0696,-0.8069 -2.108,-1.6667 -3.0368,-2.6345 v 0 c -0.8348,-0.8699 -0.8063,-2.2518 0.0636,-3.0866 0.8699,-0.8348 2.2518,-0.8063 3.0866,0.0636 z m 2.4013,1.6874 c 1.0419,0.5464 2.0962,1.0727 3.1761,1.5404 v 0 c 1.3343,0.5778 1.9476,2.1279 1.3698,3.4622 -0.5779,1.3343 -2.128,1.9476 -3.4623,1.3698 -0.102,-0.0442 -0.2012,-0.0948 -0.2968,-0.1516 -1.146,-0.6797 -2.2384,-1.4488 -3.3015,-2.2507 v 0 c -1.0395,-0.7842 -1.2465,-2.2625 -0.4624,-3.3019 0.6951,-0.9214 1.955,-1.2042 2.9771,-0.6682 z m 3.1761,1.5404 c 0.6146,0.2661 1.2432,0.501 1.8713,0.7328 1.0134,0.374 2.0328,0.7304 3.0542,1.0815 v 0 c 1.4831,0.5098 2.2722,2.1253 1.7624,3.6084 -0.5097,1.4831 -2.1253,2.2721 -3.6083,1.7624 -0.049,-0.0169 -0.0975,-0.035 -0.1455,-0.0545 -1.0572,-0.4294 -2.1103,-0.8704 -3.148,-1.3454 -0.7388,-0.3382 -1.4759,-0.6899 -2.1754,-1.1048 v 0 c -1.2506,-0.7417 -1.6632,-2.3569 -0.9214,-3.6075 0.6761,-1.14 2.0944,-1.5997 3.3107,-1.0729 z m 4.9255,1.8143 c 3.0303,1.0416 6.0662,2.0672 9.1034,3.0887 v 0 c 1.5419,0.5185 2.3715,2.1889 1.853,3.7309 -0.5186,1.5419 -2.189,2.3715 -3.731,1.853 0,0 0,0 0,-10e-5 -3.0984,-1.0421 -6.1873,-2.1259 -9.2168,-3.3562 v 0 c -1.453,-0.5901 -2.1525,-2.2463 -1.5624,-3.6993 0.5673,-1.3971 2.1278,-2.1071 3.5538,-1.617 z m 9.1034,3.0887 c 4.1585,1.3985 8.3582,2.6748 12.5713,3.8977 v 0 c 1.5515,0.4504 2.4442,2.0732 1.9938,3.6247 -0.4486,1.5456 -2.0616,2.4385 -3.6096,1.9982 -4.3036,-1.2242 -8.5921,-2.5103 -12.8335,-3.9367 v 0 c -1.5419,-0.5186 -2.3715,-2.189 -1.853,-3.7309 0.5186,-1.542 2.189,-2.3716 3.731,-1.853 0,0 0,0 0,0 z m 12.5714,3.8977 c 5.4684,1.5875 11.0037,2.9406 16.5587,4.1876 v 0 c 1.5268,0.3427 2.4867,1.8583 2.144,3.3851 -0.3392,1.511 -1.8287,2.4697 -3.3445,2.1527 -5.6976,-1.1914 -11.3741,-2.5097 -16.974,-4.1025 v 0 c -1.5539,-0.442 -2.4553,-2.06 -2.0133,-3.6139 0.4419,-1.5539 2.0599,-2.4553 3.6138,-2.0133 0.005,10e-4 0.0102,0.003 0.0153,0.004 v -10e-5 z m 16.5587,4.1876 c 6.7623,1.5179 13.5411,2.9622 20.3299,4.3566 v 0 c 1.3665,0.2807 2.2468,1.616 1.9661,2.9826 -0.2723,1.3258 -1.5411,2.2013 -2.8772,1.9855 -6.899,-1.1145 -13.7784,-2.3565 -20.6192,-3.7868 v 0 c -1.5317,-0.3203 -2.5137,-1.8216 -2.1935,-3.3533 0.3203,-1.5316 1.8216,-2.5137 3.3532,-2.1934 0.0136,0.003 0.0272,0.006 0.0407,0.009 z m 20.3299,4.3566 c 5.8627,1.2042 11.7272,2.4003 17.601,3.5491 v 0 c 1.0539,0.2061 1.7412,1.2275 1.535,2.2814 -0.1916,0.9797 -1.0938,1.6551 -2.0878,1.5629 -6.0146,-0.5579 -11.9983,-1.4624 -17.9593,-2.4253 v 0 c -1.3773,-0.2225 -2.3134,-1.5193 -2.0909,-2.8966 0.2225,-1.3772 1.5193,-2.3133 2.8965,-2.0909 0.0353,0.006 0.0705,0.0122 0.1055,0.0194 z m 17.601,3.5491 c 2.7799,0.5436 5.581,0.9782 8.3837,1.3855 3.9519,0.5741 7.9141,1.0792 11.8787,1.557 v 0 c 0.8445,0.1017 1.4465,0.8687 1.3448,1.7132 -0.1012,0.8392 -0.8599,1.4401 -1.7001,1.3462 -6.8149,-0.7616 -13.6316,-1.5242 -20.4599,-2.1576 v 0 c -1.0693,-0.0992 -1.8557,-1.0464 -1.7565,-2.1157 0.0992,-1.0692 1.0464,-1.8557 2.1157,-1.7565 0.0649,0.006 0.1295,0.0153 0.1936,0.0279 z m 20.2624,2.9425 c 9.5422,1.1498 19.1017,2.155 28.6707,3.054 v 0 c 0.7222,0.0678 1.2526,0.7083 1.1848,1.4305 -0.0668,0.7108 -0.6892,1.2381 -1.4014,1.1872 -9.6184,-0.6883 -19.2258,-1.5412 -28.8094,-2.6123 v 0 c -0.8452,-0.0945 -1.4539,-0.8563 -1.3594,-1.7015 0.0945,-0.8453 0.8563,-1.4539 1.7015,-1.3595 0.004,5e-4 0.009,10e-4 0.0132,0.002 z m 28.6707,3.054 c 9.9961,0.9391 20.0187,1.5955 30.0521,1.9633 v 0 c 0.623,0.0228 1.1096,0.5464 1.0868,1.1695 -0.0228,0.6221 -0.545,1.1084 -1.1671,1.0869 -10.0715,-0.3477 -20.1367,-0.8827 -30.1884,-1.602 v 0 c -0.7235,-0.0518 -1.2681,-0.6803 -1.2163,-1.4038 0.0518,-0.7235 0.6803,-1.2681 1.4038,-1.2163 0.01,7e-4 0.0194,10e-4 0.0291,0.002 z m 30.0521,1.9633 c 10.5057,0.3856 21.0187,0.5691 31.5312,0.6031 v 0 c 0.6152,0.002 1.1123,0.5023 1.1103,1.1175 -0.002,0.6152 -0.5023,1.1123 -1.1175,1.1103 0,0 0,0 0,0 -10.5367,-0.034 -21.0736,-0.2116 -31.6043,-0.5745 v 0 c -0.6231,-0.0215 -1.1108,-0.544 -1.0893,-1.1671 0.0214,-0.6231 0.544,-1.1109 1.1671,-1.0894 8e-4,0 0.002,10e-5 0.003,10e-5 z m 31.5312,0.6031 c 10.667,0.0344 21.3371,-0.2692 31.9814,-0.9735 v 0 c 0.6146,-0.0407 1.1459,0.4246 1.1865,1.0393 0.0407,0.6146 -0.4246,1.1459 -1.0392,1.1865 0,0 0,0 0,0 -10.6962,0.7078 -21.417,1.0102 -32.1359,0.9756 v -1e-4 c -0.6152,-0.002 -1.1123,-0.5023 -1.1103,-1.1175 0.002,-0.6152 0.5023,-1.1123 1.1175,-1.1103 z m 31.9814,-0.9735 c 9.8809,-0.6538 19.7452,-1.5807 29.5648,-2.8643 v 0 c 0.6104,-0.0798 1.17,0.3503 1.2498,0.9608 0.0798,0.6104 -0.3503,1.1699 -0.9608,1.2498 -9.8664,1.2903 -19.7784,2.2226 -29.7065,2.8795 v 0 c -0.6147,0.0407 -1.1459,-0.4246 -1.1866,-1.0392 -0.0407,-0.6147 0.4246,-1.1459 1.0393,-1.1866 z m 29.5648,-2.8643 c 9.2056,-1.2034 18.375,-2.6908 27.4828,-4.4924 v 0 c 0.6031,-0.1193 1.1887,0.2729 1.308,0.876 0.1193,0.6031 -0.2729,1.1887 -0.8759,1.308 -9.1552,1.8115 -18.3721,3.3087 -27.6259,4.519 v 0 c -0.6104,0.0798 -1.17,-0.3503 -1.2498,-0.9608 -0.0799,-0.6104 0.3503,-1.17 0.9607,-1.2498 10e-5,0 10e-5,0 10e-5,0 z m 27.4828,-4.4924 c 8.5132,-1.6839 16.9812,-3.6041 25.3672,-5.8409 v 0 c 0.594,-0.1584 1.203,0.1945 1.361,0.7881 0.159,0.5937 -0.194,1.2032 -0.788,1.3616 0,0 0,0 0,0 -8.432,2.2487 -16.9476,4.1814 -25.5081,5.8752 v 0 c -0.6031,0.1193 -1.1887,-0.2729 -1.3081,-0.8759 -0.1193,-0.6031 0.2729,-1.1887 0.8759,-1.3081 10e-5,0 10e-5,0 10e-5,0 z m 25.3672,-5.8409 c 7.516,-2.0048 14.97,-4.2523 22.307,-6.8376 v 0 c 0.669,-0.2357 1.403,0.1155 1.639,0.7845 0.235,0.669 -0.116,1.4025 -0.785,1.6382 -0.012,0.004 -0.025,0.009 -0.038,0.0127 -7.461,2.3705 -14.986,4.5349 -22.55,6.5519 v 0 c -0.593,0.1583 -1.203,-0.1946 -1.361,-0.7882 -0.159,-0.5936 0.194,-1.2032 0.788,-1.3615 z m 22.307,-6.8376 c 6.655,-2.3445 13.223,-4.9366 19.661,-7.8255 v 0 c 0.813,-0.365 1.768,-0.002 2.133,0.8119 0.365,0.8135 0,1.7688 -0.812,2.1339 -0.015,0.007 -0.03,0.0133 -0.045,0.0196 -6.598,2.7203 -13.32,5.1346 -20.121,7.2955 v 0 c -0.676,0.2148 -1.398,-0.1591 -1.613,-0.8351 -0.21,-0.6612 0.143,-1.3698 0.797,-1.6003 z m 19.66,-7.8254 c 5.906,-2.6505 11.688,-5.5831 17.267,-8.8683 v 0 c 0.86,-0.5069 1.969,-0.2201 2.476,0.6406 0.507,0.8607 0.22,1.9694 -0.641,2.4763 0,0.002 -0.01,0.005 -0.012,0.007 -5.725,3.3128 -11.699,6.1892 -17.813,8.7098 v 0 c -0.824,0.3398 -1.768,-0.053 -2.108,-0.8773 -0.332,-0.8064 0.036,-1.731 0.831,-2.0881 z m 17.267,-8.8683 c 4.79,-2.8213 9.429,-5.9429 13.669,-9.5475 v 0 c 0.903,-0.7678 2.258,-0.6581 3.025,0.2449 0.768,0.9031 0.658,2.2575 -0.245,3.0253 -0.042,0.0363 -0.087,0.071 -0.132,0.1039 -4.653,3.365 -9.525,6.4226 -14.494,9.2973 v 0 c -0.864,0.5002 -1.971,0.2048 -2.471,-0.6598 -0.497,-0.8598 -0.208,-1.96 0.648,-2.4641 z m 13.669,-9.5475 c 3.564,-3.0302 6.921,-6.3178 9.913,-9.9176 v 0 c 0.94,-1.1307 2.618,-1.2854 3.749,-0.3456 1.131,0.9398 1.285,2.6182 0.346,3.7488 -0.036,0.0429 -0.073,0.0846 -0.111,0.1252 -3.413,3.6177 -7.222,6.8506 -11.249,9.7633 v 0 c -0.961,0.6946 -2.302,0.4791 -2.997,-0.4813 -0.656,-0.9076 -0.504,-2.1673 0.349,-2.8928 z m 9.913,-9.9176 c 2.576,-3.0993 4.858,-6.4596 6.626,-10.0868 v 0 c 0.713,-1.4626 2.476,-2.0705 3.939,-1.3577 1.462,0.7127 2.07,2.4762 1.358,3.9388 -0.01,0.0205 -0.021,0.0409 -0.031,0.0611 -2.077,4.0228 -4.806,7.6845 -7.908,10.973 v 0 c -1.009,1.0694 -2.694,1.1184 -3.763,0.1095 -1.023,-0.9643 -1.119,-2.5571 -0.221,-3.6379 z m 6.626,-10.0868 c 1.535,-3.1492 2.678,-6.5003 3.221,-9.9666 v 0 c 0.267,-1.699 1.86,-2.8604 3.559,-2.5939 1.699,0.2664 2.861,1.8597 2.594,3.5588 -0.01,0.0368 -0.012,0.0735 -0.019,0.1101 -0.78,4.0222 -2.212,7.8978 -4.089,11.5338 v 0 c -0.747,1.4457 -2.524,2.0125 -3.969,1.2661 -1.422,-0.7343 -1.998,-2.4696 -1.297,-3.9083 z m 3.221,-9.9666 c 0.534,-3.4044 0.541,-6.8763 0.123,-10.2937 v 0 c -0.218,-1.7783 1.047,-3.3966 2.825,-3.6144 1.779,-0.2179 3.397,1.0472 3.615,2.8256 10e-4,0.0118 0,0.0236 0,0.0354 0.449,4.0346 0.34,8.1331 -0.433,12.1221 v 0 c -0.327,1.6883 -1.961,2.7917 -3.65,2.4645 -1.645,-0.319 -2.743,-1.8834 -2.484,-3.5395 z m 2.796,-23.5115 c 1.962,3.9012 3.287,8.1192 3.771,12.4644 v 0 c 0.198,1.7807 -1.085,3.3849 -2.865,3.5832 -1.767,0.1967 -3.363,-1.0652 -3.579,-2.8297 -0.439,-3.5833 -1.561,-7.0535 -3.181,-10.2743 v 0 c -0.813,-1.6166 -0.161,-3.586 1.455,-4.3988 1.617,-0.8129 3.586,-0.1614 4.399,1.4551 z m -8.2,-11.7021 c 3.205,3.5369 6.052,7.4304 8.2,11.7021 v 0 c 0.813,1.6165 0.161,3.5859 -1.455,4.3988 -1.617,0.8128 -3.586,0.1613 -4.399,-1.4553 -1.892,-3.7628 -4.376,-7.2074 -7.145,-10.3708 v 0 c -1.169,-1.3355 -1.035,-3.3659 0.301,-4.535 1.319,-1.155 3.321,-1.0392 4.498,0.2602 z m -12.386,-10.8526 c 4.47,3.1973 8.692,6.7755 12.386,10.8526 v 0 c 1.192,1.3153 1.092,3.3477 -0.223,4.5395 -1.316,1.1918 -3.348,1.0916 -4.54,-0.2237 -0.012,-0.0135 -0.024,-0.0272 -0.036,-0.041 -3.32,-3.7926 -7.163,-7.1069 -11.236,-10.0651 v 0 c -1.394,-1.0128 -1.703,-2.964 -0.691,-4.3583 1.008,-1.3871 2.946,-1.7015 4.34,-0.704 z m -15.401,-9.2984 c 5.355,2.7121 10.519,5.8056 15.401,9.2984 v 0 c 1.402,1.0026 1.725,2.9516 0.723,4.3532 -1.003,1.4015 -2.952,1.725 -4.353,0.7224 -0.01,-0.004 -0.013,-0.009 -0.019,-0.0133 -4.631,-3.3642 -9.482,-6.4237 -14.488,-9.1977 v 0 c -1.412,-0.7822 -1.922,-2.5607 -1.14,-3.9723 0.761,-1.3748 2.474,-1.9008 3.876,-1.1907 z m -17.85,-7.5923 c 6.093,2.1737 12.077,4.6685 17.85,7.5923 v 0 c 1.44,0.7292 2.016,2.4875 1.287,3.9273 -0.73,1.4397 -2.488,2.0157 -3.928,1.2865 -0.032,-0.0164 -0.064,-0.0333 -0.095,-0.0508 -5.465,-3.0276 -11.137,-5.6715 -16.92,-8.0307 v 0 c -1.293,-0.5277 -1.914,-2.0041 -1.386,-3.2977 0.511,-1.2528 1.917,-1.8816 3.192,-1.4269 z m -20.809,-6.8808 c 6.981,2.1536 13.927,4.4257 20.809,6.8808 v 0 c 1.316,0.4694 2.002,1.9167 1.532,3.2325 -0.469,1.3158 -1.917,2.0019 -3.232,1.5325 -0.036,-0.0127 -0.071,-0.0261 -0.106,-0.0404 -6.675,-2.7233 -13.481,-5.1202 -20.35,-7.3032 v 0 c -1.187,-0.3771 -1.843,-1.6445 -1.466,-2.831 0.375,-1.1793 1.63,-1.836 2.813,-1.4712 z m -23.806,-6.2508 c 8.013,1.7722 15.964,3.8317 23.806,6.2508 v 0 c 1.189,0.3669 1.856,1.6288 1.489,2.8184 -0.367,1.1896 -1.629,1.8564 -2.818,1.4895 -0.01,-0.002 -0.012,-0.004 -0.018,-0.006 -7.728,-2.4558 -15.531,-4.6743 -23.381,-6.7045 v 0 c -1.059,-0.2737 -1.695,-1.3534 -1.421,-2.4116 0.267,-1.0318 1.303,-1.667 2.343,-1.4368 v -1e-4 z m -27.1559,-4.8268 c 9.1055,1.2812 18.1772,2.8402 27.1569,4.8269 v 0 c 1.067,0.2361 1.741,1.2927 1.504,2.3599 -0.236,1.0672 -1.292,1.7409 -2.359,1.5048 -0.023,-0.005 -0.046,-0.0105 -0.068,-0.0163 -8.8156,-2.2791 -17.7373,-4.1361 -26.7027,-5.7174 v 0 c -0.8146,-0.1437 -1.3584,-0.9205 -1.2148,-1.735 0.1402,-0.7946 0.8846,-1.3354 1.6836,-1.2229 z m -30.0542,-3.4712 c 10.0435,0.92 20.0669,2.0659 30.0542,3.4712 v 0 c 0.819,0.1152 1.3896,0.8726 1.2743,1.6917 -0.1152,0.819 -0.8726,1.3896 -1.6917,1.2744 -0.0172,-0.002 -0.0343,-0.005 -0.0514,-0.008 -9.8786,-1.7424 -19.828,-3.0784 -29.8104,-4.0601 v 0 c -0.654,-0.0643 -1.132,-0.6466 -1.0677,-1.3006 0.064,-0.6508 0.6414,-1.128 1.2927,-1.0684 z m -31.9994,-2.3743 c 10.6782,0.6205 21.3476,1.3986 31.9994,2.3743 v 0 c 0.6544,0.06 1.1363,0.639 1.0763,1.2934 -0.0599,0.6544 -0.639,1.1363 -1.2934,1.0764 -0.003,-3e-4 -0.005,-5e-4 -0.008,-8e-4 -10.6171,-1.0441 -21.2566,-1.8581 -31.9064,-2.4839 v -1e-4 c -0.6239,-0.0366 -1.1,-0.5721 -1.0633,-1.196 0.0366,-0.6236 0.5717,-1.0995 1.1953,-1.0633 z m -34.1902,-1.4252 c 11.403,0.2996 22.8022,0.7641 34.1901,1.4252 v 0 c 0.6239,0.0362 1.1004,0.5714 1.0641,1.1953 -0.0362,0.6239 -0.5713,1.1003 -1.1952,1.0641 -3e-4,0 -6e-4,0 -8e-4,-1e-4 -11.3636,-0.6677 -22.7385,-1.1365 -34.1175,-1.4388 v 0 c -0.6201,-0.0165 -1.1095,-0.5325 -1.093,-1.1527 0.0165,-0.62 0.5323,-1.1093 1.1523,-1.093 z m -35.9998,-0.5505 c 12.0014,0.0564 24.0025,0.2346 35.9999,0.5505 v 0 c 0.6201,0.0164 1.1096,0.5323 1.0933,1.1524 -0.0164,0.6202 -0.5323,1.1096 -1.1524,1.0933 -10e-5,0 -2e-4,0 -2e-4,0 -11.9813,-0.3176 -23.9661,-0.4976 -35.9514,-0.5567 v 0 c -0.6184,-0.003 -1.1172,-0.5069 -1.1142,-1.1253 0.003,-0.6183 0.5067,-1.1171 1.125,-1.1142 z m -37.0577,0.1587 c 12.3517,-0.1626 24.7052,-0.2175 37.0578,-0.1587 v 0 c 0.6184,0.003 1.1173,0.5066 1.1144,1.1251 -0.003,0.6184 -0.5067,1.1173 -1.1251,1.1144 0,0 -10e-5,0 -2e-4,0 -12.3392,-0.061 -24.6791,-0.007 -37.0174,0.155 v 0 c -0.6174,0.008 -1.1245,-0.4858 -1.1326,-1.1032 -0.008,-0.6174 0.4857,-1.1244 1.1031,-1.1326 z m -36.9054,1.7634 c 12.276,-1.0223 24.5882,-1.6012 36.9054,-1.7634 v 0 c 0.6174,-0.008 1.1245,0.4858 1.1326,1.1032 0.008,0.6173 -0.4857,1.1244 -1.1031,1.1326 -12.2652,0.1622 -24.5257,0.7353 -36.75,1.7503 v 0 c -0.6138,0.051 -1.1527,-0.4053 -1.2037,-1.019 -0.0509,-0.6137 0.4052,-1.1525 1.0188,-1.2036 z m -34.8768,4.0945 c 11.5705,-1.7895 23.2099,-3.1229 34.8768,-4.0945 v 1e-4 c 0.6138,-0.0512 1.1528,0.405 1.2039,1.0187 0.0511,0.6138 -0.405,1.1528 -1.0188,1.2039 -10e-5,0 -2e-4,0 -3e-4,0 -11.6154,0.9638 -23.2025,2.2899 -34.7216,4.0708 v 0 c -0.6072,0.0939 -1.1756,-0.3222 -1.2695,-0.9295 -0.0939,-0.6072 0.3223,-1.1755 0.9295,-1.2694 z m -31.4966,6.1851 c 10.3992,-2.5312 20.9207,-4.5494 31.4966,-6.1851 v 1e-4 c 0.6072,-0.094 1.1756,0.3222 1.2695,0.9294 0.0939,0.6072 -0.3222,1.1756 -0.9294,1.2695 -10e-5,0 -10e-5,0 -10e-5,0 -10.5133,1.6254 -20.9717,3.6349 -31.3086,6.1542 v 0 c -0.5987,0.146 -1.2023,-0.2211 -1.3482,-0.8198 -0.1459,-0.5987 0.2211,-1.2023 0.8198,-1.3483 10e-5,0 2e-4,0 3e-4,0 z m -27.5307,7.5223 c 9.0932,-2.8015 18.2864,-5.2723 27.5307,-7.5223 h -1e-4 c 0.5988,-0.1458 1.2023,0.2215 1.348,0.8202 0.1458,0.5986 -0.2213,1.2021 -0.8199,1.3479 -9.1999,2.2422 -18.3483,4.7072 -27.3973,7.4993 v 0 c -0.5923,0.1828 -1.2206,-0.1492 -1.4034,-0.7415 -0.1827,-0.5923 0.1493,-1.2207 0.7416,-1.4034 10e-5,-10e-5 3e-4,-10e-5 4e-4,-2e-4 z m -24.3521,8.4473 c 8.0084,-3.1182 16.1396,-5.9171 24.3521,-8.4473 v 0 c 0.5924,-0.1825 1.2206,0.1498 1.4031,0.7422 0.1825,0.5922 -0.1495,1.2202 -0.7416,1.4029 -8.155,2.5168 -16.2189,5.3347 -24.1418,8.5091 v -1e-4 c -0.6083,0.2437 -1.2989,-0.0518 -1.5426,-0.66 -0.2437,-0.6083 0.0518,-1.2989 0.6601,-1.5426 0.004,-0.001 0.007,-0.003 0.0107,-0.004 v 1e-4 z m -20.7202,9.8027 c 6.6135,-3.843 13.5974,-7.029 20.7202,-9.8027 v 0 c 0.6106,-0.2378 1.2983,0.0644 1.5361,0.675 0.2361,0.6064 -0.0603,1.2899 -0.6644,1.5319 -6.9712,2.7925 -13.7982,6.0065 -20.2314,9.892 v 10e-5 c -0.6309,0.381 -1.4513,0.1785 -1.8323,-0.4525 -0.3811,-0.6309 -0.1785,-1.4512 0.4524,-1.8323 0.006,-0.004 0.0129,-0.008 0.0194,-0.0115 z m -16.0125,11.8574 c 4.8275,-4.5893 10.2585,-8.5138 16.0125,-11.8574 v 0 c 0.6373,-0.3703 1.4541,-0.1539 1.8244,0.4834 0.3659,0.6296 0.1594,1.4364 -0.4639,1.8129 -5.4692,3.3031 -10.5468,7.2916 -14.8472,12.0293 v 0 c -0.6559,0.7226 -1.7734,0.7767 -2.496,0.1208 -0.7226,-0.6559 -0.7766,-1.7734 -0.1207,-2.496 0.0291,-0.0321 0.0594,-0.0631 0.0909,-0.093 z m -10.7667,13.4652 c 2.789,-5.0566 6.5955,-9.4999 10.7667,-13.4652 v 0 c 0.7072,-0.6724 1.8257,-0.6441 2.498,0.0632 0.6377,0.6707 0.6497,1.7198 0.0278,2.405 -3.5734,3.9368 -6.7978,8.2896 -9.0043,13.149 h -10e-5 c -0.5482,1.2073 -1.9712,1.7416 -3.1785,1.1934 -1.2072,-0.5482 -1.7415,-1.9713 -1.1933,-3.1785 0.0257,-0.0567 0.0537,-0.1124 0.0837,-0.1669 z m -4.025,15.0675 c 0.0373,-2.6258 0.3929,-5.2453 1.0731,-7.7822 0.6805,-2.5382 1.6832,-4.985 2.9519,-7.2853 v 0 c 0.6404,-1.161 2.1007,-1.5831 3.2617,-0.9427 1.0976,0.6054 1.5447,1.9533 1.0264,3.0947 -1.8444,4.0621 -2.8114,8.4722 -2.781,12.9358 h 1e-4 c 0.0104,1.5278 -1.2197,2.7746 -2.7474,2.785 -1.5277,0.0105 -2.7746,-1.2196 -2.785,-2.7473 -10e-5,-0.0193 0,-0.0387 2e-4,-0.058 z m 0,0 v 0 c 0.0217,-1.5276 1.2776,-2.7484 2.8052,-2.7268 1.505,0.0214 2.7167,1.2421 2.727,2.7472 0.0149,2.203 0.3522,4.3966 0.9673,6.5111 0.6724,2.3113 1.6672,4.5202 2.8707,6.6021 v 0 c 0.7857,1.3593 0.3207,3.0981 -1.0386,3.8838 -1.3592,0.7857 -3.0981,0.3208 -3.8838,-1.0384 -1.4363,-2.4848 -2.6043,-5.1313 -3.3786,-7.8977 -0.7353,-2.6269 -1.1079,-5.3527 -1.0692,-8.0813 z m 9.3701,13.1336 c 1.3928,2.4093 3.0633,4.6519 4.8882,6.7499 2.1445,2.4653 4.5062,4.737 6.9842,6.8642 v 0 c 1.1752,1.0088 1.3101,2.7792 0.3013,3.9545 -1.0037,1.1693 -2.763,1.3096 -3.9394,0.3141 -5.0887,-4.3063 -9.8036,-9.237 -13.1566,-15.0373 v 0 c -0.7857,-1.3593 -0.3208,-3.0982 1.0385,-3.8839 1.3592,-0.7857 3.0981,-0.3208 3.8838,1.0384 z m 11.8724,13.6141 c 2.9247,2.5104 6.0458,4.7874 9.2618,6.9087 3.8187,2.5188 7.7786,4.8201 11.8116,6.9771 v 0 c 1.1692,0.6253 1.6101,2.08 0.9847,3.2492 -0.6039,1.1292 -1.9879,1.5856 -3.1451,1.0372 -4.288,-2.0321 -8.4944,-4.2486 -12.5364,-6.737 -3.4972,-2.1531 -6.8779,-4.5121 -10.0147,-7.1666 v 0 c -1.1823,-1.0005 -1.3297,-2.77 -0.3292,-3.9523 1.0005,-1.1823 2.77,-1.3296 3.9523,-0.3291 0.005,0.004 0.01,0.008 0.015,0.0128 z m 21.0734,13.8858 c 3.4929,1.8681 7.2958,3.2113 11.0108,4.5559 6.0164,2.1774 12.1046,4.1557 18.2053,6.0819 9.3843,2.9631 18.8159,5.7754 28.263,8.5311 11.2923,3.2939 22.6116,6.4979 33.9426,9.6559 v 0 c 0.4854,0.1353 0.7693,0.6384 0.634,1.1239 -0.1327,0.476 -0.6202,0.7599 -1.0997,0.6403 -12.262,-3.057 -24.5132,-6.1599 -36.738,-9.3627 -8.7048,-2.2807 -17.3982,-4.608 -26.059,-7.0513 -6.6158,-1.8664 -13.2234,-3.7825 -19.7553,-5.9267 -3.5623,-1.1693 -7.1702,-2.3535 -10.5641,-3.9619 v 0 c -1.1981,-0.5678 -1.7091,-1.9994 -1.1413,-3.1976 0.5678,-1.1982 1.9994,-1.7091 3.1976,-1.1413 0.0351,0.0166 0.0698,0.0341 0.1041,0.0525 z"
         style="fill:#d34f21;fill-opacity:1;fill-rule:nonzero;stroke:none"
         id="path16"
         inkscape:connector-curvature="0" /><g
         id="g18"
         transform="matrix(3.14973,0,0,-0.5454546,605.1307,393.2809)" /></g></g></svg>