<?xml version="1.0" encoding="UTF-8" standalone="no"?>
<!-- Created with Inkscape (http://www.inkscape.org/) -->

<svg
   xmlns:dc="http://purl.org/dc/elements/1.1/"
   xmlns:cc="http://creativecommons.org/ns#"
   xmlns:rdf="http://www.w3.org/1999/02/22-rdf-syntax-ns#"
   xmlns:svg="http://www.w3.org/2000/svg"
   xmlns="http://www.w3.org/2000/svg"
   xmlns:sodipodi="http://sodipodi.sourceforge.net/DTD/sodipodi-0.dtd"
   xmlns:inkscape="http://www.inkscape.org/namespaces/inkscape"
   width="27.871338mm"
   height="40.873512mm"
   viewBox="0 0 27.871338 40.873512"
   version="1.1"
   id="svg7312"
   sodipodi:docname="discrete_arrow_black.svg"
   inkscape:version="0.92.3 (2405546, 2018-03-11)">
  <defs
     id="defs7306" />
  <sodipodi:namedview
     id="base"
     pagecolor="#ffffff"
     bordercolor="#666666"
     borderopacity="1.0"
     inkscape:pageopacity="0.0"
     inkscape:pageshadow="2"
     inkscape:zoom="0.98994949"
     inkscape:cx="300.67724"
     inkscape:cy="179.35235"
     inkscape:document-units="mm"
     inkscape:current-layer="layer1"
     showgrid="false"
     inkscape:window-width="1920"
     inkscape:window-height="1025"
     inkscape:window-x="0"
     inkscape:window-y="27"
     inkscape:window-maximized="1"
     fit-margin-top="0"
     fit-margin-left="0"
     fit-margin-right="0"
     fit-margin-bottom="0" />
  <metadata
     id="metadata7309">
    <rdf:RDF>
      <cc:Work
         rdf:about="">
        <dc:format>image/svg+xml</dc:format>
        <dc:type
           rdf:resource="http://purl.org/dc/dcmitype/StillImage" />
        <dc:title></dc:title>
      </cc:Work>
    </rdf:RDF>
  </metadata>
  <g
     inkscape:label="Layer 1"
     inkscape:groupmode="layer"
     id="layer1"
     transform="translate(-134.98695,-127.64062)">
    <path
       inkscape:connector-curvature="0"
       id="path7891"
       style="fill:#00000f;fill-opacity:0.94117647;fill-rule:nonzero;stroke:none;stroke-width:0.35277778"
       d="m 143.48148,128.81318 c 0.0438,0.0338 0.0651,0.10146 0.0842,0.15131 0.0382,0.0999 0.0654,0.20401 0.0889,0.30818 h -4e-5 c 0.0212,0.094 0.11462,0.15297 0.20863,0.13177 0.087,-0.0196 0.14517,-0.10174 0.13487,-0.19033 -0.025,-0.21572 -0.051,-0.43144 -0.0733,-0.64748 v 0 c -0.0156,-0.15159 -0.15113,-0.2618 -0.30272,-0.24621 -0.15158,0.0156 -0.26179,0.15113 -0.2462,0.30272 0.008,0.0751 0.0459,0.14383 0.10569,0.19004 z m 0.47523,-0.096 c -0.0187,-0.11935 -0.0253,-0.26505 -0.10171,-0.36386 v 0 c -0.0235,-0.0304 -0.0521,-0.0565 -0.0846,-0.0771 -0.12294,-0.0781 -0.27996,-0.0681 -0.39856,0.0117 -0.0493,0.0332 -0.0909,0.0767 -0.12457,0.12552 -0.0524,0.0759 -0.0863,0.16326 -0.11187,0.25139 v 0 c -0.065,0.22355 0.0636,0.45748 0.28713,0.52246 0.22355,0.065 0.45748,-0.0636 0.52246,-0.28712 0.0172,-0.0594 0.0212,-0.12185 0.0116,-0.18295 z m -0.8074,1.73023 v 0 c 0.0278,0.29771 0.2916,0.51654 0.58931,0.48881 0.29768,-0.0278 0.51654,-0.29161 0.48878,-0.58932 -10e-4,-0.0134 -0.003,-0.0269 -0.005,-0.0402 -0.0897,-0.52956 -0.18224,-1.05887 -0.26539,-1.58951 h -4e-5 c -0.036,-0.22998 -0.2517,-0.38721 -0.48171,-0.35119 -0.16154,0.0253 -0.29387,0.14178 -0.33952,0.2988 -0.0644,0.22147 -0.0596,0.46485 -0.0556,0.69317 0.006,0.36382 0.0357,0.72729 0.0695,1.08945 z m 0,4e-5 c 0.0608,0.65193 0.1216,1.30393 0.18207,1.9559 v 0 c 0.0307,0.33077 0.32371,0.57404 0.6545,0.54335 0.33077,-0.0307 0.57404,-0.32371 0.54335,-0.65447 -6.9e-4,-0.007 -0.001,-0.0137 -0.002,-0.0206 -0.0839,-0.6574 -0.19415,-1.31163 -0.30488,-1.96497 v 0 c -0.05,-0.29478 -0.32941,-0.49326 -0.62419,-0.44327 -0.27929,0.0473 -0.47487,0.30198 -0.44859,0.58403 z m 0.18207,1.9559 c 0.0682,0.73494 0.10184,1.47362 0.13899,2.21058 v 0 c 0.0179,0.35383 0.31912,0.62618 0.67296,0.60836 0.3538,-0.0179 0.62618,-0.31912 0.60833,-0.67296 -3.5e-4,-0.008 -10e-4,-0.0154 -0.002,-0.0231 -0.0652,-0.75198 -0.12757,-1.50562 -0.2231,-2.25453 v 0 c -0.042,-0.3295 -0.34325,-0.56258 -0.67278,-0.52052 -0.32156,0.041 -0.55277,0.32945 -0.52282,0.65221 z m 0.13899,2.21058 c 0.0539,1.0687 0.0925,2.13811 0.11804,3.20784 v 0 c 0.009,0.38576 0.32939,0.69106 0.71515,0.68185 0.38576,-0.009 0.69102,-0.32939 0.68185,-0.71515 -2.1e-4,-0.008 -7.2e-4,-0.0162 -0.001,-0.0242 -0.0634,-1.08038 -0.14072,-2.15988 -0.23428,-3.23804 h -3e-5 c -0.0306,-0.35295 -0.34156,-0.61426 -0.69452,-0.5836 -0.34392,0.0299 -0.60254,0.32653 -0.58518,0.67134 z m 0.11804,3.20784 c 0.0195,0.8165 0.039,1.63301 0.058,2.44951 v 0 c 0.009,0.40221 0.34297,0.72066 0.74517,0.71131 0.40217,-0.009 0.72062,-0.34297 0.71127,-0.74517 -3e-5,-7.1e-4 -3e-5,-10e-4 -3e-5,-0.002 -0.0213,-0.8243 -0.0701,-1.64818 -0.11839,-2.47128 v 0 c -0.0226,-0.38524 -0.35317,-0.67917 -0.7384,-0.6566 -0.37578,0.0221 -0.66654,0.33782 -0.65758,0.71413 z m 0.058,2.44951 c 0.0179,0.76793 0.0363,1.53589 0.0547,2.30378 v 0 c 0.01,0.41092 0.35098,0.73607 0.76193,0.72623 0.41095,-0.01 0.73607,-0.35101 0.72622,-0.76193 -1e-4,-0.005 -3e-4,-0.01 -3.5e-4,-0.0147 -0.0334,-0.76281 -0.0663,-1.5258 -0.086,-2.28914 h 4e-5 c -0.0104,-0.40217 -0.34488,-0.71974 -0.74704,-0.70933 -0.40139,0.0104 -0.71872,0.34368 -0.70937,0.7451 z m 0.0547,2.30378 c 0.0174,0.72662 0.0331,1.45394 0.0712,2.17989 v 0 c 0.022,0.41871 0.3792,0.7403 0.79791,0.71832 0.41868,-0.022 0.74027,-0.3792 0.71833,-0.79787 -0.0376,-0.71671 -0.0684,-1.43376 -0.0998,-2.15075 v 0 c -0.018,-0.41067 -0.36544,-0.72901 -0.77611,-0.71102 -0.40495,0.0177 -0.72129,0.3562 -0.71155,0.76143 z m 0.0712,2.17989 c 0.0309,0.58903 0.0893,1.17676 0.15219,1.76308 v 0 c 0.0448,0.41768 0.41966,0.71998 0.83731,0.67521 0.41769,-0.0448 0.71999,-0.41966 0.67522,-0.83732 -7e-5,-6.9e-4 -1.4e-4,-0.001 -2.1e-4,-0.002 -0.0614,-0.55813 -0.11885,-1.11767 -0.14827,-1.67848 v 0 c -0.022,-0.41872 -0.3792,-0.74031 -0.79792,-0.71837 -0.41867,0.022 -0.7403,0.37921 -0.71832,0.79788 0,4e-5 0,4e-5 0,4e-5 z m 0.15219,1.76308 c 0.0651,0.60713 0.13977,1.21475 0.25456,1.81475 v 0 c 0.0799,0.41755 0.48316,0.69127 0.90075,0.61137 0.41755,-0.0799 0.69127,-0.48317 0.61136,-0.90071 -0.001,-0.006 -0.002,-0.0112 -0.004,-0.0168 -0.11821,-0.55125 -0.1894,-1.11284 -0.25096,-1.6728 v 0 c -0.0459,-0.41755 -0.42161,-0.71886 -0.83916,-0.67296 -0.41678,0.0458 -0.71787,0.42023 -0.67318,0.83711 z m 0.25456,1.81475 c 0.0713,0.3725 0.14566,0.74708 0.25559,1.11048 v 0 c 0.12675,0.41899 0.5692,0.65592 0.9882,0.52916 0.41903,-0.12675 0.65595,-0.5692 0.5292,-0.9882 -0.006,-0.0211 -0.0136,-0.0418 -0.0217,-0.0623 -0.11342,-0.28646 -0.17815,-0.59507 -0.24257,-0.89532 h 4e-5 c -0.0892,-0.41567 -0.49844,-0.68036 -0.91412,-0.59118 -0.40915,0.0878 -0.67324,0.4863 -0.59461,0.89732 z m 0.25559,1.11044 c 0.0628,0.20754 0.19251,0.39134 0.38192,0.50349 v 0 c 0.0986,0.0584 0.20873,0.0945 0.32275,0.1059 l -1e-4,0.001 c 0.43095,0.0451 0.81685,-0.26779 0.8619,-0.69875 0.004,-0.0374 0.005,-0.0751 0.004,-0.11264 -0.004,-0.11141 -0.0337,-0.21742 -0.0744,-0.32022 v 0 c -0.0493,-0.12442 -0.12923,-0.23435 -0.23241,-0.31954 -0.14115,-0.22317 -0.27609,-0.45075 -0.41039,-0.67857 v 0 c -0.0547,-0.0928 -0.17431,-0.12368 -0.26709,-0.069 -0.0429,0.0253 -0.0745,0.066 -0.0883,0.11384 -0.0573,0.19819 -0.11744,0.39557 -0.18518,0.59052 l -2.4e-4,-3.4e-4 c -0.28597,0.19505 -0.4123,0.55305 -0.31207,0.88434 z" />
    <path
       inkscape:connector-curvature="0"
       id="path7893"
       style="fill:#00000f;fill-opacity:0.94117647;fill-rule:nonzero;stroke:none;stroke-width:0.35277778"
       d="m 143.74677,150.0545 c 0.25795,-0.0296 0.51707,-0.0491 0.77636,-0.0622 v 0 c 0.0962,-0.005 0.17029,-0.0869 0.16542,-0.18309 -0.001,-0.0312 -0.0115,-0.0614 -0.0287,-0.0874 -0.19371,-0.29302 -0.47075,-0.53376 -0.80554,-0.6494 v 4e-5 c -0.2644,-0.0913 -0.5528,0.049 -0.64413,0.31341 -0.0913,0.26444 0.049,0.55283 0.31344,0.64417 0.0716,0.0247 0.14785,0.0331 0.22313,0.0244 z m -0.89348,0.11186 c 0.29753,-0.0394 0.59528,-0.0776 0.89348,-0.11186 v 0 c 0.27792,-0.0319 0.47738,-0.28311 0.44545,-0.56103 -0.0222,-0.19367 -0.15363,-0.35736 -0.33785,-0.421 -0.3296,-0.11384 -0.67822,-0.16958 -1.02433,-0.20281 v 0 c -0.35877,-0.0344 -0.67758,0.22849 -0.71204,0.5873 -0.0345,0.35878 0.22849,0.67758 0.58727,0.71205 0.0493,0.005 0.099,0.004 0.14802,-0.003 v 3e-5 z m -0.84388,0.13148 c 0.27954,-0.0538 0.56173,-0.0942 0.84388,-0.13148 v 0 c 0.35733,-0.0473 0.60868,-0.37532 0.56138,-0.73265 -0.0398,-0.30116 -0.28223,-0.53498 -0.58463,-0.56405 -0.33217,-0.0319 -0.66766,-0.0523 -1.00129,-0.0335 v 0 c -0.407,0.0229 -0.71839,0.3713 -0.69557,0.77827 0.0229,0.40696 0.3713,0.71839 0.77827,0.69553 0.0329,-0.002 0.0656,-0.006 0.098,-0.0121 z m -0.81696,0.12527 c 0.27358,-0.0328 0.54635,-0.0733 0.81696,-0.12527 v 0 c 0.40026,-0.0769 0.66241,-0.4638 0.58547,-0.86409 -0.0697,-0.3629 -0.39716,-0.61832 -0.76613,-0.59761 -0.24853,0.014 -0.49731,0.0226 -0.74616,0.0279 v 0 c -0.43201,0.009 -0.77477,0.36692 -0.76552,0.79893 0.009,0.43201 0.36692,0.77477 0.79893,0.76553 0.0255,-3.4e-4 0.0511,-0.002 0.0765,-0.005 z m -1.25797,0.0881 c 0.41963,-0.018 0.84074,-0.038 1.25797,-0.0881 v 4e-5 c 0.42905,-0.0515 0.73515,-0.44097 0.68368,-0.87002 -0.0479,-0.39959 -0.39116,-0.69766 -0.79354,-0.68908 -0.38484,0.008 -0.77036,-0.005 -1.15492,-0.0181 v 3e-5 c -0.45992,-0.016 -0.84571,0.34393 -0.86166,0.80384 -0.016,0.45992 0.34392,0.84568 0.80384,0.86166 0.0215,7.2e-4 0.0431,7.2e-4 0.0646,-2.4e-4 z m -1.63396,-0.0553 c 0.5419,0.0639 1.08899,0.0787 1.63392,0.0553 v 4e-5 c 0.45978,-0.0197 0.81654,-0.40845 0.79682,-0.86822 -0.0187,-0.43473 -0.36869,-0.78194 -0.80355,-0.79704 -0.43992,-0.0153 -0.87937,-0.0684 -1.30747,-0.17215 v 0 c -0.4868,-0.11797 -0.97702,0.18104 -1.09499,0.66781 -0.11793,0.4868 0.18105,0.97705 0.66785,1.09498 0.0354,0.009 0.0713,0.015 0.10742,0.0193 z m -1.20287,-0.13413 c 0.40132,0.0411 0.80218,0.0869 1.20283,0.13413 v 0 c 0.49742,0.0587 0.94823,-0.29704 1.00687,-0.79449 0.0537,-0.45558 -0.24123,-0.87955 -0.68707,-0.98757 -0.37148,-0.09 -0.74207,-0.18711 -1.10519,-0.30688 v 0 c -0.52729,-0.17392 -1.09572,0.11257 -1.26961,0.63983 -0.17392,0.5273 0.11254,1.09569 0.63983,1.26961 0.0689,0.0228 0.14013,0.038 0.21234,0.0453 z m -0.91683,-0.14192 c 0.30039,0.0733 0.6097,0.11042 0.91683,0.14192 v -4e-5 c 0.55231,0.0567 1.04599,-0.34519 1.10261,-0.8975 0.0481,-0.46958 -0.23689,-0.90942 -0.68517,-1.05727 -0.1972,-0.065 -0.39952,-0.13014 -0.58561,-0.22356 v 0 c -0.53887,-0.27058 -1.19507,-0.0531 -1.46565,0.48581 -0.27058,0.53891 -0.0531,1.19511 0.48581,1.46565 0.0736,0.037 0.15117,0.0655 0.23118,0.085 z m -1.09404,-0.85528 c 0.11282,0.26515 0.31189,0.4856 0.55605,0.63659 0.16563,0.10248 0.34918,0.17265 0.53799,0.21869 v 0 c 0.58582,0.14291 1.17658,-0.21615 1.31949,-0.80197 0.11402,-0.46747 -0.0914,-0.95451 -0.50585,-1.19906 l 4e-5,0.001 c -0.3894,-0.48286 -1.09647,-0.55863 -1.57932,-0.16924 -0.39098,0.31528 -0.52507,0.85185 -0.3284,1.31403 z m -3e-5,-7e-5 v 0 c 0.24285,0.57076 0.9024,0.83662 1.47316,0.59376 0.57076,-0.24281 0.83662,-0.90237 0.5938,-1.47313 -0.0617,-0.14495 -0.13233,-0.28853 -0.22546,-0.41617 v 0 c -0.16055,-0.21999 -0.4063,-0.36227 -0.67705,-0.39183 -0.38672,-0.0423 -0.77259,0.13631 -1.00976,0.44097 -0.27411,0.35211 -0.32858,0.83767 -0.15469,1.2464 z m 2.02586,-0.75367 c 0.084,-0.28 0.20821,-0.54949 0.32889,-0.81506 v 0 c 0.0429,-0.0943 0.001,-0.20542 -0.0931,-0.24828 -0.0322,-0.0146 -0.068,-0.0199 -0.10316,-0.015 -0.27798,0.0382 -0.55608,0.0762 -0.8347,0.11003 -0.0747,0.009 -0.14933,0.018 -0.22419,0.0253 -0.16726,0.0163 0.23029,-0.0161 -0.10344,0.006 v 0 c -0.53365,0.0349 -0.93803,0.49569 -0.90322,1.02937 0.0348,0.53368 0.49569,0.93807 1.02934,0.90321 0.52042,-0.0339 0.92043,-0.47392 0.90487,-0.99522 l -0.001,4e-5 z" />
    <path
       inkscape:connector-curvature="0"
       id="path7895"
       style="fill:#00000f;fill-opacity:0.94117647;fill-rule:nonzero;stroke:none;stroke-width:0.35277778"
       d="m 137.0949,149.57789 c -0.0728,-0.10202 -0.16877,-0.19921 -0.29905,-0.21696 v 0 c -0.0302,-0.004 -0.0608,-0.004 -0.0908,0.002 l -0.0562,0.0154 c -0.0272,0.0106 -0.0526,0.0251 -0.0755,0.0431 -0.0944,0.0745 -0.13229,0.19139 -0.15384,0.30509 v 0 c -0.0387,0.20397 0.0953,0.40065 0.29933,0.43928 0.20398,0.0387 0.40065,-0.0954 0.43931,-0.29934 0.019,-0.10068 -0.004,-0.20482 -0.0633,-0.28825 z m 0.47022,2.82974 v 0 c 0.15543,0.28811 0.51502,0.39564 0.8031,0.24017 0.28811,-0.15543 0.39564,-0.51502 0.24017,-0.8031 -0.009,-0.0159 -0.0179,-0.0315 -0.0279,-0.0466 -0.34488,-0.51898 -0.68982,-1.03788 -1.03629,-1.55575 -0.14855,-0.22211 -0.29407,-0.44694 -0.44926,-0.6645 v 0 c -0.12054,-0.16901 -0.35528,-0.20828 -0.5243,-0.0877 -0.0789,0.0563 -0.13296,0.14083 -0.15102,0.23601 -0.0299,0.15748 0.0205,0.3218 0.0713,0.46961 0.0603,0.17565 0.13477,0.3465 0.2116,0.51545 0.26261,0.57735 0.56159,1.13845 0.86265,1.6964 z m 0,0 c 0.52045,0.96463 1.04277,1.92835 1.55384,2.898 v 0 c 0.18627,0.35334 0.62371,0.48881 0.97706,0.30258 0.35337,-0.18627 0.48884,-0.62372 0.30257,-0.97706 -0.005,-0.01 -0.0104,-0.0192 -0.0159,-0.0286 -0.21868,-0.37295 -0.45183,-0.73762 -0.68559,-1.10126 -0.3671,-0.57101 -0.74093,-1.13778 -1.11664,-1.70314 v 0 c -0.18119,-0.27267 -0.5491,-0.34682 -0.82173,-0.16563 -0.25513,0.16951 -0.33905,0.50553 -0.1936,0.77512 z m 1.55384,2.89796 c 0.38954,0.73914 0.76888,1.48372 1.14755,2.22846 v 0 c 0.19251,0.37871 0.65561,0.52959 1.03428,0.33708 0.37867,-0.19254 0.52959,-0.6556 0.33704,-1.03427 -0.004,-0.007 -0.007,-0.0144 -0.0114,-0.0215 -0.40714,-0.74161 -0.8158,-1.48291 -1.24379,-2.21277 v 0 c -0.20207,-0.34459 -0.64516,-0.46013 -0.98975,-0.25805 -0.33359,0.19561 -0.45427,0.61901 -0.27397,0.9611 z m 1.14755,2.22846 c 0.40185,0.79037 0.80398,1.58059 1.20788,2.36993 v 0 c 0.20009,0.39113 0.67934,0.54596 1.07047,0.34583 0.39109,-0.2001 0.54592,-0.67938 0.34583,-1.07047 -1.1e-4,-2.1e-4 -2.2e-4,-2.6e-4 -3.2e-4,-7.9e-4 -0.4076,-0.79498 -0.83404,-1.5803 -1.2639,-2.36343 v 0 c -0.20443,-0.37239 -0.67204,-0.50856 -1.04443,-0.30413 -0.3641,0.19985 -0.50377,0.65267 -0.31553,1.02288 z m 1.20788,2.36993 c 0.30177,0.58985 0.61203,1.17539 0.93348,1.75472 v 0 c 0.21326,0.38438 0.69773,0.5231 1.08208,0.30984 0.38439,-0.21329 0.5231,-0.69776 0.30981,-1.08211 0,0 0,0 0,0 -0.31291,-0.56398 -0.61514,-1.13379 -0.90939,-1.70769 v 0 c -0.20045,-0.39091 -0.67984,-0.54536 -1.07079,-0.34491 -0.39066,0.20034 -0.54518,0.67931 -0.34519,1.07015 z m 0.93348,1.75472 c 0.28971,0.52218 0.59648,1.03536 0.92894,1.53155 v 0 c 0.24066,0.35919 0.72693,0.45526 1.0861,0.21459 0.35083,-0.23505 0.45197,-0.70605 0.22856,-1.06444 -0.29714,-0.4767 -0.57919,-0.9628 -0.85168,-1.45393 v 0 c -0.21325,-0.38439 -0.69772,-0.5231 -1.08207,-0.30985 -0.38439,0.21322 -0.5231,0.69769 -0.30985,1.08208 0,0 0,0 0,0 z m 0.92894,1.53155 c 0.28797,0.42982 0.58363,0.85449 0.88896,1.27218 v 0 c 0.24825,0.33959 0.72475,0.4136 1.06433,0.16539 0.33419,-0.24434 0.41205,-0.71085 0.17526,-1.05044 -0.28232,-0.40495 -0.55276,-0.81809 -0.81389,-1.23698 v 0 c -0.22871,-0.36688 -0.71155,-0.47893 -1.07844,-0.25022 -0.36689,0.22871 -0.47893,0.71155 -0.25019,1.07844 0.005,0.007 0.009,0.0145 0.014,0.0216 z m 0.889,1.27222 c 0.26561,0.36332 0.53612,0.72305 0.8153,1.07611 v 0 c 0.25492,0.32237 0.72292,0.37702 1.04525,0.1221 0.31524,-0.24931 0.37557,-0.70386 0.13628,-1.02676 -0.25802,-0.34816 -0.50945,-0.70108 -0.75728,-1.05654 v 0 c -0.24056,-0.34505 -0.71529,-0.42971 -1.06034,-0.18915 -0.34502,0.24055 -0.42972,0.71529 -0.18916,1.06034 0.003,0.005 0.007,0.009 0.01,0.0139 z m 0.8153,1.07611 c 0.23922,0.30251 0.48694,0.59856 0.74701,0.88346 v 0 c 0.27012,0.29588 0.72895,0.31673 1.02482,0.0466 0.28818,-0.26307 0.31658,-0.70701 0.0643,-1.00468 -0.22782,-0.26889 -0.44478,-0.54695 -0.65461,-0.83005 v 0 c -0.24473,-0.3302 -0.71074,-0.39949 -1.04094,-0.15476 -0.33017,0.24468 -0.39945,0.71074 -0.15477,1.0409 0.005,0.006 0.009,0.0124 0.0142,0.0185 z m 0.74701,0.88343 c 0.22042,0.24144 0.44891,0.47614 0.69144,0.69554 v 0 c 0.28897,0.26133 0.73505,0.239 0.99643,-0.05 0.25177,-0.27834 0.24154,-0.7051 -0.0233,-0.97102 -0.20119,-0.20203 -0.39116,-0.41511 -0.57541,-0.6326 v 0 c -0.25901,-0.30565 -0.71674,-0.34346 -1.02239,-0.0845 -0.30565,0.25901 -0.34346,0.71674 -0.0845,1.02239 0.006,0.007 0.0117,0.0135 0.0177,0.0201 z m 0.69144,0.6955 c 0.23189,0.20976 0.46938,0.41317 0.70958,0.6133 v 0 c 0.31048,0.25866 0.77188,0.21668 1.03057,-0.0938 0.25866,-0.31048 0.21664,-0.77188 -0.0938,-1.03054 -0.0272,-0.0226 -0.0559,-0.0433 -0.0862,-0.0618 -0.20972,-0.12852 -0.41303,-0.27337 -0.58702,-0.4481 v 0 c -0.27492,-0.27608 -0.7216,-0.27704 -0.99769,-0.002 -0.27605,0.27492 -0.277,0.72161 -0.002,0.9977 0.009,0.009 0.0175,0.0171 0.0266,0.0254 h 4e-5 z m 0.70958,0.6133 c 0.15364,0.12799 0.31782,0.25863 0.44567,0.41374 v 0 c 0.31584,0.38319 0.88254,0.4378 1.26573,0.12192 0.38318,-0.31584 0.43776,-0.88251 0.12192,-1.26569 -0.16351,-0.19841 -0.40418,-0.31733 -0.66111,-0.32668 -0.0422,-0.001 -0.0539,10e-4 -0.088,-0.0109 -0.0218,-0.008 -0.0431,-0.017 -0.0642,-0.0266 -0.0584,-0.0268 -0.11465,-0.0583 -0.16944,-0.0919 l -4e-5,4e-5 c -0.34459,-0.2111 -0.79509,-0.10287 -1.00619,0.24172 -0.18976,0.30978 -0.12351,0.71187 0.15561,0.94442 z m 0.44567,0.41374 c 0.13645,0.16553 0.3242,0.28677 0.53244,0.33962 0.1862,0.0473 0.38503,0.0388 0.56597,-0.0269 0.25724,-0.0934 0.46559,-0.29866 0.5564,-0.56102 v 0 c 0.0673,-0.19441 0.0658,-0.40605 -0.004,-0.59947 -0.10527,-0.29052 -0.35363,-0.50349 -0.64633,-0.58501 -0.12661,-0.0353 -0.25971,-0.0464 -0.39056,-0.0347 v 0 c -0.49463,0.0443 -0.85968,0.48112 -0.81537,0.97575 0.0162,0.18048 0.0865,0.35186 0.20172,0.4917 z" />
    <path
       inkscape:connector-curvature="0"
       id="path7897"
       style="fill:#00000f;fill-opacity:0.94117647;fill-rule:nonzero;stroke:none;stroke-width:0.35277778"
       d="m 143.78646,128.67944 v 0 c 0.008,0.0256 0.0207,0.0492 0.0386,0.0691 0.0503,0.056 0.13007,0.0828 0.19971,0.10523 0.0812,0.0262 0.1644,0.0461 0.24772,0.0641 v 0 c 0.18076,0.0392 0.35902,-0.0756 0.39815,-0.2564 0.0392,-0.18076 -0.0756,-0.35902 -0.2564,-0.39818 -0.0318,-0.007 -0.0643,-0.009 -0.0967,-0.007 -0.12178,0.009 -0.24645,0.0355 -0.35306,0.0974 -0.10968,0.0637 -0.21826,0.18902 -0.17801,0.3254 z m 0.48602,0.23841 c 0.1851,0.0401 0.37201,0.0727 0.56032,0.0935 v 0 c 0.22119,0.0244 0.42023,-0.13519 0.4446,-0.35634 0.0244,-0.2212 -0.13518,-0.42023 -0.35637,-0.44461 -0.0286,-0.003 -0.0575,-0.003 -0.0861,-2.1e-4 -0.17223,0.018 -0.34473,0.0332 -0.51738,0.0465 v 0 c -0.1844,0.0143 -0.32234,0.1753 -0.30808,0.3597 0.0114,0.14756 0.11832,0.27015 0.26299,0.30148 z m 0.56032,0.0935 c 0.1953,0.0215 0.39148,0.0346 0.58769,0.044 v 0 c 0.25037,0.0119 0.46299,-0.1814 0.47487,-0.43176 0.0119,-0.25037 -0.18143,-0.46299 -0.4318,-0.47488 -0.0234,-0.001 -0.0468,-3.5e-4 -0.0701,0.002 -0.18613,0.02 -0.37232,0.0399 -0.55852,0.0594 v 0 c -0.2213,0.0232 -0.38192,0.22137 -0.35874,0.44266 0.0198,0.18849 0.1682,0.33775 0.35659,0.3585 z m 0.58769,0.044 c 0.29729,0.0141 0.59563,0.008 0.89302,-3.5e-4 v 0 c 0.27408,-0.008 0.48969,-0.23685 0.48158,-0.51093 -0.008,-0.27407 -0.23686,-0.48969 -0.51093,-0.48157 -0.011,3.1e-4 -0.022,0.001 -0.033,0.002 -0.286,0.0276 -0.572,0.0556 -0.85768,0.0863 v 4e-5 c -0.24923,0.0268 -0.4295,0.25054 -0.40269,0.49974 0.0239,0.22239 0.20627,0.39416 0.42968,0.40478 z m 0.89302,-3.5e-4 c 0.30717,-0.009 0.61433,-0.0172 0.92163,-0.0225 v 0 c 0.28671,-0.005 0.5151,-0.24147 0.51012,-0.52818 -0.005,-0.2867 -0.24144,-0.51512 -0.52818,-0.51011 -0.004,7e-5 -0.009,1.7e-4 -0.0128,3.5e-4 -0.31828,0.0134 -0.63606,0.0394 -0.95314,0.07 v 0 c -0.27291,0.0263 -0.47283,0.26896 -0.44647,0.54187 0.0251,0.26017 0.24758,0.45632 0.50884,0.44859 z m 0.9216,-0.0225 c 0.54289,-0.009 1.08606,-0.007 1.62902,-0.008 v 0 c 0.28942,-3.2e-4 0.52381,-0.2352 0.52352,-0.52462 -3.2e-4,-0.28941 -0.23519,-0.5238 -0.52461,-0.52348 -0.55249,7e-4 -1.10656,-0.005 -1.65873,0.0181 v 0 c -0.28652,0.0121 -0.50902,0.25407 -0.49696,0.5406 0.0118,0.28151 0.24603,0.50221 0.52776,0.49734 z m 1.62902,-0.008 c 0.35027,-3.5e-4 0.70069,-0.003 1.05082,-0.0132 0.21844,-0.007 0.43829,-0.0134 0.65546,-0.0396 v 0 c 0.26335,-0.0317 0.4511,-0.27093 0.41938,-0.53428 -0.0269,-0.22359 -0.2056,-0.39846 -0.42975,-0.42054 -0.2153,-0.0212 -0.4324,-0.0264 -0.64862,-0.0314 -0.34935,-0.008 -0.69892,-0.009 -1.04838,-0.009 v 0 c -0.28942,2.8e-4 -0.52381,0.23516 -0.52352,0.52458 3.1e-4,0.28942 0.23516,0.5238 0.52458,0.52352 3e-5,0 3e-5,0 3e-5,0 z m 1.70628,-0.0528 c 0.24846,-0.0299 0.49657,-0.063 0.74394,-0.10103 v 0 c 0.22514,-0.0347 0.37959,-0.24532 0.34491,-0.47047 -0.0312,-0.20277 -0.20676,-0.35179 -0.41194,-0.34967 -0.22948,0.002 -0.45896,-0.0111 -0.68728,-0.0336 v 0 c -0.26398,-0.026 -0.49908,0.1669 -0.52507,0.43088 -0.026,0.26398 0.16693,0.49907 0.43091,0.52507 0.0348,0.004 0.0698,0.003 0.10453,-0.001 z m 0.74397,-0.10103 c 0.25697,-0.0396 0.51626,-0.0642 0.77545,-0.0841 v 0 c 0.20376,-0.0157 0.35627,-0.19353 0.3406,-0.3973 -0.0148,-0.19265 -0.17533,-0.34149 -0.36854,-0.3417 -0.27154,-2.8e-4 -0.54307,1.8e-4 -0.81457,0.003 v 0 c -0.22779,0.002 -0.41056,0.18891 -0.4082,0.4167 0.002,0.22779 0.18891,0.41056 0.4167,0.4082 0.0196,-1.8e-4 0.0392,-0.002 0.0586,-0.005 z m 0.77541,-0.0841 c 0.22821,-0.0175 0.45664,-0.0345 0.68428,-0.0582 v 0 c 0.17897,-0.0187 0.3089,-0.17893 0.29023,-0.3579 -0.0154,-0.14781 -0.12897,-0.26645 -0.27597,-0.28839 -0.23919,-0.0357 -0.48522,-0.0342 -0.72644,-0.0345 v 0 c -0.20437,-2.1e-4 -0.37021,0.16528 -0.37046,0.36964 -2.1e-4,0.20437 0.16528,0.37021 0.36964,0.37045 0.01,0 0.0192,-3.5e-4 0.0287,-0.001 z m 0.62763,-0.0576 h -4e-5 c 0.12732,0.18309 0.37892,0.22832 0.56201,0.101 0.18309,-0.12728 0.22828,-0.37892 0.101,-0.56198 -0.0876,-0.12597 -0.23897,-0.19141 -0.3907,-0.16891 0.009,-10e-4 -0.006,4e-5 -0.009,7e-5 -0.0146,2.9e-4 -0.0291,-1.7e-4 -0.0437,-0.001 -0.0499,-0.002 -0.0997,-0.009 -0.14908,-0.0161 v 0 c -0.17798,-0.0266 -0.34378,0.0962 -0.37035,0.27415 -0.0266,0.17794 0.0962,0.34374 0.27415,0.37031 0.008,0.001 0.017,0.002 0.0255,0.003 l -3e-4,-3.5e-4 z m -0.0723,-0.23315 c -0.002,0.30638 0.23933,0.56112 0.53541,0.61224 v 0 c 0.29133,0.0503 0.56826,-0.14513 0.61853,-0.43645 0.0503,-0.29133 -0.14517,-0.56826 -0.43649,-0.61853 -0.0826,-0.0143 -0.16736,-0.009 -0.24751,0.0156 -0.0411,0.0126 -0.0828,0.0241 -0.12538,0.0304 v 0 c -0.19696,0.0292 -0.34322,0.19763 -0.34456,0.39674 z m 0.53548,0.61224 c 0.321,0.0553 0.62463,-0.14005 0.87214,-0.31997 v 0 c 0.25153,-0.18284 0.3072,-0.53495 0.12436,-0.78648 -0.18281,-0.2515 -0.53492,-0.30716 -0.78645,-0.12435 0,0 0,0 0,0 -0.0672,0.0489 -0.13508,0.0971 -0.20472,0.14252 -0.05,0.0326 -0.0974,0.0543 -0.15085,0.0806 v 0 c -0.26522,0.1306 -0.37433,0.45149 -0.24373,0.71671 0.0757,0.1537 0.22038,0.2619 0.38925,0.291 z m 0.87214,-0.32 c 0.15427,-0.11215 0.28819,-0.25767 0.37335,-0.42933 0.0784,-0.15812 0.13197,-0.37621 0.0342,-0.53827 v 0 c -0.0107,-0.0178 -0.0233,-0.0343 -0.0374,-0.0494 -0.13346,-0.14231 -0.36679,-0.14707 -0.54483,-0.11264 -0.17636,0.0341 -0.34262,0.11359 -0.4874,0.21883 v 0 c -0.25153,0.18284 -0.3072,0.53495 -0.12436,0.78648 0.18285,0.25149 0.53496,0.30716 0.78645,0.12432 0,0 0,0 0,0 z" />
    <path
       inkscape:connector-curvature="0"
       id="path7899"
       style="fill:#00000f;fill-opacity:0.94117647;fill-rule:nonzero;stroke:none;stroke-width:0.35277778"
       d="m 149.41072,168.03367 c 0.0403,-0.10396 0.10524,-0.19681 0.17816,-0.28045 h -4e-5 c 0.0803,-0.0922 0.0707,-0.23196 -0.0215,-0.31225 -0.0921,-0.0803 -0.23195,-0.0707 -0.31228,0.0215 -0.005,0.006 -0.01,0.0122 -0.0145,0.0186 -0.10033,0.14358 -0.16778,0.31337 -0.167,0.49032 v 0 c 3.4e-4,0.0964 0.0789,0.17413 0.17522,0.17375 0.0718,-2.6e-4 0.136,-0.0445 0.16192,-0.11145 z m 0.17816,-0.28045 c 0.17568,-0.20162 0.33715,-0.41621 0.49957,-0.62848 v 0 c 0.0846,-0.11059 0.0635,-0.26881 -0.047,-0.35345 -0.11059,-0.0846 -0.26885,-0.0635 -0.35345,0.0471 -0.004,0.004 -0.007,0.009 -0.01,0.0137 -0.14443,0.21727 -0.28819,0.43515 -0.43766,0.64904 v 0 c -0.07,0.10019 -0.0455,0.23816 0.0546,0.30818 0.0927,0.0648 0.21932,0.0493 0.29361,-0.036 z m 0.49957,-0.62848 c 0.24426,-0.31926 0.4791,-0.64569 0.707,-0.97677 v 0 c 0.0877,-0.12739 0.0555,-0.30177 -0.0719,-0.38947 -0.12739,-0.0877 -0.30177,-0.0555 -0.38947,0.0719 -0.001,0.002 -0.003,0.005 -0.005,0.007 -0.21505,0.33292 -0.43191,0.6647 -0.65133,0.99476 v 0 c -0.0771,0.11596 -0.0455,0.27245 0.0704,0.34953 0.11053,0.0735 0.25912,0.0487 0.3398,-0.0568 z m 0.707,-0.97677 c 0.19244,-0.27954 0.38643,-0.5582 0.58847,-0.83086 v 0 c 0.0992,-0.13385 0.0711,-0.32269 -0.0628,-0.42185 -0.13385,-0.0991 -0.32269,-0.0711 -0.42185,0.0628 -0.004,0.005 -0.007,0.0101 -0.0106,0.0153 -0.18676,0.28773 -0.37299,0.57574 -0.55912,0.86385 v 0 c -0.0839,0.12993 -0.0466,0.30328 0.0833,0.38717 0.12721,0.0822 0.29672,0.0483 0.38259,-0.0764 z m 0.58847,-0.83086 c 0.25932,-0.34999 0.52835,-0.693 0.79632,-1.03636 h 4e-5 c 0.11924,-0.15282 0.092,-0.37334 -0.0607,-0.49262 -0.15282,-0.11927 -0.37338,-0.0921 -0.49262,0.0608 -0.006,0.007 -0.0114,0.0151 -0.0165,0.023 -0.24126,0.36671 -0.4827,0.73328 -0.72167,1.10148 v -4e-5 c -0.0907,0.1397 -0.0509,0.32646 0.0887,0.41716 0.13363,0.0867 0.31168,0.0546 0.40651,-0.0734 z m 0.79632,-1.03636 c 0.29979,-0.38407 0.60103,-0.76722 0.91154,-1.14271 v 0 c 0.14464,-0.17488 0.12013,-0.43392 -0.0548,-0.57856 -0.17491,-0.14464 -0.43395,-0.12012 -0.57859,0.0548 -0.007,0.009 -0.014,0.0177 -0.0205,0.0269 -0.28265,0.40559 -0.55591,0.81774 -0.82759,1.23074 v 0 c -0.10653,0.16192 -0.0616,0.37959 0.10033,0.48613 0.15276,0.10047 0.35709,0.0668 0.46959,-0.0773 z m 0.91154,-1.14271 c 0.22959,-0.27761 0.46451,-0.5509 0.70485,-0.81926 v -4e-5 c 0.17399,-0.19427 0.15756,-0.49283 -0.0367,-0.66682 -0.19427,-0.17402 -0.49283,-0.15758 -0.66686,0.0367 -0.0149,0.0166 -0.0285,0.0342 -0.0409,0.0527 -0.20176,0.30195 -0.40658,0.60191 -0.61422,0.89983 v 0 c -0.12976,0.18623 -0.084,0.44235 0.1022,0.57214 0.17543,0.12227 0.41536,0.0895 0.55163,-0.0753 z m 0.70485,-0.8193 c 0.24074,-0.26881 0.47752,-0.54123 0.70965,-0.81752 v 0 c 0.18701,-0.22254 0.15819,-0.55453 -0.0644,-0.74154 -0.22253,-0.18697 -0.55453,-0.15815 -0.74154,0.0644 -0.007,0.008 -0.0132,0.0162 -0.0195,0.0246 -0.2171,0.29217 -0.42651,0.59002 -0.62872,0.89271 v 0 c -0.14489,0.21685 -0.0865,0.51011 0.13035,0.655 0.19551,0.1306 0.4573,0.0975 0.61415,-0.0777 z m 0.70965,-0.81752 c 0.46951,-0.5588 0.93451,-1.12134 1.40053,-1.68303 v 0 c 0.19883,-0.23965 0.1657,-0.59507 -0.0739,-0.7939 -0.23964,-0.19879 -0.59507,-0.1657 -0.79386,0.0739 -0.003,0.004 -0.006,0.008 -0.009,0.0115 -0.45321,0.57648 -0.91133,1.1503 -1.34878,1.73891 h -3e-5 c -0.17339,0.2333 -0.12481,0.563 0.10848,0.73639 0.22352,0.16613 0.53777,0.12937 0.71691,-0.0838 z m 1.40053,-1.68303 c 0.47135,-0.56819 0.94731,-1.13376 1.40342,-1.71436 v 0 c 0.1995,-0.25397 0.15533,-0.62156 -0.0986,-0.82106 -0.25333,-0.199 -0.6199,-0.15561 -0.81978,0.0971 -0.45537,0.57559 -0.90851,1.15295 -1.36211,1.72995 v 0 c -0.19244,0.24479 -0.15004,0.59923 0.0948,0.79167 0.24025,0.18888 0.58724,0.15194 0.78236,-0.0832 z m 1.40342,-1.71436 c 0.27778,-0.35363 0.56014,-0.70369 0.84353,-1.0529 v 0 c 0.20196,-0.24889 0.16393,-0.6144 -0.085,-0.8164 -0.24744,-0.2008 -0.61052,-0.16454 -0.81337,0.0812 -0.29079,0.35232 -0.58024,0.7058 -0.86367,1.06408 v 0 c -0.20034,0.25329 -0.15744,0.62103 0.0958,0.82137 0.25326,0.20038 0.62103,0.15745 0.82138,-0.0958 3.4e-4,-2.6e-4 6.8e-4,-0.001 0.001,-0.001 z m 0.84353,-1.0529 c 0.24945,-0.30738 0.50137,-0.61433 0.73483,-0.93423 v 0 c 0.18341,-0.25128 0.12838,-0.60367 -0.1229,-0.78705 -0.23704,-0.173 -0.56717,-0.13504 -0.75876,0.0872 -0.25492,0.29577 -0.50288,0.59772 -0.75145,0.89885 v 0 c -0.20408,0.24719 -0.16909,0.61302 0.0781,0.81707 0.2472,0.20408 0.61303,0.16908 0.81711,-0.0781 0.001,-10e-4 0.002,-0.002 0.003,-0.004 z m 0.73483,-0.93423 c 0.17763,-0.24338 0.34604,-0.49347 0.51245,-0.74457 v 0 c 0.16489,-0.24878 0.0969,-0.5841 -0.15191,-0.74895 -0.24278,-0.16094 -0.56945,-0.10044 -0.73854,0.13674 -0.16005,0.2245 -0.32357,0.44799 -0.50369,0.65697 v 0 c -0.2031,0.23566 -0.17668,0.59133 0.059,0.79442 0.23566,0.2031 0.59133,0.17671 0.79442,-0.0589 0.01,-0.0115 0.0193,-0.0234 0.0283,-0.0357 z m 0.51245,-0.74457 c 0.15631,-0.23584 0.31429,-0.47392 0.44411,-0.72574 v 0 c 0.12989,-0.25206 0.0309,-0.56173 -0.22116,-0.69165 -0.22747,-0.11723 -0.50655,-0.0491 -0.6544,0.1598 -0.15247,0.21548 -0.30575,0.43043 -0.459,0.64538 v 0 c -0.17325,0.24299 -0.1167,0.58046 0.12633,0.75371 0.243,0.17325 0.58046,0.11669 0.75371,-0.12633 0.004,-0.005 0.007,-0.0101 0.0104,-0.0152 z m 0.44411,-0.72577 c 0.11568,-0.2244 0.26652,-0.43318 0.41056,-0.63973 v 0 c 0.15942,-0.2286 0.10333,-0.54314 -0.12527,-0.70256 -0.2286,-0.15938 -0.54313,-0.10333 -0.70256,0.12527 -0.003,0.004 -0.006,0.009 -0.009,0.0129 -0.14729,0.2257 -0.29394,0.45226 -0.44962,0.67232 v 0 c -0.16379,0.23149 -0.10894,0.55192 0.12255,0.71572 0.2315,0.16379 0.55196,0.1089 0.71576,-0.12259 0.0138,-0.0195 0.0263,-0.04 0.0372,-0.0613 z m 0.41056,-0.63973 c 0.16997,-0.24373 0.34072,-0.48719 0.51767,-0.72595 v 0 c 0.17074,-0.2304 0.12241,-0.55559 -0.10799,-0.72633 -0.2304,-0.17078 -0.55559,-0.12241 -0.72637,0.10795 -0.004,0.005 -0.007,0.01 -0.0105,0.0147 -0.17378,0.25238 -0.34195,0.50864 -0.50938,0.76525 h 4e-5 c -0.1523,0.23339 -0.0865,0.54606 0.14686,0.69835 0.22832,0.14898 0.53372,0.0897 0.68964,-0.13398 z m 0.51767,-0.72595 c 0.13042,-0.17593 0.26465,-0.34907 0.4021,-0.5196 v 0 c 0.18475,-0.22913 0.14873,-0.56466 -0.0804,-0.74941 -0.22916,-0.18471 -0.56469,-0.14873 -0.7494,0.0804 -0.005,0.006 -0.0101,0.0128 -0.0149,0.0193 -0.13684,0.18655 -0.27107,0.37504 -0.40227,0.56561 v 0 c -0.16263,0.23622 -0.10297,0.55954 0.13325,0.72213 0.2304,0.15865 0.54504,0.10626 0.71162,-0.1185 z m 0.4021,-0.5196 c 0.15469,-0.19191 0.30469,-0.38763 0.45053,-0.58632 v 0 c 0.17998,-0.24522 0.1271,-0.58991 -0.11808,-0.76987 -0.24521,-0.17998 -0.58988,-0.12714 -0.76986,0.11808 -0.006,0.008 -0.0114,0.016 -0.0168,0.0242 -0.12534,0.19138 -0.25523,0.37976 -0.39052,0.56427 v 0 c -0.17406,0.23738 -0.12273,0.5709 0.11465,0.74496 0.22973,0.16845 0.55129,0.12647 0.73008,-0.0953 z m 0.45053,-0.58632 c 0.17713,-0.2413 0.34498,-0.48934 0.50905,-0.73967 v 0 c 0.16941,-0.25851 0.0971,-0.6054 -0.16135,-0.77484 -0.25781,-0.16894 -0.60368,-0.0976 -0.77361,0.15953 -0.16006,0.24221 -0.31979,0.4845 -0.47883,0.72739 v 0 c -0.16661,0.25446 -0.0954,0.59584 0.15907,0.76246 0.2449,0.16034 0.57245,0.1011 0.74567,-0.13487 z m 0.50905,-0.73967 c 0.14165,-0.21618 0.28371,-0.43219 0.42951,-0.64558 v 0 c 0.18151,-0.26561 0.11328,-0.62805 -0.15233,-0.80952 -0.2656,-0.18147 -0.62806,-0.11328 -0.80952,0.15233 -0.0182,0.0266 -0.0341,0.0547 -0.0477,0.0839 -0.0979,0.21146 -0.22684,0.40961 -0.35501,0.60354 v 3e-5 c -0.17039,0.25785 -0.0995,0.60502 0.15837,0.77544 0.25784,0.17039 0.60501,0.0995 0.77545,-0.15836 2.6e-4,-6.9e-4 7.9e-4,-0.001 0.001,-0.002 z m 0.42955,-0.64558 c 0.0497,-0.0729 0.089,-0.15318 0.11186,-0.23851 0.0557,-0.20818 0.006,-0.43794 -0.15204,-0.59179 h -4e-5 c -0.12581,-0.12259 -0.3018,-0.17914 -0.47547,-0.15279 -0.23218,0.0353 -0.3995,0.20599 -0.49386,0.40986 v 0 c -0.13511,0.29192 -0.008,0.63814 0.28395,0.77325 0.25827,0.11952 0.56508,0.0349 0.7256,-0.20002 z" />
    <path
       inkscape:connector-curvature="0"
       id="path7901"
       style="fill:#00000f;fill-opacity:0.94117647;fill-rule:nonzero;stroke:none;stroke-width:0.35277778"
       d="m 154.38288,128.79653 c -0.0619,-0.17639 -0.1506,-0.39522 -0.34653,-0.45572 v 0 c -0.0858,-0.0265 -0.17893,-0.015 -0.2557,0.0317 -0.17321,0.10512 -0.2081,0.33598 -0.22796,0.5201 v 0 c -0.0254,0.23526 0.14474,0.44654 0.38001,0.47194 0.23527,0.0254 0.44655,-0.14474 0.47195,-0.38001 0.007,-0.0635 -7.2e-4,-0.1277 -0.0217,-0.18796 z m -0.88011,0.83947 v 0 c 0.002,0.29799 0.24448,0.53827 0.54247,0.53668 0.29799,-0.002 0.53827,-0.24447 0.53668,-0.54246 -1.1e-4,-0.0145 -7.2e-4,-0.029 -0.002,-0.0434 -0.0233,-0.27041 -0.10753,-0.53552 -0.19703,-0.79026 h 4e-5 c -0.0784,-0.22327 -0.32299,-0.34068 -0.54623,-0.26225 -0.15579,0.0547 -0.26628,0.19409 -0.28399,0.35824 -0.0266,0.24656 -0.0513,0.4952 -0.0499,0.74348 z m 1.11146,0.53241 c -0.007,-0.19406 -0.0176,-0.38809 -0.0343,-0.58162 v 0 c -0.0256,-0.2969 -0.28699,-0.51686 -0.58389,-0.49128 -0.2801,0.0241 -0.49477,0.25933 -0.49325,0.54049 0.001,0.17879 -0.003,0.35754 -0.009,0.53626 v 0 c -0.01,0.30931 0.233,0.56801 0.54233,0.57781 0.3093,0.01 0.56801,-0.23301 0.57781,-0.54232 3.7e-4,-0.0131 3.7e-4,-0.0262 -1.5e-4,-0.0393 z m -0.0121,0.74588 c 0.0159,-0.24821 0.0217,-0.49727 0.0121,-0.74584 v 0 c -0.0119,-0.30925 -0.27224,-0.5503 -0.58148,-0.53838 -0.29401,0.0113 -0.5292,0.24808 -0.53852,0.54215 -0.007,0.214 -0.0242,0.42757 -0.048,0.64029 v 0 c -0.0357,0.31853 0.19353,0.60572 0.51206,0.64143 0.31852,0.0357 0.60568,-0.19354 0.64142,-0.51206 0.001,-0.009 0.002,-0.0184 0.002,-0.0276 z m -0.0661,0.80402 c 0.0263,-0.26766 0.0489,-0.53566 0.0661,-0.80402 v 0 c 0.0205,-0.31986 -0.22221,-0.59577 -0.54211,-0.61627 -0.30911,-0.0198 -0.5793,0.2067 -0.6138,0.51453 -0.0283,0.25273 -0.0627,0.50479 -0.10118,0.75618 v 0 c -0.0502,0.32776 0.17488,0.63415 0.50264,0.68432 0.3278,0.0502 0.63419,-0.17487 0.68436,-0.50264 0.002,-0.0106 0.003,-0.0214 0.004,-0.0321 z m -0.19654,1.64288 c 0.0695,-0.54694 0.1426,-1.09414 0.19654,-1.64288 h 3e-5 c 0.0324,-0.33003 -0.20881,-0.62386 -0.53883,-0.65628 -0.3175,-0.0312 -0.60396,0.19135 -0.65222,0.5067 -0.0824,0.53862 -0.16781,1.07678 -0.25262,1.61502 v 0 c -0.0541,0.34364 0.18052,0.66611 0.52416,0.72026 0.34367,0.0541 0.66615,-0.18055 0.7203,-0.52419 0.001,-0.006 0.002,-0.0124 0.002,-0.0186 z m -0.18499,1.57554 c 0.0457,-0.52652 0.11839,-1.05142 0.18499,-1.57554 v 0 c 0.0439,-0.34512 -0.20037,-0.66043 -0.54546,-0.70428 -0.33786,-0.0429 -0.64865,0.19043 -0.70164,0.52684 -0.0846,0.53689 -0.17343,1.07389 -0.24229,1.61311 v 0 c -0.0459,0.35944 0.20821,0.68802 0.56762,0.73395 0.35945,0.0459 0.68802,-0.20824 0.73396,-0.56765 0.001,-0.009 0.002,-0.0176 0.003,-0.0264 z m -0.0519,0.73914 c 0.013,-0.24666 0.0305,-0.49307 0.0519,-0.73917 v 0 c 0.0313,-0.36096 -0.23594,-0.67899 -0.5969,-0.71032 -0.3507,-0.0304 -0.66291,0.22133 -0.7075,0.57051 -0.0325,0.25443 -0.064,0.50896 -0.0942,0.76366 v 0 c -0.044,0.37084 0.22091,0.70714 0.59175,0.75113 0.37084,0.044 0.70714,-0.2209 0.75117,-0.59174 0.002,-0.0146 0.003,-0.0294 0.004,-0.0441 z m -0.0331,1.00722 c 0.007,-0.33581 0.0153,-0.6718 0.0331,-1.00722 v 0 c 0.0197,-0.37292 -0.2667,-0.69119 -0.63962,-0.71084 -0.35577,-0.0188 -0.66509,0.24172 -0.70707,0.59552 -0.0427,0.35959 -0.0581,0.7227 -0.0701,1.0844 v 0 c -0.0127,0.38206 0.28667,0.7021 0.66869,0.71484 0.38206,0.0128 0.7021,-0.28663 0.71487,-0.66866 7e-5,-0.003 1.4e-4,-0.005 2.1e-4,-0.008 z m -0.007,2.12887 c -0.003,-0.70947 -0.008,-1.41951 0.007,-2.12887 v 0 c 0.008,-0.38216 -0.29478,-0.69875 -0.67695,-0.70704 -0.37902,-0.008 -0.69416,0.28999 -0.70682,0.6689 -0.0241,0.72172 -0.0266,1.44435 -0.0307,2.16634 v 0 c -0.002,0.38862 0.31108,0.70538 0.6997,0.70757 0.38859,0.002 0.70534,-0.31108 0.70753,-0.6997 0,-0.002 0,-0.005 0,-0.007 z m 0.006,1.72801 c 0.003,-0.57594 -0.003,-1.15206 -0.006,-1.72801 v 0 c -0.002,-0.38862 -0.31831,-0.70213 -0.70689,-0.70033 -0.38577,0.002 -0.69815,0.3139 -0.70034,0.69966 -0.003,0.56826 0.001,1.13743 -0.0143,1.70551 v 0 c -0.0107,0.39408 0.30007,0.7222 0.69416,0.73289 0.39405,0.0107 0.72217,-0.30011 0.73286,-0.69416 1.4e-4,-0.005 2.1e-4,-0.0104 2.5e-4,-0.0156 z m -0.009,0.68633 c 0.004,-0.22877 0.007,-0.45759 0.009,-0.68636 v 0 c 0.002,-0.3942 -0.31578,-0.71547 -0.70997,-0.71755 -0.38817,-0.002 -0.70683,0.30646 -0.71731,0.69448 -0.005,0.17815 -0.0481,0.35828 -0.0867,0.53135 v 0 c -0.0915,0.4107 0.16719,0.81785 0.5779,0.90939 0.41066,0.0915 0.8178,-0.16718 0.90934,-0.57785 0.0113,-0.0504 0.0173,-0.10181 0.0182,-0.15346 z m -0.0355,0.86029 c 0.0204,-0.28632 0.0308,-0.57327 0.0355,-0.86029 v 0 c 0.007,-0.42072 -0.32875,-0.76729 -0.74948,-0.7741 -0.36145,-0.006 -0.67726,0.24317 -0.75593,0.59602 -0.0585,0.26254 -0.11818,0.52483 -0.17992,0.78662 v 0 c -0.10611,0.45001 0.17265,0.90086 0.62266,1.00697 0.45,0.10612 0.90082,-0.17268 1.00697,-0.62265 0.0103,-0.0436 0.017,-0.0879 0.0202,-0.13257 z m -0.0337,0.65426 c 0.006,-0.21834 0.0182,-0.43642 0.0337,-0.65426 v 0 c 0.0329,-0.46119 -0.31429,-0.8617 -0.77548,-0.89461 -0.40968,-0.0292 -0.78009,0.2431 -0.87436,0.6429 -0.0607,0.25746 -0.10893,0.51805 -0.13892,0.78094 v 0 c -0.0551,0.48317 0.29192,0.91952 0.77512,0.97462 0.48317,0.0551 0.91952,-0.29196 0.97462,-0.77512 0.003,-0.0247 0.005,-0.0496 0.005,-0.0745 z m 0.002,0.65641 c -0.006,-0.21872 -0.008,-0.43769 -0.002,-0.65641 v 0 c 0.014,-0.48613 -0.36879,-0.89151 -0.85488,-0.90544 -0.4572,-0.0131 -0.84833,0.32597 -0.90015,0.78041 -0.0295,0.25834 -0.046,0.51813 -0.0547,0.77795 v 0 c -0.0167,0.50031 0.37536,0.91941 0.87563,0.9361 0.50031,0.0167 0.91941,-0.37536 0.9361,-0.87563 6.8e-4,-0.019 6.8e-4,-0.038 1e-4,-0.057 z m -1.74872,1.05523 v 0 c 0.0657,0.49996 0.52427,0.85192 1.02419,0.7862 0.49254,-0.0647 0.84292,-0.51139 0.78853,-1.00517 -0.0306,-0.27781 -0.0557,-0.55679 -0.064,-0.83626 v 0 c -0.0148,-0.50038 -0.43236,-0.89401 -0.93271,-0.87923 -0.47826,0.0141 -0.86314,0.39755 -0.87912,0.87574 -0.0118,0.35373 0.017,0.70824 0.0631,1.05872 z m 0,0 c 0.0423,0.32152 0.09,0.64255 0.15036,0.96121 v 0 c 0.0899,0.47428 0.54719,0.78592 1.02146,0.69607 0.41865,-0.0793 0.71907,-0.44894 0.7112,-0.87496 -0.006,-0.33461 -0.0337,-0.66872 -0.0703,-1.00129 v 0 c -0.0553,-0.50119 -0.50631,-0.86272 -1.0075,-0.80751 -0.50119,0.0552 -0.86272,0.50631 -0.80751,1.0075 6.8e-4,0.006 0.001,0.0127 0.002,0.019 z m 0.15036,0.96125 c 0.0451,0.23798 0.0879,0.47643 0.12756,0.7154 v 0 c 0.0757,0.45677 0.50737,0.76574 0.96414,0.69003 0.45262,-0.075 0.76087,-0.49992 0.69173,-0.95345 -0.0318,-0.20874 -0.0469,-0.41991 -0.0508,-0.63094 h 3e-5 c -0.009,-0.48264 -0.40745,-0.8666 -0.89009,-0.85768 -0.48263,0.009 -0.86663,0.40746 -0.85771,0.8901 10e-4,0.0492 0.006,0.0982 0.0151,0.14654 z m 0.12756,0.7154 c 0.0357,0.2153 0.0759,0.43113 0.1373,0.64078 v 0 c 0.12866,0.43939 0.58914,0.69124 1.02849,0.56258 0.41779,-0.12235 0.66978,-0.54702 0.5769,-0.97236 -0.0357,-0.16341 -0.0616,-0.32915 -0.0868,-0.49442 v 0 c -0.0698,-0.45773 -0.49742,-0.7722 -0.95515,-0.70242 -0.45773,0.0698 -0.77219,0.49742 -0.70241,0.95515 6.8e-4,0.004 10e-4,0.007 0.002,0.0107 z m 0.1373,0.64078 c 0.0467,0.15935 0.10224,0.31609 0.16697,0.46895 v 0 c 0.17516,0.41367 0.65246,0.60699 1.0661,0.43184 0.38904,-0.16472 0.58719,-0.59987 0.45603,-1.00143 -0.0332,-0.10153 -0.0609,-0.20479 -0.0837,-0.30914 v 0 c -0.0976,-0.44729 -0.5394,-0.73071 -0.98669,-0.63303 -0.44728,0.0976 -0.73071,0.5394 -0.63302,0.98669 0.004,0.0189 0.009,0.0376 0.0143,0.0561 z m 0.16697,0.46899 c 0.0642,0.15151 0.10562,0.31446 0.14866,0.47279 v 0 c 0.11575,0.42601 0.55492,0.67754 0.98094,0.56176 0.41776,-0.11349 0.66925,-0.53897 0.56723,-0.95969 -0.0524,-0.21615 -0.10562,-0.43304 -0.1747,-0.64456 v 0 c -0.13949,-0.42701 -0.5987,-0.66009 -1.0257,-0.5206 -0.427,0.13945 -0.66008,0.59866 -0.52059,1.02567 0.007,0.0219 0.0152,0.0435 0.0242,0.0646 z m 0.14866,0.47279 c 0.059,0.21706 0.11691,0.43441 0.17131,0.65267 h 4e-5 c 0.10502,0.42136 0.53174,0.67776 0.95306,0.5727 0.40569,-0.10114 0.66128,-0.50214 0.58163,-0.91263 -0.0462,-0.23827 -0.10069,-0.47484 -0.15787,-0.71067 v 0 c -0.10404,-0.42902 -0.53615,-0.69251 -0.96517,-0.58847 -0.42905,0.10403 -0.6925,0.53615 -0.58847,0.9652 0.002,0.007 0.004,0.0142 0.005,0.0212 z m 0.17135,0.65271 c 0.0411,0.16478 0.0664,0.33323 0.0832,0.50207 v 0 c 0.0437,0.43766 0.43391,0.75703 0.8716,0.71335 0.43766,-0.0437 0.75703,-0.43391 0.71336,-0.87157 -0.003,-0.0276 -0.007,-0.0551 -0.0126,-0.0822 -0.0414,-0.20027 -0.0819,-0.40076 -0.12086,-0.60152 v 0 c -0.0827,-0.4263 -0.49526,-0.70485 -0.92156,-0.62216 -0.42626,0.0827 -0.70482,0.49526 -0.62216,0.92156 0.002,0.0136 0.006,0.0271 0.009,0.0405 z m 0.0832,0.50211 c 0.0141,0.14079 0.03,0.28247 0.0335,0.42404 v 0 c 0.011,0.45346 0.38746,0.81213 0.84092,0.80115 0.45346,-0.011 0.81213,-0.38749 0.80112,-0.84095 -6.9e-4,-0.0264 -0.002,-0.0528 -0.006,-0.079 -0.0223,-0.18334 -0.06,-0.36502 -0.0974,-0.54571 v 0 c -0.0891,-0.43074 -0.5105,-0.70767 -0.94121,-0.61856 -0.39927,0.0826 -0.67165,0.45335 -0.63112,0.85905 z m 0.0335,0.42404 c 0.004,0.14615 0.044,0.29065 0.11829,0.41677 0.1712,0.29079 0.51093,0.459 0.85506,0.3956 v 0 c 0.0557,-0.0103 0.11025,-0.0264 0.1626,-0.0481 0.35387,-0.14658 0.54469,-0.51787 0.50038,-0.88314 v 0 c -0.0546,-0.45029 -0.46397,-0.771 -0.91426,-0.71635 -0.41981,0.0509 -0.73233,0.4124 -0.72207,0.83517 z" />
    <path
       inkscape:connector-curvature="0"
       id="path7903"
       style="fill:#00000f;fill-opacity:0.94117647;fill-rule:nonzero;stroke:none;stroke-width:0.35277778"
       d="m 153.64917,150.05379 c 0.0202,0.0457 0.0505,0.0863 0.0867,0.12044 v 0 c 0.14221,0.13374 0.36594,0.12686 0.49968,-0.0153 0.13377,-0.14224 0.12689,-0.36593 -0.0153,-0.49971 -0.14224,-0.13374 -0.36598,-0.12686 -0.49971,0.0153 -0.009,0.009 -0.0173,0.0194 -0.0251,0.0298 -0.0344,0.0458 -0.0592,0.0989 -0.0694,0.15547 v 0 c -0.0118,0.0655 -0.004,0.1331 0.0231,0.19399 z m 0.0868,0.12044 c 0.0643,0.0605 0.14277,0.10573 0.2202,0.14721 0.0955,0.0512 0.19424,0.0966 0.29344,0.13998 v 4e-5 c 0.24927,0.10918 0.53986,-0.004 0.64904,-0.25365 0.10919,-0.24927 -0.004,-0.53985 -0.25361,-0.64904 -0.0321,-0.0141 -0.0657,-0.0247 -0.10008,-0.0316 -0.1391,-0.0281 -0.28283,-0.0442 -0.42464,-0.0302 -0.15949,0.0158 -0.3253,0.075 -0.42482,0.20732 v 4e-5 c -0.10826,0.14404 -0.0908,0.34646 0.0405,0.4699 z m 0.51361,0.28719 c 0.19261,0.0844 0.38833,0.16443 0.59005,0.22451 v 0 c 0.28685,0.0854 0.58858,-0.0779 0.67395,-0.3647 0.0854,-0.28681 -0.0779,-0.58857 -0.3647,-0.67395 -0.0188,-0.006 -0.0379,-0.0102 -0.0573,-0.0137 -0.18256,-0.0334 -0.3647,-0.0696 -0.54663,-0.1064 v 0 c -0.26673,-0.0539 -0.5267,0.11857 -0.58063,0.38531 -0.046,0.22729 0.0728,0.45589 0.28525,0.54895 z m 0.59005,0.22451 c 0.17117,0.051 0.34572,0.0901 0.52169,0.12048 v 0 c 0.30723,0.0531 0.59933,-0.15286 0.65246,-0.4601 0.0531,-0.3072 -0.15282,-0.59933 -0.46006,-0.65246 -0.0158,-0.003 -0.0318,-0.005 -0.0477,-0.006 -0.13878,-0.012 -0.27724,-0.029 -0.41426,-0.0541 v 0 c -0.2944,-0.0538 -0.57665,0.14118 -0.63049,0.43554 -0.0497,0.27202 0.11335,0.53788 0.37839,0.61679 z m 0.52173,0.12048 c 0.26172,0.0452 0.52909,0.0597 0.79403,0.0712 v 4e-5 c 0.32095,0.0139 0.59245,-0.23495 0.60639,-0.55591 0.0139,-0.32096 -0.23495,-0.59249 -0.55591,-0.60643 -0.005,-2.1e-4 -0.0106,-3.4e-4 -0.0159,-3.4e-4 -0.22792,-0.004 -0.45681,-0.008 -0.68407,-0.0271 v 0 c -0.31062,-0.0267 -0.58409,0.20341 -0.61083,0.51404 -0.0251,0.29206 0.17745,0.55474 0.46627,0.60469 z m 0.79403,0.0712 c 0.2715,0.0118 0.54327,0.0212 0.81509,0.0213 v 0 c 0.32484,1.4e-4 0.58829,-0.2631 0.58843,-0.58794 1.4e-4,-0.32484 -0.26306,-0.58829 -0.5879,-0.58843 -0.26035,-1.1e-4 -0.5207,-0.004 -0.78102,-0.008 v 4e-5 c -0.32123,-0.005 -0.58582,0.25103 -0.591,0.57224 -0.005,0.31506 0.24161,0.57686 0.5564,0.59055 z m 0.81513,0.0213 c 0.25682,7e-5 0.51353,-0.0185 0.76863,-0.0475 v 0 c 0.31877,-0.0363 0.54783,-0.32406 0.51156,-0.64283 -0.0353,-0.31041 -0.3097,-0.53732 -0.62121,-0.51365 -0.21907,0.0167 -0.43882,0.0277 -0.65856,0.0277 v -3e-5 c -0.32484,-1.1e-4 -0.58826,0.26313 -0.5884,0.58797 -1e-4,0.32484 0.26314,0.58829 0.58798,0.5884 z m 0.76863,-0.0475 c 0.26973,-0.0307 0.53855,-0.0691 0.80613,-0.11486 v 0 c 0.31041,-0.0531 0.51901,-0.34784 0.46588,-0.65829 -0.0525,-0.3066 -0.341,-0.51459 -0.64848,-0.46746 -0.2432,0.0373 -0.48782,0.0655 -0.73318,0.0841 v 0 c -0.31993,0.0243 -0.55954,0.30336 -0.53523,0.62329 0.0243,0.3199 0.30335,0.55954 0.62325,0.53524 0.007,-7.1e-4 0.0144,-0.001 0.0216,-0.002 z m 0.80613,-0.11486 c 0.26628,-0.0456 0.53086,-0.1015 0.7923,-0.16962 v 0 c 0.29267,-0.0763 0.4681,-0.37543 0.3918,-0.66813 -0.0708,-0.27142 -0.33514,-0.44552 -0.61242,-0.40329 -0.25143,0.0383 -0.50285,0.0767 -0.75428,0.11529 v 0 c -0.31129,0.0477 -0.52497,0.33877 -0.47724,0.65006 0.0477,0.31129 0.33874,0.52497 0.65007,0.47727 0.003,-3.4e-4 0.007,-0.001 0.01,-0.002 z m 0.79227,-0.16962 c 0.22525,-0.0587 0.45152,-0.11342 0.67885,-0.16337 v 0 c 0.27763,-0.061 0.45325,-0.33546 0.39225,-0.61309 -0.0576,-0.26222 -0.30709,-0.43607 -0.57305,-0.39938 -0.23978,0.0331 -0.47932,0.068 -0.71864,0.10445 v -3e-5 c -0.29902,0.0455 -0.50451,0.32487 -0.45897,0.62392 0.0455,0.29902 0.32488,0.50451 0.62389,0.45897 0.0187,-0.003 0.0373,-0.007 0.0557,-0.0115 z m 0.67885,-0.16337 c 0.20203,-0.0444 0.40467,-0.0857 0.60843,-0.12136 v 0 c 0.26536,-0.0465 0.44278,-0.29933 0.39628,-0.56472 -0.0436,-0.24885 -0.27005,-0.42323 -0.52179,-0.40185 -0.22187,0.0189 -0.44309,0.045 -0.66368,0.0755 v 0 c -0.28156,0.0388 -0.47834,0.29859 -0.4395,0.58014 0.0388,0.28155 0.2986,0.47833 0.58015,0.43949 0.0135,-0.002 0.0268,-0.004 0.0401,-0.007 z m 0.60843,-0.12136 c 0.21714,-0.0381 0.43681,-0.0617 0.65631,-0.0808 v 0 c 0.25466,-0.0223 0.44309,-0.24673 0.42087,-0.5014 -0.0213,-0.2443 -0.22945,-0.42954 -0.47456,-0.42245 -0.24289,0.007 -0.48595,0.0175 -0.72813,0.0381 v -3e-5 c -0.26843,0.0228 -0.46758,0.2589 -0.44479,0.52736 0.0228,0.26843 0.25891,0.46758 0.52737,0.44479 0.0144,-0.001 0.0287,-0.003 0.0429,-0.006 z m 0.65635,-0.0808 c 0.16139,-0.0141 0.33835,-0.0291 0.49801,0.009 v 0 c 0.27316,0.065 0.54727,-0.10375 0.61229,-0.37691 0.065,-0.27315 -0.10376,-0.5473 -0.37691,-0.61228 -0.0783,-0.0186 -0.15992,-0.0184 -0.23813,7.2e-4 -0.17801,0.0434 -0.36671,0.0505 -0.54903,0.0558 v -4e-5 c -0.25551,0.007 -0.45667,0.22059 -0.44926,0.47615 0.007,0.25555 0.22059,0.45667 0.47615,0.44926 0.009,-2.5e-4 0.0179,-7.2e-4 0.0269,-0.001 z m 0.36346,-0.0439 v -4e-5 c 0.21882,0.26134 0.60809,0.29577 0.86942,0.0769 0.26131,-0.21883 0.29573,-0.60809 0.0769,-0.86942 -0.16004,-0.1911 -0.41934,-0.26716 -0.65729,-0.1928 -0.054,0.0169 -0.10251,0.0363 -0.15724,0.0497 v 0 c -0.27277,0.0665 -0.44002,0.34156 -0.37348,0.61437 0.0331,0.13582 0.12069,0.25198 0.24215,0.32124 l -2.7e-4,7e-5 z m 0.39145,0.38777 v 0 c 0.36703,0.0604 0.71818,-0.17367 0.80355,-0.53573 0.0848,-0.3598 -0.12735,-0.7366 -0.4778,-0.85086 v 0 c -0.19385,-0.0632 -0.40562,-0.0389 -0.58018,0.0665 -0.2225,0.13437 -0.35517,0.38594 -0.3435,0.64477 0.015,0.33239 0.26546,0.62057 0.59793,0.67536 z" />
  </g>
</svg>
