<?xml version="1.0" encoding="utf-8" standalone="no"?>
<!DOCTYPE svg PUBLIC "-//W3C//DTD SVG 1.1//EN"
  "http://www.w3.org/Graphics/SVG/1.1/DTD/svg11.dtd">
<!-- Created with matplotlib (https://matplotlib.org/) -->
<svg height="154.8pt" version="1.1" viewBox="0 0 453.6 154.8" width="453.6pt" xmlns="http://www.w3.org/2000/svg" xmlns:xlink="http://www.w3.org/1999/xlink">
 <defs>
  <style type="text/css">
*{stroke-linecap:butt;stroke-linejoin:round;}
  </style>
 </defs>
 <g id="figure_1">
  <g id="patch_1">
   <path d="M 0 154.8 
L 453.6 154.8 
L 453.6 0 
L 0 0 
z
" style="fill:#ffffff;"/>
  </g>
  <g id="axes_1">
   <g id="PatchCollection_1">
    <defs>
     <path d="M 77.649158 -11.598158 
C 95.10001 -11.598158 111.838471 -18.531455 124.178087 -30.871071 
C 136.517703 -43.210687 143.451 -59.949147 143.451 -77.4 
C 143.451 -94.850853 136.517703 -111.589313 124.178087 -123.928929 
C 111.838471 -136.268545 95.10001 -143.201842 77.649158 -143.201842 
C 60.198305 -143.201842 43.459845 -136.268545 31.120229 -123.928929 
C 18.780613 -111.589313 11.847316 -94.850853 11.847316 -77.4 
C 11.847316 -59.949147 18.780613 -43.210687 31.120229 -30.871071 
C 43.459845 -18.531455 60.198305 -11.598158 77.649158 -11.598158 
z
" id="mcc4bb1b226"/>
    </defs>
    <g clip-path="url(#pdd758a8a9c)">
     <use style="fill-opacity:0.4;" x="0" xlink:href="#mcc4bb1b226" y="154.8"/>
    </g>
   </g>
   <g id="PatchCollection_2">
    <defs>
     <path d="M 77.649158 -16.472368 
C 93.807355 -16.472368 109.305929 -22.892088 120.731499 -34.317659 
C 132.15707 -45.743229 138.576789 -61.241803 138.576789 -77.4 
C 138.576789 -93.558197 132.15707 -109.056771 120.731499 -120.482341 
C 109.305929 -131.907912 93.807355 -138.327632 77.649158 -138.327632 
C 61.490961 -138.327632 45.992387 -131.907912 34.566816 -120.482341 
C 23.141246 -109.056771 16.721526 -93.558197 16.721526 -77.4 
C 16.721526 -61.241803 23.141246 -45.743229 34.566816 -34.317659 
C 45.992387 -22.892088 61.490961 -16.472368 77.649158 -16.472368 
z
" id="m578e7fb2c2"/>
    </defs>
    <g clip-path="url(#pdd758a8a9c)">
     <use style="fill:#ffffff;" x="0" xlink:href="#m578e7fb2c2" y="154.8"/>
    </g>
   </g>
   <g id="line2d_1">
    <path clip-path="url(#pdd758a8a9c)" d="M 138.576789 77.4 
L 138.454122 73.535731 
L 138.086615 69.687022 
L 137.475748 65.86937 
L 136.62398 62.098148 
L 135.534741 58.388541 
L 134.212417 54.755487 
L 132.662333 51.213614 
L 130.890731 47.777184 
L 128.904743 44.460035 
L 126.712367 41.275524 
L 124.322431 38.236473 
L 121.744559 35.35512 
L 118.989129 32.643067 
L 116.067238 30.111234 
L 112.990652 27.769817 
L 109.771757 25.628242 
L 106.423516 23.695134 
L 102.959411 21.978277 
L 99.39339 20.484583 
L 95.739813 19.220068 
L 92.013391 18.189823 
L 88.22913 17.397996 
L 84.402267 16.847776 
L 80.548211 16.541379 
L 76.682482 16.480038 
L 72.820646 16.663999 
L 68.978252 17.092524 
L 65.170773 17.763885 
L 61.41354 18.67538 
L 57.721682 19.823338 
L 54.110064 21.203137 
L 50.593231 22.809221 
L 47.185342 24.635123 
L 43.90012 26.673491 
L 40.750794 28.916116 
L 37.750044 31.353968 
L 34.909954 33.977232 
L 32.24196 36.775344 
L 29.756805 39.737037 
L 27.464495 42.850386 
L 25.374261 46.102853 
L 23.494519 49.481343 
L 21.832839 52.972252 
L 20.395912 56.561523 
L 19.189523 60.234703 
L 18.218531 63.977001 
L 17.486845 67.773349 
L 16.997411 71.60846 
L 16.752201 75.466892 
L 16.752201 79.333108 
L 16.997411 83.19154 
L 17.486845 87.026651 
L 18.218531 90.822999 
L 19.189523 94.565297 
L 20.395912 98.238477 
L 21.832839 101.827748 
L 23.494519 105.318657 
L 25.374261 108.697147 
L 27.464495 111.949614 
L 29.756805 115.062963 
L 32.24196 118.024656 
L 34.909954 120.822768 
L 37.750044 123.446032 
L 40.750794 125.883884 
L 43.90012 128.126509 
L 47.185342 130.164877 
L 50.593231 131.990779 
L 54.110064 133.596863 
L 57.721682 134.976662 
L 61.41354 136.12462 
L 65.170773 137.036115 
L 68.978252 137.707476 
L 72.820646 138.136001 
L 76.682482 138.319962 
L 80.548211 138.258621 
L 84.402267 137.952224 
L 88.22913 137.402004 
L 92.013391 136.610177 
L 95.739813 135.579932 
L 99.39339 134.315417 
L 102.959411 132.821723 
L 106.423516 131.104866 
L 109.771757 129.171758 
L 112.990652 127.030183 
L 116.067238 124.688766 
L 118.989129 122.156933 
L 121.744559 119.44488 
L 124.322431 116.563527 
L 126.712367 113.524476 
L 128.904743 110.339965 
L 130.890731 107.022816 
L 132.662333 103.586386 
L 134.212417 100.044513 
L 135.534741 96.411459 
L 136.62398 92.701852 
L 137.475748 88.93063 
L 138.086615 85.112978 
L 138.454122 81.264269 
L 138.576789 77.4 
" style="fill:none;stroke:#000000;stroke-linecap:square;"/>
   </g>
   <g id="patch_2">
    <path clip-path="url(#pdd758a8a9c)" d="M 119.439029 35.610129 
L 118.792794 37.548834 
L 118.147421 36.903461 
L 77.65002 77.400862 
L 77.648296 77.399138 
L 118.145697 36.901737 
L 117.500324 36.256364 
z
" style="stroke:#000000;stroke-linejoin:miter;stroke-width:1.5;"/>
   </g>
   <g id="patch_3">
    <path clip-path="url(#pdd758a8a9c)" d="M 35.859287 119.189871 
L 36.505522 117.251166 
L 37.150895 117.896539 
L 77.648296 77.399138 
L 77.65002 77.400862 
L 37.152619 117.898263 
L 37.797992 118.543636 
z
" style="stroke:#000000;stroke-linejoin:miter;stroke-width:1.5;"/>
   </g>
   <g id="patch_4">
    <path clip-path="url(#pdd758a8a9c)" d="M 136.524068 72.249113 
L 134.782847 73.318855 
L 134.703301 72.409633 
L 77.649264 77.401214 
L 77.649052 77.398786 
L 134.703088 72.407205 
L 134.623542 71.497982 
z
" style="stroke:#000000;stroke-dasharray:6.4,1.6,1,1.6;stroke-dashoffset:0;stroke-linejoin:miter;"/>
   </g>
   <g id="patch_5">
    <path clip-path="url(#pdd758a8a9c)" d="M 18.774248 82.550887 
L 20.515468 81.481145 
L 20.595015 82.390367 
L 77.649052 77.398786 
L 77.649264 77.401214 
L 20.595228 82.392795 
L 20.674774 83.302018 
z
" style="stroke:#000000;stroke-dasharray:6.4,1.6,1,1.6;stroke-dashoffset:0;stroke-linejoin:miter;"/>
   </g>
   <g id="PatchCollection_3">
    <defs>
     <path d="M 129.700983 -122.521137 
Q 142.348941 -108.868152 145.320529 -90.701288 
L 146.042071 -90.819312 
Q 145.639916 -89.502294 145.188602 -88.209952 
Q 144.4305 -89.349995 143.636929 -90.425899 
L 144.358472 -90.543923 
Q 141.434278 -108.421039 128.985847 -121.858644 
L 129.700983 -122.521137 
z
" id="m1c29dc073f" style="stroke:#000000;stroke-width:0.5;"/>
    </defs>
    <g clip-path="url(#pdd758a8a9c)">
     <use style="stroke:#000000;stroke-width:0.5;" x="0" xlink:href="#m1c29dc073f" y="154.8"/>
    </g>
   </g>
   <g id="PatchCollection_4">
    <defs>
     <path d="M 25.597333 -32.278863 
Q 12.949375 -45.931848 9.977787 -64.098712 
L 9.256244 -63.980688 
Q 9.6584 -65.297706 10.109714 -66.590048 
Q 10.867816 -65.450005 11.661386 -64.374101 
L 10.939844 -64.256077 
Q 13.864037 -46.378961 26.312469 -32.941356 
L 25.597333 -32.278863 
z
" id="mc5f7e78c2e" style="stroke:#000000;stroke-width:0.5;"/>
    </defs>
    <g clip-path="url(#pdd758a8a9c)">
     <use style="stroke:#000000;stroke-width:0.5;" x="0" xlink:href="#mc5f7e78c2e" y="154.8"/>
    </g>
   </g>
   <g id="line2d_2">
    <defs>
     <path d="M 0 1.5 
C 0.397805 1.5 0.77937 1.341951 1.06066 1.06066 
C 1.341951 0.77937 1.5 0.397805 1.5 0 
C 1.5 -0.397805 1.341951 -0.77937 1.06066 -1.06066 
C 0.77937 -1.341951 0.397805 -1.5 0 -1.5 
C -0.397805 -1.5 -0.77937 -1.341951 -1.06066 -1.06066 
C -1.341951 -0.77937 -1.5 -0.397805 -1.5 0 
C -1.5 0.397805 -1.341951 0.77937 -1.06066 1.06066 
C -0.77937 1.341951 -0.397805 1.5 0 1.5 
z
" id="mb346f37f33" style="stroke:#000000;stroke-width:0.75;"/>
    </defs>
    <g clip-path="url(#pdd758a8a9c)">
     <use style="stroke:#000000;stroke-width:0.75;" x="77.649158" xlink:href="#mb346f37f33" y="77.4"/>
    </g>
   </g>
   <g id="text_1">
    <!-- $\vec k_\uparrow$ -->
    <defs>
     <path d="M -1.703125 65.40625 
L -14.90625 54.796875 
L -16.703125 55.59375 
Q -11.796875 59.703125 -11.796875 61.203125 
Q -11.796875 62.703125 -16.703125 62.703125 
L -45.296875 62.703125 
L -45.296875 68.09375 
L -16.703125 68.09375 
Q -11.796875 68.09375 -11.796875 69.59375 
Q -11.796875 69.90625 -12 70.25 
Q -12.203125 70.59375 -12.75 71.140625 
Q -13.296875 71.703125 -13.75 72.203125 
Q -14.203125 72.703125 -15.203125 73.640625 
Q -16.203125 74.59375 -16.796875 75.203125 
L -15 76 
z
" id="STIXGeneral-Regular-8407"/>
     <path d="M 55.59375 45.296875 
L 55.296875 43.90625 
L 26.09375 25.5 
L 45.203125 0 
L 34.90625 0 
L 19.296875 20.703125 
L 14.203125 0 
L 6.296875 0 
L 22.703125 66 
L 30.296875 68.40625 
L 31.09375 67.90625 
L 21.703125 30.296875 
L 45.203125 45.296875 
z
" id="STIXGeneral-Italic-120364"/>
     <path d="M 45.09375 42.40625 
L 43.203125 40.40625 
Q 39.203125 43.203125 33.59375 48.59375 
Q 32.203125 50 30.796875 50 
Q 28.796875 50 28.796875 47.40625 
L 28.796875 -15.59375 
L 22.203125 -15.59375 
L 22.203125 47.5 
Q 22.203125 48.296875 21.453125 49.1875 
Q 20.703125 50.09375 20 50.09375 
Q 18.90625 50.09375 17.5 48.703125 
Q 12.59375 43.59375 7.90625 40.5 
L 6 42.5 
Q 20.296875 54.90625 25 66.203125 
L 26 66.203125 
Q 30.90625 54.703125 45.09375 42.40625 
z
" id="STIXGeneral-Regular-8593"/>
    </defs>
    <g transform="translate(102.020211 40.843421)scale(0.08 -0.08)">
     <use transform="translate(54.621094 27)" xlink:href="#STIXGeneral-Regular-8407"/>
     <use transform="translate(0 0.890625)" xlink:href="#STIXGeneral-Italic-120364"/>
     <use transform="translate(60.673569 -12.698437)scale(0.7)" xlink:href="#STIXGeneral-Regular-8593"/>
    </g>
   </g>
   <g id="text_2">
    <!-- $\vec k_\downarrow$ -->
    <defs>
     <path d="M 43.203125 10.09375 
L 45.09375 8.09375 
Q 30.796875 -4.296875 26.09375 -15.59375 
L 25.09375 -15.59375 
Q 20.203125 -4.09375 6 8.203125 
L 7.90625 10.203125 
Q 11.90625 7.40625 17.5 2 
Q 18.90625 0.59375 20.296875 0.59375 
Q 22.296875 0.59375 22.296875 3.203125 
L 22.296875 66.203125 
L 28.90625 66.203125 
L 28.90625 3.09375 
Q 28.90625 2.296875 29.65625 1.390625 
Q 30.40625 0.5 31.09375 0.5 
Q 32.203125 0.5 33.59375 1.90625 
Q 38.5 7 43.203125 10.09375 
z
" id="STIXGeneral-Regular-8595"/>
    </defs>
    <g transform="translate(43.529684 122.486447)scale(0.08 -0.08)">
     <use transform="translate(54.621094 27)" xlink:href="#STIXGeneral-Regular-8407"/>
     <use transform="translate(0 0.890625)" xlink:href="#STIXGeneral-Italic-120364"/>
     <use transform="translate(60.673569 -12.698437)scale(0.7)" xlink:href="#STIXGeneral-Regular-8595"/>
    </g>
   </g>
   <g id="text_3">
    <!-- $\vec{k}\,'_\uparrow$ -->
    <defs>
     <path d="M 7.5 41.09375 
L 14.203125 63.203125 
Q 14.59375 64.703125 15 65.546875 
Q 15.40625 66.40625 16.296875 67.09375 
Q 17.203125 67.796875 18.59375 67.796875 
Q 19.90625 67.796875 20.65625 66.84375 
Q 21.40625 65.90625 21.40625 64.5 
Q 21.40625 63.40625 20 60.59375 
L 9.40625 40.203125 
z
" id="STIXGeneral-Regular-8242"/>
    </defs>
    <g transform="translate(126.391263 84.711316)scale(0.08 -0.08)">
     <use transform="translate(51.621872 27)" xlink:href="#STIXGeneral-Regular-8407"/>
     <use transform="translate(0 0.890625)" xlink:href="#STIXGeneral-Italic-120364"/>
     <use transform="translate(58.692934 37.128125)scale(0.7)" xlink:href="#STIXGeneral-Regular-8242"/>
     <use transform="translate(69.276932 -21.757812)scale(0.7)" xlink:href="#STIXGeneral-Regular-8593"/>
    </g>
   </g>
   <g id="text_4">
    <!-- $\vec{k}\,'_\downarrow$ -->
    <g transform="translate(21.595737 77.4)scale(0.08 -0.08)">
     <use transform="translate(51.621872 27)" xlink:href="#STIXGeneral-Regular-8407"/>
     <use transform="translate(0 0.890625)" xlink:href="#STIXGeneral-Italic-120364"/>
     <use transform="translate(58.692934 37.128125)scale(0.7)" xlink:href="#STIXGeneral-Regular-8242"/>
     <use transform="translate(69.276932 -21.757812)scale(0.7)" xlink:href="#STIXGeneral-Regular-8595"/>
    </g>
   </g>
  </g>
  <g id="axes_2">
   <g id="PatchCollection_5">
    <defs>
     <path d="M 226.8 -11.598158 
C 244.250853 -11.598158 260.989313 -18.531455 273.328929 -30.871071 
C 285.668545 -43.210687 292.601842 -59.949147 292.601842 -77.4 
C 292.601842 -94.850853 285.668545 -111.589313 273.328929 -123.928929 
C 260.989313 -136.268545 244.250853 -143.201842 226.8 -143.201842 
C 209.349147 -143.201842 192.610687 -136.268545 180.271071 -123.928929 
C 167.931455 -111.589313 160.998158 -94.850853 160.998158 -77.4 
C 160.998158 -59.949147 167.931455 -43.210687 180.271071 -30.871071 
C 192.610687 -18.531455 209.349147 -11.598158 226.8 -11.598158 
z
" id="m35d9796bc5"/>
    </defs>
    <g clip-path="url(#pecac2100ad)">
     <use style="fill:#af2b18;fill-opacity:0.4;" x="0" xlink:href="#m35d9796bc5" y="154.8"/>
    </g>
   </g>
   <g id="PatchCollection_6">
    <defs>
     <path d="M 226.8 -16.472368 
C 242.958197 -16.472368 258.456771 -22.892088 269.882341 -34.317659 
C 281.307912 -45.743229 287.727632 -61.241803 287.727632 -77.4 
C 287.727632 -93.558197 281.307912 -109.056771 269.882341 -120.482341 
C 258.456771 -131.907912 242.958197 -138.327632 226.8 -138.327632 
C 210.641803 -138.327632 195.143229 -131.907912 183.717659 -120.482341 
C 172.292088 -109.056771 165.872368 -93.558197 165.872368 -77.4 
C 165.872368 -61.241803 172.292088 -45.743229 183.717659 -34.317659 
C 195.143229 -22.892088 210.641803 -16.472368 226.8 -16.472368 
z
" id="mc1fe5425ba"/>
    </defs>
    <g clip-path="url(#pecac2100ad)">
     <use style="fill:#ffffff;" x="0" xlink:href="#mc1fe5425ba" y="154.8"/>
    </g>
   </g>
   <g id="line2d_3">
    <path clip-path="url(#pecac2100ad)" d="M 287.727632 77.4 
L 287.604965 73.535731 
L 287.237457 69.687022 
L 286.62659 65.86937 
L 285.774822 62.098148 
L 284.685583 58.388541 
L 283.363259 54.755487 
L 281.813175 51.213614 
L 280.041573 47.777184 
L 278.055585 44.460035 
L 275.86321 41.275524 
L 273.473274 38.236473 
L 270.895401 35.35512 
L 268.139971 32.643067 
L 265.218081 30.111234 
L 262.141494 27.769817 
L 258.922599 25.628242 
L 255.574358 23.695134 
L 252.110253 21.978277 
L 248.544232 20.484583 
L 244.890655 19.220068 
L 241.164234 18.189823 
L 237.379972 17.397996 
L 233.553109 16.847776 
L 229.699053 16.541379 
L 225.833324 16.480038 
L 221.971488 16.663999 
L 218.129094 17.092524 
L 214.321615 17.763885 
L 210.564382 18.67538 
L 206.872524 19.823338 
L 203.260907 21.203137 
L 199.744073 22.809221 
L 196.336184 24.635123 
L 193.050962 26.673491 
L 189.901636 28.916116 
L 186.900886 31.353968 
L 184.060796 33.977232 
L 181.392802 36.775344 
L 178.907647 39.737037 
L 176.615337 42.850386 
L 174.525103 46.102853 
L 172.645361 49.481343 
L 170.983681 52.972252 
L 169.546754 56.561523 
L 168.340366 60.234703 
L 167.369373 63.977001 
L 166.637687 67.773349 
L 166.148253 71.60846 
L 165.903043 75.466892 
L 165.903043 79.333108 
L 166.148253 83.19154 
L 166.637687 87.026651 
L 167.369373 90.822999 
L 168.340366 94.565297 
L 169.546754 98.238477 
L 170.983681 101.827748 
L 172.645361 105.318657 
L 174.525103 108.697147 
L 176.615337 111.949614 
L 178.907647 115.062963 
L 181.392802 118.024656 
L 184.060796 120.822768 
L 186.900886 123.446032 
L 189.901636 125.883884 
L 193.050962 128.126509 
L 196.336184 130.164877 
L 199.744073 131.990779 
L 203.260907 133.596863 
L 206.872524 134.976662 
L 210.564382 136.12462 
L 214.321615 137.036115 
L 218.129094 137.707476 
L 221.971488 138.136001 
L 225.833324 138.319962 
L 229.699053 138.258621 
L 233.553109 137.952224 
L 237.379972 137.402004 
L 241.164234 136.610177 
L 244.890655 135.579932 
L 248.544232 134.315417 
L 252.110253 132.821723 
L 255.574358 131.104866 
L 258.922599 129.171758 
L 262.141494 127.030183 
L 265.218081 124.688766 
L 268.139971 122.156933 
L 270.895401 119.44488 
L 273.473274 116.563527 
L 275.86321 113.524476 
L 278.055585 110.339965 
L 280.041573 107.022816 
L 281.813175 103.586386 
L 283.363259 100.044513 
L 284.685583 96.411459 
L 285.774822 92.701852 
L 286.62659 88.93063 
L 287.237457 85.112978 
L 287.604965 81.264269 
L 287.727632 77.4 
" style="fill:none;stroke:#af2b18;stroke-linecap:square;"/>
   </g>
   <g id="PatchCollection_7">
    <defs>
     <path d="M 226.8 -35.969211 
C 237.787574 -35.969211 248.326604 -40.33462 256.095992 -48.104008 
C 263.86538 -55.873396 268.230789 -66.412426 268.230789 -77.4 
C 268.230789 -88.387574 263.86538 -98.926604 256.095992 -106.695992 
C 248.326604 -114.46538 237.787574 -118.830789 226.8 -118.830789 
C 215.812426 -118.830789 205.273396 -114.46538 197.504008 -106.695992 
C 189.73462 -98.926604 185.369211 -88.387574 185.369211 -77.4 
C 185.369211 -66.412426 189.73462 -55.873396 197.504008 -48.104008 
C 205.273396 -40.33462 215.812426 -35.969211 226.8 -35.969211 
z
" id="mfe063c84a4"/>
    </defs>
    <g clip-path="url(#pecac2100ad)">
     <use style="fill:#007791;fill-opacity:0.4;" x="0" xlink:href="#mfe063c84a4" y="154.8"/>
    </g>
   </g>
   <g id="PatchCollection_8">
    <defs>
     <path d="M 226.8 -40.843421 
C 236.494918 -40.843421 245.794063 -44.695253 252.649405 -51.550595 
C 259.504747 -58.405937 263.356579 -67.705082 263.356579 -77.4 
C 263.356579 -87.094918 259.504747 -96.394063 252.649405 -103.249405 
C 245.794063 -110.104747 236.494918 -113.956579 226.8 -113.956579 
C 217.105082 -113.956579 207.805937 -110.104747 200.950595 -103.249405 
C 194.095253 -96.394063 190.243421 -87.094918 190.243421 -77.4 
C 190.243421 -67.705082 194.095253 -58.405937 200.950595 -51.550595 
C 207.805937 -44.695253 217.105082 -40.843421 226.8 -40.843421 
z
" id="m94ca8d5c26"/>
    </defs>
    <g clip-path="url(#pecac2100ad)">
     <use style="fill:#ffffff;" x="0" xlink:href="#m94ca8d5c26" y="154.8"/>
    </g>
   </g>
   <g id="line2d_4">
    <path clip-path="url(#pecac2100ad)" d="M 263.356579 77.4 
L 263.282979 75.081438 
L 263.062474 72.772213 
L 262.695954 70.481622 
L 262.184893 68.218889 
L 261.53135 65.993125 
L 260.737956 63.813292 
L 259.807905 61.688168 
L 258.744944 59.626311 
L 257.553351 57.636021 
L 256.237926 55.725314 
L 254.803964 53.901884 
L 253.257241 52.173072 
L 251.603983 50.54584 
L 249.850848 49.026741 
L 248.004896 47.62189 
L 246.073559 46.336945 
L 244.064615 45.177081 
L 241.986152 44.146966 
L 239.846539 43.25075 
L 237.654393 42.492041 
L 235.41854 41.873894 
L 233.147983 41.398798 
L 230.851865 41.068666 
L 228.539432 40.884827 
L 226.219995 40.848023 
L 223.902893 40.9584 
L 221.597456 41.215514 
L 219.312969 41.618331 
L 217.058629 42.165228 
L 214.843514 42.854003 
L 212.676544 43.681882 
L 210.566444 44.645533 
L 208.521711 45.741074 
L 206.550577 46.964094 
L 204.660982 48.309669 
L 202.860532 49.772381 
L 201.156478 51.346339 
L 199.555681 53.025206 
L 198.064588 54.802222 
L 196.689202 56.670231 
L 195.435062 58.621712 
L 194.307217 60.648806 
L 193.310209 62.743351 
L 192.448053 64.896914 
L 191.724219 67.100822 
L 191.141624 69.346201 
L 190.702612 71.624009 
L 190.408952 73.925076 
L 190.261826 76.240135 
L 190.261826 78.559865 
L 190.408952 80.874924 
L 190.702612 83.175991 
L 191.141624 85.453799 
L 191.724219 87.699178 
L 192.448053 89.903086 
L 193.310209 92.056649 
L 194.307217 94.151194 
L 195.435062 96.178288 
L 196.689202 98.129769 
L 198.064588 99.997778 
L 199.555681 101.774794 
L 201.156478 103.453661 
L 202.860532 105.027619 
L 204.660982 106.490331 
L 206.550577 107.835906 
L 208.521711 109.058926 
L 210.566444 110.154467 
L 212.676544 111.118118 
L 214.843514 111.945997 
L 217.058629 112.634772 
L 219.312969 113.181669 
L 221.597456 113.584486 
L 223.902893 113.8416 
L 226.219995 113.951977 
L 228.539432 113.915173 
L 230.851865 113.731334 
L 233.147983 113.401202 
L 235.41854 112.926106 
L 237.654393 112.307959 
L 239.846539 111.54925 
L 241.986152 110.653034 
L 244.064615 109.622919 
L 246.073559 108.463055 
L 248.004896 107.17811 
L 249.850848 105.773259 
L 251.603983 104.25416 
L 253.257241 102.626928 
L 254.803964 100.898116 
L 256.237926 99.074686 
L 257.553351 97.163979 
L 258.744944 95.173689 
L 259.807905 93.111832 
L 260.737956 90.986708 
L 261.53135 88.806875 
L 262.184893 86.581111 
L 262.695954 84.318378 
L 263.062474 82.027787 
L 263.282979 79.718562 
L 263.356579 77.4 
" style="fill:none;stroke:#007791;stroke-linecap:square;"/>
   </g>
   <g id="patch_6">
    <path clip-path="url(#pecac2100ad)" d="M 268.589871 35.610129 
L 267.943636 37.548834 
L 267.298263 36.903461 
L 226.800862 77.400862 
L 226.799138 77.399138 
L 267.296539 36.901737 
L 266.651166 36.256364 
z
" style="fill:#af2b18;stroke:#af2b18;stroke-linejoin:miter;stroke-width:1.5;"/>
   </g>
   <g id="patch_7">
    <path clip-path="url(#pecac2100ad)" d="M 202.243065 101.956935 
L 202.8893 100.018229 
L 203.534674 100.663603 
L 226.799138 77.399138 
L 226.800862 77.400862 
L 203.536397 100.665326 
L 204.181771 101.3107 
z
" style="fill:#007791;stroke:#007791;stroke-linejoin:miter;stroke-width:1.5;"/>
   </g>
   <g id="line2d_5">
    <g clip-path="url(#pecac2100ad)">
     <use style="stroke:#000000;stroke-width:0.75;" x="226.8" xlink:href="#mb346f37f33" y="77.4"/>
    </g>
   </g>
   <g id="text_5">
    <!-- $\vec k_\uparrow$ -->
    <g style="fill:#af2b18;" transform="translate(251.171053 40.843421)scale(0.08 -0.08)">
     <use transform="translate(54.621094 27)" xlink:href="#STIXGeneral-Regular-8407"/>
     <use transform="translate(0 0.890625)" xlink:href="#STIXGeneral-Italic-120364"/>
     <use transform="translate(60.673569 -12.698437)scale(0.7)" xlink:href="#STIXGeneral-Regular-8593"/>
    </g>
   </g>
   <g id="text_6">
    <!-- $\vec k_\downarrow$ -->
    <g style="fill:#007791;" transform="translate(209.740263 104.208158)scale(0.08 -0.08)">
     <use transform="translate(54.621094 27)" xlink:href="#STIXGeneral-Regular-8407"/>
     <use transform="translate(0 0.890625)" xlink:href="#STIXGeneral-Italic-120364"/>
     <use transform="translate(60.673569 -12.698437)scale(0.7)" xlink:href="#STIXGeneral-Regular-8595"/>
    </g>
   </g>
   <g id="text_7">
    <!-- $|\vec q\,|$ -->
    <defs>
     <path d="M 13.296875 -1.40625 
L 6.703125 -1.40625 
L 6.703125 67.59375 
L 13.296875 67.59375 
z
" id="STIXGeneral-Regular-124"/>
     <path d="M 54.90625 45.796875 
L 38.203125 -21.09375 
L 37.203125 -21.59375 
L 30.796875 -19.203125 
L 36.59375 4.203125 
Q 29.90625 -1 21.796875 -1 
Q 15.203125 -1 11.203125 3.140625 
Q 7.203125 7.296875 7.203125 14.703125 
Q 7.203125 27 16.453125 36.640625 
Q 25.703125 46.296875 36 46.296875 
Q 42.59375 46.296875 46.5 42.796875 
L 53.90625 46.40625 
z
M 39.5 15.796875 
L 43.796875 32.90625 
Q 42.59375 35.90625 40.046875 37.546875 
Q 37.5 39.203125 34.59375 39.203125 
Q 28.09375 39.203125 21.796875 32.640625 
Q 15.5 26.09375 15.5 16.796875 
Q 15.5 12 18 9.046875 
Q 20.5 6.09375 25.203125 6.09375 
Q 28.703125 6.09375 32.75 8.796875 
Q 36.796875 11.5 39.5 15.796875 
z
" id="STIXGeneral-Italic-120370"/>
    </defs>
    <g style="fill:#808080;" transform="translate(231.674211 128.579211)scale(0.08 -0.08)">
     <use transform="translate(0 0.890625)" xlink:href="#STIXGeneral-Regular-124"/>
     <use transform="translate(73.218735 5)" xlink:href="#STIXGeneral-Regular-8407"/>
     <use transform="translate(19.999985 0.890625)" xlink:href="#STIXGeneral-Italic-120370"/>
     <use transform="translate(82.400223 0.890625)" xlink:href="#STIXGeneral-Regular-124"/>
    </g>
   </g>
   <g id="patch_8">
    <path clip-path="url(#pecac2100ad)" d="M 226.8 115.784408 
L 227.713914 117.612237 
L 226.801219 117.612237 
L 226.801219 126.142105 
L 226.798781 126.142105 
L 226.798781 117.612237 
L 225.886086 117.612237 
z
" style="fill:#808080;stroke:#808080;stroke-linejoin:miter;stroke-width:1.5;"/>
   </g>
   <g id="patch_9">
    <path clip-path="url(#pecac2100ad)" d="M 226.8 136.499803 
L 225.886086 134.671974 
L 226.798781 134.671974 
L 226.798781 126.142105 
L 226.801219 126.142105 
L 226.801219 134.671974 
L 227.713914 134.671974 
z
" style="fill:#808080;stroke:#808080;stroke-linejoin:miter;stroke-width:1.5;"/>
   </g>
  </g>
  <g id="axes_3">
   <g id="PatchCollection_9">
    <defs>
     <path d="M 375.950842 -11.598158 
C 393.401695 -11.598158 410.140155 -18.531455 422.479771 -30.871071 
C 434.819387 -43.210687 441.752684 -59.949147 441.752684 -77.4 
C 441.752684 -94.850853 434.819387 -111.589313 422.479771 -123.928929 
C 410.140155 -136.268545 393.401695 -143.201842 375.950842 -143.201842 
C 358.49999 -143.201842 341.761529 -136.268545 329.421913 -123.928929 
C 317.082297 -111.589313 310.149 -94.850853 310.149 -77.4 
C 310.149 -59.949147 317.082297 -43.210687 329.421913 -30.871071 
C 341.761529 -18.531455 358.49999 -11.598158 375.950842 -11.598158 
z
" id="mca3e7d20ac"/>
    </defs>
    <g clip-path="url(#ped0c17afb4)">
     <use style="fill:#af2b18;fill-opacity:0.4;" x="0" xlink:href="#mca3e7d20ac" y="154.8"/>
    </g>
   </g>
   <g id="PatchCollection_10">
    <defs>
     <path d="M 375.950842 -16.472368 
C 392.109039 -16.472368 407.607613 -22.892088 419.033184 -34.317659 
C 430.458754 -45.743229 436.878474 -61.241803 436.878474 -77.4 
C 436.878474 -93.558197 430.458754 -109.056771 419.033184 -120.482341 
C 407.607613 -131.907912 392.109039 -138.327632 375.950842 -138.327632 
C 359.792645 -138.327632 344.294071 -131.907912 332.868501 -120.482341 
C 321.44293 -109.056771 315.023211 -93.558197 315.023211 -77.4 
C 315.023211 -61.241803 321.44293 -45.743229 332.868501 -34.317659 
C 344.294071 -22.892088 359.792645 -16.472368 375.950842 -16.472368 
z
" id="m2eb577f684"/>
    </defs>
    <g clip-path="url(#ped0c17afb4)">
     <use style="fill:#ffffff;" x="0" xlink:href="#m2eb577f684" y="154.8"/>
    </g>
   </g>
   <g id="line2d_6">
    <path clip-path="url(#ped0c17afb4)" d="M 436.878474 77.4 
L 436.755807 73.535731 
L 436.388299 69.687022 
L 435.777432 65.86937 
L 434.925664 62.098148 
L 433.836425 58.388541 
L 432.514101 54.755487 
L 430.964018 51.213614 
L 429.192415 47.777184 
L 427.206427 44.460035 
L 425.014052 41.275524 
L 422.624116 38.236473 
L 420.046243 35.35512 
L 417.290814 32.643067 
L 414.368923 30.111234 
L 411.292336 27.769817 
L 408.073441 25.628242 
L 404.7252 23.695134 
L 401.261095 21.978277 
L 397.695074 20.484583 
L 394.041497 19.220068 
L 390.315076 18.189823 
L 386.530814 17.397996 
L 382.703951 16.847776 
L 378.849896 16.541379 
L 374.984167 16.480038 
L 371.12233 16.663999 
L 367.279936 17.092524 
L 363.472457 17.763885 
L 359.715224 18.67538 
L 356.023366 19.823338 
L 352.411749 21.203137 
L 348.894915 22.809221 
L 345.487026 24.635123 
L 342.201805 26.673491 
L 339.052478 28.916116 
L 336.051729 31.353968 
L 333.211639 33.977232 
L 330.543644 36.775344 
L 328.058489 39.737037 
L 325.766179 42.850386 
L 323.675945 46.102853 
L 321.796203 49.481343 
L 320.134524 52.972252 
L 318.697596 56.561523 
L 317.491208 60.234703 
L 316.520215 63.977001 
L 315.788529 67.773349 
L 315.299096 71.60846 
L 315.053885 75.466892 
L 315.053885 79.333108 
L 315.299096 83.19154 
L 315.788529 87.026651 
L 316.520215 90.822999 
L 317.491208 94.565297 
L 318.697596 98.238477 
L 320.134524 101.827748 
L 321.796203 105.318657 
L 323.675945 108.697147 
L 325.766179 111.949614 
L 328.058489 115.062963 
L 330.543644 118.024656 
L 333.211639 120.822768 
L 336.051729 123.446032 
L 339.052478 125.883884 
L 342.201805 128.126509 
L 345.487026 130.164877 
L 348.894915 131.990779 
L 352.411749 133.596863 
L 356.023366 134.976662 
L 359.715224 136.12462 
L 363.472457 137.036115 
L 367.279936 137.707476 
L 371.12233 138.136001 
L 374.984167 138.319962 
L 378.849896 138.258621 
L 382.703951 137.952224 
L 386.530814 137.402004 
L 390.315076 136.610177 
L 394.041497 135.579932 
L 397.695074 134.315417 
L 401.261095 132.821723 
L 404.7252 131.104866 
L 408.073441 129.171758 
L 411.292336 127.030183 
L 414.368923 124.688766 
L 417.290814 122.156933 
L 420.046243 119.44488 
L 422.624116 116.563527 
L 425.014052 113.524476 
L 427.206427 110.339965 
L 429.192415 107.022816 
L 430.964018 103.586386 
L 432.514101 100.044513 
L 433.836425 96.411459 
L 434.925664 92.701852 
L 435.777432 88.93063 
L 436.388299 85.112978 
L 436.755807 81.264269 
L 436.878474 77.4 
" style="fill:none;stroke:#af2b18;stroke-linecap:square;"/>
   </g>
   <g id="PatchCollection_11">
    <defs>
     <path d="M 400.321895 -35.969211 
C 411.309469 -35.969211 421.848499 -40.33462 429.617887 -48.104008 
C 437.387275 -55.873396 441.752684 -66.412426 441.752684 -77.4 
C 441.752684 -88.387574 437.387275 -98.926604 429.617887 -106.695992 
C 421.848499 -114.46538 411.309469 -118.830789 400.321895 -118.830789 
C 389.334321 -118.830789 378.79529 -114.46538 371.025903 -106.695992 
C 363.256515 -98.926604 358.891105 -88.387574 358.891105 -77.4 
C 358.891105 -66.412426 363.256515 -55.873396 371.025903 -48.104008 
C 378.79529 -40.33462 389.334321 -35.969211 400.321895 -35.969211 
z
" id="m6dd56dcca7"/>
    </defs>
    <g clip-path="url(#ped0c17afb4)">
     <use style="fill:#007791;fill-opacity:0.4;" x="0" xlink:href="#m6dd56dcca7" y="154.8"/>
    </g>
   </g>
   <g id="PatchCollection_12">
    <defs>
     <path d="M 400.321895 -40.843421 
C 410.016813 -40.843421 419.315957 -44.695253 426.1713 -51.550595 
C 433.026642 -58.405937 436.878474 -67.705082 436.878474 -77.4 
C 436.878474 -87.094918 433.026642 -96.394063 426.1713 -103.249405 
C 419.315957 -110.104747 410.016813 -113.956579 400.321895 -113.956579 
C 390.626977 -113.956579 381.327832 -110.104747 374.47249 -103.249405 
C 367.617148 -96.394063 363.765316 -87.094918 363.765316 -77.4 
C 363.765316 -67.705082 367.617148 -58.405937 374.47249 -51.550595 
C 381.327832 -44.695253 390.626977 -40.843421 400.321895 -40.843421 
z
" id="m23691d16b1"/>
    </defs>
    <g clip-path="url(#ped0c17afb4)">
     <use style="fill:#ffffff;" x="0" xlink:href="#m23691d16b1" y="154.8"/>
    </g>
   </g>
   <g id="line2d_7">
    <path clip-path="url(#ped0c17afb4)" d="M 436.878474 77.4 
L 436.804873 75.081438 
L 436.584369 72.772213 
L 436.217849 70.481622 
L 435.706788 68.218889 
L 435.053245 65.993125 
L 434.25985 63.813292 
L 433.3298 61.688168 
L 432.266838 59.626311 
L 431.075246 57.636021 
L 429.75982 55.725314 
L 428.325859 53.901884 
L 426.779135 52.173072 
L 425.125878 50.54584 
L 423.372743 49.026741 
L 421.526791 47.62189 
L 419.595454 46.336945 
L 417.58651 45.177081 
L 415.508046 44.146966 
L 413.368434 43.25075 
L 411.176288 42.492041 
L 408.940435 41.873894 
L 406.669878 41.398798 
L 404.37376 41.068666 
L 402.061327 40.884827 
L 399.741889 40.848023 
L 397.424787 40.9584 
L 395.119351 41.215514 
L 392.834864 41.618331 
L 390.580524 42.165228 
L 388.365409 42.854003 
L 386.198439 43.681882 
L 384.088339 44.645533 
L 382.043605 45.741074 
L 380.072472 46.964094 
L 378.182876 48.309669 
L 376.382427 49.772381 
L 374.678373 51.346339 
L 373.077576 53.025206 
L 371.586483 54.802222 
L 370.211097 56.670231 
L 368.956956 58.621712 
L 367.829111 60.648806 
L 366.832104 62.743351 
L 365.969947 64.896914 
L 365.246114 67.100822 
L 364.663519 69.346201 
L 364.224507 71.624009 
L 363.930847 73.925076 
L 363.78372 76.240135 
L 363.78372 78.559865 
L 363.930847 80.874924 
L 364.224507 83.175991 
L 364.663519 85.453799 
L 365.246114 87.699178 
L 365.969947 89.903086 
L 366.832104 92.056649 
L 367.829111 94.151194 
L 368.956956 96.178288 
L 370.211097 98.129769 
L 371.586483 99.997778 
L 373.077576 101.774794 
L 374.678373 103.453661 
L 376.382427 105.027619 
L 378.182876 106.490331 
L 380.072472 107.835906 
L 382.043605 109.058926 
L 384.088339 110.154467 
L 386.198439 111.118118 
L 388.365409 111.945997 
L 390.580524 112.634772 
L 392.834864 113.181669 
L 395.119351 113.584486 
L 397.424787 113.8416 
L 399.741889 113.951977 
L 402.061327 113.915173 
L 404.37376 113.731334 
L 406.669878 113.401202 
L 408.940435 112.926106 
L 411.176288 112.307959 
L 413.368434 111.54925 
L 415.508046 110.653034 
L 417.58651 109.622919 
L 419.595454 108.463055 
L 421.526791 107.17811 
L 423.372743 105.773259 
L 425.125878 104.25416 
L 426.779135 102.626928 
L 428.325859 100.898116 
L 429.75982 99.074686 
L 431.075246 97.163979 
L 432.266838 95.173689 
L 433.3298 93.111832 
L 434.25985 90.986708 
L 435.053245 88.806875 
L 435.706788 86.581111 
L 436.217849 84.318378 
L 436.584369 82.027787 
L 436.804873 79.718562 
L 436.878474 77.4 
" style="fill:none;stroke:#007791;stroke-linecap:square;"/>
   </g>
   <g id="line2d_8">
    <defs>
     <path d="M 0 1.5 
C 0.397805 1.5 0.77937 1.341951 1.06066 1.06066 
C 1.341951 0.77937 1.5 0.397805 1.5 0 
C 1.5 -0.397805 1.341951 -0.77937 1.06066 -1.06066 
C 0.77937 -1.341951 0.397805 -1.5 0 -1.5 
C -0.397805 -1.5 -0.77937 -1.341951 -1.06066 -1.06066 
C -1.341951 -0.77937 -1.5 -0.397805 -1.5 0 
C -1.5 0.397805 -1.341951 0.77937 -1.06066 1.06066 
C -0.77937 1.341951 -0.397805 1.5 0 1.5 
z
" id="mddf0bbdae9" style="stroke:#808080;stroke-width:0.75;"/>
    </defs>
    <g clip-path="url(#ped0c17afb4)">
     <use style="fill:#808080;stroke:#808080;stroke-width:0.75;" x="400.321895" xlink:href="#mddf0bbdae9" y="77.4"/>
    </g>
   </g>
   <g id="line2d_9">
    <g clip-path="url(#ped0c17afb4)">
     <use style="stroke:#000000;stroke-width:0.75;" x="375.950842" xlink:href="#mb346f37f33" y="77.4"/>
    </g>
   </g>
   <g id="text_8">
    <!-- $\vec{q}$ -->
    <g transform="translate(385.699263 87.148421)scale(0.08 -0.08)">
     <use transform="translate(54.746872 5)" xlink:href="#STIXGeneral-Regular-8407"/>
     <use transform="translate(0 0.890625)" xlink:href="#STIXGeneral-Italic-120370"/>
    </g>
   </g>
   <g id="patch_10">
    <path clip-path="url(#ped0c17afb4)" d="M 399.103342 77.4 
L 397.275513 78.313914 
L 397.275513 77.401219 
L 375.950842 77.401219 
L 375.950842 77.398781 
L 397.275513 77.398781 
L 397.275513 76.486086 
z
" style="stroke:#000000;stroke-linejoin:miter;"/>
   </g>
  </g>
 </g>
 <defs>
  <clipPath id="pdd758a8a9c">
   <rect height="146.226316" width="146.226316" x="4.536" y="4.286842"/>
  </clipPath>
  <clipPath id="pecac2100ad">
   <rect height="146.226316" width="146.226316" x="153.686842" y="4.286842"/>
  </clipPath>
  <clipPath id="ped0c17afb4">
   <rect height="146.226316" width="146.226316" x="302.837684" y="4.286842"/>
  </clipPath>
 </defs>
</svg>
