<?xml version="1.0" encoding="UTF-8" standalone="no"?>
<!-- Created with Inkscape (http://www.inkscape.org/) -->

<svg
   xmlns:osb="http://www.openswatchbook.org/uri/2009/osb"
   xmlns:dc="http://purl.org/dc/elements/1.1/"
   xmlns:cc="http://creativecommons.org/ns#"
   xmlns:rdf="http://www.w3.org/1999/02/22-rdf-syntax-ns#"
   xmlns:svg="http://www.w3.org/2000/svg"
   xmlns="http://www.w3.org/2000/svg"
   xmlns:xlink="http://www.w3.org/1999/xlink"
   xmlns:sodipodi="http://sodipodi.sourceforge.net/DTD/sodipodi-0.dtd"
   xmlns:inkscape="http://www.inkscape.org/namespaces/inkscape"
   width="121.11996mm"
   height="99.595261mm"
   viewBox="0 0 429.1652 352.89659"
   id="svg2"
   version="1.1"
   inkscape:version="0.91 r13725"
   sodipodi:docname="markov_cl.svg">
  <defs
     id="defs4">
    <linearGradient
       inkscape:collect="always"
       id="linearGradient14220">
      <stop
         style="stop-color:#000000;stop-opacity:1;"
         offset="0"
         id="stop14222" />
      <stop
         style="stop-color:#000000;stop-opacity:0;"
         offset="1"
         id="stop14224" />
    </linearGradient>
    <linearGradient
       inkscape:collect="always"
       id="linearGradient14182"
       osb:paint="gradient">
      <stop
         style="stop-color:#187795;stop-opacity:1;"
         offset="0"
         id="stop14184" />
      <stop
         style="stop-color:#187795;stop-opacity:0;"
         offset="1"
         id="stop14186" />
    </linearGradient>
    <marker
       inkscape:stockid="Arrow2Mstart"
       orient="auto"
       refY="0"
       refX="0"
       id="Arrow2Mstart"
       style="overflow:visible"
       inkscape:isstock="true">
      <path
         id="path4312"
         style="fill:#000000;fill-opacity:1;fill-rule:evenodd;stroke:#000000;stroke-width:0.625;stroke-linejoin:round;stroke-opacity:1"
         d="M 8.7185878,4.0337352 -2.2072895,0.01601326 8.7185884,-4.0017078 c -1.7454984,2.3720609 -1.7354408,5.6174519 -6e-7,8.035443 z"
         transform="scale(0.6,0.6)"
         inkscape:connector-curvature="0" />
    </marker>
    <marker
       inkscape:stockid="Arrow1Mend"
       orient="auto"
       refY="0"
       refX="0"
       id="Arrow1Mend"
       style="overflow:visible"
       inkscape:isstock="true">
      <path
         id="path4297"
         d="M 0,0 5,-5 -12.5,0 5,5 0,0 Z"
         style="fill:#000000;fill-opacity:1;fill-rule:evenodd;stroke:#000000;stroke-width:1pt;stroke-opacity:1"
         transform="matrix(-0.4,0,0,-0.4,-4,0)"
         inkscape:connector-curvature="0" />
    </marker>
    <marker
       inkscape:stockid="Arrow2Lend"
       orient="auto"
       refY="0"
       refX="0"
       id="Arrow2Lend"
       style="overflow:visible"
       inkscape:isstock="true">
      <path
         id="path4309"
         style="fill:#000000;fill-opacity:1;fill-rule:evenodd;stroke:#000000;stroke-width:0.625;stroke-linejoin:round;stroke-opacity:1"
         d="M 8.7185878,4.0337352 -2.2072895,0.01601326 8.7185884,-4.0017078 c -1.7454984,2.3720609 -1.7354408,5.6174519 -6e-7,8.035443 z"
         transform="matrix(-1.1,0,0,-1.1,-1.1,0)"
         inkscape:connector-curvature="0" />
    </marker>
    <marker
       inkscape:stockid="Arrow1Lend"
       orient="auto"
       refY="0"
       refX="0"
       id="Arrow1Lend"
       style="overflow:visible"
       inkscape:isstock="true">
      <path
         id="path4291"
         d="M 0,0 5,-5 -12.5,0 5,5 0,0 Z"
         style="fill:#000000;fill-opacity:1;fill-rule:evenodd;stroke:#000000;stroke-width:1pt;stroke-opacity:1"
         transform="matrix(-0.8,0,0,-0.8,-10,0)"
         inkscape:connector-curvature="0" />
    </marker>
    <linearGradient
       inkscape:collect="always"
       id="linearGradient10759"
       osb:paint="gradient">
      <stop
         style="stop-color:#000000;stop-opacity:1;"
         offset="0"
         id="stop10761" />
      <stop
         style="stop-color:#000000;stop-opacity:0;"
         offset="1"
         id="stop10763" />
    </linearGradient>
    <linearGradient
       id="linearGradient9610"
       osb:paint="solid">
      <stop
         style="stop-color:#000000;stop-opacity:1;"
         offset="0"
         id="stop9612" />
    </linearGradient>
    <linearGradient
       id="linearGradient7520"
       osb:paint="solid">
      <stop
         style="stop-color:#000000;stop-opacity:1;"
         offset="0"
         id="stop7522" />
    </linearGradient>
    <linearGradient
       id="linearGradient7190"
       osb:paint="solid">
      <stop
         style="stop-color:#000000;stop-opacity:1;"
         offset="0"
         id="stop7192" />
    </linearGradient>
    <linearGradient
       inkscape:collect="always"
       id="linearGradient7128"
       osb:paint="gradient">
      <stop
         style="stop-color:#a42604;stop-opacity:1;"
         offset="0"
         id="stop7130" />
      <stop
         style="stop-color:#a42604;stop-opacity:0;"
         offset="1"
         id="stop7132" />
    </linearGradient>
    <marker
       inkscape:stockid="DotL"
       orient="auto"
       refY="0"
       refX="0"
       id="DotL"
       style="overflow:visible"
       inkscape:isstock="true">
      <path
         id="path4349"
         d="m -2.5,-1 c 0,2.76 -2.24,5 -5,5 -2.76,0 -5,-2.24 -5,-5 0,-2.76 2.24,-5 5,-5 2.76,0 5,2.24 5,5 z"
         style="fill:#000000;fill-opacity:1;fill-rule:evenodd;stroke:#000000;stroke-width:1pt;stroke-opacity:1"
         transform="matrix(0.8,0,0,0.8,5.92,0.8)"
         inkscape:connector-curvature="0" />
    </marker>
    <linearGradient
       id="linearGradient4188"
       osb:paint="solid">
      <stop
         style="stop-color:#a42604;stop-opacity:1;"
         offset="0"
         id="stop4190" />
    </linearGradient>
    <linearGradient
       id="linearGradient4180"
       osb:paint="solid">
      <stop
         style="stop-color:#000000;stop-opacity:1;"
         offset="0"
         id="stop4182" />
    </linearGradient>
    <linearGradient
       inkscape:collect="always"
       xlink:href="#linearGradient14220"
       id="linearGradient14226"
       x1="542.49554"
       y1="365.04892"
       x2="574.51562"
       y2="378.40128"
       gradientUnits="userSpaceOnUse"
       gradientTransform="translate(-9.1863517,-28.579761)" />
  </defs>
  <sodipodi:namedview
     id="base"
     pagecolor="#ffffff"
     bordercolor="#666666"
     borderopacity="1.0"
     inkscape:pageopacity="0.0"
     inkscape:pageshadow="2"
     inkscape:zoom="1.9594286"
     inkscape:cx="288.85905"
     inkscape:cy="208.8359"
     inkscape:document-units="px"
     inkscape:current-layer="layer1"
     showgrid="false"
     inkscape:window-width="1920"
     inkscape:window-height="1056"
     inkscape:window-x="1184"
     inkscape:window-y="24"
     inkscape:window-maximized="1"
     fit-margin-top="0"
     fit-margin-left="0"
     fit-margin-right="0"
     fit-margin-bottom="0"
     showguides="false" />
  <metadata
     id="metadata7">
    <rdf:RDF>
      <cc:Work
         rdf:about="">
        <dc:format>image/svg+xml</dc:format>
        <dc:type
           rdf:resource="http://purl.org/dc/dcmitype/StillImage" />
        <dc:title></dc:title>
      </cc:Work>
    </rdf:RDF>
  </metadata>
  <g
     inkscape:label="Layer 1"
     inkscape:groupmode="layer"
     id="layer1"
     style="display:inline"
     transform="translate(-181.00402,-65.490452)">
    <path
       style="fill:none;fill-rule:evenodd;stroke:#000000;stroke-width:2.5;stroke-linecap:butt;stroke-linejoin:miter;stroke-opacity:1;stroke-miterlimit:4;stroke-dasharray:none;stroke-dashoffset:0"
       d="m 221.83225,360.71717 8.16565,-6.63458 -13.26918,-4.08283 14.28988,-2.55176 -4.08282,-12.75882 18.3727,5.61388 -8.16564,-11.22777 -6.63459,-9.18635 12.24847,2.04141 8.16565,7.6553 12.75882,-0.51036 -0.51036,11.73812 15.82094,-2.04141 -4.08282,5.10353 4.08282,9.18635 17.86235,-3.06212 1.02071,-16.33129 11.73812,7.14494 11.22776,6.12424 -2.04141,12.75882 10.20705,3.06211 5.61389,-10.20705 9.6967,1.53106 3.06212,-6.12424 -4.59318,-7.65529 9.18635,-2.55177 -2.55176,-8.676 -11.73812,-6.12423 9.18636,-14.28988 6.12423,-2.04141 14.80023,4.59317 1.53106,-11.73811 0.51035,-7.6553 -7.65529,2.55177 -21.94517,2.04141 -5.61388,-11.22776 12.24847,-10.71741 -14.28989,2.04141 -4.59317,6.63459 -3.06212,10.71741 -15.31058,-0.51036 4.08282,-12.24847 14.28988,-12.75882 -8.16565,-1.53106 -13.77952,-1.53105 -13.26918,4.08282 0.51035,-9.18635 12.75883,-16.84165 -4.59318,0 -19.39341,2.04141 -18.88306,-6.12423 4.59318,-9.69671 11.73812,3.06212 8.16564,1.02071 8.676,-3.57247 -2.55176,-5.61388 c 0,0 -15.31059,7.14494 -13.77953,0.51035 1.53106,-6.63459 3.57247,-16.84165 3.57247,-16.84165 l 3.57247,-12.24847 c 0,0 3.57247,1.02071 7.65529,4.59318 4.08283,3.57247 12.75882,-10.20706 12.75882,-10.20706 0,0 -8.67599,-2.55176 -10.71741,0 -2.04141,2.55177 -11.22776,19.90377 -11.22776,19.90377 l -18.88306,-2.04142 -3.06211,-12.24847 12.24847,-6.12423 -5.61389,-1.53106 c 0,0 -20.92446,3.06212 -20.92446,-0.51035 0,-3.57247 6.12423,-18.88306 6.12423,-18.88306 0,0 7.65529,-5.10353 11.22776,-1.53106 3.57247,3.57247 7.14494,8.676 7.14494,8.676 l 12.24847,-7.14494 2.04141,-6.12423 c 0,0 -11.22776,-4.59318 -11.73811,-6.63459 -0.51035,-2.04141 -1.02071,-16.33129 -1.02071,-16.33129 0,0 10.20706,2.55176 12.75882,4.59317 2.55177,2.04142 7.14495,12.24847 9.69671,14.28989 2.55176,2.04141 12.24847,4.08282 15.31059,1.53105 3.06211,-2.55176 6.63458,-20.41411 6.63458,-20.41411 l -7.14494,-2.55177 -10.71741,-4.08282 17.86235,-11.73812 c 0,0 4.08283,4.08282 6.12424,5.10353 2.04141,1.02071 5.10353,8.676 5.10353,8.676 l 16.84164,-9.69671 -4.59317,-6.12423 2.55176,-9.18635 6.12423,4.08282 c 0,0 4.59318,9.18635 5.10353,11.73812 0.51036,2.55176 -39.80752,25.00729 -39.80752,25.00729 0,0 9.18635,11.22777 11.73811,12.24847 2.55177,1.02071 15.82094,-10.20706 15.82094,-10.20706 l 5.61389,7.14494 -1.02071,10.20706 c 0,0 9.6967,-13.77953 7.14494,-15.82094 -2.55176,-2.04141 -11.73812,-9.6967 -11.73812,-9.6967 l 15.82094,0.51035 5.10353,-13.26918 11.22776,6.63459 c 0,0 4.08283,6.63459 5.61389,8.676 1.53105,2.04141 9.18635,-0.51035 9.18635,-2.55176 0,-2.04141 4.59317,-11.22777 4.59317,-11.22777 l 8.676,0 8.16565,12.24847 -6.12424,18.37271 -10.20705,8.16564 6.12423,1.53106 c 0,0 12.24847,4.08282 13.77953,0 1.53106,-4.08282 9.18635,-12.24847 11.73811,-13.77953 2.55177,-1.53105 16.3313,-11.22776 16.3313,-11.22776 l -7.6553,-10.71741 -11.22776,-11.73812 11.73812,-9.6967 13.77952,-3.57247 10.20706,14.28988 4.59318,8.676 -6.12424,17.352 5.61388,2.04141 c 0,0 20.92447,-7.6553 19.90377,-10.20706 -1.02071,-2.55176 -10.71741,-15.82094 -8.676,-17.86235 2.04141,-2.04141 25.51764,-10.71741 25.51764,-10.71741 l 5.61388,2.55176 0.51036,16.33129 11.73811,-1.0207 4.08282,5.61388 -7.65529,9.18635 -7.65529,7.6553 c 0,0 5.61388,-3.57247 7.65529,-4.08283"
       id="path14121"
       inkscape:connector-curvature="0" />
    <path
       style="fill:none;fill-rule:evenodd;stroke:#000000;stroke-width:2.5;stroke-linecap:butt;stroke-linejoin:miter;stroke-opacity:1;stroke-miterlimit:4;stroke-dasharray:none;stroke-dashoffset:0"
       d="m 515.28515,153.00355 14.80024,10.71741 -13.26918,7.6553 12.75882,1.53106 14.80024,2.55176 -5.61388,13.26917 -13.26918,0 c 0,0 -15.82094,-3.06211 -15.31059,-5.10352 0.51036,-2.04142 -2.55176,-12.24847 -5.10352,-11.22777 -2.55177,1.02071 -13.77953,7.6553 -13.77953,7.6553 l 1.0207,12.75882 4.59318,-0.51036 2.04141,11.22777 c 0,0 13.77953,-6.63459 13.77953,-4.59318 0,2.04141 -1.53106,9.69671 -1.53106,9.69671 l 12.24847,-1.53106 c 0,0 4.59318,-7.14494 7.65529,-7.6553 3.06212,-0.51035 15.31059,3.57248 15.31059,3.57248 l -7.65529,13.77952 -5.10353,5.10353 c 0,0 6.12423,0 10.20705,-2.55176 4.08283,-2.55177 11.73812,-14.80024 12.75883,-7.14494 1.0207,7.65529 1.0207,11.73811 1.0207,15.31058 0,3.57247 -9.18635,15.31059 -9.18635,15.31059 l -7.14494,-3.06212 5.61388,11.73812 -15.82094,7.14494 5.10353,-1.02071 10.20706,6.12424 -3.06212,10.71741 -19.90376,-2.04141 -6.63459,-20.41412 -17.86235,4.08282 -4.08282,7.6553 -8.16565,-3.06212 c 0,0 -4.08282,-6.12423 -1.53106,-10.20706 2.55177,-4.08282 2.55177,-5.61388 2.55177,-5.61388 l -21.43482,-0.51035 11.73811,-9.69671 7.6553,-9.18635 -14.80024,-2.55176 -17.86235,2.04141 5.10353,10.71741 -6.12423,8.16564 c 0,0 -15.31059,6.63459 -12.24847,10.71742 3.06212,4.08282 12.24847,6.63458 12.24847,6.63458 0,0 3.57247,6.63459 1.53106,7.6553 -2.04142,1.0207 -12.24847,10.20705 -12.24847,10.20705 l 5.10353,3.06212 c 0,0 8.16564,9.6967 10.71741,7.14494 2.55176,-2.55176 16.84164,-11.22776 16.33129,-9.18635 -0.51036,2.04141 -0.51036,12.24847 -0.51036,12.24847 l -3.57247,12.75882 c 0,0 6.63459,1.53106 10.71742,-0.51035 4.08282,-2.04141 15.82093,-9.69671 15.82093,-7.6553 0,2.04142 -1.53105,13.26918 -1.53105,13.26918 l -7.14494,12.75882 c 0,0 15.31058,1.53106 17.35199,1.02071 2.04141,-0.51036 11.73812,-7.6553 11.73812,-7.6553"
       id="path14123"
       inkscape:connector-curvature="0"
       sodipodi:nodetypes="cccccccssccccsccscccsssccccccccccccsccccccccscsccssccssccsc" />
    <circle
       style="opacity:1;fill:#000000;fill-opacity:1;fill-rule:evenodd;stroke:none;stroke-width:4;stroke-miterlimit:4;stroke-dasharray:none;stroke-dashoffset:0"
       id="path14125"
       cx="221.3219"
       cy="364.28964"
       r="6.6345868" />
    <circle
       style="display:inline;opacity:1;fill:#187795;fill-opacity:1;fill-rule:evenodd;stroke:none;stroke-width:4;stroke-miterlimit:4;stroke-dasharray:none;stroke-dashoffset:0"
       id="path14125-4"
       cx="322.88211"
       cy="293.86093"
       r="6.6345868" />
    <circle
       style="display:inline;opacity:1;fill:#187795;fill-opacity:1;fill-rule:evenodd;stroke:none;stroke-width:4;stroke-miterlimit:4;stroke-dasharray:none;stroke-dashoffset:0"
       id="path14125-2"
       cx="299.40588"
       cy="231.08754"
       r="6.6345868" />
    <circle
       style="display:inline;opacity:1;fill:#187795;fill-opacity:1;fill-rule:evenodd;stroke:none;stroke-width:4;stroke-miterlimit:4;stroke-dasharray:none;stroke-dashoffset:0"
       id="path14125-9"
       cx="346.35837"
       cy="110.64426"
       r="6.6345868" />
    <circle
       style="display:inline;opacity:1;fill:#187795;fill-opacity:1;fill-rule:evenodd;stroke:none;stroke-width:4;stroke-miterlimit:4;stroke-dasharray:none;stroke-dashoffset:0"
       id="path14125-6"
       cx="396.37292"
       cy="169.84518"
       r="6.6345868" />
    <circle
       style="display:inline;opacity:1;fill:#187795;fill-opacity:1;fill-rule:evenodd;stroke:none;stroke-width:4;stroke-miterlimit:4;stroke-dasharray:none;stroke-dashoffset:0"
       id="path14125-1"
       cx="507.11951"
       cy="119.8306"
       r="6.6345868" />
    <circle
       style="display:inline;opacity:1;fill:#187795;fill-opacity:1;fill-rule:evenodd;stroke:none;stroke-width:4;stroke-miterlimit:4;stroke-dasharray:none;stroke-dashoffset:0"
       id="path14125-0"
       cx="494.36069"
       cy="261.70868"
       r="6.6345868" />
    <path
       style="fill:none;fill-opacity:1;fill-rule:evenodd;stroke:url(#linearGradient14226);stroke-width:2.5;stroke-linecap:butt;stroke-linejoin:miter;stroke-miterlimit:4;stroke-dasharray:5,2.5;stroke-dashoffset:0;stroke-opacity:1"
       d="m 519.36798,318.86824 c 9.18635,11.73811 11.73811,6.12423 11.73811,6.12423 l 13.26918,-8.16564 0,20.41411 -19.90377,15.82094 -23.98658,0.51035 10.20706,7.6553 c 0,0 16.84164,4.59317 18.88305,4.59317 2.04142,0 10.71741,-5.61388 11.73812,-3.57247 1.02071,2.04141 5.10353,9.18635 5.10353,9.18635 0,0 3.57247,-2.55176 7.65529,-5.61388 4.08282,-3.06212 9.69671,-8.676 9.69671,-8.676 l 6.63458,6.12424"
       id="path14180"
       inkscape:connector-curvature="0" />
    <circle
       style="display:inline;opacity:1;fill:#187795;fill-opacity:1;fill-rule:evenodd;stroke:none;stroke-width:4;stroke-miterlimit:4;stroke-dasharray:none;stroke-dashoffset:0"
       id="path14125-42"
       cx="518.61755"
       cy="316.18896"
       r="6.6345868" />
  </g>
</svg>
