<?xml version="1.0" encoding="UTF-8" standalone="no"?>
<!-- Created with Inkscape (http://www.inkscape.org/) -->

<svg
   xmlns:dc="http://purl.org/dc/elements/1.1/"
   xmlns:cc="http://creativecommons.org/ns#"
   xmlns:rdf="http://www.w3.org/1999/02/22-rdf-syntax-ns#"
   xmlns:svg="http://www.w3.org/2000/svg"
   xmlns="http://www.w3.org/2000/svg"
   xmlns:sodipodi="http://sodipodi.sourceforge.net/DTD/sodipodi-0.dtd"
   xmlns:inkscape="http://www.inkscape.org/namespaces/inkscape"
   width="170.7142mm"
   height="12.542164mm"
   viewBox="0 0 170.7142 12.542164"
   version="1.1"
   id="svg979"
   inkscape:version="0.92.3 (2405546, 2018-03-11)"
   sodipodi:docname="model_brace_kin.svg">
  <defs
     id="defs973" />
  <sodipodi:namedview
     id="base"
     pagecolor="#ffffff"
     bordercolor="#666666"
     borderopacity="1.0"
     inkscape:pageopacity="0.0"
     inkscape:pageshadow="2"
     inkscape:zoom="0.35"
     inkscape:cx="85.466669"
     inkscape:cy="-84.869685"
     inkscape:document-units="mm"
     inkscape:current-layer="layer1"
     showgrid="false"
     fit-margin-top="0"
     fit-margin-left="0"
     fit-margin-right="0"
     fit-margin-bottom="0"
     inkscape:window-width="1920"
     inkscape:window-height="1025"
     inkscape:window-x="0"
     inkscape:window-y="27"
     inkscape:window-maximized="1" />
  <metadata
     id="metadata976">
    <rdf:RDF>
      <cc:Work
         rdf:about="">
        <dc:format>image/svg+xml</dc:format>
        <dc:type
           rdf:resource="http://purl.org/dc/dcmitype/StillImage" />
        <dc:title></dc:title>
      </cc:Work>
    </rdf:RDF>
  </metadata>
  <g
     inkscape:label="Layer 1"
     inkscape:groupmode="layer"
     id="layer1"
     transform="translate(36.220199,-113.83607)">
    <path
       inkscape:connector-curvature="0"
       id="path871"
       style="fill:#187795;fill-opacity:1;fill-rule:nonzero;stroke:none;stroke-width:0.35277778"
       d="m -35.198962,126.22336 v 0 c 0.01976,0.0327 0.04724,0.06 0.08004,0.0796 0.177906,0.10608 0.42157,0.0854 0.611011,0.0275 0.300532,-0.0918 0.555378,-0.30604 0.717586,-0.57281 v 0 c 0.23756,-0.39056 0.113488,-0.89976 -0.277072,-1.13732 -0.390596,-0.23752 -0.899795,-0.11349 -1.13732,0.27711 -0.0635,0.10439 -0.103082,0.22154 -0.115923,0.34304 -0.01983,0.18733 -0.02194,0.37754 0.0018,0.56466 0.01767,0.14047 0.04583,0.2951 0.120085,0.41818 z m -0.155504,-2.52441 c 0.0199,0.33923 0.03732,0.67889 0.04357,1.01868 0.0032,0.17343 0.0085,0.35003 -0.0097,0.52289 v 0 c -0.04808,0.45463 0.281481,0.86212 0.736071,0.9102 0.318488,0.0337 0.627803,-0.11938 0.794244,-0.39299 0.160337,-0.26363 0.242287,-0.57073 0.304235,-0.87034 0.07899,-0.38192 0.123331,-0.77085 0.157445,-1.15902 v 0 c 0.04911,-0.55883 -0.364102,-1.05166 -0.922937,-1.10073 -0.5588,-0.0491 -1.051631,0.3641 -1.100737,0.9229 -0.0043,0.0494 -0.005,0.099 -0.0021,0.14841 z m -0.164501,-2.05909 c 0.0768,0.68428 0.124178,1.37188 0.164501,2.05909 v 0 c 0.03288,0.56 0.513468,0.98736 1.073502,0.95451 0.50292,-0.0295 0.908227,-0.42322 0.952324,-0.92509 0.066,-0.75099 0.111054,-1.50784 0.08043,-2.26187 v 0 c -0.02558,-0.62875 -0.555977,-1.11774 -1.184733,-1.0922 -0.628756,0.0256 -1.117741,0.55598 -1.0922,1.18474 0.0011,0.027 0.0032,0.054 0.0062,0.0808 z m -0.198649,-1.91879 c 0.06177,0.64004 0.12693,1.2798 0.198649,1.91879 v 0 c 0.0702,0.62537 0.634048,1.07541 1.259382,1.0052 0.594113,-0.0667 1.035649,-0.5812 1.011378,-1.17856 -0.02575,-0.63313 -0.04787,-1.2664 -0.06826,-1.8997 v 0 c -0.02138,-0.66443 -0.577321,-1.18573 -1.241743,-1.16435 -0.664421,0.0213 -1.185686,0.57729 -1.164343,1.24171 7.06e-4,0.0257 0.0025,0.0513 0.0049,0.0769 z m -0.199425,-1.72632 c 0.08227,0.57344 0.143792,1.14981 0.19946,1.72635 v 0 c 0.06385,0.66171 0.652004,1.14632 1.31371,1.08246 0.63193,-0.061 1.107828,-0.60226 1.087402,-1.23676 -0.02035,-0.63345 -0.05426,-1.26782 -0.129717,-1.89735 v 0 c -0.08188,-0.68333 -0.702239,-1.1709 -1.385605,-1.08899 -0.683366,0.0819 -1.17094,0.70224 -1.089025,1.38561 0.0011,0.01 0.0025,0.0191 0.0038,0.0287 z m -0.189406,-1.16995 c 0.07348,0.38816 0.133314,0.77896 0.189406,1.16995 v 0 c 0.09775,0.68125 0.729262,1.15429 1.410511,1.05657 0.670137,-0.0961 1.140919,-0.70969 1.060344,-1.38187 -0.05256,-0.43871 -0.11243,-0.87718 -0.194627,-1.31145 v 0 c -0.12894,-0.68086 -0.785389,-1.12829 -1.46625,-0.99938 -0.680826,0.1289 -1.128289,0.78531 -0.999384,1.46618 z m 0,3e-5 v 0 c 0.128905,0.68086 0.785353,1.12829 1.466214,0.99938 0.680862,-0.1289 1.128325,-0.78535 0.99942,-1.46621 0,0 0,0 0,0 -0.03863,-0.20401 -0.07571,-0.41233 -0.08103,-0.62043 v 0 c -0.01764,-0.68979 -0.591115,-1.23465 -1.280866,-1.21701 -0.673735,0.0172 -1.212356,0.56568 -1.2174,1.23962 -0.0025,0.3574 0.04731,0.7142 0.113665,1.06465 z m 1.92091,-0.0843 v 0 c 0.629073,0.0136 1.150091,-0.48525 1.163708,-1.11429 0.0109,-0.50144 -0.307446,-0.95102 -0.784049,-1.1073 -0.337255,-0.11056 -0.693032,-0.19508 -1.050396,-0.16968 -0.326213,0.0232 -0.642902,0.14383 -0.889599,0.36128 -0.299826,0.26433 -0.471276,0.65091 -0.474239,1.04965 v 0 c -0.0052,0.68997 0.550015,1.25349 1.240013,1.25864 0.28956,0.002 0.570901,-0.0963 0.795867,-0.27866 l -0.0014,3.7e-4 z m -0.04717,-0.002 c 0.548887,0.0347 1.098127,0.064 1.647614,0.0877 v 0 c 0.463126,0.0199 0.85478,-0.33934 0.874712,-0.80246 0.01355,-0.31453 -0.150036,-0.61016 -0.423686,-0.76577 -0.530578,-0.30169 -1.091882,-0.54888 -1.671814,-0.73903 v 0 c -0.597888,-0.19601 -1.241495,0.12975 -1.437499,0.72764 -0.196038,0.59789 0.129717,1.24149 0.727604,1.4375 0.09169,0.0301 0.186796,0.0484 0.283069,0.0544 z m 1.647614,0.0877 c 0.218898,0.009 0.437903,0.0232 0.655637,0.0482 0.140229,0.0161 0.281552,0.0354 0.418359,0.0711 v 0 c 0.327731,0.0855 0.662764,-0.11077 0.748313,-0.4385 0.07669,-0.29379 -0.07317,-0.59947 -0.352355,-0.71881 -0.351578,-0.15029 -0.687035,-0.34153 -1.018928,-0.53023 v 0 c -0.402978,-0.22916 -0.915423,-0.0882 -1.144552,0.31475 -0.229165,0.40298 -0.08823,0.91542 0.314748,1.14455 0.115817,0.0659 0.245675,0.10319 0.378778,0.10894 z m 1.074032,0.11931 c 0.299614,0.0782 0.603955,0.13783 0.910343,0.18228 v 0 c 0.313513,0.0455 0.60452,-0.17177 0.650028,-0.48528 0.04424,-0.30486 -0.160267,-0.59022 -0.463162,-0.64631 -0.240136,-0.0445 -0.476567,-0.11198 -0.701322,-0.20804 v 4e-5 c -0.311432,-0.13314 -0.671865,0.0114 -0.804969,0.32289 -0.133103,0.31144 0.01147,0.67187 0.322898,0.80497 0.02797,0.012 0.05676,0.0218 0.08618,0.0295 z m 0.910343,0.18228 c 0.446757,0.0648 0.900112,0.088 1.35068,0.10837 v 4e-5 c 0.331893,0.015 0.613092,-0.24183 0.628121,-0.57372 0.01503,-0.33186 -0.241829,-0.6131 -0.573688,-0.62812 -0.01729,-7.1e-4 -0.03461,-7.1e-4 -0.05189,-1.1e-4 -0.234456,0.01 -0.469441,0.0141 -0.704003,0.006 -0.154447,-0.006 -0.310163,-0.0155 -0.462316,-0.0437 v 4e-5 c -0.311502,-0.0577 -0.610799,0.14799 -0.668514,0.45945 -0.05771,0.31147 0.147991,0.61077 0.459458,0.66852 0.0074,0.001 0.01475,0.002 0.02216,0.004 z m 1.35068,0.10837 c 0.591467,0.0268 1.183887,0.0314 1.775742,0.0158 v 0 c 0.368194,-0.01 0.658813,-0.31598 0.649146,-0.68417 -0.0097,-0.3682 -0.315983,-0.65882 -0.684141,-0.64915 -0.01446,3.5e-4 -0.02889,10e-4 -0.04329,0.002 -0.563916,0.0516 -1.129101,0.0898 -1.694921,0.11303 v 0 c -0.331929,0.0136 -0.58995,0.29376 -0.576333,0.62572 0.01281,0.31182 0.262008,0.56208 0.573793,0.57623 v -4e-5 z m 1.775742,0.0158 c 1.054488,-0.0276 2.108976,-0.0556 3.1635,-0.0836 v 4e-5 c 0.389184,-0.0103 0.696312,-0.33416 0.686011,-0.72334 -0.0103,-0.38918 -0.334151,-0.69631 -0.723335,-0.68601 -0.0018,7e-5 -0.0038,1e-4 -0.0058,1.7e-4 -0.647594,0.0225 -1.295189,0.0473 -1.942359,0.0799 -0.41903,0.0212 -0.838412,0.0438 -1.256312,0.082 v 0 c -0.366783,0.0335 -0.636905,0.3581 -0.603356,0.72489 0.03203,0.35002 0.330235,0.6151 0.681637,0.60589 z m 3.1635,-0.0836 c 1.142576,-0.0302 2.286846,-0.0601 3.427412,-0.13727 v 0 c 0.388373,-0.0263 0.68192,-0.36244 0.655638,-0.75081 -0.026,-0.38372 -0.354789,-0.67578 -0.738893,-0.65631 -1.128501,0.0572 -2.258025,0.0961 -3.387267,0.13529 v -4e-5 c -0.389043,0.0135 -0.693526,0.33987 -0.680014,0.72895 0.01341,0.38682 0.336197,0.69046 0.723124,0.68023 z m 3.427412,-0.13727 c 0.863389,-0.0584 1.725471,-0.1356 2.586567,-0.22094 v 0 c 0.384316,-0.0381 0.664986,-0.38051 0.626886,-0.76479 -0.03806,-0.3843 -0.380506,-0.66497 -0.764787,-0.62691 -0.0014,1.4e-4 -0.0025,2.8e-4 -0.0037,3.5e-4 -0.840881,0.0879 -1.683702,0.16232 -2.528182,0.20514 v 0 c -0.388761,0.0197 -0.687952,0.35084 -0.668267,0.7396 0.01972,0.38876 0.350838,0.68796 0.739599,0.66823 0.004,-2.1e-4 0.008,-3.4e-4 0.01192,-6.9e-4 z m 2.586531,-0.22094 c 0.779816,-0.0773 1.560478,-0.15039 2.342551,-0.20087 v 0 c 0.400932,-0.0259 0.704956,-0.3719 0.679062,-0.77283 -0.0259,-0.40093 -0.371899,-0.70499 -0.772831,-0.6791 -0.01281,7.1e-4 -0.02558,0.002 -0.03835,0.004 -0.783272,0.0924 -1.567603,0.176 -2.35204,0.25798 v 0 c -0.384104,0.0401 -0.66294,0.38407 -0.622793,0.76814 0.04001,0.38266 0.381564,0.66111 0.764398,0.62319 z m 2.342515,-0.20087 c 0.848572,-0.0548 1.697814,-0.0992 2.546985,-0.14281 v 0 c 0.421076,-0.0216 0.744926,-0.38047 0.723301,-0.80158 -0.02163,-0.42107 -0.380506,-0.74489 -0.801582,-0.72326 -0.0036,1.7e-4 -0.0072,3.5e-4 -0.0108,7e-4 -0.864235,0.0567 -1.729634,0.11716 -2.589989,0.21862 v 0 c -0.398991,0.0471 -0.684283,0.40869 -0.637222,0.80768 0.0453,0.38414 0.383293,0.66566 0.769302,0.64075 z m 2.546985,-0.14281 c 1.320342,-0.0678 2.639307,-0.16226 3.9572858,-0.26566 v 0 c 0.424108,-0.0333 0.740902,-0.40404 0.707636,-0.82815 -0.03316,-0.4228 -0.401921,-0.73924 -0.824865,-0.70788 -1.3093698,0.0972 -2.6189868,0.19156 -3.9291328,0.27749 v 0 c -0.420723,0.0276 -0.739457,0.39102 -0.71187,0.81174 0.02734,0.41649 0.384104,0.73389 0.800946,0.71247 z m 3.9572858,-0.26566 c 1.330041,-0.10435 2.661988,-0.19181 3.995488,-0.23711 v 0 c 0.406085,-0.0138 0.724115,-0.35415 0.710319,-0.76027 -0.01349,-0.39627 -0.338561,-0.7106 -0.735084,-0.71074 -1.36412,-3.5e-4 -2.727923,0.0712 -4.087952,0.17209 v 0 c -0.42425,0.0315 -0.7426318,0.40093 -0.7111288,0.82514 0.03147,0.42422 0.4008958,0.7426 0.8251108,0.71113 0.0011,-1e-4 0.0021,-1.7e-4 0.0032,-2.4e-4 z m 3.995488,-0.23711 c 1.131748,-0.0385 2.264024,-0.0609 3.396441,-0.066 v 0 c 0.400296,-0.002 0.723334,-0.3278 0.7215,-0.72809 -0.0019,-0.4003 -0.327766,-0.72334 -0.728062,-0.72154 -0.0054,4e-5 -0.01077,1.1e-4 -0.01617,2.5e-4 -1.132557,0.0304 -2.26554,0.0447 -3.398486,0.0444 v -4e-5 c -0.406324,-1e-4 -0.735818,0.32921 -0.735924,0.73554 -1.05e-4,0.4063 0.329177,0.73579 0.735505,0.7359 0.0084,0 0.0168,-1.4e-4 0.02519,-3.5e-4 z m 3.396404,-0.066 c 0.943893,-0.004 1.88845499,-0.0172 2.83125599,-0.065 v 0 c 0.41507501,-0.0211 0.73448001,-0.37465 0.71342001,-0.78973 -0.02106,-0.41508 -0.374613,-0.73448 -0.78969201,-0.71342 -0.004,2.1e-4 -0.008,3.5e-4 -0.01206,7e-4 -0.920644,0.0616 -1.84329899,0.0934 -2.76560199,0.11808 v 0 c -0.400156,0.0107 -0.715857,0.34381 -0.705133,0.74397 0.01056,0.39388 0.333835,0.70718 0.727816,0.70541 z m 2.83125599,-0.065 c 0.77558101,-0.0394 1.55049201,-0.0912 2.32459201,-0.15304 v 0 c 0.419383,-0.0336 0.732192,-0.40068 0.698643,-0.82006 -0.03351,-0.41939 -0.400651,-0.73216 -0.820034,-0.69865 -1.4e-4,4e-5 -2.65e-4,4e-5 -2.65e-4,4e-5 -0.763341,0.0614 -1.527034,0.11818 -2.29115101,0.16926 v 0 c -0.414689,0.0277 -0.728379,0.38636 -0.700651,0.80106 0.02741,0.40999 0.3786,0.7222 0.788987,0.70139 z m 2.32459201,-0.15304 c 0.848503,-0.0678 1.698273,-0.11899 2.548501,-0.15963 v 0 c 0.421148,-0.0201 0.746231,-0.37786 0.726122,-0.79901 -0.02011,-0.42114 -0.377859,-0.74626 -0.799004,-0.72612 -2.65e-4,0 -0.0011,4e-5 -0.0013,7e-5 -0.866,0.0431 -1.731574,0.0965 -2.59588,0.16602 v 0 c -0.419346,0.0337 -0.731978,0.40104 -0.698217,0.82042 0.03373,0.41921 0.400791,0.73177 0.819994,0.69825 z m 2.548466,-0.15963 c 0.921915,-0.044 1.84457,-0.0719 2.767402,-0.0844 v 0 c 0.422381,-0.006 0.760129,-0.35278 0.75438,-0.77512 -0.0057,-0.42238 -0.35278,-0.76013 -0.775123,-0.75438 -0.940787,0.0128 -1.881328,0.0421 -2.821022,0.0889 v 0 c -0.421111,0.021 -0.745527,0.37931 -0.724535,0.80046 0.02093,0.42051 0.378354,0.74471 0.798898,0.7246 z m 2.767402,-0.0844 c 1.6192132,-0.022 3.2390292,-0.0124 4.8583132,-0.007 v 0 c 0.429438,0.001 0.778862,-0.34529 0.780415,-0.77477 0.0013,-0.42943 -0.345334,-0.77886 -0.774771,-0.78041 -0.0019,0 -0.0038,0 -0.0057,0 -1.626306,0.006 -3.252787,0.0101 -4.8789882,0.0322 v 0 c -0.422343,0.006 -0.760095,0.35278 -0.754343,0.77512 0.0057,0.42238 0.352777,0.76013 0.775124,0.75438 z m 4.8583132,-0.007 c 1.861257,0.007 3.722582,0.0112 5.583839,0.001 v 0 c 0.436491,-0.002 0.788492,-0.35804 0.786164,-0.79453 -0.0024,-0.43649 -0.358034,-0.78849 -0.794525,-0.78617 0,0 0,0 0,0 -1.858539,0.01 -3.717044,0.0172 -5.575583,0.0241 v 0 c -0.429438,0.002 -0.776288,0.35105 -0.774666,0.78053 0.0019,0.42721 0.347557,0.77311 0.774771,0.77466 z m 5.583839,0.001 c 1.850106,-0.01 3.700285,-0.0103 5.550392,-0.009 v 0 c 0.437552,2.5e-4 0.792445,-0.35426 0.792694,-0.79181 2.46e-4,-0.43755 -0.354296,-0.79244 -0.791845,-0.79269 -2.65e-4,0 -7.94e-4,0 -7.94e-4,0 -1.852842,10e-4 -3.705772,0.003 -5.558668,0.0131 v 0 c -0.436528,0.002 -0.788493,0.35804 -0.786164,0.79453 0.0024,0.43649 0.358034,0.78849 0.794525,0.78617 z m 5.550392,-0.009 c 1.752388,0.001 3.507599,0.006 5.258294,0.0916 v 0 c 0.452615,0.0221 0.83746,-0.32695 0.859544,-0.77956 0.02207,-0.45262 -0.326956,-0.83746 -0.779568,-0.85955 -0.0078,-3.5e-4 -0.01553,-7e-4 -0.02328,-7e-4 -1.771298,-0.0361 -3.543406,-0.0371 -5.314985,-0.0362 v 0 c -0.437552,2.4e-4 -0.792059,0.35514 -0.791811,0.79269 2.46e-4,0.4372 0.354611,0.7916 0.791811,0.79181 z m 5.258294,0.0916 c 1.036074,0.0506 2.072111,0.10256 3.107831,0.15992 v 0 c 0.482883,0.0267 0.896022,-0.34304 0.922798,-0.82593 0.02674,-0.48291 -0.343043,-0.89605 -0.825961,-0.92279 -0.01331,-7.1e-4 -0.02664,-0.001 -0.04001,-0.001 -1.036071,-0.01 -2.072074,-0.0287 -3.107971,-0.0498 v 0 c -0.453072,-0.009 -0.827865,0.35059 -0.837072,0.80366 -0.0091,0.444 0.336798,0.8146 0.78038,0.83626 z m 3.107831,0.15992 c 0.879017,0.0487 1.75895,0.0804 2.639097,0.0984 v 0 c 0.499425,0.0102 0.912564,-0.38636 0.922761,-0.88579 0.01019,-0.49943 -0.386364,-0.91257 -0.885791,-0.92276 -0.873019,-0.0178 -1.746075,-0.0315 -2.619235,-0.0399 v 0 c -0.483587,-0.005 -0.879403,0.38365 -0.88406,0.86724 -0.0045,0.46806 0.359868,0.85693 0.827228,0.88279 z m 2.639097,0.0984 c 1.169633,0.0239 2.339692,0.0277 3.509539,0.0276 v 4e-5 c 0.498475,-7e-5 0.902581,-0.40421 0.90251,-0.90272 -3.5e-5,-0.49788 -0.403225,-0.9017 -0.901134,-0.90251 -1.157994,-0.002 -2.316165,-0.007 -3.473945,-0.0309 v 0 c -0.499428,-0.0102 -0.912566,0.38636 -0.922761,0.88579 -0.01024,0.49942 0.386361,0.91256 0.885791,0.92276 0,0 0,0 0,0 z m 3.509539,0.0276 c 1.428713,-1.4e-4 2.857394,0.0288 4.285014,0.085 v 0 c 0.495194,0.0195 0.912461,-0.36618 0.931934,-0.86137 0.01945,-0.4941 -0.364527,-0.91084 -0.858557,-0.93183 -1.451467,-0.0617 -2.904207,-0.0946 -4.357015,-0.0969 v 0 c -0.498512,-7.1e-4 -0.903253,0.40262 -0.904066,0.90113 -7.93e-4,0.49851 0.402625,0.90329 0.901137,0.9041 2.64e-4,0 0.0011,0 0.0013,0 v -4e-5 z m 4.285014,0.085 c 1.244177,0.049 2.488211,0.10383 3.731295,0.176 v -3e-5 c 0.498017,0.0289 0.925195,-0.35137 0.954087,-0.84938 0.02893,-0.49806 -0.351366,-0.92523 -0.849418,-0.95413 -0.0036,-2.1e-4 -0.0072,-3.5e-4 -0.01072,-7e-4 -1.250492,-0.0576 -2.501193,-0.11194 -3.751863,-0.1651 v 0 c -0.495157,-0.021 -0.913588,0.36329 -0.934648,0.85845 -0.02103,0.49512 0.363291,0.91359 0.858448,0.93461 0.0011,7e-5 0.0019,1.1e-4 0.0028,1.4e-4 z m 3.731295,0.176 c 1.031806,0.0599 2.063326,0.12471 3.094495,0.19481 v 0 c 0.50705,0.0345 0.946047,-0.34862 0.980511,-0.85566 0.03447,-0.50705 -0.348649,-0.94601 -0.855697,-0.98048 -0.0028,-2.1e-4 -0.006,-3.5e-4 -0.009,-7e-4 -1.038437,-0.0604 -2.07726,-0.1143 -3.116332,-0.16221 v 0 c -0.498334,-0.023 -0.920964,0.36237 -0.943927,0.86074 -0.02278,0.49414 0.356129,0.91468 0.849982,0.94333 v 3e-5 z m 3.094495,0.19481 c 0.799679,0.0544 1.600941,0.0876 2.401713,0.12135 1.355865,0.0571 2.712119,0.10531 4.068373,0.15145 v 0 c 0.514562,0.0175 0.94587,-0.38541 0.963367,-0.89997 0.01752,-0.51453 -0.385411,-0.94587 -0.899972,-0.96337 -7.94e-4,0 -0.0011,-3e-5 -0.0019,-7e-5 -1.351949,-0.0435 -2.703864,-0.0887 -4.055533,-0.14051 -0.786942,-0.0302 -1.574236,-0.0599 -2.360472,-0.10558 v 0 c -0.507365,-0.0295 -0.942552,0.35792 -0.972008,0.86525 -0.02928,0.50384 0.352708,0.93723 0.856226,0.97145 z m 6.470123,0.2728 c 2.170642,0.0738 4.34167,0.14351 6.511748,0.23361 v 0 c 0.517454,0.0215 0.95433,-0.38058 0.97582,-0.89803 0.0215,-0.51745 -0.380579,-0.95437 -0.898032,-0.97582 -2.65e-4,-3e-5 -7.94e-4,-3e-5 -0.0013,-7e-5 -2.175018,-0.0874 -4.350986,-0.15303 -6.526602,-0.2231 v 0 c -0.514584,-0.0165 -0.945186,0.38718 -0.96173,0.90174 -0.01654,0.51393 0.386151,0.94421 0.900041,0.96167 z m 6.511711,0.23361 c 1.059427,0.044 2.118467,0.0963 3.177007,0.15748 v 0 c 0.52289,0.0302 0.97131,-0.36911 1.00154,-0.892 0.0302,-0.52288 -0.36914,-0.97127 -0.892,-1.00153 -0.004,-2.2e-4 -0.008,-3.6e-4 -0.0114,-7.1e-4 -1.06606,-0.0487 -2.13219,-0.0945 -3.198534,-0.1373 v 0 c -0.517488,-0.0208 -0.953839,0.38185 -0.97462,0.89934 -0.02077,0.51699 0.381106,0.9531 0.898068,0.97458 z m 3.177007,0.15748 c 1.01611,0.0588 2.03268,0.11014 3.04963,0.15219 v -4e-5 c 0.53005,0.022 0.97748,-0.38999 0.99938,-0.92001 0.0219,-0.53004 -0.38999,-0.97747 -0.92004,-0.99938 -0.001,-7e-5 -0.002,-1.1e-4 -0.004,-1.4e-4 -1.00929,-0.038 -2.01845,-0.0806 -3.02736,-0.12675 v 3e-5 c -0.5232,-0.0239 -0.96675,0.38079 -0.9907,0.90403 -0.0237,0.51872 0.37419,0.96008 0.89259,0.99007 z m 3.04963,0.15219 c 0.97582,0.0403 1.95157,0.0829 2.92717,0.12753 v 0 c 0.53164,0.0244 0.98235,-0.38686 1.00669,-0.91849 0.0243,-0.53164 -0.38689,-0.98231 -0.91849,-1.00669 -1.8e-4,0 -2.7e-4,0 -2.7e-4,0 -0.97948,-0.0443 -1.95922,-0.085 -2.93899,-0.12192 v 0 c -0.53012,-0.02 -0.97603,0.39359 -0.996,0.92368 -0.0199,0.52874 0.39152,0.97402 0.92015,0.99585 v 4e-5 z m 2.92717,0.12753 c 1.01247,0.0464 2.02512,0.0891 3.03788,0.12876 v 0 c 0.53484,0.0209 0.98545,-0.39571 1.00637,-0.93059 0.0209,-0.53488 -0.39568,-0.98545 -0.93056,-1.00637 -0.002,-1.1e-4 -0.004,-1.8e-4 -0.007,-2.5e-4 -1.00676,-0.0327 -2.0133,-0.0712 -3.01953,-0.11673 v 0 c -0.53164,-0.0241 -0.98213,0.38742 -1.00619,0.91906 -0.0241,0.53142 0.3871,0.98181 0.91853,1.00612 z m 3.03788,0.12876 c 0.99338,0.0389 1.98663,0.0819 2.97963,0.13028 v 0 c 0.53901,0.0263 0.9972,-0.38943 1.02344,-0.9284 0.0263,-0.53898 -0.38939,-0.9972 -0.9284,-1.02345 -0.001,-3e-5 -0.002,-1e-4 -0.004,-1.7e-4 -1.00033,-0.045 -2.00099,-0.083 -3.00182,-0.11547 v 0 c -0.53502,-0.0173 -0.9828,0.40228 -1.00016,0.9373 -0.0173,0.53248 0.39847,0.97906 0.93084,0.99991 z m 2.97963,0.13028 c 0.92791,0.0452 1.8554,0.098 2.78236,0.1596 v 0 c 0.54536,0.0362 1.01684,-0.37652 1.05307,-0.92188 0.0363,-0.54539 -0.37648,-1.01688 -0.92188,-1.05311 -0.005,-3.2e-4 -0.01,-7.1e-4 -0.0144,-7.1e-4 -0.93574,-0.0485 -1.87162,-0.0936 -2.80765,-0.13578 v 0 c -0.53908,-0.0243 -0.99579,0.39306 -1.02006,0.93214 -0.0242,0.53767 0.39095,0.99371 0.92855,1.01988 z m 2.78236,0.1596 c 0.90508,0.0601 1.80999,0.12203 2.7148,0.18584 v 4e-5 c 0.55185,0.0389 1.03079,-0.37691 1.0697,-0.92872 0.0389,-0.55185 -0.37688,-1.03079 -0.92873,-1.0697 -10e-4,-7e-5 -0.002,-1.4e-4 -0.003,-2.1e-4 -0.91157,-0.0615 -1.82353,-0.11578 -2.73596,-0.16309 v 0 c -0.54582,-0.0283 -1.01127,0.3913 -1.03953,0.93712 -0.028,0.54024 0.38298,1.00288 0.92273,1.03872 z m 2.71483,0.18584 c 1.12601,0.0794 2.2526,0.15036 3.3793,0.21915 v 0 c 0.5533,0.0338 1.02923,-0.38739 1.06303,-0.94068 0.0338,-0.55334 -0.38739,-1.02927 -0.94072,-1.06303 0,0 0,0 0,0 -1.12141,-0.0685 -2.24275,-0.13836 -3.36367,-0.21403 v 0 c -0.55196,-0.0373 -1.02962,0.37998 -1.06687,0.93193 -0.0372,0.5508 0.37825,1.02786 0.92893,1.0667 z m 3.3793,0.21915 c 1.8233,0.11134 3.64914,0.18246 5.47455,0.24839 v 0 c 0.5473,0.0198 1.00697,-0.40785 1.02676,-0.95515 0.0196,-0.54454 -0.40376,-1.00294 -0.94816,-1.02647 -1.81078,-0.0782 -3.62172,-0.16006 -5.43084,-0.27048 v 0 c -0.55333,-0.0338 -1.02926,0.38739 -1.06302,0.94072 -0.0338,0.5533 0.38738,1.02923 0.94071,1.06299 z m 5.47458,0.24839 c 1.57999,0.0571 3.16012,0.11716 4.74067,0.1567 v 0 c 0.528,0.0132 0.96671,-0.4041 0.97991,-0.93207 0.0129,-0.51474 -0.38411,-0.94728 -0.89807,-0.97847 -1.58013,-0.0959 -3.16244,-0.15949 -4.74394,-0.22778 v 0 c -0.54716,-0.0236 -1.00983,0.40075 -1.03346,0.94787 -0.0236,0.54716 0.40075,1.00983 0.94787,1.03347 0.002,1e-4 0.005,2.1e-4 0.007,2.9e-4 z m 4.7407,0.1567 c 1.06052,0.0265 2.12111,0.0504 3.181739,0.0736 v 3e-5 c 0.51619,0.0113 0.94375,-0.39804 0.95501,-0.91422 0.0113,-0.51619 -0.39804,-0.94375 -0.91419,-0.95501 -8e-4,0 -10e-4,-3e-5 -0.002,-3e-5 -1.046759,-0.021 -2.093869,-0.0514 -3.139049,-0.11487 v 0 c -0.52719,-0.032 -0.98047,0.36943 -1.01247,0.89662 -0.032,0.52716 0.36946,0.98048 0.89662,1.01248 0.0113,6.9e-4 0.0227,0.001 0.034,0.001 z m 3.181709,0.0736 c 1.55373,0.034 3.10804,0.0418 4.66206,0.0425 v 0 c 0.51724,2.5e-4 0.93673,-0.41885 0.93698,-0.93609 2.4e-4,-0.51721 -0.41886,-0.93673 -0.9361,-0.93695 -1.54128,-6.9e-4 -3.08278,-0.008 -4.62379,-0.0387 v 0 c -0.516179,-0.0103 -0.943039,0.39973 -0.953379,0.91592 -0.0103,0.51555 0.39875,0.94205 0.914229,0.95334 z m 4.66206,0.0425 c 1.4503,7.1e-4 2.90244,-0.004 4.35162,-0.068 v 0 c 0.49886,-0.022 0.88544,-0.44432 0.86339,-0.94322 -0.0214,-0.48422 -0.4208,-0.86543 -0.90548,-0.86427 -1.43619,0.004 -2.87246,0.003 -4.30865,0.002 v 0 c -0.51724,-2.5e-4 -0.93673,0.41885 -0.93698,0.9361 -2.1e-4,0.51724 0.41886,0.93669 0.9361,0.93694 z m 4.35162,-0.068 c 0.66047,-0.0292 1.32172,-0.0421 1.98272,-0.052 0.97338,-0.0146 1.94691,-0.0198 2.9204,-0.0215 v 0 c 0.47889,-7.1e-4 0.86638,-0.38975 0.86554,-0.86865 -8e-4,-0.4779 -0.38827,-0.86501 -0.86618,-0.8655 -1.64821,-0.002 -3.29639,-0.004 -4.94457,2.1e-4 v 0 c -0.49939,0.001 -0.90321,0.407 -0.90201,0.90636 10e-4,0.49939 0.40696,0.90321 0.90635,0.90201 0.0126,-3e-5 0.0251,-3.2e-4 0.0378,-6.9e-4 z m 4.90312,-0.0735 c 1.58771,-0.003 3.17563,-0.008 4.76331,0.006 v 0 c 0.46288,0.004 0.84137,-0.36798 0.84539,-0.83086 0.004,-0.45149 -0.35048,-0.82494 -0.80154,-0.84462 -0.63543,-0.0278 -1.27163,-0.0383 -1.90754,-0.0468 -0.96668,-0.0129 -1.93351,-0.0168 -2.90026,-0.0177 v 0 c -0.47886,-3.4e-4 -0.86748,0.38728 -0.86797,0.86617 -2.7e-4,0.47886 0.38731,0.86748 0.86617,0.86798 7.9e-4,0 0.002,0 0.002,0 z m 4.76331,0.006 c 1.55963,0.0135 3.11936,0.0106 4.67903,0.009 v 4e-5 c 0.44746,-3.4e-4 0.80994,-0.36336 0.80959,-0.81083 -2.7e-4,-0.44672 -0.3622,-0.80888 -0.80895,-0.80959 -0.93465,-0.001 -1.86923,-0.006 -2.80385,-0.0188 -0.61073,-0.009 -1.22174,-0.019 -1.83197,-0.0457 v 0 c -0.46249,-0.0202 -0.85376,0.33831 -0.87394,0.80077 -0.0202,0.46245 0.33832,0.85375 0.80077,0.87393 0.01,3.7e-4 0.0196,7.2e-4 0.0293,7.2e-4 z m 4.67903,0.009 c 0.91888,-6.9e-4 1.8379,-0.005 2.75661,-0.022 0.56155,-0.0106 1.12437,-0.0215 1.68465,-0.0626 v 0 c 0.4426,-0.0324 0.77509,-0.41755 0.7426,-0.86014 -0.0323,-0.44094 -0.4148,-0.77294 -0.85591,-0.74288 -0.53199,0.0362 -1.06627,0.0442 -1.59925,0.0526 -0.90925,0.0144 -1.81867,0.0161 -2.72806,0.0146 v 0 c -0.44747,-6.9e-4 -0.81076,0.3615 -0.81143,0.80896 -8e-4,0.44746 0.36149,0.81075 0.80896,0.81146 7.9e-4,0 0.001,0 0.002,0 v -4e-5 z m 4.44126,-0.0846 c 0.56698,-0.0416 1.13718,-0.0844 1.69877,-0.17568 v 0 c 0.44157,-0.0718 0.74136,-0.48786 0.6696,-0.92943 -0.0717,-0.44154 -0.48789,-0.74133 -0.92942,-0.66957 -0.009,0.001 -0.0182,0.003 -0.0272,0.005 -0.20045,0.0396 -0.40379,0.0651 -0.60678,0.0876 -0.30536,0.0338 -0.61175,0.0583 -0.91824,0.0792 v 0 c -0.44277,0.0301 -0.77724,0.41345 -0.74711,0.85623 0.0301,0.44273 0.41349,0.77724 0.85622,0.74707 10e-4,-7e-5 0.003,-1.7e-4 0.004,-2.9e-4 z m 1.69873,-0.17565 c 0.45424,-0.0738 0.92308,-0.0728 1.38187,-0.0692 v 0 c 0.46383,0.004 0.84282,-0.36943 0.84645,-0.83326 0.004,-0.46383 -0.36939,-0.84279 -0.83322,-0.84642 -0.0117,-1.1e-4 -0.0235,3e-5 -0.0352,3.5e-4 -0.54959,0.0187 -1.10627,0.0474 -1.6469,0.15431 v 0 c -0.43886,0.0868 -0.72426,0.51286 -0.63751,0.95172 0.0847,0.42827 0.49357,0.7124 0.92449,0.64241 z m 1.38187,-0.0692 c 0.2075,0.002 0.41832,0.004 0.62396,0.0354 l -2.7e-4,6.9e-4 c 0.42743,0.26974 0.99258,0.14189 1.26228,-0.28554 0.26973,-0.42742 0.14188,-0.99257 -0.28554,-1.26231 -0.0374,-0.0236 -0.0764,-0.0444 -0.11681,-0.0624 -0.21586,-0.0959 -0.45593,-0.10975 -0.6888,-0.11539 -0.27209,-0.007 -0.54461,0.001 -0.81657,0.0102 v 0 c -0.46359,0.0158 -0.82659,0.40439 -0.81079,0.86797 0.0153,0.4499 0.38262,0.80772 0.83277,0.81125 z m 0.24264,-0.45717 c 0.0214,0.20497 0.0162,0.41385 0.0137,0.61948 h 4e-5 c -0.007,0.54176 0.42714,0.98633 0.9689,0.99296 0.5418,0.007 0.98633,-0.42717 0.993,-0.96893 1e-4,-0.009 7e-5,-0.0184 -7e-5,-0.0276 -0.004,-0.27047 -0.0187,-0.54398 -0.0748,-0.80927 -0.031,-0.14679 -0.0763,-0.29129 -0.14549,-0.42478 -0.11243,-0.21689 -0.28959,-0.39885 -0.51456,-0.49876 v 0 c -0.46189,-0.20517 -1.00266,0.003 -1.20784,0.46486 -0.0914,0.20588 -0.10372,0.43826 -0.0345,0.65264 l 0.002,-7.1e-4 z m 0.0973,2.13001 v 0 c 0.0802,0.53869 0.58191,0.91037 1.12057,0.83019 0.53043,-0.079 0.90053,-0.56734 0.83312,-1.09936 -0.0523,-0.41251 -0.0689,-0.82946 -0.0755,-1.24489 v 0 c -0.009,-0.54172 -0.4547,-0.97395 -0.99642,-0.96537 -0.53104,0.008 -0.95892,0.43787 -0.96541,0.9689 -0.006,0.50401 0.009,1.01134 0.0836,1.51053 z m 0,0 c 0.0973,0.65401 0.23845,1.30242 0.37487,1.94909 v 0 c 0.11373,0.53926 0.64311,0.8842 1.18237,0.77047 0.53929,-0.11377 0.88423,-0.64315 0.77046,-1.18241 -0.002,-0.008 -0.004,-0.017 -0.006,-0.0255 -0.0876,-0.36728 -0.17248,-0.73523 -0.24846,-1.10511 -0.046,-0.22384 -0.0911,-0.44888 -0.11984,-0.67571 v 0 c -0.0685,-0.54032 -0.56198,-0.9228 -1.10229,-0.85433 -0.54032,0.0685 -0.9228,0.56198 -0.85432,1.10229 0.001,0.007 0.002,0.0142 0.003,0.0212 z m 0.37487,1.94909 c 0.0775,0.3676 0.15642,0.73498 0.24285,1.10063 0.0523,0.22148 0.10354,0.44546 0.17871,0.66058 h 4e-5 c 0.18584,0.53167 0.7675,0.81206 1.29917,0.62618 0.53171,-0.18584 0.81206,-0.7675 0.62622,-1.29917 -0.003,-0.008 -0.006,-0.0162 -0.009,-0.0243 -0.0555,-0.14682 -0.0913,-0.30307 -0.13134,-0.45455 -0.0918,-0.34763 -0.17632,-0.69709 -0.25971,-1.0468 v 0 c -0.12785,-0.53611 -0.66605,-0.86709 -1.20216,-0.73924 -0.52621,0.12545 -0.85662,0.64734 -0.74496,1.17665 z m 0.42164,1.76128 c 0.12297,0.35179 0.40982,0.63557 0.76418,0.7517 0.29468,0.0966 0.64167,0.0763 0.89966,-0.10714 v 0 c 0.0807,-0.0574 0.1494,-0.13021 0.202,-0.21424 0.20567,-0.32854 0.18337,-0.77692 0.0506,-1.12776 v 0 c -0.19928,-0.52677 -0.78789,-0.79227 -1.3147,-0.59295 -0.51734,0.19572 -0.78436,0.76824 -0.6018,1.29039 z" />
  </g>
</svg>
