<?xml version="1.0" encoding="UTF-8" standalone="no"?>
<!-- Created with Inkscape (http://www.inkscape.org/) -->

<svg
   xmlns:dc="http://purl.org/dc/elements/1.1/"
   xmlns:cc="http://creativecommons.org/ns#"
   xmlns:rdf="http://www.w3.org/1999/02/22-rdf-syntax-ns#"
   xmlns:svg="http://www.w3.org/2000/svg"
   xmlns="http://www.w3.org/2000/svg"
   xmlns:sodipodi="http://sodipodi.sourceforge.net/DTD/sodipodi-0.dtd"
   xmlns:inkscape="http://www.inkscape.org/namespaces/inkscape"
   version="1.1"
   id="svg5278"
   xml:space="preserve"
   width="234.41676"
   height="43.179626"
   viewBox="0 0 234.41677 43.179627"
   sodipodi:docname="noise_arrow.svg"
   inkscape:version="0.92.3 (2405546, 2018-03-11)"><metadata
     id="metadata5284"><rdf:RDF><cc:Work
         rdf:about=""><dc:format>image/svg+xml</dc:format><dc:type
           rdf:resource="http://purl.org/dc/dcmitype/StillImage" /><dc:title></dc:title></cc:Work></rdf:RDF></metadata><defs
     id="defs5282"><clipPath
       clipPathUnits="userSpaceOnUse"
       id="clipPath5296"><path
         d="M 0,-2.868931e-5 H 595.276 V 841.88997 H 0 Z"
         id="path5294"
         inkscape:connector-curvature="0" /></clipPath><clipPath
       id="clipPath10228"
       clipPathUnits="userSpaceOnUse"><path
         inkscape:connector-curvature="0"
         id="path10226"
         d="M 0,-2.868931e-5 H 595.276 V 841.88997 H 0 Z" /></clipPath></defs><sodipodi:namedview
     pagecolor="#ffffff"
     bordercolor="#666666"
     borderopacity="1"
     objecttolerance="10"
     gridtolerance="10"
     guidetolerance="10"
     inkscape:pageopacity="0"
     inkscape:pageshadow="2"
     inkscape:window-width="1920"
     inkscape:window-height="1025"
     id="namedview5280"
     showgrid="false"
     fit-margin-top="0"
     fit-margin-left="0"
     fit-margin-right="0"
     fit-margin-bottom="0"
     inkscape:zoom="2.3786081"
     inkscape:cx="152.78282"
     inkscape:cy="-39.951933"
     inkscape:window-x="0"
     inkscape:window-y="27"
     inkscape:window-maximized="1"
     inkscape:current-layer="g5286" /><g
     id="g5286"
     inkscape:groupmode="layer"
     inkscape:label="Untitled Notebook (1)"
     transform="matrix(1.3333333,0,0,-1.3333333,-592.59867,1112.3483)"><path
       inkscape:connector-curvature="0"
       id="path10244"
       style="fill:#187795;fill-opacity:1;fill-rule:nonzero;stroke:none;stroke-width:0.99999994"
       d="m 448.84478,815.42545 c 0.6191,-0.0194 1.2398,-0.0152 1.8591,-0.0195 1.3469,-0.009 2.6937,-0.0164 4.0406,-0.0231 5.223,-0.0262 10.4461,-0.0463 15.6691,-0.0659 v 0 c 0.992,-0.004 1.7992,0.7974 1.8029,1.7894 0.004,0.992 -0.7974,1.7992 -1.7894,1.803 -0.005,0 -0.009,0 -0.0135,0 -5.2367,-0.0197 -10.476,-0.0441 -15.7107,-0.2013 -1.4489,-0.0435 -2.9004,-0.0903 -4.3458,-0.2055 -0.7191,-0.0573 -1.6164,-0.0618 -2.2427,-0.4701 v 0 c -0.6565,-0.428 -0.8417,-1.3072 -0.4137,-1.9636 0.2533,-0.3886 0.6805,-0.6288 1.1441,-0.6434 z m 21.5687,-0.1085 c 5.5207,-0.0209 11.0414,-0.0349 16.562,-0.006 1.8144,0.01 3.629,0.0236 5.4432,0.0544 1.041,0.0177 2.0827,0.0371 3.1227,0.0862 v 10e-5 c 0.9062,0.0428 1.6062,0.8121 1.5634,1.7184 -0.0397,0.8406 -0.7083,1.5153 -1.5486,1.5626 -1.1564,0.0651 -2.3156,0.0886 -3.4735,0.1108 -1.7013,0.0326 -3.4027,0.0491 -5.1043,0.0609 -5.5215,0.0383 -11.0433,0.0254 -16.5649,0.005 v 0 c -0.992,-0.004 -1.7931,-0.811 -1.7894,-1.803 0.004,-0.9867 0.8027,-1.7857 1.7894,-1.7894 z m 25.1279,0.135 c 3.0844,0.1457 6.173,0.1974 9.2607,0.1768 v 0 c 0.7666,-0.005 1.3922,0.6122 1.3973,1.3788 0.005,0.7614 -0.6042,1.3848 -1.3655,1.3972 -3.0942,0.0503 -6.1879,0.1544 -9.2777,0.3283 v 0 c -0.9059,0.051 -1.6815,-0.642 -1.7325,-1.5478 -0.051,-0.9058 0.642,-1.6815 1.5478,-1.7325 0.0566,-0.003 0.1133,-0.003 0.1699,-7e-4 z m 9.2607,0.1768 c 3.2556,-0.0217 6.5113,-0.0105 9.7666,0.0336 v 0 c 0.7141,0.01 1.2852,0.5964 1.2755,1.3105 -0.009,0.6993 -0.5732,1.2644 -1.2725,1.2755 -3.246,0.0514 -6.4919,0.1036 -9.7378,0.1564 v 0 c -0.7665,0.0125 -1.398,-0.5988 -1.4105,-1.3654 -0.0125,-0.7665 0.5988,-1.398 1.3654,-1.4105 0.004,0 0.009,-1e-4 0.0133,-1e-4 z m 9.7666,0.0336 c 2.4822,0.0336 4.9649,0.0383 7.4473,0.0437 4.21639,0.009 8.4327,0.006 12.649,-4e-4 v 0 c 0.6432,-9e-4 1.16529,0.5196 1.1663,1.1628 7.5e-4,0.6397 -0.5144,1.1604 -1.1541,1.1661 -6.70181,0.06 -13.4042,0.1075 -20.1055,0.2138 v 0 c -0.7141,0.0113 -1.3022,-0.5584 -1.3135,-1.2725 -0.0113,-0.7141 0.5584,-1.3022 1.2725,-1.3135 0.0127,-2e-4 0.0253,-2e-4 0.038,0 z m 20.09639,0.0433 c 8.3064,-0.0121 16.61301,-0.0326 24.91931,-0.094 v 0 c 0.62209,-0.005 1.1301,0.496 1.1347,1.1181 0.005,0.6222 -0.496,1.1302 -1.1181,1.1348 -7.5e-4,0 -0.003,0 -0.004,0 -8.3067,0.0285 -16.61301,0.0955 -24.91941,0.17 v 0 c -0.6431,0.006 -1.1691,-0.5108 -1.17489,-1.1539 -0.006,-0.6431 0.5109,-1.1692 1.15399,-1.1749 0.003,-10e-5 0.006,-10e-5 0.009,-10e-5 z m 24.91931,-0.094 c 8.5155,-0.0629 17.0307,-0.1807 25.54549,-0.3076 v 0 c 0.76131,-0.0114 1.38761,0.5966 1.39901,1.3578 0.0113,0.7613 -0.5966,1.3876 -1.35791,1.3989 -0.0135,2e-4 -0.027,2e-4 -0.0405,0 -8.5104,-0.1233 -17.02249,-0.2256 -25.5339,-0.1962 v 0 c -0.62209,0.002 -1.12819,-0.5004 -1.1304,-1.1225 -0.002,-0.6205 0.49781,-1.1258 1.11821,-1.1304 z m 25.54549,-0.3076 c 4.3686,-0.0651 8.73711,-0.1359 13.10511,-0.2333 2.517,-0.0562 5.03559,-0.1093 7.5506,-0.2268 v 0 c 0.9864,-0.0461 1.8234,0.7162 1.8695,1.7026 0.0461,0.9864 -0.7162,1.8234 -1.7026,1.8695 -0.0435,0.002 -0.0871,0.003 -0.1306,9.8e-4 -6.8954,-0.1817 -13.7945,-0.2566 -20.69141,-0.3566 v 0 c -0.76119,-0.011 -1.36939,-0.6371 -1.3584,-1.3983 0.0108,-0.7455 0.61241,-1.3473 1.3578,-1.3584 z m 20.65571,-0.4601 c 1.9876,-0.0928 3.9821,-0.0172 5.9658,0.1195 2.5567,0.1762 5.10509,0.4657 7.64429,0.8088 v 0 c 0.54711,0.074 0.93071,0.5774 0.8568,1.1246 -0.0624,0.4616 -0.4353,0.8189 -0.8991,0.8616 -2.541,0.2338 -5.08629,0.4325 -7.63519,0.5574 -1.9631,0.0961 -3.931,0.1533 -5.8962,0.1015 v 0 c -0.9872,-0.026 -1.76631,-0.8473 -1.7403,-1.8344 0.0246,-0.9366 0.7681,-1.6953 1.7039,-1.739 z" /><path
       inkscape:connector-curvature="0"
       id="path10246"
       style="fill:#187795;fill-opacity:1;fill-rule:nonzero;stroke:none;stroke-width:0.99999994"
       d="m 458.87208,830.63965 v 0 c 0.7032,-0.346 1.5537,-0.0565 1.8997,0.64671 0.1789,0.3636 0.1938,0.78639 0.041,1.1617 -0.2337,0.5738 -0.5423,1.1103 -1.0676,1.4651 v 0 c -0.8208,0.55439 -1.9357,0.33839 -2.4901,-0.4824 -0.5544,-0.82091 -0.3384,-1.9358 0.4824,-2.4902 0.3339,-0.2255 0.7339,-0.332 1.1357,-0.3024 l -9.8e-4,10e-4 z m 0.2251,-1.0104 c 0.3995,0.62541 0.8106,1.2461 1.1882,1.8851 v 0 c 0.4826,0.8166 0.2459,1.8679 -0.5402,2.39881 -0.5109,0.345 -1.1533,0.4206 -1.7459,0.2838 -0.3677,-0.0849 -0.7139,-0.2459 -1.031,-0.4485 -0.5973,-0.3816 -1.0987,-0.9015 -1.547,-1.4458 v 1e-4 c -0.7995,-0.9706 -0.6609,-2.4054 0.3096,-3.2049 0.9705,-0.7995 2.4054,-0.6609 3.2049,0.3096 0.0582,0.0706 0.1121,0.1447 0.1614,0.22179 z m -2.4179,-3.83579 c 0.8009,1.2818 1.6041,2.5621 2.4179,3.83579 v 0 c 0.6769,1.05971 0.3668,2.4675 -0.6929,3.14441 -0.9703,0.62 -2.2508,0.4178 -2.983,-0.47091 -1.022,-1.24069 -1.9317,-2.57349 -2.8063,-3.92049 v 0 c -0.7247,-1.116 -0.4074,-2.6083 0.7087,-3.333 1.1161,-0.7247 2.6083,-0.4074 3.333,0.7087 0.008,0.0117 0.0152,0.0236 0.0226,0.0355 z m -2.6997,-4.1985 c 0.923,1.3845 1.8181,2.7874 2.6997,4.1985 v 0 c 0.7051,1.1285 0.3618,2.615 -0.7667,3.3201 -1.1147,0.6964 -2.5818,0.3711 -3.2976,-0.7313 -0.879,-1.3538 -1.7718,-2.69911 -2.6932,-4.0245 v 0 c -0.7739,-1.1131 -0.4988,-2.6428 0.6143,-3.4166 1.1131,-0.7739 2.6427,-0.49891 3.4166,0.6142 0.009,0.0131 0.0181,0.0263 0.0269,0.0396 z m -1.9106,-2.7354 c 0.6766,0.8822 1.2943,1.81089 1.9106,2.7354 v 0 c 0.752,1.128 0.4472,2.652 -0.6808,3.404 -1.1125,0.7416 -2.6138,0.4565 -3.377,-0.6412 -0.5684,-0.8176 -1.1356,-1.643 -1.7625,-2.4175 v 0 c -0.8649,-1.0684 -0.6998,-2.63571 0.3686,-3.5006 1.0685,-0.8649 2.6358,-0.6999 3.5007,0.3686 0.0137,0.0169 0.0272,0.034 0.0404,0.0513 z m -1.6565,-1.98441 c 0.5722,0.6441 1.1321,1.30061 1.6565,1.98441 v 0 c 0.8366,1.09079 0.6304,2.65329 -0.4604,3.48979 -1.0706,0.82101 -2.6004,0.6396 -3.4493,-0.40909 -0.4556,-0.56281 -0.951,-1.0934 -1.4565,-1.6114 v 0 c -0.9777,-1.00211 -0.9579,-2.607 0.0441,-3.5847 1.0021,-0.97771 2.607,-0.958 3.5847,0.0441 0.0277,0.0283 0.0546,0.0573 0.0809,0.0869 z m -1.1834,-1.3564 c 0.3822,0.46231 0.7852,0.90801 1.1834,1.35631 v 0 c 0.9297,1.04679 0.8349,2.649 -0.2118,3.5788 -1.0123,0.8991 -2.5524,0.844 -3.4979,-0.125 -0.2459,-0.25211 -0.4941,-0.5024 -0.7511,-0.7434 -0.0909,-0.0853 -0.2105,-0.201 -0.2982,-0.2649 v 0 c -1.174,-0.8554 -1.4323,-2.5005 -0.577,-3.6745 0.8554,-1.174 2.5005,-1.4323 3.6745,-0.5769 0.1775,0.1293 0.3381,0.2804 0.4781,0.44959 z m -3.0181,-1.6325 v 0 c 1.1758,-0.9613 2.9083,-0.7874 3.8697,0.3884 0.9613,1.1758 0.7874,2.90831 -0.3884,3.8696 -0.0183,0.0149 -0.0367,0.0296 -0.0553,0.0441 l 9.9e-4,-0.002 c -0.5474,1.3455 -2.0819,1.9924 -3.4273,1.44501 -0.1978,-0.0804 -0.3851,-0.1847 -0.5576,-0.3104 -0.6779,-0.4939 -1.119,-1.267 -1.1928,-2.1034 -0.0529,-0.5988 0.0829,-1.2005 0.3595,-1.7317 0.3302,-0.6341 0.8421,-1.1506 1.3908,-1.5992 z m 0,0 c 0.9295,-0.7599 1.8771,-1.4977 2.8286,-2.2297 v 0 c 1.2321,-0.948 2.9995,-0.7177 3.9475,0.5145 0.948,1.2322 0.7176,2.9996 -0.5145,3.9476 -0.005,0.004 -0.0105,0.008 -0.0158,0.012 -0.9686,0.7344 -1.9446,1.4605 -2.9459,2.1498 v 0 c -1.251,0.8612 -2.9633,0.5451 -3.8245,-0.7059 -0.8113,-1.1787 -0.5832,-2.7826 0.5246,-3.6883 z m 2.8285,-2.2297 c 1.0034,-0.772 2.0058,-1.5452 3.0061,-2.3211 v 0 c 1.2317,-0.9554 3.0047,-0.7314 3.9601,0.5003 0.9554,1.23171 0.7314,3.0046 -0.5003,3.96001 -1.0114,0.7845 -2.0286,1.5615 -3.0486,2.33489 v 0 c -1.2388,0.9393 -3.0045,0.6965 -3.9438,-0.54229 -0.9346,-1.2327 -0.6995,-2.98851 0.5265,-3.93181 z m 3.0061,-2.3212 c 0.6482,-0.5027 1.2945,-1.014 1.8956,-1.5729 v 0 c 1.1392,-1.0592 2.9212,-0.99429 3.9803,0.14481 1.0504,1.12969 0.9965,2.89419 -0.1208,3.9577 -0.7242,0.6894 -1.5058,1.3185 -2.2954,1.9309 v -10e-5 c -1.2317,0.9554 -3.0046,0.7314 -3.96,-0.50031 -0.9554,-1.2317 -0.7314,-3.00469 0.5003,-3.9601 z m 1.8956,-1.5729 c 0.6067,-0.5641 1.167,-1.1793 1.7191,-1.7961 v 0 c 1.0303,-1.1509 2.7985,-1.2487 3.9494,-0.21849 1.1383,1.0189 1.2484,2.7627 0.2474,3.91669 -0.6574,0.7579 -1.3292,1.5082 -2.0564,2.2004 v 0 c -1.1266,1.0724 -2.9093,1.0285 -3.9817,-0.0982 -1.0724,-1.1266 -1.0285,-2.9093 0.0982,-3.9817 0.008,-0.008 0.016,-0.0151 0.024,-0.0226 z m 1.7191,-1.7961 c 0.709,-0.7919 1.4089,-1.592 2.0965,-2.4026 v 0 c 0.9785,-1.1536 2.707,-1.29549 3.8606,-0.317 1.1072,0.9391 1.2893,2.579 0.4151,3.7381 -0.6929,0.91881 -1.4214,1.8104 -2.1754,2.6797 v 0 c -1.0121,1.16691 -2.7786,1.2923 -3.9455,0.28021 -1.1669,-1.0122 -1.2923,-2.7787 -0.2802,-3.9456 0.01,-0.011 0.0192,-0.0219 0.0289,-0.0328 z m 2.0965,-2.4025 c 0.7227,-0.8521 1.7439,-1.4526 2.8501,-1.6313 0.7853,-0.1268 1.6963,-0.0571 2.3708,0.4042 v 0 c 0.2437,0.1668 0.4023,0.4318 0.434,0.7254 0.0674,0.6236 -0.0778,1.2736 -0.2774,1.8609 -0.2516,0.7404 -0.6313,1.4379 -1.1018,2.0618 v 0 c -0.9108,1.2078 -2.6283,1.4485 -3.8361,0.5377 -1.2078,-0.9109 -1.4485,-2.6284 -0.5377,-3.8362 0.0315,-0.0418 0.0642,-0.0826 0.0981,-0.1225 z" /></g></svg>