<?xml version="1.0" encoding="UTF-8" standalone="no"?>
<!-- Created with Inkscape (http://www.inkscape.org/) -->

<svg
   xmlns:dc="http://purl.org/dc/elements/1.1/"
   xmlns:cc="http://creativecommons.org/ns#"
   xmlns:rdf="http://www.w3.org/1999/02/22-rdf-syntax-ns#"
   xmlns:svg="http://www.w3.org/2000/svg"
   xmlns="http://www.w3.org/2000/svg"
   xmlns:sodipodi="http://sodipodi.sourceforge.net/DTD/sodipodi-0.dtd"
   xmlns:inkscape="http://www.inkscape.org/namespaces/inkscape"
   width="92.464966mm"
   height="44.769226mm"
   viewBox="0 0 92.464966 44.769226"
   version="1.1"
   id="svg1169"
   sodipodi:docname="op_normal.svg"
   inkscape:version="0.92.3 (2405546, 2018-03-11)">
  <defs
     id="defs1163" />
  <sodipodi:namedview
     id="base"
     pagecolor="#ffffff"
     bordercolor="#666666"
     borderopacity="1.0"
     inkscape:pageopacity="0.0"
     inkscape:pageshadow="2"
     inkscape:zoom="0.98994949"
     inkscape:cx="520.45703"
     inkscape:cy="79.180067"
     inkscape:document-units="mm"
     inkscape:current-layer="layer1"
     showgrid="false"
     fit-margin-top="0"
     fit-margin-left="0"
     fit-margin-right="0"
     fit-margin-bottom="0"
     inkscape:window-width="1920"
     inkscape:window-height="1025"
     inkscape:window-x="0"
     inkscape:window-y="27"
     inkscape:window-maximized="1" />
  <metadata
     id="metadata1166">
    <rdf:RDF>
      <cc:Work
         rdf:about="">
        <dc:format>image/svg+xml</dc:format>
        <dc:type
           rdf:resource="http://purl.org/dc/dcmitype/StillImage" />
        <dc:title />
      </cc:Work>
    </rdf:RDF>
  </metadata>
  <g
     inkscape:label="Layer 1"
     inkscape:groupmode="layer"
     id="layer1"
     transform="translate(-13.487751,-139.29991)">
    <path
       inkscape:connector-curvature="0"
       id="path829"
       style="fill:#000000;fill-opacity:1;fill-rule:nonzero;stroke:none;stroke-width:0.35277778"
       d="m 55.206294,145.72207 c -0.0292,-0.62223 -0.0584,-1.24453 -0.0876,-1.86675 v 0 c -0.006,-0.12835 -0.114929,-0.22751 -0.243271,-0.22148 -0.119909,0.006 -0.215828,0.10157 -0.221469,0.22148 -0.0292,0.62222 -0.0583,1.24449 -0.0875,1.86675 v 0 c -0.008,0.17668 0.128202,0.32664 0.304911,0.33493 0.176671,0.008 0.326631,-0.12823 0.334921,-0.3049 2.64e-4,-0.01 2.64e-4,-0.02 0,-0.03 z m 0.0694,1.87371 c -0.0231,-0.6235 -0.0462,-1.24703 -0.0693,-1.87053 h -4e-5 c -0.007,-0.17678 -0.15512,-0.31475 -0.331888,-0.30822 -0.167571,0.006 -0.301982,0.14061 -0.308192,0.30822 -0.0231,0.6235 -0.0461,1.24703 -0.0692,1.87053 v 0 c -0.008,0.21502 0.15988,0.39579 0.374859,0.40376 0.215022,0.008 0.39578,-0.15988 0.403762,-0.3749 2.65e-4,-0.01 2.65e-4,-0.0192 0,-0.0289 z m 0.0516,1.87544 c -0.01709,-0.62392 -0.0343,-1.24781 -0.0514,-1.8717 h -4e-5 c -0.006,-0.21509 -0.185031,-0.38467 -0.400119,-0.37874 -0.206761,0.006 -0.373062,0.17198 -0.37874,0.37874 -0.01709,0.62389 -0.0343,1.24778 -0.0515,1.8717 v 0 c -0.007,0.24349 0.18528,0.44634 0.428799,0.45304 0.243491,0.007 0.446302,-0.18528 0.453001,-0.4288 2.09e-4,-0.008 2.09e-4,-0.0162 0,-0.0242 z m 0.0388,1.87537 c -0.01289,-0.62413 -0.0258,-1.24823 -0.0387,-1.87237 v 0 c -0.005,-0.24352 -0.20655,-0.43688 -0.450072,-0.43183 -0.236469,0.005 -0.426969,0.1954 -0.431869,0.43183 -0.01291,0.62414 -0.0258,1.24824 -0.0387,1.87237 h -2.9e-5 c -0.005,0.2649 0.204859,0.48408 0.46976,0.48955 0.26493,0.006 0.484111,-0.20482 0.48958,-0.46972 1.4e-4,-0.007 1.4e-4,-0.0132 0,-0.0198 z m 0.0294,1.87505 c -0.01,-0.62424 -0.0196,-1.24845 -0.0293,-1.87265 h -2.9e-5 c -0.004,-0.26494 -0.222289,-0.47636 -0.487219,-0.47219 -0.25908,0.004 -0.468141,0.21307 -0.472202,0.47219 -0.01,0.6242 -0.0195,1.24841 -0.0293,1.87265 v 0 c -0.004,0.28113 0.219922,0.51262 0.501052,0.51703 0.28113,0.004 0.51262,-0.21996 0.51703,-0.50109 6.9e-5,-0.005 6.9e-5,-0.0106 0,-0.0159 z m 0.0241,1.87427 c -0.008,-0.62427 -0.01611,-1.24855 -0.0241,-1.87282 v 0 c -0.004,-0.28113 -0.234418,-0.50613 -0.515588,-0.50254 -0.27604,0.004 -0.499001,0.22649 -0.502531,0.50254 -0.008,0.62427 -0.01601,1.24855 -0.024,1.87282 v 0 c -0.004,0.29443 0.23181,0.53615 0.526241,0.53993 0.29442,0.004 0.536181,-0.23181 0.539959,-0.52624 3.2e-5,-0.005 3.2e-5,-0.009 0,-0.0137 z m 0.0652,1.85904 c -0.0218,-0.62365 -0.0437,-1.24725 -0.0655,-1.87086 v 0 c -0.01029,-0.29428 -0.257212,-0.52447 -0.5515,-0.51417 -0.279792,0.01 -0.50437,0.23435 -0.514141,0.51417 -0.0218,0.62361 -0.0437,1.24725 -0.0655,1.87086 v 0 c -0.01159,0.33044 0.246909,0.60769 0.57736,0.61926 0.330441,0.0116 0.60773,-0.24691 0.6193,-0.57735 2.64e-4,-0.014 2.64e-4,-0.0279 0,-0.0419 z m 0.042,1.87977 c -0.01389,-0.62406 -0.0279,-1.24813 -0.0418,-1.87219 v 0 c -0.007,-0.33059 -0.28134,-0.59256 -0.611931,-0.58519 -0.320181,0.007 -0.57803,0.26501 -0.58519,0.58519 -0.01389,0.62406 -0.0278,1.24809 -0.0418,1.87219 h -3.1e-5 c -0.008,0.35366 0.272412,0.64675 0.62607,0.65465 0.35366,0.008 0.64675,-0.27238 0.65465,-0.62604 2.09e-4,-0.01 2.09e-4,-0.0191 0,-0.0286 z m 0.02551,1.8784 c -0.008,-0.62427 -0.01701,-1.24855 -0.0254,-1.87279 v 0 c -0.005,-0.35373 -0.295449,-0.63659 -0.64915,-0.63175 -0.346958,0.005 -0.627059,0.28479 -0.631748,0.63175 -0.008,0.62424 -0.01701,1.24855 -0.02551,1.87279 v 0 c -0.005,0.36777 0.2891,0.66993 0.656871,0.67494 0.367768,0.005 0.66992,-0.2891 0.674928,-0.65684 7.2e-5,-0.006 7.2e-5,-0.0121 0,-0.0181 z m 0.0163,1.87625 c -0.005,-0.62435 -0.0109,-1.24869 -0.0163,-1.873 v 0 c -0.003,-0.36777 -0.303948,-0.66333 -0.671729,-0.66016 -0.363249,0.003 -0.656971,0.29687 -0.660149,0.66016 -0.005,0.62431 -0.0109,1.24865 -0.0163,1.873 h -4e-5 c -0.003,0.37677 0.299551,0.68488 0.67631,0.68816 0.376809,0.003 0.68489,-0.29954 0.68817,-0.67631 2.9e-5,-0.004 2.9e-5,-0.008 0,-0.0119 z m 0.01,1.8754 c -0.003,-0.62434 -0.007,-1.24869 -0.01,-1.87307 v 0 c -0.0021,-0.3768 -0.309042,-0.68065 -0.68584,-0.67864 -0.373981,0.002 -0.676661,0.30466 -0.67864,0.67864 -0.003,0.62438 -0.007,1.24873 -0.01,1.87307 v 0 c -0.0021,0.38227 0.306211,0.69378 0.688481,0.69579 0.38223,0.002 0.693729,-0.30621 0.69574,-0.68848 4e-5,-0.002 4e-5,-0.005 0,-0.007 z m 0.007,1.87435 c -0.0021,-0.62439 -0.004,-1.24877 -0.007,-1.87315 h -4e-5 c -0.0011,-0.38223 -0.312309,-0.69102 -0.694539,-0.68968 -0.38033,0.001 -0.68834,0.30935 -0.689679,0.68968 -0.0021,0.62438 -0.004,1.24876 -0.007,1.87315 h -4e-5 c -0.0011,0.3859 0.31038,0.69984 0.69628,0.70121 0.3859,10e-4 0.699879,-0.31037 0.70122,-0.69627 0,-0.002 0,-0.003 0,-0.005 z m 0.005,1.87377 c -0.0021,-0.62439 -0.003,-1.24873 -0.005,-1.87314 h -2.9e-5 c -0.0011,-0.3859 -0.31465,-0.69793 -0.70055,-0.69691 -0.38449,0.001 -0.69596,0.31242 -0.69695,0.69691 -0.0021,0.62441 -0.003,1.24875 -0.005,1.87314 v 0 c -0.0011,0.38859 0.3132,0.7044 0.70178,0.70538 0.388589,0.001 0.70439,-0.31319 0.70538,-0.70175 0,-0.001 0,-0.002 0,-0.004 z m 0.005,1.87322 c -0.0011,-0.62438 -0.003,-1.24873 -0.005,-1.87311 v 0 c -0.0011,-0.38855 -0.31669,-0.7028 -0.705271,-0.70189 -0.387249,0.001 -0.700939,0.31465 -0.701889,0.70189 -0.0011,0.62438 -0.003,1.24876 -0.005,1.87311 v 0 c -0.0011,0.39109 0.31532,0.70891 0.706372,0.70986 0.391088,10e-4 0.708909,-0.31531 0.709858,-0.7064 0,-0.001 0,-0.002 0,-0.004 z m 0.005,1.8729 c -0.0021,-0.62435 -0.004,-1.24877 -0.005,-1.87311 v 0 c -0.0011,-0.3911 -0.318982,-0.70725 -0.710071,-0.70616 -0.389569,0.001 -0.705101,0.31659 -0.706159,0.70616 -0.0021,0.62434 -0.004,1.24873 -0.005,1.87311 v 0 c -0.0011,0.3939 0.31736,0.71412 0.711269,0.71521 0.393951,0.001 0.714171,-0.31735 0.71523,-0.71126 3.1e-5,-0.001 3.1e-5,-0.002 0,-0.004 z m 0.008,1.87212 c -0.0021,-0.62435 -0.005,-1.24876 -0.008,-1.87311 v 0 c -0.0021,-0.39395 -0.322299,-0.71194 -0.716208,-0.71028 -0.391592,0.002 -0.70866,0.31866 -0.71029,0.71028 -0.0021,0.62438 -0.005,1.24869 -0.008,1.87311 v 0 c -0.0021,0.39821 0.31983,0.72237 0.718039,0.72404 0.398222,0.002 0.722381,-0.31983 0.72404,-0.71804 0,-0.002 0,-0.004 0,-0.006 z m 0.01119,1.87177 c -0.004,-0.62439 -0.007,-1.24873 -0.01119,-1.87308 v 0 c -0.0021,-0.39821 -0.327131,-0.71913 -0.72534,-0.71674 -0.394869,0.002 -0.71438,0.32187 -0.71674,0.71674 -0.004,0.62431 -0.007,1.24873 -0.01119,1.87308 v 0 c -0.0021,0.40439 0.323459,0.73413 0.72785,0.73655 0.40435,0.002 0.734129,-0.32345 0.736529,-0.72784 4e-5,-0.003 4e-5,-0.006 0,-0.009 z m 0.0236,1.86781 c -0.008,-0.62424 -0.0158,-1.24844 -0.02371,-1.87272 v 0 c -0.005,-0.40435 -0.33705,-0.72799 -0.7414,-0.72291 -0.397161,0.005 -0.71791,0.32576 -0.72291,0.72291 -0.008,0.62428 -0.0158,1.24848 -0.0236,1.87272 v 0 c -0.005,0.41745 0.328819,0.76009 0.746228,0.76539 0.417441,0.005 0.76009,-0.32882 0.765392,-0.74627 6.9e-5,-0.006 6.9e-5,-0.0127 0,-0.0191 z m 0.0331,0.91471 c -0.01119,-0.31075 -0.02241,-0.62151 -0.0335,-0.93231 v 0 c -0.015,-0.4172 -0.365371,-0.74323 -0.782561,-0.7282 -0.396139,0.0143 -0.713959,0.33207 -0.72821,0.7282 -0.01119,0.31076 -0.02241,0.62156 -0.0335,0.93231 v 0 c -0.01569,0.43573 0.324842,0.80163 0.76056,0.81733 0.435682,0.0157 0.801611,-0.32484 0.81728,-0.76052 7.93e-4,-0.0189 7.93e-4,-0.0378 0,-0.0568 z m -0.790901,0.96542 c 0.647991,0.001 1.296001,0.003 1.943992,0.004 v 4e-5 c 0.51974,0.001 0.941978,-0.41939 0.943078,-0.93913 0.0011,-0.51975 -0.419388,-0.94199 -0.93913,-0.94309 -0.0011,0 -0.003,0 -0.004,0 -0.647991,10e-4 -1.295971,0.003 -1.943991,0.004 v 0 c -0.517491,0.001 -0.936091,0.4215 -0.93503,0.93899 0.0011,0.51593 0.4191,0.93394 0.93503,0.93503 z m 1.95439,0.004 c 0.648732,-0.006 1.297451,-0.0116 1.946172,-0.0174 v 0 c 0.510119,-0.005 0.919938,-0.42178 0.91535,-0.93187 -0.004,-0.50366 -0.411692,-0.91087 -0.91535,-0.91535 -0.648721,-0.006 -1.297482,-0.0116 -1.946172,-0.0175 v 0 c -0.519739,-0.005 -0.94484,0.41289 -0.949499,0.93264 -0.005,0.51971 0.41289,0.94484 0.93264,0.9495 0.006,4e-5 0.01119,4e-5 0.01691,0 z m 1.95139,-0.0175 c 0.648091,-0.009 1.29614,-0.0189 1.944232,-0.0284 v 0 c 0.49439,-0.007 0.88932,-0.41385 0.882089,-0.90823 -0.007,-0.48419 -0.397899,-0.87499 -0.882089,-0.88208 -0.648052,-0.009 -1.296141,-0.0189 -1.944232,-0.0284 v 0 c -0.51004,-0.007 -0.929598,0.40001 -0.937038,0.91009 -0.007,0.51005 0.400007,0.92961 0.91009,0.93705 0.009,1.1e-4 0.01799,1.1e-4 0.0269,0 z m 1.94183,-0.0284 c 0.648731,-0.008 1.29745,-0.0155 1.94614,-0.0232 v 0 c 0.48157,-0.006 0.867272,-0.4008 0.86152,-0.88237 -0.006,-0.47343 -0.388088,-0.85581 -0.86152,-0.86149 -0.64869,-0.008 -1.297409,-0.0155 -1.94614,-0.0232 v 0 c -0.49438,-0.006 -0.89997,0.39009 -0.90586,0.88448 -0.006,0.49438 0.390102,0.89997 0.884492,0.90586 0.007,1e-4 0.01429,1e-4 0.0214,0 z m 1.943811,-0.0232 c 0.648759,-0.006 1.29748,-0.0121 1.946199,-0.0181 v 0 c 0.471601,-0.004 0.85037,-0.39021 0.846002,-0.8618 -0.004,-0.46542 -0.380582,-0.84169 -0.846002,-0.846 -0.648719,-0.006 -1.29748,-0.012 -1.946199,-0.0181 v 0 c -0.481581,-0.004 -0.875559,0.3823 -0.880041,0.86387 -0.004,0.48159 0.382302,0.87557 0.863881,0.88005 0.005,4e-5 0.01079,4e-5 0.01619,0 z m 1.944929,-0.0181 c 0.648761,-0.005 1.297522,-0.0101 1.94628,-0.0151 v 0 c 0.463272,-0.004 0.835911,-0.38206 0.832271,-0.84533 -0.004,-0.45815 -0.374079,-0.82871 -0.832271,-0.83227 -0.648758,-0.005 -1.297519,-0.0101 -1.94628,-0.0151 v 0 c -0.471588,-0.004 -0.856859,0.37567 -0.860529,0.84727 -0.004,0.47159 0.37568,0.85686 0.84727,0.86053 0.004,3e-5 0.009,3e-5 0.01331,0 z m 1.9515,-0.0152 c 0.64865,-0.009 1.297342,-0.0181 1.945992,-0.0272 v 0 c 0.448209,-0.006 0.80649,-0.37469 0.80024,-0.82289 -0.006,-0.43939 -0.360852,-0.79411 -0.80024,-0.80025 -0.64865,-0.009 -1.297342,-0.0181 -1.945992,-0.0272 v 0 c -0.46323,-0.006 -0.843989,0.36379 -0.850479,0.82702 -0.006,0.46319 0.363789,0.84398 0.827021,0.85044 0.008,1e-4 0.01561,1e-4 0.02349,0 z m 1.94627,-0.0272 c 0.64866,-0.009 1.297342,-0.0185 1.946,-0.0278 v 0 c 0.432861,-0.006 0.778721,-0.36213 0.772551,-0.79499 -0.006,-0.42411 -0.34844,-0.76648 -0.772551,-0.77255 -0.648658,-0.009 -1.29734,-0.0185 -1.946,-0.0278 v -4e-5 c -0.448199,-0.006 -0.816748,0.35179 -0.82313,0.8 -0.006,0.4482 0.351751,0.81671 0.79996,0.8231 0.008,1.4e-4 0.0154,1.4e-4 0.0232,0 z m 1.94243,-0.0277 c 0.64873,-0.006 1.297491,-0.0127 1.946212,-0.019 v 0 c 0.42241,-0.004 0.7615,-0.34985 0.75738,-0.77226 -0.004,-0.4166 -0.340791,-0.75333 -0.75738,-0.75738 -0.648721,-0.006 -1.297482,-0.0127 -1.946212,-0.019 v 0 c -0.43285,-0.004 -0.78722,0.34324 -0.79145,0.77613 -0.004,0.43287 0.343252,0.78724 0.776142,0.79147 0.005,4e-5 0.01019,4e-5 0.01529,0 z m 1.941301,-0.0189 c 0.648801,-0.002 1.297591,-0.004 1.946389,-0.006 v 0 c 0.418812,-0.001 0.757232,-0.34209 0.755862,-0.76091 -0.0011,-0.41688 -0.33899,-0.75448 -0.755862,-0.75589 -0.648798,-0.002 -1.297588,-0.004 -1.946389,-0.006 v 0 c -0.42241,-0.001 -0.765979,0.3399 -0.767389,0.76232 -0.0011,0.42242 0.339899,0.76599 0.762309,0.7674 0.0021,0 0.004,0 0.005,0 z m 1.94423,-0.006 c 0.648801,-2.7e-4 1.297591,-8e-4 1.946381,-0.001 v 0 c 0.41833,-1.8e-4 0.75728,-0.33947 0.757068,-0.7578 -2.2e-4,-0.41801 -0.339019,-0.75685 -0.757068,-0.75702 -0.64879,-2.7e-4 -1.29758,-8e-4 -1.946381,-0.001 v 0 c -0.418851,-2.1e-4 -0.758539,0.33916 -0.758751,0.75801 -2.09e-4,0.41885 0.339162,0.75858 0.75801,0.75879 2.52e-4,0 2.65e-4,0 7.94e-4,0 z m 1.945259,-0.001 c 0.64879,7.9e-4 1.297551,0.001 1.946381,0.002 v 0 c 0.419409,2.6e-4 0.759769,-0.33923 0.760201,-0.75865 2.64e-4,-0.41942 -0.339231,-0.75978 -0.758651,-0.7602 -2.64e-4,0 -0.0011,0 -0.0011,0 -0.648801,7.9e-4 -1.297591,10e-4 -1.946381,0.002 v 0 c -0.41833,2.6e-4 -0.7571,0.33986 -0.756679,0.75819 2.64e-4,0.41771 0.33895,0.75621 0.756679,0.75662 z m 1.94578,0.002 c 0.64879,0.001 1.29758,0.002 1.946381,0.004 v 0 c 0.421391,7.9e-4 0.763619,-0.34022 0.76436,-0.76161 7.94e-4,-0.42139 -0.34018,-0.76359 -0.761579,-0.76436 -0.0011,0 -0.0021,0 -0.003,0 -0.64879,0.001 -1.29762,0.002 -1.946381,0.004 v 0 c -0.41942,7.9e-4 -0.75882,0.34138 -0.75805,0.7608 7.94e-4,0.41836 0.339691,0.75727 0.75805,0.75805 z m 1.946871,0.004 c 0.648829,7.9e-4 1.29759,0.001 1.94638,0.002 v 0 c 0.42267,2.6e-4 0.76571,-0.3417 0.766239,-0.76436 2.65e-4,-0.42266 -0.341738,-0.76571 -0.7644,-0.7662 -7.94e-4,0 -0.0011,0 -0.0021,0 -0.648791,7.9e-4 -1.297581,0.001 -1.946379,0.002 v 0 c -0.421391,2.6e-4 -0.7626,0.34248 -0.7621,0.76387 2.64e-4,0.42069 0.34141,0.76161 0.7621,0.76211 z m 1.94737,0.002 c 0.64879,-3e-5 1.297591,-1e-4 1.946381,-1.4e-4 v 0 c 0.422558,-3e-5 0.765109,-0.34265 0.765069,-0.76521 -4e-5,-0.42252 -0.342551,-0.76503 -0.765069,-0.76507 -0.64879,-3e-5 -1.297591,-1e-4 -1.946381,-1.4e-4 v 0 c -0.422659,-3e-5 -0.765321,0.34258 -0.76535,0.76525 0,0.42262 0.34258,0.76528 0.765239,0.76531 4.2e-5,0 7.1e-5,0 1.11e-4,0 z m 1.947579,-1.4e-4 c 0.64879,-0.001 1.297591,-0.002 1.946352,-0.003 v 0 c 0.42086,-8e-4 0.761288,-0.34237 0.760939,-0.7632 0,-0.41985 -0.34114,-0.76007 -0.760939,-0.76073 -0.648761,-0.001 -1.297562,-0.002 -1.946352,-0.003 v 0 c -0.422558,-8e-4 -0.765699,0.34131 -0.766408,0.76387 -7.93e-4,0.42256 0.34131,0.76571 0.763868,0.76641 7.94e-4,0 0.0021,0 0.0021,0 z m 1.947762,-0.003 c 0.648759,-0.002 1.297509,-0.005 1.94627,-0.007 v 0 c 0.417338,-0.001 0.75424,-0.34075 0.75248,-0.7578 0,-0.41501 -0.337261,-0.75103 -0.75248,-0.75251 -0.648761,-0.002 -1.297511,-0.005 -1.94627,-0.007 v 0 c -0.42087,-0.001 -0.763061,0.33845 -0.764471,0.75928 0,0.42083 0.33831,0.76316 0.75918,0.76465 0,0 0.004,0 0.005,0 z m 1.947328,-0.007 c 0.648761,-0.003 1.297522,-0.006 1.946281,-0.009 v 0 c 0.412041,-0.002 0.744709,-0.3375 0.74295,-0.74966 -0.004,-0.4095 -0.333381,-0.74104 -0.74295,-0.74287 -0.648759,-0.003 -1.29752,-0.006 -1.946281,-0.009 v -3e-5 c -0.41734,-0.002 -0.756708,0.33464 -0.758819,0.75169 0,0.41706 0.33478,0.75668 0.75176,0.75858 0.004,4e-5 0.005,4e-5 0.007,0 z m 1.946982,-0.009 c 0.648758,-0.004 1.297519,-0.007 1.94628,-0.0105 v 0 c 0.4064,-0.002 0.733769,-0.33337 0.73166,-0.73973 -0.004,-0.40323 -0.32844,-0.72958 -0.73166,-0.73178 -0.648761,-0.004 -1.297522,-0.007 -1.94628,-0.0105 v 0 c -0.412401,-0.002 -0.748242,0.33005 -0.750361,0.7422 -0.004,0.4122 0.3302,0.74812 0.742251,0.75034 0.004,2e-5 0.005,2e-5 0.008,0 z m 1.944859,-0.0105 c 0.648761,-0.002 1.29752,-0.005 1.946281,-0.007 v 0 c 0.402518,-0.001 0.727778,-0.32893 0.726368,-0.73134 0,-0.40037 -0.325969,-0.72457 -0.726368,-0.72606 -0.648761,-0.002 -1.29752,-0.005 -1.946281,-0.007 v 0 c -0.4064,-0.001 -0.736949,0.32674 -0.738359,0.73307 0,0.40637 0.32667,0.73695 0.73307,0.73843 0,0 0.004,0 0.005,0 z m 1.944521,-0.007 c 0.64875,-8e-4 1.297509,-0.001 1.94627,-0.002 v 0 c 0.40146,-2.7e-4 0.72672,-0.32611 0.726368,-0.72757 0,-0.40094 -0.32526,-0.72588 -0.726368,-0.72623 -0.648761,-7.9e-4 -1.29752,-0.001 -1.94627,-0.002 v 0 c -0.402521,-2.7e-4 -0.7292,0.32562 -0.729551,0.72803 -2.65e-4,0.40245 0.32562,0.72898 0.72813,0.72937 2.65e-4,0 0,0 0,0 z m 1.942039,-0.002 c 0.648761,0.003 1.297511,0.007 1.94627,0.01 v 0 c 0.406749,0.002 0.73837,-0.32615 0.740481,-0.73307 0.004,-0.4069 -0.325961,-0.73847 -0.73307,-0.74055 -0.004,0 -0.005,0 -0.007,0 -0.648761,0.003 -1.297508,0.007 -1.946269,0.01 v 0 c -0.401461,0.002 -0.725311,0.32913 -0.723199,0.7306 0.004,0.39856 0.324559,0.72114 0.723199,0.72319 z m 1.940981,0.01 c 0.648049,0.008 1.296458,0.0162 1.944859,0.0243 v 0 c 0.420516,0.005 0.765176,-0.33122 0.770466,-0.75155 0.005,-0.42034 -0.33126,-0.76532 -0.751416,-0.77054 -0.006,-1.1e-4 -0.0127,-1.1e-4 -0.019,0 -0.648401,0.008 -1.29681,0.0162 -1.944859,0.0243 v 0 c -0.407112,0.005 -0.732722,0.33905 -0.727782,0.74594 0.005,0.39974 0.327732,0.72256 0.727782,0.72754 z m 1.942039,0.0243 c 0.648406,0.0106 1.297166,0.0211 1.945566,0.0316 v 0 c 0.4378,0.007 0.79834,-0.34198 0.80575,-0.77974 0.007,-0.43776 -0.3422,-0.79844 -0.78,-0.80557 -0.008,-1.4e-4 -0.0169,-1.4e-4 -0.0258,0 -0.6484,0.0105 -1.29716,0.0211 -1.945567,0.0316 v 0 c -0.420158,0.007 -0.75565,0.35306 -0.748588,0.77336 0.007,0.41071 0.33796,0.742 0.748588,0.74867 z m 1.946626,0.0317 c 0.64876,0.01 1.29716,0.0193 1.94557,0.0289 v 0 c 0.45402,0.007 0.82726,-0.35564 0.83397,-0.80938 0.007,-0.45378 -0.3556,-0.82709 -0.80928,-0.83383 -0.008,-1.4e-4 -0.0166,-1.4e-4 -0.0247,0 -0.6484,0.01 -1.29681,0.0193 -1.94556,0.0289 v 0 c -0.4378,0.006 -0.7874,0.36664 -0.7807,0.80444 0.006,0.42861 0.35207,0.77452 0.7807,0.7809 z m 1.93322,0.0286 c 0.40499,0.0122 0.81033,0.0244 1.21532,0.0366 v 0 c 0.47378,0.0143 0.86925,-0.35824 0.88371,-0.83206 0.0141,-0.47378 -0.35842,-0.86947 -0.8322,-0.88371 -0.0173,-2.7e-4 -0.0342,-2.7e-4 -0.0515,0 -0.40499,0.0122 -0.81033,0.0244 -1.21532,0.0366 v 0 c -0.45367,0.0137 -0.81033,0.39243 -0.79657,0.84604 0.0131,0.43441 0.36195,0.78351 0.79657,0.7966 z" />
    <path
       inkscape:connector-curvature="0"
       id="path831"
       style="fill:#000000;fill-opacity:1;fill-rule:nonzero;stroke:none;stroke-width:0.35277778"
       d="m 53.437854,145.988 c 0.0953,-0.38061 0.190539,-0.76126 0.285829,-1.14184 v 0 c 0.0312,-0.12463 -0.0446,-0.25096 -0.169201,-0.28215 -0.0921,-0.0231 -0.189018,0.0122 -0.24479,0.0891 -0.230359,0.31764 -0.460729,0.63521 -0.69106,0.95285 h -2.9e-5 c -0.149259,0.20581 -0.103439,0.49364 0.10241,0.64294 0.205811,0.14926 0.493641,0.10343 0.64294,-0.10238 0.0345,-0.0476 0.0596,-0.10142 0.0739,-0.1585 z m -0.59852,1.50841 c 0.193109,-0.48306 0.38626,-0.96623 0.579398,-1.44929 v 0 c 0.0944,-0.23608 -0.0205,-0.50397 -0.256569,-0.59838 -0.217559,-0.087 -0.46577,0.004 -0.576551,0.20983 -0.245988,0.45844 -0.491979,0.91691 -0.737968,1.37534 v 0 c -0.143092,0.2667 -0.0429,0.59888 0.223769,0.74197 0.2667,0.14309 0.598871,0.0429 0.74196,-0.22381 0.01,-0.018 0.01831,-0.0366 0.02601,-0.0557 z m -0.61528,1.44875 c 0.203589,-0.47932 0.407209,-0.9586 0.610798,-1.43792 v 0 c 0.118322,-0.27856 -0.01151,-0.60029 -0.290089,-0.71861 -0.265001,-0.11254 -0.571889,-0.001 -0.702551,0.25566 -0.236368,0.46404 -0.472688,0.92809 -0.709049,1.39213 v 0 c -0.15096,0.29633 -0.0331,0.65895 0.263311,0.80991 0.296328,0.15095 0.65895,0.0331 0.809908,-0.26332 0.006,-0.0124 0.0122,-0.025 0.0176,-0.0379 z m -0.622052,1.43743 c 0.206831,-0.47791 0.413632,-0.95578 0.62043,-1.43369 v -3e-5 c 0.13208,-0.30523 -0.008,-0.65973 -0.31351,-0.79181 -0.293198,-0.1269 -0.634508,-0.003 -0.7776,0.28296 -0.23318,0.46556 -0.4664,0.93123 -0.69959,1.39679 v 0 c -0.159769,0.31894 -0.0307,0.707 0.288221,0.86677 0.318979,0.15974 0.707041,0.0307 0.86677,-0.28825 0.005,-0.0108 0.0105,-0.0217 0.01529,-0.0327 z m -0.124319,0.3345 c 0.0455,-0.12156 0.091,-0.2431 0.13649,-0.36466 v 0 c 0.125021,-0.33412 -0.0445,-0.7063 -0.378571,-0.83129 -0.297669,-0.11141 -0.63214,0.0103 -0.788598,0.28695 -0.0639,0.11296 -0.12777,0.22596 -0.191662,0.33891 v 0 c -0.183899,0.3252 -0.0694,0.73791 0.255802,0.92181 0.325189,0.18391 0.737899,0.0694 0.921808,-0.25583 0.01741,-0.0307 0.0323,-0.0628 0.0447,-0.0959 z m 0.0708,0.20056 c 0.27637,-0.44478 0.552701,-0.88953 0.829101,-1.33428 v 0 c 0.22698,-0.36526 0.114868,-0.84536 -0.250402,-1.07234 -0.348758,-0.21671 -0.80585,-0.12537 -1.044538,0.20871 -0.304411,0.42608 -0.60879,0.85217 -0.913202,1.27825 v -3e-5 c -0.266239,0.37264 -0.179948,0.89055 0.192691,1.15675 0.372639,0.26621 0.890511,0.17996 1.156719,-0.19268 0.01029,-0.0145 0.02021,-0.0293 0.0296,-0.0444 z m 0.822081,-1.32324 c 0.2867,-0.44453 0.57344,-0.88914 0.860139,-1.33367 v 0 c 0.225751,-0.3501 0.12499,-0.8169 -0.225099,-1.04268 -0.342482,-0.22087 -0.798481,-0.12975 -1.029761,0.20578 -0.300249,0.43554 -0.600501,0.87108 -0.900711,1.30662 v 0 c -0.244088,0.35405 -0.154908,0.83894 0.199142,1.08303 0.354049,0.24409 0.838938,0.1549 1.083029,-0.19914 0.005,-0.007 0.009,-0.0132 0.01331,-0.0199 z m 0.85806,-1.3305 c 0.28893,-0.44312 0.577889,-0.88625 0.86678,-1.32937 v 0 c 0.222528,-0.34132 0.126259,-0.79841 -0.215061,-1.02094 -0.336299,-0.21929 -0.786231,-0.1294 -1.012471,0.20228 -0.298058,0.43702 -0.596119,0.87408 -0.89418,1.3111 v 0 c -0.234709,0.34414 -0.145979,0.81337 0.198152,1.04811 0.344138,0.2347 0.8134,0.14597 1.048099,-0.19816 0.003,-0.004 0.006,-0.009 0.009,-0.013 z m 0.866068,-1.32828 c 0.289701,-0.44263 0.57944,-0.88533 0.869141,-1.32796 v 0 c 0.219001,-0.33458 0.125269,-0.78338 -0.209299,-1.00235 -0.33052,-0.21632 -0.77343,-0.12785 -0.995442,0.1989 -0.29732,0.43758 -0.594638,0.87517 -0.891958,1.31275 v 0 c -0.228991,0.33701 -0.141391,0.79587 0.19562,1.02486 0.337039,0.22899 0.795898,0.14143 1.02489,-0.19562 0.0021,-0.004 0.005,-0.007 0.007,-0.0106 z m 0.864452,-1.32087 c 0.30039,-0.44732 0.600739,-0.89472 0.901168,-1.34207 v 0 c 0.22447,-0.33433 0.13543,-0.78733 -0.1989,-1.01181 -0.334288,-0.2245 -0.787289,-0.13546 -1.011798,0.19887 -7.94e-4,10e-4 -0.0021,0.002 -0.0021,0.004 -0.297569,0.44926 -0.59513,0.89849 -0.892699,1.34775 v 0 c -0.220842,0.33337 -0.129611,0.78264 0.203758,1.00347 0.331931,0.21986 0.779082,0.13053 1.001012,-0.20002 z m -0.374052,-1.40127 c 0.245571,0.47371 0.491141,0.94739 0.73674,1.4211 v 0 c 0.23054,0.44474 0.777981,0.61838 1.22273,0.3878 0.444741,-0.23057 0.618382,-0.77801 0.38781,-1.22276 -0.0265,-0.051 -0.0577,-0.0994 -0.0933,-0.14453 -0.330628,-0.41882 -0.66122,-0.8376 -0.991838,-1.25642 v 0 c -0.258231,-0.3271 -0.732681,-0.38294 -1.059781,-0.12471 -0.283979,0.22416 -0.36886,0.61835 -0.20235,0.93952 z m 0.767432,1.47567 c 0.283139,0.46457 0.56624,0.92911 0.849379,1.39368 v 0 c 0.27288,0.44775 0.857041,0.5895 1.30479,0.31662 0.447741,-0.27287 0.589521,-0.85704 0.316651,-1.30478 -0.009,-0.014 -0.01749,-0.0278 -0.0267,-0.0414 -0.30685,-0.44923 -0.613661,-0.89849 -0.920511,-1.34775 v 0 c -0.282541,-0.41367 -0.846911,-0.52 -1.26061,-0.23749 -0.398569,0.27223 -0.514181,0.80895 -0.262959,1.2211 z m 0.857988,1.40755 c 0.291082,0.4596 0.58216,0.91927 0.873202,1.37894 v 0 c 0.284758,0.44965 0.88011,0.58335 1.329759,0.29859 0.44968,-0.28476 0.583351,-0.88011 0.298619,-1.32976 -0.003,-0.005 -0.006,-0.01 -0.009,-0.0142 -0.29905,-0.45449 -0.59813,-0.90897 -0.89722,-1.36345 v 0 c -0.288251,-0.43801 -0.87697,-0.5594 -1.314979,-0.27118 -0.43261,0.28469 -0.557282,0.86349 -0.28021,1.301 z m 0.87838,1.38702 c 0.295002,0.45572 0.589952,0.91143 0.884952,1.36715 v 0 c 0.288599,0.44591 0.884089,0.57341 1.329999,0.2848 0.445141,-0.28815 0.573091,-0.88223 0.286041,-1.32807 -0.293901,-0.45642 -0.587801,-0.91288 -0.8817,-1.36931 v 4e-5 c -0.288152,-0.4475 -0.88452,-0.57669 -1.332021,-0.28854 -0.44746,0.28815 -0.576651,0.88449 -0.288499,1.33199 2.65e-4,6.8e-4 7.94e-4,0.001 0.0011,0.002 z m 1.215922,1.68003 c 0.0698,0.0398 0.139599,0.0796 0.20941,0.11942 v 0 c 0.40132,0.22884 0.91214,0.089 1.140989,-0.31225 0.0852,-0.14947 0.122311,-0.32155 0.106151,-0.49286 -0.008,-0.08 -0.01511,-0.16002 -0.0226,-0.24007 v 0 c -0.0499,-0.52881 -0.51897,-0.91711 -1.047819,-0.86723 -0.52882,0.0498 -0.91708,0.51897 -0.86724,1.04778 0.0294,0.31197 0.208949,0.59002 0.481121,0.74521 z" />
    <path
       inkscape:connector-curvature="0"
       id="path833"
       style="fill:#000000;fill-opacity:1;fill-rule:nonzero;stroke:none;stroke-width:0.35277778"
       d="m 99.912414,182.36987 c 0.250116,-0.0912 0.500586,-0.18246 0.750706,-0.27369 v 0 c 0.24306,-0.0886 0.3683,-0.35736 0.27975,-0.60036 -0.0885,-0.24299 -0.35736,-0.36819 -0.60042,-0.27961 -0.0847,0.0309 -0.1584,0.0855 -0.21308,0.15738 -0.160516,0.21248 -0.321377,0.42488 -0.482246,0.63733 v 0 c -0.0776,0.10244 -0.0571,0.24835 0.0452,0.32586 0.0631,0.0477 0.14569,0.0601 0.22013,0.0331 z m 0.847016,-0.32191 c 0.50377,-0.32989 1.00753,-0.65984 1.5113,-0.98976 v 0 c 0.26352,-0.17257 0.33725,-0.52606 0.16475,-0.78958 -0.17251,-0.26353 -0.526,-0.33726 -0.78952,-0.16468 -0.018,0.0118 -0.0353,0.0245 -0.0519,0.0382 -0.46355,0.38455 -0.92674,0.76908 -1.39029,1.15361 v 0 c -0.19897,0.16518 -0.226485,0.46042 -0.0614,0.65945 0.1524,0.1833 0.41769,0.2232 0.61701,0.0927 z m 1.52259,-0.99727 c 0.49565,-0.34163 0.99166,-0.68331 1.48731,-1.02496 v 0 c 0.2861,-0.19734 0.35842,-0.58942 0.16122,-0.87574 -0.19756,-0.28635 -0.58949,-0.3585 -0.87595,-0.16115 -0.0113,0.008 -0.0222,0.016 -0.0332,0.0246 -0.47237,0.37346 -0.94474,0.74686 -1.41676,1.12028 v 0 c -0.24729,0.1954 -0.28892,0.55407 -0.0938,0.80117 0.18663,0.23564 0.52387,0.28634 0.77117,0.11584 z m 1.49825,-1.03269 c 0.4519,-0.32593 0.90416,-0.65182 1.35607,-0.97777 v 0 c 0.29069,-0.20961 0.35631,-0.61519 0.14676,-0.90592 -0.20955,-0.29072 -0.61525,-0.35648 -0.90593,-0.14686 -0.004,0.003 -0.008,0.006 -0.012,0.009 -0.4445,0.33627 -0.88865,0.67257 -1.33315,1.00884 v 0 c -0.27728,0.20983 -0.33196,0.60473 -0.12206,0.88205 0.20638,0.27277 0.59267,0.33083 0.87031,0.13077 z m -0.94086,-1.9316 c 0.50306,0.34252 1.00577,0.68506 1.50847,1.02758 v 0 c 0.33162,0.22577 0.78317,0.14015 1.00895,-0.19132 0.21378,-0.31365 0.14993,-0.739 -0.14676,-0.97599 -0.47519,-0.37994 -0.95038,-0.75981 -1.42522,-1.13972 v 0 c -0.3436,-0.27453 -0.8442,-0.21872 -1.11901,0.1246 -0.27446,0.34332 -0.21872,0.84416 0.12488,1.11869 0.0159,0.0127 0.0321,0.0247 0.0487,0.0362 z m -1.52753,-1.07025 c 0.50624,0.35479 1.01282,0.70954 1.51906,1.06429 v 4e-5 c 0.36019,0.2522 0.85619,0.16482 1.10843,-0.19519 0.24341,-0.34731 0.1718,-0.82438 -0.16299,-1.08484 -0.48789,-0.37973 -0.97578,-0.75946 -1.46367,-1.13919 v 0 c -0.36724,-0.28578 -0.89676,-0.21974 -1.18251,0.14747 -0.28575,0.36721 -0.21943,0.89655 0.14746,1.1823 0.0113,0.009 0.0226,0.017 0.0342,0.0251 z m -1.517645,-1.07308 c 0.504815,0.35697 1.009645,0.71395 1.514465,1.07096 v 0 c 0.37995,0.26864 0.90594,0.17847 1.1744,-0.20144 0.2607,-0.36883 0.1845,-0.87771 -0.17321,-1.15358 -0.48966,-0.37758 -0.97931,-0.75519 -1.46897,-1.1328 v 0 c -0.38523,-0.29715 -0.938386,-0.22571 -1.235426,0.15956 -0.297391,0.38523 -0.225771,0.93846 0.159459,1.23557 0.01,0.007 0.01939,0.0147 0.0293,0.0217 z m -0.531281,-0.58392 c 0.122759,0.14471 0.245179,0.28941 0.36794,0.43416 v 0 c 0.31468,0.3712 0.870306,0.41709 1.241776,0.10256 0.37112,-0.31454 0.41698,-0.87045 0.10231,-1.24161 -0.0882,-0.10425 -0.19968,-0.18647 -0.32526,-0.24027 -0.17428,-0.0747 -0.34855,-0.1494 -0.52317,-0.22409 v 0 c -0.378887,-0.16238 -0.818096,0.0133 -0.980367,0.39243 -0.11148,0.26014 -0.0663,0.56092 0.116771,0.77682 z" />
    <path
       inkscape:connector-curvature="0"
       id="path849"
       style="fill:#18774c;fill-opacity:1;fill-rule:nonzero;stroke:none;stroke-width:0.35277778"
       d="m 56.929404,142.39192 v 0 c 0.0104,0.18916 0.172299,0.33405 0.36146,0.32361 0.189159,-0.0104 0.334039,-0.17227 0.323599,-0.36146 -1.01e-4,-0.002 -2.65e-4,-0.005 -2.65e-4,-0.007 -0.02461,-0.32512 -0.0402,-0.65105 -0.057,-0.97667 -0.0319,-0.61605 -0.0606,-1.23228 -0.0889,-1.84852 v 0 c -0.006,-0.12834 -0.114678,-0.22761 -0.243019,-0.22172 -0.12012,0.005 -0.216222,0.1016 -0.22172,0.22172 -0.0284,0.6186 -0.0549,1.23744 -0.0711,1.8565 -0.009,0.33697 -0.02151,0.67662 -0.003,1.01353 z m 0,0 c 0.0271,0.4899 0.0283,0.98139 0.0265,1.4719 v 0 c -7.93e-4,0.19551 0.15716,0.35461 0.352709,0.35535 0.195511,7.1e-4 0.35461,-0.15716 0.355351,-0.35267 0,-0.001 0,-0.003 0,-0.004 -0.004,-0.50514 -0.0117,-1.01149 -0.0499,-1.51539 v 0 c -0.01431,-0.18892 -0.17907,-0.33049 -0.367979,-0.31616 -0.186201,0.0141 -0.32692,0.17455 -0.316622,0.36099 z m 0.0951,3.38138 h 4e-5 c 0.01479,0.19593 0.185631,0.34276 0.381561,0.32794 0.19487,-0.0147 0.341378,-0.1839 0.32812,-0.37888 -0.0421,-0.61909 -0.0656,-1.23938 -0.0703,-1.85988 v 0 c -0.0011,-0.19551 -0.161181,-0.35282 -0.35669,-0.35133 -0.193961,0.001 -0.350631,0.15871 -0.351372,0.35267 -0.0021,0.63708 0.02061,1.27423 0.0686,1.90948 z m 0.85947,3.27103 c -0.0398,-1.10737 -0.0746,-2.2163 -0.149749,-3.32197 v 0 c -0.01331,-0.19601 -0.18302,-0.34414 -0.379061,-0.33084 -0.19604,0.0133 -0.344141,0.18302 -0.33084,0.37906 7.9e-5,0.001 1.51e-4,0.002 2.2e-4,0.003 0.0319,0.42252 0.0331,0.84766 0.0316,1.27113 -0.0021,0.66697 -0.0209,1.33379 -0.0443,2.00029 v 0 c -0.008,0.24084 0.179951,0.44291 0.42079,0.45138 0.24084,0.008 0.44291,-0.17995 0.45134,-0.42079 2.64e-4,-0.0103 2.64e-4,-0.0207 0,-0.031 z m -0.951119,2.61842 h 2.9e-5 c 0.006,0.29228 0.24734,0.52458 0.53961,0.51883 0.29228,-0.006 0.524581,-0.24733 0.518829,-0.53961 -2.64e-4,-0.0141 -0.0011,-0.0281 -0.0021,-0.0422 -0.024,-0.24063 -0.02559,-0.48521 -0.0356,-0.72661 -0.02519,-0.60953 -0.0473,-1.21924 -0.0693,-1.82887 v 0 c -0.009,-0.24084 -0.210889,-0.42905 -0.451728,-0.42041 -0.228852,0.008 -0.412401,0.19195 -0.420413,0.4208 -0.0214,0.61129 -0.0427,1.22258 -0.0613,1.83395 -0.008,0.2608 -0.02281,0.52309 -0.0177,0.78408 z m 0,-7e-5 c 0.006,0.30247 0.0598,0.60635 0.10668,0.90449 v 0 c 0.0474,0.30201 0.330758,0.50835 0.63278,0.4609 0.302009,-0.0474 0.508349,-0.33073 0.460899,-0.63274 -0.0011,-0.009 -0.003,-0.0181 -0.005,-0.0271 -0.0529,-0.2534 -0.113728,-0.51029 -0.139448,-0.76835 v 0 c -0.029,-0.2909 -0.28829,-0.5032 -0.579192,-0.47424 -0.27464,0.0274 -0.482139,0.26116 -0.476779,0.53707 z m 0.10668,0.90449 c 0.0527,0.33573 0.107878,0.67154 0.17685,1.00439 v 0 c 0.0637,0.30769 0.364839,0.50542 0.672499,0.44168 0.307621,-0.0637 0.505389,-0.36474 0.441709,-0.6724 -0.0671,-0.32427 -0.134728,-0.64851 -0.202319,-0.97264 v 0 c -0.0624,-0.2993 -0.355669,-0.49128 -0.654931,-0.42884 -0.288779,0.0603 -0.4796,0.33638 -0.433808,0.62781 z m 0.17685,1.00435 c 0.0467,0.22571 0.0823,0.45368 0.106609,0.68288 v 0 c 0.0331,0.31309 0.313761,0.54003 0.626811,0.5069 0.313089,-0.0331 0.54003,-0.31379 0.50691,-0.62685 -1.41e-4,-10e-4 -2.52e-4,-0.002 -2.65e-4,-0.004 -0.0297,-0.26514 -0.0717,-0.52888 -0.12573,-0.79015 v 0 c -0.0637,-0.30769 -0.364712,-0.50549 -0.672401,-0.44182 -0.30769,0.0636 -0.50549,0.36471 -0.441849,0.67236 2.9e-5,4e-5 2.9e-5,7e-5 2.9e-5,1.1e-4 z m 1.33381,2.22829 c -0.0136,-0.3483 -0.0283,-0.69663 -0.0477,-1.04468 -0.01159,-0.20814 -0.02289,-0.41688 -0.0461,-0.6241 v 0 c -0.035,-0.31288 -0.31704,-0.53809 -0.629881,-0.5031 -0.311539,0.0349 -0.53644,0.31475 -0.503449,0.62647 0.01849,0.17564 0.01561,0.35457 0.0149,0.53089 -0.0011,0.33881 -0.0118,0.67765 -0.0241,1.01621 v 0 c -0.01241,0.34146 0.25432,0.62834 0.59577,0.64075 0.341421,0.0124 0.628301,-0.25431 0.640712,-0.59573 7.94e-4,-0.0156 7.94e-4,-0.0312 -7.1e-5,-0.0467 z m -1.273591,1.48213 h 2.9e-5 c 0.01791,0.36657 0.329602,0.64918 0.696172,0.63126 0.361598,-0.0177 0.64248,-0.32156 0.631759,-0.68344 -0.0141,-0.47671 -0.0357,-0.95338 -0.0544,-1.42995 v 0 c -0.01339,-0.34142 -0.300948,-0.60734 -0.642369,-0.59397 -0.323321,0.0127 -0.58226,0.27231 -0.59404,0.59566 -0.01201,0.3302 -0.02371,0.66037 -0.0324,0.99067 -0.004,0.16274 -0.0127,0.32703 -0.005,0.48977 z m 0,0 c 0.007,0.13934 0.0402,0.27693 0.0759,0.41126 0.0466,0.17551 0.101288,0.34887 0.15766,0.52141 h -4.2e-5 c 0.113702,0.34801 0.488,0.53795 0.836022,0.42425 0.348009,-0.1137 0.537948,-0.48796 0.424249,-0.83598 0,0 0,0 0,-3e-5 -0.0441,-0.13483 -0.0869,-0.2703 -0.124219,-0.40721 -0.01151,-0.042 -0.02249,-0.0842 -0.0319,-0.12669 -0.01,-0.0453 -0.0114,-0.0885 -0.0195,-0.1349 v 0 c -0.0637,-0.36142 -0.408379,-0.60276 -0.769829,-0.53901 -0.32971,0.0581 -0.56466,0.3525 -0.548291,0.6869 z m 0.233569,0.93267 c 0.142171,0.43522 0.305332,0.86353 0.48306,1.28545 h -3.9e-5 c 0.135429,0.32145 0.50578,0.47226 0.82723,0.33687 0.301239,-0.1269 0.455901,-0.46263 0.356521,-0.77403 -0.134131,-0.42044 -0.269491,-0.84053 -0.40654,-1.26002 v -3e-5 c -0.1137,-0.34798 -0.487961,-0.53795 -0.83598,-0.42425 -0.34801,0.1137 -0.537951,0.48799 -0.424292,0.83601 z m 0.483021,1.28542 c 0.155371,0.36893 0.306321,0.73981 0.446201,1.11488 h -4e-5 c 0.11684,0.31334 0.465529,0.47262 0.778828,0.35578 0.313301,-0.11681 0.47258,-0.46549 0.355782,-0.7788 -0.0011,-0.004 -0.003,-0.007 -0.004,-0.0111 -0.145211,-0.36732 -0.27274,-0.74168 -0.392721,-1.11789 v 0 c -0.10601,-0.33231 -0.461359,-0.51576 -0.793678,-0.40975 -0.332283,0.10601 -0.515761,0.46133 -0.409753,0.79365 0.006,0.018 0.0123,0.0358 0.01971,0.0532 z m 0.446201,1.11491 c 0.12146,0.32572 0.24747,0.64975 0.379058,0.97148 v 0 c 0.128302,0.31373 0.486582,0.46405 0.800312,0.33578 0.313719,-0.12831 0.464039,-0.48662 0.33574,-0.80031 -0.0011,-0.002 -0.0021,-0.005 -0.003,-0.007 -0.131159,-0.30979 -0.258191,-0.62129 -0.38191,-0.93413 v 0 c -0.122981,-0.31094 -0.474739,-0.46334 -0.78567,-0.34036 -0.306641,0.12125 -0.459851,0.46559 -0.34463,0.77455 z m 0.379058,0.97145 c 0.105511,0.25813 0.21082,0.51643 0.31524,0.77498 v 0 c 0.127561,0.31584 0.487011,0.46845 0.802852,0.34089 0.315809,-0.12756 0.468418,-0.48697 0.340889,-0.80282 -0.10605,-0.26253 -0.21541,-0.52377 -0.325829,-0.78454 v 0 c -0.132112,-0.3121 -0.49226,-0.45801 -0.80436,-0.3259 -0.30939,0.13099 -0.45593,0.48641 -0.328792,0.79739 z m 0.31524,0.77495 c 0.125162,0.30991 0.279541,0.60825 0.437161,0.90265 v 0 c 0.162811,0.30409 0.5413,0.41864 0.845399,0.25583 0.304091,-0.1628 0.41864,-0.5413 0.255831,-0.84539 -0.0021,-0.005 -0.005,-0.01 -0.008,-0.0144 -0.140409,-0.24642 -0.280279,-0.4971 -0.386678,-0.76052 v 0 c -0.127532,-0.31584 -0.486942,-0.46849 -0.80278,-0.34096 -0.315842,0.12753 -0.46849,0.48697 -0.340961,0.80282 z m 0.437161,0.90265 c 0.224901,0.42012 0.4415,0.84472 0.655529,1.27049 v 0 c 0.16401,0.32622 0.561411,0.4577 0.887592,0.29369 0.32621,-0.16397 0.45773,-0.56138 0.29372,-0.88759 -0.007,-0.0132 -0.01381,-0.0263 -0.0213,-0.039 -0.24334,-0.41236 -0.485238,-0.82557 -0.72231,-1.24156 v 0 c -0.170778,-0.29972 -0.55217,-0.40422 -0.85185,-0.23344 -0.294148,0.16761 -0.40118,0.53901 -0.241409,0.83743 z m 0.655571,1.27049 c 0.11366,0.22606 0.2305,0.45078 0.356968,0.67 0.0932,0.16157 0.190961,0.32237 0.30752,0.46834 v 0 c 0.237702,0.2977 0.671722,0.3464 0.969431,0.1087 0.297751,-0.23771 0.3464,-0.67173 0.10873,-0.96947 -3.9e-5,0 -3.9e-5,0 -3.9e-5,0 -0.0804,-0.10076 -0.150741,-0.20998 -0.220451,-0.31824 -0.12523,-0.19453 -0.24461,-0.39303 -0.362159,-0.59225 h -3.2e-5 c -0.185528,-0.31446 -0.59087,-0.41892 -0.905298,-0.23339 -0.29962,0.17681 -0.410951,0.55551 -0.25467,0.86631 z m 0.664488,1.13834 c 0.148482,0.18602 0.306811,0.36432 0.475332,0.53245 v 0 c 0.2691,0.26849 0.704919,0.26801 0.973389,-0.001 0.26666,-0.26726 0.268279,-0.69948 0.004,-0.96869 -0.13212,-0.13441 -0.256619,-0.27619 -0.3742,-0.42344 v 0 c -0.237699,-0.29771 -0.671719,-0.34635 -0.969431,-0.10865 -0.297709,0.2377 -0.34639,0.67172 -0.108688,0.96943 z m 0.475332,0.53245 c 0.18796,0.18753 0.36576,0.38531 0.54215,0.58363 h 3.9e-5 c 0.24818,0.27906 0.675569,0.30407 0.95458,0.0558 0.271111,-0.24112 0.303559,-0.65327 0.0735,-0.93387 -0.18983,-0.23155 -0.383262,-0.46172 -0.59333,-0.67538 v 0 c -0.266491,-0.27109 -0.702281,-0.27483 -0.97335,-0.008 -0.27111,0.26648 -0.27482,0.70228 -0.008,0.97339 0.0011,0.002 0.003,0.003 0.005,0.005 z m 0.54215,0.58363 c 0.290269,0.32636 0.60629,0.62936 0.93119,0.92093 v 0 c 0.27454,0.24638 0.696849,0.22356 0.943229,-0.051 0.246409,-0.27453 0.223589,-0.69684 -0.051,-0.94322 -0.0011,-0.001 -0.0021,-0.002 -0.004,-0.003 -0.281022,-0.24875 -0.553612,-0.511 -0.791842,-0.80166 v 0 c -0.23675,-0.28878 -0.662768,-0.33101 -0.95159,-0.0943 -0.28878,0.23675 -0.33101,0.66276 -0.0943,0.95158 0.006,0.007 0.01169,0.0139 0.0177,0.0207 h -2.9e-5 z m 0.93119,0.92089 c 0.27835,0.24985 0.55997,0.50201 0.866389,0.71745 v 0 c 0.3,0.21089 0.7142,0.13864 0.925089,-0.16136 0.205322,-0.29207 0.142952,-0.69419 -0.141179,-0.91034 -0.2642,-0.20098 -0.513051,-0.42313 -0.761439,-0.64297 v 0 c -0.27622,-0.24451 -0.69836,-0.21881 -0.942872,0.0574 -0.24334,0.27488 -0.21921,0.69462 0.054,0.9398 z m 0.866389,0.71745 c 0.26321,0.185 0.539861,0.35112 0.817351,0.51354 v 0 c 0.308009,0.18027 0.703828,0.0767 0.8841,-0.23128 0.175149,-0.29933 0.0828,-0.68358 -0.20931,-0.87058 -0.240482,-0.15399 -0.480829,-0.31038 -0.708231,-0.48338 v 0 c -0.291849,-0.22204 -0.708451,-0.16542 -0.930489,0.12644 -0.22207,0.29185 -0.165449,0.70844 0.126399,0.93048 0.007,0.005 0.01339,0.01 0.02019,0.0148 z m 0.817351,0.51354 c 0.35475,0.2076 0.70231,0.42718 1.04563,0.6531 v 0 c 0.314439,0.2069 0.737058,0.11977 0.94397,-0.19466 0.206939,-0.31443 0.119769,-0.73707 -0.19467,-0.944 -0.02561,-0.0168 -0.0523,-0.0319 -0.0799,-0.0452 -0.35673,-0.17106 -0.706869,-0.35772 -1.040209,-0.57111 v 0 c -0.30053,-0.19244 -0.700151,-0.10478 -0.892591,0.19575 -0.192439,0.30057 -0.10478,0.7002 0.195789,0.89264 0.007,0.005 0.0146,0.009 0.02201,0.0135 z m 1.04567,0.6531 c 0.423968,0.27901 0.87009,0.52391 1.331349,0.73558 v 0 c 0.36879,0.16922 0.804971,0.007 0.97423,-0.36135 0.16923,-0.36883 0.007,-0.80501 -0.361349,-0.97424 -0.004,-0.002 -0.008,-0.004 -0.0118,-0.005 -0.42418,-0.18567 -0.84551,-0.37825 -1.263049,-0.57852 v 0 c -0.339381,-0.16277 -0.74645,-0.0196 -0.909222,0.31979 -0.147458,0.30748 -0.045,0.67663 0.239892,0.86406 z m 1.331349,0.73558 c 0.396341,0.18189 0.798719,0.35362 1.211789,0.49417 v 0 c 0.37638,0.12806 0.78532,-0.0732 0.913342,-0.44962 0.12065,-0.3545 -0.0507,-0.74231 -0.39402,-0.89182 -0.376902,-0.16415 -0.753491,-0.32879 -1.130052,-0.49361 v 0 c -0.371718,-0.16273 -0.805,0.007 -0.9677,0.37846 -0.160689,0.3671 0.0021,0.79527 0.366641,0.96242 z m 1.211789,0.49417 c 0.27958,0.0951 0.55481,0.20394 0.821161,0.33171 v 0 c 0.34862,0.16726 0.766831,0.0202 0.93409,-0.32836 0.167251,-0.34862 0.02019,-0.7668 -0.328369,-0.93406 -0.0011,-7.9e-4 -0.003,-0.001 -0.004,-0.002 -0.29891,-0.14097 -0.600321,-0.27672 -0.903362,-0.40872 v 0 c -0.364447,-0.15875 -0.788627,0.008 -0.94742,0.37249 -0.15875,0.36449 0.008,0.78867 0.372502,0.94742 0.0182,0.008 0.0368,0.0151 0.0556,0.0215 z m 0.821132,0.33171 c 0.266128,0.12771 0.523661,0.27305 0.773599,0.42993 v 0 c 0.340821,0.21392 0.790509,0.11105 1.00443,-0.22976 0.213921,-0.34078 0.111051,-0.7905 -0.229759,-1.00444 -0.0218,-0.0136 -0.0443,-0.0262 -0.0674,-0.0375 -0.29214,-0.1428 -0.585189,-0.28391 -0.8793,-0.42266 v 0 c -0.349711,-0.16496 -0.76694,-0.0152 -0.9319,0.33451 -0.164182,0.34804 -0.01669,0.76337 0.330309,0.92984 z m 0.773599,0.42993 c 0.330729,0.20761 0.67504,0.39293 1.027081,0.56176 h -4e-5 c 0.383368,0.18388 0.84318,0.0221 1.02701,-0.3612 0.183869,-0.38336 0.0222,-0.84318 -0.36121,-1.02701 -0.0114,-0.005 -0.02299,-0.0107 -0.0347,-0.0156 -0.32064,-0.13476 -0.638352,-0.27683 -0.95087,-0.42961 v 0 c -0.3615,-0.17671 -0.797811,-0.0269 -0.974521,0.33461 -0.16365,0.33471 -0.0484,0.73896 0.267229,0.93704 z m 1.027081,0.56176 c 0.343149,0.16458 0.69487,0.31342 1.05741,0.4299 v 0 c 0.413459,0.13285 0.85634,-0.0947 0.989161,-0.5081 0.132849,-0.41349 -0.0947,-0.85638 -0.508112,-0.98919 -0.0021,-8e-4 -0.005,-0.001 -0.007,-0.002 -0.305678,-0.0949 -0.60501,-0.21015 -0.900009,-0.33409 v 0 c -0.39193,-0.1647 -0.843212,0.0195 -1.00792,0.41148 -0.158959,0.37836 0.007,0.81489 0.376841,0.99234 z m 1.05741,0.4299 c 0.31401,0.1009 0.630068,0.19516 0.947639,0.2842 v 0 c 0.422871,0.11864 0.86183,-0.12802 0.98047,-0.55093 0.11861,-0.42288 -0.128059,-0.86185 -0.550929,-0.98044 -0.007,-0.002 -0.0136,-0.004 -0.0204,-0.005 -0.296411,-0.0747 -0.591151,-0.15635 -0.883082,-0.24701 h -2.9e-5 c -0.414732,-0.12876 -0.85535,0.10305 -0.984141,0.51781 -0.127889,0.41187 0.0998,0.84991 0.51046,0.98181 z m 0.9476,0.2842 c 0.40559,0.11376 0.80758,0.24031 1.20855,0.36908 v 0 c 0.42594,0.1368 0.882118,-0.0976 1.018929,-0.52349 0.136771,-0.42594 -0.0976,-0.88213 -0.523531,-1.01889 -0.005,-0.002 -0.01061,-0.004 -0.0159,-0.005 -0.42418,-0.12668 -0.849601,-0.25033 -1.27889,-0.35857 v 0 c -0.425882,-0.10735 -0.858171,0.15089 -0.96552,0.57676 -0.105342,0.4179 0.14139,0.84367 0.556328,0.96005 z m 1.208579,0.36911 c 0.44831,0.14397 0.898171,0.28345 1.351212,0.41176 v 0 c 0.440158,0.12464 0.898027,-0.13117 1.022667,-0.57132 0.124672,-0.44016 -0.131127,-0.89803 -0.571288,-1.02271 -0.009,-0.002 -0.01839,-0.005 -0.0277,-0.007 -0.435052,-0.10711 -0.866183,-0.22958 -1.295443,-0.35779 v 0 c -0.42862,-0.12801 -0.879898,0.11571 -1.007919,0.54433 -0.126148,0.42246 0.10869,0.86819 0.52846,1.00302 z m 1.351212,0.41176 c 0.422029,0.11949 0.848997,0.22112 1.278498,0.30971 v 0 c 0.455189,0.0939 0.90029,-0.19904 0.994169,-0.65419 0.0939,-0.45519 -0.199038,-0.9003 -0.65423,-0.99417 -0.0021,-2.7e-4 -0.005,-0.001 -0.007,-0.001 -0.397682,-0.0783 -0.793822,-0.16429 -1.18741,-0.26119 v 0 c -0.44422,-0.10937 -0.89299,0.1621 -1.002351,0.60632 -0.10668,0.43338 0.149231,0.8734 0.5787,0.995 h -4e-5 z m 1.278498,0.30971 c 0.46006,0.0949 0.921851,0.1803 1.385081,0.25812 v 0 c 0.461359,0.0775 0.898239,-0.23368 0.97578,-0.69504 0.0775,-0.4614 -0.23368,-0.89828 -0.695042,-0.97582 -0.0021,-2.7e-4 -0.004,-8e-4 -0.006,-0.001 -0.44365,-0.0711 -0.88611,-0.14923 -1.326941,-0.23608 v 0 c -0.455998,-0.0898 -0.898451,0.20704 -0.988269,0.66304 -0.0892,0.45311 0.20338,0.89352 0.65567,0.98679 z m 1.385081,0.25812 c 0.458009,0.0769 0.91454,0.16317 1.369099,0.25852 v 0 c 0.45878,0.0963 0.908751,-0.19763 1.004991,-0.65641 0.0961,-0.45784 -0.196461,-0.9071 -0.654021,-1.00447 -0.479531,-0.10202 -0.961559,-0.19191 -1.445609,-0.26952 v 0 c -0.46196,-0.074 -0.89648,0.24038 -0.970561,0.70235 -0.0737,0.45952 0.237141,0.89242 0.696101,0.96953 z m 1.369099,0.25852 c 0.595702,0.12502 1.18685,0.27245 1.776439,0.4234 v 0 c 0.45276,0.11593 0.913802,-0.15716 1.029732,-0.60991 0.11571,-0.45198 -0.156181,-0.91232 -0.60784,-1.0292 -0.61309,-0.15868 -1.227842,-0.31333 -1.847361,-0.44517 v 0 c -0.458499,-0.0976 -0.90928,0.19502 -1.006859,0.65352 -0.0976,0.45847 0.19498,0.90929 0.653489,1.00687 7.94e-4,1.7e-4 0.0021,2.6e-4 0.0021,2.6e-4 z m 1.776439,0.4234 c 0.510903,0.13081 1.022141,0.26688 1.538571,0.3748 v 0 c 0.454422,0.095 0.8998,-0.19647 0.99477,-0.65091 0.0936,-0.44772 -0.188,-0.88805 -0.633659,-0.99099 -0.494771,-0.1143 -0.986232,-0.24479 -1.47779,-0.37201 v 0 c -0.45247,-0.11708 -0.914191,0.1548 -1.03128,0.60728 -0.117081,0.45247 0.1548,0.91418 0.607279,1.03127 7.94e-4,2.1e-4 0.0011,2.6e-4 0.0021,7.9e-4 z m 1.538502,0.3748 c 0.272949,0.057 0.547579,0.10615 0.82346,0.14693 v 0 c 0.45688,0.0675 0.88201,-0.24804 0.9496,-0.70492 0.0675,-0.45657 -0.24761,-0.8815 -0.704072,-0.94947 -0.237598,-0.0354 -0.47375,-0.0804 -0.707808,-0.13444 v 0 c -0.45234,-0.1045 -0.90375,0.17751 -1.00824,0.62988 -0.10446,0.45233 0.17752,0.90375 0.629881,1.00821 0.006,0.001 0.0114,0.002 0.0172,0.004 z m 0.82346,0.14693 c 0.42795,0.0633 0.861618,0.0915 1.292961,0.12022 v 0 c 0.460658,0.0307 0.858948,-0.31788 0.889637,-0.77854 0.0307,-0.46055 -0.31786,-0.8588 -0.778338,-0.8896 -0.386252,-0.0258 -0.775541,-0.0494 -1.158732,-0.10647 v 0 c -0.456808,-0.068 -0.882298,0.24712 -0.950349,0.70393 -0.068,0.45682 0.247121,0.8823 0.703929,0.95032 2.65e-4,7e-5 7.94e-4,1e-4 7.94e-4,1.4e-4 z m 1.292961,0.12022 c 0.760867,0.0507 1.524277,0.0657 2.286637,0.0752 v 0 c 0.46496,0.006 0.847021,-0.36657 0.852662,-0.83174 0.006,-0.46514 -0.36654,-0.84695 -0.83185,-0.85274 -0.004,-3e-5 -0.005,-3e-5 -0.008,-7e-5 -0.729189,-0.002 -1.4605,-0.0101 -2.18839,-0.0588 v 0 c -0.460621,-0.0308 -0.859009,0.31764 -0.889839,0.7783 -0.0308,0.46062 0.317638,0.85905 0.778288,0.88984 8.2e-5,0 1.8e-4,0 2.51e-4,0 z m 2.286637,0.0752 c 0.613831,0.008 1.228021,0.0122 1.841852,0.0314 v 0 c 0.468839,0.0146 0.861129,-0.3538 0.875588,-0.82292 0.01479,-0.46909 -0.35383,-0.86124 -0.822669,-0.87588 0,-3e-5 -0.004,-7e-5 -0.004,-1e-4 -0.62548,-0.0167 -1.252008,-0.015 -1.87784,-0.017 v 0 c -0.464961,-0.001 -0.843489,0.37441 -0.8449,0.83957 0,0.46218 0.369711,0.83923 0.83185,0.84498 z m 1.841852,0.0314 c 0.280109,0.009 0.56021,0.0267 0.83961,0.0545 v 0 c 0.468138,0.0468 0.885831,-0.29499 0.932749,-0.76334 0.0466,-0.46838 -0.294931,-0.886 -0.763421,-0.93278 -0.004,-1.7e-4 -0.004,-2.7e-4 -0.006,-8e-4 -0.3175,-0.0296 -0.635711,-0.0482 -0.954262,-0.0568 v 0 c -0.469199,-0.0126 -0.859718,0.35761 -0.872069,0.82677 -0.0127,0.46771 0.355251,0.85753 0.823031,0.87213 z m 0.83961,0.0545 c 0.56515,0.0565 1.127829,0.15258 1.688748,0.24021 v 0 c 0.466022,0.0727 0.902761,-0.24596 0.975432,-0.71184 0.0727,-0.46587 -0.245891,-0.90251 -0.711912,-0.97525 0,0 0,0 0,0 -0.364418,-0.0569 -0.72884,-0.11261 -1.093959,-0.16376 -0.231069,-0.0324 -0.462489,-0.0644 -0.694619,-0.086 v 0 c -0.468842,-0.0436 -0.88406,0.30092 -0.927812,0.76958 -0.0434,0.46645 0.297752,0.88054 0.764122,0.9271 z m 1.688748,0.24021 c 0.362652,0.0566 0.725663,0.11208 1.089023,0.16267 0.226488,0.0315 0.453318,0.0629 0.681217,0.0827 v 0 c 0.46319,0.0403 0.87136,-0.30261 0.911572,-0.76577 0.0388,-0.44475 -0.276572,-0.84233 -0.718251,-0.90611 -0.56727,-0.0819 -1.133481,-0.17219 -1.700041,-0.2606 v 0 c -0.465659,-0.0727 -0.902398,0.24596 -0.975069,0.71184 -0.073,0.46584 0.24588,0.90247 0.711549,0.97525 z m 1.77024,0.24539 c 0.435682,0.0379 0.873832,0.0507 1.310921,0.0629 v 0 c 0.456141,0.0128 0.83643,-0.34657 0.84913,-0.80275 0.0127,-0.45346 -0.342189,-0.83245 -0.79551,-0.84906 -0.39017,-0.0143 -0.784579,-0.0272 -1.17122,-0.083 v 0 c -0.460381,-0.0664 -0.887238,0.25276 -0.953559,0.71293 -0.0663,0.46016 0.25259,0.88706 0.71296,0.95348 0.0155,0.002 0.0314,0.004 0.0473,0.005 z m 1.310921,0.0629 c 0.572201,0.0161 1.145122,0.0239 1.717669,0.0235 v 0 c 0.453681,-2.7e-4 0.82092,-0.36827 0.820561,-0.82176 -2.65e-4,-0.45223 -0.366178,-0.81901 -0.818439,-0.82049 -0.555619,-0.002 -1.11125,-0.0127 -1.666171,-0.033 v 0 c -0.456139,-0.0167 -0.83961,0.33947 -0.856189,0.79554 -0.01659,0.45608 0.339371,0.83933 0.79551,0.85606 0.004,7e-5 0.005,1.4e-4 0.007,2.1e-4 z m 1.717669,0.0235 c 0.56551,-2.7e-4 1.131012,-0.0236 1.694043,-0.0768 v 0 c 0.450149,-0.0426 0.780698,-0.44207 0.738007,-0.89225 -0.0423,-0.44965 -0.440967,-0.77995 -0.890759,-0.73822 -0.51153,0.0475 -1.02553,0.0667 -1.539169,0.065 v 0 c -0.45367,-0.001 -0.822319,0.36501 -0.82374,0.81851 0,0.4535 0.364778,0.82229 0.818449,0.82374 0,0 0.004,0 0.004,0 z m 1.694043,-0.0768 c 0.447677,-0.0423 0.89535,-0.0806 1.344088,-0.11003 v 3e-5 c 0.451552,-0.0296 0.794096,-0.41995 0.764476,-0.87182 -0.0296,-0.45191 -0.420165,-0.79421 -0.871724,-0.76457 0,1e-4 -0.004,2.1e-4 -0.005,2.6e-4 -0.461791,0.0331 -0.923221,0.0729 -1.3843,0.11561 v 0 c -0.450141,0.0418 -0.781399,0.44069 -0.73942,0.89097 0.0416,0.45025 0.440621,0.78141 0.890759,0.73964 0,-7e-5 0,-1.1e-4 0,-1.4e-4 z m 1.344088,-0.11003 c 0.467069,-0.0306 0.935566,-0.0371 1.403696,-0.0365 v 0 c 0.45543,7.9e-4 0.82515,-0.36816 0.82586,-0.8237 0,-0.45554 -0.3683,-0.82533 -0.82373,-0.82593 -0.004,0 -0.004,0 -0.006,0 -0.50413,0.003 -1.009305,0.014 -1.512365,0.0501 v -4e-5 c -0.451559,0.0324 -0.791628,0.42482 -0.75918,0.87652 0.0325,0.44972 0.421571,0.78905 0.87172,0.75956 z m 1.403696,-0.0365 c 0.25365,2.6e-4 0.51047,-0.0235 0.75459,-0.0957 0.26106,-0.0772 0.54435,-0.22261 0.65969,-0.4844 v 0 c 0.0466,-0.10499 0.0579,-0.22208 0.0328,-0.33405 -0.0702,-0.3108 -0.36724,-0.51022 -0.64875,-0.61256 -0.25542,-0.093 -0.53129,-0.12453 -0.80222,-0.12295 v 0 c -0.45544,0.003 -0.822675,0.37409 -0.819855,0.82963 0.004,0.45322 0.370415,0.8194 0.823745,0.82 z" />
    <path
       inkscape:connector-curvature="0"
       id="path869"
       style="fill:#000000;fill-opacity:1;fill-rule:nonzero;stroke:none;stroke-width:0.35277778"
       d="m 102.67819,181.32673 v 0 c 0,0.16419 0.13335,0.29729 0.29739,0.29729 0.16439,0 0.29739,-0.1331 0.29739,-0.29729 v 0 c 0,-0.16417 -0.133,-0.29728 -0.29739,-0.29728 -0.16404,0 -0.29739,0.13311 -0.29739,0.29728 0,0 0,0 0,0 z m 0.031,0.43819 v 0 c 0.072,0.20461 0.29598,0.31228 0.50024,0.24053 0.20461,-0.0718 0.31256,-0.29577 0.2406,-0.50035 -0.009,-0.0253 -0.0201,-0.0497 -0.0342,-0.0726 -0.0406,-0.0675 -0.0822,-0.13466 -0.12771,-0.1989 -0.0536,-0.0757 -0.11536,-0.1498 -0.20461,-0.18419 v 0 c -0.0483,-0.0186 -0.10054,-0.0245 -0.15205,-0.0171 -0.13123,0.019 -0.23071,0.12033 -0.26952,0.24321 -0.0183,0.0586 -0.0236,0.12067 -0.0208,0.18192 0.005,0.10524 0.0335,0.20852 0.0681,0.30748 z m 0,0 c 0.0564,0.16091 0.11219,0.32202 0.16687,0.48352 v 0 c 0.0758,0.22391 0.31855,0.34396 0.54257,0.26822 0.22366,-0.0758 0.34396,-0.31867 0.26811,-0.54257 -0.004,-0.008 -0.006,-0.0162 -0.009,-0.0242 -0.073,-0.17923 -0.16228,-0.35173 -0.26211,-0.51743 v 0 c -0.11183,-0.18574 -0.35278,-0.24561 -0.5387,-0.13374 -0.15945,0.096 -0.2293,0.29065 -0.16792,0.4662 z m 0.16687,0.48352 c 0.0363,0.1076 0.0727,0.2159 0.0998,0.32632 v 0 c 0.0582,0.23756 0.2981,0.38291 0.53552,0.32459 0.23777,-0.0583 0.38312,-0.29813 0.32491,-0.53573 -0.004,-0.0161 -0.009,-0.0319 -0.0148,-0.0474 -0.0452,-0.12308 -0.0942,-0.24482 -0.14358,-0.36628 v 0 c -0.0892,-0.2189 -0.33902,-0.3241 -0.55774,-0.235 -0.2099,0.0853 -0.3168,0.31917 -0.24412,0.53355 z m 0.0998,0.32632 c 0.0374,0.15318 0.072,0.30716 0.10689,0.46098 v 0 c 0.0547,0.24271 0.29598,0.39488 0.5387,0.33997 0.24271,-0.0549 0.39475,-0.2962 0.34007,-0.53887 0,0 0,0 0,0 -0.0395,-0.17457 -0.078,-0.35239 -0.14005,-0.5207 v 0 c -0.0843,-0.22955 -0.33902,-0.3471 -0.56868,-0.26257 -0.21131,0.0779 -0.33055,0.30226 -0.27693,0.52119 z m 0.10689,0.46098 c 0.0448,0.19889 0.0942,0.39768 0.16016,0.59083 v 0 c 0.0797,0.23378 0.33409,0.3586 0.56798,0.27873 0.22895,-0.0782 0.35419,-0.32435 0.28257,-0.55556 -0.0522,-0.16863 -0.0931,-0.34082 -0.13194,-0.5129 v 0 c -0.055,-0.24268 -0.29633,-0.3949 -0.53904,-0.33997 -0.24271,0.0549 -0.39476,0.29619 -0.33973,0.53887 z m 0.16016,0.59083 c 0.0176,0.0516 0.0363,0.103 0.0596,0.15243 0.078,0.1656 0.2286,0.28826 0.42052,0.29013 v 0 c 0.0441,2.6e-4 0.0882,-0.006 0.13017,-0.0184 l 2.7e-4,1.1e-4 c 0.0455,-0.0136 0.0889,-0.0345 0.12771,-0.062 0.14145,-0.0997 0.20285,-0.26501 0.18521,-0.43099 v 0 c -0.007,-0.0668 -0.0296,-0.13099 -0.0656,-0.18757 -0.004,-0.007 -0.005,-0.0135 -0.007,-0.0205 v 0 c -0.073,-0.23601 -0.3235,-0.36816 -0.5595,-0.29513 -0.23601,0.073 -0.3683,0.32353 -0.29528,0.55958 0,0.004 0.004,0.008 0.004,0.0124 z m 0.0279,-0.1246 c 0.0113,0.0276 0.0219,0.0556 0.0289,0.0845 0.008,0.0306 0,-0.0295 2.7e-4,0.009 v 0 c -0.005,0.23989 0.18627,0.43808 0.42616,0.4427 0.23989,0.005 0.43815,-0.18609 0.44274,-0.42597 2.6e-4,-0.0182 -2.7e-4,-0.0364 -0.004,-0.0545 -0.007,-0.0708 -0.004,-0.144 0,-0.21495 v 0 c 0.008,-0.25632 -0.19297,-0.47074 -0.44909,-0.47889 -0.25647,-0.008 -0.47096,0.19304 -0.47907,0.44937 -0.004,0.0645 0.01,0.12876 0.0335,0.18863 z m -0.10795,-0.74151 c 0,0.24741 0.0145,0.50941 0.10795,0.74151 v 0 c 0.096,0.2378 0.36689,0.35274 0.60467,0.25671 0.17039,-0.0689 0.28433,-0.23198 0.28998,-0.41582 0.006,-0.19491 0.006,-0.39006 0.005,-0.58504 v 0 c 0,-0.27834 -0.22684,-0.50338 -0.50518,-0.50268 -0.27834,7.9e-4 -0.50341,0.22698 -0.50271,0.50532 0,0 0,0 0,0 z m 0,0 v 0 c 0,0.27834 0.22684,0.50342 0.50518,0.50268 0.27834,-8e-4 0.50342,-0.22699 0.50271,-0.50532 -2.6e-4,-0.18895 2.7e-4,-0.37906 -0.0138,-0.56762 v 0 c -0.0201,-0.26921 -0.2547,-0.47107 -0.52387,-0.45085 -0.23213,0.0174 -0.41946,0.19582 -0.44838,0.42661 -0.0247,0.19639 -0.0226,0.39698 -0.0219,0.5945 z m 0.99413,-0.57026 c -0.005,-0.0644 -0.004,-0.12926 0.005,-0.19329 v 0 c 0.0335,-0.25414 -0.14499,-0.48754 -0.39935,-0.5213 -0.23071,-0.0306 -0.44838,0.11434 -0.50905,0.33902 -0.0314,0.11525 -0.0536,0.23287 -0.0684,0.35133 v 0 c -0.0335,0.26787 0.15628,0.51223 0.42404,0.54578 0.26811,0.0336 0.51223,-0.15631 0.54574,-0.42418 0.004,-0.0323 0.005,-0.0649 0.004,-0.0974 z m 0.005,-0.19329 c 0.007,-0.0573 0.0173,-0.11476 0.0339,-0.17011 v 0 c 0.072,-0.23643 -0.0614,-0.48637 -0.29774,-0.55827 -0.21343,-0.065 -0.44238,0.0374 -0.53622,0.23996 -0.0455,0.0983 -0.0801,0.20158 -0.1083,0.3061 v 0 c -0.067,0.24751 0.0794,0.50243 0.32667,0.56939 0.24765,0.067 0.50271,-0.0794 0.56938,-0.32689 0.006,-0.0198 0.01,-0.0399 0.0124,-0.0602 z m 0.0339,-0.17011 c 0.007,-0.0239 0.0159,-0.0488 0.0293,-0.0701 v 0 c 0.12911,-0.2051 0.0677,-0.47628 -0.13724,-0.60568 -0.20249,-0.1276 -0.46954,-0.0698 -0.60113,0.13 -0.0476,0.0724 -0.0885,0.14891 -0.12488,0.22743 v 0 c -0.10372,0.22423 -0.006,0.49022 0.21801,0.59415 0.22402,0.1039 0.49001,0.006 0.59408,-0.21784 0.008,-0.0188 0.0159,-0.0381 0.0219,-0.058 z m -0.004,-0.0254 c 0.067,-0.0814 0.0374,-0.048 0.0229,-0.0343 -0.005,0.004 -0.0215,0.0163 -0.0159,0.0127 v 0 c 0.20638,-0.1318 0.26706,-0.40605 0.13512,-0.61253 -0.13159,-0.20648 -0.40605,-0.26701 -0.61243,-0.13518 -0.0155,0.01 -0.0307,0.0209 -0.0451,0.0328 -0.0741,0.0617 -0.13758,0.13554 -0.1905,0.21608 v 0 c -0.13335,0.20256 -0.0773,0.47487 0.12559,0.60822 0.18732,0.1234 0.43779,0.0855 0.58032,-0.0878 z m -0.0483,0.008 c 0.0197,-0.009 0.0402,-0.0104 0.0621,-0.0122 v 0 c 0.25011,-0.0208 0.43603,-0.24049 0.41521,-0.49057 -0.0208,-0.25012 -0.24059,-0.43593 -0.49071,-0.41508 -0.0113,0.001 -0.0226,0.002 -0.0339,0.004 -0.14993,0.024 -0.30092,0.0702 -0.4198,0.16887 v 0 c -0.18803,0.15667 -0.21378,0.43632 -0.0571,0.62463 0.1277,0.1536 0.34219,0.20281 0.52423,0.12026 z m 0.0624,-0.0122 c 0.1778,-0.0148 0.35842,-0.0109 0.53657,-0.0109 v 0 c 0.25436,-1.1e-4 0.46003,-0.20613 0.46003,-0.4602 0,-0.25404 -0.20603,-0.45992 -0.46038,-0.45981 -0.21378,1e-4 -0.43392,-0.005 -0.64594,0.0294 v 0 c -0.248,0.0397 -0.41663,0.27266 -0.37676,0.52049 0.0374,0.2347 0.24941,0.40082 0.48648,0.38103 z m 0.53657,-0.0109 c 0.26282,-1.1e-4 0.54928,-0.01 0.79164,-0.12221 v 0 c 0.21625,-0.10022 0.31044,-0.35676 0.2099,-0.57301 -0.0794,-0.17181 -0.26176,-0.27164 -0.44944,-0.24617 -0.18203,0.0247 -0.36936,0.0213 -0.55245,0.0214 v 0 c -0.254,1e-4 -0.45967,0.20616 -0.45967,0.46019 0,0.25408 0.20602,0.45992 0.46002,0.45982 0,0 0,0 0,0 z m 0.79164,-0.12221 c 0.18838,-0.0873 0.37782,-0.25347 0.41486,-0.46813 v 0 c 0.0169,-0.0997 -0.0257,-0.20017 -0.10901,-0.25732 -0.15451,-0.10594 -0.36512,-0.11818 -0.54539,-0.0937 v 0 c -0.23601,0.032 -0.40181,0.24948 -0.36971,0.48567 0.0321,0.23618 0.24977,0.40167 0.48577,0.3696 0.0427,-0.006 0.0843,-0.0179 0.12348,-0.0361 z" />
    <path
       inkscape:connector-curvature="0"
       id="path927"
       style="fill:#000000;fill-opacity:1;fill-rule:nonzero;stroke:none;stroke-width:0.35277778"
       d="m 43.741023,141.91811 c 0.0462,-0.0173 0.0996,-0.0208 0.148129,-0.0257 0.10555,-0.0106 0.21191,-0.014 0.317921,-0.0157 v 0 c 0.0964,-0.001 0.17318,-0.0809 0.17159,-0.17727 -0.0011,-0.0963 -0.0809,-0.17315 -0.177231,-0.1716 -0.18292,0.003 -0.369538,0.001 -0.551288,0.0251 v 0 c -0.10372,0.0136 -0.176742,0.10876 -0.163092,0.21245 0.0136,0.10371 0.108762,0.17674 0.212442,0.16309 0.01421,-0.002 0.0281,-0.005 0.0415,-0.0103 z m -0.231709,0.0988 c 0.0758,-0.0363 0.152998,-0.0694 0.231709,-0.0988 v 0 c 0.098,-0.0366 0.14778,-0.14563 0.11123,-0.24363 -0.0308,-0.0827 -0.114659,-0.13307 -0.202109,-0.12157 -0.105342,0.0139 -0.208672,0.0414 -0.307552,0.0802 v 0 c -0.10767,0.0422 -0.160758,0.16362 -0.1186,0.27132 0.0422,0.10767 0.163611,0.16076 0.27128,0.11861 0.005,-0.002 0.009,-0.004 0.014,-0.006 z m -0.179142,0.12103 c 0.0535,-0.0486 0.113882,-0.0898 0.179181,-0.12107 h -3.9e-5 c 0.10432,-0.0499 0.148418,-0.17494 0.0985,-0.27922 -0.0474,-0.099 -0.163089,-0.14461 -0.265221,-0.1046 -0.0873,0.0342 -0.17466,0.0684 -0.261969,0.10255 v 0 c -0.123831,0.0484 -0.18496,0.18803 -0.13656,0.31186 0.0484,0.12382 0.188029,0.18496 0.311849,0.13652 0.0274,-0.0107 0.0525,-0.0263 0.0743,-0.046 z m -0.188949,0.18373 c 0.0609,-0.0634 0.123899,-0.12464 0.188949,-0.18373 v 0 c 0.0984,-0.0894 0.105662,-0.24165 0.0163,-0.34004 -0.0671,-0.0739 -0.172861,-0.0986 -0.265811,-0.0623 -0.105479,0.0412 -0.206479,0.0938 -0.30039,0.15716 v 4e-5 c -0.12905,0.087 -0.163129,0.26225 -0.0761,0.3913 0.0871,0.12908 0.262249,0.16312 0.391329,0.0761 0.01659,-0.0112 0.0319,-0.0241 0.0457,-0.0385 z m -0.130771,0.16203 c 0.0381,-0.0582 0.0827,-0.11194 0.13081,-0.16207 v 0 c 0.107771,-0.11232 0.104101,-0.29075 -0.008,-0.39856 -0.0958,-0.0919 -0.24275,-0.10453 -0.352811,-0.0303 -0.0962,0.0649 -0.184399,0.14217 -0.25813,0.23198 v 0 c -0.10636,0.12951 -0.0876,0.32075 0.042,0.42711 0.1295,0.10633 0.320749,0.0876 0.427111,-0.042 0.007,-0.008 0.01331,-0.0171 0.01929,-0.0262 z m -0.0593,0.13296 c 0.01241,-0.0472 0.0325,-0.0922 0.0593,-0.13299 v 0 c 0.0919,-0.14016 0.0527,-0.3283 -0.0875,-0.42013 -0.129648,-0.085 -0.302509,-0.0586 -0.40086,0.0612 -0.0679,0.0827 -0.125939,0.17332 -0.172468,0.26967 h -4e-5 c -0.0774,0.16019 -0.01029,0.35277 0.1499,0.43017 0.160189,0.0774 0.352769,0.0103 0.43017,-0.14989 0.009,-0.0186 0.01619,-0.0381 0.02151,-0.0581 z m -0.0231,0.27048 c 0.0011,-0.0888 2.41e-4,-0.18387 0.0231,-0.27048 h -4.2e-5 c 0.0453,-0.17201 -0.0574,-0.34822 -0.22941,-0.39356 -0.14905,-0.0393 -0.305009,0.0326 -0.37207,0.17135 -0.0696,0.14404 -0.0913,0.30861 -0.10178,0.46655 v 0 c -0.01241,0.1876 0.129611,0.34981 0.317251,0.36223 0.187651,0.0124 0.349819,-0.12965 0.362231,-0.31729 2.64e-4,-0.006 7.93e-4,-0.0125 7.93e-4,-0.0188 z m -0.656241,0.46951 h -4.2e-5 c 0.0365,0.18916 0.219329,0.31298 0.408479,0.27658 0.189162,-0.0364 0.312992,-0.21932 0.276551,-0.40848 -2.65e-4,-0.002 -0.0011,-0.005 -0.0011,-0.007 -0.0232,-0.10817 -0.0285,-0.22 -0.0273,-0.33035 v 0 c 0.0021,-0.18803 -0.14877,-0.34212 -0.336802,-0.34413 -0.180728,-0.002 -0.331509,0.13762 -0.343429,0.31799 -0.0109,0.16521 -0.007,0.33271 0.024,0.49566 z m 0,0 c 0.0305,0.15854 0.0863,0.3114 0.15635,0.45653 v 0 c 0.0841,0.17445 0.293791,0.24765 0.468241,0.16348 0.174451,-0.0841 0.24765,-0.2938 0.163479,-0.46825 -0.0448,-0.0928 -0.0828,-0.18993 -0.104558,-0.29097 v 0 c -0.0404,-0.18834 -0.22592,-0.30822 -0.414272,-0.26779 -0.185528,0.0399 -0.305149,0.2207 -0.26928,0.40704 z m 0.15635,0.45653 c 0.0737,0.15279 0.163621,0.29767 0.266952,0.43219 v 0 c 0.116588,0.15176 0.334147,0.1803 0.485949,0.0637 0.147781,-0.11353 0.179351,-0.32361 0.0714,-0.47551 -0.073,-0.10284 -0.137761,-0.21156 -0.192551,-0.32516 h -3.1e-5 c -0.0841,-0.17445 -0.293788,-0.24765 -0.468239,-0.16347 -0.17445,0.0841 -0.24765,0.29379 -0.163481,0.46824 0,0 0,0 0,0 z m 0.266952,0.43219 c 0.105508,0.13737 0.224859,0.2638 0.354399,0.37874 v 0 c 0.13917,0.12351 0.352139,0.11081 0.475649,-0.0284 0.119451,-0.13459 0.11204,-0.3393 -0.0168,-0.46493 -0.0937,-0.0914 -0.18002,-0.19046 -0.255871,-0.29721 v 0 c -0.110839,-0.15607 -0.32717,-0.19269 -0.483229,-0.0818 -0.156041,0.11084 -0.192662,0.32716 -0.0818,0.48323 0.0021,0.004 0.005,0.007 0.008,0.0104 z m 0.354399,0.37874 c 0.132569,0.11765 0.275341,0.22362 0.425479,0.31778 v -3e-5 c 0.152331,0.0955 0.35324,0.0495 0.44877,-0.1028 0.0923,-0.14711 0.0529,-0.34072 -0.0896,-0.44002 -0.115541,-0.0805 -0.22497,-0.16994 -0.325832,-0.26825 v 0 c -0.133239,-0.1299 -0.34657,-0.12715 -0.476459,0.006 -0.129889,0.13327 -0.12718,0.3466 0.006,0.47649 0.004,0.004 0.008,0.007 0.01159,0.0107 z m 0.425479,0.31778 c 0.15431,0.0967 0.315632,0.182 0.481581,0.25689 v 4e-5 c 0.157729,0.0712 0.343289,10e-4 0.41448,-0.1567 0.0687,-0.1523 0.006,-0.33179 -0.14298,-0.40785 -0.136279,-0.0696 -0.268359,-0.14771 -0.393909,-0.23523 v 0 c -0.1475,-0.10284 -0.350423,-0.0666 -0.45325,0.0809 -0.102801,0.14749 -0.0666,0.35041 0.0809,0.45321 0.004,0.003 0.009,0.006 0.0132,0.009 z m 0.481581,0.25693 c 0.172609,0.0779 0.350941,0.14291 0.53294,0.19516 h 3.9e-5 c 0.15984,0.0459 0.326599,-0.0465 0.37246,-0.20638 0.0444,-0.15487 -0.0409,-0.31725 -0.19357,-0.36851 -0.151058,-0.0507 -0.298489,-0.11233 -0.440409,-0.18482 v 0 c -0.154059,-0.0787 -0.342792,-0.0177 -0.421532,0.13638 -0.0787,0.1541 -0.0177,0.34283 0.136382,0.42157 0.005,0.002 0.009,0.005 0.01371,0.007 z m 0.532979,0.19516 c 0.183089,0.0525 0.370621,0.0898 0.560099,0.10999 v 0 c 0.157131,0.0167 0.298032,-0.0971 0.314751,-0.25424 0.0159,-0.1493 -0.0864,-0.28551 -0.234169,-0.31193 -0.156641,-0.028 -0.31101,-0.0681 -0.461791,-0.11871 v 0 c -0.15766,-0.0529 -0.328369,0.032 -0.38132,0.18962 -0.0529,0.15765 0.032,0.32836 0.189622,0.38128 0.004,10e-4 0.008,0.003 0.01281,0.004 z m 0.560099,0.10999 c 0.178401,0.019 0.358183,0.0261 0.537491,0.0192 v 0 c 0.14574,-0.006 0.259331,-0.12827 0.253762,-0.274 -0.005,-0.13487 -0.111231,-0.24412 -0.245851,-0.25333 -0.155901,-0.0106 -0.31105,-0.0305 -0.46482,-0.058 v 0 c -0.155541,-0.0278 -0.304199,0.0758 -0.331999,0.23135 -0.0278,0.15554 0.0758,0.30417 0.231309,0.33197 0.007,0.001 0.01339,0.002 0.02011,0.003 z m 0.537531,0.0192 c 0.177342,-0.007 0.353912,-0.0336 0.524682,-0.0822 v 0 c 0.127039,-0.0361 0.200768,-0.16831 0.164679,-0.29534 -0.0335,-0.11787 -0.15063,-0.19131 -0.27132,-0.17018 -0.135249,0.0237 -0.273261,0.0297 -0.41021,0.0204 v 0 c -0.145492,-0.01 -0.271499,0.1 -0.28145,0.24546 -0.01,0.14548 0.1,0.2715 0.24547,0.28144 0.009,7.2e-4 0.01881,7.2e-4 0.0282,3.5e-4 z m 0.524682,-0.0822 c 0.168068,-0.0477 0.329289,-0.11846 0.47834,-0.20965 v 0 c 0.101698,-0.0622 0.133699,-0.19509 0.0715,-0.29679 -0.058,-0.0949 -0.17858,-0.13015 -0.27859,-0.0815 -0.119521,0.0581 -0.246909,0.0995 -0.37786,0.12241 v 0 c -0.130069,0.0228 -0.217029,0.14675 -0.194199,0.27682 0.02281,0.13007 0.14672,0.21703 0.276789,0.19421 0.008,-0.001 0.01619,-0.003 0.024,-0.005 z m 0.47834,-0.20965 c 0.142518,-0.0872 0.276608,-0.18803 0.399589,-0.30117 v 0 c 0.0821,-0.0756 0.0874,-0.20341 0.0118,-0.2855 -0.0744,-0.0808 -0.199642,-0.0874 -0.28208,-0.0149 -0.10146,0.0892 -0.214982,0.16422 -0.336482,0.22331 v 0 c -0.107209,0.0521 -0.151839,0.18136 -0.0997,0.28857 0.0521,0.10721 0.181361,0.15187 0.288571,0.0997 0.006,-0.003 0.0123,-0.006 0.0182,-0.01 z m 0.39955,-0.30117 c 0.11829,-0.10883 0.227089,-0.22814 0.32226,-0.35772 v 0 c 0.0652,-0.0888 0.0461,-0.21353 -0.0427,-0.27873 -0.0887,-0.0651 -0.213389,-0.0461 -0.278619,0.0425 -0.0791,0.10753 -0.17099,0.20539 -0.271179,0.29348 v 0 c -0.0838,0.0737 -0.092,0.20133 -0.01831,0.28512 0.0737,0.0838 0.20133,0.092 0.28515,0.0184 0.0011,-0.001 0.0021,-0.002 0.004,-0.003 z m 0.32226,-0.35772 c 0.0958,-0.13031 0.176498,-0.27132 0.243318,-0.41853 v 0 c 0.0463,-0.10206 0.0011,-0.22232 -0.100899,-0.26864 -0.10206,-0.0463 -0.22235,-10e-4 -0.268671,0.10089 -7.93e-4,0.002 -0.0021,0.004 -0.0021,0.006 -0.0506,0.12164 -0.1143,0.23802 -0.192411,0.34421 h -2.9e-5 c -0.0652,0.0887 -0.0463,0.21346 0.0424,0.27873 0.0887,0.0653 0.21346,0.0463 0.27872,-0.0424 3.9e-5,-4e-5 7.9e-5,-7e-5 1.11e-4,-1.1e-4 z m 0.243318,-0.41853 c 0.0675,-0.1488 0.122902,-0.30314 0.16474,-0.46112 v 0 c 0.0293,-0.11077 -0.0367,-0.2244 -0.14746,-0.25375 -0.11081,-0.0293 -0.224398,0.0367 -0.253748,0.14746 -1.8e-4,7.2e-4 -2.65e-4,0.001 -2.65e-4,0.002 -0.0352,0.13769 -0.0806,0.2727 -0.135218,0.40386 v 0 c -0.0431,0.10347 0.006,0.22225 0.10936,0.26533 0.101169,0.0421 0.21748,-0.004 0.262779,-0.10347 z m 0.16474,-0.46112 c 0.0422,-0.15896 0.0716,-0.32124 0.0894,-0.48471 v 0 c 0.0127,-0.11667 -0.0715,-0.22151 -0.188169,-0.23421 -0.116631,-0.0127 -0.221512,0.0715 -0.234212,0.18817 -2.49e-4,0.002 -2.65e-4,0.005 -7.94e-4,0.007 -0.01061,0.14129 -0.0328,0.2818 -0.068,0.41913 v -3e-5 c -0.0284,0.11105 0.0386,0.22412 0.14962,0.25252 0.110381,0.0282 0.222879,-0.0378 0.25206,-0.14792 z m 0.0894,-0.48471 c 0.01741,-0.15974 0.0303,-0.31994 0.0386,-0.48042 h 3.9e-5 c 0.006,-0.12477 -0.0895,-0.2311 -0.21432,-0.23752 -0.12477,-0.006 -0.23114,0.0895 -0.237559,0.21431 -2.65e-4,0.006 -2.65e-4,0.0127 -1.69e-4,0.019 0.005,0.14859 0.0021,0.29743 -0.01,0.44563 v 0 c -0.009,0.11702 0.0789,0.219 0.19593,0.22779 0.114231,0.009 0.214701,-0.0749 0.227121,-0.18881 z m -0.48694,-0.86322 c 0.0445,0.12136 0.0693,0.24945 0.0735,0.37861 h -2.9e-5 c 0.004,0.12488 0.108648,0.22277 0.233529,0.21868 0.11752,-0.004 0.21245,-0.0971 0.218519,-0.21449 0.009,-0.17434 -0.004,-0.34956 -0.0389,-0.52063 h -2.9e-5 c -0.0279,-0.13723 -0.161822,-0.22585 -0.29909,-0.19791 -0.137231,0.0279 -0.22584,0.16182 -0.1979,0.29909 0.0021,0.0125 0.006,0.0247 0.0104,0.0366 z m -0.179734,-0.34445 c 0.0747,0.10633 0.135049,0.22243 0.179739,0.34445 h -3.1e-5 c 0.0482,0.13152 0.193852,0.19904 0.32536,0.15089 0.117761,-0.0431 0.18627,-0.16584 0.161261,-0.28872 -0.0357,-0.17564 -0.0962,-0.34593 -0.18002,-0.50443 l -3.9e-5,3e-5 c -0.0737,-0.13949 -0.246592,-0.19279 -0.38608,-0.11902 -0.139452,0.0737 -0.192762,0.24659 -0.118991,0.38608 0.006,0.0106 0.01191,0.0209 0.01881,0.0307 z m -0.264052,-0.29319 c 0.099,0.0871 0.188201,0.18524 0.264052,0.29316 v 0 c 0.0907,0.12911 0.268888,0.16023 0.397968,0.0695 0.117721,-0.0827 0.15558,-0.2401 0.0883,-0.36728 -0.0848,-0.16055 -0.191522,-0.30903 -0.31496,-0.44214 v 0 c -0.117261,-0.12647 -0.314852,-0.13395 -0.441323,-0.0167 -0.126468,0.11727 -0.133918,0.31486 -0.0167,0.44137 0.007,0.008 0.01471,0.0151 0.0226,0.022 z m -0.33592,-0.23996 c 0.119632,0.0686 0.23241,0.14884 0.33592,0.23996 v 0 c 0.129432,0.11395 0.326779,0.10142 0.440762,-0.028 0.105899,-0.1203 0.103568,-0.3012 -0.005,-0.41871 -0.126301,-0.13621 -0.26938,-0.25654 -0.424751,-0.35832 v -4e-5 c -0.15317,-0.10036 -0.358738,-0.0575 -0.4591,0.0956 -0.10037,0.15318 -0.0575,0.35874 0.0956,0.45911 0.006,0.004 0.01109,0.007 0.01691,0.0104 z m -0.39179,-0.1802 c 0.135462,0.0487 0.26687,0.10866 0.39179,0.1802 v 0 c 0.15893,0.091 0.361529,0.036 0.452581,-0.12287 0.0872,-0.15226 0.0408,-0.34608 -0.106011,-0.44225 -0.156491,-0.10251 -0.324019,-0.18788 -0.49833,-0.25579 v 0 c -0.176069,-0.0686 -0.374409,0.0185 -0.442989,0.19455 -0.0686,0.17607 0.0185,0.37441 0.194559,0.44302 0.003,0.001 0.006,0.002 0.008,0.003 z m -0.420161,-0.0882 c 0.142981,0.0119 0.284973,0.0396 0.420161,0.0882 v 0 c 0.1778,0.064 0.373801,-0.0283 0.437762,-0.20613 0.0628,-0.17452 -0.0249,-0.36727 -0.197732,-0.43458 -0.191029,-0.0744 -0.392639,-0.11963 -0.596439,-0.14023 v 0 c -0.19114,-0.0193 -0.361781,0.11998 -0.381072,0.31111 -0.01929,0.19117 0.119981,0.36177 0.311111,0.38107 0.0021,2.1e-4 0.004,3.5e-4 0.006,7.1e-4 z m -0.507148,0.0118 c 0.16813,-0.0197 0.33831,-0.0258 0.507148,-0.0118 v 0 c 0.191453,0.0159 0.359551,-0.12644 0.375431,-0.31792 0.01569,-0.18902 -0.122949,-0.35578 -0.311679,-0.37486 -0.215339,-0.0218 -0.432761,-0.0183 -0.64792,0.004 v 0 c -0.193709,0.0198 -0.3346,0.19293 -0.31478,0.38664 0.0199,0.19371 0.192969,0.33461 0.386681,0.31478 0.0021,-1.7e-4 0.004,-3.5e-4 0.005,-7e-4 z m -0.55065,0.15374 c 0.175961,-0.0736 0.36068,-0.13144 0.55065,-0.15374 v 0 c 0.19339,-0.0227 0.33178,-0.19787 0.30906,-0.39123 -0.02241,-0.19138 -0.194381,-0.32928 -0.38608,-0.30963 -0.256751,0.0263 -0.507251,0.0985 -0.745701,0.19568 v 0 c -0.182309,0.0743 -0.269838,0.28233 -0.195509,0.46465 0.0743,0.18228 0.282369,0.2698 0.464651,0.19547 0.0011,-3.5e-4 0.0021,-7.1e-4 0.003,-0.001 z m -0.684181,0.33743 c 0.221861,-0.12435 0.44944,-0.23929 0.684181,-0.33743 v 0 c 0.18161,-0.076 0.2673,-0.28473 0.191338,-0.46637 -0.0755,-0.18048 -0.282289,-0.26642 -0.463409,-0.19255 -0.26197,0.10682 -0.51562,0.23336 -0.762278,0.37165 v 0 c -0.172511,0.0967 -0.233961,0.31493 -0.137261,0.48744 0.0967,0.17251 0.314921,0.23396 0.487429,0.13726 z m -1.55131,0.84459 c 0.51813,-0.2794 1.03773,-0.55676 1.55131,-0.84459 v 4e-5 c 0.172511,-0.0967 0.23396,-0.31493 0.1373,-0.48747 -0.0967,-0.17251 -0.314928,-0.234 -0.487429,-0.1373 -3.9e-5,0 -3.9e-5,0 -3.9e-5,0 -0.21064,0.11807 -0.399272,0.27732 -0.58166,0.4342 -0.28303,0.24345 -0.553472,0.50154 -0.8201,0.7627 v 0 c -0.0674,0.066 -0.0686,0.17417 -0.0021,0.24158 0.0533,0.0544 0.136099,0.067 0.203129,0.0308 z" />
    <path
       inkscape:connector-curvature="0"
       id="path929"
       style="fill:#000000;fill-opacity:1;fill-rule:nonzero;stroke:none;stroke-width:0.35277778"
       d="m 48.337854,142.12787 h 3.9e-5 c 0.0515,0.22705 0.277281,0.36932 0.504291,0.31782 0.22705,-0.0515 0.369329,-0.27729 0.31782,-0.5043 -0.003,-0.0137 -0.007,-0.0273 -0.0114,-0.0406 -0.0402,-0.12002 -0.0997,-0.2352 -0.18161,-0.33218 -0.0744,-0.0882 -0.186971,-0.18746 -0.310301,-0.18393 v 0 c -0.008,2.4e-4 -0.01529,0.001 -0.02289,0.002 -0.14284,0.0212 -0.237281,0.1731 -0.27954,0.29806 -0.0481,0.14203 -0.0494,0.29767 -0.0164,0.44309 z m 0,0 c 0.0316,0.13942 0.0617,0.27926 0.087,0.41998 v 0 c 0.0431,0.23975 0.27242,0.3992 0.512199,0.35609 0.23975,-0.0431 0.399201,-0.27238 0.356089,-0.51216 -0.0021,-0.0101 -0.004,-0.0201 -0.006,-0.03 -0.0393,-0.15554 -0.0872,-0.30889 -0.13808,-0.46101 v 0 c -0.0739,-0.22073 -0.31277,-0.33976 -0.533541,-0.26585 -0.205279,0.0687 -0.32512,0.28183 -0.277209,0.49293 z m 0.087,0.41994 c 0.0364,0.20285 0.0639,0.40739 0.0924,0.61147 h -4e-5 c 0.0342,0.24526 0.260742,0.41632 0.50596,0.38213 0.24525,-0.0342 0.416351,-0.2607 0.382162,-0.50595 -7.2e-5,-3.4e-4 -1.41e-4,-0.001 -2.12e-4,-0.001 -0.032,-0.22461 -0.0628,-0.45198 -0.118388,-0.67225 v 0 c -0.0597,-0.23619 -0.299471,-0.37931 -0.535691,-0.31966 -0.22465,0.0567 -0.367141,0.27764 -0.326149,0.50568 z m 0.0924,0.61147 c 0.0403,0.28918 0.0705,0.57972 0.0911,0.87094 v 0 c 0.01749,0.24741 0.23231,0.43371 0.479711,0.41617 0.247369,-0.0175 0.4337,-0.2323 0.416168,-0.47967 0,0 0,-3e-5 0,-3e-5 -0.02209,-0.31189 -0.0549,-0.62308 -0.0991,-0.93264 h -4e-5 c -0.035,-0.24511 -0.262009,-0.4155 -0.507151,-0.38054 -0.244578,0.0349 -0.414869,0.26109 -0.380759,0.50578 z m 0.0911,0.87094 c 0.01939,0.27439 0.0434,0.54868 0.0782,0.82159 v 0 c 0.0293,0.23011 0.239671,0.39285 0.469789,0.3635 0.202991,-0.0259 0.357791,-0.19431 0.366501,-0.39878 0.01209,-0.28321 0.0011,-0.56723 -0.0186,-0.84984 v 0 c -0.01749,-0.24737 -0.232299,-0.43371 -0.479711,-0.41617 -0.247359,0.0176 -0.4337,0.23233 -0.416168,0.4797 z m 0.0782,0.82159 c 0.02551,0.20013 0.0546,0.42329 0.161499,0.59901 h -3.9e-5 c 0.099,0.16263 0.31101,0.21428 0.473641,0.11536 0.0853,-0.0519 0.143939,-0.13829 0.160689,-0.23671 0.0287,-0.16863 0.0332,-0.34241 0.0405,-0.51294 v 0 c 0.01,-0.23174 -0.17,-0.42764 -0.40178,-0.43748 -0.23177,-0.01 -0.42763,0.17 -0.43751,0.40178 -0.0011,0.0237 0,0.0474 0.003,0.071 z m 0.161499,0.59898 c 0.0857,0.14097 0.255662,0.23392 0.420442,0.17603 v 0 c 0.0504,-0.0177 0.0951,-0.0488 0.129328,-0.0898 0.0491,-0.0589 0.0719,-0.13321 0.0845,-0.20754 v 0 c 0.0319,-0.18767 -0.0944,-0.36569 -0.282038,-0.39761 -0.187682,-0.0319 -0.365691,0.0944 -0.397621,0.28204 -0.01389,0.0818 0.0021,0.16599 0.0453,0.23689 z" />
    <path
       inkscape:connector-curvature="0"
       id="path931"
       style="fill:#000000;fill-opacity:1;fill-rule:nonzero;stroke:none;stroke-width:0.35277778"
       d="m 47.785404,141.27834 c 0.003,0.12464 0.0375,0.25153 0.0646,0.37243 v 0 c 0.02101,0.094 0.114271,0.15325 0.208322,0.13222 0.094,-0.021 0.153239,-0.11426 0.13222,-0.20828 -0.0218,-0.0978 -0.054,-0.20334 -0.0563,-0.3043 v 0 c -0.0021,-0.0963 -0.0821,-0.17265 -0.178401,-0.17047 -0.0963,0.002 -0.172651,0.0821 -0.17046,0.1784 0,0 0,0 0,0 z m 0,0 h -3.2e-5 c 0.0021,0.0963 0.0821,0.17265 0.178401,0.17043 0.095,-0.002 0.170741,-0.0799 0.170489,-0.17487 0.0011,-0.002 0.004,-0.005 0.006,-0.007 h 2.9e-5 c 0.0767,-0.0721 0.0804,-0.19283 0.008,-0.26949 -0.0721,-0.0767 -0.192792,-0.0804 -0.269489,-0.008 -0.0173,0.0163 -0.0314,0.0356 -0.0415,0.057 -0.0345,0.0725 -0.0539,0.15159 -0.0521,0.23209 z m 0.35483,-0.0113 c 0.0503,-0.0473 0.104029,-0.091 0.158009,-0.13409 v 0 c 0.0895,-0.0714 0.10414,-0.20179 0.0328,-0.29125 -0.0714,-0.0895 -0.201789,-0.10414 -0.291261,-0.0328 -2.64e-4,2.5e-4 -7.94e-4,7e-4 -0.0011,7e-4 -0.0805,0.065 -0.15639,0.14217 -0.201298,0.23658 v 0 c -0.0452,0.0951 -0.005,0.20884 0.0903,0.25407 0.0709,0.0337 0.155249,0.0205 0.212479,-0.0333 z m 0.158009,-0.13412 c 0.0616,-0.0491 0.140819,-0.0762 0.216069,-0.0959 v 0 c 0.137232,-0.0357 0.219501,-0.17597 0.183732,-0.3132 -0.0357,-0.13723 -0.175971,-0.2195 -0.3132,-0.18373 -0.0418,0.0109 -0.0803,0.0322 -0.111691,0.0619 -0.0758,0.0717 -0.15317,0.14207 -0.234379,0.20765 v 0 c -0.089,0.0719 -0.10291,0.20242 -0.031,0.29146 0.0716,0.0887 0.201369,0.10284 0.290449,0.0318 z m 0.21604,-0.0958 c 0.141391,-0.0368 0.281869,-0.0771 0.42178,-0.11917 h -3.9e-5 c 0.1729,-0.052 0.270938,-0.23428 0.21894,-0.40718 -0.052,-0.17289 -0.234281,-0.27089 -0.407181,-0.21893 -0.0186,0.006 -0.0366,0.0128 -0.0539,0.0216 -0.151878,0.0771 -0.296658,0.17131 -0.420729,0.28857 v 0 c -0.103011,0.0974 -0.107591,0.25996 -0.01019,0.36301 0.0643,0.068 0.16066,0.0957 0.251291,0.0721 z m 0.42178,-0.11917 c 0.158679,-0.0477 0.316439,-0.0985 0.473279,-0.15191 v 0 c 0.18211,-0.062 0.279511,-0.25985 0.217562,-0.44196 -0.062,-0.18214 -0.25985,-0.27954 -0.44196,-0.21755 -2.65e-4,1.4e-4 -7.94e-4,2.8e-4 -0.0011,3.5e-4 -0.167671,0.0577 -0.33175,0.12622 -0.489899,0.20655 v 0 c -0.16097,0.0818 -0.225182,0.27852 -0.143402,0.43949 0.0717,0.14104 0.234072,0.21054 0.385551,0.16499 h 2.9e-5 z m 0.473279,-0.15191 c 0.140272,-0.0477 0.28353,-0.0867 0.428842,-0.11564 v 0 c 0.18891,-0.0376 0.311539,-0.22126 0.273899,-0.41017 -0.0376,-0.18888 -0.22126,-0.3115 -0.410141,-0.2739 -0.175688,0.035 -0.348829,0.0823 -0.51816,0.14058 v 0 c -0.18189,0.0626 -0.27859,0.26085 -0.216008,0.44274 0.0625,0.18143 0.259889,0.2782 0.441568,0.21639 z m 0.428842,-0.11564 c 0.124209,-0.0248 0.248388,-0.0496 0.372039,-0.077 v 0 c 0.181721,-0.0402 0.296471,-0.22002 0.256331,-0.40174 -0.0352,-0.15903 -0.179002,-0.27016 -0.341771,-0.26402 -0.142139,0.005 -0.28367,0.0309 -0.422841,0.0587 v 0 c -0.18891,0.0376 -0.311539,0.22126 -0.273928,0.41018 0.0376,0.18887 0.22126,0.3115 0.41017,0.27389 0,0 0,0 0,0 z m 0.372039,-0.077 c 0.0461,-0.0102 0.0948,-0.0123 0.141711,-0.0154 0.100298,-0.007 0.200839,-0.009 0.30131,-0.0103 v -3e-5 c 0.175289,-0.002 0.315449,-0.14648 0.313049,-0.32177 -0.0021,-0.17025 -0.138639,-0.30836 -0.30885,-0.31295 -0.1772,-0.005 -0.355389,-0.0119 -0.53263,-0.005 v 0 c -0.185979,0.007 -0.331039,0.16348 -0.32402,0.34943 0.007,0.18598 0.16347,0.33104 0.34942,0.32402 0.02021,-7e-4 0.0403,-0.003 0.06,-0.008 z m 0.443021,-0.0258 c 0.159448,-0.002 0.323109,-0.009 0.481999,0.009 v 0 c 0.15444,0.0175 0.29383,-0.0935 0.311359,-0.24793 0.01281,-0.11278 -0.0434,-0.22221 -0.142589,-0.27749 -0.0878,-0.049 -0.188241,-0.0728 -0.286851,-0.0885 -0.118848,-0.019 -0.23953,-0.0263 -0.359719,-0.0295 v 0 c -0.175229,-0.005 -0.321141,0.13349 -0.325901,0.30875 -0.005,0.17526 0.13353,0.32117 0.30875,0.32589 0.004,1.1e-4 0.009,1.4e-4 0.01299,7e-5 z m 0.481999,0.009 c 0.0446,0.005 0.0938,0.012 0.133739,0.0339 v 0 c 0.116382,0.0638 0.262432,0.0212 0.32621,-0.0952 0.0525,-0.0956 0.0339,-0.21463 -0.0453,-0.28973 -0.0731,-0.0694 -0.158121,-0.12538 -0.24592,-0.17435 v 0 c -0.13575,-0.0757 -0.307171,-0.027 -0.382839,0.10873 -0.0757,0.13575 -0.027,0.30716 0.108728,0.38287 0.0325,0.0181 0.0683,0.0296 0.105341,0.0338 z m 0.133739,0.0339 c 0.02349,0.0129 0.0461,0.0291 0.0619,0.0511 h -3.2e-5 c 0.0692,0.0962 0.203272,0.11818 0.299511,0.049 0.0767,-0.0551 0.108299,-0.15381 0.078,-0.24324 -0.0314,-0.0925 -0.0877,-0.17473 -0.158329,-0.24183 v 0 c -0.0962,-0.0914 -0.248351,-0.0875 -0.33972,0.009 -0.0914,0.0962 -0.0875,0.24836 0.009,0.33976 0.015,0.0143 0.0318,0.0265 0.05,0.0365 z m 0.0618,0.0511 c 0.01331,0.0185 0.01699,0.0435 0.0181,0.0656 v 0 c 0.006,0.11261 0.101849,0.19922 0.21449,0.1934 0.112609,-0.006 0.19921,-0.10182 0.193389,-0.21446 -1.4e-4,-0.003 -2.65e-4,-0.007 -7.94e-4,-0.01 -0.008,-0.0777 -0.0227,-0.1548 -0.0478,-0.22878 v 0 c -0.0381,-0.11221 -0.159978,-0.17229 -0.272169,-0.13419 -0.11222,0.0381 -0.172289,0.15998 -0.134189,0.2722 0.007,0.0201 0.01659,0.039 0.0289,0.0562 z m 0.41691,0.30741 c 0.0132,-0.0902 0.01749,-0.18199 0.008,-0.27283 v 0 c -0.0113,-0.11222 -0.11144,-0.19403 -0.22366,-0.18271 -0.108342,0.0109 -0.18909,0.10495 -0.183481,0.21371 0.0021,0.0351 -0.0114,0.07 -0.0278,0.10044 v 0 c -0.0599,0.11088 -0.0186,0.24934 0.0923,0.30925 0.110879,0.0599 0.249309,0.0186 0.309211,-0.0923 0.0127,-0.0235 0.02119,-0.0491 0.025,-0.0755 z m -0.12954,0.36463 c 0.0597,-0.11415 0.110839,-0.23639 0.12954,-0.36463 v 0 c 0.0182,-0.1247 -0.0682,-0.24052 -0.19286,-0.25872 -0.0948,-0.0138 -0.188169,0.033 -0.23372,0.11733 -0.0392,0.0726 -0.0937,0.13723 -0.14823,0.19858 v 0 c -0.10005,0.1125 -0.09,0.2848 0.02249,0.38484 0.112501,0.10005 0.28483,0.09 0.384882,-0.0225 0.01479,-0.0166 0.0275,-0.0351 0.0378,-0.0549 z m -0.220729,0.37885 c 0.0784,-0.1234 0.15303,-0.24927 0.220729,-0.37885 h 3.9e-5 c 0.0697,-0.13345 0.0181,-0.29813 -0.115329,-0.36787 -0.110839,-0.058 -0.246869,-0.033 -0.32998,0.0604 -0.0782,0.088 -0.16831,0.16503 -0.262441,0.23544 h 4e-5 c -0.149159,0.11166 -0.179559,0.32308 -0.0679,0.47223 0.111662,0.14916 0.32308,0.17956 0.472231,0.0679 0.0327,-0.0245 0.0608,-0.0547 0.0827,-0.0893 z m -0.363331,0.45717 c 0.13395,-0.14136 0.258839,-0.29256 0.363331,-0.45717 v 0 c 0.0998,-0.1573 0.0533,-0.36572 -0.104042,-0.46559 -0.118319,-0.0751 -0.270719,-0.0692 -0.3829,0.0147 -0.14111,0.10558 -0.279328,0.21501 -0.415959,0.32625 v 0 c -0.170289,0.13864 -0.195929,0.38904 -0.0573,0.55932 0.138602,0.17026 0.389012,0.19594 0.559292,0.0573 0.01331,-0.0108 0.0258,-0.0224 0.0376,-0.0348 z m -0.42146,0.42206 c 0.14411,-0.13702 0.284689,-0.27771 0.42146,-0.42206 v 0 c 0.151029,-0.15939 0.144251,-0.41102 -0.01511,-0.56205 -0.145029,-0.13741 -0.369501,-0.14584 -0.524441,-0.0197 -0.147458,0.12005 -0.29563,0.23929 -0.4444,0.35772 v 0 c -0.185269,0.14746 -0.2159,0.41719 -0.0684,0.60247 0.147461,0.18528 0.41719,0.21594 0.60247,0.0684 0.01,-0.008 0.01939,-0.0161 0.0285,-0.0248 z m -0.46641,0.39451 c 0.16348,-0.12164 0.31877,-0.25407 0.46641,-0.39447 v 0 c 0.17159,-0.1632 0.1784,-0.43459 0.01519,-0.60618 -0.153141,-0.16097 -0.40386,-0.17833 -0.57771,-0.04 -0.14192,0.11296 -0.285501,0.22391 -0.431019,0.33221 v 0 c -0.195652,0.14556 -0.23622,0.42213 -0.0907,0.61778 0.145592,0.19562 0.422172,0.23622 0.617781,0.0906 0,0 0,0 0,0 z m -0.41733,0.29221 c 0.142589,-0.0923 0.281119,-0.19082 0.41733,-0.29221 h 3.9e-5 c 0.195612,-0.14555 0.236181,-0.42217 0.0906,-0.61778 -0.145601,-0.19562 -0.422172,-0.23622 -0.617792,-0.0906 -2.9e-5,0 -2.9e-5,0 -2.9e-5,0 -0.126579,0.0942 -0.25369,0.18771 -0.381889,0.27968 v 0 c -0.195821,0.14055 -0.240631,0.41321 -0.10011,0.60907 0.13581,0.18923 0.396269,0.23848 0.59182,0.11187 z m -0.831009,0.0954 c 0.274148,0.0666 0.587269,0.0624 0.831009,-0.0954 v 0 c 0.202311,-0.13099 0.26013,-0.40122 0.129111,-0.60357 -0.131022,-0.20232 -0.401211,-0.26014 -0.60357,-0.12912 -0.006,0.004 -0.01159,0.008 -0.0172,0.0118 -0.197691,0.14189 -0.34286,0.35102 -0.453771,0.56466 v 0 c -0.0447,0.0861 -0.01109,0.19219 0.075,0.23689 0.01249,0.006 0.0258,0.0115 0.0395,0.0148 z" />
    <path
       style="fill:#18774c;fill-opacity:1;stroke-width:0.09449405"
       d="m 31.059142,171.17476 c -0.299932,-0.0978 -0.385401,-0.18003 -0.503658,-0.48436 -0.07837,-0.20158 -0.150729,-0.52371 -0.160863,-0.71582 -0.01485,-0.28128 0.023,-0.35963 0.194379,-0.4024 0.11705,-0.0292 0.254909,-0.13077 0.306333,-0.22577 0.07458,-0.13769 0.421713,-4.32143 0.369308,-4.45105 -0.0077,-0.019 -0.173022,-0.003 -0.367398,0.0366 -0.583157,0.11761 -2.326908,0.14668 -7.112218,0.1186 -2.500523,-0.0147 -4.851246,-0.0254 -5.223829,-0.0238 -0.954978,0.004 -1.088728,-0.0762 -1.189234,-0.71392 -0.044,-0.27922 -0.17129,-1.85464 -0.282857,-3.50096 -0.111563,-1.64631 -0.234004,-3.07037 -0.272088,-3.16457 -0.03809,-0.0942 -0.03312,-0.23837 0.01103,-0.32038 0.119698,-0.22234 1.317176,-0.21296 3.479746,0.0273 2.51279,0.27911 6.161627,0.55284 7.262019,0.54478 1.394036,-0.0102 2.616621,-0.15926 3.251384,-0.39638 l 0.573121,-0.21412 -0.02391,-0.65284 c -0.01316,-0.35906 -0.104162,-1.44194 -0.202242,-2.4064 -0.193893,-1.90664 -0.162904,-2.09149 0.340529,-2.03139 0.65372,0.078 3.30292,2.13306 8.636957,6.69982 3.466043,2.96746 3.770787,3.25089 3.895655,3.62319 l 0.13546,0.4039 -0.550978,0.65404 c -1.422427,1.6885 -2.501769,2.35196 -9.58783,5.89356 -1.582434,0.79089 -1.660319,0.84088 -1.935914,1.24235 -0.35261,0.51365 -0.576133,0.61224 -1.042941,0.45993 z"
       id="path5392"
       inkscape:connector-curvature="0" />
  </g>
</svg>
