<?xml version="1.0" encoding="UTF-8" standalone="no"?>
<!-- Created with Inkscape (http://www.inkscape.org/) -->

<svg
   xmlns:dc="http://purl.org/dc/elements/1.1/"
   xmlns:cc="http://creativecommons.org/ns#"
   xmlns:rdf="http://www.w3.org/1999/02/22-rdf-syntax-ns#"
   xmlns:svg="http://www.w3.org/2000/svg"
   xmlns="http://www.w3.org/2000/svg"
   xmlns:sodipodi="http://sodipodi.sourceforge.net/DTD/sodipodi-0.dtd"
   xmlns:inkscape="http://www.inkscape.org/namespaces/inkscape"
   width="2.8180177mm"
   height="12.424725mm"
   viewBox="0 0 2.8180177 12.424725"
   version="1.1"
   id="svg8"
   inkscape:version="0.92.3 (2405546, 2018-03-11)"
   sodipodi:docname="particle_separation.svg">
  <defs
     id="defs2" />
  <sodipodi:namedview
     id="base"
     pagecolor="#ffffff"
     bordercolor="#666666"
     borderopacity="1.0"
     inkscape:pageopacity="0.0"
     inkscape:pageshadow="2"
     inkscape:zoom="7.9195959"
     inkscape:cx="25.161774"
     inkscape:cy="20.987122"
     inkscape:document-units="mm"
     inkscape:current-layer="layer1"
     showgrid="false"
     fit-margin-top="0"
     fit-margin-left="0"
     fit-margin-right="0"
     fit-margin-bottom="0"
     inkscape:window-width="960"
     inkscape:window-height="1025"
     inkscape:window-x="960"
     inkscape:window-y="27"
     inkscape:window-maximized="0" />
  <metadata
     id="metadata5">
    <rdf:RDF>
      <cc:Work
         rdf:about="">
        <dc:format>image/svg+xml</dc:format>
        <dc:type
           rdf:resource="http://purl.org/dc/dcmitype/StillImage" />
        <dc:title />
      </cc:Work>
    </rdf:RDF>
  </metadata>
  <g
     inkscape:label="Layer 1"
     inkscape:groupmode="layer"
     id="layer1"
     transform="translate(-152.05037,-224.74783)">
    <path
       inkscape:connector-curvature="0"
       id="path864"
       style="fill:#666666;fill-opacity:1;fill-rule:nonzero;stroke:none;stroke-width:0.35277778"
       d="m 153.83348,225.17069 c 3.6e-4,-0.041 0.002,-0.11557 0.0169,-0.14044 v 0 c 0.0387,-0.0636 0.0185,-0.14651 -0.0451,-0.18521 -0.058,-0.0353 -0.13321,-0.0219 -0.17551,0.0312 -0.0573,0.072 -0.0763,0.17431 -0.0944,0.26201 v 0 c -0.0168,0.0815 0.0356,0.16115 0.11701,0.17801 0.0815,0.0168 0.16115,-0.0356 0.17798,-0.11705 0.002,-0.009 0.003,-0.0189 0.003,-0.0285 z m -0.015,0.41776 c 0.007,-0.13914 0.0132,-0.27841 0.015,-0.41776 v 0 c 0.001,-0.0832 -0.0655,-0.15145 -0.14866,-0.15254 -0.0721,-0.001 -0.13483,0.0495 -0.14943,0.12012 -0.0292,0.14125 -0.044,0.28547 -0.0545,0.42915 v 0 c -0.007,0.0932 0.0632,0.17424 0.15635,0.18105 0.0932,0.007 0.17423,-0.0632 0.18104,-0.15635 7e-5,-0.001 1.4e-4,-0.002 2.1e-4,-0.004 z m -0.0251,0.6635 c 0.007,-0.22123 0.0138,-0.44249 0.0251,-0.6635 v 0 c 0.005,-0.0933 -0.067,-0.17279 -0.16023,-0.17759 -0.0919,-0.005 -0.17064,0.0648 -0.17737,0.15656 -0.0164,0.22465 -0.0233,0.45001 -0.0289,0.67515 v 0 c -0.002,0.0943 0.0721,0.17265 0.16644,0.17501 0.094,0.002 0.17216,-0.0717 0.17498,-0.16563 z m -0.0288,0.70743 c 0.0134,-0.23566 0.0218,-0.47156 0.0288,-0.70743 v 0 c 0.003,-0.0943 -0.0713,-0.173 -0.16559,-0.17582 -0.0943,-0.003 -0.173,0.0713 -0.17583,0.16559 0,2.8e-4 0,7.1e-4 0,7.1e-4 -0.006,0.23452 -0.0117,0.46901 -0.0172,0.70358 v 0 c -0.002,0.0911 0.07,0.16672 0.16115,0.16884 0.089,0.002 0.16359,-0.0667 0.16863,-0.15561 z m -0.0488,0.62932 c 0.0198,-0.20948 0.0368,-0.41924 0.0488,-0.62932 v 0 c 0.005,-0.091 -0.0644,-0.16898 -0.1554,-0.17417 -0.091,-0.005 -0.16898,0.0644 -0.17416,0.15543 -1.1e-4,0.002 -1.8e-4,0.004 -2.2e-4,0.006 -0.005,0.20824 -0.0101,0.41649 -0.0154,0.62473 v 0 c -0.002,0.0821 0.0627,0.15025 0.14471,0.15237 0.0781,0.002 0.14439,-0.0568 0.15173,-0.13455 z m -0.0728,0.71504 c 0.0258,-0.23816 0.0502,-0.47653 0.0728,-0.71504 v 0 c 0.008,-0.0817 -0.0522,-0.15417 -0.13392,-0.16189 -0.0817,-0.008 -0.1542,0.0522 -0.16192,0.13395 -3.2e-4,0.004 -3.6e-4,0.007 -7.1e-4,0.0101 -0.006,0.2371 -0.0174,0.47403 -0.0327,0.71067 v 0 c -0.005,0.0709 0.0492,0.13215 0.12012,0.13674 0.0688,0.004 0.12884,-0.046 0.13628,-0.11455 z m -0.0904,0.75604 c 0.0327,-0.25167 0.0629,-0.5037 0.0904,-0.75604 v 0 c 0.008,-0.0707 -0.0434,-0.13416 -0.11409,-0.14181 -0.0707,-0.008 -0.13416,0.0434 -0.14182,0.11405 -2.1e-4,0.002 -3.5e-4,0.004 -3.5e-4,0.006 -0.0163,0.25213 -0.0336,0.50423 -0.0518,0.75622 v 0 c -0.004,0.0604 0.041,0.11278 0.10136,0.11715 0.0579,0.004 0.109,-0.0376 0.11648,-0.0951 z m -0.0852,0.75456 c 0.024,-0.25199 0.0525,-0.50352 0.0852,-0.75456 v 0 c 0.008,-0.06 -0.0345,-0.11493 -0.0945,-0.12273 -0.06,-0.008 -0.11494,0.0345 -0.12273,0.0945 -2.9e-4,0.002 -3.6e-4,0.004 -7.1e-4,0.006 -0.0183,0.25383 -0.0357,0.50776 -0.0522,0.76172 v 0 c -0.003,0.0511 0.0354,0.0952 0.0865,0.0986 0.05,0.003 0.0936,-0.0338 0.0984,-0.0838 z m -0.0523,0.70848 c 0.0118,-0.23654 0.0298,-0.47272 0.0523,-0.70848 v 0 c 0.005,-0.051 -0.0326,-0.0963 -0.0835,-0.10114 -0.051,-0.005 -0.0963,0.0325 -0.10114,0.0835 -7e-5,0.001 -1.7e-4,0.002 -2.1e-4,0.003 -0.0154,0.2371 -0.0327,0.47413 -0.0525,0.71091 v 0 c -0.004,0.0511 0.0336,0.0959 0.0847,0.10019 0.0511,0.004 0.0959,-0.0336 0.10019,-0.0847 1e-4,-0.001 1.7e-4,-0.002 2.1e-4,-0.003 z m -0.0335,0.67635 c 0.0111,-0.22546 0.0223,-0.45092 0.0335,-0.67635 v 0 c 0.002,-0.0512 -0.0369,-0.0947 -0.088,-0.0973 -0.0499,-0.002 -0.0928,0.0351 -0.097,0.0849 -0.0189,0.22578 -0.035,0.45177 -0.0482,0.67793 v 0 c -0.003,0.0551 0.0389,0.10245 0.094,0.10569 0.0551,0.003 0.10244,-0.0389 0.10565,-0.094 4e-5,-3.2e-4 4e-5,-7.1e-4 8e-5,-7.1e-4 z m -0.0416,0.7252 c 0.0155,-0.24162 0.0296,-0.48337 0.0416,-0.7252 v 0 c 0.003,-0.0552 -0.0398,-0.10213 -0.095,-0.10485 -0.0548,-0.003 -0.10157,0.0393 -0.10478,0.094 -0.0141,0.24105 -0.029,0.48204 -0.0445,0.72298 v 0 c -0.004,0.0559 0.0388,0.10425 0.0948,0.10785 0.0559,0.004 0.10424,-0.0388 0.10784,-0.0948 0,0 0,-4e-5 0,-4e-5 z m -0.0561,0.78821 c 0.0204,-0.26257 0.0392,-0.52535 0.0561,-0.78817 v 0 c 0.004,-0.056 -0.0388,-0.10425 -0.0948,-0.10785 -0.056,-0.004 -0.10424,0.0388 -0.10784,0.0948 -0.0169,0.26208 -0.0352,0.52402 -0.0548,0.78592 v 0 c -0.004,0.0556 0.0375,0.104 0.0931,0.10816 0.0555,0.004 0.10386,-0.0374 0.10816,-0.0928 z m -0.0714,0.80691 c 0.0266,-0.26871 0.0505,-0.53767 0.0714,-0.80687 v 0 c 0.004,-0.0556 -0.0373,-0.10414 -0.0928,-0.10848 -0.0556,-0.004 -0.10414,0.0373 -0.10845,0.0928 0,1.1e-4 0,2.2e-4 -3e-5,3.2e-4 -0.0201,0.26885 -0.039,0.53778 -0.0568,0.8068 v 0 c -0.004,0.0516 0.0357,0.0962 0.0873,0.0996 0.0504,0.004 0.0944,-0.0339 0.0994,-0.0842 z m -0.068,0.77604 c 0.0195,-0.25894 0.0424,-0.51763 0.068,-0.77604 v 0 c 0.005,-0.0515 -0.0325,-0.0974 -0.084,-0.10245 -0.0515,-0.005 -0.0974,0.0325 -0.10244,0.084 -1.1e-4,0.001 -2.2e-4,0.002 -2.9e-4,0.003 -0.0171,0.25957 -0.0352,0.51908 -0.0545,0.77851 v 0 c -0.004,0.0478 0.0323,0.0895 0.0802,0.093 0.0478,0.004 0.0894,-0.0323 0.093,-0.0801 z m -0.0476,0.7081 c 0.0137,-0.23615 0.0298,-0.4722 0.0476,-0.7081 v 0 c 0.004,-0.0478 -0.0323,-0.0895 -0.08,-0.0931 -0.0478,-0.004 -0.0895,0.0323 -0.0931,0.08 0,3e-5 0,7e-5 -4e-5,1e-4 -0.0175,0.23545 -0.0382,0.47065 -0.0636,0.70538 v 0 c -0.006,0.0521 0.0321,0.099 0.0842,0.10457 0.0521,0.006 0.099,-0.032 0.10456,-0.0842 1.8e-4,-0.001 3.2e-4,-0.003 3.5e-4,-0.005 z m -0.0436,0.64516 c 0.0168,-0.21488 0.0312,-0.42997 0.0436,-0.64516 v 0 c 0.003,-0.0523 -0.0369,-0.0972 -0.0893,-0.10026 -0.0505,-0.003 -0.0944,0.0343 -0.0999,0.0846 -0.0231,0.21389 -0.0455,0.42782 -0.067,0.64188 v 0 c -0.006,0.0586 0.0369,0.11092 0.0955,0.11677 0.0586,0.006 0.11091,-0.0369 0.11677,-0.0955 7e-5,-7.1e-4 1.4e-4,-0.001 2.1e-4,-0.002 z m -0.0335,0.5403 c 0.007,-0.1803 0.0195,-0.36042 0.0335,-0.5403 v 0 c 0.005,-0.0587 -0.0393,-0.11007 -0.098,-0.11466 -0.0578,-0.005 -0.10865,0.038 -0.11444,0.0957 -0.0179,0.17861 -0.039,0.35707 -0.0677,0.5343 v 0 c -0.011,0.0677 0.035,0.13151 0.10273,0.14249 0.0677,0.011 0.13148,-0.035 0.14248,-0.10273 7.1e-4,-0.005 0.001,-0.01 0.001,-0.0148 z m -0.0252,0.5024 c 0.01,-0.16739 0.0183,-0.33486 0.0252,-0.5024 v 0 c 0.003,-0.0685 -0.0505,-0.12637 -0.11903,-0.12917 -0.0628,-0.003 -0.11762,0.0422 -0.12767,0.10422 -0.0267,0.16474 -0.0534,0.32949 -0.0801,0.49424 v 0 c -0.0134,0.0828 0.0428,0.16084 0.12566,0.17426 0.0828,0.0134 0.16086,-0.0429 0.17427,-0.12569 7.1e-4,-0.005 0.001,-0.0103 0.002,-0.0155 z m -0.0234,0.32322 c 0.0157,-0.10635 0.0171,-0.21607 0.0234,-0.32321 v 0 c 0.005,-0.0838 -0.0591,-0.15563 -0.14284,-0.16051 -0.0778,-0.005 -0.14636,0.0505 -0.15878,0.12739 -0.0166,0.1026 -0.0341,0.20515 -0.0493,0.30798 v 0 c -0.0134,0.0905 0.0491,0.17459 0.13959,0.18795 0.0905,0.0134 0.17459,-0.0491 0.18793,-0.1396 0,0 0,0 0,0 z m -0.26762,0.12415 v -1e-5 c 0.0229,0.0174 0.05,0.0284 0.0785,0.0321 v 5e-5 c 0.0276,0.004 0.0556,1.4e-4 0.0815,-0.01 0.0644,-0.0252 0.0981,-0.0822 0.10756,-0.14629 v 0 c 0.005,-0.0326 -2.1e-4,-0.066 -0.0145,-0.0957 l 7e-5,3e-5 c -0.025,-0.0864 -0.11533,-0.13622 -0.20176,-0.11122 -0.068,0.0197 -0.1156,0.0811 -0.11758,0.15195 -0.002,0.0682 0.004,0.13217 0.0661,0.17908 z m 0.25947,-0.18237 c -0.009,-0.19304 -0.0122,-0.38656 -0.0177,-0.57973 v 0 c -0.001,-0.0484 -0.0417,-0.0865 -0.09,-0.0851 -0.039,0.001 -0.0726,0.0279 -0.0824,0.0657 -0.0338,0.13096 -0.0674,0.26206 -0.0977,0.39388 -0.0156,0.0677 -0.0358,0.1387 -0.0377,0.20861 h -4e-5 c -0.002,0.0899 0.0684,0.16486 0.15833,0.16737 0.0899,0.002 0.16485,-0.0684 0.16736,-0.1583 1e-4,-0.004 7e-5,-0.008 -1.1e-4,-0.0124 z" />
    <path
       inkscape:connector-curvature="0"
       id="path866"
       style="fill:#666666;fill-opacity:1;fill-rule:nonzero;stroke:none;stroke-width:0.35277778"
       d="m 152.054,235.61485 v 0 c 0.001,0.007 0.002,0.0139 0.004,0.0207 0.0107,0.0651 0.0208,0.13021 0.031,0.19537 v 0 c 0.0115,0.0735 0.0805,0.1238 0.15402,0.11228 0.0592,-0.009 0.10523,-0.0566 0.11282,-0.11609 0.004,-0.0316 0.009,-0.0631 0.0138,-0.0945 l 2.4e-4,2.8e-4 c 0.0672,-0.0586 0.0853,-0.15571 0.0436,-0.23452 -0.0347,-0.0655 -0.0996,-0.11226 -0.17617,-0.11268 v 0 c -0.03,-1.4e-4 -0.0596,0.007 -0.0862,0.0206 l -7e-5,-1.4e-4 c -0.0435,0.0222 -0.0765,0.0607 -0.0919,0.10706 -0.0114,0.0345 -0.0101,0.0672 -0.005,0.10164 z m 0,0 c 0.0144,0.10213 0.0375,0.20327 0.0596,0.30397 v 0 c 0.0251,0.11457 0.13843,0.18704 0.25301,0.16188 0.11455,-0.0252 0.18705,-0.13843 0.16189,-0.25298 -7e-4,-0.004 -0.002,-0.008 -0.003,-0.0115 -0.0299,-0.10707 -0.0597,-0.21904 -0.11204,-0.31785 v 0 c -0.0496,-0.0937 -0.1657,-0.1294 -0.25936,-0.0798 -0.0714,0.0378 -0.11152,0.11631 -0.10026,0.19636 z m 0.0596,0.30397 c 0.0264,0.12035 0.0557,0.24073 0.0959,0.35732 v 0 c 0.0396,0.11495 0.16499,0.17599 0.27992,0.13634 0.11494,-0.0396 0.17601,-0.16497 0.13635,-0.27992 -7e-4,-0.002 -10e-4,-0.004 -0.002,-0.006 -0.0382,-0.10158 -0.0689,-0.20608 -0.098,-0.31058 v 0 c -0.0315,-0.11296 -0.14866,-0.179 -0.26165,-0.1475 -0.10855,0.0303 -0.17455,0.14006 -0.15039,0.25014 z m 0.0959,0.35733 c 0.0314,0.0909 0.0676,0.18014 0.10886,0.26699 v 0 c 0.0532,0.11192 0.18708,0.15951 0.29902,0.1063 0.1119,-0.0532 0.15949,-0.18709 0.10629,-0.29901 -0.001,-0.002 -0.002,-0.005 -0.004,-0.007 -0.0365,-0.0701 -0.0685,-0.14246 -0.0964,-0.2164 v 0 c -0.0429,-0.11378 -0.16987,-0.17128 -0.28364,-0.12842 -0.11155,0.042 -0.16937,0.16516 -0.13052,0.27783 z m 0.10886,0.26699 c 0.0384,0.0807 0.0797,0.16009 0.12432,0.23752 v 0 c 0.0633,0.10979 0.20366,0.14746 0.31344,0.0841 0.10982,-0.0633 0.14747,-0.20368 0.0841,-0.31347 -0.002,-0.003 -0.004,-0.006 -0.005,-0.009 -0.0413,-0.0646 -0.0794,-0.13123 -0.11479,-0.19921 v 0 c -0.0573,-0.10993 -0.19276,-0.15263 -0.30269,-0.0954 -0.1071,0.0558 -0.15085,0.18632 -0.099,0.29538 z m 0.12432,0.23752 c 0.036,0.0623 0.0732,0.12555 0.11984,0.18069 v 0 c 0.0828,0.098 0.22934,0.11025 0.32731,0.0274 0.098,-0.0828 0.11024,-0.22934 0.0274,-0.32731 -0.031,-0.0367 -0.0566,-0.0787 -0.0824,-0.11913 v 0 c -0.0683,-0.10679 -0.21019,-0.13801 -0.31701,-0.0697 -0.10333,0.0661 -0.13645,0.20176 -0.0751,0.30803 z m 0.11984,0.18069 c 0.0342,0.0405 0.0728,0.0776 0.11613,0.10838 v 0 c 0.10422,0.0741 0.24875,0.0496 0.32283,-0.0546 0.0723,-0.10178 0.0509,-0.2426 -0.0484,-0.31827 -0.0133,-0.0102 -0.025,-0.0226 -0.0358,-0.0354 v 0 c -0.0828,-0.098 -0.22934,-0.11026 -0.3273,-0.0275 -0.098,0.0828 -0.11028,0.22934 -0.0275,0.32731 4e-5,0 4e-5,0 4e-5,10e-6 z m 0.11613,0.10838 c 0.0672,0.0478 0.14909,0.0683 0.23023,0.0755 v 1e-5 c 0.12693,0.0112 0.23893,-0.0826 0.25012,-0.20955 0.0112,-0.12694 -0.0826,-0.23892 -0.20955,-0.25013 0,0 0,0 0,0 -0.006,-5e-4 -0.0114,-0.001 -0.0171,-0.002 l 2.5e-4,-3.9e-4 c -0.1094,-0.0662 -0.25171,-0.0311 -0.31789,0.0782 -0.0628,0.10373 -0.0349,0.2383 0.0639,0.30853 z m 0.23023,0.0755 c 0.12449,0.011 0.24564,-0.0387 0.32681,-0.13367 v 0 c 0.0809,-0.0947 0.0697,-0.23717 -0.025,-0.31811 -0.0782,-0.0668 -0.19163,-0.0723 -0.27591,-0.0133 -0.0422,0.0295 -0.0162,0.0123 -0.005,0.008 0.0113,-0.004 0.0417,-0.006 -0.009,-0.004 v 0 c -0.12731,0.005 -0.22669,0.1119 -0.22189,0.23924 0.004,0.11617 0.0945,0.21094 0.21029,0.22117 z m 0.32681,-0.13366 c 0.0614,-0.0719 0.10968,-0.15527 0.15575,-0.2375 v 0 c 0.0586,-0.10452 0.0213,-0.23672 -0.0832,-0.29527 -0.10125,-0.0567 -0.2292,-0.0237 -0.29037,0.0749 -0.0303,0.0489 -0.062,0.10496 -0.1052,0.14408 v 0 c -0.0923,0.0837 -0.0994,0.22636 -0.0157,0.3187 0.0837,0.0924 0.22634,0.0994 0.3187,0.0157 0.007,-0.006 0.0138,-0.0134 0.0201,-0.0206 z m 0.15575,-0.2375 c 0.0515,-0.0919 0.10044,-0.18524 0.14538,-0.28053 v 0 c 0.0488,-0.10365 0.004,-0.22728 -0.0992,-0.27613 -0.0976,-0.046 -0.21403,-0.01 -0.26805,0.0838 -0.0492,0.085 -0.0999,0.16908 -0.15172,0.25254 v 0 c -0.0631,0.10182 -0.0318,0.23554 0.07,0.29868 0.10181,0.0631 0.23555,0.0318 0.2987,-0.07 0.002,-0.003 0.003,-0.006 0.005,-0.008 z m 0.14535,-0.28052 c 0.0602,-0.12779 0.11772,-0.2569 0.17519,-0.38596 v 0 c 0.0437,-0.0983 -3.6e-4,-0.21336 -0.0987,-0.2571 -0.0948,-0.0422 -0.20616,-0.002 -0.25298,0.09 -0.0613,0.12128 -0.12266,0.24297 -0.19075,0.36064 v 0 c -0.0574,0.0992 -0.0235,0.22611 0.0757,0.28349 0.0992,0.0574 0.2261,0.0235 0.28346,-0.0757 0.003,-0.005 0.006,-0.0102 0.008,-0.0154 z m 0.17519,-0.38596 c 0.0617,-0.1386 0.1229,-0.27753 0.18051,-0.41786 v 0 c 0.0369,-0.0899 -0.006,-0.19269 -0.096,-0.22959 -0.0811,-0.0333 -0.17435,-0.002 -0.21865,0.0738 -0.0777,0.13264 -0.14831,0.26941 -0.2176,0.40656 v 0 c -0.0485,0.096 -0.0101,0.21313 0.0859,0.26165 0.096,0.0485 0.21315,0.01 0.26165,-0.0859 0.001,-0.003 0.003,-0.006 0.004,-0.009 z m 0.18051,-0.41786 c 0.0542,-0.13205 0.11501,-0.26141 0.17689,-0.38996 v 0 c 0.037,-0.0768 0.005,-0.16905 -0.0721,-0.20602 -0.0729,-0.0351 -0.16058,-0.008 -0.20087,0.0623 -0.0724,0.12622 -0.14492,0.25237 -0.21847,0.37793 v 0 c -0.0491,0.0838 -0.0209,0.19166 0.0629,0.24077 0.0838,0.0491 0.19166,0.0209 0.24077,-0.0629 0.004,-0.007 0.008,-0.0145 0.0109,-0.0221 z m 0.17689,-0.38996 c 0.0854,-0.17752 0.14866,-0.36537 0.19304,-0.55718 v 0 c 0.0104,-0.0452 -0.0177,-0.0902 -0.0628,-0.10068 -0.0326,-0.008 -0.0665,0.005 -0.0864,0.0318 -0.11448,0.15469 -0.22109,0.31535 -0.31683,0.48232 v 0 c -0.0424,0.074 -0.0168,0.16831 0.0572,0.21068 0.074,0.0424 0.16828,0.0168 0.21068,-0.0571 0.002,-0.003 0.004,-0.006 0.005,-0.01 z" />
    <path
       inkscape:connector-curvature="0"
       id="path868"
       style="fill:#666666;fill-opacity:1;fill-rule:nonzero;stroke:none;stroke-width:0.35277778"
       d="m 153.63935,225.0488 c 0.004,-3.5e-4 0.008,-7e-4 0.0123,-7e-4 v 0 c 0.0744,-0.002 0.13345,-0.0632 0.13186,-0.13762 -0.001,-0.0474 -0.0268,-0.0908 -0.0681,-0.1143 -0.0887,-0.0504 -0.19586,-0.0703 -0.28815,-0.0158 v 0 c -0.0822,0.0485 -0.10953,0.15445 -0.061,0.23668 0.0485,0.0822 0.15445,0.10954 0.23668,0.061 0.0135,-0.008 0.0259,-0.0177 0.0367,-0.029 z m -0.0625,0.13974 c 0.025,-0.0546 0.0486,-0.11328 0.0821,-0.16355 v 0 c 0.0529,-0.0795 0.0313,-0.18676 -0.0481,-0.23964 -0.0552,-0.0367 -0.12651,-0.0387 -0.18362,-0.005 -0.0873,0.0515 -0.14408,0.14842 -0.19223,0.23435 v 0 c -0.0518,0.0925 -0.0189,0.20945 0.0736,0.26127 0.0925,0.0518 0.20944,0.0189 0.26127,-0.0736 0.002,-0.005 0.005,-0.009 0.007,-0.0138 z m -0.13956,0.30702 c 0.0462,-0.10248 0.0927,-0.20482 0.13956,-0.30702 v 0 c 0.0442,-0.0964 0.002,-0.21029 -0.0945,-0.25446 -0.0909,-0.0417 -0.19854,-0.007 -0.2474,0.0806 -0.0575,0.10266 -0.11042,0.20786 -0.1602,0.31447 v 0 c -0.0466,0.0998 -0.004,0.21851 0.0964,0.26508 0.0998,0.0466 0.21847,0.004 0.26507,-0.0964 3.6e-4,-7.1e-4 7.1e-4,-0.001 0.001,-0.002 z m -0.19953,0.45702 c 0.0655,-0.15278 0.13116,-0.3055 0.19953,-0.45702 v 0 c 0.0453,-0.1004 7.1e-4,-0.21854 -0.0998,-0.26384 -0.0995,-0.0449 -0.21657,-0.001 -0.26275,0.0975 -0.0716,0.15339 -0.13941,0.30854 -0.20687,0.4638 v 0 c -0.0443,0.10202 0.002,0.2207 0.1045,0.265 0.10202,0.0444 0.22066,-0.002 0.265,-0.10449 1.1e-4,-2.8e-4 2.5e-4,-7e-4 3.6e-4,-0.001 z m -0.15243,0.37226 c 0.0436,-0.12651 0.0998,-0.24942 0.15243,-0.37226 v 0 c 0.0438,-0.10227 -0.004,-0.22066 -0.10583,-0.26447 -0.10188,-0.0436 -0.21989,0.003 -0.26406,0.10488 -0.0573,0.13187 -0.11796,0.26384 -0.16499,0.39987 v 0 c -0.0365,0.10559 0.0195,0.22077 0.1251,0.25728 0.10558,0.0365 0.22076,-0.0195 0.25728,-0.12513 0,-7e-5 3e-5,-1e-4 7e-5,-1.7e-4 z m -0.38157,0.0199 v 0 c 0.0412,0.10319 0.15822,0.15342 0.26138,0.11225 0.0303,-0.0121 0.0572,-0.0314 0.0784,-0.0562 0.0193,-0.0225 0.0322,-0.0483 0.0418,-0.076 v 0 c 0.009,-0.025 0.0122,-0.0514 0.0107,-0.0777 0.0295,-0.1608 0.0654,-0.32054 0.1,-0.48031 v 0 c 0.0104,-0.0479 -0.02,-0.0951 -0.0679,-0.10551 -0.0364,-0.008 -0.0739,0.008 -0.0938,0.0393 -0.0835,0.13183 -0.16648,0.26434 -0.25576,0.39239 v -3e-5 c -0.0352,0.0245 -0.0616,0.0595 -0.0756,0.0999 -0.017,0.0493 -0.0191,0.10181 7.1e-4,0.15191 z" />
    <path
       inkscape:connector-curvature="0"
       id="path870"
       style="fill:#666666;fill-opacity:1;fill-rule:nonzero;stroke:none;stroke-width:0.35277778"
       d="m 153.63709,225.09138 c 0.009,-0.0142 0.0185,-0.0283 0.0299,-0.0406 l 7e-5,1.8e-4 c 0.0707,-0.0321 0.10196,-0.11536 0.0699,-0.18606 -0.0321,-0.0707 -0.1154,-0.10191 -0.18606,-0.0699 -0.007,0.003 -0.0128,0.006 -0.0188,0.0104 -0.0525,0.0343 -0.0895,0.0894 -0.12255,0.14146 v 0 c -0.0399,0.0628 -0.0213,0.14612 0.0415,0.18602 0.0628,0.0399 0.14612,0.0213 0.18605,-0.0415 0,0 0,0 0,0 z m 0.0103,-0.0332 c 0.007,-0.002 0.008,-3.5e-4 0.0178,-3.2e-4 v 0 c 0.0835,0.002 0.15293,-0.0641 0.15494,-0.14767 0.002,-0.0835 -0.0641,-0.15293 -0.14767,-0.15494 -0.0127,-2.8e-4 -0.0254,0.001 -0.0377,0.004 -0.0369,0.009 -0.0711,0.0257 -0.10266,0.0463 v 0 c -0.0649,0.0425 -0.0832,0.12957 -0.0407,0.19452 0.0336,0.0514 0.0968,0.075 0.156,0.0582 z m -0.0504,-0.0187 v 0 c 0.0563,0.0727 0.1609,0.0859 0.23358,0.0296 0.0727,-0.0563 0.0859,-0.1609 0.0296,-0.23358 -0.0133,-0.0171 -0.0298,-0.0315 -0.0485,-0.0423 -0.0534,-0.0307 -0.11561,-0.0483 -0.17696,-0.0341 v 0 c -0.0814,0.0188 -0.13218,0.10012 -0.11334,0.18157 0.01,0.0423 0.0373,0.0784 0.0755,0.0991 z m -0.004,-0.006 c 0.017,0.0241 0.0292,0.0519 0.0412,0.0786 v 0 c 0.0411,0.0919 0.14894,0.13314 0.24084,0.092 0.0919,-0.0411 0.13311,-0.14895 0.092,-0.24084 -0.004,-0.008 -0.008,-0.0161 -0.0127,-0.0236 -0.0367,-0.0575 -0.0825,-0.11211 -0.14231,-0.14658 v 0 c -0.0797,-0.0459 -0.18151,-0.0185 -0.22737,0.0612 -0.0324,0.0562 -0.0291,0.12616 0.008,0.17914 z m 0.0412,0.0786 c 0.0393,0.0878 0.0694,0.18034 0.10125,0.27104 v 0 c 0.0363,0.10364 0.14986,0.15822 0.2535,0.12185 0.10365,-0.0363 0.15823,-0.14986 0.12185,-0.25351 -0.002,-0.006 -0.004,-0.0118 -0.007,-0.0176 -0.0458,-0.0992 -0.0904,-0.20186 -0.14933,-0.29425 v 0 c -0.0541,-0.0849 -0.16687,-0.10982 -0.25175,-0.0557 -0.0762,0.0486 -0.10526,0.14563 -0.0684,0.22811 z m 0.10125,0.27104 c 0.0422,0.12019 0.0853,0.24017 0.1324,0.35852 v 0 c 0.0432,0.10855 0.16619,0.16151 0.27474,0.11829 0.10851,-0.0432 0.16147,-0.16623 0.11825,-0.27474 -7.1e-4,-0.002 -0.001,-0.003 -0.002,-0.005 -0.0496,-0.11645 -0.10213,-0.23167 -0.15523,-0.34657 v 0 c -0.046,-0.0997 -0.16421,-0.14323 -0.26394,-0.0972 -0.0931,0.043 -0.13822,0.14968 -0.10429,0.24642 z m 0.1324,0.35856 c 0.037,0.093 0.0754,0.18538 0.11514,0.27725 v 0 c 0.0467,0.10812 0.1723,0.15787 0.28039,0.11112 0.10813,-0.0468 0.15787,-0.17229 0.11113,-0.28042 -0.0388,-0.0896 -0.0773,-0.17935 -0.11561,-0.26917 v 0 c -0.0458,-0.10746 -0.17007,-0.15741 -0.27753,-0.11162 -0.10562,0.0451 -0.156,0.16616 -0.11352,0.27284 z m 0.11514,0.27725 c 0.0313,0.0723 0.0628,0.14467 0.098,0.21519 v 0 c 0.0521,0.10439 0.17889,0.14683 0.28331,0.0948 0.10055,-0.0502 0.14422,-0.17022 0.0995,-0.27323 -0.0298,-0.0686 -0.0595,-0.13733 -0.0892,-0.20602 v 0 c -0.0468,-0.10813 -0.1723,-0.15787 -0.28043,-0.11113 -0.10812,0.0468 -0.15787,0.1723 -0.11109,0.28043 0,0 0,0 0,0 z m 0.098,0.21519 c 0.0299,0.0599 0.0624,0.11854 0.0957,0.1766 v 0 c 0.0572,0.0996 0.18419,0.13392 0.28378,0.0768 0.0978,-0.0562 0.13299,-0.18013 0.0792,-0.27933 -0.0271,-0.0499 -0.0533,-0.10044 -0.076,-0.15251 v 0 c -0.0465,-0.107 -0.17092,-0.15607 -0.27792,-0.10957 -0.10699,0.0465 -0.15606,0.17092 -0.10957,0.27795 0.001,0.004 0.003,0.007 0.005,0.0101 z m 0.0957,0.17657 c 0.0354,0.0617 0.0718,0.12283 0.10979,0.18298 v 0 c 0.0609,0.0964 0.18845,0.1252 0.28487,0.0643 0.0964,-0.0609 0.1252,-0.18838 0.0643,-0.28479 -0.034,-0.0538 -0.0657,-0.10908 -0.096,-0.16503 v 0 c -0.0547,-0.10093 -0.1809,-0.13836 -0.2818,-0.0837 -0.10093,0.0547 -0.13836,0.18087 -0.0836,0.2818 7e-4,0.001 0.002,0.003 0.002,0.004 z m 0.10979,0.18298 c 0.0437,0.0692 0.0934,0.13452 0.14527,0.19774 v 0 c 0.0713,0.087 0.19964,0.0997 0.28663,0.0284 0.0843,-0.0691 0.0992,-0.19237 0.0339,-0.27961 -0.0407,-0.0543 -0.0804,-0.10958 -0.11659,-0.16697 v 0 c -0.0609,-0.0965 -0.18842,-0.12527 -0.28483,-0.0644 -0.0965,0.0609 -0.12527,0.18842 -0.0644,0.28483 0,4e-5 4e-5,7e-5 4e-5,7e-5 z m 0.14527,0.19774 c 0.0841,0.10265 0.2225,0.17483 0.35765,0.15889 v 0 c 0.045,-0.005 0.0789,-0.0434 0.079,-0.0887 2.1e-4,-0.115 -0.048,-0.23047 -0.11614,-0.32141 v 0 c -0.0675,-0.09 -0.19508,-0.10838 -0.28515,-0.0409 -0.09,0.0674 -0.10833,0.19509 -0.0409,0.28512 0.002,0.002 0.004,0.005 0.006,0.007 z" />
    <g
       transform="matrix(0.21564109,0,0,0.41886081,152.62801,224.78838)"
       id="g872" />
    <g
       transform="matrix(0.21991341,0,0,0.19852431,151.9857,224.68766)"
       id="g874" />
    <g
       transform="matrix(0.98937654,0,0,0.19242426,154.96449,251.67264)"
       id="g876" />
    <g
       transform="matrix(0.41009428,0,0,-0.19242426,166.7273,267.61787)"
       id="g878" />
  </g>
</svg>
