<?xml version="1.0" encoding="UTF-8" standalone="no"?>
<!-- Created with Inkscape (http://www.inkscape.org/) -->

<svg
   xmlns:dc="http://purl.org/dc/elements/1.1/"
   xmlns:cc="http://creativecommons.org/ns#"
   xmlns:rdf="http://www.w3.org/1999/02/22-rdf-syntax-ns#"
   xmlns:svg="http://www.w3.org/2000/svg"
   xmlns="http://www.w3.org/2000/svg"
   xmlns:sodipodi="http://sodipodi.sourceforge.net/DTD/sodipodi-0.dtd"
   xmlns:inkscape="http://www.inkscape.org/namespaces/inkscape"
   width="35.363167mm"
   height="17.176785mm"
   viewBox="0 0 35.363167 17.176785"
   version="1.1"
   id="svg8"
   inkscape:version="0.92.3 (2405546, 2018-03-11)"
   sodipodi:docname="particle_wave.svg">
  <defs
     id="defs2" />
  <sodipodi:namedview
     id="base"
     pagecolor="#ffffff"
     bordercolor="#666666"
     borderopacity="1.0"
     inkscape:pageopacity="0.0"
     inkscape:pageshadow="2"
     inkscape:zoom="15.839192"
     inkscape:cx="72.647238"
     inkscape:cy="12.532496"
     inkscape:document-units="mm"
     inkscape:current-layer="layer1"
     showgrid="false"
     fit-margin-top="0"
     fit-margin-left="0"
     fit-margin-right="0"
     fit-margin-bottom="0"
     inkscape:window-width="960"
     inkscape:window-height="1025"
     inkscape:window-x="0"
     inkscape:window-y="27"
     inkscape:window-maximized="0" />
  <metadata
     id="metadata5">
    <rdf:RDF>
      <cc:Work
         rdf:about="">
        <dc:format>image/svg+xml</dc:format>
        <dc:type
           rdf:resource="http://purl.org/dc/dcmitype/StillImage" />
        <dc:title />
      </cc:Work>
    </rdf:RDF>
  </metadata>
  <g
     inkscape:label="Layer 1"
     inkscape:groupmode="layer"
     id="layer1"
     transform="translate(-147.5507,-235.86021)">
    <g
       transform="matrix(0.21564109,0,0,0.41886081,152.62801,224.78838)"
       id="g872" />
    <g
       transform="matrix(0.21991341,0,0,0.19852431,151.9857,224.68766)"
       id="g874" />
    <g
       transform="matrix(0.98937654,0,0,0.19242426,154.96449,251.67264)"
       id="g876" />
    <g
       transform="matrix(0.41009428,0,0,-0.19242426,166.7273,267.61787)"
       id="g878" />
    <path
       inkscape:connector-curvature="0"
       id="path848"
       style="fill:#666666;fill-opacity:1;fill-rule:nonzero;stroke:none;stroke-width:0.35277778"
       d="m 159.50025,246.32149 v 0 c 0.0722,-0.018 0.11613,-0.0912 0.0981,-0.1634 -0.0153,-0.0611 -0.0708,-0.10354 -0.13384,-0.1021 -0.1035,0.002 -0.20094,0.059 -0.22578,0.16505 v 0 c -0.0178,0.0761 0.0294,0.15219 0.10548,0.17001 0.0618,0.0145 0.12566,-0.014 0.15621,-0.0696 z m 0.007,0.0809 c 1e-4,-0.0405 6.9e-4,-0.0821 0.008,-0.12199 v 0 c 0.015,-0.0767 -0.035,-0.15099 -0.11172,-0.16597 -0.0747,-0.0146 -0.14754,0.0325 -0.16486,0.10659 -0.0138,0.0589 -0.0167,0.12022 -0.0169,0.18053 v 0 c -2.1e-4,0.0787 0.0634,0.14271 0.1421,0.14294 0.0787,2.4e-4 0.1427,-0.0634 0.14295,-0.1421 0,0 0,0 0,0 z m -0.28505,-8.4e-4 c -3.2e-4,0.10815 0.0226,0.21704 0.045,0.32232 v 0 c 0.0163,0.0767 0.0917,0.12569 0.16838,0.10942 0.0764,-0.0162 0.12538,-0.0911 0.10958,-0.16762 -0.0177,-0.0856 -0.0381,-0.17527 -0.0379,-0.26326 v 0 c 2.5e-4,-0.0787 -0.0634,-0.14271 -0.1421,-0.14295 -0.0787,-2.3e-4 -0.1427,0.0634 -0.14295,0.14209 0,0 0,0 0,0 z m 0.045,0.32232 c 0.0215,0.10095 0.0427,0.20315 0.0754,0.30121 l 3e-5,-1e-5 c 0.0237,0.0711 0.10051,0.10959 0.17163,0.0859 0.065,-0.0216 0.10368,-0.0883 0.0902,-0.15541 -0.0193,-0.0967 -0.0393,-0.19331 -0.0593,-0.28991 v 0 c -0.0159,-0.0768 -0.091,-0.12618 -0.16778,-0.11031 -0.0768,0.0159 -0.12619,0.091 -0.11032,0.16777 4e-5,2.5e-4 1.1e-4,5e-4 1.4e-4,7.4e-4 z m 0.0754,0.30122 c 0.0219,0.0658 0.0511,0.12911 0.0884,0.1876 v 0 c 0.0381,0.0598 0.11758,0.0774 0.17741,0.0393 0.0583,-0.0372 0.0767,-0.11383 0.0417,-0.17345 -0.0223,-0.0379 -0.037,-0.0799 -0.0456,-0.12293 v 0 c -0.0147,-0.0735 -0.0862,-0.12118 -0.15974,-0.10647 -0.0735,0.0147 -0.12118,0.0862 -0.10647,0.15972 0.001,0.005 0.002,0.0109 0.004,0.0163 z m 0.0884,0.1876 c 0.0354,0.0556 0.0798,0.1078 0.13733,0.1413 v 0 c 0.0592,0.0344 0.13508,0.0144 0.16951,-0.0448 0.0319,-0.0548 0.0173,-0.12482 -0.0338,-0.16231 -0.0231,-0.017 -0.0396,-0.0441 -0.0539,-0.0684 v 0 c -0.0359,-0.0612 -0.11469,-0.0816 -0.1759,-0.0457 -0.0612,0.036 -0.0816,0.1147 -0.0456,0.17588 7.1e-4,0.001 0.002,0.003 0.002,0.004 z m 0.13733,0.14131 c 0.0438,0.0255 0.0911,0.0446 0.13953,0.0593 v 0 c 0.0635,0.0193 0.1307,-0.0165 0.15003,-0.08 0.019,-0.0625 -0.0153,-0.12879 -0.0774,-0.14923 -0.0269,-0.009 -0.0535,-0.0204 -0.0764,-0.0372 v 0 c -0.0552,-0.0405 -0.13278,-0.0286 -0.17328,0.0266 -0.0405,0.0552 -0.0286,0.13279 0.0266,0.17329 0.004,0.003 0.007,0.005 0.011,0.007 z m 0.13953,0.0593 c 0.0568,0.0173 0.11553,0.0283 0.17434,0.0363 v -1e-5 c 0.0646,0.009 0.12411,-0.0365 0.13293,-0.10107 0.009,-0.0632 -0.0346,-0.12184 -0.0975,-0.13237 -0.0463,-0.008 -0.0925,-0.0174 -0.13712,-0.0321 v 0 c -0.0631,-0.0208 -0.13106,0.0135 -0.15184,0.0766 -0.0207,0.0631 0.0135,0.13104 0.0766,0.15181 6.9e-4,2.9e-4 0.002,5.5e-4 0.002,8.2e-4 z m 0.17434,0.0363 c 0.0678,0.009 0.13607,0.0157 0.2044,0.0204 v 0 c 0.0643,0.004 0.11998,-0.0441 0.12443,-0.10836 0.004,-0.0643 -0.0441,-0.12 -0.10838,-0.12443 0,0 0,0 0,0 -0.0619,-0.004 -0.12379,-0.0108 -0.18503,-0.0211 v 0 c -0.0643,-0.0108 -0.1252,0.0326 -0.13596,0.097 -0.0108,0.0643 0.0327,0.12518 0.097,0.13594 0.001,2e-4 0.002,4e-4 0.004,5.3e-4 v 1e-5 z m 0.2044,0.0204 c 0.13564,0.009 0.27227,0.009 0.4082,0.01 v 0 c 0.0641,4.5e-4 0.11638,-0.0511 0.11684,-0.11514 3.4e-4,-0.0639 -0.0507,-0.11607 -0.11458,-0.11684 -0.13134,-0.002 -0.26332,-0.002 -0.39441,-0.0106 v 0 c -0.0643,-0.004 -0.11998,0.0441 -0.12442,0.10835 -0.004,0.0643 0.0441,0.12 0.10837,0.12443 0,0 0,0 0,0 z m 0.4082,0.01 c 0.16499,0.001 0.32999,0.002 0.49498,0.001 v 0 c 0.0632,-2.9e-4 0.11416,-0.0517 0.11388,-0.1149 -2.9e-4,-0.0628 -0.0511,-0.11359 -0.11384,-0.11389 -0.16426,-7.7e-4 -0.32851,-0.002 -0.49276,-0.004 v 0 c -0.0641,-7.7e-4 -0.11663,0.0505 -0.11737,0.11459 -7.2e-4,0.0641 0.0505,0.11661 0.11458,0.11738 1.8e-4,0 3.4e-4,0 3.4e-4,0 z m 0.49498,0.001 c 0.1427,-6.4e-4 0.28533,-0.005 0.42789,-0.0107 v 0 c 0.0626,-0.003 0.11119,-0.0557 0.10848,-0.11829 -0.003,-0.0626 -0.0557,-0.11117 -0.11829,-0.10845 -0.13928,0.006 -0.27866,0.009 -0.41804,0.009 v 0 c -0.0632,-2.9e-4 -0.11466,0.0507 -0.11494,0.11386 -2.9e-4,0.0632 0.0507,0.11463 0.11384,0.11493 3.7e-4,0 7.1e-4,0 0.001,0 z m 0.42789,-0.0107 c 0.16425,-0.007 0.32857,-0.0135 0.49286,-0.0194 v 0 c 0.0622,-0.002 0.11074,-0.0544 0.10848,-0.11658 -0.002,-0.0619 -0.054,-0.11033 -0.11585,-0.10851 -0.16514,0.005 -0.33024,0.0106 -0.4953,0.0177 v 0 c -0.0626,0.003 -0.1112,0.0557 -0.10848,0.11827 0.003,0.0626 0.0557,0.11118 0.11829,0.10847 0,0 0,0 0,0 z m 0.49286,-0.0194 c 0.18521,-0.007 0.37042,-0.0122 0.55566,-0.0168 v 1e-5 c 0.0616,-0.002 0.11025,-0.0527 0.10873,-0.11423 -0.001,-0.0615 -0.0525,-0.11015 -0.11405,-0.10873 -0.18592,0.004 -0.37183,0.009 -0.55771,0.0146 v 0 c -0.0622,0.002 -0.11106,0.0537 -0.10922,0.11588 0.002,0.0622 0.0537,0.11107 0.11585,0.10924 2.5e-4,-1e-5 3.4e-4,-2e-5 7.1e-4,-3e-5 z m 0.55566,-0.0168 c 0.19812,-0.005 0.39628,-0.009 0.59443,-0.0136 v 0 c 0.0592,-0.001 0.10626,-0.0503 0.10499,-0.10956 -10e-4,-0.0582 -0.0486,-0.10477 -0.10679,-0.10504 -0.19935,-9e-4 -0.39867,6.3e-4 -0.59795,0.005 v 0 c -0.0616,0.001 -0.11032,0.0525 -0.10891,0.11406 0.001,0.0616 0.0525,0.11033 0.11406,0.1089 7e-5,0 1.4e-4,0 1.7e-4,0 z m 0.59443,-0.0136 c 0.41632,-0.009 0.83298,-0.007 1.24937,-0.007 v 0 c 0.0571,-1e-5 0.10332,-0.0463 0.10329,-0.10337 0,-0.0571 -0.0463,-0.10333 -0.10336,-0.10331 -0.41702,1.1e-4 -0.83408,7.7e-4 -1.2511,-0.001 v 0 c -0.0593,-2.9e-4 -0.10752,0.0476 -0.1078,0.10682 -2.9e-4,0.0593 0.0476,0.10753 0.10682,0.1078 0.001,10e-6 0.002,0 0.003,-2e-5 z m 1.24937,-0.007 c 0.41518,-1.2e-4 0.83047,0.001 1.24562,-0.004 v 0 c 0.0568,-7.7e-4 0.10223,-0.0475 0.10146,-0.10432 -7.2e-4,-0.0567 -0.0473,-0.10209 -0.10404,-0.10146 -0.4143,0.005 -0.82878,0.003 -1.24311,0.004 v 0 c -0.0571,2e-5 -0.10333,0.0463 -0.1033,0.10338 0,0.0571 0.0463,0.10332 0.10337,0.1033 z m 1.24562,-0.004 c 0.19766,-0.003 0.39532,-0.006 0.59295,-0.0106 v 0 c 0.0566,-0.001 0.10142,-0.0481 0.10022,-0.10465 -0.001,-0.0566 -0.0481,-0.10144 -0.10467,-0.10021 0,0 0,0 0,0 -0.19699,0.004 -0.39402,0.007 -0.59104,0.01 v 0 c -0.0568,6.4e-4 -0.10241,0.0472 -0.10178,0.10402 7.1e-4,0.0568 0.0472,0.10239 0.104,0.10176 1.1e-4,0 2.1e-4,0 3.1e-4,0 z m 0.59295,-0.0106 c 0.28765,-0.006 0.57524,-0.0141 0.86282,-0.0221 v -1e-5 c 0.0596,-0.002 0.10654,-0.0513 0.10488,-0.11082 -0.002,-0.0596 -0.0513,-0.10652 -0.11081,-0.10488 -6.9e-4,2e-5 -0.001,5e-5 -0.002,8e-5 -0.28632,0.0133 -0.57274,0.0266 -0.8593,0.0328 v 0 c -0.0566,0.001 -0.10142,0.0481 -0.10022,0.10465 0.001,0.0566 0.0481,0.10144 0.10467,0.10021 0,0 0,0 0,0 v 0 z m 0.86282,-0.0221 c 0.2763,-0.008 0.55256,-0.0154 0.82892,-0.0201 v 0 c 0.0628,-10e-4 0.11279,-0.0528 0.11173,-0.11561 -0.001,-0.0628 -0.0529,-0.1128 -0.11564,-0.11172 -1.1e-4,0 -1.8e-4,0 -2.9e-4,1e-5 -0.27771,0.005 -0.55531,0.0189 -0.8327,0.0318 v 0 c -0.0596,0.003 -0.10555,0.0533 -0.10277,0.11279 0.003,0.0587 0.052,0.10445 0.11074,0.10283 z m 0.82892,-0.0201 c 0.23368,-0.004 0.46754,2e-5 0.70118,0.005 v 0 c 0.0685,10e-4 0.12513,-0.0529 0.12658,-0.12135 0.001,-0.0684 -0.0529,-0.12512 -0.12135,-0.12656 -0.002,-4e-5 -0.004,-4e-5 -0.006,0 -0.23502,0.006 -0.47007,0.011 -0.70509,0.0156 v 0 c -0.0628,0.001 -0.11268,0.0531 -0.11141,0.11592 0.001,0.0627 0.053,0.11248 0.1156,0.1114 z m 0.70118,0.005 c 0.20479,0.004 0.40954,0.009 0.6143,0.0137 v 0 c 0.0753,0.002 0.13786,-0.0576 0.13977,-0.13285 0.002,-0.0753 -0.0576,-0.13786 -0.13286,-0.13977 -0.001,-3e-5 -0.002,-5e-5 -0.004,-4e-5 -0.20588,6.6e-4 -0.41176,0.006 -0.61757,0.0111 v -1e-5 c -0.0684,0.002 -0.12266,0.0584 -0.12104,0.12686 10e-4,0.0663 0.055,0.11965 0.12132,0.12105 z m 0.6143,0.0137 c 0.12428,0.003 0.24846,0.0106 0.37242,0.0201 v 0 c 0.0784,0.006 0.14683,-0.0526 0.15286,-0.13103 0.006,-0.0784 -0.0526,-0.14683 -0.13102,-0.15285 -0.002,-1.3e-4 -0.003,-2.2e-4 -0.005,-2.9e-4 -0.12873,-0.006 -0.2576,-0.009 -0.38647,-0.009 v 0 c -0.0753,2.5e-4 -0.13614,0.0615 -0.13589,0.13682 2.9e-4,0.0738 0.0592,0.13397 0.13293,0.13584 z m 0.37242,0.0201 c 0.0999,0.008 0.20013,0.015 0.29955,0.0279 v 0 c 0.0829,0.0107 0.15878,-0.0478 0.16951,-0.1307 0.0107,-0.0829 -0.0478,-0.15881 -0.13067,-0.16953 -0.006,-7.1e-4 -0.0112,-10e-4 -0.0168,-10e-4 -0.10157,-0.002 -0.2031,-0.006 -0.30459,-0.0106 v 0 c -0.0786,-0.003 -0.14496,0.0576 -0.14831,0.13613 -0.003,0.0767 0.0548,0.14216 0.1313,0.14804 z m 0.29955,0.0279 c 0.0724,0.009 0.14711,0.0227 0.20775,-0.032 v 0 c 0.0136,-0.0122 0.0249,-0.0268 0.0335,-0.0429 l 7e-5,2e-5 c 0.01,-0.0183 0.0159,-0.0384 0.0179,-0.0591 0.006,-0.0623 -0.0256,-0.12204 -0.0785,-0.1536 v 0 c -0.04,-0.0239 -0.0884,-0.029 -0.13247,-0.0139 -0.009,2.9e-4 -0.0175,2e-4 -0.0262,5e-5 v 0 c -0.0836,-0.001 -0.15255,0.0651 -0.15399,0.1487 -0.001,0.0771 0.0555,0.14287 0.13194,0.15276 z m 0.0695,0.008 c 0.004,-0.001 0.008,-0.002 0.0121,-0.003 l -4e-5,2.9e-4 c 0.0869,0.01 0.16535,-0.0525 0.17526,-0.1394 0.007,-0.0618 -0.0228,-0.12196 -0.0761,-0.15385 -0.0808,-0.0483 -0.17184,-0.0185 -0.24049,0.0348 v 0 c -0.0649,0.0503 -0.0767,0.14369 -0.0264,0.20857 0.0366,0.0472 0.0979,0.0679 0.15565,0.0526 z m -0.15438,0.0176 c 0.0519,9.5e-4 0.10407,-0.004 0.15438,-0.0176 v 0 c 0.0793,-0.0211 0.12658,-0.10249 0.10548,-0.18184 -0.0211,-0.0794 -0.10248,-0.12658 -0.18182,-0.1055 -0.0192,0.005 -0.0372,0.014 -0.0529,0.0262 -0.0109,0.008 -0.0251,0.0119 -0.0385,0.0135 v 0 c -0.073,0.009 -0.12509,0.075 -0.11634,0.14797 0.008,0.066 0.0633,0.11605 0.12971,0.11727 z m -0.13814,-0.0208 c 0.0441,0.0157 0.0917,0.02 0.13814,0.0208 v 0 c 0.0735,10e-4 0.13417,-0.0571 0.13551,-0.13064 0.001,-0.0735 -0.0571,-0.13417 -0.13064,-0.13552 -0.006,-1.1e-4 -0.0122,2e-4 -0.0183,9.3e-4 -0.007,8.4e-4 -0.0142,10e-4 -0.0213,10e-4 l 3e-5,-6e-5 c -0.0656,-0.0325 -0.14503,-0.006 -0.17755,0.0598 -0.0325,0.0655 -0.006,0.14503 0.0598,0.17755 0.005,0.002 0.009,0.004 0.0143,0.006 z m -0.11801,-0.0784 c 0.0332,0.0341 0.073,0.0623 0.11801,0.0784 v 0 c 0.0689,0.0246 0.14471,-0.0113 0.16933,-0.0802 0.0211,-0.0591 -0.002,-0.12495 -0.0558,-0.15765 -10e-4,-7.4e-4 -0.007,-0.009 -0.009,-0.0127 v 0 c -0.0406,-0.0668 -0.12757,-0.0881 -0.19435,-0.0475 -0.0668,0.0405 -0.088,0.12754 -0.0475,0.19433 0.006,0.009 0.0122,0.0177 0.0196,0.0253 z m -0.0853,-0.11678 c 0.0238,0.042 0.0515,0.0822 0.0853,0.11678 v 0 c 0.0545,0.0559 0.14408,0.0571 0.20003,0.003 0.0472,-0.046 0.0563,-0.11839 0.0222,-0.17468 -0.014,-0.0231 -0.0247,-0.0482 -0.0343,-0.0733 v 0 c -0.0298,-0.0781 -0.11733,-0.11729 -0.19544,-0.0875 -0.0781,0.0298 -0.1173,0.11732 -0.0875,0.19545 0.003,0.007 0.006,0.0141 0.01,0.0207 v 0 z m -0.068,-0.15376 c 0.0184,0.053 0.0403,0.10496 0.068,0.15376 v 0 c 0.0413,0.0727 0.1337,0.0982 0.20641,0.057 0.0651,-0.0369 0.0934,-0.1158 0.0667,-0.18568 -0.0142,-0.0371 -0.0248,-0.0756 -0.0339,-0.1142 v 0 c -0.0202,-0.0861 -0.10644,-0.13952 -0.19255,-0.11929 -0.0861,0.0202 -0.13952,0.10643 -0.11931,0.19254 0.001,0.005 0.003,0.0107 0.005,0.0159 z m -0.0477,-0.18009 c 0.0116,0.061 0.0273,0.12136 0.0477,0.18007 v 1e-5 c 0.029,0.0836 0.12026,0.12779 0.20384,0.0988 0.0775,-0.0269 0.12216,-0.10804 0.1034,-0.18792 -0.0107,-0.0454 -0.0178,-0.0916 -0.0222,-0.13808 v 0 c -0.009,-0.0925 -0.0907,-0.16048 -0.1832,-0.15182 -0.0925,0.009 -0.16048,0.0907 -0.1518,0.18317 3.7e-4,0.005 0.001,0.0106 0.002,0.0158 v 0 z m 0,0 v 0 c 0.0174,0.0913 0.10548,0.15117 0.19674,0.13379 0.0852,-0.0162 0.14411,-0.0946 0.13603,-0.18093 -0.0178,-0.18997 -0.0556,-0.37941 -0.0862,-0.56754 v 0 c -0.008,-0.049 -0.0542,-0.0823 -0.10322,-0.0743 -0.0376,0.006 -0.0673,0.0353 -0.0741,0.0727 -0.023,0.1269 -0.0452,0.25412 -0.0613,0.38211 -0.01,0.0758 -0.0225,0.15819 -0.008,0.23417 z" />
    <path
       inkscape:connector-curvature="0"
       id="path850"
       style="fill:#666666;fill-opacity:1;fill-rule:nonzero;stroke:none;stroke-width:0.35277778"
       d="m 162.41049,249.42579 c -1.8e-4,0.0894 0.0236,0.17888 0.0483,0.26413 v 0 c 0.0208,0.0715 0.0955,0.11262 0.16701,0.0919 0.0481,-0.0139 0.0844,-0.0534 0.0945,-0.10237 0.0162,-0.0793 0.0324,-0.15954 0.0384,-0.24037 v 0 c 0.007,-0.096 -0.0649,-0.17967 -0.1609,-0.18683 -0.096,-0.007 -0.17967,0.0649 -0.18683,0.1609 -3.2e-4,0.004 -3.7e-4,0.008 -3.7e-4,0.0127 h 4e-5 z m 0.34819,0.0133 c 0.001,-0.021 0.003,-0.0443 0.0112,-0.0641 v 0 c 0.0378,-0.0935 -0.007,-0.19996 -0.10093,-0.23773 -0.0935,-0.0378 -0.19996,0.007 -0.23774,0.10092 -0.005,0.0131 -0.009,0.0268 -0.0112,0.0407 -0.007,0.0485 -0.009,0.0978 -0.009,0.14684 h -4e-5 c -1.4e-4,0.0963 0.0778,0.17449 0.17406,0.17466 0.0914,1.6e-4 0.16736,-0.0702 0.17417,-0.16137 z m 0.0112,-0.0641 c 0.0123,-0.0306 0.0253,-0.061 0.0384,-0.0912 v 0 c 0.0423,-0.0969 -0.002,-0.20975 -0.0988,-0.25207 -0.0969,-0.0423 -0.20977,0.002 -0.25206,0.0988 -0.003,0.007 -0.005,0.0135 -0.008,0.0204 -0.0129,0.0419 -0.0232,0.0847 -0.0298,0.12803 v 1e-5 c -0.0153,0.0997 0.0532,0.19289 0.15289,0.20816 0.0837,0.0128 0.16524,-0.0336 0.19696,-0.11214 z m 0.0384,-0.0913 c 0.01,-0.0224 0.0197,-0.0448 0.0312,-0.0663 v 0 c 0.0514,-0.0955 0.0156,-0.21456 -0.0799,-0.26592 -0.0955,-0.0514 -0.21456,-0.0156 -0.26592,0.08 -0.003,0.006 -0.006,0.012 -0.009,0.0182 -0.0136,0.033 -0.0247,0.0671 -0.0352,0.10125 v 0 c -0.031,0.10108 0.0257,0.20817 0.12683,0.2392 0.093,0.0286 0.19268,-0.0172 0.23163,-0.1064 z m 0.0312,-0.0663 c 0.0116,-0.0216 0.0263,-0.0418 0.0404,-0.0618 v 0 c 0.0635,-0.0901 0.0418,-0.21459 -0.0483,-0.27804 -0.0901,-0.0634 -0.21459,-0.0418 -0.27806,0.0483 -0.002,0.003 -0.004,0.005 -0.005,0.008 -0.0237,0.0372 -0.0466,0.0754 -0.0635,0.11625 v 0 c -0.0413,0.10028 0.007,0.21504 0.10682,0.25632 0.0931,0.0383 0.20003,5e-5 0.24769,-0.0886 z m 0.0404,-0.0618 c 0.0173,-0.0245 0.0366,-0.0475 0.058,-0.0684 v 0 c 0.0799,-0.0782 0.0812,-0.20643 0.003,-0.28631 -0.0783,-0.0799 -0.20645,-0.0812 -0.28632,-0.003 -0.002,0.002 -0.004,0.004 -0.006,0.007 -0.0371,0.0398 -0.0703,0.0831 -0.0996,0.12894 v 0 c -0.0592,0.0929 -0.0319,0.2163 0.061,0.27553 0.0899,0.0573 0.20902,0.0338 0.2704,-0.0534 z m 0.058,-0.0684 c 0.0216,-0.0212 0.0451,-0.0404 0.07,-0.0575 v 0 c 0.0937,-0.0646 0.1173,-0.19289 0.0527,-0.28659 -0.0646,-0.0937 -0.1929,-0.1173 -0.2866,-0.0527 -0.004,0.003 -0.008,0.005 -0.0113,0.008 -0.0408,0.0324 -0.0791,0.0678 -0.11462,0.10586 v 0 c -0.0762,0.0818 -0.0717,0.20992 0.0101,0.28614 0.0792,0.0738 0.20237,0.0722 0.27969,-0.003 z m 0.07,-0.0575 c 0.026,-0.0179 0.0531,-0.0343 0.0812,-0.0486 v 0 c 0.10357,-0.0524 0.14509,-0.17881 0.0927,-0.2824 -0.0524,-0.10358 -0.17882,-0.1451 -0.2824,-0.0927 -0.004,0.002 -0.008,0.004 -0.0122,0.007 -0.0435,0.0257 -0.085,0.0547 -0.12453,0.0861 v 0 c -0.0891,0.0708 -0.10393,0.20041 -0.0331,0.2895 0.0674,0.0849 0.18902,0.10297 0.27824,0.0415 z m 0.0813,-0.0486 c 0.025,-0.0127 0.0508,-0.0237 0.0774,-0.0326 v 0 c 0.11137,-0.0372 0.17156,-0.15757 0.13441,-0.26895 -0.0372,-0.11138 -0.15759,-0.17155 -0.26896,-0.1344 -0.001,4e-4 -0.002,7.4e-4 -0.004,0.001 -0.0492,0.0173 -0.0965,0.0398 -0.14139,0.0663 v 0 c -0.0999,0.0591 -0.13296,0.188 -0.0739,0.28791 0.0564,0.0953 0.17695,0.1305 0.27576,0.0805 z m 0.0774,-0.0326 c 0.0211,-0.007 0.0428,-0.0132 0.0648,-0.0167 v 0 c 0.11627,-0.0186 0.19547,-0.12803 0.17681,-0.24433 -0.0186,-0.11631 -0.12803,-0.19548 -0.24434,-0.17684 -6.9e-4,1e-4 -0.001,2.1e-4 -0.002,3.2e-4 -0.0454,0.008 -0.0899,0.0201 -0.13328,0.0353 v 0 c -0.11074,0.039 -0.16891,0.16039 -0.12993,0.27114 0.0386,0.10945 0.15773,0.16779 0.26783,0.13107 v 1e-5 z m 0.0648,-0.0167 c 0.0199,-0.003 0.04,-0.005 0.0602,-0.005 v 0 c 0.11786,-0.002 0.21184,-0.0992 0.20987,-0.21704 -0.002,-0.11788 -0.0992,-0.21184 -0.21703,-0.20986 -0.041,6.6e-4 -0.0819,0.005 -0.12235,0.0114 v 0 c -0.11613,0.0197 -0.19431,0.12978 -0.17466,0.24591 0.0196,0.11539 0.12845,0.19346 0.24402,0.17496 z m 0.0602,-0.005 c 0.0129,-2.2e-4 0.0257,10e-4 0.0383,0.004 v 0 c 0.11398,0.0267 0.22804,-0.044 0.25474,-0.158 0.0255,-0.10878 -0.0378,-0.21867 -0.14474,-0.25116 -0.0503,-0.0153 -0.10287,-0.023 -0.15551,-0.0221 v 1e-5 c -0.11786,0.002 -0.21184,0.0992 -0.20983,0.21703 0.002,0.11789 0.0991,0.21184 0.21703,0.20987 z m 0.0383,0.004 c 0.01,0.002 0.0188,0.007 0.0273,0.0122 h -4e-5 c 0.098,0.0609 0.22684,0.0309 0.28776,-0.0671 0.0585,-0.094 0.0334,-0.21736 -0.0572,-0.28112 -0.0452,-0.0318 -0.095,-0.0571 -0.14788,-0.0732 v 0 c -0.11201,-0.034 -0.2304,0.0292 -0.26441,0.14119 -0.034,0.11201 0.0292,0.23039 0.14118,0.26442 0.004,0.001 0.009,0.003 0.0133,0.004 z m 0.0273,0.0122 c 0.0227,0.0141 0.0435,0.0314 0.0633,0.0493 v 0 c 0.0839,0.0762 0.21368,0.07 0.28988,-0.014 0.0726,-0.0799 0.0708,-0.20249 -0.004,-0.28029 -0.0364,-0.0378 -0.0756,-0.0731 -0.11846,-0.10331 h -4e-5 c -0.0943,-0.0664 -0.22465,-0.0438 -0.29108,0.0505 -0.0665,0.0943 -0.0439,0.22466 0.0505,0.2911 0.003,0.002 0.007,0.005 0.01,0.007 z m 0.0633,0.0493 c 0.0278,0.0253 0.0533,0.053 0.0773,0.0819 v 0 c 0.0711,0.086 0.19861,0.0981 0.28462,0.0269 0.0847,-0.0701 0.0979,-0.19495 0.0297,-0.28116 -0.0334,-0.0422 -0.0685,-0.0831 -0.1058,-0.12194 h -4e-5 c -0.0786,-0.0816 -0.20849,-0.0841 -0.29012,-0.005 -0.0816,0.0786 -0.0841,0.20852 -0.005,0.29015 0.003,0.003 0.006,0.007 0.01,0.01 z m 0.0773,0.0819 c 0.0301,0.0364 0.057,0.0754 0.0822,0.11533 v 0 c 0.0605,0.0961 0.18747,0.12497 0.28357,0.0645 0.0961,-0.0605 0.12499,-0.18747 0.0645,-0.28358 -0.004,-0.005 -0.007,-0.0107 -0.011,-0.0158 -0.0347,-0.0451 -0.0696,-0.0901 -0.10495,-0.1347 v 0 c -0.0693,-0.0876 -0.19639,-0.10241 -0.28395,-0.0331 -0.0876,0.0693 -0.10242,0.19639 -0.0332,0.28396 0.001,0.001 0.002,0.002 0.003,0.003 z m 0.0822,0.11533 c 0.034,0.054 0.0672,0.10858 0.0998,0.16346 v 0 c 0.06,0.10083 0.19032,0.13395 0.29115,0.074 0.10082,-0.06 0.13395,-0.19032 0.074,-0.29115 -0.002,-0.003 -0.004,-0.006 -0.005,-0.008 -0.0389,-0.059 -0.0796,-0.11677 -0.12262,-0.17277 v 0 c -0.0693,-0.09 -0.19837,-0.10687 -0.2884,-0.0376 -0.0841,0.0647 -0.10516,0.18276 -0.0487,0.27256 z m 0.0998,0.16346 c 0.0359,0.0604 0.0701,0.12167 0.10312,0.18365 v 0 c 0.0557,0.10476 0.18588,0.14449 0.29065,0.0887 0.10474,-0.0557 0.14446,-0.18587 0.0887,-0.29064 0,0 0,0 0,0 -0.0377,-0.0709 -0.0784,-0.14033 -0.12266,-0.20737 v 0 c -0.0646,-0.0979 -0.19639,-0.12487 -0.29428,-0.0602 -0.0947,0.0625 -0.12355,0.18835 -0.0656,0.28585 z m 0.10312,0.18364 c 0.0338,0.0636 0.0642,0.12896 0.0916,0.19558 v 0 c 0.0456,0.11092 0.17248,0.16389 0.28339,0.11831 0.11091,-0.0456 0.1639,-0.17245 0.11832,-0.28337 -0.001,-0.002 -0.002,-0.005 -0.003,-0.007 -0.0346,-0.0761 -0.0714,-0.1512 -0.11074,-0.225 v 0 c -0.0557,-0.10476 -0.18588,-0.1445 -0.29065,-0.0887 -0.10474,0.0557 -0.14447,0.18587 -0.0887,0.29063 z m 0.0916,0.19558 c 0.0466,0.11342 0.0904,0.22808 0.13413,0.34262 v 0 c 0.0433,0.11319 0.17007,0.16987 0.28328,0.12661 0.11317,-0.0433 0.16986,-0.17009 0.12661,-0.28327 -0.046,-0.12036 -0.0921,-0.2411 -0.14552,-0.35843 v 0 c -0.0497,-0.10915 -0.17843,-0.15737 -0.28758,-0.1077 -0.10629,0.0484 -0.1553,0.17215 -0.11092,0.28017 z m 0.13413,0.34262 c 0.0459,0.12001 0.0918,0.24007 0.14079,0.35884 v 0 c 0.0456,0.11058 0.17223,0.16325 0.28279,0.11764 0.10714,-0.0442 0.16051,-0.16487 0.12111,-0.27385 -0.0435,-0.12029 -0.0891,-0.23983 -0.13483,-0.3593 v 0 c -0.0433,-0.11318 -0.17008,-0.16986 -0.28325,-0.1266 -0.1132,0.0433 -0.16986,0.17009 -0.12661,0.28327 z m 0.14079,0.35884 c 0.0314,0.0761 0.0622,0.15233 0.0925,0.22882 h 4e-5 c 0.0434,0.10976 0.1676,0.16353 0.27739,0.12009 0.10975,-0.0434 0.16351,-0.16764 0.12008,-0.2774 -0.0299,-0.0755 -0.0585,-0.15139 -0.0861,-0.22771 v -1e-5 c -0.0407,-0.11248 -0.16482,-0.17069 -0.27732,-0.13002 -0.11247,0.0407 -0.17067,0.16482 -0.13003,0.2773 0.001,0.003 0.002,0.006 0.004,0.009 z m 0.0925,0.22882 c 0.0298,0.0753 0.0606,0.15023 0.0926,0.22464 v 0 c 0.0464,0.10812 0.1717,0.15812 0.27982,0.1117 0.10718,-0.046 0.15741,-0.16969 0.11272,-0.27742 -0.0298,-0.0718 -0.059,-0.14391 -0.0876,-0.21622 v 0 c -0.0434,-0.10976 -0.16764,-0.16353 -0.27739,-0.1201 -0.10978,0.0434 -0.16355,0.16763 -0.12012,0.27739 0,0 4e-5,10e-6 4e-5,10e-6 z m 0.0926,0.22463 c 0.0291,0.0677 0.0578,0.13559 0.086,0.20364 v 0 c 0.0454,0.10939 0.17096,0.16122 0.28036,0.11578 0.10939,-0.0455 0.16122,-0.17097 0.11578,-0.28035 -0.001,-0.003 -0.002,-0.005 -0.004,-0.008 -0.0301,-0.0651 -0.0588,-0.13082 -0.0862,-0.19705 v 0 c -0.0451,-0.10867 -0.16976,-0.16021 -0.27845,-0.11511 -0.10866,0.0451 -0.1602,0.16974 -0.11511,0.27842 3.4e-4,8.2e-4 6.8e-4,0.002 0.001,0.002 v -1e-5 z m 0.086,0.20367 c 0.0255,0.0613 0.0508,0.12274 0.0757,0.18431 v 0 c 0.0451,0.11154 0.17216,0.16537 0.28367,0.12025 0.11155,-0.0451 0.16538,-0.17214 0.12026,-0.28368 -6.9e-4,-0.002 -0.001,-0.004 -0.002,-0.005 -0.0275,-0.0629 -0.0558,-0.12545 -0.0846,-0.18776 v 0 c -0.0497,-0.10751 -0.17716,-0.15437 -0.28469,-0.10466 -0.10453,0.0483 -0.15226,0.17063 -0.10805,0.27699 z m 0.0757,0.1843 c 0.0356,0.0879 0.0745,0.1745 0.11339,0.26095 v 0 c 0.0497,0.11035 0.17942,0.15953 0.28977,0.10985 0.11035,-0.0497 0.15952,-0.17941 0.10985,-0.28976 -0.0375,-0.0831 -0.0749,-0.16632 -0.11137,-0.24989 v 0 c -0.0481,-0.11028 -0.17653,-0.16067 -0.28681,-0.11254 -0.10819,0.0472 -0.1591,0.17198 -0.11483,0.28139 z m 0.11339,0.26095 c 0.0335,0.0743 0.065,0.15104 0.10527,0.2221 v 0 c 0.0582,0.1029 0.18891,0.1391 0.29178,0.0808 0.0862,-0.0487 0.12763,-0.15015 0.10036,-0.24528 -0.0234,-0.0818 -0.063,-0.1603 -0.0978,-0.23759 v 0 c -0.0497,-0.11035 -0.17942,-0.15953 -0.28977,-0.10984 -0.11035,0.0497 -0.15952,0.17941 -0.10985,0.28976 0,0 0,0 0,0 z m 0.10527,0.22208 c 0.0238,0.042 0.0599,0.0763 0.10466,0.0957 v 0 c 0.0721,0.0313 0.15565,0.0199 0.21679,-0.0295 0.0685,-0.0554 0.0944,-0.1477 0.0707,-0.23059 v 0 c -0.0326,-0.11367 -0.15109,-0.17943 -0.26476,-0.14688 -0.11366,0.0326 -0.17942,0.1511 -0.14689,0.26477 0.005,0.0162 0.0112,0.0318 0.0195,0.0465 z" />
    <path
       inkscape:connector-curvature="0"
       id="path852"
       style="fill:#666666;fill-opacity:1;fill-rule:nonzero;stroke:none;stroke-width:0.35277778"
       d="m 164.25548,250.46436 c 0.009,-0.003 0.0456,-0.003 0.0622,-0.002 v 1e-5 c 0.0744,0.002 0.13631,-0.0568 0.13825,-0.13119 0.002,-0.0744 -0.0568,-0.13631 -0.13116,-0.13827 0,0 0,0 0,0 -0.0427,-0.001 -0.0859,-0.002 -0.12848,0.002 v 0 c -0.0765,0.007 -0.13272,0.075 -0.12552,0.15157 0.007,0.0765 0.075,0.13272 0.15155,0.12553 0.0113,-0.001 0.0224,-0.003 0.0331,-0.007 z m -0.0218,0.009 c 0.006,-0.004 0.0149,-0.007 0.0218,-0.009 v 0 c 0.0725,-0.0255 0.11063,-0.10493 0.0851,-0.17743 -0.0212,-0.0603 -0.0807,-0.0984 -0.14428,-0.0924 -0.0296,0.003 -0.0593,0.007 -0.0878,0.0164 v -1e-5 c -0.0774,0.0243 -0.12044,0.10677 -0.0961,0.18416 0.0243,0.0774 0.10675,0.12044 0.18415,0.0961 0.0131,-0.004 0.0256,-0.0101 0.0371,-0.0177 z m -0.0529,0.0417 c 0.0172,-0.0142 0.0343,-0.0293 0.0529,-0.0417 v 0 c 0.0676,-0.0448 0.0862,-0.13594 0.0413,-0.20358 -0.0361,-0.0546 -0.10403,-0.0787 -0.16647,-0.059 -0.0374,0.0117 -0.0721,0.0318 -0.10559,0.0516 v 0 c -0.0736,0.0436 -0.0979,0.13866 -0.0543,0.21227 0.0436,0.0736 0.13868,0.0979 0.21227,0.0543 0.007,-0.004 0.0136,-0.009 0.0198,-0.0139 z m -0.16172,0.13849 c 0.0536,-0.0465 0.10707,-0.0932 0.16175,-0.1385 v 0 c 0.0659,-0.0546 0.0751,-0.15224 0.0205,-0.21815 -0.0486,-0.0587 -0.13272,-0.0733 -0.1983,-0.0345 -0.0698,0.0414 -0.13201,0.097 -0.19307,0.14991 v 0 c -0.0666,0.0577 -0.0738,0.15856 -0.0161,0.22516 0.0577,0.0666 0.15858,0.0738 0.22518,0.016 0,0 0,0 0,0 z m -0.23692,0.19934 c 0.08,-0.0652 0.15892,-0.13174 0.23692,-0.19935 v 0 c 0.0666,-0.0577 0.0738,-0.15856 0.016,-0.22517 -0.0577,-0.0666 -0.15854,-0.0738 -0.22514,-0.016 0,0 0,0 0,0 -0.0792,0.0687 -0.15646,0.13949 -0.23136,0.21282 v 0 c -0.0603,0.0591 -0.0613,0.15587 -0.002,0.21619 0.0553,0.0565 0.14453,0.0615 0.20581,0.0115 v 0 z m -0.31253,0.26969 c 0.10277,-0.0914 0.20588,-0.18277 0.31253,-0.26968 v 0 c 0.0654,-0.0533 0.0753,-0.14964 0.0219,-0.21509 -0.0533,-0.0654 -0.14965,-0.0753 -0.21509,-0.0219 -0.004,0.003 -0.007,0.006 -0.0104,0.009 -0.0979,0.0958 -0.20084,0.18642 -0.30388,0.27657 v 0 c -0.0612,0.0536 -0.0674,0.1466 -0.0139,0.20781 0.0536,0.0612 0.14662,0.0674 0.20782,0.0139 3.1e-4,-2.6e-4 7.1e-4,-5.3e-4 0.001,-8.2e-4 v -1e-5 z m -0.31136,0.27106 c 0.10569,-0.0881 0.20856,-0.1796 0.31136,-0.27106 v 0 c 0.0608,-0.0541 0.0662,-0.14715 0.0121,-0.20791 -0.0538,-0.0604 -0.14616,-0.0662 -0.20701,-0.0129 -0.10213,0.0894 -0.2043,0.17875 -0.30699,0.26748 v 0 c -0.0615,0.0532 -0.0683,0.1461 -0.0151,0.20761 0.0525,0.0607 0.14396,0.0682 0.20563,0.0168 z m -0.21918,0.18282 c 0.0731,-0.061 0.14608,-0.1219 0.21914,-0.18281 v 0 c 0.0624,-0.0521 0.0709,-0.14486 0.0188,-0.20731 -0.052,-0.0624 -0.14485,-0.0709 -0.20729,-0.0188 -7.2e-4,5.8e-4 -0.001,0.001 -0.002,0.002 -0.0704,0.0609 -0.14234,0.12009 -0.2153,0.17798 v 0 c -0.0639,0.0507 -0.0746,0.14373 -0.0239,0.20768 0.0507,0.0639 0.14372,0.0747 0.20768,0.0239 10e-4,-7.6e-4 0.002,-0.002 0.003,-0.002 z m -0.31546,0.26661 c 0.10485,-0.0892 0.20977,-0.17838 0.31546,-0.26661 v 0 c 0.0627,-0.0523 0.0711,-0.14554 0.0188,-0.20821 -0.0514,-0.0616 -0.14256,-0.0709 -0.20539,-0.0211 -0.10601,0.0841 -0.21636,0.16295 -0.32678,0.24118 v 10e-6 c -0.0728,0.0515 -0.09,0.15231 -0.0384,0.22507 0.0515,0.0727 0.15233,0.0899 0.22508,0.0384 0.004,-0.003 0.008,-0.006 0.0113,-0.009 z m -0.29559,0.25071 c 0.0988,-0.0832 0.19721,-0.16698 0.29559,-0.25071 v 0 c 0.0679,-0.0578 0.0761,-0.15968 0.0183,-0.22758 -0.0542,-0.0637 -0.14806,-0.0755 -0.21632,-0.0271 -0.10263,0.0727 -0.20525,0.14603 -0.31154,0.21336 v 0 c -0.0847,0.0536 -0.10982,0.1657 -0.0562,0.25035 0.0536,0.0846 0.1657,0.1098 0.25033,0.0562 0.007,-0.004 0.0136,-0.009 0.0198,-0.0145 z m -0.19039,0.14569 c 0.0661,-0.045 0.12926,-0.0942 0.19039,-0.14569 v -1e-5 c 0.0767,-0.0645 0.0865,-0.17899 0.0219,-0.25563 -0.0585,-0.0694 -0.15921,-0.085 -0.23587,-0.0364 -0.0639,0.0404 -0.12721,0.0816 -0.18972,0.12416 v 0 c -0.0866,0.0589 -0.10901,0.17684 -0.0501,0.26343 0.0589,0.0866 0.17685,0.10904 0.26342,0.0501 z m -0.14298,0.0987 c 0.0474,-0.0333 0.0951,-0.0661 0.14301,-0.0987 v 0 c 0.0866,-0.0589 0.10901,-0.17684 0.0501,-0.26343 -0.0589,-0.0866 -0.17684,-0.10904 -0.26345,-0.0501 0,0 0,0 0,0 -0.0436,0.0297 -0.0882,0.0583 -0.13455,0.0837 v 0 c -0.0939,0.0515 -0.1282,0.1694 -0.0767,0.26328 0.0515,0.0939 0.16937,0.12821 0.26328,0.0767 0.006,-0.003 0.0124,-0.007 0.0182,-0.0114 z m -0.12347,0.0793 c 0.0427,-0.0239 0.0835,-0.0512 0.12347,-0.0793 v 0 c 0.0876,-0.0616 0.10865,-0.18256 0.0471,-0.27016 -0.0568,-0.0808 -0.16531,-0.10596 -0.25192,-0.0584 -0.0374,0.0206 -0.0748,0.0411 -0.11208,0.062 v 0 c -0.0955,0.0534 -0.12968,0.17418 -0.0762,0.26971 0.0534,0.0955 0.17416,0.12967 0.2697,0.0762 0,0 0,0 0,0 z m -0.30318,-0.0768 v 1e-5 c 10e-4,0.002 0.002,0.005 0.004,0.007 0.0563,0.11142 0.20023,0.12524 0.29972,0.0696 v 0 c 0.0955,-0.0534 0.12968,-0.17418 0.0762,-0.26971 -0.0534,-0.0955 -0.17417,-0.12967 -0.2697,-0.0762 -0.0922,0.0516 -0.15663,0.16463 -0.10971,0.26913 z" />
    <path
       inkscape:connector-curvature="0"
       id="path862"
       style="fill:#187795;fill-opacity:1;fill-rule:nonzero;stroke:none;stroke-width:0.35277778"
       d="m 147.6557,242.57011 c 0.11786,0.0767 0.23509,0.1572 0.3586,0.22471 v 0 c 0.1253,0.0685 0.28236,0.0224 0.35083,-0.10286 0.0685,-0.12529 0.0224,-0.28237 -0.10283,-0.35085 -0.006,-0.003 -0.0122,-0.006 -0.0185,-0.009 -0.12242,-0.0547 -0.24444,-0.11039 -0.3665,-0.16581 v -1e-5 c -0.11621,-0.0527 -0.25316,-0.001 -0.3059,0.11489 -0.0472,0.10396 -0.0114,0.22681 0.0843,0.28911 z m 0.3586,0.2247 c 0.0624,0.0341 0.12664,0.0648 0.1917,0.0936 v 0 c 0.1338,0.059 0.29016,-0.002 0.34921,-0.13538 0.059,-0.13381 -0.002,-0.29016 -0.1354,-0.34921 -0.004,-0.002 -0.009,-0.004 -0.0133,-0.005 -0.0548,-0.0207 -0.10922,-0.0425 -0.1627,-0.0664 v 0 c -0.13035,-0.0583 -0.28325,1.8e-4 -0.34153,0.13054 -0.055,0.12304 -0.006,0.26769 0.11205,0.33233 z m 0.19166,0.0935 c 0.0741,0.0327 0.14986,0.0616 0.2267,0.0872 v 0 c 0.14227,0.0474 0.29601,-0.0295 0.34339,-0.17183 0.0474,-0.14228 -0.0296,-0.29602 -0.17184,-0.34339 -0.006,-0.002 -0.0117,-0.004 -0.0176,-0.005 -0.061,-0.0158 -0.12118,-0.0345 -0.18009,-0.0568 v 1e-5 c -0.13684,-0.0517 -0.28967,0.0173 -0.34135,0.15417 -0.0497,0.13159 0.0122,0.27907 0.14083,0.33587 z m 0.2267,0.0872 c 0.0878,0.0293 0.17787,0.0518 0.26871,0.0695 v 0 c 0.15081,0.0295 0.297,-0.0689 0.32646,-0.21977 0.0294,-0.15083 -0.0689,-0.29699 -0.21978,-0.32645 -0.004,-8.2e-4 -0.008,-0.002 -0.0124,-0.002 -0.0703,-0.0105 -0.14026,-0.0237 -0.20909,-0.0416 v 0 c -0.14517,-0.0376 -0.29333,0.0495 -0.33097,0.1947 -0.0358,0.13825 0.0416,0.28062 0.17706,0.32574 v 1e-5 z m 0.26871,0.0695 c 0.0992,0.0194 0.19963,0.0324 0.30042,0.0403 v 0 c 0.1572,0.0123 0.29457,-0.10521 0.30685,-0.2624 0.0122,-0.15719 -0.10524,-0.29456 -0.26243,-0.30683 -0.006,-4.5e-4 -0.0115,-6.9e-4 -0.0172,-8.2e-4 -0.078,-0.001 -0.1561,-0.007 -0.23333,-0.0186 v 0 c -0.15201,-0.0226 -0.29358,0.0823 -0.31619,0.23427 -0.0219,0.14719 0.0759,0.28556 0.2219,0.31409 z m 0.30042,0.0403 c 0.10527,0.008 0.21079,0.0129 0.31637,0.0151 v 0 c 0.16143,0.003 0.29507,-0.12479 0.29842,-0.28624 0.004,-0.16145 -0.12478,-0.29506 -0.28625,-0.29842 -0.003,-7e-5 -0.006,-8e-5 -0.01,-4e-5 -0.0972,10e-4 -0.19442,10e-4 -0.29161,-4.5e-4 v 0 c -0.15762,-0.003 -0.28765,0.1228 -0.29041,0.28045 -0.002,0.15094 0.11268,0.27784 0.26321,0.2896 v 0 z m 0.31634,0.0151 c 0.11278,0.002 0.22567,0 0.33821,-0.008 v 0 c 0.1639,-0.011 0.28783,-0.15282 0.27682,-0.31672 -0.011,-0.16388 -0.15282,-0.28781 -0.31672,-0.27678 -0.003,2e-4 -0.006,4.5e-4 -0.009,7.7e-4 -0.0953,0.009 -0.19092,0.0144 -0.2866,0.0156 v 0 c -0.1615,0.002 -0.29076,0.13453 -0.28875,0.296 0.002,0.15768 0.12859,0.28541 0.28625,0.2887 v 0 z m 0.33821,-0.008 c 0.12146,-0.008 0.24232,-0.0241 0.36223,-0.045 v 0 c 0.16439,-0.0286 0.27449,-0.18507 0.24592,-0.34948 -0.0286,-0.16443 -0.18507,-0.27453 -0.3495,-0.24594 -0.002,4.5e-4 -0.005,9.5e-4 -0.008,0.001 -0.0992,0.02 -0.19925,0.0363 -0.29994,0.0462 v 0 c -0.16347,0.0161 -0.28296,0.16167 -0.26687,0.32514 0.0158,0.15989 0.15564,0.27838 0.31595,0.2676 z m 0.36223,-0.045 c 0.12929,-0.0225 0.25774,-0.0499 0.38516,-0.0813 v 0 c 0.16327,-0.0403 0.263,-0.20538 0.22267,-0.36868 -0.0403,-0.1633 -0.20538,-0.26299 -0.36868,-0.22268 -0.11628,0.0287 -0.23312,0.0551 -0.35056,0.0788 v 0 c -0.16358,0.0329 -0.26956,0.19223 -0.23664,0.35584 0.0323,0.16057 0.18665,0.26618 0.34805,0.23811 z m 0.38513,-0.0813 c 0.13208,-0.0326 0.2631,-0.0696 0.39281,-0.11052 v 1e-5 c 0.16108,-0.0508 0.25044,-0.22261 0.19961,-0.38367 -0.0508,-0.16106 -0.22261,-0.25042 -0.38369,-0.19959 -10e-4,4e-4 -0.002,7.7e-4 -0.004,10e-4 -0.11568,0.0381 -0.23276,0.072 -0.35101,0.10121 v 0 c -0.1633,0.0403 -0.263,0.20537 -0.22268,0.36867 0.0403,0.1633 0.20535,0.263 0.36866,0.22269 0,0 0,0 0,0 z m 0.39281,-0.11052 c 0.13445,-0.0424 0.26716,-0.0903 0.39787,-0.14307 v -1e-5 c 0.15755,-0.0636 0.23368,-0.24286 0.17007,-0.40038 -0.0636,-0.15754 -0.24285,-0.23368 -0.40037,-0.17009 -6.9e-4,2.1e-4 -0.001,4.2e-4 -0.001,6.4e-4 -0.11634,0.0477 -0.23435,0.0915 -0.3538,0.13087 v 0 c -0.16041,0.0529 -0.24754,0.22577 -0.19466,0.38617 0.0524,0.15897 0.22285,0.24626 0.38244,0.19589 v -1e-5 z m 0.39787,-0.14307 c 0.13525,-0.0546 0.26871,-0.11359 0.40051,-0.17605 v 0 c 0.15377,-0.0729 0.21935,-0.25665 0.14647,-0.41043 -0.0729,-0.15379 -0.25665,-0.21937 -0.41046,-0.14647 -0.12135,0.0575 -0.24409,0.11215 -0.36837,0.1631 v 0 c -0.15716,0.0644 -0.23234,0.24411 -0.16792,0.40129 0.0642,0.15659 0.24285,0.23191 0.39977,0.16856 z m 0.40051,-0.17605 c 0.13179,-0.0625 0.26313,-0.12601 0.39394,-0.1906 v 0 c 0.15357,-0.0758 0.21657,-0.26176 0.14076,-0.41531 -0.0758,-0.15354 -0.26176,-0.21655 -0.41532,-0.14073 -0.002,8.2e-4 -0.003,0.002 -0.005,0.002 -0.12509,0.0646 -0.25125,0.12697 -0.37846,0.18725 v 0 c -0.15377,0.0729 -0.21936,0.25664 -0.14647,0.41043 0.0729,0.15378 0.25664,0.21937 0.41046,0.14648 0,0 0,0 0,0 z m 0.39394,-0.1906 c 0.13928,-0.0688 0.27665,-0.14137 0.4124,-0.21687 v 0 c 0.1506,-0.0838 0.20479,-0.27377 0.12104,-0.42439 -0.0838,-0.15062 -0.27379,-0.20481 -0.42439,-0.12104 -7e-5,3e-5 -1.1e-4,6e-5 -1.8e-4,9e-5 -0.12838,0.0715 -0.25778,0.14126 -0.38834,0.20866 v 0 c -0.15219,0.0785 -0.21188,0.26557 -0.13331,0.41774 0.0775,0.15026 0.26119,0.21067 0.41278,0.13581 z m 0.4124,-0.21687 c 0.12915,-0.0718 0.25851,-0.1433 0.3882,-0.21422 v 0 c 0.15123,-0.0827 0.20679,-0.27238 0.12407,-0.42362 -0.0827,-0.15124 -0.27238,-0.20678 -0.42362,-0.12406 0,0 0,0 0,0 -0.13102,0.0717 -0.26172,0.1439 -0.39218,0.21656 v 0 c -0.15057,0.0838 -0.20465,0.27389 -0.12079,0.42446 0.0838,0.1505 0.27375,0.20461 0.42432,0.12088 z m 0.3882,-0.21422 c 0.12784,-0.0699 0.25505,-0.14103 0.38167,-0.21312 v 0 c 0.15039,-0.0856 0.20291,-0.27699 0.11726,-0.42739 -0.0856,-0.15041 -0.27697,-0.20291 -0.42739,-0.11728 -0.001,6.1e-4 -0.002,0.001 -0.003,0.002 -0.1217,0.0711 -0.24436,0.14068 -0.36801,0.20833 v 0 c -0.15124,0.0827 -0.2068,0.27239 -0.12408,0.42363 0.0827,0.15123 0.27238,0.20677 0.42362,0.12405 0,0 0,0 0,0 z m 0.38167,-0.21313 c 0.13183,-0.0751 0.26384,-0.14975 0.39602,-0.22416 v 0 c 0.15142,-0.0852 0.20507,-0.27709 0.11984,-0.42852 -0.0852,-0.15144 -0.27707,-0.20509 -0.42852,-0.11986 -0.13412,0.0755 -0.26768,0.15199 -0.40058,0.22967 v 0 c -0.1494,0.0873 -0.19974,0.27928 -0.11239,0.4287 0.0866,0.14822 0.27644,0.19913 0.42563,0.11418 z m 0.39602,-0.22416 c 0.12256,-0.069 0.24603,-0.13633 0.37102,-0.20081 v 0 c 0.15438,-0.0796 0.21495,-0.26933 0.13529,-0.42369 -0.0796,-0.1542 -0.26896,-0.21484 -0.4233,-0.1355 -0.13197,0.0679 -0.26236,0.13882 -0.39169,0.21162 v 0 c -0.15141,0.0852 -0.2051,0.2771 -0.11983,0.42853 0.0852,0.15143 0.27707,0.20509 0.42851,0.11985 0,0 0,0 0,0 z m 0.37102,-0.20081 c 0.10615,-0.0547 0.214,-0.10621 0.32378,-0.15322 v 0 c 0.16027,-0.0686 0.23456,-0.25416 0.16591,-0.41441 -0.0686,-0.16025 -0.25414,-0.23453 -0.41437,-0.16591 -0.001,6.1e-4 -0.003,0.001 -0.004,0.002 -0.12139,0.054 -0.24106,0.11183 -0.35924,0.17258 v -1e-5 c -0.15444,0.0794 -0.2153,0.26903 -0.13589,0.4235 0.0794,0.15448 0.26903,0.21533 0.42351,0.13591 1.1e-4,-7e-5 2.5e-4,-1.4e-4 3.7e-4,-2.1e-4 v 0 z m 0.32378,-0.15322 c 0.0972,-0.0416 0.19681,-0.0775 0.29845,-0.10643 v 0 c 0.16835,-0.0479 0.26596,-0.22326 0.21802,-0.3916 -0.0479,-0.16834 -0.22324,-0.26595 -0.39159,-0.21801 0,0 0,0 0,0 -0.1289,0.0367 -0.25498,0.083 -0.37743,0.13749 v 0 c -0.15925,0.0709 -0.23093,0.25743 -0.16006,0.4167 0.0702,0.15769 0.25397,0.22978 0.41261,0.16185 z m 0.29845,-0.10643 c 0.0884,-0.0252 0.17836,-0.0457 0.26952,-0.0576 v 0 c 0.17272,-0.0224 0.29454,-0.18061 0.2721,-0.3533 -0.0221,-0.17009 -0.17607,-0.29134 -0.34657,-0.27291 -0.12481,0.0135 -0.248,0.0398 -0.36862,0.0742 v 0 c -0.16834,0.0479 -0.26596,0.22326 -0.21801,0.3916 0.0479,0.16834 0.22327,0.26594 0.39158,0.21801 0,0 0,0 0,0 z m 0.26952,-0.0576 c 0.0846,-0.011 0.16986,-0.018 0.2552,-0.0202 v 0 c 0.17219,-0.004 0.30822,-0.14755 0.30385,-0.31975 -0.004,-0.16903 -0.14252,-0.30384 -0.31161,-0.30395 -0.10753,-6e-5 -0.21502,0.006 -0.32191,0.0177 v -10e-6 c -0.17314,0.0187 -0.29834,0.17425 -0.27961,0.34739 0.0187,0.17314 0.17424,0.29833 0.34738,0.27962 0.002,-2.4e-4 0.004,-5e-4 0.007,-8.2e-4 v 0 z m 0.2552,-0.0202 c 0.0598,-0.002 0.11995,0.003 0.17794,0.0184 v 0 c 0.16574,0.0427 0.33472,-0.057 0.37748,-0.22268 0.0427,-0.16541 -0.0566,-0.33415 -0.22187,-0.37726 -0.11133,-0.029 -0.22641,-0.0421 -0.34134,-0.0421 v -10e-6 c -0.17227,-1e-4 -0.31197,0.13947 -0.31207,0.31173 -1.1e-4,0.17225 0.13945,0.31197 0.31171,0.31207 0.003,0 0.005,-3e-5 0.008,-1e-4 z m 0.17794,0.0184 c 0.062,0.016 0.12252,0.0378 0.18038,0.0653 v 0 c 0.15409,0.0732 0.33838,0.008 0.41158,-0.14642 0.0726,-0.15267 0.009,-0.33529 -0.14277,-0.40983 -0.0939,-0.0461 -0.1924,-0.0826 -0.29358,-0.10896 v 0 c -0.16563,-0.0432 -0.33489,0.056 -0.37807,0.22166 -0.0432,0.16561 0.0561,0.33488 0.22165,0.37807 2.9e-4,7e-5 3.4e-4,1.4e-4 7.1e-4,2.1e-4 v 0 z m 0.18038,0.0653 c 0.0559,0.0266 0.11038,0.0566 0.16139,0.0918 v 0 c 0.13992,0.0964 0.33154,0.0612 0.42796,-0.0788 0.096,-0.13922 0.0616,-0.32979 -0.077,-0.42672 -0.0771,-0.054 -0.15906,-0.10103 -0.24356,-0.14255 v 0 c -0.1531,-0.0752 -0.33824,-0.0121 -0.41345,0.14101 -0.0752,0.15311 -0.0121,0.33823 0.141,0.41347 0.001,6.1e-4 0.002,0.001 0.004,0.002 z m 0.16139,0.0918 c 0.0511,0.0352 0.0993,0.0746 0.14496,0.11657 v 0 c 0.12481,0.11494 0.31916,0.10693 0.43409,-0.0179 0.1148,-0.12466 0.10697,-0.31874 -0.0175,-0.43375 -0.0664,-0.0613 -0.13649,-0.11859 -0.21054,-0.1704 v 0 c -0.1392,-0.0974 -0.33108,-0.0635 -0.42848,0.0757 -0.0974,0.13924 -0.0635,0.33108 0.0757,0.4285 7.1e-4,4.2e-4 0.001,8.2e-4 0.002,0.001 v -1e-5 z m 0.14496,0.11657 c 0.0763,0.0703 0.14771,0.1462 0.21858,0.22199 v 0 c 0.11571,0.12377 0.30988,0.1303 0.43367,0.0146 0.12354,-0.11553 0.13032,-0.30925 0.0151,-0.4331 -0.0811,-0.0872 -0.16319,-0.17417 -0.25079,-0.25508 v 0 c -0.1246,-0.11514 -0.31898,-0.10745 -0.43409,0.0172 -0.11515,0.12462 -0.10746,0.31898 0.0171,0.43412 1.4e-4,1.1e-4 2.5e-4,2.2e-4 3.7e-4,3.4e-4 z m 0.21858,0.22198 c 0.0747,0.0799 0.14926,0.15994 0.2219,0.24173 v 0 c 0.11204,0.12617 0.30515,0.13763 0.4313,0.0256 0.12468,-0.11071 0.13759,-0.30092 0.029,-0.42744 -0.0756,-0.0881 -0.15437,-0.17343 -0.23339,-0.2584 v 0 c -0.11543,-0.12408 -0.30957,-0.13111 -0.43367,-0.0157 -0.12408,0.1154 -0.1311,0.30955 -0.0157,0.43364 1.7e-4,1.9e-4 3.4e-4,3.7e-4 6.8e-4,5.6e-4 z m 0.2219,0.24174 c 0.0475,0.0534 0.092,0.10948 0.13374,0.16751 v 0 c 0.0987,0.13725 0.29002,0.1685 0.42725,0.0698 0.13726,-0.0987 0.16852,-0.29 0.0698,-0.42725 -0.001,-0.002 -0.003,-0.004 -0.005,-0.006 -0.0532,-0.0701 -0.10848,-0.13877 -0.16581,-0.20559 v 0 c -0.10992,-0.12804 -0.30279,-0.14275 -0.43084,-0.0328 -0.12803,0.1099 -0.14274,0.30278 -0.0328,0.43083 0.001,0.001 0.002,0.003 0.004,0.004 z m 0.13374,0.1675 c 0.0462,0.0643 0.0889,0.13103 0.12894,0.19925 v 0 c 0.0862,0.1466 0.27485,0.1956 0.42146,0.10944 0.14658,-0.0862 0.19558,-0.27485 0.10943,-0.42145 -1.4e-4,-2e-4 -2.4e-4,-4.2e-4 -3.5e-4,-6.1e-4 -0.0511,-0.0864 -0.10636,-0.17041 -0.16708,-0.2504 v 0 c -0.1022,-0.13467 -0.29421,-0.161 -0.42887,-0.0588 -0.13225,0.10035 -0.16041,0.2878 -0.0635,0.42257 z m 0.12897,0.19927 c 0.048,0.0817 0.0918,0.16576 0.13325,0.25095 v 0 c 0.0744,0.15311 0.25886,0.21691 0.41197,0.14249 0.15311,-0.0744 0.21692,-0.25887 0.14249,-0.41198 -1.1e-4,-2.3e-4 -2.1e-4,-4.5e-4 -3.2e-4,-6.6e-4 -0.0487,-0.0996 -0.10047,-0.19792 -0.15692,-0.29344 v 0 c -0.0865,-0.14639 -0.2753,-0.19494 -0.42167,-0.10844 -0.14616,0.0864 -0.19484,0.27474 -0.1088,0.42109 z m 0.13325,0.25095 c 0.0478,0.0982 0.0934,0.19748 0.13712,0.29758 v 0 c 0.0682,0.15616 0.25009,0.22747 0.40622,0.15927 0.15618,-0.0682 0.22748,-0.25006 0.15928,-0.40622 -3e-5,-9e-5 -7e-5,-1.8e-4 -10e-5,-2.6e-4 -0.0472,-0.10786 -0.0967,-0.21476 -0.14838,-0.32053 v 0 c -0.0748,-0.15293 -0.2594,-0.21627 -0.41233,-0.14148 -0.15268,0.0747 -0.21611,0.25881 -0.14181,0.41165 z m 0.13712,0.29759 c 0.0696,0.15925 0.14503,0.31599 0.22056,0.47248 v 0 c 0.0741,0.15349 0.25858,0.21786 0.41208,0.14377 0.15349,-0.0741 0.21787,-0.25858 0.14379,-0.41208 -0.0722,-0.14955 -0.14443,-0.29925 -0.21103,-0.45139 v 0 c -0.0684,-0.1561 -0.2503,-0.22723 -0.4064,-0.15889 -0.15596,0.0683 -0.22716,0.25005 -0.159,0.40611 z m 0.22056,0.47247 c 0.0755,0.15653 0.15141,0.3137 0.23795,0.46452 v 0 c 0.0845,0.14728 0.27241,0.19816 0.4197,0.11365 0.14583,-0.0837 0.19738,-0.26895 0.11578,-0.41593 -0.078,-0.14052 -0.14775,-0.28584 -0.21756,-0.43054 v 0 c -0.0741,-0.1535 -0.25859,-0.21787 -0.41208,-0.14378 -0.15353,0.0741 -0.21788,0.25858 -0.14379,0.41208 z m 0.23795,0.46452 c 0.0554,0.0965 0.1137,0.19119 0.17575,0.28349 v -1e-5 c 0.0935,0.1391 0.28205,0.17607 0.42115,0.0826 0.13536,-0.091 0.17459,-0.2727 0.0888,-0.41143 -0.0522,-0.0844 -0.1021,-0.17016 -0.15025,-0.25689 v 0 c -0.0824,-0.14846 -0.26959,-0.20199 -0.41804,-0.11957 -0.14845,0.0824 -0.202,0.2696 -0.11956,0.41806 7.1e-4,0.001 0.001,0.003 0.002,0.004 z m 0.17575,0.28349 c 0.0634,0.0944 0.13257,0.18489 0.20616,0.27159 v 0 c 0.10721,0.1263 0.29651,0.14178 0.42281,0.0346 0.12559,-0.10659 0.14171,-0.29447 0.0362,-0.42091 -0.0565,-0.0677 -0.10879,-0.13907 -0.15518,-0.21412 v 0 c -0.0881,-0.14256 -0.27514,-0.18669 -0.41769,-0.0986 -0.14256,0.0881 -0.18669,0.27513 -0.0986,0.41769 0.002,0.003 0.004,0.007 0.006,0.01 z m 0.20616,0.27158 c 0.0731,0.0862 0.15053,0.16878 0.23252,0.24659 v 0 c 0.12026,0.11415 0.31027,0.1092 0.42443,-0.0111 0.11412,-0.12025 0.10918,-0.31027 -0.0111,-0.42441 -7.2e-4,-8.5e-4 -0.002,-0.002 -0.002,-0.002 -0.0657,-0.0608 -0.12693,-0.12629 -0.18426,-0.19498 v 0 c -0.10615,-0.12718 -0.29534,-0.14423 -0.42252,-0.0381 -0.12717,0.10616 -0.14421,0.29533 -0.0381,0.42251 6.8e-4,6.3e-4 10e-4,0.001 0.002,0.002 z m 0.23252,0.24659 c 0.11314,0.1074 0.23301,0.20784 0.3526,0.30788 v 0 c 0.12771,0.10683 0.31782,0.0899 0.42464,-0.0378 0.10682,-0.1277 0.0899,-0.31781 -0.0378,-0.42463 -1.7e-4,-1.5e-4 -3.2e-4,-2.9e-4 -3.5e-4,-4.2e-4 -0.11095,-0.0924 -0.22229,-0.18481 -0.32819,-0.28295 v 0 c -0.12164,-0.11269 -0.31157,-0.10546 -0.42425,0.0162 -0.11176,0.12058 -0.10573,0.3086 0.0135,0.42178 z m 0.3526,0.30788 c 0.11811,0.0988 0.23633,0.19758 0.35758,0.29247 v 1e-5 c 0.13127,0.10272 0.32092,0.0796 0.42365,-0.0517 0.10273,-0.13125 0.0796,-0.32093 -0.0516,-0.42365 -0.11627,-0.091 -0.2298,-0.18557 -0.34325,-0.28003 v 0 c -0.12795,-0.10653 -0.31803,-0.0892 -0.42457,0.0388 -0.10636,0.12774 -0.0893,0.31746 0.0382,0.4241 z m 0.35758,0.29247 c 0.0784,0.0614 0.15783,0.12147 0.23854,0.17978 v 0 c 0.13512,0.0976 0.32375,0.0672 0.42133,-0.0679 0.0975,-0.13507 0.0672,-0.32364 -0.0679,-0.42125 -0.0744,-0.0538 -0.14767,-0.10928 -0.21999,-0.16589 v 0 c -0.13127,-0.10273 -0.32096,-0.0796 -0.42369,0.0517 -0.10269,0.13125 -0.0796,0.32093 0.0517,0.42365 z m 0.23858,0.17978 c 0.0852,0.0616 0.1753,0.11638 0.26956,0.16295 v 0 c 0.14845,0.0733 0.32826,0.0124 0.40156,-0.13601 0.0718,-0.14533 0.0151,-0.32141 -0.12805,-0.39749 -0.0659,-0.035 -0.12916,-0.0749 -0.18966,-0.11865 v 0 c -0.13508,-0.0976 -0.32371,-0.0673 -0.42132,0.0678 -0.0976,0.13507 -0.0673,0.32371 0.0678,0.42133 4e-5,2e-5 7e-5,5e-5 7e-5,7e-5 z m 0.26959,0.16296 c 0.0997,0.0492 0.2055,0.0857 0.31447,0.10767 v 0 c 0.16125,0.0325 0.31835,-0.0718 0.35091,-0.23306 0.0325,-0.16125 -0.0718,-0.31835 -0.23308,-0.35089 -0.0554,-0.0112 -0.10894,-0.0307 -0.15882,-0.0572 v 0 c -0.14623,-0.0777 -0.32773,-0.0222 -0.40545,0.12402 -0.0777,0.1462 -0.0222,0.32772 0.12404,0.40543 0.002,0.001 0.005,0.003 0.008,0.004 z m 0.31447,0.10767 c 0.10403,0.021 0.21022,0.0309 0.31633,0.0301 v 0 c 0.16253,-0.001 0.29323,-0.1341 0.29193,-0.29663 -0.001,-0.15627 -0.12443,-0.28431 -0.28053,-0.29162 -0.0704,-0.003 -0.14072,-0.0118 -0.20987,-0.0258 v 0 c -0.16125,-0.0326 -0.31834,0.0718 -0.35091,0.23304 -0.0325,0.16125 0.0718,0.31835 0.23305,0.35089 0,0 0,0 0,0 z m 0.31633,0.0301 c 0.1184,-9.5e-4 0.23615,-0.0216 0.34806,-0.0602 v 0 c 0.1513,-0.0522 0.23166,-0.21716 0.17949,-0.36848 -0.0517,-0.14987 -0.21421,-0.2304 -0.36477,-0.18075 -0.0488,0.0161 -0.10005,0.0236 -0.15138,0.0212 v 0 c -0.16235,-0.008 -0.30014,0.11785 -0.30773,0.28021 -0.008,0.16235 0.11786,0.30013 0.28021,0.30773 0.005,2.5e-4 0.0108,3.4e-4 0.0161,3.2e-4 z m 0.34802,-0.0602 c 0.11483,-0.0396 0.22289,-0.0972 0.32329,-0.16522 v 0 c 0.1319,-0.0893 0.16637,-0.2687 0.077,-0.40058 -0.0889,-0.13131 -0.26723,-0.16616 -0.3991,-0.078 -0.058,0.0387 -0.12002,0.0727 -0.18641,0.0945 v 0 c -0.15205,0.0501 -0.23463,0.21399 -0.1845,0.36601 0.0501,0.15201 0.21396,0.23462 0.36597,0.1845 0.001,-4.2e-4 0.002,-8.5e-4 0.004,-10e-4 z m 0.32329,-0.16522 c 0.1035,-0.0701 0.19963,-0.15089 0.28723,-0.24003 v 0 c 0.11151,-0.11342 0.10992,-0.29574 -0.004,-0.40722 -0.11342,-0.11148 -0.29573,-0.10991 -0.40721,0.004 0,0 0,0 -4e-5,0 -0.0604,0.0615 -0.12686,0.11719 -0.19858,0.16515 v 0 c -0.13243,0.0885 -0.16802,0.26767 -0.0795,0.4001 0.0885,0.13243 0.26769,0.16801 0.40012,0.0795 3.7e-4,-3.2e-4 0.001,-6.6e-4 0.001,-9.8e-4 z m 0.28723,-0.24003 c 0.0848,-0.0862 0.16531,-0.17659 0.24221,-0.26991 v 0 c 0.1022,-0.124 0.0845,-0.30737 -0.0395,-0.40956 -0.124,-0.10219 -0.30737,-0.0845 -0.40957,0.0395 -0.002,0.003 -0.004,0.005 -0.006,0.008 -0.0614,0.0799 -0.12707,0.15663 -0.1977,0.22851 v 0 c -0.11147,0.11342 -0.10992,0.29574 0.004,0.40722 0.11342,0.11148 0.29573,0.10991 0.40721,-0.003 z m 0.24221,-0.26991 c 0.12291,-0.14915 0.237,-0.30581 0.35112,-0.46168 v -1e-5 c 0.0984,-0.13436 0.0692,-0.32304 -0.0651,-0.42142 -0.13437,-0.0984 -0.32304,-0.0692 -0.42143,0.0651 -0.002,0.003 -0.005,0.006 -0.007,0.01 -0.10135,0.15046 -0.20238,0.30208 -0.31298,0.44601 v 0 c -0.0979,0.12741 -0.074,0.31007 0.0534,0.40798 0.12435,0.0956 0.30208,0.0754 0.40181,-0.0457 z m 0.35112,-0.46169 c 0.1572,-0.21464 0.31175,-0.43116 0.46401,-0.64932 v 0 c 0.0998,-0.14298 0.0648,-0.33978 -0.0782,-0.43957 -0.14298,-0.0998 -0.33979,-0.0648 -0.43956,0.0782 -0.002,0.003 -0.004,0.006 -0.006,0.009 -0.14287,0.21965 -0.28741,0.43819 -0.43385,0.6555 v 0 c -0.093,0.13811 -0.0565,0.32551 0.0816,0.41856 0.1343,0.0905 0.31609,0.0587 0.41176,-0.0719 z m 0.46401,-0.64933 c 0.12129,-0.17379 0.24226,-0.34801 0.35758,-0.52585 v 0 c 0.0977,-0.15065 0.0547,-0.35197 -0.0959,-0.44966 -0.15067,-0.0977 -0.35197,-0.0547 -0.44965,0.0959 -0.001,0.002 -0.003,0.005 -0.004,0.007 -0.10731,0.17516 -0.21907,0.3476 -0.33108,0.51978 v 0 c -0.0951,0.14616 -0.0537,0.34172 0.0925,0.43679 0.1428,0.0929 0.33355,0.0557 0.43102,-0.084 z m 0.35754,-0.52584 c 0.0881,-0.1358 0.1692,-0.2761 0.24391,-0.41966 v 0 c 0.0836,-0.16065 0.0212,-0.35867 -0.13948,-0.44229 -0.16066,-0.0836 -0.35867,-0.0212 -0.44228,0.13949 -0.0664,0.12758 -0.13695,0.25306 -0.21209,0.3757 v 0 c -0.0938,0.15309 -0.0458,0.35325 0.10731,0.44707 0.15032,0.0921 0.34671,0.0476 0.44263,-0.10031 z m 0.24391,-0.41966 c 0.0772,-0.14827 0.15025,-0.29865 0.22003,-0.45054 v 0 c 0.0747,-0.16258 0.004,-0.35493 -0.15917,-0.42961 -0.15896,-0.073 -0.34721,-0.007 -0.42521,0.14995 -0.0713,0.14308 -0.14365,0.28561 -0.21745,0.42741 v 0 c -0.0836,0.16066 -0.0211,0.35868 0.13953,0.44229 0.16065,0.0836 0.35867,0.0211 0.44227,-0.1395 z m 0.22003,-0.45054 c 0.0714,-0.15542 0.14408,-0.31024 0.21784,-0.46454 v 1e-5 c 0.0743,-0.15538 0.009,-0.34156 -0.14682,-0.41586 -0.14867,-0.0711 -0.32703,-0.0142 -0.40707,0.12986 -0.0862,0.1551 -0.1692,0.31203 -0.24833,0.47088 v 0 c -0.0798,0.16015 -0.0146,0.35464 0.14556,0.43441 0.16016,0.0798 0.35465,0.0146 0.43441,-0.14555 0.001,-0.003 0.003,-0.006 0.004,-0.009 z m 0.21784,-0.46454 c 0.11829,-0.24735 0.2418,-0.49221 0.36506,-0.7371 v 0 c 0.0746,-0.14825 0.0149,-0.32894 -0.13328,-0.40357 -0.14711,-0.074 -0.32636,-0.0159 -0.40206,0.13031 -0.12556,0.24259 -0.2509,0.48557 -0.38361,0.72436 v 0 c -0.0837,0.15054 -0.0295,0.34039 0.12107,0.42406 0.15053,0.0837 0.34039,0.0294 0.42407,-0.12109 0.003,-0.006 0.006,-0.0112 0.009,-0.017 z m 0.36506,-0.7371 c 0.16746,-0.33263 0.33344,-0.66597 0.49794,-1.00006 v 0 c 0.0709,-0.14397 0.0116,-0.31813 -0.13233,-0.38901 -0.14146,-0.0696 -0.31266,-0.0138 -0.38576,0.12594 -0.17251,0.32956 -0.3442,0.65952 -0.51516,0.98986 h -3e-5 c -0.0763,0.1474 -0.0186,0.32875 0.12876,0.40504 0.14743,0.0763 0.32875,0.0186 0.40506,-0.12876 3.4e-4,-9.8e-4 10e-4,-0.002 10e-4,-0.003 z m 0.49794,-1.00006 c 0.12037,-0.24454 0.24074,-0.48912 0.36361,-0.73241 v 0 c 0.0707,-0.13988 0.0145,-0.31054 -0.12534,-0.38119 -0.13988,-0.0707 -0.31052,-0.0145 -0.38118,0.12534 -0.12269,0.24293 -0.24899,0.48406 -0.37518,0.72519 v 0 c -0.0744,0.14217 -0.0195,0.31774 0.1227,0.39215 0.14217,0.0744 0.31771,0.0195 0.39215,-0.12268 0.001,-0.002 0.002,-0.004 0.003,-0.006 z m 0.36361,-0.73242 c 0.0764,-0.15121 0.15702,-0.30025 0.24246,-0.44653 v 0 c 0.0797,-0.13645 0.0337,-0.31167 -0.10276,-0.39137 -0.13645,-0.0797 -0.31168,-0.0337 -0.39137,0.10277 -7.2e-4,0.002 -0.002,0.003 -0.003,0.005 -0.0875,0.15639 -0.17142,0.31474 -0.2522,0.47469 v 0 c -0.0707,0.13988 -0.0145,0.31054 0.12534,0.38119 0.13987,0.0707 0.31055,0.0145 0.38117,-0.12534 0,0 0,-1e-5 0,-1e-5 z m 0.24246,-0.44652 c 0.1209,-0.20698 0.25136,-0.40844 0.38203,-0.60932 v 0 c 0.088,-0.13532 0.0497,-0.31637 -0.0856,-0.40439 -0.13533,-0.088 -0.31637,-0.0497 -0.40439,0.0856 -7.2e-4,0.001 -0.002,0.003 -0.002,0.004 -0.1325,0.21096 -0.26462,0.4227 -0.38629,0.64015 v 0 c -0.0772,0.13791 -0.0279,0.31225 0.10999,0.3894 0.13611,0.0761 0.30812,0.0293 0.38679,-0.10539 v 0 z m 0.38203,-0.60932 c 0.12414,-0.19088 0.24832,-0.38173 0.37228,-0.57275 v 0 c 0.088,-0.13566 0.0494,-0.31698 -0.0863,-0.40499 -0.13261,-0.0861 -0.3096,-0.0513 -0.3998,0.0785 -0.13244,0.19055 -0.25538,0.38794 -0.37875,0.58438 v 0 c -0.0859,0.1367 -0.0447,0.31712 0.092,0.40298 0.13519,0.0849 0.31345,0.0457 0.40048,-0.0881 z m 0.37225,-0.57274 c 0.07,-0.10786 0.14284,-0.21389 0.2189,-0.31758 v 0 c 0.0945,-0.12894 0.0667,-0.31012 -0.0623,-0.40468 -0.12894,-0.0946 -0.31013,-0.0667 -0.40467,0.0623 -0.0808,0.11014 -0.16006,0.22138 -0.23798,0.33353 v -1e-5 c -0.0923,0.13279 -0.0595,0.31525 0.0733,0.40754 0.13279,0.0923 0.31525,0.0595 0.40753,-0.0733 0.002,-0.003 0.004,-0.005 0.005,-0.008 z m 0.2189,-0.31758 c 0.0734,-0.10014 0.14735,-0.19994 0.22186,-0.29926 v 0 c 0.0951,-0.12672 0.0694,-0.30653 -0.0573,-0.40161 -0.12407,-0.0931 -0.29969,-0.0707 -0.39642,0.0506 -0.0805,0.10096 -0.15871,0.20374 -0.23509,0.30787 v 0 c -0.0945,0.12894 -0.0667,0.31012 0.0623,0.40468 0.12894,0.0946 0.31009,0.0667 0.40467,-0.0622 0,0 0,0 0,0 z m 0.22186,-0.29926 c 0.0644,-0.0859 0.13017,-0.1708 0.19794,-0.25407 v 0 c 0.0974,-0.11969 0.0793,-0.29568 -0.0404,-0.39308 -0.11447,-0.0932 -0.28165,-0.0812 -0.38174,0.0272 -0.0799,0.0866 -0.15603,0.17674 -0.22955,0.26887 v 0 c -0.0988,0.12385 -0.0785,0.30434 0.0454,0.40313 0.12386,0.0988 0.30434,0.0785 0.40312,-0.0454 0.002,-0.002 0.004,-0.004 0.005,-0.007 z m 0.19794,-0.25406 c 0.0539,-0.0663 0.1112,-0.13003 0.17286,-0.18925 v 0 c 0.10852,-0.1042 0.11201,-0.27662 0.008,-0.38512 -0.10178,-0.10598 -0.26924,-0.11214 -0.37853,-0.0139 -0.0784,0.0704 -0.15279,0.14505 -0.22419,0.22244 v -1e-5 c -0.10467,0.11342 -0.0975,0.29019 0.0158,0.39483 0.11342,0.10465 0.29019,0.0975 0.39486,-0.0159 0.004,-0.004 0.008,-0.009 0.0113,-0.0131 z m 0.17286,-0.18926 c 0.0461,-0.0443 0.0941,-0.0875 0.14662,-0.12414 v 0 c 0.12111,-0.0845 0.15081,-0.25115 0.0663,-0.37225 -0.0811,-0.11633 -0.23901,-0.14905 -0.35973,-0.0745 -0.0802,0.0495 -0.15395,0.109 -0.22394,0.17192 h -4e-5 c -0.11186,0.10056 -0.12103,0.27278 -0.0205,0.38466 0.10058,0.11187 0.27277,0.12104 0.38467,0.0205 0.002,-0.002 0.004,-0.004 0.007,-0.006 z m 0.14662,-0.12415 c 0.023,-0.016 0.0481,-0.0323 0.0753,-0.0401 v 0 c 0.14015,-0.0407 0.2208,-0.18725 0.18012,-0.3274 -0.0404,-0.13918 -0.18535,-0.21986 -0.3249,-0.18084 -0.0793,0.0222 -0.15399,0.0585 -0.22388,0.1016 v 0 c -0.12566,0.0776 -0.16464,0.2423 -0.0871,0.36795 0.0775,0.12565 0.24228,0.16464 0.36794,0.0871 0.004,-0.003 0.008,-0.005 0.0125,-0.008 z m 0.0753,-0.0401 c 0.0214,-0.006 0.0438,-0.0121 0.0661,-0.0131 v 0 c 0.14545,-0.006 0.25848,-0.12882 0.25244,-0.27426 -0.006,-0.14439 -0.12714,-0.25704 -0.27156,-0.25254 -0.065,0.002 -0.12937,0.0142 -0.19184,0.0316 v -1e-5 c -0.14055,0.0393 -0.22264,0.1851 -0.18334,0.32564 0.0393,0.14054 0.1851,0.22261 0.32565,0.18331 6.8e-4,-2.3e-4 0.002,-4.6e-4 0.002,-7e-4 z m 0.0214,-0.0152 -4e-5,-1e-5 c 0.12538,0.0755 0.28822,0.0351 0.36368,-0.0903 0.0704,-0.11697 0.0405,-0.26831 -0.0693,-0.34959 -0.0775,-0.0574 -0.17226,-0.0878 -0.26878,-0.0848 v 0 c -0.14549,0.005 -0.25975,0.1262 -0.2552,0.2717 0.004,0.12933 0.10139,0.2366 0.22969,0.25316 z m -0.033,-0.0235 c 0.0126,0.0105 0.0226,0.0244 0.0316,0.0381 v 0 c 0.0807,0.12316 0.24602,0.15756 0.36918,0.0768 0.12319,-0.0807 0.15755,-0.24603 0.0768,-0.36919 0,0 0,0 0,0 -0.0406,-0.0619 -0.0906,-0.11794 -0.15017,-0.1621 v 0 c -0.11758,-0.0871 -0.28353,-0.0624 -0.37067,0.0551 -0.0836,0.11285 -0.0646,0.27134 0.0432,0.36127 z m 0.0316,0.0381 c 0.0331,0.0504 0.0536,0.11201 0.0755,0.16764 v 0 c 0.0542,0.13754 0.20969,0.20508 0.34724,0.15086 0.13751,-0.0542 0.20507,-0.20968 0.15084,-0.34722 -3.5e-4,-0.001 -6.9e-4,-0.002 -0.001,-0.003 -0.0363,-0.0888 -0.0736,-0.18003 -0.12636,-0.2606 v 0 c -0.0808,-0.12316 -0.24603,-0.15755 -0.36922,-0.0768 -0.12315,0.0807 -0.15755,0.24603 -0.0768,0.36919 0,0 0,0 0,0 z m 0.0755,0.16765 c 0.043,0.10894 0.0808,0.21988 0.11567,0.33164 v 0 c 0.0448,0.14361 0.19759,0.22368 0.34121,0.17885 0.14362,-0.0448 0.2237,-0.1976 0.17886,-0.34121 -0.001,-0.003 -0.002,-0.006 -0.003,-0.009 -0.0426,-0.12075 -0.0873,-0.24077 -0.13578,-0.3593 v 0 c -0.0559,-0.13686 -0.2122,-0.20248 -0.34904,-0.14656 -0.13568,0.0554 -0.20158,0.20965 -0.14781,0.34599 z m 0.11567,0.33164 c 0.0416,0.13305 0.0752,0.2685 0.10421,0.40478 v 0 c 0.0326,0.15295 0.18302,0.2505 0.33599,0.21789 0.15293,-0.0326 0.25051,-0.18303 0.21787,-0.33598 -0.001,-0.005 -0.002,-0.0108 -0.004,-0.0161 -0.041,-0.14887 -0.0859,-0.29674 -0.1372,-0.44239 v 0 c -0.0501,-0.14188 -0.20563,-0.21635 -0.34752,-0.16632 -0.13822,0.0487 -0.21311,0.19815 -0.16944,0.33809 z m 0.10421,0.40478 c 0.038,0.17821 0.0717,0.35737 0.10344,0.53679 v 0 c 0.0284,0.16028 0.18133,0.26719 0.34159,0.2388 0.16031,-0.0284 0.26723,-0.18134 0.23883,-0.34162 -3.5e-4,-0.003 -0.001,-0.006 -0.001,-0.008 -0.0388,-0.18778 -0.0815,-0.37495 -0.13231,-0.55987 v 0 c -0.0415,-0.15078 -0.19735,-0.23938 -0.34813,-0.1979 -0.1446,0.0398 -0.23308,0.18539 -0.20182,0.33206 z m 0.10344,0.53679 c 0.0278,0.15706 0.0556,0.31416 0.0811,0.47162 v 0 c 0.0266,0.16419 0.18129,0.27572 0.34551,0.2491 0.16418,-0.0266 0.27569,-0.18131 0.24909,-0.3455 -3.5e-4,-0.002 -6.9e-4,-0.005 -0.001,-0.007 -0.0298,-0.16023 -0.0627,-0.31989 -0.0956,-0.47947 v 0 c -0.033,-0.1594 -0.18892,-0.2619 -0.34834,-0.22894 -0.15617,0.0323 -0.25833,0.18299 -0.2305,0.34004 z m 0.0811,0.47161 c 0.029,0.17903 0.0543,0.35869 0.0799,0.53824 v 0 c 0.0238,0.16726 0.17871,0.28353 0.34596,0.25971 0.16726,-0.0238 0.28353,-0.17872 0.25972,-0.34597 -2.1e-4,-0.001 -3.5e-4,-0.003 -7.2e-4,-0.004 -0.0289,-0.18382 -0.0575,-0.36786 -0.0915,-0.55081 v 0 c -0.0304,-0.16354 -0.1876,-0.27147 -0.35115,-0.24107 -0.16086,0.0299 -0.26842,0.18278 -0.24225,0.3443 z m 0.0799,0.53825 c 0.0275,0.1933 0.0551,0.38661 0.0851,0.57955 v 0 c 0.0261,0.16845 0.18394,0.2838 0.35239,0.25763 0.16845,-0.0262 0.28381,-0.18394 0.25763,-0.3524 -0.0298,-0.19185 -0.06,-0.38367 -0.0901,-0.57546 v 0 c -0.0263,-0.16689 -0.18285,-0.28089 -0.34971,-0.25464 -0.16521,0.026 -0.27891,0.17978 -0.2553,0.34532 z m 0.0851,0.57955 c 0.0212,0.13627 0.0436,0.27231 0.0671,0.40819 h 4e-5 c 0.029,0.16788 0.18866,0.28042 0.35655,0.25138 0.16764,-0.029 0.28014,-0.18828 0.25146,-0.35599 -0.0227,-0.13263 -0.0445,-0.26541 -0.0651,-0.39836 v 0 c -0.0262,-0.16845 -0.18397,-0.28379 -0.35242,-0.25762 -0.16845,0.0262 -0.28378,0.18395 -0.2576,0.3524 z m 0.0671,0.40819 c 0.0379,0.21877 0.0838,0.4362 0.12937,0.65347 v 0 c 0.0348,0.16615 0.1978,0.27258 0.36396,0.23772 0.16566,-0.0348 0.27206,-0.19693 0.23798,-0.36276 -0.0433,-0.21051 -0.087,-0.42118 -0.12326,-0.63305 v 0 c -0.0288,-0.16793 -0.18817,-0.28077 -0.35609,-0.25203 -0.16792,0.0287 -0.28078,0.18817 -0.25203,0.3561 4e-5,1.8e-4 7e-5,3.5e-4 7e-5,5.6e-4 z m 0.12937,0.65347 c 0.0459,0.21879 0.0916,0.4382 0.14873,0.65439 v -1e-5 c 0.0424,0.16044 0.20687,0.25612 0.36731,0.2137 0.15395,-0.0407 0.24941,-0.19444 0.21763,-0.35048 -0.0436,-0.21426 -0.0877,-0.42845 -0.13176,-0.64264 h 3e-5 c -0.0342,-0.16629 -0.19674,-0.27337 -0.36304,-0.23917 -0.16627,0.0342 -0.27337,0.19672 -0.23915,0.36301 7e-5,4e-4 1.4e-4,8.2e-4 2.5e-4,0.001 z m 0.14873,0.65438 c 0.0367,0.13874 0.075,0.27705 0.11493,0.41491 v 0 c 0.0452,0.15639 0.20871,0.24649 0.36509,0.20124 0.15639,-0.0452 0.24649,-0.2087 0.20123,-0.36509 -7e-5,-2.6e-4 -1.4e-4,-5.3e-4 -2.1e-4,-8.2e-4 -0.0373,-0.12761 -0.0696,-0.25675 -0.0961,-0.38703 v 0 c -0.0331,-0.16262 -0.19181,-0.26759 -0.3544,-0.23447 -0.16263,0.0331 -0.26758,0.1918 -0.23449,0.35441 0.001,0.006 0.002,0.0113 0.004,0.0168 z m 0.11493,0.41491 c 0.0417,0.14435 0.0865,0.28787 0.13371,0.43052 v 0 c 0.0516,0.15568 0.21957,0.24008 0.37525,0.18852 0.15568,-0.0516 0.24006,-0.21956 0.18852,-0.37524 -3.5e-4,-0.002 -0.001,-0.003 -0.002,-0.005 -0.0467,-0.13349 -0.0901,-0.26811 -0.12979,-0.40384 v 0 c -0.0457,-0.15626 -0.20941,-0.24589 -0.36569,-0.2002 -0.15593,0.0456 -0.24557,0.20878 -0.20041,0.36486 z m 0.13371,0.43052 c 0.0463,0.13976 0.0944,0.27893 0.14492,0.41723 v 0 c 0.0571,0.15631 0.23001,0.23677 0.38632,0.17973 0.15632,-0.0571 0.23679,-0.23002 0.17974,-0.38632 -6.9e-4,-0.002 -0.002,-0.005 -0.002,-0.007 -0.0513,-0.13076 -0.0999,-0.26261 -0.14623,-0.39521 v 0 c -0.0541,-0.15481 -0.22349,-0.23644 -0.37828,-0.18232 -0.15304,0.0535 -0.23488,0.21979 -0.18391,0.37366 z m 0.14492,0.41723 c 0.0497,0.13618 0.10368,0.27082 0.16178,0.40364 v 0 c 0.0675,0.15423 0.24723,0.22455 0.40146,0.15707 0.1542,-0.0675 0.22455,-0.2472 0.15706,-0.40143 -3.5e-4,-9.2e-4 -7.2e-4,-0.002 -0.001,-0.003 -0.0548,-0.12201 -0.10672,-0.24534 -0.15558,-0.36986 v 0 c -0.0608,-0.1549 -0.23562,-0.23119 -0.39052,-0.1704 -0.15226,0.0598 -0.22903,0.2301 -0.17297,0.38376 z m 0.16178,0.40364 c 0.0827,0.18906 0.17494,0.37405 0.26741,0.55846 v 0 c 0.0757,0.15103 0.25961,0.21207 0.41063,0.13633 0.15102,-0.0757 0.21205,-0.25958 0.13631,-0.41061 0,-4e-5 -3e-5,-9e-5 -7e-5,-1.3e-4 -0.0882,-0.17572 -0.17639,-0.3518 -0.257,-0.53118 v 0 c -0.069,-0.15355 -0.24941,-0.22208 -0.40297,-0.15308 -0.15247,0.0685 -0.2213,0.24706 -0.15431,0.40021 z m 0.26741,0.55846 c 0.0873,0.17412 0.17434,0.34879 0.26917,0.51899 v 0 c 0.0823,0.14763 0.26864,0.20063 0.41627,0.11836 0.14764,-0.0823 0.20063,-0.26863 0.1184,-0.41626 0,-1e-5 0,-1e-5 -4e-5,-1e-5 -0.0905,-0.16248 -0.17346,-0.32931 -0.25689,-0.49548 h -4e-5 c -0.0758,-0.151 -0.25964,-0.21196 -0.41067,-0.13615 -0.15095,0.0758 -0.21191,0.25957 -0.1362,0.41055 z m 0.2692,0.519 c 0.0613,0.11009 0.12711,0.21771 0.19696,0.32261 v 0 c 0.0928,0.13932 0.28095,0.17705 0.42026,0.0843 0.1361,-0.0906 0.17579,-0.27291 0.0896,-0.41191 -0.0596,-0.0963 -0.11712,-0.19394 -0.17226,-0.29288 v 0 c -0.0823,-0.14764 -0.2686,-0.20063 -0.41624,-0.11836 -0.14764,0.0823 -0.20063,0.26864 -0.11836,0.41627 0,10e-6 0,10e-6 0,10e-6 z m 0.19696,0.3226 c 0.0684,0.10272 0.14259,0.20185 0.22472,0.29403 v 0 c 0.10985,0.1233 0.29883,0.13419 0.42213,0.0243 0.12196,-0.10864 0.13416,-0.29501 0.0274,-0.41863 -0.0612,-0.0709 -0.11507,-0.14786 -0.16436,-0.22738 v 0 c -0.0882,-0.14229 -0.27499,-0.18618 -0.41726,-0.098 -0.14231,0.0882 -0.1862,0.27499 -0.098,0.41729 0.002,0.003 0.004,0.006 0.005,0.008 z m 0.22472,0.29403 c 0.0759,0.0852 0.15885,0.16426 0.2493,0.23393 v 0 c 0.13022,0.10028 0.31705,0.076 0.41731,-0.0541 0.10001,-0.12984 0.0762,-0.31611 -0.0532,-0.41661 -0.0599,-0.0465 -0.11426,-0.10006 -0.16383,-0.15746 v 0 c -0.10788,-0.12499 -0.29668,-0.13884 -0.42171,-0.0309 -0.12499,0.10791 -0.13882,0.29672 -0.0309,0.42171 0.001,0.001 0.002,0.002 0.003,0.003 z m 0.2493,0.23393 c 0.088,0.0678 0.18359,0.12585 0.28572,0.16968 v 0 c 0.15067,0.0647 0.32519,-0.005 0.38985,-0.15574 0.0644,-0.1499 -0.004,-0.32363 -0.15377,-0.38902 -0.0565,-0.0247 -0.10908,-0.0579 -0.15773,-0.0957 v 0 c -0.12982,-0.10078 -0.31672,-0.0773 -0.41751,0.0525 -0.10079,0.12981 -0.0773,0.31673 0.0526,0.41751 2.9e-4,2.4e-4 7.1e-4,4.5e-4 7.1e-4,7.2e-4 z m 0.28572,0.16967 c 0.10082,0.0433 0.20779,0.072 0.31683,0.0846 v 0 c 0.16284,0.0187 0.31002,-0.0981 0.32879,-0.2609 0.0187,-0.16283 -0.0981,-0.31003 -0.26092,-0.32877 -6.9e-4,-7e-5 -0.001,-1.4e-4 -0.002,-2e-4 -0.0507,-0.006 -0.10019,-0.019 -0.14686,-0.0395 v 0 c -0.15021,-0.0657 -0.32526,0.003 -0.39099,0.15296 -0.0657,0.1502 0.003,0.32523 0.15297,0.39096 6.8e-4,2.9e-4 0.001,5.6e-4 0.002,8.5e-4 z m 0.31683,0.0846 c 0.0936,0.0108 0.18792,0.0152 0.28215,0.013 v 0 c 0.16408,-0.004 0.29404,-0.13977 0.2903,-0.30384 -0.004,-0.16407 -0.13977,-0.29404 -0.30385,-0.2903 0,0 0,0 0,0 -0.0676,0.002 -0.13525,-10e-4 -0.20249,-0.009 v 0 c -0.16295,-0.0178 -0.30942,0.0999 -0.3272,0.26285 -0.0177,0.16225 0.099,0.30835 0.26109,0.32702 z m 0.28215,0.013 c 0.12238,-0.003 0.24292,-0.0313 0.35634,-0.0765 v 0 c 0.15297,-0.0609 0.22754,-0.23434 0.16662,-0.3873 -0.061,-0.15296 -0.23435,-0.22756 -0.38732,-0.16661 -0.001,5e-4 -0.002,0.001 -0.004,0.002 -0.046,0.0191 -0.0953,0.0336 -0.14538,0.0347 v 0 c -0.16407,0.004 -0.29404,0.13978 -0.2903,0.30385 0.004,0.16406 0.13977,0.29403 0.30385,0.29029 z m 0.35634,-0.0765 c 0.10753,-0.0428 0.21114,-0.095 0.31087,-0.15369 v -1e-5 c 0.14326,-0.0843 0.19113,-0.26875 0.10686,-0.41205 -0.0843,-0.14328 -0.26879,-0.19112 -0.41208,-0.10685 -0.002,0.001 -0.004,0.002 -0.006,0.004 -0.0716,0.0444 -0.14619,0.0843 -0.22409,0.11656 v 0 c -0.15211,0.063 -0.22429,0.23746 -0.16125,0.38957 0.0624,0.15062 0.23428,0.22314 0.38576,0.16279 z m 0.31087,-0.15369 c 0.10079,-0.0593 0.19921,-0.1227 0.29527,-0.18942 v 0 c 0.13939,-0.0968 0.17389,-0.28833 0.077,-0.42772 -0.0968,-0.13939 -0.28832,-0.17389 -0.42771,-0.0771 -0.004,0.003 -0.009,0.006 -0.013,0.01 -0.078,0.0605 -0.15897,0.11735 -0.24289,0.16942 v 0 c -0.14125,0.0876 -0.18472,0.2732 -0.0971,0.41445 0.0862,0.13891 0.26748,0.18365 0.40838,0.10077 z m 0.29524,-0.18942 c 0.10781,-0.0749 0.21121,-0.15599 0.31129,-0.24087 v 0 c 0.13183,-0.11183 0.14806,-0.30937 0.0362,-0.44122 -0.11183,-0.13184 -0.30935,-0.14807 -0.44122,-0.0362 -0.001,8.7e-4 -0.002,0.002 -0.003,0.003 -0.087,0.0758 -0.17562,0.14968 -0.26677,0.22037 v 0 c -0.13409,0.10401 -0.15851,0.29705 -0.0545,0.43117 0.10016,0.12916 0.28392,0.15732 0.41815,0.0641 v 0 z m 0.31129,-0.24086 c 0.10601,-0.0899 0.20895,-0.18352 0.30875,-0.28028 v 0 c 0.12545,-0.12157 0.12855,-0.3218 0.007,-0.44722 -0.12157,-0.12542 -0.32181,-0.12854 -0.44722,-0.007 -0.001,0.001 -0.003,0.003 -0.004,0.004 -0.0877,0.0883 -0.17851,0.17367 -0.27235,0.25547 v 0 c -0.13035,0.11358 -0.14393,0.31132 -0.0304,0.44166 0.1125,0.12911 0.3079,0.14385 0.4385,0.0331 z m 0.30875,-0.28027 c 0.10227,-0.0991 0.20119,-0.20163 0.29679,-0.30715 v 0 c 0.11825,-0.13047 0.10831,-0.33208 -0.0222,-0.45031 -0.13046,-0.11823 -0.33207,-0.1083 -0.45032,0.0222 -3.5e-4,4.5e-4 -7.2e-4,9e-4 -0.001,10e-4 -0.0868,0.0969 -0.17597,0.19166 -0.26762,0.28396 v 0 c -0.12308,0.12395 -0.12238,0.3242 0.002,0.44727 0.12228,0.12141 0.31923,0.1226 0.44295,0.003 z m 0.29679,-0.30715 c 0.19929,-0.21993 0.40041,-0.43823 0.6011,-0.65689 v 0 c 0.11942,-0.13013 0.11074,-0.33243 -0.0194,-0.45186 -0.13014,-0.11942 -0.33246,-0.11074 -0.45187,0.0194 -7e-5,9e-5 -1.8e-4,1.9e-4 -2.5e-4,2.9e-4 -0.20165,0.22025 -0.40407,0.43988 -0.60329,0.66233 v 0 c -0.11747,0.13116 -0.10636,0.33271 0.0248,0.45017 0.13064,0.11697 0.33119,0.10651 0.44891,-0.0234 z m 0.6011,-0.65689 c 0.20595,-0.22443 0.41063,-0.45059 0.62304,-0.66898 v 1e-5 c 0.12238,-0.12583 0.11959,-0.32703 -0.006,-0.44941 -0.12403,-0.12063 -0.32177,-0.1199 -0.44488,0.002 -0.22271,0.21986 -0.43223,0.45381 -0.64347,0.68454 v 0 c -0.11928,0.13027 -0.11035,0.33256 0.0199,0.45184 0.13018,0.11917 0.33225,0.11037 0.45159,-0.0197 z m 0.62304,-0.66898 c 0.0924,-0.0949 0.18775,-0.18724 0.28861,-0.27318 v 0 c 0.13261,-0.11303 0.14848,-0.31217 0.0354,-0.44478 -0.11303,-0.13262 -0.31217,-0.1485 -0.44478,-0.0355 -7e-5,7e-5 -1.7e-4,1.4e-4 -2.5e-4,2.1e-4 -0.11401,0.0974 -0.22341,0.20014 -0.33012,0.30547 v 0 c -0.12489,0.12331 -0.12619,0.32453 -0.003,0.44944 0.1233,0.12491 0.32452,0.1262 0.44944,0.003 0.001,-0.002 0.003,-0.003 0.005,-0.005 v 0 z m 0.28857,-0.27318 c 0.0788,-0.0672 0.16165,-0.12992 0.24949,-0.18483 v 0 c 0.14937,-0.0934 0.19477,-0.29012 0.10142,-0.43948 -0.0934,-0.14936 -0.29012,-0.19476 -0.43949,-0.1014 -0.004,0.002 -0.007,0.005 -0.0106,0.007 -0.10788,0.0736 -0.21103,0.15395 -0.31034,0.23874 v 0 c -0.1325,0.11316 -0.14816,0.31231 -0.035,0.44481 0.1131,0.13241 0.31207,0.14818 0.44457,0.0352 z m 0.24949,-0.18482 c 0.0777,-0.0485 0.1585,-0.0922 0.24246,-0.12881 v 0 c 0.16334,-0.0713 0.23799,-0.26149 0.16669,-0.42483 -0.0713,-0.16335 -0.26148,-0.23798 -0.42485,-0.16669 -7.2e-4,2.5e-4 -0.001,5.1e-4 -0.002,7.4e-4 -0.11589,0.0514 -0.22656,0.11422 -0.3313,0.1856 v 0 c -0.14552,0.0992 -0.18309,0.29762 -0.0839,0.44316 0.0964,0.14147 0.28738,0.18156 0.43258,0.0908 v 1e-5 z m 0.24246,-0.12881 c 0.0754,-0.0329 0.15293,-0.0611 0.23245,-0.0822 v 0 c 0.17251,-0.0458 0.27524,-0.22274 0.22945,-0.39524 -0.0458,-0.1725 -0.22275,-0.27521 -0.39526,-0.22944 -0.11176,0.0297 -0.2208,0.0692 -0.32653,0.1161 v -1e-5 c -0.16291,0.0722 -0.23643,0.26288 -0.16418,0.42581 0.0719,0.16226 0.26141,0.23596 0.42407,0.16496 z m 0.23245,-0.0822 c 0.0731,-0.0194 0.14725,-0.0349 0.22221,-0.0448 v 0 c 0.17678,-0.0233 0.3012,-0.18545 0.27792,-0.36223 -0.0232,-0.17618 -0.1844,-0.3005 -0.36068,-0.27814 -0.0507,0.006 -0.10121,0.0148 -0.15134,0.0247 -0.0636,0.0126 -0.13226,0.0242 -0.19241,0.0486 v 0 c -0.16541,0.067 -0.24514,0.25547 -0.17808,0.42088 0.0611,0.15088 0.225,0.23271 0.38238,0.19094 z m 0.22221,-0.0448 c 0.0719,-0.009 0.14425,-0.0154 0.21675,-0.0173 v 0 c 0.17826,-0.005 0.31891,-0.15319 0.31411,-0.33147 -0.005,-0.17827 -0.15317,-0.3189 -0.33147,-0.31411 -8e-4,1e-5 -0.001,4e-5 -0.002,6e-5 -0.0937,0.003 -0.18729,0.0107 -0.28028,0.0225 v 0 c -0.17689,0.0224 -0.30212,0.18402 -0.27968,0.3609 0.0224,0.17689 0.184,0.3021 0.36089,0.27967 6.9e-4,-7e-5 0.001,-1.3e-4 0.001,-2e-4 v 0 z m 0.21675,-0.0173 c 0.0698,-0.002 0.13966,-6.6e-4 0.20934,0.004 v 0 c 0.17808,0.0126 0.33263,-0.12163 0.34519,-0.29973 0.0126,-0.17809 -0.12164,-0.33264 -0.29972,-0.34521 -0.0912,-0.006 -0.1827,-0.008 -0.27404,-0.005 v 0 c -0.17826,0.006 -0.31803,0.15505 -0.31217,0.33329 0.006,0.1775 0.15388,0.317 0.3314,0.31223 z m 0.2093,0.004 c 0.0583,0.004 0.11603,0.0146 0.1723,0.0302 v 1e-5 c 0.17205,0.0476 0.3501,-0.0534 0.39765,-0.22541 0.0476,-0.17198 -0.0532,-0.34995 -0.22518,-0.39761 -0.0978,-0.0271 -0.19805,-0.045 -0.29926,-0.0521 v 0 c -0.17808,-0.0126 -0.33263,0.12162 -0.34523,0.29972 -0.0126,0.17809 0.12164,0.33265 0.29972,0.34522 z m 0.1723,0.0302 c 0.11028,0.0305 0.21809,0.0709 0.32526,0.1106 v 0 c 0.16736,0.062 0.35331,-0.0234 0.41533,-0.19074 0.062,-0.16736 -0.0234,-0.35332 -0.19072,-0.41534 -0.12439,-0.0461 -0.24952,-0.0921 -0.37743,-0.12755 v 0 c -0.17202,-0.0477 -0.35013,0.0531 -0.39779,0.22516 -0.0477,0.17203 0.0531,0.35014 0.22514,0.39781 7e-5,2e-5 1.4e-4,4e-5 2.1e-4,6e-5 z m 0.32526,0.11061 c 0.14662,0.0543 0.29048,0.11614 0.43102,0.18466 v 0 c 0.16087,0.0784 0.35483,0.0116 0.43322,-0.14924 0.0784,-0.16085 0.0116,-0.3548 -0.14923,-0.43322 -8e-4,-3.1e-4 -0.001,-6e-4 -0.002,-9.2e-4 -0.15956,-0.0765 -0.32258,-0.14589 -0.48853,-0.20738 v 0 c -0.16736,-0.062 -0.35331,0.0234 -0.41533,0.19075 -0.062,0.16737 0.0234,0.35332 0.19075,0.41534 0,0 0,0 0,0 v 0 z m 0.43102,0.18466 c 0.10044,0.049 0.20331,0.0989 0.2951,0.16317 v -1e-5 c 0.14919,0.10456 0.3549,0.0684 0.45946,-0.0808 0.10456,-0.1492 0.0684,-0.35492 -0.0809,-0.45948 -0.007,-0.005 -0.0135,-0.009 -0.0206,-0.0133 -0.11973,-0.0713 -0.24543,-0.13268 -0.37101,-0.19289 v 0 c -0.16133,-0.0774 -0.35486,-0.009 -0.43223,0.15204 -0.077,0.16061 -0.01,0.35327 0.15014,0.43133 z m 0.2951,0.16317 c 0.0749,0.0525 0.14937,0.10563 0.22349,0.15933 v 0 c 0.15099,0.1094 0.36205,0.0757 0.47145,-0.0753 0.1094,-0.15098 0.0757,-0.36206 -0.0753,-0.47146 -0.004,-0.002 -0.007,-0.005 -0.0102,-0.007 -0.0824,-0.0552 -0.16623,-0.10841 -0.2515,-0.15914 v 0 c -0.15656,-0.0932 -0.35902,-0.0418 -0.45219,0.11478 -0.0883,0.14838 -0.0472,0.33977 0.0942,0.43886 z m 0.22349,0.15933 c 0.0866,0.0628 0.17459,0.12377 0.26335,0.18353 v 0 c 0.15642,0.10533 0.36861,0.0639 0.47395,-0.0925 0.10534,-0.15642 0.0639,-0.36862 -0.0925,-0.47396 -0.001,-9.5e-4 -0.003,-0.002 -0.004,-0.003 -0.0852,-0.0555 -0.17011,-0.1115 -0.25456,-0.1681 v 0 c -0.15491,-0.10378 -0.36463,-0.0623 -0.46839,0.0926 -0.1011,0.15089 -0.0647,0.35471 0.0824,0.46129 z m 0.26331,0.18352 c 0.0951,0.0641 0.19114,0.12683 0.28797,0.18832 v 0 c 0.16105,0.10231 0.37451,0.0547 0.47682,-0.10636 0.1023,-0.16105 0.0547,-0.37454 -0.10636,-0.47685 -0.003,-0.002 -0.006,-0.004 -0.01,-0.006 -0.0917,-0.0542 -0.18228,-0.11028 -0.27153,-0.16847 v 0 c -0.15794,-0.10301 -0.36953,-0.0585 -0.47254,0.0995 -0.10192,0.15631 -0.0595,0.36551 0.0953,0.46975 z m 0.28794,0.18831 c 0.0984,0.0625 0.19805,0.12294 0.29901,0.18116 v 0 c 0.1675,0.0966 0.38157,0.0391 0.47812,-0.1284 0.0966,-0.16749 0.0391,-0.38156 -0.12837,-0.47814 -0.002,-0.001 -0.005,-0.003 -0.007,-0.004 -0.0946,-0.0518 -0.18823,-0.1051 -0.28109,-0.15989 v 0 c -0.16428,-0.097 -0.37613,-0.0424 -0.47311,0.12189 -0.0947,0.16052 -0.0451,0.36725 0.11226,0.4672 z m 0.29898,0.18115 c 0.11091,0.064 0.22532,0.12177 0.34184,0.17481 v 0 c 0.17688,0.0805 0.38559,0.002 0.46609,-0.1745 0.0805,-0.1769 0.002,-0.38558 -0.17448,-0.4661 0,0 0,0 0,0 -0.0985,-0.0448 -0.19558,-0.0926 -0.29048,-0.14456 v 0 c -0.16962,-0.0928 -0.38234,-0.0306 -0.47516,0.13902 -0.0914,0.16693 -0.0327,0.37626 0.13219,0.47133 z m 0.34184,0.1748 c 0.12753,0.0581 0.25919,0.10706 0.39359,0.14671 v 0 c 0.18662,0.0551 0.38256,-0.0516 0.43762,-0.23821 0.0551,-0.18663 -0.0516,-0.38257 -0.23823,-0.43763 -2.7e-4,-1.5e-4 -0.001,-2.9e-4 -0.001,-4.2e-4 -0.10248,-0.0298 -0.20281,-0.0668 -0.29993,-0.11103 v 1e-5 c -0.17688,-0.0805 -0.38555,-0.002 -0.46609,0.17447 -0.0805,0.1769 -0.002,0.38558 0.17448,0.46611 0,0 0,0 0,0 z m 0.39359,0.14671 c 0.14559,0.043 0.29517,0.0716 0.44584,0.0893 v -1e-5 c 0.1935,0.0228 0.3688,-0.11559 0.39159,-0.30906 0.0228,-0.19347 -0.11561,-0.36877 -0.30907,-0.39156 -0.11155,-0.0131 -0.2225,-0.0336 -0.33041,-0.065 v 0 c -0.18687,-0.0543 -0.38234,0.0532 -0.4366,0.2401 -0.0541,0.1863 0.0526,0.38127 0.23865,0.43617 z m 0.44584,0.0893 c 0.16249,0.0191 0.32622,0.0271 0.4898,0.0273 v 0 c 0.19248,2.6e-4 0.34876,-0.15558 0.349,-0.34808 2.5e-4,-0.18779 -0.1483,-0.34203 -0.33598,-0.3488 -0.14041,-0.005 -0.28074,-0.0146 -0.4203,-0.031 v -1e-5 c -0.19346,-0.0228 -0.3688,0.11558 -0.39158,0.30905 -0.0228,0.19347 0.1156,0.36878 0.30906,0.39157 0,0 0,0 0,0 z m 0.48977,0.0273 c 0.25029,3.5e-4 0.50059,-0.001 0.75085,-0.003 v 0 c 0.18792,-0.001 0.33923,-0.15475 0.33789,-0.34269 -10e-4,-0.18582 -0.15141,-0.33623 -0.33722,-0.3379 -0.24617,-0.002 -0.49244,-0.004 -0.73847,-0.013 v 0 c -0.19237,-0.007 -0.35394,0.14337 -0.36089,0.33575 -0.007,0.19238 0.14337,0.35396 0.33573,0.36091 0.004,1.4e-4 0.008,2.2e-4 0.0121,2.2e-4 z m 0.75085,-0.003 c 0.27072,-0.002 0.54236,-0.005 0.81234,-0.0276 v 0 c 0.17833,-0.0146 0.31108,-0.17097 0.29651,-0.34931 -0.0137,-0.16744 -0.15311,-0.29664 -0.3211,-0.29759 -0.26236,-10e-4 -0.52472,-0.004 -0.78708,-0.006 v 0 c -0.18796,-0.002 -0.34167,0.14929 -0.34336,0.33723 -0.002,0.18794 0.14929,0.34166 0.33722,0.34336 0.002,10e-6 0.004,10e-6 0.005,0 z m 0.8123,-0.0276 c 0.20193,-0.0165 0.40333,-0.0395 0.60403,-0.0673 v 0 c 0.16535,-0.0229 0.28081,-0.17554 0.25788,-0.34088 -0.0219,-0.15823 -0.16319,-0.27208 -0.32247,-0.25988 -0.18761,0.0144 -0.37578,0.0222 -0.56399,0.0211 v 0 c -0.17893,-0.001 -0.3248,0.14322 -0.32579,0.32215 -0.001,0.17893 0.14323,0.3248 0.32216,0.32581 0.009,6e-5 0.0188,-2.9e-4 0.0282,-0.001 z m 0.60399,-0.0673 c 0.21844,-0.0303 0.43498,-0.0737 0.64845,-0.12906 v 0 c 0.14724,-0.0382 0.23569,-0.1885 0.19752,-0.33578 -0.0353,-0.13612 -0.1674,-0.22382 -0.30653,-0.20346 -0.20049,0.0293 -0.40196,0.0521 -0.60399,0.0675 v 0 c -0.16644,0.0127 -0.29105,0.15802 -0.27828,0.32446 0.0127,0.16644 0.15801,0.29103 0.32445,0.27828 0.006,-4.5e-4 0.0123,-0.001 0.0184,-0.002 z m 0.64845,-0.12906 c 0.19663,-0.051 0.38974,-0.11734 0.58247,-0.18116 0.36177,-0.11978 0.72199,-0.24418 1.08193,-0.36933 v 0 c 0.0665,-0.0231 0.1016,-0.0957 0.0785,-0.16211 -0.0201,-0.0579 -0.0787,-0.0933 -0.13934,-0.0841 -0.57076,0.0863 -1.14138,0.17392 -1.71256,0.25745 v 1e-5 c -0.15053,0.022 -0.25471,0.1619 -0.2327,0.31244 0.022,0.15055 0.16189,0.25473 0.31242,0.23272 0.01,-0.001 0.0197,-0.003 0.0293,-0.006 z" />
    <path
       inkscape:connector-curvature="0"
       id="path1464"
       style="fill:#666666;fill-opacity:1;fill-rule:nonzero;stroke:none;stroke-width:0.35277775"
       d="m 166.08398,251.4948 c 1.7e-4,-0.0199 3.5e-4,-0.0399 7e-4,-0.0598 h 2.5e-4 c 4e-5,-0.002 7e-5,-0.003 7e-5,-0.005 0,-0.008 -7e-5,-0.0168 -0.001,-0.0251 v 0 c -0.009,-0.0738 -0.0767,-0.12618 -0.15053,-0.11688 -0.0496,0.006 -0.0916,0.0394 -0.10925,0.0861 v 0 c -0.004,0.0114 -0.007,0.0234 -0.008,0.0355 -0.002,0.0271 -10e-4,0.0549 -10e-4,0.0821 v 0 c -7.1e-4,0.0745 0.0589,0.13549 0.13331,0.13633 0.0745,8.1e-4 0.1355,-0.0589 0.13635,-0.13332 0,-5e-5 0,-1e-4 0,-1.5e-4 z m -7.1e-4,0.22783 c -1.4e-4,-0.0759 -4e-5,-0.15189 7.1e-4,-0.22783 v 0 c 7e-4,-0.0745 -0.059,-0.13542 -0.13349,-0.13617 -0.0744,-7.4e-4 -0.13533,0.0589 -0.13618,0.1333 -7e-4,0.0769 -0.001,0.1538 -0.001,0.2307 v 0 c -1e-4,0.0746 0.0603,0.1352 0.13491,0.13533 0.0746,1.2e-4 0.13518,-0.0603 0.13532,-0.13488 0,-1.5e-4 0,-3e-4 0,-4.6e-4 z m -0.26839,0.20936 v 0 c 0.002,0.0726 0.0625,0.12979 0.13511,0.12777 0.0671,-0.002 0.1221,-0.0541 0.12739,-0.12107 0.006,-0.0718 0.006,-0.14407 0.006,-0.21605 v 0 c -1.4e-4,-0.0746 -0.0607,-0.13501 -0.13533,-0.13489 -0.0744,1.2e-4 -0.13476,0.0605 -0.1349,0.13489 -1e-4,0.0698 -1e-4,0.13959 0.002,0.20935 z m 0.24906,0.1536 c 0.005,-0.0489 0.01,-0.0979 0.0134,-0.1469 v 0 c 0.006,-0.0724 -0.0483,-0.13571 -0.12069,-0.14143 -0.0724,-0.006 -0.13571,0.0483 -0.14143,0.1207 -3.5e-4,0.005 -3.5e-4,0.009 -3.5e-4,0.014 10e-4,0.0431 -1.4e-4,0.0862 -0.004,0.12913 v 0 c -0.006,0.0699 0.0454,0.13167 0.11528,0.13792 0.0692,0.006 0.13057,-0.0443 0.13776,-0.11345 v 0 z m -0.0309,0.21214 c 0.0119,-0.0704 0.0235,-0.14108 0.0309,-0.21213 v 0 c 0.007,-0.0698 -0.0435,-0.13233 -0.11328,-0.13959 -0.0698,-0.007 -0.13233,0.0434 -0.13959,0.11327 -7e-5,6e-4 -1.1e-4,0.001 -1.8e-4,0.002 -0.006,0.0693 -0.0112,0.13871 -0.0161,0.20811 v 0 c -0.005,0.0662 0.0451,0.1236 0.11131,0.12828 0.0617,0.004 0.11659,-0.0388 0.12689,-0.0998 v 0 z m -0.21354,0.29646 v 0 c 0.009,0.045 0.0528,0.0742 0.0978,0.0652 0.0337,-0.007 0.0598,-0.0336 0.0656,-0.0675 0.0168,-0.098 0.0335,-0.1961 0.0501,-0.29418 v 0 c 0.0111,-0.0654 -0.033,-0.12738 -0.0984,-0.13845 -0.0654,-0.0111 -0.12739,0.033 -0.13843,0.0984 -7.1e-4,0.004 -10e-4,0.008 -10e-4,0.0115 -0.008,0.10873 0.004,0.21832 0.0247,0.32498 z" />
    <path
       inkscape:connector-curvature="0"
       id="path1466"
       style="fill:#666666;fill-opacity:1;fill-rule:nonzero;stroke:none;stroke-width:0.35277775"
       d="m 165.26486,251.42352 v 0 c 0.055,-0.0462 0.0621,-0.12822 0.016,-0.18322 -0.0288,-0.0343 -0.0733,-0.0514 -0.11765,-0.0452 -0.0827,0.0116 -0.14888,0.076 -0.15399,0.16096 v 0 c -0.004,0.0743 0.0521,0.13815 0.12643,0.14263 0.0543,0.003 0.10531,-0.0265 0.12919,-0.0754 z m -0.0335,0.0204 c -0.0101,0.004 0.022,-0.003 0.0266,-0.004 0.034,-0.004 0.0682,-0.006 0.10231,-0.008 v 0 c 0.0657,-0.004 0.11613,-0.0597 0.1126,-0.12545 -0.004,-0.0616 -0.0531,-0.1105 -0.11479,-0.11268 -0.0641,-0.002 -0.13113,-0.008 -0.19494,0.001 v 0 c -0.0711,0.01 -0.12072,0.0757 -0.11074,0.14685 0.01,0.0711 0.0757,0.1207 0.14686,0.11072 0.011,-0.002 0.0218,-0.005 0.0321,-0.009 z m 0.12894,-0.012 c 0.11331,-0.006 0.22705,-0.005 0.34043,-0.002 v 0 c 0.0653,0.002 0.11959,-0.05 0.12121,-0.11537 0.002,-0.0653 -0.0501,-0.11958 -0.11539,-0.12119 -0.002,-5e-5 -0.004,-5e-5 -0.006,0 -0.11412,0.003 -0.2285,0.004 -0.34262,4.3e-4 v 0 c -0.0658,-0.002 -0.12104,0.0491 -0.12337,0.11489 -0.002,0.0658 0.0491,0.12101 0.1149,0.12334 0.004,1.3e-4 0.007,9e-5 0.0107,-1e-4 z m 0.34043,-0.002 c 0.11306,0.003 0.2262,0.005 0.3393,0.006 v 0 c 0.0675,2.8e-4 0.12245,-0.0542 0.12273,-0.12173 2.8e-4,-0.0665 -0.0526,-0.12103 -0.11913,-0.12272 -0.11423,-0.003 -0.22867,-7.4e-4 -0.3429,0.002 v 1e-5 c -0.0653,0.002 -0.11695,0.0559 -0.11536,0.12119 10e-4,0.0631 0.0523,0.11381 0.11536,0.11536 v 1e-5 z m 0.33927,0.006 c 0.0822,3.5e-4 0.16428,0.002 0.24638,0.005 v 0 c 0.0665,0.002 0.12237,-0.0496 0.12477,-0.11612 0.002,-0.0662 -0.0491,-0.12196 -0.11536,-0.12475 -0.084,-0.004 -0.16809,-0.006 -0.25216,-0.009 v 0 c -0.0675,-0.002 -0.12358,0.0516 -0.12531,0.11909 -0.002,0.0675 0.0516,0.1236 0.1191,0.12532 7.1e-4,2e-5 0.002,4e-5 0.002,4e-5 z m 0.24638,0.005 c 0.17504,0.006 0.35217,-0.0106 0.52659,-0.0228 v 0 c 0.0439,-0.003 0.077,-0.0412 0.074,-0.0851 -0.002,-0.0376 -0.0312,-0.0682 -0.0686,-0.0734 -0.17293,-0.0239 -0.34788,-0.0523 -0.52257,-0.0596 v 0 c -0.0665,-0.003 -0.1227,0.0489 -0.12548,0.11536 -0.003,0.0665 0.0489,0.12269 0.11535,0.12549 2.5e-4,1e-5 3.6e-4,2e-5 7.1e-4,2e-5 z" />
  </g>
</svg>
