<?xml version="1.0" encoding="UTF-8" standalone="no"?>
<!-- Created with Inkscape (http://www.inkscape.org/) -->

<svg
   xmlns:dc="http://purl.org/dc/elements/1.1/"
   xmlns:cc="http://creativecommons.org/ns#"
   xmlns:rdf="http://www.w3.org/1999/02/22-rdf-syntax-ns#"
   xmlns:svg="http://www.w3.org/2000/svg"
   xmlns="http://www.w3.org/2000/svg"
   xmlns:sodipodi="http://sodipodi.sourceforge.net/DTD/sodipodi-0.dtd"
   xmlns:inkscape="http://www.inkscape.org/namespaces/inkscape"
   version="1.1"
   id="svg250"
   xml:space="preserve"
   width="146.06137"
   height="186.38333"
   viewBox="0 0 146.06137 186.38333"
   sodipodi:docname="pd_circle.svg"
   inkscape:version="0.92.3 (2405546, 2018-03-11)"><metadata
     id="metadata256"><rdf:RDF><cc:Work
         rdf:about=""><dc:format>image/svg+xml</dc:format><dc:type
           rdf:resource="http://purl.org/dc/dcmitype/StillImage" /><dc:title></dc:title></cc:Work></rdf:RDF></metadata><defs
     id="defs254" /><sodipodi:namedview
     pagecolor="#ffffff"
     bordercolor="#666666"
     borderopacity="1"
     objecttolerance="10"
     gridtolerance="10"
     guidetolerance="10"
     inkscape:pageopacity="0"
     inkscape:pageshadow="2"
     inkscape:window-width="1920"
     inkscape:window-height="1025"
     id="namedview252"
     showgrid="false"
     fit-margin-top="0"
     fit-margin-left="0"
     fit-margin-right="0"
     fit-margin-bottom="0"
     inkscape:zoom="1.189304"
     inkscape:cx="558.058"
     inkscape:cy="329.52047"
     inkscape:window-x="0"
     inkscape:window-y="27"
     inkscape:window-maximized="1"
     inkscape:current-layer="g258" /><g
     id="g258"
     inkscape:groupmode="layer"
     inkscape:label="canvas (5)"
     transform="matrix(1.3333333,0,0,-1.3333333,-83.627222,789.93021)"><path
       inkscape:connector-curvature="0"
       id="path266"
       style="fill:#a42604;fill-opacity:1;fill-rule:nonzero;stroke:none"
       d="m 87.19436,544.2906 c 0.08942,-0.8847 0.28712,-1.7585 0.50287,-2.6196 0.31052,-1.2394 0.67914,-2.464 1.0668,-3.6811 v 0 c 0.0921,-0.2892 0.40118,-0.449 0.69034,-0.3569 0.27037,0.0861 0.43071,0.364 0.37003,0.6411 -0.26595,1.2148 -0.5058,2.4381 -0.6623,3.6722 -0.09891,0.7801 -0.18084,1.5799 -0.12058,2.3667 v 0 c 0.03911,0.5106 -0.34313,0.9563 -0.85376,0.9954 -0.51063,0.0391 -0.95628,-0.3432 -0.99539,-0.8538 -0.0042,-0.0546 -0.0035,-0.1095 0.002,-0.164 z m 0,0 v 0 c 0.0515,-0.5096 0.50631,-0.8809 1.01584,-0.8294 0.44679,0.0452 0.79701,0.404 0.83132,0.8518 0.10303,1.3446 0.50299,2.6547 1.01466,3.8961 v 0 c 0.25819,0.6265 -0.04033,1.3436 -0.66675,1.6018 -0.62642,0.2581 -1.34354,-0.0404 -1.60172,-0.6668 -0.01593,-0.0386 -0.02987,-0.0781 -0.04178,-0.1181 -0.45373,-1.5275 -0.7127,-3.1413 -0.55157,-4.7354 z m 2.86181,3.9185 c 0.36318,0.8811 0.80105,1.7312 1.25806,2.5667 0.63633,1.1634 1.32067,2.3004 2.02421,3.4242 v 0 c 0.42848,0.6844 0.221,1.5866 -0.46342,2.015 -0.68441,0.4285 -1.5866,0.221 -2.01508,-0.4634 -0.01217,-0.0194 -0.02388,-0.0391 -0.03513,-0.0591 -0.68127,-1.2115 -1.33407,-2.4407 -1.9184,-3.7022 -0.4458,-0.9624 -0.85817,-1.9465 -1.16049,-2.9644 v 0 c -0.19291,-0.6495 0.17723,-1.3324 0.82673,-1.5253 0.60301,-0.1791 1.24379,0.1269 1.48352,0.7085 z m 3.28227,5.9909 c 1.27594,2.038 2.57464,4.0713 4.00635,6.0046 v 0 c 0.52808,0.7132 0.37808,1.7193 -0.33503,2.2474 -0.71311,0.5281 -1.71929,0.3781 -2.24738,-0.335 -0.0084,-0.0114 -0.01672,-0.0229 -0.02486,-0.0345 -1.43245,-2.0455 -2.68962,-4.2152 -3.91271,-6.39 v 0 c -0.3958,-0.7039 -0.14611,-1.5953 0.55771,-1.9911 0.68051,-0.3827 1.54163,-0.1632 1.95592,0.4986 z m 4.00635,6.0046 c 1.10904,1.4977 2.27281,2.9546 3.47801,4.3758 v 0 c 0.6054,0.714 0.5174,1.7836 -0.1965,2.3891 -0.71403,0.6054 -1.78363,0.5174 -2.38906,-0.1966 -0.01285,-0.0151 -0.02543,-0.0305 -0.03773,-0.0461 -1.19639,-1.5158 -2.35421,-3.0625 -3.46199,-4.6443 v 0 c -0.50902,-0.7269 -0.33243,-1.7287 0.39441,-2.2377 0.71327,-0.4996 1.69464,-0.3399 2.21286,0.3598 z m 3.47801,4.3758 c 1.2972,1.5299 2.6877,2.9795 4.1399,4.3626 v 0 c 0.7186,0.6845 0.7463,1.8219 0.0619,2.5405 -0.6845,0.7186 -1.8219,0.7463 -2.5405,0.0619 -0.0133,-0.0127 -0.0264,-0.0256 -0.0393,-0.0387 -1.4979,-1.5169 -2.92429,-3.1062 -4.24529,-4.7799 v 0 c -0.57997,-0.7348 -0.45444,-1.8007 0.28038,-2.3806 0.71662,-0.5656 1.75251,-0.4621 2.34291,0.2342 z m 4.1399,4.3626 c 1.5368,1.4638 3.1404,2.8572 4.8027,4.1767 v 0 c 0.8311,0.6597 0.97,1.8682 0.3103,2.6992 -0.6596,0.8311 -1.8681,0.9701 -2.6992,0.3104 -0.0227,-0.018 -0.0451,-0.0366 -0.0669,-0.0556 -1.6781,-1.4606 -3.3017,-2.9839 -4.8648,-4.5669 v -10e-5 c -0.6973,-0.7061 -0.6901,-1.8438 0.0161,-2.5411 0.6909,-0.6822 1.7987,-0.6922 2.5018,-0.0226 z m 4.8027,4.1767 c 1.6287,1.2928 3.3169,2.5113 5.0637,3.6396 v 0 c 0.9523,0.6151 1.2257,1.8857 0.6106,2.838 -0.6151,0.9523 -1.8858,1.2257 -2.8381,0.6106 -0.0208,-0.0135 -0.0414,-0.0273 -0.0617,-0.0415 -1.8158,-1.2683 -3.5598,-2.6387 -5.2303,-4.0927 v 0 c -0.8004,-0.6967 -0.8845,-1.9102 -0.1878,-2.7106 0.6744,-0.7748 1.839,-0.8821 2.6436,-0.2434 z m 5.0637,3.6396 c 1.692,1.0928 3.4176,2.1338 5.1775,3.1136 v 0 c 1.0341,0.5757 1.4057,1.8807 0.83,2.9149 -0.5757,1.0341 -1.8807,1.4057 -2.9148,0.83 -0.0137,-0.008 -0.0273,-0.0154 -0.0408,-0.0233 -1.8259,-1.0696 -3.6063,-2.2164 -5.3411,-3.4281 v 0 c -0.9294,-0.6492 -1.1566,-1.9289 -0.5074,-2.8583 0.6326,-0.9057 1.8686,-1.1483 2.7966,-0.5488 z m 5.1775,3.1136 c 1.7147,0.9546 3.455,1.8633 5.2195,2.7225 v 0 c 1.0863,0.529 1.5382,1.8385 1.0092,2.9249 -0.529,1.0864 -1.8385,1.5382 -2.9249,1.0092 -0.005,-0.002 -0.0102,-0.005 -0.0153,-0.007 -1.8379,-0.9128 -3.6435,-1.8903 -5.4141,-2.9275 v 0 c -1.0213,-0.5983 -1.3642,-1.9111 -0.7659,-2.9324 0.5889,-1.0054 1.8734,-1.356 2.8915,-0.7892 z m 5.2195,2.7225 c 1.7314,0.8431 3.4947,1.6205 5.2854,2.329 v 0 c 1.1366,0.4497 1.6934,1.7356 1.2437,2.8722 -0.4497,1.1365 -1.7356,1.6933 -2.8721,1.2436 -0.006,-0.003 -0.0127,-0.005 -0.019,-0.008 -1.8869,-0.7667 -3.7448,-1.6047 -5.569,-2.5106 v 0 c -1.0822,-0.5375 -1.5238,-1.8505 -0.9864,-2.9327 0.5345,-1.0762 1.837,-1.52 2.9174,-0.9939 z m 5.2854,2.329 c 1.6746,0.6626 3.3788,1.2537 5.1128,1.7412 v 0 c 1.1883,0.3341 1.8807,1.5682 1.5467,2.7565 -0.3341,1.1883 -1.5682,1.8808 -2.7565,1.5467 -0.004,-10e-4 -0.009,-0.002 -0.0132,-0.004 -1.8797,-0.541 -3.7255,-1.1963 -5.5372,-1.9325 v 0 c -1.1323,-0.4601 -1.6773,-1.7511 -1.2171,-2.8834 0.4571,-1.125 1.7354,-1.6716 2.8645,-1.2248 z m 5.1128,1.7412 c 1.5424,0.4337 3.1152,0.7643 4.7058,0.9609 v 0 c 1.2313,0.1523 2.106,1.2738 1.9538,2.5051 -0.1522,1.2313 -1.2738,2.1061 -2.5051,1.9538 -0.002,-2e-4 -0.004,-4e-4 -0.006,-7e-4 -1.8167,-0.2294 -3.6125,-0.6133 -5.3717,-1.1196 v 0 c -1.1863,-0.3414 -1.8711,-1.5798 -1.5298,-2.766 0.3399,-1.1811 1.5696,-1.8661 2.7528,-1.5335 z m 4.7058,0.9609 c 1.49,0.1842 2.9897,0.2983 4.4912,0.3178 v 0 c 1.2431,0.0162 2.2377,1.037 2.2215,2.2801 -0.0162,1.2431 -1.037,2.2376 -2.2801,2.2215 -8e-4,0 -0.002,-1e-4 -0.002,-1e-4 -1.6676,-0.0236 -3.3329,-0.1522 -4.9872,-0.3611 v 0 c -1.2309,-0.1554 -2.1027,-1.2793 -1.9473,-2.5102 0.1552,-1.2286 1.2754,-2.0999 2.5044,-1.948 z m 4.4912,0.3178 c 1.2544,0.0164 2.5107,-0.1331 3.7196,-0.472 v 0 c 1.1977,-0.3357 2.4408,0.363 2.7766,1.5607 0.3358,1.1977 -0.363,2.4408 -1.5607,2.7766 -1.6237,0.4552 -3.3114,0.6601 -4.9966,0.6362 v 0 c -1.2431,-0.0175 -2.2365,-1.0395 -2.2189,-2.2825 0.0175,-1.2421 1.0379,-2.2351 2.28,-2.219 z m 3.7196,-0.472 c 1.2246,-0.3433 2.39,-0.8768 3.4704,-1.5458 v 0 c 1.0525,-0.6516 2.4341,-0.3267 3.0857,0.7258 0.6474,1.0456 0.3315,2.4175 -0.708,3.0746 -1.4363,0.908 -2.9948,1.6237 -4.6322,2.0827 v 0 c -1.1977,0.3358 -2.4408,-0.3629 -2.7766,-1.5606 -0.3358,-1.1978 0.3629,-2.4409 1.5607,-2.7767 0,0 0,0 0,0 z m 3.4705,-1.5458 c 1.2198,-0.7553 2.38,-1.6058 3.471,-2.5374 v 0 c 0.9192,-0.7849 2.3007,-0.676 3.0856,0.2432 0.7651,0.896 0.6836,2.2369 -0.1844,3.0336 -1.2376,1.1359 -2.5745,2.1633 -3.9945,3.061 v 0 c -1.0464,0.6615 -2.4309,0.3495 -3.0924,-0.6969 -0.6615,-1.0463 -0.3495,-2.4308 0.6968,-3.0923 0.006,-0.004 0.0119,-0.007 0.0179,-0.0112 z m 3.471,-2.5374 c 1.1303,-0.9652 2.1746,-2.0295 3.1336,-3.1646 v 0 c 0.754,-0.8925 2.0888,-1.0048 2.9813,-0.2507 0.8766,0.7406 1.0029,2.0453 0.2844,2.9403 -1.0713,1.3346 -2.237,2.5943 -3.4981,3.7518 v 0 c -0.8905,0.8174 -2.275,0.7581 -3.0924,-0.1324 -0.8173,-0.8905 -0.7581,-2.275 0.1324,-3.0924 0.0193,-0.0177 0.0389,-0.035 0.0588,-0.052 z m 3.1336,-3.1646 c 1.0316,-1.2212 1.9554,-2.5317 2.7836,-3.8985 v 0 c 0.5902,-0.9742 1.8584,-1.2855 2.8326,-0.6952 0.9628,0.5833 1.2799,1.8309 0.7126,2.8032 -0.9123,1.5638 -1.9295,3.0679 -3.0631,4.4801 v 0 c -0.7314,0.9111 -2.0629,1.0568 -2.974,0.3254 -0.9112,-0.7314 -1.0569,-2.0629 -0.3255,-2.974 0.0111,-0.0138 0.0223,-0.0275 0.0338,-0.041 z m 2.7836,-3.8985 c 0.9203,-1.519 1.7067,-3.117 2.3924,-4.7544 v 0 c 0.4336,-1.0356 1.6246,-1.5235 2.6601,-1.0899 1.0319,0.4321 1.5207,1.6167 1.0939,2.6507 -0.7516,1.8206 -1.6083,3.5999 -2.6012,5.3016 v 0 c -0.574,0.9839 -1.8369,1.3161 -2.8207,0.7421 -0.9838,-0.5741 -1.316,-1.8369 -0.742,-2.8208 0.006,-0.01 0.0116,-0.0196 0.0175,-0.0293 z m 2.3924,-4.7544 c 0.7377,-1.7618 1.3843,-3.5618 1.9348,-5.3908 v 0 c 0.3222,-1.0702 1.4509,-1.6767 2.5212,-1.3546 1.0696,0.3219 1.6761,1.4495 1.3552,2.5194 -0.5885,1.9617 -1.2758,3.8937 -2.0572,5.7868 v 0 c -0.4284,1.0377 -1.6169,1.5317 -2.6546,1.1033 -1.0378,-0.4284 -1.5318,-1.6169 -1.1034,-2.6546 10e-4,-0.003 0.003,-0.006 0.004,-0.01 z m 1.9348,-5.3908 c 0.5534,-1.8385 1.0211,-3.7026 1.4027,-5.5843 v 0 c 0.222,-1.0946 1.2893,-1.802 2.384,-1.5801 1.0946,0.222 1.8021,1.2893 1.5801,2.384 0,0 0,0 0,0 -0.4063,2.0031 -0.9032,3.9876 -1.4904,5.9452 v 0 c -0.3212,1.0706 -1.4494,1.6781 -2.52,1.357 -1.0705,-0.3212 -1.6781,-1.4494 -1.3569,-2.52 2e-4,-6e-4 3e-4,-10e-4 5e-4,-0.002 z m 1.4027,-5.5843 c 0.4091,-2.0172 0.6605,-4.0649 0.8109,-6.1169 v 0 c 0.0817,-1.1144 1.0513,-1.9516 2.1657,-1.8699 1.1144,0.0817 1.9516,1.0513 1.8699,2.1657 -1e-4,3e-4 -1e-4,6e-4 -1e-4,10e-4 -0.164,2.2223 -0.4393,4.4393 -0.8823,6.624 v 0 c -0.222,1.0947 -1.2894,1.8021 -2.384,1.5801 -1.0947,-0.222 -1.8021,-1.2894 -1.5801,-2.384 0,0 0,0 0,0 z m 0.8109,-6.1169 c 0.1762,-2.4041 0.2558,-4.8149 0.2694,-7.2252 v 0 c 0.006,-1.1196 0.919,-2.0221 2.0387,-2.0158 1.1196,0.006 2.0221,0.9191 2.0157,2.0387 0,10e-4 0,0.002 0,0.003 -0.0183,2.5006 -0.1043,5.0015 -0.2883,7.4957 v 0 c -0.0822,1.1143 -1.0522,1.951 -2.1666,1.8688 -1.114,-0.0822 -1.9506,-1.0516 -1.8689,-2.1656 z m 3.9983,-15.0541 c 0.2413,2.6107 0.3447,5.2336 0.3255,7.8552 v 0 c -0.008,1.1196 -0.9224,2.0205 -2.042,2.0124 -1.1183,-0.008 -2.0187,-0.9204 -2.0124,-2.0387 0.014,-2.487 -0.0876,-4.9751 -0.3203,-7.4514 v 0 c -0.1051,-1.1181 0.7161,-2.1097 1.8342,-2.2147 1.118,-0.1051 2.1096,0.7161 2.2147,1.8341 1e-4,10e-4 2e-4,0.002 3e-4,0.003 z m -1.31,-8.2392 c 0.5917,2.7182 1.0538,5.4683 1.31,8.2392 v 0 c 0.1033,1.1183 -0.7194,2.1086 -1.8376,2.2119 -1.117,0.1033 -2.1066,-0.7176 -2.2116,-1.8344 -0.2448,-2.605 -0.6863,-5.1897 -1.2482,-7.7442 v 0 c -0.2421,-1.1008 0.454,-2.1895 1.5549,-2.4316 1.1008,-0.2421 2.1895,0.454 2.4316,1.5548 3e-4,10e-4 6e-4,0.003 9e-4,0.004 z m -2.2236,-8.6068 c 0.8506,2.8393 1.5932,5.7107 2.2236,8.6068 v 0 c 0.2398,1.1014 -0.4587,2.1885 -1.5601,2.4283 -1.0996,0.2394 -2.1855,-0.4566 -2.4273,-1.5558 -0.6145,-2.794 -1.3342,-5.5648 -2.1552,-8.3052 v 0 c -0.3242,-1.0822 0.2903,-2.2223 1.3725,-2.5465 1.0822,-0.3242 2.2222,0.2903 2.5465,1.3724 z m -2.7877,-8.4166 c 1.0099,2.778 1.9394,5.5852 2.7877,8.4166 v 0 c 0.3242,1.0822 -0.2903,2.2223 -1.3725,2.5465 -1.0822,0.3243 -2.2223,-0.2902 -2.5465,-1.3724 0,0 0,0 0,0 -0.8264,-2.7588 -1.7269,-5.4954 -2.7007,-8.2056 v 0 c -0.3805,-1.0589 0.1694,-2.2258 1.2283,-2.6063 1.0562,-0.3795 2.2203,0.1666 2.6037,1.2212 z m -3.4644,-8.5105 c 1.2548,2.7947 2.4177,5.6312 3.4644,8.5105 v 0 c 0.3845,1.0575 -0.1611,2.2264 -1.2186,2.6109 -1.0575,0.3844 -2.2264,-0.1612 -2.6109,-1.2187 -8e-4,-0.002 -0.002,-0.005 -0.002,-0.007 -0.9996,-2.7819 -2.1299,-5.5162 -3.3623,-8.2028 v 0 c -0.4717,-1.0281 -0.0206,-2.2438 1.0075,-2.7155 1.0281,-0.4716 2.2439,-0.0205 2.7155,1.0076 0.002,0.005 0.005,0.01 0.007,0.0151 z m -4.0343,-8.3795 c 1.4216,2.7553 2.7644,5.5511 4.0343,8.3795 v 0 c 0.4633,1.0319 0.002,2.2439 -1.0295,2.7072 -1.026,0.4607 -2.2315,0.008 -2.7004,-1.0144 -1.2598,-2.7461 -2.5978,-5.4566 -4.0204,-8.1221 v 0 c -0.5457,-1.0224 -0.1592,-2.2936 0.8632,-2.8392 1.0224,-0.5457 2.2935,-0.1592 2.8392,0.8632 0.005,0.009 0.009,0.0172 0.0136,0.0258 z m -4.3299,-7.7055 c 1.5413,2.5117 2.9787,5.0868 4.3299,7.7055 v 0 c 0.5313,1.0299 0.1272,2.2956 -0.9027,2.8269 -1.0197,0.5262 -2.273,0.1356 -2.8133,-0.8767 -1.3418,-2.5139 -2.7539,-4.9908 -4.2523,-7.4148 v 0 c -0.6205,-1.0037 -0.3099,-2.3203 0.6939,-2.9408 1.0037,-0.6205 2.3203,-0.3098 2.9408,0.6939 0.001,0.002 0.002,0.004 0.004,0.006 z m -4.8889,-7.1783 c 1.7383,2.3162 3.3741,4.7099 4.8889,7.1783 v -1e-4 c 0.6171,1.0058 0.3022,2.3214 -0.7036,2.9386 -1.0034,0.6158 -2.3158,0.3038 -2.9348,-0.6976 -1.454,-2.352 -3.0195,-4.6345 -4.6792,-6.846 v 0 c -0.7105,-0.9468 -0.519,-2.2903 0.4278,-3.0009 0.9468,-0.7105 2.2903,-0.5191 3.0009,0.4277 z m -5.4291,-6.5979 c 1.9134,2.1112 3.7189,4.3193 5.4291,6.5979 v 0 c 0.7106,0.9468 0.5191,2.2904 -0.4277,3.001 -0.9468,0.7105 -2.2904,0.5191 -3.0009,-0.4277 0,0 0,0 -1e-4,-10e-5 -1.6333,-2.1763 -3.3518,-4.2895 -5.1681,-6.3159 v 0 c -0.786,-0.8769 -0.7123,-2.225 0.1646,-3.011 0.8735,-0.7829 2.2153,-0.7133 3.0031,0.1558 z m -5.5016,-5.8262 c 1.8747,1.9029 3.7077,3.847 5.5016,5.8262 v 0 c 0.7908,0.8726 0.7246,2.221 -0.148,3.0119 -0.8725,0.7908 -2.221,0.7246 -3.0118,-0.148 -0.003,-0.003 -0.005,-0.006 -0.008,-0.009 -1.7321,-1.9324 -3.5241,-3.8115 -5.3787,-5.6268 v 0 c -0.8512,-0.8331 -0.8658,-2.1984 -0.0327,-3.0496 0.8331,-0.8512 2.1985,-0.8659 3.0497,-0.0328 0.009,0.009 0.0186,0.0184 0.0278,0.0278 z m -6.0114,-5.5433 c 2.0869,1.7548 4.0978,3.6007 6.0114,5.5433 v 0 c 0.8359,0.8485 0.8256,2.2139 -0.0229,3.0497 -0.8375,0.8251 -2.1816,0.8273 -3.0219,0.005 -1.8518,-1.8124 -3.7929,-3.533 -5.8031,-5.1678 v 0 c -0.9536,-0.7755 -1.098,-2.1772 -0.3225,-3.1308 0.7755,-0.9536 2.1772,-1.098 3.1308,-0.3225 0.01,0.008 0.0188,0.0154 0.0282,0.0232 z m -6.3127,-4.7877 c 2.1926,1.4746 4.2907,3.0876 6.3127,4.7877 v 0 c 0.9407,0.7911 1.0621,2.195 0.2711,3.1358 -0.7819,0.9298 -2.165,1.0609 -3.1076,0.2943 -1.9313,-1.5705 -3.9248,-3.0674 -5.9983,-4.4457 v 0 c -1.0436,-0.6937 -1.3272,-2.1019 -0.6336,-3.1454 0.6937,-1.0436 2.102,-1.3272 3.1455,-0.6336 0.003,0.002 0.007,0.005 0.0102,0.007 z m -6.1739,-3.5793 c 2.1426,1.0385 4.1988,2.2509 6.1739,3.5793 v 0 c 1.0398,0.6993 1.3158,2.109 0.6165,3.1488 -0.6966,1.0358 -2.0991,1.3143 -3.1386,0.6233 -1.808,-1.2017 -3.6853,-2.3034 -5.6395,-3.2506 v 0 c -1.1324,-0.5489 -1.6055,-1.9119 -1.0566,-3.0443 0.5489,-1.1324 1.9118,-1.6054 3.0443,-1.0565 0,0 0,0 0,0 z m -6.4496,-2.3791 c 2.221,0.5801 4.3839,1.3779 6.4495,2.3791 v -1e-4 c 1.1325,0.5489 1.6055,1.9119 1.0566,3.0443 -0.5488,1.1324 -1.9118,1.6055 -3.0442,1.0566 -1.8071,-0.8759 -3.6939,-1.585 -5.6304,-2.1164 v 0 c -1.2029,-0.3302 -1.9105,-1.5729 -1.5803,-2.7759 0.3272,-1.1924 1.5524,-1.9 2.7488,-1.5875 z m -6.6914,-0.9921 c 2.2591,0.0766 4.5052,0.4211 6.6914,0.9921 v 1e-4 c 1.2069,0.3152 1.9298,1.5491 1.6146,2.756 -0.3153,1.207 -1.5492,1.9298 -2.7561,1.6146 -0.009,-0.002 -0.018,-0.005 -0.027,-0.007 -1.8616,-0.5109 -3.7759,-0.833 -5.7049,-0.9261 v 0 c -1.2228,-0.059 -2.1662,-1.0981 -2.1072,-2.3209 0.0584,-1.2105 1.0781,-2.1497 2.2892,-2.1086 z m -6.3444,0.3009 c 2.1014,-0.2802 4.2261,-0.3728 6.3444,-0.3009 v 0 c 1.2236,0.0415 2.1818,1.067 2.1403,2.2906 -0.0415,1.2235 -1.0671,2.1817 -2.2906,2.1402 -0.0106,-4e-4 -0.0211,-8e-4 -0.0317,-0.001 -1.8706,-0.0903 -3.7493,-0.0334 -5.6086,0.1951 v 0 c -1.19474,0.1467 -2.28225,-0.7028 -2.42902,-1.8976 -0.14569,-1.186 0.69076,-2.2682 1.87522,-2.4261 z m -6.59382,2.0132 c 2.08582,-0.9827 4.30381,-1.7079 6.59382,-2.0132 v 0 c 1.1932,-0.1591 2.2894,0.6791 2.4485,1.8723 0.1591,1.1932 -0.6792,2.2894 -1.8724,2.4485 -0.007,10e-4 -0.0148,0.002 -0.0223,0.003 -1.84365,0.2264 -3.62796,0.8155 -5.30435,1.6043 v 0 c -1.08117,0.5087 -2.37004,0.0447 -2.87877,-1.0365 -0.50854,-1.0808 -0.04502,-2.3692 1.0355,-2.8783 z m -6.40923,4.1487 c 1.95835,-1.6347 4.09911,-3.0603 6.40924,-4.1487 v 0 c 1.08091,-0.5093 2.37002,-0.0459 2.8793,1.035 0.50928,1.081 0.04587,2.3701 -1.03504,2.8793 -3.3e-4,2e-4 -6.7e-4,3e-4 -0.001,5e-4 -1.98437,0.9337 -3.82592,2.1522 -5.52154,3.539 v 0 c -0.91646,0.7496 -2.26704,0.6143 -3.0166,-0.3022 -0.74426,-0.91 -0.61683,-2.2496 0.28564,-3.0029 z m -5.70896,5.7707 c 1.72451,-2.0899 3.62828,-4.0339 5.70897,-5.7707 h -1e-5 c 0.90891,-0.7587 2.26078,-0.6369 3.01949,0.272 0.75871,0.9089 0.63694,2.2607 -0.27196,3.0194 -0.0055,0.005 -0.01104,0.009 -0.01659,0.0138 -1.89094,1.5465 -3.61746,3.2892 -5.17874,5.1668 v 0 c -0.74766,0.8992 -2.08265,1.022 -2.9818,0.2743 -0.89675,-0.7456 -1.02166,-2.0761 -0.27936,-2.9756 z m -5.32836,7.539 c 1.62184,-2.6158 3.36823,-5.1637 5.32836,-7.539 v 0 c 0.74427,-0.902 2.07879,-1.0298 2.98074,-0.2855 0.90195,0.7442 1.02977,2.0788 0.28549,2.9807 -0.0017,0.002 -0.0034,0.004 -0.0051,0.006 -1.84554,2.2195 -3.48186,4.6095 -5.00066,7.0617 v 0 c -0.61389,0.9912 -1.91506,1.297 -2.90624,0.6831 -0.99119,-0.6139 -1.29704,-1.915 -0.68315,-2.9062 1.8e-4,-3e-4 3.5e-4,-6e-4 5.3e-4,-9e-4 z m -4.83285,9.3197 c 1.38137,-3.2185 2.98691,-6.3425 4.83285,-9.3197 v 0 c 0.61437,-0.9909 1.91569,-1.2961 2.90658,-0.6817 0.99055,0.6141 1.29596,1.9148 0.68228,2.9057 -1.73083,2.7946 -3.22454,5.7332 -4.49894,8.7626 v 0 c -0.45639,1.0849 -1.70586,1.5944 -2.79076,1.138 -1.0849,-0.4564 -1.59441,-1.7058 -1.13802,-2.7907 0.002,-0.005 0.004,-0.01 0.006,-0.0142 z m -3.74639,10.0752 c 1.08436,-3.4165 2.33264,-6.7812 3.74639,-10.0752 v 0 c 0.46421,-1.0816 1.71732,-1.5821 2.7989,-1.1178 1.07607,0.4618 1.57794,1.7053 1.12387,2.7847 -1.3376,3.1796 -2.52703,6.4213 -3.57056,9.7091 v 0 c -0.35921,1.1318 -1.56792,1.7581 -2.69972,1.3989 -1.1318,-0.3592 -1.7581,-1.5679 -1.39888,-2.6997 0,0 0,0 0,0 z m -2.85825,10.7387 c 0.79182,-3.6198 1.73723,-7.2067 2.85825,-10.7387 v 0 c 0.35922,-1.1318 1.56793,-1.7581 2.69973,-1.3989 1.1318,0.3592 1.75809,1.5679 1.39887,2.6997 -1.08178,3.4084 -1.99895,6.8683 -2.77277,10.3593 v 0 c -0.25604,1.155 -1.39994,1.8838 -2.55499,1.6278 -1.15277,-0.2555 -1.88141,-1.3957 -1.62909,-2.5492 z m -1.59462,10.7259 c 0.25719,-3.6091 0.82175,-7.1927 1.59462,-10.7259 v 0 c 0.25282,-1.1557 1.39469,-1.8877 2.55044,-1.6349 1.15576,0.2528 1.88774,1.3947 1.63492,2.5505 -4.2e-4,0.002 -8.5e-4,0.004 -0.0013,0.006 -0.73779,3.3284 -1.27855,6.7058 -1.52094,10.1079 v 0 c -0.08377,1.1757 -1.10481,2.0609 -2.28056,1.9772 -1.17574,-0.0838 -2.06097,-1.1049 -1.9772,-2.2806 0,0 0,0 0,0 z m 0,0 v 0 c 0.08379,-1.1758 1.10485,-2.061 2.28059,-1.9772 1.17574,0.0838 2.06094,1.1048 1.97717,2.2806 -0.2286,3.2085 -0.29275,6.4287 -0.18905,9.6438 v 0 c 0.03666,1.1368 -0.85517,2.088 -1.99195,2.1247 -1.11242,0.0359 -2.05206,-0.8186 -2.12175,-1.9294 -0.21184,-3.3769 -0.19551,-6.7676 0.04499,-10.1425 z m 4.06871,9.9472 c 0.10372,3.2162 0.71111,6.4016 1.68986,9.4635 v 0 c 0.31444,0.9837 -0.2281,2.0361 -1.21181,2.3505 -0.95396,0.3049 -1.97881,-0.1959 -2.32443,-1.1358 -1.23812,-3.3673 -2.04246,-6.8986 -2.26732,-10.4829 v 0 c -0.07121,-1.1351 0.79128,-2.1131 1.92643,-2.1843 1.13514,-0.0712 2.11309,0.7913 2.1843,1.9264 0.0013,0.0209 0.0023,0.0417 0.003,0.0626 z m 1.68984,9.4634 c 1.11351,3.4833 2.7007,6.8035 4.56742,9.9432 h 1e-5 c 0.46299,0.7788 0.20703,1.7854 -0.57172,2.2484 -0.75799,0.4507 -1.73664,0.2214 -2.21565,-0.519 -2.12738,-3.2883 -3.96333,-6.7783 -5.31628,-10.4578 v 0 c -0.35641,-0.9693 0.14044,-2.044 1.10974,-2.4004 0.9693,-0.3564 2.04399,0.1404 2.4004,1.1097 0.0092,0.0251 0.01793,0.0504 0.02608,0.0759 z m 4.56741,9.9432 c 0.704,1.1841 1.58497,2.2687 2.46053,3.3279 1.31623,1.5924 2.70083,3.1282 4.10448,4.6435 4.52841,4.8886 9.27242,9.5787 14.0453,14.227 v 0 c 0.3066,0.2986 0.31308,0.7892 0.01449,1.0958 -0.28589,0.2935 -0.75089,0.3137 -1.0612,0.0462 -5.07612,-4.3773 -10.12368,-8.8029 -14.94974,-13.4566 -1.633,-1.5747 -3.24461,-3.1767 -4.76627,-4.8601 -0.94061,-1.0406 -1.8714,-2.1141 -2.63493,-3.2943 h -10e-6 c -0.49211,-0.7607 -0.27441,-1.7762 0.48627,-2.2684 0.76067,-0.4921 1.77626,-0.2744 2.26838,0.4863 0.01123,0.0174 0.02213,0.0349 0.0327,0.0527 z" /></g></svg>