<?xml version="1.0" encoding="UTF-8" standalone="no"?>
<!-- Created with Inkscape (http://www.inkscape.org/) -->

<svg
   xmlns:dc="http://purl.org/dc/elements/1.1/"
   xmlns:cc="http://creativecommons.org/ns#"
   xmlns:rdf="http://www.w3.org/1999/02/22-rdf-syntax-ns#"
   xmlns:svg="http://www.w3.org/2000/svg"
   xmlns="http://www.w3.org/2000/svg"
   xmlns:sodipodi="http://sodipodi.sourceforge.net/DTD/sodipodi-0.dtd"
   xmlns:inkscape="http://www.inkscape.org/namespaces/inkscape"
   width="117.95263mm"
   height="37.031807mm"
   viewBox="0 0 117.95263 37.031807"
   version="1.1"
   id="svg291"
   inkscape:version="0.92.3 (2405546, 2018-03-11)"
   sodipodi:docname="pd_circle_long.svg">
  <defs
     id="defs285" />
  <sodipodi:namedview
     id="base"
     pagecolor="#ffffff"
     bordercolor="#666666"
     borderopacity="1.0"
     inkscape:pageopacity="0.0"
     inkscape:pageshadow="2"
     inkscape:zoom="0.35"
     inkscape:cx="280.0454"
     inkscape:cy="-212.87579"
     inkscape:document-units="mm"
     inkscape:current-layer="layer1"
     showgrid="false"
     fit-margin-top="0"
     fit-margin-left="0"
     fit-margin-right="0"
     fit-margin-bottom="0"
     inkscape:window-width="1920"
     inkscape:window-height="1025"
     inkscape:window-x="0"
     inkscape:window-y="27"
     inkscape:window-maximized="1" />
  <metadata
     id="metadata288">
    <rdf:RDF>
      <cc:Work
         rdf:about="">
        <dc:format>image/svg+xml</dc:format>
        <dc:type
           rdf:resource="http://purl.org/dc/dcmitype/StillImage" />
        <dc:title></dc:title>
      </cc:Work>
    </rdf:RDF>
  </metadata>
  <g
     inkscape:label="Layer 1"
     inkscape:groupmode="layer"
     id="layer1"
     transform="translate(-31.737989,-55.478141)">
    <path
       inkscape:connector-curvature="0"
       id="path264"
       style="fill:#a42604;fill-opacity:1;fill-rule:nonzero;stroke:none;stroke-width:0.35277775"
       d="m 42.816288,64.184413 c 0.142663,-0.36957 0.335259,-0.718891 0.568191,-1.039178 v 0 c 0.06297,-0.08661 0.04382,-0.207821 -0.04277,-0.270792 -0.08659,-0.06297 -0.207825,-0.04382 -0.270792,0.04276 -0.12706,0.174731 -0.243237,0.357364 -0.346866,0.546946 -0.05331,0.09751 -0.103307,0.19685 -0.149824,0.297815 -0.04479,0.09716 -0.101159,0.201895 -0.126954,0.30607 v 0 c -0.02573,0.103929 0.03766,0.209021 0.141576,0.234739 0.09481,0.0235 0.192268,-0.02723 0.227436,-0.118357 z m 0.568191,-1.039178 c 0.21899,-0.301166 0.46936,-0.581977 0.758532,-0.817527 v 0 c 0.09497,-0.07736 0.109245,-0.217064 0.03189,-0.312032 -0.07736,-0.09497 -0.217057,-0.109255 -0.312025,-0.03189 -0.0059,0.0048 -0.01152,0.0099 -0.01687,0.01524 -0.283341,0.283774 -0.539369,0.594042 -0.775081,0.918174 v 0 c -0.06296,0.08661 -0.04382,0.207822 0.04277,0.270793 0.08659,0.06297 0.207822,0.04382 0.270789,-0.04276 0,0 0,0 0,0 z m 0.758532,-0.817527 c 0.166931,-0.135961 0.347546,-0.2552 0.529855,-0.369323 0.262008,-0.164007 0.531333,-0.316265 0.802975,-0.463656 v 0 c 0.140702,-0.07634 0.192878,-0.252307 0.116536,-0.392994 -0.07634,-0.140688 -0.252285,-0.192864 -0.392987,-0.116523 -0.0063,0.0035 -0.01248,0.0071 -0.01852,0.01094 -0.270076,0.173637 -0.53684,0.353095 -0.793771,0.545747 -0.18874,0.141535 -0.374206,0.290019 -0.541101,0.45713 v 0 c -0.08655,0.08668 -0.08644,0.227118 2.32e-4,0.313655 0.08045,0.08036 0.208626,0.08682 0.296778,0.01503 z m 1.33283,-0.832979 c 0.462502,-0.250966 0.927174,-0.504155 1.408433,-0.717867 v 0 c 0.171835,-0.07627 0.249277,-0.27746 0.172971,-0.449263 -0.07631,-0.171838 -0.277463,-0.249308 -0.449298,-0.173002 -0.0041,0.0018 -0.0082,0.0037 -0.01222,0.0057 -0.490851,0.241688 -0.955283,0.540349 -1.41485,0.835801 v 0 c -0.134652,0.08657 -0.17363,0.265888 -0.08706,0.400544 0.08206,0.127635 0.248662,0.170391 0.38203,0.09804 z m 1.408433,-0.717867 c 0.500938,-0.222427 1.020886,-0.404636 1.536933,-0.588151 v 0 c 0.189135,-0.06727 0.287927,-0.275132 0.220659,-0.464256 -0.06727,-0.189159 -0.275121,-0.287937 -0.464255,-0.220663 -0.0025,0.0011 -0.005,0.0018 -0.0075,0.0028 -0.529978,0.201683 -1.065128,0.403014 -1.574397,0.653803 v 0 c -0.168674,0.08304 -0.238083,0.287126 -0.155025,0.455789 0.08074,0.163971 0.276539,0.234915 0.443576,0.160726 z m 1.536933,-0.588151 c 0.81648,-0.290407 1.646012,-0.543631 2.479622,-0.779851 v 0 c 0.202992,-0.0575 0.320922,-0.268711 0.263398,-0.471699 -0.05752,-0.202989 -0.268707,-0.320922 -0.471703,-0.263419 -9.79e-4,2.91e-4 -0.002,7.14e-4 -0.003,0.0011 -0.848907,0.247967 -1.692681,0.517242 -2.51944,0.83192 v 0 c -0.187611,0.0714 -0.281816,0.281376 -0.210411,0.468983 0.0703,0.184714 0.275294,0.2794 0.461497,0.213183 z m 2.479622,-0.779851 c 1.000252,-0.283422 2.010664,-0.530437 3.026431,-0.751558 v 0 c 0.217703,-0.04741 0.355766,-0.262325 0.308374,-0.480025 -0.04739,-0.217699 -0.262294,-0.355741 -0.479997,-0.308363 -0.0024,3.52e-4 -0.0049,0.0011 -0.0073,0.0018 -1.025849,0.243311 -2.04671,0.508424 -3.058784,0.804051 v 0 c -0.202522,0.05916 -0.318742,0.271286 -0.259584,0.473816 0.05882,0.201366 0.269014,0.317606 0.470852,0.260421 z m 3.026431,-0.751558 c 1.184092,-0.257775 2.378132,-0.469018 3.575706,-0.65345 v 0 c 0.239342,-0.03683 0.403455,-0.260738 0.366625,-0.500063 -0.03687,-0.239324 -0.260774,-0.403472 -0.500091,-0.366606 -0.0028,3.52e-4 -0.0057,7.06e-4 -0.0085,0.0014 -1.210532,0.21082 -2.416947,0.448416 -3.61266,0.732014 v 0 c -0.216785,0.05143 -0.350844,0.268852 -0.299423,0.485634 0.05075,0.213959 0.263482,0.347839 0.478338,0.301095 z m 3.575706,-0.65345 c 1.440832,-0.221862 2.889833,-0.389467 4.341088,-0.526062 v 0 c 0.274498,-0.02586 0.476039,-0.269311 0.450215,-0.543772 -0.02585,-0.274461 -0.269274,-0.476038 -0.543771,-0.45018 -0.0056,3.52e-4 -0.01132,0.0011 -0.01696,0.0018 -1.46163,0.188243 -2.920611,0.400015 -4.372525,0.652851 v 0 c -0.238562,0.04156 -0.398272,0.26864 -0.356725,0.507189 0.04097,0.235267 0.262671,0.394476 0.498686,0.358104 z m 4.341088,-0.526062 c 1.710055,-0.160973 3.424944,-0.268499 5.140855,-0.341524 v 0 c 0.330906,-0.01408 0.587729,-0.293723 0.573653,-0.624629 -0.01408,-0.330905 -0.293759,-0.587728 -0.624628,-0.573652 -0.0085,3.52e-4 -0.01707,0.0011 -0.02561,0.0018 -1.728258,0.147779 -3.454331,0.324556 -5.174792,0.5461 v 0 c -0.273439,0.03521 -0.466548,0.285397 -0.431342,0.558835 0.03436,0.266842 0.274039,0.458435 0.541866,0.433247 z m 5.140855,-0.341524 c 1.830141,-0.07786 3.661023,-0.137478 5.492398,-0.177836 v 0 c 0.371721,-0.0082 0.666432,-0.316194 0.658212,-0.687916 -0.0082,-0.371722 -0.316159,-0.666433 -0.68788,-0.658248 -0.0024,7e-5 -0.0047,1.05e-4 -0.007,1.76e-4 -1.84658,0.05987 -3.691504,0.169792 -5.532332,0.327166 v 0 c -0.329988,0.02822 -0.57464,0.318629 -0.546417,0.648617 0.02737,0.32004 0.302083,0.561728 0.623004,0.548041 z m 5.492398,-0.177836 c 1.954035,-0.04307 3.908814,-0.05316 5.863307,-0.04202 v 0 c 0.3937,0.0021 0.714658,-0.315066 0.716915,-0.70873 0.0021,-0.3937 -0.315066,-0.714658 -0.708766,-0.716915 -0.0038,-3.6e-5 -0.0077,0 -0.01151,3.5e-5 -1.965891,0.0205 -3.931639,0.058 -5.89661,0.121638 v 0 c -0.371618,0.01206 -0.663117,0.323074 -0.651086,0.69469 0.01196,0.368935 0.318698,0.659412 0.687739,0.651298 z m 5.863307,-0.04202 c 2.094372,0.01199 4.188565,0.05514 6.281631,0.129364 v 0 c 0.423828,0.01503 0.779569,-0.316371 0.794597,-0.740198 0.01503,-0.423792 -0.31637,-0.779534 -0.740161,-0.794562 -0.0048,-1.76e-4 -0.0096,-3.17e-4 -0.01439,-3.53e-4 -2.108131,-0.03521 -4.216754,-0.04184 -6.325023,-0.01983 v 0 c -0.3937,0.0041 -0.709507,0.326567 -0.705379,0.720231 0.004,0.389185 0.319545,0.703157 0.708729,0.70538 z m 6.281631,0.129364 c 2.060401,0.07306 4.119494,0.184256 6.175518,0.337044 v 0 c 0.439206,0.03263 0.821687,-0.296969 0.854321,-0.736142 0.03263,-0.439208 -0.296934,-0.82169 -0.736142,-0.854322 0,0 0,0 0,0 -2.081247,-0.154622 -4.16701,-0.246873 -6.253655,-0.281728 v 0 c -0.424039,-0.0071 -0.773501,0.330906 -0.780592,0.754945 -0.007,0.418394 0.322334,0.765351 0.74055,0.780203 z m 6.175518,0.337044 c 2.140937,0.159067 4.27817,0.366607 6.411206,0.609106 v 0 c 0.439844,0.05002 0.83693,-0.265994 0.886918,-0.705838 0.05003,-0.439843 -0.265994,-0.83693 -0.705837,-0.886954 -7.94e-4,-7e-5 -0.0013,-1.41e-4 -0.0021,-2.11e-4 -2.153639,-0.239572 -4.311158,-0.446017 -6.472166,-0.606566 v 0 c -0.439208,-0.03263 -0.82169,0.296933 -0.854323,0.736141 -0.03263,0.439208 0.296968,0.82169 0.736142,0.854322 z m 6.411206,0.609106 c 2.201016,0.250225 4.398401,0.532624 6.590521,0.851606 v 0 c 0.45166,0.06572 0.87108,-0.247157 0.9368,-0.698818 0.0657,-0.451661 -0.24715,-0.871079 -0.69881,-0.936801 -0.004,-3.52e-4 -0.007,-0.0011 -0.0105,-0.0014 -2.20998,-0.292877 -4.423272,-0.561058 -6.638893,-0.807544 v 0 c -0.439986,-0.04893 -0.836295,0.26804 -0.885261,0.70799 -0.04886,0.439208 0.267017,0.835095 0.706085,0.885013 z m 6.590521,0.851606 c 2.06657,0.300707 4.12976,0.625051 6.1879,0.978923 v 0 c 0.46115,0.07927 0.89923,-0.230259 0.9785,-0.69141 0.0793,-0.461115 -0.23026,-0.899195 -0.69137,-0.978499 0,0 0,0 0,0 -2.07592,-0.356941 -4.15939,-0.669361 -6.24745,-0.94608 v 0 c -0.45247,-0.05997 -0.86787,0.258234 -0.92784,0.710671 -0.0594,0.448381 0.25266,0.861237 0.70026,0.926395 z m 6.1879,0.978923 c 2.04555,0.351719 4.0845,0.741468 6.11692,1.162296 v 0 c 0.45212,0.09363 0.89454,-0.197026 0.98817,-0.649146 0.0932,-0.449933 -0.19424,-0.890729 -0.64354,-0.987001 -2.04999,-0.439209 -4.10817,-0.840776 -6.17442,-1.196058 v 0 c -0.46112,-0.07927 -0.89923,0.230258 -0.9785,0.691409 -0.0793,0.461116 0.23026,0.899195 0.69137,0.9785 z m 6.11692,1.162296 c 2.01528,0.417301 4.02308,0.871679 6.01917,1.373082 v 0 c 0.44968,0.112995 0.90582,-0.159984 1.01878,-0.60967 0.11296,-0.449722 -0.15998,-0.905828 -0.6097,-1.018787 -0.003,-7.15e-4 -0.005,-0.0014 -0.008,-0.0021 -2.01906,-0.486128 -4.04495,-0.943716 -6.07561,-1.378797 v 0 c -0.45145,-0.09673 -0.89588,0.190853 -0.99261,0.642338 -0.0967,0.451485 0.19085,0.895879 0.64234,0.992611 0.002,3.44e-4 0.004,7.14e-4 0.006,0.0011 z m 6.01917,1.373082 c 1.81162,0.455119 3.61544,0.942199 5.40617,1.473764 v 0 c 0.4523,0.134233 0.92774,-0.123542 1.06201,-0.575803 0.13423,-0.452297 -0.12358,-0.927735 -0.57584,-1.062003 -1.81645,-0.539185 -3.64921,-1.022914 -5.49127,-1.466391 v 0 c -0.45078,-0.10855 -0.90421,0.16891 -1.01275,0.61969 -0.10778,0.447639 0.16513,0.898595 0.61168,1.010743 z m 5.40617,1.473764 c 1.65488,0.491208 3.29791,1.022527 4.92538,1.598225 v -3.5e-5 c 0.42894,0.151729 0.89969,-0.07299 1.05142,-0.501932 0.14919,-0.421782 -0.0655,-0.885543 -0.48363,-1.044717 -1.64665,-0.626745 -3.31801,-1.187979 -5.007,-1.689347 v 0 c -0.45227,-0.134231 -0.9277,0.123579 -1.06197,0.57584 -0.13423,0.452261 0.12354,0.927699 0.5758,1.061966 0,0 0,0 0,0 z m 4.92538,1.598225 c 1.49958,0.530401 2.98732,1.095445 4.45438,1.710337 v 0 c 0.39772,0.166688 0.85524,-0.0206 1.02193,-0.418324 0.16538,-0.394547 -0.0176,-0.848713 -0.41025,-1.018504 -1.48484,-0.641985 -2.98647,-1.244741 -4.49827,-1.820193 v 0 c -0.42524,-0.161854 -0.90117,0.05168 -1.06302,0.476921 -0.16186,0.425238 0.0516,0.901171 0.47688,1.063025 0.006,0.0025 0.0122,0.0046 0.0183,0.0067 z m 4.45438,1.710337 c 1.23642,0.518195 2.46059,1.068564 3.6546,1.678799 v 0 c 0.37123,0.189724 0.82596,0.04261 1.01568,-0.328612 0.18779,-0.367419 0.0458,-0.817528 -0.31887,-1.010638 -1.21991,-0.646042 -2.47294,-1.228655 -3.73973,-1.776377 v 0 c -0.39581,-0.171133 -0.85541,0.01101 -1.02654,0.406823 -0.17114,0.395817 0.011,0.855415 0.40682,1.026548 0.003,0.0011 0.005,0.0025 0.008,0.0035 z m 3.65457,1.678799 c 1.00256,0.51241 1.99051,1.054276 2.95345,1.637912 v 0 c 0.33271,0.201612 0.76585,0.09539 0.9675,-0.237278 0.19505,-0.32184 0.10265,-0.740199 -0.2098,-0.949925 -0.97074,-0.651616 -1.98134,-1.242942 -3.01435,-1.789959 v 0 c -0.3684,-0.195086 -0.82525,-0.05461 -1.02034,0.313831 -0.19512,0.368441 -0.0546,0.825253 0.31384,1.020374 0.003,0.0018 0.006,0.0035 0.01,0.005 z m 2.95345,1.637912 c 0.79922,0.484364 1.58436,0.995186 2.33133,1.557373 v 0 c 0.27362,0.205951 0.66242,0.151059 0.86837,-0.122555 0.19523,-0.259398 0.15737,-0.625475 -0.0868,-0.8394 -0.74108,-0.649181 -1.53769,-1.233875 -2.35518,-1.782621 v 0 c -0.323,-0.216817 -0.76059,-0.13074 -0.97741,0.192229 -0.21681,0.323003 -0.13074,0.760588 0.19223,0.977406 0.009,0.0061 0.0182,0.01192 0.0275,0.01757 z m 2.33133,1.557373 c 0.57916,0.435892 1.12283,0.92657 1.57897,1.49165 v 0 c 0.18902,0.234209 0.53213,0.270827 0.76637,0.08177 0.2255,-0.181998 0.2691,-0.50867 0.0993,-0.743479 -0.47882,-0.661953 -1.04937,-1.254266 -1.66306,-1.7919 v 0 c -0.25764,-0.225672 -0.64943,-0.199778 -0.8751,0.05782 -0.22567,0.257634 -0.19978,0.649429 0.0578,0.875101 0.0115,0.01013 0.0235,0.01979 0.0357,0.02903 z m 1.57893,1.49165 c 0.38178,0.473004 0.71512,0.989647 0.95264,1.550493 v 0 c 0.10675,0.252025 0.39762,0.369817 0.64968,0.263067 0.24384,-0.103258 0.36343,-0.379977 0.27153,-0.628368 -0.24437,-0.6604 -0.59616,-1.277267 -1.00817,-1.846897 v 0 c -0.17642,-0.243876 -0.5171,-0.298556 -0.76097,-0.122167 -0.24388,0.176424 -0.29859,0.517101 -0.1222,0.760977 0.006,0.0078 0.0114,0.01542 0.0175,0.02289 z m 0.95264,1.550493 c 0.20324,0.479814 0.34435,0.988519 0.38432,1.509219 v 0 c 0.0195,0.254247 0.24141,0.444535 0.49565,0.425062 0.24864,-0.01908 0.43723,-0.232198 0.42591,-0.48133 -0.0283,-0.622159 -0.16891,-1.23511 -0.38467,-1.818217 v 0 c -0.095,-0.256716 -0.38008,-0.387844 -0.6368,-0.29284 -0.25671,0.09497 -0.38781,0.380082 -0.29284,0.636799 0.002,0.0072 0.005,0.01425 0.008,0.02131 z m 1.0154,3.209996 c 0.21848,-0.558377 0.31772,-1.158064 0.29048,-1.757045 v 0 c -0.0116,-0.254706 -0.22747,-0.451838 -0.48221,-0.440231 -0.25471,0.01157 -0.4518,0.227435 -0.44023,0.482176 2.1e-4,0.0048 2.6e-4,0.0096 7.9e-4,0.01432 0.0363,0.473075 -0.0271,0.949113 -0.18563,1.396294 v 0 c -0.0804,0.226872 0.0383,0.476039 0.26515,0.556472 0.22175,0.0786 0.46587,-0.03291 0.5516,-0.251989 h -4e-5 z m -1.06595,1.659396 c 0.43917,-0.491419 0.82472,-1.042846 1.06595,-1.659396 h 4e-5 c 0.0877,-0.22419 -0.0229,-0.477026 -0.24709,-0.564727 -0.22419,-0.08773 -0.47702,0.02289 -0.56476,0.247086 -0.002,0.0043 -0.003,0.0087 -0.005,0.01316 -0.18652,0.526098 -0.5086,0.996597 -0.8719,1.416015 v 0 c -0.14996,0.173108 -0.13119,0.43501 0.0419,0.584976 0.1712,0.148308 0.42979,0.131763 0.58071,-0.03711 z m -1.75535,1.593285 c 0.6289,-0.479213 1.22791,-1.003088 1.75535,-1.593285 v 0 c 0.15265,-0.17078 0.13794,-0.432964 -0.0328,-0.585576 -0.17078,-0.152611 -0.43297,-0.137901 -0.58558,0.03288 -0.001,0.0018 -0.003,0.0032 -0.004,0.0048 -0.48119,0.555484 -1.04204,1.039072 -1.63245,1.474647 v 0 c -0.1851,0.13656 -0.22447,0.397333 -0.0879,0.582471 0.1366,0.185102 0.39737,0.224472 0.58247,0.08791 0.002,-0.0014 0.004,-0.0025 0.005,-0.0039 z m -2.29651,1.549153 c 0.79068,-0.477483 1.56164,-0.989224 2.29651,-1.549153 v 0 c 0.18299,-0.139417 0.2183,-0.40079 0.0789,-0.583776 -0.13787,-0.180975 -0.3955,-0.217805 -0.5786,-0.08273 -0.71995,0.531142 -1.47143,1.018857 -2.23999,1.476481 v 0 c -0.20447,0.121742 -0.27157,0.386257 -0.14979,0.590727 0.12178,0.204504 0.38625,0.271568 0.59072,0.149823 8e-4,-2.65e-4 0.001,-0.0011 0.002,-0.0013 z m -2.80642,1.538854 c 0.95331,-0.479285 1.89293,-0.987214 2.80645,-1.538888 v 0 c 0.20373,-0.123013 0.26914,-0.387914 0.14612,-0.591643 -0.12252,-0.202848 -0.3858,-0.268711 -0.58938,-0.147497 -0.89465,0.53273 -1.82157,1.01039 -2.76423,1.452104 v 0 c -0.22959,0.107596 -0.32851,0.380929 -0.22094,0.610553 0.10759,0.229587 0.38096,0.328507 0.61055,0.220908 0.004,-0.0019 0.008,-0.0036 0.0114,-0.0055 z m -3.50231,1.560547 c 1.18657,-0.475158 2.36008,-0.986261 3.50231,-1.560547 v 0 c 0.22655,-0.113914 0.31785,-0.38989 0.20397,-0.616411 -0.11169,-0.222144 -0.37987,-0.314994 -0.60501,-0.209513 -1.13235,0.530543 -2.29485,0.99568 -3.46936,1.424094 v 0 c -0.26737,0.09751 -0.40502,0.393276 -0.30751,0.660609 0.0975,0.267335 0.39327,0.40499 0.66061,0.307483 0.005,-0.0019 0.01,-0.0037 0.015,-0.0057 z m -4.12418,1.454078 c 1.3929,-0.430813 2.77057,-0.912037 4.12418,-1.454078 v 0 c 0.26416,-0.105799 0.39257,-0.405697 0.28677,-0.669891 -0.10347,-0.258374 -0.39341,-0.387879 -0.65486,-0.292486 -1.34327,0.489937 -2.70661,0.924171 -4.08255,1.312614 v 0 c -0.30593,0.08636 -0.48394,0.404389 -0.39758,0.710318 0.0864,0.305965 0.40438,0.483939 0.71031,0.397579 0.005,-0.0013 0.009,-0.0028 0.0137,-0.004 z m -4.62693,1.24654 c 1.55537,-0.364525 3.1006,-0.774452 4.62693,-1.24654 v 0 c 0.30367,-0.09391 0.47374,-0.416277 0.3798,-0.719984 -0.0923,-0.298379 -0.40566,-0.468701 -0.70626,-0.383857 -1.51067,0.426436 -3.03833,0.791667 -4.57475,1.11252 v 0 c -0.34276,0.07158 -0.56258,0.407458 -0.491,0.750218 0.0716,0.342757 0.40746,0.562573 0.75018,0.490995 0.005,-0.0011 0.0101,-0.0021 0.0151,-0.0032 v -3.5e-5 z m -5.15048,1.124127 c 1.72194,-0.350592 3.43955,-0.723125 5.15048,-1.124127 v 3.7e-5 c 0.34089,-0.07991 0.55249,-0.421042 0.47258,-0.761966 -0.0785,-0.335034 -0.40999,-0.546277 -0.74686,-0.475932 -1.70614,0.356269 -3.4193,0.678391 -5.13694,0.974267 v 0 c -0.38428,0.06621 -0.64216,0.431411 -0.57594,0.815692 0.0662,0.384281 0.43141,0.642162 0.81569,0.575945 0.007,-0.0011 0.014,-0.0024 0.021,-0.0039 z m -5.52909,0.939977 c 1.8523,-0.254989 3.69687,-0.566949 5.52909,-0.939977 v 0 c 0.38213,-0.07782 0.62883,-0.450638 0.55104,-0.832768 -0.0762,-0.373944 -0.43568,-0.61976 -0.81178,-0.554953 -1.81804,0.313229 -3.64222,0.590584 -5.47081,0.834813 v 0 c -0.41232,0.05507 -0.70199,0.434023 -0.64692,0.846349 0.0551,0.412361 0.43402,0.702027 0.84638,0.646922 0.001,-1.05e-4 0.002,-2.46e-4 0.003,-2.64e-4 z m -5.80929,0.697828 c 1.93999,-0.201295 3.87706,-0.431869 5.80929,-0.697828 v 0 c 0.41212,-0.05673 0.70023,-0.436811 0.6435,-0.84896 -0.0566,-0.410951 -0.43476,-0.698818 -0.84596,-0.643925 -1.91544,0.255834 -3.83607,0.472123 -5.75976,0.655778 v 0 c -0.42401,0.0405 -0.73495,0.417055 -0.69445,0.841092 0.0405,0.42404 0.41706,0.734943 0.84106,0.694444 0.002,-1.78e-4 0.004,-2.65e-4 0.006,-7.94e-4 z m -6.19746,0.514244 c 2.0689,-0.131162 4.13547,-0.300318 6.19746,-0.514244 v 0 c 0.42368,-0.04395 0.73148,-0.423085 0.68752,-0.846735 -0.0437,-0.421254 -0.41885,-0.728417 -0.84042,-0.6882 -2.04156,0.19491 -4.08771,0.340183 -6.1359,0.44337 v 0 c -0.44358,0.02236 -0.78507,0.400087 -0.7627,0.843669 0.0223,0.443582 0.40005,0.785072 0.84363,0.762706 0.004,-1.77e-4 0.007,-2.64e-4 0.0104,-7.93e-4 z m -6.52569,0.280035 c 2.17678,-0.05076 4.35268,-0.142309 6.52569,-0.280035 v 0 c 0.44326,-0.02811 0.77981,-0.41021 0.75173,-0.853474 -0.0278,-0.439208 -0.40354,-0.774454 -0.84307,-0.752335 -2.15589,0.108622 -4.31345,0.184362 -6.471566,0.23114 v 0 c -0.456951,0.0099 -0.819325,0.388374 -0.809414,0.845291 0.0099,0.456954 0.38834,0.819327 0.84529,0.809413 2.7e-4,0 8e-4,0 0.001,-3.4e-5 v 3.4e-5 z m -6.710077,0.08502 c 2.236894,-0.0049 4.473787,-0.03291 6.710077,-0.08502 v -3.4e-5 c 0.45692,-0.01061 0.8187,-0.389678 0.80804,-0.846595 -0.0107,-0.456391 -0.38887,-0.817952 -0.845256,-0.808075 -2.22518,0.04826 -4.450855,0.07429 -6.67653,0.0792 v 0 c -0.458542,0.0011 -0.829416,0.373555 -0.828429,0.832097 0.0011,0.458541 0.373557,0.82945 0.832098,0.828428 0,0 0,0 0,-1e-6 z M 86.499729,92.40748 c 2.264621,0.07274 4.530479,0.106997 6.796264,0.101988 v 0 c 0.458539,-0.0011 0.829451,-0.373557 0.828427,-0.832098 -0.0011,-0.458539 -0.373555,-0.82945 -0.832096,-0.828427 -2.246842,0.005 -4.493753,-0.02872 -6.739467,-0.100367 v 0 c -0.458116,-0.01463 -0.841338,0.344877 -0.855943,0.802995 -0.01461,0.458047 0.344805,0.841198 0.802815,0.855909 z m -6.850978,-0.3707 c 2.280637,0.173143 4.564978,0.297286 6.850978,0.3707 v 0 c 0.458118,0.01474 0.841412,-0.3447 0.856122,-0.802818 0.01471,-0.458081 -0.344736,-0.841375 -0.802817,-0.856086 -7.1e-5,0 -1.4e-4,0 -1.77e-4,0 -2.261833,-0.07218 -4.52201,-0.194767 -6.778482,-0.366077 v 0 c -0.456814,-0.03468 -0.855276,0.307517 -0.889953,0.764328 -0.03468,0.456814 0.307552,0.855239 0.764329,0.889953 z m -6.935965,-0.669642 c 2.307201,0.269523 4.619731,0.493784 6.935965,0.669642 v 0 c 0.456811,0.03468 0.855273,-0.307552 0.889952,-0.764363 0.03468,-0.456777 -0.307517,-0.855239 -0.764328,-0.889918 -2.295737,-0.174308 -4.588404,-0.389043 -6.876839,-0.641668 v -3.4e-5 c -0.449262,-0.04956 -0.853651,0.274426 -0.903253,0.723688 -0.04935,0.447252 0.271569,0.850443 0.718503,0.902653 z m -6.850557,-0.946539 c 2.276263,0.365231 4.560747,0.679064 6.850557,0.946539 v 0 c 0.448945,0.05246 0.855379,-0.268957 0.907838,-0.717902 0.05242,-0.448945 -0.268994,-0.855382 -0.717939,-0.907838 -0.0019,-2.12e-4 -0.0035,-2.65e-4 -0.0052,-7.94e-4 -2.267022,-0.250225 -4.528397,-0.552167 -6.780779,-0.911402 v 0 c -0.43942,-0.0701 -0.85245,0.22934 -0.922549,0.66876 -0.07006,0.43914 0.228917,0.851996 0.66802,0.922444 z m -6.550766,-1.182581 c 2.175298,0.438433 4.35977,0.831041 6.550766,1.182582 v 0 c 0.439351,0.07052 0.852699,-0.228529 0.923184,-0.667877 0.07048,-0.439386 -0.228529,-0.852699 -0.667914,-0.923221 -2.46e-4,-3.5e-5 -2.65e-4,-6.9e-5 -7.94e-4,-1.06e-4 -2.169972,-0.34611 -4.333383,-0.733812 -6.487515,-1.167977 v 0 c -0.435361,-0.08774 -0.859435,0.194064 -0.947171,0.629428 -0.08777,0.435361 0.194027,0.859435 0.629391,0.947171 0,0 0,0 0,0 z M 53.19803,87.788985 c 2.019109,0.557882 4.060119,1.035191 6.113433,1.449033 v 0 c 0.435364,0.08777 0.859438,-0.194027 0.947174,-0.629391 0.08777,-0.435361 -0.194027,-0.859435 -0.629391,-0.947208 -2.019617,-0.407035 -4.029121,-0.865822 -6.021437,-1.39079 v 0 c -0.419957,-0.110667 -0.850106,0.140089 -0.960761,0.560035 -0.109725,0.416418 0.135904,0.843632 0.550982,0.958321 z M 47.880462,86.08401 c 1.744017,0.652463 3.523118,1.209181 5.317568,1.704975 v 0 c 0.418606,0.115676 0.851715,-0.129929 0.967376,-0.548534 0.115659,-0.418608 -0.129931,-0.851712 -0.548537,-0.967388 -0.003,-7.94e-4 -0.006,-0.0019 -0.0091,-0.0024 -1.756942,-0.462952 -3.500066,-0.983861 -5.210742,-1.59706 v 0 c -0.390472,-0.139983 -0.820484,0.06308 -0.960459,0.453565 -0.13861,0.386681 0.05913,0.812977 0.443854,0.956874 z M 43.24704,84.149729 c 1.51843,0.704956 3.065516,1.347753 4.633426,1.934316 v -3.5e-5 c 0.388511,0.145344 0.821277,-0.05179 0.966615,-0.440266 0.145337,-0.388515 -0.05179,-0.821301 -0.440302,-0.966648 -0.0032,-0.0011 -0.0065,-0.0024 -0.0097,-0.0035 -1.541385,-0.552555 -3.064073,-1.157851 -4.560919,-1.82178 v 0 c -0.359809,-0.159597 -0.780877,0.0028 -0.940474,0.362516 -0.157667,0.355457 -0.0013,0.771665 0.351367,0.935424 z m -4.103482,-2.060221 c 1.343184,0.734378 2.715126,1.415627 4.103482,2.060221 v 0 c 0.357019,0.165735 0.78081,0.01069 0.946567,-0.346321 0.165756,-0.35701 0.01071,-0.780804 -0.346308,-0.946574 -0.0037,-0.0019 -0.0074,-0.0035 -0.01115,-0.0051 -1.376846,-0.610727 -2.743673,-1.2446 -4.093619,-1.912831 h 4e-6 c -0.321085,-0.158927 -0.710213,-0.02748 -0.86915,0.293581 -0.154379,0.311891 -0.03516,0.690034 0.270175,0.856969 z m -3.301545,-2.034294 c 1.054982,0.748242 2.167262,1.414145 3.301545,2.034294 v 0 c 0.31435,0.171874 0.708505,0.05637 0.880374,-0.257987 0.171867,-0.314361 0.05636,-0.708484 -0.257982,-0.880357 -0.0077,-0.0042 -0.01553,-0.0083 -0.02342,-0.01221 -1.113343,-0.55111 -2.205959,-1.151749 -3.238589,-1.843758 v 0 c -0.267522,-0.179277 -0.629722,-0.107734 -0.808997,0.159778 -0.175927,0.262537 -0.110705,0.617432 0.147066,0.800241 z m -2.413444,-2.111481 c 0.714713,0.798336 1.540686,1.492497 2.413441,2.111481 v 0 c 0.262678,0.186302 0.626646,0.12439 0.812948,-0.138289 0.186302,-0.262678 0.124385,-0.626639 -0.138293,-0.812941 -0.0042,-0.0032 -0.0085,-0.0059 -0.01272,-0.0088 -0.82266,-0.551286 -1.608561,-1.166107 -2.301656,-1.875261 v 0 c -0.204544,-0.209267 -0.540015,-0.213113 -0.749296,-0.0086 -0.202834,0.198226 -0.2136,0.521052 -0.02442,0.732366 z M 31.99622,75.534332 c 0.296439,0.896338 0.80457,1.708185 1.432349,2.409401 v 0 c 0.195192,0.218017 0.530172,0.236538 0.748202,0.04135 0.218028,-0.195192 0.236542,-0.53019 0.04135,-0.748206 -0.0052,-0.0057 -0.01044,-0.0114 -0.01584,-0.01693 -0.564176,-0.57725 -1.037004,-1.248233 -1.334378,-2.00152 v 0 c -0.09405,-0.238239 -0.363425,-0.355114 -0.601662,-0.261063 -0.228766,0.09028 -0.34725,0.343464 -0.270024,0.576968 z m 0,0 v 0 c 0.08043,0.243205 0.342763,0.375144 0.585939,0.29471 0.243181,-0.08043 0.375116,-0.342759 0.294686,-0.585964 -0.0028,-0.0083 -0.0057,-0.01651 -0.0089,-0.02466 -0.273265,-0.69222 -0.347317,-1.443002 -0.222426,-2.176215 v 0 c 0.03791,-0.222568 -0.111771,-0.433705 -0.334317,-0.471594 -0.217646,-0.03708 -0.425401,0.105375 -0.469247,0.321769 -0.178231,0.87951 -0.127625,1.789536 0.154301,2.641953 z m 0.649263,-2.492128 c 0.153984,-0.903993 0.739733,-1.683703 1.366689,-2.323183 v 0 c 0.144237,-0.147144 0.141895,-0.383328 -0.0052,-0.527579 -0.145277,-0.142417 -0.377881,-0.14217 -0.522866,7.14e-4 -0.753558,0.741786 -1.428101,1.64398 -1.642166,2.700373 h 3e-6 c -0.04483,0.221262 0.09818,0.436951 0.319434,0.481789 0.221251,0.04484 0.436957,-0.09818 0.481792,-0.31944 8.46e-4,-0.0042 0.0016,-0.0083 0.0023,-0.01252 z m 1.366689,-2.323183 c 0.357061,-0.364208 0.829706,-0.635776 1.258482,-0.903711 0.783269,-0.489373 1.589063,-0.942869 2.397866,-1.388392 1.287875,-0.709365 2.590172,-1.39252 3.896836,-2.066572 1.590287,-0.820314 3.188458,-1.625318 4.790302,-2.422807 v 0 c 0.173327,-0.08629 0.243882,-0.296757 0.157593,-0.470077 -0.08623,-0.173178 -0.296471,-0.243804 -0.469759,-0.157762 -1.722702,0.855451 -3.441492,1.718945 -5.151158,2.600184 -1.196301,0.61662 -2.388715,1.241213 -3.569653,1.886832 -0.873954,0.477802 -1.745548,0.963542 -2.589868,1.492462 -0.430043,0.269416 -0.884876,0.544653 -1.248728,0.902828 v 0 c -0.146829,0.144533 -0.148688,0.380718 -0.0042,0.527544 0.144533,0.146826 0.380729,0.148696 0.527555,0.0042 0.0016,-0.0014 0.0031,-0.0032 0.0047,-0.0047 z" />
  </g>
</svg>
