<?xml version="1.0" encoding="UTF-8" standalone="no"?>
<!-- Created with Inkscape (http://www.inkscape.org/) -->

<svg
   xmlns:dc="http://purl.org/dc/elements/1.1/"
   xmlns:cc="http://creativecommons.org/ns#"
   xmlns:rdf="http://www.w3.org/1999/02/22-rdf-syntax-ns#"
   xmlns:svg="http://www.w3.org/2000/svg"
   xmlns="http://www.w3.org/2000/svg"
   xmlns:sodipodi="http://sodipodi.sourceforge.net/DTD/sodipodi-0.dtd"
   xmlns:inkscape="http://www.inkscape.org/namespaces/inkscape"
   width="158.32378mm"
   height="33.38612mm"
   viewBox="0 0 158.32378 33.38612"
   version="1.1"
   id="svg7312"
   inkscape:version="0.92.3 (2405546, 2018-03-11)"
   sodipodi:docname="problems_arrow.svg">
  <defs
     id="defs7306" />
  <sodipodi:namedview
     id="base"
     pagecolor="#ffffff"
     bordercolor="#666666"
     borderopacity="1.0"
     inkscape:pageopacity="0.0"
     inkscape:pageshadow="2"
     inkscape:zoom="0.98994949"
     inkscape:cx="104.76327"
     inkscape:cy="199.51161"
     inkscape:document-units="mm"
     inkscape:current-layer="layer1"
     showgrid="false"
     inkscape:window-width="1920"
     inkscape:window-height="1052"
     inkscape:window-x="1920"
     inkscape:window-y="0"
     inkscape:window-maximized="1"
     fit-margin-top="0"
     fit-margin-left="0"
     fit-margin-right="0"
     fit-margin-bottom="0" />
  <metadata
     id="metadata7309">
    <rdf:RDF>
      <cc:Work
         rdf:about="">
        <dc:format>image/svg+xml</dc:format>
        <dc:type
           rdf:resource="http://purl.org/dc/dcmitype/StillImage" />
        <dc:title></dc:title>
      </cc:Work>
    </rdf:RDF>
  </metadata>
  <g
     inkscape:label="Layer 1"
     inkscape:groupmode="layer"
     id="layer1"
     transform="translate(-134.17042,-129.77104)">
    <path
       inkscape:connector-curvature="0"
       id="path7891"
       style="fill:#a42604;fill-opacity:1;fill-rule:nonzero;stroke:none;stroke-width:0.35277778"
       d="m 158.00025,130.23608 c 0.009,0.0546 -0.021,0.11869 -0.0409,0.16827 -0.0397,0.0993 -0.0904,0.19422 -0.14386,0.28667 l -2e-5,-2e-5 c -0.0482,0.0834 -0.0196,0.19013 0.0638,0.23837 0.0772,0.0446 0.17566,0.0238 0.22822,-0.0483 0.12804,-0.1754 0.25535,-0.35148 0.38559,-0.52529 v 0 c 0.0914,-0.12192 0.0667,-0.29485 -0.0552,-0.38627 -0.12192,-0.0914 -0.29484,-0.0667 -0.38627,0.0552 -0.0451,0.0606 -0.0639,0.13679 -0.0514,0.21131 z m 0.41418,0.25201 c 0.0673,-0.10035 0.1613,-0.21184 0.17224,-0.33627 v 0 c 0.003,-0.0383 8e-5,-0.0768 -0.01,-0.11404 -0.0373,-0.14079 -0.1594,-0.24001 -0.30066,-0.26189 -0.0587,-0.009 -0.11882,-0.005 -0.17668,0.008 -0.09,0.0202 -0.17418,0.0613 -0.25277,0.10871 v 0 c -0.19945,0.12007 -0.26376,0.37916 -0.14369,0.57858 0.12007,0.19946 0.37916,0.26377 0.57858,0.1437 0.0529,-0.0319 0.0983,-0.0751 0.13268,-0.12649 z m -1.76723,0.72282 v 0 c -0.18163,0.23752 -0.13639,0.57727 0.10108,0.75895 0.2375,0.1816 0.57728,0.13638 0.75893,-0.10112 0.008,-0.0105 0.0161,-0.0218 0.0236,-0.0329 0.29352,-0.44982 0.58477,-0.90137 0.88383,-1.34753 l -3e-5,-3e-5 c 0.12964,-0.19334 0.0779,-0.4552 -0.11545,-0.58485 -0.13582,-0.0911 -0.31206,-0.0953 -0.45215,-0.011 -0.1976,0.11895 -0.35925,0.30096 -0.51126,0.47136 -0.24251,0.27128 -0.46737,0.55839 -0.68833,0.84732 z m -3e-5,3e-5 c -0.39779,0.52007 -0.79562,1.04019 -1.19367,1.56007 v 0 c -0.20194,0.26377 -0.15183,0.6413 0.11194,0.84325 0.26377,0.20193 0.6413,0.15183 0.84323,-0.11193 0.004,-0.006 0.009,-0.0107 0.0125,-0.0165 0.38453,-0.53977 0.74756,-1.09509 1.10963,-1.65009 v 0 c 0.16334,-0.25043 0.0928,-0.58583 -0.1576,-0.74917 -0.23723,-0.1548 -0.55371,-0.10049 -0.72583,0.1245 z m -1.19367,1.56007 c -0.44869,0.58606 -0.9253,1.15142 -1.39816,1.71789 v 0 c -0.22698,0.27202 -0.19058,0.67647 0.0814,0.90352 0.27199,0.22697 0.67647,0.19059 0.9035,-0.0814 0.005,-0.006 0.01,-0.012 0.0142,-0.0183 0.46245,-0.59655 0.92811,-1.19239 1.3662,-1.80726 v 0 c 0.19278,-0.2705 0.1297,-0.64613 -0.14086,-0.83888 -0.264,-0.18812 -0.62957,-0.13318 -0.82662,0.1242 z m -1.39816,1.71789 c -0.6857,0.82149 -1.38312,1.63311 -2.09034,2.43611 v 0 c -0.25519,0.28943 -0.22708,0.7311 0.0625,0.98613 0.28943,0.25519 0.73107,0.22705 0.98613,-0.0625 0.005,-0.006 0.0105,-0.0124 0.0157,-0.0185 0.68665,-0.83651 1.36248,-1.68182 2.02547,-2.53718 l -2e-5,-2e-5 c 0.21706,-0.27999 0.16601,-0.68294 -0.11402,-0.89997 -0.27289,-0.21144 -0.66414,-0.1691 -0.8854,0.0959 z m -2.09034,2.43611 c -0.53981,0.61291 -1.07962,1.22583 -1.61979,1.83841 v 0 c -0.26636,0.30151 -0.23719,0.76205 0.0645,1.02814 0.30148,0.26633 0.76202,0.23716 1.02811,-0.0646 4.6e-4,-5.4e-4 6.6e-4,-7.5e-4 0.001,-0.001 0.54378,-0.61986 1.06708,-1.25808 1.59022,-1.89538 v 0 c 0.24485,-0.29828 0.20154,-0.7385 -0.0967,-0.98336 -0.29099,-0.2388 -0.71881,-0.20425 -0.96762,0.0782 z m -1.61979,1.83841 c -0.50802,0.57615 -1.01569,1.15267 -1.52332,1.72913 v 0 c -0.27153,0.30859 -0.24176,0.77881 0.0667,1.05048 0.30861,0.27155 0.77882,0.24174 1.05046,-0.0667 0.003,-0.004 0.007,-0.008 0.01,-0.011 0.49316,-0.58291 0.98681,-1.16562 1.49039,-1.73962 l 3e-5,2e-5 c 0.2653,-0.30243 0.23517,-0.76267 -0.0673,-1.02795 -0.30186,-0.26477 -0.7611,-0.23535 -1.02666,0.0658 z m -1.52332,1.72913 c -0.48035,0.54548 -0.96242,1.09032 -1.42711,1.64935 v 0 c -0.26801,0.32245 -0.22391,0.80106 0.0985,1.06908 0.32243,0.26798 0.80104,0.22389 1.06906,-0.0985 0.45879,-0.55191 0.9228,-1.09945 1.38633,-1.64735 v 0 c 0.26549,-0.31384 0.22636,-0.78344 -0.0875,-1.04893 -0.30943,-0.26182 -0.77149,-0.2279 -1.03935,0.0763 z m -1.42711,1.64935 c -0.37706,0.45358 -0.73304,0.92487 -1.08476,1.39818 v 0 c -0.25056,0.33717 -0.1804,0.8136 0.15672,1.06416 0.33718,0.25056 0.81361,0.18041 1.06418,-0.15673 4.1e-4,-5.5e-4 5.7e-4,-8.3e-4 0.001,-0.002 0.33368,-0.45159 0.67123,-0.90153 1.03022,-1.33338 v 0 c 0.26801,-0.32246 0.22392,-0.80107 -0.0985,-1.06913 -0.32242,-0.26798 -0.80107,-0.2239 -1.06906,0.0985 -3e-5,3e-5 -3e-5,3e-5 -3e-5,3e-5 z m -1.08476,1.39818 c -0.36422,0.49009 -0.72175,0.98703 -1.04464,1.5056 v 0 c -0.22469,0.3609 -0.11428,0.83561 0.24664,1.06033 0.3609,0.22469 0.83561,0.11427 1.06029,-0.24662 0.003,-0.005 0.006,-0.01 0.008,-0.0151 0.28729,-0.48509 0.61613,-0.94586 0.95094,-1.3989 v 0 c 0.24967,-0.33782 0.17822,-0.8141 -0.1596,-1.06376 -0.33719,-0.24922 -0.81244,-0.17856 -1.06254,0.15795 z m -1.04464,1.5056 c -0.20044,0.32197 -0.40004,0.64755 -0.56592,0.98906 v 0 c -0.19126,0.39374 -0.0271,0.86803 0.36666,1.05929 0.39378,0.19129 0.86806,0.0271 1.05933,-0.36664 0.01,-0.0196 0.0184,-0.0399 0.0263,-0.0605 0.11111,-0.28736 0.27301,-0.55795 0.42946,-0.82219 l 3e-5,3e-5 c 0.21659,-0.36583 0.0957,-0.83797 -0.27016,-1.05457 -0.36009,-0.21319 -0.8245,-0.0997 -1.04569,0.25549 z m -0.5659,0.98903 c -0.0947,0.19504 -0.12419,0.41806 -0.0612,0.62898 v 0 c 0.0328,0.10981 0.0892,0.21106 0.16517,0.29682 l -7.5e-4,6.6e-4 c 0.2859,0.3256 0.78167,0.35769 1.10724,0.0717 0.0283,-0.0247 0.0546,-0.0518 0.0794,-0.08 0.0727,-0.0845 0.1228,-0.18256 0.16268,-0.28568 v 0 c 0.0482,-0.12484 0.0641,-0.25982 0.0462,-0.39241 0.0478,-0.2597 0.10313,-0.51843 0.15911,-0.7769 v 0 c 0.0228,-0.10528 -0.0441,-0.20913 -0.14934,-0.23194 -0.0487,-0.0105 -0.0995,-0.002 -0.14211,0.0237 -0.17659,0.10667 -0.35471,0.21082 -0.53677,0.30803 l 6e-5,-4.1e-4 c -0.34241,-0.0508 -0.67815,0.12637 -0.82937,0.43771 z" />
    <path
       inkscape:connector-curvature="0"
       id="path7893"
       style="fill:#a42604;fill-opacity:1;fill-rule:nonzero;stroke:none;stroke-width:0.35277778"
       d="m 143.77942,146.01682 c 0.20954,0.15332 0.41308,0.31486 0.61241,0.48121 v 0 c 0.074,0.0616 0.18404,0.0517 0.24575,-0.0222 0.0204,-0.0236 0.0332,-0.0529 0.0382,-0.0837 0.0566,-0.34667 0.0165,-0.7115 -0.1509,-1.02364 l -3e-5,3e-5 c -0.13223,-0.24649 -0.43926,-0.33918 -0.68578,-0.20696 -0.24652,0.13225 -0.3392,0.43928 -0.20697,0.68583 0.0358,0.0667 0.0861,0.12465 0.14732,0.16935 z m -0.73213,-0.52421 c 0.24526,0.17298 0.48986,0.347 0.73213,0.52421 v 0 c 0.22577,0.16519 0.54275,0.11605 0.70791,-0.10974 0.11513,-0.1573 0.12969,-0.36672 0.0376,-0.53849 -0.16482,-0.30729 -0.38303,-0.58483 -0.61468,-0.84412 v 0 c -0.24015,-0.26875 -0.65272,-0.29204 -0.92154,-0.0519 -0.26883,0.2401 -0.29203,0.65272 -0.0519,0.92153 0.0328,0.0371 0.07,0.0701 0.11075,0.0982 l -2e-5,2e-5 z m -0.70902,-0.47615 c 0.24182,0.1502 0.47649,0.31204 0.70902,0.47615 v 0 c 0.29454,0.20776 0.70176,0.13743 0.90952,-0.15711 0.17516,-0.2482 0.15579,-0.58446 -0.0466,-0.81103 -0.22231,-0.24886 -0.45487,-0.49153 -0.71266,-0.70415 v 0 c -0.31447,-0.25939 -0.77961,-0.21484 -1.03905,0.0995 -0.25937,0.31443 -0.21484,0.77961 0.0996,1.03901 0.0255,0.0209 0.0523,0.0401 0.0802,0.0576 z m -0.68504,-0.46243 c 0.22319,0.16158 0.45102,0.31695 0.68504,0.46243 v 0 c 0.34616,0.21517 0.80127,0.10892 1.01642,-0.23729 0.1951,-0.31384 0.12794,-0.72366 -0.15711,-0.95886 -0.19203,-0.15839 -0.38059,-0.32091 -0.56695,-0.4859 v 0 c -0.3234,-0.28658 -0.81805,-0.25632 -1.10444,0.0673 -0.28658,0.32339 -0.25632,0.81804 0.0672,1.10444 0.019,0.0171 0.0389,0.0332 0.0596,0.0482 z m -0.9837,-0.78903 c 0.32041,0.27156 0.64327,0.54267 0.9837,0.78903 l -2e-5,3e-5 c 0.35006,0.25335 0.8392,0.17505 1.09257,-0.175 0.23601,-0.32599 0.18619,-0.77786 -0.11516,-1.04464 -0.28807,-0.2553 -0.5624,-0.52649 -0.83595,-0.7971 l -2e-5,3e-5 c -0.32693,-0.32388 -0.85454,-0.32135 -1.17838,0.006 -0.32388,0.32693 -0.32134,0.85452 0.006,1.17838 0.0153,0.0151 0.0312,0.0298 0.0476,0.0437 z m -1.16254,-1.14952 c 0.35464,0.41469 0.7464,0.79685 1.16251,1.14949 l -3e-5,3e-5 c 0.35105,0.29757 0.87691,0.25417 1.17445,-0.0969 0.2813,-0.33198 0.25989,-0.82452 -0.0492,-1.13073 -0.31272,-0.30979 -0.59944,-0.64703 -0.84345,-1.01376 v 0 c -0.27746,-0.41702 -0.84043,-0.53011 -1.25743,-0.25266 -0.41699,0.2775 -0.53011,0.84047 -0.25262,1.25745 0.0199,0.0306 0.0422,0.0594 0.0658,0.0871 z m -0.79242,-0.91486 c 0.26686,0.30255 0.53019,0.60824 0.79239,0.91483 v 0 c 0.3255,0.38069 0.89802,0.42537 1.27869,0.0998 0.34862,-0.29816 0.41975,-0.8097 0.16561,-1.19161 -0.21176,-0.31821 -0.41803,-0.64104 -0.60344,-0.97544 v 0 c -0.26924,-0.48559 -0.88115,-0.66095 -1.3667,-0.39171 -0.48559,0.26924 -0.66095,0.88111 -0.39171,1.36669 0.0351,0.0635 0.0771,0.12301 0.12521,0.17738 z m -0.57705,-0.72645 c 0.17088,0.2577 0.37286,0.49488 0.57705,0.72645 l 3e-5,-3e-5 c 0.36716,0.41648 1.0025,0.45635 1.41891,0.0891 0.35401,-0.31224 0.44321,-0.82869 0.21431,-1.24151 -0.10072,-0.18157 -0.20511,-0.36672 -0.27838,-0.56162 v 0 c -0.21214,-0.56444 -0.84169,-0.85005 -1.40615,-0.63788 -0.56447,0.21217 -0.85008,0.84171 -0.63788,1.40615 0.029,0.0771 0.0666,0.1507 0.11211,0.21932 z m -0.22307,-1.37064 c -0.0971,0.2713 -0.10049,0.56831 -0.0236,0.84491 0.0521,0.18767 0.13929,0.36378 0.24671,0.52573 v 0 c 0.33327,0.50254 1.01083,0.63975 1.51337,0.30648 0.401,-0.26595 0.58066,-0.76307 0.44223,-1.22395 l -6.5e-4,7.6e-4 c 0.0417,-0.61891 -0.42618,-1.15442 -1.04507,-1.19612 -0.50113,-0.0338 -0.96376,0.2693 -1.13298,0.74222 z m 2e-5,-7e-5 v 0 c -0.20899,0.584 0.095,1.22688 0.67901,1.43586 0.58398,0.20902 1.22686,-0.095 1.43587,-0.67895 0.0531,-0.14833 0.0986,-0.30172 0.11685,-0.45867 v 0 c 0.0314,-0.27053 -0.0525,-0.54181 -0.23134,-0.74727 -0.25532,-0.29352 -0.65994,-0.42421 -1.04089,-0.36141 -0.44028,0.0726 -0.80982,0.39223 -0.9595,0.81044 z m 1.99939,0.82134 c 0.25172,-0.14864 0.52583,-0.26227 0.7947,-0.37542 v 0 c 0.0955,-0.0401 0.14015,-0.15019 0.10012,-0.24553 -0.0137,-0.0326 -0.0364,-0.0608 -0.0656,-0.081 -0.23008,-0.1606 -0.46012,-0.32143 -0.68771,-0.48567 -0.061,-0.0441 -0.1219,-0.0881 -0.18183,-0.13357 -0.13391,-0.10154 0.18006,0.14447 -0.08,-0.0658 v 0 c -0.41563,-0.33654 -1.02535,-0.27255 -1.36197,0.14304 -0.33663,0.41558 -0.27257,1.02537 0.14303,1.36194 0.40523,0.32829 0.99764,0.27659 1.34,-0.11684 l -7.7e-4,-6.5e-4 z" />
    <path
       inkscape:connector-curvature="0"
       id="path7895"
       style="fill:#a42604;fill-opacity:1;fill-rule:nonzero;stroke:none;stroke-width:0.35277778"
       d="m 139.2174,141.15241 c 0.0158,-0.12434 0.0112,-0.26085 -0.0724,-0.3623 v 0 c -0.0195,-0.0234 -0.0419,-0.0442 -0.068,-0.0602 l -0.0517,-0.0268 c -0.0272,-0.0107 -0.0557,-0.0173 -0.0847,-0.0196 -0.11989,-0.009 -0.22705,0.0508 -0.32004,0.11967 v 0 c -0.16685,0.12354 -0.20191,0.35893 -0.0783,0.52577 0.12355,0.16686 0.35901,0.20184 0.52581,0.0783 0.0823,-0.0611 0.13606,-0.15314 0.14913,-0.25466 z m -1.57508,2.39742 v 0 c -0.0814,0.31709 0.10975,0.6401 0.42684,0.72143 0.31709,0.0814 0.64011,-0.10975 0.72143,-0.42685 0.004,-0.0178 0.008,-0.0353 0.0111,-0.0532 0.0989,-0.61522 0.19773,-1.23042 0.29473,-1.84591 0.0416,-0.26394 0.0873,-0.52783 0.12101,-0.79294 v 0 c 0.0262,-0.20593 -0.11958,-0.39408 -0.32555,-0.42023 -0.0962,-0.0122 -0.19323,0.0132 -0.27109,0.0709 -0.12884,0.0954 -0.20334,0.25025 -0.26634,0.39329 -0.0749,0.16993 -0.13618,0.34595 -0.19441,0.52218 -0.19895,0.60226 -0.36016,1.21726 -0.51771,1.83137 z m 0,0 c -0.27241,1.06168 -0.54283,2.12397 -0.82554,3.18297 v 0 c -0.103,0.38593 0.12634,0.7823 0.51225,0.88532 0.38595,0.10302 0.78232,-0.12633 0.88532,-0.51225 0.003,-0.0107 0.005,-0.0212 0.008,-0.0318 0.0925,-0.42232 0.16875,-0.84839 0.24385,-1.27411 0.1179,-0.66851 0.22799,-1.33848 0.33574,-2.00869 v 0 c 0.052,-0.32323 -0.16792,-0.62738 -0.49112,-0.67932 -0.30242,-0.0487 -0.5921,0.14118 -0.66823,0.43789 z m -0.82552,3.18294 c -0.21552,0.80723 -0.44224,1.61153 -0.66955,2.41549 v 0 c -0.11563,0.4088 0.1221,0.8339 0.53087,0.9495 0.40878,0.11558 0.83388,-0.12209 0.94946,-0.53088 0.002,-0.008 0.005,-0.0153 0.006,-0.0235 0.20428,-0.82099 0.40723,-1.64278 0.58822,-2.46929 v 0 c 0.0854,-0.39022 -0.16156,-0.77578 -0.55179,-0.86123 -0.37776,-0.0827 -0.75374,0.14634 -0.85348,0.51995 z m -0.66955,2.41549 c -0.24125,0.85321 -0.4822,1.7065 -0.72125,2.56034 v 0 c -0.11849,0.42306 0.12842,0.86203 0.55151,0.98049 0.42303,0.11845 0.86202,-0.12848 0.98048,-0.55151 6e-5,-2.3e-4 1e-5,-3.4e-4 3e-4,-8e-4 0.24016,-0.86049 0.45993,-1.72668 0.6757,-2.59358 v 0 c 0.10258,-0.41224 -0.14844,-0.8296 -0.56069,-0.93218 -0.40304,-0.10033 -0.81293,0.13746 -0.92593,0.53711 z m -0.72125,2.56034 c -0.17867,0.63802 -0.34819,1.27863 -0.50527,1.92228 v 0 c -0.10423,0.42704 0.15744,0.85771 0.58446,0.96193 0.42707,0.10422 0.85773,-0.15747 0.96193,-0.5845 0,0 0,0 0,0 0.15293,-0.62658 0.31767,-1.25019 0.49104,-1.87139 v 0 c 0.11807,-0.42314 -0.12919,-0.86192 -0.55237,-0.98002 -0.42288,-0.11799 -0.86143,0.12893 -0.97979,0.5517 z m -0.50527,1.92228 c -0.1416,0.58013 -0.26457,1.16523 -0.35714,1.75528 v 0 c -0.067,0.42714 0.22493,0.82771 0.65205,0.8947 0.41719,0.0655 0.81112,-0.21182 0.89026,-0.62666 0.10529,-0.55177 0.22803,-1.10021 0.36121,-1.64585 v 0 c 0.10425,-0.42704 -0.15743,-0.8577 -0.58444,-0.96192 -0.42702,-0.10428 -0.85769,0.15741 -0.96194,0.58445 0,0 0,0 0,0 z m -0.35714,1.75528 c -0.0802,0.51112 -0.15126,1.02367 -0.21048,1.53766 v 0 c -0.0481,0.41789 0.25159,0.79563 0.66945,0.84379 0.41127,0.0474 0.78506,-0.24244 0.84161,-0.65256 0.0675,-0.48901 0.14924,-0.97598 0.24173,-1.46085 v 0 c 0.081,-0.42467 -0.19756,-0.83465 -0.62224,-0.91567 -0.42468,-0.081 -0.83466,0.19756 -0.91565,0.62226 -10e-4,0.009 -0.003,0.0168 -0.004,0.0254 z m -0.21048,1.53771 c -0.0515,0.4471 -0.0969,0.89489 -0.13152,1.34367 v 0 c -0.0315,0.40977 0.27508,0.76752 0.68482,0.79905 0.40073,0.0308 0.75352,-0.26207 0.79692,-0.66162 0.0468,-0.43082 0.10163,-0.86065 0.16084,-1.28992 v 0 c 0.0575,-0.41668 -0.23371,-0.80104 -0.65039,-0.85853 -0.41666,-0.0575 -0.80105,0.23371 -0.85855,0.65039 -0.001,0.006 -9.6e-4,0.0114 -0.002,0.017 z m -0.13152,1.34367 c -0.0296,0.38453 -0.0486,0.77008 -0.0509,1.15582 v 0 c -0.002,0.40063 0.32043,0.72734 0.72106,0.72973 0.39019,0.002 0.71233,-0.30441 0.72906,-0.69425 0.0152,-0.35209 0.0445,-0.70356 0.0825,-1.05389 v 0 c 0.0444,-0.4086 -0.25088,-0.77575 -0.65948,-0.82011 -0.40855,-0.0444 -0.77573,0.25092 -0.8201,0.65946 -3.9e-4,0.008 -0.002,0.0152 -0.002,0.0232 z m -0.0509,1.1558 c -0.002,0.32692 0.007,0.65436 0.0358,0.98009 v 0 c 0.0349,0.38805 0.37765,0.67439 0.76576,0.63952 0.37381,-0.0336 0.65592,-0.35394 0.64188,-0.72898 -0.0107,-0.28492 -0.006,-0.57034 0.007,-0.85512 v 0 c 0.0172,-0.40027 -0.29332,-0.73868 -0.69355,-0.75592 -0.40026,-0.0172 -0.73868,0.29332 -0.75592,0.69355 -3.4e-4,0.009 -5.7e-4,0.0179 -6.4e-4,0.0268 z m 0.0358,0.98007 c 0.028,0.31143 0.0643,0.622 0.10493,0.932 v 0 c 0.0525,0.40068 0.41986,0.68299 0.82056,0.63052 0.40069,-0.0525 0.68296,-0.41989 0.6305,-0.82054 -0.005,-0.0351 -0.0117,-0.0697 -0.0214,-0.10389 -0.0668,-0.23672 -0.11782,-0.48109 -0.12703,-0.7275 v 0 c -0.0146,-0.38934 -0.34196,-0.69319 -0.7314,-0.67856 -0.38932,0.0146 -0.69317,0.342 -0.67857,0.7314 5.1e-4,0.0127 0.001,0.0244 0.002,0.0367 l 3e-5,3e-5 z m 0.10493,0.932 c 0.026,0.19827 0.0579,0.40564 0.0465,0.60633 v 0 c -0.0281,0.49578 0.35107,0.92049 0.84688,0.94855 0.49577,0.0281 0.92044,-0.35107 0.94852,-0.84685 0.0146,-0.25669 -0.0815,-0.50736 -0.26385,-0.6886 -0.0303,-0.0294 -0.0403,-0.0358 -0.0572,-0.0677 -0.0106,-0.0207 -0.0201,-0.0417 -0.0291,-0.0631 -0.0247,-0.0593 -0.0446,-0.12063 -0.0621,-0.18249 h -6e-5 c -0.10982,-0.3889 -0.51414,-0.61515 -0.90304,-0.50533 -0.3496,0.0987 -0.57383,0.43901 -0.52665,0.79924 z m 0.0465,0.60633 c -0.0121,0.21418 0.0435,0.43064 0.16057,0.61078 0.10465,0.16111 0.25645,0.2898 0.43393,0.36435 0.25232,0.10598 0.54464,0.0966 0.78939,-0.0344 v 0 c 0.18137,-0.0971 0.3239,-0.25357 0.4039,-0.44299 0.11985,-0.28482 0.082,-0.60979 -0.0777,-0.8683 -0.069,-0.11186 -0.15926,-0.21034 -0.2633,-0.29055 v 0 c -0.39335,-0.30315 -0.95791,-0.23007 -1.26105,0.16328 -0.11059,0.14355 -0.17527,0.31713 -0.18555,0.49803 z" />
    <path
       inkscape:connector-curvature="0"
       id="path7897"
       style="fill:#a42604;fill-opacity:1;fill-rule:nonzero;stroke:none;stroke-width:0.35277778"
       d="m 158.31501,130.34483 v 0 c -0.0115,0.0242 -0.0182,0.0502 -0.0186,0.077 -0.001,0.0753 0.0393,0.14908 0.0753,0.21282 0.0419,0.0743 0.0895,0.14543 0.13844,0.21519 v 0 c 0.10615,0.15147 0.31499,0.18813 0.46643,0.0819 0.15146,-0.10616 0.18813,-0.31499 0.0819,-0.46645 -0.0186,-0.0267 -0.0411,-0.0503 -0.0663,-0.0708 -0.0956,-0.076 -0.20509,-0.14118 -0.3254,-0.16807 -0.12379,-0.0277 -0.28858,-0.009 -0.35158,0.11818 z m 0.19515,0.50494 c 0.10874,0.15507 0.22389,0.30587 0.34808,0.44894 v 0 c 0.14589,0.16803 0.40038,0.1859 0.56837,0.04 0.16804,-0.1459 0.18591,-0.40038 0.04,-0.5684 -0.019,-0.0216 -0.0402,-0.0412 -0.0631,-0.0586 -0.13871,-0.10366 -0.27572,-0.20957 -0.41155,-0.31697 v 0 c -0.14514,-0.11464 -0.35571,-0.09 -0.47038,0.0551 -0.0918,0.11611 -0.0964,0.27871 -0.0114,0.3999 z m 0.34808,0.44894 c 0.12884,0.14833 0.26404,0.2911 0.40177,0.43116 v 0 c 0.1758,0.17866 0.46315,0.18098 0.64178,0.005 0.17866,-0.17581 0.18097,-0.46317 0.005,-0.64182 -0.0165,-0.0166 -0.0341,-0.032 -0.0528,-0.0461 -0.15028,-0.11163 -0.30053,-0.22337 -0.45052,-0.33542 v 0 c -0.17828,-0.13315 -0.43074,-0.0966 -0.56389,0.0816 -0.11338,0.15187 -0.10569,0.36221 0.0186,0.50531 z m 0.40177,0.43116 c 0.20877,0.21211 0.43203,0.41011 0.65611,0.6058 v 0 c 0.20673,0.18013 0.5204,0.15838 0.70045,-0.0484 0.18012,-0.20672 0.15837,-0.5204 -0.0484,-0.70044 -0.008,-0.007 -0.0168,-0.0142 -0.0256,-0.0209 -0.22878,-0.17382 -0.45784,-0.34736 -0.68849,-0.51869 l -3e-5,3e-5 c -0.20123,-0.14946 -0.48547,-0.10748 -0.63491,0.0937 -0.13337,0.17956 -0.116,0.42948 0.0409,0.5889 z m 0.65611,0.6058 c 0.23171,0.20186 0.46287,0.40429 0.69216,0.60895 v 0 c 0.21397,0.19091 0.5422,0.17223 0.73312,-0.0417 0.1909,-0.21396 0.17226,-0.54219 -0.0417,-0.73311 -0.003,-0.003 -0.007,-0.006 -0.01,-0.008 -0.24286,-0.20616 -0.49389,-0.40273 -0.74754,-0.59545 v 0 c -0.21829,-0.16589 -0.5298,-0.12335 -0.69566,0.095 -0.15813,0.20811 -0.12785,0.50317 0.0693,0.6748 z m 0.69214,0.60893 c 0.40484,0.36183 0.80241,0.73193 1.20187,1.09968 v 0 c 0.21278,0.19618 0.54433,0.18275 0.74054,-0.03 0.19617,-0.21277 0.18274,-0.54432 -0.03,-0.7405 -0.40625,-0.37444 -0.80932,-0.75465 -1.23054,-1.11242 v 0 c -0.21864,-0.18557 -0.54628,-0.15885 -0.73188,0.0598 -0.18238,0.21477 -0.16013,0.53582 0.0501,0.72345 z m 1.20187,1.09968 c 0.25749,0.23746 0.51665,0.47333 0.78073,0.70346 0.16518,0.1431 0.331,0.2876 0.50828,0.41575 v 0 c 0.21493,0.15544 0.51518,0.10716 0.67061,-0.10779 0.13198,-0.18247 0.11941,-0.43218 -0.0302,-0.60052 -0.14374,-0.16169 -0.29966,-0.31284 -0.45507,-0.46325 -0.25115,-0.24297 -0.50721,-0.48094 -0.76387,-0.71811 v 0 c -0.21276,-0.19621 -0.54431,-0.18278 -0.74052,0.03 -0.19619,0.21277 -0.18276,0.54429 0.03,0.74051 2e-5,2e-5 2e-5,2e-5 2e-5,2e-5 z m 1.28901,1.11921 c 0.20277,0.14666 0.40746,0.29073 0.61495,0.43068 v 0 c 0.1889,0.12731 0.44528,0.0774 0.57261,-0.11146 0.1147,-0.1701 0.0869,-0.39869 -0.0652,-0.53638 -0.1699,-0.15427 -0.32955,-0.31963 -0.48197,-0.49111 v 0 c -0.17624,-0.19825 -0.47982,-0.21613 -0.67806,-0.0399 -0.19825,0.17624 -0.2161,0.47983 -0.0399,0.67808 0.0228,0.0266 0.0492,0.0496 0.0774,0.0702 z m 0.61497,0.4307 c 0.21561,0.14531 0.42274,0.30321 0.62661,0.4645 v 0 c 0.16031,0.12675 0.393,0.0996 0.51978,-0.0606 0.11988,-0.15154 0.10299,-0.3698 -0.0388,-0.50108 -0.19924,-0.18449 -0.39898,-0.36843 -0.6003,-0.55061 v 0 c -0.16866,-0.15313 -0.42974,-0.13989 -0.5826,0.029 -0.15312,0.16866 -0.13989,0.42974 0.029,0.5826 0.0145,0.0132 0.0301,0.0251 0.0464,0.0361 z m 0.62658,0.46447 c 0.17948,0.14203 0.35879,0.28457 0.54207,0.42165 v 0 c 0.14413,0.10773 0.3483,0.0782 0.45605,-0.0659 0.089,-0.11901 0.0861,-0.28322 -0.007,-0.3991 -0.15144,-0.18855 -0.33316,-0.35442 -0.51012,-0.51834 v 0 c -0.14996,-0.13886 -0.38407,-0.12986 -0.52294,0.0201 -0.13886,0.14996 -0.12986,0.38407 0.0201,0.52294 0.007,0.007 0.0143,0.0128 0.0218,0.0187 z m 0.50005,0.38365 -3e-5,-3e-5 c -0.0307,0.22088 0.12335,0.42485 0.34423,0.4556 0.22085,0.0308 0.42482,-0.12338 0.45557,-0.34421 0.0212,-0.15197 -0.0456,-0.30276 -0.17232,-0.38921 0.007,0.005 -0.004,-0.004 -0.007,-0.006 -0.0109,-0.01 -0.0213,-0.0199 -0.0314,-0.0304 -0.0353,-0.0353 -0.0671,-0.0743 -0.0986,-0.113 v 0 c -0.11266,-0.14033 -0.31777,-0.16266 -0.45805,-0.05 -0.1403,0.11264 -0.16263,0.31775 -0.05,0.45803 0.005,0.006 0.0111,0.013 0.0167,0.0195 l 2e-5,-4.6e-4 z m 0.10513,-0.22031 c -0.20939,0.22367 -0.20503,0.57454 -0.0223,0.81303 v 0 c 0.17983,0.23465 0.51585,0.27906 0.75048,0.0992 0.23466,-0.17983 0.27904,-0.51588 0.0992,-0.75051 -0.051,-0.0666 -0.11681,-0.12019 -0.19238,-0.15652 -0.0387,-0.0186 -0.0772,-0.0385 -0.11271,-0.0628 v 0 c -0.16448,-0.11223 -0.3862,-0.0878 -0.52232,0.0575 z m -0.0222,0.81307 c 0.19823,0.25847 0.55381,0.32106 0.8577,0.35689 v 0 c 0.30882,0.0364 0.58867,-0.18441 0.62509,-0.49323 0.0364,-0.30878 -0.18442,-0.58863 -0.49322,-0.62507 0,0 0,0 0,0 -0.0825,-0.01 -0.16511,-0.0204 -0.24708,-0.0343 -0.0589,-0.01 -0.10839,-0.0262 -0.16549,-0.0432 v 0 c -0.28343,-0.0841 -0.58134,0.0776 -0.66541,0.36098 -0.0487,0.16426 -0.0159,0.34192 0.0884,0.4779 z m 0.85772,0.35687 c 0.18941,0.0223 0.38653,0.006 0.56558,-0.0619 0.16489,-0.0629 0.35224,-0.18674 0.39042,-0.37212 v 0 c 0.004,-0.0203 0.006,-0.041 0.006,-0.0617 -0.001,-0.1951 -0.16957,-0.35694 -0.3237,-0.45249 -0.15267,-0.0946 -0.32873,-0.14909 -0.50649,-0.17006 v 0 c -0.30882,-0.0364 -0.58867,0.18441 -0.62509,0.49324 -0.0364,0.3088 0.18445,0.58865 0.49324,0.62504 0,0 0,0 0,0 z" />
    <path
       inkscape:connector-curvature="0"
       id="path7899"
       style="fill:#a42604;fill-opacity:1;fill-rule:nonzero;stroke:none;stroke-width:0.35277778"
       d="m 135.73753,163.06555 c 0.10015,-0.049 0.21086,-0.0731 0.32118,-0.0851 l -3e-5,-3e-5 c 0.12155,-0.0132 0.20935,-0.12238 0.19613,-0.24392 -0.0131,-0.12148 -0.12238,-0.20934 -0.24395,-0.19614 -0.008,0.001 -0.0156,0.002 -0.0233,0.004 -0.17113,0.0374 -0.3359,0.11629 -0.45542,0.24678 v 0 c -0.0652,0.071 -0.0602,0.18143 0.0108,0.24652 0.0529,0.0485 0.13008,0.0596 0.19455,0.028 z m 0.32118,-0.0851 c 0.26586,-0.0289 0.53009,-0.0769 0.79344,-0.12255 v 0 c 0.13719,-0.0238 0.22907,-0.15433 0.20535,-0.29149 -0.0238,-0.13719 -0.15436,-0.22909 -0.29155,-0.20528 -0.006,2.3e-4 -0.0112,0.002 -0.0166,0.003 -0.25353,0.0616 -0.50698,0.12401 -0.76192,0.17966 v 0 c -0.1194,0.0261 -0.19504,0.14404 -0.16904,0.2634 0.0241,0.1105 0.12762,0.18505 0.24007,0.17282 z m 0.79344,-0.12255 c 0.39606,-0.0687 0.79008,-0.14908 1.18215,-0.23757 v 0 c 0.15087,-0.0341 0.24556,-0.18397 0.21151,-0.33485 -0.034,-0.15086 -0.18397,-0.24556 -0.33484,-0.21151 -0.002,7.9e-4 -0.006,0.002 -0.008,0.002 -0.38389,0.0986 -0.76833,0.19507 -1.15348,0.28857 v 0 c -0.13532,0.0328 -0.21832,0.16922 -0.18551,0.30449 0.0313,0.12899 0.15726,0.21162 0.28812,0.18889 z m 1.18215,-0.23757 c 0.33105,-0.0747 0.66264,-0.14772 0.99608,-0.21086 v 0 c 0.16369,-0.031 0.27121,-0.18874 0.24017,-0.35245 -0.031,-0.16362 -0.18875,-0.27121 -0.35245,-0.24017 -0.006,9.6e-4 -0.012,0.003 -0.0182,0.004 -0.33244,0.0846 -0.66468,0.16972 -0.99691,0.255 v 0 c -0.1498,0.0385 -0.24005,0.19112 -0.20158,0.34089 0.0377,0.1467 0.18515,0.23685 0.33285,0.20354 z m 0.99608,-0.21086 c 0.42798,-0.0811 0.85836,-0.1504 1.28819,-0.22072 l 3e-5,3e-5 c 0.19129,-0.0313 0.32094,-0.21177 0.28974,-0.403 -0.0313,-0.19132 -0.21172,-0.32105 -0.40306,-0.28967 -0.009,0.001 -0.0186,0.003 -0.0277,0.006 -0.42607,0.1056 -0.85217,0.21097 -1.27757,0.31922 l 3e-5,-3e-5 c -0.16142,0.041 -0.25894,0.20522 -0.21796,0.36658 0.0393,0.15436 0.19186,0.25162 0.34837,0.22197 z m 1.28819,-0.22072 c 0.48084,-0.0786 0.96211,-0.15559 1.445,-0.22064 v 0 c 0.22491,-0.0303 0.38271,-0.23716 0.3524,-0.46211 -0.0303,-0.22494 -0.2372,-0.38273 -0.46214,-0.35242 -0.0112,0.002 -0.0223,0.004 -0.0333,0.006 -0.48285,0.10606 -0.96326,0.22332 -1.44308,0.34227 v 0 c -0.18813,0.0466 -0.30286,0.23698 -0.25623,0.42513 0.044,0.17746 0.21693,0.2914 0.39735,0.26192 z m 1.445,-0.22064 c 0.35702,-0.0481 0.71503,-0.0894 1.07368,-0.12335 l 2e-5,-3e-5 c 0.25963,-0.0246 0.45019,-0.25503 0.42559,-0.51465 -0.0246,-0.25965 -0.25501,-0.4502 -0.51468,-0.42562 -0.0222,0.002 -0.0441,0.006 -0.0658,0.0109 -0.35311,0.0848 -0.70711,0.16614 -1.0618,0.24403 v 0 c -0.22169,0.0487 -0.3619,0.26788 -0.31323,0.48957 0.0459,0.20886 0.24432,0.34762 0.45625,0.31907 z m 1.0737,-0.12338 c 0.35925,-0.0341 0.71803,-0.0734 1.07603,-0.11881 v 0 c 0.28837,-0.0365 0.49252,-0.29992 0.45595,-0.58834 -0.0366,-0.28834 -0.29994,-0.49249 -0.58833,-0.45595 -0.0106,10e-4 -0.0207,0.003 -0.031,0.005 -0.35773,0.0673 -0.71367,0.14389 -1.06761,0.22897 v 0 c -0.25358,0.0609 -0.40972,0.31594 -0.34879,0.56952 0.055,0.22861 0.2697,0.38197 0.5038,0.35974 z m 1.07603,-0.11881 c 0.72406,-0.0918 1.44736,-0.18936 2.17082,-0.28562 v 0 c 0.30868,-0.0411 0.52555,-0.3246 0.48452,-0.63323 -0.0411,-0.30864 -0.3246,-0.52555 -0.63321,-0.48449 -0.005,9e-4 -0.01,0.002 -0.0144,0.002 -0.7241,0.11582 -1.44999,0.22635 -2.17075,0.36178 l -2e-5,-3e-5 c -0.28568,0.0537 -0.47375,0.3288 -0.42008,0.61447 0.0514,0.27371 0.30716,0.45998 0.5834,0.42499 z m 2.17082,-0.28562 c 0.7318,-0.0974 1.4652,-0.18979 2.19422,-0.30667 v 0 c 0.31888,-0.0511 0.53591,-0.35109 0.4848,-0.66994 -0.051,-0.31808 -0.34968,-0.53499 -0.66798,-0.48504 -0.72508,0.1137 -1.44972,0.23021 -2.17446,0.34615 v 0 c -0.30746,0.0492 -0.51687,0.33828 -0.46765,0.64578 0.0483,0.30177 0.32819,0.51013 0.63107,0.46985 z m 2.19422,-0.30667 c 0.44401,-0.0712 0.88896,-0.13668 1.33409,-0.20083 v 0 c 0.31724,-0.0457 0.53737,-0.33999 0.49163,-0.65729 -0.0455,-0.31541 -0.33673,-0.53518 -0.65248,-0.49237 -0.45268,0.0614 -0.90516,0.12459 -1.35648,0.19538 v 0 c -0.31904,0.0501 -0.5371,0.34927 -0.48707,0.66827 0.05,0.31905 0.34926,0.53711 0.66828,0.48708 4.3e-4,4e-5 0.001,-2.7e-4 0.001,-6e-5 z m 1.33409,-0.20083 c 0.39182,-0.0565 0.78516,-0.11093 1.17373,-0.18744 v 0 c 0.30524,-0.0601 0.50397,-0.35624 0.44387,-0.66146 -0.0567,-0.28793 -0.32491,-0.4841 -0.61645,-0.4509 -0.38795,0.0442 -0.77499,0.0977 -1.16192,0.15018 v 0 c -0.31764,0.043 -0.54022,0.33548 -0.49715,0.6531 0.043,0.31766 0.33549,0.54023 0.65313,0.49719 0.001,-6e-5 0.003,-1.2e-4 0.005,-9.1e-4 z m 1.17373,-0.18744 c 0.29563,-0.0582 0.58904,-0.12759 0.88168,-0.19907 v 0 c 0.28994,-0.0708 0.46757,-0.36323 0.39671,-0.65317 -0.0691,-0.28296 -0.35007,-0.46023 -0.63522,-0.40079 -0.26991,0.0563 -0.54168,0.10944 -0.8158,0.14068 v 0 c -0.3091,0.0353 -0.53107,0.3144 -0.49581,0.62351 0.0353,0.3091 0.31438,0.53109 0.62344,0.49588 0.0152,-0.002 0.03,-0.004 0.045,-0.007 z m 0.88168,-0.19907 c 0.27485,-0.0671 0.55246,-0.13478 0.81871,-0.23162 v 0 c 0.26646,-0.097 0.40391,-0.39159 0.30696,-0.65808 -0.0875,-0.24047 -0.33871,-0.37984 -0.58907,-0.32675 -0.25822,0.0548 -0.51668,0.10863 -0.77511,0.16249 v 0 c -0.29215,0.0609 -0.47965,0.34712 -0.41873,0.6393 0.0609,0.29216 0.34712,0.47964 0.6393,0.41873 0.006,-9.5e-4 0.012,-0.003 0.0179,-0.004 z m 0.81873,-0.23164 c 0.23725,-0.0863 0.48972,-0.13728 0.73569,-0.19122 v 0 c 0.27223,-0.0597 0.4445,-0.32879 0.3848,-0.60102 -0.0597,-0.27219 -0.32878,-0.44449 -0.60101,-0.38479 -0.005,9e-4 -0.0105,0.003 -0.0154,0.003 -0.26135,0.0658 -0.52281,0.13267 -0.7865,0.18864 v 0 c -0.2774,0.0589 -0.45458,0.33143 -0.39573,0.60883 0.0589,0.27741 0.33149,0.45458 0.60889,0.39573 0.0234,-0.005 0.0465,-0.0115 0.0689,-0.0198 z m 0.73569,-0.19122 c 0.29025,-0.0637 0.58088,-0.12659 0.87288,-0.18186 v 0 c 0.28176,-0.0533 0.46696,-0.32497 0.41362,-0.60674 -0.0533,-0.28179 -0.32498,-0.46696 -0.60675,-0.41367 -0.006,9.5e-4 -0.0119,0.003 -0.0177,0.004 -0.29892,0.0674 -0.59634,0.1415 -0.89346,0.21634 l 3e-5,3e-5 c -0.27025,0.068 -0.43413,0.34235 -0.36609,0.61257 0.0666,0.26437 0.33112,0.42809 0.59744,0.36963 z m 0.87288,-0.18186 c 0.21518,-0.0407 0.43127,-0.0768 0.64796,-0.10873 v 0 c 0.29119,-0.0429 0.49244,-0.31377 0.44954,-0.60497 -0.043,-0.29118 -0.3138,-0.49246 -0.60496,-0.44953 -0.008,0.001 -0.0161,0.003 -0.024,0.004 -0.22711,0.0441 -0.45361,0.0915 -0.67931,0.14241 v 0 c -0.27975,0.0631 -0.45536,0.34107 -0.39221,0.6208 0.0615,0.27288 0.32819,0.44794 0.60307,0.39591 z m 0.64796,-0.10873 c 0.24385,-0.036 0.48684,-0.0779 0.7288,-0.12486 v 0 c 0.29861,-0.058 0.4937,-0.347 0.43576,-0.64557 -0.058,-0.2986 -0.34695,-0.49371 -0.64556,-0.43575 -0.01,0.002 -0.0192,0.004 -0.0288,0.006 -0.22193,0.0555 -0.44518,0.1057 -0.66976,0.1494 v 0 c -0.28894,0.0562 -0.47759,0.33601 -0.42137,0.62494 0.0544,0.27963 0.31906,0.46703 0.60088,0.42549 z m 0.7288,-0.12486 c 0.29385,-0.057 0.58547,-0.12527 0.87586,-0.19778 v 0 c 0.29986,-0.0749 0.48218,-0.37874 0.40735,-0.67858 -0.0747,-0.29905 -0.37714,-0.48138 -0.67645,-0.40786 -0.28193,0.0693 -0.56368,0.13882 -0.84533,0.20927 v 0 c -0.29505,0.0738 -0.47444,0.37287 -0.40062,0.66795 0.0711,0.28396 0.35182,0.46275 0.63919,0.407 z m 0.87586,-0.19778 c 0.25075,-0.0626 0.50168,-0.12488 0.75358,-0.18265 v 0 c 0.31357,-0.0719 0.50944,-0.3844 0.43751,-0.69794 -0.0719,-0.31353 -0.3844,-0.50944 -0.69793,-0.43751 -0.0314,0.007 -0.0622,0.017 -0.092,0.0293 -0.21541,0.0889 -0.44459,0.14689 -0.67034,0.20234 l -2e-5,2e-5 c -0.30014,0.0737 -0.48368,0.37683 -0.40995,0.677 0.0737,0.30013 0.37683,0.48368 0.67701,0.40996 6.6e-4,-3.3e-4 0.001,-2e-4 0.002,-7.9e-4 z m 0.75361,-0.18263 c 0.086,-0.0198 0.16933,-0.0521 0.24403,-0.0993 0.18219,-0.11509 0.30162,-0.31757 0.28996,-0.53782 l -3e-5,-3e-5 c -0.009,-0.17542 -0.10009,-0.33639 -0.24552,-0.4349 -0.19448,-0.13164 -0.43321,-0.11983 -0.64087,-0.0341 v 0 c -0.29735,0.12271 -0.43896,0.46325 -0.31623,0.76062 0.10857,0.26306 0.39134,0.40913 0.66866,0.34553 z" />
    <path
       inkscape:connector-curvature="0"
       id="path7901"
       style="fill:#a42604;fill-opacity:1;fill-rule:nonzero;stroke:none;stroke-width:0.35277778"
       d="m 166.01809,137.62221 c 0.0743,-0.17156 0.15761,-0.39247 0.0548,-0.56988 v 0 c -0.045,-0.0777 -0.12123,-0.13245 -0.20931,-0.15025 -0.19856,-0.0404 -0.38086,0.10553 -0.5204,0.22728 v 0 c -0.17832,0.15555 -0.19674,0.42619 -0.0412,0.60451 0.15556,0.17833 0.4262,0.19676 0.60453,0.0412 0.0482,-0.0419 0.0861,-0.0943 0.11162,-0.15277 z m -1.21611,0.0192 v 0 c -0.20077,0.22022 -0.18575,0.56126 0.0342,0.76232 0.22022,0.20077 0.56125,0.18575 0.76231,-0.0342 0.01,-0.0107 0.0192,-0.0218 0.028,-0.0332 0.1664,-0.21441 0.28446,-0.46629 0.39161,-0.71412 l 3e-5,3e-5 c 0.0939,-0.21719 -0.006,-0.46942 -0.2232,-0.56332 -0.15155,-0.0656 -0.32729,-0.0382 -0.4517,0.0704 -0.18687,0.16303 -0.37375,0.32888 -0.54122,0.51218 z m 0.45498,1.14534 c 0.12656,-0.14728 0.25046,-0.29698 0.36954,-0.45045 v 0 c 0.18269,-0.23543 0.13999,-0.57438 -0.0954,-0.75709 -0.22208,-0.17239 -0.53938,-0.14531 -0.72908,0.0622 -0.1206,0.13199 -0.24485,0.26056 -0.37055,0.38775 v 0 c -0.21726,0.22038 -0.21436,0.5753 0.006,0.79243 0.22038,0.21725 0.57531,0.21435 0.79243,-0.006 0.009,-0.009 0.018,-0.019 0.0266,-0.029 z m -0.51508,0.5396 c 0.18013,-0.17151 0.35341,-0.35049 0.51506,-0.53957 v 0 c 0.20113,-0.23521 0.17352,-0.58893 -0.0617,-0.79004 -0.22361,-0.19124 -0.55704,-0.17695 -0.76346,0.0327 -0.15037,0.15242 -0.30795,0.2976 -0.46979,0.43768 v 0 c -0.24239,0.20972 -0.26894,0.57621 -0.0592,0.81862 0.20971,0.24238 0.57619,0.2689 0.81861,0.0592 0.007,-0.006 0.0139,-0.0122 0.0202,-0.0189 z m -0.59421,0.54565 c 0.20097,-0.17873 0.39945,-0.36023 0.59421,-0.54565 v 0 c 0.23213,-0.22101 0.24112,-0.58837 0.0201,-0.82053 -0.21359,-0.22432 -0.56574,-0.24134 -0.8,-0.0387 -0.1923,0.16642 -0.38863,0.3282 -0.5875,0.48671 v 0 c -0.25931,0.20666 -0.30193,0.58444 -0.0953,0.84373 0.20669,0.25933 0.58446,0.30196 0.84376,0.0953 0.009,-0.006 0.0167,-0.0137 0.0247,-0.0209 z m -1.25931,1.07323 c 0.42223,-0.35453 0.84729,-0.70681 1.25931,-1.07323 l 2e-5,2e-5 c 0.24778,-0.2204 0.27003,-0.5999 0.0496,-0.84769 -0.21201,-0.23839 -0.57344,-0.26934 -0.8229,-0.0705 -0.42606,0.33967 -0.85402,0.67696 -1.28159,1.01471 v 0 c -0.27295,0.21567 -0.31948,0.61174 -0.10384,0.88473 0.21569,0.27297 0.61178,0.31948 0.88477,0.10384 0.005,-0.004 0.01,-0.008 0.0141,-0.0123 z m -1.20512,1.03161 c 0.39089,-0.35568 0.80051,-0.69187 1.20512,-1.03161 v 0 c 0.26646,-0.22368 0.30105,-0.62103 0.0774,-0.88744 -0.21903,-0.2608 -0.60564,-0.30035 -0.87287,-0.0892 -0.4265,0.33691 -0.85618,0.67102 -1.27271,1.02032 v 0 c -0.27765,0.23284 -0.31401,0.64662 -0.0812,0.92427 0.23285,0.27766 0.64664,0.31399 0.9243,0.0812 0.007,-0.006 0.0134,-0.0116 0.0201,-0.0174 z m -0.53975,0.50764 c 0.17695,-0.17233 0.35703,-0.34143 0.53977,-0.50766 v 0 c 0.26796,-0.24386 0.28752,-0.65881 0.0437,-0.92679 -0.23694,-0.26033 -0.63708,-0.28733 -0.90681,-0.0611 -0.19654,0.16481 -0.39241,0.33037 -0.58745,0.49694 v 0 c -0.28399,0.24251 -0.31766,0.66929 -0.0752,0.95327 0.2425,0.28399 0.66928,0.31767 0.95329,0.0752 0.0114,-0.009 0.0222,-0.0196 0.0329,-0.0297 z m -0.70787,0.71729 c 0.23304,-0.24188 0.46716,-0.48302 0.70787,-0.71729 v 0 c 0.26756,-0.26052 0.27321,-0.68864 0.0126,-0.95616 -0.24853,-0.25525 -0.65252,-0.27384 -0.92346,-0.0425 -0.2754,0.23512 -0.53314,0.49136 -0.78743,0.74886 v 0 c -0.26861,0.27199 -0.26594,0.71021 0.006,0.97883 0.27192,0.26869 0.71018,0.26598 0.97883,-0.006 0.002,-0.002 0.004,-0.004 0.006,-0.006 z m -1.44992,1.5588 c 0.47928,-0.5231 0.95749,-1.04799 1.44992,-1.5588 v 0 c 0.26523,-0.27525 0.25771,-0.71325 -0.0173,-0.9787 -0.27295,-0.26311 -0.70664,-0.25812 -0.97309,0.0116 -0.5075,0.51371 -0.99976,1.04275 -1.49276,1.57023 v 0 c -0.26521,0.28407 -0.25024,0.72919 0.0337,0.99454 0.28404,0.26519 0.72915,0.25021 0.9945,-0.0337 0.001,-0.001 0.003,-0.004 0.005,-0.005 z m -1.16833,1.27321 c 0.39307,-0.42096 0.77966,-0.84816 1.16833,-1.27321 v 0 c 0.26227,-0.28678 0.24272,-0.7317 -0.0439,-0.99409 -0.28469,-0.26034 -0.72579,-0.24327 -0.9892,0.0386 -0.38786,0.41532 -0.7712,0.83606 -1.16797,1.24291 v 0 c -0.2753,0.28217 -0.26974,0.73406 0.0125,1.00937 0.28214,0.27528 0.73407,0.26969 1.00934,-0.0125 0.004,-0.004 0.007,-0.007 0.0108,-0.0113 z m -0.4724,0.49797 c 0.1582,-0.1653 0.31569,-0.33133 0.47242,-0.49799 v 0 c 0.269,-0.28816 0.25364,-0.73978 -0.0345,-1.00883 -0.28374,-0.26491 -0.72712,-0.25462 -0.99815,0.0232 -0.12458,0.12745 -0.27848,0.23049 -0.42428,0.33141 v 0 c -0.34593,0.23954 -0.43226,0.71413 -0.19273,1.0601 0.23951,0.3459 0.71409,0.43222 1.06003,0.19273 0.0425,-0.0294 0.0818,-0.063 0.11751,-0.10036 z m -0.60992,0.60775 c 0.2093,-0.19644 0.41168,-0.40014 0.60992,-0.60775 v 0 c 0.29067,-0.30425 0.27928,-0.78665 -0.0251,-1.07718 -0.2614,-0.24971 -0.66245,-0.28104 -0.95969,-0.0753 -0.22114,0.15312 -0.44298,0.30525 -0.66599,0.45562 v 0 c -0.38334,0.2585 -0.48458,0.77881 -0.22608,1.16215 0.25848,0.38334 0.7788,0.48453 1.16214,0.22609 0.0371,-0.025 0.0721,-0.053 0.1048,-0.0837 z m -0.46877,0.45765 c 0.15259,-0.15629 0.30955,-0.30818 0.46877,-0.45765 v 0 c 0.33716,-0.31639 0.35398,-0.84617 0.0376,-1.18334 -0.28107,-0.29948 -0.73792,-0.35087 -1.07849,-0.12121 -0.21931,0.14789 -0.43158,0.30655 -0.63202,0.47928 v 0 c -0.36838,0.31747 -0.40964,0.87346 -0.0922,1.24185 0.31747,0.36838 0.87348,0.40962 1.24185,0.0922 0.019,-0.0161 0.0373,-0.033 0.0542,-0.0513 z m -0.44401,0.48346 c 0.14403,-0.16471 0.29117,-0.32689 0.44401,-0.48346 v 0 c 0.3402,-0.34754 0.33418,-0.90505 -0.0134,-1.24518 -0.3269,-0.3199 -0.84428,-0.33632 -1.19075,-0.0377 -0.19699,0.16972 -0.38542,0.34932 -0.56814,0.53424 v 0 c -0.3518,0.35612 -0.34828,0.93001 0.008,1.28178 0.35612,0.35181 0.93001,0.34828 1.28178,-0.008 0.0134,-0.0135 0.0263,-0.0275 0.0388,-0.0418 z m -2.00049,-0.41178 v 0 c -0.29105,0.41179 -0.19312,0.9815 0.21865,1.27251 0.40566,0.28675 0.96614,0.19646 1.26131,-0.20311 0.16606,-0.2248 0.33696,-0.44673 0.52053,-0.65762 v 0 c 0.32872,-0.37755 0.28918,-0.95003 -0.0883,-1.27875 -0.36083,-0.31422 -0.90374,-0.2938 -1.24,0.0466 -0.24873,0.25178 -0.46817,0.5317 -0.67217,0.8204 z m 0,0 c -0.18714,0.26485 -0.36998,0.533 -0.54191,0.80801 v 0 c -0.25585,0.40935 -0.13149,0.94857 0.27782,1.20445 0.36129,0.22588 0.8328,0.15828 1.11614,-0.15995 0.22268,-0.24982 0.42909,-0.51401 0.62791,-0.78311 v 0 c 0.29952,-0.40562 0.21363,-0.97723 -0.19194,-1.27682 -0.40556,-0.2996 -0.97723,-0.21364 -1.27682,0.19193 -0.004,0.005 -0.008,0.01 -0.0114,0.0153 z m -0.54193,0.80804 c -0.12839,0.20539 -0.25878,0.40957 -0.39183,0.61199 v 0 c -0.2544,0.38685 -0.14704,0.90673 0.23981,1.16112 0.38333,0.25209 0.8981,0.14921 1.15512,-0.23081 0.1183,-0.17489 0.25053,-0.34023 0.39088,-0.49787 l 2e-5,2e-5 c 0.32094,-0.36058 0.28888,-0.913 -0.0716,-1.23399 -0.36058,-0.32094 -0.91302,-0.28889 -1.23402,0.0716 -0.0327,0.0368 -0.0622,0.0762 -0.0884,0.11787 z m -0.39183,0.61199 c -0.1199,0.18236 -0.23685,0.36816 -0.33404,0.56381 v 0 c -0.2037,0.41002 -0.0364,0.9075 0.37358,1.11118 0.38988,0.19368 0.86316,0.0528 1.08361,-0.32263 0.0847,-0.14425 0.17814,-0.28355 0.27179,-0.42204 v 0 c 0.25938,-0.38355 0.15873,-0.90472 -0.2248,-1.16411 -0.38356,-0.25938 -0.90472,-0.15873 -1.16411,0.22481 -0.002,0.003 -0.004,0.006 -0.006,0.009 z m -0.33404,0.56381 c -0.0738,0.14872 -0.13942,0.30153 -0.19562,0.45773 v 0 c -0.1521,0.4227 0.0673,0.88861 0.48992,1.04069 0.39752,0.14305 0.83837,-0.0421 1.01457,-0.42601 0.0445,-0.0971 0.0942,-0.19174 0.14832,-0.28385 v 0 c 0.23188,-0.39475 0.0998,-0.90274 -0.29506,-1.13456 -0.39474,-0.23187 -0.90274,-0.0997 -1.13455,0.29507 -0.01,0.0166 -0.0189,0.0337 -0.0276,0.0509 z m -0.19565,0.45776 c -0.0557,0.15485 -0.13584,0.30264 -0.21168,0.44813 v 0 c -0.20411,0.39144 -0.0523,0.87423 0.33921,1.07831 0.38384,0.20017 0.85731,0.0583 1.0679,-0.31988 0.10821,-0.19432 0.21632,-0.38973 0.30913,-0.59196 v 0 c 0.18735,-0.40829 0.008,-0.89112 -0.40001,-1.07846 -0.40825,-0.18737 -0.89109,-0.008 -1.07843,0.4 -0.01,0.0208 -0.0184,0.0423 -0.0261,0.0639 z m -0.21168,0.44813 c -0.10398,0.19946 -0.20895,0.3984 -0.31712,0.59562 l 2e-5,3e-5 c -0.20882,0.38074 -0.0694,0.85865 0.31131,1.06742 0.3666,0.20104 0.82646,0.08 1.04655,-0.27555 0.12777,-0.20635 0.2483,-0.41708 0.36635,-0.62909 v 0 c 0.21475,-0.38571 0.0762,-0.87248 -0.30949,-1.08723 -0.38572,-0.21477 -0.87248,-0.0762 -1.08725,0.30952 -0.003,0.006 -0.007,0.0131 -0.0107,0.019 z m -0.31712,0.59567 c -0.0816,0.14892 -0.17739,0.28981 -0.27963,0.42522 v 0 c -0.26493,0.35109 -0.19508,0.85047 0.15602,1.11544 0.3511,0.26493 0.85048,0.19508 1.11543,-0.156 0.0165,-0.0223 0.0323,-0.0452 0.0465,-0.0689 0.10551,-0.17519 0.21183,-0.34992 0.31947,-0.52381 v 0 c 0.22857,-0.36922 0.11461,-0.85379 -0.25461,-1.08237 -0.36919,-0.22855 -0.85377,-0.11459 -1.08237,0.2546 -0.008,0.0114 -0.014,0.024 -0.0209,0.0359 z m -0.27966,0.42524 c -0.0852,0.11298 -0.16967,0.22782 -0.26317,0.33418 v 0 c -0.29967,0.34051 -0.2666,0.85942 0.0739,1.1591 0.34051,0.29967 0.85944,0.26657 1.1591,-0.0739 0.0174,-0.0199 0.0344,-0.0401 0.0492,-0.0621 0.10805,-0.14979 0.20366,-0.30881 0.29882,-0.4669 v 0 c 0.22689,-0.37682 0.10533,-0.8662 -0.27148,-1.09306 -0.3493,-0.21031 -0.80097,-0.12286 -1.04653,0.20261 z m -0.26317,0.33418 c -0.0962,0.11005 -0.16494,0.24333 -0.19597,0.38637 -0.0716,0.32976 0.0637,0.68386 0.35952,0.87085 v 0 c 0.0479,0.0302 0.0989,0.0554 0.15206,0.075 0.35938,0.1325 0.75151,-0.0107 0.96686,-0.30903 v 0 c 0.2655,-0.36777 0.18249,-0.88114 -0.18532,-1.1466 -0.34287,-0.24753 -0.81774,-0.19412 -1.09712,0.12335 z" />
    <path
       inkscape:connector-curvature="0"
       id="path7903"
       style="fill:#a42604;fill-opacity:1;fill-rule:nonzero;stroke:none;stroke-width:0.35277778"
       d="m 151.05273,152.73668 c -0.0162,0.0473 -0.0215,0.0977 -0.0181,0.1473 v 0 c 0.0137,0.19474 0.18267,0.34152 0.37738,0.32788 0.19478,-0.0137 0.34154,-0.18265 0.32789,-0.3774 -0.0137,-0.19476 -0.18269,-0.34155 -0.37739,-0.3279 -0.0127,5.1e-4 -0.0259,0.003 -0.0387,0.005 -0.0564,0.0103 -0.1106,0.0325 -0.15648,0.0671 v 0 c -0.0531,0.0401 -0.0933,0.095 -0.11469,0.15816 z m -0.018,0.14737 c 0.006,0.0881 0.0331,0.17454 0.0618,0.25756 0.0354,0.10241 0.0771,0.20277 0.12052,0.30195 l -3e-5,3e-5 c 0.10898,0.24936 0.39921,0.36345 0.64883,0.25419 0.24936,-0.10898 0.36344,-0.39921 0.25421,-0.64881 -0.014,-0.0321 -0.0315,-0.0627 -0.0521,-0.0911 -0.0831,-0.11504 -0.17773,-0.22441 -0.29139,-0.31037 -0.12786,-0.0966 -0.28981,-0.16569 -0.45271,-0.13605 l -2e-5,3e-5 c -0.17727,0.0323 -0.30182,0.19284 -0.28916,0.37261 z m 0.18231,0.55949 c 0.0842,0.19271 0.17362,0.38431 0.281,0.56534 v 0 c 0.15272,0.25739 0.48515,0.34223 0.74249,0.18953 0.25737,-0.15269 0.34223,-0.48514 0.18953,-0.74249 -0.01,-0.0172 -0.0209,-0.0332 -0.0328,-0.0489 -0.11141,-0.14843 -0.22061,-0.29863 -0.32926,-0.44912 v 0 c -0.15932,-0.22061 -0.4673,-0.27037 -0.68794,-0.11106 -0.18804,0.13571 -0.25592,0.38423 -0.16305,0.59676 z m 0.281,0.56534 c 0.0911,0.15362 0.19277,0.3008 0.30139,0.44254 v 0 c 0.18961,0.2475 0.54392,0.29447 0.79145,0.10488 0.24749,-0.18959 0.29451,-0.5439 0.10491,-0.79143 -0.01,-0.0129 -0.02,-0.0252 -0.031,-0.0368 -0.0938,-0.103 -0.18394,-0.20945 -0.26754,-0.32087 v 0 c -0.17971,-0.23932 -0.51933,-0.28767 -0.75865,-0.10801 -0.22111,0.16605 -0.28179,0.47197 -0.14068,0.7098 z m 0.30142,0.44256 c 0.16154,0.21082 0.34807,0.40292 0.53486,0.59117 l -3e-5,3e-5 c 0.22629,0.22803 0.59458,0.22952 0.82264,0.003 0.22803,-0.2263 0.22954,-0.59461 0.003,-0.82267 -0.004,-0.004 -0.008,-0.007 -0.0114,-0.011 -0.16468,-0.15762 -0.33007,-0.31589 -0.48402,-0.48416 v 0 c -0.21002,-0.23041 -0.56703,-0.247 -0.79749,-0.037 -0.21664,0.19747 -0.24615,0.52786 -0.0679,0.76056 z m 0.53486,0.59117 c 0.19139,0.19293 0.38461,0.38427 0.58418,0.56882 v 0 c 0.23849,0.22056 0.61063,0.20601 0.83119,-0.0325 0.22056,-0.23848 0.20604,-0.6106 -0.0324,-0.83116 -0.19114,-0.17677 -0.37971,-0.35631 -0.56819,-0.53592 l -3e-5,3e-5 c -0.23253,-0.22168 -0.60062,-0.21321 -0.82242,0.0192 -0.21749,0.228 -0.21404,0.58765 0.008,0.81134 z m 0.58421,0.56885 c 0.18858,0.17434 0.38972,0.33492 0.59676,0.48675 v 0 c 0.25876,0.18968 0.62228,0.13378 0.81198,-0.12495 0.18474,-0.25194 0.1372,-0.60482 -0.10765,-0.79884 -0.17223,-0.13641 -0.34109,-0.27747 -0.50248,-0.4266 l 2e-5,-2e-5 c -0.23851,-0.22054 -0.61063,-0.20597 -0.83119,0.0325 -0.22053,0.23851 -0.20598,0.61065 0.0325,0.83119 z m 0.59676,0.48675 c 0.21894,0.16051 0.44243,0.31474 0.67001,0.46273 v 0 c 0.26402,0.17166 0.61726,0.0968 0.78893,-0.16731 0.16952,-0.26081 0.0988,-0.60936 -0.15903,-0.78342 -0.20394,-0.13766 -0.40274,-0.28296 -0.59556,-0.43582 v 0 c -0.25147,-0.19927 -0.61684,-0.15693 -0.81611,0.0945 -0.19925,0.25144 -0.15694,0.61683 0.0945,0.81608 0.006,0.004 0.0113,0.009 0.0172,0.0132 z m 0.67001,0.46273 c 0.22652,0.14722 0.45878,0.28573 0.69702,0.41313 v 0 c 0.26674,0.14258 0.59859,0.0419 0.7412,-0.22481 0.1322,-0.2474 0.0562,-0.55466 -0.1761,-0.71183 -0.21065,-0.1425 -0.42137,-0.28493 -0.63222,-0.42722 v 0 c -0.261,-0.17623 -0.61548,-0.10747 -0.79168,0.15355 -0.17623,0.261 -0.10749,0.61546 0.15354,0.79171 0.002,0.002 0.006,0.004 0.009,0.005 z m 0.697,0.41311 c 0.20527,0.10975 0.4086,0.22312 0.60946,0.34072 v 0 c 0.2453,0.14361 0.56055,0.0612 0.70417,-0.18408 0.13565,-0.23168 0.0704,-0.52868 -0.14984,-0.68223 -0.19857,-0.13842 -0.39818,-0.27536 -0.59869,-0.411 l 2e-5,-3e-5 c -0.25049,-0.16951 -0.59101,-0.10379 -0.76052,0.14676 -0.16952,0.25049 -0.10378,0.59102 0.14673,0.7605 0.0158,0.0105 0.0322,0.0202 0.0487,0.0293 z m 0.60946,0.34072 c 0.17851,0.1045 0.35537,0.21169 0.52922,0.32378 v 0 c 0.22645,0.14594 0.52835,0.0807 0.6743,-0.14582 0.13687,-0.21235 0.0889,-0.49411 -0.11051,-0.64925 -0.17577,-0.1367 -0.35596,-0.26766 -0.53867,-0.39497 v 0 c -0.23313,-0.16258 -0.55396,-0.10533 -0.71651,0.12782 -0.16259,0.23311 -0.10532,0.55395 0.12782,0.71651 0.0113,0.008 0.0224,0.0152 0.0342,0.0221 z m 0.52922,0.32378 c 0.18534,0.11939 0.36269,0.25113 0.53686,0.38607 v 0 c 0.20217,0.15645 0.49288,0.1195 0.64939,-0.0826 0.15016,-0.19388 0.123,-0.4712 -0.0618,-0.63234 -0.18314,-0.1597 -0.36878,-0.31694 -0.56063,-0.46617 l 2e-5,-2e-5 c -0.21262,-0.16543 -0.51912,-0.12718 -0.68457,0.0855 -0.16543,0.21262 -0.12718,0.51912 0.0855,0.68458 0.0113,0.009 0.0231,0.0173 0.0356,0.0247 z m 0.53689,0.3861 c 0.12811,0.0992 0.26825,0.20825 0.35966,0.34459 v 0 c 0.15651,0.23312 0.47235,0.29521 0.70549,0.13872 0.23312,-0.15651 0.29523,-0.47239 0.13871,-0.70549 -0.0449,-0.0668 -0.10497,-0.12204 -0.17538,-0.16108 -0.1602,-0.0889 -0.30361,-0.21178 -0.44111,-0.33162 l 3e-5,-3e-5 c -0.19241,-0.16827 -0.48511,-0.14791 -0.6531,0.0448 -0.1683,0.19244 -0.14792,0.48511 0.0448,0.65311 0.007,0.006 0.0136,0.0116 0.0204,0.0175 z m 0.29674,0.21442 3e-5,-3e-5 c -0.0166,0.34045 0.24588,0.62992 0.58635,0.64653 0.34044,0.0166 0.62989,-0.24592 0.64653,-0.58636 0.0122,-0.24897 -0.12668,-0.48081 -0.3519,-0.58768 -0.0511,-0.0242 -0.0999,-0.0429 -0.14922,-0.0702 v 0 c -0.24547,-0.13628 -0.55498,-0.0478 -0.69125,0.19776 -0.0679,0.12221 -0.0824,0.26697 -0.0402,0.40027 l -2.4e-4,-1.3e-4 z m 0.0243,0.55046 v 0 c 0.22857,0.29345 0.64533,0.35985 0.95374,0.15188 0.30647,-0.20671 0.40637,-0.62743 0.22653,-0.94918 v 0 c -0.0995,-0.17798 -0.27151,-0.30385 -0.47124,-0.34491 -0.25461,-0.0523 -0.52278,0.0424 -0.68987,0.24043 -0.21456,0.25431 -0.22619,0.63594 -0.0192,0.90181 z" />
    <path
       inkscape:connector-curvature="0"
       id="path7891-3"
       style="fill:#187795;fill-opacity:1;fill-rule:nonzero;stroke:none;stroke-width:0.35277778"
       d="m 259.64682,139.32733 c 0.0546,-0.009 0.11869,0.021 0.16827,0.0409 0.0993,0.0397 0.19422,0.0904 0.28667,0.14386 l -2e-5,2e-5 c 0.0834,0.0482 0.19013,0.0196 0.23837,-0.0638 0.0446,-0.0772 0.0238,-0.17566 -0.0483,-0.22822 -0.1754,-0.12804 -0.35148,-0.25535 -0.52529,-0.38559 v 0 c -0.12192,-0.0914 -0.29485,-0.0667 -0.38627,0.0552 -0.0914,0.12192 -0.0667,0.29484 0.0552,0.38627 0.0606,0.0451 0.13679,0.0639 0.21131,0.0514 z m 0.25201,-0.41418 c -0.10035,-0.0673 -0.21184,-0.1613 -0.33627,-0.17224 v 0 c -0.0383,-0.003 -0.0768,-8e-5 -0.11404,0.01 -0.14079,0.0373 -0.24001,0.1594 -0.26189,0.30066 -0.009,0.0587 -0.005,0.11882 0.008,0.17668 0.0202,0.09 0.0613,0.17418 0.10871,0.25277 v 0 c 0.12007,0.19945 0.37916,0.26376 0.57858,0.14369 0.19946,-0.12007 0.26377,-0.37916 0.1437,-0.57858 -0.0319,-0.0529 -0.0751,-0.0983 -0.12649,-0.13268 z m 0.72282,1.76723 v 0 c 0.23752,0.18163 0.57727,0.13639 0.75895,-0.10108 0.1816,-0.2375 0.13638,-0.57728 -0.10112,-0.75893 -0.0105,-0.008 -0.0218,-0.0161 -0.0329,-0.0236 -0.44982,-0.29352 -0.90137,-0.58477 -1.34753,-0.88383 l -3e-5,3e-5 c -0.19334,-0.12964 -0.4552,-0.0779 -0.58485,0.11545 -0.0911,0.13582 -0.0953,0.31206 -0.011,0.45215 0.11895,0.1976 0.30096,0.35925 0.47136,0.51126 0.27128,0.24251 0.55839,0.46737 0.84732,0.68833 z m 3e-5,3e-5 c 0.52007,0.39779 1.04019,0.79562 1.56007,1.19367 v 0 c 0.26377,0.20194 0.6413,0.15183 0.84325,-0.11194 0.20193,-0.26377 0.15183,-0.6413 -0.11193,-0.84323 -0.006,-0.004 -0.0107,-0.009 -0.0165,-0.0125 -0.53977,-0.38453 -1.09509,-0.74756 -1.65009,-1.10963 v 0 c -0.25043,-0.16334 -0.58583,-0.0928 -0.74917,0.1576 -0.1548,0.23723 -0.10049,0.55371 0.1245,0.72583 z m 1.56007,1.19367 c 0.58606,0.44869 1.15142,0.9253 1.71789,1.39816 v 0 c 0.27202,0.22698 0.67647,0.19058 0.90352,-0.0814 0.22697,-0.27199 0.19059,-0.67647 -0.0814,-0.9035 -0.006,-0.005 -0.012,-0.01 -0.0183,-0.0142 -0.59655,-0.46245 -1.19239,-0.92811 -1.80726,-1.3662 v 0 c -0.2705,-0.19278 -0.64613,-0.1297 -0.83888,0.14086 -0.18812,0.264 -0.13318,0.62957 0.1242,0.82662 z m 1.71789,1.39816 c 0.82149,0.6857 1.63311,1.38312 2.43611,2.09034 v 0 c 0.28943,0.25519 0.7311,0.22708 0.98613,-0.0625 0.25519,-0.28943 0.22705,-0.73107 -0.0625,-0.98613 -0.006,-0.005 -0.0124,-0.0105 -0.0185,-0.0157 -0.83651,-0.68665 -1.68182,-1.36248 -2.53718,-2.02547 l -2e-5,2e-5 c -0.27999,-0.21706 -0.68294,-0.16601 -0.89997,0.11402 -0.21144,0.27289 -0.1691,0.66414 0.0959,0.8854 z m 2.43611,2.09034 c 0.61291,0.53981 1.22583,1.07962 1.83841,1.61979 v 0 c 0.30151,0.26636 0.76205,0.23719 1.02814,-0.0645 0.26633,-0.30148 0.23716,-0.76202 -0.0646,-1.02811 -5.3e-4,-4.5e-4 -7.4e-4,-6.6e-4 -10e-4,-0.001 -0.61986,-0.54378 -1.25808,-1.06708 -1.89538,-1.59022 v 0 c -0.29828,-0.24485 -0.7385,-0.20154 -0.98336,0.0967 -0.2388,0.29099 -0.20425,0.71881 0.0782,0.96762 z m 1.83841,1.61979 c 0.57615,0.50802 1.15267,1.01569 1.72913,1.52332 v 0 c 0.30859,0.27153 0.77881,0.24176 1.05048,-0.0667 0.27155,-0.30861 0.24174,-0.77882 -0.0667,-1.05046 -0.004,-0.003 -0.008,-0.007 -0.011,-0.01 -0.58291,-0.49316 -1.16562,-0.98681 -1.73962,-1.49039 l 2e-5,-3e-5 c -0.30243,-0.2653 -0.76267,-0.23517 -1.02795,0.0673 -0.26477,0.30186 -0.23535,0.7611 0.0658,1.02666 z m 1.72913,1.52332 c 0.54548,0.48035 1.09032,0.96242 1.64935,1.42711 v 0 c 0.32245,0.26801 0.80106,0.22391 1.06908,-0.0985 0.26798,-0.32243 0.22389,-0.80104 -0.0985,-1.06906 -0.55191,-0.45879 -1.09945,-0.9228 -1.64735,-1.38633 v 0 c -0.31384,-0.26549 -0.78344,-0.22636 -1.04893,0.0875 -0.26182,0.30943 -0.2279,0.77149 0.0763,1.03935 z m 1.64935,1.42711 c 0.45358,0.37706 0.92487,0.73304 1.39818,1.08476 v 0 c 0.33717,0.25056 0.8136,0.1804 1.06416,-0.15672 0.25056,-0.33718 0.18041,-0.81361 -0.15673,-1.06418 -5.5e-4,-4.2e-4 -8.2e-4,-5.8e-4 -0.002,-0.001 -0.45159,-0.33368 -0.90153,-0.67123 -1.33338,-1.03022 v 0 c -0.32246,-0.26801 -0.80107,-0.22392 -1.06913,0.0985 -0.26798,0.32242 -0.2239,0.80107 0.0985,1.06906 3e-5,3e-5 3e-5,3e-5 3e-5,3e-5 z m 1.39818,1.08476 c 0.49009,0.36422 0.98703,0.72175 1.5056,1.04464 v 0 c 0.3609,0.22469 0.83561,0.11428 1.06033,-0.24664 0.22469,-0.3609 0.11427,-0.83561 -0.24662,-1.06029 -0.005,-0.003 -0.01,-0.006 -0.0151,-0.008 -0.48509,-0.28729 -0.94586,-0.61613 -1.3989,-0.95094 v 0 c -0.33782,-0.24967 -0.8141,-0.17822 -1.06376,0.1596 -0.24922,0.33719 -0.17856,0.81244 0.15795,1.06254 z m 1.5056,1.04464 c 0.32197,0.20044 0.64755,0.40004 0.98906,0.56592 v 0 c 0.39374,0.19126 0.86803,0.0271 1.05929,-0.36666 0.19129,-0.39378 0.0271,-0.86806 -0.36664,-1.05933 -0.0196,-0.01 -0.0399,-0.0184 -0.0605,-0.0263 -0.28736,-0.11111 -0.55795,-0.27301 -0.82219,-0.42946 l 3e-5,-3e-5 c -0.36583,-0.21659 -0.83797,-0.0957 -1.05457,0.27016 -0.21319,0.36009 -0.0997,0.8245 0.25549,1.04569 z m 0.98903,0.5659 c 0.19504,0.0947 0.41806,0.12419 0.62898,0.0612 v 0 c 0.10981,-0.0328 0.21106,-0.0892 0.29682,-0.16517 l 6.7e-4,7.4e-4 c 0.3256,-0.2859 0.35769,-0.78167 0.0717,-1.10724 -0.0247,-0.0283 -0.0518,-0.0546 -0.08,-0.0794 -0.0845,-0.0727 -0.18256,-0.1228 -0.28568,-0.16268 v 0 c -0.12484,-0.0482 -0.25982,-0.0641 -0.39241,-0.0462 -0.2597,-0.0478 -0.51843,-0.10313 -0.7769,-0.15911 v 0 c -0.10528,-0.0228 -0.20913,0.0441 -0.23194,0.14934 -0.0105,0.0487 -0.002,0.0995 0.0237,0.14211 0.10667,0.17659 0.21082,0.35471 0.30803,0.53677 l -3.9e-4,-6e-5 c -0.0508,0.34241 0.12637,0.67815 0.43771,0.82937 z" />
    <path
       inkscape:connector-curvature="0"
       id="path7893-6"
       style="fill:#187795;fill-opacity:1;fill-rule:nonzero;stroke:none;stroke-width:0.35277778"
       d="m 275.42756,153.54816 c 0.15332,-0.20954 0.31486,-0.41308 0.48121,-0.61241 v 0 c 0.0616,-0.074 0.0517,-0.18404 -0.0222,-0.24575 -0.0236,-0.0204 -0.0529,-0.0332 -0.0837,-0.0382 -0.34667,-0.0566 -0.7115,-0.0165 -1.02364,0.1509 l 3e-5,3e-5 c -0.24649,0.13223 -0.33918,0.43926 -0.20696,0.68578 0.13225,0.24652 0.43928,0.3392 0.68583,0.20697 0.0667,-0.0358 0.12465,-0.0861 0.16935,-0.14732 z m -0.52421,0.73213 c 0.17298,-0.24526 0.347,-0.48986 0.52421,-0.73213 v 0 c 0.16519,-0.22577 0.11605,-0.54275 -0.10974,-0.70791 -0.1573,-0.11513 -0.36672,-0.12969 -0.53849,-0.0376 -0.30729,0.16482 -0.58483,0.38303 -0.84412,0.61468 v 0 c -0.26875,0.24015 -0.29204,0.65272 -0.0519,0.92154 0.2401,0.26883 0.65272,0.29203 0.92153,0.0519 0.0371,-0.0328 0.0701,-0.07 0.0982,-0.11075 l 2e-5,2e-5 z m -0.47615,0.70902 c 0.1502,-0.24182 0.31204,-0.47649 0.47615,-0.70902 v 0 c 0.20776,-0.29454 0.13743,-0.70176 -0.15711,-0.90952 -0.2482,-0.17516 -0.58446,-0.15579 -0.81103,0.0466 -0.24886,0.22231 -0.49153,0.45487 -0.70415,0.71266 v 0 c -0.25939,0.31447 -0.21484,0.77961 0.0995,1.03905 0.31443,0.25937 0.77961,0.21484 1.03901,-0.0996 0.0209,-0.0255 0.0401,-0.0523 0.0576,-0.0802 z m -0.46243,0.68504 c 0.16158,-0.22319 0.31695,-0.45102 0.46243,-0.68504 v 0 c 0.21517,-0.34616 0.10892,-0.80127 -0.23729,-1.01642 -0.31384,-0.1951 -0.72366,-0.12794 -0.95886,0.15711 -0.15839,0.19203 -0.32091,0.38059 -0.4859,0.56695 v 0 c -0.28658,0.3234 -0.25632,0.81805 0.0673,1.10444 0.32339,0.28658 0.81804,0.25632 1.10444,-0.0672 0.0171,-0.019 0.0332,-0.0389 0.0482,-0.0596 z m -0.78903,0.9837 c 0.27156,-0.32041 0.54267,-0.64327 0.78903,-0.9837 l 3e-5,2e-5 c 0.25335,-0.35006 0.17505,-0.8392 -0.175,-1.09257 -0.32599,-0.23601 -0.77786,-0.18619 -1.04464,0.11516 -0.2553,0.28807 -0.52649,0.5624 -0.7971,0.83595 l 3e-5,2e-5 c -0.32388,0.32693 -0.32135,0.85454 0.006,1.17838 0.32693,0.32388 0.85452,0.32134 1.17838,-0.006 0.0151,-0.0153 0.0298,-0.0312 0.0437,-0.0476 z m -1.14952,1.16254 c 0.41469,-0.35464 0.79685,-0.7464 1.14949,-1.16251 l 3e-5,3e-5 c 0.29757,-0.35105 0.25417,-0.87691 -0.0969,-1.17445 -0.33198,-0.2813 -0.82452,-0.25989 -1.13073,0.0492 -0.30979,0.31272 -0.64703,0.59944 -1.01376,0.84345 v 0 c -0.41702,0.27746 -0.53011,0.84043 -0.25266,1.25743 0.2775,0.41699 0.84047,0.53011 1.25745,0.25262 0.0306,-0.0199 0.0594,-0.0422 0.0871,-0.0658 z m -0.91486,0.79242 c 0.30255,-0.26686 0.60824,-0.53019 0.91483,-0.79239 v 0 c 0.38069,-0.3255 0.42537,-0.89802 0.0998,-1.27869 -0.29816,-0.34862 -0.8097,-0.41975 -1.19161,-0.16561 -0.31821,0.21176 -0.64104,0.41803 -0.97544,0.60344 v 0 c -0.48559,0.26924 -0.66095,0.88115 -0.39171,1.3667 0.26924,0.48559 0.88111,0.66095 1.36669,0.39171 0.0635,-0.0351 0.12301,-0.0771 0.17738,-0.12521 z m -0.72645,0.57705 c 0.2577,-0.17088 0.49488,-0.37286 0.72645,-0.57705 l -3e-5,-3e-5 c 0.41648,-0.36716 0.45635,-1.0025 0.0891,-1.41891 -0.31224,-0.35401 -0.82869,-0.44321 -1.24151,-0.21431 -0.18157,0.10072 -0.36672,0.20511 -0.56162,0.27838 v 0 c -0.56444,0.21214 -0.85005,0.84169 -0.63788,1.40615 0.21217,0.56447 0.84171,0.85008 1.40615,0.63788 0.0771,-0.029 0.1507,-0.0666 0.21932,-0.11211 z m -1.37064,0.22307 c 0.2713,0.0971 0.56831,0.10049 0.84491,0.0236 0.18767,-0.0521 0.36378,-0.13929 0.52573,-0.24671 v 0 c 0.50254,-0.33327 0.63975,-1.01083 0.30648,-1.51337 -0.26595,-0.401 -0.76307,-0.58066 -1.22395,-0.44223 l 7.7e-4,6.7e-4 c -0.61891,-0.0417 -1.15442,0.42618 -1.19612,1.04507 -0.0338,0.50113 0.2693,0.96376 0.74222,1.13298 z m -7e-5,-2e-5 v 0 c 0.584,0.20899 1.22688,-0.095 1.43586,-0.67901 0.20902,-0.58398 -0.095,-1.22686 -0.67895,-1.43587 -0.14833,-0.0531 -0.30172,-0.0986 -0.45867,-0.11685 v 0 c -0.27053,-0.0314 -0.54181,0.0525 -0.74727,0.23134 -0.29352,0.25532 -0.42421,0.65994 -0.36141,1.04089 0.0726,0.44028 0.39223,0.80982 0.81044,0.9595 z m 0.82134,-1.99939 c -0.14864,-0.25172 -0.26227,-0.52583 -0.37542,-0.7947 v 0 c -0.0401,-0.0955 -0.15019,-0.14015 -0.24553,-0.10012 -0.0326,0.0137 -0.0608,0.0364 -0.081,0.0656 -0.1606,0.23008 -0.32143,0.46012 -0.48567,0.68771 -0.0441,0.061 -0.0881,0.1219 -0.13357,0.18183 -0.10154,0.13391 0.14447,-0.18006 -0.0658,0.08 v 0 c -0.33654,0.41563 -0.27255,1.02535 0.14304,1.36197 0.41558,0.33663 1.02537,0.27257 1.36194,-0.14303 0.32829,-0.40523 0.27659,-0.99764 -0.11684,-1.34 l -6.6e-4,7.7e-4 z" />
    <path
       inkscape:connector-curvature="0"
       id="path7895-7"
       style="fill:#187795;fill-opacity:1;fill-rule:nonzero;stroke:none;stroke-width:0.35277778"
       d="m 270.56315,158.11018 c -0.12434,-0.0158 -0.26085,-0.0112 -0.3623,0.0724 v 0 c -0.0234,0.0195 -0.0442,0.0419 -0.0602,0.068 l -0.0268,0.0517 c -0.0107,0.0272 -0.0173,0.0557 -0.0196,0.0847 -0.009,0.11989 0.0508,0.22705 0.11967,0.32004 v 0 c 0.12354,0.16685 0.35893,0.20191 0.52577,0.0783 0.16686,-0.12355 0.20184,-0.35901 0.0783,-0.52581 -0.0611,-0.0823 -0.15314,-0.13606 -0.25466,-0.14913 z m 2.39742,1.57508 v 0 c 0.31709,0.0814 0.6401,-0.10975 0.72143,-0.42684 0.0814,-0.31709 -0.10975,-0.64011 -0.42685,-0.72143 -0.0178,-0.004 -0.0353,-0.008 -0.0532,-0.0111 -0.61522,-0.0989 -1.23042,-0.19773 -1.84591,-0.29473 -0.26394,-0.0416 -0.52783,-0.0873 -0.79294,-0.12101 v 0 c -0.20593,-0.0262 -0.39408,0.11958 -0.42023,0.32555 -0.0122,0.0962 0.0132,0.19323 0.0709,0.27109 0.0954,0.12884 0.25025,0.20334 0.39329,0.26634 0.16993,0.0749 0.34595,0.13618 0.52218,0.19441 0.60226,0.19895 1.21726,0.36016 1.83137,0.51771 z m 0,0 c 1.06168,0.27241 2.12397,0.54283 3.18297,0.82554 v 0 c 0.38593,0.103 0.7823,-0.12634 0.88532,-0.51225 0.10302,-0.38595 -0.12633,-0.78232 -0.51225,-0.88532 -0.0107,-0.003 -0.0212,-0.005 -0.0318,-0.008 -0.42232,-0.0925 -0.84839,-0.16875 -1.27411,-0.24385 -0.66851,-0.1179 -1.33848,-0.22799 -2.00869,-0.33574 v 0 c -0.32323,-0.052 -0.62738,0.16792 -0.67932,0.49112 -0.0487,0.30242 0.14118,0.5921 0.43789,0.66823 z m 3.18294,0.82552 c 0.80723,0.21552 1.61153,0.44224 2.41549,0.66955 v 0 c 0.4088,0.11563 0.8339,-0.1221 0.9495,-0.53087 0.11558,-0.40878 -0.12209,-0.83388 -0.53088,-0.94946 -0.008,-0.002 -0.0153,-0.005 -0.0235,-0.006 -0.82099,-0.20428 -1.64278,-0.40723 -2.46929,-0.58822 v 0 c -0.39022,-0.0854 -0.77578,0.16156 -0.86123,0.55179 -0.0827,0.37776 0.14634,0.75374 0.51995,0.85348 z m 2.41549,0.66955 c 0.85321,0.24125 1.7065,0.4822 2.56034,0.72125 v 0 c 0.42306,0.11849 0.86203,-0.12842 0.98049,-0.55151 0.11845,-0.42303 -0.12848,-0.86202 -0.55151,-0.98048 -2.3e-4,-6e-5 -3.4e-4,-10e-6 -7.9e-4,-2.9e-4 -0.86049,-0.24016 -1.72668,-0.45993 -2.59358,-0.6757 v 0 c -0.41224,-0.10258 -0.8296,0.14844 -0.93218,0.56069 -0.10033,0.40304 0.13746,0.81293 0.53711,0.92593 z m 2.56034,0.72125 c 0.63802,0.17867 1.27863,0.34819 1.92228,0.50527 v 0 c 0.42704,0.10423 0.85771,-0.15744 0.96193,-0.58446 0.10422,-0.42707 -0.15747,-0.85773 -0.5845,-0.96193 0,0 0,0 0,0 -0.62658,-0.15293 -1.25019,-0.31767 -1.87139,-0.49104 v 0 c -0.42314,-0.11807 -0.86192,0.12919 -0.98002,0.55237 -0.11799,0.42288 0.12893,0.86143 0.5517,0.97979 z m 1.92228,0.50527 c 0.58013,0.1416 1.16523,0.26457 1.75528,0.35714 v 0 c 0.42714,0.067 0.82771,-0.22493 0.8947,-0.65205 0.0655,-0.41719 -0.21182,-0.81112 -0.62666,-0.89026 -0.55177,-0.10529 -1.10021,-0.22803 -1.64585,-0.36121 v 0 c -0.42704,-0.10425 -0.8577,0.15743 -0.96192,0.58444 -0.10428,0.42702 0.15741,0.85769 0.58445,0.96194 0,0 0,0 0,0 z m 1.75528,0.35714 c 0.51112,0.0802 1.02368,0.15126 1.53767,0.21048 v 0 c 0.41788,0.0481 0.79562,-0.25159 0.84378,-0.66945 0.0474,-0.41127 -0.24244,-0.78506 -0.65255,-0.84161 -0.48902,-0.0675 -0.97599,-0.14924 -1.46086,-0.24173 v 0 c -0.42467,-0.081 -0.83465,0.19756 -0.91567,0.62224 -0.081,0.42468 0.19756,0.83466 0.62226,0.91565 0.009,0.001 0.0168,0.003 0.0254,0.004 z m 1.53771,0.21048 c 0.4471,0.0515 0.8949,0.0969 1.34367,0.13152 v 0 c 0.40977,0.0315 0.76753,-0.27508 0.79905,-0.68482 0.0308,-0.40073 -0.26207,-0.75352 -0.66162,-0.79692 -0.43082,-0.0468 -0.86065,-0.10163 -1.28991,-0.16084 v 0 c -0.41669,-0.0575 -0.80105,0.23371 -0.85854,0.65039 -0.0575,0.41666 0.23371,0.80105 0.65039,0.85855 0.006,0.001 0.0114,9.6e-4 0.017,0.002 z m 1.34367,0.13152 c 0.38453,0.0296 0.77008,0.0486 1.15583,0.0509 v 0 c 0.40062,0.002 0.72733,-0.32043 0.72972,-0.72106 0.002,-0.39019 -0.3044,-0.71233 -0.69425,-0.72906 -0.35209,-0.0152 -0.70356,-0.0445 -1.05389,-0.0825 v 0 c -0.4086,-0.0444 -0.77575,0.25088 -0.82011,0.65948 -0.0444,0.40855 0.25092,0.77573 0.65947,0.8201 0.008,3.9e-4 0.0152,0.002 0.0232,0.002 z m 1.1558,0.0509 c 0.32692,0.002 0.65436,-0.007 0.98009,-0.0358 v 0 c 0.38805,-0.0349 0.67439,-0.37765 0.63952,-0.76576 -0.0336,-0.37381 -0.35393,-0.65592 -0.72898,-0.64188 -0.28492,0.0107 -0.57033,0.006 -0.85512,-0.007 v 0 c -0.40027,-0.0172 -0.73868,0.29332 -0.75592,0.69355 -0.0172,0.40026 0.29332,0.73868 0.69355,0.75592 0.009,3.4e-4 0.0179,5.7e-4 0.0268,6.4e-4 z m 0.98007,-0.0358 c 0.31143,-0.028 0.622,-0.0643 0.932,-0.10493 v 0 c 0.40068,-0.0525 0.68299,-0.41986 0.63052,-0.82056 -0.0525,-0.40069 -0.41989,-0.68296 -0.82053,-0.6305 -0.0351,0.005 -0.0697,0.0117 -0.1039,0.0214 -0.23672,0.0668 -0.48109,0.11782 -0.7275,0.12703 v 0 c -0.38934,0.0146 -0.69319,0.34196 -0.67856,0.7314 0.0146,0.38932 0.342,0.69317 0.73141,0.67857 0.0127,-5.1e-4 0.0244,-0.001 0.0367,-0.002 l 3e-5,-3e-5 z m 0.932,-0.10493 c 0.19827,-0.026 0.40564,-0.0579 0.60633,-0.0465 v 0 c 0.49578,0.0281 0.92049,-0.35107 0.94855,-0.84688 0.0281,-0.49577 -0.35106,-0.92044 -0.84685,-0.94852 -0.25669,-0.0146 -0.50736,0.0815 -0.6886,0.26385 -0.0294,0.0303 -0.0358,0.0403 -0.0677,0.0572 -0.0207,0.0106 -0.0417,0.0201 -0.0631,0.0291 -0.0593,0.0247 -0.12064,0.0446 -0.1825,0.0621 v 6e-5 c -0.3889,0.10982 -0.61515,0.51414 -0.50533,0.90304 0.0987,0.3496 0.43901,0.57383 0.79924,0.52665 z m 0.60633,-0.0465 c 0.21418,0.0121 0.43064,-0.0435 0.61078,-0.16057 0.16111,-0.10465 0.2898,-0.25645 0.36435,-0.43393 0.10598,-0.25232 0.0966,-0.54464 -0.0344,-0.78939 v 0 c -0.0971,-0.18137 -0.25357,-0.3239 -0.44298,-0.4039 -0.28483,-0.11985 -0.6098,-0.082 -0.86831,0.0777 -0.11186,0.069 -0.21033,0.15926 -0.29055,0.2633 v 0 c -0.30314,0.39335 -0.23007,0.95791 0.16328,1.26105 0.14355,0.11059 0.31713,0.17527 0.49803,0.18555 z" />
    <path
       inkscape:connector-curvature="0"
       id="path7897-5"
       style="fill:#187795;fill-opacity:1;fill-rule:nonzero;stroke:none;stroke-width:0.35277778"
       d="m 259.75557,139.01257 v 0 c 0.0242,0.0115 0.0502,0.0182 0.077,0.0186 0.0753,0.001 0.14908,-0.0393 0.21282,-0.0753 0.0743,-0.0419 0.14543,-0.0895 0.21519,-0.13844 v 0 c 0.15147,-0.10615 0.18813,-0.31499 0.0819,-0.46643 -0.10616,-0.15146 -0.31499,-0.18813 -0.46645,-0.0819 -0.0267,0.0186 -0.0503,0.0411 -0.0708,0.0663 -0.076,0.0956 -0.14118,0.20509 -0.16807,0.3254 -0.0277,0.12379 -0.009,0.28858 0.11818,0.35158 z m 0.50494,-0.19515 c 0.15507,-0.10874 0.30587,-0.22389 0.44894,-0.34808 v 0 c 0.16803,-0.14589 0.1859,-0.40038 0.04,-0.56837 -0.1459,-0.16804 -0.40038,-0.18591 -0.5684,-0.04 -0.0216,0.019 -0.0412,0.0402 -0.0586,0.0631 -0.10366,0.13871 -0.20957,0.27572 -0.31697,0.41155 v 0 c -0.11464,0.14514 -0.09,0.35571 0.0551,0.47038 0.11611,0.0918 0.27871,0.0964 0.3999,0.0114 z m 0.44894,-0.34808 c 0.14833,-0.12884 0.2911,-0.26404 0.43116,-0.40177 v 0 c 0.17866,-0.1758 0.18098,-0.46315 0.005,-0.64178 -0.17581,-0.17866 -0.46317,-0.18097 -0.64182,-0.005 -0.0166,0.0165 -0.032,0.0341 -0.0461,0.0528 -0.11163,0.15028 -0.22337,0.30053 -0.33542,0.45052 v 0 c -0.13315,0.17828 -0.0966,0.43074 0.0816,0.56389 0.15187,0.11338 0.36221,0.10569 0.50531,-0.0186 z m 0.43116,-0.40177 c 0.21211,-0.20877 0.41011,-0.43203 0.6058,-0.65611 v 0 c 0.18013,-0.20673 0.15838,-0.5204 -0.0484,-0.70045 -0.20672,-0.18012 -0.5204,-0.15837 -0.70044,0.0484 -0.007,0.008 -0.0142,0.0168 -0.0209,0.0256 -0.17382,0.22878 -0.34736,0.45784 -0.51869,0.68849 l 3e-5,3e-5 c -0.14946,0.20123 -0.10748,0.48547 0.0937,0.63491 0.17956,0.13337 0.42948,0.116 0.5889,-0.0409 z m 0.6058,-0.65611 c 0.20186,-0.23171 0.40429,-0.46287 0.60895,-0.69216 v 0 c 0.19091,-0.21397 0.17223,-0.5422 -0.0417,-0.73312 -0.21396,-0.1909 -0.54219,-0.17226 -0.73311,0.0417 -0.003,0.003 -0.006,0.007 -0.008,0.01 -0.20616,0.24286 -0.40273,0.49389 -0.59545,0.74754 v 0 c -0.16589,0.21829 -0.12335,0.5298 0.095,0.69566 0.20811,0.15813 0.50317,0.12785 0.6748,-0.0693 z m 0.60893,-0.69214 c 0.36183,-0.40484 0.73193,-0.80241 1.09968,-1.20187 v 0 c 0.19618,-0.21278 0.18275,-0.54433 -0.03,-0.74054 -0.21277,-0.19617 -0.54432,-0.18274 -0.7405,0.03 -0.37444,0.40625 -0.75465,0.80932 -1.11242,1.23054 v 0 c -0.18557,0.21864 -0.15885,0.54628 0.0598,0.73188 0.21477,0.18238 0.53582,0.16013 0.72345,-0.0501 z m 1.09968,-1.20187 c 0.23746,-0.25749 0.47333,-0.51665 0.70346,-0.78073 0.1431,-0.16518 0.2876,-0.331 0.41575,-0.50828 v 0 c 0.15544,-0.21493 0.10716,-0.51518 -0.10779,-0.67061 -0.18247,-0.13198 -0.43218,-0.11941 -0.60052,0.0302 -0.16169,0.14374 -0.31284,0.29966 -0.46325,0.45507 -0.24297,0.25115 -0.48094,0.50721 -0.71811,0.76387 v 0 c -0.19621,0.21276 -0.18278,0.54431 0.03,0.74052 0.21277,0.19619 0.54429,0.18276 0.74051,-0.03 2e-5,-2e-5 2e-5,-2e-5 2e-5,-2e-5 z m 1.11921,-1.28901 c 0.14666,-0.20277 0.29073,-0.40746 0.43068,-0.61495 v 0 c 0.12731,-0.1889 0.0774,-0.44528 -0.11146,-0.57261 -0.1701,-0.1147 -0.39869,-0.0869 -0.53638,0.0652 -0.15427,0.1699 -0.31963,0.32955 -0.49111,0.48197 v 0 c -0.19825,0.17624 -0.21613,0.47982 -0.0399,0.67806 0.17624,0.19825 0.47983,0.2161 0.67808,0.0399 0.0266,-0.0228 0.0496,-0.0492 0.0702,-0.0774 z m 0.4307,-0.61497 c 0.14531,-0.21561 0.30321,-0.42274 0.4645,-0.62661 v 0 c 0.12675,-0.16031 0.0996,-0.393 -0.0606,-0.51978 -0.15154,-0.11988 -0.3698,-0.10299 -0.50108,0.0388 -0.18449,0.19924 -0.36843,0.39898 -0.55061,0.6003 v 0 c -0.15313,0.16866 -0.13989,0.42974 0.029,0.5826 0.16866,0.15312 0.42974,0.13989 0.5826,-0.029 0.0132,-0.0145 0.0251,-0.0301 0.0361,-0.0464 z m 0.46447,-0.62658 c 0.14203,-0.17948 0.28457,-0.35879 0.42165,-0.54207 v 0 c 0.10773,-0.14413 0.0782,-0.3483 -0.0659,-0.45605 -0.11901,-0.089 -0.28322,-0.0861 -0.3991,0.007 -0.18855,0.15144 -0.35442,0.33316 -0.51834,0.51012 v 0 c -0.13886,0.14996 -0.12986,0.38407 0.0201,0.52294 0.14996,0.13886 0.38407,0.12986 0.52294,-0.0201 0.007,-0.007 0.0128,-0.0143 0.0187,-0.0218 z m 0.38365,-0.50005 -3e-5,3e-5 c 0.22088,0.0307 0.42485,-0.12335 0.4556,-0.34423 0.0308,-0.22085 -0.12338,-0.42482 -0.34421,-0.45557 -0.15197,-0.0212 -0.30276,0.0456 -0.38921,0.17232 0.005,-0.007 -0.004,0.004 -0.006,0.007 -0.01,0.0109 -0.0199,0.0213 -0.0304,0.0314 -0.0353,0.0353 -0.0743,0.0671 -0.113,0.0986 v 0 c -0.14033,0.11266 -0.16266,0.31777 -0.05,0.45805 0.11264,0.1403 0.31775,0.16263 0.45803,0.05 0.006,-0.005 0.013,-0.0111 0.0195,-0.0167 l -4.5e-4,-1e-5 z m -0.22031,-0.10513 c 0.22367,0.20939 0.57454,0.20503 0.81303,0.0223 v 0 c 0.23465,-0.17983 0.27906,-0.51585 0.0992,-0.75048 -0.17983,-0.23466 -0.51588,-0.27904 -0.75051,-0.0992 -0.0666,0.051 -0.12019,0.11681 -0.15652,0.19238 -0.0186,0.0387 -0.0385,0.0772 -0.0628,0.11271 v 0 c -0.11223,0.16448 -0.0878,0.3862 0.0575,0.52232 z m 0.81307,0.0222 c 0.25847,-0.19823 0.32106,-0.55381 0.35689,-0.8577 v 0 c 0.0364,-0.30882 -0.18441,-0.58867 -0.49323,-0.62509 -0.30878,-0.0364 -0.58863,0.18442 -0.62507,0.49322 0,0 0,0 0,0 -0.01,0.0825 -0.0204,0.16511 -0.0343,0.24708 -0.01,0.0589 -0.0262,0.10839 -0.0432,0.16549 v 0 c -0.0841,0.28343 0.0776,0.58134 0.36098,0.66541 0.16426,0.0487 0.34192,0.0159 0.4779,-0.0884 z m 0.35687,-0.85772 c 0.0223,-0.18941 0.006,-0.38653 -0.0619,-0.56558 -0.0629,-0.16489 -0.18674,-0.35224 -0.37212,-0.39042 v 0 c -0.0203,-0.004 -0.041,-0.006 -0.0617,-0.006 -0.1951,0.001 -0.35694,0.16958 -0.45249,0.32371 -0.0946,0.15267 -0.14909,0.32872 -0.17006,0.50649 v 0 c -0.0364,0.30881 0.18441,0.58866 0.49324,0.62509 0.3088,0.0364 0.58865,-0.18446 0.62504,-0.49324 0,0 0,0 0,0 z" />
    <path
       inkscape:connector-curvature="0"
       id="path7899-3"
       style="fill:#187795;fill-opacity:1;fill-rule:nonzero;stroke:none;stroke-width:0.35277778"
       d="m 292.47629,161.59005 c -0.049,-0.10015 -0.0731,-0.21086 -0.0851,-0.32118 l -4e-5,3e-5 c -0.0132,-0.12155 -0.12238,-0.20935 -0.24392,-0.19613 -0.12148,0.0131 -0.20934,0.12238 -0.19614,0.24395 10e-4,0.008 0.002,0.0156 0.004,0.0233 0.0374,0.17113 0.11629,0.3359 0.24678,0.45542 v 0 c 0.071,0.0652 0.18143,0.0602 0.24652,-0.0108 0.0485,-0.0529 0.0596,-0.13008 0.028,-0.19455 z m -0.0851,-0.32118 c -0.0289,-0.26586 -0.0769,-0.53009 -0.12255,-0.79344 v 0 c -0.0238,-0.13719 -0.15434,-0.22907 -0.2915,-0.20535 -0.13719,0.0238 -0.22909,0.15436 -0.20528,0.29155 2.3e-4,0.006 0.002,0.0112 0.003,0.0166 0.0616,0.25353 0.12401,0.50698 0.17966,0.76192 v 0 c 0.0261,0.1194 0.14404,0.19504 0.2634,0.16904 0.1105,-0.0241 0.18505,-0.12762 0.17282,-0.24007 z m -0.12255,-0.79344 c -0.0687,-0.39606 -0.14909,-0.79008 -0.23758,-1.18215 v 0 c -0.0341,-0.15087 -0.18397,-0.24556 -0.33485,-0.21151 -0.15086,0.034 -0.24556,0.18397 -0.21151,0.33484 8e-4,0.002 0.002,0.006 0.002,0.008 0.0986,0.38389 0.19507,0.76833 0.28857,1.15348 v 0 c 0.0328,0.13532 0.16922,0.21832 0.30449,0.18551 0.12899,-0.0313 0.21162,-0.15726 0.18889,-0.28812 z m -0.23758,-1.18215 c -0.0747,-0.33105 -0.14772,-0.66264 -0.21086,-0.99608 v 0 c -0.031,-0.16369 -0.18874,-0.27121 -0.35245,-0.24017 -0.16362,0.031 -0.27121,0.18875 -0.24017,0.35245 0.001,0.006 0.003,0.012 0.004,0.0182 0.0846,0.33244 0.16972,0.66468 0.255,0.99691 v 0 c 0.0385,0.1498 0.19112,0.24005 0.34089,0.20158 0.1467,-0.0377 0.23685,-0.18515 0.20354,-0.33285 z m -0.21086,-0.99608 c -0.0811,-0.42798 -0.1504,-0.85836 -0.22072,-1.28819 l 3e-5,-3e-5 c -0.0313,-0.19129 -0.21177,-0.32094 -0.403,-0.28974 -0.19132,0.0313 -0.32105,0.21172 -0.28967,0.40306 0.001,0.009 0.003,0.0186 0.006,0.0277 0.1056,0.42607 0.21097,0.85217 0.31922,1.27757 l -3e-5,-3e-5 c 0.041,0.16142 0.20522,0.25894 0.36658,0.21796 0.15436,-0.0393 0.25162,-0.19186 0.22197,-0.34837 z m -0.22072,-1.28819 c -0.0786,-0.48084 -0.15559,-0.96211 -0.22064,-1.445 v 0 c -0.0303,-0.22491 -0.23715,-0.38271 -0.46211,-0.3524 -0.22494,0.0303 -0.38273,0.2372 -0.35242,0.46214 0.002,0.0112 0.004,0.0223 0.006,0.0333 0.10606,0.48285 0.22332,0.96326 0.34227,1.44308 v 0 c 0.0466,0.18813 0.23698,0.30286 0.42513,0.25623 0.17746,-0.044 0.2914,-0.21693 0.26192,-0.39735 z m -0.22064,-1.445 c -0.0481,-0.35702 -0.0894,-0.71503 -0.12335,-1.07368 l -3e-5,-2e-5 c -0.0246,-0.25963 -0.25503,-0.45019 -0.51465,-0.42559 -0.25965,0.0246 -0.4502,0.25501 -0.42562,0.51468 0.002,0.0222 0.006,0.0441 0.0109,0.0658 0.0848,0.35311 0.16614,0.70711 0.24403,1.0618 v 0 c 0.0487,0.22169 0.26788,0.3619 0.48957,0.31323 0.20887,-0.0459 0.34762,-0.24432 0.31908,-0.45625 z m -0.12338,-1.0737 c -0.0341,-0.35925 -0.0734,-0.71803 -0.1188,-1.07603 v 0 c -0.0365,-0.28837 -0.29993,-0.49252 -0.58835,-0.45595 -0.28834,0.0366 -0.49249,0.29994 -0.45595,0.58833 0.001,0.0106 0.003,0.0207 0.005,0.031 0.0673,0.35773 0.1439,0.71367 0.22897,1.06761 v 0 c 0.0609,0.25358 0.31594,0.40972 0.56953,0.34879 0.2286,-0.055 0.38196,-0.2697 0.35973,-0.5038 z m -0.1188,-1.07603 c -0.0918,-0.72406 -0.18937,-1.44736 -0.28562,-2.17082 v 0 c -0.0411,-0.30868 -0.32461,-0.52555 -0.63323,-0.48452 -0.30865,0.0411 -0.52555,0.3246 -0.4845,0.63321 8e-4,0.005 0.002,0.01 0.002,0.0144 0.11582,0.7241 0.22635,1.44999 0.36178,2.17075 l -3e-5,2e-5 c 0.0537,0.28568 0.3288,0.47375 0.61447,0.42008 0.27371,-0.0514 0.45998,-0.30716 0.42499,-0.5834 z m -0.28562,-2.17082 c -0.0974,-0.7318 -0.1898,-1.4652 -0.30668,-2.19422 v 0 c -0.0511,-0.31888 -0.35109,-0.53591 -0.66994,-0.4848 -0.31808,0.051 -0.53499,0.34968 -0.48504,0.66798 0.1137,0.72508 0.23022,1.44972 0.34615,2.17446 v 0 c 0.0492,0.30746 0.33828,0.51687 0.64578,0.46765 0.30178,-0.0483 0.51013,-0.32819 0.46985,-0.63107 z m -0.30668,-2.19422 c -0.0712,-0.44401 -0.13668,-0.88896 -0.20082,-1.33409 v 0 c -0.0457,-0.31724 -0.34,-0.53737 -0.6573,-0.49163 -0.31541,0.0455 -0.53518,0.33673 -0.49237,0.65248 0.0614,0.45268 0.1246,0.90516 0.19538,1.35648 v 0 c 0.0501,0.31904 0.34927,0.5371 0.66827,0.48707 0.31905,-0.05 0.53712,-0.34926 0.48709,-0.66828 3e-5,-4.2e-4 -2.7e-4,-10e-4 -7e-5,-10e-4 z m -0.20082,-1.33409 c -0.0565,-0.39182 -0.11094,-0.78516 -0.18745,-1.17373 v 0 c -0.0601,-0.30524 -0.35624,-0.50397 -0.66145,-0.44387 -0.28793,0.0567 -0.4841,0.32491 -0.4509,0.61645 0.0442,0.38795 0.0977,0.77499 0.15018,1.16192 v 0 c 0.043,0.31764 0.33547,0.54022 0.6531,0.49715 0.31765,-0.043 0.54022,-0.33549 0.49718,-0.65313 -6e-5,-0.001 -1.1e-4,-0.003 -7.9e-4,-0.005 z m -0.18745,-1.17373 c -0.0582,-0.29563 -0.12759,-0.58904 -0.19907,-0.88168 v 0 c -0.0708,-0.28994 -0.36323,-0.46757 -0.65317,-0.39671 -0.28296,0.0691 -0.46022,0.35007 -0.40079,0.63522 0.0563,0.26991 0.10944,0.54168 0.14068,0.8158 v 0 c 0.0353,0.3091 0.3144,0.53107 0.62351,0.49581 0.3091,-0.0353 0.53109,-0.31438 0.49588,-0.62344 -0.002,-0.0152 -0.004,-0.03 -0.007,-0.045 z m -0.19907,-0.88168 c -0.0671,-0.27485 -0.13477,-0.55246 -0.23162,-0.81871 v 0 c -0.097,-0.26646 -0.39159,-0.40391 -0.65807,-0.30696 -0.24048,0.0875 -0.37985,0.33871 -0.32676,0.58907 0.0548,0.25822 0.10864,0.51668 0.16249,0.77511 v 0 c 0.0609,0.29215 0.34712,0.47965 0.6393,0.41873 0.29216,-0.0609 0.47965,-0.34712 0.41873,-0.6393 -0.001,-0.006 -0.003,-0.012 -0.004,-0.0179 z m -0.23164,-0.81873 c -0.0863,-0.23725 -0.13728,-0.48972 -0.19122,-0.73569 v 0 c -0.0597,-0.27223 -0.32879,-0.4445 -0.60102,-0.3848 -0.27219,0.0597 -0.44448,0.32878 -0.38479,0.60101 8e-4,0.005 0.003,0.0105 0.003,0.0154 0.0658,0.26135 0.13267,0.52281 0.18864,0.7865 v 0 c 0.0589,0.2774 0.33143,0.45458 0.60883,0.39573 0.27741,-0.0589 0.45458,-0.33149 0.39573,-0.60889 -0.005,-0.0234 -0.0115,-0.0465 -0.0198,-0.0689 z m -0.19122,-0.73569 c -0.0637,-0.29025 -0.12659,-0.58088 -0.18185,-0.87288 v 0 c -0.0533,-0.28176 -0.32498,-0.46696 -0.60675,-0.41362 -0.28179,0.0533 -0.46695,0.32498 -0.41367,0.60675 0.001,0.006 0.003,0.0119 0.004,0.0177 0.0674,0.29892 0.1415,0.59634 0.21634,0.89346 l 3e-5,-3e-5 c 0.068,0.27025 0.34235,0.43413 0.61257,0.36609 0.26437,-0.0666 0.42809,-0.33112 0.36963,-0.59744 z m -0.18185,-0.87288 c -0.0407,-0.21518 -0.0768,-0.43127 -0.10874,-0.64796 v 0 c -0.0429,-0.29119 -0.31377,-0.49244 -0.60496,-0.44954 -0.29119,0.043 -0.49247,0.3138 -0.44953,0.60496 0.001,0.008 0.003,0.0161 0.004,0.024 0.0441,0.22711 0.0915,0.45361 0.14241,0.67931 v 0 c 0.0631,0.27975 0.34107,0.45536 0.6208,0.39221 0.27288,-0.0615 0.44794,-0.32819 0.39591,-0.60307 z m -0.10874,-0.64796 c -0.036,-0.24385 -0.0779,-0.48684 -0.12485,-0.7288 v 0 c -0.058,-0.29861 -0.34701,-0.4937 -0.64557,-0.43576 -0.29861,0.058 -0.49371,0.34695 -0.43575,0.64556 0.002,0.01 0.004,0.0192 0.006,0.0288 0.0555,0.22193 0.1057,0.44518 0.1494,0.66976 v 0 c 0.0562,0.28894 0.33601,0.47759 0.62494,0.42137 0.27963,-0.0544 0.46703,-0.31906 0.42549,-0.60088 z m -0.12485,-0.7288 c -0.057,-0.29385 -0.12528,-0.58547 -0.19779,-0.87586 v 0 c -0.0749,-0.29986 -0.37874,-0.48218 -0.67858,-0.40735 -0.29905,0.0747 -0.48138,0.37714 -0.40786,0.67645 0.0693,0.28193 0.13882,0.56368 0.20927,0.84533 v 0 c 0.0738,0.29505 0.37287,0.47444 0.66795,0.40062 0.28396,-0.0711 0.46275,-0.35182 0.40701,-0.63919 z m -0.19779,-0.87586 c -0.0626,-0.25075 -0.12488,-0.50168 -0.18265,-0.75358 v 0 c -0.0719,-0.31357 -0.3844,-0.50944 -0.69793,-0.43751 -0.31354,0.0719 -0.50945,0.3844 -0.43751,0.69793 0.007,0.0314 0.017,0.0622 0.0293,0.092 0.0889,0.21541 0.14688,0.44459 0.20234,0.67034 l 1e-5,2e-5 c 0.0737,0.30014 0.37683,0.48368 0.677,0.40995 0.30013,-0.0737 0.48368,-0.37683 0.40997,-0.67701 -2.7e-4,-6.6e-4 -2.1e-4,-10e-4 -8e-4,-0.002 z m -0.18262,-0.75361 c -0.0198,-0.086 -0.0521,-0.16933 -0.0993,-0.24403 -0.11509,-0.18219 -0.31757,-0.30162 -0.53782,-0.28996 l -3e-5,3e-5 c -0.17542,0.009 -0.33639,0.10009 -0.4349,0.24552 -0.13163,0.19448 -0.11983,0.43321 -0.0341,0.64087 v 0 c 0.12271,0.29735 0.46325,0.43896 0.76063,0.31623 0.26305,-0.10857 0.40912,-0.39134 0.34553,-0.66866 z" />
    <path
       inkscape:connector-curvature="0"
       id="path7901-5"
       style="fill:#187795;fill-opacity:1;fill-rule:nonzero;stroke:none;stroke-width:0.35277778"
       d="m 267.03295,131.30949 c -0.17156,-0.0743 -0.39247,-0.15761 -0.56988,-0.0548 v 0 c -0.0777,0.045 -0.13245,0.12123 -0.15025,0.20931 -0.0404,0.19856 0.10553,0.38086 0.22728,0.5204 v 0 c 0.15555,0.17832 0.42619,0.19674 0.60451,0.0412 0.17833,-0.15556 0.19676,-0.4262 0.0412,-0.60453 -0.0419,-0.0482 -0.0943,-0.0861 -0.15277,-0.11162 z m 0.0192,1.21611 v 0 c 0.22022,0.20077 0.56126,0.18575 0.76232,-0.0342 0.20077,-0.22022 0.18575,-0.56125 -0.0342,-0.76231 -0.0107,-0.01 -0.0218,-0.0192 -0.0332,-0.028 -0.21441,-0.1664 -0.46629,-0.28446 -0.71412,-0.39161 l 3e-5,-3e-5 c -0.21719,-0.0939 -0.46942,0.006 -0.56332,0.2232 -0.0656,0.15155 -0.0382,0.32729 0.0704,0.4517 0.16303,0.18687 0.32888,0.37375 0.51218,0.54122 z m 1.14534,-0.45498 c -0.14728,-0.12656 -0.29698,-0.25046 -0.45045,-0.36954 v 0 c -0.23543,-0.18269 -0.57438,-0.13999 -0.75709,0.0954 -0.17239,0.22208 -0.14531,0.53938 0.0622,0.72908 0.13199,0.1206 0.26056,0.24485 0.38775,0.37055 v 0 c 0.22038,0.21726 0.5753,0.21436 0.79243,-0.006 0.21725,-0.22038 0.21435,-0.57531 -0.006,-0.79243 -0.009,-0.009 -0.019,-0.018 -0.029,-0.0266 z m 0.5396,0.51508 c -0.17151,-0.18013 -0.35049,-0.35341 -0.53957,-0.51506 v 0 c -0.23521,-0.20113 -0.58893,-0.17352 -0.79004,0.0617 -0.19124,0.22361 -0.17695,0.55704 0.0327,0.76346 0.15242,0.15037 0.2976,0.30795 0.43768,0.46979 v 0 c 0.20972,0.24239 0.57621,0.26894 0.81862,0.0592 0.24238,-0.20971 0.2689,-0.57619 0.0592,-0.81861 -0.006,-0.007 -0.0122,-0.0139 -0.0189,-0.0202 z m 0.54565,0.59421 c -0.17873,-0.20097 -0.36023,-0.39945 -0.54565,-0.59421 v 0 c -0.22101,-0.23213 -0.58837,-0.24112 -0.82053,-0.0201 -0.22432,0.21359 -0.24134,0.56574 -0.0387,0.8 0.16642,0.19229 0.3282,0.38863 0.48671,0.58749 v 0 c 0.20666,0.25931 0.58444,0.30194 0.84373,0.0953 0.25933,-0.20668 0.30196,-0.58445 0.0953,-0.84375 -0.006,-0.009 -0.0137,-0.0167 -0.0209,-0.0247 z m 1.07323,1.25931 c -0.35453,-0.42223 -0.70681,-0.84729 -1.07323,-1.25931 l 2e-5,-2e-5 c -0.2204,-0.24778 -0.5999,-0.27003 -0.84769,-0.0496 -0.23839,0.21201 -0.26934,0.57344 -0.0705,0.8229 0.33967,0.42606 0.67696,0.85402 1.01471,1.28159 v 0 c 0.21567,0.27295 0.61174,0.31948 0.88473,0.10384 0.27297,-0.21569 0.31948,-0.61178 0.10384,-0.88477 -0.004,-0.005 -0.008,-0.01 -0.0123,-0.0141 z m 1.03161,1.20512 c -0.35568,-0.39089 -0.69187,-0.80051 -1.03161,-1.20512 v 0 c -0.22368,-0.26646 -0.62103,-0.30105 -0.88744,-0.0774 -0.2608,0.21903 -0.30035,0.60564 -0.0892,0.87287 0.33691,0.4265 0.67102,0.85618 1.02032,1.27271 v 0 c 0.23284,0.27765 0.64662,0.31401 0.92427,0.0812 0.27766,-0.23285 0.31399,-0.64664 0.0812,-0.9243 -0.006,-0.007 -0.0116,-0.0134 -0.0174,-0.0201 z m 0.50764,0.53975 c -0.17233,-0.17695 -0.34143,-0.35703 -0.50766,-0.53977 v 0 c -0.24386,-0.26796 -0.65881,-0.28752 -0.92679,-0.0437 -0.26033,0.23694 -0.28733,0.63708 -0.0611,0.90681 0.16481,0.19654 0.33037,0.39241 0.49694,0.58745 v 0 c 0.24251,0.28399 0.66929,0.31766 0.95327,0.0752 0.28399,-0.2425 0.31767,-0.66928 0.0752,-0.95329 -0.009,-0.0114 -0.0196,-0.0222 -0.0297,-0.0329 z m 0.71729,0.70787 c -0.24188,-0.23304 -0.48302,-0.46716 -0.71729,-0.70787 v 0 c -0.26052,-0.26756 -0.68864,-0.27321 -0.95616,-0.0126 -0.25525,0.24853 -0.27384,0.65252 -0.0425,0.92346 0.23512,0.2754 0.49136,0.53314 0.74886,0.78743 v 0 c 0.27199,0.26861 0.71021,0.26594 0.97883,-0.006 0.26869,-0.27192 0.26598,-0.71018 -0.006,-0.97883 -0.002,-0.002 -0.004,-0.004 -0.006,-0.006 z m 1.5588,1.44992 c -0.5231,-0.47928 -1.04799,-0.95749 -1.5588,-1.44992 v 0 c -0.27525,-0.26523 -0.71325,-0.25771 -0.9787,0.0173 -0.26311,0.27295 -0.25812,0.70664 0.0116,0.97309 0.51371,0.5075 1.04275,0.99976 1.57023,1.49276 v 0 c 0.28407,0.26521 0.72919,0.25024 0.99454,-0.0337 0.26519,-0.28404 0.25021,-0.72915 -0.0337,-0.9945 -0.001,-0.001 -0.004,-0.003 -0.005,-0.005 z m 1.27321,1.16833 c -0.42096,-0.39307 -0.84816,-0.77966 -1.27321,-1.16833 v 0 c -0.28678,-0.26227 -0.7317,-0.24272 -0.99409,0.0439 -0.26034,0.28469 -0.24327,0.72579 0.0386,0.9892 0.41532,0.38786 0.83606,0.7712 1.24291,1.16797 v 0 c 0.28217,0.2753 0.73406,0.26974 1.00937,-0.0125 0.27528,-0.28214 0.26969,-0.73407 -0.0125,-1.00934 -0.004,-0.004 -0.007,-0.007 -0.0113,-0.0108 z m 0.49797,0.4724 c -0.1653,-0.1582 -0.33133,-0.31569 -0.49799,-0.47242 v 0 c -0.28816,-0.269 -0.73978,-0.25364 -1.00883,0.0345 -0.26491,0.28374 -0.25462,0.72712 0.0232,0.99815 0.12745,0.12458 0.23049,0.27848 0.33141,0.42428 v 0 c 0.23954,0.34593 0.71413,0.43226 1.0601,0.19273 0.3459,-0.23951 0.43222,-0.71409 0.19273,-1.06003 -0.0294,-0.0425 -0.063,-0.0818 -0.10036,-0.11751 z m 0.60775,0.60992 c -0.19644,-0.2093 -0.40014,-0.41168 -0.60775,-0.60992 v 0 c -0.30425,-0.29067 -0.78665,-0.27928 -1.07718,0.0251 -0.24971,0.2614 -0.28104,0.66245 -0.0753,0.95969 0.15312,0.22114 0.30525,0.44298 0.45562,0.66599 v 0 c 0.2585,0.38334 0.77881,0.48458 1.16215,0.22608 0.38334,-0.25848 0.48453,-0.7788 0.22609,-1.16214 -0.025,-0.0371 -0.053,-0.0721 -0.0837,-0.1048 z m 0.45765,0.46877 c -0.15629,-0.15259 -0.30818,-0.30955 -0.45765,-0.46877 v 0 c -0.31639,-0.33716 -0.84617,-0.35398 -1.18334,-0.0376 -0.29948,0.28107 -0.35087,0.73792 -0.12121,1.07849 0.14789,0.21931 0.30655,0.43158 0.47928,0.63202 v 0 c 0.31747,0.36838 0.87346,0.40964 1.24185,0.0922 0.36838,-0.31747 0.40962,-0.87348 0.0922,-1.24185 -0.0161,-0.019 -0.033,-0.0373 -0.0513,-0.0542 z m 0.48346,0.44401 c -0.16471,-0.14403 -0.32689,-0.29117 -0.48346,-0.44401 v 0 c -0.34754,-0.3402 -0.90505,-0.33418 -1.24518,0.0134 -0.3199,0.3269 -0.33632,0.84428 -0.0377,1.19075 0.16972,0.19699 0.34932,0.38542 0.53424,0.56814 v 0 c 0.35612,0.3518 0.93001,0.34828 1.28178,-0.008 0.35181,-0.35612 0.34828,-0.93001 -0.008,-1.28178 -0.0135,-0.0134 -0.0275,-0.0263 -0.0418,-0.0388 z m -0.41178,2.00049 v 0 c 0.41179,0.29105 0.9815,0.19312 1.27251,-0.21865 0.28675,-0.40566 0.19646,-0.96614 -0.20311,-1.26131 -0.2248,-0.16606 -0.44673,-0.33696 -0.65762,-0.52053 v 0 c -0.37755,-0.32872 -0.95003,-0.28918 -1.27875,0.0883 -0.31422,0.36083 -0.2938,0.90374 0.0466,1.24 0.25178,0.24873 0.5317,0.46817 0.8204,0.67217 z m 0,0 c 0.26485,0.18714 0.533,0.36998 0.80801,0.54191 v 0 c 0.40935,0.25585 0.94857,0.13149 1.20445,-0.27782 0.22588,-0.36129 0.15828,-0.8328 -0.15995,-1.11614 -0.24982,-0.22268 -0.51401,-0.42909 -0.78311,-0.62791 v 0 c -0.40562,-0.29952 -0.97723,-0.21363 -1.27682,0.19194 -0.2996,0.40556 -0.21364,0.97723 0.19193,1.27682 0.005,0.004 0.01,0.008 0.0153,0.0114 z m 0.80804,0.54193 c 0.20539,0.12839 0.40957,0.25878 0.61199,0.39183 v 0 c 0.38685,0.2544 0.90673,0.14704 1.16112,-0.23981 0.25209,-0.38333 0.14921,-0.8981 -0.23081,-1.15512 -0.17489,-0.1183 -0.34023,-0.25053 -0.49787,-0.39088 l 2e-5,-2e-5 c -0.36058,-0.32094 -0.913,-0.28888 -1.23399,0.0716 -0.32094,0.36058 -0.28889,0.91302 0.0716,1.23402 0.0368,0.0327 0.0762,0.0622 0.11787,0.0884 z m 0.61199,0.39183 c 0.18236,0.1199 0.36816,0.23685 0.56381,0.33404 v 0 c 0.41002,0.2037 0.9075,0.0364 1.11118,-0.37358 0.19368,-0.38988 0.0528,-0.86316 -0.32263,-1.08361 -0.14425,-0.0847 -0.28355,-0.17814 -0.42204,-0.27179 v 0 c -0.38355,-0.25938 -0.90472,-0.15873 -1.16411,0.2248 -0.25938,0.38356 -0.15873,0.90472 0.22481,1.16411 0.003,0.002 0.006,0.004 0.009,0.006 z m 0.56381,0.33404 c 0.14872,0.0738 0.30153,0.13942 0.45773,0.19562 v 0 c 0.4227,0.1521 0.88861,-0.0673 1.04069,-0.48992 0.14305,-0.39752 -0.0421,-0.83837 -0.42601,-1.01457 -0.0971,-0.0445 -0.19174,-0.0942 -0.28385,-0.14832 v 0 c -0.39475,-0.23188 -0.90274,-0.0998 -1.13456,0.29506 -0.23187,0.39474 -0.0997,0.90274 0.29507,1.13455 0.0166,0.01 0.0337,0.0189 0.0509,0.0276 z m 0.45776,0.19565 c 0.15485,0.0557 0.30264,0.13584 0.44813,0.21168 v 0 c 0.39144,0.20411 0.87423,0.0523 1.07831,-0.33921 0.20017,-0.38384 0.0583,-0.85731 -0.31988,-1.0679 -0.19432,-0.10821 -0.38973,-0.21632 -0.59196,-0.30913 v 0 c -0.40829,-0.18735 -0.89112,-0.008 -1.07846,0.40001 -0.18737,0.40825 -0.008,0.89109 0.4,1.07843 0.0208,0.01 0.0423,0.0184 0.0639,0.0261 z m 0.44813,0.21168 c 0.19946,0.10398 0.3984,0.20895 0.59562,0.31712 l 3e-5,-2e-5 c 0.38074,0.20882 0.85865,0.0694 1.06742,-0.31131 0.20104,-0.3666 0.08,-0.82646 -0.27555,-1.04655 -0.20635,-0.12777 -0.41708,-0.2483 -0.62909,-0.36635 v 0 c -0.38571,-0.21475 -0.87248,-0.0762 -1.08723,0.30949 -0.21477,0.38572 -0.0762,0.87248 0.30952,1.08725 0.006,0.003 0.0131,0.007 0.019,0.0107 z m 0.59567,0.31712 c 0.14892,0.0816 0.28981,0.17739 0.42522,0.27963 v 0 c 0.35109,0.26493 0.85047,0.19508 1.11544,-0.15602 0.26493,-0.3511 0.19508,-0.85048 -0.156,-1.11543 -0.0223,-0.0165 -0.0452,-0.0323 -0.0689,-0.0465 -0.17519,-0.10551 -0.34992,-0.21183 -0.52381,-0.31947 v 0 c -0.36922,-0.22857 -0.85379,-0.11461 -1.08237,0.25461 -0.22855,0.36919 -0.11459,0.85377 0.2546,1.08237 0.0114,0.008 0.024,0.014 0.0359,0.0209 z m 0.42524,0.27966 c 0.11298,0.0852 0.22782,0.16967 0.33418,0.26317 v 0 c 0.34051,0.29967 0.85942,0.2666 1.1591,-0.0739 0.29967,-0.34051 0.26657,-0.85944 -0.0739,-1.1591 -0.0199,-0.0174 -0.0401,-0.0344 -0.0621,-0.0492 -0.14979,-0.10805 -0.30881,-0.20366 -0.4669,-0.29882 v 0 c -0.37682,-0.22689 -0.8662,-0.10533 -1.09306,0.27148 -0.21031,0.3493 -0.12286,0.80097 0.20261,1.04653 z m 0.33418,0.26317 c 0.11005,0.0962 0.24333,0.16494 0.38637,0.19597 0.32976,0.0716 0.68386,-0.0637 0.87085,-0.35952 v 0 c 0.0302,-0.0479 0.0554,-0.0989 0.075,-0.15206 0.1325,-0.35938 -0.0107,-0.75151 -0.30903,-0.96686 v 0 c -0.36777,-0.2655 -0.88114,-0.18249 -1.1466,0.18532 -0.24753,0.34287 -0.19412,0.81774 0.12335,1.09712 z" />
    <path
       inkscape:connector-curvature="0"
       id="path7903-6"
       style="fill:#187795;fill-opacity:1;fill-rule:nonzero;stroke:none;stroke-width:0.35277778"
       d="m 282.14742,146.27485 c 0.0473,0.0162 0.0977,0.0215 0.1473,0.0181 v 0 c 0.19474,-0.0137 0.34152,-0.18267 0.32788,-0.37738 -0.0137,-0.19478 -0.18265,-0.34154 -0.3774,-0.32789 -0.19476,0.0137 -0.34155,0.18269 -0.3279,0.37739 5.1e-4,0.0127 0.003,0.0259 0.005,0.0387 0.0103,0.0564 0.0325,0.1106 0.0671,0.15648 v 0 c 0.0401,0.0531 0.095,0.0933 0.15816,0.11469 z m 0.14737,0.018 c 0.0881,-0.006 0.17454,-0.0331 0.25756,-0.0618 0.10241,-0.0354 0.20277,-0.0771 0.30195,-0.12052 l 3e-5,3e-5 c 0.24936,-0.10898 0.36345,-0.39921 0.25419,-0.64883 -0.10898,-0.24936 -0.39921,-0.36344 -0.64881,-0.25421 -0.0321,0.014 -0.0627,0.0315 -0.0911,0.0521 -0.11504,0.0831 -0.22441,0.17773 -0.31037,0.29139 -0.0966,0.12786 -0.16569,0.28981 -0.13605,0.45271 l 3e-5,2e-5 c 0.0323,0.17727 0.19284,0.30182 0.37261,0.28916 z m 0.55949,-0.18231 c 0.19271,-0.0842 0.38431,-0.17362 0.56534,-0.281 v 0 c 0.25739,-0.15272 0.34223,-0.48515 0.18953,-0.74249 -0.15269,-0.25737 -0.48514,-0.34223 -0.74249,-0.18953 -0.0172,0.01 -0.0332,0.0209 -0.0489,0.0328 -0.14843,0.11141 -0.29863,0.22061 -0.44912,0.32926 v 0 c -0.22061,0.15932 -0.27037,0.4673 -0.11106,0.68794 0.13571,0.18804 0.38423,0.25592 0.59676,0.16305 z m 0.56534,-0.281 c 0.15362,-0.0911 0.3008,-0.19277 0.44254,-0.30139 v 0 c 0.2475,-0.18961 0.29447,-0.54392 0.10488,-0.79145 -0.18959,-0.24749 -0.5439,-0.29451 -0.79143,-0.10491 -0.0129,0.01 -0.0252,0.02 -0.0368,0.031 -0.103,0.0938 -0.20945,0.18394 -0.32087,0.26754 v 0 c -0.23932,0.17971 -0.28767,0.51933 -0.10801,0.75865 0.16605,0.22111 0.47197,0.28179 0.7098,0.14068 z m 0.44256,-0.30142 c 0.21082,-0.16154 0.40292,-0.34807 0.59117,-0.53486 l 3e-5,3e-5 c 0.22803,-0.22629 0.22952,-0.59458 0.003,-0.82264 -0.2263,-0.22803 -0.59461,-0.22954 -0.82267,-0.003 -0.004,0.004 -0.007,0.008 -0.011,0.0114 -0.15762,0.16468 -0.31589,0.33007 -0.48416,0.48402 v 0 c -0.23041,0.21002 -0.247,0.56703 -0.037,0.79749 0.19747,0.21664 0.52786,0.24615 0.76056,0.0679 z m 0.59117,-0.53486 c 0.19293,-0.19139 0.38427,-0.38461 0.56882,-0.58418 v 0 c 0.22056,-0.23849 0.20601,-0.61063 -0.0325,-0.83119 -0.23848,-0.22056 -0.6106,-0.20604 -0.83116,0.0324 -0.17677,0.19114 -0.35631,0.37971 -0.53592,0.56819 l 3e-5,3e-5 c -0.22168,0.23253 -0.21321,0.60062 0.0192,0.82242 0.228,0.21749 0.58765,0.21404 0.81134,-0.008 z m 0.56885,-0.58421 c 0.17434,-0.18858 0.33492,-0.38972 0.48675,-0.59676 v 0 c 0.18968,-0.25876 0.13379,-0.62228 -0.12495,-0.81198 -0.25194,-0.18474 -0.60482,-0.1372 -0.79884,0.10765 -0.13641,0.17223 -0.27747,0.34109 -0.4266,0.50248 l -2e-5,-2e-5 c -0.22054,0.23851 -0.20597,0.61063 0.0325,0.83119 0.23851,0.22053 0.61065,0.20598 0.83119,-0.0325 z m 0.48675,-0.59676 c 0.16051,-0.21894 0.31474,-0.44243 0.46273,-0.67001 v 0 c 0.17166,-0.26402 0.0968,-0.61726 -0.16731,-0.78893 -0.26081,-0.16952 -0.60936,-0.0988 -0.78342,0.15903 -0.13766,0.20394 -0.28296,0.40274 -0.43582,0.59556 v 0 c -0.19927,0.25147 -0.15693,0.61684 0.0945,0.81611 0.25144,0.19925 0.61683,0.15694 0.81608,-0.0945 0.004,-0.006 0.009,-0.0113 0.0132,-0.0172 z m 0.46273,-0.67001 c 0.14722,-0.22652 0.28574,-0.45878 0.41313,-0.69702 v 0 c 0.14258,-0.26674 0.0419,-0.59859 -0.22481,-0.7412 -0.24739,-0.1322 -0.55466,-0.0562 -0.71183,0.1761 -0.1425,0.21065 -0.28493,0.42137 -0.42722,0.63222 v 0 c -0.17623,0.261 -0.10747,0.61548 0.15355,0.79168 0.261,0.17623 0.61547,0.10749 0.79171,-0.15354 0.002,-0.002 0.004,-0.006 0.005,-0.009 z m 0.41311,-0.697 c 0.10975,-0.20527 0.22312,-0.4086 0.34072,-0.60946 v 0 c 0.14361,-0.2453 0.0612,-0.56055 -0.18408,-0.70417 -0.23167,-0.13565 -0.52867,-0.0704 -0.68223,0.14984 -0.13842,0.19857 -0.27536,0.39818 -0.411,0.59869 l -3e-5,-2e-5 c -0.16951,0.25049 -0.10379,0.59101 0.14676,0.76052 0.25049,0.16952 0.59102,0.10378 0.7605,-0.14673 0.0105,-0.0158 0.0202,-0.0322 0.0293,-0.0487 z m 0.34072,-0.60946 c 0.1045,-0.17851 0.21169,-0.35537 0.32378,-0.52922 v 0 c 0.14594,-0.22645 0.0807,-0.52835 -0.14582,-0.6743 -0.21235,-0.13687 -0.49411,-0.0889 -0.64925,0.11051 -0.1367,0.17577 -0.26766,0.35596 -0.39497,0.53867 v 0 c -0.16258,0.23313 -0.10533,0.55396 0.12782,0.71651 0.23311,0.16259 0.55395,0.10532 0.71651,-0.12782 0.008,-0.0113 0.0152,-0.0224 0.0221,-0.0342 z m 0.32378,-0.52922 c 0.1194,-0.18534 0.25113,-0.36269 0.38607,-0.53686 v 0 c 0.15645,-0.20217 0.1195,-0.49288 -0.0826,-0.64939 -0.19387,-0.15016 -0.4712,-0.123 -0.63234,0.0618 -0.1597,0.18314 -0.31694,0.36878 -0.46617,0.56063 l -1e-5,-2e-5 c -0.16544,0.21262 -0.12718,0.51912 0.0855,0.68457 0.21261,0.16543 0.51911,0.12718 0.68458,-0.0855 0.009,-0.0113 0.0173,-0.0231 0.0247,-0.0356 z m 0.3861,-0.53689 c 0.0992,-0.12811 0.20825,-0.26825 0.34459,-0.35966 v 0 c 0.23312,-0.15651 0.29522,-0.47235 0.13872,-0.70549 -0.15651,-0.23312 -0.47238,-0.29523 -0.70549,-0.13871 -0.0668,0.0449 -0.12204,0.10497 -0.16108,0.17538 -0.0889,0.1602 -0.21178,0.30361 -0.33162,0.44111 l -3e-5,-3e-5 c -0.16827,0.19241 -0.14791,0.48511 0.0448,0.6531 0.19245,0.1683 0.48511,0.14792 0.65311,-0.0448 0.006,-0.007 0.0116,-0.0136 0.0175,-0.0204 z m 0.21442,-0.29674 -2e-5,-3e-5 c 0.34045,0.0166 0.62992,-0.24588 0.64652,-0.58635 0.0166,-0.34044 -0.24592,-0.62989 -0.58636,-0.64653 -0.24897,-0.0122 -0.4808,0.12668 -0.58768,0.3519 -0.0242,0.0511 -0.0429,0.0999 -0.0702,0.14922 v 0 c -0.13628,0.24547 -0.0478,0.55498 0.19776,0.69125 0.12221,0.0679 0.26697,0.0824 0.40028,0.0402 l -1.4e-4,2.4e-4 z m 0.55046,-0.0243 v 0 c 0.29345,-0.22857 0.35985,-0.64533 0.15188,-0.95374 -0.20671,-0.30647 -0.62743,-0.40637 -0.94918,-0.22653 v 0 c -0.17798,0.0995 -0.30385,0.27151 -0.34491,0.47124 -0.0523,0.25461 0.0424,0.52278 0.24044,0.68987 0.2543,0.21456 0.63593,0.22619 0.9018,0.0192 z" />
  </g>
</svg>
