<?xml version="1.0" encoding="UTF-8" standalone="no"?>
<!-- Created with Inkscape (http://www.inkscape.org/) -->

<svg
   xmlns:dc="http://purl.org/dc/elements/1.1/"
   xmlns:cc="http://creativecommons.org/ns#"
   xmlns:rdf="http://www.w3.org/1999/02/22-rdf-syntax-ns#"
   xmlns:svg="http://www.w3.org/2000/svg"
   xmlns="http://www.w3.org/2000/svg"
   xmlns:sodipodi="http://sodipodi.sourceforge.net/DTD/sodipodi-0.dtd"
   xmlns:inkscape="http://www.inkscape.org/namespaces/inkscape"
   width="48.681515mm"
   height="246.66365mm"
   viewBox="0 0 48.681515 246.66365"
   version="1.1"
   id="svg1831"
   inkscape:version="0.92.3 (2405546, 2018-03-11)"
   sodipodi:docname="scale_as.svg">
  <defs
     id="defs1825" />
  <sodipodi:namedview
     id="base"
     pagecolor="#ffffff"
     bordercolor="#666666"
     borderopacity="1.0"
     inkscape:pageopacity="0.0"
     inkscape:pageshadow="2"
     inkscape:zoom="0.7"
     inkscape:cx="378.02708"
     inkscape:cy="492.68247"
     inkscape:document-units="mm"
     inkscape:current-layer="layer1"
     showgrid="false"
     fit-margin-top="0"
     fit-margin-left="0"
     fit-margin-right="0"
     fit-margin-bottom="0"
     inkscape:window-width="960"
     inkscape:window-height="1025"
     inkscape:window-x="960"
     inkscape:window-y="27"
     inkscape:window-maximized="0" />
  <metadata
     id="metadata1828">
    <rdf:RDF>
      <cc:Work
         rdf:about="">
        <dc:format>image/svg+xml</dc:format>
        <dc:type
           rdf:resource="http://purl.org/dc/dcmitype/StillImage" />
        <dc:title></dc:title>
      </cc:Work>
    </rdf:RDF>
  </metadata>
  <g
     inkscape:label="Layer 1"
     inkscape:groupmode="layer"
     id="layer1"
     transform="translate(-33.867585,-29.28127)">
    <path
       inkscape:connector-curvature="0"
       id="path531"
       style="fill:#000000;fill-opacity:1;fill-rule:nonzero;stroke:none;stroke-width:0.35277775"
       d="m 43.922326,37.772986 c -0.01503,-0.117617 -0.03066,-0.235338 -0.05143,-0.352143 -0.01665,-0.09377 -0.03359,-0.195651 -0.09133,-0.274214 v 0 c -0.05009,-0.06819 -0.126259,-0.112501 -0.210291,-0.122414 -0.144145,-0.01697 -0.270334,0.06759 -0.343429,0.184714 -0.032,0.05129 -0.05514,0.107739 -0.07331,0.165277 -0.04195,0.132962 -0.06061,0.273085 -0.07405,0.411444 v 0 c -0.02275,0.233398 0.148061,0.441043 0.381494,0.463762 0.233398,0.02275 0.441043,-0.148061 0.463797,-0.381494 0.0032,-0.03157 0.0025,-0.06343 -0.0014,-0.09493 z m 0.121955,3.738492 c -0.0036,-0.787753 -0.01108,-1.575718 -0.03641,-2.363082 -0.01474,-0.458118 -0.02741,-0.920257 -0.08555,-1.37541 v 0 c -0.0297,-0.232622 -0.242353,-0.397122 -0.47501,-0.367418 -0.196568,0.02512 -0.349638,0.182844 -0.36883,0.380082 -0.04417,0.453461 -0.05394,0.910978 -0.06544,1.366168 -0.01993,0.786377 -0.02639,1.573106 -0.02992,2.359695 v 0 c -0.0014,0.293017 0.235161,0.531636 0.528214,0.532941 0.293017,0.0014 0.531636,-0.235161 0.532941,-0.528179 0,-0.0018 0,-0.0032 0,-0.0048 z m -1.005875,3.712986 v 0 c 0.02332,0.285079 0.273297,0.497275 0.558377,0.473992 0.27245,-0.0223 0.480694,-0.252483 0.475614,-0.525815 -0.02268,-1.220117 -0.02254,-2.440905 -0.02812,-3.661163 v 0 c -0.0014,-0.293053 -0.239959,-0.529484 -0.533012,-0.528144 -0.291147,0.0014 -0.526838,0.237031 -0.528143,0.528179 -0.0035,0.784966 -0.0044,1.570073 0.007,2.355003 0.0066,0.452367 0.01136,0.90678 0.04826,1.357948 z m 0,0 c 0.01887,0.230822 0.03923,0.461539 0.06512,0.691656 0.01693,0.150389 0.03475,0.301413 0.06505,0.449827 v 0 c 0.05299,0.259433 0.306246,0.426825 0.565714,0.373838 0.242711,-0.04953 0.407705,-0.275837 0.380683,-0.522111 -0.01376,-0.125307 -0.0188,-0.251742 -0.02402,-0.377613 -0.0093,-0.222356 -0.01443,-0.444888 -0.01859,-0.66742 h 3.6e-5 c -0.0053,-0.285962 -0.241477,-0.513469 -0.527438,-0.508177 -0.285997,0.0053 -0.513504,0.241477 -0.508177,0.527438 1.77e-4,0.01087 7.15e-4,0.02173 0.0018,0.03256 z m 0.130175,1.141483 c 0.04907,0.240312 0.144709,0.481718 0.34103,0.639515 h -3.5e-5 c 0.206551,0.165982 0.508529,0.133139 0.674511,-0.07338 0.161925,-0.201437 0.135184,-0.494913 -0.06047,-0.663752 -0.0041,-0.0163 -0.0067,-0.03341 -0.0086,-0.05062 v 0 c -0.02889,-0.263243 -0.265712,-0.453179 -0.528955,-0.424286 -0.263207,0.02889 -0.453178,0.265712 -0.424251,0.528919 0.0018,0.01464 0.0039,0.02917 0.0068,0.0436 z m 0.34103,0.639515 c 0.218264,0.175437 0.514526,0.155011 0.738434,0.0041 0.146192,-0.0985 0.262432,-0.237067 0.365937,-0.378037 v 0 c 0.170003,-0.231528 0.120156,-0.557071 -0.111408,-0.727075 -0.231563,-0.170039 -0.557071,-0.120156 -0.727109,0.111407 -0.01193,0.01623 -0.02289,0.03316 -0.03284,0.05066 -0.02018,0.03545 -0.04117,0.07042 -0.06361,0.104458 l -2.91e-4,-0.0011 c -0.254812,0.07257 -0.402555,0.337997 -0.329989,0.592808 0.02723,0.09557 0.08343,0.180305 0.160867,0.242535 z m 1.104371,-0.373909 c 0.137936,-0.187819 0.254035,-0.391724 0.364525,-0.596512 0.154376,-0.286032 0.296157,-0.578873 0.433317,-0.873478 v 0 c 0.13014,-0.279506 0.0091,-0.611575 -0.27044,-0.741715 -0.279505,-0.13014 -0.61161,-0.0091 -0.74175,0.270439 -0.0014,0.0032 -0.0032,0.0066 -0.0045,0.01 -0.124778,0.282328 -0.251637,0.56381 -0.384846,0.842257 -0.0846,0.176812 -0.170708,0.353554 -0.267652,0.524016 v 0 c -0.142028,0.249732 -0.05475,0.567267 0.194945,0.709295 0.229411,0.130493 0.520206,0.06847 0.676416,-0.144286 z m 0.797842,-1.46999 c 0.285644,-0.613516 0.58106,-1.222657 0.891434,-1.824108 v 0 c 0.14411,-0.279294 0.03454,-0.622546 -0.244793,-0.766656 -0.279294,-0.14411 -0.622511,-0.03454 -0.766656,0.244792 0,0 0,0 0,0 -0.319052,0.618349 -0.615456,1.248304 -0.896691,1.88468 v 0 c -0.124636,0.282011 0.0028,0.611646 0.284974,0.736283 0.278095,0.122907 0.603391,7.14e-4 0.731732,-0.274991 z m 0.891434,-1.824108 c 0.244651,-0.474168 0.484293,-0.9519 0.699065,-1.440532 v 0 c 0.123295,-0.280459 -0.0041,-0.607801 -0.284586,-0.731097 -0.271287,-0.119239 -0.588398,-0.0042 -0.720161,0.261197 -0.230822,0.465067 -0.467677,0.92717 -0.705767,1.388568 v 0 c -0.14411,0.279294 -0.0345,0.622512 0.244792,0.766657 0.279294,0.14411 0.622547,0.0345 0.766657,-0.244793 z m 0.699065,-1.440532 c 0.10996,-0.25012 0.223943,-0.49971 0.321627,-0.755015 v 0 c 0.09927,-0.259398 -0.03055,-0.550157 -0.289948,-0.649429 -0.186902,-0.07154 -0.398463,-0.02543 -0.538657,0.117369 -0.09659,0.09842 -0.171379,0.217664 -0.241158,0.33588 -0.09243,0.156563 -0.175789,0.318488 -0.256611,0.481295 v 0 c -0.136207,0.274461 -0.02416,0.607342 0.250261,0.743585 0.274426,0.136207 0.607342,0.02416 0.743549,-0.250261 0.0038,-0.0077 0.0075,-0.01552 0.01094,-0.02342 z m 0.321627,-0.755015 c 0.02956,-0.07726 0.05175,-0.157763 0.06339,-0.239713 0.01069,-0.07504 0.0157,-0.15755 -0.0084,-0.230611 v 0 c -0.0039,-0.01182 -0.0086,-0.02332 -0.01425,-0.03443 -0.06353,-0.125624 -0.211702,-0.194839 -0.345228,-0.212478 -0.192123,-0.0254 -0.389008,0.04752 -0.524157,0.185173 v 0 c -0.194557,0.198226 -0.191629,0.516643 0.0066,0.711236 0.198226,0.194556 0.516643,0.191593 0.7112,-0.0066 0.0484,-0.04932 0.08611,-0.108055 0.110807,-0.172578 z" />
    <path
       inkscape:connector-curvature="0"
       id="path533"
       style="fill:#000000;fill-opacity:1;fill-rule:nonzero;stroke:none;stroke-width:0.35277775"
       d="m 45.292126,44.208922 c 0.0028,0.0048 0.0036,0.0059 0.0063,0.01087 v 0 c 0.0417,0.07482 0.136137,0.10167 0.210962,0.05997 0.07482,-0.0417 0.10167,-0.136137 0.05997,-0.210961 -0.01626,-0.02921 -0.03242,-0.05863 -0.04664,-0.08894 -0.01485,-0.03179 -0.0025,-0.0021 -7.15e-4,0.01827 v 0 c -0.0085,-0.10929 -0.103893,-0.191064 -0.213183,-0.182598 -0.109291,0.0084 -0.191029,0.103893 -0.182598,0.213184 0.0071,0.09123 0.0756,0.165841 0.165911,0.180587 l 7.1e-5,-3.44e-4 z m -0.10541,1.118941 v 0 c 0.101107,0.245533 0.382129,0.36262 0.627663,0.261479 0.245533,-0.101106 0.362585,-0.382129 0.261479,-0.627662 -0.0032,-0.0081 -0.0069,-0.01609 -0.01065,-0.02395 -0.116875,-0.244969 -0.234597,-0.489832 -0.360998,-0.730074 -0.03701,-0.07027 -0.07468,-0.140335 -0.11564,-0.208421 -0.0375,-0.0623 -0.07803,-0.126188 -0.135961,-0.171626 v 0 c -0.06742,-0.05292 -0.153776,-0.07553 -0.238478,-0.06248 -0.199495,0.03076 -0.300954,0.222285 -0.318276,0.40513 -0.01062,0.112077 0.0025,0.225672 0.0235,0.335809 0.05387,0.282857 0.15808,0.556401 0.267371,0.821796 z m 0,0 c 0.220592,0.535658 0.450886,1.069304 0.718538,1.583408 v 0 c 0.130246,0.250119 0.438574,0.347274 0.688658,0.217064 0.250119,-0.13021 0.347309,-0.438538 0.217099,-0.688658 -3.44e-4,-7.14e-4 -7.14e-4,-0.0014 -0.0011,-0.0021 -0.260244,-0.493713 -0.504261,-0.996033 -0.744608,-1.499659 v 0 c -0.114371,-0.239677 -0.401356,-0.341242 -0.640997,-0.226871 -0.230435,0.109961 -0.334751,0.380894 -0.23749,0.617008 z m 0.718538,1.583408 c 0.152365,0.292629 0.3048,0.585329 0.450956,0.881133 v 0 c 0.122343,0.247544 0.422204,0.349038 0.669749,0.22673 0.234844,-0.116064 0.340289,-0.3937 0.241758,-0.636376 -0.131657,-0.324203 -0.294922,-0.636129 -0.457905,-0.945374 v 0 c -0.131516,-0.249449 -0.440302,-0.345087 -0.689752,-0.213572 -0.248567,0.131022 -0.344557,0.438221 -0.214806,0.687459 z m 0.450956,0.881133 c 0.05108,0.103363 0.124883,0.196073 0.221685,0.260103 0.08544,0.05652 0.186373,0.08876 0.289173,0.08879 0.183479,3.5e-5 0.357857,-0.105022 0.436033,-0.273968 v 0 c 0.03602,-0.07786 0.04949,-0.164288 0.03888,-0.249413 -0.01019,-0.08188 -0.04346,-0.159315 -0.07426,-0.235162 v 0 c -0.02498,-0.06142 -0.06188,-0.117298 -0.10862,-0.164324 l -7.14e-4,7.14e-4 c -0.02043,-0.04163 -0.05902,-0.07147 -0.104458,-0.08079 l 3.44e-4,-3.44e-4 c -0.239183,-0.138006 -0.544971,-0.05595 -0.682942,0.183233 -0.0835,0.14471 -0.08918,0.321592 -0.01517,0.471382 z" />
    <path
       inkscape:connector-curvature="0"
       id="path539"
       style="fill:#000000;fill-opacity:1;fill-rule:nonzero;stroke:none;stroke-width:0.35277775"
       d="m 48.201344,46.092121 v 0 c 0.05722,0.195297 0.261866,0.307199 0.457164,0.250013 0.195263,-0.05722 0.307199,-0.261902 0.249978,-0.457164 -0.0028,-0.0097 -0.0061,-0.01937 -0.0097,-0.02886 -0.05115,-0.132785 -0.105939,-0.264512 -0.169263,-0.392006 -0.04523,-0.09098 -0.09409,-0.183233 -0.158291,-0.262502 v 0 c -0.0496,-0.06124 -0.137196,-0.07553 -0.203694,-0.0333 -0.127706,0.08118 -0.190253,0.239607 -0.213501,0.382835 -0.02928,0.18041 -0.0037,0.366854 0.04734,0.540985 z m 0,0 c 0.09289,0.317041 0.157903,0.64202 0.21022,0.967986 v 0 c 0.03464,0.215865 0.237737,0.362762 0.453601,0.328119 0.215865,-0.03468 0.362762,-0.237737 0.328119,-0.453637 -7.14e-4,-0.0038 -0.0014,-0.0076 -0.0021,-0.0114 -0.06911,-0.362338 -0.159808,-0.722453 -0.292558,-1.067082 h 3.5e-5 c -0.07317,-0.189865 -0.286385,-0.284515 -0.47625,-0.211384 -0.178894,0.0689 -0.275025,0.263454 -0.221156,0.447393 z m 0.21022,0.967986 c 0.06452,0.401814 0.09504,0.808744 0.105375,1.215355 v 0 c 0.0062,0.24451 0.209444,0.437656 0.453919,0.431447 0.244475,-0.0062 0.437656,-0.209444 0.431412,-0.453919 -3.44e-4,-0.01637 -0.0018,-0.0327 -0.004,-0.04893 -0.05877,-0.428519 -0.126012,-0.85598 -0.207045,-1.280865 v 0 c -0.04096,-0.214772 -0.24825,-0.355671 -0.462985,-0.314714 -0.210327,0.04011 -0.350662,0.240207 -0.316724,0.451626 z m 0.105375,1.21539 c 0.005,0.197662 0.01291,0.396558 0.04074,0.592526 0.02769,0.194769 0.08103,0.396381 0.235374,0.53086 v 0 c 0.202212,0.176177 0.508952,0.155081 0.685129,-0.04713 0.150495,-0.172685 0.159809,-0.427108 0.02237,-0.610341 -0.05577,-0.172403 -0.07768,-0.358387 -0.102235,-0.537351 v 0 c -0.03323,-0.242288 -0.256576,-0.411762 -0.498899,-0.378531 -0.223485,0.03066 -0.388232,0.224438 -0.382481,0.449968 z m 0.276119,1.123351 c 0.322156,0.28074 0.726581,0.04978 0.839858,-0.295452 0.03676,-0.111901 0.05969,-0.228388 0.08096,-0.344064 0.07631,-0.414126 0.12446,-0.833896 0.172579,-1.252008 v 0 c 0.0093,-0.08068 -0.04858,-0.153599 -0.129258,-0.162913 -0.05842,-0.0067 -0.115217,0.02201 -0.144427,0.07306 -0.153635,0.26857 -0.309104,0.536258 -0.472511,0.798971 -0.08269,0.132962 -0.16637,0.266277 -0.26109,0.391125 l -3.44e-4,-7.14e-4 c -0.235233,0.128834 -0.321451,0.423933 -0.192617,0.659165 0.02752,0.05024 0.06368,0.09521 0.106892,0.132821 z" />
    <path
       inkscape:connector-curvature="0"
       id="path549"
       style="fill:#000000;fill-opacity:1;fill-rule:nonzero;stroke:none;stroke-width:0.35277775"
       d="m 47.612028,44.844981 v 0 c 0.01267,0.04897 0.03563,0.09469 0.06735,0.13409 0.104775,0.130211 0.258515,0.139171 0.409045,0.15039 v 0 c 0.229518,0.01711 0.429401,-0.155046 0.446511,-0.384564 0.01711,-0.229481 -0.155081,-0.429365 -0.384563,-0.446475 -0.04791,-0.0036 -0.0961,0.0011 -0.142416,0.014 -0.08364,0.02321 -0.165277,0.05757 -0.234703,0.11049 -0.12827,0.09769 -0.20313,0.260527 -0.16122,0.422064 z m 0.476391,0.28448 c 0.211773,0.0158 0.426615,-0.0056 0.636764,-0.03076 0.307446,-0.03672 0.612916,-0.09013 0.916976,-0.148237 v 0 c 0.263948,-0.05041 0.437056,-0.305294 0.386609,-0.569242 -0.05041,-0.263948 -0.305294,-0.437021 -0.569243,-0.386609 -0.0011,2.11e-4 -0.0021,3.44e-4 -0.0032,7.14e-4 -0.483799,0.09571 -0.972855,0.185244 -1.44847,0.317218 v 0 c -0.221721,0.06156 -0.351613,0.291182 -0.290054,0.512939 0.04699,0.169368 0.195228,0.291041 0.370523,0.304094 z m 1.55374,-0.179 c 0.584976,-0.11176 1.16974,-0.224896 1.753411,-0.343288 v 0 c 0.254353,-0.05158 0.418712,-0.299579 0.3671,-0.553932 -0.04953,-0.244227 -0.281164,-0.407317 -0.527826,-0.371616 -0.595771,0.08622 -1.188014,0.19678 -1.778423,0.313585 v 0 c -0.263631,0.05218 -0.435046,0.308151 -0.382905,0.571782 0.05193,0.262396 0.305894,0.433669 0.568643,0.383469 z m 1.753411,-0.343288 c 0.318735,-0.06463 0.632036,-0.156281 0.942305,-0.252871 0.435962,-0.135749 0.867304,-0.286173 1.296493,-0.441854 v 0 c 0.07299,-0.02646 0.110667,-0.107068 0.08421,-0.180058 -0.01944,-0.05359 -0.06936,-0.09014 -0.126294,-0.0925 -0.457236,-0.01898 -0.915106,-0.03083 -1.372729,-0.02346 -0.328542,0.0053 -0.65913,0.01806 -0.984709,0.06519 v 0 c -0.256822,0.03718 -0.434904,0.275519 -0.397721,0.532341 0.03718,0.256858 0.275519,0.43494 0.532341,0.397757 0.0087,-0.0014 0.01746,-0.0028 0.02611,-0.0046 z" />
    <path
       inkscape:connector-curvature="0"
       id="path553"
       style="fill:#000000;fill-opacity:1;fill-rule:nonzero;stroke:none;stroke-width:0.35277775"
       d="m 49.502176,45.692917 c 0.0714,-0.03369 0.148908,-0.05337 0.225708,-0.07034 0.1252,-0.02769 0.252447,-0.046 0.379694,-0.0611 v 0 c 0.08506,-0.01009 0.145803,-0.08724 0.135714,-0.172296 -0.01013,-0.08506 -0.08724,-0.145804 -0.172297,-0.135714 -0.185667,0.02209 -0.371651,0.04353 -0.55813,0.05729 -0.05147,0.0038 -0.103116,0.0073 -0.154763,0.0075 -0.04706,1.77e-4 -0.01944,-0.0018 0.01379,0.0108 v 0 c -0.131481,-0.05027 -0.278801,0.01559 -0.329036,0.147073 -0.05027,0.131481 0.01556,0.278801 0.147038,0.329071 0.11758,0.04494 0.250366,-0.0028 0.312561,-0.112112 z m -0.207997,0.36255 v 0 c 0.198402,0.07299 0.418429,-0.02868 0.491419,-0.227083 0.07299,-0.198438 -0.02868,-0.41843 -0.227083,-0.491455 -0.02843,-0.01044 -0.058,-0.0175 -0.08809,-0.02099 -0.0895,-0.01037 -0.18736,-0.02776 -0.276648,-0.0085 v 0 c -0.05574,0.01203 -0.107244,0.0387 -0.14926,0.07729 -0.100013,0.09193 -0.130387,0.237173 -0.08851,0.363961 0.02194,0.06643 0.06205,0.125624 0.112606,0.173602 0.06403,0.06068 0.143228,0.102941 0.225567,0.133209 z m 0,0 c 0.13282,0.04886 0.275272,0.07017 0.415466,0.08463 0.182845,0.01887 0.36703,0.0242 0.550721,0.02505 v 0 c 0.227154,0.0011 0.41215,-0.182245 0.413209,-0.409398 0.0011,-0.227154 -0.182245,-0.412151 -0.409399,-0.413173 -1.41e-4,0 -3.17e-4,0 -3.44e-4,0 -0.263243,-0.0011 -0.531318,0.0037 -0.793291,-0.02664 v 0 c -0.210009,-0.02434 -0.400015,0.126153 -0.424357,0.336162 -0.02035,0.175613 0.0822,0.342335 0.248109,0.403366 z m 0.966187,0.109679 c 0.329107,0.0014 0.659413,-7.1e-5 0.987743,-0.02547 v 0 c 0.22666,-0.01753 0.396205,-0.215477 0.378671,-0.442136 -0.01753,-0.226695 -0.215476,-0.39624 -0.442136,-0.378707 -0.306105,0.02367 -0.614115,0.0248 -0.920926,0.02374 v 0 c -0.227154,-7.15e-4 -0.411939,0.182703 -0.41275,0.409857 -7.15e-4,0.226977 0.182421,0.411692 0.409398,0.412716 z m 0.987743,-0.02547 c 0.122907,-0.0095 0.244228,-0.04145 0.362691,-0.07415 0.155998,-0.043 0.310197,-0.09253 0.463655,-0.143757 0.501403,-0.167252 0.996492,-0.353518 1.490204,-0.542043 v 0 c 0.07941,-0.0303 0.119204,-0.119274 0.0889,-0.198684 -0.02494,-0.06523 -0.09066,-0.105551 -0.16009,-0.09814 -0.5213,0.05556 -1.042635,0.110843 -1.564146,0.164112 -0.248003,0.02533 -0.496112,0.0526 -0.744679,0.07183 v 0 c -0.226695,0.01753 -0.39624,0.215512 -0.378707,0.442171 0.01753,0.22666 0.215477,0.396205 0.442172,0.378672 0,0 0,0 0,0 z" />
    <path
       inkscape:connector-curvature="0"
       id="path561"
       style="fill:#000000;fill-opacity:1;fill-rule:nonzero;stroke:none;stroke-width:0.35277775"
       d="m 57.991387,39.811371 c 0.0391,0.0079 0.076,0.0459 0.10255,0.07278 0.0765,0.07736 0.13497,0.172508 0.18644,0.267688 v 0 c 0.0408,0.07532 0.13491,0.103328 0.21022,0.06258 0.0689,-0.03729 0.0992,-0.120121 0.0706,-0.19304 -0.0858,-0.218581 -0.18718,-0.463762 -0.37073,-0.619725 v 0 c -0.099,-0.0841 -0.2474,-0.07204 -0.33151,0.02695 -0.0841,0.09895 -0.072,0.247368 0.0269,0.331505 0.0303,0.02572 0.0666,0.04336 0.10552,0.05126 z m -0.33595,0.0018 c 0.11081,-0.01891 0.22521,-0.02431 0.33595,-0.0018 v 0 c 0.12728,0.02582 0.25142,-0.05644 0.27725,-0.183727 0.017,-0.08396 -0.013,-0.170532 -0.0782,-0.225989 -0.15586,-0.132433 -0.35377,-0.204188 -0.5557,-0.225249 v 0 c -0.17664,-0.01841 -0.33475,0.10982 -0.35317,0.286456 -0.0184,0.176636 0.10982,0.334751 0.28646,0.353166 0.0291,0.0032 0.0585,0.0021 0.0874,-0.0028 z m -0.41755,0.285044 c 0.0854,-0.07941 0.17491,-0.156704 0.27376,-0.21904 0.0433,-0.02734 0.0924,-0.05726 0.14379,-0.066 v 0 c 0.17505,-0.02988 0.29277,-0.195968 0.26292,-0.371052 -0.0243,-0.14217 -0.14019,-0.25079 -0.28363,-0.265747 -0.33256,-0.03468 -0.64262,0.171943 -0.88279,0.37853 v 0 c -0.15261,0.131269 -0.16993,0.361421 -0.0387,0.514068 0.1313,0.152647 0.36146,0.169933 0.5141,0.03866 0.004,-0.0032 0.007,-0.0062 0.0105,-0.0094 z m -0.6756,0.889917 c 0.19057,-0.31757 0.4028,-0.636234 0.67564,-0.889917 v 0 c 0.14742,-0.137125 0.15578,-0.367771 0.0187,-0.515197 -0.13339,-0.143404 -0.3562,-0.155821 -0.50469,-0.02812 -0.33662,0.289525 -0.60568,0.654332 -0.8449,1.025737 v 0 c -0.1154,0.17914 -0.0637,0.417935 0.11543,0.533329 0.17914,0.115394 0.41793,0.06371 0.53333,-0.115429 0.002,-0.0035 0.004,-0.0069 0.006,-0.01041 z m -0.51658,0.960191 c 0.14277,-0.333693 0.33017,-0.64957 0.51658,-0.960191 v 0 c 0.10964,-0.182739 0.0504,-0.41977 -0.13233,-0.529413 -0.17865,-0.10721 -0.41011,-0.05324 -0.52292,0.12192 -0.21502,0.333798 -0.42891,0.672711 -0.60177,1.030781 v 0 c -0.0977,0.202353 -0.0128,0.445594 0.18951,0.543278 0.20235,0.09768 0.44556,0.01284 0.54328,-0.189513 0.003,-0.0056 0.005,-0.01118 0.008,-0.01686 z m -0.36343,1.012613 c 0.10975,-0.340924 0.22243,-0.683048 0.36343,-1.012613 v 0 c 0.0884,-0.206587 -0.007,-0.4457 -0.21403,-0.53407 -0.19999,-0.08555 -0.43187,0.0014 -0.52641,0.197167 -0.16817,0.348368 -0.30106,0.714128 -0.42873,1.07883 v 0 c -0.0776,0.221544 0.0392,0.464008 0.2607,0.541584 0.22158,0.07758 0.46404,-0.03916 0.54162,-0.260703 10e-4,-0.0035 0.002,-0.0068 0.004,-0.01019 z m -0.21562,0.992858 c 0.0141,-0.337538 0.11279,-0.673453 0.21562,-0.992858 v 0 c 0.0719,-0.223449 -0.0509,-0.462915 -0.27432,-0.534846 -0.21946,-0.07066 -0.45526,0.04653 -0.53142,0.26416 -0.13572,0.387597 -0.259189,0.788987 -0.301346,1.199162 v 0 c -0.02526,0.245639 0.153386,0.465243 0.399026,0.490502 0.24564,0.02522 0.46524,-0.153423 0.4905,-0.399062 10e-4,-0.009 10e-4,-0.01803 0.002,-0.02706 z M 54.59664,44.63215 v 0 c 0.08886,0.243629 0.358457,0.369111 0.602087,0.280247 0.24366,-0.0889 0.36911,-0.358458 0.28025,-0.602086 -0.002,-0.0052 -0.004,-0.01034 -0.006,-0.01545 -0.0146,-0.03591 -0.009,-0.08904 -0.01,-0.126894 -0.001,-0.0714 3.4e-4,-0.14284 0.004,-0.214171 v 0 c 0.0103,-0.246733 -0.18137,-0.455084 -0.4281,-0.465385 -0.23618,-0.0098 -0.439208,0.165876 -0.463373,0.401003 -0.01333,0.129716 -0.02441,0.260103 -0.02554,0.39056 -0.0011,0.118463 0.0061,0.239924 0.04699,0.352178 z m 0,0 c 0.109957,0.301449 0.427217,0.421429 0.716527,0.478296 v 0 c 0.26966,0.05299 0.53121,-0.122625 0.5842,-0.392289 0.053,-0.269628 -0.12263,-0.531177 -0.39225,-0.584164 -0.0186,-0.0037 -0.0373,-0.0062 -0.0562,-0.0078 -0.0362,-0.0028 -0.0722,-0.0069 -0.10803,-0.01316 l 3e-4,-3.18e-4 c -0.19798,-0.167534 -0.49428,-0.142875 -0.66182,0.0551 -0.108932,0.128694 -0.140506,0.305894 -0.08273,0.464291 z m 0.716527,0.478296 c 0.27125,0.0533 0.55697,0.05479 0.81978,-0.03902 v 0 c 0.27267,-0.0973 0.4148,-0.397193 0.3175,-0.669854 -0.0973,-0.272662 -0.39722,-0.414796 -0.66989,-0.3175 -0.011,0.0039 -0.0218,0.0082 -0.0324,0.01281 -0.0917,0.03983 -0.20182,0.03715 -0.29919,0.02935 v 0 c -0.27393,-0.02198 -0.51378,0.18228 -0.53576,0.456212 -0.0202,0.25206 0.15187,0.479213 0.40001,0.528002 z m 0.81978,-0.03902 c 0.21224,-0.07574 0.40997,-0.188313 0.58939,-0.324097 v 0 c 0.23435,-0.177412 0.28053,-0.511245 0.10312,-0.745631 -0.17741,-0.234386 -0.51125,-0.280564 -0.7456,-0.103152 -0.10287,0.07789 -0.21322,0.146896 -0.33175,0.198331 v 0 c -0.26557,0.115253 -0.38746,0.423969 -0.2722,0.68954 0.10985,0.253153 0.39715,0.377754 0.65704,0.285009 z m 0.58939,-0.324097 c 0.18002,-0.136313 0.34484,-0.292171 0.49445,-0.461151 v 0 c 0.1941,-0.219216 0.17375,-0.554249 -0.0455,-0.748347 -0.21703,-0.192194 -0.54818,-0.174379 -0.74337,0.03993 -0.10636,0.11677 -0.22207,0.22539 -0.34809,0.320781 v 0 c -0.23438,0.177412 -0.28056,0.511245 -0.10315,0.745631 0.17741,0.234385 0.51125,0.280564 0.74563,0.103152 0,0 0,0 0,0 z m 0.49445,-0.461175 c 0.16016,-0.180869 0.30061,-0.378742 0.42302,-0.586916 v 0 c 0.147,-0.250085 0.0635,-0.57203 -0.18666,-0.719032 -0.24708,-0.145274 -0.56504,-0.06562 -0.71448,0.179 -0.0907,0.148448 -0.19349,0.289842 -0.31072,0.418535 v 0 c -0.19717,0.216465 -0.18151,0.551745 0.035,0.748912 0.21646,0.197167 0.55174,0.181504 0.74891,-0.03496 0.002,-0.0018 0.004,-0.0037 0.005,-0.0055 z m 0.42302,-0.586916 c 0.12506,-0.212761 0.23156,-0.436422 0.31775,-0.667703 v 0 c 0.10047,-0.269593 -0.0366,-0.569559 -0.30618,-0.670031 -0.26765,-0.09973 -0.56571,0.03464 -0.66816,0.301273 -0.0663,0.172437 -0.14824,0.338772 -0.24451,0.496393 v 0 c -0.15127,0.24758 -0.0732,0.570901 0.17441,0.722136 0.24758,0.151236 0.57087,0.07313 0.7221,-0.174448 0.001,-0.0025 0.003,-0.005 0.005,-0.0076 z m 0.31775,-0.667703 c 0.12876,-0.345546 0.19762,-0.715292 0.26465,-1.076678 v 0 c 0.0513,-0.276683 -0.13137,-0.542572 -0.40809,-0.593901 -0.27122,-0.05031 -0.53326,0.12439 -0.59112,0.394123 -0.0652,0.303813 -0.12799,0.616727 -0.23978,0.907698 v 0 c -0.10319,0.268534 0.0309,0.569877 0.2994,0.673064 0.26857,0.103188 0.56991,-0.03087 0.67307,-0.299402 7.1e-4,-0.0018 0.001,-0.0032 0.002,-0.0049 z m 0.26465,-1.076678 c 0.0932,-0.50232 0.15409,-1.01039 0.1917,-1.519801 v 0 c 0.0193,-0.261409 -0.17699,-0.48895 -0.4384,-0.508247 -0.24959,-0.01841 -0.47057,0.160126 -0.50503,0.408022 -0.0661,0.476039 -0.14665,0.950278 -0.24748,1.420248 v 0 c -0.059,0.275167 0.11621,0.546065 0.39134,0.605085 0.27517,0.05902 0.54606,-0.116205 0.60508,-0.391337 10e-4,-0.0047 0.002,-0.0093 0.003,-0.01397 z m 0.1917,-1.519801 c 0.0152,-0.205881 0.0301,-0.411833 0.0417,-0.617961 0.006,-0.109009 0.0164,-0.220874 0.008,-0.330024 v 0 c -0.0195,-0.242252 -0.23163,-0.422875 -0.47392,-0.403401 -0.21061,0.01693 -0.37948,0.181186 -0.40224,0.391301 -0.0311,0.287302 -0.0769,0.573652 -0.11666,0.85986 v 0 c -0.0361,0.25961 0.14517,0.499322 0.40477,0.535411 0.25965,0.03605 0.49936,-0.145168 0.53542,-0.404777 10e-4,-0.01009 0.002,-0.02025 0.003,-0.03041 z m 0.0915,-0.564904 c -0.0104,-0.100224 -0.0208,-0.200448 -0.0316,-0.300637 -0.005,-0.04953 -0.009,-0.100083 -0.0185,-0.149013 v 0 c -0.004,-0.02131 -0.01,-0.04226 -0.0174,-0.06269 l 7e-5,-3.5e-5 c -0.0817,-0.228036 -0.33288,-0.346675 -0.56095,-0.264936 -0.14581,0.05225 -0.25326,0.177553 -0.28265,0.329635 -0.004,0.01743 -0.005,0.03489 -0.007,0.05249 v 0 c -3.4e-4,0.0032 -7.1e-4,0.0065 -10e-4,0.0098 -0.0128,0.128517 -0.0263,0.256963 -0.0396,0.385409 v 0 c -0.0275,0.264795 0.16493,0.501721 0.42972,0.529167 0.26476,0.02748 0.50169,-0.164923 0.52913,-0.429718 0.004,-0.03306 0.004,-0.06639 0,-0.09945 z m -0.97776,0.863636 v 0 c 0.0364,0.296121 0.30604,0.506624 0.60216,0.470182 0.29612,-0.03644 0.50662,-0.306035 0.47018,-0.602156 -10e-4,-0.0097 -0.003,-0.01944 -0.004,-0.0291 -0.0415,-0.232305 -0.0658,-0.467995 -0.0902,-0.702558 v 0 c -0.0275,-0.264795 -0.26437,-0.457164 -0.52917,-0.429683 -0.22687,0.02353 -0.40615,0.202847 -0.42968,0.429719 -0.0296,0.284833 -0.0541,0.578097 -0.0189,0.8636 z m 0,0 c 0.0188,0.152999 0.0651,0.301942 0.11829,0.446087 0.0654,0.177201 0.14351,0.349638 0.2257,0.519571 v 0 c 0.13699,0.28314 0.47756,0.401602 0.76066,0.264619 0.28311,-0.136948 0.40161,-0.47752 0.26462,-0.760624 -0.006,-0.01267 -0.0127,-0.02508 -0.0198,-0.03725 -0.076,-0.131304 -0.14957,-0.264724 -0.21184,-0.403189 -0.0271,-0.06018 -0.058,-0.124707 -0.0697,-0.190288 v 0 c -0.0525,-0.293688 -0.3332,-0.489198 -0.62689,-0.436669 -0.28243,0.05048 -0.47614,0.312985 -0.44107,0.597747 z m 0.34399,0.965658 c 0.19442,0.40185 0.41928,0.78867 0.66605,1.160498 v 0 c 0.18298,0.275731 0.55485,0.350943 0.83058,0.167958 0.27573,-0.182951 0.35091,-0.554814 0.16792,-0.830545 -0.002,-0.0037 -0.005,-0.0074 -0.007,-0.01108 -0.23061,-0.331188 -0.44933,-0.670807 -0.65151,-1.020093 v 0 c -0.15759,-0.272203 -0.50595,-0.36516 -0.77816,-0.207609 -0.25805,0.149366 -0.35718,0.472475 -0.22736,0.740868 z m 0.66605,1.160498 c 0.26296,0.396275 0.50945,0.803381 0.74683,1.215355 v 0 c 0.16926,0.293793 0.54462,0.394723 0.83841,0.22546 0.2938,-0.169263 0.39472,-0.544653 0.22546,-0.838447 -0.002,-0.0032 -0.004,-0.0065 -0.006,-0.0097 -0.25844,-0.430177 -0.52719,-0.854463 -0.814,-1.266366 v 0 c -0.18909,-0.271569 -0.56254,-0.33842 -0.83411,-0.149331 -0.2673,0.18609 -0.33693,0.551638 -0.15688,0.822995 z m 0.74683,1.215355 c 0.22811,0.395958 0.46073,0.789904 0.70986,1.173092 h -4e-5 c 0.18553,0.285362 0.56727,0.366289 0.8526,0.180763 0.28155,-0.183021 0.3647,-0.557777 0.18704,-0.842716 -0.23417,-0.375637 -0.46334,-0.75438 -0.6913,-1.133792 v 0 c -0.17459,-0.290618 -0.55178,-0.384669 -0.8424,-0.210079 -0.28688,0.172367 -0.38287,0.542749 -0.21576,0.832732 z m 0.70982,1.173092 c 0.1372,0.211031 0.35141,0.378354 0.6095,0.398921 0.36516,0.0291 0.70809,-0.278483 0.64819,-0.655779 -0.0234,-0.147214 -0.10964,-0.285044 -0.17815,-0.414937 h -4e-5 c -0.0212,-0.04025 -0.06,-0.06819 -0.10491,-0.07556 l 7.9e-4,-3.18e-4 c -0.2274,-0.253228 -0.61705,-0.274148 -0.87027,-0.04675 -0.22585,0.202848 -0.27037,0.539927 -0.10492,0.794421 z" />
    <path
       inkscape:connector-curvature="0"
       id="path567"
       style="fill:#000000;fill-opacity:1;fill-rule:nonzero;stroke:none;stroke-width:0.35277775"
       d="m 63.746037,43.657284 c 0.0941,0.01619 0.18503,0.05482 0.2026,0.158115 v 0 c 0.0144,0.08442 0.0944,0.141252 0.17886,0.126894 0.065,-0.01108 0.11585,-0.06195 0.12689,-0.126894 0.0434,-0.255129 -0.0572,-0.492302 -0.23237,-0.675923 v 0 c -0.11779,-0.123472 -0.31337,-0.128093 -0.43685,-0.0103 -0.12347,0.117793 -0.12809,0.313373 -0.0103,0.43688 0.0458,0.04798 0.1058,0.07997 0.17117,0.09123 z m -0.77336,-0.02872 c 0.2564,-0.0099 0.51943,-0.01499 0.77336,0.02872 v 0 c 0.16817,0.02893 0.32798,-0.08396 0.3569,-0.25213 0.0166,-0.09638 -0.0134,-0.19491 -0.0809,-0.265678 -0.25707,-0.269486 -0.6416,-0.386185 -1.00009,-0.438467 v 0 c -0.25488,-0.03718 -0.49166,0.139312 -0.52881,0.394194 -0.0372,0.254882 0.13931,0.491666 0.39419,0.528814 0.0283,0.0041 0.0568,0.0056 0.0854,0.0046 z m -0.56201,0.103258 c 0.0539,-0.03115 0.11776,-0.04692 0.17798,-0.06004 0.12594,-0.02748 0.25544,-0.03824 0.38403,-0.04322 v 0 c 0.25739,-0.01 0.45794,-0.226695 0.44799,-0.484082 -0.009,-0.224614 -0.17635,-0.411057 -0.39874,-0.443477 -0.34565,-0.05041 -0.71544,-0.07461 -1.05304,0.03323 v 0 c -0.28868,0.09218 -0.44796,0.400967 -0.35578,0.689645 0.0922,0.288678 0.40097,0.447922 0.68965,0.355741 0.0376,-0.01199 0.0738,-0.02801 0.10791,-0.0478 z m -0.15656,0.143933 c 0.0336,-0.06392 0.0955,-0.108585 0.15656,-0.143898 v 0 c 0.26229,-0.1518 0.35186,-0.487468 0.20006,-0.749759 -0.12915,-0.223167 -0.39624,-0.326319 -0.64184,-0.247861 -0.31165,0.09952 -0.58618,0.302119 -0.74355,0.592596 v 0 c -0.15343,0.283104 -0.0483,0.636975 0.23484,0.790398 0.2831,0.153388 0.63698,0.04826 0.7904,-0.234879 10e-4,-0.0021 0.002,-0.0044 0.004,-0.0066 z m -1.21515,0.277283 v 0 c 0.006,0.322863 0.27182,0.580073 0.59468,0.574499 0.32286,-0.0056 0.58007,-0.271815 0.5745,-0.594677 -10e-4,-0.08597 0.005,-0.179494 0.046,-0.257105 v 0 c 0.14976,-0.285044 0.0401,-0.63754 -0.24497,-0.787294 -0.2825,-0.148414 -0.63179,-0.04219 -0.7838,0.238372 -0.13688,0.252589 -0.19131,0.540667 -0.18637,0.826205 z m 0,0 c 0.006,0.37278 0.17082,0.721078 0.38718,1.017447 v 0 c 0.18528,0.253753 0.54116,0.30928 0.79488,0.124001 0.24144,-0.176248 0.30526,-0.50927 0.14612,-0.762282 -0.0728,-0.115747 -0.15656,-0.25774 -0.159,-0.399344 v 0 c -0.006,-0.322863 -0.27182,-0.580073 -0.59468,-0.574499 -0.32286,0.0056 -0.58007,0.271815 -0.5745,0.594677 0,0 0,0 0,0 z m 0.38721,1.017447 c 0.24769,0.339266 0.54049,0.645301 0.83986,0.938882 v 0 c 0.20786,0.2038 0.54155,0.200555 0.74535,-0.0073 0.19343,-0.197238 0.20172,-0.510364 0.019,-0.717585 -0.23749,-0.269346 -0.4717,-0.547688 -0.66326,-0.852276 v 0 c -0.16729,-0.265959 -0.51848,-0.345934 -0.7844,-0.178682 -0.26596,0.167287 -0.34593,0.518442 -0.17868,0.784401 0.007,0.01111 0.0144,0.02198 0.0221,0.03256 z m 0.83986,0.938882 c 0.23633,0.231705 0.47544,0.462915 0.69624,0.709719 v 0 c 0.17265,0.192969 0.46906,0.209444 0.66206,0.03676 0.16542,-0.14799 0.20437,-0.391724 0.0934,-0.583953 -0.0798,-0.138077 -0.17512,-0.267123 -0.27305,-0.392747 -0.13222,-0.169651 -0.27199,-0.333375 -0.41423,-0.494665 v 0 c -0.19251,-0.218334 -0.52557,-0.239289 -0.7439,-0.04678 -0.21834,0.192511 -0.23929,0.525569 -0.0468,0.743903 0.008,0.0096 0.0172,0.01884 0.0263,0.02776 z m 0.69624,0.709684 c 0.0407,0.04547 0.08,0.09345 0.11088,0.146261 0.007,0.01206 0.0216,0.03962 0.0229,0.04745 v 0 c 0.0411,0.236925 0.26649,0.395675 0.50341,0.354577 0.23457,-0.04068 0.393,-0.262255 0.35557,-0.497417 -0.0339,-0.213043 -0.13039,-0.41282 -0.23738,-0.598029 v 0 c -0.12954,-0.224225 -0.41632,-0.30099 -0.64054,-0.17145 -0.22423,0.12954 -0.30099,0.416313 -0.17145,0.640539 0.0161,0.02791 0.0351,0.05408 0.0566,0.07807 z m 0.64964,0.784965 c 0.11568,-0.07948 0.2165,-0.182315 0.2799,-0.308574 0.066,-0.131445 0.0863,-0.28067 0.0633,-0.425486 v 0 c -0.0378,-0.23749 -0.26092,-0.399379 -0.49841,-0.361597 -0.15769,0.02508 -0.28899,0.134514 -0.34216,0.285115 l -3e-5,-3.44e-4 c -0.23111,0.12573 -0.31651,0.414973 -0.19075,0.646077 0.12573,0.23107 0.41497,0.316477 0.64604,0.190747 0.0145,-0.0079 0.0286,-0.01651 0.0422,-0.02586 z m -0.95211,0.258339 c 0.32205,-0.02466 0.67924,-0.0708 0.95211,-0.258339 v 0 c 0.21679,-0.149013 0.27178,-0.445558 0.12277,-0.66234 -0.1119,-0.162807 -0.31267,-0.239677 -0.50465,-0.193181 -0.066,0.01598 -0.13553,0.0199 -0.20306,0.02357 -0.1313,0.0071 -0.2631,0.006 -0.39451,0.0025 v 0 c -0.30078,-0.0079 -0.55093,0.229552 -0.5588,0.530331 -0.008,0.300743 0.22959,0.550897 0.53033,0.558764 0.0186,3.44e-4 0.0373,3.6e-5 0.0558,-0.0014 z m -0.88409,0.02508 c 0.29442,0.01446 0.59051,-0.0025 0.88409,-0.02508 v 0 c 0.29997,-0.02297 0.52455,-0.284727 0.50158,-0.584729 -0.0213,-0.278447 -0.24976,-0.495688 -0.52895,-0.502955 -0.26187,-0.0068 -0.52413,-0.01506 -0.78543,-0.03471 v 0 c -0.31662,-0.02381 -0.59256,0.213571 -0.61637,0.530154 -0.0238,0.316618 0.21353,0.592596 0.53015,0.616409 0.005,3.44e-4 0.01,7.14e-4 0.0149,0.0011 z m -0.87362,-0.161361 c 0.28451,0.08082 0.57732,0.146826 0.87362,0.161361 v 0 c 0.31711,0.01556 0.5868,-0.228882 0.6024,-0.545994 0.0153,-0.311327 -0.22031,-0.578097 -0.53111,-0.601486 -0.20352,-0.01531 -0.40449,-0.07535 -0.59707,-0.139736 v 0 c -0.30872,-0.103187 -0.64259,0.06343 -0.74578,0.37211 -0.10315,0.308716 0.0634,0.642585 0.37215,0.745773 0.008,0.0028 0.0171,0.0055 0.0258,0.008 z m 0,0 v 0 c 0.31309,0.08894 0.63898,-0.09278 0.72792,-0.405906 0.0861,-0.303 -0.0814,-0.620113 -0.38008,-0.719949 -0.29016,-0.09698 -0.58523,-0.181116 -0.88463,-0.244545 v 0 c -0.0829,-0.01757 -0.16563,0.03048 -0.19145,0.111195 -0.0683,0.213325 -0.0493,0.449263 0.0374,0.654403 0.12432,0.294111 0.38446,0.517772 0.69081,0.604802 z" />
    <path
       inkscape:connector-curvature="0"
       id="path573"
       style="fill:#000000;fill-opacity:1;fill-rule:nonzero;stroke:none;stroke-width:0.35277775"
       d="m 64.740237,35.273097 h -4e-5 c 0.0632,0.169862 0.25224,0.256293 0.4221,0.193075 0.16986,-0.06325 0.2563,-0.252236 0.19308,-0.422099 -0.028,-0.07514 -0.0825,-0.137442 -0.15332,-0.175154 -0.0645,-0.03436 -0.13289,-0.0708 -0.20722,-0.07585 v 0 c -0.0656,-0.0045 -0.13043,0.01556 -0.18203,0.05616 -0.13314,0.104669 -0.12573,0.281058 -0.0726,0.423863 z m 0,0 c 0.0661,0.177694 0.19367,0.332105 0.31729,0.472828 0.17885,0.203588 0.37609,0.390983 0.57668,0.572876 v 0 c 0.19082,0.173072 0.48581,0.158644 0.65889,-0.03217 0.17307,-0.190853 0.15864,-0.485846 -0.0322,-0.658919 -0.009,-0.0078 -0.0176,-0.01531 -0.0267,-0.02247 -0.20536,-0.159949 -0.41209,-0.318382 -0.62372,-0.470006 -0.13169,-0.09433 -0.26518,-0.190041 -0.40841,-0.266312 v 0 c -0.15995,-0.0852 -0.35874,-0.02459 -0.44394,0.135396 -0.0442,0.0829 -0.0507,0.180764 -0.0179,0.268782 z m 0.89397,1.045704 c 0.364,0.330094 0.72563,0.663998 1.06977,1.014941 v 0 c 0.1979,0.201824 0.52197,0.204999 0.72376,0.0071 0.20182,-0.197908 0.20499,-0.52197 0.007,-0.723794 -0.004,-0.0045 -0.009,-0.0089 -0.0135,-0.01326 -0.37546,-0.355564 -0.7795,-0.681002 -1.18717,-0.998537 v 0 c -0.20324,-0.158292 -0.49636,-0.12185 -0.65465,0.08139 -0.14997,0.192581 -0.12616,0.468206 0.0547,0.632178 z m 1.06977,1.014941 c 0.27206,0.277425 0.53541,0.563351 0.79103,0.855945 v 0 c 0.18986,0.217346 0.51999,0.239642 0.73734,0.04974 0.21735,-0.189865 0.23961,-0.519959 0.0497,-0.737341 -0.27295,-0.31242 -0.55951,-0.613022 -0.86074,-0.898313 v 0 c -0.20525,-0.194345 -0.52921,-0.185561 -0.72355,0.01968 -0.1893,0.199884 -0.18655,0.513715 0.006,0.710282 z m 0.79103,0.855945 c 0.25037,0.286596 0.48334,0.588504 0.69511,0.904734 v 0 c 0.15861,0.236855 0.47918,0.300284 0.716,0.141675 0.23326,-0.156174 0.29891,-0.470112 0.14781,-0.706649 -0.23078,-0.36135 -0.48979,-0.704462 -0.77184,-1.027359 v 0 c -0.18986,-0.217347 -0.51999,-0.239607 -0.73734,-0.04974 -0.21734,0.189865 -0.23964,0.519994 -0.0497,0.737341 z m 0.69511,0.904734 c 0.19576,0.292311 0.35652,0.607695 0.47661,0.938424 h -4e-5 c 0.0961,0.264583 0.38844,0.401179 0.65303,0.305153 0.26458,-0.09606 0.40121,-0.388409 0.30515,-0.653027 -0.14697,-0.404778 -0.33916,-0.792657 -0.57094,-1.155524 v 0 c -0.15342,-0.240242 -0.47254,-0.310585 -0.71278,-0.157163 -0.24021,0.153459 -0.31059,0.472582 -0.15713,0.712788 0.002,0.0032 0.004,0.0062 0.006,0.0093 z m 0.47657,0.938389 c 0.12499,0.344311 0.20338,0.70432 0.24394,1.068034 v 0 c 0.0298,0.267582 0.27098,0.46027 0.53852,0.430425 0.25446,-0.0284 0.44358,-0.248779 0.433,-0.504579 -0.0189,-0.456811 -0.1011,-0.911507 -0.25728,-1.341684 v 0 c -0.0961,-0.264619 -0.38841,-0.401214 -0.65299,-0.305188 -0.26459,0.09606 -0.40122,0.388408 -0.30519,0.652992 0,0 0,0 0,0 z m 0.24394,1.068034 c 0.0472,0.423404 0.0567,0.850547 0.04,1.276068 v 0 c -0.01,0.247721 0.18324,0.456459 0.431,0.466196 0.23978,0.0094 0.44456,-0.171415 0.46492,-0.410528 0.0398,-0.467324 0.055,-0.937154 0.0356,-1.40589 v 0 c -0.0111,-0.268993 -0.2382,-0.478049 -0.50719,-0.466936 -0.26896,0.01111 -0.47801,0.238195 -0.4669,0.507188 2.6e-4,0.01132 0.001,0.02265 0.002,0.0339 z m 0.61183,2.852844 c 0.16842,-0.491773 0.28,-1.002983 0.3241,-1.521108 v 0 c 0.021,-0.24705 -0.16221,-0.464361 -0.40926,-0.485386 -0.24705,-0.02106 -0.46436,0.162171 -0.48539,0.409222 -7.9e-4,0.0068 -0.001,0.01365 -0.001,0.02046 -0.0176,0.447251 -0.0965,0.890834 -0.22662,1.318824 v 3.5e-5 c -0.0674,0.221721 0.0577,0.456072 0.27947,0.523452 0.21625,0.06572 0.44573,-0.05168 0.51897,-0.2655 z m -0.5884,1.420494 c 0.22571,-0.460516 0.42224,-0.935284 0.5884,-1.420494 v 0 c 0.0751,-0.219252 -0.0418,-0.457835 -0.26102,-0.532942 -0.21925,-0.07507 -0.45784,0.0418 -0.53291,0.26102 -0.002,0.0046 -0.003,0.0093 -0.004,0.01397 -0.13892,0.457059 -0.30808,0.904911 -0.50641,1.339498 v 0 c -0.0909,0.199143 -0.003,0.434234 0.19604,0.525109 0.19526,0.08911 0.42598,0.0066 0.52042,-0.186161 z m -0.74733,1.320377 c 0.27538,-0.424568 0.52462,-0.865963 0.74733,-1.320377 v 0 c 0.0963,-0.196532 0.0151,-0.433951 -0.18147,-0.530295 -0.19657,-0.09631 -0.43399,-0.01506 -0.5303,0.181469 -0.002,0.0032 -0.003,0.0066 -0.005,0.0099 -0.19762,0.43307 -0.41927,0.855168 -0.66487,1.262944 v 0 c -0.10654,0.176918 -0.0495,0.406682 0.12738,0.513221 0.17276,0.10407 0.39691,0.05235 0.50663,-0.11684 z m -0.77258,1.143494 c 0.26571,-0.375532 0.52225,-0.75752 0.77258,-1.143494 v 0 c 0.1124,-0.173249 0.063,-0.404812 -0.1102,-0.517172 -0.17329,-0.11236 -0.40481,-0.06301 -0.51721,0.110243 -0.002,0.0035 -0.004,0.007 -0.007,0.01055 -0.23139,0.38421 -0.47114,0.763482 -0.7232,1.134498 v 0 c -0.11041,0.162489 -0.0682,0.383716 0.0943,0.494136 0.1603,0.108938 0.37832,0.06946 0.49029,-0.08876 z m -0.66703,0.920009 c 0.22687,-0.303318 0.44824,-0.610799 0.66703,-0.920009 v 0 c 0.11345,-0.160373 0.0755,-0.382376 -0.0849,-0.495829 -0.16037,-0.113489 -0.38237,-0.07546 -0.49586,0.08491 -0.001,0.0018 -0.002,0.0037 -0.004,0.0055 -0.20528,0.302119 -0.41885,0.599299 -0.64961,0.882615 v 0 c -0.12551,0.154093 -0.10234,0.380753 0.0517,0.506271 0.1541,0.125519 0.38076,0.102341 0.50628,-0.05175 0.003,-0.0038 0.006,-0.0078 0.009,-0.01175 z m -0.66238,0.826206 c 0.2291,-0.26857 0.45093,-0.543455 0.66238,-0.826206 v 0 c 0.11903,-0.159138 0.0865,-0.384669 -0.0726,-0.503696 -0.15455,-0.11557 -0.37271,-0.08869 -0.49456,0.06092 -0.21054,0.258445 -0.43511,0.505319 -0.66904,0.742738 v 0 c -0.15099,0.153247 -0.14919,0.399909 0.004,0.550898 0.15325,0.151024 0.39991,0.14919 0.5509,-0.0041 0.007,-0.0066 0.0128,-0.01351 0.0189,-0.0206 z m -0.82151,0.133985 v 0 c 0.0293,0.04911 0.0703,0.09017 0.11934,0.119556 0.16482,0.09878 0.3548,0.04981 0.49943,-0.05729 0.0757,-0.05613 0.14171,-0.124707 0.20274,-0.19625 v 0 c 0.13963,-0.163689 0.12013,-0.409575 -0.0436,-0.549205 -0.15543,-0.132574 -0.38689,-0.122555 -0.53029,0.02297 -0.13543,0.137442 -0.31616,0.305506 -0.29478,0.517596 v 0 c 0.005,0.05041 0.0212,0.09913 0.0471,0.142628 z" />
    <path
       inkscape:connector-curvature="0"
       id="path579"
       style="fill:#000000;fill-opacity:1;fill-rule:nonzero;stroke:none;stroke-width:0.35277775"
       d="m 36.836255,36.449469 c 0.02283,0.0665 0.0406,0.134479 0.0557,0.20313 v 0 c 0.01842,0.08364 0.101141,0.136525 0.184785,0.118145 0.05902,-0.01298 0.105128,-0.05909 0.118145,-0.118145 0.03291,-0.149719 0.06639,-0.299508 0.09412,-0.450286 0.0083,-0.04505 0.01662,-0.09052 0.01877,-0.136384 0.0089,-0.19117 -0.119415,-0.362056 -0.302542,-0.415713 v 0 c -0.217347,-0.06364 -0.445135,0.06096 -0.508776,0.278306 -0.06364,0.217311 0.06096,0.4451 0.278271,0.508776 0.02011,0.0059 0.04064,0.01023 0.06142,0.01295 l 1.06e-4,-7.14e-4 z m 0.0937,0.485317 c 0.116381,-0.244581 0.242006,-0.48835 0.341489,-0.740551 v 0 c 0.08308,-0.210679 -0.02032,-0.448839 -0.230999,-0.531919 -0.01154,-0.0046 -0.02328,-0.0086 -0.03521,-0.0121 -0.242112,-0.07087 -0.48006,0.06064 -0.65338,0.220451 -0.161607,0.149014 -0.292135,0.330624 -0.410316,0.514915 v 0 c -0.168874,0.263348 -0.09229,0.613763 0.171062,0.782673 0.263384,0.168874 0.613798,0.09229 0.782708,-0.171062 0.01284,-0.02007 0.02441,-0.04089 0.03464,-0.06241 z m -0.55753,1.342919 c 0.168593,-0.454378 0.34925,-0.905157 0.55753,-1.342919 v 0 c 0.134444,-0.28254 0.01439,-0.620536 -0.268111,-0.754945 -0.257669,-0.12259 -0.566279,-0.03447 -0.720302,0.20574 -0.287408,0.448205 -0.528284,0.925583 -0.745666,1.411111 v 0 c -0.143475,0.320534 3.5e-5,0.696701 0.320569,0.840211 0.320534,0.143475 0.696701,-3.5e-5 0.840176,-0.320569 0.0057,-0.0127 0.01097,-0.02558 0.0158,-0.03863 z m -0.467148,1.436829 c 0.132009,-0.486199 0.291959,-0.964601 0.467148,-1.436829 v 0 c 0.122167,-0.329283 -0.04572,-0.695219 -0.375003,-0.817351 -0.314042,-0.116522 -0.664668,0.03059 -0.801546,0.336338 -0.224931,0.502426 -0.427038,1.016 -0.58868,1.542451 v 0 c -0.109538,0.356729 0.09088,0.734765 0.447639,0.844303 0.356729,0.109537 0.734766,-0.09088 0.844303,-0.44764 0.0021,-0.0071 0.0042,-0.01415 0.0061,-0.02127 z m -0.331505,1.450939 c 0.09352,-0.487256 0.201471,-0.972044 0.331505,-1.450939 v 0 c 0.09779,-0.360187 -0.1149,-0.731415 -0.475051,-0.829205 -0.35186,-0.09553 -0.716033,0.105269 -0.82303,0.453814 -0.156034,0.508176 -0.287867,1.023655 -0.403366,1.542485 v 0 c -0.08393,0.377155 0.153775,0.750923 0.530895,0.834849 0.377155,0.08393 0.750923,-0.153741 0.834848,-0.530896 0.0014,-0.0067 0.0028,-0.01337 0.0042,-0.02011 z m -0.21015,1.559737 c 0.04121,-0.523276 0.111195,-1.044223 0.21015,-1.559737 v 0 c 0.07281,-0.379412 -0.175719,-0.746054 -0.555167,-0.818903 -0.371616,-0.07133 -0.732578,0.165735 -0.814775,0.535058 -0.126824,0.569913 -0.213643,1.148574 -0.260456,1.730552 v 0 c -0.03154,0.392147 0.260773,0.735647 0.652956,0.767185 0.392148,0.03154 0.735648,-0.260808 0.767186,-0.652956 3.5e-5,-3.44e-4 7.1e-5,-7.14e-4 1.06e-4,-0.0011 z m -0.06964,1.599423 c 0.0043,-0.533752 0.02773,-1.067329 0.06964,-1.599423 v 0 c 0.03087,-0.392219 -0.262044,-0.735225 -0.654262,-0.766093 -0.39176,-0.03087 -0.734483,0.261338 -0.765986,0.653063 -0.04554,0.565855 -0.07091,1.133334 -0.07546,1.700988 v 0 c -0.0032,0.393806 0.313513,0.71561 0.707319,0.718785 0.393806,0.0032 0.71561,-0.313549 0.718749,-0.70732 z m -1.282806,1.686454 v 0 c 0.07204,0.386892 0.444112,0.642127 0.831039,0.570054 0.386573,-0.072 0.641773,-0.443547 0.57023,-0.830192 -0.08696,-0.46997 -0.122273,-0.94869 -0.118463,-1.426316 v 0 c 0.0032,-0.393805 -0.313514,-0.715609 -0.70732,-0.718784 -0.393806,-0.0032 -0.715574,0.313549 -0.718749,0.707319 -0.0046,0.568748 0.03905,1.13852 0.143263,1.697919 z m 0,0 c 0.09924,0.532907 0.257069,1.055229 0.478226,1.550424 v 0 c 0.157409,0.352425 0.570723,0.510504 0.923148,0.353095 0.343147,-0.153282 0.503626,-0.55051 0.363255,-0.899125 -0.164112,-0.40767 -0.283457,-0.832591 -0.363361,-1.264532 v 0 c -0.07161,-0.386997 -0.443371,-0.64269 -0.830368,-0.571077 -0.386997,0.07161 -0.642655,0.443372 -0.571077,0.830369 7.1e-5,2.91e-4 1.06e-4,7.14e-4 1.77e-4,7.14e-4 z m 0.478226,1.550424 c 0.199989,0.44771 0.437514,0.879827 0.722665,1.279136 v 0 c 0.215723,0.302049 0.635458,0.372075 0.937507,0.156351 0.292876,-0.209126 0.369005,-0.611892 0.172684,-0.913517 -0.218545,-0.335774 -0.396945,-0.696701 -0.546452,-1.068 v 0 c -0.144145,-0.358069 -0.551251,-0.53146 -0.909285,-0.387279 -0.358069,0.144145 -0.53146,0.55125 -0.387279,0.90932 0.0032,0.008 0.0066,0.01605 0.01016,0.02399 z m 0.722665,1.279136 c 0.271039,0.379554 0.591185,0.724112 0.954299,1.017094 v 0 c 0.262643,0.211914 0.647347,0.17078 0.859225,-0.09183 0.188666,-0.233821 0.179353,-0.570018 -0.02187,-0.793045 -0.250507,-0.2776 -0.47752,-0.57605 -0.681461,-0.889387 v 0 c -0.202458,-0.31108 -0.618771,-0.399133 -0.92985,-0.196639 -0.31108,0.202459 -0.399133,0.618772 -0.196674,0.929852 0.0053,0.0081 0.01072,0.01609 0.01633,0.02395 z m 0.954334,1.017094 c 0.13709,0.110631 0.289913,0.201436 0.44383,0.286385 0.18348,0.101247 0.371828,0.193605 0.561516,0.282505 0.568854,0.266488 1.151573,0.50359 1.735632,0.734377 v 0 c 0.08364,0.03306 0.178223,-0.0079 0.211278,-0.09158 0.02522,-0.06378 0.0078,-0.136525 -0.04367,-0.181892 -0.463307,-0.409083 -0.925234,-0.819998 -1.37873,-1.239945 -0.235832,-0.218334 -0.476991,-0.435857 -0.692538,-0.674723 v 0 c -0.226095,-0.250542 -0.612458,-0.270368 -0.863,-0.04427 -0.250543,0.22606 -0.270369,0.612422 -0.04427,0.862965 0.02152,0.02388 0.04491,0.046 0.06996,0.06618 z" />
    <path
       inkscape:connector-curvature="0"
       id="path585"
       style="fill:#000000;fill-opacity:1;fill-rule:nonzero;stroke:none;stroke-width:0.35277775"
       d="m 66.513687,33.328938 v 0 c 0.18309,0.203694 0.4966,0.220416 0.7003,0.03736 0.20365,-0.183091 0.22038,-0.496605 0.0373,-0.700299 -0.0987,-0.109784 -0.2412,-0.169898 -0.38873,-0.163971 -0.19039,0.0076 -0.37105,0.101036 -0.45148,0.286703 -0.0802,0.185173 -0.0281,0.394793 0.10258,0.540208 z m 0,0 c 0.13557,0.150848 0.33284,0.227401 0.52599,0.272521 0.19858,0.04639 0.40351,0.06421 0.60681,0.07313 v 0 c 0.33179,0.01453 0.61257,-0.242605 0.6271,-0.574393 0.0146,-0.331787 -0.2426,-0.612528 -0.57439,-0.627097 -0.016,-7.15e-4 -0.032,-7.15e-4 -0.0479,-1.77e-4 -0.26289,0.0095 -0.52582,0.01852 -0.78867,0.0291 v 0 c -0.27365,0.01097 -0.48656,0.241724 -0.47555,0.515373 0.005,0.115429 0.0494,0.225637 0.12665,0.311538 z m 1.1328,0.345652 c 0.27686,0.01214 0.55457,0.0044 0.83125,-0.0085 0.37596,-0.01753 0.75128,-0.04692 1.12603,-0.08096 v 0 c 0.34982,-0.03179 0.60763,-0.341136 0.57584,-0.690915 -0.0318,-0.349779 -0.34113,-0.607589 -0.69091,-0.575804 -0.004,3.17e-4 -0.007,7.14e-4 -0.0101,0.0011 -0.6071,0.06498 -1.21681,0.131551 -1.82732,0.153494 v 0 c -0.33189,0.01192 -0.59126,0.290653 -0.57933,0.622511 0.0113,0.313337 0.26137,0.565397 0.57457,0.579155 z m 1.95728,-0.08943 c 1.03886,-0.0944 2.04908,-0.433458 2.99438,-0.862577 v 0 c 0.0811,-0.03683 0.11695,-0.132362 0.0801,-0.213431 -0.0229,-0.05038 -0.07,-0.08551 -0.12478,-0.09306 -1.01529,-0.139877 -2.0533,-0.205987 -3.07495,-0.09666 v 0 c -0.34925,0.03739 -0.60205,0.350802 -0.56469,0.700052 0.037,0.345299 0.34407,0.597076 0.68989,0.565679 z" />
    <path
       inkscape:connector-curvature="0"
       id="path589"
       style="fill:#000000;fill-opacity:1;fill-rule:nonzero;stroke:none;stroke-width:0.35277775"
       d="m 73.375987,29.421254 c -0.1144,-0.13462 -0.30085,-0.177271 -0.46246,-0.10548 v 0 c -0.19991,0.08876 -0.28998,0.322721 -0.20122,0.52264 0.0888,0.199884 0.32272,0.289948 0.52264,0.201189 0.19989,-0.08872 0.28995,-0.322721 0.20119,-0.522605 -0.0153,-0.03464 -0.0356,-0.06689 -0.0601,-0.09574 z m -0.74856,1.142083 v 0 c 0.0497,0.296721 0.33048,0.496958 0.62721,0.447287 0.29672,-0.04971 0.49695,-0.330518 0.44728,-0.627239 -0.002,-0.01058 -0.004,-0.02117 -0.006,-0.03164 -0.0418,-0.182351 -0.0858,-0.364666 -0.14111,-0.543454 -0.0412,-0.133385 -0.0866,-0.278871 -0.17854,-0.387033 v 0 c -0.1137,-0.133808 -0.30198,-0.176741 -0.46246,-0.10548 -0.2329,0.103364 -0.31397,0.369146 -0.33122,0.603003 -0.0159,0.215088 0.01,0.432647 0.0451,0.64456 z m 0,0 c 0.0732,0.437409 0.13751,0.876265 0.19466,1.316073 v 0 c 0.0408,0.314042 0.32844,0.535552 0.64248,0.494771 0.31408,-0.04082 0.53559,-0.328472 0.49478,-0.642515 -8e-4,-0.0051 -10e-4,-0.01016 -0.002,-0.01524 -0.072,-0.457623 -0.15809,-0.91313 -0.26152,-1.364685 v 0 c -0.0672,-0.293264 -0.35936,-0.476532 -0.65262,-0.409363 -0.28102,0.06438 -0.46323,0.33662 -0.41561,0.620959 z m 0.19466,1.316073 c 0.0788,0.60639 0.14588,1.214367 0.21111,1.822344 v 0 c 0.035,0.325825 0.32741,0.561622 0.65327,0.526662 0.32583,-0.03493 0.56162,-0.327413 0.52666,-0.653239 -2.6e-4,-0.0036 -7.9e-4,-0.0072 -0.001,-0.01083 -0.0777,-0.616867 -0.15807,-1.233699 -0.2547,-1.84792 v 0 c -0.0492,-0.312844 -0.34271,-0.526557 -0.65555,-0.477344 -0.30692,0.04829 -0.51958,0.33221 -0.47954,0.640327 z m 0.21111,1.822344 c 0.0526,0.490855 0.10682,0.981674 0.15479,1.473023 v 0 c 0.0337,0.344488 0.34019,0.596477 0.68468,0.562822 0.34449,-0.03362 0.59647,-0.340183 0.56282,-0.684671 -0.003,-0.02783 -0.007,-0.05549 -0.0137,-0.08273 -0.0375,-0.159209 -0.0605,-0.322333 -0.0849,-0.483905 -0.0462,-0.30667 -0.0862,-0.614292 -0.12502,-0.921985 v 3.5e-5 c -0.0409,-0.325155 -0.33772,-0.555555 -0.66284,-0.514597 -0.32092,0.04039 -0.55033,0.330412 -0.51583,0.652004 z m 0.15479,1.473023 c 0.0198,0.202883 0.10803,0.399592 0.26004,0.53774 0.21163,0.192299 0.5437,0.249237 0.78465,0.07274 v 0 c 0.05,-0.03665 0.0932,-0.08188 0.12752,-0.133527 0.13283,-0.199919 0.11406,-0.458646 0.0616,-0.681531 v 0 c -0.0793,-0.336903 -0.41677,-0.545712 -0.75367,-0.466373 -0.30543,0.07193 -0.51061,0.358634 -0.4801,0.670948 z" />
  </g>
</svg>
