<?xml version="1.0" encoding="UTF-8" standalone="no"?>
<!-- Created with Inkscape (http://www.inkscape.org/) -->

<svg
   xmlns:dc="http://purl.org/dc/elements/1.1/"
   xmlns:cc="http://creativecommons.org/ns#"
   xmlns:rdf="http://www.w3.org/1999/02/22-rdf-syntax-ns#"
   xmlns:svg="http://www.w3.org/2000/svg"
   xmlns="http://www.w3.org/2000/svg"
   xmlns:sodipodi="http://sodipodi.sourceforge.net/DTD/sodipodi-0.dtd"
   xmlns:inkscape="http://www.inkscape.org/namespaces/inkscape"
   version="1.1"
   id="svg842"
   xml:space="preserve"
   width="978.41541"
   height="589.56641"
   viewBox="0 0 978.41539 589.5664"
   sodipodi:docname="semidefinite_bubble.svg"
   inkscape:version="0.92.3 (2405546, 2018-03-11)"><metadata
     id="metadata848"><rdf:RDF><cc:Work
         rdf:about=""><dc:format>image/svg+xml</dc:format><dc:type
           rdf:resource="http://purl.org/dc/dcmitype/StillImage" /><dc:title></dc:title></cc:Work></rdf:RDF></metadata><defs
     id="defs846" /><sodipodi:namedview
     pagecolor="#ffffff"
     bordercolor="#666666"
     borderopacity="1"
     objecttolerance="10"
     gridtolerance="10"
     guidetolerance="10"
     inkscape:pageopacity="0"
     inkscape:pageshadow="2"
     inkscape:window-width="1920"
     inkscape:window-height="1052"
     id="namedview844"
     showgrid="false"
     fit-margin-top="0"
     fit-margin-left="0"
     fit-margin-right="0"
     fit-margin-bottom="0"
     inkscape:zoom="1.0633185"
     inkscape:cx="524.38193"
     inkscape:cy="202.54736"
     inkscape:window-x="1920"
     inkscape:window-y="0"
     inkscape:window-maximized="1"
     inkscape:current-layer="g850" /><g
     id="g850"
     inkscape:groupmode="layer"
     inkscape:label="canvas (13)"
     transform="matrix(1.3333333,0,0,-1.3333333,74.379502,874.79141)"><path
       inkscape:connector-curvature="0"
       id="path1032"
       style="fill:#a42604;fill-opacity:1;fill-rule:nonzero;stroke:none"
       d="m -30.945859,628.99024 c 0.02965,-1.3058 0.07913,-2.61136 0.122802,-3.91677 h -2e-5 c 0.0081,-0.24264 0.211404,-0.43272 0.454044,-0.42463 0.222632,0.007 0.404495,0.18021 0.423333,0.40222 0.07163,0.84441 0.146157,1.68884 0.237007,2.53143 0.04602,0.42707 0.08498,0.86032 0.170982,1.2817 h 1e-5 c 0.07856,0.38491 -0.169792,0.76066 -0.554731,0.83916 -0.38492,0.0786 -0.760651,-0.16973 -0.839222,-0.55475 -0.01065,-0.052 -0.01538,-0.10522 -0.01417,-0.15837 h 2e-5 z m 0.477997,1.97788 c -0.298877,-0.61439 -0.493611,-1.29016 -0.477997,-1.97788 h -2e-5 c 0.0089,-0.39278 0.334536,-0.70393 0.727295,-0.69497 0.331889,0.007 0.614449,0.24363 0.680833,0.56892 0.09049,0.44345 0.310219,0.85188 0.568921,1.21895 v 0 c 0.277821,0.39419 0.183469,0.939 -0.21074,1.21685 -0.394217,0.27777 -0.939021,0.18343 -1.216841,-0.21076 -0.02704,-0.0384 -0.05093,-0.0789 -0.07147,-0.12111 z m 1.206368,1.73792 c -0.493446,-0.50919 -0.896587,-1.10086 -1.206438,-1.73792 h 3e-5 c -0.21095,-0.43376 -0.03037,-0.95629 0.403325,-1.16726 0.385046,-0.18729 0.849083,-0.0677 1.095747,0.28228 0.304049,0.43139 0.657978,0.82802 1.062493,1.16775 l 10e-6,-10e-6 c 0.421027,0.35363 0.475678,0.9816 0.12208,1.40262 -0.353609,0.42102 -0.981574,0.47567 -1.402588,0.12207 -0.02606,-0.0219 -0.05097,-0.0451 -0.07466,-0.0695 z m 1.691877,1.43398 c -0.599211,-0.4331 -1.176705,-0.9024 -1.691877,-1.43398 v 0 c -0.382626,-0.39483 -0.372726,-1.02509 0.02211,-1.40773 0.366505,-0.35518 0.942242,-0.37559 1.333047,-0.0474 0.482338,0.40512 1.00572,0.76044 1.540669,1.09183 h 10e-6 c 0.508156,0.31477 0.664918,0.98189 0.350146,1.49005 -0.314781,0.50816 -0.981894,0.66493 -1.490061,0.35015 -0.02185,-0.0135 -0.04321,-0.0278 -0.06404,-0.0429 z m 2.411251,1.41346 c -0.837833,-0.40816 -1.655177,-0.867 -2.411251,-1.41346 v 0 c -0.484461,-0.35015 -0.593341,-1.02674 -0.243191,-1.5112 0.332615,-0.46021 0.96434,-0.58513 1.447076,-0.28614 0.692371,0.4288 1.426864,0.78809 2.173322,1.11192 v 0 c 0.585455,0.25397 0.854173,0.93447 0.600201,1.51994 -0.253983,0.58545 -0.934485,0.85417 -1.519939,0.6002 -0.01557,-0.007 -0.03097,-0.0139 -0.04622,-0.0213 z m 3.228138,1.34355 c -1.095046,-0.39881 -2.179843,-0.83295 -3.228075,-1.34353 v 0 c -0.573723,-0.27947 -0.812278,-0.97112 -0.532808,-1.54485 0.270815,-0.55597 0.931356,-0.80017 1.498701,-0.55405 1.003309,0.43524 2.031056,0.81344 3.065522,1.16732 v 0 c 0.630408,0.21567 0.966684,0.90157 0.750987,1.53201 -0.215598,0.63043 -0.901547,0.96666 -1.531974,0.75099 -0.0075,-0.003 -0.01494,-0.005 -0.02236,-0.008 z m 6.80524,2.21135 c -1.394151,-0.43286 -2.787166,-0.86964 -4.175614,-1.32079 -0.880138,-0.28599 -1.759951,-0.57385 -2.629626,-0.89056 v 0 c -0.62608,-0.22801 -0.948766,-0.92038 -0.720753,-1.54645 0.224847,-0.6174 0.902416,-0.94134 1.524093,-0.72866 2.220175,0.75949 4.482792,1.40272 6.733582,2.0632 l -10e-7,-10e-6 c 0.670812,0.19682 1.054941,0.90014 0.858123,1.57088 -0.196818,0.67075 -0.900069,1.05494 -1.57088,0.85812 -0.0062,-0.002 -0.01261,-0.004 -0.01892,-0.006 l -1e-6,-10e-6 z m 8.5234107,2.59504 c -2.8477257,-0.84299 -5.6870887,-1.71438 -8.5234107,-2.59504 l 10e-7,10e-6 c -0.667583,-0.20728 -1.04072,-0.91651 -0.833458,-1.58409 0.205043,-0.66026 0.901861,-1.03386 1.56524,-0.83917 2.831427,0.83103 5.6696731,1.6407 8.5247339,2.38706 v 0 c 0.7299063,0.19079 1.16682,0.93711 0.9760929,1.66695 -0.1908266,0.72985 -0.9370962,1.16684 -1.6670034,0.97605 -0.01411,-0.004 -0.028243,-0.008 -0.042196,-0.0118 z m 7.7403389,2.18623 c -2.5879548,-0.70049 -5.1694628,-1.42523 -7.7403389,-2.18623 v 0 c -0.7233748,-0.21412 -1.1361658,-0.97409 -0.9220232,-1.69743 0.2092625,-0.70698 0.9418024,-1.12027 1.6551294,-0.9338 2.5574083,0.66852 5.13686039,1.25044 7.7269342,1.77687 l 10e-7,10e-6 c 0.8460475,0.17193 1.3924728,0.99711 1.2204648,1.8431 -0.1719076,0.84598 -0.9971243,1.3924 -1.8430722,1.22046 -0.032572,-0.007 -0.064934,-0.0143 -0.097095,-0.023 z m 8.9727324,2.17155 c -3.0075859,-0.65235 -6.0021096,-1.36731 -8.9728338,-2.17156 v 0 c -0.83324352,-0.2256 -1.32585533,-1.08398 -1.10031306,-1.91725 0.21552018,-0.79587 1.01206676,-1.28752 1.82011506,-1.12334 2.9817959,0.60588 5.9676273,1.19071 8.9564018,1.76098 l 10e-7,10e-6 c 0.95541,0.18231 1.582239,1.10463 1.399892,2.06009 -0.182247,0.95544 -1.10463,1.5822 -2.060041,1.39989 -0.01452,-0.003 -0.02886,-0.006 -0.04322,-0.009 z m 10.339234,2.10923 c -3.453707,-0.66658 -6.901565,-1.36371 -10.339232,-2.10921 v 0 c -0.9505343,-0.20615 -1.5541081,-1.14386 -1.3478985,-2.09445 0.2024709,-0.93385 1.1127316,-1.53585 2.0513675,-1.35672 3.424962,0.65363 6.860771,1.24886 10.302369,1.80758 v 0 c 1.039098,0.16867 1.744619,1.14773 1.576003,2.18676 -0.168715,1.03905 -1.14773,1.74462 -2.186828,1.57595 -0.01867,-0.003 -0.03726,-0.006 -0.05578,-0.01 z m 11.295811,2.10207 c -3.769827,-0.6763 -7.535264,-1.37628 -11.295811,-2.10207 l 10e-7,10e-6 c -1.033575,-0.19949 -1.709698,-1.19908 -1.510231,-2.23265 0.195288,-1.01192 1.159567,-1.6853 2.176836,-1.52016 3.762628,0.6108 7.529692,1.19416 11.300552,1.7518 l -1e-6,-1e-5 c 1.135862,0.16798 1.920472,1.22497 1.752477,2.36084 -0.167994,1.13589 -1.22491,1.92052 -2.360774,1.75253 -0.02109,-0.003 -0.0421,-0.007 -0.06305,-0.0103 z m 11.397149,1.82262 c -3.810391,-0.5338 -7.609952,-1.14321 -11.397149,-1.82262 v 0 c -1.130112,-0.20276 -1.881996,-1.28332 -1.679211,-2.41351 0.198367,-1.10574 1.239245,-1.85391 2.350557,-1.68957 3.771574,0.55777 7.545512,1.09592 11.322947,1.61264 l -10e-7,-10e-6 c 1.191237,0.16297 2.02491,1.26079 1.861955,2.45208 -0.162955,1.19129 -1.26084,2.02491 -2.452077,1.86195 -0.002,-3.5e-4 -0.0051,-6.2e-4 -0.0071,-9.3e-4 z m 11.850091,1.50752 c -3.955731,-0.45728 -7.906554,-0.95507 -11.850091,-1.50752 v 0 c -1.190698,-0.16682 -2.020808,-1.26734 -1.853985,-2.45808 0.166474,-1.18807 1.262636,-2.0176 2.45123,-1.85498 3.908214,0.53476 7.824437,1.00869 11.74571,1.43725 l 10e-7,1e-5 c 1.210839,0.13233 2.085149,1.22119 1.952871,2.43202 -0.132378,1.21085 -1.221192,2.08515 -2.432032,1.95281 -0.0041,-5.3e-4 -0.0091,-10e-4 -0.0137,-0.002 l 10e-7,10e-6 z m 12.304594,1.2397 c -4.107538,-0.35142 -8.209427,-0.76631 -12.304594,-1.2397 l -1e-6,-10e-6 c -1.209946,-0.13988 -2.077436,-1.23417 -1.937545,-2.44417 0.13919,-1.20465 1.22495,-2.07089 2.430411,-1.93914 4.052709,0.44291 8.112279,0.82455 12.176921,1.13874 l -1e-6,-10e-6 c 1.238619,0.0958 2.165196,1.17756 2.069505,2.41627 -0.09579,1.23871 -1.177555,2.16526 -2.416274,2.06951 -0.0061,-5.3e-4 -0.01224,-9.5e-4 -0.01842,-10e-4 l 1e-6,10e-6 z m 11.801672,0.82777 c -3.938039,-0.21181 -7.872361,-0.49158 -11.801672,-0.82777 l -10e-7,-1e-5 c -1.237873,-0.10591 -2.155521,-1.19527 -2.049607,-2.43315 0.105287,-1.23071 1.183264,-2.14632 2.414799,-2.05113 3.8904,0.30074 7.784018,0.56008 11.680496,0.76896 l 10e-7,10e-6 c 1.254507,0.0673 2.216975,1.13878 2.149801,2.39332 -0.06727,1.25455 -1.138807,2.21704 -2.393413,2.14979 -1.02e-4,-10e-6 -2.03e-4,-2e-5 -4.04e-4,-2e-5 z m 11.959838,0.38874 c -3.988563,-0.0514 -7.976469,-0.17451 -11.959838,-0.38874 v 0 c -1.254527,-0.0675 -2.216812,-1.13918 -2.149335,-2.39371 0.06749,-1.25438 1.138947,-2.21663 2.393351,-2.14938 3.917075,0.20999 7.839563,0.3179 11.762069,0.34637 l -10e-7,-10e-6 c 1.266291,0.009 2.285375,1.04315 2.276165,2.30944 -0.0092,1.26628 -1.043151,2.28535 -2.309441,2.27617 -0.004,-6e-5 -0.009,-4e-5 -0.01297,-1.8e-4 l -10e-7,-10e-6 z m 12.191717,-0.0249 c -4.063422,0.0715 -8.127932,0.0773 -12.191717,0.0249 v 10e-6 c -1.266162,-0.0163 -2.279359,-1.05602 -2.26311,-2.32222 0.01632,-1.26115 1.048095,-2.27238 2.309257,-2.26325 4.014968,0.029 8.030566,-0.004 12.04436,-0.10783 v -10e-6 c 1.28899,-0.0332 2.36091,0.98479 2.39413,2.27381 0.0332,1.28902 -0.98478,2.36091 -2.27378,2.39413 -0.006,1.4e-4 -0.0127,3.1e-4 -0.0191,4.1e-4 z m 11.60212,-0.39323 c -3.86492,0.19811 -7.73283,0.32526 -11.60212,0.39323 v -10e-6 c -1.2893,0.0226 -2.3528,-1.00413 -2.37539,-2.29338 -0.0226,-1.28177 0.99259,-2.34195 2.27418,-2.37498 3.8222,-0.0985 7.64325,-0.24112 11.46178,-0.43686 v 0 c 1.3012,-0.0667 2.41006,0.93405 2.47677,2.23523 0.0667,1.30119 -0.93402,2.41007 -2.23522,2.47677 0,0 0,0 0,0 z m 11.61345,-0.82882 c -3.86541,0.34893 -7.73725,0.63003 -11.61335,0.82882 v -10e-6 c -1.3012,0.0667 -2.41015,-0.93398 -2.47686,-2.23517 -0.0667,-1.30118 0.93402,-2.41009 2.23521,-2.47683 0,10e-6 0,10e-6 10e-5,0 3.82105,-0.19575 7.63895,-0.45766 11.45186,-0.77338 v -1e-5 c 1.28639,-0.10652 2.41545,0.84988 2.52194,2.13618 0.10595,1.27956 -0.84018,2.40496 -2.1189,2.5204 z m 0,0 v 0 c -1.28548,0.11605 -2.42169,-0.83198 -2.53764,-2.11745 -0.11556,-1.28551 0.83198,-2.42161 2.11736,-2.53764 0.006,-5.4e-4 0.0116,-10e-4 0.0172,-10e-4 3.83364,-0.31745 7.66629,-0.64861 11.49725,-0.99651 v 0 c 1.2644,-0.11486 2.38242,0.81706 2.49718,2.08141 0.11407,1.25923 -0.80964,2.37436 -2.06818,2.49596 -3.83993,0.371 -7.6811,0.72887 -11.52321,1.07572 z m 11.09421,-5.65309 c 3.54992,-0.32237 7.09275,-0.7207 10.62311,-1.21272 v -10e-6 c 1.24092,-0.17296 2.38714,0.69283 2.56005,1.93378 0.17227,1.23627 -0.6864,2.37949 -1.92174,2.55841 -3.59951,0.52131 -7.21237,0.94813 -10.83242,1.29792 v -10e-6 c -1.26371,0.12213 -2.38704,-0.80332 -2.50917,-2.06698 -0.12252,-1.26363 0.80331,-2.38705 2.06703,-2.50916 0.004,-3.8e-4 0.009,-8.5e-4 0.0131,-10e-4 z m 10.62311,-1.21272 c 3.51974,-0.49057 7.03283,-1.02926 10.53896,-1.60856 v 10e-6 c 1.19789,-0.19792 2.32944,0.61272 2.52741,1.8106 0.19503,1.18061 -0.59002,2.30041 -1.76641,2.51957 -3.5418,0.65986 -7.09603,1.25425 -10.66175,1.77056 v 10e-6 c -1.24,0.17956 -2.39076,-0.68012 -2.57032,-1.92014 -0.17955,-1.24002 0.68011,-2.39081 1.92011,-2.57037 0.004,-5.7e-4 0.008,-10e-4 0.012,-0.002 z m 10.53906,-1.60856 c 3.41169,-0.56358 6.81272,-1.19537 10.19416,-1.91949 v 0 c 1.14057,-0.24425 2.26317,0.48233 2.50734,1.62288 0.24226,1.13083 -0.4702,2.24613 -1.59802,2.50189 -3.43256,0.77841 -6.88241,1.48015 -10.34248,2.12488 v 10e-6 c -1.19356,0.2224 -2.34149,-0.56489 -2.56386,-1.75849 -0.22238,-1.19359 0.56484,-2.34147 1.7585,-2.56388 0.0147,-0.003 0.0295,-0.005 0.0444,-0.008 z m 10.19416,-1.91949 c 3.02632,-0.64806 6.03949,-1.3588 9.02939,-2.15826 v 0 c 1.10646,-0.29586 2.24329,0.36126 2.53918,1.46772 0.29502,1.10359 -0.35796,2.238 -1.4604,2.53713 -3.04905,0.82725 -6.11795,1.57951 -9.19885,2.27818 v 0 c -1.13747,0.25796 -2.26873,-0.45507 -2.52668,-1.59259 -0.25796,-1.13751 0.455,-2.26876 1.59256,-2.52671 0.008,-0.002 0.0165,-0.004 0.0248,-0.005 z m 9.02939,-2.15826 c 2.75165,-0.73576 5.49429,-1.50519 8.22513,-2.31437 v -1e-5 c 1.05143,-0.31156 2.15642,0.28822 2.4679,1.33967 0.30318,1.02308 -0.25644,2.10281 -1.26722,2.44492 -2.75475,0.93238 -5.54036,1.77312 -8.34703,2.53464 v 0 c -1.10537,0.2999 -2.24461,-0.35304 -2.54452,-1.45842 -0.29991,-1.10536 0.35312,-2.24456 1.4585,-2.54447 0.002,-6.2e-4 0.005,-10e-4 0.007,-0.002 z m 8.22513,-2.31437 c 2.46761,-0.7312 4.91014,-1.5524 7.30398,-2.49866 v 1e-5 c 0.96158,-0.38013 2.0494,0.0913 2.42944,1.05293 0.37536,0.94947 -0.0792,2.0246 -1.02177,2.41688 -2.46883,1.02747 -4.97823,1.95618 -7.51097,2.81342 v 0 c -1.03871,0.35157 -2.16577,-0.20548 -2.51734,-1.24422 -0.35156,-1.03874 0.20549,-2.1658 1.2442,-2.51738 0.024,-0.008 0.0481,-0.0158 0.0725,-0.023 z m 7.30388,-2.49863 c 2.02551,-0.80073 4.02911,-1.66525 5.97264,-2.64979 v -1e-5 c 0.89681,-0.45429 1.99205,-0.0956 2.44641,0.80122 0.45019,0.88884 0.10217,1.9745 -0.78101,2.43589 -2.02872,1.05991 -4.11748,2.00322 -6.23027,2.88248 v 0 c -0.95464,0.39731 -2.05065,-0.0545 -2.448,-1.00919 -0.39736,-0.95468 0.0546,-2.05069 1.00918,-2.448 0.0103,-0.004 0.0207,-0.008 0.031,-0.0126 z m 5.97264,-2.64979 c 1.70476,-0.86356 3.35804,-1.82858 4.94611,-2.89152 v -1e-5 c 0.80193,-0.53676 1.88719,-0.32178 2.42399,0.48019 0.52299,0.78137 0.3339,1.83649 -0.42789,2.38762 -1.67683,1.21311 -3.4425,2.30251 -5.27681,3.26081 v 10e-6 c -0.89093,0.46549 -1.9906,0.12054 -2.45616,-0.77047 -0.46547,-0.89102 -0.12058,-1.99069 0.77045,-2.4562 0.007,-0.004 0.0135,-0.007 0.0203,-0.0105 v 10e-6 z m 4.94611,-2.89152 c 1.12916,-0.75578 2.27865,-1.50782 3.33151,-2.36935 v 10e-6 c 0.71929,-0.58851 1.77937,-0.48254 2.36791,0.2367 0.58172,0.71089 0.48578,1.7569 -0.21547,2.35018 -1.11381,0.94243 -2.30648,1.7956 -3.48785,2.65026 v 0 c -0.78182,0.56564 -1.87427,0.39038 -2.4399,-0.39149 -0.56564,-0.78187 -0.39041,-1.87425 0.3915,-2.43991 0.0172,-0.0124 0.0346,-0.0246 0.0523,-0.0364 z m 3.33151,-2.36933 c 0.57505,-0.47054 1.12674,-0.97141 1.63802,-1.51091 v 0 c 0.63466,-0.6697 1.69208,-0.6981 2.36182,-0.0634 0.66853,0.63359 0.69811,1.68877 0.0662,2.35887 -0.60161,0.63789 -1.24433,1.2362 -1.9136,1.80237 v 0 c -0.70953,0.60023 -1.77129,0.51165 -2.37146,-0.19784 -0.60027,-0.70949 -0.51165,-1.77122 0.19789,-2.37144 0.006,-0.006 0.014,-0.0118 0.0211,-0.0176 z m 1.63801,-1.51096 c 0.62892,-0.66352 1.16389,-1.41872 1.6777,-2.17245 v 0 c 0.51584,-0.75673 1.54744,-0.95202 2.30417,-0.43621 0.7504,0.51153 0.94972,1.53153 0.44711,2.28794 -0.60655,0.91276 -1.24753,1.81731 -2.00095,2.61622 v 0 c -0.63311,0.67126 -1.69039,0.70223 -2.36168,0.0692 -0.67129,-0.63304 -0.70218,-1.6904 -0.0692,-2.36165 9.1e-4,-10e-4 0.002,-0.002 0.003,-0.003 z m 1.67771,-2.17242 c 0.61806,-0.9068 1.09775,-1.9034 1.43444,-2.94745 v -10e-6 c 0.27912,-0.8658 1.20737,-1.34136 2.0732,-1.06216 0.86574,0.2792 1.34135,1.20738 1.06213,2.0732 -0.43135,1.33784 -1.04031,2.61703 -1.8185,3.78812 v 0 c -0.50683,0.76274 -1.53607,0.97018 -2.29889,0.46332 -0.76271,-0.50686 -0.97014,-1.53609 -0.46331,-2.29883 0.004,-0.005 0.007,-0.0108 0.0109,-0.0162 z m 1.43435,-2.94742 c 0.33279,-1.03215 0.53195,-2.10721 0.56395,-3.19202 v 0 c 0.0265,-0.89364 0.77229,-1.59665 1.66595,-1.57024 0.87401,0.0258 1.56955,0.7411 1.57089,1.6155 0.002,1.41093 -0.2327,2.81586 -0.66537,4.15775 v -10e-6 c -0.27912,0.86582 -1.20736,1.34139 -2.0732,1.06222 -0.86583,-0.27917 -1.34134,-1.20738 -1.06222,-2.0732 z m 0.56395,-3.19197 c 0.0263,-0.88858 0.0483,-1.78404 -0.0163,-2.67157 v 0 c -0.0638,-0.87482 0.59373,-1.63568 1.46851,-1.69943 0.87219,-0.0636 1.63169,0.58988 1.69898,1.46177 0.0758,0.98209 0.0841,1.96992 0.0857,2.95442 v 0 c 0.001,0.89402 -0.72208,1.61994 -1.61612,1.62137 -0.89403,0.001 -1.61999,-0.72214 -1.62138,-1.61617 4.2e-4,-0.0168 -1.6e-4,-0.0336 2.6e-4,-0.0503 z m -0.0163,-2.67162 c -0.0359,-0.49353 -0.11921,-0.98653 -0.27862,-1.45593 v 10e-6 c -0.27875,-0.82106 0.16086,-1.71266 0.98185,-1.99144 0.80018,-0.27168 1.67179,0.13867 1.97229,0.92847 0.27769,0.7303 0.43198,1.50344 0.49199,2.28133 v 0 c 0.0674,0.87454 -0.58676,1.63819 -1.46129,1.70566 -0.87453,0.0675 -1.63823,-0.58678 -1.70567,-1.46131 -2.2e-4,-0.002 -4.3e-4,-0.004 -5.4e-4,-0.007 z m -0.27862,-1.45593 c -0.094,-0.27702 -0.2451,-0.53857 -0.39041,-0.79095 -0.2803,-0.487 -0.59137,-0.95626 -0.91004,-1.41883 v 0 c -0.48133,-0.69873 -0.30512,-1.65535 0.39367,-2.13667 0.69048,-0.47567 1.63489,-0.30982 2.12192,0.37268 0.37307,0.52265 0.73665,1.05331 1.06955,1.60265 0.25351,0.41829 0.49514,0.85003 0.66945,1.30816 v 0 c 0.30818,0.81045 -0.0988,1.71736 -0.90931,2.02563 -0.81048,0.30828 -1.71734,-0.0988 -2.02562,-0.90926 -0.007,-0.0177 -0.0134,-0.0355 -0.0192,-0.0534 z m -1.30045,-2.20978 c -0.83516,-1.21238 -1.8329,-2.30852 -2.89428,-3.32557 v 0 c -0.60222,-0.57709 -0.62263,-1.53312 -0.0456,-2.13533 0.5745,-0.59956 1.52522,-0.62288 2.12843,-0.0523 1.21438,1.149 2.3547,2.38677 3.327,3.74916 v 0 c 0.49291,0.69061 0.33264,1.65004 -0.35792,2.14293 -0.69066,0.49291 -1.65011,0.33264 -2.14293,-0.35799 -0.005,-0.007 -0.009,-0.014 -0.0147,-0.021 z m -2.89428,-3.32557 c -0.96759,-0.92705 -1.95531,-1.84714 -3.025,-2.65681 v 0 c -0.66116,-0.50047 -0.79151,-1.44218 -0.29095,-2.10345 0.5002,-0.66084 1.44139,-0.79134 2.10259,-0.29157 1.1611,0.87777 2.23994,1.86487 3.29623,2.86425 v 0 c 0.60588,0.5733 0.63239,1.52916 0.0591,2.13507 -0.5732,0.6059 -1.52915,0.63238 -2.13502,0.0591 -0.002,-0.002 -0.004,-0.004 -0.007,-0.007 z m -3.025,-2.65681 c -1.25579,-0.95058 -2.6101,-1.77784 -3.95017,-2.60223 v 0 c -0.71265,-0.43844 -0.9349,-1.37156 -0.49645,-2.08421 0.43844,-0.71265 1.37155,-0.935 2.0842,-0.49655 0.004,0.003 0.007,0.004 0.0111,0.007 1.41163,0.88532 2.83256,1.77549 4.16286,2.78109 v 0 c 0.66152,0.50004 0.79246,1.44169 0.29243,2.10321 -0.50004,0.66152 -1.44159,0.79246 -2.10311,0.29243 -3.3e-4,-2.7e-4 -6.5e-4,-4.4e-4 -8.6e-4,-6.2e-4 z m -3.95017,-2.60223 c -1.96828,-1.21105 -4.01202,-2.29714 -6.09374,-3.29938 v 0 c -0.77118,-0.37124 -1.09532,-1.29733 -0.72408,-2.06851 0.37124,-0.77108 1.29733,-1.09532 2.06851,-0.72409 0.005,0.003 0.0105,0.005 0.0151,0.008 2.16373,1.07072 4.28741,2.2277 6.3331,3.51068 v 0 c 0.7089,0.44453 0.9231,1.37962 0.47857,2.08842 -0.44193,0.70454 -1.36905,0.9212 -2.07742,0.48546 z m -6.09374,-3.29938 c -2.40122,-1.15604 -4.86809,-2.17359 -7.36857,-3.09414 v 0 c -0.86286,-0.31776 -1.30483,-1.2748 -0.98716,-2.13764 0.31775,-0.86296 1.27479,-1.30493 2.13764,-0.98717 0.0228,0.008 0.0453,0.0172 0.0676,0.0266 2.53602,1.06153 5.04572,2.18782 7.50999,3.40721 v 0 c 0.76704,0.37956 1.08116,1.30911 0.7016,2.07616 -0.3767,0.76125 -1.29591,1.07741 -2.0611,0.70902 z m -7.36857,-3.09414 c -2.9634,-1.09112 -5.96133,-2.08736 -8.97546,-3.02874 v 0 c -0.96093,-0.30016 -1.49667,-1.32246 -1.19652,-2.28349 0.30015,-0.96093 1.32245,-1.49666 2.28348,-1.19652 0.0141,0.005 0.0281,0.009 0.042,0.0137 3.05597,1.03646 6.08755,2.15066 9.0646,3.39679 v 0 c 0.8482,0.35501 1.24803,1.3305 0.89301,2.17869 -0.34411,0.82216 -1.27468,1.22748 -2.11109,0.91956 z m -8.97546,-3.02874 c -2.59432,-0.81033 -5.19215,-1.61419 -7.81023,-2.34533 v 0 c -1.0279,-0.28709 -1.62854,-1.35317 -1.34145,-2.38107 0.28708,-1.028 1.35316,-1.62864 2.38117,-1.34146 0.0193,0.005 0.0385,0.011 0.0576,0.017 2.6266,0.82234 5.23558,1.70059 7.84189,2.58451 v 0 c 0.95338,0.32337 1.46421,1.35837 1.14084,2.31175 -0.31778,0.93708 -1.32521,1.44952 -2.26978,1.15455 z m -7.81023,-2.34533 c -2.6936,-0.75232 -5.40198,-1.45271 -8.11051,-2.14938 v 0 c -1.0889,-0.28001 -1.74451,-1.38981 -1.46449,-2.47862 0.28012,-1.08891 1.38982,-1.74451 2.47872,-1.46449 0.0137,0.004 0.0274,0.007 0.041,0.0111 2.72566,0.76205 5.4515,1.5302 8.15253,2.37593 v 0 c 1.01855,0.31891 1.58576,1.40312 1.26685,2.42168 -0.31189,0.99619 -1.35861,1.56467 -2.36413,1.2838 z m -8.11051,-2.14938 c -2.78234,-0.7156 -5.56606,-1.42665 -8.35911,-2.09935 v 0 c -1.12563,-0.27112 -1.81832,-1.40342 -1.54719,-2.52895 0.27111,-1.12563 1.40342,-1.81833 2.52905,-1.54721 0.002,3.1e-4 0.003,7.1e-4 0.005,0.002 2.82448,0.68751 5.62844,1.45962 8.42767,2.24233 v 0 c 1.08281,0.30269 1.71519,1.42594 1.41239,2.50866 -0.29828,1.06682 -1.3948,1.69928 -2.46764,1.42337 z m -8.35911,-2.09935 c -2.0131,-0.4849 -4.03075,-0.9521 -6.05275,-1.3983 v 0 c -1.13277,-0.24995 -1.84838,-1.37075 -1.59843,-2.50352 0.24996,-1.13266 1.37076,-1.84827 2.50353,-1.59832 0,0 0,0 0,0 2.05,0.45238 4.09463,0.92858 6.13434,1.42513 v 0 c 1.12499,0.27389 1.81492,1.40777 1.54113,2.53275 -0.27338,1.12302 -1.40415,1.81286 -2.52782,1.54226 z m -6.05275,-1.3983 c -2.9579,-0.65269 -5.93611,-1.21537 -8.91213,-1.77825 v 0 c -1.13526,-0.21466 -1.88152,-1.30906 -1.66687,-2.44441 0.21436,-1.13312 1.30527,-1.87915 2.4389,-1.66785 3.02082,0.56286 6.04432,1.12648 9.0452,1.78867 v 0 c 1.13267,0.24996 1.84828,1.37076 1.59833,2.50352 -0.24996,1.13267 -1.37076,1.84828 -2.50343,1.59832 z m -8.91213,-1.77825 c -4.11824,-0.7789 -8.24615,-1.50615 -12.38109,-2.19086 v 0 c -1.14637,-0.1898 -1.9218,-1.273 -1.732,-2.41936 0.1898,-1.14637 1.273,-1.9218 2.41937,-1.732 0.004,6.2e-4 0.008,10e-4 0.0127,0.002 4.15594,0.71446 8.30743,1.45515 12.45299,2.22775 v 0 c 1.13588,0.21169 1.88517,1.30409 1.67347,2.43987 -0.21169,1.13588 -1.30409,1.88516 -2.43997,1.67348 -0.002,-3.1e-4 -0.004,-6.2e-4 -0.005,-0.002 z m -12.38109,-2.19086 c -4.31178,-0.71388 -8.62816,-1.40001 -12.94855,-2.05954 v 0 c -1.15962,-0.177 -1.95609,-1.26062 -1.77909,-2.42024 0.17701,-1.15951 1.26062,-1.95608 2.42014,-1.77907 4.34222,0.66299 8.67863,1.3655 13.00763,2.1097 v 0 c 1.14512,0.19685 1.91388,1.2848 1.71703,2.42992 -0.19601,1.14022 -1.2758,1.90821 -2.41716,1.71923 z m -12.94855,-2.05954 c -3.39937,-0.51903 -6.79985,-1.03383 -10.20688,-1.4999 v 0 c -1.16121,-0.15887 -1.97379,-1.22902 -1.81492,-2.39023 0.15876,-1.16031 1.22751,-1.97275 2.388,-1.81512 3.43008,0.4656 6.85306,0.9836 10.27485,1.50594 v 0 c 1.15963,0.17709 1.95619,1.26061 1.77909,2.42023 -0.177,1.15962 -1.26052,1.95608 -2.42014,1.77908 0,0 0,0 0,0 z m -10.20688,-1.4999 c -3.33741,-0.45659 -6.683725,-0.84895 -10.030054,-1.23408 v 0 c -1.162258,-0.13376 -1.996,-1.18452 -1.862242,-2.34678 0.133706,-1.16175 1.183675,-1.99542 2.345559,-1.86243 3.376212,0.38673 6.752307,0.78069 10.119817,1.23794 v 0 c 1.16131,0.15766 1.975,1.22689 1.81735,2.3883 -0.15765,1.1613 -1.22698,1.975 -2.38829,1.81735 -7.1e-4,-1.4e-4 -10e-4,-3.1e-4 -0.002,-3.1e-4 z m -10.030054,-1.23408 c -4.308029,-0.49587 -8.625008,-0.91324 -12.947712,-1.25946 v 0 c -1.167698,-0.0936 -2.038548,-1.11612 -1.944989,-2.28391 0.09357,-1.1677 1.116113,-2.03855 2.283811,-1.94498 10e-4,1e-4 0.002,2.1e-4 0.003,2.1e-4 4.369457,0.35627 8.733556,0.78013 13.089173,1.27893 v 0 c 1.162301,0.13316 1.996693,1.18336 1.86355,2.34576 -0.133052,1.16229 -1.183253,1.99668 -2.345654,1.86354 -3.98e-4,4e-5 -8.06e-4,-3e-5 -0.001,-1.1e-4 z m -12.947712,-1.25946 c -4.431326,-0.35514 -8.866694,-0.66167 -13.304842,-0.92114 v 0 c -1.17226,-0.0685 -2.067041,-1.07434 -1.998524,-2.2467 0.06853,-1.17227 1.074444,-2.06706 2.246705,-1.99853 1.09e-4,9e-5 2.08e-4,8e-5 3.08e-4,7e-5 4.46941,0.26184 8.935933,0.57386 13.398209,0.93762 v 0 c 1.16755,0.0952 2.037009,1.11897 1.94173,2.28663 -0.09509,1.16644 -1.116902,2.03551 -2.283586,1.94205 z m -13.304842,-0.92114 c -4.458849,-0.26062 -8.919293,-0.48925 -13.381436,-0.68488 l -1e-4,10e-6 c -1.179922,-0.0518 -2.094495,-1.05025 -2.042763,-2.23016 0.05172,-1.18001 1.050243,-2.0946 2.230156,-2.04286 0.002,2.1e-4 0.005,2.2e-4 0.0081,2.4e-4 4.479407,0.21247 8.958171,0.45001 13.434962,0.71236 v 0 c 1.17227,0.0686 2.06687,1.07466 1.998244,2.24693 -0.06874,1.17218 -1.074572,2.06676 -2.246733,1.99822 z m -13.381536,-0.68487 c -4.348494,-0.1909 -8.699311,-0.33096 -13.051095,-0.41327 v 0 c -1.190101,-0.0224 -2.136558,-1.00539 -2.114007,-2.1954 0.02244,-1.1901 1.005393,-2.13656 2.195404,-2.11401 0.001,10e-6 0.002,10e-6 0.003,2e-5 4.389102,0.0892 8.776578,0.24199 13.161648,0.45002 v 0 c 1.17981,0.056 2.090782,1.05774 2.034813,2.23745 -0.05584,1.17679 -1.052888,2.08681 -2.229886,2.0351 l 10e-6,1e-4 z m -13.051095,-0.41327 c -3.24357,-0.0612 -6.488482,-0.12059 -9.732944,-0.1211 v 0 c -1.192817,-1.9e-4 -2.159579,-0.96736 -2.1594,-2.16028 1.97e-4,-1.19271 0.967356,-2.15957 2.160173,-2.15939 3.272384,4.8e-4 6.545081,0.0648 9.816782,0.13136 v 0 c 1.189971,0.0243 2.134948,1.00856 2.110795,2.19862 -0.02419,1.18866 -1.006609,2.13326 -2.195397,2.11089 z m -9.732844,-0.12111 c -2.912285,-4.9e-4 -5.825005,0.10061 -8.734551,0.21829 v 0 c -1.195067,0.0482 -2.202868,-0.88129 -2.251198,-2.07625 -0.04834,-1.19506 0.881199,-2.20286 2.076257,-2.2512 0.002,-9e-5 0.003,-8e-5 0.004,-1.8e-4 2.966869,-0.11376 5.936425,-0.21079 8.905766,-0.21028 v 0 c 1.192916,1.8e-4 2.159678,0.96735 2.15949,2.16016 -1.87e-4,1.19282 -0.967347,2.15968 -2.160164,2.1595 z m -8.734551,0.21829 c -2.810297,0.11352 -5.620852,0.23068 -8.428601,0.39769 v 0 c -1.197011,0.0712 -2.225003,-0.84134 -2.296228,-2.03835 -0.07122,-1.19691 0.841336,-2.225 2.038348,-2.29623 2.836614,-0.16873 5.676572,-0.28194 8.516048,-0.39068 l -9e-6,-10e-5 c 1.195103,-0.0457 2.200992,0.88589 2.246823,2.08099 0.04576,1.19329 -0.883224,2.19842 -2.076381,2.24668 z m -8.428601,0.39769 c -1.881019,0.11191 -3.760869,0.24681 -5.6377675,0.41398 v 0 C 7.915505,576.35 6.8630879,575.47018 6.7569798,574.27818 c -0.1064606,-1.18936 0.770282,-2.24028 1.9593406,-2.34993 1.9210056,-0.17767 3.8453436,-0.31798 5.7711146,-0.43252 v 0 c 1.196912,-0.0712 2.225013,0.84144 2.296228,2.03835 0.07123,1.19701 -0.841426,2.22511 -2.038348,2.29623 z M 1.1747413,572.69774 c 2.5122154,-0.27025 5.0255096,-0.53758 7.5416487,-0.76953 v 0 c 1.1916659,-0.10969 2.246806,0.76706 2.356607,1.95881 0.109692,1.19167 -0.767153,2.24682 -1.9588092,2.35661 -0.00199,1.9e-4 -0.00398,3.8e-4 -0.00697,6.6e-4 -2.4963462,0.22244 -4.9898542,0.47595 -7.4828901,0.73232 v 0 c -1.18178046,0.12182 -2.23835372,-0.73822 -2.35978005,-1.92013 -0.12143851,-1.1778 0.7325853,-2.2321 1.90989395,-2.35871 z m -7.6399025,1.04972 c 2.5240915,-0.48241 5.0864092,-0.77517 7.6400021,-1.04973 v 0 c 1.1812908,-0.12699 2.2418733,0.72764 2.3688653,1.90893 0.1269827,1.18119 -0.727652,2.24177 -1.9089335,2.36887 -0.00299,2.8e-4 -0.00696,7.6e-4 -0.010145,10e-4 -2.46829359,0.25353 -4.9389672,0.51483 -7.393988,0.8779 v 0 c -1.1382082,0.16832 -2.1972379,-0.61786 -2.3656565,-1.75606 -0.1633257,-1.10453 0.5731186,-2.14137 1.6698558,-2.35097 z m -6.9073508,1.50637 c 2.293478,-0.53964 4.5928137,-1.06408 6.9073508,-1.50637 v 0 c 1.1300858,-0.21597 2.221309,0.52508 2.4371754,1.65517 0.215966,1.13009 -0.525079,2.22131 -1.6551647,2.43728 -0.028589,0.006 -0.057371,0.0104 -0.086248,0.0142 -2.2533328,0.33325 -4.4864295,0.80611 -6.7087145,1.30196 v 0 c -1.079123,0.24078 -2.149074,-0.43889 -2.389842,-1.51792 -0.238745,-1.07037 0.428008,-2.13358 1.495406,-2.3847 z m -8.519012,2.22643 c 2.82149,-0.80977 5.661533,-1.55399 8.519012,-2.22643 v 0 c 1.076235,-0.25326 2.153944,0.41393 2.407206,1.49016 0.253261,1.07624 -0.41382,2.15404 -1.490055,2.4073 -0.0079,0.002 -0.01514,0.003 -0.02271,0.005 -2.795097,0.62365 -5.570492,1.33454 -8.323392,2.12395 v 0 c -1.049435,0.30085 -2.144036,-0.30598 -2.444976,-1.35531 -0.30083,-1.04923 0.305711,-2.14371 1.354919,-2.44483 z m -8.260154,2.76082 c 2.709007,-1.04662 5.468981,-1.95975 8.260154,-2.76082 v 0 c 1.049307,-0.30114 2.144079,0.30537 2.445218,1.35468 0.301147,1.0494 -0.305366,2.14418 -1.354673,2.44531 -1.99e-4,2e-5 -3.98e-4,4e-5 -4.88e-4,1.5e-4 -2.69756,0.77343 -5.374537,1.62005 -8.020281,2.55583 v 0 c -0.998052,0.35304 -2.093292,-0.16996 -2.44628,-1.16795 -0.345852,-0.97788 0.148844,-2.05344 1.11635,-2.4272 z m -7.488238,3.2694 c 2.444812,-1.20244 4.946986,-2.28766 7.488238,-3.2694 v 0 c 0.987508,-0.38148 2.097298,0.10971 2.47882,1.09727 0.381502,0.98747 -0.109765,2.09726 -1.097264,2.47883 -0.01711,0.007 -0.03429,0.0133 -0.05163,0.019 -2.457271,0.86913 -4.875251,1.85177 -7.232485,2.96467 v 0 c -0.912128,0.43059 -2.000628,0.0402 -2.431223,-0.87196 -0.425725,-0.90182 -0.04934,-1.97834 0.84554,-2.41846 z m -6.479308,3.66988 c 2.073738,-1.36733 4.251153,-2.57401 6.479308,-3.66988 v 0 c 0.905112,-0.4452 1.999715,-0.0723 2.444866,0.8328 0.445151,0.9051 0.07228,1.99968 -0.832825,2.44488 -0.0087,0.005 -0.01753,0.009 -0.02636,0.0127 -2.104736,0.99359 -4.162783,2.09617 -6.118026,3.36079 v 0 c -0.825626,0.53401 -1.927829,0.29764 -2.461837,-0.52805 -0.530682,-0.82048 -0.300885,-1.91528 0.514882,-2.45318 z m -4.285014,3.20752 c 0.563992,-0.52915 1.173079,-1.01004 1.792423,-1.47221 0.811434,-0.60559 1.647426,-1.17795 2.492531,-1.7352 v 0 c 0.82087,-0.5413 1.925125,-0.31466 2.466432,0.50621 0.541307,0.82078 0.314683,1.92513 -0.506176,2.46642 -0.0045,0.002 -0.0088,0.006 -0.01326,0.008 -1.357628,0.87813 -2.729032,1.7662 -3.981512,2.79229 v 0 c -0.729508,0.59755 -1.805351,0.49067 -2.40296,-0.2389 -0.569368,-0.69498 -0.502707,-1.71237 0.152493,-2.3272 z m -3.120884,3.50232 c 0.969803,-1.22385 1.980459,-2.43218 3.120884,-3.50232 v 0 c 0.687694,-0.64532 1.768284,-0.61091 2.413583,0.0768 0.645289,0.6877 0.610907,1.76824 -0.07678,2.41356 -0.02791,0.0261 -0.05668,0.0515 -0.08629,0.0757 -1.044654,0.85586 -1.919224,1.92466 -2.738604,2.99085 v 0 c -0.561943,0.73126 -1.61028,0.86848 -2.34152,0.30653 -0.731251,-0.56194 -0.868489,-1.61028 -0.306547,-2.34154 0.005,-0.006 0.01014,-0.013 0.01528,-0.0195 z m -2.537797,3.65097 c 0.700167,-1.30412 1.621241,-2.49433 2.537797,-3.65097 h 1e-5 c 0.572753,-0.72284 1.623017,-0.84448 2.34582,-0.27169 0.715224,0.56678 0.843007,1.60265 0.286967,2.32622 -0.465455,0.60571 -0.919934,1.22064 -1.34463,1.85565 -0.283709,0.4243 -0.5593,0.85807 -0.787741,1.31511 h 10e-6 c -0.422463,0.84544 -1.450222,1.18823 -2.295568,0.76575 -0.845345,-0.42248 -1.188153,-1.45027 -0.765691,-2.2956 0.0074,-0.0149 0.01514,-0.0298 0.02304,-0.0445 z m -1.187835,2.75338 c 0.307563,-0.9528 0.714551,-1.8719 1.187905,-2.75339 l -1e-5,10e-6 c 0.447061,-0.8326 1.484419,-1.14516 2.317016,-0.69817 0.815411,0.43787 1.134898,1.44466 0.721136,2.27259 -0.35873,0.71777 -0.670907,1.46056 -0.908217,2.22762 v 0 c -0.283954,0.91801 -1.258312,1.43194 -2.176274,1.14801 -0.917982,-0.28403 -1.431947,-1.25836 -1.147984,-2.17628 0.002,-0.007 0.0042,-0.0137 0.0064,-0.0204 h -2e-5 z m -0.530034,4.21453 c 0.01752,-0.78574 0.05787,-1.57244 0.151578,-2.35313 0.0754,-0.62839 0.183648,-1.25808 0.378456,-1.8614 h 2e-5 c 0.295218,-0.91446 1.275821,-1.41643 2.19023,-1.12121 0.906462,0.29265 1.409071,1.25992 1.12758,2.16987 -0.122316,0.39537 -0.181469,0.81159 -0.228966,1.22158 -0.07773,0.671 -0.109417,1.34719 -0.124496,2.02221 h 1e-5 c -0.02152,0.96501 -0.821223,1.72981 -1.786178,1.70827 -0.964955,-0.0215 -1.729756,-0.82118 -1.708244,-1.78619 z m 0.887705,6.00439 c -0.572992,-1.94489 -0.933063,-3.97139 -0.887705,-6.00439 h -10e-6 c 0.02152,-0.96491 0.821213,-1.72971 1.786169,-1.70827 0.964955,0.0215 1.729774,0.82127 1.708253,1.78619 0,0 0,0 0,0 -0.03763,1.68694 0.251486,3.37049 0.691304,4.99419 h 2e-5 c 0.247448,0.91356 -0.292546,1.85469 -1.206099,2.10221 -0.899392,0.24356 -1.828626,-0.27605 -2.091952,-1.16993 z m 3.71977,6.57135 c -1.625539,-1.93544 -3.001259,-4.13227 -3.71977,-6.57135 h -3e-5 c -0.267449,-0.90785 0.251742,-1.86067 1.159641,-2.12814 0.907908,-0.26748 1.860727,0.25171 2.128177,1.15957 0.0036,0.0121 0.007,0.0241 0.01026,0.0363 0.541153,1.99812 1.669353,3.79699 2.973291,5.38406 v 0 c 0.581488,0.70779 0.479116,1.75288 -0.228643,2.3344 -0.702352,0.577 -1.738293,0.48121 -2.322909,-0.21483 z m 7.337835,6.69593 c -2.636913,-1.99407 -5.205375,-4.15694 -7.337835,-6.69593 v 0 c -0.589124,-0.70145 -0.498089,-1.74767 0.203342,-2.33673 0.701412,-0.58916 1.747608,-0.49806 2.336722,0.20328 0.0039,0.005 0.0077,0.009 0.01149,0.0139 0.86458,1.05237 1.835622,2.01552 2.851323,2.92111 1.258623,1.12217 2.592614,2.15867 3.962571,3.14064 v 0 c 0.767573,0.55027 0.94377,1.61853 0.393563,2.38605 -0.550207,0.76761 -1.618465,0.94378 -2.386019,0.39361 -0.01187,-0.009 -0.02355,-0.0172 -0.03516,-0.0259 z m 27.432289,13.5644 c -6.076468,-2.67426 -12.141834,-5.38894 -18.096589,-8.32656 -1.993924,-0.98372 -3.979041,-1.99169 -5.916554,-3.08321 -1.171164,-0.65985 -2.34522,-1.34254 -3.419146,-2.15463 v 0 c -0.753269,-0.5696 -0.90214,-1.64205 -0.332527,-2.39533 0.559371,-0.73966 1.606412,-0.89865 2.360138,-0.35842 1.106604,0.79333 2.278381,1.49853 3.446144,2.19678 1.750754,1.0467 3.524851,2.05454 5.305153,3.05013 5.768799,3.22585 11.609392,6.32411 17.459633,9.39926 l 1e-6,10e-6 c 0.453886,0.23864 0.628529,0.80011 0.389815,1.25409 -0.226946,0.43186 -0.749479,0.61441 -1.196067,0.41789 z" /><path
       inkscape:connector-curvature="0"
       id="path1034"
       style="fill:#a42604;fill-opacity:1;fill-rule:nonzero;stroke:none"
       d="m 196.63407,599.36739 c -1.09966,-0.0985 -2.30914,-0.3418 -3.1819,-1.06594 v 0 c -0.18693,-0.15499 -0.21273,-0.43209 -0.0577,-0.61891 0.10657,-0.12851 0.27675,-0.18559 0.43929,-0.14722 0.92083,0.21716 1.89817,0.20117 2.8369,0.15829 v 0 c 0.46287,-0.0212 0.85532,0.33686 0.8765,0.79972 0.0212,0.46296 -0.33696,0.85533 -0.79983,0.8765 -0.0378,0.002 -0.0755,10e-4 -0.11323,-0.002 z m 5.15835,0.2489 c -1.72031,-0.0401 -3.44386,-0.0952 -5.15835,-0.2489 v 0 c -0.46154,-0.0413 -0.80215,-0.44907 -0.76082,-0.91061 0.0375,-0.41799 0.37813,-0.74401 0.79738,-0.76317 1.70934,-0.0782 3.42098,-0.1086 5.13178,-0.13189 v 0 c 0.5674,-0.008 1.03359,0.44596 1.04135,1.01335 0.008,0.56739 -0.44596,1.03369 -1.01336,1.04135 -0.0126,1.9e-4 -0.0253,3.8e-4 -0.038,-4.3e-4 z m 6.50944,0.17758 c -2.16958,-0.0674 -4.33932,-0.12689 -6.50944,-0.17758 v 0 c -0.56736,-0.0132 -1.01648,-0.48394 -1.00323,-1.05121 0.0129,-0.55247 0.46058,-0.99579 1.01322,-1.00336 2.18591,-0.0299 4.37234,-0.018 6.55798,0.0301 v 0 c 0.60806,0.0134 1.09024,0.51724 1.07685,1.12541 -0.0135,0.60817 -0.51734,1.09025 -1.12541,1.07685 -0.003,-1.2e-4 -0.007,-1.4e-4 -0.01,-6e-5 z m 7.03124,0.10512 c -2.34408,-6.9e-4 -4.68828,-0.0324 -7.03124,-0.10512 v 0 c -0.60798,-0.0189 -1.08544,-0.52704 -1.06661,-1.13502 0.0188,-0.60415 0.52091,-1.08024 1.12514,-1.06698 2.32154,0.0512 4.64382,0.0646 6.96585,0.0499 v 0 c 0.6233,-0.004 1.13183,0.49815 1.13574,1.12145 0.004,0.62329 -0.49815,1.13183 -1.12145,1.13574 -0.002,-10e-6 -0.005,7e-5 -0.007,-4e-5 z m 6.08239,-0.15861 c -2.02358,0.13604 -4.05492,0.15931 -6.08249,0.15862 v 0 c -0.62329,-2.2e-4 -1.12842,-0.5056 -1.12822,-1.12899 1.9e-4,-0.62037 0.50107,-1.12427 1.12146,-1.12821 1.979,-0.0126 3.96114,-0.0452 5.93633,-0.17784 v 0 c 0.62862,-0.0422 1.17239,0.43314 1.21456,1.06176 0.0423,0.62861 -0.43303,1.17238 -1.06164,1.21466 z m 5.57135,-0.45561 c -1.8554,0.17146 -3.71217,0.33049 -5.57135,0.45561 v 0 c -0.62851,0.0423 -1.17238,-0.43304 -1.21466,-1.06165 -0.0423,-0.62861 0.43302,-1.17248 1.06164,-1.21476 0,0 1e-4,-10e-6 1e-4,-10e-6 1.84004,-0.1235 3.67763,-0.28153 5.51383,-0.45198 v 0 c 0.6276,-0.0584 1.18364,0.40335 1.24189,1.03095 0.0584,0.62759 -0.40335,1.18354 -1.03095,1.24179 -2e-4,2e-5 -3e-4,3e-5 -5e-4,5e-5 z m 6.86195,-0.6281 c -2.28755,0.20731 -4.57477,0.4169 -6.86195,0.6281 v 0 c -0.62759,0.0584 -1.18338,-0.40377 -1.24134,-1.0315 -0.0583,-0.6274 0.4035,-1.18305 1.0309,-1.24129 2.26468,-0.21017 4.52169,-0.50027 6.76976,-0.84347 v 0 c 0.68461,-0.10443 1.32422,0.36574 1.42875,1.05034 0.10441,0.68451 -0.36575,1.32412 -1.05035,1.42864 -0.0251,0.004 -0.0505,0.007 -0.0758,0.009 z m 0,0 v 0 c -0.68971,0.0622 -1.29944,-0.44563 -1.36205,-1.1353 -0.0604,-0.66004 0.40423,-1.25282 1.05952,-1.35287 2.57772,-0.39336 5.1348,-0.91665 7.67102,-1.52044 v 0 c 0.79737,-0.18982 1.59759,0.30262 1.78731,1.1 0.18982,0.79727 -0.30262,1.59749 -1.09999,1.78731 -0.0266,0.007 -0.0535,0.0121 -0.0805,0.0167 -2.64182,0.47597 -5.30152,0.86171 -7.97534,1.10445 z m 7.36849,-4.00861 c 2.95509,-0.70347 5.89385,-1.4745 8.82026,-2.28897 v 0 c 0.89786,-0.24985 1.82826,0.27548 2.07811,1.17334 0.24985,0.89787 -0.27538,1.82826 -1.17324,2.07811 -0.0187,0.006 -0.0377,0.0106 -0.0567,0.0144 -3.00223,0.7243 -6.02198,1.37924 -9.06161,1.92698 v 0 c -0.80661,0.1453 -1.5783,-0.39072 -1.7236,-1.19733 -0.13971,-0.77519 0.35052,-1.52447 1.11675,-1.70683 z m 8.82026,-2.28897 c 3.27836,-0.91233 6.53963,-1.88644 9.78585,-2.90713 v 0 c 0.98033,-0.30827 2.02496,0.23649 2.33314,1.21682 0.30827,0.98033 -0.23649,2.02497 -1.21683,2.33314 -0.0194,0.006 -0.039,0.0117 -0.0586,0.0174 -3.31678,0.92451 -6.64809,1.79846 -9.99534,2.60592 v 0 c -0.90604,0.21858 -1.81766,-0.33866 -2.03623,-1.2446 -0.21317,-0.88386 0.31209,-1.77779 1.18803,-2.02155 z m 9.78585,-2.90713 c 3.44363,-1.08295 6.86108,-2.24831 10.25206,-3.4865 v 0 c 1.05424,-0.38498 2.22102,0.15767 2.60599,1.21191 0.38499,1.05433 -0.15756,2.2211 -1.2119,2.60609 -0.0191,0.007 -0.0384,0.0137 -0.0577,0.0201 -3.48415,1.15479 -6.99498,2.23024 -10.5308,3.21574 v 0 c -0.98991,0.27593 -2.01608,-0.30292 -2.29191,-1.29284 -0.26954,-0.96692 0.27661,-1.97341 1.23422,-2.27452 z m 10.25206,-3.4865 c 3.60362,-1.31586 7.18809,-2.68324 10.75655,-4.09139 v 0 c 1.09799,-0.43321 2.33935,0.1057 2.77256,1.20369 0.43331,1.09798 -0.10561,2.33923 -1.20359,2.77254 -0.005,0.001 -0.01,0.004 -0.0142,0.005 -3.62687,1.40132 -7.28423,2.72447 -10.97494,3.94782 v 0 c -1.06539,0.35308 -2.21536,-0.22431 -2.56845,-1.28969 -0.34563,-1.04289 0.20002,-2.17158 1.23202,-2.54843 z m 10.75656,-4.09129 c 3.74102,-1.47631 7.45322,-3.02472 11.1363,-4.63989 v 0 c 1.10595,-0.48498 2.39558,0.0184 2.88055,1.12427 0.48499,1.10595 -0.0183,2.39557 -1.12426,2.88056 -0.006,0.003 -0.0122,0.005 -0.0183,0.008 -3.74588,1.60222 -7.51921,3.14045 -11.31954,4.6088 l -10e-6,-10e-5 c -1.10113,0.42547 -2.3385,-0.12225 -2.76396,-1.22329 -0.42323,-1.09551 0.11679,-2.32723 1.20916,-2.7583 z m 11.1363,-4.63989 c 3.61847,-1.58675 7.22346,-3.20448 10.81116,-4.85964 v 0 c 1.1105,-0.51224 2.426,-0.0273 2.93834,1.08314 0.51222,1.11041 0.0273,2.42601 -1.08316,2.93824 0,0 0,0 0,0 -3.61906,1.66969 -7.2638,3.28354 -10.92829,4.85104 v 0 c -1.11022,0.47485 -2.39532,-0.0401 -2.87017,-1.15046 -0.47186,-1.10307 0.0333,-2.38041 1.13212,-2.86232 z m 10.81116,-4.85964 c 3.58173,-1.65229 7.15027,-3.33367 10.70724,-5.03856 v 0 c 1.09658,-0.52569 2.41171,-0.0628 2.9374,1.03382 0.52409,1.09351 0.0655,2.40501 -1.02584,2.93362 -3.57227,1.73004 -7.15937,3.42975 -10.76362,5.0925 v 0 c -1.11039,0.51233 -2.4259,0.0273 -2.93823,-1.08305 -0.51234,-1.11049 -0.0274,-2.426 1.08305,-2.93833 z m 10.70724,-5.03856 c 1.78756,-0.85692 3.56632,-1.73249 5.33447,-2.62896 0.89121,-0.45182 1.77971,-0.90901 2.66528,-1.37175 0.86441,-0.4517 1.73431,-1.03329 2.64406,-1.38371 v 0 c 1.12838,-0.43468 2.39556,0.12771 2.83035,1.25618 0.39649,1.02944 -0.0347,2.19312 -1.00638,2.71553 -3.47863,1.87055 -7.00153,3.6585 -10.55622,5.38015 v 0 c -1.09455,0.53002 -2.41149,0.0725 -2.94159,-1.02197 -0.53012,-1.09454 -0.0726,-2.41158 1.02196,-2.94159 0.003,-10e-4 0.006,-0.003 0.008,-0.004 z m 10.3939,-5.26968 c 3.14982,-1.6937 6.27469,-3.43447 9.36444,-5.23549 v 0 c 1.04081,-0.6066 2.37618,-0.25467 2.98286,0.78603 0.60526,1.03832 0.25645,2.37058 -0.77985,2.97916 -3.12916,1.8378 -6.29749,3.60869 -9.49357,5.32727 v 0 c -1.06501,0.57272 -2.39269,0.17356 -2.96542,-0.89155 -0.57273,-1.065 -0.17356,-2.39268 0.89154,-2.96542 0,0 0,0 0,0 z m 9.36444,-5.23549 c 2.99656,-1.74661 5.97526,-3.52378 8.93674,-5.32894 l 1e-5,10e-5 c 0.99416,-0.606 2.29145,-0.29136 2.89745,0.7028 0.59554,0.97707 0.30288,2.25088 -0.65929,2.87013 -2.95309,1.9003 -5.94379,3.74278 -8.9719,5.5211 v 0 c -1.03867,0.61011 -2.37533,0.26253 -2.98534,-0.77615 -0.61002,-1.03878 -0.26253,-2.37534 0.77625,-2.98535 0.002,-10e-4 0.004,-0.002 0.006,-0.004 z m 8.93674,-5.32894 c 2.79719,-1.70496 5.58353,-3.42807 8.35227,-5.17894 v 0 c 0.94114,-0.59516 2.18659,-0.31469 2.78175,0.62656 0.59019,0.93317 0.3199,2.1674 -0.6062,2.76868 -2.75936,1.79157 -5.52309,3.57633 -8.28965,5.35673 v 0 c -0.97912,0.63009 -2.28366,0.34707 -2.91374,-0.63196 -0.63009,-0.97912 -0.34707,-2.28366 0.63195,-2.91374 0.0145,-0.009 0.029,-0.0183 0.0436,-0.0272 z m 8.35227,-5.17894 c 2.56772,-1.62379 5.11051,-3.287 7.62749,-4.98845 v 0 c 0.90359,-0.6109 2.13139,-0.37355 2.7423,0.53014 0.60832,0.89982 0.37586,2.12194 -0.52033,2.73565 -2.53689,1.73729 -5.095,3.44353 -7.67391,5.1179 v 0 c -0.93394,0.60643 -2.1826,0.34082 -2.78903,-0.59313 -0.60634,-0.93396 -0.34084,-2.18271 0.59322,-2.78905 0.007,-0.005 0.0135,-0.008 0.0203,-0.0131 z m 7.62749,-4.98845 c 2.51413,-1.69968 5.00698,-3.43109 7.4768,-5.19458 v 0 c 0.84955,-0.60669 2.03005,-0.40967 2.63664,0.43989 0.59326,0.83083 0.41955,1.98271 -0.39249,2.60162 -2.45295,1.86967 -4.95416,3.6762 -7.49898,5.41886 v 0 c -0.89997,0.61628 -2.12918,0.38639 -2.74547,-0.51368 -0.61637,-0.89996 -0.38639,-2.12917 0.51358,-2.74545 0.004,-0.002 0.007,-0.005 0.01,-0.007 z m 7.47689,-5.19469 c 2.4242,-1.73085 4.82231,-3.4986 7.19083,-5.30514 v 0 c 0.80178,-0.61151 1.94749,-0.45731 2.5591,0.34447 0.61152,0.80188 0.45732,1.94759 -0.34447,2.5591 -0.002,10e-4 -0.003,0.002 -0.005,0.003 -2.38819,1.81001 -4.77374,3.62338 -7.15699,5.43985 v 0 c -0.83021,0.63279 -2.01625,0.47275 -2.64903,-0.35746 -0.63279,-0.8303 -0.47276,-2.01634 0.35745,-2.64912 0.0156,-0.0119 0.0314,-0.0236 0.0475,-0.035 z m 7.19083,-5.30514 c 2.27147,-1.73238 4.54583,-3.4608 6.82397,-5.18437 v 0 c 0.80708,-0.6107 1.95648,-0.45142 2.5671,0.35577 0.61061,0.80709 0.45142,1.95639 -0.35577,2.5671 0,0 0,0 0,0 -2.27589,1.72175 -4.55078,3.4446 -6.82507,5.1684 v 0 c -0.80372,0.60908 -1.94896,0.45142 -2.55803,-0.35221 -0.60781,-0.80193 -0.4523,-1.94445 0.3478,-2.55469 z m 6.82397,-5.18437 c 2.18946,-1.65641 4.35687,-3.34208 6.50197,-5.05547 v 0 c 0.7701,-0.61514 1.89322,-0.48953 2.50837,0.28067 0.60523,0.75767 0.49463,1.85999 -0.24896,2.48247 -2.14032,1.79158 -4.32413,3.53113 -6.55005,5.2152 v 0 c -0.80709,0.61061 -1.95649,0.45133 -2.5671,-0.35576 -0.61062,-0.80719 -0.45133,-1.9565 0.35577,-2.56711 z m 6.50197,-5.05547 c 2.97749,-2.37832 5.91028,-4.81298 8.83791,-7.25228 l -10e-6,-10e-5 c 0.73081,-0.60891 1.81684,-0.51003 2.42576,0.22078 0.60721,0.72866 0.51091,1.81124 -0.21537,2.42134 -2.92811,2.45963 -5.85647,4.91878 -8.78888,7.3734 v 0 c -0.75579,0.63267 -1.88139,0.53281 -2.51416,-0.22297 -0.63269,-0.75588 -0.53283,-1.88149 0.22306,-2.51417 0.0104,-0.009 0.0211,-0.0175 0.0317,-0.026 z m 8.83791,-7.25228 c 2.71505,-2.26229 5.43217,-4.52277 8.11973,-6.81772 v 0 c 0.70075,-0.59854 1.75415,-0.51556 2.3526,0.1853 0.58861,0.68924 0.51947,1.72224 -0.15571,2.3268 -2.65077,2.37374 -5.38211,4.65917 -8.10624,6.94764 v 0 c -0.72833,0.61179 -1.81484,0.51738 -2.42664,-0.21095 -0.61191,-0.72842 -0.51738,-1.81485 0.21095,-2.42665 0.002,-10e-4 0.004,-0.003 0.006,-0.005 v 9e-5 z m 8.11973,-6.81772 c 1.60534,-1.37095 3.18072,-2.77733 4.71711,-4.22533 l -1e-4,1e-5 c 0.65406,-0.61642 1.68391,-0.58596 2.30032,0.068 0.61565,0.65333 0.58606,1.68179 -0.0662,2.29854 -1.56428,1.47906 -3.15056,2.93479 -4.75427,4.37087 v 0 c -0.68655,0.61488 -1.74162,0.55666 -2.3564,-0.1299 -0.61487,-0.68656 -0.55665,-1.74152 0.1299,-2.3564 0.01,-0.009 0.0196,-0.0173 0.0296,-0.0258 z m 4.71711,-4.22533 c 1.41574,-1.33443 2.81828,-2.68308 4.20173,-4.05102 v 0 c 0.63849,-0.63133 1.66791,-0.62553 2.29923,0.013 0.63133,0.6385 0.62553,1.66792 -0.013,2.29924 -2.8e-4,2.3e-4 -5.5e-4,5.5e-4 -8.3e-4,7.8e-4 -1.40208,1.38437 -2.82152,2.75089 -4.25312,4.1046 v 0 c -0.65306,0.61744 -1.68296,0.58858 -2.30039,-0.0645 -0.61743,-0.65297 -0.58867,-1.68285 0.0644,-2.30029 6.4e-4,-6.6e-4 9e-4,-0.001 0.002,-0.002 z m 4.20173,-4.05102 c 1.24291,-1.22889 2.47504,-2.46871 3.69235,-3.72301 v 0 c 0.62714,-0.64622 1.65957,-0.6617 2.30579,-0.0346 0.64623,0.62724 0.6617,1.65957 0.0346,2.30579 -9e-4,10e-4 -0.002,0.002 -0.004,0.003 -1.2358,1.26578 -2.48501,2.51837 -3.74378,3.76121 v 0 c -0.63894,0.63087 -1.66832,0.62436 -2.2992,-0.0147 -0.63053,-0.63856 -0.62436,-1.66731 0.0138,-2.2983 z m 3.69235,-3.72301 c 1.35644,-1.39752 2.70361,-2.80382 4.04746,-4.21341 v 0 c 0.62422,-0.65479 1.66098,-0.67962 2.31577,-0.0554 0.65488,0.62421 0.67961,1.66099 0.0554,2.31577 -7.2e-4,8.7e-4 -0.002,0.002 -0.003,0.002 -1.35386,1.41416 -2.71169,2.82457 -4.07938,4.22527 v 0 c -0.62912,0.6444 -1.66144,0.65676 -2.30584,0.0276 -0.64297,-0.62785 -0.65688,-1.65751 -0.031,-2.30241 z m 4.04746,-4.21341 c 1.52687,-1.60169 3.41555,-2.98356 5.5565,-3.62249 v 0 c 0.23836,-0.0712 0.48913,0.0643 0.56019,0.3027 0.0313,0.10472 0.0236,0.21725 -0.0222,0.3166 -0.90039,1.96069 -2.23974,3.71409 -3.72571,5.2661 v 0 c -0.62564,0.65351 -1.66253,0.67604 -2.31593,0.0505 -0.65253,-0.62474 -0.67607,-1.65962 -0.0529,-2.3134 z" /></g></svg>