<?xml version="1.0" encoding="UTF-8" standalone="no"?>
<!-- Created with Inkscape (http://www.inkscape.org/) -->

<svg
   xmlns:dc="http://purl.org/dc/elements/1.1/"
   xmlns:cc="http://creativecommons.org/ns#"
   xmlns:rdf="http://www.w3.org/1999/02/22-rdf-syntax-ns#"
   xmlns:svg="http://www.w3.org/2000/svg"
   xmlns="http://www.w3.org/2000/svg"
   xmlns:sodipodi="http://sodipodi.sourceforge.net/DTD/sodipodi-0.dtd"
   xmlns:inkscape="http://www.inkscape.org/namespaces/inkscape"
   version="1.1"
   id="svg2"
   xml:space="preserve"
   width="15.471"
   height="604.2215"
   viewBox="0 0 15.471 604.22149"
   sodipodi:docname="separator.svg"
   inkscape:version="0.92.3 (2405546, 2018-03-11)"><metadata
     id="metadata8"><rdf:RDF><cc:Work
         rdf:about=""><dc:format>image/svg+xml</dc:format><dc:type
           rdf:resource="http://purl.org/dc/dcmitype/StillImage" /><dc:title></dc:title></cc:Work></rdf:RDF></metadata><defs
     id="defs6" /><sodipodi:namedview
     pagecolor="#ffffff"
     bordercolor="#666666"
     borderopacity="1"
     objecttolerance="10"
     gridtolerance="10"
     guidetolerance="10"
     inkscape:pageopacity="0"
     inkscape:pageshadow="2"
     inkscape:window-width="1920"
     inkscape:window-height="1172"
     id="namedview4"
     showgrid="false"
     fit-margin-top="0"
     fit-margin-left="0"
     fit-margin-right="0"
     fit-margin-bottom="0"
     inkscape:zoom="0.59451835"
     inkscape:cx="-248.88384"
     inkscape:cy="340.14206"
     inkscape:window-x="1920"
     inkscape:window-y="0"
     inkscape:window-maximized="1"
     inkscape:current-layer="g10" /><g
     id="g10"
     inkscape:groupmode="layer"
     inkscape:label="drawings (1)"
     transform="matrix(1.3333333,0,0,-1.3333333,-814.40283,730.79715)"><g
       id="g12" /><path
       inkscape:connector-curvature="0"
       id="path36"
       style="fill:#000000;fill-opacity:1;fill-rule:nonzero;stroke:none"
       d="m 616.9494,543.6458 c 0.0101,0.1877 0.0286,0.3755 0.0699,0.5591 l 0.003,-0.003 c 0.9461,0.7474 1.107,2.1202 0.3596,3.0662 -0.5279,0.6682 -1.3962,0.9684 -2.2241,0.769 -0.8382,-0.2018 -1.5645,-0.7102 -2.0984,-1.3801 -0.4998,-0.627 -0.8319,-1.3719 -1.0647,-2.1347 v 0 c -0.4086,-1.3389 0.3455,-2.7555 1.6843,-3.1641 1.3389,-0.4086 2.7555,0.3455 3.1641,1.6843 0.0598,0.1962 0.0957,0.3988 0.1067,0.6036 z M 616.86,540.373 c -0.002,1.0914 0.0307,2.1829 0.0894,3.2727 v 0 c 0.0753,1.3978 -0.9967,2.592 -2.3945,2.6673 -1.1638,0.0627 -2.2204,-0.6763 -2.5606,-1.791 -0.3773,-1.2359 -0.6627,-2.501 -0.8303,-3.7827 v 0 c -0.2048,-1.5663 0.8988,-3.002 2.4651,-3.2068 1.5663,-0.2048 3.002,0.8989 3.2068,2.4651 0.0163,0.1245 0.0243,0.2499 0.0241,0.3754 z m 0.0737,-6.6252 c -0.0314,2.2081 -0.0703,4.4167 -0.0737,6.6251 v 0 c -0.002,1.5796 -1.2849,2.8581 -2.8645,2.8557 -1.4345,-0.002 -2.6455,-1.0668 -2.8315,-2.4892 -0.118,-0.902 -0.1632,-1.8143 -0.2054,-2.7223 -0.0657,-1.4175 -0.1005,-2.8365 -0.1273,-4.2552 v 0 c -0.0318,-1.685 1.3084,-3.0769 2.9935,-3.1087 1.6851,-0.0318 3.0769,1.3084 3.1087,2.9935 6e-4,0.0337 7e-4,0.0674 2e-4,0.1011 z m -5.9404,-8.6698 v 0 c 0.1281,-1.7392 1.6418,-3.0451 3.381,-2.917 1.7391,0.1281 3.0451,1.6418 2.917,3.3809 -10e-4,0.0142 -0.002,0.0283 -0.003,0.0424 -0.2367,2.7135 -0.3154,5.4409 -0.3542,8.1635 v 0 c -0.024,1.6851 -1.4095,3.0318 -3.0947,3.0078 -1.6459,-0.0234 -2.9766,-1.3479 -3.0077,-2.9937 -0.0546,-2.8935 -0.0508,-5.7962 0.162,-8.6839 z m 0,0 c 0.1195,-1.6227 0.2769,-3.2427 0.4368,-4.8617 0.251,-2.5429 0.5206,-5.0838 0.7954,-7.6242 v 0 c 0.1889,-1.7463 1.7577,-3.0087 3.5039,-2.8198 1.7463,0.1889 3.0088,1.7576 2.8199,3.5039 -0.4435,4.0995 -0.9032,8.1999 -1.2615,12.3081 h 1e-4 c -0.1516,1.7373 -1.6827,3.0228 -3.42,2.8712 -1.7207,-0.15 -3.0015,-1.6549 -2.8746,-3.3775 z m 1.2322,-12.4859 c 0.534,-4.9359 1.0814,-9.8709 1.6935,-14.7978 v 0 c 0.2021,-1.6267 1.6846,-2.7815 3.3113,-2.5795 1.543,0.1917 2.6765,1.5418 2.5983,3.0947 -0.2518,5.0007 -0.7409,9.9898 -1.2793,14.9667 v 0 c -0.1889,1.7462 -1.7577,3.0087 -3.5039,2.8198 -1.7463,-0.1889 -3.0088,-1.7577 -2.8199,-3.5039 0,0 0,0 0,0 z m 1.6935,-14.7978 c 0.4965,-3.9971 0.9355,-8.0014 1.3312,-12.0097 v 0 c 0.1377,-1.3951 1.3803,-2.4144 2.7754,-2.2767 1.3281,0.1311 2.3279,1.2684 2.2878,2.6023 -0.1224,4.0679 -0.2802,8.1347 -0.4848,12.1992 v 0 c -0.0824,1.6371 -1.4763,2.8975 -3.1135,2.8151 -1.6371,-0.0824 -2.8974,-1.4764 -2.815,-3.1135 0.004,-0.0724 0.01,-0.1447 0.0189,-0.2167 z m 1.3312,-12.0097 c 0.4372,-4.4286 0.8554,-8.8591 1.2596,-13.2909 v 0 c 0.1001,-1.0977 1.0711,-1.9064 2.1689,-1.8063 1.0264,0.0936 1.8127,0.9534 1.8145,1.984 0.008,4.4802 -0.0452,8.9607 -0.1799,13.4388 h 10e-5 c -0.0422,1.4013 -1.2123,2.503 -2.6135,2.4609 -1.4012,-0.0422 -2.503,-1.2123 -2.4608,-2.6135 0.002,-0.0578 0.005,-0.1155 0.0111,-0.173 z m 1.2596,-13.2908 c 0.4392,-4.8168 0.7475,-9.6451 0.9526,-14.4773 v 0 c 0.0373,-0.8796 0.7806,-1.5623 1.6602,-1.525 0.867,0.0368 1.5453,0.7604 1.526,1.628 -0.1076,4.8498 -0.1641,9.7009 -0.1554,14.5519 v 0 c 0.002,1.1023 -0.89,1.9975 -1.9922,1.9994 -1.1023,0.002 -1.9975,-0.8899 -1.9994,-1.9922 -1e-4,-0.0617 0.003,-0.1234 0.008,-0.1848 z m 0.9526,-14.4773 c 0.2214,-5.2188 0.4139,-10.4389 0.5827,-15.6596 v 0 c 0.0249,-0.7705 0.6697,-1.3748 1.4401,-1.3499 0.7541,0.0243 1.3523,0.6436 1.3506,1.3981 -0.012,5.2386 -0.071,10.4771 -0.1871,15.7144 h -10e-5 c -0.0195,0.8801 -0.7488,1.5778 -1.629,1.5583 -0.8801,-0.0196 -1.5778,-0.7489 -1.5583,-1.629 3e-4,-0.0108 6e-4,-0.0215 10e-4,-0.0323 z m 0.5827,-15.6596 c 0.1835,-5.6764 0.3179,-11.3544 0.4159,-17.0329 v 0 c 0.0114,-0.6609 0.5565,-1.1875 1.2175,-1.1761 0.6529,0.0113 1.1764,0.5438 1.1763,1.1969 -4e-4,5.6868 -0.006,11.3736 -0.019,17.0603 v 0 c -0.002,0.7708 -0.6281,1.3943 -1.3989,1.3925 -0.7708,-0.002 -1.3943,-0.628 -1.3925,-1.3988 0,-0.014 3e-4,-0.028 7e-4,-0.0419 z m 0.4159,-17.0329 c 0.1043,-6.04 0.1883,-12.0804 0.2535,-18.121 v 0 c 0.007,-0.616 0.5114,-1.11 1.1274,-1.1034 0.6156,0.007 1.1094,0.5108 1.1034,1.1264 -0.0593,6.0394 -0.0902,12.0791 -0.0905,18.1188 v 0 c 0,0.661 -0.536,1.1969 -1.197,1.1969 -0.6611,0 -1.197,-0.536 -1.197,-1.1971 0,-0.007 1e-4,-0.0137 2e-4,-0.0206 z m 0.2535,-18.121 c 0.0671,-6.2181 0.1439,-12.4361 0.2297,-18.654 h 10e-5 c 0.008,-0.6135 0.5127,-1.104 1.1262,-1.0956 0.6136,0.009 1.1041,0.5127 1.0956,1.1263 0,0 0,0 0,0 -0.0857,6.2153 -0.1598,12.4307 -0.2208,18.6463 v 0 c -0.006,0.616 -0.5104,1.1105 -1.1264,1.1044 -0.616,-0.006 -1.1105,-0.5103 -1.1044,-1.1263 0,-4e-4 0,-8e-4 0,-10e-4 z m 0.2297,-18.654 c 0.0879,-6.3627 0.1661,-12.7255 0.2355,-19.0884 v 0 c 0.007,-0.614 0.5099,-1.1064 1.1239,-1.0997 0.614,0.007 1.1064,0.5099 1.0997,1.1239 0,10e-5 0,10e-5 0,2e-4 -0.0704,6.365 -0.1493,12.7299 -0.2372,19.0947 v 0 c -0.008,0.6135 -0.5127,1.104 -1.1262,1.0956 -0.6136,-0.008 -1.1041,-0.5127 -1.0956,-1.1263 z m 0.2355,-19.0884 c 0.0706,-6.4791 0.1279,-12.9582 0.173,-19.4375 v 0 c 0.004,-0.6145 0.5059,-1.1092 1.1204,-1.105 0.6145,0.004 1.1092,0.5059 1.1049,1.1204 -0.045,6.4823 -0.103,12.9645 -0.1747,19.4465 v 0 c -0.007,0.614 -0.5101,1.1063 -1.1241,1.0995 -0.614,-0.007 -1.1062,-0.51 -1.0995,-1.1239 z m 0.173,-19.4375 c 0.0462,-6.6534 0.1021,-13.3067 0.1669,-19.9599 v 0 c 0.006,-0.6149 0.5093,-1.1085 1.1242,-1.1026 0.615,0.006 1.1086,0.5094 1.1026,1.1243 0,0 0,10e-5 0,10e-5 -0.0657,6.6511 -0.1221,13.3023 -0.1684,19.9536 v 0 c -0.004,0.6145 -0.5059,1.1092 -1.1204,1.1049 -0.6145,-0.004 -1.1092,-0.5059 -1.1049,-1.1204 0,0 0,0 0,0 z m 0.1669,-19.9599 c 0.098,-10.0706 0.1019,-20.1422 0.1049,-30.2132 v 0 c 2e-4,-0.6178 0.5012,-1.1186 1.1191,-1.1184 0.6179,2e-4 1.1186,0.5012 1.1184,1.1191 0,2e-4 0,4e-4 0,5e-4 -0.008,10.0779 -0.0158,20.1564 -0.1156,30.2339 v 0 c -0.006,0.6149 -0.5095,1.1084 -1.1244,1.1023 -0.6149,-0.006 -1.1084,-0.5093 -1.1024,-1.1242 z m 2.2389,-60.1973 c 0.1206,9.9942 0.1112,19.9905 0.1035,29.9853 v 0 c -4e-4,0.6179 -0.5017,1.1184 -1.1196,1.1179 -0.6177,-4e-4 -1.1181,-0.5014 -1.1179,-1.1191 0.003,-9.9852 0.008,-19.9719 -0.1173,-29.9565 v 0 c -0.008,-0.6217 0.4899,-1.1319 1.1116,-1.1397 0.6217,-0.008 1.1319,0.4899 1.1397,1.1116 0,10e-5 0,3e-4 0,5e-4 z m -0.3076,-19.6475 c 0.1267,6.5487 0.2288,13.098 0.3076,19.6475 v 0 c 0.007,0.6217 -0.4904,1.1317 -1.1121,1.1392 -0.6214,0.007 -1.1314,-0.4901 -1.1392,-1.1116 -0.0819,-6.5439 -0.1876,-13.0877 -0.3175,-19.6308 v 0 c -0.0123,-0.6244 0.4838,-1.1407 1.1082,-1.153 0.6244,-0.0124 1.1406,0.4837 1.153,1.1081 0,2e-4 0,4e-4 0,6e-4 z m -0.4482,-19.1999 c 0.1762,6.3992 0.3246,12.7994 0.4482,19.1999 v 0 c 0.0121,0.6244 -0.4843,1.1404 -1.1087,1.1524 -0.6242,0.0121 -1.1401,-0.4839 -1.1525,-1.1081 -0.1269,-6.3942 -0.2787,-12.7882 -0.4581,-19.1811 v 0 c -0.0175,-0.6271 0.4766,-1.1498 1.1037,-1.1674 0.6271,-0.0176 1.1498,0.4765 1.1674,1.1037 0,2e-4 0,4e-4 0,6e-4 z m -0.5845,-18.7075 c 0.2184,6.2351 0.413,12.471 0.5845,18.7075 v 0 c 0.0172,0.6271 -0.4772,1.1495 -1.1043,1.1668 -0.6269,0.0172 -1.1492,-0.4768 -1.1668,-1.1037 -0.1748,-6.2308 -0.3719,-12.461 -0.5925,-18.6903 v 0 c -0.0223,-0.6294 0.4698,-1.1576 1.0992,-1.1799 0.6293,-0.0223 1.1576,0.4698 1.1799,1.0992 0,1e-4 0,3e-4 0,4e-4 z m -0.6849,-18.2419 c 0.2441,6.08 0.4719,12.1606 0.6849,18.2419 v 0 c 0.022,0.6294 -0.4703,1.1574 -1.0997,1.1795 -0.6291,0.022 -1.1571,-0.47 -1.1794,-1.0992 -0.2152,-6.0772 -0.4458,-12.1538 -0.6927,-18.2298 v 0 c -0.0257,-0.6315 0.4654,-1.1643 1.0969,-1.1899 0.6315,-0.0257 1.1643,0.4654 1.1899,1.0969 10e-5,2e-4 10e-5,4e-4 10e-5,6e-4 z m -0.636,-17.0083 c 0.1948,5.6701 0.4084,11.3394 0.636,17.0083 v 0 c 0.0253,0.6315 -0.4661,1.164 -1.0976,1.1893 -0.6313,0.0254 -1.1636,-0.4657 -1.1893,-1.0969 -0.2306,-5.6731 -0.448,-11.3468 -0.6462,-17.0211 v 0 c -0.0221,-0.6343 0.4741,-1.1665 1.1084,-1.1887 0.6344,-0.0221 1.1665,0.4741 1.1887,1.1084 0,3e-4 0,5e-4 0,7e-4 z m -0.5715,-22.8767 c 0.1518,7.6262 0.3099,15.2534 0.5715,22.8767 v 0 c 0.0218,0.6344 -0.4748,1.1663 -1.1091,1.188 -0.6341,0.0218 -1.1658,-0.4744 -1.188,-1.1084 -0.2668,-7.6305 -0.5052,-15.262 -0.742,-22.8934 v 0 c -0.0212,-0.6814 0.514,-1.2508 1.1953,-1.272 0.6814,-0.0211 1.2509,0.5141 1.272,1.1954 1e-4,0.005 3e-4,0.009 3e-4,0.0137 z m -0.0785,-20.6657 c -0.0993,2.6911 -0.0984,5.3863 -0.0884,8.0788 0.0157,4.196 0.0834,8.3918 0.1669,12.5869 v 0 c 0.0136,0.6815 -0.5279,1.245 -1.2094,1.2586 -0.6762,0.0135 -1.2373,-0.5198 -1.2582,-1.1957 -0.1303,-4.1984 -0.2665,-8.3966 -0.4224,-12.5941 -0.1005,-2.7038 -0.2045,-5.4079 -0.3463,-8.11 v 0 c -0.0457,-0.8717 0.6238,-1.6154 1.4955,-1.6611 0.8717,-0.0458 1.6154,0.6238 1.6611,1.4955 0.003,0.047 0.003,0.094 10e-4,0.1411 h 10e-5 z m 0.4623,-11.0016 c -0.1758,3.6663 -0.3271,7.3336 -0.4623,11.0015 h -1e-4 c -0.0321,0.8723 -0.7653,1.5534 -1.6376,1.5212 -0.8177,-0.0301 -1.4772,-0.6794 -1.5201,-1.4966 -0.1927,-3.6738 -0.3816,-7.3479 -0.5645,-11.0223 v 0 c -0.0575,-1.1554 0.8326,-2.1388 1.9881,-2.1963 1.1555,-0.0575 2.1388,0.8326 2.1963,1.9881 0.003,0.0681 0.004,0.1363 2e-4,0.2044 z m 0.9034,-8.5657 c -0.5218,2.8247 -0.7659,5.6991 -0.9034,8.5657 v 0 c -0.0554,1.1556 -1.0371,2.0475 -2.1927,1.9921 -1.0766,-0.0516 -1.9383,-0.9118 -1.9919,-1.9883 -0.1473,-2.9593 -0.3152,-5.9181 -0.5368,-8.8729 v 0 c -0.1173,-1.5641 1.0556,-2.9272 2.6197,-3.0445 1.5641,-0.1172 2.9271,1.0556 3.0444,2.6197 0.0182,0.2434 0.005,0.4882 -0.0393,0.7282 z m -5.8639,-7.2925 v 0 c 0.0388,-2.0042 1.6949,-3.5975 3.6991,-3.5588 2.0041,0.0388 3.5974,1.6949 3.5587,3.6991 -0.005,0.2483 -0.0351,0.4955 -0.0904,0.7376 -0.4856,2.1272 -0.9072,4.2691 -1.3035,6.4146 v 0 c -0.2849,1.5424 -1.7662,2.5618 -3.3086,2.2769 -1.2685,-0.2343 -2.2198,-1.294 -2.3162,-2.5804 -0.1743,-2.3243 -0.2842,-4.6577 -0.2391,-6.989 z m 0,0 c 0.0358,-1.8502 0.1599,-3.7104 0.5095,-5.5303 v 0 c 0.4104,-2.13663 2.4752,-3.53605 4.6118,-3.12567 2.1367,0.41039 3.5361,2.47517 3.1257,4.61187 -0.004,0.019 -0.007,0.038 -0.0114,0.057 -0.3371,1.6257 -0.6987,3.2463 -1.0682,4.865 v 0 c -0.4461,1.9543 -2.392,3.1769 -4.3463,2.7308 -1.6765,-0.3827 -2.8543,-1.8894 -2.8211,-3.6087 z m 0.5095,-5.5301 c 0.5185,-2.70054 2.6151,-4.84973 5.0194,-6.03176 l 1e-4,1e-5 c 0.7955,-0.39112 1.7575,-0.06325 2.1486,0.73231 0.0397,0.08078 0.0726,0.16476 0.0982,0.25105 0.6272,2.11094 0.9109,4.41649 0.4598,6.59129 h 10e-5 c -0.4419,2.1304 -2.527,3.4992 -4.6574,3.0574 -2.1082,-0.4372 -3.4749,-2.4859 -3.0689,-4.6003 z" /><g
       transform="matrix(0.7723302,0,0,-0.5454546,150.6161,459.9754)"
       id="g38" /><g
       transform="matrix(0.5636364,0,0,-4.705306,609.9162,549.869)"
       id="g40" /></g></svg>