<?xml version="1.0" encoding="UTF-8" standalone="no"?>
<!-- Created with Inkscape (http://www.inkscape.org/) -->

<svg
   xmlns:dc="http://purl.org/dc/elements/1.1/"
   xmlns:cc="http://creativecommons.org/ns#"
   xmlns:rdf="http://www.w3.org/1999/02/22-rdf-syntax-ns#"
   xmlns:svg="http://www.w3.org/2000/svg"
   xmlns="http://www.w3.org/2000/svg"
   xmlns:sodipodi="http://sodipodi.sourceforge.net/DTD/sodipodi-0.dtd"
   xmlns:inkscape="http://www.inkscape.org/namespaces/inkscape"
   version="1.1"
   id="svg2098"
   xml:space="preserve"
   width="340.4256"
   height="137.62816"
   viewBox="0 0 340.4256 137.62816"
   sodipodi:docname="sq_black_arrow.svg"
   inkscape:version="0.92.3 (2405546, 2018-03-11)"><metadata
     id="metadata2104"><rdf:RDF><cc:Work
         rdf:about=""><dc:format>image/svg+xml</dc:format><dc:type
           rdf:resource="http://purl.org/dc/dcmitype/StillImage" /><dc:title></dc:title></cc:Work></rdf:RDF></metadata><defs
     id="defs2102" /><sodipodi:namedview
     pagecolor="#ffffff"
     bordercolor="#666666"
     borderopacity="1"
     objecttolerance="10"
     gridtolerance="10"
     guidetolerance="10"
     inkscape:pageopacity="0"
     inkscape:pageshadow="2"
     inkscape:window-width="1920"
     inkscape:window-height="1025"
     id="namedview2100"
     showgrid="false"
     inkscape:zoom="0.84096496"
     inkscape:cx="266.31734"
     inkscape:cy="228.32612"
     inkscape:window-x="0"
     inkscape:window-y="27"
     inkscape:window-maximized="1"
     inkscape:current-layer="g2110"
     fit-margin-top="0"
     fit-margin-left="0"
     fit-margin-right="0"
     fit-margin-bottom="0" /><g
     id="g2106"
     inkscape:groupmode="layer"
     inkscape:label="canvas (1)"
     transform="matrix(1.3333333,0,0,-1.3333333,-267.37976,658.61272)"><g
       id="g6585"><g
         id="g6683"
         transform="rotate(-90,335.43778,406.63977)"><g
           id="g2108" /><g
           id="g2110"><g
             id="g2242"
             transform="matrix(0.5454546,0,0,-0.5454546,0,841.89)" /><g
             id="g2244"
             transform="matrix(0.5454546,0,0,-0.5454546,0,841.89)" /><g
             id="g2246"
             transform="matrix(0.5454546,0,0,-0.5454546,0,841.89)" /><g
             id="g2248"
             transform="matrix(0.5454546,0,0,-0.5454546,0,841.89)" /><g
             id="g2250"
             transform="matrix(0.5454546,0,0,-0.5454546,0,841.89)" /><g
             id="g2252"
             transform="matrix(0.5454546,0,0,-0.5454546,0,841.89)" /><g
             id="g2254"
             transform="matrix(0.5454546,0,0,-0.5454546,0,841.89)" /><g
             id="g2256"
             transform="matrix(0.5454546,0,0,-0.5454546,0,841.89)" /><g
             id="g2258"
             transform="matrix(0.5454546,0,0,-0.5454546,0,841.89)" /><g
             id="g2260"
             transform="matrix(0.5454546,0,0,-0.5454546,0,841.89)" /><path
             d="m 251.28843,271.7501 c 0.2252,0.0387 0.4337,0.1485 0.6268,0.2663 0.2446,0.1493 0.475,0.3216 0.7001,0.4984 v 0 c 0.1909,0.15 0.2242,0.4263 0.0742,0.6173 -0.1279,0.1628 -0.3521,0.2143 -0.5383,0.1236 -0.2187,-0.1066 -0.4418,-0.2095 -0.6737,-0.2842 -0.063,-0.0203 -0.1273,-0.0392 -0.1928,-0.0496 -0.007,-10e-4 -0.0564,-0.002 -0.0289,-0.005 v 0 c -0.3234,0.0371 -0.6156,-0.195 -0.6527,-0.5184 -0.0371,-0.3235 0.195,-0.6157 0.5184,-0.6528 0.0555,-0.006 0.1117,-0.005 0.1669,0.005 v -10e-5 z m -1.4692,0.9484 c 0.329,-0.4647 0.827,-1.0586 1.4692,-0.9483 v 0 c 0.3208,0.055 0.5363,0.3598 0.4812,0.6806 -0.0363,0.2115 -0.1847,0.3865 -0.3874,0.457 -0.1114,0.1524 -0.1829,0.3367 -0.2499,0.5122 v 0 c -0.148,0.387 -0.5817,0.5807 -0.9687,0.4328 -0.387,-0.148 -0.5808,-0.5817 -0.4329,-0.9687 0.0225,-0.0587 0.0522,-0.1143 0.0885,-0.1656 z m -1.0044,1.9042 c 0.26,-0.6703 0.5885,-1.3167 1.0044,-1.9042 v 0 c 0.2394,-0.3381 0.7076,-0.4182 1.0458,-0.1788 0.2796,0.198 0.3896,0.5602 0.2673,0.8803 -0.2081,0.544 -0.338,1.1158 -0.4157,1.6922 v 0 c -0.0729,0.5412 -0.5707,0.9208 -1.1119,0.8479 -0.5412,-0.073 -0.9208,-0.5708 -0.8479,-1.112 0.0104,-0.0771 0.0299,-0.1528 0.058,-0.2254 z m -0.6227,3.3084 c 0.0951,-1.1069 0.218,-2.2646 0.6227,-3.3084 v 0 c 0.1975,-0.5091 0.7702,-0.7618 1.2794,-0.5644 0.4261,0.1652 0.6835,0.601 0.6224,1.0539 -0.1269,0.9417 -0.074,1.9154 -0.0244,2.8605 v 0 c 0.0362,0.6912 -0.4947,1.2809 -1.1859,1.3172 -0.6912,0.0362 -1.2809,-0.4947 -1.3171,-1.1859 -0.003,-0.0576 -0.002,-0.1154 0.003,-0.1729 z m 0,0 v 0 c 0.0592,-0.6896 0.6663,-1.2006 1.3558,-1.1414 0.6232,0.0536 1.1115,0.5584 1.1443,1.183 0.103,1.9635 0.2838,3.9237 0.466,5.881 v 0 c 0.0738,0.7924 -0.5087,1.4946 -1.3011,1.5684 -0.7924,0.0737 -1.4945,-0.5088 -1.5683,-1.3012 -10e-4,-0.0114 -0.002,-0.0229 -0.003,-0.0344 -0.0808,-1.1714 -0.1432,-2.3447 -0.162,-3.519 -0.014,-0.8787 -0.007,-1.7604 0.0681,-2.6364 z m 2.9661,5.9227 c 0.1741,1.8694 0.3477,3.7388 0.5263,5.6079 v 0 c 0.0785,0.8213 -0.5237,1.5508 -1.3451,1.6292 -0.8214,0.0785 -1.5508,-0.5237 -1.6293,-1.3451 -3e-4,-0.003 -7e-4,-0.007 -0.001,-0.0106 -0.1662,-1.8807 -0.2931,-3.7651 -0.4231,-5.6487 v 0 c -0.0548,-0.7939 0.5444,-1.4819 1.3383,-1.5367 0.7805,-0.0538 1.4614,0.525 1.5339,1.304 z m 0.5263,5.6079 c 0.1081,1.1311 0.2401,2.2598 0.3942,3.3855 v 0 c 0.1125,0.8216 -0.4624,1.5789 -1.284,1.6914 -0.8216,0.1124 -1.5788,-0.4624 -1.6913,-1.284 -1e-4,-8.3e-4 -2e-4,-0.002 -3e-4,-0.002 -0.1581,-1.1691 -0.2901,-2.3418 -0.394,-3.517 v 0 c -0.0726,-0.8219 0.5348,-1.547 1.3567,-1.6196 0.8178,-0.0723 1.5406,0.5288 1.6187,1.3461 z m 0.3942,3.3855 c 0.1579,1.1531 0.3662,2.299 0.6163,3.4356 v 0 c 0.1795,0.8155 -0.3362,1.6221 -1.1517,1.8015 -0.8155,0.1795 -1.6221,-0.3361 -1.8016,-1.1517 -10e-4,-0.005 -0.002,-0.01 -0.003,-0.0144 -0.2548,-1.214 -0.4692,-2.4366 -0.6355,-3.666 v 0 c -0.1112,-0.8218 0.4649,-1.5781 1.2867,-1.6892 0.8208,-0.1111 1.5765,0.4636 1.6889,1.2842 z m 0.6163,3.4356 c 0.2629,1.1947 0.5724,2.3791 0.9229,3.5511 v 0 c 0.2407,0.8049 -0.2166,1.6524 -1.0214,1.8931 -0.8048,0.2406 -1.6524,-0.2167 -1.893,-1.0215 0,0 0,0 0,0 -0.3734,-1.2484 -0.6972,-2.5119 -0.9649,-3.7873 v 0 c -0.1715,-0.8172 0.352,-1.6187 1.1692,-1.7902 0.8117,-0.1704 1.609,0.3448 1.7872,1.1548 z m 0.9229,3.5511 c 0.3595,1.202 0.7622,2.3909 1.2059,3.5644 v 0 c 0.2967,0.7849 -0.099,1.6617 -0.8839,1.9584 -0.784,0.2964 -1.6598,-0.098 -1.9575,-0.8814 -0.4715,-1.2407 -0.8987,-2.4982 -1.2789,-3.7698 v 0 c -0.2407,-0.8048 0.2166,-1.6523 1.0214,-1.893 0.8048,-0.2407 1.6523,0.2166 1.893,1.0214 z m 1.2059,3.5644 c 0.4492,1.1883 0.9447,2.3591 1.4827,3.5099 v 0 c 0.3571,0.7637 0.0274,1.6722 -0.7363,2.0293 -0.7637,0.357 -1.6722,0.0273 -2.0292,-0.7364 -0.002,-0.004 -0.004,-0.008 -0.006,-0.0123 -0.5576,-1.2206 -1.0762,-2.4591 -1.553,-3.7135 v 0 c -0.298,-0.7844 0.0962,-1.6619 0.8806,-1.96 0.7844,-0.298 1.6619,0.0962 1.9599,0.8806 4e-4,8.2e-4 7e-4,0.002 0.001,0.002 z m 1.4827,3.5099 c 0.5382,1.1512 1.1279,2.2782 1.7676,3.3763 v 0 c 0.4365,0.7493 0.1829,1.7105 -0.5664,2.147 -0.7493,0.4364 -1.7105,0.1828 -2.1469,-0.5664 -0.009,-0.016 -0.0184,-0.0322 -0.0271,-0.0485 -0.6379,-1.1897 -1.2376,-2.3998 -1.7984,-3.6277 v -1e-4 c -0.3503,-0.7668 -0.0125,-1.6723 0.7543,-2.0226 0.762,-0.348 1.6621,-0.0169 2.0169,0.742 z m 1.7676,3.3763 c 0.6409,1.1003 1.3244,2.1758 2.0484,3.2233 v 0 c 0.5131,0.7424 0.3272,1.7602 -0.4152,2.2733 -0.7424,0.5131 -1.7602,0.3272 -2.2733,-0.4152 -0.009,-0.0132 -0.0181,-0.0266 -0.0268,-0.0401 -0.7394,-1.1403 -1.4314,-2.3114 -2.0735,-3.5092 v 0 c -0.4097,-0.7642 -0.1223,-1.7158 0.6419,-2.1256 0.7452,-0.3995 1.6729,-0.1371 2.0985,0.5935 z m 2.0484,3.2233 c 0.7247,1.0486 1.4923,2.0675 2.2994,3.054 v 0 c 0.5927,0.7244 0.486,1.7921 -0.2384,2.3848 -0.7244,0.5926 -1.7921,0.4859 -2.3848,-0.2385 -0.0113,-0.0138 -0.0224,-0.0279 -0.0333,-0.0421 -0.8294,-1.082 -1.6166,-2.1963 -2.3583,-3.3402 h 1e-4 c -0.491,-0.7572 -0.2752,-1.7691 0.4821,-2.26 0.7415,-0.4808 1.7308,-0.2849 2.2332,0.442 z m 2.2994,3.054 c 0.8108,0.9909 1.6742,1.9386 2.5821,2.8414 v 0 c 0.6877,0.6837 0.6909,1.7955 0.007,2.4832 -0.6838,0.6877 -1.7956,0.6909 -2.4833,0.007 -0.0121,-0.012 -0.0241,-0.0243 -0.0359,-0.0367 -0.9632,-1.0155 -1.875,-2.0799 -2.7265,-3.1908 v 0 c -0.5695,-0.7428 -0.4289,-1.8066 0.3139,-2.376 0.7262,-0.5567 1.7632,-0.4364 2.3426,0.2718 z m 2.5821,2.8414 c 0.9258,0.9205 1.9031,1.7887 2.923,2.6036 v 0 c 0.7811,0.624 0.9085,1.763 0.2845,2.5441 -0.624,0.7811 -1.7631,0.9085 -2.5442,0.2845 -0.0111,-0.009 -0.0221,-0.0179 -0.033,-0.027 -1.1019,-0.9236 -2.1528,-1.9084 -3.1424,-2.9516 v 0 c -0.6674,-0.7036 -0.6381,-1.815 0.0655,-2.4824 0.6891,-0.6537 1.7731,-0.6409 2.4466,0.0288 z m 2.923,2.6036 c 1.0354,0.8271 2.1181,1.5946 3.2396,2.3004 v 0 c 0.865,0.5443 1.125,1.6867 0.5807,2.5516 -0.5443,0.865 -1.6867,1.125 -2.5516,0.5807 -0.008,-0.005 -0.0156,-0.01 -0.0233,-0.0149 -1.2304,-0.8001 -2.4132,-1.6734 -3.538,-2.6162 v 0 c -0.7662,-0.6422 -0.8668,-1.7839 -0.2246,-2.5501 0.6316,-0.7535 1.7491,-0.8652 2.5172,-0.2515 z m 3.2397,2.3004 c 1.1298,0.711 2.2957,1.3646 3.4923,1.9565 v 0 c 0.9352,0.4625 1.3183,1.5956 0.8558,2.5308 -0.4626,0.9351 -1.5957,1.3183 -2.5308,0.8557 -0.0124,-0.006 -0.0247,-0.0123 -0.0369,-0.0187 -1.2925,-0.675 -2.5524,-1.412 -3.7747,-2.2069 v 0 c -0.8568,-0.5572 -1.0996,-1.7033 -0.5425,-2.5601 0.5513,-0.8476 1.6809,-1.0958 2.5368,-0.5573 z m 3.4923,1.9565 c 1.2159,0.6014 2.4657,1.1335 3.7386,1.6024 v 0 c 0.9909,0.365 1.4983,1.4641 1.1333,2.455 -0.365,0.9909 -1.4641,1.4983 -2.455,1.1334 -1.4127,-0.5204 -2.7942,-1.1261 -4.1288,-1.823 v 0 c -0.9249,-0.4829 -1.2831,-1.6241 -0.8002,-2.549 0.4755,-0.9105 1.5914,-1.2742 2.5121,-0.8188 z m 3.7386,1.6024 c 1.32,0.4862 2.6768,0.8701 4.0519,1.1655 v 0 c 1.0363,0.2227 1.6959,1.2432 1.4732,2.2795 -0.2226,1.0363 -1.2432,1.6959 -2.2795,1.4733 -0.004,-8.3e-4 -0.008,-0.002 -0.0116,-0.002 -1.5454,-0.3421 -3.0702,-0.7803 -4.5557,-1.3275 v 0 c -0.9909,-0.3649 -1.4983,-1.4641 -1.1333,-2.455 0.3649,-0.9909 1.4641,-1.4983 2.455,-1.1333 z m 4.0519,1.1655 c 1.4779,0.3176 2.9783,0.5264 4.4849,0.6466 v 0 c 1.0605,0.0846 1.8516,1.013 1.767,2.0735 -0.0846,1.0605 -1.013,1.8516 -2.0735,1.767 -1.6793,-0.134 -3.3511,-0.3727 -4.9963,-0.7369 v 1e-4 c -1.0349,-0.2291 -1.6882,-1.2538 -1.4591,-2.2887 0.2281,-1.0303 1.2452,-1.6832 2.277,-1.4616 z m 4.4849,0.6466 c 1.665,0.1328 3.3351,0.1989 5.0053,0.2114 v 0 c 1.0637,0.008 1.9196,0.8768 1.9116,1.9405 -0.008,1.0636 -0.8765,1.9193 -1.9401,1.9116 -1.7629,-0.0129 -3.5258,-0.0827 -5.2833,-0.223 v 0 c -1.0606,-0.0846 -1.8517,-1.013 -1.7671,-2.0735 0.0847,-1.0605 1.013,-1.8517 2.0736,-1.767 z m 5.0053,0.2114 c 1.786,0.0134 3.571,-0.1496 5.3339,-0.4297 v 0 c 1.0676,-0.1696 2.0705,0.5584 2.2401,1.6259 0.1696,1.0676 -0.5584,2.0705 -1.6259,2.2401 -0.0134,0.002 -0.0269,0.004 -0.0403,0.006 -1.9662,0.2705 -3.9509,0.4242 -5.9363,0.4098 v 0 c -1.0637,-0.008 -1.9197,-0.8764 -1.912,-1.9401 0.008,-1.0637 0.8764,-1.9197 1.9401,-1.912 1e-4,0 3e-4,0 4e-4,0 z m 5.3339,-0.4297 c 1.9856,-0.3154 3.9549,-0.7304 5.903,-1.2269 v 0 c 1.0859,-0.2768 2.1905,0.3792 2.4672,1.4651 0.2768,1.0858 -0.3792,2.1904 -1.4651,2.4672 -0.0165,0.004 -0.033,0.008 -0.0497,0.012 -2.0761,0.4737 -4.1717,0.8643 -6.2815,1.1546 v 0 c -1.0709,0.1473 -2.0584,-0.6014 -2.2057,-1.6722 -0.1452,-1.0552 0.58,-2.0327 1.6318,-2.1998 z m 5.903,-1.2269 c 2.1109,-0.538 4.2056,-1.1391 6.2845,-1.7896 v 0 c 1.1045,-0.3457 2.2802,0.2696 2.6258,1.3742 0.3457,1.1045 -0.2695,2.2802 -1.3741,2.6258 -0.0102,0.003 -0.0204,0.006 -0.0307,0.009 -2.166,0.6416 -4.3505,1.2219 -6.5531,1.7245 v 0 c -1.0925,0.2493 -2.1802,-0.4343 -2.4295,-1.5268 -0.2448,-1.0731 0.4105,-2.1457 1.4771,-2.4175 z m 6.2845,-1.7896 c 2.1219,-0.664 4.2338,-1.3604 6.3329,-2.0935 v 0 c 1.1225,-0.3921 2.3503,0.2001 2.7423,1.3226 0.3921,1.1225 -0.2001,2.3503 -1.3226,2.7423 -0.0127,0.005 -0.0254,0.009 -0.0382,0.013 -2.1542,0.7073 -4.3194,1.3809 -6.4933,2.0249 v 10e-5 c -1.1098,0.3287 -2.2759,-0.3044 -2.6046,-1.4141 -0.3253,-1.0978 0.2908,-2.2534 1.3835,-2.5953 z m 6.3329,-2.0935 c 2.9172,-1.0189 5.8106,-2.1065 8.7013,-3.1977 v 0 c 1.17161,-0.4423 2.4798,0.1489 2.92211,1.3205 0.44229,1.1716 -0.14891,2.4798 -1.32051,2.9221 -0.0196,0.007 -0.0393,0.0145 -0.0592,0.0214 -2.9482,1.0205 -5.898,2.0382 -8.8622,3.0116 v 0 c -1.1297,0.3709 -2.3462,-0.2442 -2.7171,-1.3738 -0.366,-1.1147 0.2279,-2.3173 1.3356,-2.7041 z m 8.7013,-3.1977 c 3.1569,-1.1918 6.31361,-2.3847 9.46841,-3.582 v 0 c 1.2591,-0.4778 2.66709,0.1555 3.1449,1.4145 0.47779,1.2591 -0.15551,2.6671 -1.41461,3.1449 -0.0323,0.0123 -0.065,0.0239 -0.0978,0.0348 -3.1945,1.059 -6.37819,2.151 -9.55849,3.2518 v 0 c -1.18331,0.4096 -2.4747,-0.2177 -2.88431,-1.4011 -0.4016,-1.1602 0.1932,-2.4293 1.3419,-2.8629 z m 9.46841,-3.582 c 1.9608,-0.7441 3.92169,-1.4881 5.8839,-2.2287 v 0 c 1.3515,-0.5101 2.86069,0.172 3.37089,1.5235 0.5101,1.3516 -0.172,2.8608 -1.5236,3.3709 -0.067,0.0253 -0.1351,0.0479 -0.204,0.0676 -1.98079,0.5668 -3.93949,1.2127 -5.8947,1.8609 v 0 c -1.2783,0.4237 -2.658,-0.269 -3.08179,-1.5473 -0.411,-1.2399 0.22809,-2.5835 1.4493,-3.0469 z m 5.8839,-2.2287 c 0.8976,-0.3388 1.79869,-0.6719 2.6865,-1.036 h 9e-5 c 1.4248,-0.5843 3.0536,0.097 3.6379,1.5219 0.5843,1.4248 -0.097,3.0536 -1.5219,3.6379 -0.1853,0.076 -0.3782,0.1318 -0.5755,0.1665 -0.2975,0.0523 -0.5914,0.1299 -0.8838,0.2051 -0.5691,0.1462 -1.1351,0.3049 -1.7,0.4666 v 0 c -1.38889,0.3974 -2.83699,-0.4063 -3.2344,-1.7952 -0.3746,-1.3088 0.3174,-2.6861 1.59111,-3.1668 z m 2.68659,-1.036 c 0.6022,-0.247 1.2642,-0.347 1.9065,-0.1984 v 0 c 0.558,0.1291 1.0602,0.433 1.4334,0.8675 0.8488,0.9884 0.8602,2.4609 0.0982,3.4928 -0.4549,0.616 -1.1456,1.0323 -1.8976,1.1644 v 0 c -1.5167,0.2665 -2.9624,-0.747 -3.2289,-2.2638 -0.2268,-1.2908 0.4759,-2.5653 1.6884,-3.0625 z"
             style="fill:#000000;fill-opacity:1;fill-rule:nonzero;stroke:none;stroke-width:0.99999994"
             id="path2170"
             inkscape:connector-curvature="0" /><path
             d="m 330.37073,305.262 v 0 c 0,-0.6306 0.5112,-1.1418 1.1418,-1.1418 0.6307,0 1.1419,0.5112 1.1419,1.1418 v 0 c 0,0.6307 -0.5112,1.1419 -1.1419,1.1419 -0.6306,0 -1.1418,-0.5112 -1.1418,-1.1419 0,0 0,0 0,0 z m 0.11391,-0.6275 c 0.2661,-0.5 0.7971,-0.7632 1.33579,-0.8489 0.3596,-0.0572 0.72791,-0.0461 1.0886,-0.005 0.7848,0.0897 1.5531,0.3149 2.2987,0.5686 v 0 c 1.09481,0.3725 1.68041,1.5621 1.30781,2.657 -0.37251,1.0948 -1.5621,1.6804 -2.65691,1.3078 -0.11389,-0.0387 -0.2242,-0.0872 -0.3298,-0.1449 -0.65529,-0.3581 -1.3083,-0.7295 -1.9197,-1.1597 -0.5015,-0.353 -1.0691,-0.7856 -1.23519,-1.4073 v 0 c -0.0868,-0.3249 -0.0472,-0.6707 0.1107,-0.9677 z m 4.72309,-0.2852 c 1.76321,0.6 3.521,1.2159 5.2713,1.8525 v 0 c 1.257,0.4571 1.9053,1.8466 1.44821,3.1036 -0.4572,1.2569 -1.84671,1.9053 -3.10361,1.4481 -0.0447,-0.0162 -0.0888,-0.0338 -0.1324,-0.0526 -1.76019,-0.7601 -3.4802,-1.6123 -5.1624,-2.5317 v 0 c -1.0148,-0.5547 -1.3878,-1.827 -0.83319,-2.8418 0.48829,-0.8933 1.5483,-1.3061 2.51209,-0.9781 z m 5.2713,1.8525 c 1.2125,0.4409 2.4309,0.877 3.6189,1.3815 v 0 c 1.2772,0.5424 1.8729,2.0175 1.3305,3.2948 -0.5424,1.2772 -2.0175,1.8729 -3.2947,1.3305 -0.0183,-0.008 -0.0366,-0.0157 -0.0547,-0.0239 -1.1229,-0.5087 -2.25611,-0.9951 -3.3878,-1.4838 v 0 c -1.2279,-0.5302 -1.7934,-1.9555 -1.26321,-3.1834 0.50831,-1.1771 1.84611,-1.754 3.051,-1.3157 z m 3.6189,1.3815 c 0.6638,0.2819 1.3212,0.5801 1.9646,0.9063 v -10e-5 c 1.2607,0.6392 1.7646,2.1794 1.1254,3.4402 -0.6391,1.2608 -2.1794,1.7647 -3.4401,1.1255 -0.0576,-0.0292 -0.114,-0.0605 -0.1691,-0.0939 -0.4817,-0.2919 -0.9869,-0.5444 -1.49969,-0.7766 v -1e-4 c -1.26401,-0.5725 -1.82451,-2.0614 -1.2519,-3.3254 0.56299,-1.2428 2.01489,-1.8092 3.27079,-1.2759 z m 1.9646,0.9063 c 0.5902,0.2992 1.1666,0.6267 1.7209,0.9885 v 0 c 1.2095,0.7894 1.5501,2.4098 0.7607,3.6194 -0.7894,1.2095 -2.4099,1.5501 -3.6194,0.7607 -0.0395,-0.0258 -0.0783,-0.0527 -0.1164,-0.0806 -0.397,-0.2909 -0.8088,-0.5613 -1.2297,-0.8163 v 0 c -1.2088,-0.7326 -1.59499,-2.3065 -0.8624,-3.5154 0.6938,-1.1448 2.1524,-1.5616 3.3463,-0.9563 z m 1.7208,0.9885 c 0.5103,0.333 1.0043,0.6936 1.4608,1.0978 v 0 c 1.099,0.9732 1.2009,2.653 0.2277,3.752 -0.9732,1.0989 -2.653,1.2009 -3.752,0.2277 -0.0434,-0.0385 -0.0855,-0.0783 -0.1263,-0.1195 -0.2404,-0.2427 -0.5099,-0.4568 -0.7851,-0.6584 v 0 c -1.1651,-0.8537 -1.4176,-2.4902 -0.5639,-3.6552 0.8211,-1.1208 2.3753,-1.4038 3.5388,-0.6445 z m 1.4608,1.0978 c 0.492,0.4357 0.9272,0.9362 1.2749,1.4945 v 0 c 0.7954,1.2773 0.4048,2.9576 -0.8725,3.753 -1.2773,0.7955 -2.9576,0.4049 -3.753,-0.8724 -0.0771,-0.1238 -0.1441,-0.2535 -0.2004,-0.388 -0.0202,-0.0481 -0.0638,-0.0907 -0.0996,-0.1269 v 0 c -1.033,-1.043 -1.0248,-2.7259 0.0181,-3.7588 0.9951,-0.9855 2.5841,-1.0298 3.6325,-0.1014 z m 1.2749,1.4945 c 0.4445,0.7138 0.6915,1.5337 0.7813,2.3665 v 0 c 0.1655,1.5337 -0.9437,2.9112 -2.4774,3.0767 -1.5338,0.1655 -2.9113,-0.9437 -3.0767,-2.4775 -0.006,-0.0587 -0.0109,-0.1176 -0.0135,-0.1766 -0.004,-0.0911 -0.006,-0.2154 -0.0396,-0.2965 v 0 c -0.5812,-1.3879 0.0729,-2.9842 1.4608,-3.5654 1.233,-0.5163 2.6584,-0.0619 3.3651,1.0728 z m -4.8925,3.7249 c 0.0647,-0.3049 0.1201,-0.6227 0.1063,-0.9357 v 0 c -0.068,-1.5412 1.1262,-2.8456 2.6674,-2.9136 1.4724,-0.0649 2.742,1.0254 2.9001,2.4908 0.0902,0.8355 0.0161,1.6819 -0.15,2.5032 v 0 c -0.3088,1.5269 -1.7969,2.5144 -3.3237,2.2056 -1.5269,-0.3087 -2.5144,-1.7968 -2.2056,-3.3236 0.002,-0.009 0.004,-0.0178 0.006,-0.0267 z m -1.1996,2.4017 c 0.3281,-0.572 0.6489,-1.1503 0.9294,-1.7474 0.0811,-0.1728 0.1596,-0.3473 0.226,-0.5263 0.008,-0.0224 0.0483,-0.1474 0.0442,-0.128 v 0 c 0.3235,-1.5238 1.821,-2.4969 3.3448,-2.1734 1.5134,0.3212 2.4856,1.8016 2.179,3.3181 -0.132,0.6528 -0.3843,1.2781 -0.6589,1.8824 -0.3365,0.7402 -0.7187,1.4595 -1.1136,2.17 v 0 c -0.7628,1.3723 -2.4937,1.8664 -3.866,1.1036 -1.3723,-0.7628 -1.8664,-2.4936 -1.1036,-3.8659 0.006,-0.0111 0.0124,-0.0221 0.0187,-0.0331 z m -2.0196,3.4388 c 0.6953,-1.1329 1.3584,-2.2858 2.0196,-3.4388 v 0 c 0.7811,-1.362 2.5184,-1.8329 3.8803,-1.0518 1.3492,0.7736 1.8262,2.4879 1.0706,3.8472 -0.6702,1.2057 -1.3423,2.4109 -2.0399,3.6011 v 0 c -0.803,1.3698 -2.5643,1.8293 -3.9342,1.0264 -1.3698,-0.803 -1.82929,-2.5643 -1.0264,-3.9341 0.01,-0.0168 0.0199,-0.0335 0.03,-0.05 z m -2.3333,4.1053 c 0.75581,-1.3796 1.5102,-2.7642 2.3333,-4.1053 v 0 c 0.8306,-1.3533 2.6009,-1.777 3.9541,-0.9465 1.3339,0.8187 1.7679,2.554 0.9765,3.9042 -0.7533,1.285 -1.4538,2.6018 -2.157,3.9145 v 0 c -0.7575,1.4139 -2.5176,1.9459 -3.9315,1.1885 -1.41379,-0.7575 -1.9459,-2.5176 -1.1884,-3.9314 0.004,-0.008 0.009,-0.016 0.013,-0.024 z m -2.17429,3.9269 c 0.73819,-1.3014 1.45539,-2.6147 2.17429,-3.9269 v 0 c 0.7706,-1.4066 2.53571,-1.9222 3.9423,-1.1515 1.3974,0.7655 1.917,2.514 1.1646,3.9185 -0.4451,0.8307 -0.8994,1.6569 -1.3781,2.4689 -0.3536,0.5996 -0.7187,1.1952 -1.12679,1.7595 v 0 c -0.9201,1.2722 -2.6973,1.5576 -3.96951,0.6375 -1.1741,-0.8492 -1.5216,-2.4456 -0.80679,-3.706 z m 0,0 v 0 c 0.7746,-1.3657 2.50959,-1.8448 3.87529,-1.0703 1.3657,0.7746 1.8449,2.5096 1.0703,3.8753 -0.0516,0.0909 -0.1081,0.1789 -0.16929,0.2636 -0.3234,0.447 -0.73931,0.8289 -1.22681,1.0904 -0.8575,0.46 -1.9186,0.5132 -2.7811,0.0245 v -10e-5 c -0.50559,-0.2864 -0.899,-0.7359 -1.1162,-1.2749 -0.39019,-0.9687 -0.14929,-2.0319 0.34781,-2.9085 z"
             style="fill:#000000;fill-opacity:1;fill-rule:nonzero;stroke:none;stroke-width:0.99999994"
             id="path2172"
             inkscape:connector-curvature="0" /><path
             d="m 281.08183,365.5843 c 0.006,0.38949 0.2011,0.72849 0.5101,0.95979 v 1.1e-4 c 0.1943,0.1455 0.2339,0.421 0.0884,0.6153 -0.1455,0.1944 -0.421,0.23389 -0.6154,0.0884 -0.4974,-0.37239 -0.885,-0.8652 -1.1081,-1.44679 v 0 c -0.1151,-0.3 0.0348,-0.6365 0.3349,-0.75161 0.3,-0.11509 0.6365,0.0349 0.7516,0.33491 0.0244,0.0638 0.0375,0.1315 0.0385,0.1999 z m -1.2909,-1.39131 v 0 c 0.1516,-0.4287 0.622,-0.65329 1.0507,-0.50169 0.4287,0.15159 0.6533,0.62199 0.5017,1.05069 -0.0352,0.0993 -0.089,0.19091 -0.1587,0.26991 -0.1432,0.1625 -0.0257,0.0107 -0.0377,0.0361 -0.012,0.0253 -0.0196,0.0529 -0.0264,0.08 -0.0368,0.148 -0.0409,0.30471 -0.0387,0.4563 v 0 c 0.005,0.3213 -0.252,0.58551 -0.5733,0.5902 -0.244,0.004 -0.4643,-0.1455 -0.5517,-0.37339 -0.1926,-0.5022 -0.3527,-1.07991 -0.1659,-1.60811 z m 0,-9e-5 c 0.2114,-0.5976 0.7924,-0.99801 1.3189,-1.299 v 9e-5 c 0.4915,-0.28099 1.1177,-0.11029 1.3987,0.38121 0.281,0.49149 0.1103,1.1178 -0.3812,1.39869 -0.0676,0.0387 -0.1394,0.0695 -0.214,0.0919 -0.2032,0.061 -0.4064,0.12679 -0.6008,0.2124 -0.065,0.0286 -0.1488,0.0609 -0.201,0.1069 v 0 c -0.3411,0.3006 -0.8613,0.2679 -1.162,-0.0732 -0.1975,-0.22401 -0.2581,-0.5374 -0.1586,-0.819 z m 1.3189,-1.299 c 0.5861,-0.3349 1.2261,-0.5893 1.8975,-0.68211 v 0 c 0.6409,-0.0885 1.2322,0.35921 1.3207,1.00001 0.0886,0.6409 -0.3591,1.2322 -1,1.3207 -0.0468,0.007 -0.0941,0.0102 -0.1414,0.0109 -0.4321,0.007 -0.8607,0.0985 -1.2733,0.22241 v 0 c -0.5422,0.16279 -1.1138,-0.14481 -1.2766,-0.68711 -0.1372,-0.4569 0.0589,-0.9481 0.4731,-1.1848 z m 1.8975,-0.68211 c 0.5623,-0.0777 1.132,-0.0987 1.6988,-0.0702 v 0 c 0.6721,0.0338 1.1896,0.606 1.1557,1.27811 -0.0338,0.6721 -0.606,1.1895 -1.2781,1.1557 -0.004,-2.1e-4 -0.007,-4e-4 -0.011,-6e-4 -0.4614,-0.0274 -0.9239,-0.0389 -1.386,-0.0314 v 0 c -0.6469,0.0105 -1.1798,-0.50539 -1.1903,-1.15219 -0.01,-0.59211 0.4243,-1.0983 1.0109,-1.17941 z m 1.6988,-0.0702 c 0.7031,0.0353 1.3872,0.2439 2.0015,0.585 v 0 c 0.5899,0.32771 0.8026,1.07151 0.475,1.66151 -0.3276,0.58999 -1.0715,0.8026 -1.6615,0.475 -0.2921,-0.16221 -0.6138,-0.26841 -0.9484,-0.2883 v 0 c -0.6718,-0.0399 -1.184,-0.6168 -1.1441,-1.2886 0.0397,-0.6674 0.6098,-1.17821 1.2775,-1.14461 z m 2.0014,0.585 c 0.5794,0.32171 1.1098,0.7284 1.5758,1.1994 v 0 c 0.4649,0.46991 0.4609,1.22771 -0.009,1.6926 -0.4502,0.44541 -1.1693,0.46301 -1.6408,0.0403 -0.3402,-0.3051 -0.7128,-0.5739 -1.1123,-0.7958 v 0 c -0.59,-0.3276 -0.8027,-1.0714 -0.4751,-1.6614 0.3276,-0.59001 1.0714,-0.80271 1.6614,-0.47511 z m 1.5758,1.1994 c 0.4737,0.47871 0.8741,1.02731 1.1881,1.62291 h 10e-5 c 0.2992,0.5675 0.0817,1.2701 -0.4859,1.5693 -0.5579,0.2942 -1.2486,0.0894 -1.556,-0.46131 -0.2087,-0.3738 -0.4773,-0.7122 -0.7961,-0.99799 v 0 c -0.4921,-0.4413 -0.5334,-1.19801 -0.0921,-1.6901 0.4413,-0.49221 1.198,-0.5334 1.6901,-0.0921 0.0178,0.0159 0.035,0.0324 0.0518,0.0493 z m 1.1881,1.62281 c 0.3241,0.6147 0.5384,1.28449 0.6322,1.97299 v 0 c 0.0822,0.6036 -0.3404,1.15961 -0.944,1.24191 -0.5556,0.0756 -1.0795,-0.2775 -1.2179,-0.8208 -0.1142,-0.4488 -0.2864,-0.8817 -0.5121,-1.28601 v 0 c -0.3127,-0.56019 -0.1121,-1.2678 0.448,-1.58059 0.5602,-0.31271 1.2679,-0.1121 1.5806,0.44809 0.005,0.008 0.009,0.0162 0.0132,0.0244 z m 0.6322,1.97299 c 0.0835,0.61301 0.1193,1.23231 0.1059,1.85081 v 0 c -0.0121,0.56329 -0.4786,1.00999 -1.0419,0.9979 -0.5309,-0.0115 -0.9643,-0.4284 -0.9962,-0.9586 -0.0298,-0.4956 -0.1072,-0.9879 -0.2297,-1.469 v 0 c -0.1503,-0.5904 0.2064,-1.1908 0.7968,-1.3411 0.5904,-0.1503 1.1908,0.2064 1.3411,0.79669 0.0103,0.0406 0.0184,0.0818 0.024,0.1233 z m -2.0552,2.91311 c 0.1285,-0.3213 0.1435,-0.68171 0.123,-1.023 v 0 c -0.0338,-0.5624 0.3946,-1.0457 0.957,-1.07951 0.5624,-0.0339 1.0457,0.39461 1.0795,0.957 0.002,0.0277 0.002,0.0555 0.002,0.0832 -0.0137,0.6334 -0.1271,1.2736 -0.4102,1.8448 v 0 c -0.2354,0.4749 -0.8111,0.6691 -1.286,0.4337 -0.4484,-0.2222 -0.6507,-0.75161 -0.4649,-1.2162 z m -0.5518,0.7605 c 0.2335,-0.2123 0.4339,-0.46571 0.5518,-0.7605 v 0 c 0.1968,-0.49211 0.7553,-0.73151 1.2474,-0.5346 0.4921,0.1968 0.7315,0.75529 0.5346,1.2474 -0.009,0.0236 -0.0198,0.0469 -0.0311,0.0697 -0.2662,0.53721 -0.6672,0.99561 -1.1393,1.36191 v 0 c -0.3947,0.3063 -0.963,0.2346 -1.2693,-0.1601 -0.2895,-0.37311 -0.2434,-0.90601 0.1059,-1.2238 z m -0.8643,0.4728 c 0.3237,-0.0822 0.6178,-0.24851 0.8643,-0.4727 v -10e-5 c 0.3696,-0.3362 0.9417,-0.30911 1.278,0.0604 0.3362,0.3696 0.3092,0.9418 -0.0604,1.27801 -0.0175,0.0159 -0.0355,0.0311 -0.0542,0.0455 -0.4769,0.3701 -1.0271,0.6396 -1.6153,0.7776 v 0 c -0.4674,0.1097 -0.9352,-0.1803 -1.0448,-0.6476 -0.1083,-0.4614 0.173,-0.9246 0.6324,-1.0411 z m -1.2202,0.1411 c 0.4105,0.004 0.8219,-0.0401 1.2201,-0.1411 v 0 c 0.4654,-0.1181 0.9383,0.1633 1.0564,0.6286 0.1181,0.4653 -0.1633,0.9383 -0.6287,1.0564 -0.005,7.5e-4 -0.0101,0.002 -0.0152,0.004 -0.5228,0.1227 -1.0567,0.19599 -1.5928,0.22549 v 0 c -0.4892,0.027 -0.9077,-0.3478 -0.9346,-0.8371 -0.027,-0.4893 0.3478,-0.9077 0.8371,-0.9347 0.0192,-7.5e-4 0.0384,-7.5e-4 0.0577,-7.5e-4 z m -1.2024,-0.175 c 0.3903,0.1141 0.796,0.1709 1.2024,0.175 v 0 c 0.49,0.005 0.8832,0.4062 0.8783,0.8961 -0.005,0.4676 -0.3716,0.8513 -0.8385,0.877 -0.5438,0.0299 -1.0901,0.0143 -1.6309,-0.0508 v 0 c -0.5328,-0.0642 -0.9126,-0.5481 -0.8485,-1.0808 0.0642,-0.5328 0.5481,-0.9126 1.0808,-0.8485 0.0529,0.006 0.1052,0.0171 0.1564,0.032 z m -0.7938,-0.4661 c 0.2235,0.21789 0.494,0.3785 0.7938,0.4662 v 0 c 0.5151,0.1505 0.8106,0.6901 0.66,1.2051 -0.1333,0.4561 -0.5769,0.7489 -1.0487,0.6921 -0.6546,-0.0789 -1.2776,-0.3307 -1.8056,-0.7252 v 0 c -0.4779,-0.3569 -0.5759,-1.0337 -0.219,-1.51151 0.357,-0.4779 1.0338,-0.57589 1.5116,-0.219 0.038,0.0284 0.074,0.0592 0.1079,0.0922 z m -0.6183,-0.8005 c 0.1589,0.2992 0.3765,0.56449 0.6183,0.8004 v 0 c 0.4269,0.4165 0.4354,1.1003 0.0189,1.5273 -0.3783,0.3877 -0.9854,0.4353 -1.4194,0.1111 -0.4471,-0.334 -0.8575,-0.7197 -1.1986,-1.1623 v 0 c -0.3986,-0.51731 -0.3025,-1.2597 0.2148,-1.6584 0.5172,-0.3986 1.2597,-0.3024 1.6583,0.2148 0.0405,0.0526 0.0765,0.10849 0.1077,0.1671 z m -0.2834,-0.84 c 0.0499,0.2929 0.1439,0.57739 0.2834,0.84 v 0 c 0.3063,0.5767 0.0872,1.29259 -0.4895,1.5989 -0.5092,0.2705 -1.1393,0.1343 -1.4913,-0.3224 -0.3482,-0.4517 -0.6142,-0.9635 -0.7897,-1.5059 v 0 c -0.2183,-0.67461 0.1517,-1.3984 0.8263,-1.6167 0.6746,-0.2182 1.3985,0.1517 1.6167,0.8264 0.019,0.0587 0.0338,0.1188 0.0441,0.1797 z m -0.0832,-1.0086 c -0.005,0.3379 0.0266,0.6757 0.0833,1.0086 h -10e-5 c 0.119,0.699 -0.3512,1.3621 -1.0502,1.4811 -0.6287,0.10699 -1.2406,-0.2637 -1.4369,-0.8705 -0.1623,-0.5017 -0.2689,-1.0221 -0.3036,-1.5487 v 0 c -0.0492,-0.74681 0.5164,-1.3922 1.2633,-1.44131 0.7469,-0.0492 1.3922,0.51641 1.4414,1.2633 0.002,0.0358 0.003,0.0716 0.003,0.10751 z m -2.576,-1.50521 v 0 c 0.1835,-0.75819 0.9469,-1.22409 1.7051,-1.04059 0.7581,0.1834 1.2241,0.9468 1.0406,1.705 -0.0128,0.0528 -0.0286,0.10479 -0.0474,0.15579 -0.0807,0.21921 -0.1192,0.4518 -0.1223,0.6849 v 0 c -0.0102,0.7485 -0.6252,1.34691 -1.3736,1.33671 -0.7068,-0.01 -1.2875,-0.5608 -1.3339,-1.2661 -0.0348,-0.5282 0.007,-1.06091 0.1315,-1.57571 z m 0,0 c 0.1657,-0.68479 0.5653,-1.28709 1.0909,-1.7502 v 0 c 0.5991,-0.52779 1.5126,-0.46999 2.0404,0.12911 0.5279,0.5991 0.4701,1.5126 -0.129,2.0404 0,0 0,9e-5 0,9e-5 -0.1256,0.11061 -0.2453,0.24141 -0.304,0.4008 v 0 c -0.2695,0.73211 -1.0815,1.107 -1.8135,0.83741 -0.673,-0.2478 -1.0534,-0.9606 -0.8848,-1.65761 z m 1.0909,-1.7502 c 0.4672,-0.4116 1.0072,-0.7362 1.5851,-0.9666 v 0 c 0.7134,-0.28449 1.5223,0.0632 1.8068,0.77661 0.2538,0.63639 0.006,1.3628 -0.5834,1.7117 -0.3179,0.1882 -0.6198,0.4035 -0.8971,0.6478 v 0 c -0.599,0.52779 -1.5126,0.4701 -2.0404,-0.129 -0.5279,-0.59901 -0.4701,-1.5126 0.1289,-2.0404 0,0 10e-5,-1.1e-4 10e-5,-1.1e-4 z m 1.5851,-0.9666 c 0.6215,-0.24789 1.323,-0.1518 1.957,-0.007 0.7516,0.17181 1.4828,0.4329 2.2014,0.7093 v 0 c 0.2194,0.0844 0.3289,0.33071 0.2445,0.5501 -0.0478,0.1243 -0.151,0.2191 -0.279,0.25611 -0.6868,0.19869 -1.373,0.4029 -2.0485,0.63769 -0.2824,0.0982 -0.5927,0.1886 -0.852,0.342 v 0 c -0.6609,0.3912 -1.5138,0.17261 -1.905,-0.48829 -0.3912,-0.6609 -0.1726,-1.5138 0.4883,-1.905 0.0619,-0.0366 0.1265,-0.0684 0.1933,-0.095 z"
             style="fill:#000000;fill-opacity:1;fill-rule:nonzero;stroke:none;stroke-width:0.99999994"
             id="path2178"
             inkscape:connector-curvature="0" /><path
             d="m 249.94383,365.14369 c 0.2318,-0.12939 0.4952,-0.14289 0.751,-0.1035 v 0 c 0.4228,0.0651 0.7565,0.3936 0.8282,0.81531 0.0661,0.0466 0.1329,0.0925 0.1999,0.138 v 0 c 0.201,0.1362 0.2534,0.40959 0.1172,0.6105 -0.099,0.146 -0.2755,0.2186 -0.4485,0.1847 -0.0594,-0.0116 -0.1189,-0.0225 -0.1784,-0.0336 l 4e-4,4e-4 c -0.3897,0.35589 -0.9897,0.345 -1.3662,-0.0249 -0.2197,-0.21591 -0.378,-0.49341 -0.3707,-0.8118 v 0 c 0.007,-0.3228 0.1851,-0.6177 0.4671,-0.77511 z m 0.751,-0.1035 c 0.6692,0.10311 1.3269,0.2865 1.9754,0.47751 v 0 c 0.6733,0.1983 1.0584,0.90489 0.8601,1.5782 -0.1983,0.67339 -0.9049,1.0584 -1.5783,0.8601 -0.0415,-0.0122 -0.0824,-0.0266 -0.1225,-0.043 -0.7056,-0.2889 -1.4321,-0.642 -1.9821,-1.18239 v 0 c -0.3913,-0.38451 -0.3968,-1.0134 -0.0123,-1.40481 0.2239,-0.22789 0.5439,-0.3342 0.8597,-0.2856 z m 1.9754,0.47751 c 0.9382,0.2763 1.8865,0.51819 2.8363,0.7511 v 0 c 0.7318,0.1795 1.1796,0.9183 1.0001,1.6501 -0.1795,0.7319 -0.9183,1.1796 -1.6501,1.0001 -0.0157,-0.004 -0.0313,-0.008 -0.0468,-0.0123 -1.007,-0.2852 -2.011,-0.59681 -2.9802,-0.99371 v 0 c -0.6496,-0.26599 -0.9605,-1.00819 -0.6945,-1.6578 0.2469,-0.60309 0.91,-0.9216 1.5352,-0.73749 z m 2.8362,0.7511 c 2.0954,0.5139 4.2092,0.957 6.3182,1.41049 v 0 c 0.7844,0.16871 1.2835,0.9414 1.1149,1.72581 -0.1687,0.7844 -0.9413,1.2836 -1.7258,1.11489 -0.0113,-0.003 -0.0226,-0.005 -0.0339,-0.008 -2.1279,-0.51131 -4.2639,-1.0091 -6.3701,-1.6056 v 0 c -0.725,-0.20531 -1.1463,-0.95951 -0.941,-1.6845 0.2002,-0.70691 0.9242,-1.12841 1.6377,-0.9534 z m 6.3182,1.41049 c 2.7192,0.5847 5.4326,1.20101 8.1268,1.89281 v 0 c 0.8106,0.20809 1.2991,1.03399 1.0909,1.8447 -0.2081,0.8107 -1.034,1.2991 -1.8447,1.0909 -0.002,-4e-4 -0.003,-7.5e-4 -0.005,-7.5e-4 -2.6637,-0.6935 -5.3367,-1.3512 -8.0129,-1.9941 v 0 c -0.7802,-0.1875 -1.2607,-0.97191 -1.0732,-1.752 0.1842,-0.76701 0.9468,-1.2468 1.718,-1.08101 z m 8.1268,1.89281 c 1.8375,0.47179 3.6743,0.948 5.5019,1.4572 v 0 c 0.8015,0.22329 1.2702,1.0541 1.0468,1.8556 -0.221,0.7934 -1.0383,1.2622 -1.8348,1.0525 -1.8234,-0.4802 -3.648,-0.9558 -5.4727,-1.4309 l 10e-5,-1e-4 c -0.81,-0.2108 -1.2956,-1.03841 -1.0847,-1.8483 0.2103,-0.80801 1.0347,-1.29371 1.8434,-1.086 z m 5.5019,1.4572 c 1.7189,0.479 3.451,0.9112 5.1845,1.334 v 0 c 0.8005,0.1953 1.2911,1.0025 1.0958,1.803 -0.1952,0.8006 -1.0025,1.2912 -1.803,1.0959 -1e-4,0 -2e-4,0 -3e-4,-1e-4 -1.758,-0.4293 -3.515,-0.8639 -5.265,-1.3247 v 0 c -0.8046,-0.2119 -1.2851,-1.0359 -1.0732,-1.8405 0.2118,-0.8046 1.0359,-1.2851 1.8404,-1.07321 0.007,0.002 0.0139,0.004 0.0208,0.006 z m 5.1845,1.334 c 1.496,0.365 2.9934,0.7264 4.4835,1.1151 v 0 c 0.7976,0.208 1.2754,1.0232 1.0674,1.8207 -0.2081,0.7975 -1.0232,1.2754 -1.8208,1.0673 -1.4749,-0.3847 -2.9569,-0.7427 -4.4376,-1.1043 v 0 c -0.8005,-0.1954 -1.2909,-1.0028 -1.0955,-1.8033 0.1955,-0.8003 1.0026,-1.2907 1.803,-1.0955 z m 4.4835,1.1151 c 0.7636,0.1992 1.5237,0.4162 2.2693,0.6754 v 0 c 0.7714,0.2681 1.1793,1.1108 0.9111,1.8821 -0.2627,0.7558 -1.0789,1.1654 -1.8419,0.9245 -0.6912,-0.2183 -1.3905,-0.411 -2.0918,-0.5939 v -10e-5 c -0.7976,-0.208 -1.2754,-1.0231 -1.0674,-1.8207 0.208,-0.7975 1.0232,-1.2754 1.8207,-1.0673 z m 2.2694,0.6754 c 0.5808,0.202 1.1572,0.4294 1.6982,0.7235 v 0 c 0.7039,0.3828 0.9643,1.2638 0.5816,1.9677 -0.3713,0.6827 -1.2144,0.9517 -1.9124,0.6101 -0.4159,-0.2035 -0.8575,-0.3555 -1.2983,-0.4947 v 0 c -0.7787,-0.2459 -1.2106,-1.0766 -0.9646,-1.8553 0.2459,-0.7787 1.0765,-1.2106 1.8552,-0.9646 0.0135,0.004 0.0269,0.009 0.0403,0.0133 z m 1.6982,0.7235 c 0.455,0.2474 0.8939,0.5446 1.2412,0.9326 v 0 c 0.5196,0.5807 0.4702,1.4727 -0.1105,1.9923 -0.5313,0.4755 -1.3338,0.4799 -1.8703,0.0103 -0.172,-0.1506 -0.3875,-0.2577 -0.5913,-0.3574 v 0 c -0.7197,-0.3522 -1.0176,-1.2212 -0.6653,-1.9409 0.3522,-0.7197 1.2212,-1.0176 1.9409,-0.6654 0.0187,0.009 0.0371,0.0186 0.0553,0.0285 z m 1.2412,0.9326 c 0.4064,0.4542 0.6224,1.0382 0.6883,1.6384 v 0 c 0.0835,0.7598 -0.4647,1.4434 -1.2244,1.5269 -0.7576,0.0833 -1.4399,-0.4617 -1.5262,-1.2189 -0.002,-0.0148 -0.01,-0.0604 -0.0106,-0.062 0.0216,0.0503 0.1216,0.1667 -0.03,-0.003 v 0 c -0.5196,-0.5807 -0.4701,-1.4727 0.1106,-1.9923 0.5807,-0.5196 1.4727,-0.4702 1.9923,0.1105 z m -4.2301,3.7076 c 0.5216,-0.4666 1.0383,-0.9406 1.5273,-1.4416 0.233,-0.2386 0.47,-0.4827 0.6629,-0.7559 l -0.003,-5e-4 c 0.1547,-0.7485 0.8869,-1.2299 1.6354,-1.0752 0.5875,0.1214 1.0299,0.6076 1.0955,1.204 0.0737,0.6698 -0.3061,1.2564 -0.8458,1.6131 -0.2849,0.1882 -0.6019,0.3244 -0.9214,0.4418 -0.9012,0.3311 -1.8498,0.5385 -2.7877,0.7341 v 0 c -0.2257,0.047 -0.4468,-0.0978 -0.4939,-0.3235 -0.0304,-0.1459 0.0193,-0.2969 0.1304,-0.3963 z"
             style="fill:#000000;fill-opacity:1;fill-rule:nonzero;stroke:none;stroke-width:0.99999994"
             id="path2180"
             inkscape:connector-curvature="0" /><path
             d="m 279.51083,384.3944 v 0 c 0.7412,-0.1364 1.4527,0.3538 1.5892,1.0951 0.1364,0.7412 -0.3539,1.4527 -1.0951,1.5891 -0.206,0.0379 -0.418,0.0279 -0.6196,-0.0293 -0.2743,-0.0778 -0.5429,-0.1945 -0.7492,-0.3973 v 0 c -0.1479,-0.1455 -0.2558,-0.3266 -0.3133,-0.5259 -0.1393,-0.48281 0.0346,-1.0034 0.3964,-1.3403 0.2191,-0.2041 0.4979,-0.3373 0.7916,-0.39141 z m 0,0 c 0.4058,-0.0747 0.8252,-0.0299 1.2264,0.0511 0.4412,0.0891 0.8727,0.2243 1.2967,0.3738 v 0 c 0.8173,0.2881 1.2462,1.1843 0.958,2.0015 -0.2882,0.8173 -1.1843,1.2462 -2.0015,0.958 -0.0657,-0.0232 -0.1298,-0.0507 -0.1919,-0.0824 -0.3151,-0.1608 -0.6321,-0.3191 -0.955,-0.4638 -0.1488,-0.0667 -0.3008,-0.1386 -0.4582,-0.1833 v 0 c -0.725,-0.2057 -1.146,-0.9603 -0.9402,-1.6853 0.1417,-0.4997 0.5549,-0.8756 1.0657,-0.9696 z m 2.5231,0.4249 c 1.2052,0.425 2.3493,1.0231 3.4608,1.6483 v 0 c 0.8043,0.4524 1.0896,1.4711 0.6372,2.2754 -0.4524,0.8043 -1.4712,1.0895 -2.2754,0.6371 -0.005,-0.003 -0.01,-0.005 -0.0145,-0.008 -1.0034,-0.5776 -2.0121,-1.1488 -3.0435,-1.6754 v -1e-4 c -0.7717,-0.3941 -1.0779,-1.3392 -0.6838,-2.111 0.3575,-0.7 1.1779,-1.0275 1.9192,-0.7661 z m 3.4608,1.6483 c 1.4583,0.8203 2.7267,2.0505 3.4923,3.5471 v 0 c 0.1422,0.2779 0.0322,0.6184 -0.2457,0.7605 -0.0924,0.0474 -0.1961,0.0683 -0.2997,0.0605 -1.615,-0.1213 -3.1999,-0.6581 -4.5996,-1.4638 v 0 c -0.7997,-0.4603 -1.0748,-1.4819 -0.6144,-2.2816 0.4571,-0.7941 1.4685,-1.0719 2.2671,-0.6227 z"
             style="fill:#000000;fill-opacity:1;fill-rule:nonzero;stroke:none;stroke-width:0.99999994"
             id="path2186"
             inkscape:connector-curvature="0" /><path
             d="m 271.69943,383.9083 c -0.0394,0.4919 0.017,0.9976 0.0636,1.4867 v 0 c 0.0231,0.2417 -0.1542,0.4564 -0.3958,0.4794 -0.1222,0.0117 -0.2436,-0.0282 -0.335,-0.1101 -0.3694,-0.3306 -0.7382,-0.6631 -1.0927,-1.0098 -0.2668,-0.261 -0.548,-0.5348 -0.6967,-0.8837 v 0 c -0.291,-0.6832 0.0269,-1.473 0.7101,-1.764 0.6831,-0.2911 1.4729,0.0268 1.764,0.71 0.149,0.3499 0.1429,0.7466 -0.0169,1.0918 z m -2.3927,-1.2652 v 0 c 0.0727,-0.1304 0.1664,-0.248 0.2772,-0.348 l -9e-4,-7.5e-4 c 0.108,-0.0988 0.2311,-0.17959 0.3648,-0.23929 0.6782,-0.30311 1.4314,-0.024 1.8285,0.57039 0.1205,0.1804 0.209,0.38001 0.2827,0.58341 0.1565,0.4317 0.2593,0.88329 0.3558,1.33149 v 0 c 0.0543,0.2527 -0.1065,0.5016 -0.3591,0.556 -0.0831,0.0178 -0.1696,0.0128 -0.25,-0.0148 -0.4148,-0.1419 -0.8312,-0.2854 -1.2554,-0.3969 l 1e-4,0.002 c -0.5639,0.0296 -1.0862,-0.29621 -1.3075,-0.8157 -0.1676,-0.39321 -0.1458,-0.85221 0.0638,-1.22771 z"
             style="fill:#000000;fill-opacity:1;fill-rule:nonzero;stroke:none;stroke-width:0.99999994"
             id="path2188"
             inkscape:connector-curvature="0" /><path
             d="m 275.39713,403.6739 c 0.1648,0.9208 0.5877,1.7929 1.0373,2.6046 v 0 c 0.1177,0.2124 0.0409,0.4799 -0.1715,0.5976 -0.2123,0.1176 -0.4799,0.0408 -0.5975,-0.1715 0,0 0,0 0,-1e-4 -0.497,-0.8971 -0.9518,-1.8588 -1.1338,-2.8758 v 0 c -0.0427,-0.2389 0.1163,-0.4673 0.3553,-0.5101 0.239,-0.0428 0.4674,0.1163 0.5102,0.3553 z m 0.131,-2.6478 c -0.1758,0.8602 -0.2871,1.7754 -0.131,2.6478 v 0 c 0.0427,0.239 -0.1163,0.4674 -0.3553,0.5101 -0.239,0.0428 -0.4674,-0.1163 -0.5102,-0.3552 -0.1666,-0.9309 -0.3788,-1.8536 -0.6037,-2.7719 v 0 c -0.1078,-0.44 0.1616,-0.884 0.6016,-0.9918 0.4399,-0.1078 0.884,0.1616 0.9917,0.6016 0.0289,0.1178 0.0312,0.2405 0.007,0.3594 z m -1.9285,-2.657 v 0 c 0.1136,-0.6834 0.7597,-1.1452 1.4431,-1.0316 0.6833,0.1136 1.1452,0.7597 1.0316,1.443 -0.0129,0.0778 -0.0331,0.1541 -0.0604,0.228 -0.0811,0.2202 -0.1353,0.4517 -0.1909,0.6792 -0.1086,0.4437 -0.2033,0.8909 -0.2949,1.3384 v 0 c -0.0907,0.4438 -0.5241,0.73 -0.9679,0.6392 -0.3106,-0.0635 -0.5569,-0.3004 -0.6323,-0.6084 -0.1195,-0.4878 -0.2289,-0.9797 -0.2998,-1.4771 -0.0568,-0.3983 -0.0949,-0.8112 -0.0285,-1.2107 z m 0,0 c 0.0834,-0.5017 0.2453,-0.9901 0.4877,-1.4377 v 0 c 0.3538,-0.6532 1.1701,-0.896 1.8234,-0.5422 0.6533,0.3538 0.896,1.1702 0.5423,1.8234 -0.0298,0.055 -0.0633,0.1078 -0.1004,0.158 -0.1436,0.1946 -0.2552,0.4113 -0.3387,0.6379 v 0 c -0.2395,0.6501 -0.9606,0.9828 -1.6107,0.7433 -0.565,-0.2082 -0.9024,-0.7886 -0.8036,-1.3827 z m 0.4877,-1.4377 c 0.3248,-0.5998 0.8526,-1.0672 1.4043,-1.4543 v 0 c 0.6384,-0.4479 1.519,-0.2936 1.9669,0.3448 0.4479,0.6383 0.2935,1.5189 -0.3449,1.9668 -0.0255,0.0179 -0.0517,0.035 -0.0784,0.0512 -0.2347,0.1425 -0.5158,0.3045 -0.6826,0.5307 v 0 c -0.4411,0.5978 -1.2833,0.7249 -1.8811,0.2839 -0.5397,-0.3982 -0.7037,-1.1332 -0.3842,-1.7231 z m 1.4043,-1.4543 c 0.6051,-0.4246 1.2925,-0.7497 2.0297,-0.8523 v 0 c 0.7843,-0.1091 1.5086,0.4382 1.6177,1.2225 0.1074,0.7718 -0.4212,1.488 -1.1903,1.6129 -0.3264,0.053 -0.6338,0.21 -0.9135,0.3797 v 0 c -0.6666,0.4046 -1.535,0.1922 -1.9396,-0.4744 -0.3857,-0.6356 -0.2126,-1.4614 0.396,-1.8884 z m 2.0297,-0.8523 c 0.5303,-0.0738 1.0769,-0.0937 1.6044,0.0113 v 10e-5 c 0.7477,0.1488 1.2332,0.8756 1.0844,1.6233 -0.1287,0.6464 -0.6964,1.1117 -1.3555,1.1109 -0.3033,-4e-4 -0.6071,0.0413 -0.9059,0.0898 v 0 c -0.7816,0.1269 -1.5181,-0.4039 -1.645,-1.1855 -0.1269,-0.7816 0.4038,-1.5181 1.1855,-1.645 0.0107,-0.002 0.0214,-0.003 0.0321,-0.005 z m 1.6044,0.0113 c 0.3695,0.0736 0.7137,0.2427 1.0372,0.4308 0.3716,0.216 0.7249,0.4631 1.071,0.7174 h 1e-4 c 0.5908,0.4341 0.7179,1.2649 0.2838,1.8557 -0.4308,0.5864 -1.2535,0.7167 -1.8444,0.292 -0.29,-0.2084 -0.5987,-0.4398 -0.9358,-0.5679 l -1e-4,7.5e-4 c -0.7596,-0.0656 -1.3221,-0.7345 -1.2565,-1.4941 0.0656,-0.7595 0.7345,-1.3221 1.494,-1.2565 0.0506,0.004 0.1009,0.0115 0.1507,0.0214 z m 2.1082,1.1482 c 0.8476,0.6227 1.6231,1.3409 2.3254,2.1231 v 0 c 0.4421,0.4922 0.4014,1.2495 -0.0908,1.6916 -0.4366,0.392 -1.0929,0.4101 -1.5505,0.0427 -0.7334,-0.589 -1.4808,-1.1607 -2.2446,-1.7097 v 0 c -0.5954,-0.4278 -0.7312,-1.2572 -0.3033,-1.8526 0.4278,-0.5953 1.2572,-0.7311 1.8526,-0.3033 0.004,0.003 0.007,0.005 0.0113,0.008 h -1e-4 z m 2.3254,2.1231 c 0.576,0.6413 1.1797,1.2605 1.8297,1.8274 v 0 c 0.4218,0.3679 0.4655,1.0082 0.0976,1.43 -0.3418,0.3919 -0.9247,0.4616 -1.3492,0.1613 -0.7583,-0.5364 -1.4952,-1.1029 -2.2194,-1.6844 v 0 c -0.5158,-0.4143 -0.5981,-1.1682 -0.1839,-1.684 0.4143,-0.5159 1.1682,-0.5982 1.684,-0.184 0.0507,0.0407 0.0979,0.0854 0.1412,0.1337 z m 1.8297,1.8274 c 0.3398,0.2965 0.7624,0.6344 1.2215,0.7139 v 0 c 0.597,0.1033 0.9972,0.6711 0.8938,1.2682 -0.1033,0.597 -0.6711,0.9972 -1.2682,0.8939 -0.1339,-0.0232 -0.2624,-0.0711 -0.3789,-0.1413 -0.5897,-0.3551 -1.1579,-0.746 -1.7198,-1.1434 v 0 c -0.457,-0.3233 -0.5654,-0.9558 -0.2421,-1.4128 0.3232,-0.457 0.9557,-0.5654 1.4127,-0.2421 0.0281,0.0198 0.0551,0.041 0.081,0.0636 z m 0.7371,0.7397 v 0 c 0.3921,-0.6969 1.2749,-0.9441 1.9719,-0.552 0.697,0.3921 0.9441,1.275 0.552,1.9719 -0.0355,0.0632 -0.0757,0.1236 -0.1203,0.1808 -0.362,0.4639 -0.9069,0.7673 -1.5023,0.7638 -0.4192,-0.002 -0.8152,-0.1557 -1.1702,-0.3694 v -1e-4 c -0.519,-0.3126 -0.6864,-0.9868 -0.3737,-1.5058 0.1442,-0.2395 0.3744,-0.4149 0.6435,-0.4904 l -9e-4,7.5e-4 z m -0.1853,0.6657 c 0.0224,-0.7325 0.021,-1.4662 0.0232,-2.199 v 0 c 0.003,-0.947 0.7728,-1.7123 1.7197,-1.7095 0.947,0.003 1.7124,0.7727 1.7096,1.7197 -2e-4,0.0434 -0.002,0.0868 -0.005,0.13 -0.0432,0.5474 -0.1123,1.0961 -0.2471,1.6292 -0.1221,0.4834 -0.3016,0.9679 -0.6111,1.3646 v 0 c -0.492,0.6305 -1.4019,0.7428 -2.0324,0.2509 -0.3639,-0.284 -0.5707,-0.7245 -0.5565,-1.1859 z m 3.1737,-5.4482 c 0.3222,1.0952 0.3629,2.2576 0.2734,3.3895 v 0 c -0.0746,0.944 -0.9004,1.6487 -1.8444,1.5741 -0.8938,-0.0707 -1.5822,-0.8179 -1.5795,-1.7144 0.002,-0.751 -0.0441,-1.5223 -0.2572,-2.2466 v 0 c -0.2769,-0.941 0.2615,-1.9283 1.2025,-2.2051 0.941,-0.2769 1.9283,0.2615 2.2052,1.2025 z m -3.2649,-1.4466 v 0 c 0.0611,-0.0758 0.1316,-0.1436 0.2097,-0.2019 0.599,-0.4466 1.4411,-0.2677 2.0096,0.1342 0.5131,0.3628 0.8695,0.9159 1.0456,1.5143 v 0 c 0.2768,0.941 -0.2616,1.9283 -1.2026,2.2052 -0.941,0.2768 -1.9283,-0.2616 -2.2051,-1.2026 0,0 0,0 0,0 -0.1087,-0.3694 -0.1823,-0.7519 -0.1954,-1.1373 -0.0153,-0.4499 0.0464,-0.95 0.3382,-1.3119 z"
             style="fill:#000000;fill-opacity:1;fill-rule:nonzero;stroke:none;stroke-width:0.99999994"
             id="path2194"
             inkscape:connector-curvature="0" /><path
             d="m 278.55843,415.9092 c 0.1342,0.0745 0.2864,0.1191 0.4336,0.1592 0.2699,0.0735 0.5462,0.1229 0.8227,0.164 v 0 c 0.2401,0.0357 0.4059,0.2593 0.3702,0.4995 -0.0272,0.1827 -0.1657,0.329 -0.3467,0.366 -0.4462,0.0913 -0.898,0.1754 -1.3531,0.205 -0.3894,0.0254 -0.8054,0.007 -1.1415,-0.2149 v 0 c -0.3999,-0.2639 -0.5101,-0.802 -0.2462,-1.2019 0.2639,-0.3998 0.802,-0.5101 1.2019,-0.2462 0.1053,0.0695 0.1942,0.1611 0.2604,0.2685 l -9.7e-4,7.5e-4 z m 0.0804,-0.5436 c -0.0196,0.1671 -0.0341,0.3365 -0.0278,0.5049 0.002,0.0659 0.005,0.1385 0.0273,0.2015 v 0 c 0.1613,0.4511 -0.0737,0.9476 -0.5248,1.1089 -0.2569,0.0918 -0.5421,0.0574 -0.7699,-0.0929 -0.5616,-0.3706 -0.8107,-1.0497 -0.9056,-1.6881 v 0 c -0.0902,-0.6064 0.3283,-1.1712 0.9348,-1.2614 0.6064,-0.0902 1.1712,0.3283 1.2614,0.9348 0.0144,0.0968 0.016,0.1951 0.005,0.2923 z m -2.1522,-1.8842 v 0 c 0.1399,-0.6793 0.804,-1.1167 1.4834,-0.9768 0.6793,0.1399 1.1166,0.804 0.9768,1.4834 -0.01,0.0472 -0.0222,0.0938 -0.0373,0.1396 -0.1324,0.4021 -0.2215,0.8177 -0.2707,1.238 v 0 c -0.0713,0.609 -0.6227,1.045 -1.2317,0.9737 -0.4982,-0.0583 -0.8954,-0.4433 -0.9691,-0.9394 -0.0947,-0.6364 -0.0812,-1.288 0.0486,-1.9185 z m 0,0 c 0.1439,-0.6986 0.4114,-1.369 0.7153,-2.012 v 0 c 0.3248,-0.6872 1.1452,-0.9809 1.8323,-0.6561 0.6872,0.3249 0.9809,1.1452 0.6561,1.8324 -0.0277,0.0586 -0.0595,0.1152 -0.0952,0.1694 -0.2701,0.4096 -0.5312,0.8439 -0.6856,1.3125 v 0 c -0.217,0.6588 -0.9269,1.0169 -1.5857,0.7999 -0.6058,-0.1995 -0.9658,-0.8214 -0.8372,-1.4461 z m 0.7153,-2.012 c 0.3635,-0.7689 0.8053,-1.4995 1.3012,-2.1899 v 0 c 0.4821,-0.6713 1.4171,-0.8245 2.0884,-0.3424 0.6712,0.4822 0.8245,1.4172 0.3423,2.0884 -0.0208,0.0289 -0.0426,0.0571 -0.0653,0.0844 -0.4541,0.5454 -0.8827,1.1126 -1.2734,1.7052 v 0 c -0.4184,0.6345 -1.272,0.8098 -1.9065,0.3914 -0.5721,-0.3772 -0.7795,-1.1177 -0.4867,-1.7371 z m 1.3012,-2.1899 c 0.49,-0.6822 1.0258,-1.3326 1.6143,-1.9323 v 0 c 0.6074,-0.6188 1.6013,-0.6282 2.2202,-0.0209 0.6188,0.60729 0.6281,1.6013 0.0208,2.2202 -0.0206,0.021 -0.0418,0.0414 -0.0635,0.0612 -0.5111,0.4653 -0.9844,0.97129 -1.4264,1.5022 v 0 c -0.5288,0.63519 -1.4724,0.7214 -2.1075,0.1926 -0.6033,-0.5023 -0.7159,-1.3855 -0.2579,-2.023 z m 1.6144,-1.9323 c 0.5338,-0.544 1.0982,-1.0586 1.6959,-1.5317 v -10e-5 c 0.7119,-0.5636 1.746,-0.4433 2.3096,0.2686 0.5636,0.712 0.4434,1.7461 -0.2686,2.3097 -0.0374,0.0296 -0.0761,0.0576 -0.116,0.0839 -0.5109,0.3366 -0.9913,0.7184 -1.4436,1.1301 v 0 c -0.6411,0.5837 -1.6341,0.5372 -2.2178,-0.104 -0.5606,-0.6158 -0.5428,-1.5622 0.0405,-2.1565 z m 1.6959,-1.5318 c 0.5429,-0.4297 1.118,-0.8274 1.7411,-1.1326 v 0 c 0.858,-0.4201 1.8941,-0.0652 2.3142,0.7928 0.4202,0.858 0.0652,1.8941 -0.7928,2.3142 -0.0599,0.0294 -0.1215,0.0553 -0.1844,0.0775 -0.41,0.1449 -0.7915,0.372 -1.1531,0.6103 v 0 c -0.7583,0.4995 -1.7779,0.2898 -2.2775,-0.4685 -0.4691,-0.712 -0.316,-1.6645 0.3525,-2.1937 z m 1.7411,-1.1326 c 0.578,-0.283 1.197,-0.4838 1.835,-0.5738 v 0 c 0.9781,-0.1379 1.883,0.5432 2.0209,1.5214 0.138,0.9782 -0.5432,1.883 -1.5214,2.0209 -0.0303,0.004 -0.0608,0.008 -0.0913,0.0105 -0.3096,0.0275 -0.6137,0.1021 -0.9063,0.2055 v 0 c -0.9007,0.3182 -1.8889,-0.154 -2.2072,-1.0547 -0.2924,-0.8279 0.0817,-1.7436 0.8703,-2.1298 z m 1.835,-0.5738 c 0.5939,-0.0838 1.1995,-0.0855 1.7924,0.009 v 0 c 0.9946,0.158 1.6728,1.0924 1.5148,2.087 -0.158,0.9946 -1.0923,1.6728 -2.087,1.5148 -0.035,-0.005 -0.0699,-0.0121 -0.1046,-0.0197 -0.2319,-0.0509 -0.4714,-0.059 -0.7074,-0.038 v 0 c -0.984,0.0875 -1.8526,-0.63919 -1.9401,-1.62319 -0.0843,-0.94841 0.5891,-1.79661 1.5319,-1.9296 z m 1.7924,0.009 c 0.9067,0.144 1.6887,0.6773 2.2361,1.4028 v 0 c 0.6125,0.8118 0.4509,1.9665 -0.3609,2.579 -0.8119,0.6125 -1.9665,0.4509 -2.579,-0.361 0,0 0,0 0,0 -0.0197,-0.0261 -0.0452,-0.0609 -0.0699,-0.0792 0.0397,0.0294 0.1689,0.0657 -0.022,0.0102 v 0 c -0.967,-0.2815 -1.5227,-1.2935 -1.2413,-2.2605 0.2568,-0.8821 1.1297,-1.4355 2.037,-1.2913 z m 2.2361,1.4028 c 0.5437,0.7206 0.8248,1.6033 0.9446,2.4896 v 0 c 0.1284,0.9507 -0.5382,1.8255 -1.4888,1.9539 -0.8187,0.1106 -1.602,-0.3707 -1.8733,-1.151 -0.1295,-0.3727 -0.2828,-0.7569 -0.5224,-1.0745 v 0 c -0.6125,-0.8118 -0.4509,-1.9665 0.361,-2.5789 0.8118,-0.6125 1.9664,-0.4509 2.5789,0.3609 z m 0.9446,2.4896 c 0.1152,0.8528 0.1602,1.7144 0.1718,2.5744 v 0 c 0.0119,0.8852 -0.6961,1.6124 -1.5812,1.6243 -0.8578,0.0115 -1.5725,-0.6543 -1.6218,-1.5107 -0.0366,-0.6356 -0.121,-1.2813 -0.3308,-1.8851 v 0 c -0.315,-0.9061 0.1642,-1.896 1.0703,-2.211 0.9061,-0.315 1.896,0.1642 2.211,1.0704 0.0381,0.1096 0.0651,0.2227 0.0807,0.3377 z m -3.3472,10.335 c 0.1047,-1.7246 0.205,-3.4499 0.2746,-5.1763 0.033,-0.819 0.0885,-1.6511 0.0414,-2.4707 v 0 c -0.0509,-0.8838 0.6244,-1.6415 1.5082,-1.6923 0.8838,-0.0509 1.6414,0.6244 1.6923,1.5082 9.8e-4,0.0234 0.002,0.047 0.002,0.0705 0.007,0.4887 -0.0994,0.976 -0.2221,1.4465 -0.1429,0.5478 -0.3207,1.0864 -0.5089,1.6201 -0.5841,1.6572 -1.2706,3.2789 -1.9704,4.8899 v 0 c -0.0939,0.2162 -0.3453,0.3154 -0.5616,0.2215 -0.1645,-0.0715 -0.2669,-0.2383 -0.256,-0.4174 z"
             style="fill:#000000;fill-opacity:1;fill-rule:nonzero;stroke:none;stroke-width:0.99999994"
             id="path2198"
             inkscape:connector-curvature="0" /><path
             d="m 276.72023,418.9317 v 0 c 0.578,-0.1648 1.1802,0.1703 1.345,0.7483 0.1648,0.5781 -0.1702,1.1802 -0.7483,1.345 -0.1668,0.0476 -0.3426,0.0546 -0.5126,0.0204 l 4e-4,-0.002 c -0.1689,0.17439 -0.4472,0.17889 -0.6216,0.01 -0.007,-0.007 -0.0134,-0.0134 -0.0198,-0.0204 -0.1864,-0.2055 -0.3385,-0.442 -0.3855,-0.7202 -0.1075,-0.6359 0.344,-1.2104 0.9424,-1.381 z m 0,0 c 0.3669,-0.1046 0.7583,-0.101 1.135,-0.065 0.4407,0.0421 0.8763,0.13179 1.3057,0.23709 v 0 c 0.7195,0.17651 1.1598,0.90291 0.9833,1.62251 -0.1765,0.71959 -0.9029,1.1598 -1.6225,0.98329 -0.0713,-0.0175 -0.1411,-0.0408 -0.2086,-0.0697 -0.5132,-0.2199 -1.0362,-0.465 -1.5773,-0.6105 v 0 c -0.5804,-0.1562 -0.9244,-0.7533 -0.7683,-1.3337 0.0994,-0.3692 0.3851,-0.6592 0.7527,-0.764 z m 2.4407,0.1721 c 1.0933,0.2682 2.1642,0.6257 3.2196,1.0154 v 0 c 0.7856,0.29 1.1873,1.1621 0.8972,1.9477 -0.29,0.7856 -1.1621,1.1873 -1.9477,0.8972 -0.0322,-0.0119 -0.064,-0.0249 -0.0953,-0.0389 -0.9708,-0.43539 -1.9435,-0.8664 -2.9216,-1.28529 v 0 c -0.681,-0.2917 -0.9966,-1.0803 -0.7049,-1.7614 0.2584,-0.6032 0.9153,-0.93101 1.5527,-0.77471 z m 3.2196,1.0154 c 1.2951,0.4782 2.5878,0.9632 3.8791,1.4518 v 0 c 0.8189,0.3098 1.2315,1.2249 0.9217,2.0438 -0.3099,0.8188 -1.2249,1.2315 -2.0438,0.9216 -0.003,-7.5e-4 -0.005,-0.002 -0.008,-0.003 -1.3112,-0.504 -2.6132,-1.0334 -3.8951,-1.6083 v 0 c -0.7641,-0.3427 -1.1057,-1.24 -0.763,-2.0041 0.3264,-0.7277 1.1606,-1.0782 1.9088,-0.8019 z m 3.8791,1.4518 c 0.5861,0.2217 1.1716,0.4477 1.7453,0.7002 0.4035,0.1777 0.8297,0.3637 1.1617,0.6606 v 0 c 0.6382,0.5709 0.6928,1.551 0.1219,2.1892 -0.4866,0.5441 -1.2868,0.675 -1.9214,0.3144 0.008,0.005 -0.1198,-0.055 -0.1514,-0.069 -0.1474,-0.0649 -0.2964,-0.1266 -0.4454,-0.1876 -0.5439,-0.2225 -1.0921,-0.4345 -1.6405,-0.6453 v 0 c -0.8173,-0.3141 -1.2252,-1.2313 -0.9111,-2.0486 0.313,-0.8142 1.225,-1.2227 2.0409,-0.9139 z m -0.3834,1.8178 c 0.3594,-0.0884 0.7182,-0.1816 1.0703,-0.2959 l -0.002,-0.002 c 0.55,-0.65621 1.5279,-0.7422 2.1841,-0.19221 0.0128,0.0107 0.0254,0.0216 0.0378,0.0327 0.7942,0.71061 0.675,1.9845 -0.202,2.5633 -0.2206,0.1455 -0.4691,0.24 -0.7209,0.3159 -0.5782,0.1743 -1.1787,0.28031 -1.7723,0.3863 v 0 c -0.7808,0.13941 -1.5268,-0.3807 -1.6662,-1.1615 -0.1331,-0.7456 0.3355,-1.46629 1.0709,-1.6471 z m -3.1781,0.8359 c 1.0475,-0.3187 2.1154,-0.5746 3.1781,-0.8359 v 0 c 0.7703,-0.1894 1.5483,0.2815 1.7376,1.0517 0.1894,0.7703 -0.2815,1.5483 -1.0517,1.7377 -0.03,0.007 -0.0602,0.0137 -0.0906,0.0192 -1.0302,0.1839 -2.0651,0.3612 -3.0849,0.5978 v 0 c -0.7162,0.1661 -1.4315,-0.2798 -1.5977,-0.996 -0.1583,-0.6823 0.2392,-1.3705 0.9092,-1.5744 z m -1.9432,0.726 c 0.6326,-0.2803 1.2813,-0.5245 1.9432,-0.7259 v 0 c 0.7034,-0.2141 1.4471,0.1826 1.6612,0.8859 0.2141,0.7034 -0.1826,1.4472 -0.886,1.6612 -0.0286,0.009 -0.0575,0.0165 -0.0867,0.0233 -0.5513,0.1279 -1.0906,0.3053 -1.6127,0.5233 v 0 c -0.6569,0.2743 -1.4118,-0.0358 -1.6861,-0.6927 -0.2701,-0.6469 0.0263,-1.391 0.6671,-1.6751 z m -1.7541,1.5404 c 0.3163,-0.7535 1.0344,-1.2213 1.7542,-1.5404 v 0 c 0.6508,-0.2884 1.4122,0.005 1.7006,0.6561 0.2885,0.6508 -0.005,1.4123 -0.656,1.7007 -0.008,0.004 -0.0171,0.007 -0.0257,0.011 -0.1331,0.0556 -0.2685,0.1173 -0.3848,0.2038 l 9.8e-4,6e-4 c -0.2917,0.6569 -1.0607,0.953 -1.7176,0.6613 -0.6474,-0.2874 -0.9461,-1.0399 -0.672,-1.6931 z m 0,0 v 0 c 0.2782,-0.6627 1.0409,-0.9745 1.7037,-0.6964 0.5639,0.2366 0.8869,0.8339 0.7764,1.4353 0.0438,0.1078 0.1042,0.2087 0.1677,0.306 v 0 c 0.4043,0.6192 0.23,1.4489 -0.3892,1.8532 -0.6192,0.4043 -1.4489,0.2301 -1.8532,-0.3891 -0.007,-0.0115 -0.0149,-0.0232 -0.022,-0.0349 -0.4484,-0.7352 -0.7339,-1.6388 -0.3834,-2.4741 z m 2.6478,1.0449 c 0.1734,0.2657 0.3901,0.5045 0.6069,0.7349 0.365,0.3878 0.7541,0.7527 1.1499,1.1085 v 0 c 0.5795,0.5211 0.627,1.4132 0.106,1.9928 -0.521,0.5795 -1.4132,0.627 -1.9928,0.1059 -0.0203,-0.0183 -0.0402,-0.0372 -0.0594,-0.0566 -0.7476,-0.75529 -1.5186,-1.54389 -2.075,-2.45629 v 0 c -0.3851,-0.63131 -0.1854,-1.4553 0.446,-1.8404 0.6177,-0.37671 1.4229,-0.19461 1.8184,0.4112 z m 1.7568,1.8434 c 0.7953,0.715 1.6046,1.4545 2.2504,2.3119 v 0 c 0.4966,0.6593 0.3647,1.5963 -0.2946,2.0929 -0.6593,0.4966 -1.5963,0.3647 -2.0929,-0.2946 -0.0158,-0.021 -0.0311,-0.0425 -0.0458,-0.0643 -0.1929,-0.2865 -0.4171,-0.5525 -0.644,-0.8121 -0.3587,-0.4104 -0.736,-0.8045 -1.1193,-1.1917 v 0 c -0.5483,-0.5539 -0.5437,-1.4473 0.0101,-1.9955 0.5312,-0.5259 1.3803,-0.5463 1.9361,-0.0466 z m 2.2504,2.3119 c 0.484,0.6426 0.8622,1.3786 0.9945,2.1781 v 0 c 0.1387,0.8383 -0.4284,1.6303 -1.2667,1.769 -0.8383,0.1386 -1.6302,-0.4285 -1.7689,-1.2667 -0.004,-0.0248 -0.008,-0.0497 -0.0105,-0.0746 -0.0365,-0.3157 -0.2076,-0.6133 -0.3817,-0.8718 v 0 c -0.4611,-0.6846 -0.2799,-1.6133 0.4047,-2.0744 0.6592,-0.444 1.5505,-0.2944 2.0286,0.3404 z m -2.0207,3.0167 c -0.0246,0.069 -0.0123,0.048 -0.01,-0.0118 0.006,-0.133 -0.006,-0.2671 -0.0213,-0.3991 v 0 c -0.0975,-0.844 0.5077,-1.6073 1.3517,-1.7048 0.815,-0.0942 1.5605,0.4677 1.6944,1.2771 0.0974,0.5891 0.1391,1.209 -0.0241,1.7906 v 0 c -0.2343,0.835 -1.1012,1.3221 -1.9363,1.0878 -0.835,-0.2343 -1.3221,-1.1012 -1.0878,-1.9362 0.01,-0.0349 0.0208,-0.0695 0.033,-0.1036 z m -0.1475,0.1295 c 0.0546,-0.0488 0.1087,-0.1 0.1539,-0.1578 0.0459,-0.0588 -0.0295,0.0766 0.0257,-0.0542 v 0 c 0.337,-0.7992 1.2581,-1.17379 2.0573,-0.8367 0.729,0.3075 1.1154,1.10931 0.9017,1.8711 -0.1706,0.6081 -0.5618,1.12421 -1.0273,1.5402 v 0 c -0.6524,0.58311 -1.6539,0.5268 -2.237,-0.12559 -0.583,-0.6524 -0.5268,-1.6539 0.1256,-2.237 0,0 0,0 1e-4,0 z m -0.9388,0.712 c 0.3258,-0.2187 0.6458,-0.4502 0.9387,-0.7119 v 0 c 0.6524,-0.5831 1.654,-0.5269 2.237,0.1255 0.5831,0.6524 0.5268,1.654 -0.1256,2.237 -0.4411,0.3942 -0.9434,0.7162 -1.4645,0.9936 v 0 c -0.7525,0.4006 -1.6873,0.1153 -2.0879,-0.6372 -0.3721,-0.6988 -0.1551,-1.5658 0.5023,-2.0071 z m -1.3177,0.7662 c 0.4528,-0.2307 0.8955,-0.4829 1.3177,-0.7662 v -1e-4 c 0.7079,-0.475 1.6668,-0.2864 2.1419,0.4215 0.4751,0.7079 0.2864,1.6668 -0.4214,2.1419 -0.0436,0.0293 -0.0886,0.0563 -0.1349,0.0809 -0.5414,0.2882 -1.0978,0.5478 -1.6625,0.7869 v 0 c -0.748,0.3166 -1.6111,-0.0332 -1.9277,-0.7812 -0.3008,-0.7108 -9e-4,-1.5333 0.6869,-1.8837 z m -1.542,0.6397 c 0.5284,-0.176 1.0456,-0.3868 1.542,-0.6397 v 0 c 0.7237,-0.3687 1.6093,-0.0809 1.978,0.6429 0.3687,0.7237 0.0809,1.6093 -0.6429,1.978 -0.0309,0.0158 -0.0624,0.0304 -0.0943,0.044 -0.6412,0.2713 -1.303,0.493 -1.9757,0.6719 v 0 c -0.7517,0.1999 -1.523,-0.2474 -1.7229,-0.999 -0.1912,-0.7191 0.2099,-1.4629 0.9158,-1.6981 z m -1.6195,0.5151 c 0.5428,-0.1622 1.0821,-0.336 1.6195,-0.5151 v 0 c 0.7379,-0.2458 1.5354,0.1531 1.7812,0.891 0.2459,0.7379 -0.153,1.5354 -0.8909,1.7812 -0.0275,0.009 -0.0552,0.0175 -0.0832,0.0249 -0.6301,0.1676 -1.2714,0.3021 -1.9206,0.3683 v 0 c -0.7174,0.0731 -1.3583,-0.4493 -1.4314,-1.1667 -0.0636,-0.6235 0.3248,-1.2043 0.9254,-1.3836 z m -1.316,0.1808 c 0.4429,-0.007 0.8903,-0.0537 1.3159,-0.1808 v 0 c 0.6911,-0.2064 1.4186,0.1864 1.625,0.8775 0.2064,0.691 -0.1865,1.4185 -0.8775,1.6249 -0.0788,0.0235 -0.1596,0.0396 -0.2413,0.0479 -0.6546,0.0667 -1.3165,0.0351 -1.9671,-0.0566 v 0 c -0.6356,-0.0896 -1.0782,-0.6775 -0.9885,-1.3131 0.0799,-0.567 0.5609,-0.9913 1.1335,-0.9999 z m -1.8539,0.1195 v 0 c 0.0906,-0.5847 0.6381,-0.9852 1.2228,-0.8945 0.4258,0.066 0.7707,0.3808 0.8752,0.7989 l -9e-4,-0.002 c 0.6296,0.1247 1.0389,0.7363 0.9142,1.3659 -0.1199,0.6051 -0.6916,1.0111 -1.3023,0.925 -0.5221,-0.0736 -1.0316,-0.292 -1.3658,-0.7135 -0.3325,-0.4192 -0.4237,-0.9605 -0.3432,-1.4799 z m 0,0 c 0.1132,-0.73 0.4233,-1.4101 0.8896,-1.9822 v 0 c 0.4071,-0.4994 1.142,-0.5743 1.6414,-0.1672 0.4995,0.4071 0.5743,1.142 0.1672,1.6414 -0.0659,0.0809 -0.1423,0.1525 -0.2273,0.2131 -0.1943,0.1385 -0.3214,0.3337 -0.347,0.5729 v 0 c -0.0629,0.5884 -0.5908,1.0143 -1.1792,0.9514 -0.5883,-0.0629 -1.0142,-0.5909 -0.9513,-1.1792 0.002,-0.0168 0.004,-0.0335 0.007,-0.0502 z m 0.8896,-1.9821 c 0.4509,-0.5533 0.9839,-1.0365 1.5615,-1.4543 v 0 c 0.6073,-0.4393 1.4558,-0.3031 1.8951,0.3042 0.4393,0.6073 0.3031,1.4558 -0.3042,1.8951 -0.0575,0.0416 -0.1181,0.0786 -0.1814,0.1107 -0.4817,0.2444 -0.9495,0.5179 -1.3897,0.8315 v 0 c -0.5247,0.3739 -1.2532,0.2516 -1.6271,-0.2732 -0.3049,-0.4279 -0.2861,-1.0068 0.0458,-1.414 z m 1.5615,-1.4543 c 0.6389,-0.4622 1.3492,-0.8221 2.0993,-1.0654 h -10e-5 c 0.7822,-0.2538 1.6219,0.1745 1.8757,0.9567 0.2538,0.7821 -0.1746,1.6219 -0.9567,1.8756 -0.0546,0.0177 -0.1101,0.0323 -0.1663,0.0436 -0.5008,0.1005 -0.9868,0.26829 -1.4424,0.4995 v 0 c -0.6684,0.33909 -1.4852,0.0722 -1.8244,-0.59631 -0.3021,-0.5955 -0.1262,-1.32229 0.4149,-1.71369 z m 2.0992,-1.0654 c 0.7244,-0.235 1.4764,-0.3839 2.2361,-0.4382 v 0 c 0.8637,-0.0619 1.6141,0.5883 1.6759,1.4521 0.0618,0.8638 -0.5883,1.6141 -1.4521,1.6759 -0.0254,0.002 -0.0508,0.003 -0.0763,0.004 -0.5477,0.0125 -1.0939,0.0746 -1.6309,0.1825 v 0 c -0.8062,0.1619 -1.591,-0.3604 -1.7529,-1.1666 -0.1488,-0.7411 0.2813,-1.476 1.0002,-1.7093 z m 2.2361,-0.4382 c 0.7756,-0.0555 1.5587,0.002 2.3153,0.1838 v 0 c 0.869,0.2086 1.4043,1.0821 1.1957,1.9511 -0.2086,0.869 -1.0822,1.4043 -1.9512,1.1957 -0.0311,-0.008 -0.062,-0.0159 -0.0926,-0.0252 -0.427,-0.1297 -0.874,-0.1839 -1.3197,-0.1738 v 0 c -0.8658,0.0197 -1.5836,-0.6662 -1.6032,-1.532 -0.0191,-0.8361 0.6215,-1.5399 1.4557,-1.5996 z m 2.3153,0.1838 c 0.9829,0.2359 1.8357,0.8282 2.5305,1.5471 v 0 c 0.6314,0.6532 0.6136,1.6947 -0.0397,2.3261 -0.6532,0.6314 -1.6947,0.6136 -2.326,-0.0397 0,0 -10e-5,0 -10e-5,0 -0.2814,-0.2911 -0.6166,-0.5915 -1.0128,-0.7119 v 0 c -0.8551,-0.2598 -1.3376,-1.1636 -1.0779,-2.0186 0.249,-0.8194 1.0933,-1.3029 1.926,-1.103 z m 2.5305,1.5471 c 0.7945,0.822 1.3695,1.8339 1.8052,2.8844 v 0 c 0.3422,0.8251 -0.0492,1.7713 -0.8742,2.1135 -0.8051,0.3339 -1.73,-0.0302 -2.0914,-0.8233 -0.3087,-0.6775 -0.6845,-1.3492 -1.2053,-1.8881 v 0 c -0.6314,-0.6533 -0.6137,-1.6947 0.0396,-2.3261 0.6532,-0.6314 1.6947,-0.6137 2.3261,0.0396 0,0 0,0 0,0 z m 1.8052,2.8844 c 0.5014,1.2088 0.8311,2.4843 1.0555,3.7717 v 0 c 0.1487,0.8527 -0.422,1.6644 -1.2747,1.8131 -0.839,0.1463 -1.6413,-0.4043 -1.8066,-1.2399 -0.2068,-1.0455 -0.497,-2.0829 -0.9398,-3.0547 v 0 c -0.3703,-0.8128 -0.0116,-1.7719 0.8012,-2.1423 0.8128,-0.3703 1.7719,-0.0116 2.1423,0.8012 0.008,0.0168 0.015,0.0338 0.0221,0.0509 z m 1.0555,3.7717 c 0.2789,1.5993 0.3012,3.2378 0.2013,4.8547 v 0 c -0.0452,0.7316 -0.675,1.2881 -1.4066,1.2429 -0.6452,-0.0398 -1.1679,-0.5388 -1.2377,-1.1815 -0.158,-1.4545 -0.3543,-2.9071 -0.6383,-4.3429 v 0 c -0.1679,-0.8491 0.3843,-1.6735 1.2334,-1.8415 0.8491,-0.1679 1.6735,0.3843 1.8414,1.2334 0.002,0.0116 0.004,0.0232 0.006,0.0349 z m -3.3263,18.2923 c 0.3105,-2.9653 0.6046,-5.9348 0.7967,-8.9105 0.0626,-0.9687 0.1154,-1.9389 0.1295,-2.9096 0.008,-0.5174 0.013,-1.0408 -0.0429,-1.5561 v 0 c -0.0791,-0.7287 0.4475,-1.3837 1.1762,-1.4628 0.7288,-0.0791 1.3837,0.4475 1.4629,1.1763 0.008,0.0747 0.01,0.15 0.005,0.2251 -0.0417,0.6754 -0.1474,1.3474 -0.2576,2.0144 -0.1534,0.9273 -0.3314,1.8505 -0.5172,2.7718 -0.5928,2.941 -1.2645,5.8662 -1.9486,8.7871 v 0 c -0.0515,0.21969 -0.2713,0.3561 -0.491,0.3047 -0.2005,-0.047 -0.3347,-0.2357 -0.3132,-0.4404 z"
             style="fill:#000000;fill-opacity:1;fill-rule:nonzero;stroke:none;stroke-width:0.99999994"
             id="path2200"
             inkscape:connector-curvature="0" /><path
             d="m 255.35203,448.6469 c 0.1429,0.2492 0.3385,0.4709 0.5272,0.6858 0.3751,0.4271 0.7765,0.8313 1.1828,1.2286 v 0 c 0.1736,0.1697 0.1768,0.448 0.007,0.6216 -0.1427,0.146 -0.3671,0.1745 -0.5418,0.0688 -0.5819,-0.3519 -1.1672,-0.7011 -1.7694,-1.0174 -0.1707,-0.0896 -0.3432,-0.1781 -0.521,-0.2531 -0.064,-0.027 -0.1796,-0.0479 -0.0428,-0.0311 v 0 c -0.5812,-0.0715 -0.9945,-0.6006 -0.923,-1.18189 0.0714,-0.58121 0.6006,-0.9945 1.1818,-0.92301 0.4377,0.0538 0.7964,0.3729 0.9008,0.8013 l -0.002,4e-4 z m -2.4008,-0.2865 c 0.1392,-0.5782 0.6219,-0.9786 1.1847,-1.108 0.2298,-0.0528 0.4674,-0.064 0.7023,-0.051 v 0 c 0.8567,0.0476 1.5125,0.7807 1.4649,1.6373 -0.0476,0.8567 -0.7806,1.5125 -1.6372,1.4649 -0.2272,-0.0126 -0.4488,-0.0749 -0.6492,-0.1826 -0.3205,-0.1722 -0.6455,-0.3621 -0.8581,-0.667 v 0 c -0.0722,-0.1036 -0.1297,-0.2168 -0.1708,-0.3362 l -0.0543,-0.2096 c -0.0316,-0.1819 -0.0256,-0.3684 0.0177,-0.5478 z m 1.887,-1.159 c 0.3594,0.02 0.7118,0.12 1.0529,0.2293 0.3852,0.1235 0.7639,0.2676 1.1397,0.417 1.1935,0.4747 2.3643,1.0071 3.5299,1.5461 v 0 c 0.9587,0.4433 1.3766,1.5799 0.9333,2.5386 -0.4433,0.9588 -1.5799,1.3766 -2.5387,0.9333 -0.0449,-0.0207 -0.089,-0.0432 -0.1321,-0.0674 -1.5995,-0.8961 -3.1913,-1.80949 -4.8064,-2.67729 v 0 c -0.7558,-0.40611 -1.0393,-1.348 -0.6332,-2.1037 0.2854,-0.5313 0.8525,-0.8493 1.4546,-0.8159 z m 5.7225,2.1924 c 2.7068,1.2515 5.4169,2.496 8.1316,3.7303 v 10e-5 c 1.0542,0.4793 1.5202,1.7224 1.0409,2.7766 -0.4794,1.0542 -1.7225,1.5202 -2.7767,1.0409 0,0 0,0 0,0 -2.7707,-1.2598 -5.4784,-2.6559 -8.1333,-4.1434 v 0 c -0.9216,-0.5163 -1.25,-1.6819 -0.7338,-2.6034 0.4882,-0.8713 1.5647,-1.2203 2.4713,-0.8011 z m 8.1316,3.7304 c 2.3827,1.0834 4.7689,2.159 7.1604,3.2228 v 0 c 1.0424,0.4636 1.5115,1.6844 1.0479,2.7267 -0.458,1.0298 -1.6569,1.5023 -2.6944,1.0619 -1.1731,-0.4979 -2.3426,-1.0047 -3.5088,-1.5186 -0.6397,-0.28181 -1.2785,-0.5657 -1.9164,-0.8516 -0.6745,-0.30231 -1.4275,-0.5596 -2.0569,-0.9475 v 0 c -0.9858,-0.6077 -1.2923,-1.8995 -0.6846,-2.8853 0.5543,-0.8993 1.6911,-1.2457 2.6528,-0.8084 z m 7.1604,3.2228 c 1.9596,0.8716 3.9248,1.7313 5.9015,2.5634 v 0 c 1.0025,0.42199 1.473,1.57669 1.051,2.5792 -0.4083,0.96999 -1.5071,1.44759 -2.4949,1.08429 -2.0565,-0.7563 -4.0872,-1.5822 -6.1041,-2.43819 v 0 c -1.0501,-0.4458 -1.54,-1.6584 -1.0943,-2.7085 0.4457,-1.0501 1.6584,-1.54 2.7085,-1.0943 0.0108,0.005 0.0216,0.009 0.0323,0.0141 z m 5.9015,2.5634 c 1.4737,0.62029 2.9414,1.2655 4.3595,2.0058 v 0 c 0.8627,0.4504 1.197,1.51489 0.7466,2.37769 -0.4016,0.76931 -1.3036,1.13171 -2.1258,0.8541 -1.4831,-0.5007 -2.9551,-1.03389 -4.4242,-1.5741 v 0 c -1.0208,-0.37539 -1.544,-1.50729 -1.1686,-2.52819 0.3754,-1.02081 1.5073,-1.54401 2.5281,-1.1686 0.0284,0.0104 0.0565,0.0215 0.0844,0.0333 z m 4.3595,2.0058 c 0.5019,0.26209 0.9989,0.53599 1.4763,0.8409 0.3716,0.2373 0.7388,0.4936 1.0529,0.80479 v -9e-5 c 0.5644,0.55899 0.5687,1.4696 0.01,2.034 -0.3751,0.37869 -0.929,0.5189 -1.4392,0.3641 -0.8319,-0.2523 -1.6553,-0.5339 -2.4789,-0.81191 v 0 c -0.9221,-0.31129 -1.4173,-1.31119 -1.106,-2.23329 0.3113,-0.92211 1.3112,-1.4173 2.2333,-1.10601 0.0866,0.0292 0.1708,0.0652 0.2519,0.10751 z m 0.0857,2.8068 v 10e-5 c -0.077,-0.7906 0.5015,-1.49391 1.292,-1.5709 0.4257,-0.0414 0.8477,0.1087 1.1515,0.4096 0.5138,0.50889 0.6845,1.3283 0.2346,1.94679 v 0 c -0.2255,0.31001 -0.5731,0.5085 -0.9547,0.5451 -0.2424,0.0232 -0.479,-0.0239 -0.7094,-0.0938 v 0 c -0.3489,-0.1058 -0.6445,-0.3401 -0.8272,-0.65561 l 0.002,-0.004 c -0.2043,-0.0866 -0.2997,-0.3224 -0.2131,-0.5267 0.007,-0.0176 0.0162,-0.0347 0.0261,-0.051 l -0.002,5e-4 z"
             style="fill:#000000;fill-opacity:1;fill-rule:nonzero;stroke:none;stroke-width:0.99999994"
             id="path2204"
             inkscape:connector-curvature="0" /><path
             d="m 279.14303,452.7504 h 10e-5 c 0.0655,-0.1533 0.1668,-0.2887 0.2954,-0.3947 0.4875,-0.4019 1.1708,-0.2725 1.605,0.1287 0.2185,0.2018 0.3786,0.4588 0.4982,0.7293 v 0 c 0.2838,0.6419 -0.006,1.3923 -0.6484,1.6761 -0.6419,0.2838 -1.3924,-0.006 -1.6762,-0.6484 -0.0427,-0.0967 -0.0733,-0.1984 -0.0909,-0.3028 -0.0648,-0.3849 -0.1422,-0.8161 0.0168,-1.1882 z m 2.3987,0.4633 c 0.2284,0.5166 0.3697,1.0706 0.4838,1.6223 0.149,0.7208 0.2472,1.4518 0.3254,2.1833 v 0 c 0.0848,0.7923 -0.4888,1.5033 -1.2812,1.5881 -0.7923,0.0847 -1.5033,-0.4889 -1.5881,-1.2812 -9.7e-4,-0.014 -0.003,-0.028 -0.004,-0.042 -0.0865,-1.1155 -0.1655,-2.2412 -0.3516,-3.3456 v 0 c -0.1165,-0.6921 0.35,-1.3476 1.0421,-1.4642 0.573,-0.0965 1.1384,0.2079 1.3734,0.7393 z m 0.8092,3.8056 c 0.1389,1.2987 0.1951,2.60769 0.2549,3.9119 0.1023,2.23339 0.1718,4.46839 0.2339,6.70309 v 0 c 0.007,0.25391 -0.1931,0.46551 -0.447,0.47261 -0.2101,0.006 -0.3975,-0.1316 -0.4551,-0.3338 -0.6145,-2.158 -1.2115,-4.3231 -1.7273,-6.5071 -0.1853,-0.7848 -0.3604,-1.57271 -0.5055,-2.366 -0.0978,-0.5347 -0.185,-1.0735 -0.227,-1.6158 v 0 c -0.0616,-0.7945 0.5325,-1.4884 1.327,-1.55 0.7781,-0.0603 1.4631,0.5091 1.5461,1.2851 z"
             style="fill:#000000;fill-opacity:1;fill-rule:nonzero;stroke:none;stroke-width:0.99999994"
             id="path2210"
             inkscape:connector-curvature="0" /><path
             d="m 277.19683,475.9429 c 0.4673,-0.797 1.3482,-1.3615 2.2957,-1.2416 v 0 c 0.7813,0.0988 1.3345,0.8123 1.2357,1.5936 -0.0988,0.7813 -0.8123,1.3346 -1.5936,1.2357 -0.1583,-0.02 -0.3122,-0.0664 -0.4551,-0.1374 -0.4872,-0.2418 -0.9424,-0.548 -1.3723,-0.8801 v 0 c -0.175,-0.1352 -0.2223,-0.3794 -0.1104,-0.5702 z m 2.2956,-1.2417 c 0.7884,0.0997 1.5486,0.4387 2.2629,0.7695 v 0 c 0.8021,0.3714 1.1513,1.3227 0.7798,2.1248 -0.3714,0.8021 -1.3227,1.1512 -2.1248,0.7798 -0.0529,-0.0245 -0.1044,-0.0519 -0.1544,-0.082 -0.5169,-0.312 -1.0351,-0.6314 -1.5764,-0.9001 v 0 c -0.7054,-0.3501 -0.9934,-1.2058 -0.6433,-1.9112 0.2698,-0.5436 0.8541,-0.8569 1.4562,-0.7807 z m 2.263,0.7695 c 1.0541,0.4881 2.0261,1.1442 2.9344,1.8644 v 0 c 0.6958,0.5516 0.8127,1.5629 0.2611,2.2587 -0.5225,0.659 -1.4645,0.804 -2.161,0.3327 -0.8322,-0.5632 -1.6735,-1.114 -2.534,-1.6332 v 0 c -0.7568,-0.4567 -1,-1.4404 -0.5434,-2.1972 0.4218,-0.699 1.3021,-0.9685 2.0429,-0.6254 z m 2.9344,1.8644 c 0.493,0.3908 0.9473,0.8513 1.2678,1.3963 0.1442,0.2451 0.2621,0.5098 0.3233,0.7885 0.0572,0.2605 0.0708,0.556 -0.0524,0.8007 v 0 c -0.0366,0.0725 -0.0854,0.1381 -0.1445,0.1938 -0.2163,0.2041 -0.534,0.2717 -0.8219,0.2842 -0.2853,0.0123 -0.5716,-0.0298 -0.8473,-0.1014 -0.5831,-0.1513 -1.128,-0.4345 -1.6249,-0.7707 v 0 c -0.7353,-0.4977 -0.928,-1.4973 -0.4304,-2.2326 0.4977,-0.7354 1.4972,-0.9281 2.2326,-0.4305 0.0335,0.0227 0.0661,0.0466 0.0977,0.0717 z"
             style="fill:#000000;fill-opacity:1;fill-rule:nonzero;stroke:none;stroke-width:0.99999994"
             id="path2212"
             inkscape:connector-curvature="0" /><path
             d="m 267.66983,472.0531 c -0.0135,0.1915 0.0201,0.3875 0.0573,0.5746 0.0638,0.32 0.1581,0.6339 0.2624,0.9427 v 0 c 0.0777,0.2301 -0.0458,0.4795 -0.2759,0.5572 -0.23,0.0777 -0.4794,-0.0458 -0.5571,-0.2758 -0.1438,-0.4257 -0.2967,-0.8533 -0.4983,-1.2557 -0.0528,-0.1053 -0.1083,-0.2122 -0.1789,-0.3069 -0.046,-0.0618 0.1494,0.0849 0.1823,0.0976 v 0 c -0.4317,-0.1667 -0.6465,-0.6517 -0.4798,-1.0834 0.1667,-0.4316 0.6518,-0.6464 1.0834,-0.4797 0.4317,0.16669 0.6465,0.6517 0.4798,1.0834 -0.0198,0.0512 -0.0446,0.1004 -0.074,0.1468 l -9.7e-4,-7.5e-4 z m -1.6157,-0.7698 v 0 c 0.0227,-0.1068 0.0635,-0.2088 0.1206,-0.3018 l -9.7e-4,-6e-4 c 0.0546,-0.0903 0.1237,-0.17111 0.2045,-0.239 0.4489,-0.3771 1.099,-0.28131 1.4694,0.1451 0.1152,0.1327 0.2002,0.2884 0.2633,0.4518 0.101,0.2611 0.1526,0.5401 0.1913,0.8164 v 0 c 0.0352,0.251 -0.1397,0.4831 -0.3908,0.5183 -0.0616,0.009 -0.1243,0.005 -0.1843,-0.0117 -0.28,-0.0763 -0.5599,-0.1535 -0.8416,-0.2234 l -10e-5,7.5e-4 c -0.0767,-0.007 -0.152,-0.0249 -0.2238,-0.0527 -0.4377,-0.169 -0.7078,-0.6314 -0.6075,-1.1035 z"
             style="fill:#000000;fill-opacity:1;fill-rule:nonzero;stroke:none;stroke-width:0.99999994"
             id="path2218"
             inkscape:connector-curvature="0" /><path
             d="m 273.40283,490.0931 c 0.0375,-0.1601 0.0758,-0.3205 0.1213,-0.4786 0.0411,-0.1423 0.0866,-0.2912 0.1966,-0.3969 v 0 c 0.0516,-0.0496 0.1138,-0.0868 0.1818,-0.1089 l 0.129,-0.0233 c 0.0816,-0.003 0.1626,0.0154 0.235,0.0533 0.1651,0.0863 0.2479,0.2496 0.3169,0.4134 0.0655,0.1555 0.121,0.3154 0.1751,0.4752 v 0 c 0.1251,0.3692 -0.0728,0.7698 -0.4419,0.8949 -0.3692,0.1251 -0.7699,-0.0727 -0.895,-0.4419 -0.0422,-0.1248 -0.0488,-0.2589 -0.0188,-0.3872 z m 0,0 v 0 c 0.0888,-0.3795 0.4684,-0.6153 0.8479,-0.5265 0.2375,0.0555 0.4295,0.2297 0.5078,0.4607 0.1974,0.5826 0.3991,1.1638 0.6049,1.7435 v 0 c 0.1901,0.5352 -0.0897,1.1231 -0.6249,1.3131 -0.5352,0.1901 -1.1231,-0.0897 -1.3131,-0.6249 -0.014,-0.0392 -0.0255,-0.0792 -0.0346,-0.1199 -0.1648,-0.7376 -0.16,-1.5101 0.012,-2.246 z m 1.9606,1.6777 c 0.1303,0.3667 0.2722,0.7521 0.4962,1.074 v 0 c 0.3633,0.5223 0.2345,1.2401 -0.2878,1.6034 -0.5222,0.3634 -1.2401,0.2345 -1.6034,-0.2877 -0.0528,-0.076 -0.0963,-0.158 -0.1295,-0.2444 -0.1962,-0.5101 -0.3291,-1.0444 -0.4481,-1.577 v 0 c -0.1238,-0.5542 0.2251,-1.1039 0.7794,-1.2278 0.5072,-0.1133 1.0193,0.1697 1.1932,0.6595 z m 0.4962,1.074 c 0.1558,0.224 0.3297,0.4363 0.526,0.6261 v 0 c 0.4929,0.4767 0.506,1.2628 0.0293,1.7557 -0.4767,0.4929 -1.2627,0.5061 -1.7557,0.0293 -0.0265,-0.0257 -0.0519,-0.0525 -0.0761,-0.0805 -0.3209,-0.3712 -0.5684,-0.8019 -0.7442,-1.2593 v 0 c -0.2284,-0.5938 0.0679,-1.2602 0.6616,-1.4886 0.4951,-0.1904 1.0562,-0.0181 1.3591,0.4173 z m 0.526,0.6261 c -0.0208,-0.02 -0.003,-0.004 0.01,0.004 0.0416,0.0253 0.086,0.0459 0.1306,0.065 0.198,0.085 0.4086,0.1413 0.6179,0.1904 v 0 c 0.6901,0.16191 1.1184,0.85251 0.9566,1.5427 -0.1619,0.69011 -0.8525,1.1184 -1.5427,0.9566 -0.016,-0.004 -0.0319,-0.008 -0.0477,-0.0121 -0.7008,-0.19301 -1.4396,-0.4778 -1.9272,-1.0419 v 0 c -0.4485,-0.51881 -0.3914,-1.3029 0.1273,-1.7513 0.4863,-0.4204 1.2131,-0.40011 1.6752,0.0468 z m 0.7585,0.2592 c 0.4478,0.105 0.9113,0.1954 1.3733,0.1922 v 0 c 0.7259,-0.005 1.3185,0.5791 1.3237,1.3051 0.005,0.7259 -0.5792,1.3185 -1.3051,1.3237 -0.0145,10e-5 -0.029,-1e-4 -0.0435,-4e-4 -0.6713,-0.0175 -1.3367,-0.1557 -1.9822,-0.3334 v 0 c -0.6834,-0.1882 -1.0849,-0.8948 -0.8968,-1.5782 0.1831,-0.665 0.859,-1.0664 1.5306,-0.909 z m 1.3733,0.1922 c 0.4314,-0.003 0.8622,-0.0408 1.2891,-0.1012 v 0 c 0.7338,-0.1039 1.4128,0.4067 1.5167,1.1404 0.1039,0.7338 -0.4068,1.4128 -1.1405,1.5167 -0.0181,0.002 -0.0362,0.005 -0.0543,0.006 -0.5433,0.0545 -1.0899,0.0802 -1.6359,0.066 v 0 c -0.7257,-0.0189 -1.2987,-0.6225 -1.2798,-1.3482 0.0184,-0.7088 0.5957,-1.2752 1.3047,-1.2802 z m 1.2891,-0.1012 c 0.7865,-0.1114 1.5633,-0.319 2.3318,-0.5146 v 0 c 0.7326,-0.1866 1.4777,0.2561 1.6642,0.9887 0.1865,0.7326 -0.2562,1.4777 -0.9888,1.6642 -0.005,7.5e-4 -0.0111,0.003 -0.0167,0.004 -0.8774,0.21169 -1.7685,0.4311 -2.6686,0.52119 v 0 c -0.7374,0.0739 -1.395,-0.464 -1.4689,-1.20129 -0.0718,-0.71621 0.4344,-1.36151 1.147,-1.46231 z m 2.3318,-0.5147 c 1.0388,-0.2644 2.1005,-0.4817 3.1729,-0.5419 v 0 c 0.7538,-0.0423 1.3993,0.5345 1.4416,1.2884 0.0417,0.7427 -0.5181,1.3824 -1.2598,1.4397 -0.9097,0.0702 -1.8105,0.2573 -2.696,0.4709 v 0 c -0.7348,0.1773 -1.4743,-0.2747 -1.6516,-1.0096 -0.1757,-0.7283 0.2668,-1.4626 0.9929,-1.6475 z m 3.1729,-0.5419 c 0.667,-0.0374 1.3931,-0.0916 2.0445,0.093 v 0 c 0.7135,0.2021 1.1281,0.9444 0.9259,1.658 -0.194,0.685 -0.889,1.0994 -1.5839,0.9447 0.0279,0.006 -0.0524,-0.004 -0.0607,-0.005 -0.0807,-0.005 -0.1616,-0.006 -0.2425,-0.006 -0.3008,7.5e-4 -0.6017,0.0204 -0.9015,0.0436 v 0 c -0.7528,0.0581 -1.4102,-0.505 -1.4683,-1.2579 -0.0581,-0.7528 0.505,-1.4102 1.2578,-1.4683 0.01,-7e-4 0.0191,-7.5e-4 0.0287,-0.002 z m 2.0445,0.093 c 0.8566,0.2427 1.3188,1.0489 1.5768,1.8419 v 0 c 0.223,0.6854 -0.1519,1.4218 -0.8373,1.6448 -0.6576,0.214 -1.3679,-0.1222 -1.6195,-0.7664 -0.0321,-0.0822 -0.0675,-0.163 -0.1085,-0.2412 l -9.7e-4,0.002 c -0.6568,-0.34431 -0.9101,-1.1559 -0.5658,-1.81281 0.2951,-0.56269 0.9441,-0.84159 1.5554,-0.6684 z m 1.5768,1.8419 c 0.2084,0.6406 0.3472,1.3359 0.2371,2.0092 v 0 c -0.1051,0.6425 -0.7111,1.0782 -1.3536,0.9732 -0.4851,-0.0794 -0.8701,-0.4514 -0.966,-0.9335 -0.0797,-0.4011 -0.226,-0.7907 -0.3743,-1.1705 v -1e-4 c -0.2621,-0.6714 0.0697,-1.4281 0.7412,-1.6903 0.6714,-0.2621 1.4282,0.0697 1.6903,0.7412 0.009,0.0233 0.0175,0.0469 0.0253,0.0708 z m -2.2133,3.2639 c 0.06,-0.275 0.1114,-0.5534 0.1336,-0.8343 0.01,-0.1235 0.0217,-0.2578 -0.003,-0.3807 v 0 c -0.127,-0.6385 0.2877,-1.2591 0.9263,-1.3861 0.6385,-0.127 1.2591,0.2877 1.3861,0.9263 0.0275,0.1384 0.0299,0.2808 0.007,0.4201 -0.1004,0.6138 -0.3023,1.2129 -0.5039,1.7994 v 0 c -0.1817,0.5288 -0.7576,0.8101 -1.2864,0.6284 -0.4858,-0.1669 -0.7695,-0.6712 -0.6601,-1.1731 z m -0.6438,2.3883 c 0.2453,-0.7872 0.4681,-1.5825 0.6438,-2.3883 v 0 c 0.1192,-0.5463 0.6586,-0.8925 1.2048,-0.7734 0.5463,0.1191 0.8926,0.6586 0.7734,1.2048 -0.008,0.0384 -0.0189,0.0762 -0.0317,0.1133 -0.3421,0.9953 -1.1142,1.7791 -2.0076,2.3055 v 0 c -0.1896,0.1117 -0.4339,0.0486 -0.5456,-0.141 -0.0571,-0.097 -0.0706,-0.2135 -0.0371,-0.3209 z"
             style="fill:#000000;fill-opacity:1;fill-rule:nonzero;stroke:none;stroke-width:0.99999994"
             id="path2220"
             inkscape:connector-curvature="0" /><path
             d="m 282.67813,487.8708 c 0.023,-0.2429 0.0454,-0.486 0.0638,-0.7293 0.008,-0.106 0.0237,-0.2168 0.0169,-0.3232 h 1e-4 c -0.0225,-0.3557 0.2476,-0.6623 0.6034,-0.6848 0.3557,-0.0224 0.6623,0.2477 0.6847,0.6034 0.0171,0.2705 -0.1366,0.5229 -0.3848,0.6317 -0.0628,0.1882 -0.0901,0.3873 -0.1088,0.585 v 0 c -0.0229,0.2417 -0.2373,0.4191 -0.479,0.3962 -0.2417,-0.0228 -0.4192,-0.2373 -0.3963,-0.479 0,0 0,0 0,0 z m 0.0967,-1.2968 v 0 c 0.04,-0.1365 0.118,-0.2589 0.2249,-0.3529 0.3359,-0.295 0.8214,-0.2277 1.1495,0.0341 0.1752,0.1398 0.3095,0.3244 0.4165,0.5199 0.2101,0.3839 0.3313,0.8147 0.4285,1.239 v 0 c 0.1362,0.5945 -0.2354,1.1868 -0.8298,1.323 -0.5945,0.1362 -1.1869,-0.2353 -1.3231,-0.8298 -0.0124,-0.0542 -0.0207,-0.1092 -0.0248,-0.1646 -0.027,-0.3631 -0.0533,-0.7265 -0.0698,-1.0903 -0.01,-0.2206 -0.0348,-0.4634 0.0281,-0.6784 z m 0.0179,6.8148 c 0.0355,-1.0428 0.064,-2.0861 0.0684,-3.1295 0.003,-0.6384 0.003,-1.2796 -0.0446,-1.9166 v 0 c -0.0453,-0.6082 0.4111,-1.138 1.0193,-1.1833 0.5443,-0.0405 1.0365,0.3227 1.1584,0.8547 0.1598,0.6976 0.2423,1.4137 0.3154,2.1246 0.1102,1.0709 0.1817,2.1456 0.2415,3.2203 v 0 c 0.0423,0.7613 -0.5405,1.4128 -1.3018,1.4552 -0.7614,0.0423 -1.4129,-0.5405 -1.4552,-1.3018 -0.002,-0.0412 -0.003,-0.0824 -9.7e-4,-0.1236 z m -0.3377,5.0102 c 0.0983,-0.624 0.1446,-1.2572 0.1877,-1.8869 0.0712,-1.0399 0.1147,-2.0816 0.15,-3.1233 v 0 c 0.0259,-0.762 0.6647,-1.3588 1.4267,-1.333 0.7143,0.0243 1.292,0.5896 1.3317,1.3032 0.0601,1.0803 0.1082,2.1621 0.117,3.2442 0.006,0.7397 9.8e-4,1.4851 -0.0827,2.221 h 1e-4 c -0.099,0.8669 -0.8821,1.4895 -1.749,1.3906 -0.867,-0.099 -1.4896,-0.8821 -1.3906,-1.749 0.002,-0.0223 0.006,-0.0446 0.009,-0.0668 z m -0.5264,2.6657 c 0.2119,-0.8809 0.3853,-1.7708 0.5264,-2.6657 v 0 c 0.1358,-0.862 0.9447,-1.4506 1.8066,-1.3147 0.8361,0.1317 1.4198,0.8989 1.3239,1.7399 -0.1144,1.002 -0.2803,1.9984 -0.5061,2.9814 v 0 c -0.2002,0.8711 -1.0686,1.4151 -1.9397,1.2149 -0.8711,-0.2001 -1.415,-1.0685 -1.2149,-1.9396 9.8e-4,-0.005 0.003,-0.0108 0.004,-0.0162 z m -0.6742,2.4748 c 0.2512,-0.8175 0.4742,-1.6434 0.6742,-2.4748 v 0 c 0.2091,-0.869 1.0831,-1.404 1.9521,-1.1949 0.8627,0.2075 1.3974,1.0711 1.1987,1.9358 -0.2063,0.8979 -0.4368,1.7902 -0.6965,2.6741 v 0 c -0.2542,0.8656 -1.162,1.3611 -2.0276,1.1068 -0.8655,-0.2542 -1.3611,-1.162 -1.1068,-2.0276 0.002,-0.007 0.004,-0.0129 0.006,-0.0194 z m -1.1608,3.0648 c 0.4239,-1.0053 0.84,-2.021 1.1608,-3.0648 v 0 c 0.265,-0.8623 1.1788,-1.3465 2.0412,-1.0815 0.8547,0.2626 1.3394,1.1638 1.0873,2.0217 -0.3407,1.16 -0.7951,2.2872 -1.2644,3.4001 v 0 c -0.3522,0.8353 -1.3149,1.227 -2.1502,0.8747 -0.8353,-0.3522 -1.2269,-1.3149 -0.8747,-2.1502 z m -1.1852,2.6092 c 0.4556,-0.8371 0.8155,-1.7323 1.1852,-2.6091 v 0 c 0.3522,-0.8353 1.3149,-1.227 2.1502,-0.8748 0.8353,0.3522 1.2269,1.3149 0.8747,2.1502 0,0 0,0 0,0 -0.4202,0.9966 -0.837,2.0202 -1.3983,2.9481 v 0 c -0.4636,0.7662 -1.4605,1.0117 -2.2268,0.5481 -0.7416,-0.4486 -0.9993,-1.4012 -0.585,-2.1625 z m -1.0447,1.406 c 0.3871,-0.4338 0.7657,-0.8934 1.0447,-1.4061 h 10e-5 c 0.4281,-0.7866 1.4128,-1.0772 2.1994,-0.6491 0.7866,0.4281 1.0772,1.4128 0.6491,2.1994 -0.0118,0.0217 -0.0241,0.0431 -0.0368,0.0642 -0.4203,0.6946 -0.9392,1.3274 -1.484,1.9272 v 0 c -0.5927,0.6525 -1.6021,0.701 -2.2546,0.1084 -0.6484,-0.5889 -0.701,-1.5904 -0.1179,-2.244 z m -1.1691,0.9366 c 0.4576,-0.205 0.8394,-0.567 1.1691,-0.9366 v 0 c 0.5868,-0.6577 1.5958,-0.7153 2.2535,-0.1284 0.6578,0.5868 0.7153,1.5957 0.1285,2.2534 -0.003,0.004 -0.006,0.007 -0.01,0.0106 -0.6397,0.7043 -1.3947,1.32459 -2.276,1.69959 v 0 c -0.8037,0.342 -1.7324,-0.0323 -2.0744,-0.83599 -0.3375,-0.7931 0.0222,-1.7103 0.8088,-2.06261 z m -1.0409,0.2897 c 0.3607,-0.0182 0.7142,-0.1434 1.0409,-0.2897 v 0 c 0.7971,-0.357 1.7328,-2e-4 2.0898,0.7969 0.357,0.7972 2e-4,1.7328 -0.797,2.0898 -0.009,0.004 -0.0181,0.008 -0.0272,0.0119 -0.6668,0.2837 -1.3723,0.4928 -2.0968,0.5524 v 0 c -0.8721,0.0717 -1.6372,-0.5771 -1.7089,-1.4491 -0.0717,-0.8721 0.5771,-1.6372 1.4492,-1.7089 0.0166,-7.5e-4 0.0333,-0.002 0.05,-0.003 z m 0.8467,0.1959 v 0 c 0.7656,0.4236 1.043,1.3876 0.6195,2.1532 -0.2566,0.4639 -0.7282,0.7688 -1.2566,0.8122 -0.6348,0.0522 -1.2787,-0.1183 -1.7593,-0.5488 -0.4719,-0.4228 -0.7143,-1.0285 -0.7681,-1.6505 v 0 c -0.0782,-0.9064 0.5931,-1.7046 1.4995,-1.7829 0.7184,-0.062 1.3937,0.3505 1.6665,1.0181 l -9.7e-4,-7.5e-4 z m -2.2126,-2.4871 v 0 c 0.4698,-0.8517 1.5411,-1.1612 2.3927,-0.6914 0.8517,0.4698 1.1613,1.5411 0.6915,2.3927 -0.0211,0.0382 -0.0435,0.0755 -0.0673,0.1119 -0.2089,0.3201 -0.41,0.6508 -0.5619,1.0024 -0.0454,0.105 -0.1155,0.2563 -0.1198,0.3621 v 0 c -0.0366,0.9091 -0.8032,1.6163 -1.7122,1.5797 -0.8288,-0.0334 -1.5035,-0.6778 -1.5749,-1.5043 -0.0988,-1.145 0.4123,-2.275 0.9519,-3.2531 z m 0,0 c 0.4578,-0.83 0.9335,-1.6688 1.5269,-2.4112 v 0 c 0.6503,-0.8135 1.8369,-0.9458 2.6505,-0.2955 0.8135,0.6503 0.9458,1.8369 0.2955,2.6504 -0.0563,0.0705 -0.1176,0.1368 -0.1834,0.1984 -0.1868,0.1752 -0.3493,0.3777 -0.5059,0.5797 -0.2724,0.3515 -0.5237,0.7192 -0.7667,1.0914 v 0 c -0.5316,0.8146 -1.6229,1.0439 -2.4374,0.5123 -0.7721,-0.504 -1.0249,-1.5182 -0.5795,-2.3255 z m 1.5269,-2.4112 c 0.4272,-0.5344 0.905,-1.0291 1.4345,-1.4629 v 0 c 0.857,-0.7023 2.1211,-0.5768 2.8234,0.2802 0.7023,0.8571 0.5769,2.1212 -0.2802,2.8235 -0.0769,0.063 -0.1584,0.1202 -0.2438,0.1711 -0.3506,0.2092 -0.6737,0.4625 -0.9713,0.7414 v 10e-5 c -0.7599,0.7122 -1.9532,0.6735 -2.6654,-0.0863 -0.6411,-0.684 -0.6824,-1.7349 -0.0972,-2.4671 z m 1.4345,-1.4629 c 0.5351,-0.4385 1.1266,-0.8094 1.7641,-1.0799 v 0 c 1.0809,-0.4585 2.3289,0.0461 2.7874,1.127 0.4585,1.0809 -0.0461,2.3289 -1.127,2.7874 -0.1122,0.0476 -0.2283,0.0854 -0.347,0.1131 -0.2753,0.0643 -0.5359,0.1828 -0.778,0.3272 v 0 c -0.9516,0.5677 -2.1832,0.2565 -2.7509,-0.6951 -0.5089,-0.853 -0.317,-1.9501 0.4514,-2.5797 z m 1.7641,-1.0799 c 0.6068,-0.2574 1.2464,-0.4353 1.899,-0.5277 v 0 c 1.2273,-0.1737 2.3631,0.6803 2.5368,1.9076 0.1738,1.2273 -0.6803,2.363 -1.9076,2.5368 -0.12,0.017 -0.2412,0.0242 -0.3624,0.0216 -0.2866,-0.006 -0.5733,0.0241 -0.8524,0.0892 v 10e-5 c -1.1434,0.2668 -2.2867,-0.4438 -2.5535,-1.5872 -0.235,-1.0068 0.2884,-2.0367 1.2401,-2.4404 z m 1.899,-0.5277 c 0.7992,-0.1131 1.6173,-0.0439 2.3916,0.1804 v 0 c 1.221,0.3537 1.924,1.6303 1.5703,2.8512 -0.3537,1.221 -1.6302,1.9241 -2.8512,1.5703 0,0 0,0 0,0 -0.2744,-0.0794 -0.5579,-0.1298 -0.8439,-0.1359 v 0 c -1.2392,-0.0264 -2.2224,-1.0524 -2.196,-2.2917 0.0235,-1.0995 0.8403,-2.0201 1.9292,-2.1743 z m 2.3917,0.1804 c 0.9842,0.2852 1.827,0.9115 2.517,1.6546 v 0 c 0.8558,0.9215 0.8025,2.3624 -0.1191,3.2182 -0.8925,0.8287 -2.279,0.8086 -3.147,-0.0458 -0.1241,-0.1222 -0.2558,-0.2405 -0.4023,-0.3354 -0.0386,-0.025 -0.0875,-0.0578 -0.1296,-0.0701 v 0 c -1.221,-0.3537 -1.924,-1.6302 -1.5703,-2.8512 0.3537,-1.221 1.6303,-1.924 2.8513,-1.5703 0,0 0,0 0,0 z m 2.517,1.6545 c 0.6865,0.7392 1.2535,1.5833 1.7448,2.4622 v -1e-4 c 0.6071,1.086 0.2189,2.4585 -0.8671,3.0656 -1.086,0.6071 -2.4585,0.2189 -3.0656,-0.8671 -0.298,-0.5332 -0.6408,-1.0576 -1.0782,-1.4881 v 0 c -0.8963,-0.8822 -0.9077,-2.324 -0.0255,-3.2203 0.8823,-0.8963 2.3241,-0.9077 3.2204,-0.0255 0.0243,0.0239 0.048,0.0484 0.0712,0.0733 z m 1.7448,2.4622 c 0.6042,1.0808 1.0612,2.2406 1.4436,3.4163 v 0 c 0.3711,1.1409 -0.253,2.3667 -1.3939,2.7378 -1.0725,0.3488 -2.2335,-0.1811 -2.6728,-1.2198 -0.3936,-0.931 -0.8161,-1.8531 -1.3096,-2.7359 v 0 c -0.6071,-1.086 -0.2188,-2.4585 0.8671,-3.0656 1.086,-0.607 2.4585,-0.2188 3.0656,0.8672 0,0 0,0 0,0 z m 1.4436,3.4163 c 0.4438,1.3645 0.7805,2.7626 1.0429,4.1727 v 0 c 0.2028,1.0893 -0.516,2.1368 -1.6053,2.3396 -1.0288,0.1915 -2.0321,-0.44 -2.3044,-1.4504 -0.3247,-1.2047 -0.7137,-2.3943 -1.1999,-3.5439 v 0 c -0.4672,-1.1051 0.0498,-2.3797 1.1548,-2.8469 1.1051,-0.4673 2.3797,0.0497 2.8469,1.1548 0.0242,0.0571 0.0459,0.1152 0.065,0.1741 z m 1.0429,4.1727 c 0.1084,0.5821 0.154,1.1757 0.187,1.7661 0.041,0.7341 0.0555,1.4696 0.0602,2.2047 0.0142,2.2187 -0.0583,4.4381 -0.1481,6.6546 v 0 c -0.011,0.2712 -0.2398,0.4822 -0.5111,0.4712 -0.2063,-0.008 -0.3853,-0.1447 -0.4483,-0.3414 -0.6717,-2.0994 -1.3402,-4.2001 -1.9914,-6.3061 -0.3655,-1.1822 -0.7359,-2.3648 -1.058,-3.5599 v 0 c -0.2883,-1.0699 0.3452,-2.171 1.4151,-2.4593 1.0699,-0.2884 2.171,0.3452 2.4594,1.4151 0.0138,0.0511 0.0255,0.1029 0.0352,0.155 z"
             style="fill:#000000;fill-opacity:1;fill-rule:nonzero;stroke:none;stroke-width:0.99999994"
             id="path2224"
             inkscape:connector-curvature="0" /></g></g></g></g></svg>