<?xml version="1.0" encoding="UTF-8" standalone="no"?>
<!-- Created with Inkscape (http://www.inkscape.org/) -->

<svg
   xmlns:dc="http://purl.org/dc/elements/1.1/"
   xmlns:cc="http://creativecommons.org/ns#"
   xmlns:rdf="http://www.w3.org/1999/02/22-rdf-syntax-ns#"
   xmlns:svg="http://www.w3.org/2000/svg"
   xmlns="http://www.w3.org/2000/svg"
   xmlns:sodipodi="http://sodipodi.sourceforge.net/DTD/sodipodi-0.dtd"
   xmlns:inkscape="http://www.inkscape.org/namespaces/inkscape"
   width="232.13356mm"
   height="27.914778mm"
   viewBox="0 0 232.13356 27.914778"
   version="1.1"
   id="svg7391"
   inkscape:version="0.92.3 (2405546, 2018-03-11)"
   sodipodi:docname="sq_discretization.svg">
  <defs
     id="defs7385" />
  <sodipodi:namedview
     id="base"
     pagecolor="#ffffff"
     bordercolor="#666666"
     borderopacity="1.0"
     inkscape:pageopacity="0.0"
     inkscape:pageshadow="2"
     inkscape:zoom="0.35"
     inkscape:cx="450.10615"
     inkscape:cy="-81.533266"
     inkscape:document-units="mm"
     inkscape:current-layer="layer1"
     showgrid="false"
     fit-margin-top="0"
     fit-margin-left="0"
     fit-margin-right="0"
     fit-margin-bottom="0"
     inkscape:window-width="1920"
     inkscape:window-height="1025"
     inkscape:window-x="0"
     inkscape:window-y="27"
     inkscape:window-maximized="1" />
  <metadata
     id="metadata7388">
    <rdf:RDF>
      <cc:Work
         rdf:about="">
        <dc:format>image/svg+xml</dc:format>
        <dc:type
           rdf:resource="http://purl.org/dc/dcmitype/StillImage" />
        <dc:title></dc:title>
      </cc:Work>
    </rdf:RDF>
  </metadata>
  <g
     inkscape:label="Layer 1"
     inkscape:groupmode="layer"
     id="layer1"
     transform="translate(132.69773,-99.346212)">
    <path
       d="m 98.15338,101.08027 c -0.0909,0.24497 -0.10852,0.50687 -0.0791,0.765 v 0 c 0.0122,0.10636 0.10823,0.18277 0.21459,0.1706 0.0896,-0.0102 0.16038,-0.081 0.17061,-0.1706 0.0139,-0.1215 0.0675,-0.25023 0.1857,-0.30265 v 0 c 0.18492,-0.082 0.26839,-0.29838 0.18637,-0.48331 -0.082,-0.18492 -0.29838,-0.26836 -0.48331,-0.18637 -0.0902,0.04 -0.16054,0.11479 -0.1949,0.20733 z m 0,0 v 0 c -0.0217,0.0586 -0.0282,0.12171 -0.0186,0.18344 l -1.1e-4,-1e-4 c -0.003,0.323 0.25675,0.58712 0.57979,0.58995 0.323,0.003 0.58713,-0.25679 0.58992,-0.57979 2.6e-4,-0.0544 -0.007,-0.10862 -0.0212,-0.16108 -0.0432,-0.15614 -0.12774,-0.3024 -0.26042,-0.39903 -0.23753,-0.173 -0.58815,-0.13607 -0.75787,0.11444 -0.0514,0.0759 -0.0799,0.16683 -0.11155,0.25217 z m 0.0103,0.007 c -0.051,0.15592 -0.0919,0.31527 -0.1325,0.47413 -0.0644,0.25224 -0.12467,0.50553 -0.18376,0.75904 v 0 c -0.091,0.39038 0.15165,0.78062 0.54204,0.87164 0.39038,0.091 0.78063,-0.15166 0.87164,-0.54204 0.006,-0.0269 0.011,-0.0541 0.0142,-0.0815 0.0318,-0.27531 0.058,-0.5522 0.0636,-0.82941 0.004,-0.20828 2.6e-4,-0.42394 -0.0556,-0.62608 v 0 c -0.0861,-0.31129 -0.40837,-0.49382 -0.7197,-0.40767 -0.18884,0.0523 -0.33895,0.19565 -0.39987,0.38185 z M 97.84742,102.32 c -0.14337,0.61489 -0.25418,1.23758 -0.32766,1.86471 v 0 c -0.0509,0.43476 0.26021,0.8285 0.69497,0.8794 0.43473,0.051 0.82846,-0.2602 0.8794,-0.69493 10e-4,-0.008 0.002,-0.0168 0.002,-0.0252 0.0504,-0.59284 0.11028,-1.18484 0.17858,-1.77588 v 0 c 0.046,-0.39822 -0.23947,-0.7583 -0.63765,-0.80433 -0.36646,-0.0423 -0.70643,0.19692 -0.79018,0.55619 z m -0.32766,1.86471 c -0.0729,0.62234 -0.12157,1.24739 -0.14951,1.87332 v 0 c -0.0201,0.45163 0.32963,0.83411 0.78126,0.85429 0.45166,0.0201 0.83414,-0.32964 0.85429,-0.7813 2.6e-4,-0.007 2.6e-4,-0.0139 7.9e-4,-0.0208 0.0113,-0.58949 0.0403,-1.17873 0.0902,-1.76622 v 0 c 0.037,-0.43617 -0.28649,-0.81978 -0.72263,-0.85682 -0.42637,-0.0362 -0.80451,0.27252 -0.85429,0.69751 z m -0.14951,1.87332 c -0.0281,0.62943 -0.0447,1.25935 -0.0493,1.88941 v 0 c -0.004,0.46182 0.36826,0.83894 0.83009,0.84232 0.46182,0.004 0.83894,-0.36826 0.84232,-0.83008 4e-5,-0.004 4e-5,-0.007 4e-5,-0.0104 -0.003,-0.61302 0.001,-1.22611 0.0131,-1.83903 v 0 c 0.009,-0.45201 -0.35074,-0.8255 -0.80275,-0.83414 -0.4439,-0.009 -0.81368,0.33838 -0.83347,0.78193 z m -0.0493,1.88941 c -0.003,0.44527 -0.008,0.89094 2.7e-4,1.33621 v 0 c 0.008,0.46493 0.39218,0.83499 0.85711,0.82656 0.46492,-0.008 0.83498,-0.39218 0.82655,-0.85714 -0.008,-0.43455 -0.009,-0.86918 -0.0117,-1.3038 h 3e-5 c -0.002,-0.46185 -0.3787,-0.83432 -0.84053,-0.83195 -0.45776,0.002 -0.82857,0.37235 -0.83192,0.83012 z m 2.7e-4,1.33621 c 0.004,0.2092 0.0219,0.41833 0.0413,0.62657 0.029,0.31027 0.0645,0.61987 0.10181,0.92922 v 3e-5 c 0.0552,0.45752 0.47089,0.7837 0.92844,0.72849 0.45311,-0.0547 0.77823,-0.46323 0.7298,-0.91705 -0.0315,-0.2958 -0.0617,-0.59189 -0.0863,-0.88836 -0.0141,-0.16944 -0.0283,-0.33944 -0.0314,-0.50948 v 0 c -0.008,-0.46493 -0.39221,-0.83499 -0.85714,-0.82656 -0.46493,0.008 -0.83499,0.39222 -0.82652,0.85714 z m 0.14315,1.55582 c 0.0341,0.28261 0.0665,0.56558 0.0892,0.84935 0.01,0.11973 0.025,0.24469 0.0167,0.36502 v 0 c -0.0324,0.46803 0.32074,0.87369 0.78877,0.90608 0.468,0.0324 0.87366,-0.32079 0.90604,-0.78878 0.003,-0.0433 0.003,-0.0866 -10e-4,-0.12982 -0.039,-0.46408 -0.0921,-0.92731 -0.14153,-1.39037 v 0 c -0.0489,-0.45826 -0.46002,-0.79015 -0.91828,-0.74126 -0.45826,0.0489 -0.79015,0.46003 -0.74126,0.91832 2.7e-4,0.004 8e-4,0.008 0.001,0.0115 z m 0.10591,1.21441 c -0.0133,0.19173 0.0269,0.38692 0.1217,0.55477 0.18363,0.32519 0.56382,0.51545 0.93878,0.42143 v 0 c 0.0425,-0.0106 0.0841,-0.0248 0.12425,-0.0422 0.26825,-0.11634 0.44263,-0.36639 0.49509,-0.64579 0.0186,-0.099 0.0225,-0.20049 0.014,-0.30075 v 0 c -0.0393,-0.4675 -0.45011,-0.81459 -0.91761,-0.7753 -0.41769,0.0351 -0.74732,0.36965 -0.77625,0.78783 z"
       style="fill:#000000;fill-opacity:1;fill-rule:nonzero;stroke:none;stroke-width:0.35277775"
       id="path2164"
       inkscape:connector-curvature="0" />
    <path
       d="m -130.55507,121.07465 c 0.17868,0.007 0.33728,0.1124 0.45741,0.23781 v 0 c 0.0741,0.0773 0.19677,0.08 0.27409,0.006 0.0773,-0.074 0.0799,-0.19674 0.006,-0.27407 -0.179,-0.1869 -0.38422,-0.35151 -0.62041,-0.4602 v 3e-5 c -0.12901,-0.0594 -0.28172,-0.003 -0.34108,0.12609 -0.0594,0.12901 -0.003,0.28173 0.12611,0.3411 0.0308,0.0142 0.0641,0.0221 0.098,0.0233 z m -0.36016,0.0326 c 0.11049,-0.0424 0.24445,-0.0369 0.36016,-0.0326 v 0 c 0.14191,0.005 0.26122,-0.10551 0.26647,-0.24744 0.004,-0.10378 -0.0551,-0.1997 -0.14947,-0.24309 -0.18672,-0.0859 -0.38877,-0.16112 -0.59663,-0.16592 v 0 c -0.19679,-0.005 -0.36003,0.15127 -0.36459,0.34805 -0.005,0.19678 0.15126,0.36005 0.34805,0.3646 0.0464,0.001 0.0926,-0.007 0.13601,-0.0236 z m -0.68631,-0.53802 v 0 c -0.20413,0.11716 -0.27462,0.37761 -0.15745,0.58173 0.11716,0.20415 0.37763,0.27464 0.58176,0.15748 0.0398,-0.0229 0.0756,-0.052 0.10614,-0.0862 0.0433,-0.0486 0.0945,-0.0914 0.15581,-0.11497 v 0 c 0.18378,-0.0705 0.2756,-0.27665 0.20508,-0.46044 -0.0518,-0.13494 -0.17993,-0.22525 -0.32443,-0.22864 -0.19924,-0.005 -0.39478,0.0522 -0.56691,0.15106 z m -3e-5,0 c -0.18845,0.1082 -0.34721,0.26229 -0.48031,0.43279 h 1e-5 c -0.1648,0.21114 -0.12725,0.51587 0.0839,0.68068 0.21113,0.16479 0.51588,0.12725 0.68069,-0.0839 0.0183,-0.0235 0.0345,-0.0486 0.0482,-0.0751 0.0552,-0.10654 0.11795,-0.21156 0.19803,-0.30152 v 0 c 0.15649,-0.17581 0.14083,-0.4452 -0.035,-0.60169 -0.13695,-0.12188 -0.33652,-0.14256 -0.49553,-0.0513 z m -0.48028,0.43276 c -0.15261,0.19547 -0.26905,0.4174 -0.35847,0.64812 h -10e-6 c -0.10359,0.26733 0.0291,0.56801 0.29646,0.67162 0.26732,0.10357 0.56801,-0.0291 0.6716,-0.29648 0.003,-0.009 0.007,-0.018 0.01,-0.0272 0.0528,-0.16245 0.11476,-0.32261 0.19347,-0.47434 h 1e-5 c 0.12335,-0.23774 0.0306,-0.53044 -0.20713,-0.65381 -0.20733,-0.10756 -0.46187,-0.0521 -0.6056,0.13205 z m -0.35847,0.64812 c -0.0975,0.2516 -0.16156,0.51534 -0.19837,0.78242 h -1e-5 c -0.0402,0.29186 0.16375,0.56106 0.45561,0.60128 0.29185,0.0403 0.56106,-0.16376 0.60129,-0.45561 7.1e-4,-0.005 10e-4,-0.0102 0.002,-0.0153 0.0207,-0.19142 0.0578,-0.38153 0.11731,-0.56477 v 0 c 0.0886,-0.27266 -0.0607,-0.56553 -0.33332,-0.65408 -0.262,-0.0851 -0.54487,0.0493 -0.64441,0.3061 h 1e-5 z m -0.19837,0.78242 c -0.0385,0.27902 -0.0559,0.56085 -0.0589,0.84244 h -1e-5 c -0.003,0.29746 0.23546,0.54119 0.53296,0.54433 0.29748,0.003 0.5412,-0.23544 0.54436,-0.5329 0.003,-0.24162 0.0143,-0.48327 0.0403,-0.72355 v 0 c 0.0317,-0.29291 -0.17997,-0.55608 -0.47286,-0.58783 -0.28691,-0.0311 -0.54652,0.17162 -0.58593,0.45751 z m -0.0589,0.84244 c -0.003,0.32367 0.0423,0.64816 0.14697,0.955 v 0 c 0.0957,0.28053 0.40063,0.43043 0.68116,0.33475 0.27843,-0.0949 0.42854,-0.39634 0.33656,-0.67574 -0.0639,-0.19403 -0.0895,-0.39878 -0.0874,-0.60258 v 0 c 0.003,-0.2975 -0.23543,-0.54123 -0.53293,-0.54441 -0.29749,-0.003 -0.54122,0.23545 -0.54439,0.53294 0,0 0,0 0,4e-5 z m 0.14699,0.95504 c 0.10406,0.30508 0.2691,0.58706 0.4836,0.82761 h 1e-5 c 0.19555,0.21929 0.53184,0.23852 0.75112,0.043 0.21715,-0.19364 0.23846,-0.52578 0.0479,-0.74559 -0.1182,-0.13628 -0.20847,-0.29468 -0.26489,-0.46606 h -1e-5 c -0.0927,-0.28151 -0.39605,-0.43462 -0.67758,-0.34191 -0.28153,0.0927 -0.43462,0.39603 -0.34193,0.67758 6e-4,0.002 0.001,0.004 0.002,0.005 h 1e-5 z m 0.48362,0.82761 c 0.22078,0.24755 0.4918,0.4462 0.78718,0.59574 v 0 c 0.25517,0.12919 0.56675,0.0271 0.69594,-0.22814 0.12424,-0.24543 0.0349,-0.54515 -0.20339,-0.68256 -0.17911,-0.10325 -0.34499,-0.2311 -0.48076,-0.38766 v 0 c -0.19249,-0.22197 -0.52848,-0.24585 -0.75046,-0.0534 -0.22198,0.19248 -0.24588,0.5285 -0.0534,0.75047 0.002,0.002 0.003,0.004 0.005,0.005 z m 0.78715,0.59571 c 0.30229,0.15307 0.62656,0.25943 0.95869,0.32494 h 1e-5 c 0.27387,0.054 0.53969,-0.12422 0.59371,-0.39811 0.0539,-0.27309 -0.12323,-0.53834 -0.39612,-0.5933 -0.23201,-0.0468 -0.4583,-0.12577 -0.66369,-0.2442 l -1e-5,4e-5 c -0.24777,-0.14288 -0.56444,-0.0578 -0.7073,0.18997 -0.14285,0.24776 -0.0578,0.56445 0.18998,0.70728 0.008,0.005 0.0164,0.009 0.0247,0.0134 z m 0.95867,0.32494 c 0.35206,0.0695 0.71058,0.10393 1.069,0.11546 v 0 c 0.27849,0.009 0.51152,-0.20955 0.52049,-0.48803 0.009,-0.27848 -0.20952,-0.51153 -0.48801,-0.52049 -0.30305,-0.01 -0.60637,-0.0384 -0.90384,-0.0983 v 0 c -0.27366,-0.0551 -0.54019,0.12203 -0.59531,0.39571 -0.0551,0.27365 0.12204,0.54018 0.3957,0.59528 6.7e-4,1.4e-4 0.001,2.7e-4 0.002,2.7e-4 z m 1.06898,0.11546 c 0.38353,0.0124 0.76751,0.004 1.15034,-0.0214 v 0 c 0.27085,-0.0181 0.47571,-0.25244 0.45756,-0.52327 -0.0176,-0.26212 -0.2381,-0.46408 -0.50074,-0.45858 -0.35818,0.007 -0.71658,0.006 -1.07468,-0.005 v 0 c -0.27849,-0.009 -0.51152,0.20952 -0.52049,0.48803 -0.009,0.27849 0.20952,0.5115 0.48801,0.52049 z m 2.08843,-1.15439 c -0.3187,0.0934 -0.64922,0.14421 -0.98124,0.15116 v 0 c -0.27141,0.006 -0.48682,0.2303 -0.48114,0.50172 0.006,0.2714 0.23031,0.4868 0.50171,0.48112 0.008,-1.4e-4 0.0151,-2.6e-4 0.0226,-0.001 0.4131,-0.0277 0.82236,-0.10678 1.21599,-0.23519 v 0 c 0.24677,-0.0805 0.38155,-0.34579 0.30104,-0.59256 -0.0788,-0.24148 -0.3352,-0.37666 -0.57896,-0.30522 v 0 z m 0.89374,-0.38404 c -0.27992,0.16577 -0.58173,0.2926 -0.89374,0.38404 v 0 c -0.2491,0.073 -0.39186,0.33408 -0.31888,0.58318 0.073,0.24909 0.33409,0.39183 0.58318,0.31883 0.005,-0.001 0.009,-0.003 0.0136,-0.004 0.38534,-0.12569 0.75485,-0.30053 1.09195,-0.52602 h 10e-6 c 0.2051,-0.13724 0.26014,-0.41474 0.12292,-0.61984 -0.13192,-0.19717 -0.39493,-0.25689 -0.59906,-0.136 z m 0.66259,-0.53798 c -0.18836,0.21537 -0.41696,0.3925 -0.66256,0.53795 v 0 c -0.21234,0.12573 -0.28255,0.3998 -0.15682,0.61214 0.12573,0.21234 0.3998,0.28254 0.61213,0.15681 0.007,-0.004 0.014,-0.009 0.0208,-0.0131 0.31521,-0.21086 0.60161,-0.46701 0.83049,-0.77033 v 0 c 0.13814,-0.18305 0.10172,-0.44344 -0.0813,-0.58155 -0.17379,-0.13116 -0.41936,-0.1058 -0.56269,0.0581 z m 0.38139,-0.59186 c -0.0881,0.2189 -0.22679,0.41508 -0.38139,0.59186 v 0 c -0.15097,0.17265 -0.13342,0.43497 0.0392,0.58596 0.17262,0.15096 0.43495,0.13342 0.58593,-0.0392 0.007,-0.008 0.0129,-0.0153 0.0189,-0.0233 0.19416,-0.25728 0.36025,-0.53929 0.4645,-0.84536 h -1e-5 c 0.0691,-0.20281 -0.0393,-0.42323 -0.24217,-0.4923 -0.19505,-0.0664 -0.408,0.0312 -0.48496,0.22232 z m 0.12934,-0.56427 c -0.009,0.19403 -0.057,0.38457 -0.12934,0.56427 v 0 c -0.08,0.19876 0.0162,0.42478 0.21498,0.50479 0.19875,0.08 0.42476,-0.0162 0.50479,-0.21498 0.003,-0.007 0.005,-0.0132 0.007,-0.0198 0.0883,-0.2594 0.14418,-0.53065 0.15349,-0.80493 v 0 c 0.007,-0.20751 -0.15546,-0.38143 -0.36296,-0.38848 -0.20602,-0.007 -0.37924,0.15321 -0.38832,0.35916 z m -0.11061,-0.39997 c 0.0784,0.11952 0.1169,0.2571 0.11061,0.39997 v 0 c -0.009,0.2074 0.15159,0.38298 0.35901,0.39212 0.20742,0.009 0.38297,-0.15159 0.39212,-0.35899 6e-5,-10e-4 1.1e-4,-0.002 1.5e-4,-0.004 0.0101,-0.29785 -0.0725,-0.59044 -0.23576,-0.83972 l -1e-5,4e-5 c -0.11328,-0.17298 -0.3453,-0.22131 -0.51823,-0.10807 -0.17294,0.11328 -0.2213,0.3453 -0.10802,0.51823 4e-5,7e-5 8e-5,1.5e-4 1.2e-4,2.2e-4 z m -0.41177,-0.36421 c 0.16027,0.0908 0.30987,0.20888 0.41179,0.36424 h -1e-5 c 0.1134,0.17283 0.34545,0.22105 0.5183,0.10763 0.17277,-0.11334 0.22102,-0.34522 0.1078,-0.51809 -0.16406,-0.25043 -0.39052,-0.45353 -0.64218,-0.61323 h -1e-5 c -0.17935,-0.11384 -0.41704,-0.0607 -0.53089,0.1186 -0.11385,0.17936 -0.0607,0.41706 0.11862,0.5309 0.005,0.004 0.011,0.007 0.0166,0.01 z m -0.75394,-0.29217 c 0.26064,0.0686 0.51879,0.15903 0.75396,0.2922 v 0 c 0.18486,0.10467 0.41958,0.0396 0.52426,-0.1452 0.10097,-0.17833 0.0444,-0.4045 -0.1286,-0.51428 -0.28582,-0.18143 -0.60117,-0.31323 -0.92328,-0.41497 h 1e-5 c -0.2145,-0.0678 -0.44331,0.0512 -0.51107,0.26567 -0.0678,0.21449 0.0512,0.44331 0.2657,0.51107 0.006,0.002 0.0126,0.004 0.019,0.006 z m -0.93311,-0.14284 c 0.31487,0.0157 0.62817,0.0626 0.93314,0.14284 v 0 c 0.21754,0.0573 0.44028,-0.0727 0.49752,-0.29023 0.0553,-0.21012 -0.0641,-0.42662 -0.27123,-0.49202 -0.3552,-0.11222 -0.72178,-0.18715 -1.09213,-0.22638 v -3e-5 c -0.23857,-0.0253 -0.45246,0.14767 -0.47773,0.38622 -0.0253,0.23858 0.14764,0.45247 0.38621,0.47773 0.008,7.1e-4 0.0161,0.001 0.0242,0.002 v -4e-5 z m -1.06702,-0.027 c 0.35581,10e-4 0.71158,0.009 1.06699,0.027 v 3e-5 c 0.23962,0.0119 0.44351,-0.17268 0.45542,-0.41229 0.0114,-0.23022 -0.15889,-0.42926 -0.38809,-0.45356 -0.37466,-0.0397 -0.75112,-0.06 -1.12779,-0.0644 v -4e-5 c -0.24942,-0.003 -0.454,0.19689 -0.45695,0.4463 -0.003,0.24941 0.19686,0.45399 0.44628,0.45695 0.001,0 0.003,0 0.004,0 z m 0.007,-0.90326 c -0.18066,-0.002 -0.36043,0.0417 -0.53183,0.0952 -0.19761,0.0616 -0.3901,0.13985 -0.57929,0.22349 -0.57025,0.25202 -1.11851,0.55382 -1.65961,0.86254 v 0 c -0.0972,0.0555 -0.13108,0.17925 -0.0756,0.27647 0.047,0.0824 0.14496,0.12122 0.23567,0.0933 0.57926,-0.17829 1.161,-0.35186 1.75,-0.4954 0.18833,-0.0459 0.37754,-0.0891 0.56874,-0.12108 0.0938,-0.0157 0.18996,-0.0315 0.28537,-0.0312 v -3e-5 c 0.24944,7.1e-4 0.45219,-0.20098 0.45287,-0.4504 6.6e-4,-0.24786 -0.1985,-0.44993 -0.44631,-0.45286 z"
       style="fill:#000000;fill-opacity:1;fill-rule:nonzero;stroke:none;stroke-width:0.35277775"
       id="path2166"
       inkscape:connector-curvature="0" />
    <path
       d="m 90.47877,127.23849 c 0.12051,0.0203 0.24391,0.0225 0.36579,0.0225 v 0 c 0.10707,0 0.19385,-0.0868 0.19385,-0.19385 0,-0.10707 -0.0868,-0.19385 -0.19385,-0.19385 0,0 0,0 0,0 -0.007,0 -0.0144,-2.7e-4 -0.0215,-10e-4 -0.0233,-0.002 -0.0113,-0.002 -0.0256,-0.0363 v 0 c -0.0628,-0.14912 -0.2346,-0.21908 -0.38371,-0.15625 -0.14909,0.0628 -0.21905,0.2346 -0.15625,0.38372 0.0389,0.0924 0.12245,0.15846 0.22133,0.17512 z m -0.47646,-0.45342 c 0.0673,0.22122 0.24161,0.41388 0.47646,0.45342 v 0 c 0.15956,0.0269 0.31065,-0.0807 0.33753,-0.24024 0.003,-0.0176 0.004,-0.0354 0.004,-0.0533 -0.001,-0.0574 0.0137,-0.11508 0.029,-0.16997 v 0 c 0.0654,-0.2347 -0.0718,-0.47801 -0.30653,-0.54342 -0.2347,-0.0654 -0.47801,0.0718 -0.54345,0.30653 -0.0225,0.0809 -0.0215,0.16658 0.003,0.24695 z m 0.2233,-1.12932 c -0.0779,0.19386 -0.15155,0.39092 -0.20238,0.5938 -0.0433,0.17279 -0.0739,0.36131 -0.0209,0.53552 v 0 c 0.071,0.23311 0.31746,0.36452 0.55058,0.29354 0.14418,-0.0439 0.25597,-0.15836 0.29644,-0.30356 0.0162,-0.0579 0.0565,-0.12866 0.0855,-0.18623 0.0802,-0.15921 0.1669,-0.31528 0.25432,-0.47061 v 0 c 0.14509,-0.25774 0.0538,-0.58431 -0.20398,-0.72937 -0.25774,-0.1451 -0.5843,-0.0538 -0.72937,0.20398 -0.0114,0.0203 -0.0215,0.0413 -0.0302,0.0629 z m 0.67222,-1.41393 c -0.24881,0.45889 -0.47745,0.92946 -0.67222,1.41393 v 0 c -0.11031,0.27443 0.0227,0.58632 0.29711,0.69664 0.24945,0.10029 0.53457,6e-5 0.66643,-0.23418 0.23704,-0.42111 0.49693,-0.8291 0.76991,-1.2277 v 0 c 0.19434,-0.28378 0.12185,-0.67134 -0.16193,-0.86565 -0.28374,-0.19434 -0.67133,-0.12185 -0.86564,0.16189 -0.0122,0.0178 -0.0234,0.0362 -0.0337,0.0551 z m 0.99332,-1.65439 c -0.34936,0.54007 -0.68672,1.08885 -0.99332,1.65443 h -3e-5 c -0.1639,0.30233 -0.0517,0.68033 0.25068,0.84423 0.28042,0.15201 0.63038,0.0676 0.81058,-0.19562 0.3459,-0.50507 0.71472,-0.99441 1.09202,-1.47637 v 0 c 0.24268,-0.31002 0.1881,-0.75809 -0.12192,-1.0008 -0.31002,-0.24267 -0.75808,-0.1881 -1.00079,0.12192 -0.0131,0.0169 -0.0256,0.0343 -0.0372,0.0522 z m 0.99599,-1.42095 c -0.36219,0.45064 -0.68227,0.93599 -0.99599,1.42095 v 0 c -0.21386,0.33059 -0.11924,0.77195 0.21135,0.98581 0.30974,0.20037 0.72118,0.13134 0.94858,-0.15914 0.33154,-0.42351 0.66516,-0.84706 1.02073,-1.25088 v 0 c 0.28257,-0.32096 0.25142,-0.81023 -0.0695,-1.0928 -0.32096,-0.28258 -0.81019,-0.25146 -1.09277,0.0695 -0.008,0.009 -0.0151,0.0176 -0.0223,0.0266 z m 0.81214,-0.94185 c -0.2812,0.3047 -0.55238,0.61871 -0.81214,0.94185 v 0 c -0.26789,0.33331 -0.21487,0.82067 0.11843,1.08857 0.32276,0.25947 0.79255,0.219 1.0662,-0.0918 0.25044,-0.28445 0.51086,-0.56018 0.77989,-0.82705 v 0 c 0.31394,-0.31147 0.31595,-0.81848 0.004,-1.13242 -0.31147,-0.31394 -0.81844,-0.31595 -1.13238,-0.004 -0.008,0.008 -0.0165,0.0167 -0.0245,0.0254 z m 0.85855,-0.85986 c -0.29834,0.27415 -0.58378,0.56216 -0.85852,0.85983 v 0 c -0.29997,0.32498 -0.27968,0.83157 0.0453,1.13153 0.31489,0.29062 0.80281,0.28184 1.10701,-0.02 0.26455,-0.26243 0.53333,-0.52052 0.80772,-0.77262 v 0 c 0.33102,-0.30416 0.35278,-0.81911 0.0486,-1.15012 -0.30416,-0.33105 -0.81907,-0.35281 -1.15012,-0.0487 z m 0.83785,-0.68177 c -0.29584,0.20574 -0.57267,0.43815 -0.83785,0.68177 v 0 c -0.33101,0.3042 -0.35278,0.81912 -0.0486,1.15013 0.30416,0.33105 0.81908,0.35281 1.15012,0.0487 0,0 0,0 0,0 0.22285,-0.20479 0.45078,-0.40467 0.68898,-0.59154 v 0 c 0.3484,-0.27329 0.40926,-0.77727 0.13596,-1.12568 -0.26226,-0.33429 -0.73978,-0.40594 -1.0886,-0.16333 z m 0.72612,-0.46387 c -0.24875,0.14376 -0.49026,0.29982 -0.72609,0.46383 v 0 c -0.36354,0.25284 -0.45328,0.75248 -0.20048,1.11601 0.2528,0.36354 0.75247,0.45329 1.11597,0.20045 0.0126,-0.009 0.025,-0.0179 0.0371,-0.0274 0.18418,-0.1445 0.37518,-0.28077 0.5751,-0.40266 v 0 c 0.37027,-0.22571 0.48746,-0.70884 0.26172,-1.07911 -0.222,-0.36417 -0.69409,-0.48454 -1.06334,-0.27111 z m 0.667,-0.34971 c -0.22776,0.1058 -0.44962,0.22405 -0.66697,0.34971 v 0 c -0.37546,0.21699 -0.5039,0.69723 -0.28691,1.07269 0.21699,0.37546 0.69723,0.50391 1.07269,0.28691 0.005,-0.003 0.0106,-0.006 0.0158,-0.009 0.1694,-0.10325 0.34322,-0.19995 0.52324,-0.28356 v 0 c 0.39112,-0.18164 0.56091,-0.64597 0.37923,-1.03709 -0.18164,-0.39113 -0.64597,-0.56092 -1.03709,-0.37928 0,0 0,0 0,0 z m 0.68509,-0.23347 c -0.23742,0.0465 -0.46616,0.1318 -0.68509,0.23347 v 0 c -0.39113,0.18168 -0.56092,0.64601 -0.37928,1.0371 0.18169,0.39112 0.64601,0.56091 1.03714,0.37927 0.15056,-0.0699 0.30212,-0.13801 0.45621,-0.19985 v 0 c 0.38922,-0.15632 0.57802,-0.59852 0.42175,-0.98771 -0.13586,-0.33831 -0.49294,-0.53238 -0.85073,-0.46228 z m 0,0 v 0 c -0.41159,0.0806 -0.67987,0.47964 -0.59926,0.89122 0.0806,0.41162 0.47967,0.67991 0.89125,0.59927 0.0468,-0.009 0.0927,-0.0227 0.13699,-0.0405 0.11285,-0.0453 0.24737,-0.052 0.36689,-0.0607 v 3e-5 c 0.39585,-0.0287 0.69349,-0.37285 0.66481,-0.7687 -0.0266,-0.36756 -0.32699,-0.65539 -0.69536,-0.66636 -0.25503,-0.008 -0.51414,-0.004 -0.76532,0.0458 z m 0.7959,1.38928 c 0.0425,-0.003 0.0849,-0.005 0.12753,-0.006 l -3e-5,1e-4 c 0.29883,0.12026 0.63965,-0.0131 0.77748,-0.30427 0.0826,-0.17438 0.089,-0.37793 0.0214,-0.55834 -0.0578,-0.15406 -0.16627,-0.2849 -0.30142,-0.37758 -0.19198,-0.13166 -0.4259,-0.18186 -0.65549,-0.1887 v 0 c -0.39674,-0.0118 -0.72789,0.30021 -0.73971,0.69695 -0.0118,0.3967 0.30025,0.72785 0.69695,0.73967 0.0245,7.1e-4 0.0489,2.1e-4 0.0733,-0.002 z m -0.23738,-0.43332 v 0 c -0.12933,0.24352 -0.0368,0.54582 0.2068,0.67514 0.19896,0.10566 0.44404,0.065 0.59824,-0.0993 0.12837,-0.13677 0.25643,-0.28204 0.33736,-0.453 v 0 c 0.14386,-0.30388 0.0142,-0.66689 -0.28977,-0.81075 -0.30388,-0.14386 -0.66689,-0.0142 -0.81076,0.28974 -0.0588,0.12424 -0.0739,0.26472 -0.0427,0.3986 l 7.9e-4,-3.4e-4 z m 0.0341,-0.0552 c -0.0937,0.1318 -0.23562,0.23071 -0.37099,0.31506 v 0 c -0.23784,0.14828 -0.31047,0.46126 -0.1622,0.69914 0.14823,0.23788 0.46126,0.31048 0.69913,0.16224 0.0192,-0.012 0.0376,-0.0252 0.055,-0.0397 0.19184,-0.15868 0.37944,-0.32402 0.54998,-0.50571 v 0 c 0.1887,-0.20104 0.17871,-0.51703 -0.0224,-0.70573 -0.20105,-0.18873 -0.51703,-0.17871 -0.70573,0.0223 -0.0154,0.0164 -0.0298,0.0339 -0.0429,0.0524 z m -0.37095,0.31506 c -0.21971,0.13692 -0.43529,0.28554 -0.62435,0.46327 v 0 c -0.2268,0.21329 -0.2378,0.57006 -0.0245,0.79689 0.21329,0.22684 0.57008,0.23781 0.79692,0.0245 0.0295,-0.0277 0.0559,-0.0586 0.0788,-0.092 0.0978,-0.1427 0.23269,-0.26148 0.36506,-0.37098 v 0 c 0.21597,-0.17868 0.2462,-0.49858 0.0675,-0.71455 -0.16196,-0.19579 -0.4438,-0.24158 -0.65945,-0.10717 z m -0.62435,0.46327 c -0.20863,0.19622 -0.37069,0.45096 -0.39426,0.74218 v 0 c -0.0264,0.32628 0.21671,0.61221 0.54303,0.63859 0.32629,0.0264 0.61221,-0.21671 0.6386,-0.54299 -0.002,0.0202 0.002,2.9e-4 0.006,-0.009 0.0154,-0.0349 0.0362,-0.0676 0.0577,-0.0991 v 0 c 0.17604,-0.25679 0.11056,-0.6077 -0.14626,-0.78373 -0.21855,-0.14983 -0.51192,-0.12721 -0.70496,0.0543 z m -0.39426,0.74218 c -0.0168,0.20813 0.0525,0.41204 0.17392,0.57957 0.0948,0.13081 0.21735,0.23922 0.34805,0.3331 v 0 c 0.25897,0.18595 0.61962,0.12675 0.80557,-0.13219 0.17466,-0.24327 0.1343,-0.57968 -0.0929,-0.77473 -0.0205,-0.0176 -0.0405,-0.0358 -0.0593,-0.0553 l 1.8e-4,-4e-5 c -0.0538,-0.3229 -0.35909,-0.54109 -0.68202,-0.48733 -0.26815,0.0446 -0.47156,0.26593 -0.49347,0.5369 z m 0.52197,0.91267 c 0.23107,0.16591 0.47879,0.30797 0.73575,0.42964 v 0 c 0.25083,0.11882 0.55048,0.0118 0.66929,-0.23907 0.0945,-0.19964 0.0476,-0.43766 -0.1156,-0.5865 -0.18983,-0.17303 -0.38188,-0.34367 -0.57683,-0.51099 h 4e-5 c -0.24194,-0.20761 -0.60636,-0.17982 -0.814,0.0621 -0.20761,0.2419 -0.17981,0.60632 0.0621,0.81396 0.0126,0.0108 0.0257,0.0211 0.0392,0.0308 z m 0.73575,0.42964 c 0.15149,0.0718 0.31013,0.14867 0.43914,0.25757 v 0 c 0.17219,0.14538 0.42965,0.12361 0.57499,-0.0486 0.11526,-0.13656 0.12827,-0.33218 0.0321,-0.48278 -0.13282,-0.20803 -0.31108,-0.38626 -0.49258,-0.55174 v 0 c -0.20511,-0.18701 -0.52296,-0.17234 -0.70997,0.0328 -0.18701,0.2051 -0.17233,0.52295 0.0328,0.70996 0.0368,0.0335 0.0785,0.0615 0.1235,0.0828 z m 0.43914,0.25757 c 0.0866,0.0731 0.1585,0.16252 0.21446,0.26091 v 0 c 0.0987,0.1736 0.31944,0.23432 0.49304,0.13565 0.16252,-0.0924 0.22782,-0.29348 0.1506,-0.46373 -0.0727,-0.16034 -0.15621,-0.31581 -0.25097,-0.46419 v 0 c -0.12128,-0.18993 -0.37356,-0.2456 -0.56349,-0.12435 -0.18994,0.12128 -0.2456,0.37356 -0.12435,0.56349 0.0221,0.0346 0.0493,0.0657 0.0807,0.0922 z m 0.21446,0.26091 c 0.0664,0.11684 0.11684,0.24222 0.15183,0.37194 v 0 c 0.0486,0.18051 0.23442,0.2874 0.41494,0.23876 0.16848,-0.0454 0.27481,-0.21142 0.24567,-0.38344 -0.0325,-0.19134 -0.0886,-0.37856 -0.1688,-0.55534 v 0 c -0.0825,-0.18186 -0.29679,-0.26243 -0.47869,-0.17995 -0.18185,0.0825 -0.26243,0.29682 -0.17991,0.47868 0.005,0.01 0.01,0.0198 0.0149,0.0294 z m 0.15183,0.37194 c 0.0529,0.19653 0.0419,0.41511 0.0326,0.61602 v 0 c -0.008,0.18104 0.13165,0.33461 0.31273,0.34297 0.18105,0.008 0.33458,-0.13166 0.34294,-0.31274 4e-5,-7.1e-4 7e-5,-0.001 1.1e-4,-0.002 0.0103,-0.26155 0.0162,-0.52963 -0.0278,-0.78867 v 0 c -0.0312,-0.18433 -0.20602,-0.30843 -0.39035,-0.27718 -0.18432,0.0313 -0.30843,0.20602 -0.27717,0.39035 0.002,0.0106 0.004,0.0211 0.007,0.0315 z m 0.0326,0.61602 c -0.005,0.11095 -0.0153,0.22359 -0.0443,0.33118 -0.01,0.0367 -0.021,0.0854 -0.0467,0.11526 v 0 c -0.13053,0.15183 -0.11324,0.38071 0.0386,0.51121 0.15184,0.13049 0.38072,0.1132 0.51121,-0.0386 0.0225,-0.0261 0.0411,-0.0554 0.0554,-0.0868 0.11225,-0.24797 0.13109,-0.53605 0.14161,-0.80423 v 0 c 0.007,-0.18112 -0.13399,-0.33369 -0.31507,-0.34078 -0.18023,-0.007 -0.33239,0.13264 -0.34071,0.3128 z m -0.091,0.44644 c -0.075,0.0872 -0.16189,0.16354 -0.25781,0.2269 v 0 c -0.19456,0.12856 -0.24808,0.39046 -0.11956,0.58501 0.12852,0.19456 0.39045,0.24808 0.58501,0.11956 0.0275,-0.0182 0.0529,-0.0396 0.0755,-0.0638 0.13274,-0.14178 0.24193,-0.30497 0.32201,-0.48193 v 0 c 0.0825,-0.18238 0.002,-0.39715 -0.18076,-0.47974 -0.14665,-0.0664 -0.31948,-0.0281 -0.42439,0.094 z m -0.25781,0.2269 c -0.0874,0.0577 -0.18221,0.10443 -0.28244,0.13519 l -3e-5,-4e-5 c -0.2534,0.0777 -0.39582,0.34615 -0.3181,0.59955 0.0777,0.2534 0.34614,0.39582 0.59954,0.3181 0.0431,-0.0132 0.0841,-0.0324 0.12189,-0.0571 0.15388,-0.10061 0.29453,-0.2207 0.42009,-0.3549 v 0 c 0.15935,-0.17021 0.15052,-0.43741 -0.0197,-0.59675 -0.14263,-0.1335 -0.35824,-0.1517 -0.52123,-0.044 z m -0.28244,0.13519 c -0.0565,0.0173 -0.11666,0.0245 -0.17512,0.031 -0.11105,0.0123 -0.22292,0.0171 -0.33454,0.0195 v 0 c -0.31319,0.007 -0.56169,0.26592 -0.55506,0.57912 0.007,0.31319 0.26596,0.56169 0.57912,0.55506 0.0483,-0.001 0.0962,-0.008 0.1427,-0.0214 0.25605,-0.0726 0.52162,-0.15607 0.7462,-0.30286 v 0 c 0.22183,-0.14503 0.28412,-0.44246 0.1391,-0.66428 -0.11695,-0.1789 -0.33811,-0.25891 -0.54243,-0.19625 z m -0.50969,0.0506 c -0.2129,0.005 -0.42556,0.0457 -0.62502,0.12019 -0.16728,0.0625 -0.33111,0.14905 -0.46446,0.2692 v 4e-5 c -0.0754,0.0679 -0.0933,0.17907 -0.0431,0.26723 0.107,0.18785 0.29348,0.32603 0.49047,0.40791 0.25428,0.10566 0.54391,0.12337 0.80892,0.0482 v -3e-5 c 0.30138,-0.0854 0.47639,-0.39903 0.39094,-0.70041 -0.0704,-0.24839 -0.29968,-0.41786 -0.55777,-0.41236 z"
       style="fill:#000000;fill-opacity:1;fill-rule:nonzero;stroke:none;stroke-width:0.35277775"
       id="path2168"
       inkscape:connector-curvature="0" />
    <path
       d="m -127.69222,105.67784 c -0.21314,0.0769 -0.41087,0.2285 -0.47972,0.45233 -0.048,0.15614 -0.0187,0.31648 0.0512,0.46066 h 1e-5 c 0.0467,0.0963 0.16266,0.13656 0.259,0.0899 0.0392,-0.019 0.0708,-0.0507 0.0899,-0.0899 0.01,-0.0198 0.0106,-0.0175 0.0318,-0.0131 0.024,0.005 0.0474,0.0114 0.0708,0.0186 h -1e-5 c 0.25574,0.078 0.52631,-0.066 0.60434,-0.32177 0.078,-0.25573 -0.066,-0.52631 -0.32176,-0.60434 -0.10001,-0.0305 -0.20721,-0.0278 -0.30557,0.008 z m 2e-5,0 v 0 c -0.25151,0.0907 -0.38186,0.36816 -0.29114,0.61966 0.0518,0.14354 0.1682,0.25428 0.31416,0.2988 0.24441,0.0745 0.50204,0.1106 0.75408,0.14817 0.42527,0.0634 0.85254,0.11313 1.27993,0.16005 v 0 c 0.35923,0.0394 0.68241,-0.21981 0.72184,-0.57905 0.0394,-0.3592 -0.2198,-0.68238 -0.57902,-0.72182 -0.0107,-0.001 -0.0214,-0.002 -0.0321,-0.003 -0.43849,-0.0264 -0.87875,-0.0463 -1.31815,-0.0352 -0.28102,0.007 -0.58227,0.0158 -0.84963,0.11218 z m 2.05706,1.22668 c 0.81911,0.0899 1.64145,0.17463 2.46534,0.20479 v 0 c 0.37282,0.0137 0.68611,-0.2775 0.69976,-0.65035 0.0133,-0.36265 -0.26237,-0.67098 -0.62424,-0.69828 -0.80952,-0.0611 -1.61983,-0.11095 -2.43014,-0.15974 v -4e-5 c -0.36073,-0.0217 -0.67077,0.25312 -0.6925,0.61384 -0.021,0.34826 0.23497,0.65172 0.58178,0.68978 z m 2.46534,0.20479 c 0.42513,0.0156 0.8509,0.0191 1.27626,0.0221 0.67647,0.005 1.35313,0.004 2.0296,10e-4 v 0 c 0.35721,-10e-4 0.64565,-0.2921 0.64425,-0.64933 -0.001,-0.35475 -0.28827,-0.64219 -0.64301,-0.64424 -0.67015,-0.004 -1.34025,-0.0105 -2.01024,-0.0268 -0.40707,-0.01 -0.81517,-0.0205 -1.22132,-0.0512 v 0 c -0.37202,-0.0281 -0.69635,0.25075 -0.72443,0.62275 -0.0281,0.37201 0.25075,0.69635 0.62277,0.72443 0.009,7.2e-4 0.0174,0.001 0.0261,0.001 z m 7.02543,-1.31089 c -1.23833,0.0507 -2.47923,0.0475 -3.71833,0.0403 v 0 c -0.35721,-0.002 -0.64848,0.28579 -0.65057,0.64301 -0.002,0.35719 0.2858,0.64847 0.64301,0.65056 0.002,0 0.004,0 0.006,0 1.25956,-0.005 2.52127,-0.0149 3.77929,-0.0835 v 0 c 0.34515,-0.0188 0.60969,-0.31387 0.59086,-0.65906 -0.0186,-0.34184 -0.30847,-0.60526 -0.65056,-0.59126 z m 3.47278,-0.21018 c -1.15655,0.0841 -2.31408,0.16273 -3.47278,0.21018 v 0 c -0.34537,0.0141 -0.61391,0.30558 -0.59977,0.65095 0.0141,0.3454 0.30559,0.61394 0.65099,0.59979 0.003,-1.4e-4 0.006,-2.5e-4 0.008,-3.4e-4 1.16897,-0.0638 2.33687,-0.14887 3.50414,-0.23785 v 0 c 0.33754,-0.0257 0.59034,-0.32021 0.56463,-0.65782 -0.0256,-0.33676 -0.31888,-0.58932 -0.65571,-0.56483 z m 2.85132,-0.22049 c -0.94925,0.0867 -1.90066,0.15134 -2.85132,0.22049 v 0 c -0.33768,0.0246 -0.5915,0.3182 -0.56695,0.65588 0.0246,0.33768 0.3182,0.5915 0.65588,0.56695 7.2e-4,-7e-5 0.001,-1e-4 0.002,-1.8e-4 0.95829,-0.073 1.91753,-0.14118 2.87415,-0.23399 v 0 c 0.33385,-0.0324 0.57822,-0.32925 0.54584,-0.66305 -0.0322,-0.33249 -0.32703,-0.57651 -0.6597,-0.54613 z m 2.07889,-0.15423 c -0.69332,0.0451 -1.38691,0.091 -2.07889,0.15423 v -3e-5 c -0.33397,0.0305 -0.58,0.326 -0.54948,0.66001 0.0305,0.33397 0.326,0.58 0.65997,0.54948 10e-4,-10e-5 0.002,-2.1e-4 0.003,-3.1e-4 0.68305,-0.0662 1.36716,-0.12146 2.05116,-0.17625 v 0 c 0.32766,-0.0262 0.57199,-0.31309 0.54578,-0.64075 -0.026,-0.3242 -0.30737,-0.56751 -0.63193,-0.54638 z m 2.67441,-0.13452 c -0.89211,0.0313 -1.78365,0.0765 -2.67441,0.13452 v 0 c -0.32801,0.0213 -0.57658,0.30455 -0.55524,0.63256 0.0213,0.32798 0.30455,0.57658 0.63257,0.55524 0.003,-2.1e-4 0.006,-3.4e-4 0.009,-7.1e-4 0.87672,-0.0702 1.75471,-0.1251 2.63341,-0.16285 v 0 c 0.31993,-0.0137 0.56814,-0.28427 0.55438,-0.6042 -0.0137,-0.31817 -0.28137,-0.56575 -0.59961,-0.5546 z m 1.88034,-0.0756 c -0.62639,0.0326 -1.25346,0.0537 -1.88031,0.0756 v 0 c -0.32004,0.0112 -0.5704,0.27972 -0.55922,0.59976 0.0112,0.32004 0.27972,0.57041 0.59976,0.55922 10e-4,-7e-5 0.003,-10e-5 0.005,-1.7e-4 0.62957,-0.0271 1.25903,-0.0542 1.88863,-0.0798 v 0 c 0.31891,-0.013 0.56691,-0.28201 0.55397,-0.60092 -0.0129,-0.31891 -0.28202,-0.56695 -0.60093,-0.55397 -0.002,7e-5 -0.004,1.8e-4 -0.006,2.9e-4 z m 1.19422,-0.0436 c -0.39829,0.008 -0.79643,0.0229 -1.19422,0.0436 v 0 c -0.31877,0.0166 -0.56371,0.28843 -0.54712,0.60717 0.0164,0.31616 0.28419,0.56024 0.60053,0.54744 0.38841,-0.0158 0.77695,-0.0278 1.16561,-0.036 v -3e-5 c 0.32092,-0.007 0.57556,-0.27252 0.56871,-0.59345 -0.007,-0.32095 -0.27255,-0.57555 -0.59347,-0.56875 -4e-5,0 -4e-5,0 -4e-5,0 z m 1.15708,-0.0375 c -0.38552,0.0169 -0.77125,0.0292 -1.15704,0.0375 v 0 c -0.32093,0.007 -0.57556,0.27256 -0.56872,0.59348 0.007,0.32096 0.27252,0.57556 0.59348,0.56872 0,0 0,0 0,0 0.39511,-0.008 0.79005,-0.0217 1.18481,-0.0402 v 0 c 0.32018,-0.015 0.56754,-0.2867 0.55255,-0.60684 -0.0149,-0.31948 -0.28557,-0.56664 -0.60508,-0.55263 z m 2.273438,-0.0581 c -0.757732,0.0146 -1.516238,0.0249 -2.273438,0.0581 v 0 c -0.32018,0.014 -0.5684,0.28494 -0.55439,0.60515 0.014,0.32019 0.28493,0.5684 0.60515,0.5544 7.9e-4,-4e-5 0.001,-4e-5 0.002,-8e-5 0.74672,-0.035 1.495177,-0.0434 2.242503,-0.0569 v 0 c 0.320532,-0.006 0.575662,-0.2703 0.569876,-0.59084 -0.0058,-0.32053 -0.270299,-0.57566 -0.590831,-0.56987 -2.49e-4,0 -2.64e-4,0 -7.94e-4,0 z m 3.30835,-0.0772 c -1.102678,0.0304 -2.205461,0.056 -3.30835,0.0772 v 0 c -0.320535,0.006 -0.575382,0.271 -0.569209,0.5915 0.0061,0.32025 0.270547,0.57499 0.590833,0.56921 1.104866,-0.0199 2.20966,-0.0408 3.314489,-0.0625 v 0 c 0.324625,-0.006 0.582578,-0.2747 0.576191,-0.59933 -0.0064,-0.32459 -0.274744,-0.58254 -0.599335,-0.57616 -0.0013,4e-5 -0.0032,7e-5 -0.0046,1.1e-4 z m 2.774315,-0.065 c -0.924915,0.0162 -1.849649,0.0395 -2.774315,0.065 v 0 c -0.324557,0.009 -0.58039,0.27929 -0.571466,0.60381 0.0089,0.32276 0.276437,0.57796 0.599229,0.57157 0.921985,-0.0182 1.844005,-0.0354 2.76606,-0.0494 v 0 c 0.328895,-0.005 0.591431,-0.2757 0.586388,-0.60459 -0.005,-0.3289 -0.275696,-0.59143 -0.604557,-0.58642 -2.65e-4,3e-5 -0.0011,3e-5 -0.0013,3e-5 z m 2.331331,-0.0602 c -0.776923,0.0261 -1.554091,0.0466 -2.331331,0.0602 v 0 c -0.328896,0.006 -0.590833,0.27704 -0.585047,0.6059 0.0057,0.32833 0.276188,0.59005 0.60452,0.58508 0.783201,-0.0119 1.566262,-0.0296 2.349251,-0.052 v 0 c 0.331153,-0.009 0.591892,-0.28564 0.582401,-0.61679 -0.0095,-0.33115 -0.285644,-0.59193 -0.616796,-0.5824 -0.0011,0 -0.0021,3e-5 -0.0028,7e-5 z m 2.406121,-0.11501 c -0.801442,0.0495 -1.603587,0.088 -2.406121,0.11501 v 0 c -0.331081,0.0111 -0.590479,0.28861 -0.579332,0.61969 0.01111,0.32995 0.286737,0.58889 0.616725,0.57943 0.814425,-0.0233 1.628352,-0.0594 2.441681,-0.10742 v -3e-5 c 0.333235,-0.0197 0.587412,-0.30579 0.567727,-0.63902 -0.01968,-0.33324 -0.305789,-0.58745 -0.639058,-0.56773 -2.65e-4,4e-5 -0.0011,4e-5 -0.0019,7e-5 z m 2.485885,-0.18062 c -0.827972,0.0687 -1.65661,0.1294 -2.485885,0.18062 v 0 c -0.333164,0.0206 -0.5866,0.30741 -0.565997,0.64058 0.02056,0.33256 0.306353,0.58578 0.638987,0.5661 0.837883,-0.0495 1.675271,-0.10866 2.511955,-0.17604 v 0 c 0.334502,-0.0269 0.583845,-0.31997 0.556895,-0.65447 -0.02692,-0.33454 -0.319972,-0.58385 -0.654474,-0.55693 -2.64e-4,7e-5 -0.0011,1e-4 -0.0013,1.4e-4 z m 2.56822,-0.21456 c -0.856049,0.0719 -1.7121,0.14348 -2.56822,0.21456 v 0 c -0.334434,0.0278 -0.583073,0.32138 -0.555308,0.65585 0.02773,0.33387 0.320426,0.58229 0.65433,0.55541 0.856229,-0.0689 1.712527,-0.13723 2.568824,-0.20503 v 0 c 0.337185,-0.0267 0.588857,-0.3217 0.562187,-0.65885 -0.02671,-0.33718 -0.321699,-0.58889 -0.658884,-0.56219 -0.0011,7e-5 -0.0019,1.4e-4 -0.0028,2.5e-4 z m 1.999615,-0.1591 c -0.666925,0.0476 -1.333323,0.10311 -1.999615,0.1591 v 0 c -0.337042,0.0283 -0.587304,0.32449 -0.558975,0.66153 0.02822,0.33591 0.32258,0.58586 0.658601,0.55926 0.661599,-0.0524 1.323303,-0.10432 1.985468,-0.14902 v 0 c 0.339937,-0.023 0.5969,-0.31714 0.573934,-0.65708 -0.02294,-0.33994 -0.317114,-0.5969 -0.65705,-0.57397 -7.94e-4,7e-5 -0.0013,1.1e-4 -0.0024,1.8e-4 z m 2.040432,-0.11035 c -0.680368,0.0305 -1.361053,0.0619 -2.040432,0.11035 v 0 c -0.339831,0.0242 -0.595699,0.3194 -0.571429,0.65923 0.02416,0.33895 0.317887,0.5945 0.656908,0.57164 0.669536,-0.0452 1.33999,-0.0759 2.010373,-0.10597 v 0 c 0.341101,-0.0153 0.605226,-0.30424 0.589915,-0.64534 -0.01532,-0.3411 -0.304234,-0.60519 -0.645335,-0.58991 z m 2.033694,-0.07 c -0.67818,0.01 -1.35622,0.0396 -2.033694,0.07 v 0 c -0.341101,0.0153 -0.605226,0.30423 -0.589952,0.64534 0.01532,0.3411 0.304237,0.60522 0.645337,0.58995 0,-4e-5 3.5e-5,-4e-5 3.5e-5,-4e-5 0.665763,-0.0299 1.331878,-0.0592 1.998276,-0.0711 v 0 c 0.340783,-0.006 0.612103,-0.28727 0.606002,-0.62805 -0.0061,-0.33997 -0.286033,-0.61101 -0.626004,-0.60604 z m 3.457151,-0.0115 c -1.152244,3.4e-4 -2.304981,-0.005 -3.457151,0.0115 v 0 c -0.340821,0.005 -0.613059,0.28526 -0.608084,0.62604 0.005,0.34082 0.285255,0.61302 0.626075,0.60809 7.94e-4,-4e-5 0.0013,-4e-5 0.0021,-4e-5 1.145574,-0.0205 2.291995,-0.0129 3.437678,-0.0134 v 0 c 0.340254,-1.8e-4 0.615985,-0.27612 0.615807,-0.61637 -1.4e-4,-0.34026 -0.276119,-0.61595 -0.616373,-0.61581 z m 4.120409,-0.007 c -1.37347,0.006 -2.746941,0.006 -4.120409,0.007 v 0 c -0.340254,1.7e-4 -0.61595,0.27615 -0.615775,0.61641 1.43e-4,0.34021 0.276085,0.61591 0.616339,0.61577 1.375973,-7.2e-4 2.752055,-10e-4 4.128029,-0.0139 v 0 c 0.338315,-0.003 0.610023,-0.27993 0.606883,-0.61824 -0.0032,-0.33708 -0.277987,-0.6083 -0.615067,-0.60692 z m 0,0 v 0 c -0.338314,10e-4 -0.61147,0.27675 -0.610094,0.61507 0.0013,0.33834 0.276754,0.6115 0.615069,0.61012 0.0011,0 0.0021,0 0.0032,-3e-5 1.647647,-0.0154 3.295472,-0.014 4.943157,-0.0151 v 0 c 0.335068,-2.1e-4 0.606531,-0.27203 0.606319,-0.6071 -2.48e-4,-0.33478 -0.271605,-0.60614 -0.60639,-0.60632 -1.6504,-0.001 -3.300871,-0.004 -4.951273,0.004 z m 4.951341,1.21006 c 0.958604,-7.1e-4 1.917277,-7.1e-4 2.875881,0.002 0.487468,0.001 0.975148,0.001 1.46258,0.01 v 0 c 0.332316,0.006 0.606636,-0.25844 0.612706,-0.59076 0.006,-0.33073 -0.256011,-0.60435 -0.586706,-0.6126 -0.494487,-0.0123 -0.989364,-0.0127 -1.483995,-0.0151 -0.960154,-0.005 -1.920346,-0.006 -2.880537,-0.006 v 0 c -0.335068,-2.2e-4 -0.606848,0.27128 -0.60706,0.60635 -1.75e-4,0.33507 0.271288,0.60688 0.606356,0.60706 2.46e-4,0 2.65e-4,0 7.94e-4,0 z m 4.338498,0.0115 c 0.740762,0.0135 1.481277,0.0491 2.221193,0.0852 v -3e-5 c 0.334751,0.0163 0.619336,-0.24176 0.635672,-0.57651 0.01632,-0.33472 -0.241795,-0.61934 -0.576511,-0.63564 -0.0021,-10e-5 -0.0042,-2.1e-4 -0.0062,-2.9e-4 -0.749228,-0.0289 -1.498563,-0.0574 -2.24818,-0.0761 v 0 c -0.332248,-0.008 -0.60833,0.25435 -0.616622,0.58663 -0.0083,0.33225 0.254354,0.60833 0.5866,0.61662 0.0013,4e-5 0.0028,7e-5 0.0041,1.1e-4 z m 2.221193,0.0852 c 1.257829,0.0614 2.516187,0.11201 3.774511,0.16041 v 0 c 0.339513,0.0131 0.625335,-0.2516 0.638387,-0.59111 0.01304,-0.33952 -0.2516,-0.6253 -0.591114,-0.63836 -1.43e-4,0 -2.64e-4,0 -2.64e-4,-3e-5 -1.256136,-0.0474 -2.512306,-0.095 -3.768442,-0.14337 v 0 c -0.334857,-0.0129 -0.616797,0.24811 -0.629709,0.583 -0.01278,0.33246 0.24451,0.61323 0.576792,0.62943 v 3e-5 z m 3.774511,0.16041 c 1.814267,0.0698 3.629165,0.12143 5.444207,0.16626 v 0 c 0.339762,0.008 0.621983,-0.2602 0.63038,-0.59996 0.0084,-0.33962 -0.260032,-0.62178 -0.599651,-0.63035 -1.80961,-0.0456 -3.619183,-0.0971 -5.428086,-0.16545 v 0 c -0.339513,-0.0128 -0.625123,0.25202 -0.637963,0.59154 -0.01281,0.33937 0.251777,0.62491 0.591113,0.63796 z m 5.444207,0.16626 c 1.562878,0.0386 3.125753,0.0773 4.688276,0.12778 v 0 c 0.33609,0.0109 0.617326,-0.25276 0.628156,-0.58882 0.01082,-0.33429 -0.25005,-0.61468 -0.5842,-0.62802 -1.566617,-0.0625 -3.134217,-0.10174 -4.701503,-0.14125 v 0 c -0.339762,-0.009 -0.622089,0.25993 -0.630661,0.59965 -0.0086,0.33973 0.259927,0.62209 0.599652,0.63067 1.05e-4,0 2.11e-4,0 2.64e-4,0 z m 4.688276,0.12778 c 0.76521,0.0247 1.530525,0.0492 2.295242,0.0862 v 0 c 0.331822,0.0161 0.613868,-0.23988 0.629955,-0.57171 0.01601,-0.33094 -0.238583,-0.61256 -0.569452,-0.62985 -0.770292,-0.0403 -1.541111,-0.0708 -2.311789,-0.10153 v 0 c -0.335987,-0.0134 -0.619197,0.24811 -0.632601,0.5841 -0.01341,0.33595 0.248074,0.61916 0.584058,0.63256 0.0013,8e-5 0.0032,1.5e-4 0.0046,1.8e-4 z m 2.295242,0.0862 c 0.753886,0.0366 1.50816,0.0658 2.262365,0.0951 v 0 c 0.331399,0.0128 0.610481,-0.24536 0.623358,-0.57676 0.01283,-0.33143 -0.245393,-0.61048 -0.576791,-0.62336 -1.06e-4,0 -1.77e-4,0 -2.65e-4,0 -0.749511,-0.0287 -1.499129,-0.0574 -2.248183,-0.0965 v 0 c -0.331787,-0.0173 -0.614749,0.2376 -0.632071,0.56939 -0.01733,0.33175 0.237596,0.61475 0.569349,0.63207 7.94e-4,3e-5 0.0013,7e-5 0.0021,1e-4 z m 2.262365,0.0951 c 0.760413,0.0295 1.521,0.0588 2.281767,0.0778 v 0 c 0.331504,0.008 0.606917,-0.25383 0.615172,-0.5853 0.0082,-0.33122 -0.253399,-0.60649 -0.584586,-0.61514 -0.755545,-0.0197 -1.510843,-0.0485 -2.266069,-0.0775 v 0 c -0.331399,-0.0127 -0.610376,0.24564 -0.623076,0.57704 -0.01267,0.3313 0.245497,0.6102 0.576792,0.62308 z m 2.281801,0.0778 c 0.765599,0.019 1.531091,0.0434 2.296549,0.0677 v 0 c 0.326141,0.0104 0.598945,-0.24561 0.609351,-0.57175 0.01027,-0.32343 -0.241474,-0.59496 -0.564761,-0.60907 -0.769972,-0.0336 -1.540121,-0.0673 -2.310587,-0.0874 v 0 c -0.331507,-0.009 -0.607238,0.25309 -0.615845,0.58456 -0.0087,0.3315 0.253048,0.6072 0.584552,0.61584 2.46e-4,3e-5 2.65e-4,3e-5 7.94e-4,3e-5 z m 2.296549,0.0677 c 1.018151,0.0324 2.036476,0.0601 3.054876,0.0829 v 0 c 0.31888,0.007 0.58318,-0.24561 0.5903,-0.56452 0.007,-0.31764 -0.24369,-0.58138 -0.5613,-0.59023 -1.01335,-0.0283 -2.026495,-0.0647 -3.039286,-0.10894 v 0 c -0.326001,-0.0143 -0.601839,0.23848 -0.61609,0.56448 -0.01426,0.326 0.238477,0.60184 0.564478,0.61609 0.0024,7e-5 0.0047,1.8e-4 0.007,2.5e-4 z m 3.054876,0.0829 c 0.75153,0.0168 1.50333,0.0335 2.25439,0.0662 h -3e-5 c 0.31873,0.0139 0.58836,-0.23326 0.60226,-0.552 0.0139,-0.31873 -0.23326,-0.58836 -0.55199,-0.60222 -0.002,-1.1e-4 -0.004,-1.8e-4 -0.007,-2.5e-4 -0.75625,-0.0243 -1.51267,-0.0454 -2.26903,-0.0665 v 0 c -0.31884,-0.009 -0.58455,0.24236 -0.59344,0.56123 -0.009,0.31884 0.24239,0.58456 0.56123,0.59345 0.001,0 0.002,3e-5 0.003,7e-5 z m 2.25439,0.0662 c 0.50765,0.0221 1.0154,0.0414 1.52326,0.0581 v 0 c 0.32438,0.0107 0.59602,-0.24366 0.60671,-0.56808 0.0107,-0.32438 -0.24366,-0.59602 -0.56808,-0.60671 -0.003,-7e-5 -0.006,-1.4e-4 -0.009,-2.1e-4 -0.5032,-0.009 -1.00633,-0.0214 -1.5094,-0.0376 v 0 c -0.31884,-0.0103 -0.58564,0.23993 -0.59591,0.5588 -0.0102,0.3163 0.23612,0.58191 0.55228,0.59567 z m 1.52326,0.0581 c 0.50617,0.0166 1.0123,0.0359 1.51829,0.0578 v 0 c 0.32985,0.0143 0.60879,-0.24154 0.62307,-0.57139 0.0143,-0.32985 -0.24154,-0.60879 -0.57139,-0.62308 -0.002,-1e-4 -0.005,-1.7e-4 -0.007,-2.4e-4 -0.511,-0.0163 -1.02217,-0.0289 -1.53339,-0.0381 v 0 c -0.32452,-0.006 -0.59227,0.25263 -0.59806,0.57715 -0.006,0.32106 0.24733,0.5873 0.56829,0.59785 z m 1.51829,0.0578 c 0.58395,0.0253 1.16843,0.039 1.75267,0.0557 1.23881,0.0354 2.47763,0.068 3.71655,0.10047 v 0 c 0.33658,0.009 0.61658,-0.25692 0.6254,-0.59351 0.009,-0.33659 -0.25693,-0.61658 -0.59355,-0.6254 -7.9e-4,0 -10e-4,-4e-5 -0.002,-4e-5 -1.23825,-0.0284 -2.47643,-0.057 -3.71468,-0.0869 -0.57979,-0.014 -1.15986,-0.0265 -1.73954,-0.045 v 0 c -0.32999,-0.0105 -0.60604,0.24846 -0.61656,0.57841 -0.0105,0.32734 0.24445,0.60212 0.57165,0.6163 z m 5.46918,0.15614 c 2.0737,0.0543 4.14772,0.10453 6.22099,0.17368 v 3e-5 c 0.34279,0.0114 0.62999,-0.25721 0.64142,-0.60004 0.0114,-0.34279 -0.25721,-0.62999 -0.60004,-0.64142 -0.001,-3e-5 -0.002,-7e-5 -0.003,-1e-4 -2.07621,-0.0588 -4.15287,-0.10351 -6.22932,-0.1511 v 0 c -0.33662,-0.008 -0.61577,0.2589 -0.6235,0.59552 -0.008,0.33585 0.25774,0.61465 0.59355,0.62343 z m 6.22099,0.17368 c 0.76849,0.0256 1.53705,0.0514 2.30537,0.0818 v 0 c 0.34583,0.0137 0.63729,-0.25559 0.65098,-0.60145 0.0137,-0.34586 -0.25559,-0.63729 -0.60142,-0.65098 -10e-4,-7e-5 -0.002,-1.1e-4 -0.003,-1.1e-4 -0.77117,-0.027 -1.54245,-0.0489 -2.31376,-0.0708 v 0 c -0.34286,-0.01 -0.62869,0.26038 -0.63842,0.60325 -0.01,0.34166 0.25855,0.62692 0.60014,0.63831 v -3e-5 z m 2.30537,0.0818 c 0.79713,0.0315 1.59483,0.0518 2.3923304,0.0723 v 0 c 0.34769,0.009 0.6368,-0.26574 0.64569,-0.61344 0.009,-0.3477 -0.26572,-0.63676 -0.61341,-0.64569 -2.7e-4,0 -8e-4,0 -0.001,-4e-5 -0.7923804,-0.0191 -1.5848204,-0.038 -2.3769504,-0.0657 v 3e-5 c -0.34593,-0.0121 -0.63613,0.25852 -0.64823,0.60442 -0.012,0.3448 0.25682,0.63447 0.60156,0.64812 z m 2.3923304,0.0723 c 1.12186,0.0287 2.24401,0.0458 3.3662,0.054 v 0 c 0.34978,0.002 0.63542,-0.2789 0.638,-0.62868 0.002,-0.34982 -0.27891,-0.63546 -0.62872,-0.63803 -7.9e-4,0 -0.001,0 -0.002,0 -1.11429,-0.005 -2.22854,-0.0197 -3.3425,-0.0465 v 0 c -0.3477004,-0.008 -0.6363804,0.26674 -0.6447404,0.61444 -0.008,0.34734 0.26614,0.63581 0.6134504,0.64473 z M 14.80402,105.36126 c -5.0020396,0.0168 -10.0039996,0.0332 -15.00599956,0.0466 -2.05592004,0.006 -4.11202004,0.0196 -6.16793004,0.0101 v 0 c -0.34982,-0.002 -0.63469,0.28063 -0.63631,0.63045 -0.002,0.3491 0.27958,0.63373 0.62872,0.63627 2.05821,0.0151 4.11653,0.0186 6.17481004,0.0264 5.00220996,0.0188 10.00442996,0.0361 15.00663956,0.0533 v 0 c 0.38745,10e-4 0.70263,-0.31168 0.70397,-0.69913 10e-4,-0.38746 -0.31168,-0.70267 -0.69914,-0.70397 -0.002,-4e-5 -0.003,-4e-5 -0.005,0 z m 0,0 v 0 c -0.38746,0.001 -0.70051,0.31644 -0.69921,0.7039 10e-4,0.38558 0.31355,0.69786 0.69914,0.6992 5.07707,0.0175 10.15421,0.0357 15.23125,0.0639 1.53546,0.008 3.07104,0.0176 4.60647,0.0309 0.7445,0.006 1.48921,0.0116 2.23361,0.027 v 0 c 0.42372,0.009 0.77431,-0.32762 0.78309,-0.75135 0.009,-0.42372 -0.32762,-0.77431 -0.75134,-0.78309 0,0 0,0 0,0 -0.84321,-0.0175 -1.68688,-0.0178 -2.53026,-0.0207 -1.44587,-0.005 -2.89187,-0.005 -4.33776,-0.005 -5.07834,0.002 -10.15668,0.0179 -15.23499,0.0349 z m 22.07126,1.52481 c 1.4328,0.0297 2.86565,0.0598 4.29838,0.093 v 0 c 0.41272,0.01 0.75502,-0.31729 0.76458,-0.73001 0.009,-0.40566 -0.30657,-0.74471 -0.71187,-0.76394 -1.43884,-0.0682 -2.87927,-0.10364 -4.31934,-0.13345 v 0 c -0.42372,-0.009 -0.77431,0.32762 -0.7831,0.75134 -0.009,0.42373 0.32763,0.77432 0.75135,0.7831 z m 4.29838,0.093 c 1.32158,0.0306 2.64238,0.0947 3.96216,0.16884 v 0 c 0.4064,0.0228 0.75434,-0.28812 0.77717,-0.69448 0.0228,-0.40637 -0.28812,-0.75431 -0.69448,-0.77717 -0.002,-1.1e-4 -0.004,-2.1e-4 -0.006,-2.9e-4 -1.32874,-0.064 -2.65748,-0.12781 -3.98628,-0.19086 v 0 c -0.41237,-0.0195 -0.7625,0.29888 -0.78208,0.71124 -0.0196,0.41236 0.29888,0.76249 0.71124,0.78207 0.006,2.9e-4 0.0121,3.5e-4 0.0181,7.2e-4 z m 3.96216,0.16884 c 1.28637,0.0723 2.57298,0.14181 3.86016,0.19805 v 0 c 0.41589,0.0182 0.76775,-0.30424 0.78592,-0.72013 0.0182,-0.41589 -0.30424,-0.76775 -0.72012,-0.78592 -0.002,-1e-4 -0.005,-2.1e-4 -0.007,-2.9e-4 -1.281,-0.0434 -2.56151,-0.10199 -3.84178,-0.16365 v 0 c -0.40654,-0.0196 -0.75198,0.29411 -0.77156,0.70065 -0.0195,0.40425 0.29069,0.74856 0.69476,0.77128 z m 3.86016,0.19805 c 1.00514,0.0439 2.01017,0.0924 3.01484,0.14534 v 0 c 0.42182,0.0222 0.78179,-0.30173 0.80402,-0.72355 0.0222,-0.42181 -0.30173,-0.78179 -0.72355,-0.80401 -10e-4,-4e-5 -0.002,-1.1e-4 -0.004,-1.8e-4 -1.01075,-0.0483 -2.02181,-0.0897 -3.03315,-0.12393 v 0 c -0.41603,-0.0141 -0.76472,0.31175 -0.77883,0.72778 -0.014,0.41314 0.30741,0.76048 0.72041,0.77855 z m 3.01484,0.14534 c 1.19585,0.063 2.39145,0.12905 3.58701,0.19632 v 0 c 0.42488,0.0239 0.78874,-0.30117 0.81262,-0.72609 0.0239,-0.42492 -0.30116,-0.78874 -0.72605,-0.81262 -2.6e-4,-3e-5 -10e-4,-7e-5 -10e-4,-1.1e-4 -1.19825,-0.065 -2.39663,-0.12795 -3.5953,-0.18524 v 0 c -0.42192,-0.0201 -0.78027,0.30554 -0.80045,0.72746 -0.0201,0.42048 0.30339,0.77813 0.72372,0.80028 z m 3.58701,0.19632 c 1.30387,0.0733 2.60809,0.14118 3.91266,0.20112 v 0 c 0.42432,0.0195 0.78412,-0.30872 0.80359,-0.73304 0.0195,-0.42319 -0.30699,-0.78246 -0.73011,-0.80348 -1.30051,-0.0647 -2.60089,-0.13286 -3.90112,-0.20342 v 0 c -0.42496,-0.0231 -0.78814,0.30276 -0.81118,0.72771 -0.023,0.42436 0.30184,0.78723 0.72616,0.81111 z m 3.91262,0.20112 c 0.99441,0.0457 1.98896,0.0896 2.98387,0.12397 v 0 c 0.427,0.0147 0.78514,-0.31948 0.79989,-0.74648 0.0147,-0.42704 -0.31948,-0.78514 -0.74652,-0.79989 -0.004,-1.4e-4 -0.007,-2.5e-4 -0.0108,-3.2e-4 -0.98481,-0.0202 -1.96914,-0.0649 -2.95289,-0.1138 v 0 c -0.42425,-0.0211 -0.78528,0.30571 -0.80638,0.72996 -0.0211,0.42425 0.30572,0.78532 0.72997,0.80642 10e-4,3e-5 0.002,7e-5 0.003,1.4e-4 z m 2.98387,0.12397 c 1.34669,0.0465 2.69578,0.0427 4.04308,0.0451 v 0 c 0.43395,7.1e-4 0.78637,-0.35035 0.78715,-0.7843 7.9e-4,-0.43395 -0.35034,-0.78638 -0.7843,-0.78719 -7.9e-4,0 -0.001,0 -0.002,0 -1.33354,10e-4 -2.66785,0.007 -4.00117,-0.0203 v 0 c -0.42718,-0.009 -0.78059,0.33045 -0.78934,0.75763 -0.009,0.42298 0.32399,0.77445 0.74679,0.78906 z m 4.04371,-1.52637 v 0 c -0.43395,3.5e-4 -0.78539,0.3526 -0.78493,0.78656 2.7e-4,0.43307 0.35123,0.78415 0.7843,0.78493 1.33911,0.002 2.67892,0.009 4.01789,-0.0152 v 0 c 0.42993,-0.008 0.77219,-0.36258 0.76443,-0.79252 -0.008,-0.42393 -0.35306,-0.76379 -0.77702,-0.76457 -1.33492,-0.002 -2.66979,-7.1e-4 -4.00467,7.1e-4 z m 4.01722,1.55628 c 0.60823,-0.0109 1.21666,-0.0131 1.82492,-0.0158 1.08303,-0.005 2.16606,-0.006 3.24909,-0.007 v 0 c 0.42231,-3.2e-4 0.76443,-0.3429 0.76411,-0.76521 -2.6e-4,-0.42189 -0.34226,-0.76383 -0.76415,-0.76412 -1.69552,-10e-4 -3.39101,-0.002 -5.08652,-0.005 v 4e-5 c -0.43004,-7.2e-4 -0.77929,0.34713 -0.78007,0.77717 -7.9e-4,0.43 0.34714,0.77925 0.77717,0.78006 0.005,0 0.0103,-4e-5 0.0155,-1.4e-4 z m 5.07401,-0.023 c 1.06616,-7.1e-4 2.13233,-0.001 3.19849,0.002 0.55704,0.002 1.11428,0.002 1.67129,0.0118 v 0 c 0.4204,0.008 0.76746,-0.32688 0.77516,-0.74729 0.008,-0.42008 -0.32639,-0.76697 -0.74645,-0.77515 -0.56476,-0.011 -1.12977,-0.0119 -1.6946,-0.0143 -1.06796,-0.004 -2.13597,-0.006 -3.20393,-0.006 v 0 c -0.42231,-2.9e-4 -0.76489,0.34184 -0.76517,0.76415 -2.7e-4,0.42231 0.34184,0.76489 0.76415,0.76517 2.6e-4,0 7.9e-4,0 10e-4,0 z m 9.03502,-1.52576 c -0.88416,0.01 -1.76837,0.0181 -2.65257,0.0218 -0.49456,0.002 -0.98947,0.005 -1.48399,-0.005 v 0 c -0.42041,-0.008 -0.76782,0.326 -0.77601,0.74644 -0.008,0.42041 0.32604,0.76782 0.74644,0.77601 2.7e-4,0 8e-4,0 8e-4,0 1.38811,0.0254 2.7765,0.0382 4.16471,0.0541 v 0 c 0.44013,0.005 0.80099,-0.34763 0.80603,-0.78772 0.005,-0.44009 -0.34762,-0.80098 -0.78772,-0.80603 -0.006,-7e-5 -0.0119,-7e-5 -0.0178,0 z m 4.1075,-0.0823 c -0.48669,0.0259 -0.97451,0.0342 -1.4617,0.044 -0.88184,0.0177 -1.76385,0.0287 -2.6458,0.0383 v 0 c -0.44012,0.005 -0.79301,0.36541 -0.78824,0.80553 0.005,0.43318 0.35457,0.78324 0.78771,0.78822 0.88922,0.0102 1.77853,0.0177 2.66782,0.0124 0.51308,-0.003 1.02824,-0.004 1.5404,-0.039 v 0 c 0.4553,-0.031 0.79918,-0.42531 0.76814,-0.8806 -0.0307,-0.4505 -0.41744,-0.79291 -0.86833,-0.76888 z m 2.08513,-0.0585 c -0.69529,0.005 -1.39076,0.0215 -2.08513,0.0585 v 0 c -0.45572,0.0243 -0.80543,0.41338 -0.78115,0.8691 0.0243,0.45568 0.41338,0.80539 0.8691,0.78112 0.004,-2.1e-4 0.008,-3.4e-4 0.0122,-7.1e-4 0.66601,-0.0454 1.33367,-0.0656 2.00113,-0.0736 v 0 c 0.45131,-0.005 0.8128,-0.3756 0.8074,-0.82691 -0.005,-0.45001 -0.37356,-0.811 -0.82359,-0.80744 v -4e-5 z m 0,0 v 3e-5 c -0.45135,0.004 -0.81432,0.37229 -0.81076,0.82363 0.004,0.45131 0.37229,0.81432 0.82364,0.81076 0.001,0 0.002,-4e-5 0.003,-4e-5 1.00193,-0.0119 2.00392,-0.0187 3.00588,-0.0247 v 0 c 0.44393,-0.002 0.80165,-0.36466 0.799,-0.80856 -0.002,-0.4402 -0.3588,-0.7964 -0.799,-0.79901 -1.00732,-0.006 -2.01471,-0.0101 -3.02204,-0.002 z m 3.02204,1.60972 c 1.1352,-0.007 2.27919,-0.0796 3.39308,-0.30857 v 0 c 0.33853,-0.0696 0.55654,-0.40041 0.48697,-0.73893 -0.0581,-0.28289 -0.30232,-0.48923 -0.59093,-0.49939 -1.09591,-0.0386 -2.19259,-0.0542 -3.28912,-0.0607 v 0 c -0.44394,-0.002 -0.80593,0.35507 -0.80857,0.79901 -0.003,0.4439 0.35507,0.80592 0.799,0.80856 0.003,0 0.006,0 0.01,0 z"
       style="fill:#000000;fill-opacity:1;fill-rule:nonzero;stroke:none;stroke-width:0.35277775"
       id="path2174"
       inkscape:connector-curvature="0" />
    <path
       d="m -128.42351,100.0643 h -1e-5 c 0.0773,0.074 0.20005,0.0713 0.27408,-0.006 0.0144,-0.0151 0.0263,-0.0324 0.0352,-0.0512 l -2.6e-4,-3e-5 c 0.16324,-0.118537 0.1995,-0.346925 0.081,-0.510156 -0.11851,-0.163265 -0.34692,-0.199495 -0.51016,-0.081 -0.16324,0.118498 -0.1995,0.346921 -0.081,0.510152 0.0492,0.06784 0.12032,0.116664 0.20129,0.138294 z m 0.077,-0.717654 c -0.27166,0.01295 -0.38105,0.272415 -0.43603,0.494912 -0.0428,0.173352 -0.0672,0.351372 -0.0881,0.528462 -0.0725,0.61284 -0.0982,1.23176 -0.12088,1.84806 h 1e-5 c -0.0127,0.34403 0.25594,0.63317 0.59994,0.64583 0.34401,0.0127 0.63315,-0.25594 0.64582,-0.59993 5.6e-4,-0.0153 5.6e-4,-0.0306 0,-0.0459 -0.0225,-0.6109 -0.0466,-1.22283 -0.0994,-1.83201 -0.0157,-0.18136 -0.033,-0.36336 -0.0647,-0.542712 -0.0305,-0.172438 -0.0766,-0.361809 -0.24533,-0.453108 v 0 c -0.0586,-0.03171 -0.12473,-0.04681 -0.19127,-0.0436 z m -0.64502,2.871434 c -0.0232,0.62904 -0.0457,1.25822 -0.0642,1.8874 -0.009,0.32233 -0.0217,0.64526 -0.0193,0.96781 v 0 c 0.003,0.39536 0.32585,0.71349 0.72124,0.71056 0.39539,-0.003 0.71352,-0.32586 0.71058,-0.72125 -5e-5,-0.006 -1.7e-4,-0.0121 -3.5e-4,-0.0182 -0.0309,-0.9422 -0.0674,-1.88429 -0.10212,-2.82631 h -1e-5 c -0.0127,-0.34403 -0.3018,-0.61264 -0.64581,-0.59997 -0.32624,0.012 -0.58794,0.27372 -0.59995,0.59993 h -1e-5 z m -0.0836,2.85517 c 0.002,0.27376 0.0271,0.54765 0.0513,0.82014 0.0403,0.45417 0.0893,0.90763 0.14021,1.36073 v 0 c 0.0459,0.40916 0.41483,0.70358 0.82397,0.65765 0.40914,-0.0459 0.70357,-0.41483 0.65764,-0.82398 -8.2e-4,-0.007 -0.002,-0.0141 -0.003,-0.0211 -0.0622,-0.44009 -0.12263,-0.88046 -0.17431,-1.32197 -0.0272,-0.23227 -0.057,-0.46633 -0.0647,-0.70026 h -1e-5 c -0.013,-0.39518 -0.34388,-0.70503 -0.73907,-0.69204 -0.38809,0.0128 -0.69526,0.33256 -0.69238,0.72086 z m 0.19151,2.18091 c 0.0515,0.45889 0.10493,0.91758 0.16593,1.3753 0.0381,0.28632 0.0769,0.57337 0.13285,0.85687 h 1e-5 c 0.0823,0.41666 0.48678,0.6877 0.90345,0.60543 0.41666,-0.0823 0.68772,-0.48679 0.60544,-0.90346 -0.0508,-0.25749 -0.091,-0.51735 -0.1312,-0.77668 -0.0695,-0.44778 -0.13413,-0.8963 -0.19755,-1.34496 v 0 c -0.0576,-0.40767 -0.4348,-0.69145 -0.84245,-0.6338 -0.39944,0.0564 -0.68149,0.4204 -0.63648,0.8213 z m 0.29878,2.23217 c 0.0596,0.30148 0.12159,0.61009 0.23652,0.8963 h -1e-5 c 0.15777,0.39292 0.6042,0.58356 0.99712,0.4258 0.38753,-0.15561 0.57924,-0.59274 0.4312,-0.98323 -0.0268,-0.0708 -0.0456,-0.14502 -0.064,-0.21837 -0.0349,-0.13853 -0.0642,-0.27841 -0.0919,-0.41853 h -1e-5 c -0.0823,-0.41667 -0.48677,-0.68771 -0.90343,-0.60544 -0.41667,0.0823 -0.68774,0.48676 -0.60546,0.90343 0,0 0,0 0,4e-5 z m 0.23652,0.8963 c 0.13055,0.32515 0.36955,0.60702 0.7133,0.71317 v 0 c 0.40572,0.12531 0.83619,-0.10202 0.96148,-0.50775 0.0977,-0.31648 -0.0182,-0.65998 -0.28773,-0.85252 l 4.5e-4,-7e-5 c -0.19966,-0.37338 -0.66421,-0.51421 -1.03759,-0.31454 -0.34486,0.1844 -0.49565,0.59881 -0.34993,0.96171 z m 0.71318,0.71314 c 0.26663,0.0824 0.564,0.0189 0.77385,-0.16464 0.12671,-0.11081 0.21723,-0.26088 0.25505,-0.42499 0.0479,-0.20765 0.0106,-0.44048 -0.12247,-0.61038 v 0 c -0.0195,-0.0249 -0.0411,-0.0483 -0.0645,-0.0697 -0.11881,-0.10922 -0.27915,-0.17466 -0.43432,-0.21216 v 0 c -0.41273,-0.0998 -0.82822,0.15392 -0.928,0.56663 -0.0954,0.39465 0.13245,0.79544 0.52035,0.91528 z"
       style="fill:#000000;fill-opacity:1;fill-rule:nonzero;stroke:none;stroke-width:0.35277775"
       id="path2176"
       inkscape:connector-curvature="0" />
    <path
       d="m -109.27166,104.03789 c -0.095,0.36043 -0.0617,0.74781 0.0456,1.10154 v 0 c 0.064,0.21107 0.28702,0.33031 0.49812,0.26628 0.21107,-0.064 0.33031,-0.28702 0.26628,-0.49809 -0.003,-0.0106 -0.007,-0.0211 -0.011,-0.0315 -0.12298,-0.30978 -0.26826,-0.61264 -0.44838,-0.89348 v 0 c -0.0578,-0.0901 -0.1777,-0.11632 -0.26783,-0.0585 -0.0409,0.0262 -0.0704,0.0668 -0.0828,0.11373 z m 0.0456,1.10154 c 0.10467,0.34513 0.19484,0.69459 0.27587,1.04595 v 0 c 0.0524,0.22719 0.27898,0.36887 0.50613,0.31648 0.22719,-0.0524 0.36887,-0.27901 0.31648,-0.50616 -1.4e-4,-7.2e-4 -2.9e-4,-0.001 -3.5e-4,-0.002 -0.0894,-0.3797 -0.20066,-0.75491 -0.34462,-1.11764 v 0 c -0.0814,-0.20504 -0.31355,-0.30526 -0.51859,-0.22387 -0.193,0.0766 -0.2951,0.28839 -0.23484,0.48711 z m 0.27587,1.04599 c 0.0633,0.2745 0.15847,0.54169 0.25883,0.80447 0.14073,0.36841 0.29792,0.7304 0.46073,1.08949 h -3e-5 c 0.0424,0.0934 0.15243,0.13479 0.24581,0.0925 0.0712,-0.0323 0.11451,-0.10559 0.10848,-0.18348 -0.0304,-0.39176 -0.0656,-0.78345 -0.1144,-1.17337 -0.0344,-0.27513 -0.0737,-0.55104 -0.13724,-0.82116 v 0 c -0.0534,-0.22691 -0.28067,-0.36756 -0.50757,-0.31415 -0.22624,0.0532 -0.36686,0.27929 -0.31461,0.50574 z"
       style="fill:#000000;fill-opacity:1;fill-rule:nonzero;stroke:none;stroke-width:0.35277775"
       id="path2182"
       inkscape:connector-curvature="0" />
    <path
       d="m -91.528809,103.8937 v 0 c -0.0064,0.0605 0.01606,0.12055 0.06054,0.16207 l -2.64e-4,-3e-5 c 0.06869,0.161 0.254918,0.23579 0.41589,0.16711 0.161007,-0.0687 0.235797,-0.25492 0.167111,-0.41593 -0.01259,-0.0295 -0.0296,-0.0569 -0.05045,-0.0814 -0.049,-0.0574 -0.108336,-0.10774 -0.178927,-0.13624 -0.107175,-0.0434 -0.234527,-0.0284 -0.319405,0.0539 -0.06992,0.0678 -0.08477,0.15868 -0.09447,0.2505 z m 0.0357,0.0612 c 0.01818,0.24345 0.05087,0.48602 0.08234,0.72799 v 0 c 0.02822,0.21728 0.227261,0.37049 0.4445,0.34223 0.217276,-0.0282 0.370488,-0.22726 0.342231,-0.4445 -7.94e-4,-0.005 -0.0013,-0.0108 -0.0024,-0.0162 -0.0278,-0.16129 -0.06333,-0.32223 -0.117264,-0.47695 -0.04486,-0.12873 -0.103064,-0.25739 -0.192248,-0.36188 v 0 c -0.11363,-0.13314 -0.313655,-0.14898 -0.446794,-0.0354 -0.07687,0.0656 -0.117861,0.1639 -0.110312,0.26465 z m 0.08234,0.72803 c 0.04011,0.3084 0.0979,0.6175 0.200343,0.91182 v 0 c 0.07331,0.21061 0.303461,0.32195 0.514069,0.24864 0.207963,-0.0724 0.31958,-0.29799 0.250965,-0.50719 -0.08237,-0.25117 -0.136241,-0.51163 -0.18108,-0.7718 v 0 c -0.03722,-0.2159 -0.242393,-0.36079 -0.458293,-0.32357 -0.209622,0.0361 -0.353449,0.23114 -0.326004,0.4421 z m 0.200343,0.91182 c 0.07296,0.20959 0.184996,0.40718 0.292772,0.60033 0.178892,0.32053 0.370062,0.63433 0.563456,0.94625 v -3e-5 c 0.05295,0.0854 0.165169,0.11176 0.250577,0.0588 0.06639,-0.0412 0.09913,-0.12005 0.08135,-0.1961 -0.08297,-0.35493 -0.167006,-0.70965 -0.256435,-1.06296 -0.05126,-0.20246 -0.101566,-0.40622 -0.166653,-0.6048 h -3.5e-5 c -0.06946,-0.21192 -0.297569,-0.32738 -0.509447,-0.25792 -0.211913,0.0695 -0.327411,0.29761 -0.257916,0.50948 7.94e-4,0.002 0.0013,0.005 0.0024,0.007 z"
       style="fill:#000000;fill-opacity:1;fill-rule:nonzero;stroke:none;stroke-width:0.35277775"
       id="path2184"
       inkscape:connector-curvature="0" />
    <path
       d="m -73.449902,102.62617 c -0.107069,0.22123 -0.263384,0.42284 -0.409469,0.61892 v 0 c -0.06396,0.0859 -0.04621,0.20729 0.03962,0.27128 0.08587,0.064 0.207293,0.0462 0.271288,-0.0396 0,0 0,0 0,0 0.08689,-0.11663 0.17907,-0.23064 0.283702,-0.33193 0.05334,-0.0516 0.113067,-0.10876 0.181928,-0.13934 v 0 c 0.141849,-0.063 0.205773,-0.22906 0.142765,-0.37091 -0.06301,-0.14186 -0.229092,-0.20578 -0.370946,-0.14277 -0.06071,0.027 -0.109924,0.0746 -0.138888,0.1344 z m 3.5e-5,0 v -3e-5 c -0.0466,0.0963 -0.03454,0.21061 0.03111,0.29499 -0.0021,0.0342 -0.0049,0.0687 -0.0081,0.10319 h -3.4e-5 c -0.02135,0.22828 0.146367,0.43064 0.37465,0.45201 0.228282,0.0214 0.430635,-0.14636 0.452014,-0.37465 0.0024,-0.0264 0.0024,-0.0529 -2.12e-4,-0.0793 -0.01998,-0.20298 -0.06908,-0.43211 -0.238374,-0.56501 -0.142697,-0.11204 -0.348226,-0.11863 -0.488738,7.2e-4 -0.05373,0.0457 -0.0919,0.10509 -0.122343,0.16803 z m 0.02304,0.39815 c -0.02882,0.30794 -0.03916,0.62159 0.0038,0.92876 v 0 c 0.03591,0.25657 0.273016,0.43543 0.52959,0.39952 0.256574,-0.0359 0.43547,-0.27302 0.399555,-0.52959 -0.0011,-0.006 -0.0021,-0.0129 -0.0032,-0.0193 -0.04724,-0.25844 -0.07768,-0.51999 -0.103399,-0.78133 h 3.7e-5 c -0.02242,-0.22818 -0.225597,-0.39493 -0.453739,-0.3725 -0.197874,0.0195 -0.354153,0.1765 -0.372711,0.37444 h 3.8e-5 z m 0.0038,0.92876 c 0.03775,0.26973 0.1143,0.53336 0.22338,0.78281 v 0 c 0.102798,0.23506 0.376661,0.3423 0.611716,0.2395 0.22419,-0.098 0.333867,-0.35313 0.25086,-0.58325 -0.06908,-0.19141 -0.12333,-0.38823 -0.159949,-0.58843 v 0 c -0.04655,-0.25485 -0.290921,-0.42368 -0.545767,-0.37712 -0.24737,0.0452 -0.415079,0.27746 -0.380225,0.52649 z m 0.22338,0.78278 c 0.08594,0.19663 0.181115,0.3992 0.320463,0.56444 v 0 c 0.148659,0.17621 0.412009,0.19858 0.588222,0.05 0.12728,-0.10738 0.178575,-0.28014 0.130527,-0.43959 -0.0527,-0.17477 -0.114724,-0.34685 -0.176636,-0.51848 v 0 c -0.08703,-0.24134 -0.353238,-0.36643 -0.594572,-0.27937 -0.241334,0.087 -0.366429,0.35324 -0.279366,0.59458 0.0035,0.01 0.0073,0.0191 0.01135,0.0285 z m 0.320463,0.56444 c 0.08826,0.10463 0.207645,0.17907 0.327343,0.24268 0.138887,0.0738 0.284408,0.13511 0.430598,0.19272 v 0 c 0.09236,0.0364 0.19671,-0.009 0.233082,-0.10132 0.01884,-0.0478 0.01633,-0.10139 -0.0069,-0.14721 -0.06463,-0.12732 -0.12827,-0.2552 -0.187254,-0.38524 -0.02826,-0.0623 -0.05831,-0.12555 -0.07811,-0.1912 v 0 c -0.0665,-0.22074 -0.299368,-0.34576 -0.520099,-0.27923 -0.220734,0.0665 -0.345758,0.29937 -0.279226,0.5201 0.01643,0.0545 0.04385,0.10513 0.08058,0.1487 z"
       style="fill:#000000;fill-opacity:1;fill-rule:nonzero;stroke:none;stroke-width:0.35277775"
       id="path2190"
       inkscape:connector-curvature="0" />
    <path
       d="m -55.534223,102.83774 v 0 c 0.0073,0.0417 0.02815,0.0799 0.05923,0.10862 l 2.12e-4,-2.2e-4 c 0.05316,0.15618 0.222885,0.23972 0.379095,0.18652 0.156173,-0.0532 0.239712,-0.22289 0.186512,-0.37906 -0.01214,-0.0357 -0.03097,-0.0688 -0.05546,-0.0976 -0.105087,-0.12329 -0.266271,-0.23523 -0.433628,-0.15804 -0.09945,0.0458 -0.154517,0.14788 -0.147497,0.25485 0.0019,0.0284 0.0066,0.0568 0.01154,0.0849 z m 0.05821,0.10463 c 0.09528,0.29256 0.17131,0.59192 0.25005,0.88918 v 0 c 0.05052,0.19085 0.246202,0.30462 0.437054,0.2541 0.190855,-0.0506 0.304589,-0.2462 0.254072,-0.43709 -7.94e-4,-0.002 -0.0013,-0.005 -0.0019,-0.007 -0.05664,-0.1978 -0.119403,-0.39479 -0.199379,-0.58455 -0.05944,-0.14101 -0.128481,-0.28374 -0.228422,-0.40101 v 0 c -0.107035,-0.12555 -0.295593,-0.14058 -0.421183,-0.0335 -0.09211,0.0785 -0.12774,0.20483 -0.09028,0.31987 h 3.4e-5 z m 0.25005,0.88918 c 0.07937,0.29993 0.209195,0.58596 0.350131,0.86137 0.187783,0.36693 0.402767,0.71978 0.62752,1.06504 v 0 c 0.05288,0.0812 0.161608,0.10424 0.242819,0.0514 0.06611,-0.043 0.09539,-0.12484 0.07161,-0.20002 -0.206833,-0.65395 -0.413914,-1.30831 -0.602861,-1.96769 v 0 c -0.0544,-0.18979 -0.252341,-0.29958 -0.442137,-0.24518 -0.187077,0.0536 -0.296897,0.24701 -0.247084,0.43512 z"
       style="fill:#000000;fill-opacity:1;fill-rule:nonzero;stroke:none;stroke-width:0.35277775"
       id="path2192"
       inkscape:connector-curvature="0" />
    <path
       d="m -35.708007,103.75281 v 0 c 0.02702,0.10357 0.132926,0.16562 0.236537,0.1386 0.09123,-0.0238 0.152083,-0.10982 0.14418,-0.2038 -0.01209,-0.14439 -0.01302,-0.31482 -0.133596,-0.4161 v 0 c -0.117404,-0.0986 -0.292489,-0.0834 -0.391089,0.034 -0.0986,0.11737 -0.08336,0.29246 0.03404,0.39106 0.032,0.0269 0.06968,0.0462 0.110173,0.0565 z m -0.376907,-0.008 v 0 c -0.0091,0.19695 0.143155,0.36396 0.340077,0.37306 0.196921,0.009 0.363926,-0.14312 0.373062,-0.34004 2.65e-4,-0.008 2.65e-4,-0.0161 2.65e-4,-0.0241 -0.0013,-0.0661 -0.0035,-0.13265 2.64e-4,-0.19872 h 3.5e-5 c 0.0273,-0.10379 -0.0077,-0.21403 -0.08992,-0.28307 -0.08968,-0.0753 -0.215653,-0.092 -0.32445,-0.052 -0.0811,0.0298 -0.148662,0.0881 -0.196215,0.1596 -0.07147,0.10738 -0.09747,0.23834 -0.103365,0.36534 z m 0,0 c -0.01357,0.2934 0.0592,0.59174 0.133313,0.87326 v 0 c 0.0519,0.19724 0.253894,0.31507 0.451133,0.26314 0.197239,-0.0519 0.315031,-0.2539 0.263102,-0.45113 -2.65e-4,-0.002 -7.94e-4,-0.004 -0.0013,-0.005 -0.03799,-0.13656 -0.0732,-0.27422 -0.09994,-0.41349 -0.0163,-0.0848 -0.03101,-0.17135 -0.03284,-0.25789 v 0 c -0.0042,-0.19709 -0.167394,-0.35344 -0.36449,-0.34925 -0.187714,0.004 -0.340254,0.15279 -0.348932,0.34036 z m 0.133313,0.8733 c 0.08481,0.32219 0.163266,0.64614 0.233928,0.97176 v 0 c 0.04322,0.19928 0.239819,0.32579 0.439103,0.28257 0.19713,-0.0428 0.323461,-0.23583 0.283702,-0.4336 -0.06847,-0.34085 -0.150635,-0.67888 -0.24384,-1.01377 v 0 c -0.05468,-0.1965 -0.258302,-0.31147 -0.4548,-0.25675 -0.194522,0.0541 -0.309528,0.25449 -0.258093,0.44979 z m 0.233928,0.97179 c 0.03919,0.18052 0.05785,0.36552 0.07151,0.54949 0.02043,0.27506 0.02663,0.55118 0.02755,0.82688 h -3.7e-5 c 2.65e-4,0.097 0.07923,0.1754 0.176213,0.17508 0.07147,-2.5e-4 0.135678,-0.0438 0.162385,-0.11007 0.111266,-0.27661 0.207891,-0.56137 0.265041,-0.8545 0.04702,-0.24144 0.069,-0.49498 0.02019,-0.73794 h -3.7e-5 c -0.04018,-0.19991 -0.234809,-0.32941 -0.434728,-0.28923 -0.199919,0.0402 -0.329425,0.23481 -0.289243,0.43476 2.65e-4,0.002 7.94e-4,0.004 0.0011,0.006 z"
       style="fill:#000000;fill-opacity:1;fill-rule:nonzero;stroke:none;stroke-width:0.35277775"
       id="path2196"
       inkscape:connector-curvature="0" />
    <path
       d="m -17.92187,104.30074 c 0.0217,0.0503 0.0271,0.10781 0.03,0.16189 v 0 c 0.006,0.10689 0.0969,0.18898 0.2038,0.18334 0.10692,-0.006 0.18902,-0.0969 0.18333,-0.20384 0,0 0,0 0,0 -0.006,-0.12266 -0.0129,-0.24528 -0.0198,-0.36791 h -3e-5 c -0.008,-0.14104 -0.12873,-0.24888 -0.26974,-0.24095 -0.14103,0.008 -0.24892,0.12873 -0.24094,0.26977 0.005,0.0801 0.0464,0.1535 0.1131,0.19812 l 2.6e-4,-3.4e-4 z m -0.0133,-0.5074 v 0 c -0.0301,0.014 -0.0577,0.0328 -0.0819,0.0557 -0.13387,0.12654 -0.12051,0.31577 -0.0884,0.48041 v 0 c 0.0402,0.20599 0.23982,0.34036 0.44581,0.30014 0.20598,-0.0402 0.34036,-0.23981 0.30014,-0.44577 -0.0107,-0.0547 -0.0333,-0.1065 -0.0662,-0.15151 -0.0911,-0.12457 -0.19844,-0.26229 -0.36791,-0.2679 v 0 c -0.0488,-0.002 -0.0973,0.008 -0.14154,0.029 z m -0.17025,0.53608 c 0.0681,0.34872 0.16161,0.69324 0.25097,1.03696 v 0 c 0.0633,0.24348 0.312,0.38957 0.55552,0.32628 0.24349,-0.0633 0.38957,-0.31203 0.32628,-0.55552 -10e-4,-0.005 -0.003,-0.0102 -0.004,-0.0152 -0.0648,-0.2178 -0.13458,-0.43483 -0.21939,-0.64572 -0.0619,-0.15385 -0.13106,-0.30946 -0.22941,-0.4439 v 0 c -0.1239,-0.16941 -0.36167,-0.20631 -0.53104,-0.0824 -0.11896,0.087 -0.17688,0.23491 -0.14862,0.37955 z m 0.25097,1.03696 c 0.0577,0.22182 0.11973,0.44287 0.19322,0.66008 0.0547,0.16182 0.11497,0.3235 0.19508,0.4747 v 0 c 0.10859,0.20489 0.36269,0.28299 0.56762,0.17444 0.16425,-0.087 0.25174,-0.2717 0.21502,-0.45391 -0.0748,-0.37159 -0.18546,-0.73685 -0.29341,-1.09979 v 0 c -0.0717,-0.24116 -0.32533,-0.37853 -0.56649,-0.30681 -0.23526,0.07 -0.37281,0.31373 -0.31104,0.55129 z m 0.38834,1.13478 c 0.13194,0.24906 0.23322,0.51495 0.3297,0.77925 v 0 c 0.0339,0.093 0.13685,0.1409 0.22984,0.10696 0.0522,-0.0191 0.0926,-0.0612 0.10943,-0.11423 0.10594,-0.33405 0.18404,-0.70192 0.11363,-1.05149 v 0 c -0.0458,-0.22733 -0.2672,-0.37447 -0.49453,-0.32868 -0.22733,0.0458 -0.37447,0.26719 -0.32868,0.49452 0.008,0.0396 0.0217,0.0779 0.0406,0.11367 z"
       style="fill:#000000;fill-opacity:1;fill-rule:nonzero;stroke:none;stroke-width:0.35277775"
       id="path2202"
       inkscape:connector-curvature="0" />
    <path
       d="m 0.79253044,104.71106 c 0.002,0.0416 0.003,0.0832 0.003,0.12481 v 0 c 0,0.10707 0.0868,0.19385 0.19385,0.19385 0.10702996,0 0.19381996,-0.0868 0.19381996,-0.19385 0,0 0,0 0,0 0,-0.0642 7.9e-4,-0.12838 0.004,-0.19248 l 2.6e-4,3.2e-4 c 0.10185,-0.12986 0.0791,-0.31771 -0.0507,-0.41959 -0.12989,-0.10185 -0.31773996,-0.0792 -0.41961996,0.0507 -0.10185,0.12989 -0.0791,0.31774 0.0507,0.41959 0.008,0.006 0.0158,0.0118 0.0241,0.017 l 2.4e-4,-3.5e-4 z m 0.1699,-0.55048 c -0.17413,-0.006 -0.30155,0.13081 -0.34801,0.28625 -0.0236,0.0789 -0.0302,0.16199 -0.029,0.24398 0.003,0.19166 0.0444,0.38244 0.0919,0.5673 v 0 c 0.0571,0.22232 0.28374,0.35623 0.50604996,0.29905 0.22233,-0.0571 0.35621,-0.28374 0.29902,-0.50606 -0.001,-0.005 -0.003,-0.0102 -0.004,-0.0153 -0.0481,-0.16108 -0.0972,-0.32205 -0.15438,-0.48017 -0.0423,-0.11705 -0.0873,-0.2558 -0.19022,-0.33415 v 0 c -0.0493,-0.0376 -0.10918,-0.0588 -0.17119996,-0.0609 z m -0.28504,1.09753 c 0.0739,0.28758 0.17494,0.56836 0.27844,0.84635 0.15416996,0.41391 0.32137996,0.82296 0.49258996,1.2301 v 0 c 0.0386,0.0918 0.14428,0.13494 0.23608,0.0963 0.0718,-0.0302 0.1161,-0.10308 0.10981,-0.18073 -0.0357,-0.44192 -0.0776,-0.88374 -0.13945,-1.32284 -0.0421,-0.29926 -0.0901,-0.60145 -0.17663,-0.89158 v 0 c -0.0657,-0.21995 -0.29718,-0.34505 -0.51713996,-0.27943 -0.21403,0.0639 -0.33934,0.2855 -0.2837,0.50179 z"
       style="fill:#000000;fill-opacity:1;fill-rule:nonzero;stroke:none;stroke-width:0.35277775"
       id="path2206"
       inkscape:connector-curvature="0" />
    <path
       d="m 18.58537,104.18221 c 0.009,0.0266 0.0147,0.0544 0.018,0.0824 v 0 c 0.0124,0.10636 0.10862,0.18252 0.21498,0.17014 0.10633,-0.0124 0.18249,-0.10862 0.17011,-0.21495 -0.0204,-0.17565 -0.0551,-0.36784 -0.1875,-0.49632 v 0 c -0.10629,-0.10322 -0.27612,-0.10072 -0.37931,0.006 -0.10318,0.10629 -0.10068,0.27612 0.006,0.37934 0.0429,0.0417 0.0986,0.0678 0.15812,0.0742 l 3e-5,-3.5e-4 z m -0.5485,-0.15374 v 0 c -0.0798,0.20242 0.0196,0.4312 0.22204,0.51096 0.20239,0.0798 0.43117,-0.0196 0.51097,-0.222 0.0164,-0.0415 0.0255,-0.0855 0.0272,-0.13014 10e-4,-0.027 0.002,-0.0538 0.005,-0.0807 l 2.7e-4,3.2e-4 c 0.10548,-0.10404 0.10664,-0.27386 0.002,-0.37934 -0.001,-0.001 -0.003,-0.003 -0.004,-0.004 -0.12771,-0.12401 -0.31881,-0.14397 -0.47421,-0.0598 -0.14157,0.0766 -0.23227,0.21869 -0.28988,0.36477 z m 0,0 c -0.0823,0.20881 -0.14079,0.42964 -0.15148,0.65461 v 0 c -0.0119,0.25058 0.18158,0.46337 0.43219,0.4753 0.25058,0.0119 0.46341,-0.18161 0.4753,-0.43223 7.9e-4,-0.0116 7.9e-4,-0.0234 2.6e-4,-0.035 -0.005,-0.16788 -0.002,-0.33598 0.004,-0.50383 v 0 c 0.008,-0.21742 -0.16189,-0.40009 -0.37934,-0.40803 -0.16694,-0.006 -0.31955,0.0938 -0.38083,0.24921 z m -0.15148,0.65461 c -0.0103,0.21615 0.0221,0.43275 0.089,0.63828 v 0 c 0.0793,0.24349 0.34089,0.37656 0.58435,0.29729 0.24345,-0.0793 0.37655,-0.34089 0.29728,-0.58434 -1.4e-4,-3.5e-4 -2.5e-4,-7.2e-4 -2.6e-4,-0.001 -0.0363,-0.11053 -0.0591,-0.22568 -0.0625,-0.34213 v 0 c -0.007,-0.25075 -0.21679,-0.44799 -0.46754,-0.44055 -0.23721,0.007 -0.42902,0.19548 -0.44027,0.43251 z m 0.089,0.63828 c 0.0582,0.17875 0.12965,0.35313 0.21534,0.52045 v 0 c 0.11694,0.22843 0.39695,0.31881 0.62537,0.20183 0.22846,-0.11695 0.3188,-0.39695 0.20186,-0.62537 -2.7e-4,-7.2e-4 -0.001,-0.002 -0.001,-0.003 -0.0639,-0.12273 -0.11676,-0.25093 -0.15991,-0.38234 v 0 c -0.0799,-0.24328 -0.34184,-0.37574 -0.58508,-0.29588 -0.24285,0.0797 -0.37532,0.34096 -0.29619,0.58399 z m 0.21534,0.52045 c 0.11948,0.23333 0.2812,0.44549 0.44298,0.65056 h 4e-5 c 0.1592,0.20183 0.45187,0.23633 0.6537,0.0771 0.20178,-0.1592 0.23632,-0.45187 0.0771,-0.65369 0,0 0,0 0,0 -0.12471,-0.15808 -0.25464,-0.32078 -0.34795,-0.50017 v 0 c -0.11846,-0.22768 -0.39903,-0.3162 -0.62671,-0.19777 -0.22662,0.1179 -0.31556,0.39663 -0.19911,0.62399 z m 0.44302,0.6506 c 0.25957,0.32896 0.55238,0.63203 0.84906,0.92741 v 0 c 0.0736,0.0733 0.19273,0.073 0.266,-7.1e-4 0.0385,-0.0387 0.0583,-0.0922 0.0543,-0.14661 -0.0183,-0.24723 -0.0565,-0.49425 -0.12827,-0.73191 -0.0354,-0.1173 -0.0791,-0.23234 -0.1336,-0.3422 -0.0563,-0.11366 -0.1246,-0.23664 -0.21572,-0.32628 v 0 c -0.18327,-0.18024 -0.47798,-0.1778 -0.65821,0.005 -0.16443,0.16718 -0.17883,0.4306 -0.0335,0.61471 z"
       style="fill:#000000;fill-opacity:1;fill-rule:nonzero;stroke:none;stroke-width:0.35277775"
       id="path2208"
       inkscape:connector-curvature="0" />
    <path
       d="m 36.8316,103.79644 v -3e-5 c -0.0512,0.039 -0.0883,0.0937 -0.10569,0.15564 -0.0231,0.0823 -0.009,0.17209 10e-4,0.25534 0.0138,0.11346 0.0308,0.22656 0.0482,0.33955 v 0 c 0.0357,0.23287 0.25343,0.39268 0.4863,0.35698 0.23287,-0.0357 0.39271,-0.25347 0.35698,-0.48634 -0.007,-0.0428 -0.0196,-0.0843 -0.0386,-0.12315 -0.06,-0.12242 -0.1251,-0.24511 -0.20927,-0.35292 -0.0399,-0.0512 -0.0851,-0.0991 -0.13854,-0.13635 -0.11828,-0.0826 -0.27922,-0.10125 -0.40068,-0.009 z m -0.0562,0.7505 c 0.0815,0.53157 0.20726,1.05633 0.37476,1.56736 v 0 c 0.0941,0.28688 0.40287,0.44323 0.68978,0.34918 0.28688,-0.0941 0.44323,-0.40287 0.34918,-0.68975 -2.6e-4,-0.002 -0.001,-0.003 -0.002,-0.005 -0.17039,-0.50391 -0.37327,-0.99685 -0.60748,-1.47447 v 0 c -0.10357,-0.21153 -0.35912,-0.29891 -0.57064,-0.19516 -0.1674,0.0821 -0.26212,0.26338 -0.23382,0.44767 z m 0.37476,1.56732 c 0.10759,0.32826 0.21607,0.65635 0.31954,0.98595 v 0 c 0.0888,0.28293 0.39018,0.4403 0.6731,0.35147 0.26399,-0.0829 0.42178,-0.35274 0.36453,-0.62343 -0.0761,-0.35987 -0.20221,-0.71159 -0.31979,-1.05935 v 0 c -0.0967,-0.286 -0.40697,-0.4395 -0.693,-0.34276 -0.28413,0.0961 -0.4378,0.40312 -0.34438,0.68812 z m 0.31954,0.98595 c 0.0446,0.14192 0.11247,0.27774 0.2032,0.39585 0.07,0.0912 0.1626,0.19131 0.2745,0.22962 v 0 c 0.023,0.008 0.0474,0.0111 0.0717,0.009 0.15716,-0.0104 0.29496,-0.14358 0.3756,-0.26839 0.12079,-0.1869 0.15854,-0.42171 0.11268,-0.63853 v 0 c -0.0614,-0.29012 -0.34632,-0.47554 -0.63645,-0.41419 -0.29012,0.0614 -0.47558,0.34632 -0.41419,0.63648 0.004,0.0168 0.008,0.0333 0.013,0.0497 z"
       style="fill:#000000;fill-opacity:1;fill-rule:nonzero;stroke:none;stroke-width:0.35277775"
       id="path2214"
       inkscape:connector-curvature="0" />
    <path
       d="m 55.73086,104.81417 h -3e-5 c -0.0414,0.0454 -0.0749,0.0975 -0.0991,0.1541 l -2.4e-4,-1.1e-4 c -0.0241,0.056 -0.0386,0.11568 -0.0429,0.17649 -0.008,0.11526 0.0217,0.2195 0.0748,0.31786 0.0151,0.0279 0.0302,0.0557 0.0454,0.0836 0.0587,0.10777 0.11776,0.21547 0.17671,0.32314 v 0 c 0.0514,0.0939 0.16922,0.12834 0.26313,0.0769 0.0325,-0.0178 0.0592,-0.0445 0.0769,-0.0769 0.0257,-0.047 0.0525,-0.0934 0.0809,-0.13882 l 7e-5,3.5e-4 c 0.29718,-0.0842 0.46986,-0.39332 0.38569,-0.69046 -0.0482,-0.17018 -0.17402,-0.30752 -0.3393,-0.37035 -0.21452,-0.0816 -0.46556,-0.0273 -0.62202,0.14418 z m -0.0643,0.6525 c -0.0244,-0.0435 -0.0112,-0.0215 -7.9e-4,0.009 0.0183,0.0535 0.0346,0.10767 0.0508,0.16189 0.0635,0.21368 0.12108,0.42908 0.17823,0.64453 v 0 c 0.0865,0.32631 0.42121,0.52066 0.74753,0.43412 0.32632,-0.0865 0.5207,-0.42125 0.43413,-0.74753 -10e-4,-0.004 -0.002,-0.007 -0.003,-0.0103 -0.0688,-0.24229 -0.14161,-0.48535 -0.23838,-0.71822 -0.0973,-0.2341 -0.23166,-0.47494 -0.48228,-0.57023 v 0 c -0.28871,-0.10978 -0.61171,0.0353 -0.7215,0.32396 -0.0589,0.15501 -0.046,0.32815 0.0352,0.47272 z m 0.22811,0.81548 c 0.10357,0.3906 0.26377,0.7656 0.43772,1.12938 0.22599,0.47251 0.48264,0.93021 0.75121,1.37965 h 3e-5 c 0.0516,0.0864 0.16348,0.11454 0.24988,0.0629 0.0578,-0.0345 0.0918,-0.0981 0.0885,-0.16531 -0.0255,-0.52087 -0.0627,-1.04186 -0.12753,-1.55945 -0.0493,-0.3937 -0.11236,-0.78867 -0.22095,-1.17091 v 0 c -0.0923,-0.32473 -0.43028,-0.51322 -0.75505,-0.42097 -0.32071,0.0911 -0.50927,0.42242 -0.42382,0.74468 z"
       style="fill:#000000;fill-opacity:1;fill-rule:nonzero;stroke:none;stroke-width:0.35277775"
       id="path2216"
       inkscape:connector-curvature="0" />
    <path
       d="m 74.75426,104.93839 v 0 c -0.0307,0.003 -0.0607,0.0108 -0.0891,0.0228 -0.14788,0.0626 -0.21615,0.21333 -0.25411,0.35927 v 0 c -0.0547,0.21033 0.0715,0.42517 0.2818,0.47989 0.21033,0.0547 0.42521,-0.0714 0.47992,-0.28177 0.0222,-0.0855 0.0151,-0.176 -0.0204,-0.25693 -0.0576,-0.13148 -0.13427,-0.27107 -0.28346,-0.31319 v 0 c -0.0373,-0.0105 -0.0762,-0.0139 -0.11465,-0.0101 z m -0.34322,0.38205 c -0.0888,0.34128 -0.0346,0.71325 0.0434,1.05103 v 0 c 0.0662,0.28692 0.3525,0.46578 0.63938,0.39953 0.28687,-0.0663 0.46573,-0.3525 0.39952,-0.63938 -0.005,-0.0233 -0.0124,-0.0463 -0.0209,-0.0687 -0.10174,-0.26889 -0.20472,-0.53784 -0.32008,-0.80126 v 0 c -0.0872,-0.19908 -0.31923,-0.28981 -0.5183,-0.2026 -0.11045,0.0484 -0.19265,0.14471 -0.22303,0.2614 z m 0.0434,1.05103 c 0.0847,0.36686 0.16591,0.73456 0.24451,1.10275 v 0 c 0.0672,0.31447 0.37656,0.51499 0.69102,0.44782 0.3145,-0.0671 0.51499,-0.37652 0.44785,-0.69102 -0.002,-0.008 -0.004,-0.016 -0.006,-0.024 -0.10001,-0.38725 -0.21808,-0.77001 -0.35965,-1.14413 v 0 c -0.10418,-0.27538 -0.4119,-0.41416 -0.68728,-0.30995 -0.24945,0.0944 -0.39077,0.35863 -0.33077,0.61852 z m 0.24451,1.10275 c 0.0781,0.36583 0.14277,0.73456 0.19156,1.10543 v 0 c 0.0425,0.3229 0.33867,0.55023 0.66156,0.50775 0.3187,-0.0419 0.54512,-0.33139 0.50906,-0.6508 -0.0468,-0.41462 -0.12467,-0.82561 -0.22899,-1.22957 v 0 c -0.0804,-0.31136 -0.39796,-0.49858 -0.70933,-0.41818 -0.30208,0.078 -0.48898,0.38026 -0.42386,0.68537 z m 0.19156,1.10543 c 0.0357,0.27111 0.10837,0.53704 0.19113,0.7971 0.10474,0.32907 0.22952,0.65172 0.36248,0.97035 v 0 c 0.0418,0.10026 0.15706,0.14764 0.25732,0.1058 0.0564,-0.0235 0.0986,-0.0719 0.11434,-0.13091 0.0899,-0.33772 0.1676,-0.67974 0.21582,-1.02609 0.0395,-0.28346 0.0617,-0.57394 0.0295,-0.8593 v 0 c -0.0365,-0.32364 -0.3285,-0.55637 -0.65214,-0.51982 -0.32361,0.0365 -0.55633,0.32851 -0.51979,0.65215 2.7e-4,0.004 8e-4,0.007 0.001,0.0107 z"
       style="fill:#000000;fill-opacity:1;fill-rule:nonzero;stroke:none;stroke-width:0.35277775"
       id="path2222"
       inkscape:connector-curvature="0" />
    <path
       d="m -35.435838,110.84505 c 0.06463,0.14982 0.13536,0.29781 0.220273,0.43734 0.07786,0.12784 0.169156,0.25199 0.287584,0.34523 v 0 c 0.195228,0.1537 0.47812,0.12005 0.631825,-0.0752 0.153707,-0.19523 0.120052,-0.47812 -0.07518,-0.63183 -0.02875,-0.0226 -0.06011,-0.0417 -0.09345,-0.0567 -0.250613,-0.11299 -0.527968,-0.1724 -0.79502,-0.23174 v 0 c -0.08364,-0.0186 -0.166476,0.0342 -0.185031,0.11779 -0.0071,0.0318 -0.0039,0.0651 0.009,0.095 z m 0.507857,0.78257 c 0.195405,0.15384 0.430707,0.25375 0.663892,0.33496 v 0 c 0.251849,0.0877 0.527087,-0.0454 0.614752,-0.29725 0.0877,-0.25185 -0.0454,-0.52709 -0.297215,-0.61475 -0.0048,-0.002 -0.0097,-0.003 -0.0145,-0.005 -0.17004,-0.0532 -0.341101,-0.10852 -0.503732,-0.18182 v 0 c -0.226518,-0.10213 -0.492937,-0.001 -0.59503,0.22525 -0.08495,0.18845 -0.03059,0.41052 0.131832,0.5384 z m 0.663929,0.33496 c 0.187712,0.0653 0.375037,0.13271 0.559046,0.208 v 0 c 0.249166,0.10191 0.533789,-0.0174 0.635741,-0.26656 0.101177,-0.24737 -0.01564,-0.53005 -0.261903,-0.6338 -0.205457,-0.0865 -0.417264,-0.15787 -0.62992,-0.22444 v 0 c -0.254458,-0.0797 -0.525357,0.0621 -0.605012,0.31655 -0.07789,0.24881 0.05581,0.51452 0.302048,0.60025 z m 0.559046,0.208 c 0.139065,0.0569 0.288256,0.0869 0.436457,0.10826 0.182528,0.0263 0.366996,0.0388 0.55118,0.0463 v 0 c 0.265079,0.0108 0.488739,-0.19533 0.499529,-0.46041 0.0107,-0.26144 -0.18986,-0.48334 -0.45106,-0.49907 -0.15141,-0.009 -0.303244,-0.0215 -0.45307,-0.0457 -0.06946,-0.0113 -0.143793,-0.0222 -0.209161,-0.0498 v 0 c -0.248073,-0.10453 -0.533929,0.0118 -0.638492,0.25993 -0.104529,0.24807 0.01185,0.53393 0.259926,0.63849 0.0013,7.1e-4 0.0032,10e-4 0.0047,0.002 z m 0.987637,0.15458 c 0.297079,0.0121 0.595699,0.0267 0.890589,0.0665 v 0 c 0.26448,0.0356 0.50772,-0.14986 0.54338,-0.4143 0.0356,-0.26448 -0.14986,-0.50775 -0.41434,-0.54338 -0.008,-0.001 -0.0158,-0.002 -0.0237,-0.003 -0.31542,-0.0267 -0.63144,-0.0466 -0.94742,-0.0656 v 0 c -0.264829,-0.016 -0.492442,0.18577 -0.508423,0.4506 -0.01598,0.26483 0.185772,0.49244 0.450604,0.50842 0.0032,1.8e-4 0.0062,3.5e-4 0.0093,3.5e-4 z m 0.890589,0.0665 c 0.21032,0.0283 0.42439,0.0339 0.6362,0.0409 0.36272,0.012 0.72577,0.016 1.08867,0.0183 v 0 c 0.27072,0.002 0.49163,-0.21621 0.4934,-0.48693 0.002,-0.27027 -0.21552,-0.49097 -0.48578,-0.4934 -0.35602,-0.003 -0.71215,-0.007 -1.0681,-0.016 -0.18627,-0.005 -0.37338,-0.008 -0.55912,-0.0233 v 0 c -0.26589,-0.0225 -0.49968,0.17484 -0.52218,0.44073 -0.0217,0.25661 0.16167,0.48517 0.41691,0.51957 z m 1.72487,0.0593 c 0.34946,0.002 0.70065,0.0127 1.04778,0.0557 0.17534,0.0217 0.36658,0.0446 0.529,0.11938 v 0 c 0.24652,0.11363 0.53848,0.006 0.6521,-0.24059 0.1136,-0.24652 0.006,-0.53848 -0.24062,-0.65211 -0.002,-7.1e-4 -0.004,-0.001 -0.005,-0.002 -0.25577,-0.11437 -0.53954,-0.16274 -0.8158,-0.1965 -0.38439,-0.047 -0.77283,-0.0604 -1.15976,-0.0639 v 0 c -0.27072,-0.003 -0.49212,0.21509 -0.49452,0.48581 -0.002,0.27069 0.21505,0.49209 0.48577,0.49453 2.7e-4,0 7.9e-4,0 0.001,0 z m 1.57678,0.17509 c 0.23554,0.10858 0.46986,0.22458 0.68812,0.3654 v 0 c 0.22769,0.1469 0.53136,0.0814 0.67825,-0.14629 0.14468,-0.22423 0.0836,-0.523 -0.13744,-0.67243 -0.25806,-0.17449 -0.53865,-0.31471 -0.82253,-0.44168 v 0 c -0.2478,-0.11084 -0.53848,1.8e-4 -0.64933,0.24797 -0.10996,0.24581 -0.002,0.53432 0.24293,0.64703 z m 0.68812,0.3654 c 0.18913,0.12203 0.36333,0.26646 0.5273,0.42023 v 4e-5 c 0.19106,0.17914 0.49121,0.16954 0.67038,-0.0215 0.17156,-0.18295 0.17103,-0.46782 -10e-4,-0.65013 -0.19869,-0.2103 -0.41565,-0.4051 -0.65564,-0.56738 v 4e-5 c -0.22451,-0.1518 -0.52952,-0.0928 -0.68129,0.13162 -0.15176,0.22447 -0.0928,0.52948 0.13166,0.68128 0.003,0.002 0.006,0.004 0.009,0.006 z m 0.5273,0.42023 c 0.14951,0.1402 0.29916,0.28156 0.43755,0.4329 v 0 c 0.1687,0.18446 0.45505,0.19724 0.63952,0.0285 0.17452,-0.15963 0.19674,-0.42672 0.051,-0.61299 -0.14245,-0.18203 -0.30029,-0.35218 -0.45893,-0.52006 v 0 c -0.17985,-0.1904 -0.48002,-0.1989 -0.67042,-0.019 -0.19039,0.17988 -0.19889,0.48002 -0.019,0.67041 0.007,0.007 0.0133,0.0137 0.0203,0.0202 z m 0.71145,-0.34424 c 0.009,-0.0215 -0.0152,0.0357 -0.0106,0.025 l -7e-5,-3.4e-4 c -0.24691,0.0391 -0.4154,0.27097 -0.37628,0.51788 0.0139,0.0876 0.0532,0.16926 0.11307,0.2347 0.10287,0.11247 0.24454,0.18609 0.39811,0.19241 0.13695,0.006 0.2698,-0.0428 0.37758,-0.12581 0.15194,-0.11705 0.25297,-0.29023 0.33764,-0.45896 v 0 c 0.11444,-0.22807 0.0223,-0.50571 -0.20574,-0.62011 -0.22807,-0.11444 -0.50571,-0.0223 -0.62011,0.20574 -0.005,0.01 -0.009,0.0196 -0.0136,0.0296 z m 0.5347,-0.79223 c -0.13366,0.083 -0.23269,0.211 -0.31369,0.34361 -0.087,0.14234 -0.15698,0.29488 -0.22101,0.44862 v 0 c -0.0981,0.23555 0.0134,0.50603 0.24892,0.6041 0.22391,0.0932 0.48179,-0.002 0.59051,-0.21936 0.0595,-0.11857 0.12037,-0.23678 0.18743,-0.35133 0.0266,-0.0454 0.0531,-0.0947 0.0878,-0.13465 v 0 c 0.16782,-0.18754 0.15181,-0.47562 -0.0357,-0.64344 -0.15074,-0.13486 -0.37236,-0.15423 -0.5442,-0.0476 z m 0.75668,-0.19777 c -0.25422,0.0267 -0.53496,0.0601 -0.75671,0.19777 h 3e-5 c -0.21382,0.13275 -0.27954,0.4137 -0.14679,0.62749 0.13275,0.21381 0.41367,0.27954 0.62749,0.14679 0.0369,-0.0229 0.0703,-0.0509 0.0992,-0.0833 -0.01,0.0108 -0.0226,0.0242 -0.0345,0.0308 0.0127,-0.007 0.027,-0.0119 0.0407,-0.0165 0.0857,-0.0289 0.17706,-0.0422 0.26649,-0.053 v 0 c 0.23453,-0.0283 0.40171,-0.24141 0.37338,-0.47594 -0.028,-0.23195 -0.23696,-0.39853 -0.46933,-0.37412 z m 1.13799,-0.0598 c -0.37956,0.007 -0.7602,0.0201 -1.13796,0.0598 v 0 c -0.23495,0.0247 -0.40541,0.23509 -0.38075,0.47004 0.0247,0.23495 0.23513,0.40542 0.47004,0.38076 0.002,-2.1e-4 0.004,-3.5e-4 0.007,-7.2e-4 0.35006,-0.0423 0.704,-0.0535 1.05629,-0.0587 v 0 c 0.23502,-0.003 0.42273,-0.19685 0.4192,-0.43187 -0.004,-0.23502 -0.19685,-0.42273 -0.43187,-0.41924 -2.6e-4,0 -0.001,4e-5 -0.001,4e-5 z m 0,0 v 0 c -0.23502,0.004 -0.422,0.19844 -0.41762,0.43343 0.004,0.23442 0.19745,0.42114 0.43187,0.41765 0.32205,-0.005 0.65147,-0.007 0.97031,0.0462 v 0 c 0.23573,0.0391 0.45851,-0.1204 0.49756,-0.35613 0.0391,-0.23576 -0.1204,-0.45854 -0.35616,-0.49759 -0.004,-7.2e-4 -0.009,-0.001 -0.0132,-0.002 -0.36767,-0.0493 -0.74253,-0.0484 -1.11273,-0.0416 z m 0.98456,0.89726 c 0.25609,0.0424 0.51372,0.0751 0.77241,0.0967 v -4e-5 c 0.24688,0.0206 0.46373,-0.16277 0.48437,-0.40964 0.0206,-0.24688 -0.16278,-0.46373 -0.40965,-0.48437 -0.008,-7.1e-4 -0.0164,-10e-4 -0.0247,-10e-4 -0.23223,-0.007 -0.46401,-0.0261 -0.69427,-0.057 v 0 c -0.23685,-0.0318 -0.45459,0.13452 -0.48634,0.37134 -0.0311,0.2317 0.1275,0.44619 0.35814,0.48436 z m 0.77241,0.0967 c 0.23682,0.0198 0.47159,0.0608 0.70288,0.11507 v 0 c 0.24631,0.0578 0.49283,-0.095 0.55065,-0.34131 0.0577,-0.24592 -0.0945,-0.49212 -0.34029,-0.55044 -0.28296,-0.0671 -0.57224,-0.11049 -0.86318,-0.11874 v 0 c -0.24761,-0.007 -0.45406,0.18803 -0.46112,0.43568 -0.007,0.23805 0.17371,0.43988 0.41106,0.4597 z m 0.70284,0.11507 c 0.37465,0.088 0.765,0.10372 1.1484,0.0981 v 0 c 0.24705,-0.004 0.44439,-0.20679 0.44079,-0.45384 -0.004,-0.24141 -0.19794,-0.43646 -0.43931,-0.44076 -0.31359,-0.006 -0.63324,-0.0226 -0.93948,-0.0952 v -4e-5 c -0.24617,-0.0584 -0.49308,0.0939 -0.55146,0.34004 -0.0584,0.24617 0.0938,0.49308 0.34004,0.55147 2.6e-4,1e-4 7.9e-4,1.7e-4 0.001,2.4e-4 z m 2.2836,-0.82916 c -0.37694,0.0313 -0.75561,0.0394 -1.13372,0.0327 v 0 c -0.24705,-0.004 -0.45089,0.19222 -0.4553,0.43927 -0.004,0.24702 0.19223,0.45089 0.43928,0.4553 0.005,1.1e-4 0.01,1.1e-4 0.0145,3e-5 0.40375,-0.006 0.80758,-0.0237 1.20985,-0.0594 v 0 c 0.23961,-0.0213 0.41656,-0.23283 0.39525,-0.4724 -0.0212,-0.23862 -0.23117,-0.41533 -0.4699,-0.39546 z m 0.63422,-0.10841 c -0.0667,0.0289 -0.14093,0.0429 -0.21198,0.056 -0.13945,0.0258 -0.28099,0.0407 -0.42227,0.0524 v 0 c -0.23972,0.0199 -0.41787,0.2304 -0.39794,0.47011 0.0199,0.23975 0.2304,0.4179 0.47011,0.39797 8e-4,-7e-5 0.002,-1.4e-4 0.002,-2.1e-4 0.1754,-0.0156 0.35097,-0.038 0.52271,-0.0777 0.14474,-0.0335 0.28956,-0.0795 0.41772,-0.15614 v 0 c 0.19819,-0.11847 0.26282,-0.37518 0.14432,-0.57337 -0.10777,-0.18027 -0.33253,-0.25263 -0.52518,-0.16905 z m 0.23097,-0.16094 c -0.0631,0.0709 -0.14429,0.12333 -0.23097,0.16094 v 0 c -0.21184,0.0919 -0.3091,0.33806 -0.21723,0.54991 0.0919,0.21184 0.33806,0.3091 0.54991,0.21724 0.0166,-0.007 0.0327,-0.0155 0.0482,-0.0247 0.16884,-0.10093 0.32347,-0.22581 0.45241,-0.37469 v 0 c 0.14488,-0.16728 0.12671,-0.42037 -0.0406,-0.56525 -0.16574,-0.14351 -0.41603,-0.12721 -0.56173,0.0366 z m 0.10989,-0.23848 c -0.0185,0.086 -0.0507,0.17198 -0.10989,0.23848 v 0 c -0.14711,0.16535 -0.13229,0.41864 0.0331,0.56575 0.16535,0.14707 0.41865,0.13229 0.56572,-0.0331 10e-4,-0.001 0.002,-0.003 0.004,-0.004 0.1482,-0.17113 0.24109,-0.38224 0.28663,-0.60283 v 0 c 0.0444,-0.21533 -0.0941,-0.42591 -0.30939,-0.47036 -0.21403,-0.0442 -0.42365,0.0924 -0.46965,0.30604 z m 0.0209,-0.40273 c 0.0134,0.13437 0.008,0.27058 -0.0209,0.4027 v 0 c -0.0463,0.21494 0.0904,0.42672 0.30533,0.47304 0.21491,0.0463 0.42668,-0.0904 0.473,-0.30533 2.5e-4,-10e-4 2.7e-4,-0.002 8e-4,-0.004 0.0447,-0.2164 0.0503,-0.43967 0.0207,-0.65846 v 0 c -0.029,-0.21463 -0.22659,-0.36509 -0.44118,-0.33602 -0.20931,0.0283 -0.35857,0.21727 -0.33764,0.42742 z m -0.17166,-0.52504 v 0 c -0.0825,0.0308 -0.12443,0.12263 -0.0936,0.20514 0.0109,0.029 0.0299,0.0543 0.0549,0.0727 0.0666,0.049 0.13621,0.104 0.18281,0.1735 0.0154,0.0229 0.0248,0.0463 0.0276,0.0737 v 0 c 0.0215,0.21551 0.21353,0.37285 0.42905,0.3514 0.21551,-0.0215 0.37281,-0.21354 0.3514,-0.42905 -2.7e-4,-0.005 -10e-4,-0.009 -0.002,-0.0138 -0.0335,-0.24765 -0.22296,-0.44425 -0.46698,-0.4923 -0.16298,-0.0321 -0.33009,10e-4 -0.48351,0.0587 z"
       style="fill:#a42604;fill-opacity:1;fill-rule:nonzero;stroke:none;stroke-width:0.35277775"
       id="path2226"
       inkscape:connector-curvature="0" />
    <path
       d="m -31.30873,119.19777 c -0.13116,0.0394 -0.21625,0.14746 -0.25714,0.27203 h -3e-5 c -0.0601,0.18291 0.029,0.38153 0.2056,0.45829 10e-4,0.001 0.0105,0.0332 0.01,0.0298 v 0 c 0.0244,0.0821 0.11084,0.12876 0.19294,0.10432 0.0501,-0.015 0.0893,-0.0542 0.10431,-0.10432 0.004,-0.0138 0.008,-0.0273 0.0124,-0.041 l 2.6e-4,7.1e-4 c 0.15219,-0.0785 0.23136,-0.25057 0.19192,-0.41723 -0.0274,-0.11578 -0.09,-0.22151 -0.19978,-0.27834 v 0 c -0.0803,-0.0416 -0.17357,-0.0502 -0.26011,-0.0242 z m -0.25717,0.27203 c -0.0358,0.10915 -0.079,0.21607 -0.121,0.323 -0.0817,0.20775 -0.16588,0.41451 -0.25055,0.62106 v 0 c -0.0947,0.23111 0.0159,0.49523 0.24695,0.58999 0.2311,0.0947 0.49523,-0.0158 0.58995,-0.24694 0.002,-0.006 0.005,-0.0127 0.007,-0.0191 0.0818,-0.2285 0.15896,-0.4601 0.21255,-0.69702 0.0393,-0.17375 0.0735,-0.36396 0.0319,-0.54042 v 0 c -0.0474,-0.20038 -0.24828,-0.32442 -0.44866,-0.27704 -0.12626,0.0298 -0.22793,0.12323 -0.26843,0.24649 z m -0.37155,0.94403 c -0.18408,0.44909 -0.35616,0.90551 -0.48433,1.37407 v 0 c -0.0669,0.24483 0.0772,0.49756 0.32202,0.56455 0.23791,0.065 0.48475,-0.0693 0.55933,-0.30434 0.13956,-0.43992 0.29171,-0.87584 0.44721,-1.31032 v 0 c 0.0842,-0.23517 -0.0382,-0.49403 -0.27336,-0.57817 -0.22765,-0.0815 -0.47915,0.0305 -0.57087,0.25421 z m -0.48436,1.3741 c -0.043,0.15727 -0.0847,0.31503 -0.12083,0.47407 -0.0244,0.10763 -0.0484,0.21692 -0.0566,0.32727 v 0 c -0.0174,0.23707 0.16066,0.44337 0.39772,0.4608 0.20225,0.0148 0.38742,-0.11346 0.44457,-0.30801 0.0682,-0.23245 0.14323,-0.46306 0.21647,-0.69395 v 0 c 0.0767,-0.24194 -0.0572,-0.50028 -0.29909,-0.57701 -0.24193,-0.0768 -0.50031,0.0571 -0.57704,0.29909 -0.002,0.006 -0.004,0.0118 -0.005,0.0178 z m 1e-4,0.35634 c -0.0205,0.0617 -0.0414,0.12334 -0.0633,0.18454 l -8e-4,-7.1e-4 c -0.0663,0.0716 -0.10636,0.16362 -0.11352,0.26095 -0.009,0.12742 0.0206,0.2534 0.10788,0.35214 v 0 c 0.0424,0.0479 0.095,0.0856 0.15399,0.11035 l -1.1e-4,2.1e-4 c 0.0741,0.0313 0.15557,0.0409 0.23492,0.0277 0.1483,-0.0247 0.25654,-0.11973 0.32324,-0.24603 0.0149,-0.0283 0.0287,-0.0573 0.0422,-0.0862 0.0451,-0.0965 0.0875,-0.19434 0.12983,-0.29213 v 0 c 0.0957,-0.22112 -0.006,-0.47802 -0.22716,-0.57372 -0.22115,-0.0957 -0.47801,0.006 -0.57372,0.22711 -0.005,0.0117 -0.01,0.0236 -0.0136,0.0357 z m 0.31323,-1.31169 c -0.0815,0.44115 -0.17148,0.88533 -0.31323,1.31169 v 0 c -0.076,0.22868 0.0477,0.47569 0.2764,0.55171 0.21467,0.0713 0.44825,-0.0332 0.5381,-0.24077 0.199,-0.45977 0.31796,-0.95426 0.41818,-1.44356 v 0 c 0.0519,-0.2534 -0.11144,-0.50091 -0.36488,-0.55284 -0.2534,-0.0519 -0.50091,0.11148 -0.55283,0.36488 -8e-4,0.003 -10e-4,0.006 -0.002,0.009 z m 0.32057,-1.31234 c -0.067,0.17816 -0.1162,0.36294 -0.16093,0.54776 -0.0612,0.25312 -0.11233,0.50857 -0.15964,0.76458 v 0 c -0.047,0.25438 0.12115,0.49868 0.3755,0.54567 0.2509,0.0464 0.49276,-0.11666 0.54395,-0.3666 0.049,-0.23905 0.10089,-0.47766 0.16147,-0.7141 0.0381,-0.14862 0.0782,-0.29771 0.13229,-0.44143 v 0 c 0.0927,-0.24648 -0.0319,-0.52151 -0.27838,-0.61425 -0.24649,-0.0928 -0.52147,0.0319 -0.61426,0.27837 z m 0.40464,-0.83188 c -0.1572,0.26557 -0.29587,0.54285 -0.40464,0.83188 v 0 c -0.0927,0.24649 0.0319,0.52151 0.27838,0.61426 0.24649,0.0927 0.52151,-0.0319 0.61426,-0.27838 0.0912,-0.24239 0.20316,-0.47674 0.3273,-0.70393 v 0 c 0.12418,-0.22737 0.0406,-0.51234 -0.18675,-0.63652 -0.22183,-0.12121 -0.49979,-0.0448 -0.62855,0.17269 z m 0.53746,-0.63909 c -0.23827,0.14481 -0.39889,0.40498 -0.53746,0.63909 v 0 c -0.13197,0.22295 -0.0582,0.51064 0.16471,0.64258 0.22292,0.13198 0.51061,0.0582 0.64259,-0.16471 0.003,-0.005 0.005,-0.009 0.008,-0.014 0.0515,-0.0943 0.10523,-0.18821 0.16774,-0.2757 0.0165,-0.0231 0.0337,-0.0461 0.0529,-0.0671 0.003,-0.004 0.0172,-0.0155 0.006,-0.007 v 0 c 0.20186,-0.14834 0.24525,-0.43225 0.0969,-0.63411 -0.13924,-0.18945 -0.40016,-0.24113 -0.6011,-0.119 z m 0,0 h -4e-5 c -0.21406,0.1301 -0.28211,0.40911 -0.15201,0.62318 0.0746,0.12273 0.20292,0.20288 0.3459,0.21607 0.0237,0.0318 0.0461,0.0647 0.0674,0.0987 v 0 c 0.13861,0.22134 0.43039,0.28844 0.65176,0.14986 0.22136,-0.1386 0.28846,-0.43038 0.14986,-0.65175 -0.009,-0.0148 -0.0194,-0.0292 -0.0303,-0.0429 -0.10671,-0.13459 -0.22496,-0.26695 -0.37017,-0.36104 -0.19974,-0.12946 -0.45289,-0.15945 -0.66237,-0.0321 z m 0.26123,0.93796 c 0.22073,0.3525 0.46521,0.69007 0.71533,1.0221 v 0 c 0.17018,0.22585 0.49117,0.27101 0.71702,0.10086 0.22588,-0.17014 0.271,-0.49117 0.10086,-0.71702 -0.004,-0.005 -0.007,-0.009 -0.0106,-0.0136 -0.25153,-0.3115 -0.50249,-0.62346 -0.75131,-0.93715 v 0 c -0.16227,-0.20465 -0.45974,-0.23894 -0.66435,-0.0767 -0.18873,0.14968 -0.23477,0.4173 -0.10696,0.62145 z m 0.71533,1.0221 c 0.3781,0.50187 0.77431,0.99015 1.17362,1.47522 v 0 c 0.18429,0.22387 0.5152,0.25597 0.7391,0.0717 0.22391,-0.18433 0.25598,-0.51524 0.0717,-0.73914 -1.8e-4,-2.2e-4 -2.7e-4,-3.5e-4 -8e-4,-7.2e-4 -0.39422,-0.47724 -0.78764,-0.95522 -1.17654,-1.43683 v 0 c -0.17766,-0.21999 -0.50003,-0.25435 -0.72002,-0.0767 -0.21478,0.17346 -0.25341,0.48595 -0.0873,0.70644 z m 1.17362,1.47522 c 0.38304,0.46534 0.76404,0.93306 1.12726,1.41421 v 0 c 0.1735,0.22984 0.50042,0.27548 0.73022,0.10199 0.22761,-0.1718 0.27492,-0.4946 0.10622,-0.7245 -0.36685,-0.49999 -0.75868,-0.98185 -1.15348,-1.45983 v 0 c -0.18468,-0.22359 -0.51565,-0.25513 -0.73924,-0.0704 -0.22331,0.18443 -0.25506,0.51491 -0.071,0.73854 z m 1.12726,1.41421 c 0.20906,0.27693 0.4184,0.55513 0.64414,0.8188 v 0 c 0.17339,0.20253 0.47812,0.22616 0.68065,0.0528 0.17307,-0.1482 0.21901,-0.39723 0.1101,-0.5974 -0.17145,-0.31517 -0.38661,-0.60804 -0.59845,-0.89672 v 0 c -0.17036,-0.23213 -0.49664,-0.28222 -0.72877,-0.1119 -0.23213,0.17035 -0.28222,0.49664 -0.1119,0.72876 0.001,0.002 0.003,0.004 0.004,0.006 z m 0.52885,0.51506 v -4e-5 c -0.0727,0.24546 0.0562,0.50543 0.29546,0.59623 0.0849,0.0323 0.17437,0.0539 0.26581,0.0509 0.25319,-0.008 0.46528,-0.21103 0.47636,-0.46623 0.007,-0.15244 -0.0607,-0.29136 -0.13159,-0.42171 v 0 c -0.12739,-0.23421 -0.42051,-0.32078 -0.65472,-0.19339 -0.15857,0.0862 -0.2558,0.25382 -0.25195,0.43434 l 7.9e-4,-1.1e-4 z m -0.21784,0.45942 c 0.17255,0.0361 0.34805,0.074 0.5133,0.13677 v 0 c 0.25258,0.0959 0.53505,-0.0311 0.63094,-0.28374 0.0727,-0.19142 0.0184,-0.40785 -0.13593,-0.54239 -0.22045,-0.19213 -0.51121,-0.2884 -0.79308,-0.34657 v 0 c -0.28613,-0.0591 -0.56599,0.12506 -0.62501,0.41123 -0.0589,0.28557 0.12435,0.56501 0.40978,0.62473 z m -1.49158,-1.12293 v 0 c -0.28846,7.2e-4 -0.52175,0.23502 -0.52112,0.52345 7.9e-4,0.28639 0.23174,0.51883 0.51813,0.52113 0.32762,0.002 0.65563,0.008 0.98287,0.0264 0.16993,0.01 0.34456,0.017 0.5117,0.0519 v 3e-5 c 0.28597,0.0598 0.56632,-0.12351 0.62618,-0.40947 0.0598,-0.28599 -0.1235,-0.56635 -0.40947,-0.62621 -2.6e-4,-7e-5 -0.001,-1.8e-4 -0.001,-2.9e-4 -0.22042,-0.0455 -0.44813,-0.0581 -0.67243,-0.0687 -0.34445,-0.0164 -0.68957,-0.0191 -1.03438,-0.0183 z m -1.73552,1.00337 c 0.57626,0.0361 1.15542,0.0366 1.73253,0.0412 v 0 c 0.28846,0.002 0.52415,-0.22969 0.52641,-0.51812 0.002,-0.28847 -0.22966,-0.52412 -0.51812,-0.52642 -0.002,-3e-5 -0.004,-3e-5 -0.005,-3e-5 -0.56656,0.001 -1.13312,0.004 -1.69965,-0.001 v 0 c -0.27777,-0.002 -0.50493,0.22073 -0.50736,0.49851 -0.002,0.26726 0.20472,0.48969 0.47149,0.50641 z m -1.28884,-0.97624 v 0 c -0.19826,0.008 -0.35253,0.17515 -0.34459,0.37342 0.006,0.15494 0.11119,0.28843 0.26031,0.33104 0.44704,0.12774 0.90745,0.24261 1.37312,0.27178 v 0 c 0.27721,0.0174 0.51604,-0.19332 0.5334,-0.47053 0.0174,-0.27725 -0.19329,-0.51605 -0.47054,-0.5334 -0.009,-7.2e-4 -0.018,-7.2e-4 -0.027,-0.001 -0.44161,-0.004 -0.88346,0.011 -1.32468,0.0287 z"
       style="fill:#a42604;fill-opacity:1;fill-rule:nonzero;stroke:none;stroke-width:0.35277775"
       id="path2228"
       inkscape:connector-curvature="0" />
    <path
       d="m -22.83451,120.04038 c 0.004,0.021 -0.004,0.0443 -0.009,0.0646 -0.008,0.0338 -0.0183,0.0672 -0.0293,0.10022 -0.0359,0.10788 -0.0799,0.21308 -0.12559,0.31715 v 0 c -0.0344,0.0784 0.001,0.1699 0.0797,0.20433 0.0784,0.0344 0.1699,-0.001 0.20433,-0.0797 0,0 0,-4e-5 0,-4e-5 0.0831,-0.18937 0.17311,-0.37821 0.24359,-0.57284 v 0 c 0.0356,-0.0981 -0.0152,-0.20648 -0.11331,-0.24204 -0.0981,-0.0356 -0.20648,0.0152 -0.242,0.11331 -0.011,0.0304 -0.014,0.063 -0.009,0.0949 z m 0.0923,0.13324 v 0 c 0.0905,0.052 0.20602,0.0208 0.25802,-0.0696 0.006,-0.01 0.0101,-0.0195 0.0139,-0.0298 0.0233,-0.0643 0.0323,-0.13299 0.0161,-0.20016 -0.0236,-0.0971 -0.0944,-0.17392 -0.18126,-0.22003 v 0 c -0.13494,-0.0716 -0.30233,-0.0202 -0.37391,0.11469 -0.0716,0.1349 -0.0202,0.30233 0.11469,0.37391 0.0468,0.0248 0.0998,0.0357 0.15264,0.0313 z m -0.56134,-0.33644 v 0 c -0.14531,0.13832 -0.15095,0.36826 -0.0126,0.51354 0.13836,0.14531 0.36826,0.15095 0.51357,0.0126 0.0219,-0.0209 0.0412,-0.0445 0.0573,-0.0702 0.0283,-0.0451 0.0576,-0.0904 0.092,-0.13113 0.006,-0.007 0.0129,-0.0152 0.0203,-0.0218 0.003,-0.002 -0.0234,0.0144 0.005,-0.002 v 0 c 0.13272,-0.0755 0.1791,-0.24437 0.10357,-0.37712 -0.0259,-0.0456 -0.0643,-0.0829 -0.1107,-0.10749 -0.23516,-0.12481 -0.49593,0.0193 -0.66805,0.18316 z m 0,0 c -0.1954,0.18605 -0.33373,0.42693 -0.44468,0.67049 v 0 c -0.0953,0.20927 -0.003,0.45618 0.20631,0.5515 0.20923,0.0953 0.45614,0.003 0.55146,-0.20627 0.006,-0.0126 0.0109,-0.0255 0.0153,-0.0386 0.0608,-0.17883 0.12908,-0.3604 0.22983,-0.52116 v 0 c 0.10658,-0.16997 0.0551,-0.39416 -0.11482,-0.5007 -0.14066,-0.0882 -0.32319,-0.0697 -0.44341,0.0447 z m -0.44468,0.67049 c -0.14848,0.32589 -0.22055,0.68269 -0.25318,1.03776 v 0 c -0.0227,0.24734 0.15938,0.46631 0.40671,0.48903 0.24737,0.0227 0.46634,-0.15939 0.48906,-0.40672 7.9e-4,-0.008 0.001,-0.015 0.001,-0.0225 0.0111,-0.26653 0.0427,-0.53728 0.12901,-0.79089 v 0 c 0.074,-0.2177 -0.0424,-0.45421 -0.2601,-0.52825 -0.20253,-0.0689 -0.42428,0.0269 -0.51297,0.22154 z m -0.25318,1.03776 c -0.03,0.32639 -0.0432,0.68676 0.0916,0.99357 v 0 c 0.10315,0.23474 0.37705,0.34142 0.61178,0.2383 0.23474,-0.10315 0.34142,-0.37705 0.23831,-0.61179 -8e-4,-10e-4 -0.001,-0.002 -0.002,-0.004 -0.0231,-0.0513 -0.0292,-0.1126 -0.0353,-0.16774 -0.014,-0.12884 -0.0128,-0.25933 -0.007,-0.38866 v 0 c 0.0103,-0.24818 -0.1825,-0.45776 -0.43067,-0.46806 -0.23947,-0.01 -0.44464,0.16958 -0.46659,0.40823 z m 0.0916,0.99357 c 0.0892,0.20295 0.2124,0.39006 0.36399,0.55181 v 0 c 0.17576,0.18757 0.47029,0.19713 0.65786,0.0213 0.18754,-0.17575 0.1971,-0.47029 0.0214,-0.65782 0,0 0,0 0,0 -0.0806,-0.0861 -0.14644,-0.18517 -0.19484,-0.29267 v 0 c -0.10524,-0.23382 -0.38012,-0.33799 -0.61391,-0.23272 -0.2323,0.10456 -0.33694,0.37683 -0.23445,0.61005 z m 0.36399,0.55181 c 0.1457,0.15551 0.31249,0.29048 0.49361,0.40256 v 0 c 0.21816,0.13497 0.50447,0.0676 0.63944,-0.1506 0.13434,-0.2171 0.0683,-0.50194 -0.14788,-0.63775 -0.11197,-0.0703 -0.21548,-0.15417 -0.30597,-0.25072 v 3e-5 c -0.17575,-0.18757 -0.47028,-0.19713 -0.65786,-0.0214 -0.18757,0.17579 -0.19713,0.47033 -0.0213,0.65786 z m 0.49361,0.40256 c 0.18905,0.11698 0.39553,0.20482 0.61055,0.26109 v 0 c 0.23897,0.0625 0.48341,-0.0805 0.54593,-0.31951 0.0572,-0.21862 -0.0577,-0.4456 -0.26776,-0.52896 -0.13815,-0.0548 -0.27133,-0.12192 -0.39716,-0.20097 v 0 c -0.21724,-0.13649 -0.50398,-0.071 -0.64047,0.14619 -0.13645,0.21724 -0.071,0.50397 0.14623,0.64046 7.9e-4,7.2e-4 0.002,0.001 0.003,0.002 z m 0.61055,0.26109 c 0.27245,0.0713 0.557,0.0983 0.83697,0.12054 v 4e-5 c 0.23364,0.0186 0.43818,-0.15572 0.45681,-0.3894 0.0183,-0.22945 -0.14965,-0.43166 -0.37857,-0.45582 -0.2112,-0.0223 -0.43772,-0.0447 -0.63704,-0.12379 v 0 c -0.22959,-0.0911 -0.48959,0.0212 -0.58068,0.25075 -0.0911,0.22963 0.0212,0.48959 0.25079,0.58071 0.0169,0.007 0.0341,0.0124 0.0517,0.017 z m 0.83693,0.12054 c 0.45579,0.0363 0.91274,-0.1028 1.31237,-0.3139 v 0 c 0.0714,-0.0378 0.0988,-0.12626 0.061,-0.19773 -0.0182,-0.0344 -0.0493,-0.0601 -0.0864,-0.0715 -0.39395,-0.121 -0.79823,-0.21869 -1.20865,-0.26204 v 0 c -0.23312,-0.0246 -0.44207,0.14442 -0.46669,0.37754 -0.0246,0.23311 0.14443,0.44203 0.37754,0.46665 0.004,3.5e-4 0.007,7.2e-4 0.0108,0.001 v -3e-5 z"
       style="fill:#a42604;fill-opacity:1;fill-rule:nonzero;stroke:none;stroke-width:0.35277775"
       id="path2234"
       inkscape:connector-curvature="0" />
    <path
       d="m -26.11245,119.3363 c 0.24737,0.0546 0.49953,0.0868 0.75261,0.098 v -3e-5 c 0.0855,0.004 0.15801,-0.0625 0.16182,-0.14803 0.004,-0.0856 -0.0625,-0.15801 -0.14802,-0.16182 -0.22557,-0.01 -0.44941,-0.0556 -0.65963,-0.13835 v 0 c -0.0944,-0.0371 -0.20101,0.009 -0.23812,0.10364 -0.0371,0.0944 0.009,0.20101 0.10365,0.23816 0.009,0.004 0.0182,0.006 0.0276,0.008 z m -0.0109,-0.5334 c -0.14044,0.0164 -0.30145,0.0563 -0.35091,0.20984 v 0 c -0.02,0.062 -0.0143,0.1295 0.0158,0.18732 0.0482,0.0925 0.14982,0.13889 0.23961,0.18154 v -3e-5 c 0.15222,0.0723 0.33422,0.008 0.4065,-0.14468 0.0723,-0.15222 0.008,-0.33425 -0.14467,-0.40654 -0.0518,-0.0246 -0.1094,-0.0341 -0.1663,-0.0275 z m 1.74053,-0.0507 c -0.37433,0.003 -0.74873,0.007 -1.12293,0.0175 -0.20556,0.006 -0.41313,0.009 -0.6176,0.0331 v 0 c -0.1674,0.0195 -0.28723,0.17107 -0.26769,0.33842 0.0122,0.10439 0.0772,0.19516 0.17216,0.24025 0.0964,0.0458 0.20214,0.0714 0.30642,0.092 0.12471,0.0247 0.251,0.0411 0.37733,0.0545 0.38022,0.0404 0.7633,0.0546 1.14536,0.0639 v 0 c 0.23181,0.006 0.42429,-0.1778 0.4299,-0.40962 0.006,-0.23184 -0.1778,-0.42432 -0.40965,-0.42989 -0.004,-1.1e-4 -0.009,-1.4e-4 -0.0133,-1.1e-4 z m 0,0 v 4e-5 c -0.23191,0.002 -0.41846,0.19117 -0.4167,0.42305 0.002,0.2267 0.18309,0.41109 0.40975,0.41656 0.59274,0.0143 1.18548,0.029 1.77821,0.0421 v 0 c 0.23873,0.005 0.43653,-0.18397 0.44182,-0.4227 0.005,-0.23089 -0.17215,-0.42506 -0.40255,-0.4409 -0.22296,-0.0153 -0.44715,-0.017 -0.67053,-0.0191 -0.38001,-0.004 -0.76002,-0.002 -1.14,0.001 z m 1.77126,0.88177 c 0.35701,0.008 0.71378,0.0432 1.06871,0.0805 v 0 c 0.21738,0.0229 0.41215,-0.13483 0.43505,-0.35225 0.0216,-0.20563 -0.11871,-0.39327 -0.32209,-0.43067 -0.37768,-0.0695 -0.75886,-0.13479 -1.1424,-0.16122 v 0 c -0.23823,-0.0164 -0.44464,0.16341 -0.46105,0.40164 -0.0164,0.2382 0.16341,0.44464 0.40164,0.46105 0.007,3.4e-4 0.0134,7.1e-4 0.0201,0.001 z m 1.06871,0.0805 c 0.39589,0.0416 0.79163,0.0844 1.18699,0.13074 v 4e-5 c 0.17085,0.02 0.32558,-0.1022 0.34565,-0.27305 0.0168,-0.14355 -0.0673,-0.27986 -0.2032,-0.32911 -0.3938,-0.14273 -0.80514,-0.2359 -1.21648,-0.31154 v 0 c -0.21498,-0.0395 -0.42132,0.10273 -0.46083,0.31771 -0.0396,0.21499 0.10272,0.42133 0.31771,0.46084 0.01,0.002 0.02,0.003 0.0302,0.004 z m 1.18699,0.13074 c 0.33475,0.0393 0.66749,0.095 0.99766,0.16263 v 0 c 0.0757,0.0155 0.14972,-0.0333 0.16524,-0.10904 0.0111,-0.0543 -0.0108,-0.11 -0.0559,-0.14214 -0.2975,-0.21187 -0.62082,-0.389 -0.96453,-0.51357 v 0 c -0.16171,-0.0586 -0.34032,0.0249 -0.39895,0.18669 -0.0586,0.16171 0.025,0.34033 0.18669,0.39892 0.0225,0.008 0.046,0.0137 0.0698,0.0166 z"
       style="fill:#a42604;fill-opacity:1;fill-rule:nonzero;stroke:none;stroke-width:0.35277775"
       id="path2236"
       inkscape:connector-curvature="0" />
  </g>
</svg>
