<?xml version="1.0" encoding="UTF-8" standalone="no"?>
<!-- Created with Inkscape (http://www.inkscape.org/) -->

<svg
   xmlns:dc="http://purl.org/dc/elements/1.1/"
   xmlns:cc="http://creativecommons.org/ns#"
   xmlns:rdf="http://www.w3.org/1999/02/22-rdf-syntax-ns#"
   xmlns:svg="http://www.w3.org/2000/svg"
   xmlns="http://www.w3.org/2000/svg"
   xmlns:sodipodi="http://sodipodi.sourceforge.net/DTD/sodipodi-0.dtd"
   xmlns:inkscape="http://www.inkscape.org/namespaces/inkscape"
   width="32.016495mm"
   height="32.107834mm"
   viewBox="-0.1 0 32.016495 32.107834"
   version="1.1"
   id="svg893"
   inkscape:version="0.92.3 (2405546, 2018-03-11)"
   sodipodi:docname="sq_orange_circle.svg">
  <defs
     id="defs887" />
  <sodipodi:namedview
     id="base"
     pagecolor="#ffffff"
     bordercolor="#666666"
     borderopacity="1.0"
     inkscape:pageopacity="0.0"
     inkscape:pageshadow="2"
     inkscape:zoom="0.35"
     inkscape:cx="-434.16039"
     inkscape:cy="-342.18091"
     inkscape:document-units="mm"
     inkscape:current-layer="layer1"
     showgrid="false"
     fit-margin-top="0"
     fit-margin-left="0"
     fit-margin-right="0"
     fit-margin-bottom="0"
     inkscape:window-width="1920"
     inkscape:window-height="1025"
     inkscape:window-x="0"
     inkscape:window-y="27"
     inkscape:window-maximized="1" />
  <metadata
     id="metadata890">
    <rdf:RDF>
      <cc:Work
         rdf:about="">
        <dc:format>image/svg+xml</dc:format>
        <dc:type
           rdf:resource="http://purl.org/dc/dcmitype/StillImage" />
        <dc:title></dc:title>
      </cc:Work>
    </rdf:RDF>
  </metadata>
  <g
     inkscape:label="Layer 1"
     inkscape:groupmode="layer"
     id="layer1"
     transform="translate(-101.26446,-26.190134)">
    <path
       d="m 106.12807,39.672749 c 0.21601,-0.06678 0.42753,-0.148343 0.63779,-0.231246 0.31951,-0.126012 0.63609,-0.259292 0.95169,-0.394723 v 0 c 0.0984,-0.04219 0.14393,-0.156175 0.1017,-0.254565 -0.0394,-0.09176 -0.14199,-0.138606 -0.2371,-0.108232 -0.32198,0.102835 -0.64516,0.2026 -0.97123,0.291642 -0.20183,0.0551 -0.40566,0.109149 -0.61246,0.142345 v 0 c -0.15572,0.02498 -0.26169,0.171486 -0.23671,0.327202 0.025,0.155716 0.17148,0.261726 0.32723,0.236714 0.0132,-0.0021 0.0263,-0.0052 0.0391,-0.0091 z m -1.07992,0.216253 c 0.36509,-0.04082 0.72859,-0.107633 1.07992,-0.216253 v 0 c 0.15067,-0.04657 0.23506,-0.206481 0.18849,-0.357152 -0.042,-0.135926 -0.17762,-0.220169 -0.3181,-0.197627 -0.32815,0.05267 -0.66089,0.07429 -0.993,0.07821 v 0 c -0.19191,0.0021 -0.34565,0.159667 -0.34339,0.351579 0.002,0.191875 0.1597,0.345616 0.35158,0.343358 0.0115,-1.41e-4 0.023,-7.14e-4 0.0345,-0.0021 z m -1.11467,-0.08477 c 0.3569,0.120474 0.74358,0.126224 1.11467,0.08477 v 0 c 0.19071,-0.02131 0.32805,-0.193217 0.30674,-0.383964 -0.0198,-0.177447 -0.17089,-0.310973 -0.34943,-0.308857 -0.26546,0.0032 -0.54504,-0.01799 -0.79177,-0.123966 v 0 c -0.19904,-0.08551 -0.42972,0.0066 -0.5152,0.205599 -0.0855,0.199037 0.007,0.429683 0.2056,0.515161 0.01,0.0042 0.0194,0.0079 0.0294,0.01125 z m -0.86967,-0.531957 c 0.25026,0.234068 0.54405,0.422064 0.86967,0.531954 v 0 c 0.20524,0.06925 0.42777,-0.04096 0.49702,-0.246239 0.0654,-0.193675 -0.029,-0.405095 -0.21681,-0.485775 -0.20899,-0.08978 -0.39063,-0.231987 -0.54335,-0.399238 v 0 c -0.15886,-0.17399 -0.42873,-0.186267 -0.60276,-0.02738 -0.17399,0.158891 -0.18626,0.428766 -0.0274,0.602756 0.008,0.0083 0.0154,0.01626 0.0236,0.02392 z m -0.71131,-0.935672 c 0.19375,0.341065 0.42386,0.666785 0.71131,0.935672 v 0 c 0.17212,0.160973 0.4421,0.151942 0.60307,-0.02014 0.15205,-0.16256 0.15357,-0.414761 0.004,-0.579155 -0.20144,-0.220594 -0.34745,-0.488706 -0.46546,-0.761367 h 4e-5 c -0.10463,-0.241724 -0.38541,-0.352884 -0.62713,-0.248285 -0.24173,0.104634 -0.35289,0.385409 -0.24829,0.627133 0.007,0.01577 0.0145,0.03119 0.023,0.04614 z m -0.55605,-1.283758 c 0.14549,0.443477 0.3253,0.877464 0.55605,1.283758 v 0 c 0.13011,0.229023 0.42122,0.30921 0.65028,0.17914 0.2117,-0.120261 0.29884,-0.380682 0.20214,-0.604131 -0.16006,-0.369817 -0.27707,-0.75745 -0.36812,-1.149597 v 0 c -0.0675,-0.290866 -0.35807,-0.471876 -0.6489,-0.404354 -0.29087,0.06752 -0.47191,0.358069 -0.40439,0.648934 0.004,0.01559 0.008,0.03101 0.0129,0.04625 z m -0.37549,-1.576141 c 0.0872,0.533295 0.20694,1.062355 0.37549,1.576105 v 0 c 0.0931,0.283739 0.39854,0.438291 0.68224,0.345229 0.26607,-0.08731 0.42143,-0.363256 0.35811,-0.636023 -0.11166,-0.480907 -0.19498,-0.968163 -0.26071,-1.45736 v 0 c -0.0429,-0.319652 -0.33686,-0.543983 -0.65655,-0.501051 -0.31965,0.04297 -0.54399,0.336903 -0.50102,0.656555 7.1e-4,0.0055 0.001,0.01104 0.002,0.01654 z m -0.15572,-1.728328 c 0.0101,0.578873 0.0623,1.15697 0.15572,1.728328 v 0 c 0.0521,0.318312 0.35232,0.534141 0.67063,0.482071 0.31189,-0.05105 0.52659,-0.340889 0.4845,-0.65412 -0.0701,-0.521688 -0.10858,-1.047609 -0.115,-1.573953 v 0 c -0.004,-0.330236 -0.27499,-0.594678 -0.60523,-0.590656 -0.33023,0.004 -0.59468,0.27499 -0.59065,0.605225 0,0.0011 3e-5,0.0021 3e-5,0.0032 z m 0,0 v 0 c 0.006,0.330235 0.2781,0.593266 0.6083,0.587516 0.329,-0.0057 0.59157,-0.276155 0.58755,-0.60519 -0.006,-0.488315 0.0238,-0.977795 0.10227,-1.460042 v 0 c 0.0532,-0.327201 -0.16895,-0.635599 -0.49615,-0.688798 -0.32724,-0.05324 -0.63563,0.16891 -0.68883,0.496111 0,7e-5 0,1.41e-4 -4e-5,2.12e-4 -0.0895,0.551638 -0.1228,1.111673 -0.1131,1.670191 z m 1.29812,-1.477716 c 0.033,-0.20327 0.0692,-0.406188 0.1137,-0.607307 0.0282,-0.127317 0.0586,-0.255093 0.10132,-0.378495 v 0 c 0.10943,-0.316301 -0.0583,-0.661458 -0.37462,-0.770855 -0.3163,-0.109431 -0.66146,0.05828 -0.77085,0.374615 -0.002,0.0059 -0.004,0.01178 -0.006,0.01771 -0.11871,0.380753 -0.18496,0.778968 -0.24871,1.171857 v 0 c -0.0531,0.327237 0.16912,0.635564 0.49636,0.688657 0.32717,0.05309 0.63546,-0.169051 0.68866,-0.496182 z m 0.21502,-0.985802 c 0.0634,-0.183303 0.13511,-0.364455 0.22285,-0.537598 v 0 c 0.15331,-0.302719 0.0322,-0.672394 -0.27044,-0.825747 -0.30272,-0.153352 -0.6724,-0.03224 -0.82575,0.270439 -0.002,0.0032 -0.003,0.0066 -0.005,0.0099 -0.10986,0.226907 -0.19809,0.463974 -0.27309,0.704462 v 0 c -0.0996,0.319546 0.0786,0.659342 0.39818,0.758966 0.3126,0.09748 0.64611,-0.07097 0.75315,-0.380431 z m 0.22285,-0.537598 c 0.11468,-0.226448 0.2637,-0.437092 0.40989,-0.643855 v 0 c 0.19921,-0.281728 0.13229,-0.671583 -0.14944,-0.870796 -0.28173,-0.199214 -0.67158,-0.132292 -0.8708,0.149436 -0.003,0.0047 -0.007,0.0094 -0.01,0.01415 -0.1731,0.25968 -0.34484,0.524299 -0.48104,0.805675 v 0 c -0.14789,0.305399 -0.0201,0.672853 0.28525,0.820737 0.30152,0.145979 0.66442,0.0235 0.81584,-0.275343 z m 0.40989,-0.643855 c 0.1953,-0.276225 0.40975,-0.538938 0.64209,-0.78486 v 0 c 0.24013,-0.254211 0.22874,-0.654967 -0.0255,-0.895103 -0.25421,-0.240171 -0.65497,-0.228741 -0.89511,0.02547 -3.5e-4,3.52e-4 -7e-4,7.06e-4 -10e-4,0.0014 -0.27587,0.293723 -0.52673,0.610729 -0.75021,0.945974 v 0 c -0.19139,0.28709 -0.11381,0.675005 0.17328,0.866386 0.28155,0.187643 0.66132,0.117088 0.85665,-0.159173 z m 0.64209,-0.78486 c 0.17268,-0.182774 0.34875,-0.36837 0.54645,-0.524721 v 0 c 0.27464,-0.217206 0.32117,-0.615915 0.104,-0.890517 -0.2172,-0.274638 -0.61591,-0.321204 -0.89055,-0.103999 0,0 0,0 0,0 -0.24635,0.194839 -0.46708,0.422416 -0.68171,0.65091 v 0 c -0.23943,0.254882 -0.22687,0.655602 0.028,0.895033 0.25439,0.238936 0.65416,0.226977 0.8938,-0.02671 z m 0.54645,-0.524721 c 0.19847,-0.156951 0.41702,-0.289878 0.63338,-0.420229 v 0 c 0.29933,-0.180305 0.39582,-0.569101 0.21551,-0.868433 -0.17974,-0.298344 -0.56674,-0.395323 -0.86593,-0.217029 -0.26405,0.157374 -0.52804,0.320216 -0.76951,0.511175 v 0 c -0.27464,0.217205 -0.32117,0.615915 -0.104,0.890552 0.2172,0.274602 0.61591,0.321169 0.89055,0.103964 0,0 0,0 0,0 z m 0.63338,-0.420229 c 0.23883,-0.143863 0.47805,-0.287267 0.72016,-0.425486 v 0 c 0.29467,-0.168239 0.39719,-0.543489 0.22895,-0.838164 -0.15533,-0.272062 -0.4905,-0.383681 -0.77794,-0.25908 -0.28459,0.123401 -0.55549,0.278694 -0.82159,0.437268 v 0 c -0.30014,0.178893 -0.39846,0.567266 -0.21957,0.867445 0.17893,0.300143 0.56727,0.398463 0.86745,0.219569 7.1e-4,-3.52e-4 0.002,-0.0011 0.002,-0.0014 z m 0.72016,-0.425486 c 0.21724,-0.124001 0.45544,-0.213853 0.68947,-0.300108 v 0 c 0.30416,-0.112148 0.45981,-0.449615 0.34766,-0.753745 -0.10908,-0.29598 -0.43261,-0.452755 -0.73254,-0.355035 -0.28773,0.09373 -0.5757,0.191205 -0.85355,0.311644 v 0 c -0.31132,0.134973 -0.45427,0.496746 -0.31933,0.808073 0.13497,0.311291 0.49674,0.454271 0.80807,0.319299 0.0206,-0.0089 0.0407,-0.01901 0.0602,-0.03013 z m 0.68947,-0.300108 c 0.31446,-0.115958 0.64061,-0.198931 0.97112,-0.253541 v 0 c 0.31024,-0.05129 0.52018,-0.344311 0.46888,-0.654544 -0.0503,-0.304694 -0.33447,-0.513715 -0.64033,-0.471029 -0.4016,0.05599 -0.7989,0.144674 -1.18455,0.270334 v 0 c -0.30819,0.100436 -0.47664,0.431694 -0.3762,0.739916 0.10043,0.308187 0.43169,0.476638 0.73988,0.376202 0.007,-0.0025 0.0142,-0.0048 0.0212,-0.0073 z m 0.97116,-0.253541 c 0.36167,-0.0598 0.72792,-0.09028 1.09439,-0.09613 v 0 c 0.30586,-0.0049 0.54984,-0.256787 0.54497,-0.562645 -0.005,-0.300073 -0.24769,-0.541726 -0.54776,-0.545007 -0.4222,-0.0046 -0.84487,0.01986 -1.26309,0.07821 v 0 c -0.31143,0.04343 -0.52867,0.331082 -0.48521,0.642514 0.0434,0.311397 0.33109,0.528638 0.64248,0.485211 0.005,-7.06e-4 0.009,-0.0014 0.0142,-0.0021 z m 1.09439,-0.09613 c 0.16397,-0.0025 0.32826,-0.0021 0.49202,0.0075 0.10114,0.0059 0.2032,0.01397 0.30257,0.03457 v 0 c 0.28674,0.05941 0.56738,-0.124919 0.62678,-0.411657 0.0553,-0.266841 -0.10071,-0.532165 -0.36078,-0.613586 -0.34026,-0.106539 -0.70954,-0.120685 -1.06338,-0.124531 v 0 c -0.30589,-0.0035 -0.55654,0.2419 -0.55989,0.547794 -0.004,0.305893 0.2419,0.556542 0.54779,0.559893 0.005,3.6e-5 0.01,3.6e-5 0.0149,-3.5e-5 z m 0.79459,0.04212 c 0.18698,0.03873 0.36964,0.09705 0.54709,0.167252 v 0 c 0.25943,0.102658 0.55298,-0.02445 0.65564,-0.283881 0.0987,-0.249484 -0.0148,-0.532588 -0.25852,-0.644772 -0.22045,-0.101494 -0.44654,-0.191311 -0.67821,-0.263842 v 0 c -0.27947,-0.08752 -0.57697,0.06812 -0.66446,0.347592 -0.0875,0.27947 0.0681,0.576933 0.34759,0.664457 0.0167,0.0052 0.0337,0.0096 0.0509,0.01319 z m 0.54709,0.167252 c 0.28367,0.112218 0.55273,0.264407 0.81686,0.415678 v 0 c 0.23431,0.134196 0.53305,0.05302 0.66724,-0.181293 0.13222,-0.230893 0.0556,-0.525109 -0.17251,-0.662128 -0.29753,-0.178682 -0.59887,-0.355671 -0.91447,-0.50091 v 0 c -0.25347,-0.116663 -0.55347,-0.0058 -0.67013,0.24765 -0.11667,0.253471 -0.006,0.553509 0.24765,0.670172 0.008,0.0038 0.0168,0.0074 0.0254,0.01083 z m 0.81686,0.415678 c 0.28176,0.16136 0.56328,0.326425 0.82906,0.513397 v 0 c 0.21163,0.148872 0.50387,0.098 0.65275,-0.113629 0.14139,-0.200943 0.1035,-0.476956 -0.0868,-0.63239 -0.28081,-0.229411 -0.58995,-0.424356 -0.90029,-0.610799 v 0 c -0.23149,-0.13903 -0.53184,-0.0641 -0.67091,0.167393 -0.13903,0.231457 -0.0641,0.531847 0.16739,0.670877 0.003,0.0018 0.006,0.0035 0.009,0.0052 z m 0.82906,0.513397 c 0.1917,0.134867 0.37585,0.280564 0.55051,0.43688 v 0 c 0.18352,0.164289 0.46546,0.148696 0.62971,-0.03482 0.15886,-0.177447 0.15025,-0.448416 -0.0196,-0.615421 -0.18979,-0.186654 -0.38851,-0.364278 -0.59468,-0.532659 v 0 c -0.20037,-0.163689 -0.49554,-0.13395 -0.65923,0.06643 -0.16369,0.200413 -0.13395,0.495547 0.0665,0.659236 0.009,0.0071 0.0176,0.0139 0.0268,0.02035 z m 0.55051,0.43688 c 0.25813,0.23107 0.48528,0.49904 0.70905,0.762565 v 0 c 0.15395,0.181257 0.42566,0.203411 0.60695,0.04946 0.17893,-0.151942 0.20317,-0.419277 0.0545,-0.600958 -0.24214,-0.295769 -0.48747,-0.592984 -0.76034,-0.861307 v 0 c -0.17558,-0.172684 -0.45794,-0.170321 -0.63066,0.0053 -0.17269,0.175613 -0.17032,0.457976 0.005,0.630661 0.005,0.0049 0.0101,0.0097 0.0153,0.01432 z m 0.70905,0.762565 c 0.23509,0.276824 0.46983,0.559258 0.66668,0.865222 v 0 c 0.12358,0.192088 0.37948,0.247615 0.57157,0.124037 0.18542,-0.119274 0.24465,-0.363044 0.13469,-0.554108 -0.20218,-0.351296 -0.45537,-0.6737 -0.71152,-0.986649 v 0 c -0.15063,-0.184009 -0.42192,-0.211067 -0.60596,-0.06043 -0.18401,0.150636 -0.21107,0.421922 -0.0604,0.605931 0.002,0.0021 0.003,0.004 0.005,0.006 z m 0.66668,0.865222 c 0.14122,0.219499 0.27157,0.446053 0.38883,0.679239 v 0 c 0.0989,0.196709 0.33856,0.275978 0.53523,0.177059 0.19361,-0.09737 0.27397,-0.331541 0.18098,-0.527262 -0.12273,-0.258233 -0.25619,-0.511316 -0.39878,-0.759107 v 0 c -0.11395,-0.197943 -0.36678,-0.2661 -0.56473,-0.152153 -0.19798,0.113912 -0.2661,0.366783 -0.15219,0.564727 0.004,0.0059 0.007,0.01175 0.0106,0.0175 z m 0.38883,0.679239 c 0.16739,0.332916 0.28822,0.691021 0.40647,1.043481 v 0 c 0.0685,0.204012 0.28931,0.313902 0.49333,0.245428 0.20231,-0.06787 0.31234,-0.285891 0.24683,-0.488986 -0.12534,-0.388549 -0.25491,-0.780732 -0.43042,-1.15009 v 0 c -0.0945,-0.198861 -0.33232,-0.283458 -0.53114,-0.188948 -0.19886,0.09447 -0.28346,0.332281 -0.18895,0.531142 0.001,0.0025 0.003,0.0053 0.004,0.008 z m 0.40647,1.043481 c 0.15805,0.471029 0.28572,0.952218 0.38139,1.439757 v 0 c 0.0406,0.207151 0.24155,0.342159 0.4487,0.301483 0.20609,-0.04043 0.34096,-0.239536 0.30205,-0.445911 -0.0982,-0.520558 -0.22935,-1.034767 -0.39198,-1.538887 v 0 c -0.0661,-0.204787 -0.28564,-0.317218 -0.49039,-0.251142 -0.20479,0.06604 -0.31726,0.285609 -0.25118,0.490396 3.4e-4,0.0014 0.001,0.0028 0.001,0.0043 z m 0.38139,1.439757 c 0.0922,0.469688 0.15307,0.945762 0.17565,1.423952 v 0 c 0.0101,0.213113 0.19099,0.377684 0.40407,0.367594 0.21308,-0.01005 0.37765,-0.190958 0.36759,-0.404071 -1e-4,-0.0025 -2.4e-4,-0.0048 -3.4e-4,-0.0073 -0.0339,-0.511634 -0.10114,-1.020833 -0.19615,-1.524635 v 0 c -0.0391,-0.207469 -0.23904,-0.343923 -0.44647,-0.3048 -0.20747,0.03912 -0.34392,0.239007 -0.3048,0.446475 1.8e-4,0.0011 3.4e-4,0.0018 7.1e-4,0.0028 z m 0.17565,1.423987 c 0.0215,0.454484 0.0288,0.909744 0.0176,1.364615 v 0 c -0.005,0.222814 0.17078,0.407881 0.39359,0.413314 0.22282,0.0054 0.40785,-0.17078 0.41328,-0.393594 1.1e-4,-0.0042 1.4e-4,-0.0084 1.1e-4,-0.01263 -0.003,-0.472227 -0.0222,-0.94428 -0.0534,-1.415485 v 0 c -0.0141,-0.21283 -0.19805,-0.373979 -0.41091,-0.359903 -0.21001,0.0139 -0.37025,0.193428 -0.3603,0.403684 z m 0.68925,2.756711 c 0.095,-0.455083 0.13858,-0.920256 0.13537,-1.385005 v 0 c -0.001,-0.222885 -0.18345,-0.402308 -0.40633,-0.400791 -0.21795,0.0014 -0.39533,0.175824 -0.40065,0.3937 -0.01,0.407317 -0.0588,0.813787 -0.15103,1.210804 v 0 c -0.0526,0.226589 0.0884,0.452931 0.31507,0.50553 0.22659,0.0526 0.45293,-0.08844 0.50553,-0.31503 7.1e-4,-0.0032 0.001,-0.0061 0.002,-0.0092 z m -0.41402,1.313251 c 0.18034,-0.422946 0.32004,-0.863107 0.41402,-1.313251 v 0 c 0.0475,-0.227718 -0.0986,-0.45085 -0.32628,-0.498369 -0.22412,-0.04678 -0.44457,0.09405 -0.49636,0.317077 -0.0902,0.388725 -0.22585,0.766374 -0.40068,1.125043 v 0 c -0.10767,0.22091 -0.0159,0.487257 0.20503,0.59496 0.22091,0.107668 0.48726,0.01588 0.59496,-0.205035 0.003,-0.0067 0.006,-0.01355 0.009,-0.02043 z m -0.67433,1.246681 c 0.26137,-0.39437 0.48874,-0.811389 0.67433,-1.246681 v 0 c 0.0964,-0.22606 -0.009,-0.487469 -0.23477,-0.583848 -0.21802,-0.09299 -0.47068,0.0014 -0.57453,0.214313 -0.18253,0.374473 -0.40189,0.730567 -0.65031,1.06486 v 0 c -0.15808,0.21276 -0.11377,0.513397 0.099,0.671477 0.21276,0.15808 0.51336,0.113771 0.67147,-0.09899 0.005,-0.0069 0.0101,-0.01394 0.0148,-0.02113 z m -0.95871,1.115025 c 0.36502,-0.329424 0.68714,-0.705203 0.95871,-1.115025 v 0 c 0.14644,-0.220945 0.086,-0.51876 -0.13494,-0.665163 -0.21258,-0.140864 -0.49823,-0.09088 -0.65034,0.113807 -0.24349,0.327695 -0.52705,0.625122 -0.84427,0.882262 v 0 c -0.22144,0.179493 -0.25545,0.504542 -0.0759,0.725981 0.17949,0.221439 0.50454,0.255446 0.72598,0.07592 0.007,-0.0057 0.014,-0.01168 0.0208,-0.01778 z m -1.21578,0.857214 c 0.43678,-0.237384 0.84663,-0.524051 1.21578,-0.857214 v 0 c 0.21163,-0.190959 0.22835,-0.517349 0.0374,-0.72898 -0.18387,-0.203729 -0.49505,-0.227965 -0.70824,-0.05514 -0.32212,0.261126 -0.67525,0.482776 -1.04796,0.66421 v 0 c -0.27294,0.132891 -0.38647,0.461856 -0.25361,0.734765 0.13286,0.272944 0.46182,0.386468 0.73477,0.253612 0.007,-0.0036 0.0147,-0.0073 0.0219,-0.01125 z m -1.09333,0.501298 c 0.38065,-0.125766 0.74197,-0.310374 1.09333,-0.501298 v 0 c 0.2667,-0.144956 0.36541,-0.478684 0.22045,-0.745384 -0.14037,-0.258304 -0.45914,-0.360398 -0.72347,-0.231739 -0.29898,0.145556 -0.60608,0.290195 -0.92693,0.381176 v -3.5e-5 c -0.30501,0.0865 -0.48217,0.403824 -0.39571,0.708836 0.0865,0.304976 0.40383,0.482141 0.70884,0.395675 0.008,-0.0021 0.0157,-0.0047 0.0235,-0.0072 z m -0.85368,0.215088 c 0.28949,-0.04999 0.57481,-0.122943 0.85368,-0.215088 v 0 c 0.30103,-0.09945 0.4644,-0.42411 0.36495,-0.7251 -0.0965,-0.291924 -0.4058,-0.456036 -0.7016,-0.372145 -0.22409,0.0635 -0.45307,0.110278 -0.6846,0.136313 v 0 c -0.32615,0.03669 -0.56078,0.3308 -0.52409,0.656908 0.0367,0.326108 0.3308,0.560775 0.65691,0.524086 0.0116,-0.0014 0.0232,-0.0028 0.0348,-0.005 z m -1.23127,0.09631 c 0.41025,-0.01164 0.82603,-0.02628 1.23127,-0.09631 v 0 c 0.32339,-0.05584 0.54024,-0.36329 0.48436,-0.686682 -0.0535,-0.30995 -0.33937,-0.52451 -0.65193,-0.489338 -0.35479,0.0399 -0.71628,0.0339 -1.07259,0.02889 v 0 c -0.34343,-0.0048 -0.62576,0.269663 -0.63055,0.613092 -0.005,0.343394 0.26966,0.625722 0.61305,0.630555 0.009,1.06e-4 0.0176,3.6e-5 0.0264,-2.12e-4 z m -1.8324,-0.317078 c 0.58614,0.211455 1.20767,0.334821 1.8324,0.317076 v 0 c 0.34333,-0.0097 0.61373,-0.295945 0.60399,-0.639268 -0.009,-0.333058 -0.27975,-0.599475 -0.61288,-0.604167 -0.47533,-0.0067 -0.94463,-0.113207 -1.3904,-0.274073 v 0 c -0.33147,-0.119592 -0.69716,0.05218 -0.81675,0.383646 -0.11963,0.331505 0.0521,0.697159 0.38364,0.816786 0,0 0,0 0,0 z m -1.41467,-0.674688 c 0.43074,0.296157 0.92534,0.498123 1.41467,0.674688 v 0 c 0.33147,0.119591 0.69716,-0.05218 0.81675,-0.383646 0.1196,-0.331505 -0.0521,-0.697159 -0.38364,-0.816786 -0.40506,-0.146121 -0.81555,-0.301625 -1.18964,-0.517455 v 0 c -0.29524,-0.170356 -0.67271,-0.06911 -0.84307,0.226131 -0.1609,0.278906 -0.0804,0.634612 0.18493,0.817068 z m -0.88593,-0.672888 c 0.28451,0.238019 0.58025,0.462703 0.88593,0.672888 v 0 c 0.28088,0.193111 0.66516,0.121956 0.85827,-0.158926 0.19315,-0.280882 0.12199,-0.665162 -0.15889,-0.858273 -0.0134,-0.0092 -0.0271,-0.01789 -0.0412,-0.026 -0.27502,-0.158715 -0.53629,-0.341137 -0.78017,-0.544443 v 0 c -0.2528,-0.210714 -0.62854,-0.1766 -0.83925,0.07616 -0.21047,0.252483 -0.17675,0.627662 0.0754,0.838588 z m -1.26591,-1.331665 c 0.23213,0.271215 0.46796,0.539573 0.71349,0.798794 0.17576,0.185561 0.3562,0.368688 0.55242,0.532871 v 0 c 0.25241,0.211173 0.62823,0.17773 0.83936,-0.07468 0.21118,-0.252415 0.17773,-0.62823 -0.0746,-0.839402 -3e-4,-2.12e-4 -7.2e-4,-3.44e-4 -7.2e-4,-7.15e-4 -0.16559,-0.138006 -0.32043,-0.289136 -0.47318,-0.441042 -0.24098,-0.239607 -0.47512,-0.486234 -0.70675,-0.734872 v 0 c -0.21453,-0.230258 -0.5751,-0.243028 -0.8054,-0.0285 -0.22345,0.208174 -0.24306,0.555519 -0.0445,0.787506 z m -1.46463,-1.922392 c 0.44898,0.669501 0.94051,1.310075 1.46463,1.922427 v -3.5e-5 c 0.20465,0.239112 0.56437,0.267052 0.80349,0.06237 0.23911,-0.204647 0.26702,-0.564374 0.0624,-0.803487 -0.005,-0.0061 -0.0105,-0.01203 -0.016,-0.01785 -0.51615,-0.554074 -0.99533,-1.143248 -1.42399,-1.7677 v 0 c -0.16817,-0.245004 -0.50317,-0.307269 -0.74817,-0.139065 -0.24314,0.1669 -0.3066,0.498405 -0.14235,0.743339 z m -1.19143,-3.617454 c 0.1386,0.722701 0.30148,1.443743 0.52832,2.144395 0.16524,0.510363 0.36279,1.025207 0.66311,1.473059 v 0 c 0.16553,0.246803 0.49978,0.312702 0.74662,0.147214 0.24681,-0.165524 0.3127,-0.499816 0.14718,-0.746619 -0.001,-0.0018 -0.002,-0.0032 -0.003,-0.0049 -0.26927,-0.392222 -0.50623,-0.806983 -0.73624,-1.223084 -0.34703,-0.627768 -0.67349,-1.266825 -0.99254,-1.909163 v 0 c -0.0462,-0.09303 -0.1591,-0.130986 -0.25213,-0.08477 -0.0756,0.03757 -0.11695,0.120932 -0.10104,0.20387 z"
       style="fill:#d34f21;fill-opacity:1;fill-rule:nonzero;stroke:none;stroke-width:0.35277775"
       id="path867"
       inkscape:connector-curvature="0" />
    <path
       d="m 114.9061,39.062655 c 0.0388,0.09271 0.11007,0.164888 0.20119,0.206375 0.0573,0.02607 0.11892,0.0424 0.17992,0.05722 v 0 c 0.10403,0.02529 0.20887,-0.03852 0.23417,-0.142557 0.0112,-0.04614 0.005,-0.09479 -0.0171,-0.136737 l 7e-5,1.41e-4 c 0.0599,-0.166828 -0.0267,-0.350696 -0.1936,-0.410633 -0.16687,-0.05994 -0.3507,0.02674 -0.41064,0.193569 -0.0272,0.07556 -0.025,0.158574 0.006,0.232622 z m 0,0 v 0 c 0.065,0.155187 0.23883,0.233821 0.39832,0.180234 0.0396,-0.01333 0.082,-0.02067 0.12273,-0.02939 0.10016,-0.02138 0.2008,-0.0405 0.30149,-0.0593 v 0 c 0.24592,-0.04593 0.40805,-0.28254 0.36212,-0.528461 -0.0459,-0.245922 -0.2825,-0.408094 -0.52842,-0.362162 -0.0209,0.0039 -0.0415,0.0093 -0.0616,0.01605 -0.15643,0.05274 -0.31154,0.125483 -0.43392,0.238478 -0.14686,0.135608 -0.24303,0.348121 -0.16073,0.544548 z m 0.82254,0.09155 c 0.1948,-0.03641 0.3943,-0.05927 0.59273,-0.04907 v 0 c 0.27647,0.01415 0.5121,-0.198508 0.52628,-0.47498 0.0142,-0.276507 -0.19851,-0.512127 -0.47498,-0.526274 -0.0215,-0.0011 -0.043,-7.14e-4 -0.0644,7.15e-4 -0.27545,0.02134 -0.54621,0.08682 -0.80751,0.174907 v 0 c -0.23707,0.0799 -0.36446,0.336903 -0.28452,0.57397 0.0721,0.213854 0.29055,0.342018 0.51241,0.300602 z m 0.59273,-0.04907 c 0.21943,0.01122 0.43776,0.04099 0.65412,0.07835 v 0 c 0.28819,0.04971 0.56208,-0.14358 0.61183,-0.431764 0.0497,-0.288149 -0.14358,-0.562081 -0.43177,-0.611823 -0.007,-0.0011 -0.0134,-0.0021 -0.0202,-0.0032 -0.27361,-0.03641 -0.55146,-0.05348 -0.82709,-0.0321 v 0 c -0.27601,0.02138 -0.48242,0.262502 -0.46101,0.538516 0.0195,0.251248 0.22247,0.44898 0.47414,0.461891 z m 0.65412,0.07835 c 0.25721,0.04438 0.50645,0.130457 0.74585,0.23301 v 0 c 0.27915,0.119592 0.60236,-0.0098 0.72196,-0.288925 0.11959,-0.279118 -0.01,-0.602368 -0.28889,-0.72196 -0.008,-0.0036 -0.0167,-0.0069 -0.0252,-0.01005 -0.32121,-0.119239 -0.65367,-0.213501 -0.99385,-0.258727 v 0 c -0.28988,-0.03856 -0.55612,0.16517 -0.59468,0.455048 -0.0375,0.281975 0.15452,0.543207 0.43484,0.591608 z m 0.74585,0.23301 c 0.30275,0.129681 0.59838,0.275802 0.88677,0.434834 v 0 c 0.272,0.149966 0.61405,0.05105 0.76401,-0.220945 0.14997,-0.271992 0.0511,-0.614045 -0.2209,-0.764011 0,0 0,0 0,0 -0.32876,-0.181257 -0.67004,-0.340183 -1.02204,-0.470817 v 0 c -0.28472,-0.105657 -0.60117,0.03948 -0.70682,0.324203 -0.10199,0.274814 0.0296,0.581307 0.29898,0.696736 z m 0.88677,0.434834 c 0.32276,0.177941 0.64174,0.362585 0.95776,0.552203 v 0 c 0.26695,0.160161 0.6132,0.07362 0.77339,-0.193322 0.16017,-0.266947 0.0736,-0.613199 -0.19332,-0.773395 -7.1e-4,-3.44e-4 -10e-4,-7.14e-4 -0.002,-0.0014 -0.3279,-0.194769 -0.65856,-0.384987 -0.99257,-0.569137 v 0 c -0.27196,-0.149966 -0.61405,-0.05105 -0.76401,0.220945 -0.14997,0.271992 -0.0511,0.614045 0.22094,0.764011 0,0 0,0 0,0 z m 0.95776,0.552168 c 0.35056,0.210396 0.69296,0.434375 1.02933,0.666714 v 0 c 0.26043,0.179882 0.61733,0.114618 0.79721,-0.145803 0.17992,-0.260385 0.11462,-0.617326 -0.14577,-0.797207 -0.004,-0.0025 -0.007,-0.0052 -0.0114,-0.0077 -0.35902,-0.23555 -0.72227,-0.464714 -1.09149,-0.684036 v 0 c -0.26765,-0.158962 -0.61352,-0.07087 -0.77251,0.196779 -0.15847,0.266806 -0.0715,0.611541 0.19463,0.771243 z m 1.02933,0.666714 c 0.35927,0.24818 0.7147,0.501862 1.06575,0.761471 v 0 c 0.26169,0.193569 0.63076,0.138289 0.8243,-0.123401 0.19353,-0.261691 0.13829,-0.630732 -0.1234,-0.824266 -0.004,-0.0028 -0.008,-0.0058 -0.012,-0.0087 -0.36753,-0.25774 -0.73922,-0.509552 -1.11454,-0.755791 v 0 c -0.26461,-0.173602 -0.6199,-0.09984 -0.79353,0.164782 -0.17068,0.260174 -0.10256,0.609036 0.15345,0.785883 z m 1.06575,0.761471 c 0.36286,0.268394 0.71395,0.552556 1.05632,0.846526 v 0 c 0.25435,0.218404 0.63757,0.189265 0.85594,-0.06505 0.21841,-0.254353 0.18927,-0.63754 -0.065,-0.855945 -0.004,-0.0035 -0.008,-0.0066 -0.0118,-0.0099 -0.37214,-0.30353 -0.75339,-0.596195 -1.14656,-0.871996 v 0 c -0.26649,-0.186902 -0.63401,-0.122379 -0.82091,0.144109 -0.18359,0.261761 -0.12499,0.622124 0.13204,0.812236 z m 1.05632,0.846526 c 0.3708,0.318417 0.73011,0.65024 1.07795,0.993528 v 0 c 0.24518,0.242005 0.64011,0.23943 0.88212,-0.0058 0.24197,-0.24518 0.23939,-0.640115 -0.006,-0.882121 -0.003,-0.0028 -0.006,-0.0056 -0.009,-0.0083 -0.37596,-0.357046 -0.76479,-0.700476 -1.16657,-1.028171 v 0 c -0.25978,-0.211878 -0.64216,-0.173037 -0.85404,0.08675 -0.2081,0.255129 -0.17483,0.629638 0.0749,0.844127 z m 1.07795,0.993563 c 0.35856,0.353836 0.70393,0.720972 1.0366,1.09922 v 0 c 0.23364,0.265677 0.63842,0.291606 0.9041,0.05796 0.26564,-0.233645 0.2916,-0.638422 0.058,-0.904099 -0.004,-0.0038 -0.007,-0.0077 -0.0103,-0.0114 -0.36114,-0.3913 -0.73456,-0.771242 -1.12064,-1.137954 v 0 c -0.2498,-0.237243 -0.64459,-0.227048 -0.88184,0.02275 -0.23403,0.24638 -0.22775,0.634788 0.0141,0.873513 z m 1.0366,1.09922 c 0.34336,0.390419 0.66347,0.801088 0.96262,1.226256 v 0 c 0.21012,0.298556 0.62244,0.370311 0.92104,0.160196 0.29855,-0.210079 0.37027,-0.622406 0.16019,-0.920997 -0.003,-0.0047 -0.007,-0.0093 -0.0101,-0.01394 -0.33782,-0.454554 -0.69783,-0.892845 -1.082,-1.309052 v 0 c -0.23996,-0.259997 -0.64523,-0.276225 -0.90523,-0.03627 -0.25559,0.235868 -0.27622,0.632637 -0.0465,0.893798 z m 0.96262,1.226256 c 0.31944,0.453954 0.62319,0.918951 0.91215,1.392872 v 0 c 0.19649,0.322263 0.61707,0.424215 0.93934,0.227718 0.32226,-0.196497 0.42425,-0.617043 0.22771,-0.939306 -0.003,-0.0052 -0.006,-0.01023 -0.01,-0.01527 -0.31729,-0.490793 -0.64985,-0.971735 -0.99847,-1.440753 v 0 c -0.21777,-0.292982 -0.63186,-0.353977 -0.92484,-0.136172 -0.28762,0.213783 -0.3525,0.61782 -0.1463,0.910908 z m 0.91215,1.392872 c 0.27834,0.456459 0.54144,0.922444 0.78299,1.399434 v 0 c 0.17607,0.347663 0.60064,0.486763 0.9483,0.310692 0.34762,-0.176072 0.48673,-0.60064 0.31065,-0.948302 -0.003,-0.0056 -0.006,-0.01129 -0.009,-0.01686 -0.27167,-0.502285 -0.56561,-0.992329 -0.87566,-1.471859 v 3.5e-5 c -0.20493,-0.317006 -0.62802,-0.407811 -0.94499,-0.202883 -0.31108,0.201119 -0.4053,0.613481 -0.21248,0.929746 z m 0.78299,1.399434 c 0.35669,0.704321 0.7009,1.415098 1.04503,2.125627 v 0 c 0.17575,0.362762 0.61228,0.514421 0.97504,0.338667 0.3628,-0.175718 0.51442,-0.612246 0.3387,-0.975042 -0.002,-0.0037 -0.004,-0.0074 -0.006,-0.01118 -0.3611,-0.714093 -0.72241,-1.428644 -1.1031,-2.132542 v 0 c -0.18538,-0.342794 -0.61355,-0.470359 -0.95631,-0.284974 -0.33627,0.181857 -0.46655,0.598382 -0.29383,0.939447 z m 1.04503,2.125627 c 0.41247,0.8515 0.81936,1.705787 1.21458,2.565471 v 0 c 0.17339,0.377156 0.61969,0.542325 0.99681,0.36897 0.37715,-0.17339 0.54236,-0.619689 0.36897,-0.996844 -0.001,-0.0028 -0.003,-0.0058 -0.004,-0.0088 -0.41099,-0.864446 -0.83612,-1.722189 -1.26806,-2.57637 v 0 c -0.18189,-0.359693 -0.62096,-0.503873 -0.98069,-0.321945 -0.35539,0.179705 -0.50112,0.611081 -0.32752,0.969503 z m 1.21458,2.565471 c 0.34173,0.743339 0.67102,1.492428 0.98619,2.247406 v 0 c 0.16302,0.39049 0.61175,0.574886 1.00228,0.411869 0.39048,-0.163018 0.57492,-0.611752 0.41186,-1.002242 -0.001,-0.0024 -0.002,-0.0051 -0.003,-0.0075 -0.33049,-0.768606 -0.67625,-1.530606 -1.03545,-2.286188 v 0 c -0.17822,-0.374861 -0.62663,-0.534281 -1.0015,-0.356058 -0.37147,0.176602 -0.53198,0.61902 -0.36018,0.992717 z m 0.98619,2.247406 c 0.20779,0.497665 0.41335,0.996492 0.62949,1.490591 v 0 c 0.17206,0.393348 0.63038,0.57277 1.02373,0.400685 0.39335,-0.172048 0.57277,-0.630378 0.40072,-1.023726 -0.002,-0.0057 -0.005,-0.01146 -0.008,-0.01714 -0.22281,-0.477555 -0.42704,-0.964245 -0.63521,-1.448292 v 0 c -0.16718,-0.388761 -0.61785,-0.568397 -1.00658,-0.401214 -0.38583,0.165946 -0.56617,0.611539 -0.40439,0.999101 z m 0.62949,1.490628 c 0.0949,0.216852 0.19492,0.433138 0.31673,0.63641 v 0 c 0.22638,0.377859 0.71621,0.500663 1.0941,0.274286 0.37786,-0.226378 0.50067,-0.716212 0.27429,-1.094105 -0.0187,-0.03126 -0.0396,-0.06121 -0.0624,-0.08961 -0.0871,-0.108373 -0.14768,-0.242218 -0.20599,-0.367207 v 0 c -0.1815,-0.389078 -0.64406,-0.557316 -1.03314,-0.375812 -0.38245,0.178435 -0.5527,0.629388 -0.38354,1.016035 z m 0.31673,0.63641 c 0.082,0.136877 0.18986,0.258974 0.32918,0.339796 v -3.7e-5 c 0.17388,0.100897 0.38054,0.129117 0.57513,0.0786 0.35511,-0.09218 0.59722,-0.428202 0.59503,-0.790011 -0.001,-0.195086 -0.0715,-0.38608 -0.19336,-0.537774 v 0 c -0.2759,-0.343395 -0.77791,-0.398145 -1.12134,-0.122272 -0.31055,0.249518 -0.38939,0.689928 -0.18464,1.031698 z"
       style="fill:#d34f21;fill-opacity:1;fill-rule:nonzero;stroke:none;stroke-width:0.35277775"
       id="path869"
       inkscape:connector-curvature="0" />
  </g>
</svg>
