<?xml version="1.0" encoding="UTF-8" standalone="no"?>
<!-- Created with Inkscape (http://www.inkscape.org/) -->

<svg
   xmlns:dc="http://purl.org/dc/elements/1.1/"
   xmlns:cc="http://creativecommons.org/ns#"
   xmlns:rdf="http://www.w3.org/1999/02/22-rdf-syntax-ns#"
   xmlns:svg="http://www.w3.org/2000/svg"
   xmlns="http://www.w3.org/2000/svg"
   xmlns:sodipodi="http://sodipodi.sourceforge.net/DTD/sodipodi-0.dtd"
   xmlns:inkscape="http://www.inkscape.org/namespaces/inkscape"
   width="71.230858mm"
   height="65.792191mm"
   viewBox="-0.1 0 71.230858 65.79219"
   version="1.1"
   id="svg893"
   inkscape:version="0.92.3 (2405546, 2018-03-11)"
   sodipodi:docname="sq_orange_circle.svg">
  <defs
     id="defs887" />
  <sodipodi:namedview
     id="base"
     pagecolor="#ffffff"
     bordercolor="#666666"
     borderopacity="1.0"
     inkscape:pageopacity="0.0"
     inkscape:pageshadow="2"
     inkscape:zoom="0.98994949"
     inkscape:cx="-293.91422"
     inkscape:cy="311.50093"
     inkscape:document-units="mm"
     inkscape:current-layer="layer1"
     showgrid="false"
     fit-margin-top="0"
     fit-margin-left="0"
     fit-margin-right="0"
     fit-margin-bottom="0"
     inkscape:window-width="1920"
     inkscape:window-height="1025"
     inkscape:window-x="0"
     inkscape:window-y="27"
     inkscape:window-maximized="1" />
  <metadata
     id="metadata890">
    <rdf:RDF>
      <cc:Work
         rdf:about="">
        <dc:format>image/svg+xml</dc:format>
        <dc:type
           rdf:resource="http://purl.org/dc/dcmitype/StillImage" />
        <dc:title></dc:title>
      </cc:Work>
    </rdf:RDF>
  </metadata>
  <g
     inkscape:label="Layer 1"
     inkscape:groupmode="layer"
     id="layer1"
     transform="translate(-140.56406,-31.969454)">
    <path
       inkscape:connector-curvature="0"
       id="path2044"
       style="fill:#d34f21;fill-opacity:1;fill-rule:nonzero;stroke:none;stroke-width:0.35277778"
       d="m 146.7997,84.521282 c 0.39899,0.657542 0.81241,1.306371 1.24319,1.943558 v 0 c 0.15483,0.229023 0.46605,0.289172 0.69508,0.134338 0.22902,-0.15487 0.28917,-0.466055 0.13434,-0.695078 0,0 0,-3.5e-5 -4e-5,-3.5e-5 -0.4216,-0.62357 -0.82613,-1.258641 -1.21666,-1.902143 l 4e-5,-3.5e-5 c -0.14344,-0.236326 -0.45131,-0.311679 -0.68767,-0.16824 -0.23633,0.143404 -0.31168,0.451273 -0.16828,0.687635 z m -1.14205,-2.086081 c 0.34862,0.712293 0.73068,1.408112 1.14205,2.086081 v 0 c 0.14344,0.236361 0.45131,0.311679 0.68767,0.168275 0.23633,-0.143405 0.31168,-0.451274 0.16828,-0.687635 0,0 0,0 0,-3.5e-5 -0.38432,-0.633271 -0.70503,-1.305313 -0.94954,-2.00473 v 0 c -0.10372,-0.296722 -0.42838,-0.453179 -0.7251,-0.349427 -0.29672,0.103717 -0.45318,0.428343 -0.34943,0.725064 0.007,0.02131 0.0161,0.04212 0.0261,0.06241 z m -0.7246,-1.663136 c 0.19353,0.572241 0.45946,1.121481 0.7246,1.663136 v 0 c 0.13819,0.282328 0.47908,0.399168 0.7614,0.260985 0.25887,-0.126718 0.38217,-0.426932 0.28706,-0.699029 -0.10777,-0.308258 -0.21146,-0.618138 -0.30441,-0.931228 -0.0628,-0.21149 -0.12217,-0.424744 -0.16489,-0.641315 v 0 c -0.0722,-0.366324 -0.42781,-0.604731 -0.79414,-0.532447 -0.36636,0.07225 -0.60473,0.427814 -0.53248,0.794138 0.006,0.02907 0.0134,0.05771 0.0229,0.08576 z m -0.38058,-1.55956 c 0.0972,0.525533 0.20913,1.052583 0.38058,1.55956 v 0 c 0.11963,0.353695 0.50334,0.54349 0.85704,0.423863 0.32127,-0.108656 0.51234,-0.438538 0.44672,-0.771278 -0.0928,-0.470606 -0.14838,-0.948726 -0.19727,-1.425575 v 0 c -0.0424,-0.413032 -0.41152,-0.713529 -0.82455,-0.67116 -0.413,0.04233 -0.71349,0.41148 -0.67116,0.824512 0.002,0.02014 0.005,0.04018 0.009,0.06008 z m -0.19512,-2.001273 c 0.01,0.670948 0.073,1.341332 0.19509,2.001273 v 0 c 0.0755,0.40827 0.46771,0.678004 0.87598,0.602474 0.38513,-0.07123 0.65105,-0.426261 0.61112,-0.815869 -0.0603,-0.588469 -0.078,-1.181029 -0.0579,-1.772144 h 4e-5 c 0.0152,-0.448451 -0.33595,-0.824336 -0.7844,-0.839576 -0.44842,-0.01524 -0.8243,0.335951 -0.83954,0.784366 -3.5e-4,0.01316 -7.1e-4,0.02632 -3.5e-4,0.03948 z m 0,0 v 0 c 0.007,0.448663 0.37557,0.80705 0.82423,0.800488 0.43332,-0.0063 0.78535,-0.351649 0.8001,-0.784754 0.0205,-0.603497 0.17851,-1.195705 0.4003,-1.754681 v 0 c 0.17049,-0.429613 -0.0396,-0.916058 -0.4692,-1.086556 -0.42961,-0.170497 -0.91606,0.03958 -1.08655,0.469195 -2.1e-4,3.53e-4 -3.6e-4,0.0011 -7.1e-4,0.0014 -0.29524,0.748171 -0.48009,1.547389 -0.46828,2.354827 z m 2.02463,-1.738947 c 0.2081,-0.524334 0.43,-1.054559 0.72926,-1.534654 v 0 c 0.24479,-0.392783 0.12485,-0.909602 -0.26794,-1.15443 -0.39274,-0.244792 -0.9096,-0.124848 -1.15439,0.267935 0,0 0,0 0,0 -0.35285,0.566102 -0.61898,1.18625 -0.86325,1.805269 h -3e-5 c -0.16965,0.429931 0.0413,0.915988 0.47127,1.085674 0.42937,0.169439 0.91483,-0.04075 1.08508,-0.469794 z m 0.72926,-1.534654 c 0.13903,-0.223097 0.3011,-0.432153 0.46542,-0.63694 0.25545,-0.318241 0.52419,-0.625793 0.79728,-0.92897 v 0 c 0.3042,-0.337714 0.277,-0.858132 -0.0608,-1.162332 -0.33285,-0.299791 -0.84438,-0.278307 -1.15094,0.04837 -0.30194,0.321768 -0.59845,0.649252 -0.87947,0.989612 -0.21195,0.256681 -0.41762,0.520947 -0.59391,0.803769 h 4e-5 c -0.24479,0.392783 -0.12485,0.909637 0.26793,1.15443 0.39275,0.244757 0.90961,0.124812 1.1544,-0.267935 z m 1.2627,-1.56591 c 0.65934,-0.732049 1.39234,-1.395906 2.16743,-2.003178 v 0 c 0.34484,-0.270192 0.40538,-0.768773 0.13518,-1.113578 -0.2667,-0.340431 -0.75695,-0.40446 -1.10218,-0.143969 -0.85993,0.64897 -1.67453,1.36077 -2.41212,2.146759 v 0 c -0.31104,0.331434 -0.2945,0.852275 0.037,1.16332 0.33144,0.311044 0.85228,0.294499 1.16332,-0.03697 0.004,-0.0041 0.008,-0.0082 0.0114,-0.01238 z m 2.16743,-2.003178 c 0.83894,-0.657296 1.71129,-1.271905 2.61239,-1.8409 v 0 c 0.35066,-0.221439 0.45543,-0.6852 0.234,-1.035862 -0.21622,-0.34237 -0.66496,-0.451661 -1.01438,-0.24705 -0.96824,0.56702 -1.90338,1.190378 -2.79901,1.866265 v 0 c -0.34967,0.263913 -0.41921,0.761295 -0.15533,1.110968 0.26388,0.349673 0.76126,0.419206 1.11093,0.155328 0.004,-0.0028 0.008,-0.0058 0.0114,-0.0087 z m 2.61242,-1.840935 c 0.9513,-0.60071 1.95376,-1.118306 2.98221,-1.573425 v 0 c 0.36273,-0.160514 0.52666,-0.584694 0.36615,-0.94742 -0.15988,-0.361315 -0.58156,-0.525638 -0.94375,-0.36777 -1.0904,0.475191 -2.15837,1.004499 -3.18502,1.605738 v 0 c -0.35786,0.209585 -0.47809,0.669572 -0.2685,1.027465 0.20955,0.357858 0.66957,0.47805 1.02743,0.2685 0.007,-0.0042 0.0144,-0.0086 0.0215,-0.01309 z m 2.98221,-1.573425 c 1.07128,-0.474062 2.1687,-0.889811 3.28845,-1.234651 v 0 c 0.36721,-0.113066 0.5732,-0.502391 0.46013,-0.869597 -0.11151,-0.362092 -0.49223,-0.568361 -0.85644,-0.464044 -1.18307,0.338913 -2.34167,0.761506 -3.46974,1.253066 v 3.6e-5 c -0.36361,0.158467 -0.52995,0.581695 -0.37148,0.945338 0.15847,0.363643 0.58173,0.529943 0.94534,0.371475 0.001,-3.53e-4 0.002,-0.0011 0.004,-0.0018 z m 3.28845,-1.234651 c 1.03435,-0.318523 2.09586,-0.553191 3.17158,-0.676416 v 0 c 0.38474,-0.0441 0.6609,-0.391725 0.61683,-0.776464 -0.0441,-0.384704 -0.39172,-0.660859 -0.77646,-0.616797 -0.006,7.06e-4 -0.013,0.0018 -0.0195,0.0025 -1.14512,0.1639 -2.27697,0.415007 -3.38875,0.733495 v 0 c -0.36936,0.105798 -0.583,0.490996 -0.4772,0.860355 0.1058,0.369358 0.491,0.583 0.86035,0.477202 0.004,-0.0014 0.009,-0.0025 0.0132,-0.0039 z m 3.17158,-0.676416 c 1.0637,-0.121885 2.13484,-0.175719 3.20538,-0.16757 v 0 c 0.4071,0.0032 0.73963,-0.324379 0.74273,-0.731485 0.003,-0.407105 -0.32441,-0.739633 -0.73152,-0.742738 -0.004,-3.5e-5 -0.008,-3.5e-5 -0.0115,0 -1.13196,0.0091 -2.26353,0.09066 -3.3842,0.251072 v 0 c -0.38336,0.05486 -0.64964,0.410104 -0.59475,0.793433 0.0538,0.375743 0.39681,0.640468 0.77389,0.597288 z m 3.20534,-0.16757 c 1.00824,0.0077 2.0174,0.118357 2.99678,0.361492 v 0 c 0.40213,0.09984 0.80909,-0.145239 0.90893,-0.547406 0.0998,-0.402166 -0.14524,-0.809096 -0.54741,-0.908932 -1.09706,-0.272379 -2.2292,-0.388443 -3.35858,-0.379377 v 0 c -0.40711,0.0032 -0.73449,0.33595 -0.7312,0.743056 0.003,0.40259 0.32889,0.728098 0.73148,0.731167 z m 2.99678,0.361492 c 0.9006,0.22359 1.78107,0.534246 2.61203,0.948584 v 0 c 0.38478,0.191876 0.85224,0.03549 1.04412,-0.349286 0.19184,-0.384774 0.0354,-0.85224 -0.34932,-1.044116 -0.009,-0.0046 -0.0185,-0.009 -0.0279,-0.01323 -0.93878,-0.422451 -1.91866,-0.750358 -2.91741,-0.998291 v 0 c -0.40213,-0.09984 -0.80909,0.145239 -0.90893,0.547406 -0.0998,0.402131 0.14524,0.809095 0.54741,0.908932 0,0 0,0 0,0 z m 2.61203,0.948584 c 0.84021,0.418959 1.62818,0.937895 2.36386,1.520049 v 0 c 0.34939,0.276472 0.85676,0.217381 1.13323,-0.13201 0.27647,-0.349391 0.21738,-0.856756 -0.13201,-1.133228 -0.83009,-0.656943 -1.73196,-1.226608 -2.69818,-1.661442 v 0 c -0.39212,-0.176424 -0.85299,-0.0018 -1.02945,0.390454 -0.17148,0.381141 -0.0115,0.829698 0.36255,1.016177 z m 2.36386,1.520049 c 0.77248,0.611258 1.48442,1.298398 2.12041,2.050732 v 0 c 0.28674,0.339196 0.79414,0.381706 1.13333,0.09497 0.33839,-0.286068 0.3816,-0.791951 0.0967,-1.131288 -0.70305,-0.837212 -1.49193,-1.601294 -2.34918,-2.27965 v 0 c -0.34939,-0.276507 -0.85676,-0.217382 -1.13323,0.13201 -0.27647,0.349355 -0.21738,0.856756 0.13201,1.133228 z m 2.12041,2.050732 c 0.63779,0.754451 1.21634,1.558784 1.72699,2.404533 v 0 c 0.22295,0.369253 0.70301,0.487857 1.07226,0.264901 0.36231,-0.218722 0.48447,-0.686258 0.27549,-1.054276 -0.53248,-0.937648 -1.15133,-1.825731 -1.84475,-2.651478 v 0 c -0.28561,-0.340113 -0.79286,-0.384316 -1.13298,-0.09867 -0.34015,0.285609 -0.38431,0.792868 -0.0987,1.132981 7.1e-4,7.06e-4 10e-4,0.0014 0.002,0.0021 z m 1.72699,2.404533 c 0.5268,0.872455 0.97335,1.792217 1.34934,2.739108 h 3e-5 c 0.15498,0.390313 0.59704,0.58106 0.98736,0.426085 0.39027,-0.155011 0.58106,-0.597041 0.42608,-0.987354 -0.40471,-1.019175 -0.87348,-2.013444 -1.41506,-2.967179 v 0 c -0.21301,-0.375109 -0.68975,-0.506483 -1.06483,-0.293476 -0.37507,0.212972 -0.50648,0.689716 -0.29347,1.064789 0.004,0.0061 0.007,0.01206 0.0105,0.01803 z m 1.34934,2.739073 c 0.37119,0.93479 0.68096,1.895228 0.90286,2.87662 v 3.6e-5 c 0.0909,0.401919 0.49036,0.654085 0.89232,0.563209 0.39652,-0.08964 0.6483,-0.480236 0.56624,-0.878416 -0.21992,-1.066977 -0.5461,-2.110635 -0.94795,-3.122683 v 0 c -0.15501,-0.390314 -0.59704,-0.581096 -0.98735,-0.426085 -0.39032,0.154975 -0.5811,0.597041 -0.42612,0.987319 z m 0.90286,2.87662 c 0.20976,0.927771 0.33764,1.873744 0.38185,2.82388 v 0 c 0.0194,0.41776 0.37384,0.740693 0.79163,0.721255 0.41776,-0.01944 0.74069,-0.373839 0.72125,-0.791634 -3.5e-4,-0.0085 -0.001,-0.01711 -0.002,-0.02565 -0.0824,-1.021997 -0.22758,-2.038808 -0.43455,-3.043025 v 0 c -0.0832,-0.403578 -0.4778,-0.663328 -0.88142,-0.580143 -0.40361,0.08319 -0.66336,0.477802 -0.58014,0.881415 0.001,0.0047 0.002,0.0093 0.003,0.01393 v -3.6e-5 z m 1.95771,5.703747 c 0.0409,-0.992047 0.0151,-1.986386 -0.0646,-2.975893 v 0 c -0.0336,-0.416877 -0.39878,-0.727569 -0.81566,-0.693984 -0.40689,0.03281 -0.71458,0.382235 -0.6956,0.79001 0.0433,0.930981 0.0402,1.864572 -0.0206,2.794741 v 0 c -0.0288,0.440549 0.30495,0.821055 0.74553,0.849912 0.44055,0.02882 0.82105,-0.304976 0.84991,-0.745525 3.5e-4,-0.0064 7.1e-4,-0.01284 0.001,-0.01926 z m -0.43918,2.870834 c 0.25499,-0.936378 0.39917,-1.901436 0.43918,-2.870834 v 0 c 0.0182,-0.441114 -0.32467,-0.813506 -0.76581,-0.831674 -0.43364,-0.01789 -0.80233,0.313443 -0.83066,0.746548 -0.0557,0.851429 -0.19526,1.69739 -0.42502,2.519363 v 0 c -0.12203,0.436527 0.13292,0.889352 0.56945,1.011378 0.43656,0.122026 0.88935,-0.132926 1.01138,-0.569489 3.5e-4,-0.0018 0.001,-0.0035 0.001,-0.0053 z m -0.88342,2.53612 c 0.35803,-0.821478 0.64801,-1.671743 0.88342,-2.53612 v 0 c 0.1191,-0.437338 -0.13889,-0.888435 -0.57623,-1.007533 -0.43529,-0.118533 -0.88462,0.136455 -1.00608,0.570936 -0.21393,0.765175 -0.49876,1.512287 -0.87189,2.214456 v 0 c -0.2262,0.425627 -0.0645,0.954052 0.36114,1.180254 0.42562,0.226201 0.95405,0.06452 1.18025,-0.361104 0.0106,-0.01993 0.0204,-0.04022 0.0294,-0.06089 z m -1.43274,2.399347 c 0.56758,-0.741045 1.05946,-1.542838 1.43274,-2.399347 v 0 c 0.19258,-0.441854 -0.009,-0.956204 -0.45138,-1.148786 -0.41787,-0.182104 -0.90548,-0.01199 -1.1194,0.390525 -0.37822,0.711694 -0.83143,1.381972 -1.33131,2.01355 v 0 c -0.31916,0.403225 -0.25101,0.988836 0.15222,1.307994 0.40326,0.319158 0.98887,0.251001 1.30803,-0.152223 0.003,-0.0039 0.006,-0.0078 0.009,-0.01171 z m -2.08238,2.230156 c 0.75756,-0.680368 1.4629,-1.421342 2.08238,-2.230156 v 0 c 0.3127,-0.408269 0.23523,-0.992716 -0.17304,-1.305419 -0.40368,-0.309174 -0.98072,-0.237348 -1.29631,0.161361 -0.56336,0.711764 -1.19698,1.366308 -1.87195,1.972557 v 0 c -0.38707,0.347627 -0.41903,0.943222 -0.0714,1.33029 0.34763,0.387067 0.94323,0.419029 1.33029,0.07137 z m -2.61383,1.889759 c 0.93503,-0.535163 1.81232,-1.169846 2.61383,-1.889759 v 0 c 0.38707,-0.347663 0.41903,-0.943258 0.0714,-1.33029 -0.34763,-0.387068 -0.94322,-0.41903 -1.33029,-0.07137 -0.71325,0.640574 -1.4805,1.220646 -2.29182,1.731398 v 0 c -0.42538,0.267758 -0.55312,0.829663 -0.28533,1.255007 0.25982,0.412785 0.7989,0.547299 1.22224,0.305011 z m -3.12195,1.378727 c 1.07947,-0.363079 2.13269,-0.812553 3.12191,-1.378691 v 0 c 0.43625,-0.249661 0.58748,-0.805709 0.33782,-1.241919 -0.24966,-0.436245 -0.80567,-0.587481 -1.24192,-0.33782 -0.0111,0.0063 -0.022,0.01288 -0.0328,0.01969 -0.85605,0.538938 -1.78734,0.952041 -2.74489,1.274092 v 0 c -0.45967,0.154587 -0.707,0.652568 -0.55238,1.112273 0.15459,0.45967 0.65257,0.706967 1.11224,0.55238 0,0 0,0 3e-5,0 z m -3.56203,0.799323 c 1.21077,-0.143157 2.40637,-0.410633 3.562,-0.799323 v 0 c 0.4597,-0.154588 0.707,-0.652569 0.55241,-1.112273 -0.15462,-0.45967 -0.6526,-0.707002 -1.11227,-0.55238 0,0 0,0 0,0 -1.04888,0.352778 -2.12958,0.609106 -3.22481,0.76708 v 0 c -0.46778,0.06749 -0.7923,0.501403 -0.72482,0.969186 0.0662,0.459388 0.48659,0.782179 0.94749,0.72771 z m -3.71281,0.169969 c 1.23949,0.02738 2.48137,-0.02438 3.71281,-0.169969 v 0 c 0.46937,-0.05549 0.8049,-0.481012 0.74937,-0.950348 -0.0555,-0.46937 -0.48097,-0.804897 -0.95035,-0.749405 -0.007,7.05e-4 -0.0145,0.0018 -0.0217,0.0028 -1.15958,0.167287 -2.32869,0.265112 -3.49945,0.304941 v 0 c -0.43124,0.01468 -0.76895,0.376132 -0.75427,0.807402 0.0141,0.414232 0.34921,0.745385 0.76358,0.754521 z m -4.04297,-0.512622 c 1.32768,0.295452 2.6822,0.4826 4.04297,0.512622 v 0 c 0.43141,0.0095 0.78881,-0.332458 0.79834,-0.763835 0.01,-0.431412 -0.33246,-0.788846 -0.76384,-0.798371 -0.0146,-3.18e-4 -0.0292,-2.12e-4 -0.0438,2.82e-4 -1.24862,0.04247 -2.49894,-0.103152 -3.7169,-0.374191 v 0 c -0.39307,-0.08745 -0.78264,0.160302 -0.87013,0.553367 -0.0875,0.3931 0.1603,0.782673 0.55337,0.870126 z m -4.17975,-1.486147 c 1.32923,0.655955 2.73223,1.164061 4.17975,1.486147 v 0 c 0.3931,0.08749 0.78267,-0.160267 0.87012,-0.553367 0.0875,-0.393065 -0.16026,-0.782637 -0.55336,-0.870126 -1.34723,-0.299791 -2.66161,-0.739105 -3.92645,-1.290355 v 0 c -0.34276,-0.149367 -0.74172,0.0074 -0.89109,0.350131 -0.14439,0.331329 -0.003,0.717656 0.32103,0.87757 z m -3.95397,-2.39716 c 1.24968,0.905016 2.56992,1.714183 3.95397,2.39716 v 0 c 0.33528,0.165453 0.74122,0.0278 0.90668,-0.307516 0.16545,-0.33528 0.0278,-0.741221 -0.30752,-0.906674 -0.01,-0.0047 -0.0193,-0.0092 -0.0291,-0.01351 -1.35591,-0.590938 -2.66443,-1.288345 -3.92099,-2.068054 v 0 c -0.25407,-0.157657 -0.58787,-0.07952 -0.74552,0.174589 -0.14979,0.241336 -0.0876,0.557389 0.14248,0.724005 z m -3.8857,-3.046412 c 1.25956,1.05985 2.55238,2.080789 3.88567,3.046412 v 0 c 0.24222,0.175366 0.58071,0.12125 0.75611,-0.120932 0.1754,-0.242217 0.12125,-0.580707 -0.12094,-0.756109 -0.0104,-0.0076 -0.0211,-0.01475 -0.0321,-0.02155 -1.3704,-0.850336 -2.67363,-1.806857 -3.91625,-2.834182 v 0 c -0.19022,-0.157233 -0.47192,-0.130527 -0.62918,0.05969 -0.15628,0.189054 -0.13099,0.468736 0.0567,0.626675 z m -3.24598,-2.845365 c 1.05293,0.980652 2.1452,1.919147 3.24601,2.845365 v 0 c 0.18884,0.158891 0.47075,0.13462 0.62964,-0.05422 0.15889,-0.188842 0.13462,-0.470747 -0.0542,-0.629638 -0.001,-7.05e-4 -0.002,-0.0018 -0.003,-0.0025 -1.09859,-0.908191 -2.19015,-1.826331 -3.24948,-2.780277 v 0 c -0.17289,-0.155716 -0.43924,-0.141746 -0.59495,0.03111 -0.15385,0.17085 -0.14228,0.433493 0.026,0.590162 z m -2.21777,-1.988608 c 0.756,0.64382 1.49115,1.311945 2.21777,1.988608 v 0 c 0.17025,0.158574 0.43681,0.149084 0.59535,-0.02117 0.15857,-0.170251 0.14908,-0.43681 -0.0212,-0.595348 -0.002,-0.0018 -0.004,-0.0032 -0.005,-0.0048 -0.71924,-0.647664 -1.41107,-1.339038 -1.9945,-2.113562 v 0 c -0.18192,-0.241511 -0.52518,-0.289807 -0.76669,-0.107879 -0.24151,0.181927 -0.2898,0.52518 -0.10791,0.766692 0.0242,0.03207 0.0518,0.06138 0.0823,0.08742 z m -1.97729,-3.735811 c 0.23749,0.772901 0.51559,1.539628 0.88854,2.258484 0.28043,0.540596 0.62082,1.078829 1.08875,1.477327 v 0 c 0.23022,0.196039 0.57573,0.168346 0.7718,-0.06184 0.1662,-0.195192 0.17473,-0.479601 0.0205,-0.684389 -0.31757,-0.421604 -0.61122,-0.861412 -0.89916,-1.303619 -0.42301,-0.64957 -0.83075,-1.309159 -1.23267,-1.971958 v 0 c -0.10083,-0.166299 -0.31736,-0.219392 -0.48366,-0.118533 -0.13797,0.08364 -0.20144,0.250296 -0.15406,0.40453 z" />
    <path
       inkscape:connector-curvature="0"
       id="path2046"
       style="fill:#d34f21;fill-opacity:1;fill-rule:nonzero;stroke:none;stroke-width:0.35277778"
       d="m 177.65312,68.331146 c 0.0295,-0.05909 0.002,-0.0086 -0.005,-3.53e-4 0.01,-0.01087 0.0208,-0.02029 0.032,-0.02946 0.0671,-0.05521 0.14401,-0.09906 0.22049,-0.139665 v 0 c 0.24419,-0.12961 0.33708,-0.432647 0.20747,-0.676839 -0.11356,-0.213995 -0.36407,-0.315913 -0.59478,-0.242076 -0.25496,0.08163 -0.52388,0.168663 -0.74546,0.323356 v 0 c -0.27344,0.190888 -0.34032,0.567302 -0.14944,0.84074 0.19093,0.273438 0.56734,0.340324 0.84074,0.149436 0.0826,-0.05764 0.14941,-0.135008 0.19446,-0.225072 z m 0.0539,-0.07945 c -0.0353,-0.149401 -0.0166,-0.06121 -0.0182,-0.02635 -7e-4,0.01207 -0.002,0.02452 -0.006,0.03598 v 0 c 0.11056,-0.314643 -0.0549,-0.659307 -0.36947,-0.769867 -0.18333,-0.06442 -0.3865,-0.03669 -0.54581,0.07458 -0.23982,0.167393 -0.40711,0.419876 -0.46574,0.70672 v 0 c -0.0796,0.389396 0.17156,0.769549 0.56092,0.849136 0.38936,0.07955 0.76955,-0.171556 0.84913,-0.560952 0.0209,-0.1022 0.0193,-0.207716 -0.005,-0.309245 z m -0.73911,1.146528 v 0 c 0.43177,0.113136 0.87351,-0.145133 0.98665,-0.576898 0.10396,-0.396628 -0.10559,-0.808249 -0.48747,-0.95758 l 3.2e-4,3.53e-4 c -0.30526,-0.254459 -0.75904,-0.213289 -1.0135,0.09197 -0.0762,0.09133 -0.12848,0.200131 -0.15229,0.316654 -0.0375,0.183656 -0.033,0.375214 0.031,0.552696 0.10237,0.283775 0.3448,0.496641 0.63528,0.57277 z m 0,0 c 0.34322,0.08996 0.70002,-0.0085 1.01784,-0.141852 v 0 c 0.44615,-0.187219 0.65606,-0.700652 0.46884,-1.14681 -0.18722,-0.446158 -0.70065,-0.656096 -1.14685,-0.468877 -0.0494,0.02071 -0.0967,0.04593 -0.1415,0.07528 -0.0445,0.02925 -0.0895,0.05771 -0.13568,0.08435 -0.015,0.0086 -0.0301,0.01707 -0.0454,0.02512 -0.0351,0.01838 -0.0628,0.0212 -0.10611,0.0381 v 3.5e-5 c -0.41582,0.162207 -0.62139,0.630802 -0.45914,1.046621 0.094,0.241018 0.29774,0.422416 0.548,0.488033 z m 1.01784,-0.141852 c 0.4053,-0.170074 0.76443,-0.446088 1.09974,-0.725523 v 0 c 0.39497,-0.329177 0.44828,-0.916199 0.11914,-1.311169 -0.32918,-0.39497 -0.9162,-0.448275 -1.31117,-0.119133 -0.0147,0.01224 -0.029,0.02494 -0.0429,0.03807 -0.2153,0.203129 -0.43582,0.414372 -0.68435,0.577391 v -3.5e-5 c -0.40457,0.265394 -0.51739,0.808496 -0.25203,1.213097 0.23164,0.353095 0.68217,0.490713 1.07157,0.327307 z m 1.09971,-0.725523 c 0.47695,-0.397475 0.92456,-0.830157 1.36334,-1.268906 v -3.6e-5 c 0.37892,-0.378918 0.37892,-0.993281 0,-1.372199 -0.37895,-0.378954 -0.99331,-0.378919 -1.37223,0 -0.008,0.0076 -0.015,0.01528 -0.0224,0.02311 -0.39112,0.417971 -0.78715,0.832802 -1.20364,1.225761 v 0 c -0.37394,0.352884 -0.39105,0.942058 -0.0382,1.316038 0.33757,0.357752 0.89524,0.39116 1.2731,0.07623 z m 1.36334,-1.268906 c 0.61486,-0.614892 1.20403,-1.25536 1.7822,-1.904647 v 0 c 0.36298,-0.407635 0.32678,-1.032334 -0.0808,-1.395307 -0.40763,-0.363008 -1.03233,-0.326813 -1.39531,0.08082 -0.56035,0.629215 -1.12497,1.254796 -1.70067,1.87004 v 0 c -0.36618,0.391266 -0.34579,1.005311 0.0455,1.371459 0.38213,0.357611 0.97903,0.347698 1.34909,-0.0224 z m 1.7822,-1.904647 c 0.70432,-0.790928 1.39284,-1.595861 2.07038,-2.409825 v 0 c 0.3434,-0.412539 0.28738,-1.025384 -0.1252,-1.368813 -0.40685,-0.338702 -1.00996,-0.289455 -1.35653,0.110736 -0.68319,0.788917 -1.37076,1.574024 -2.06478,2.353416 v 0 c -0.363,0.4076 -0.32681,1.032334 0.0808,1.395307 0.4076,0.362973 1.03229,0.326778 1.3953,-0.08082 z m 2.07038,-2.409825 c 0.75343,-0.905087 1.49938,-1.816383 2.23968,-2.732229 v 0 c 0.31359,-0.38795 0.25333,-0.956698 -0.13465,-1.270282 -0.37246,-0.301096 -0.91521,-0.25908 -1.23695,0.09571 -0.79283,0.874325 -1.57716,1.756481 -2.34981,2.648726 v 0 c -0.3514,0.405765 -0.30734,1.019599 0.0985,1.371001 0.40576,0.351402 1.0196,0.30734 1.371,-0.09846 0.004,-0.0048 0.008,-0.0096 0.0123,-0.01446 z m 2.23968,-2.732229 c 0.83122,-1.028347 1.65326,-2.064032 2.46917,-3.104515 v 0 c 0.26426,-0.337009 0.20531,-0.824442 -0.13169,-1.088707 -0.32012,-0.251002 -0.77978,-0.21202 -1.05301,0.08936 -0.88533,0.976489 -1.77066,1.952872 -2.65607,2.92929 v 0 c -0.3351,0.369535 -0.30716,0.940788 0.0624,1.275892 0.36957,0.335103 0.94078,0.307163 1.27589,-0.06237 0.0115,-0.01266 0.0226,-0.02565 0.0333,-0.03895 z m 2.46917,-3.104515 c 0.86949,-1.108816 1.76505,-2.1971 2.68442,-3.264888 v 0 c 0.23852,-0.277001 0.20733,-0.694901 -0.0697,-0.933379 -0.27009,-0.232551 -0.67582,-0.209479 -0.91779,0.05218 -0.96565,1.044187 -1.92634,2.093066 -2.88166,3.146742 v 0 c -0.28766,0.317253 -0.26363,0.80765 0.0537,1.09534 0.31725,0.287655 0.80765,0.263631 1.0953,-0.05366 0.0124,-0.01369 0.0243,-0.0278 0.0357,-0.04233 z m 2.68442,-3.264888 c 0.92608,-1.075513 1.86877,-2.136845 2.82801,-3.182902 v 0 c 0.2176,-0.237349 0.20165,-0.606107 -0.0357,-0.823736 -0.23089,-0.211737 -0.58787,-0.203129 -0.80832,0.01951 -1.0081,1.018258 -1.99863,2.053907 -2.97148,3.105926 h 3e-5 c -0.24818,0.268393 -0.23181,0.687105 0.0365,0.935284 0.26839,0.248179 0.68714,0.23181 0.93529,-0.03655 0.005,-0.0057 0.0105,-0.01161 0.0156,-0.01753 z m 2.82801,-3.182902 c 0.98979,-1.079429 1.99972,-2.140302 3.02549,-3.185583 v 0 c 0.20899,-0.212937 0.20574,-0.55499 -0.007,-0.76394 -0.21273,-0.208739 -0.55425,-0.205811 -0.76334,0.0065 -1.0316,1.047609 -2.06453,2.093948 -3.09898,3.13877 v 0 c -0.22652,0.228811 -0.22468,0.597958 0.004,0.824512 0.22881,0.226519 0.59796,0.224684 0.82448,-0.0041 0.005,-0.0053 0.0104,-0.01069 0.0154,-0.01616 z m 3.02549,-3.185583 c 0.98933,-1.008168 1.9829,-2.01235 2.98299,-3.0099 v 0 c 0.20355,-0.203059 0.20397,-0.532659 0.001,-0.736247 -0.20049,-0.200978 -0.52504,-0.204329 -0.72958,-0.0075 -1.02267,0.984038 -2.02908,1.98501 -3.02486,2.996212 v 0 c -0.20938,0.212584 -0.20673,0.554602 0.006,0.763976 0.21259,0.209338 0.55464,0.206727 0.76398,-0.0059 2.1e-4,-2.47e-4 3.5e-4,-3.53e-4 7.1e-4,-7.06e-4 z m 2.98299,-3.0099 c 1.24312,-1.239943 2.52645,-2.439811 3.81367,-3.633646 v 0 c 0.26017,-0.241265 0.27548,-0.647771 0.0342,-0.907944 -0.24126,-0.260139 -0.64777,-0.275449 -0.90791,-0.03415 -0.0132,0.01221 -0.0258,0.02494 -0.0379,0.03821 -1.17873,1.292859 -2.36953,2.580287 -3.63068,3.793807 v 0 c -0.20719,0.199355 -0.21354,0.52892 -0.0142,0.736106 0.19939,0.207186 0.52895,0.213536 0.73614,0.01418 0.002,-0.0021 0.004,-0.0043 0.007,-0.0066 z m 3.81367,-3.633646 c 1.33949,-1.242307 2.6743,-2.490259 3.98494,-3.763081 v 0 c 0.34784,-0.33782 0.35595,-0.893656 0.0181,-1.241495 -0.33782,-0.347839 -0.89366,-0.355988 -1.24149,-0.01817 -0.0189,0.01834 -0.0369,0.0375 -0.054,0.05743 -1.18219,1.374987 -2.39755,2.721504 -3.61915,4.061425 v 0 c -0.23907,0.262184 -0.22031,0.668549 0.0419,0.907591 0.24681,0.225037 0.62484,0.223414 0.86971,-0.0037 z m 3.98494,-3.763081 c 0.45194,-0.438926 0.90018,-0.881768 1.33876,-1.334064 0.31887,-0.328895 0.63411,-0.662199 0.93214,-1.010215 v 0 c 0.35384,-0.413138 0.30572,-1.034873 -0.10742,-1.388674 -0.41314,-0.353836 -1.03487,-0.305752 -1.38868,0.107386 -0.004,0.0052 -0.009,0.01048 -0.0132,0.01577 -0.66718,0.812835 -1.35344,1.610254 -2.03899,2.407567 v 0 c -0.31612,0.367665 -0.27435,0.921985 0.0933,1.238109 0.34452,0.296227 0.85813,0.28067 1.1841,-0.03588 z m 2.2709,-2.344279 c 0.18496,-0.21597 0.36943,-0.432399 0.55076,-0.651439 0.10742,-0.129752 0.2165,-0.259433 0.31358,-0.397263 v 0 c 0.3212,-0.456036 0.21191,-1.086097 -0.24412,-1.407266 -0.456,-0.321204 -1.08606,-0.211913 -1.40727,0.244122 -0.0244,0.03468 -0.0467,0.07091 -0.0666,0.108409 0.0203,-0.03824 -0.0222,0.0309 -0.0275,0.03845 -0.0412,0.05888 -0.0845,0.116381 -0.1281,0.173496 -0.16199,0.212337 -0.33066,0.419558 -0.50009,0.625969 v 0 c -0.34513,0.42044 -0.28403,1.041047 0.13641,1.386169 0.41424,0.340008 1.02433,0.286421 1.37291,-0.12065 z m 0.12922,-0.624416 v 0 c 0.29545,-0.0266 0.56427,-0.181751 0.73512,-0.424286 0.0421,-0.05973 0.081,-0.121744 0.11384,-0.187078 0.13236,-0.263172 0.15508,-0.573264 0.0498,-0.851006 v 0 c -0.0231,-0.06103 -0.0521,-0.119733 -0.0864,-0.17526 l 1.8e-4,-1.06e-4 c -0.035,-0.05694 -0.0756,-0.110349 -0.12108,-0.159385 -0.21022,-0.226836 -0.51389,-0.348615 -0.82162,-0.334327 -0.11183,0.0052 -0.22228,0.02787 -0.32797,0.06452 -0.10693,0.03711 -0.20828,0.08805 -0.3059,0.144956 v 0 c -0.49932,0.291042 -0.66819,0.931757 -0.37715,1.431078 0.23128,0.396805 0.69426,0.596407 1.14155,0.492196 l -3.5e-4,-0.0014 z m -0.12058,0.303953 c 0.16888,-0.173814 0.34072,-0.349673 0.53139,-0.499992 v 0 c 0.45389,-0.357787 0.53178,-1.015788 0.17396,-1.469672 -0.3229,-0.40961 -0.8981,-0.518901 -1.34874,-0.256293 -0.32399,0.188842 -0.60978,0.440796 -0.87838,0.70044 v 0 c -0.42785,0.413597 -0.43939,1.095763 -0.0258,1.523612 0.41363,0.427849 1.09576,0.43942 1.52361,0.02579 0.008,-0.0078 0.0161,-0.0158 0.024,-0.02388 z m -1.36369,0.517208 v 0 c 0.0127,0.0044 0.0256,0.0085 0.0385,0.01228 0.30269,0.08809 0.61874,-0.01298 0.87902,-0.169686 0.16415,-0.09881 0.31284,-0.222532 0.44616,-0.359763 v 0 c 0.41469,-0.426825 0.40485,-1.108992 -0.022,-1.523682 -0.41737,-0.405518 -1.08133,-0.40633 -1.49973,-0.0018 -0.25841,0.249767 -0.4348,0.587128 -0.46443,0.947667 -0.0162,0.196039 0.0118,0.396628 0.0899,0.577744 0.1009,0.234068 0.28734,0.432435 0.53256,0.517313 z" />
    <g
       transform="matrix(0.33560458,0,0,0.19242426,97.186941,31.818047)"
       id="g2048" />
  </g>
</svg>
