<?xml version="1.0" encoding="UTF-8" standalone="no"?>
<!-- Created with Inkscape (http://www.inkscape.org/) -->

<svg
   xmlns:dc="http://purl.org/dc/elements/1.1/"
   xmlns:cc="http://creativecommons.org/ns#"
   xmlns:rdf="http://www.w3.org/1999/02/22-rdf-syntax-ns#"
   xmlns:svg="http://www.w3.org/2000/svg"
   xmlns="http://www.w3.org/2000/svg"
   xmlns:sodipodi="http://sodipodi.sourceforge.net/DTD/sodipodi-0.dtd"
   xmlns:inkscape="http://www.inkscape.org/namespaces/inkscape"
   width="25.582527mm"
   height="41.120651mm"
   viewBox="0 0 25.582527 41.120651"
   version="1.1"
   id="svg1481"
   inkscape:version="0.92.3 (2405546, 2018-03-11)"
   sodipodi:docname="sq_red_circle.svg">
  <defs
     id="defs1475" />
  <sodipodi:namedview
     id="base"
     pagecolor="#ffffff"
     bordercolor="#666666"
     borderopacity="1.0"
     inkscape:pageopacity="0.0"
     inkscape:pageshadow="2"
     inkscape:zoom="0.35"
     inkscape:cx="-663.08369"
     inkscape:cy="280.56538"
     inkscape:document-units="mm"
     inkscape:current-layer="layer1"
     showgrid="false"
     fit-margin-top="0"
     fit-margin-left="0"
     fit-margin-right="0"
     fit-margin-bottom="0"
     inkscape:window-width="1920"
     inkscape:window-height="1025"
     inkscape:window-x="0"
     inkscape:window-y="27"
     inkscape:window-maximized="1" />
  <metadata
     id="metadata1478">
    <rdf:RDF>
      <cc:Work
         rdf:about="">
        <dc:format>image/svg+xml</dc:format>
        <dc:type
           rdf:resource="http://purl.org/dc/dcmitype/StillImage" />
        <dc:title></dc:title>
      </cc:Work>
    </rdf:RDF>
  </metadata>
  <g
     inkscape:label="Layer 1"
     inkscape:groupmode="layer"
     id="layer1"
     transform="translate(-161.83375,-181.94561)">
    <path
       d="m 180.94478,191.98838 c 0.18877,0.0876 0.39402,0.14235 0.59418,0.19678 0.33232,0.0904 0.66809,0.16782 1.00422,0.2425 v 0 c 0.10453,0.0232 0.20807,-0.0427 0.23128,-0.14722 0.0201,-0.0906 -0.0268,-0.1827 -0.11183,-0.21974 -0.31002,-0.13504 -0.61955,-0.27153 -0.92587,-0.41483 -0.16326,-0.0763 -0.3291,-0.15177 -0.48457,-0.24335 v 0 c -0.15762,-0.0928 -0.36065,-0.0403 -0.45346,0.1173 -0.0928,0.15762 -0.0403,0.36064 0.1173,0.45346 0.009,0.006 0.0189,0.0106 0.0288,0.0151 z m -0.7233,-0.41959 c 0.22997,0.15769 0.47011,0.30219 0.7233,0.41959 v 0 c 0.16594,0.0769 0.36283,0.005 0.43981,-0.16115 0.0717,-0.15455 0.0144,-0.33824 -0.1324,-0.42471 -0.21403,-0.12608 -0.4196,-0.26627 -0.6199,-0.41307 v 0 c -0.15819,-0.11595 -0.38044,-0.0817 -0.49636,0.0765 -0.11596,0.15819 -0.0817,0.3804 0.0765,0.49636 0.003,0.002 0.006,0.004 0.009,0.006 z m -0.75152,-0.61087 c 0.23523,0.22143 0.48499,0.42806 0.75152,0.61087 v 0 c 0.16178,0.11091 0.38283,0.0697 0.49375,-0.092 0.10847,-0.15819 0.0718,-0.37391 -0.0829,-0.4873 -0.21763,-0.15952 -0.40753,-0.35478 -0.5727,-0.56758 v 0 c -0.13533,-0.17434 -0.3864,-0.20599 -0.56074,-0.0707 -0.17438,0.13536 -0.20599,0.3864 -0.0707,0.56077 0.0127,0.0164 0.0267,0.0317 0.0418,0.0459 z m -0.57027,-0.60029 c 0.17074,0.21675 0.36971,0.41151 0.57027,0.60029 v 0 c 0.16072,0.1513 0.41363,0.14365 0.56493,-0.0171 0.13491,-0.1433 0.14538,-0.3635 0.0247,-0.51897 -0.14001,-0.18037 -0.28102,-0.36586 -0.38882,-0.56794 v 0 c -0.12016,-0.22524 -0.4002,-0.31044 -0.62548,-0.19028 -0.22528,0.12015 -0.31048,0.40022 -0.19032,0.62547 0.0129,0.0241 0.0278,0.047 0.0447,0.0685 z m -0.46898,-0.81848 c 0.1331,0.28261 0.27474,0.57185 0.46898,0.81844 v 0 c 0.15801,0.20059 0.44866,0.23513 0.64925,0.0771 0.17586,-0.13854 0.22719,-0.38319 0.12182,-0.58074 -0.12005,-0.22511 -0.20747,-0.4693 -0.29443,-0.70849 v 0 c -0.0968,-0.26606 -0.39092,-0.40333 -0.65702,-0.30659 -0.2661,0.0968 -0.40336,0.39094 -0.30659,0.65701 0.005,0.0147 0.0113,0.0291 0.018,0.0433 z m -0.44182,-1.2035 c 0.11574,0.41169 0.2595,0.81636 0.44182,1.20346 v 0 c 0.12061,0.25616 0.42605,0.36605 0.68223,0.24543 0.23975,-0.11292 0.35395,-0.38996 0.26339,-0.63906 -0.12714,-0.34956 -0.22278,-0.71014 -0.29739,-1.07438 v 0 c -0.0622,-0.30364 -0.35878,-0.49936 -0.66241,-0.43716 -0.30368,0.0622 -0.4994,0.35877 -0.4372,0.66241 0.003,0.0132 0.006,0.0263 0.01,0.0393 z m -0.24317,-1.38783 c 0.0356,0.46909 0.11578,0.9349 0.24317,1.38783 v 0 c 0.0839,0.29838 0.3938,0.47226 0.69218,0.38834 0.28328,-0.0797 0.45692,-0.3646 0.39787,-0.65289 -0.0819,-0.39973 -0.13716,-0.80483 -0.16803,-1.21165 v 0 c -0.0244,-0.32177 -0.30501,-0.56282 -0.62678,-0.53841 -0.32174,0.0244 -0.56279,0.30501 -0.53841,0.62678 0,0 0,0 0,0 z m 0,0 v 0 c 0.0244,0.32173 0.30501,0.56279 0.62678,0.53841 0.32177,-0.0244 0.56282,-0.30501 0.53841,-0.62678 -0.0297,-0.39232 -0.0477,-0.78585 -0.0463,-1.17934 v 0 c 0.001,-0.32194 -0.25898,-0.58381 -0.58092,-0.58494 -0.32085,-0.001 -0.5823,0.25728 -0.58491,0.57817 -0.004,0.42524 0.0148,0.85051 0.0469,1.27448 z m 1.1189,-1.26771 c 0.001,-0.30088 0.0463,-0.60159 0.14401,-0.88653 v 0 c 0.104,-0.30324 -0.0575,-0.63337 -0.36079,-0.73737 -0.30236,-0.10365 -0.63165,0.0566 -0.7366,0.35856 -0.14047,0.40421 -0.20895,0.831 -0.21244,1.25857 v 0 c -0.002,0.32191 0.25619,0.58501 0.57813,0.58766 0.32191,0.003 0.58505,-0.25619 0.58766,-0.57814 3e-5,-0.001 3e-5,-0.002 3e-5,-0.003 z m 0.14404,-0.88656 c 0.0944,-0.27531 0.21199,-0.54381 0.36315,-0.79294 v 0 c 0.16348,-0.26949 0.0775,-0.62047 -0.19191,-0.78394 -0.26247,-0.15925 -0.60385,-0.0823 -0.77269,0.17406 -0.20923,0.31778 -0.37119,0.66505 -0.49597,1.02404 v 0 c -0.10523,0.30282 0.055,0.63359 0.35779,0.73882 0.30279,0.10524 0.63359,-0.0549 0.73882,-0.35775 2.9e-4,-7.1e-4 3.5e-4,-0.001 7.2e-4,-0.002 z m 0.36315,-0.79294 c 0.14013,-0.231 0.34442,-0.41843 0.56187,-0.57542 v 0 c 0.25107,-0.18129 0.30766,-0.53174 0.1264,-0.78281 -0.18069,-0.25023 -0.52959,-0.30741 -0.78066,-0.12792 -0.33662,0.24063 -0.64371,0.52931 -0.87217,0.87623 v 0 c -0.17336,0.26324 -0.10047,0.61719 0.16273,0.79054 0.26325,0.17332 0.61719,0.10047 0.79054,-0.16277 0.004,-0.006 0.008,-0.0119 0.0113,-0.0179 z m 0.56187,-0.57542 c 0.20613,-0.14883 0.43011,-0.29598 0.67568,-0.37048 v 0 c 0.2825,-0.0857 0.44203,-0.38414 0.35634,-0.66665 -0.078,-0.25717 -0.33486,-0.41642 -0.59994,-0.37197 -0.39719,0.0666 -0.76221,0.26667 -1.08634,0.49837 v 0 c -0.25192,0.1801 -0.31016,0.53026 -0.13007,0.78218 0.18009,0.25192 0.53026,0.31016 0.78218,0.13007 7.1e-4,-3.5e-4 0.001,-0.001 0.002,-0.001 z m 0.67568,-0.37048 c 0.22235,-0.0675 0.45459,-0.0993 0.68636,-0.10873 v 0 c 0.27612,-0.0112 0.49082,-0.24423 0.47957,-0.52038 -0.0109,-0.26801 -0.23125,-0.47971 -0.49947,-0.47999 -0.30451,-3.2e-4 -0.60956,0.0201 -0.91006,0.0705 v 0 c -0.29111,0.0488 -0.48754,0.32442 -0.43868,0.61556 0.0488,0.29112 0.32442,0.48754 0.61553,0.43872 0.0226,-0.004 0.0449,-0.009 0.0668,-0.0157 z m 0.68636,-0.10873 c 0.26988,-0.011 0.54046,0.0119 0.80592,0.0606 v 0 c 0.25721,0.0472 0.50402,-0.12308 0.55118,-0.38029 0.0448,-0.24398 -0.10633,-0.48116 -0.34636,-0.54367 -0.33626,-0.0876 -0.68294,-0.13663 -1.03067,-0.13698 v 0 c -0.27633,-2.8e-4 -0.50059,0.22355 -0.50087,0.49988 -3e-4,0.27637 0.22355,0.50063 0.49988,0.50091 0.007,0 0.014,-1.4e-4 0.0209,-3.5e-4 z m 0.80592,0.0606 c 0.23481,0.0431 0.47124,0.0966 0.69318,0.1862 v 0 c 0.22627,0.0914 0.48372,-0.018 0.57509,-0.24423 0.0859,-0.21287 -0.005,-0.45611 -0.21032,-0.55968 -0.27009,-0.13656 -0.56095,-0.23015 -0.85313,-0.30625 v -3e-5 c -0.25308,-0.0659 -0.5117,0.0858 -0.5776,0.33887 -0.0659,0.25309 0.0858,0.51167 0.33884,0.57761 0.0112,0.003 0.0225,0.005 0.0339,0.008 z m 0.69321,0.1862 c 0.26282,0.10615 0.50514,0.27005 0.73808,0.42901 v 0 c 0.19265,0.13148 0.4554,0.0819 0.58688,-0.11077 0.12986,-0.19029 0.0833,-0.44951 -0.10474,-0.58268 -0.27439,-0.19431 -0.55485,-0.3875 -0.85552,-0.53951 v 0 c -0.21773,-0.11006 -0.48352,-0.0228 -0.59358,0.19498 -0.1101,0.21774 -0.0228,0.48352 0.19494,0.59359 0.0111,0.006 0.0224,0.0108 0.0339,0.0154 z m 0.73808,0.42901 c 0.34858,0.23788 0.67053,0.51357 0.97265,0.80772 v 0 c 0.16298,0.15868 0.42375,0.15519 0.58243,-0.008 0.15709,-0.16136 0.15547,-0.41903 -0.004,-0.57837 -0.33168,-0.33211 -0.68591,-0.64351 -1.06927,-0.915 v 0 c -0.19033,-0.1348 -0.45389,-0.0898 -0.58868,0.10057 -0.1348,0.19033 -0.0898,0.45389 0.10054,0.58868 0.002,0.001 0.004,0.003 0.006,0.004 z m 0.97265,0.80772 c 0.26031,0.25344 0.52066,0.51153 0.74958,0.79428 v 0 c 0.13949,0.17226 0.39222,0.19886 0.56451,0.0594 0.16912,-0.13691 0.19833,-0.38364 0.0659,-0.55626 -0.24193,-0.31531 -0.52077,-0.60275 -0.80123,-0.88357 v 0 c -0.16072,-0.16093 -0.42153,-0.16111 -0.58247,-3.5e-4 -0.16093,0.16073 -0.16111,0.42154 -3.4e-4,0.58247 0.001,0.001 0.003,0.003 0.004,0.004 z m 0.74958,0.79428 c 0.22881,0.28261 0.41211,0.60424 0.58896,0.92075 v 0 c 0.10583,0.18944 0.34523,0.25721 0.53467,0.15134 0.18838,-0.10523 0.25661,-0.34269 0.15289,-0.53192 -0.19526,-0.35613 -0.39839,-0.71416 -0.64614,-1.03706 v 0 c -0.13494,-0.17586 -0.38689,-0.20905 -0.56275,-0.0741 -0.17586,0.13494 -0.20906,0.38693 -0.0741,0.56279 0.002,0.003 0.004,0.005 0.006,0.008 z m 0.58896,0.92075 c 0.22708,0.4064 0.41264,0.8358 0.55023,1.28058 v 0 c 0.0622,0.20116 0.27569,0.31376 0.47685,0.25157 0.1978,-0.0612 0.31058,-0.26903 0.2541,-0.46824 -0.14238,-0.50204 -0.34279,-0.98697 -0.59362,-1.44449 v 0 c -0.10431,-0.19029 -0.34318,-0.25996 -0.53347,-0.15564 -0.19028,0.10435 -0.25996,0.34318 -0.15564,0.53347 7.1e-4,0.001 0.001,0.002 0.001,0.003 z m 0.55023,1.28058 c 0.13229,0.42778 0.22355,0.86858 0.26313,1.31481 v 0 c 0.0179,0.20189 0.19611,0.35108 0.39804,0.33316 0.19968,-0.0177 0.3482,-0.1923 0.33366,-0.39222 -0.0363,-0.49833 -0.1276,-0.9919 -0.26388,-1.47242 v 0 c -0.0574,-0.20253 -0.26821,-0.32018 -0.47078,-0.26275 -0.20256,0.0575 -0.32018,0.26822 -0.26275,0.47078 7.2e-4,0.003 0.002,0.006 0.002,0.009 z m 0.26313,1.31481 c 0.0363,0.40911 0.0565,0.82024 0.0483,1.23101 v 0 c -0.004,0.18983 0.14708,0.34682 0.33691,0.35056 0.18171,0.004 0.33482,-0.1348 0.34953,-0.31591 0.0358,-0.44059 0.029,-0.88413 -0.003,-1.32472 v 0 c -0.0147,-0.20218 -0.19051,-0.35415 -0.39269,-0.33944 -0.20217,0.0147 -0.35415,0.1905 -0.33944,0.39268 1.4e-4,0.002 2.9e-4,0.004 3.4e-4,0.006 z m 0.44394,2.50193 c 0.15565,-0.39557 0.2564,-0.81234 0.29083,-1.23627 v 0 c 0.0154,-0.18927 -0.12562,-0.35514 -0.31489,-0.37049 -0.18923,-0.0154 -0.35514,0.12559 -0.37049,0.31485 -7.1e-4,0.007 -0.001,0.014 -0.001,0.021 -0.007,0.35529 -0.0797,0.7069 -0.20545,1.0389 v 0 c -0.063,0.1664 0.0208,0.35235 0.18721,0.41536 0.16486,0.0624 0.34929,-0.0193 0.41385,-0.18334 z m -0.56092,1.14921 c 0.21608,-0.36795 0.40468,-0.75209 0.56092,-1.14921 v 0 c 0.0652,-0.16556 -0.0163,-0.3526 -0.18182,-0.41772 -0.16556,-0.0652 -0.3526,0.0163 -0.41773,0.18182 -3.4e-4,0.001 -0.001,0.002 -0.001,0.004 -0.13222,0.34921 -0.3236,0.67447 -0.55992,0.96337 v 0 c -0.1282,0.15677 -0.1051,0.3878 0.0517,0.51604 0.15677,0.1282 0.3878,0.10509 0.51604,-0.0517 0.012,-0.0146 0.0228,-0.0302 0.0323,-0.0465 z m -0.82606,1.09926 c 0.31355,-0.3355 0.59344,-0.70309 0.82606,-1.09926 v 0 c 0.10256,-0.17466 0.0441,-0.39934 -0.13052,-0.5019 -0.15586,-0.0915 -0.35511,-0.0558 -0.46955,0.084 -0.26183,0.32014 -0.54444,0.62311 -0.84229,0.90999 v 0 c -0.17216,0.16577 -0.17731,0.4397 -0.0115,0.61185 0.1658,0.17212 0.43973,0.17727 0.61185,0.0115 0.005,-0.005 0.0108,-0.0107 0.016,-0.0162 z m -0.99653,0.97345 c 0.34625,-0.30963 0.67938,-0.63405 0.99653,-0.97345 v 0 c 0.16319,-0.17463 0.15392,-0.44846 -0.0207,-0.61162 -0.16813,-0.15712 -0.42986,-0.15515 -0.5956,0.005 -0.29968,0.28861 -0.63313,0.54141 -0.98922,0.75632 v 0 c -0.24335,0.1469 -0.32156,0.4632 -0.17466,0.70655 0.14686,0.24334 0.4632,0.32155 0.70654,0.17469 0.0274,-0.0165 0.0532,-0.0356 0.0771,-0.057 z m -1.23334,0.86565 c 0.44309,-0.23919 0.85799,-0.53002 1.23334,-0.86565 v 0 c 0.21188,-0.18948 0.23005,-0.51481 0.0406,-0.72669 -0.16492,-0.18443 -0.43772,-0.22542 -0.64957,-0.0976 -0.36981,0.22324 -0.75565,0.41974 -1.15344,0.58815 v 0 c -0.31115,0.1317 -0.45663,0.49072 -0.32494,0.8019 0.13172,0.31115 0.49075,0.45664 0.8019,0.32491 0.0178,-0.008 0.0352,-0.0159 0.0521,-0.0251 z m -1.42082,0.55816 c 0.49403,-0.12777 0.97184,-0.31577 1.42085,-0.55816 v 0 c 0.29732,-0.16052 0.40824,-0.53167 0.24772,-0.829 -0.14989,-0.27763 -0.4863,-0.39578 -0.77685,-0.27276 -0.37461,0.15857 -0.76775,0.27231 -1.16932,0.33746 v -3e-5 c -0.36876,0.0598 -0.61916,0.40721 -0.55936,0.77593 0.0598,0.36873 0.40721,0.61916 0.77593,0.55937 0.0205,-0.003 0.0409,-0.008 0.061,-0.0128 z m -1.4696,0.22832 c 0.49604,-0.0257 0.98884,-0.104 1.4696,-0.22832 v 0 c 0.36167,-0.0935 0.57902,-0.46253 0.4855,-0.82416 -0.0875,-0.33828 -0.41822,-0.55425 -0.7631,-0.49833 -0.40414,0.0656 -0.81361,0.0989 -1.22308,0.0952 v 0 c -0.40223,-0.004 -0.73124,0.31951 -0.73487,0.72171 -0.004,0.40224 0.31948,0.73124 0.72171,0.73487 0.0147,1.4e-4 0.0295,-1.7e-4 0.0442,-0.001 z m -1.62609,-0.33517 c 0.50398,0.24874 1.06486,0.36424 1.62609,0.33517 v 0 c 0.40171,-0.0208 0.71046,-0.36333 0.68968,-0.765 -0.0199,-0.38456 -0.33574,-0.68714 -0.72076,-0.69063 -0.32392,-0.003 -0.64202,-0.0785 -0.9325,-0.22186 v 0 c -0.37069,-0.18295 -0.81946,-0.0308 -1.00241,0.3399 -0.18295,0.3707 -0.0308,0.8195 0.3399,1.00242 z m -1.3117,-1.05164 c 0.36244,0.43318 0.80398,0.80106 1.31173,1.05164 v 0 c 0.37067,0.18295 0.81947,0.0308 1.00239,-0.33991 0.18295,-0.37069 0.0308,-0.81946 -0.33991,-1.00241 0,0 0,0 0,0 -0.33513,-0.16542 -0.63016,-0.40185 -0.8849,-0.67381 v 0 c -0.27478,-0.29333 -0.73533,-0.3084 -1.02867,-0.0336 -0.28176,0.26395 -0.3084,0.70199 -0.0606,0.99811 z m -0.77766,-1.19503 c 0.18884,0.43766 0.47321,0.83114 0.77766,1.19503 v 0 c 0.25795,0.30826 0.71691,0.34908 1.02517,0.0912 0.30826,-0.25791 0.34904,-0.71691 0.0911,-1.02517 -0.009,-0.0104 -0.0177,-0.0206 -0.027,-0.0305 -0.25439,-0.27157 -0.50394,-0.55308 -0.7125,-0.86205 v 0 c -0.20419,-0.3025 -0.61493,-0.38219 -0.91744,-0.17801 -0.26335,0.17777 -0.3629,0.51778 -0.23703,0.80952 z m -0.47047,-1.3704 c 0.13625,0.46253 0.27923,0.92713 0.47047,1.3704 v 0 c 0.1446,0.3351 0.53347,0.48955 0.86857,0.34495 0.33507,-0.14457 0.48952,-0.53344 0.34495,-0.86854 -0.0163,-0.0377 -0.036,-0.0739 -0.0591,-0.10795 -0.0909,-0.13459 -0.16472,-0.28078 -0.23301,-0.42782 -0.10252,-0.22066 -0.19117,-0.44778 -0.27351,-0.67662 h -4e-5 c -0.11006,-0.30586 -0.44721,-0.46458 -0.75307,-0.35451 -0.29315,0.10552 -0.45332,0.42122 -0.3653,0.72009 z m 0,0 v 0 c 0.0919,0.31182 0.41907,0.49015 0.73089,0.39829 0.31182,-0.0918 0.49015,-0.41907 0.39828,-0.73089 -0.003,-0.0111 -0.007,-0.0221 -0.0108,-0.033 -0.0564,-0.15667 -0.096,-0.31951 -0.13219,-0.48183 -0.0513,-0.23026 -0.0928,-0.4626 -0.13045,-0.69543 -0.1161,-0.71804 -0.19629,-1.44198 -0.26794,-2.16563 v 0 c -0.0105,-0.10622 -0.10516,-0.18383 -0.21138,-0.17332 -0.0861,0.009 -0.156,0.0732 -0.17124,0.15829 -0.1318,0.73628 -0.24769,1.47902 -0.29581,2.2261 -0.0183,0.28416 -0.0266,0.56988 -0.01,0.85432 0.0126,0.21654 0.0392,0.43452 0.10062,0.64308 z"
       style="fill:#a42604;fill-opacity:1;fill-rule:nonzero;stroke:none;stroke-width:0.35277775"
       id="path871"
       inkscape:connector-curvature="0" />
    <path
       d="m 178.16051,196.87601 c 0.14313,-0.33179 0.29616,-0.65924 0.45435,-0.98407 h 3e-5 c 0.0469,-0.0962 0.007,-0.21227 -0.0894,-0.25915 -0.0767,-0.0374 -0.16877,-0.0202 -0.22683,0.0423 -0.25803,0.27738 -0.50194,0.56934 -0.71628,0.88201 v 0 c -0.10358,0.1511 -0.0651,0.35754 0.086,0.46112 0.15106,0.10357 0.35754,0.0651 0.46111,-0.086 0.0121,-0.0177 0.0225,-0.0365 0.031,-0.0562 z m -0.7808,1.86256 c 0.25816,-0.62166 0.51414,-1.24446 0.7808,-1.86256 v 0 c 0.0726,-0.1682 -0.005,-0.3634 -0.17317,-0.43596 -0.1456,-0.0628 -0.31528,-0.0138 -0.40496,0.11701 -0.14848,0.21661 -0.27559,0.44849 -0.40146,0.67861 -0.20539,0.3756 -0.40093,0.7566 -0.59394,1.13866 v 0 c -0.10872,0.21519 -0.0224,0.47773 0.19276,0.58646 0.2152,0.10869 0.47777,0.0224 0.58646,-0.1928 0.005,-0.01 0.009,-0.0194 0.0135,-0.0294 z m -0.97952,2.24868 c 0.34812,-0.73971 0.66601,-1.49381 0.97952,-2.24868 v 0 c 0.0925,-0.22264 -0.013,-0.47808 -0.23569,-0.57055 -0.21107,-0.0876 -0.45402,0.002 -0.55707,0.20634 -0.36446,0.72154 -0.72986,1.44265 -1.10215,2.16024 v 0 c -0.12989,0.25033 -0.0322,0.55859 0.21812,0.68848 0.25037,0.12989 0.55863,0.0322 0.68852,-0.21812 0.003,-0.006 0.006,-0.0118 0.009,-0.0177 z m -0.86628,1.75009 c 0.29877,-0.57831 0.58907,-1.1611 0.86628,-1.75009 v 0 c 0.12008,-0.2552 0.0106,-0.55944 -0.24462,-0.67956 -0.24821,-0.11684 -0.5444,-0.0166 -0.67077,0.22691 -0.29422,0.56705 -0.59933,1.12843 -0.91151,1.68582 v 0 c -0.14721,0.26285 -0.0535,0.59527 0.20941,0.74252 0.26286,0.14722 0.59528,0.0534 0.74249,-0.20941 0.003,-0.005 0.006,-0.0107 0.009,-0.0162 z m -1.12117,2.02339 c 0.38989,-0.66526 0.76723,-1.33822 1.12117,-2.02339 v 0 c 0.13829,-0.26765 0.0334,-0.59676 -0.23428,-0.73505 -0.2613,-0.135 -0.58261,-0.0385 -0.72634,0.21813 -0.36664,0.65468 -0.75752,1.29571 -1.16106,1.92824 v 0 c -0.17424,0.27309 -0.0941,0.63571 0.17897,0.80995 0.27312,0.17423 0.63574,0.0941 0.80997,-0.179 0.004,-0.006 0.008,-0.0125 0.0116,-0.0189 z m -1.33939,2.2231 c 0.45488,-0.73593 0.90192,-1.47669 1.33939,-2.2231 v 0 c 0.1638,-0.2795 0.07,-0.63884 -0.20947,-0.80264 -0.27203,-0.15945 -0.62146,-0.0753 -0.79104,0.19057 -0.46185,0.72383 -0.92713,1.44548 -1.39527,2.16528 v 0 c -0.18835,0.2896 -0.10626,0.67702 0.1833,0.86537 0.2896,0.18835 0.67702,0.10625 0.86537,-0.18331 0.002,-0.004 0.005,-0.008 0.008,-0.0122 z m -1.43877,2.24699 c 0.49157,-0.74123 0.97113,-1.49042 1.43877,-2.24699 v 0 c 0.18165,-0.29386 0.0907,-0.67931 -0.2032,-0.86092 -0.28906,-0.17868 -0.66791,-0.0938 -0.85319,0.19103 -0.4802,0.73833 -0.96365,1.47454 -1.45045,2.20857 v 0 c -0.19561,0.29492 -0.11507,0.69257 0.17985,0.88819 0.29496,0.19561 0.69261,0.11507 0.88822,-0.17985 0,0 0,-3e-5 0,-3e-5 z m -1.4103,2.13762 c 0.46832,-0.71374 0.9385,-1.42618 1.4103,-2.13759 v 0 c 0.19558,-0.29496 0.11508,-0.69261 -0.17988,-0.88822 -0.29492,-0.19558 -0.69261,-0.11508 -0.88819,0.17988 -0.47265,0.71265 -0.94456,1.42578 -1.41566,2.13946 v 0 c -0.19551,0.29615 -0.11387,0.69472 0.18228,0.89019 0.29616,0.19548 0.69469,0.11388 0.89017,-0.18227 3.4e-4,-2.7e-4 7.1e-4,-0.001 0.001,-0.001 v 3e-5 z m -1.97361,3.11072 c 0.64975,-1.04189 1.29995,-2.08407 1.97361,-3.11072 v -4e-5 c 0.19467,-0.29668 0.11198,-0.695 -0.18471,-0.88967 -0.29612,-0.19431 -0.69363,-0.11236 -0.88872,0.18324 -0.68223,1.03356 -1.33826,2.0846 -1.99351,3.13534 v 0 c -0.18831,0.30191 -0.0962,0.69932 0.20574,0.88759 0.30191,0.18828 0.69931,0.0962 0.88759,-0.20574 z m -1.86905,3.04423 c 0.60752,-1.02401 1.23902,-2.03398 1.86905,-3.04423 v 0 c 0.18828,-0.30194 0.0962,-0.69931 -0.20574,-0.88759 -0.30191,-0.18831 -0.69931,-0.0962 -0.88759,0.20574 0,0 0,0 0,0 -0.63221,1.01375 -1.26425,2.02763 -1.90034,3.03894 v 0 c -0.19378,0.30811 -0.10111,0.71494 0.20697,0.90872 0.30808,0.19378 0.71494,0.10114 0.90872,-0.20698 0.003,-0.005 0.006,-0.01 0.009,-0.0146 z m -1.14932,1.8754 c 0.39282,-0.61913 0.77523,-1.24481 1.14932,-1.8754 v 0 c 0.1857,-0.31302 0.0825,-0.71734 -0.23054,-0.90304 -0.30727,-0.18232 -0.70386,-0.0865 -0.89408,0.21593 -0.38636,0.61426 -0.77379,1.22788 -1.16251,1.84062 v 0 c -0.19936,0.31422 -0.10622,0.73053 0.20796,0.92989 0.31422,0.19932 0.73053,0.10622 0.92985,-0.208 0,0 0,0 0,0 z m -1.16596,1.78424 c 0.39648,-0.58956 0.78535,-1.18431 1.16596,-1.78424 v 0 c 0.19936,-0.31422 0.10622,-0.73053 -0.20796,-0.92985 -0.31422,-0.19936 -0.73053,-0.10622 -0.92985,0.20796 -0.37832,0.59634 -0.75438,1.19412 -1.12829,1.7932 v 0 c -0.1917,0.30717 -0.0981,0.71156 0.20902,0.90326 0.29979,0.18707 0.69391,0.1029 0.89112,-0.19033 z m -1.59763,1.78887 c 0.60368,-0.5267 1.15009,-1.12335 1.59763,-1.78887 v 0 c 0.20203,-0.30042 0.12227,-0.70777 -0.17819,-0.90981 -0.30043,-0.20204 -0.70778,-0.12227 -0.90981,0.17815 -0.004,0.006 -0.008,0.0124 -0.0121,0.0187 -0.4112,0.65889 -0.77375,1.34768 -1.09749,2.05345 v 0 c -0.0882,0.19226 -0.004,0.41967 0.18849,0.50786 0.13694,0.0628 0.29799,0.0395 0.41151,-0.0595 z"
       style="fill:#a42604;fill-opacity:1;fill-rule:nonzero;stroke:none;stroke-width:0.35277775"
       id="path873"
       inkscape:connector-curvature="0" />
  </g>
</svg>
