<?xml version="1.0" encoding="UTF-8" standalone="no"?>
<!-- Created with Inkscape (http://www.inkscape.org/) -->

<svg
   xmlns:dc="http://purl.org/dc/elements/1.1/"
   xmlns:cc="http://creativecommons.org/ns#"
   xmlns:rdf="http://www.w3.org/1999/02/22-rdf-syntax-ns#"
   xmlns:svg="http://www.w3.org/2000/svg"
   xmlns="http://www.w3.org/2000/svg"
   xmlns:sodipodi="http://sodipodi.sourceforge.net/DTD/sodipodi-0.dtd"
   xmlns:inkscape="http://www.inkscape.org/namespaces/inkscape"
   version="1.1"
   id="svg3450"
   xml:space="preserve"
   width="143.00867"
   height="128.22113"
   viewBox="0 0 143.00867 128.22113"
   sodipodi:docname="thermo_arrows_down.svg"
   inkscape:version="0.92.3 (2405546, 2018-03-11)"><metadata
     id="metadata3456"><rdf:RDF><cc:Work
         rdf:about=""><dc:format>image/svg+xml</dc:format><dc:type
           rdf:resource="http://purl.org/dc/dcmitype/StillImage" /><dc:title></dc:title></cc:Work></rdf:RDF></metadata><defs
     id="defs3454" /><sodipodi:namedview
     pagecolor="#ffffff"
     bordercolor="#666666"
     borderopacity="1"
     objecttolerance="10"
     gridtolerance="10"
     guidetolerance="10"
     inkscape:pageopacity="0"
     inkscape:pageshadow="2"
     inkscape:window-width="1920"
     inkscape:window-height="1025"
     id="namedview3452"
     showgrid="false"
     fit-margin-top="0"
     fit-margin-left="0"
     fit-margin-right="0"
     fit-margin-bottom="0"
     inkscape:zoom="4.5107912"
     inkscape:cx="70.715475"
     inkscape:cy="65.063407"
     inkscape:window-x="0"
     inkscape:window-y="27"
     inkscape:window-maximized="1"
     inkscape:current-layer="g3458" /><g
     id="g3458"
     inkscape:groupmode="layer"
     inkscape:label="canvas"
     transform="matrix(1.3333333,0,0,-1.3333333,-214.30866,208.22307)"><g
       id="g3460" /><path
       inkscape:connector-curvature="0"
       id="path3468"
       style="fill:#d34f21;fill-opacity:1;fill-rule:nonzero;stroke:none"
       d="m 165.0459,93.60452 c 0.3006,0.132 0.608,0.25776 0.9263,0.34043 v -1e-5 c 0.1877,0.04873 0.3003,0.24035 0.2516,0.42799 -0.0437,0.16806 -0.2036,0.27896 -0.3763,0.2609 -0.3845,-0.04019 -0.757,-0.17522 -1.1088,-0.32975 v 0 c -0.1932,-0.08484 -0.281,-0.31022 -0.1962,-0.5034 0.0849,-0.19318 0.3103,-0.281 0.5034,-0.19616 z m 0.9264,0.34043 c 0.2998,0.07785 0.6128,0.10427 0.9214,0.1158 v 0 c 0.1811,0.0068 0.3224,0.15904 0.3156,0.34011 -0.007,0.18107 -0.1591,0.32237 -0.3401,0.31561 -0.003,-1.1e-4 -0.006,-2.7e-4 -0.009,-4.6e-4 -0.338,-0.0219 -0.6758,-0.04693 -1.0127,-0.08217 v -1e-5 c -0.1928,-0.02017 -0.3328,-0.19283 -0.3126,-0.38564 0.0202,-0.19282 0.1928,-0.33278 0.3856,-0.31261 0.0175,0.0018 0.0348,0.005 0.0518,0.0094 z m 0.9214,0.1158 c 0.481,0.018 0.963,0.013 1.4441,0.002 v 0 c 0.1935,-0.0044 0.3539,0.14885 0.3583,0.34231 0.004,0.19345 -0.1489,0.35385 -0.3423,0.35826 -0.004,8e-5 -0.008,1.1e-4 -0.0114,7e-5 -0.4942,-0.0048 -0.9889,-0.01551 -1.4822,-0.04744 v 10e-6 c -0.1808,-0.0117 -0.3179,-0.16777 -0.3062,-0.34859 0.0115,-0.17735 0.1621,-0.31331 0.3397,-0.30666 v -1e-5 z m 1.4441,0.002 c 0.4361,-0.0099 0.8743,-0.02114 1.3084,-0.06658 v 0 c 0.2057,-0.02153 0.3898,0.12773 0.4114,0.33338 0.0215,0.20565 -0.1278,0.38982 -0.3334,0.41135 -0.005,5.4e-4 -0.0105,9.8e-4 -0.0157,0.0013 -0.4544,0.02834 -0.9111,0.02565 -1.3661,0.02119 v -1e-5 c -0.1935,-0.0019 -0.3488,-0.16029 -0.347,-0.35379 0.002,-0.18906 0.1534,-0.34255 0.3424,-0.34685 z m 1.3085,-0.06658 c 0.3271,-0.03423 0.6532,-0.07806 0.9784,-0.12796 v 0 c 0.2156,-0.0331 0.4173,0.1149 0.4504,0.33057 0.0331,0.21567 -0.1149,0.41735 -0.3306,0.45045 -0.005,8.1e-4 -0.0105,0.0015 -0.0158,0.0021 -0.3393,0.03811 -0.6794,0.06959 -1.0202,0.09086 v 1e-5 c -0.2063,0.01288 -0.3841,-0.14398 -0.397,-0.35035 -0.0125,-0.20029 0.1352,-0.37481 0.3348,-0.39569 z m 0.9784,-0.12796 c 0.3844,-0.05901 0.7677,-0.12581 1.15,-0.19711 v 1e-5 c 0.2273,-0.04239 0.4459,0.10752 0.4883,0.33481 0.0424,0.2273 -0.1075,0.44591 -0.3348,0.48829 -0.005,0.001 -0.0109,0.0019 -0.0163,0.0027 -0.3936,0.05742 -0.7879,0.10999 -1.1832,0.15441 v 0 c -0.2168,0.02438 -0.4123,-0.13165 -0.4367,-0.34848 -0.0237,-0.21067 0.1231,-0.40247 0.3327,-0.43464 z m 1.15,-0.19711 c 0.4426,-0.08253 0.8834,-0.17443 1.3228,-0.27271 v 10e-6 c 0.2369,-0.053 0.472,0.09611 0.525,0.33305 0.0529,0.23693 -0.0962,0.47197 -0.3331,0.52497 -0.003,7.3e-4 -0.007,0.0014 -0.01,0.0021 -0.4539,0.09064 -0.9098,0.17163 -1.3677,0.23843 v -1e-5 c -0.2288,0.03337 -0.4413,-0.12505 -0.4747,-0.35384 -0.0325,-0.22242 0.1165,-0.43077 0.3375,-0.47197 v -1e-5 z m 1.3228,-0.27269 c 0.475,-0.10628 0.9489,-0.2173 1.4218,-0.33274 v 1e-5 c 0.2423,-0.05914 0.4867,0.08932 0.5458,0.3316 0.0591,0.24228 -0.0893,0.48663 -0.3316,0.54577 -0.001,3.5e-4 -0.003,6.9e-4 -0.004,0.001 -0.4815,0.11253 -0.9648,0.21758 -1.4496,0.31443 v -1e-5 c -0.2381,0.04756 -0.4697,-0.10689 -0.5173,-0.34498 -0.0467,-0.23423 0.1021,-0.46296 0.3352,-0.51511 z m 1.4218,-0.33274 c 0.5053,-0.12333 1.0093,-0.2514 1.5125,-0.38294 v 0 c 0.2435,-0.06368 0.4926,0.08215 0.5563,0.32573 0.0637,0.24358 -0.0821,0.49267 -0.3257,0.55635 -3e-4,6e-5 -5e-4,1.2e-4 -7e-4,1.8e-4 -0.5094,0.13232 -1.0201,0.25934 -1.5325,0.37909 v 0 c -0.2429,0.05675 -0.4857,-0.09411 -0.5425,-0.33696 -0.0563,-0.24116 0.0921,-0.48271 0.3326,-0.54144 z m 1.5125,-0.38294 c 0.5671,-0.14828 1.1313,-0.30815 1.6931,-0.47537 v 0 c 0.2417,-0.07192 0.4959,0.06567 0.5678,0.30732 0.0719,0.24164 -0.0657,0.49584 -0.3073,0.56776 -0.5719,0.1702 -1.1462,0.33252 -1.7237,0.48255 v 0 c -0.2437,0.0633 -0.4925,-0.08292 -0.5559,-0.3266 -0.0632,-0.24341 0.0826,-0.49205 0.326,-0.55566 z m 1.6931,-0.47537 c 0.6157,-0.18324 1.2307,-0.36854 1.8452,-0.55569 v 0 c 0.2375,-0.07235 0.4888,0.06158 0.5611,0.29913 0.0716,0.23519 -0.0589,0.48431 -0.2931,0.55924 -0.6156,0.197 -1.2332,0.38799 -1.8527,0.5724 v 0 c -0.2417,0.07192 -0.4959,-0.06566 -0.5678,-0.3073 -0.0719,-0.24165 0.0657,-0.49585 0.3073,-0.56778 0,0 0,0 0,0 z m 1.8452,-0.55568 c 0.6185,-0.18843 1.2362,-0.37976 1.8529,-0.5742 v 0 c 0.2281,-0.07189 0.4712,0.05468 0.5431,0.2827 0.0708,0.22473 -0.0511,0.46487 -0.2743,0.5403 -0.6162,0.2082 -1.2342,0.41137 -1.8537,0.60957 v 0 c -0.2365,0.07567 -0.4896,-0.05472 -0.5653,-0.29124 -0.0756,-0.23651 0.0548,-0.48959 0.2913,-0.56526 0.002,-6.4e-4 0.004,-0.0013 0.006,-0.0019 z m 1.8529,-0.5742 c 0.6332,-0.19962 1.2639,-0.40688 1.8926,-0.62016 v 1e-5 c 0.2213,-0.07507 0.4615,0.04345 0.5366,0.26471 0.075,0.22126 -0.0435,0.46147 -0.2647,0.53654 -0.6318,0.21434 -1.2637,0.42834 -1.8957,0.64189 v 1e-5 c -0.2265,0.07653 -0.4722,-0.04504 -0.5487,-0.27155 -0.0766,-0.22651 0.045,-0.47217 0.2715,-0.5487 0.003,-9.5e-4 0.006,-0.0019 0.008,-0.0028 z m 1.8926,-0.62016 c 0.9383,-0.3183 1.8663,-0.66725 2.7932,-1.01715 v -10e-6 c 0.2198,-0.083 0.4654,0.02795 0.5484,0.24782 0.083,0.21987 -0.028,0.4654 -0.2479,0.5484 -3e-4,1.3e-4 -6e-4,2.6e-4 -0.001,3.9e-4 -0.9363,0.35077 -1.8738,0.70049 -2.8208,1.0218 v 10e-6 c -0.2213,0.07507 -0.4615,-0.04344 -0.5366,-0.26469 -0.0751,-0.22126 0.0435,-0.46148 0.2647,-0.53656 0,0 0,0 0,0 z m 2.7932,-1.01717 c 0.9369,-0.35367 1.8738,-0.70865 2.803,-1.08235 v 0 c 0.2193,-0.0882 0.4686,0.01809 0.5568,0.2374 0.0882,0.21932 -0.0181,0.46861 -0.2374,0.55681 -0.9352,0.3761 -1.879,0.73116 -2.8229,1.08475 v 1e-5 c -0.22,0.08244 -0.4653,-0.02913 -0.5477,-0.24921 -0.0823,-0.2197 0.0287,-0.46455 0.2482,-0.5474 z m 2.803,-1.08235 c 0.6542,-0.26304 1.3037,-0.53727 1.9485,-0.82244 v -1e-5 c 0.2142,-0.09473 0.4646,0.0021 0.5594,0.2163 0.0942,0.21308 -0.001,0.46228 -0.2135,0.55808 -0.6525,0.29431 -1.3109,0.57518 -1.975,0.84228 v 0 c -0.2193,0.08821 -0.4686,-0.01807 -0.5568,-0.23739 -0.0882,-0.21931 0.0181,-0.46861 0.2374,-0.55682 0,0 0,0 0,-1e-5 z m 1.9485,-0.82244 c 0.64,-0.28305 1.2789,-0.56886 1.9163,-0.8577 v -1e-5 c 0.2081,-0.09431 0.4533,-0.002 0.5476,0.20608 0.0935,0.20632 0.004,0.44947 -0.2014,0.5455 -0.6368,0.29802 -1.2757,0.59142 -1.9166,0.8805 v 0 c -0.2135,0.0963 -0.4646,0.0013 -0.5609,-0.21219 -0.0963,-0.21349 -0.001,-0.46462 0.2122,-0.56092 9e-4,-4.3e-4 0.002,-8.5e-4 0.003,-0.0013 v 1e-5 z m 1.9163,-0.8577 c 1.0199,-0.46219 2.0435,-0.91631 3.0668,-1.37101 v 0 c 0.2056,-0.09136 0.4464,0.0012 0.5377,0.20686 0.0914,0.2056 -0.001,0.44634 -0.2068,0.5377 0,1e-5 0,1e-5 0,1e-5 -1.0199,0.45312 -2.0407,0.90494 -3.0516,1.37802 v 0 c -0.2069,0.09686 -0.4532,0.0076 -0.5501,-0.19935 -0.0968,-0.20696 -0.008,-0.45326 0.1994,-0.55012 0.002,-7.1e-4 0.003,-0.0014 0.005,-0.0021 v 10e-6 z m 3.0668,-1.37101 c 1.0662,-0.47378 2.1328,-0.94744 3.2068,-1.40341 v 0 c 0.1984,-0.08423 0.4275,0.0083 0.5118,0.20671 0.0825,0.19431 -0.005,0.419 -0.1963,0.50713 -1.0598,0.4869 -2.1257,0.96065 -3.1915,1.43414 v 1e-5 c -0.2056,0.09134 -0.4463,-0.0013 -0.5376,-0.2069 -0.0914,-0.2056 0.001,-0.44632 0.2068,-0.53768 z m 3.2068,-1.40341 c 0.7293,-0.30961 1.4526,-0.63303 2.1702,-0.96869 v 0 c 0.1867,-0.08731 0.4088,-0.0068 0.4961,0.17991 0.0873,0.18666 0.007,0.40875 -0.1799,0.49607 -0.7225,0.33797 -1.4461,0.67357 -2.1709,1.00656 v 0 c -0.1959,0.08998 -0.4276,0.0041 -0.5176,-0.19171 -0.09,-0.19586 -0.004,-0.42757 0.1917,-0.51754 0.003,-0.0016 0.007,-0.0031 0.0104,-0.0046 z m 2.1702,-0.96869 c 0.7508,-0.35115 1.5045,-0.69565 2.2611,-1.03425 v 0 c 0.1862,-0.08334 0.4047,5e-5 0.488,0.18627 0.083,0.18544 7e-4,0.4031 -0.1842,0.48719 -0.7514,0.34165 -1.501,0.68707 -2.2487,1.03678 v -1e-5 c -0.1866,0.08732 -0.4087,0.0068 -0.4961,-0.17989 -0.0873,-0.18666 -0.007,-0.40877 0.1799,-0.49608 0,-1e-5 0,-1e-5 0,-1e-5 z m 2.2611,-1.03425 c 0.7727,-0.34587 1.5491,-0.68365 2.3289,-1.01327 v 0 c 0.1788,-0.07554 0.3849,0.0081 0.4604,0.18682 0.0743,0.17585 -0.005,0.37887 -0.1795,0.45718 -0.7694,0.34605 -1.538,0.69357 -2.306,1.04273 v 1e-5 c -0.1858,0.08444 -0.4048,0.0023 -0.4892,-0.18339 -0.0845,-0.18573 -0.002,-0.40474 0.1834,-0.48918 6e-4,-3e-4 0.001,-6e-4 0.002,-9e-4 z m 2.3289,-1.01327 c 0.8076,-0.34138 1.6176,-0.67682 2.4296,-1.0073 v 0 c 0.1724,-0.07014 0.369,0.01272 0.4391,0.18509 0.0701,0.17235 -0.0127,0.36893 -0.1851,0.43909 -0.8067,0.32842 -1.6083,0.66988 -2.4027,1.02713 v 0 c -0.177,0.07958 -0.3849,6.3e-4 -0.4645,-0.17633 -0.0796,-0.17696 -6e-4,-0.38492 0.1763,-0.4645 0.002,-0.0011 0.005,-0.0021 0.007,-0.0032 z m 2.4296,-1.0073 c 0.8348,-0.33979 1.6719,-0.67457 2.5109,-1.00401 v 0 c 0.1686,-0.06623 0.3591,0.01682 0.4253,0.18548 0.0656,0.1671 -0.0153,0.35589 -0.1815,0.4237 -0.8334,0.34005 -1.667,0.6797 -2.5007,1.01902 v 0 c -0.1723,0.07015 -0.3689,-0.01271 -0.4391,-0.18507 -0.0701,-0.17236 0.0127,-0.36896 0.1851,-0.43911 0,0 0,0 0,0 z m 2.5109,-1.004 c 0.8508,-0.3341 1.7017,-0.66823 2.5525,-1.00225 v 0 c 0.1565,-0.0614 0.333,0.01562 0.3944,0.17204 0.0605,0.15404 -0.0132,0.32817 -0.1659,0.39193 -0.8444,0.35257 -1.69,0.7018 -2.5372,1.04746 v -1e-5 c -0.1677,0.06846 -0.3592,-0.01206 -0.4277,-0.17984 -0.0684,-0.16777 0.0121,-0.35927 0.1798,-0.42772 0.001,-5.5e-4 0.003,-0.0011 0.004,-0.0016 v 1e-5 z m 2.5526,-1.00225 c 0.8796,-0.34524 1.7588,-0.69159 2.6376,-1.03884 v 1e-5 c 0.1486,-0.05871 0.3166,0.01414 0.3753,0.16272 0.0587,0.14858 -0.0141,0.31662 -0.1627,0.37533 0,0 0,0 0,0 -0.8773,0.34657 -1.7515,0.70125 -2.6218,1.06474 v 1e-5 c -0.1551,0.06475 -0.3333,-0.0084 -0.398,-0.1635 -0.0648,-0.15506 0.008,-0.33325 0.1635,-0.39801 0.002,-8.4e-4 0.004,-0.0017 0.006,-0.0025 z m 2.6376,-1.03884 c 0.9143,-0.36128 1.835,-0.70657 2.7608,-1.03759 v -1e-5 c 0.1465,-0.05238 0.3077,0.02391 0.3601,0.17041 0.052,0.14544 -0.0228,0.30563 -0.1677,0.35912 -0.9174,0.33868 -1.8311,0.68683 -2.7406,1.04613 v 0 c -0.1486,0.0587 -0.3167,-0.01416 -0.3753,-0.16275 -0.0587,-0.14857 0.0141,-0.3166 0.1627,-0.3753 z m 2.7608,-1.03759 c 0.9643,-0.34487 1.9347,-0.67262 2.9101,-0.98466 v 1e-5 c 0.1338,-0.04282 0.2771,0.03097 0.3199,0.16482 0.042,0.13147 -0.0284,0.27249 -0.1587,0.31786 -0.9628,0.33502 -1.9226,0.67851 -2.8789,1.03149 v 1e-5 c -0.146,0.05387 -0.308,-0.02078 -0.3619,-0.16673 -0.0538,-0.14596 0.0208,-0.30795 0.1668,-0.36183 9e-4,-3.3e-4 0.002,-6.5e-4 0.003,-9.7e-4 z m 2.9101,-0.98466 c 1,-0.31994 1.998,-0.6464 2.9939,-0.97903 v 0 c 0.123,-0.04108 0.256,0.02532 0.2971,0.1483 0.0411,0.12298 -0.0253,0.25597 -0.1483,0.29705 0,0 0,0 0,0 -0.996,0.33256 -1.9899,0.67126 -2.9815,1.01636 v 1e-5 c -0.1328,0.04618 -0.2778,-0.02397 -0.324,-0.1567 -0.0462,-0.13272 0.024,-0.27776 0.1567,-0.32395 0.002,-7e-4 0.004,-0.0014 0.006,-0.002 v -1e-5 z m 2.9939,-0.97903 c 1.0279,-0.34333 2.0587,-0.67786 3.0919,-1.00482 v 1e-5 c 0.1208,-0.03824 0.2498,0.02871 0.288,0.14954 0.0381,0.12028 -0.0281,0.24874 -0.1482,0.28756 -1.0292,0.33288 -2.0569,0.67043 -3.0829,1.01305 v 1e-5 c -0.123,0.04107 -0.256,-0.02534 -0.2971,-0.14832 -0.041,-0.12298 0.0254,-0.25596 0.1483,-0.29703 z m 3.0919,-1.0048 c 1.0605,-0.3357 2.1244,-0.6607 3.1912,-0.97574 v 0 c 0.1131,-0.03339 0.2318,0.0312 0.2652,0.14427 0.0331,0.11206 -0.03,0.2299 -0.1416,0.26441 -1.0605,0.32786 -2.1189,0.66259 -3.175,1.00415 v 0 c -0.1205,0.039 -0.2499,-0.02714 -0.2889,-0.14772 -0.039,-0.12058 0.0271,-0.24994 0.1477,-0.28894 5e-4,-1.5e-4 9e-4,-2.9e-4 10e-4,-4.4e-4 v 10e-6 z m 3.1913,-0.97574 c 1.0716,-0.31637 2.1434,-0.63221 3.2155,-0.9472 v -1e-5 c 0.1076,-0.03162 0.2205,0.03 0.2521,0.13763 0.0317,0.10764 -0.03,0.22054 -0.1376,0.25216 0,1e-5 -1e-4,2e-5 -1e-4,3e-5 -1.0711,0.31421 -2.14,0.63626 -3.2064,0.96607 v -1e-5 c -0.1127,0.03483 -0.2322,-0.02824 -0.267,-0.14087 -0.0349,-0.11263 0.0282,-0.23218 0.1408,-0.26701 9e-4,-2.7e-4 0.002,-5.4e-4 0.003,-7.9e-4 z m 3.2155,-0.9472 c 1.0633,-0.31251 2.1296,-0.61522 3.1985,-0.90796 v 1e-5 c 0.1084,-0.02968 0.2204,0.03412 0.2501,0.14252 0.0296,0.10839 -0.0342,0.22033 -0.1426,0.25001 0,0 0,0 0,1e-5 -1.0666,0.292 -2.1304,0.59403 -3.1916,0.90522 v 0 c -0.1077,0.03157 -0.2205,-0.0301 -0.2521,-0.13776 -0.0315,-0.10761 0.0301,-0.22043 0.1377,-0.25205 z m 3.1985,-0.90796 c 1.0503,-0.2876 2.0974,-0.58647 3.1411,-0.89685 v 0 c 0.1098,-0.03265 0.2253,0.02989 0.2579,0.1397 0.0327,0.1098 -0.0299,0.22529 -0.1397,0.25794 -3e-4,10e-5 -6e-4,1.9e-4 -9e-4,2.7e-4 -1.0477,0.30633 -2.0981,0.60326 -3.1509,0.89149 v 0 c -0.1084,0.02967 -0.2203,-0.03414 -0.25,-0.14254 -0.0296,-0.10839 0.0342,-0.22032 0.1425,-0.25 z m 3.1411,-0.89685 c 1.0173,-0.30254 2.032,-0.6144 3.0435,-0.93608 v 0 c 0.1145,-0.03643 0.2369,0.02689 0.2733,0.14142 0.0365,0.11453 -0.0269,0.23691 -0.1414,0.27333 -5e-4,1.7e-4 -0.001,3.4e-4 -0.002,5.1e-4 -1.0164,0.31445 -2.0353,0.62028 -3.0565,0.91874 v 0 c -0.11,0.03214 -0.2251,-0.03095 -0.2573,-0.1409 -0.032,-0.1096 0.0305,-0.22447 0.14,-0.25702 z m 3.0435,-0.93608 c 1.478,-0.46993 2.968,-0.90294 4.4573,-1.33521 v 0 c 0.1217,-0.03534 0.2491,0.03472 0.2844,0.15647 0.0354,0.12176 -0.0347,0.24911 -0.1564,0.28445 -3e-4,8e-5 -6e-4,1.6e-4 -9e-4,2.4e-4 -1.4877,0.42571 -2.9758,0.85182 -4.4541,1.30931 v 0 c -0.1148,0.03553 -0.2367,-0.02874 -0.2722,-0.14355 -0.0354,-0.11419 0.028,-0.2355 0.1419,-0.27172 z m 4.4573,-1.33522 c 1.468,-0.42584 2.9359,-0.85233 4.4067,-1.26836 v 1e-5 c 0.1271,-0.03595 0.2592,0.03793 0.2952,0.165 0.0359,0.12708 -0.038,0.25923 -0.165,0.29518 -4e-4,1.1e-4 -8e-4,2.2e-4 -0.001,3.2e-4 -1.4717,0.40828 -2.9402,0.82862 -4.4085,1.24901 v 0 c -0.1219,0.0349 -0.249,-0.03562 -0.2839,-0.1575 -0.0348,-0.12159 0.0353,-0.24843 0.1567,-0.28366 z m 4.4067,-1.26834 c 0.9577,-0.271 1.9166,-0.53768 2.8767,-0.80014 v 0 c 0.1294,-0.03539 0.2631,0.04086 0.2984,0.1703 0.0354,0.12945 -0.0408,0.26307 -0.1703,0.29845 0,10e-6 0,10e-6 0,10e-6 -0.9591,0.26203 -1.9177,0.52609 -2.8758,0.79187 v 0 c -0.1272,0.03531 -0.259,-0.03924 -0.2943,-0.16649 -0.0352,-0.12679 0.0387,-0.25818 0.1653,-0.29401 z m 2.8767,-0.80014 c 0.9243,-0.25267 1.8461,-0.51438 2.7646,-0.78729 v 1e-5 c 0.1335,-0.03969 0.274,0.03642 0.3137,0.16998 0.0397,0.13357 -0.0364,0.27402 -0.17,0.31371 -0.001,3.2e-4 -0.002,6.3e-4 -0.003,9.4e-4 -0.9245,0.2612 -1.8502,0.51823 -2.7769,0.77142 v -1e-5 c -0.1295,0.03537 -0.2631,-0.0409 -0.2984,-0.17035 -0.0354,-0.12943 0.0409,-0.26303 0.1703,-0.29841 z m 2.7646,-0.78729 c 0.8225,-0.24439 1.6439,-0.49282 2.4631,-0.74822 v 10e-6 c 0.154,-0.04803 0.3179,0.03792 0.3659,0.19199 0.048,0.15407 -0.0379,0.3179 -0.192,0.36594 -0.005,0.0015 -0.01,0.0029 -0.0146,0.0041 -0.8303,0.21232 -1.6573,0.43779 -2.482,0.6708 v -1e-5 c -0.1341,0.03789 -0.2735,-0.0401 -0.3114,-0.17419 -0.0375,-0.13282 0.0387,-0.27113 0.171,-0.31044 v -1e-5 z m 2.4631,-0.74822 c 0.6825,-0.2128 1.3652,-0.42523 2.048,-0.63699 v 0 c 0.1871,-0.05801 0.3858,0.04661 0.4438,0.23368 0.058,0.18707 -0.0466,0.38574 -0.2337,0.44375 -0.007,0.0023 -0.015,0.0044 -0.0225,0.0062 -0.6936,0.16584 -1.3854,0.33878 -2.0763,0.51544 v 0 c -0.1563,0.03998 -0.3155,-0.05435 -0.3555,-0.2107 -0.0385,-0.15065 0.0477,-0.30508 0.1962,-0.35136 v -1e-5 z m 2.0481,-0.637 c 0.5528,-0.17142 1.1063,-0.3408 1.6611,-0.50594 v -1e-5 c 0.2233,-0.06645 0.4581,0.06065 0.5245,0.28387 0.0665,0.22323 -0.0606,0.45806 -0.2838,0.52451 -0.0124,0.0037 -0.0249,0.0068 -0.0376,0.0093 -0.5614,0.11234 -1.12,0.23869 -1.6767,0.37187 v -1e-5 c -0.1905,0.04557 -0.3819,-0.07192 -0.4274,-0.2624 -0.0435,-0.18167 0.0614,-0.3659 0.2399,-0.42122 z m 1.6611,-0.50594 c 0.4189,-0.12469 0.8394,-0.24529 1.2637,-0.35083 v 0 c 0.2504,-0.0623 0.5039,0.09019 0.5661,0.34059 0.0623,0.2504 -0.0901,0.50389 -0.3405,0.56619 -0.006,0.0015 -0.0119,0.0028 -0.0178,0.004 -0.4224,0.08774 -0.8454,0.17307 -1.2684,0.2577 v 0 c -0.2284,0.04569 -0.4506,-0.10241 -0.4963,-0.33079 -0.0427,-0.21368 0.0844,-0.42474 0.2932,-0.48692 v 10e-6 z m 1.2636,-0.35083 c 0.5101,-0.12693 1.0568,-0.10266 1.5756,-0.05485 v 0 c 0.1532,0.01412 0.266,0.14978 0.2519,0.30301 -0.01,0.10853 -0.0824,0.20126 -0.1853,0.23734 -0.4696,0.16472 -0.9463,0.32394 -1.4343,0.42533 v 0 c -0.2527,0.05248 -0.5,-0.10977 -0.5525,-0.36241 -0.051,-0.24569 0.1011,-0.48782 0.3446,-0.54842 z" /><path
       inkscape:connector-curvature="0"
       id="path3478"
       style="fill:#d34f21;fill-opacity:1;fill-rule:nonzero;stroke:none"
       d="m 266.4623,62.03839 c 0.0118,-0.05477 0.0227,-0.10975 0.0314,-0.1651 v 0 c 0.0327,-0.20844 0.2282,-0.3509 0.4366,-0.31819 0.009,0.0015 0.0187,0.0033 0.0279,0.0054 0.2388,0.0559 0.4142,0.26468 0.4523,0.5036 v 0 c 0.0419,0.26315 -0.1374,0.51047 -0.4006,0.55241 -0.2631,0.04194 -0.5104,-0.13739 -0.5524,-0.40054 -0.009,-0.05899 -0.008,-0.11922 0.005,-0.17763 v 1e-5 z m -0.0743,0.16702 c 0.0274,-0.05298 0.0619,-0.11108 0.075,-0.17005 v -10e-6 c 0.0578,-0.26011 0.3156,-0.4241 0.5757,-0.36626 0.1932,0.04295 0.3406,0.19953 0.3718,0.39496 0.0305,0.19176 -0.0183,0.38681 -0.0881,0.56473 v 0 c -0.1035,0.26411 -0.4015,0.3943 -0.6656,0.29079 -0.2641,-0.1035 -0.3943,-0.40151 -0.2908,-0.66562 0.007,-0.01655 0.0139,-0.03275 0.022,-0.04854 z m -0.2373,0.42362 c 0.0822,-0.13936 0.163,-0.27983 0.2373,-0.42359 v 0 c 0.1303,-0.25197 0.4402,-0.3506 0.6922,-0.2203 0.2336,0.12083 0.3382,0.39867 0.2423,0.6436 -0.0727,0.18546 -0.1672,0.36211 -0.2683,0.53345 v 0 c -0.1472,0.24949 -0.4688,0.33239 -0.7183,0.18515 -0.2495,-0.14722 -0.3324,-0.46882 -0.1852,-0.71831 z m -0.3231,0.51568 c 0.1119,-0.16921 0.22,-0.34098 0.3231,-0.51568 v 0 c 0.1472,-0.24949 0.4688,-0.3324 0.7183,-0.18518 0.2495,0.14722 0.3324,0.46882 0.1852,0.71832 0,10e-6 0,10e-6 0,2e-5 -0.1179,0.19978 -0.2487,0.39189 -0.389,0.57661 v 0 c -0.1716,0.22594 -0.4939,0.26999 -0.7198,0.09838 -0.2156,-0.16374 -0.2671,-0.46667 -0.1178,-0.69247 z m -1.6842,2.54002 c 0.5615,-0.84663 1.1238,-1.69263 1.6842,-2.54002 v 0 c 0.1565,-0.23666 0.4752,-0.30165 0.7118,-0.14515 0.2367,0.1565 0.3017,0.47521 0.1452,0.71187 -0.006,0.0093 -0.0126,0.01846 -0.0194,0.02737 -0.1973,0.25981 -0.4396,0.49107 -0.6646,0.72615 -0.4901,0.51193 -0.9867,1.01762 -1.4838,1.52269 v -1e-5 c -0.0936,0.09507 -0.2465,0.09628 -0.3415,0.0027 -0.0824,-0.08111 -0.0958,-0.20925 -0.0319,-0.30561 z" /><path
       inkscape:connector-curvature="0"
       id="path3480"
       style="fill:#d34f21;fill-opacity:1;fill-rule:nonzero;stroke:none"
       d="m 267.3948,61.33444 c 0.1115,0.04513 0.2229,0.09494 0.3237,0.16112 0.1881,0.12343 0.3272,0.33585 0.2457,0.56933 v 0 c -0.013,0.03717 -0.0313,0.07226 -0.0543,0.10417 l 1e-4,10e-5 c -0.0629,0.08744 -0.1581,0.14614 -0.2645,0.16306 -0.1622,0.0258 -0.3492,-0.02417 -0.5088,-0.04766 v 1e-5 c -0.2709,-0.03986 -0.4582,-0.29177 -0.4184,-0.56268 0.0399,-0.2709 0.2918,-0.4582 0.5627,-0.41835 0.039,0.0057 0.0772,0.01612 0.1138,0.0309 z m -0.714,-0.26834 c 0.241,0.08091 0.4783,0.17303 0.714,0.26834 v 0 c 0.2538,0.10268 0.3763,0.3917 0.2737,0.64554 -0.0858,0.21204 -0.3055,0.33788 -0.5318,0.30459 -0.2594,-0.03818 -0.5187,-0.0831 -0.7728,-0.14857 v -1e-5 c -0.2986,-0.07693 -0.4783,-0.38134 -0.4014,-0.67993 0.077,-0.29858 0.3814,-0.47827 0.68,-0.40134 0.0129,0.0033 0.0257,0.0071 0.0383,0.01137 z m -0.6385,-0.19217 c 0.2146,0.05808 0.4278,0.12142 0.6385,0.19217 v -10e-6 c 0.2923,0.09813 0.4498,0.41464 0.3516,0.70694 -0.0932,0.27759 -0.385,0.43602 -0.6685,0.36296 -0.2066,-0.05323 -0.4129,-0.10798 -0.6188,-0.16372 v 0 c -0.3033,-0.08209 -0.4827,-0.39452 -0.4006,-0.69782 0.0821,-0.3033 0.3946,-0.48262 0.6979,-0.40052 z m -0.6267,-0.18635 c 0.2074,0.06712 0.4164,0.12941 0.6267,0.18635 h 10e-5 c 0.3033,0.0821 0.4826,0.39452 0.4005,0.69782 -0.0821,0.3033 -0.3945,0.48262 -0.6978,0.40052 0,0 0,0 0,0 -0.2277,-0.06163 -0.4539,-0.12859 -0.6785,-0.20049 v 0 c -0.2995,-0.09589 -0.4646,-0.41646 -0.3687,-0.716 0.0959,-0.29955 0.4165,-0.46464 0.716,-0.36875 6e-4,1.9e-4 10e-4,3.7e-4 0.002,5.6e-4 v -1e-5 z m -0.5724,-0.22826 c 0.1855,0.08855 0.3768,0.16498 0.5724,0.22826 v 0 c 0.2992,0.09682 0.4633,0.4179 0.3665,0.71715 -0.0966,0.29858 -0.4166,0.46273 -0.7154,0.36706 -0.2443,-0.07821 -0.4832,-0.17312 -0.7147,-0.28362 v 0 c -0.2841,-0.13563 -0.4045,-0.47589 -0.2688,-0.76001 0.1356,-0.28411 0.4759,-0.40448 0.76,-0.26885 0,0 0,0 0,0 z m -1.4439,-0.44989 c 0.4815,0.12309 0.9928,0.23454 1.4439,0.44989 v -10e-6 c 0.2841,0.13563 0.4045,0.4759 0.2688,0.76001 -0.1356,0.28412 -0.4759,0.40448 -0.76,0.26885 -0.2069,-0.09878 -0.3874,-0.2512 -0.5563,-0.40388 -0.2278,-0.20581 -0.4404,-0.42818 -0.648,-0.65405 v 0 c -0.0956,-0.10399 -0.0888,-0.26576 0.0152,-0.36134 0.0637,-0.05852 0.1526,-0.08089 0.2364,-0.05947 z" /></g></svg>