<?xml version="1.0" encoding="UTF-8" standalone="no"?>
<!-- Created with Inkscape (http://www.inkscape.org/) -->

<svg
   xmlns:dc="http://purl.org/dc/elements/1.1/"
   xmlns:cc="http://creativecommons.org/ns#"
   xmlns:rdf="http://www.w3.org/1999/02/22-rdf-syntax-ns#"
   xmlns:svg="http://www.w3.org/2000/svg"
   xmlns="http://www.w3.org/2000/svg"
   xmlns:sodipodi="http://sodipodi.sourceforge.net/DTD/sodipodi-0.dtd"
   xmlns:inkscape="http://www.inkscape.org/namespaces/inkscape"
   version="1.1"
   id="svg3450"
   xml:space="preserve"
   width="113.55655"
   height="79.384735"
   viewBox="0 0 113.55655 79.384735"
   sodipodi:docname="thermo_arrows_up.svg"
   inkscape:version="0.92.3 (2405546, 2018-03-11)"><metadata
     id="metadata3456"><rdf:RDF><cc:Work
         rdf:about=""><dc:format>image/svg+xml</dc:format><dc:type
           rdf:resource="http://purl.org/dc/dcmitype/StillImage" /><dc:title></dc:title></cc:Work></rdf:RDF></metadata><defs
     id="defs3454" /><sodipodi:namedview
     pagecolor="#ffffff"
     bordercolor="#666666"
     borderopacity="1"
     objecttolerance="10"
     gridtolerance="10"
     guidetolerance="10"
     inkscape:pageopacity="0"
     inkscape:pageshadow="2"
     inkscape:window-width="1920"
     inkscape:window-height="1025"
     id="namedview3452"
     showgrid="false"
     fit-margin-top="0"
     fit-margin-left="0"
     fit-margin-right="0"
     fit-margin-bottom="0"
     inkscape:zoom="4.5107912"
     inkscape:cx="106.15582"
     inkscape:cy="48.521546"
     inkscape:window-x="0"
     inkscape:window-y="27"
     inkscape:window-maximized="1"
     inkscape:current-layer="g3458" /><g
     id="g3458"
     inkscape:groupmode="layer"
     inkscape:label="canvas"
     transform="matrix(1.3333333,0,0,-1.3333333,-211.74928,215.28003)"><g
       id="g3460" /><path
       inkscape:connector-curvature="0"
       id="path3464"
       style="fill:#d34f21;fill-opacity:1;fill-rule:nonzero;stroke:none;stroke-width:1"
       d="m 159.13368,121.16731 c 0.35267,-0.0363 0.71068,-0.0694 1.06558,-0.0538 l 1e-5,9e-5 c 0.19272,0.008 0.34193,0.17165 0.33338,0.36436 -0.008,0.18552 -0.16038,0.33218 -0.34614,0.33356 -0.32709,0.003 -0.65438,0.0355 -0.97943,0.069 v 0 c -0.19692,0.0203 -0.37293,-0.12289 -0.39321,-0.31981 -0.0203,-0.19692 0.12289,-0.37302 0.31981,-0.39329 z m 1.06558,-0.0538 c 0.39559,0.0176 0.79046,0.0797 1.18151,0.13851 v 0 c 0.19321,0.029 0.32635,0.20917 0.29729,0.40239 -0.0291,0.19323 -0.20926,0.32636 -0.40248,0.29731 -0.004,-5.6e-4 -0.008,-9.4e-4 -0.0121,-0.003 -0.35172,-0.0653 -0.71743,-0.1409 -1.07705,-0.13812 v 0 c -0.19281,0.002 -0.35042,-0.1535 -0.3519,-0.34641 -0.002,-0.19281 0.15361,-0.35034 0.34642,-0.3519 0.007,-1.1e-4 0.0121,-3e-4 0.0182,2e-5 l -1e-5,-10e-5 z m 1.18151,0.13851 c 0.4897,0.0735 0.97809,0.15622 1.46331,0.25491 v 0 c 0.2049,0.0418 0.33723,0.24154 0.29551,0.44644 -0.0417,0.20489 -0.24154,0.33723 -0.44644,0.29551 -0.004,-5.4e-4 -0.007,-0.002 -0.012,-0.003 -0.46969,-0.1117 -0.94291,-0.20833 -1.41753,-0.29651 v 0 c -0.19211,-0.0357 -0.31892,-0.22031 -0.28324,-0.41243 0.0348,-0.18741 0.2119,-0.31363 0.40044,-0.28521 z m 1.46341,0.255 c 0.47098,0.0958 0.94013,0.20154 1.40749,0.31358 v 0 c 0.21438,0.0514 0.34643,0.26681 0.29503,0.48119 -0.0514,0.2143 -0.26681,0.34635 -0.4811,0.29493 -0.003,-6.4e-4 -0.007,-9.3e-4 -0.01,-0.003 -0.45685,-0.1218 -0.91499,-0.23866 -1.37492,-0.34815 v 0 c -0.20332,-0.0484 -0.32902,-0.25248 -0.28064,-0.4559 0.0473,-0.19868 0.24364,-0.32405 0.44382,-0.28335 l 1e-5,9e-5 z m 1.40758,0.31357 c 0.52443,0.12587 1.0466,0.26104 1.56678,0.40338 v 0 c 0.21768,0.0596 0.34588,0.28431 0.28634,0.50199 -0.0596,0.21768 -0.28432,0.34588 -0.502,0.28634 -0.51522,-0.14088 -1.03086,-0.28039 -1.54697,-0.41798 v 0 c -0.21297,-0.0568 -0.33958,-0.27543 -0.28285,-0.48838 0.0557,-0.20917 0.26818,-0.33583 0.4787,-0.28535 z m 1.56678,0.40338 c 0.85393,0.23362 1.6979,0.50524 2.54083,0.77498 v 0 c 0.21709,0.0694 0.33672,0.30166 0.26731,0.51875 -0.0695,0.21701 -0.30176,0.33674 -0.51877,0.26722 -5.8e-4,-1.4e-4 -9.3e-4,-3.8e-4 -0.002,-5.6e-4 -0.82999,-0.26957 -1.66119,-0.54174 -2.50326,-0.77204 v 0 c -0.21768,-0.0596 -0.34588,-0.28423 -0.28634,-0.502 0.0596,-0.21768 0.28432,-0.34588 0.50199,-0.28633 0,0 0,0 0,0 z m 2.54083,0.77498 c 0.87296,0.27929 1.746,0.55932 2.6125,0.85823 v 0 c 0.21914,0.0756 0.3356,0.31461 0.25998,0.53375 -0.0756,0.21924 -0.31461,0.33561 -0.53375,0.26008 -9.4e-4,-3.8e-4 -0.002,-6.5e-4 -0.003,-6.5e-4 -0.8582,-0.3026 -1.7238,-0.58452 -2.58922,-0.86572 v 0 c -0.21672,-0.0704 -0.33537,-0.30313 -0.26498,-0.51994 0.0702,-0.21604 0.30189,-0.33467 0.51819,-0.26545 z m 2.6125,0.85823 c 0.58925,0.20324 1.17444,0.4182 1.75472,0.64595 v 0 c 0.21751,0.0854 0.32465,0.33092 0.23924,0.54843 -0.0853,0.2175 -0.33083,0.32455 -0.54834,0.23923 0,0 0,0 0,0 -0.57025,-0.22378 -1.14451,-0.43705 -1.72212,-0.64073 v 0 c -0.21874,-0.0772 -0.33349,-0.31689 -0.25641,-0.53562 0.0768,-0.21758 0.31474,-0.33252 0.53291,-0.25726 z m 1.75472,0.64595 c 0.56239,0.22071 1.12138,0.4497 1.67669,0.68765 v 0 c 0.21764,0.0932 0.31847,0.34514 0.22524,0.56279 -0.0933,0.21757 -0.34522,0.31848 -0.56289,0.22526 -0.002,-7.4e-4 -0.003,-0.002 -0.005,-0.002 -0.54264,-0.24058 -1.09063,-0.469 -1.6432,-0.68582 v 0 c -0.2175,-0.0853 -0.32464,-0.33091 -0.23923,-0.54843 0.0853,-0.21741 0.33083,-0.32454 0.54834,-0.23922 z m 1.67669,0.68765 c 0.58242,0.24949 1.154,0.52377 1.71621,0.816 v 0 c 0.21275,0.11061 0.29566,0.37276 0.18504,0.58551 -0.1106,0.21284 -0.37285,0.29567 -0.5856,0.18506 -0.54466,-0.28309 -1.097,-0.55191 -1.65824,-0.80075 v 0 c -0.21642,-0.0959 -0.31408,-0.34917 -0.21808,-0.5656 0.0951,-0.21445 0.34497,-0.31271 0.56067,-0.22022 z m 1.71621,0.816 c 0.72293,0.37574 1.43831,0.76604 2.15144,1.16016 v 0 c 0.208,0.11496 0.28343,0.37674 0.16846,0.58476 -0.11448,0.2072 -0.37482,0.28295 -0.58267,0.16957 -0.70947,-0.38703 -1.42063,-0.77117 -2.13778,-1.14382 l -1e-5,-1e-4 c -0.21282,-0.11051 -0.29566,-0.37276 -0.18504,-0.58551 0.1106,-0.21284 0.37276,-0.29567 0.5856,-0.18506 0,0 0,0 0,0 z m 2.15144,1.16016 c 0.72022,0.39799 1.43688,0.80353 2.13854,1.23372 v 0 c 0.1957,0.12001 0.25703,0.37589 0.13712,0.57167 -0.11824,0.19269 -0.36876,0.25564 -0.56404,0.14162 -0.70162,-0.40971 -1.41256,-0.80358 -2.12583,-1.19268 v 0 c -0.20864,-0.11377 -0.28545,-0.37523 -0.17167,-0.58377 0.11378,-0.20865 0.37522,-0.28555 0.58378,-0.17167 6.9e-4,3.1e-4 9.4e-4,7.4e-4 0.002,7.4e-4 z m 2.13854,1.23372 c 0.59293,0.36357 1.17567,0.74347 1.74956,1.13635 v 0 c 0.18457,0.12634 0.23183,0.37839 0.10549,0.56295 -0.12643,0.18467 -0.37849,0.23184 -0.56305,0.10549 0,0 0,0 0,0 -0.5601,-0.38355 -1.13269,-0.74911 -1.71892,-1.0915 v 0 c -0.19828,-0.11577 -0.26504,-0.37034 -0.14935,-0.56852 0.11578,-0.19829 0.37034,-0.26514 0.56863,-0.14936 0.002,0.002 0.005,0.003 0.008,0.005 z m 1.74956,1.13635 c 0.59398,0.40666 1.18779,0.81353 1.78136,1.2207 v 0 c 0.18064,0.12391 0.2266,0.37072 0.10267,0.55126 -0.12242,0.1786 -0.3656,0.22589 -0.54609,0.1062 -0.60139,-0.39891 -1.2,-0.80208 -1.7955,-1.20972 v 0 c -0.18457,-0.12643 -0.23174,-0.37849 -0.1054,-0.56305 0.12634,-0.18456 0.37839,-0.23173 0.56296,-0.10539 0,0 0,0 0,0 z m 1.78136,1.2207 c 0.59639,0.40904 1.18991,0.82226 1.78047,1.23964 v 0 c 0.1718,0.12143 0.21269,0.35924 0.0912,0.53114 -0.12036,0.17027 -0.35523,0.21218 -0.52706,0.0941 -0.59257,-0.40755 -1.18865,-0.80994 -1.788,-1.20737 v 0 c -0.18242,-0.12109 -0.23227,-0.36712 -0.11128,-0.54962 0.12108,-0.18252 0.36712,-0.23227 0.54962,-0.11128 0.002,7.4e-4 0.003,0.003 0.005,0.003 z m 1.78047,1.23964 c 0.5867,0.41467 1.16943,0.83485 1.74803,1.26073 v 0 c 0.16858,0.12402 0.20468,0.36119 0.0807,0.52976 -0.12403,0.16858 -0.36119,0.20469 -0.52977,0.0807 -9.2e-4,-6.6e-4 -0.002,-0.002 -0.003,-0.002 -0.56885,-0.42642 -1.14631,-0.84118 -1.73207,-1.24407 l 1e-5,1e-4 c -0.17346,-0.11929 -0.21732,-0.35659 -0.098,-0.52996 0.11918,-0.17336 0.35649,-0.21731 0.52986,-0.098 9.4e-4,8.3e-4 0.003,0.002 0.004,0.003 z m 1.74803,1.26073 c 0.57644,0.42411 1.14959,0.85282 1.71906,1.28625 v 0 c 0.16864,0.12835 0.20135,0.36907 0.073,0.5378 -0.12835,0.16865 -0.36917,0.20127 -0.53782,0.0729 -0.56711,-0.43149 -1.13582,-0.86113 -1.70609,-1.28852 v 0 c -0.16751,-0.12555 -0.20148,-0.36303 -0.0759,-0.53054 0.12472,-0.16638 0.36032,-0.20119 0.52778,-0.0779 z m 1.71906,1.28625 c 0.69584,0.52944 1.39926,1.04904 2.10464,1.5658 v 0 c 0.178,0.13042 0.21665,0.38043 0.0862,0.55843 -0.13041,0.178 -0.38043,0.21656 -0.55844,0.0861 -0.002,-0.002 -0.004,-0.004 -0.007,-0.005 -0.69659,-0.5321 -1.39333,-1.06399 -2.09083,-1.59486 v 0 c -0.16864,-0.12836 -0.20135,-0.36908 -0.073,-0.53773 0.12835,-0.16873 0.36916,-0.20135 0.53781,-0.073 0,0 0,0 0,0 z m 2.10464,1.5658 c 0.70812,0.51865 1.41298,1.04226 2.1045,1.5829 v 0 c 0.18032,0.14102 0.21223,0.40153 0.0712,0.58195 -0.14086,0.18011 -0.40107,0.21218 -0.58143,0.0717 -0.68788,-0.5363 -1.37991,-1.06718 -2.07293,-1.59671 v 0 c -0.17535,-0.13399 -0.20889,-0.38472 -0.075,-0.56006 0.13207,-0.17289 0.37817,-0.20832 0.55363,-0.0797 z m 2.1045,1.5829 c 1.06335,0.83142 2.13521,1.65207 3.20537,2.47459 v 0 c 0.186,0.14298 0.2209,0.4096 0.0779,0.5956 -0.14289,0.18598 -0.4096,0.22089 -0.59559,0.0779 -8.2e-4,-5.8e-4 -0.002,-7.4e-4 -0.002,-0.002 -1.06501,-0.83106 -2.13003,-1.66222 -3.19544,-2.49268 v 0 c -0.18058,-0.1408 -0.21287,-0.40128 -0.072,-0.58186 0.14071,-0.18058 0.40118,-0.21286 0.58176,-0.0721 2e-4,8e-5 3.1e-4,2.6e-4 5.1e-4,3.3e-4 z m 3.20537,2.47459 c 1.04292,0.80156 2.08275,1.60786 3.1382,2.39286 v 0 c 0.19485,0.1448 0.23538,0.42027 0.0904,0.61505 -0.14489,0.19486 -0.42027,0.23538 -0.61514,0.0904 -9.2e-4,-7.5e-4 -0.002,-0.002 -0.003,-0.003 -1.05265,-0.79622 -2.09022,-1.61276 -3.1308,-2.42464 v 9e-5 c -0.1849,-0.14432 -0.21785,-0.41123 -0.0735,-0.59624 0.14357,-0.18397 0.40861,-0.21767 0.59368,-0.0754 z m 3.1382,2.39286 c 0.53577,0.3983 1.07933,0.78611 1.62849,1.16588 v 0 c 0.20145,0.13931 0.25187,0.41556 0.11255,0.61702 -0.1394,0.20157 -0.41565,0.25188 -0.61711,0.11257 0,0 0,0 0,0 -0.55839,-0.38618 -1.11,-0.78249 -1.65146,-1.1921 v 0 c -0.19363,-0.14653 -0.23191,-0.42224 -0.0854,-0.61586 0.14561,-0.19249 0.41925,-0.23159 0.6129,-0.0875 z m 1.62849,1.16588 c 0.58022,0.40128 1.1652,0.79567 1.75484,1.18315 v 0 c 0.20233,0.133 0.2585,0.40479 0.1256,0.6071 -0.1321,0.201 -0.40144,0.25805 -0.60366,0.12788 -0.60027,-0.3863 -1.19421,-0.7825 -1.78134,-1.18854 v 0 c -0.20146,-0.13931 -0.25188,-0.41566 -0.11257,-0.61711 0.13941,-0.20148 0.41567,-0.2518 0.61713,-0.11248 z m 1.75484,1.18315 c 0.58157,0.38219 1.16305,0.76458 1.74436,1.14707 v 0 c 0.19373,0.12747 0.24751,0.38781 0.12004,0.58155 -0.12512,0.19009 -0.37893,0.24593 -0.57227,0.12587 -0.59314,-0.36827 -1.18314,-0.74167 -1.77019,-1.11951 v 0 c -0.20362,-0.13098 -0.26249,-0.40231 -0.13141,-0.60594 0.13108,-0.20353 0.40231,-0.2624 0.60595,-0.13132 9.4e-4,7.5e-4 0.002,0.002 0.004,0.003 z m 1.74436,1.14707 c 0.58686,0.38608 1.1856,0.75377 1.79292,1.10671 v 0 c 0.1941,0.11272 0.25998,0.36153 0.14716,0.55564 -0.11272,0.19401 -0.36153,0.25999 -0.55555,0.14717 -9e-5,1e-5 -9e-5,1e-5 -9e-5,1e-5 -0.61725,-0.35881 -1.23003,-0.72542 -1.83667,-1.10211 v 0 c -0.19698,-0.12233 -0.25748,-0.38113 -0.13517,-0.57819 0.12224,-0.19698 0.38113,-0.25748 0.57811,-0.13515 0.003,0.002 0.006,0.004 0.009,0.006 z m 1.79292,1.10671 c 0.61934,0.35991 1.24205,0.714 1.86858,1.06119 v 0 c 0.19454,0.10778 0.26484,0.35283 0.15707,0.54736 -0.10722,0.19344 -0.35053,0.26424 -0.54478,0.15841 -0.63477,-0.34577 -1.26438,-0.70094 -1.88935,-1.06414 v 0 c -0.19402,-0.11283 -0.25999,-0.36154 -0.14717,-0.55565 0.11281,-0.19411 0.36153,-0.25998 0.55565,-0.14717 z m 1.86858,1.06119 c 0.59761,0.33111 1.19801,0.65713 1.80147,0.97727 v 0 c 0.19773,0.1049 0.27308,0.35038 0.1681,0.54812 -0.10489,0.19782 -0.35038,0.27308 -0.54811,0.16818 -0.002,-7.4e-4 -0.003,-0.002 -0.005,-0.002 -0.60109,-0.32916 -1.20257,-0.65752 -1.80446,-0.98527 v 0 c -0.19524,-0.10638 -0.26738,-0.35087 -0.16101,-0.5462 0.10638,-0.19525 0.35087,-0.26738 0.54611,-0.161 8.9e-4,4.7e-4 0.002,7.4e-4 0.003,0.002 z m 1.80147,0.97727 c 0.61116,0.32426 1.22865,0.63682 1.8507,0.93968 v 0 c 0.20463,0.0996 0.28973,0.3462 0.19016,0.55084 -0.0997,0.20454 -0.3463,0.28973 -0.55085,0.19005 0,0 0,0 0,0 -0.63218,-0.30774 -1.25795,-0.62917 -1.87472,-0.9668 v 0 c -0.1964,-0.10758 -0.26845,-0.35396 -0.16096,-0.55036 0.10655,-0.1945 0.34974,-0.26736 0.54567,-0.16341 z m 1.8507,0.93968 c 0.62294,0.30323 1.2504,0.59703 1.88313,0.87907 v 0 c 0.20739,0.0924 0.3006,0.33547 0.2082,0.54286 -0.0923,0.20719 -0.33492,0.30044 -0.54225,0.20851 -0.64199,-0.28477 -1.27837,-0.58209 -1.90977,-0.88955 v 0 c -0.20463,-0.0996 -0.28973,-0.3462 -0.19016,-0.55084 0.0997,-0.20454 0.34621,-0.28972 0.55085,-0.19005 z m 1.88313,0.87907 c 0.5854,0.26088 1.17752,0.50655 1.77725,0.73266 v 0 c 0.22057,0.0832 0.33193,0.32933 0.24872,0.54991 -0.0831,0.22049 -0.32933,0.33184 -0.54982,0.24872 -0.005,-9.4e-4 -0.01,-0.004 -0.0139,-0.006 -0.60168,-0.25138 -1.20022,-0.51006 -1.79625,-0.77437 v 0 c -0.20753,-0.0921 -0.3012,-0.33503 -0.20911,-0.54258 0.092,-0.20753 0.33494,-0.3012 0.54248,-0.2091 2e-4,7e-5 4.9e-4,1.4e-4 6.9e-4,3.1e-4 z m 1.77725,0.73266 c 0.60454,0.22798 1.20877,0.45665 1.81269,0.68601 v 0 c 0.23047,0.0875 0.34632,0.34529 0.25874,0.57566 -0.0874,0.23046 -0.34519,0.34631 -0.57556,0.25873 -8.9e-4,-2.9e-4 -0.002,-5.6e-4 -0.003,-6.5e-4 -0.60585,-0.23426 -1.20896,-0.47587 -1.80837,-0.72635 v 0 c -0.21751,-0.0909 -0.3201,-0.34081 -0.22922,-0.55832 0.0887,-0.212 0.32919,-0.3158 0.54427,-0.23476 z m 1.81269,0.68601 c 0.60914,0.23137 1.22028,0.45744 1.83354,0.67754 v 0 c 0.23356,0.0838 0.35492,0.34101 0.27116,0.57458 -0.0839,0.23357 -0.3411,0.35492 -0.57467,0.27117 0,0 0,0 0,0 -0.61923,-0.22231 -1.2357,-0.45255 -1.84941,-0.68987 v 0 c -0.22984,-0.0888 -0.34416,-0.3473 -0.25521,-0.57715 0.0885,-0.22887 0.34521,-0.34338 0.57459,-0.25627 z m 1.83354,0.67754 c 0.58934,0.21143 1.18464,0.40641 1.78533,0.58319 v 0 c 0.23752,0.07 0.37332,0.31913 0.30346,0.55663 -0.0698,0.23713 -0.31849,0.37298 -0.55576,0.30365 -0.61804,-0.18047 -1.23053,-0.38027 -1.83654,-0.59772 v 0 c -0.23357,-0.0839 -0.35492,-0.34111 -0.27108,-0.57468 0.0838,-0.23356 0.3411,-0.35492 0.57459,-0.27107 z m 1.78533,0.58319 c 0.61986,0.18254 1.24552,0.34544 1.87466,0.49261 v 0 c 0.24055,0.0564 0.38991,0.29694 0.33356,0.53749 -0.0563,0.24045 -0.29686,0.38981 -0.53741,0.33355 0,0 0,0 0,0 -0.64519,-0.15108 -1.28697,-0.3175 -1.9231,-0.50327 v 0 c -0.23765,-0.0694 -0.37401,-0.31839 -0.30462,-0.55604 0.0694,-0.23765 0.31838,-0.374 0.55603,-0.30462 3e-4,1.6e-4 5.9e-4,2.2e-4 8.8e-4,2.8e-4 z m 1.87466,0.49261 c 0.65514,0.15334 1.31266,0.29664 1.97228,0.42935 v 0 c 0.23778,0.0478 0.39168,0.27932 0.3438,0.51702 -0.0472,0.23499 -0.27425,0.38861 -0.50998,0.34515 -0.67317,-0.12414 -1.3434,-0.26453 -2.00995,-0.42048 v 0 c -0.24055,-0.0564 -0.3898,-0.29695 -0.33354,-0.5374 0.0563,-0.24055 0.29685,-0.3899 0.53739,-0.33364 z m 1.97228,0.42935 c 0.62437,0.12559 1.25002,0.24434 1.87742,0.35359 v 0 c 0.23433,0.0408 0.3912,0.2637 0.35034,0.49803 -0.0407,0.23422 -0.26362,0.39111 -0.49784,0.35051 -0.63266,-0.10992 -1.26466,-0.22349 -1.8961,-0.33996 v 0 c -0.23843,-0.0439 -0.39612,-0.27291 -0.3521,-0.51134 0.0439,-0.23842 0.27292,-0.39612 0.51135,-0.35219 0.002,4.6e-4 0.005,9.4e-4 0.007,9.4e-4 z m 1.87742,0.35359 c 0.6053,0.10528 1.21183,0.20403 1.81923,0.29676 v 0 c 0.23744,0.0362 0.40051,0.25803 0.36431,0.49537 -0.0362,0.23744 -0.25804,0.40052 -0.49548,0.36432 -9.4e-4,-2.8e-4 -0.003,-3.7e-4 -0.004,-5.6e-4 -0.61107,-0.099 -1.22165,-0.20142 -1.83154,-0.30727 v 0 c -0.23432,-0.0408 -0.39138,-0.26369 -0.35062,-0.49801 0.0407,-0.23432 0.26361,-0.39129 0.49793,-0.35061 0,0 9e-5,-1e-5 1.9e-4,7e-5 z m 1.81923,0.29676 c 0.57903,0.0883 1.15863,0.17197 1.73928,0.24848 v 0 c 0.24057,0.0317 0.40974,0.25237 0.37801,0.49293 -0.0316,0.24046 -0.25236,0.40975 -0.49283,0.37801 -0.58783,-0.0776 -1.17428,-0.16546 -1.75965,-0.26036 v 0 c -0.23701,-0.0384 -0.39808,-0.26177 -0.35957,-0.49888 0.0381,-0.23546 0.25895,-0.39618 0.49476,-0.36018 z m 1.73928,0.24848 c 0.53658,0.0707 1.07343,0.13953 1.61044,0.2063 v 0 c 0.24792,0.0309 0.42387,0.25676 0.39308,0.50458 -0.0309,0.24783 -0.25677,0.42378 -0.5046,0.39299 -0.005,-4.6e-4 -0.01,-9e-4 -0.0145,-0.002 -0.53205,-0.0837 -1.06521,-0.16056 -1.5992,-0.23093 v 0 c -0.24048,-0.0317 -0.40975,-0.25237 -0.37802,-0.49293 0.0316,-0.24046 0.25237,-0.40974 0.49284,-0.378 0,0 0,0 0,0 z m 1.61044,0.2063 c 0.52039,0.0647 1.04103,0.12627 1.56209,0.18458 v 0 c 0.25684,0.0286 0.44175,0.26011 0.41303,0.51697 -0.0286,0.25674 -0.26013,0.44166 -0.51697,0.41302 -9.3e-4,-1.8e-4 -0.002,-2.8e-4 -0.003,-4.6e-4 -0.5283,-0.0627 -1.05541,-0.13592 -1.58105,-0.21857 v 0 c -0.24667,-0.0388 -0.41527,-0.27028 -0.37644,-0.51704 0.0379,-0.24111 0.26031,-0.40858 0.5025,-0.37852 z m 1.56209,0.18458 c 0.47896,0.0535 0.95738,0.11177 1.43472,0.1778 v 0 c 0.25842,0.0357 0.43887,0.27417 0.40313,0.53259 -0.0357,0.25833 -0.27418,0.43887 -0.5325,0.40312 -8.6e-4,-1e-4 -0.002,-1.7e-4 -0.003,-3.6e-4 -0.46908,-0.0675 -0.93922,-0.1277 -1.40984,-0.18356 v 0 c -0.25666,-0.0305 -0.43991,-0.26313 -0.40946,-0.51978 0.0303,-0.25532 0.26102,-0.43837 0.51654,-0.40978 z m 1.43472,0.1778 c 0.40404,0.0558 0.80733,0.11722 1.20904,0.188 v 0 c 0.25896,0.0456 0.43189,0.29253 0.3862,0.55142 -0.0456,0.25887 -0.29244,0.43179 -0.5514,0.3862 -9.4e-4,-1.8e-4 -0.002,-3.7e-4 -0.003,-6.4e-4 -0.38943,-0.0715 -0.78059,-0.13327 -1.17252,-0.1897 v 0 c -0.25819,-0.0371 -0.43732,-0.2765 -0.40023,-0.53468 0.037,-0.25724 0.27481,-0.4363 0.53219,-0.40064 z m 1.20904,0.188 c 0.30565,0.0538 0.61097,0.11084 0.91336,0.18063 v 0 c 0.25718,0.0594 0.41753,0.31608 0.35808,0.57327 -0.0594,0.25717 -0.31598,0.41751 -0.57325,0.35817 -0.28714,-0.0663 -0.57683,-0.1219 -0.86667,-0.17506 v 0 c -0.25858,-0.0474 -0.42975,-0.29548 -0.38232,-0.55407 0.0472,-0.25734 0.29318,-0.42829 0.5508,-0.38294 z m 0.91336,0.18063 c 0.20617,0.0477 0.41215,0.0998 0.61197,0.17006 v 0 c 0.24622,0.0867 0.37567,0.3566 0.28898,0.60292 -0.0839,0.23828 -0.34025,0.36861 -0.58212,0.2958 -0.17597,-0.0529 -0.35498,-0.096 -0.534,-0.13734 v 0 c -0.25718,-0.0594 -0.41753,-0.31608 -0.35818,-0.57325 0.0595,-0.25719 0.31607,-0.41763 0.57326,-0.35818 0,0 0,0 9e-5,-1e-5 z m 0.61197,0.17006 c 0.15963,0.0563 0.32228,0.12556 0.44992,0.23955 v 0 c 0.19079,0.17031 0.20734,0.46306 0.0371,0.65385 -0.16051,0.17968 -0.43204,0.20632 -0.62436,0.0615 0.017,0.0128 -0.0236,-0.01 -0.0296,-0.0122 -0.0411,-0.0171 -0.0834,-0.0309 -0.12608,-0.0437 v 0 c -0.25003,-0.0752 -0.39177,-0.33891 -0.31659,-0.58895 0.0752,-0.25005 0.33892,-0.39168 0.58896,-0.3165 0.007,0.002 0.0139,0.005 0.0207,0.007 z m 0.44992,0.23955 c 0.12837,0.11459 0.22594,0.26705 0.23683,0.44258 v 0 c 0.0154,0.24731 -0.17274,0.46031 -0.41997,0.47557 -0.16036,0.01 -0.31385,-0.0665 -0.40235,-0.20059 -0.006,-0.005 0.008,0.005 -0.002,-0.003 v 0 c -0.2042,-0.15403 -0.24476,-0.4445 -0.0907,-0.64861 0.15404,-0.2042 0.4444,-0.24484 0.64861,-0.0907 0.0102,0.007 0.02,0.0158 0.0295,0.0242 z m -1.24104,0.53189 c 0.23032,-0.10812 0.46519,-0.21416 0.68327,-0.34592 l -1.1e-4,-9e-5 c 0.15711,-0.19159 0.43983,-0.21956 0.63145,-0.0622 0.0963,0.0791 0.15548,0.19469 0.16329,0.31904 l -0.024,0.17648 c -0.0158,0.0456 -0.0387,0.0883 -0.0681,0.12651 -0.14245,0.18575 -0.3678,0.19914 -0.58074,0.21031 -0.2348,0.0124 -0.4702,0.0144 -0.70515,0.0161 v 0 c -0.12752,8.7e-4 -0.23163,-0.10168 -0.2326,-0.22928 -7.8e-4,-0.0901 0.0512,-0.17231 0.1327,-0.21069 z" /><path
       inkscape:connector-curvature="0"
       id="path3466"
       style="fill:#d34f21;fill-opacity:1;fill-rule:nonzero;stroke:none"
       d="m 160.67796,106.15031 c 0.93196,-0.10981 1.87954,-0.2172 2.81973,-0.18842 v 0 c 0.23205,0.007 0.41435,0.20092 0.40728,0.43297 -0.007,0.23205 -0.20102,0.41446 -0.43307,0.40729 -0.003,-1e-4 -0.007,-1.8e-4 -0.0101,2e-5 -0.89968,-0.0493 -1.81008,0.0297 -2.70561,0.10852 v 0 c -0.2102,0.0186 -0.39559,-0.13681 -0.41411,-0.34702 -0.0182,-0.20582 0.13068,-0.38872 0.33589,-0.41286 l -10e-6,-1e-4 z m 2.81973,-0.18842 c 0.7744,0.0237 1.54869,0.0522 2.323,0.0819 v 0 c 0.23818,0.009 0.4239,0.2097 0.41474,0.44789 -0.009,0.23819 -0.2097,0.4239 -0.44788,0.41484 0,0 0,0 0,0 -0.77543,-0.0299 -1.55092,-0.0622 -2.32574,-0.1047 v 0 c -0.23183,-0.0127 -0.40946,-0.21099 -0.39673,-0.44281 0.0125,-0.22778 0.2045,-0.40406 0.43261,-0.39708 z m 2.323,0.0819 c 0.8397,0.0322 1.67947,0.0659 2.51909,0.10209 v 0 c 0.2273,0.01 0.40371,0.20202 0.39383,0.42933 -0.01,0.22184 -0.19315,0.39616 -0.41511,0.39428 -0.84387,-0.007 -1.68761,-0.0307 -2.53096,-0.0631 l 1e-5,1e-4 c -0.23819,-0.009 -0.4239,-0.2097 -0.41475,-0.44799 0.009,-0.23819 0.2096,-0.42389 0.44789,-0.41474 z m 2.51909,0.10209 c 0.84578,0.0365 1.69214,0.0571 2.53846,0.0695 v 0 c 0.21345,0.003 0.38392,0.17872 0.38075,0.39207 -0.003,0.21214 -0.1767,0.3821 -0.38886,0.38072 -0.85053,-0.005 -1.70111,-0.0115 -2.55163,-0.0187 v 0 c -0.22749,-0.002 -0.4104,-0.18797 -0.40839,-0.41547 0.002,-0.22759 0.18797,-0.4104 0.41546,-0.40849 0.005,-1e-5 0.009,8e-5 0.0142,5.5e-4 z m 2.53856,0.0695 c 1.00763,0.0149 2.01501,0.0431 3.02204,0.0806 v 0 c 0.18971,0.007 0.33773,0.16659 0.33071,0.35621 -0.007,0.18357 -0.15679,0.32939 -0.34049,0.33101 -1.00679,0.009 -2.01362,0.0114 -3.02047,0.005 v 0 c -0.21346,-0.001 -0.38529,-0.17547 -0.38393,-0.38883 0.001,-0.21346 0.17547,-0.3853 0.38883,-0.38394 10e-4,0 0.002,0 0.003,0 z m 3.02204,0.0806 c 1.13115,0.0421 2.26285,0.0719 3.39457,0.0931 v 0 c 0.14334,0.003 0.25736,0.12108 0.25472,0.26441 -0.003,0.13808 -0.1128,0.24996 -0.25085,0.25462 -1.13564,0.0384 -2.27188,0.0651 -3.40822,0.0751 v 0 c -0.18983,0.002 -0.34507,-0.15086 -0.34671,-0.34069 -0.002,-0.18983 0.15086,-0.34506 0.34069,-0.34671 0.005,-1.2e-4 0.0105,-8e-5 0.0158,3.8e-4 z m 3.39457,0.0931 c 1.27849,0.0241 2.55753,0.0174 3.83583,-0.0101 v 0 c 0.11134,-0.002 0.20357,0.0859 0.20598,0.19724 0.002,0.11055 -0.0847,0.20244 -0.19524,0.20598 -1.28085,0.0408 -2.56181,0.0826 -3.8426,0.12593 v 0 c -0.14337,0.005 -0.26338,-0.1074 -0.26827,-0.25065 -0.005,-0.14337 0.10739,-0.26338 0.25064,-0.26827 0.005,-2.2e-4 0.009,-1.3e-4 0.0136,-4e-4 z m 3.83583,-0.0101 c 1.3708,-0.0293 2.74138,-0.0716 4.1115,-0.12607 v 0 c 0.10417,-0.004 0.19189,0.077 0.19607,0.18108 0.004,0.10407 -0.0767,0.19175 -0.18067,0.19603 -1.37183,0.0575 -2.74383,0.10833 -4.11606,0.15217 v 0 c -0.11133,0.003 -0.20445,-0.0838 -0.20807,-0.19512 -0.003,-0.11134 0.0838,-0.20446 0.19513,-0.20798 7e-4,-7e-5 0.001,0 0.002,-1e-4 z m 4.1115,-0.12607 c 1.36622,-0.0544 2.73233,-0.11167 4.09832,-0.17216 l 1e-5,1e-4 c 0.10277,-0.005 0.18977,0.075 0.19432,0.17774 0.005,0.10267 -0.0751,0.18958 -0.17775,0.19422 -1.36644,0.0609 -2.73298,0.11998 -4.0995,0.17721 v 0 c -0.10417,0.005 -0.19215,-0.0765 -0.19653,-0.18063 -0.005,-0.10417 0.0765,-0.19214 0.18072,-0.19654 1e-4,-10e-6 2.1e-4,8e-5 4.1e-4,6e-5 z m 4.09842,-0.17217 c 1.41954,-0.0627 2.83856,-0.13527 4.25718,-0.21475 v 0 c 0.10268,-0.006 0.19056,0.0728 0.1963,0.17542 0.006,0.10268 -0.0728,0.19056 -0.17542,0.1963 0,0 0,0 -1e-4,10e-6 -1.42005,0.0793 -2.84061,0.15166 -4.26148,0.21509 v 0 c -0.10267,0.005 -0.18967,-0.075 -0.19432,-0.17774 -0.005,-0.10267 0.075,-0.18967 0.17774,-0.19432 0,0 0,0 1.1e-4,9e-5 z m 4.25718,-0.21475 c 1.4572,-0.0816 2.91436,-0.16468 4.37136,-0.24922 v 0 c 0.10287,-0.006 0.19093,0.0725 0.19699,0.17535 0.006,0.10287 -0.0726,0.19104 -0.17545,0.197 -1.45721,0.0845 -2.9146,0.16722 -4.37212,0.2486 v 0 c -0.10268,0.006 -0.19046,-0.0728 -0.1962,-0.17543 -0.006,-0.10268 0.0728,-0.19056 0.17542,-0.1963 z m 4.37136,-0.24922 c 2.11845,-0.12287 4.236,-0.26143 6.35342,-0.40017 v 0 c 0.10287,-0.007 0.19159,0.0711 0.19835,0.1739 0.007,0.10277 -0.0712,0.19159 -0.1739,0.19835 0,0 0,0 0,0 -2.11833,0.13874 -4.23688,0.2773 -6.35633,0.40027 v 0 c -0.10277,0.006 -0.19094,-0.0726 -0.19689,-0.17536 -0.006,-0.10287 0.0725,-0.19103 0.17535,-0.19699 0,0 0,0 0,0 z m 6.35342,-0.40017 c 2.09915,-0.13757 4.19822,-0.27493 6.29782,-0.4042 v 0 c 0.10286,-0.007 0.19147,0.072 0.19774,0.17487 0.007,0.10286 -0.0719,0.19146 -0.17487,0.19774 0,0 0,0 0,0 -2.09916,0.12863 -4.1977,0.26623 -6.29624,0.40384 v 0 c -0.10277,0.007 -0.1916,-0.0712 -0.19825,-0.17391 -0.007,-0.10287 0.071,-0.19159 0.1738,-0.19834 z m 6.29782,-0.4042 c 1.32521,-0.0815 2.65064,-0.16197 3.97599,-0.2413 v 0 c 0.10296,-0.007 0.1915,0.0723 0.19768,0.17528 0.007,0.10296 -0.0724,0.19151 -0.17537,0.19769 0,0 0,0 0,0 -1.32526,0.0792 -2.65037,0.15983 -3.97543,0.24094 v 0 c -0.10287,0.007 -0.19138,-0.072 -0.19775,-0.17487 -0.007,-0.10287 0.072,-0.19138 0.17488,-0.19774 z m 3.97599,-0.2413 c 1.23313,-0.0738 2.4665,-0.14221 3.7003,-0.20458 v 0 c 0.10257,-0.006 0.18995,0.0737 0.19518,0.17635 0.006,0.10257 -0.0737,0.18994 -0.17633,0.19528 -1.2325,0.0632 -2.46482,0.13218 -3.69684,0.20592 v 0 c -0.10297,0.007 -0.19142,-0.0724 -0.1976,-0.17538 -0.007,-0.10287 0.0723,-0.19141 0.17529,-0.19759 0,0 0,0 0,0 z m 3.7003,-0.20458 c 1.12608,-0.057 2.25229,-0.11181 3.37873,-0.16333 v 0 c 0.10208,-0.004 0.18861,0.0744 0.19329,0.17644 0.004,0.10208 -0.0743,0.1886 -0.17633,0.19337 -1.12581,0.0519 -2.25135,0.1073 -3.37684,0.16515 v 0 c -0.10257,0.006 -0.19005,-0.0737 -0.19528,-0.17633 -0.006,-0.10258 0.0736,-0.19004 0.17623,-0.19528 1e-4,-1e-5 1e-4,-1e-5 2e-4,-2e-5 z m 3.37873,-0.16333 c 0.94085,-0.043 1.88156,-0.097 2.82047,-0.17241 v 0 c 0.12416,-0.01 0.23289,0.0826 0.24285,0.20672 0.01,0.12415 -0.0826,0.23288 -0.20672,0.24285 -0.005,4.1e-4 -0.01,6.2e-4 -0.0145,6.8e-4 -0.94215,0.0147 -1.88393,0.0486 -2.82513,0.092 v 0 c -0.10218,0.004 -0.1887,-0.0743 -0.19338,-0.17642 -0.004,-0.10208 0.0743,-0.1887 0.17632,-0.19338 0,0 0,0 1e-4,-1e-5 z m 2.82047,-0.17241 c 0.73133,-0.0588 1.46224,-0.1275 2.19025,-0.21943 v 0 c 0.17994,-0.0225 0.34421,0.10451 0.36705,0.28441 0.0225,0.17994 -0.1045,0.34421 -0.28441,0.36706 -0.0141,0.002 -0.0283,0.003 -0.0426,0.002 -0.73624,-0.003 -1.47256,0.005 -2.20866,0.0161 v 0 c -0.12455,0.002 -0.22707,-0.0975 -0.22902,-0.22191 -0.002,-0.11893 0.089,-0.21886 0.20741,-0.22834 z m 2.19025,-0.21943 c 0.66009,-0.0837 1.32135,-0.15913 1.9832,-0.22777 v 0 c 0.25245,-0.0262 0.47822,0.15726 0.5044,0.40971 0.0262,0.25234 -0.15725,0.47821 -0.40971,0.5043 -0.0203,0.002 -0.0407,0.003 -0.0612,0.002 -0.65869,-0.0199 -1.31761,-0.032 -1.97661,-0.0344 v 0 c -0.18133,-7.4e-4 -0.3278,-0.14822 -0.32716,-0.32953 6.1e-4,-0.16493 0.12344,-0.30384 0.28707,-0.32461 z m 1.9832,-0.22777 c 0.27393,-0.0284 0.54804,-0.0561 0.82257,-0.0776 0.15102,-0.0125 0.30609,-0.0295 0.45779,-0.0188 v 0 c 0.29115,0.0197 0.51112,0.27179 0.49133,0.56295 -0.0197,0.29115 -0.2718,0.51112 -0.56294,0.49143 0,0 0,0 0,0 -0.39067,-0.0265 -0.78394,-0.0295 -1.17521,-0.0413 v 0 c -0.25362,-0.008 -0.45305,-0.21947 -0.44538,-0.47308 0.007,-0.23003 0.18301,-0.41945 0.41188,-0.44321 z m 1.28032,-0.0968 c 0.35675,0.0242 0.66576,0.28875 0.65208,0.66563 v 0 c -0.0105,0.28789 -0.25233,0.51263 -0.54022,0.50216 -0.13168,-0.005 -0.25672,-0.0593 -0.34996,-0.15257 l 3.3e-4,2.7e-4 c -0.26964,-0.11158 -0.39786,-0.42057 -0.28639,-0.6903 0.0868,-0.20969 0.29779,-0.34059 0.52416,-0.32519 z m -0.44935,1.006 c 0.0192,-0.0864 0.0378,-0.17328 0.0513,-0.26082 0.003,-0.0143 0.005,-0.0996 0.01,-0.0515 v 0 c -0.0255,-0.28689 0.18544,-0.54043 0.47227,-0.56653 0.2868,-0.0265 0.54053,0.18542 0.56654,0.47227 0.002,0.022 0.003,0.0441 0.002,0.0661 -0.01,0.26781 -0.20371,0.46933 -0.44265,0.56027 -0.12179,0.0464 -0.25147,0.0699 -0.38039,0.0861 v 0 c -0.13866,0.0173 -0.26507,-0.0809 -0.28245,-0.21944 -0.004,-0.0289 -0.002,-0.0581 0.004,-0.0865 z" /><path
       inkscape:connector-curvature="0"
       id="path3470"
       style="fill:#d34f21;fill-opacity:1;fill-rule:nonzero;stroke:none;stroke-width:1"
       d="m 237.89599,156.65258 v 0 c 0.0684,-0.0875 0.17352,-0.13839 0.28461,-0.13766 l -1.1e-4,-1.8e-4 c 0.15501,-0.0169 0.30825,0.0443 0.40905,0.16322 0.0983,0.11608 0.14159,0.27328 0.10292,0.42438 -0.0612,0.23851 -0.29617,0.37729 -0.52793,0.34408 v 0 c -0.25673,-0.0368 -0.43496,-0.27476 -0.3982,-0.53149 0.0143,-0.099 0.0597,-0.19091 0.12975,-0.26236 z m 0.47259,-0.18615 c 0.0772,0.066 0.15515,0.1338 0.22097,0.21162 v 0 c 0.16769,0.19788 0.14311,0.4942 -0.0548,0.66188 -0.10255,0.0868 -0.2372,0.12553 -0.37017,0.10648 -0.16206,-0.0232 -0.30575,-0.11254 -0.43119,-0.21337 v 0 c -0.21437,-0.17213 -0.24861,-0.4855 -0.0767,-0.69984 0.17212,-0.21436 0.4855,-0.24861 0.69984,-0.0768 0.004,0.004 0.008,0.007 0.0117,0.01 z m -0.61036,-0.5987 c 0.19971,0.20108 0.39474,0.41434 0.61037,0.59879 v 0 c 0.20899,0.17862 0.23361,0.4929 0.055,0.70189 -0.17484,0.20446 -0.4804,0.23308 -0.69016,0.0644 -0.24388,-0.19578 -0.4642,-0.42586 -0.6885,-0.64309 v 0 c -0.20134,-0.19498 -0.20659,-0.51632 -0.0115,-0.71768 0.19496,-0.20144 0.51633,-0.2066 0.71767,-0.0116 0.002,0.003 0.005,0.004 0.008,0.007 z m -0.85997,-0.79728 c 0.30637,0.24226 0.58522,0.52046 0.85997,0.79728 v 0 c 0.19751,0.19895 0.19636,0.52031 -0.003,0.71782 -0.19613,0.19466 -0.51206,0.19673 -0.71068,0.005 -0.26126,-0.25294 -0.52293,-0.50621 -0.7944,-0.74839 v 0 c -0.20769,-0.18517 -0.22594,-0.50358 -0.0408,-0.71118 0.17748,-0.19907 0.47931,-0.22533 0.68846,-0.06 z m -2.09076,-1.32286 c 0.46525,0.28116 0.92984,0.56335 1.3895,0.85349 0.23683,0.14944 0.48124,0.29547 0.70126,0.46937 v 0 c 0.21818,0.17258 0.25522,0.48935 0.0827,0.70762 -0.17248,0.21828 -0.48934,0.25523 -0.70752,0.0827 -0.008,-0.006 -0.0155,-0.0126 -0.0228,-0.0192 -0.20395,-0.18178 -0.39505,-0.37894 -0.588,-0.57204 -0.38339,-0.38392 -0.76319,-0.77141 -1.14245,-1.15924 v 0 c -0.0902,-0.0921 -0.0885,-0.23979 0.004,-0.32982 0.076,-0.0744 0.1927,-0.0879 0.2837,-0.0329 z" /><path
       inkscape:connector-curvature="0"
       id="path3472"
       style="fill:#d34f21;fill-opacity:1;fill-rule:nonzero;stroke:none;stroke-width:1"
       d="m 237.9618,156.97497 c 9.1e-4,-0.009 0.002,-0.0181 0.003,-0.0273 v 0 c 0.0152,-0.19737 0.18764,-0.34498 0.38492,-0.32973 0.14889,0.0115 0.27506,0.1141 0.31662,0.25752 0.061,0.21009 0.0851,0.44414 -0.0473,0.63394 v 0 c -0.13412,0.19235 -0.39891,0.2396 -0.59125,0.10547 -0.19245,-0.13419 -0.23959,-0.3989 -0.10548,-0.59124 0.012,-0.0173 0.0252,-0.0335 0.0396,-0.0487 h 1e-4 z m -0.0492,-0.0433 c 0.0582,-0.0126 0.1226,-0.0238 0.17703,-0.0494 v 0 c 0.2122,-0.0999 0.4652,-0.008 0.56504,0.20337 0.0647,0.13755 0.051,0.29919 -0.0359,0.42377 -0.0925,0.13271 -0.23017,0.22779 -0.36958,0.30562 v 0 c -0.23028,0.12848 -0.52124,0.0461 -0.64976,-0.18447 -0.12849,-0.23029 -0.0461,-0.52124 0.18438,-0.64975 0.0403,-0.0224 0.0837,-0.039 0.12877,-0.0491 z m -0.44386,0.10615 c 0.14756,-0.0371 0.29542,-0.073 0.44386,-0.10615 v 0 c 0.25751,-0.0573 0.51273,0.10483 0.57008,0.36234 0.046,0.20616 -0.049,0.41805 -0.23347,0.52098 -0.16153,0.0901 -0.33637,0.15534 -0.51365,0.20698 v 0 c -0.27041,0.0786 -0.55343,-0.0768 -0.63209,-0.34719 -0.0786,-0.27041 0.0768,-0.55342 0.34719,-0.63208 0.007,-0.002 0.0121,-0.003 0.0181,-0.005 z m -0.53878,0.13874 c 0.17934,-0.0471 0.35895,-0.0935 0.53878,-0.13874 v 0 c 0.27314,-0.0687 0.55023,0.0971 0.61889,0.37014 0.0669,0.26606 -0.0887,0.53739 -0.35207,0.61401 -0.18626,0.0541 -0.37445,0.10146 -0.56357,0.14431 v 0 c -0.27447,0.0622 -0.5473,-0.10984 -0.60951,-0.38431 -0.0608,-0.26782 0.10181,-0.53562 0.36748,-0.60541 z m -0.63595,0.1743 c 0.2115,-0.06 0.42335,-0.11846 0.63595,-0.1743 v 0 c 0.27218,-0.0715 0.55075,0.0912 0.62225,0.36338 0.0714,0.2722 -0.0913,0.55076 -0.36347,0.62226 -0.006,0.002 -0.0111,0.003 -0.0168,0.004 -0.20388,0.0462 -0.4064,0.0981 -0.60804,0.15313 v 0 c -0.26786,0.0732 -0.54432,-0.0846 -0.61753,-0.35245 -0.0726,-0.26594 0.0824,-0.5408 0.3476,-0.6161 z m -0.65717,0.20902 c 0.21649,-0.0775 0.43606,-0.14618 0.65717,-0.20902 v 0 c 0.26712,-0.0759 0.54518,0.0791 0.62096,0.34625 0.0759,0.26713 -0.0792,0.54508 -0.34626,0.62096 -0.002,4.8e-4 -0.004,9.4e-4 -0.005,9.4e-4 -0.20934,0.0572 -0.4182,0.1153 -0.62682,0.17487 v 0 c -0.26076,0.0745 -0.53245,-0.0765 -0.60702,-0.33721 -0.0711,-0.24885 0.0631,-0.51005 0.30673,-0.59719 z m -0.59498,0.21677 c 0.19796,-0.0734 0.39622,-0.14566 0.59498,-0.21677 v 0 c 0.25534,-0.0914 0.5364,0.0416 0.62776,0.29689 0.0914,0.25534 -0.0416,0.53631 -0.29689,0.62767 -0.01,0.004 -0.0203,0.007 -0.0306,0.01 -0.1968,0.0562 -0.39263,0.11549 -0.58772,0.17736 v 0 c -0.24926,0.0789 -0.51518,-0.059 -0.59421,-0.30817 -0.0763,-0.24076 0.0499,-0.49897 0.28667,-0.58682 z m -1.53859,0.75002 c 0.3223,-0.16738 0.64538,-0.33363 0.9716,-0.49321 0.18597,-0.0909 0.37276,-0.18474 0.56699,-0.25681 v 0 c 0.24512,-0.0908 0.51745,0.0341 0.60832,0.27928 0.0909,0.24511 -0.0341,0.51744 -0.27927,0.60831 -0.008,0.003 -0.0143,0.006 -0.0216,0.007 -0.20295,0.0643 -0.41699,0.0978 -0.6264,0.13324 -0.35922,0.0607 -0.72005,0.11128 -1.08109,0.15986 v 0 c -0.12766,0.0169 -0.24511,-0.0723 -0.26223,-0.20003 -0.0128,-0.0975 0.0363,-0.19264 0.12358,-0.23803 z" /><path
       inkscape:connector-curvature="0"
       id="path3474"
       style="fill:#d34f21;fill-opacity:1;fill-rule:nonzero;stroke:none"
       d="m 229.57577,103.41542 c 0.0829,0.0187 0.16521,0.003 0.2486,-0.0128 v 0 c 0.2072,-0.0399 0.40754,0.0957 0.44755,0.30276 0.0365,0.18946 -0.0739,0.37645 -0.25752,0.43586 -0.18767,0.0607 -0.39225,0.11537 -0.59075,0.0855 v 0 c -0.22555,-0.0339 -0.381,-0.24417 -0.34722,-0.46971 0.0339,-0.22566 0.24417,-0.38101 0.46981,-0.34723 0.0102,9.6e-4 0.0197,0.003 0.0296,0.006 z m -0.3064,-0.15715 c 0.11564,0.0609 0.23304,0.12711 0.35626,0.17172 v 0 c 0.21447,0.0776 0.32531,0.31455 0.24767,0.52902 -0.067,0.18494 -0.25513,0.29699 -0.44975,0.26776 -0.17909,-0.0269 -0.35314,-0.0946 -0.52137,-0.15945 v 0 c -0.22934,-0.0883 -0.34361,-0.34583 -0.25533,-0.57518 0.0884,-0.22935 0.34592,-0.34372 0.57527,-0.25534 0.0161,0.006 0.0319,0.0134 0.0473,0.0215 z m -0.85211,-0.43976 c 0.28468,0.14532 0.56937,0.29083 0.85221,0.43975 v 0 c 0.21747,0.11453 0.30096,0.3836 0.18643,0.60107 -0.10511,0.19971 -0.3431,0.28915 -0.55372,0.20799 -0.311,-0.11978 -0.61047,-0.27111 -0.90693,-0.42255 v 0 c -0.22823,-0.11654 -0.31873,-0.39605 -0.20218,-0.62418 0.11654,-0.22823 0.39605,-0.31873 0.62419,-0.20208 0,0 0,0 0,0 z m -1.94688,-0.87746 c 0.65413,0.27829 1.31352,0.55392 1.94688,0.87746 v 0 c 0.22823,0.11654 0.31872,0.39595 0.20218,0.62418 -0.11655,0.22813 -0.39606,0.31863 -0.62419,0.20208 -0.64821,-0.33107 -1.22351,-0.82596 -1.77816,-1.29021 v 0 c -0.10374,-0.0868 -0.11754,-0.24143 -0.0305,-0.34529 0.0693,-0.0828 0.18466,-0.11049 0.28391,-0.0682 z" /><path
       inkscape:connector-curvature="0"
       id="path3476"
       style="fill:#d34f21;fill-opacity:1;fill-rule:nonzero;stroke:none"
       d="m 229.90535,103.69715 c -8.3e-4,-0.0179 -0.002,-0.0358 -0.004,-0.0536 v 0 c -0.0216,-0.20989 0.13099,-0.3975 0.34088,-0.41911 0.20989,-0.0216 0.3976,0.13098 0.41921,0.34087 0.011,0.10654 0.0262,0.21575 0.0212,0.32313 v 0 c -0.01,0.22527 -0.2002,0.4 -0.42547,0.39032 -0.22529,-0.01 -0.40001,-0.2003 -0.39033,-0.42557 0.002,-0.054 0.0154,-0.10714 0.0384,-0.15616 l 1e-5,1e-4 z m -5.2e-4,-0.0637 c 0.043,-0.0306 0.086,-0.0611 0.12863,-0.0923 v 0 c 0.18203,-0.13304 0.43755,-0.0933 0.5705,0.0889 0.0546,0.0747 0.0822,0.16575 0.0782,0.25824 -0.007,0.15378 -0.0838,0.29323 -0.18398,0.40618 v 0 c -0.16374,0.18473 -0.44638,0.20176 -0.63113,0.0379 -0.18474,-0.16374 -0.20166,-0.4463 -0.0379,-0.63103 0.0225,-0.0254 0.0479,-0.0483 0.0756,-0.0679 z m -0.18535,0.10282 c 0.0632,-0.0305 0.12793,-0.062 0.18535,-0.10282 v 0 c 0.20122,-0.14295 0.48032,-0.0958 0.62338,0.10553 0.1204,0.16956 0.10801,0.39984 -0.03,0.55549 -0.0843,0.0951 -0.18346,0.17671 -0.28492,0.2527 v 0 c -0.21082,0.15802 -0.50969,0.11509 -0.6677,-0.0956 -0.15792,-0.21084 -0.115,-0.50971 0.0957,-0.66762 0.0245,-0.0184 0.0507,-0.0343 0.0781,-0.0477 z m -0.64389,0.32223 c 0.21413,-0.1084 0.42787,-0.21766 0.64389,-0.32223 v 0 c 0.2371,-0.11478 0.52236,-0.0156 0.63713,0.22143 0.0995,0.20549 0.0396,0.45263 -0.1433,0.58947 -0.20607,0.15441 -0.43784,0.27789 -0.66185,0.40359 v 0 c -0.24348,0.13675 -0.5519,0.0498 -0.68862,-0.1934 -0.13675,-0.24348 -0.0498,-0.55191 0.1934,-0.68863 0.007,-0.004 0.0127,-0.007 0.0194,-0.01 z m -0.78474,0.43052 c 0.25341,-0.15748 0.51862,-0.29596 0.78465,-0.43051 v 0 c 0.24928,-0.12619 0.55351,-0.0263 0.67969,0.22287 0.12219,0.24166 0.0324,0.5368 -0.20373,0.66938 -0.25336,0.14229 -0.50776,0.28328 -0.76705,0.41483 v 0 c -0.24793,0.12574 -0.55087,0.0266 -0.67672,-0.22127 -0.11807,-0.23294 -0.0386,-0.51737 0.18316,-0.6553 z m -0.91609,0.52858 c 0.30752,-0.17189 0.61687,-0.34257 0.91619,-0.52859 v 0 c 0.23612,-0.14675 0.54646,-0.0743 0.69331,0.16175 0.14675,0.23612 0.0744,0.54656 -0.16176,0.69331 -0.0124,0.007 -0.0251,0.0149 -0.0381,0.0215 -0.32379,0.16421 -0.65106,0.32195 -0.97787,0.48025 v 0 c -0.23219,0.11257 -0.5117,0.0155 -0.62417,-0.21673 -0.10786,-0.22262 -0.0235,-0.49077 0.19239,-0.61151 z m -1.71807,1.21059 c 0.54463,-0.43787 1.10677,-0.8687 1.71807,-1.21059 v 0 c 0.22519,-0.12592 0.50993,-0.0454 0.63585,0.17974 0.12593,0.22529 0.0454,0.50992 -0.17974,0.63584 -0.008,0.005 -0.0161,0.009 -0.0243,0.0127 -0.6221,0.30149 -1.2696,0.5515 -1.91705,0.79227 v 0 c -0.12365,0.0459 -0.26101,-0.017 -0.30701,-0.14061 -0.0359,-0.0963 -0.006,-0.20487 0.0742,-0.26931 z" /></g></svg>