<?xml version="1.0" encoding="UTF-8" standalone="no"?>
<!-- Created with Inkscape (http://www.inkscape.org/) -->

<svg
   xmlns:dc="http://purl.org/dc/elements/1.1/"
   xmlns:cc="http://creativecommons.org/ns#"
   xmlns:rdf="http://www.w3.org/1999/02/22-rdf-syntax-ns#"
   xmlns:svg="http://www.w3.org/2000/svg"
   xmlns="http://www.w3.org/2000/svg"
   xmlns:sodipodi="http://sodipodi.sourceforge.net/DTD/sodipodi-0.dtd"
   xmlns:inkscape="http://www.inkscape.org/namespaces/inkscape"
   width="63.499973mm"
   height="21.669699mm"
   viewBox="0 0 63.499973 21.669699"
   version="1.1"
   id="svg5879"
   sodipodi:docname="time_arrow.svg"
   inkscape:version="0.92.3 (2405546, 2018-03-11)">
  <defs
     id="defs5873" />
  <sodipodi:namedview
     id="base"
     pagecolor="#ffffff"
     bordercolor="#666666"
     borderopacity="1.0"
     inkscape:pageopacity="0.0"
     inkscape:pageshadow="2"
     inkscape:zoom="1.4"
     inkscape:cx="550.16369"
     inkscape:cy="36.572679"
     inkscape:document-units="mm"
     inkscape:current-layer="layer1"
     showgrid="false"
     fit-margin-top="0"
     fit-margin-left="0"
     fit-margin-right="0"
     fit-margin-bottom="0"
     inkscape:window-width="1920"
     inkscape:window-height="1025"
     inkscape:window-x="0"
     inkscape:window-y="27"
     inkscape:window-maximized="1" />
  <metadata
     id="metadata5876">
    <rdf:RDF>
      <cc:Work
         rdf:about="">
        <dc:format>image/svg+xml</dc:format>
        <dc:type
           rdf:resource="http://purl.org/dc/dcmitype/StillImage" />
        <dc:title></dc:title>
      </cc:Work>
    </rdf:RDF>
  </metadata>
  <g
     inkscape:label="Layer 1"
     inkscape:groupmode="layer"
     id="layer1"
     transform="translate(47.582806,-9.2108585)">
    <path
       inkscape:connector-curvature="0"
       id="path5308"
       style="fill:#a42604;fill-opacity:1;fill-rule:nonzero;stroke:none;stroke-width:0.35277775"
       d="m -47.417496,30.429728 c 0.242623,0.218826 0.563824,0.328388 0.879585,0.389135 v 0 c 0.266316,0.05123 0.523739,-0.123163 0.574959,-0.389484 0.04968,-0.258192 -0.112875,-0.509719 -0.368701,-0.570514 -0.09613,-0.02291 -0.192095,-0.05094 -0.282271,-0.09182 -0.04683,-0.0213 -0.09454,-0.04609 -0.13301,-0.08078 v 0 c -0.205306,-0.185179 -0.521851,-0.168841 -0.706986,0.03644 -0.18518,0.205306 -0.168881,0.521843 0.03643,0.707022 0,0 0,0 0,0 z m 0.879585,0.389135 c 0.213675,0.04111 0.432713,0.05362 0.649899,0.05904 0.294315,0.0073 0.588999,-0.0013 0.883002,-0.01549 v 0 c 0.276733,-0.01342 0.490231,-0.248625 0.476847,-0.525384 -0.01342,-0.276771 -0.248616,-0.490265 -0.525385,-0.47685 -0.0069,4.22e-4 -0.01366,7.83e-4 -0.02044,0.0014 -0.264812,0.02371 -0.531006,0.04121 -0.797028,0.03857 -0.152938,-0.0015 -0.311089,-0.0057 -0.46064,-0.04127 v 0 c -0.263871,-0.06265 -0.528585,0.100399 -0.591264,0.364265 -0.06275,0.263846 0.100367,0.528575 0.364231,0.591256 0.0069,0.0016 0.01378,0.0032 0.02079,0.0044 z m 1.532901,0.04354 c 1.147763,-0.05559 2.294014,-0.155366 3.439071,-0.24984 l -8e-6,3.3e-5 c 0.310335,-0.02561 0.541134,-0.29796 0.515555,-0.608286 -0.02561,-0.310335 -0.297927,-0.541127 -0.608253,-0.515549 -0.0064,5.44e-4 -0.01285,0.0012 -0.01926,0.0019 -1.130737,0.132456 -2.262017,0.269373 -3.396114,0.370872 l 9e-6,-3.6e-5 c -0.275981,0.02472 -0.479664,0.268466 -0.454986,0.544437 0.02399,0.268046 0.255182,0.469437 0.523993,0.456412 z m 3.439071,-0.24984 c 0.69163,-0.05705 1.38312,-0.115985 2.074032,-0.181143 0.449965,-0.04245 0.900026,-0.08615 1.348575,-0.141872 v 0 c 0.331998,-0.04125 0.567689,-0.343799 0.526473,-0.675789 -0.04125,-0.331998 -0.343824,-0.567734 -0.675824,-0.526481 0,0 0,0 0,0 -1.12772,0.140106 -2.256574,0.271159 -3.385226,0.403428 v 0 c -0.309263,0.03622 -0.530625,0.316293 -0.494374,0.625566 0.03534,0.301799 0.303514,0.521287 0.606336,0.496324 z m 3.422607,-0.323015 c 0.680369,-0.08452 1.35888,-0.183731 2.035499,-0.294047 v 0 c 0.325632,-0.05308 0.546548,-0.360084 0.493459,-0.685681 -0.05247,-0.321989 -0.353582,-0.542328 -0.676363,-0.494929 -0.666349,0.09788 -1.3336,0.189381 -2.001946,0.272387 v 0 c -0.331999,0.04125 -0.567699,0.343832 -0.526448,0.67583 0.04125,0.332001 0.343799,0.567691 0.675799,0.52644 0,0 0,0 0,0 z m 2.035499,-0.294047 c 1.112166,-0.181286 2.219364,-0.3945 3.326045,-0.606098 v 0 c 0.312736,-0.05979 0.517761,-0.361779 0.457971,-0.674516 -0.05934,-0.310331 -0.357406,-0.515058 -0.668338,-0.459103 -1.097298,0.197481 -2.195387,0.397092 -3.298582,0.559107 v 0 c -0.326418,0.04797 -0.552185,0.351421 -0.504214,0.677837 0.04794,0.326411 0.351387,0.552178 0.677796,0.504242 0.003,-3.82e-4 0.0062,-9.08e-4 0.0093,-0.0015 z m 3.326045,-0.606098 c 1.1667,-0.223085 2.333579,-0.445581 3.502065,-0.659158 v 0 c 0.299575,-0.05478 0.498049,-0.342051 0.443312,-0.64165 -0.05401,-0.295415 -0.33448,-0.493299 -0.630891,-0.445144 -1.177097,0.191174 -2.351214,0.401112 -3.524853,0.612333 v 0 c -0.313371,0.05639 -0.521684,0.356132 -0.465284,0.669471 0.05639,0.313368 0.356134,0.521683 0.669505,0.465291 0.002,-6.26e-4 0.0041,-9.12e-4 0.0061,-9.32e-4 z m 3.502065,-0.659158 c 1.217317,-0.222539 2.433808,-0.449874 3.650221,-0.677338 v 0 c 0.289058,-0.05405 0.479597,-0.332223 0.425556,-0.621316 -0.05388,-0.287996 -0.330277,-0.478376 -0.618578,-0.426028 -1.213479,0.220306 -2.427351,0.44015 -3.644778,0.637888 v 0 c -0.300614,0.0488 -0.504743,0.332101 -0.455904,0.632725 0.0488,0.300613 0.332101,0.504741 0.632724,0.455902 0.0034,-4.77e-4 0.0072,-0.0011 0.01077,-0.0018 z m 3.650221,-0.677338 c 1.203086,-0.224967 2.406359,-0.449957 3.606534,-0.690212 v 0 c 0.284898,-0.05703 0.469625,-0.334232 0.412598,-0.619129 -0.05703,-0.284897 -0.334231,-0.469625 -0.619129,-0.412597 -1.19485,0.239196 -2.394104,0.456907 -3.593016,0.67456 l -9e-6,3.4e-5 c -0.289362,0.05252 -0.481319,0.329679 -0.428803,0.619043 0.05255,0.289369 0.329706,0.481362 0.619077,0.42881 7.57e-4,-8.3e-5 0.0019,-3.3e-4 0.0027,-4.55e-4 z m 3.606534,-0.690212 c 1.172819,-0.234787 2.340932,-0.493609 3.50849,-0.752971 v 0 c 0.289112,-0.06422 0.471404,-0.350665 0.407176,-0.639744 -0.06419,-0.289105 -0.35063,-0.471396 -0.639737,-0.40721 -0.0014,3.75e-4 -0.0031,6.73e-4 -0.0045,0.001 -1.156521,0.267387 -2.313973,0.534138 -3.477974,0.767147 v 0 c -0.284907,0.05706 -0.469625,0.334231 -0.412598,0.619128 0.05703,0.284897 0.334232,0.469624 0.619129,0.412598 0,0 0,0 0,0 z m 3.50849,-0.752971 c 1.153759,-0.256295 2.307853,-0.512761 3.456169,-0.792477 v 0 c 0.293149,-0.07143 0.472936,-0.366978 0.401518,-0.660163 -0.07143,-0.293151 -0.366976,-0.472938 -0.660161,-0.401521 -1.142701,0.278369 -2.28871,0.543313 -3.434607,0.80825 l 3.6e-5,9e-6 c -0.288539,0.0667 -0.468387,0.354701 -0.401646,0.643213 0.0663,0.286799 0.351349,0.46652 0.638691,0.402689 z m 3.456169,-0.792477 c 0.765475,-0.186495 1.528601,-0.382569 2.289097,-0.588404 v 0 c 0.291386,-0.07886 0.463689,-0.379061 0.384833,-0.670448 -0.07888,-0.291431 -0.379054,-0.463724 -0.670485,-0.384841 -7.5e-5,1.7e-5 -1.52e-4,3.3e-5 -2.31e-4,5.1e-5 -0.374935,0.101691 -0.750515,0.200893 -1.126732,0.297714 -0.196251,0.05046 -0.392593,0.100293 -0.589208,0.149468 -0.199963,0.05004 -0.418897,0.08169 -0.611424,0.155179 v 0 c -0.2819,0.107591 -0.423204,0.423366 -0.315611,0.705267 0.09816,0.257144 0.372317,0.401155 0.639761,0.336014 z m 2.289097,-0.588404 c 0.754323,-0.204152 1.505725,-0.419521 2.253568,-0.646302 v 0 c 0.291735,-0.08845 0.456532,-0.396694 0.368084,-0.688427 -0.08848,-0.291742 -0.396692,-0.456531 -0.688427,-0.368084 -0.0014,3.74e-4 -0.0032,0.0011 -0.0047,0.0014 -0.733885,0.229575 -1.472282,0.444877 -2.214451,0.64613 v 0 c -0.291396,0.07904 -0.463527,0.379284 -0.384523,0.670672 0.07899,0.291276 0.379095,0.463407 0.670406,0.384567 z m 2.253568,-0.646302 c 0.372934,-0.113076 0.7444647,-0.230689 1.1145064,-0.352936 0.1918206,-0.06334 0.3832261,-0.127907 0.5742194,-0.193745 0.1935829,-0.06671 0.4082674,-0.120024 0.5910134,-0.212719 l -3.39e-5,-9e-6 c 0.2744128,-0.139205 0.3839975,-0.474481 0.2447828,-0.748861 -0.1269887,-0.250301 -0.4203583,-0.367069 -0.6846118,-0.272456 -0.7165752,0.256572 -1.4384253,0.498425 -2.1648443,0.725663 v 0 c -0.290959,0.09101 -0.453057,0.400664 -0.36205,0.691624 0.09048,0.289153 0.39709,0.451355 0.687016,0.363434 z M -8.3001875,23.8508 c 0.7186577,-0.25732 1.4348806,-0.52144 2.1484143,-0.792642 v 0 c 0.2891801,-0.109903 0.4345111,-0.43343 0.3245751,-0.722617 -0.109905,-0.289179 -0.433432,-0.434511 -0.722618,-0.324573 -9.446e-4,4.98e-4 -0.00211,6.02e-4 -0.00277,0.0012 -0.7043397,0.272102 -1.4121766,0.535281 -2.1230668,0.789796 v 0 c -0.289686,0.103699 -0.4404331,0.422586 -0.3367001,0.712281 0.1037089,0.289653 0.4225953,0.4404 0.7122484,0.336692 0,0 0,0 0,0 z m 2.1484143,-0.792642 c 0.6948679,-0.264124 1.3874455,-0.534318 2.077292,-0.811278 v 0 c 0.2913251,-0.116965 0.4326868,-0.447971 0.3157202,-0.739295 -0.1169659,-0.291324 -0.4479696,-0.432685 -0.7392947,-0.315719 -0.00153,7.48e-4 -0.00323,0.0014 -0.00505,0.002 -0.6799999,0.280608 -1.3633848,0.553013 -2.049578,0.818088 v 0 c -0.2885568,0.111479 -0.432127,0.435815 -0.320649,0.724372 0.1110536,0.287503 0.4334457,0.431276 0.7215445,0.321756 z m 2.0773006,-0.811312 c 0.6731236,-0.270228 1.3415211,-0.552308 2.0044122,-0.846729 v 0 c 0.2895259,-0.128589 0.4200123,-0.467542 0.2914274,-0.757067 -0.1285799,-0.289561 -0.4675398,-0.420014 -0.7570672,-0.291427 0,0 0,0 0,0 -0.6519876,0.289568 -1.3079349,0.570169 -1.9673783,0.842283 l -8.5e-6,3.4e-5 c -0.2902009,0.119724 -0.4283652,0.452045 -0.3086409,0.742246 0.11894,0.288257 0.4479143,0.426849 0.7372503,0.310692 z m 2.0044122,-0.846729 c 0.6422755,-0.285251 1.28066047,-0.579307 1.91437811,-0.883125 v 0 c 0.2898058,-0.138924 0.41208825,-0.486459 0.27318909,-0.776221 -0.13892332,-0.289806 -0.48645759,-0.412088 -0.77626216,-0.273169 -0.002841,0.0014 -0.005633,0.0027 -0.008449,0.0041 -0.61597834,0.307639 -1.23930984,0.600434 -1.86852534,0.879921 v 0 c -0.2895598,0.12858 -0.4200132,0.467541 -0.2914274,0.757066 0.1285905,0.289528 0.4675418,0.420015 0.7570672,0.291428 z M -0.15564932,20.517 C 0.45691935,20.223312 1.0623622,19.914615 1.6588013,19.589384 v 0 C 1.9481088,19.431669 2.0547505,19.069274 1.8970004,18.779958 1.7392425,18.490677 1.376846,18.384037 1.0875622,18.541797 c -0.00228,0.0013 -0.00457,0.0026 -0.00685,0.0038 -0.57474712,0.323319 -1.15790788,0.631524 -1.74785764,0.926121 l -8.56e-6,3.4e-5 c -0.28747969,0.143549 -0.40417,0.493004 -0.26058992,0.780528 0.14192972,0.284233 0.48564228,0.402058 0.77213352,0.264732 z M 1.6587928,19.589418 c 0.5685159,-0.310009 1.1334953,-0.626476 1.6942884,-0.95015 v 0 C 3.6433345,18.47175 3.7428126,18.100672 3.575296,17.810419 3.4077696,17.520201 3.0366984,17.420686 2.746482,17.588213 c -0.00134,7.98e-4 -0.00255,0.0015 -0.00418,0.0022 -0.550812,0.32369 -1.104861,0.641824 -1.6617022,0.955034 v 0 c -0.28718582,0.161561 -0.38903619,0.52531 -0.22747421,0.812496 0.16005241,0.284512 0.51901601,0.387594 0.80559821,0.231303 l -8.6e-6,3.4e-5 z m 1.6942884,-0.95015 C 3.8917708,18.328356 4.4286459,18.014257 4.9634149,17.69668 v 0 C 5.2591785,17.52102 5.3565353,17.138892 5.1809267,16.843141 5.0053026,16.547387 4.6231375,16.450021 4.3273891,16.62563 c -0.00486,0.0029 -0.00962,0.0058 -0.014431,0.0088 -0.5183012,0.327153 -1.0420545,0.645617 -1.5705274,0.956123 v 0 C 2.4535098,17.7603 2.3569268,18.132146 2.5267036,18.421076 2.6955374,18.708422 3.0645245,18.80581 3.353169,18.639183 Z M 4.9634149,17.69668 C 5.4735372,17.393732 5.9784322,17.082079 6.476412,16.759623 l 3.3e-5,8e-6 C 6.7721666,16.568134 6.8566904,16.173126 6.6651702,15.877363 6.4736725,15.581643 6.078665,15.497118 5.7829429,15.688617 c -0.00134,7.98e-4 -0.00236,0.0016 -0.0035,0.0024 -0.4858911,0.319103 -0.9749446,0.633298 -1.4665419,0.943575 v 0 c -0.2908512,0.183593 -0.3778269,0.568269 -0.1942402,0.85912 0.1801045,0.28535 0.5546281,0.375367 0.8447259,0.203118 z M 6.476445,16.759631 c 0.4841959,-0.313528 0.9593152,-0.640989 1.4250682,-0.981363 v 0 c 0.287145,-0.209852 0.3498335,-0.61277 0.1399606,-0.899956 -0.2098515,-0.287144 -0.612771,-0.349833 -0.8999586,-0.139956 -0.00141,0.0011 -0.00264,0.0019 -0.00405,0.003 -0.443423,0.329454 -0.8962476,0.646277 -1.3579933,0.949569 v 0 c -0.2944925,0.193408 -0.3764268,0.58896 -0.1830216,0.883452 0.1925472,0.293147 0.5855995,0.375905 0.8800093,0.185278 z M 7.9015132,15.778268 C 8.2311281,15.537364 8.5502934,15.282071 8.8680823,15.025885 9.3588548,14.63019 9.8440878,14.227603 10.327553,13.823078 v 0 c 0.274216,-0.229413 0.310529,-0.637676 0.08112,-0.911891 -0.229457,-0.27419 -0.6377218,-0.310504 -0.9119015,-0.08108 0,0 0,0 0,0 -0.4778442,0.39983 -0.9571377,0.797912 -1.4413732,1.190054 -0.3023049,0.244848 -0.6056005,0.489155 -0.9179468,0.721172 v 0 c -0.2854966,0.212123 -0.3450298,0.61551 -0.1329124,0.901044 0.2109535,0.283928 0.6113958,0.34461 0.8969786,0.135898 z m 2.4260398,-1.95519 c 0.717593,-0.600356 1.441051,-1.195266 2.145091,-1.811557 v 0 c 0.265751,-0.23264 0.292635,-0.636697 0.05999,-0.902449 -0.228177,-0.26066 -0.622373,-0.292296 -0.889145,-0.07134 -0.717955,0.594589 -1.431789,1.194183 -2.1467235,1.792372 v 0 c -0.2742146,0.229413 -0.3104953,0.637685 -0.081081,0.9119 0.2294204,0.274181 0.6376845,0.310494 0.9118645,0.08107 z m 2.145091,-1.811557 c 0.25963,-0.227272 0.522393,-0.450952 0.79009,-0.668657 v 0 c 0.265937,-0.216221 0.306236,-0.607106 0.09001,-0.873045 -0.209316,-0.257393 -0.583998,-0.304663 -0.850657,-0.107361 -0.292739,0.21659 -0.578172,0.443027 -0.858598,0.675276 v 0 c -0.272049,0.225303 -0.309917,0.62848 -0.08464,0.900487 0.225303,0.272051 0.628446,0.30991 0.900489,0.08464 0.0046,-0.0037 0.0089,-0.0075 0.01331,-0.01134 z m 0.79009,-0.668657 c 0.198654,-0.161521 0.382998,-0.341025 0.565129,-0.520686 0.277442,-0.273642 0.547661,-0.554563 0.815711,-0.8374145 v 0 C 14.765317,9.8562661 14.759897,9.6533718 14.631369,9.5315873 14.53911,9.4441665 14.40394,9.4195239 14.286743,9.4687247 13.923617,9.6212402 13.562095,9.7789268 13.20906,9.9537444 12.965927,10.0741 12.720716,10.200663 12.502091,10.362458 v 0 c -0.275557,0.203861 -0.333663,0.592509 -0.129792,0.86803 0.203906,0.275529 0.59252,0.333627 0.86804,0.129757 0.0076,-0.0056 0.01508,-0.0114 0.02239,-0.01738 z" />
    <path
       inkscape:connector-curvature="0"
       id="path5310"
       style="fill:#a42604;fill-opacity:1;fill-rule:nonzero;stroke:none;stroke-width:0.35277775"
       d="m 13.476015,10.269521 v 0 c -0.06996,0.267485 0.08998,0.541054 0.357411,0.611073 0.18045,0.04734 0.372257,-0.0097 0.497595,-0.147878 0.117116,-0.129082 0.231645,-0.267477 0.303954,-0.427475 0.06557,-0.145108 0.0904,-0.3072606 0.05896,-0.4644015 C 14.650255,9.6223251 14.50233,9.4365243 14.303408,9.3380923 v 0 c -0.319957,-0.1583292 -0.707645,-0.027292 -0.865974,0.2926649 -0.101389,0.2048713 -0.08703,0.4480048 0.03778,0.6395068 l 0.001,-8.33e-4 z m -0.101004,0.376625 c 0.141204,-0.02553 0.282784,-0.04981 0.425207,-0.06776 0.05817,-0.0073 0.120853,-0.01899 0.179824,-0.01565 v 0 c 0.356379,0.02031 0.661762,-0.252173 0.682041,-0.608561 C 14.676821,9.6954639 14.535637,9.4529684 14.30339,9.3380881 14.138527,9.2565085 13.952964,9.2272643 13.771,9.2163556 c -0.191857,-0.011512 -0.384712,-0.00348 -0.576186,0.010604 v 0 c -0.394551,0.029034 -0.690823,0.3724016 -0.661822,0.7669452 0.02904,0.3945182 0.372399,0.6908232 0.766952,0.6617892 0.02515,-0.0018 0.05021,-0.0051 0.07506,-0.0095 z m -2.248246,0.42971 c 0.748849,-0.145684 1.497474,-0.293789 2.248181,-0.42969 v 0 c 0.389287,-0.07046 0.6477,-0.443168 0.577244,-0.8324534 -0.06525,-0.3604656 -0.392025,-0.6136208 -0.757361,-0.5867484 -0.305725,0.022484 -0.610119,0.066514 -0.913208,0.1112746 -0.478294,0.070667 -0.955197,0.1508168 -1.431553,0.2333973 v 0 c -0.416163,0.072153 -0.695043,0.4680069 -0.622889,0.8841709 0.07215,0.416164 0.468008,0.695043 0.884172,0.622891 0.0052,-8.82e-4 0.01026,-0.0018 0.01542,-0.0028 z m -2.4130151,0.45803 c 0.8058973,-0.144097 1.6094541,-0.301701 2.4130151,-0.45803 v 0 c 0.4146,-0.08066 0.685293,-0.482146 0.604634,-0.896746 C 11.651913,9.7705198 11.260225,9.5005145 10.850068,9.5716361 10.048785,9.7105669 9.2475953,9.8499944 8.4455265,9.9842519 v 0 C 8.0172147,10.055959 7.7281149,10.461314 7.799814,10.889661 c 0.071707,0.428313 0.4770624,0.717411 0.905377,0.645705 0.00297,-3.43e-4 0.00574,-0.0011 0.00852,-0.0015 z m -1.3883543,0.206676 c 0.4649335,-0.05319 0.9277354,-0.124309 1.3883883,-0.206667 v 0 C 9.1412933,11.457437 9.425881,11.048907 9.3494226,10.621396 9.2736078,10.19725 8.870492,9.9131191 8.4455265,9.9842519 8.0146288,10.056398 7.5820232,10.1196 7.1477895,10.168057 v 0 c -0.4343035,0.04844 -0.7471162,0.43977 -0.6986769,0.874073 0.048439,0.434303 0.4397709,0.747114 0.8740734,0.698675 8.411e-4,-8.8e-5 0.00144,-3.74e-4 0.00221,-1.79e-4 z m -1.1437001,0.106679 c 0.382079,-0.02545 0.763293,-0.0632 1.1437001,-0.106679 v 0 c 0.4341772,-0.04967 0.7458607,-0.441869 0.6962221,-0.876038 -0.04956,-0.433313 -0.4404159,-0.74484 -0.873864,-0.696476 -0.3563644,0.03976 -0.7134616,0.07464 -1.0712955,0.09846 v 0 c -0.4365031,0.02904 -0.7667989,0.406462 -0.7377622,0.842964 0.029073,0.436512 0.4064973,0.766808 0.8429995,0.737771 0,0 0,0 0,0 z m -1.0555973,0.01648 c 0.3518446,0.01233 0.7043096,0.0069 1.0555973,-0.01648 v 0 C 6.6182073,11.818169 6.9485041,11.440745 6.9194305,11.004233 6.8903938,10.56773 6.51297,10.237435 6.0764582,10.266506 c -0.2983265,0.01984 -0.5976471,0.02473 -0.8964419,0.01483 v 0 c -0.4369916,-0.01445 -0.8029332,0.328035 -0.8174203,0.765018 -0.01444,0.436375 0.3271549,0.802092 0.7635022,0.817367 z m 0,0 v 0 C 5.5630173,11.879031 5.9296595,11.537227 5.94498,11.100272 5.960299,10.663318 5.6184859,10.29671 5.18153,10.281391 5.1802,10.281355 5.17903,10.281496 5.17757,10.28113 l 5.985e-4,-0.0013 c -0.2772375,-0.161378 -0.6245982,-0.138558 -0.878327,0.05768 -0.3077142,0.238026 -0.4211523,0.666597 -0.2439629,1.020596 0.1064085,0.21262 0.300828,0.362926 0.5251567,0.432767 0.1753768,0.05462 0.3623798,0.06632 0.5448941,0.07275 z m 0.08581,-0.242784 c 0.040713,-0.02651 0.070751,-0.04608 0.1157721,-0.06444 0.057549,-0.02346 0.1164241,-0.04397 0.1754517,-0.06335 v 0 C 5.9147674,11.358031 6.1389372,10.914829 6.0038276,10.503192 5.8687074,10.091589 5.4254705,9.8674095 5.0138699,10.002529 4.7659407,10.083909 4.5085274,10.176358 4.3000074,10.33761 v 0 c -0.3441813,0.26619 -0.4073841,0.760992 -0.1411863,1.105139 0.2510447,0.324606 0.7092298,0.402148 1.053089,0.17819 z M 5.50313,11.493141 c 0.2954468,-0.09697 0.5944485,-0.183074 0.8937863,-0.267056 v 0 C 6.7996504,11.113142 7.0345368,10.695092 6.9215955,10.292359 6.8159021,9.9155402 6.4405127,9.6813006 6.055608,9.7519895 5.7046229,9.8164282 5.3532754,9.8911083 5.0138699,10.002529 v 0 c -0.4116374,0.13511 -0.6358091,0.578312 -0.5006975,0.989949 0.1351096,0.411637 0.5783541,0.635782 0.9899576,0.500663 0,0 0,0 0,0 z M 6.3969163,11.226085 C 6.783684,11.117591 7.1758649,11.028727 7.5702631,10.95272 v 0 C 7.9557154,10.878422 8.2079763,10.505723 8.1336797,10.120271 8.0623933,9.7504234 7.7149285,9.5003804 7.3416021,9.5502686 c -0.430112,0.0575 -0.859165,0.123345 -1.2859941,0.2017209 v 0 C 5.6441926,9.8275232 5.3719218,10.22228 5.4474644,10.63366 c 0.075568,0.411422 0.4702997,0.683651 0.8816783,0.608107 0.022805,-0.0042 0.045416,-0.0094 0.067775,-0.01568 z M 7.5702631,10.95272 C 8.005276,10.86888 8.4428777,10.798423 8.8820603,10.740591 l -8.7e-6,3.5e-5 C 9.2530068,10.691776 9.5141577,10.351482 9.4653078,9.9805271 9.4178284,9.6199967 9.094213,9.3612356 8.732081,9.3943012 8.2675695,9.4367192 7.8039044,9.4884829 7.3415935,9.5503027 v 0 C 6.9524949,9.6022876 6.6792342,9.9598653 6.7312619,10.34894 c 0.051983,0.3891 0.4095616,0.66236 0.7986349,0.610332 0.01352,-0.0018 0.026988,-0.004 0.040378,-0.0066 z M 8.8820943,10.7406 c 0.4336033,-0.05706 0.8683603,-0.105853 1.3040617,-0.144261 v 0 c 0.354849,-0.0313 0.617164,-0.344343 0.585872,-0.6992246 -0.03004,-0.3405226 -0.320529,-0.5984931 -0.66225,-0.5880748 -0.4599747,0.014056 -0.9194415,0.043412 -1.3777299,0.085253 v 0 C 8.359448,9.4283193 8.0849815,9.7579415 8.1190086,10.130541 c 0.034026,0.372599 0.3636472,0.647065 0.7362387,0.613073 0.00893,-6.55e-4 0.017918,-0.0018 0.026843,-0.003 z m 1.3040617,-0.144261 c 0.390312,-0.03443 0.781182,-0.06272 1.17258,-0.08098 l 9e-6,-3.4e-5 c 0.334187,-0.01559 0.592448,-0.299169 0.576864,-0.6333877 -0.01479,-0.3167379 -0.271311,-0.5684663 -0.588279,-0.5772709 -0.412416,-0.011492 -0.825212,-0.0082 -1.237552,0.00438 v 0 C 9.7537081,9.3199491 9.4738532,9.6174317 9.4847266,9.9734928 9.495632,10.329562 9.79312,10.609419 10.149182,10.598544 c 0.01238,-5.17e-4 0.02466,-0.0011 0.03697,-0.0022 z m 1.17258,-0.08098 c 0.327564,-0.0153 0.656151,-0.01477 0.983392,0.008 v 0 c 0.315435,0.02195 0.588967,-0.216001 0.610883,-0.5314448 0.02118,-0.3042779 -0.199901,-0.5717339 -0.502761,-0.6081961 -0.366063,-0.044076 -0.734362,-0.068779 -1.10292,-0.07903 l 3.4e-5,8.6e-6 c -0.334447,-0.00932 -0.613125,0.2542212 -0.622449,0.5886685 -0.0093,0.3344148 0.254232,0.6130928 0.588678,0.6224138 0.01504,5.25e-4 0.0301,2.81e-4 0.04514,-3.99e-4 z m 0.983358,0.008 c 0.290119,0.02019 0.579956,0.04583 0.868553,0.08201 v 0 c 0.302128,0.03791 0.577817,-0.176282 0.615708,-0.478454 C 13.863115,9.8337711 13.662403,9.5637772 13.371131,9.5145578 13.065377,9.4628845 12.758097,9.4207228 12.45025,9.3836944 v 0 c -0.313944,-0.037803 -0.5991,0.1860848 -0.63687,0.5000387 -0.0378,0.3139469 0.186085,0.5991009 0.500031,0.6369049 0.0095,0.0013 0.01913,0.0019 0.02868,0.0027 z m 0.868553,0.08201 c 0.301103,0.0378 0.598104,0.108732 0.890775,0.187593 v 0 c 0.296862,0.07999 0.602336,-0.0958 0.68232,-0.392629 0.07995,-0.296837 -0.09581,-0.6023027 -0.392637,-0.6822851 -0.0085,-0.00229 -0.01712,-0.00439 -0.02575,-0.00628 -0.330014,-0.07231 -0.66105,-0.1408765 -0.99423,-0.1971767 v 0 c -0.300281,-0.050729 -0.584824,0.1515568 -0.635554,0.4518358 -0.05073,0.300243 0.151567,0.58479 0.451804,0.635543 0.0077,0.0012 0.01545,0.0024 0.02328,0.0033 z m 0.890775,0.187593 c 0.137605,0.0369 0.275207,0.07613 0.408807,0.12588 0.03299,0.01229 0.06588,0.02513 0.09758,0.04037 0.01652,0.008 0.01652,0.0089 0.01483,0.0077 v 0 c 0.261434,0.189408 0.626907,0.130989 0.816314,-0.130445 0.189374,-0.261443 0.130991,-0.626907 -0.130478,-0.816323 -0.01982,-0.01436 -0.04055,-0.027477 -0.06204,-0.039229 C 15.128019,9.91598 14.997713,9.873789 14.868495,9.8362404 14.702599,9.7880224 14.534124,9.7485994 14.365336,9.7118418 v 0 c -0.300297,-0.065791 -0.597049,0.124314 -0.662845,0.4246122 -0.06353,0.290244 0.112031,0.579253 0.398905,0.656578 z m 0.50789,0.16405 c 0.0041,0.0032 0.0098,0.0073 0.01265,0.01119 -0.0033,-0.0045 -0.0083,-0.01764 -3.47e-4,0.0021 v 0 c 0.126245,0.312658 0.482033,0.463801 0.794683,0.337589 0.312659,-0.126245 0.463792,-0.482 0.337547,-0.794657 -0.0095,-0.02373 -0.0206,-0.04682 -0.03309,-0.06915 C 15.610857,10.24732 15.44361,10.088807 15.246514,9.9808304 v 0 c -0.283103,-0.1551439 -0.638355,-0.051433 -0.793545,0.2316956 -0.138496,0.25274 -0.0721,0.568707 0.156391,0.744346 l -8e-6,3.5e-5 z m 0.0078,0.0021 c 0.01353,0.0355 0.01091,0.08021 0.0094,0.117161 v 0 c -0.0143,0.353895 0.26098,0.65238 0.614864,0.666714 0.353888,0.01434 0.652372,-0.260946 0.666706,-0.614832 0.0016,-0.03813 -3.14e-4,-0.0763 -0.0056,-0.114081 -0.0275,-0.198425 -0.08378,-0.394286 -0.181803,-0.569788 v 0 c -0.164385,-0.29441 -0.536306,-0.399778 -0.830676,-0.235409 -0.264552,0.147697 -0.380741,0.467043 -0.272964,0.750228 z m 0.0094,0.117127 c -0.0029,0.07235 -0.01967,0.14559 -0.03343,0.216415 -0.03187,0.163942 -0.07042,0.326565 -0.110294,0.488742 v 0 c -0.09249,0.375171 0.137065,0.75417 0.512284,0.846471 0.375258,0.09214 0.754211,-0.13709 0.846478,-0.512317 0.0068,-0.02772 0.01192,-0.05582 0.01536,-0.08417 0.02275,-0.191131 0.04294,-0.38287 0.05356,-0.575094 0.0081,-0.146874 0.0123,-0.296076 -0.008,-0.442216 v 0 c -0.04866,-0.350822 -0.372525,-0.595748 -0.723348,-0.547095 -0.30735,0.04263 -0.540067,0.299213 -0.552656,0.60926 z m 0.972822,2.546099 c 0.101503,-0.527452 0.193858,-1.057467 0.257513,-1.590976 v 0 c 0.04579,-0.383678 -0.228134,-0.731812 -0.611812,-0.777604 -0.350864,-0.04188 -0.677866,0.184476 -0.762252,0.527601 -0.121783,0.495776 -0.258418,0.987878 -0.399118,1.478554 l 3.6e-5,9e-6 c -0.118761,0.414058 0.120624,0.846 0.534681,0.964764 0.414065,0.118732 0.84601,-0.12066 0.964774,-0.534718 0.0064,-0.02228 0.0116,-0.04488 0.01624,-0.06761 z m -1.890199,1.018313 v 0 c -0.108481,0.447141 0.166129,0.897539 0.613286,1.005953 0.447149,0.108452 0.897538,-0.166128 1.005953,-0.613286 0.0033,-0.01375 0.0062,-0.02763 0.0091,-0.04147 0.0864,-0.456677 0.174181,-0.913043 0.262016,-1.369468 v 0 c 0.08142,-0.42297 -0.195498,-0.83189 -0.618476,-0.913284 -0.396564,-0.07633 -0.785804,0.162665 -0.897138,0.550873 -0.13145,0.458263 -0.262222,0.917317 -0.374581,1.380725 z m -8e-6,3.4e-5 c -0.07877,0.325294 -0.144441,0.65393 -0.193378,0.985078 v 0 c -0.06824,0.46184 0.250838,0.891587 0.71268,0.959828 0.461865,0.06828 0.891576,-0.250805 0.959826,-0.71268 0.04358,-0.294698 0.09369,-0.588365 0.149066,-0.881104 v 0 c 0.08554,-0.452093 -0.211641,-0.887883 -0.663744,-0.973387 -0.435876,-0.08247 -0.859929,0.191116 -0.96445,0.622265 z m -0.193369,0.985044 c -0.04195,0.283793 -0.07686,0.568851 -0.09752,0.855034 v 0 c -0.03344,0.463672 0.315303,0.866667 0.778972,0.900113 0.456948,0.03299 0.856342,-0.305537 0.898706,-0.761718 0.02317,-0.249566 0.05572,-0.498291 0.09232,-0.746213 l 3.3e-5,8e-6 c 0.06822,-0.461845 -0.250822,-0.891583 -0.712691,-0.959867 -0.461832,-0.06827 -0.891577,0.250805 -0.959851,0.712637 z m -0.09751,0.855 c -0.01779,0.246157 -0.02404,0.493731 -0.0098,0.740256 v 0 c 0.02666,0.460643 0.421653,0.812435 0.882289,0.785812 0.454464,-0.02625 0.804241,-0.411532 0.786607,-0.866405 -0.0067,-0.173791 0.0025,-0.348144 0.01856,-0.5212 v 0 c 0.043,-0.462896 -0.297372,-0.872984 -0.76027,-0.915987 -0.462896,-0.043 -0.872982,0.297373 -0.915984,0.76027 -6.21e-4,0.0057 -9.46e-4,0.01151 -0.0015,0.01724 z m -0.0098,0.740222 c 0.0133,0.23006 0.04624,0.460018 0.111443,0.681377 v 0 c 0.129903,0.441214 0.592886,0.693551 1.034066,0.563639 0.441212,-0.129905 0.693548,-0.592889 0.563636,-1.034067 -0.0277,-0.0941 -0.03647,-0.193918 -0.04026,-0.291508 v 0 c -0.01789,-0.46105 -0.406147,-0.820347 -0.8672,-0.802452 -0.461078,0.01785 -0.820334,0.406089 -0.802482,0.867166 1.3e-5,0.0053 6.25e-4,0.0106 7.5e-4,0.01583 z m 0.111417,0.681335 c 0.07398,0.251299 0.252637,0.458898 0.479013,0.586669 0.122203,0.06896 0.256308,0.11484 0.39366,0.142357 0.225751,0.04531 0.45897,0.04328 0.687478,0.0233 v 0 c 0.194015,-0.01694 0.337552,-0.188001 0.320613,-0.382014 -0.0027,-0.03122 -0.0096,-0.06194 -0.02046,-0.09135 -0.09137,-0.247718 -0.187917,-0.495798 -0.262542,-0.749298 v 0 c -0.12993,-0.441219 -0.592871,-0.693582 -1.034076,-0.563712 -0.441204,0.12987 -0.693575,0.592844 -0.563705,1.034049 0,0 0,0 0,0 z" />
  </g>
</svg>
