<?xml version="1.0" encoding="UTF-8" standalone="no"?>
<!-- Created with Inkscape (http://www.inkscape.org/) -->

<svg
   xmlns:dc="http://purl.org/dc/elements/1.1/"
   xmlns:cc="http://creativecommons.org/ns#"
   xmlns:rdf="http://www.w3.org/1999/02/22-rdf-syntax-ns#"
   xmlns:svg="http://www.w3.org/2000/svg"
   xmlns="http://www.w3.org/2000/svg"
   xmlns:sodipodi="http://sodipodi.sourceforge.net/DTD/sodipodi-0.dtd"
   xmlns:inkscape="http://www.inkscape.org/namespaces/inkscape"
   width="42.995041mm"
   height="95.754143mm"
   viewBox="0 0 42.995041 95.754143"
   version="1.1"
   id="svg347"
   inkscape:version="0.92.3 (2405546, 2018-03-11)"
   sodipodi:docname="ufg_detail2.svg">
  <defs
     id="defs341" />
  <sodipodi:namedview
     id="base"
     pagecolor="#ffffff"
     bordercolor="#666666"
     borderopacity="1.0"
     inkscape:pageopacity="0.0"
     inkscape:pageshadow="2"
     inkscape:zoom="0.98994949"
     inkscape:cx="21.851898"
     inkscape:cy="109.56809"
     inkscape:document-units="mm"
     inkscape:current-layer="layer1"
     showgrid="false"
     inkscape:window-width="960"
     inkscape:window-height="1025"
     inkscape:window-x="0"
     inkscape:window-y="27"
     inkscape:window-maximized="0"
     fit-margin-top="0"
     fit-margin-left="0"
     fit-margin-right="0"
     fit-margin-bottom="0" />
  <metadata
     id="metadata344">
    <rdf:RDF>
      <cc:Work
         rdf:about="">
        <dc:format>image/svg+xml</dc:format>
        <dc:type
           rdf:resource="http://purl.org/dc/dcmitype/StillImage" />
        <dc:title />
      </cc:Work>
    </rdf:RDF>
  </metadata>
  <g
     inkscape:label="Layer 1"
     inkscape:groupmode="layer"
     id="layer1"
     transform="translate(-95.260121,-67.919211)">
    <path
       inkscape:connector-curvature="0"
       id="path221"
       style="fill:#00000f;fill-opacity:1;fill-rule:nonzero;stroke:none;stroke-width:0.35277775"
       d="m 110.36108,90.477867 v 0 c 0.10015,0.215968 0.3564,0.309871 0.57236,0.209739 0.21597,-0.100142 0.30982,-0.356423 0.20993,-0.572295 -0.0144,-0.03107 -0.0325,-0.06032 -0.0538,-0.08713 -0.14101,-0.177128 -0.24496,-0.378418 -0.20515,-0.61015 v 0 c 0.0181,-0.105498 -0.0528,-0.20574 -0.15826,-0.223847 -0.0558,-0.0096 -0.11304,0.0057 -0.15662,0.04188 -0.16071,0.133384 -0.27301,0.316129 -0.31414,0.521391 -0.049,0.24427 0.002,0.497124 0.10593,0.72056 z m 0,0 c 0.10869,0.234392 0.22049,0.469321 0.31141,0.711373 v 0 c 0.10104,0.268879 0.40087,0.404958 0.66975,0.303931 0.26885,-0.100994 0.40495,-0.400862 0.30392,-0.669744 -0.0103,-0.02748 -0.023,-0.05409 -0.0378,-0.07948 -0.14839,-0.253912 -0.33631,-0.48642 -0.51904,-0.715932 v 0 c -0.14825,-0.186239 -0.41943,-0.217009 -0.60569,-0.06873 -0.15556,0.123887 -0.20589,0.338332 -0.12257,0.518551 z m 0.31141,0.711373 c 0.0589,0.156768 0.10876,0.316856 0.15432,0.477934 v 0 c 0.0843,0.297826 0.39401,0.470953 0.69183,0.386697 0.29783,-0.08424 0.47095,-0.394011 0.38666,-0.691843 -0.007,-0.02324 -0.0146,-0.04602 -0.0242,-0.06827 -0.0806,-0.188088 -0.16953,-0.37305 -0.2728,-0.549833 v 0 c -0.14489,-0.247976 -0.46338,-0.33152 -0.71139,-0.186658 -0.21877,0.127823 -0.31358,0.394712 -0.22447,0.63193 z m 0.15432,0.477934 c 0.0951,0.336147 0.16421,0.680534 0.23697,1.021975 v 0 c 0.0713,0.334416 0.40009,0.547772 0.73451,0.476522 0.33442,-0.07125 0.54778,-0.400101 0.47657,-0.734497 -0.004,-0.02004 -0.009,-0.03987 -0.0158,-0.05945 -0.11557,-0.361662 -0.22807,-0.72856 -0.37787,-1.07794 v 0 c -0.12195,-0.284476 -0.45145,-0.416183 -0.73593,-0.294232 -0.25877,0.110974 -0.39505,0.396722 -0.31836,0.667664 z m 0.23697,1.021975 c 0.0864,0.405556 0.17422,0.811283 0.27639,1.213245 v 0 c 0.0908,0.357431 0.45421,0.573511 0.81161,0.482672 0.35743,-0.09083 0.57351,-0.454203 0.48268,-0.811637 -0.003,-0.0098 -0.005,-0.01912 -0.008,-0.02861 -0.11848,-0.392277 -0.24273,-0.782835 -0.36749,-1.173156 v 0 c -0.10407,-0.325718 -0.45245,-0.505342 -0.77817,-0.40128 -0.30302,0.09685 -0.48335,0.407549 -0.41667,0.718959 z m 0.27639,1.213245 c 0.0752,0.295951 0.15627,0.590383 0.24251,0.883269 l 3e-5,-3.4e-5 c 0.10728,0.364377 0.48961,0.572744 0.85394,0.465449 0.36435,-0.107292 0.57275,-0.489647 0.46547,-0.853979 -0.003,-0.0097 -0.006,-0.01981 -0.009,-0.02959 -0.0939,-0.272515 -0.18277,-0.546693 -0.26613,-0.822595 v 0 c -0.10662,-0.353028 -0.47924,-0.552767 -0.83228,-0.44611 -0.34197,0.103274 -0.54207,0.45742 -0.45405,0.803655 z m 0.24251,0.883269 c 0.18097,0.614428 0.38237,1.223146 0.5792,1.832605 v 0 c 0.12391,0.38367 0.53539,0.594267 0.91905,0.470387 0.38371,-0.123887 0.5943,-0.535383 0.47039,-0.919056 -0.004,-0.01017 -0.007,-0.02047 -0.0107,-0.03054 -0.21946,-0.589044 -0.44339,-1.177174 -0.64811,-1.77159 v 0 c -0.12369,-0.359098 -0.51503,-0.549977 -0.87416,-0.426311 -0.34768,0.119737 -0.53965,0.49179 -0.43574,0.844512 z m 0.5792,1.832605 c 0.25498,0.789621 0.51037,1.57913 0.7671,2.368217 v 0 c 0.1323,0.406738 0.56933,0.629188 0.97604,0.496856 0.40676,-0.132329 0.62924,-0.569301 0.49688,-0.976068 -0.002,-0.0061 -0.003,-0.01177 -0.006,-0.01739 -0.27669,-0.786623 -0.56421,-1.569462 -0.85529,-2.350864 v 0 c -0.14076,-0.377846 -0.56112,-0.570023 -0.93894,-0.429329 -0.36607,0.13637 -0.55994,0.536742 -0.43991,0.908477 z m 0.76708,2.368198 c 0.16359,0.502896 0.32729,1.005771 0.49432,1.507554 v 0 c 0.13866,0.41641 0.58863,0.64162 1.00503,0.50297 0.41642,-0.13863 0.64159,-0.58859 0.50297,-1.005014 -0.003,-0.0073 -0.005,-0.01466 -0.008,-0.02182 -0.17981,-0.491969 -0.35384,-0.986103 -0.52764,-1.480239 v 0 c -0.14191,-0.403492 -0.58408,-0.615512 -0.98757,-0.473595 -0.39672,0.13956 -0.60959,0.570227 -0.47948,0.970156 z m 0.49432,1.507554 c 0.17932,0.53859 0.38516,1.06863 0.59036,1.59776 v 0 c 0.16411,0.42318 0.64019,0.63319 1.06336,0.46909 0.42317,-0.16413 0.6332,-0.6402 0.46909,-1.06336 -0.003,-0.009 -0.007,-0.0174 -0.0106,-0.0261 -0.21241,-0.49648 -0.42631,-0.99389 -0.61176,-1.501272 v 0 c -0.1507,-0.412198 -0.60703,-0.624217 -1.01923,-0.473529 -0.40378,0.14762 -0.61695,0.589521 -0.48114,0.997431 z m 0.59036,1.59776 c 0.19856,0.51198 0.39752,1.02419 0.58222,1.54137 v 0 c 0.15825,0.44309 0.64575,0.67401 1.08886,0.51573 0.44307,-0.15823 0.67399,-0.64574 0.51573,-1.08885 -0.005,-0.0112 -0.008,-0.0211 -0.0119,-0.0315 -0.2101,-0.52211 -0.43168,-1.03967 -0.65303,-1.55713 v 0 c -0.17852,-0.41728 -0.66153,-0.61085 -1.07881,-0.43234 -0.40725,0.17422 -0.60313,0.6398 -0.44301,1.05273 z m 0.58222,1.54137 c 0.20163,0.56457 0.38092,1.13741 0.5622,1.70868 v 0 c 0.14926,0.47046 0.65166,0.73082 1.1221,0.5815 0.47045,-0.14928 0.73081,-0.65166 0.5815,-1.12212 -0.005,-0.0141 -0.009,-0.0273 -0.014,-0.0406 -0.21494,-0.57902 -0.42856,-1.15899 -0.65918,-1.73203 v 0 c -0.17566,-0.43649 -0.67191,-0.64789 -1.1084,-0.47226 -0.42432,0.17075 -0.63803,0.64612 -0.48418,1.07688 z m 0.5622,1.70868 c 0.19742,0.62225 0.39506,1.24448 0.59803,1.86494 v 0 c 0.15894,0.48598 0.68183,0.75108 1.1678,0.59208 0.48599,-0.15894 0.75112,-0.6818 0.5921,-1.16783 -4.7e-4,-0.001 -0.001,-0.003 -0.002,-0.004 -0.20794,-0.62725 -0.43729,-1.24755 -0.66723,-1.86703 v 0 c -0.17175,-0.4627 -0.68608,-0.69854 -1.14878,-0.52679 -0.447,0.16595 -0.68503,0.65359 -0.54081,1.10807 z m 0.59802,1.86489 c 0.13835,0.42299 0.27282,0.84725 0.40359,1.27262 v 0 c 0.15053,0.48948 0.66931,0.76424 1.15875,0.61377 0.48946,-0.1505 0.76423,-0.66931 0.61376,-1.15875 0,0 0,0 0,0 -0.13442,-0.43705 -0.27341,-0.87268 -0.4173,-1.30674 v 0 c -0.1609,-0.48536 -0.68477,-0.74839 -1.17011,-0.58752 -0.48401,0.16045 -0.74719,0.68203 -0.58867,1.16667 z m 0.40363,1.27265 c 0.20034,0.65146 0.41122,1.29975 0.62219,1.94786 v 0 c 0.15813,0.48576 0.68011,0.75136 1.16585,0.59326 0.48464,-0.15775 0.75032,-0.67782 0.59415,-1.16298 -0.20605,-0.64016 -0.4121,-1.28033 -0.60977,-1.92317 v 0 c -0.1505,-0.48945 -0.6693,-0.76422 -1.15874,-0.61375 -0.48945,0.15054 -0.7642,0.66931 -0.61367,1.15878 0,0 0,0 0,0 z m 0.62221,1.94787 c 0.21065,0.64716 0.42104,1.29456 0.6209,1.94517 v 0 c 0.1505,0.48987 0.66961,0.76497 1.15944,0.61451 0.48988,-0.1505 0.76497,-0.66961 0.61451,-1.15945 -8.7e-4,-0.003 -0.003,-0.009 -0.004,-0.0128 -0.21074,-0.65228 -0.42077,-1.30474 -0.63083,-1.95721 v 0 c -0.15654,-0.48627 -0.67762,-0.7536 -1.16389,-0.5971 -0.48627,0.15654 -0.75358,0.67766 -0.59701,1.16393 2.9e-4,0.001 4.3e-4,0.001 10e-4,0.003 z m 0.62092,1.94513 c 0.21752,0.70817 0.44462,1.41344 0.67137,2.11867 l -2e-5,-2e-5 c 0.1582,0.492 0.68524,0.76257 1.17725,0.60436 0.49199,-0.1582 0.76257,-0.68525 0.60435,-1.17725 -2.9e-4,-0.001 -0.002,-0.002 -0.001,-0.003 -0.22785,-0.69996 -0.45574,-1.39985 -0.68201,-2.10028 v 0 c -0.15754,-0.48765 -0.68056,-0.75525 -1.1682,-0.59775 -0.48266,0.15594 -0.75069,0.67056 -0.60171,1.15548 l 1e-5,-2e-5 z m 0.67135,2.11865 c 0.22958,0.71408 0.45902,1.42856 0.6719,2.14785 l 2e-5,-2e-5 c 0.14708,0.49698 0.66919,0.78062 1.16618,0.63354 0.49696,-0.14707 0.78062,-0.66921 0.63353,-1.16619 0,0 0,0 0,0 -0.21734,-0.73434 -0.454,-1.46306 -0.69105,-2.19122 v 0 c -0.15995,-0.49143 -0.68803,-0.7601 -1.17939,-0.60017 -0.49012,0.15955 -0.75894,0.68547 -0.60118,1.17615 z m 0.67192,2.14783 c 0.14669,0.49556 0.29867,0.98958 0.45627,1.48177 v 0 c 0.15763,0.49218 0.6844,0.76341 1.17657,0.60582 0.48978,-0.15685 0.76117,-0.67947 0.60784,-1.17029 -0.15067,-0.48218 -0.29757,-0.96552 -0.44095,-1.44992 v 0 c -0.14707,-0.49699 -0.66918,-0.78062 -1.16617,-0.63354 -0.49698,0.14709 -0.78062,0.6692 -0.63354,1.16619 z m 0.45627,1.48177 c 0.15316,0.47827 0.30049,0.95849 0.44225,1.44029 v 0 c 0.14546,0.49437 0.66415,0.77723 1.15855,0.63179 0.49438,-0.14547 0.77723,-0.66416 0.63178,-1.15856 -0.1453,-0.49387 -0.29464,-0.98661 -0.4482,-1.478 v 0 c -0.15414,-0.49332 -0.679,-0.76824 -1.1723,-0.61408 -0.49328,0.15414 -0.7682,0.67901 -0.61406,1.17228 0.002,0.002 5.4e-4,0.004 0.002,0.006 z m 0.44225,1.44029 c 0.22419,0.76193 0.47025,1.5176 0.71587,2.2728 v 0 c 0.15871,0.48802 0.68298,0.75495 1.17095,0.59621 0.48627,-0.15816 0.75337,-0.67947 0.5977,-1.16651 -0.237,-0.74121 -0.47449,-1.48268 -0.69414,-2.22926 v 0 c -0.14548,-0.49439 -0.66417,-0.77724 -1.15854,-0.63179 -0.49439,0.14544 -0.77726,0.66414 -0.63178,1.15855 z m 0.71585,2.27284 c 0.31615,0.97201 0.63135,1.94441 0.94536,2.9171 v 0 c 0.15565,0.48217 0.67272,0.74689 1.1549,0.59121 0.4786,-0.15449 0.7436,-0.66553 0.5941,-1.14572 -0.30469,-0.97886 -0.61351,-1.95643 -0.92572,-2.93294 v 0 c -0.15629,-0.48877 -0.67919,-0.75834 -1.16798,-0.60201 -0.4888,0.15626 -0.75832,0.67918 -0.60201,1.16797 4.3e-4,0.001 0.001,0.003 8.8e-4,0.004 l -4e-5,-1e-5 z m 0.94538,2.91712 c 0.23535,0.72914 0.47116,1.45814 0.714,2.18481 v 0 c 0.15977,0.47814 0.67692,0.73623 1.15508,0.57653 0.47817,-0.15981 0.73625,-0.67695 0.57644,-1.15513 -10e-4,-0.003 -10e-4,-0.005 -0.002,-0.007 -0.24477,-0.71348 -0.47008,-1.43368 -0.69429,-2.15382 v 0 c -0.15057,-0.48376 -0.66484,-0.75382 -1.14859,-0.60328 -0.48378,0.15061 -0.75387,0.66486 -0.60329,1.14862 10e-4,0.003 0.002,0.006 0.003,0.01 z m 0.714,2.18481 c 0.16605,0.49697 0.33551,0.99279 0.50911,1.48721 v 0 c 0.16759,0.47737 0.69041,0.72846 1.16778,0.56088 0.47735,-0.16761 0.72844,-0.69042 0.56089,-1.16778 0,0 0,0 0,0 -0.17132,-0.48797 -0.34071,-0.97661 -0.50853,-1.4658 v 0 c -0.1636,-0.47686 -0.68277,-0.73083 -1.15964,-0.56727 -0.47417,0.16267 -0.72846,0.67729 -0.56955,1.15278 z m 0.50911,1.48721 c 0.17248,0.49132 0.33996,0.98448 0.50365,1.47883 v 0 c 0.16011,0.48364 0.68197,0.74593 1.16566,0.58576 0.48366,-0.16012 0.74594,-0.68202 0.58578,-1.1657 -10e-4,-0.005 -0.003,-0.009 -0.005,-0.0132 -0.1734,-0.49765 -0.34731,-0.99505 -0.52183,-1.49228 v 0 c -0.16761,-0.47733 -0.69044,-0.72849 -1.16779,-0.56088 -0.47738,0.16759 -0.7285,0.6904 -0.56088,1.16778 0,0 0,0 0,0 z m 0.50361,1.4788 c 0.16857,0.50916 0.33525,1.01893 0.49972,1.52942 v 0 c 0.15797,0.49039 0.68362,0.75987 1.17397,0.60189 0.49043,-0.15801 0.75989,-0.68364 0.60192,-1.17402 -10e-4,-0.003 -0.002,-0.006 -0.003,-0.009 -0.1717,-0.51513 -0.34715,-1.02898 -0.52578,-1.54175 v 0 c -0.16763,-0.4811 -0.69354,-0.73525 -1.17464,-0.56762 -0.47581,0.16581 -0.73058,0.68271 -0.57225,1.16105 z m 0.4997,1.52944 c 0.24822,0.77037 0.51438,1.53504 0.78028,2.29944 v 0 c 0.16997,0.48869 0.70396,0.74706 1.1927,0.57702 0.48868,-0.16997 0.74705,-0.70396 0.5771,-1.19265 -0.26223,-0.75384 -0.52467,-1.50772 -0.77706,-2.26493 v 0 c -0.16291,-0.48877 -0.69119,-0.75296 -1.18004,-0.59002 -0.4853,0.16173 -0.74984,0.68417 -0.59296,1.17112 z m 0.78028,2.29944 c 0.26669,0.76665 0.53328,1.53337 0.79426,2.302 v 0 c 0.16621,0.48963 0.69788,0.75179 1.18746,0.58555 0.48908,-0.16604 0.75129,-0.69674 0.58603,-1.18609 -0.2614,-0.77394 -0.52967,-1.54554 -0.79801,-2.31706 v 0 c -0.17001,-0.48871 -0.70396,-0.74705 -1.19268,-0.57712 -0.4887,0.17 -0.74704,0.70396 -0.5771,1.19264 10e-6,5e-5 10e-6,5e-5 10e-6,5e-5 z m 0.79426,2.30205 c 0.17048,0.50207 0.33321,1.00674 0.48726,1.5141 v 0 c 0.15009,0.4944 0.67253,0.77352 1.16695,0.62346 0.49439,-0.15008 0.77351,-0.67252 0.62346,-1.16693 0,0 0,0 -4e-5,-2e-5 -0.15976,-0.52631 -0.32811,-1.05001 -0.50412,-1.57112 v 0 c -0.16542,-0.48988 -0.69667,-0.7529 -1.18655,-0.58744 -0.48985,0.16543 -0.75289,0.69667 -0.58743,1.18654 10e-5,3.7e-4 2.9e-4,0.001 4.1e-4,0.001 z m 0.48724,1.51414 c 0.16561,0.54545 0.33809,1.08881 0.51538,1.63055 v 0 c 0.15937,0.487 0.6834,0.75259 1.17039,0.59323 0.4811,-0.15745 0.74721,-0.67144 0.59808,-1.15518 -0.16557,-0.53704 -0.33022,-1.07445 -0.49348,-1.61218 v 0 c -0.15009,-0.4944 -0.67256,-0.77353 -1.167,-0.62338 -0.49439,0.15009 -0.77349,0.67258 -0.62338,1.16699 0,0 0,0 0,0 z m 0.51538,1.63055 c 0.28863,0.88187 0.56353,1.76825 0.83893,2.65431 v 0 c 0.15101,0.48584 0.66732,0.7573 1.15318,0.60627 0.48586,-0.15103 0.75729,-0.66732 0.60626,-1.15317 -9e-5,-3.4e-4 -5.4e-4,-6.2e-4 -2.8e-4,-0.001 -0.27754,-0.88917 -0.5552,-1.77819 -0.8296,-2.66832 v 0 c -0.15097,-0.48969 -0.67032,-0.76428 -1.16001,-0.61333 -0.48969,0.15097 -0.76428,0.67032 -0.61333,1.16 0.001,0.006 0.004,0.01 0.005,0.0154 z m 0.83892,2.6543 c 0.28434,0.91473 0.56835,1.82989 0.83404,2.7503 v 0 c 0.14123,0.48932 0.65244,0.77151 1.14179,0.6303 0.48924,-0.14121 0.77141,-0.65227 0.63028,-1.14157 -0.26899,-0.93292 -0.55774,-1.86019 -0.84704,-2.78695 v 0 c -0.15158,-0.48568 -0.66822,-0.75651 -1.15385,-0.60493 -0.48527,0.15149 -0.75612,0.66738 -0.60525,1.15281 z m 0.83404,2.7503 c 0.18257,0.63255 0.36757,1.26443 0.555,1.8956 l 4e-5,-2e-5 c 0.14533,0.48939 0.65986,0.7683 1.14924,0.62294 0.4894,-0.14532 0.7683,-0.65985 0.62296,-1.14927 -4.3e-4,-10e-4 -0.001,-0.003 -5.4e-4,-0.004 -0.18858,-0.62429 -0.37314,-1.24984 -0.55384,-1.87646 v 0 c -0.14114,-0.48938 -0.65227,-0.77171 -1.14165,-0.63057 -0.48939,0.14113 -0.77172,0.65227 -0.63057,1.14165 4e-5,8e-5 3e-5,1.5e-4 8e-5,2.1e-4 l -2e-5,4e-5 z m 0.55502,1.89561 c 0.18811,0.63335 0.38624,1.26369 0.59452,1.89069 v 0 c 0.16134,0.48564 0.68583,0.74859 1.17147,0.58728 0.4857,-0.16132 0.74861,-0.68579 0.58729,-1.17149 -0.20247,-0.60962 -0.39658,-1.22203 -0.58234,-1.83695 v 0 c -0.1476,-0.48868 -0.66345,-0.76519 -1.15214,-0.61757 -0.4871,0.14714 -0.7637,0.66029 -0.61879,1.14806 z m 0.59449,1.89067 c 0.20491,0.61689 0.42025,1.23041 0.64685,1.83968 v 0 c 0.17867,0.48048 0.71301,0.72511 1.19347,0.54642 0.48044,-0.17869 0.7251,-0.71301 0.54642,-1.19345 -2.9e-4,-0.001 -4.2e-4,-0.001 -0.001,-0.003 -0.2205,-0.58717 -0.42916,-1.17877 -0.62683,-1.77401 v 0 c -0.16132,-0.48568 -0.68581,-0.74863 -1.17151,-0.5873 -0.48569,0.16133 -0.74866,0.68579 -0.58739,1.17147 0,0 0,0 -1e-5,2e-5 z m 0.64685,1.83968 c 0.21656,0.58236 0.43948,1.16239 0.66956,1.73953 v 0 c 0.19032,0.4774 0.73163,0.71012 1.20905,0.51974 0.47739,-0.19032 0.71011,-0.73163 0.51973,-1.20904 -1e-4,-3.7e-4 -4.7e-4,-0.001 -4.2e-4,-0.001 -0.22602,-0.56366 -0.44531,-1.12996 -0.65886,-1.69843 v 0 c -0.18023,-0.47987 -0.71535,-0.72279 -1.19523,-0.54256 -0.47875,0.17983 -0.72184,0.71307 -0.54358,1.19242 z m 0.66956,1.73953 c 0.21674,0.54359 0.44118,1.08418 0.67539,1.62046 v 0 c 0.206,0.4717 0.75535,0.68712 1.22705,0.48114 0.47172,-0.20598 0.68711,-0.75534 0.48113,-1.22704 -1e-4,-3.4e-4 -5.4e-4,-6.3e-4 -4.7e-4,-10e-4 -0.22689,-0.5178 -0.44457,-1.0397 -0.65497,-1.56442 v 0 c -0.19127,-0.477 -0.73303,-0.70865 -1.21001,-0.51743 -0.47636,0.191 -0.70814,0.73164 -0.5181,1.20833 z m 0.67539,1.62046 c 0.23116,0.52939 0.47455,1.0533 0.72847,1.57214 v 0 c 0.22796,0.46584 0.7904,0.65868 1.25622,0.43069 0.46586,-0.22795 0.65868,-0.7904 0.4307,-1.25626 -0.003,-0.004 -0.005,-0.008 -0.006,-0.0129 -0.24753,-0.48689 -0.48208,-0.98047 -0.7013,-1.48081 v 0 c -0.20659,-0.47143 -0.75622,-0.68614 -1.22768,-0.47955 -0.47105,0.20641 -0.68588,0.75532 -0.48002,1.22661 z m 0.72845,1.57216 c 0.23941,0.48918 0.48164,0.97698 0.72814,1.46263 v 0 c 0.23841,0.46981 0.81259,0.65737 1.2824,0.41888 0.46982,-0.23841 0.65736,-0.81258 0.41898,-1.28235 -0.003,-0.006 -0.006,-0.0128 -0.01,-0.0187 -0.25177,-0.47011 -0.49748,-0.94345 -0.73916,-1.41883 v 0 c -0.235,-0.46231 -0.80032,-0.64657 -1.26263,-0.41154 -0.45738,0.23253 -0.64345,0.78907 -0.41794,1.24992 z m 0.72814,1.46263 c 0.32043,0.63134 0.65206,1.25707 0.98449,1.8821 v 0 c 0.25573,0.4808 0.85281,0.66325 1.33364,0.40749 0.48079,-0.25573 0.66324,-0.85279 0.40748,-1.3336 -0.006,-0.0105 -0.011,-0.0204 -0.0168,-0.0304 -0.34594,-0.59857 -0.6908,-1.19836 -1.01722,-1.80782 v 0 c -0.24877,-0.46445 -0.82691,-0.6393 -1.29133,-0.39054 -0.45722,0.24487 -0.635,0.81019 -0.40025,1.27267 z m 0.98449,1.8821 c 0.30203,0.56786 0.60224,1.13753 0.92179,1.6958 v 0 c 0.27902,0.4874 0.90029,0.65634 1.38771,0.37732 0.48739,-0.27897 0.65634,-0.90029 0.37733,-1.3877 -0.004,-0.007 -0.009,-0.0154 -0.0133,-0.0226 -0.32467,-0.53475 -0.63623,-1.07768 -0.9492,-1.61927 v 0 c -0.27251,-0.47151 -0.87561,-0.63283 -1.34714,-0.36036 -0.45982,0.26573 -0.62656,0.8479 -0.37719,1.31676 z m 0.92178,1.69574 c 0.18294,0.31959 0.37367,0.63469 0.57434,0.94349 v 0 c 0.30814,0.47416 0.94232,0.60879 1.41652,0.3006 0.47418,-0.30814 0.60881,-0.94233 0.30064,-1.41651 -3e-5,-2e-5 -3e-5,-2e-5 -1e-5,-6e-5 -0.18449,-0.28385 -0.36402,-0.571 -0.53974,-0.86039 v 0 c -0.29147,-0.48008 -0.91692,-0.63293 -1.39697,-0.34146 -0.47131,0.28616 -0.62871,0.8958 -0.35478,1.37433 z m 0.57431,0.94347 c 0.22825,0.35124 0.46776,0.69509 0.71065,1.03624 v 0 c 0.33006,0.46358 0.97343,0.57181 1.43699,0.24178 0.46356,-0.33003 0.57179,-0.9734 0.24176,-1.43696 -0.005,-0.005 -0.007,-0.01 -0.0112,-0.0146 -0.22804,-0.30841 -0.45223,-0.62022 -0.66129,-0.94193 v 0 c -0.30814,-0.47417 -0.94235,-0.60882 -1.41655,-0.30065 -0.47419,0.30817 -0.60882,0.94234 -0.30064,1.41654 z m 0.71065,1.03624 c 0.35843,0.50345 0.80303,0.94245 1.28596,1.3261 v 0 c 0.3726,0.29607 0.91464,0.23394 1.21066,-0.13867 0.21489,-0.27052 0.24746,-0.6432 0.0828,-0.94689 -0.27239,-0.50216 -0.57168,-0.99115 -0.91153,-1.45073 v 0 c -0.33835,-0.45757 -0.98352,-0.5542 -1.44109,-0.21586 -0.45176,0.33399 -0.55269,0.96834 -0.22677,1.42605 z" />
    <path
       inkscape:connector-curvature="0"
       id="path223"
       style="fill:#00000f;fill-opacity:1;fill-rule:nonzero;stroke:none;stroke-width:0.35277775"
       d="m 101.51769,84.448327 c 0.3054,0.06216 0.63244,0.01741 0.93634,-0.03118 v 0 c 0.10573,-0.01688 0.17773,-0.116289 0.16078,-0.222045 -0.0157,-0.09803 -0.10289,-0.168411 -0.20206,-0.162936 -0.15279,0.0084 -0.30758,0.0095 -0.45954,-0.01096 -0.0858,-0.0115 -0.17675,-0.02844 -0.25354,-0.07046 v 0 c -0.12983,-0.07098 -0.2926,-0.02334 -0.36361,0.106455 -0.0705,0.130072 -0.0234,0.292567 0.10642,0.363588 0.0236,0.01283 0.0489,0.02216 0.0751,0.02749 z m -0.53046,-0.150756 c 0.17079,0.06849 0.35043,0.114136 0.53046,0.150756 v 0 c 0.14501,0.02948 0.28642,-0.06412 0.31593,-0.209102 0.0234,-0.115122 -0.0309,-0.232072 -0.13391,-0.288453 -0.12977,-0.07095 -0.25827,-0.14718 -0.37493,-0.238476 v 0 c -0.14836,-0.116251 -0.36284,-0.09022 -0.47908,0.0581 -0.11622,0.148335 -0.0902,0.362813 0.0581,0.479069 0.0254,0.01986 0.0534,0.03607 0.0834,0.04813 z m -0.49271,-0.341341 c 0.14027,0.143929 0.30538,0.266168 0.49269,0.341326 v 0 c 0.1749,0.07017 0.37361,-0.0147 0.44377,-0.189613 0.0566,-0.140809 0.0132,-0.302052 -0.1062,-0.395649 -0.0861,-0.06745 -0.15511,-0.154835 -0.21395,-0.246331 v 0 c -0.11821,-0.183871 -0.36305,-0.237074 -0.54692,-0.11887 -0.18387,0.118204 -0.23708,0.363057 -0.11887,0.546922 0.0143,0.02235 0.0309,0.04319 0.0495,0.06222 z m -0.4093,-0.555664 c 0.11607,0.198685 0.24828,0.390529 0.40929,0.555694 l 3e-5,2.1e-5 c 0.15256,0.156494 0.40314,0.159675 0.55968,0.0071 0.13466,-0.131281 0.15839,-0.339222 0.0566,-0.497451 -0.0913,-0.141948 -0.16079,-0.297665 -0.22217,-0.454438 v 0 c -0.0902,-0.230249 -0.3499,-0.343805 -0.58013,-0.253664 -0.23025,0.09018 -0.343805,0.349902 -0.25363,0.580156 0.009,0.02164 0.0186,0.04254 0.0303,0.06261 z m -0.511126,-1.112944 c 0.153435,0.376009 0.305748,0.761436 0.511126,1.112944 v 0 c 0.12474,0.213517 0.39893,0.28547 0.61239,0.160742 0.19039,-0.111217 0.2715,-0.34447 0.1911,-0.549802 -0.13597,-0.347214 -0.23956,-0.708438 -0.34631,-1.065328 v 0 c -0.0813,-0.27195 -0.36773,-0.426473 -0.639697,-0.345128 -0.271917,0.08134 -0.426469,0.367732 -0.3451,0.639711 0.0048,0.01587 0.0103,0.03153 0.01656,0.04689 z m -0.627797,-1.719101 c 0.191135,0.579399 0.397245,1.154169 0.627796,1.719104 v 0 c 0.107246,0.262815 0.407233,0.388918 0.670027,0.281691 0.24504,-0.09997 0.37409,-0.369645 0.29823,-0.623159 -0.16834,-0.562803 -0.31713,-1.131342 -0.45429,-1.702483 v 0 c -0.0766,-0.319021 -0.397334,-0.515539 -0.716375,-0.438899 -0.319019,0.07661 -0.515509,0.397355 -0.43894,0.71635 0.0039,0.01596 0.0083,0.03177 0.01351,0.04737 z m -0.445518,-1.446219 c 0.130174,0.487247 0.287575,0.967452 0.445518,1.446219 l -1.7e-5,3e-5 c 0.102808,0.311546 0.438714,0.480819 0.750286,0.378028 0.293454,-0.0968 0.463674,-0.402414 0.391534,-0.702877 -0.111869,-0.465913 -0.223842,-0.93327 -0.307514,-1.405255 v 0 c -0.06326,-0.356776 -0.403746,-0.594704 -0.760499,-0.531468 -0.356779,0.06326 -0.594702,0.403742 -0.531452,0.760513 0.0033,0.01846 0.0073,0.03673 0.0122,0.05484 z m -0.218812,-1.104425 c 0.05018,0.372156 0.121858,0.741581 0.218812,1.104425 v 0 c 0.09355,0.350041 0.453107,0.557997 0.803176,0.464457 0.329032,-0.08793 0.536041,-0.412994 0.476597,-0.748332 -0.055,-0.310283 -0.08577,-0.62465 -0.09689,-0.93952 v 0 c -0.01373,-0.388699 -0.339926,-0.692644 -0.728631,-0.678925 -0.388677,0.01369 -0.69267,0.339912 -0.67895,0.728606 7.87e-4,0.02315 0.0028,0.04632 0.0059,0.0693 z m -0.0214,-1.284638 c -0.03941,0.427259 -0.036,0.859129 0.0214,1.284638 v 0 c 0.05198,0.385463 0.406573,0.655785 0.792036,0.603806 0.358788,-0.04841 0.622448,-0.360938 0.609689,-0.722755 -0.01131,-0.320398 0.01839,-0.641382 0.07743,-0.956245 v 0 c 0.07723,-0.411631 -0.193914,-0.807956 -0.605563,-0.885157 -0.411632,-0.07723 -0.807974,0.193864 -0.885189,0.605545 -0.0043,0.0233 -0.0076,0.04667 -0.0098,0.07015 z m 0.252485,-1.343774 c -0.122786,0.439496 -0.210577,0.889196 -0.252485,1.343774 v 0 c -0.03844,0.417059 0.268465,0.786337 0.685541,0.82483 0.389738,0.03594 0.742859,-0.230681 0.815005,-0.615386 0.06767,-0.360687 0.168731,-0.714704 0.293587,-1.05962 v 0 c 0.15225,-0.420589 -0.06529,-0.884991 -0.485893,-1.037241 -0.42063,-0.152268 -0.885015,0.06532 -1.037259,0.485921 -0.0065,0.01924 -0.01291,0.03833 -0.01852,0.05772 z m 0.477809,-1.338552 c -0.189405,0.434652 -0.350254,0.881855 -0.477809,1.338552 v 0 c -0.120345,0.430843 0.131318,0.877637 0.562123,0.997976 0.408196,0.114072 0.835258,-0.105854 0.979525,-0.504379 0.13555,-0.374537 0.29787,-0.739202 0.48241,-1.092161 v 0 c 0.21948,-0.419755 0.0571,-0.937906 -0.36259,-1.157367 -0.419762,-0.219481 -0.93792,-0.05713 -1.157378,0.3626 -0.0095,0.01788 -0.01854,0.03602 -0.02601,0.05493 z M 99.59199,72.79572 c -0.215354,0.411018 -0.415819,0.829826 -0.601143,1.255224 v 0 c -0.189156,0.434224 0.0095,0.939591 0.443684,1.128811 0.412607,0.179747 0.893999,0.01 1.102549,-0.388866 0.19595,-0.374843 0.4046,-0.743078 0.6257,-1.103673 v 0 c 0.26083,-0.425454 0.12731,-0.981781 -0.29818,-1.242549 -0.42547,-0.260766 -0.981755,-0.127249 -1.242549,0.298213 -0.01042,0.01736 -0.02059,0.03492 -0.03011,0.0528 z m 0,0 v 0 c -0.231555,0.442034 -0.06097,0.988124 0.381068,1.219669 0.421152,0.220659 0.941252,0.07715 1.189692,-0.328194 0.21546,-0.351631 0.47022,-0.678347 0.74659,-0.983983 v 0 c 0.34772,-0.384515 0.31787,-0.978108 -0.0666,-1.325826 -0.38449,-0.347697 -0.97811,-0.317868 -1.3258,0.06667 -0.007,0.008 -0.0139,0.01612 -0.0209,0.02421 -0.34584,0.409763 -0.654796,0.85221 -0.903797,1.327555 z m 2.31735,-0.09251 c 0.29576,-0.327104 0.62449,-0.623866 0.97834,-0.887004 v 0 c 0.42846,-0.318625 0.5175,-0.924225 0.19883,-1.352657 -0.3186,-0.428433 -0.92419,-0.517487 -1.35264,-0.198859 -0.0103,0.0077 -0.0205,0.01555 -0.0305,0.02364 -0.43852,0.354166 -0.84399,0.749069 -1.20758,1.179822 v 0 c -0.33441,0.396166 -0.28429,0.988394 0.11188,1.322796 0.38661,0.326316 0.96232,0.287511 1.30167,-0.08775 z m 0.97834,-0.887004 c 0.37409,-0.278211 0.77746,-0.515662 1.19714,-0.718141 v 0 c 0.49352,-0.238118 0.70058,-0.831251 0.4625,-1.324762 -0.23814,-0.493538 -0.83125,-0.700585 -1.32476,-0.462503 -0.008,0.0033 -0.0146,0.0072 -0.0219,0.01091 -0.52937,0.271671 -1.03413,0.592607 -1.49727,0.966609 l 3e-5,1.4e-5 c -0.4154,0.335463 -0.48017,0.94417 -0.1447,1.359536 0.32605,0.403687 0.91263,0.478002 1.32901,0.168331 z m 1.19714,-0.718141 c 0.45704,-0.220535 0.93778,-0.389927 1.42853,-0.51808 v 0 c 0.54441,-0.142134 0.8705,-0.698704 0.7287,-1.242911 -0.14215,-0.544447 -0.69872,-0.87054 -1.24314,-0.728369 -0.0121,0.003 -0.024,0.0065 -0.036,0.01006 -0.60636,0.182316 -1.19848,0.413934 -1.76203,0.703135 v 0 c -0.48751,0.250192 -0.67988,0.848228 -0.42967,1.335783 0.24585,0.479005 0.8289,0.674536 1.31388,0.440568 z m 1.42853,-0.51808 c 0.55848,-0.145818 1.12342,-0.266546 1.69231,-0.364051 v 0 c 0.56353,-0.09657 0.94206,-0.63168 0.84549,-1.195219 -0.0966,-0.563502 -0.63173,-0.942042 -1.19524,-0.845459 0,0 0,0 0,0 -0.63925,0.109565 -1.27212,0.256595 -1.89327,0.443325 v 0 c -0.53885,0.162007 -0.84434,0.73016 -0.68232,1.26898 0.15779,0.524922 0.70268,0.830899 1.23302,0.692421 z m 1.69231,-0.364051 c 0.56101,-0.09615 1.12649,-0.167106 1.69421,-0.208651 l 3e-5,2e-5 c 0.56779,-0.04155 0.99442,-0.535537 0.95284,-1.103349 -0.0413,-0.563887 -0.52898,-0.989299 -1.09325,-0.953582 -0.63799,0.04038 -1.27353,0.116884 -1.90358,0.224884 v 0 c -0.56353,0.09657 -0.94205,0.63168 -0.84548,1.195219 0.0966,0.563522 0.63173,0.942043 1.19523,0.845459 z m 1.69424,-0.208631 c 0.551,-0.04033 1.1031,-0.06637 1.65556,-0.07509 v 0 c 0.54902,-0.0087 0.98705,-0.46079 0.97839,-1.009827 -0.008,-0.519125 -0.41449,-0.944558 -0.93271,-0.976595 -0.61313,-0.03795 -1.22862,-0.03424 -1.84165,0.0046 v 0 c -0.56821,0.03597 -0.99965,0.525747 -0.96369,1.093947 0.036,0.568219 0.52578,0.999666 1.09395,0.963678 0.004,-2.4e-5 0.007,-3.32e-4 0.01,-9.74e-4 z m 1.65556,-0.07509 c 0.49668,-0.0079 0.99396,0.0045 1.48919,0.04466 v 0 c 0.51593,0.04184 0.96808,-0.342464 1.00995,-0.858386 0.0399,-0.492187 -0.30884,-0.93093 -0.79737,-1.003013 -0.54916,-0.08101 -1.10208,-0.135423 -1.65609,-0.169686 v 0 c -0.54804,-0.03391 -1.0198,0.382862 -1.05372,0.930925 -0.0339,0.548029 0.38289,1.019807 0.93093,1.053714 0.0256,0.0016 0.0514,0.0022 0.0771,0.0018 z m 1.48919,0.04466 c 0.46125,0.03742 0.92054,0.099 1.37503,0.186207 l -4e-5,-2e-5 c 0.48316,0.09273 0.94996,-0.223813 1.04267,-0.706932 0.0889,-0.463055 -0.19851,-0.915128 -0.65549,-1.0312 -0.51074,-0.129742 -1.02829,-0.232528 -1.54959,-0.309454 v 0 c -0.51206,-0.07554 -0.98847,0.278326 -1.06401,0.790394 -0.0755,0.512099 0.27833,0.988471 0.7904,1.064011 0.0202,0.003 0.0406,0.0053 0.061,0.007 z m 1.37503,0.186207 c 0.42671,0.08187 0.84974,0.184641 1.2643,0.315106 v 0 c 0.449,0.14132 0.92754,-0.108097 1.06884,-0.557064 0.13639,-0.433266 -0.091,-0.897327 -0.51692,-1.055096 -0.46774,-0.173269 -0.94573,-0.318343 -1.42909,-0.441096 v 0 c -0.47683,-0.121145 -0.96155,0.167243 -1.08268,0.644043 -0.12109,0.476818 0.16726,0.961522 0.64406,1.08265 0.017,0.0043 0.0342,0.0081 0.0515,0.01142 z m 1.2643,0.315106 c 0.38118,0.119981 0.75463,0.264912 1.11569,0.436208 v 0 c 0.40772,0.19341 0.89502,0.01971 1.08848,-0.387991 0.18557,-0.391309 0.0337,-0.859471 -0.34633,-1.067211 -0.41994,-0.229535 -0.85722,-0.426948 -1.30592,-0.593164 v 0 c -0.4414,-0.163475 -0.93177,0.06177 -1.09527,0.503165 -0.16348,0.441401 0.0618,0.931773 0.50317,1.095267 0.0134,0.0048 0.0267,0.0096 0.0402,0.01377 z m 1.11569,0.436208 c 0.35373,0.167838 0.70188,0.347646 1.04137,0.542828 v 0 c 0.37333,0.214484 0.84984,0.08597 1.06447,-0.287327 0.20492,-0.356506 0.0978,-0.810868 -0.24484,-1.038219 -0.3627,-0.24066 -0.73696,-0.463719 -1.11886,-0.672484 v 0 c -0.39597,-0.216414 -0.89242,-0.07089 -1.10888,0.325101 -0.21642,0.395987 -0.0709,0.892441 0.32512,1.108859 0.0137,0.0075 0.0276,0.01469 0.0417,0.0212 z m 1.04137,0.542828 c 0.27481,0.158002 0.53226,0.34705 0.7595,0.568425 v 0 c 0.29947,0.291761 0.77879,0.285498 1.07052,-0.01398 0.28907,-0.296705 0.286,-0.770641 -0.007,-1.063576 -0.30553,-0.305528 -0.64358,-0.577621 -1.00348,-0.816415 v 0 c -0.35878,-0.238071 -0.84264,-0.140197 -1.08071,0.218577 -0.23806,0.358779 -0.14019,0.842636 0.21861,1.080677 0.0138,0.0093 0.0281,0.01786 0.0425,0.02617 z m 0.7595,0.568425 c 0.22673,0.220912 0.43351,0.462405 0.61433,0.722306 v 0 c 0.23806,0.342289 0.70849,0.426732 1.05074,0.188668 0.34227,-0.238048 0.42676,-0.708475 0.18867,-1.05074 -5.2e-4,-0.0011 -10e-4,-0.002 -0.003,-0.0037 -0.23484,-0.33366 -0.49938,-0.645941 -0.7878,-0.934411 v 0 c -0.29562,-0.295651 -0.775,-0.295658 -1.07064,-2.8e-5 -0.29566,0.295628 -0.29571,0.774977 -4e-5,1.070643 0.002,0.0021 0.005,0.0047 0.007,0.0071 z m 0.61434,0.722355 c 0.16752,0.240806 0.3038,0.502835 0.40464,0.778287 v 0 c 0.14614,0.399218 0.58827,0.604369 0.9875,0.458201 0.39922,-0.146133 0.60437,-0.588272 0.4582,-0.987505 -0.004,-0.01201 -0.009,-0.02394 -0.0142,-0.03572 -0.16081,-0.379581 -0.36199,-0.741703 -0.59923,-1.078827 v 0 c -0.23996,-0.340937 -0.71084,-0.42283 -1.05178,-0.182914 -0.33964,0.239041 -0.4224,0.707498 -0.18526,1.048434 z m 0.40462,0.778316 c 0.11224,0.306489 0.18567,0.626362 0.23206,0.949146 v 0 c 0.0626,0.435481 0.46637,0.737767 0.90185,0.67517 0.43548,-0.0626 0.73776,-0.466363 0.67517,-0.901839 -10e-4,-0.0114 -0.004,-0.02312 -0.006,-0.0346 -0.081,-0.428706 -0.20131,-0.850858 -0.37168,-1.252914 v 0 c -0.16587,-0.391425 -0.61767,-0.574296 -1.00911,-0.408392 -0.37776,0.160047 -0.56359,0.588207 -0.42256,0.973436 z m 0.23206,0.949146 c 0.057,0.396558 0.0603,0.800067 0.0392,1.199544 v 0 c -0.0243,0.460763 0.3295,0.854007 0.79026,0.878304 0.46077,0.0243 0.85401,-0.329508 0.87831,-0.79027 10e-4,-0.0185 10e-4,-0.03742 10e-4,-0.05615 -0.007,-0.499815 -0.0447,-1.001058 -0.13759,-1.492726 v 0 c -0.0817,-0.432301 -0.49839,-0.71651 -0.93071,-0.634813 -0.41888,0.07916 -0.70119,0.474094 -0.64055,0.896094 z m 0.0392,1.199544 c -0.0258,0.489467 -0.0825,0.977036 -0.16381,1.460293 l -2e-5,2.9e-5 c -0.0807,0.480337 0.24316,0.935183 0.72349,1.015936 0.48031,0.08078 0.93515,-0.243127 1.01594,-0.72344 0.003,-0.01473 0.004,-0.03017 0.007,-0.04513 0.0642,-0.556 0.0957,-1.116008 0.0876,-1.675726 v 0 c -0.007,-0.461342 -0.38608,-0.829944 -0.84742,-0.823283 -0.43962,0.0064 -0.79907,0.352333 -0.82222,0.791354 z m -0.16381,1.460293 c -0.0857,0.5102 -0.20714,1.014111 -0.35729,1.5091 v 0 c -0.14782,0.48721 0.12738,1.001996 0.61462,1.149818 0.48724,0.147768 1.00201,-0.127404 1.14982,-0.614615 0.004,-0.01296 0.007,-0.02634 0.0108,-0.03936 0.14768,-0.577823 0.2593,-1.165078 0.32766,-1.757653 v 0 c 0.0559,-0.483842 -0.29112,-0.921338 -0.77499,-0.977206 -0.46625,-0.05379 -0.89298,0.267013 -0.97082,0.729879 z m -0.35729,1.5091 c -0.17228,0.567924 -0.39136,1.121177 -0.63399,1.662474 v 0 c -0.2168,0.484185 3e-5,1.052429 0.48419,1.269164 0.48418,0.216785 1.05242,5e-6 1.26917,-0.484198 0.005,-0.01091 0.009,-0.02234 0.0149,-0.03288 0.25222,-0.625542 0.47482,-1.264508 0.64189,-1.918314 v 0 c 0.1261,-0.493289 -0.1716,-0.995405 -0.66489,-1.121498 -0.47792,-0.122146 -0.96732,0.153523 -1.11052,0.625593 z m -0.63399,1.662474 c -0.27968,0.624559 -0.58897,1.235695 -0.92268,1.833093 l 2e-5,1.1e-5 c -0.26741,0.478759 -0.0961,1.083681 0.38264,1.351128 0.47875,0.267434 1.08371,0.09611 1.35113,-0.382639 0.004,-0.0069 0.007,-0.01373 0.0115,-0.02029 0.34878,-0.660071 0.66607,-1.336999 0.94532,-2.029433 v 0 c 0.19845,-0.491981 -0.0396,-1.051654 -0.53158,-1.250058 -0.47895,-0.193135 -1.02489,0.02698 -1.23592,0.498315 z m -0.32378,4.83226 c 0.39622,-0.675606 0.78039,-1.358335 1.14595,-2.051045 v 0 c 0.25621,-0.484873 0.0708,-1.085636 -0.41405,-1.341816 -0.47689,-0.251978 -1.06773,-0.07719 -1.33076,0.393716 -0.36582,0.654789 -0.75153,1.298412 -1.15242,1.932325 v 0 c -0.30246,0.478799 -0.15953,1.112152 0.31929,1.414625 0.47879,0.302489 1.11216,0.159537 1.41461,-0.319262 0.006,-0.0096 0.012,-0.01883 0.0176,-0.02849 z m -1.40812,1.999194 c 0.53018,-0.620717 0.99507,-1.295629 1.40812,-1.999194 v 0 c 0.28683,-0.488322 0.12321,-1.116765 -0.36518,-1.403497 -0.47717,-0.280158 -1.09058,-0.131141 -1.38612,0.336666 -0.37659,0.596083 -0.78793,1.171554 -1.24632,1.707739 v 0 c -0.37518,0.438809 -0.32361,1.098701 0.11525,1.473906 0.43881,0.375182 1.09871,0.323595 1.47389,-0.115219 1.2e-4,-1.32e-4 2.3e-4,-2.63e-4 2.6e-4,-2.43e-4 z m -1.59747,1.607849 c 0.5722,-0.494531 1.10627,-1.032811 1.59742,-1.60784 l 3e-5,2.1e-5 c 0.37498,-0.439009 0.32305,-1.098894 -0.11593,-1.473855 -0.43886,-0.374885 -1.09848,-0.323132 -1.47355,0.115539 -0.41817,0.489099 -0.87756,0.942842 -1.37302,1.353578 v 0 c -0.44914,0.372395 -0.51139,1.038375 -0.139,1.487511 0.37238,0.449165 1.03836,0.511427 1.48752,0.139045 0.005,-0.0049 0.0108,-0.0094 0.0163,-0.01414 z m -1.94433,1.359723 c 0.69002,-0.389082 1.34478,-0.841558 1.94433,-1.359723 v 0 c 0.44143,-0.381493 0.49002,-1.048648 0.10849,-1.490065 -0.37597,-0.435065 -1.03086,-0.489496 -1.47354,-0.122492 -0.49675,0.411863 -1.04119,0.764303 -1.61363,1.061487 v 0 c -0.53258,0.276502 -0.74018,0.932398 -0.46366,1.464978 0.27648,0.532604 0.93238,0.740203 1.46499,0.463726 0.0115,-0.0056 0.0221,-0.01175 0.0331,-0.01787 z m -2.26697,0.941618 c 0.79078,-0.219244 1.55236,-0.538646 2.26697,-0.941618 v 0 c 0.52272,-0.294753 0.7075,-0.957435 0.41275,-1.480144 -0.28752,-0.509975 -0.92747,-0.70041 -1.44705,-0.430664 -0.58126,0.301742 -1.1924,0.54596 -1.82367,0.721013 v 0 c -0.58855,0.16319 -0.93341,0.772602 -0.77017,1.361228 0.16319,0.588552 0.77262,0.933379 1.36121,0.770211 z m -2.50494,0.359479 c 0.84519,-0.02123 1.68952,-0.133409 2.50494,-0.359479 v 0 c 0.58855,-0.163192 0.93343,-0.772633 0.77016,-1.36123 -0.16318,-0.588584 -0.7726,-0.933407 -1.36118,-0.77023 -0.64462,0.178749 -1.31175,0.268249 -1.97964,0.291345 v 0 c -0.60731,0.02103 -1.08262,0.53036 -1.06159,1.137677 0.0208,0.60326 0.52384,1.07706 1.12727,1.061906 z m -2.92308,-0.373479 c 0.95266,0.245992 1.93718,0.398304 2.92308,0.373479 v 0 c 0.60749,-0.01526 1.08759,-0.520109 1.07231,-1.12757 -0.0153,-0.60751 -0.52011,-1.087579 -1.12763,-1.072292 -0.003,1.26e-4 -0.007,10e-6 -0.0107,1.35e-4 -0.78039,0.02702 -1.56158,-0.09739 -2.31611,-0.288806 v 0 c -0.58432,-0.148218 -1.17819,0.205314 -1.32642,0.789626 -0.14777,0.58257 0.2032,1.175015 0.78512,1.325275 z m -3.1748,-1.259202 c 1.0079,0.533395 2.06935,0.973768 3.1748,1.259202 v 0 c 0.58371,0.150733 1.17907,-0.200274 1.32978,-0.783964 0.15072,-0.583692 -0.2003,-1.179048 -0.78399,-1.329763 -9.9e-4,-1.87e-4 -0.003,-8.89e-4 -0.004,-0.001 -0.93992,-0.238425 -1.84109,-0.615471 -2.6966,-1.069062 l -1e-5,2.5e-5 c -0.53133,-0.281773 -1.19053,-0.07933 -1.47225,0.452072 -0.2818,0.531361 -0.0793,1.19053 0.45205,1.472287 2.7e-4,1.11e-4 6.3e-4,3.21e-4 6.3e-4,3.21e-4 z m -2.993543,-2.231813 c 0.878183,0.89012 1.888123,1.646788 2.993523,2.231799 v 0 c 0.53161,0.281356 1.19062,0.07845 1.47197,-0.453138 0.28119,-0.531338 0.0787,-1.189995 -0.45243,-1.471557 -0.90923,-0.482035 -1.73914,-1.105276 -2.46171,-1.837665 v 0 c -0.422656,-0.428388 -1.112586,-0.433064 -1.540971,-0.01042 -0.428402,0.42268 -0.433052,1.112579 -0.01038,1.540977 z m -3.32469,-7.954047 c 0.289187,0.986108 0.592045,1.968423 0.921224,2.94195 0.24438,0.72275 0.502759,1.441284 0.790431,2.148062 0.241023,0.59222 0.501004,1.179457 0.812743,1.738268 0.223849,0.401262 0.476192,0.797266 0.80031,1.125812 v 0 c 0.422679,0.428402 1.112604,0.433029 1.541005,0.01035 0.42838,-0.422644 0.43301,-1.112566 0.0104,-1.540947 -0.244659,-0.24799 -0.454701,-0.531989 -0.658943,-0.813249 -0.318263,-0.438305 -0.616949,-0.89076 -0.908738,-1.346972 -0.945047,-1.477681 -1.820588,-3.000107 -2.68189,-4.527667 v 0 c -0.09284,-0.16465 -0.30156,-0.222845 -0.466193,-0.130031 -0.13864,0.07821 -0.205153,0.241667 -0.160276,0.394444 z" />
  </g>
</svg>
