<?xml version="1.0" encoding="UTF-8" standalone="no"?>
<!-- Created with Inkscape (http://www.inkscape.org/) -->

<svg
   xmlns:dc="http://purl.org/dc/elements/1.1/"
   xmlns:cc="http://creativecommons.org/ns#"
   xmlns:rdf="http://www.w3.org/1999/02/22-rdf-syntax-ns#"
   xmlns:svg="http://www.w3.org/2000/svg"
   xmlns="http://www.w3.org/2000/svg"
   xmlns:sodipodi="http://sodipodi.sourceforge.net/DTD/sodipodi-0.dtd"
   xmlns:inkscape="http://www.inkscape.org/namespaces/inkscape"
   version="1.1"
   id="svg29"
   xml:space="preserve"
   width="192.92502"
   height="177.20453"
   viewBox="0 0 192.92502 177.20453"
   sodipodi:docname="ufg_detail0.svg"
   inkscape:version="0.92.3 (2405546, 2018-03-11)"><metadata
     id="metadata35"><rdf:RDF><cc:Work
         rdf:about=""><dc:format>image/svg+xml</dc:format><dc:type
           rdf:resource="http://purl.org/dc/dcmitype/StillImage" /><dc:title></dc:title></cc:Work></rdf:RDF></metadata><defs
     id="defs33" /><sodipodi:namedview
     pagecolor="#ffffff"
     bordercolor="#666666"
     borderopacity="1"
     objecttolerance="10"
     gridtolerance="10"
     guidetolerance="10"
     inkscape:pageopacity="0"
     inkscape:pageshadow="2"
     inkscape:window-width="960"
     inkscape:window-height="1025"
     id="namedview31"
     showgrid="false"
     fit-margin-top="0"
     fit-margin-left="0"
     fit-margin-right="0"
     fit-margin-bottom="0"
     inkscape:zoom="2.1266369"
     inkscape:cx="168.35335"
     inkscape:cy="92.452695"
     inkscape:window-x="0"
     inkscape:window-y="27"
     inkscape:window-maximized="0"
     inkscape:current-layer="g37" /><g
     id="g37"
     inkscape:groupmode="layer"
     inkscape:label="canvas (1)"
     transform="matrix(1.3333333,0,0,-1.3333333,-245.41925,487.34384)"><path
       inkscape:connector-curvature="0"
       id="path225"
       style="fill:#00a9d3;fill-opacity:1;fill-rule:nonzero;stroke:none"
       d="m 276.0953,240.8147 c 2.9916,0.0507 5.9852,0.0318 8.9771,0.0336 v 0 c 0.3034,2e-4 0.5493,0.2464 0.5491,0.5498 -2e-4,0.3033 -0.2459,0.549 -0.5491,0.5492 -1.9529,10e-4 -3.9069,0.0126 -5.8586,0.0846 -0.6442,0.0238 -1.2884,0.0535 -1.9309,0.1061 -0.3548,0.0291 -0.7123,0.0605 -1.0623,0.1275 v 0 c -0.3971,0.076 -0.7805,-0.1843 -0.8566,-0.5813 -0.076,-0.3971 0.1843,-0.7805 0.5813,-0.8565 0.0494,-0.01 0.0997,-0.0138 0.15,-0.013 z m -4.1871,0.1586 c 1.3922,-0.1082 2.7903,-0.1822 4.1871,-0.1586 v 0 c 0.4042,0.007 0.7263,0.34 0.7195,0.7442 -0.006,0.3465 -0.2539,0.6414 -0.5942,0.7066 -1.3182,0.2524 -2.6197,0.5907 -3.9105,0.9564 v 0 c -0.6099,0.1729 -1.2444,-0.1814 -1.4172,-0.7913 -0.1728,-0.6099 0.1815,-1.2444 0.7914,-1.4172 0.0731,-0.0208 0.1481,-0.0342 0.2239,-0.0401 z m -4.2642,0.7417 c 1.3779,-0.4348 2.8278,-0.6299 4.2642,-0.7417 v 0 c 0.632,-0.0491 1.1842,0.4234 1.2333,1.0554 0.0424,0.5449 -0.3055,1.0442 -0.8314,1.1932 -1.2775,0.3621 -2.5526,0.7353 -3.8153,1.1466 v 0 c -0.7316,0.2384 -1.518,-0.1615 -1.7563,-0.8932 -0.2384,-0.7316 0.1615,-1.518 0.8932,-1.7563 0.004,-0.001 0.008,-0.003 0.0123,-0.004 z m -3.2127,1.4104 c 1.0134,-0.5895 2.095,-1.0578 3.2128,-1.4104 v 0 c 0.7338,-0.2315 1.5164,0.1757 1.7479,0.9096 0.23,0.729 -0.1704,1.5072 -0.8972,1.744 -0.9101,0.2964 -1.7882,0.6924 -2.6034,1.1948 v 0 c -0.6681,0.4118 -1.5435,0.2041 -1.9553,-0.464 -0.4118,-0.6681 -0.204,-1.5436 0.464,-1.9554 0.0103,-0.006 0.0207,-0.0125 0.0312,-0.0186 z m -2.7675,2.2511 c 0.8002,-0.8872 1.7345,-1.6503 2.7675,-2.2511 v 0 c 0.6783,-0.3946 1.5482,-0.1646 1.9428,0.5138 0.3875,0.6662 0.1734,1.5198 -0.4826,1.9242 -0.7751,0.4778 -1.4778,1.0675 -2.0875,1.7435 h -10e-5 c -0.533,0.591 -1.4442,0.6379 -2.0352,0.1049 -0.591,-0.5331 -0.638,-1.4443 -0.1049,-2.0353 0,0 0,0 0,0 z m -2.0978,3.3272 c 0.5342,-1.2012 1.2148,-2.3483 2.0977,-3.3272 h 10e-5 c 0.533,-0.591 1.4442,-0.638 2.0352,-0.1049 0.591,0.533 0.638,1.4443 0.1049,2.0353 -0.684,0.7583 -1.2092,1.65 -1.6347,2.5746 v 0 c -0.3299,0.7168 -1.1784,1.0304 -1.8951,0.7006 -0.7103,-0.3269 -1.0259,-1.164 -0.7081,-1.8784 z m -1.1457,3.2805 c 0.2471,-1.1326 0.6758,-2.2239 1.1457,-3.2805 v 0 c 0.3206,-0.7209 1.1649,-1.0454 1.8859,-0.7248 0.7209,0.3206 1.0454,1.165 0.7248,1.8859 -0.002,0.006 -0.005,0.0112 -0.007,0.0167 -0.409,0.8887 -0.7974,1.8014 -1.045,2.7502 v 0 c -0.1939,0.743 -0.9535,1.1882 -1.6965,0.9943 -0.7219,-0.1884 -1.1664,-0.9129 -1.0074,-1.6418 z m -0.4794,3.8014 c 0.097,-1.27 0.2074,-2.5546 0.4794,-3.8014 v 0 c 0.1637,-0.7502 0.9046,-1.2258 1.6549,-1.0621 0.7502,0.1637 1.2258,0.9046 1.0621,1.6549 -0.004,0.0183 -0.008,0.0365 -0.0131,0.0547 -0.2851,1.0924 -0.3785,2.2422 -0.4662,3.3639 v 0 c -0.0587,0.7503 -0.7145,1.3109 -1.4647,1.2522 -0.7493,-0.0586 -1.3096,-0.7128 -1.2524,-1.4622 z m 0,0 v 0 c 0.0573,-0.7503 0.712,-1.3121 1.4624,-1.2549 0.7503,0.0573 1.3122,0.7121 1.2549,1.4624 -1e-4,9e-4 -2e-4,0.002 -2e-4,0.002 -0.1368,1.7481 -0.1618,3.5041 -0.1345,5.2567 v 0 c 0.0117,0.7506 -0.5874,1.3686 -1.338,1.3803 -0.7502,0.0117 -1.368,-0.5866 -1.3803,-1.3368 -0.0301,-1.8371 -0.004,-3.6776 0.1357,-5.5102 z m 2.5826,5.4666 c 0.0303,1.9418 0.2641,3.8782 0.6785,5.775 v 0 c 0.1668,0.7632 -0.3167,1.5171 -1.0799,1.6839 -0.7632,0.1667 -1.5171,-0.3168 -1.6839,-1.08 -0.004,-0.0167 -0.007,-0.0335 -0.0101,-0.0504 -0.3748,-2.074 -0.5883,-4.1773 -0.6229,-6.2849 v 0 c -0.0123,-0.7506 0.5862,-1.3691 1.3368,-1.3815 0.7506,-0.0123 1.3691,0.5862 1.3815,1.3369 0,3e-4 0,7e-4 0,0.001 z m 0.6785,5.775 c 0.411,1.8808 0.9336,3.7383 1.5924,5.5478 v 0 c 0.2805,0.7707 -0.1168,1.6229 -0.8874,1.9035 -0.7707,0.2806 -1.6229,-0.1167 -1.9035,-0.8874 -0.002,-0.005 -0.003,-0.009 -0.005,-0.0137 -0.6887,-1.9509 -1.2026,-3.9615 -1.5705,-5.9967 v 0 c -0.1389,-0.7688 0.3717,-1.5046 1.1405,-1.6435 0.749,-0.1354 1.4709,0.3463 1.6334,1.09 z m 1.5924,5.5478 c 0.6194,1.7015 1.3738,3.354 2.263,4.9316 v 0 c 0.409,0.7256 0.1523,1.6454 -0.5733,2.0544 -0.7257,0.409 -1.6454,0.1523 -2.0544,-0.5733 -0.002,-0.003 -0.003,-0.006 -0.005,-0.009 -0.9594,-1.7279 -1.7685,-3.5383 -2.4263,-5.4018 v 0 c -0.273,-0.7734 0.1326,-1.6217 0.906,-1.8947 0.768,-0.2711 1.6111,0.127 1.8898,0.8923 z m 2.263,4.9317 c 0.8337,1.4793 1.8388,2.8627 3.0116,4.0919 v 0 c 0.5939,0.6224 0.5708,1.6084 -0.0516,2.2023 -0.6224,0.5939 -1.6084,0.5707 -2.2023,-0.0517 -0.0108,-0.0113 -0.0214,-0.0228 -0.0319,-0.0344 -1.2963,-1.4434 -2.417,-3.04 -3.3583,-4.7356 v 0 c -0.4043,-0.7283 -0.1416,-1.6464 0.5866,-2.0507 0.725,-0.4024 1.6388,-0.1442 2.0459,0.5782 z m 3.0117,4.0919 c 1.1243,1.1784 2.3927,2.2174 3.777,3.0763 v 0 c 0.75,0.4654 0.9807,1.4506 0.5154,2.2006 -0.4654,0.75 -1.4506,0.9808 -2.2006,0.5154 0,0 -1e-4,0 -1e-4,0 -1.6256,-1.0087 -3.0994,-2.2531 -4.3776,-3.6761 v 0 c -0.5748,-0.64 -0.522,-1.6249 0.118,-2.1997 0.6264,-0.5627 1.5866,-0.5257 2.1679,0.0835 z m 3.7769,3.0763 c 1.4066,0.8728 2.9141,1.5779 4.4793,2.1154 v 0 c 0.8454,0.2903 1.2954,1.211 1.0051,2.0564 -0.2903,0.8454 -1.211,1.2954 -2.0564,1.0051 -0.008,-0.003 -0.0153,-0.005 -0.0229,-0.008 -1.7754,-0.6395 -3.4864,-1.4576 -5.0902,-2.4528 v 0 c -0.75,-0.4653 -0.9808,-1.4506 -0.5154,-2.2006 0.4653,-0.75 1.4505,-0.9807 2.2005,-0.5154 z m 4.4793,2.1154 c 1.6903,0.5804 3.4505,0.9431 5.2247,1.1451 v 0 c 0.9244,0.1052 1.5885,0.9399 1.4833,1.8644 -0.1053,0.9244 -0.94,1.5885 -1.8645,1.4833 -0.0169,-0.002 -0.0337,-0.004 -0.0506,-0.007 -1.9952,-0.2885 -3.9692,-0.7491 -5.8671,-1.4328 v 0 c -0.841,-0.3029 -1.2771,-1.2303 -0.9741,-2.0712 0.2997,-0.8321 1.2118,-1.2695 2.0483,-0.9822 z m 5.2247,1.1451 c 1.9338,0.2201 3.879,0.3394 5.8253,0.3549 v 0 c 0.9639,0.008 1.7391,0.7953 1.7314,1.7592 -0.008,0.9639 -0.7953,1.7391 -1.7592,1.7314 -0.006,0 -0.0115,-10e-5 -0.0173,-2e-4 -2.0786,-0.0371 -4.1545,-0.2065 -6.212,-0.5042 v 0 c -0.9208,-0.1332 -1.5593,-0.9877 -1.4261,-1.9085 0.1304,-0.9011 0.9532,-1.5356 1.8579,-1.4326 z m 5.8253,0.3549 c 2.012,0.0161 4.0236,-0.1465 6.0137,-0.4379 v 0 c 0.9795,-0.1434 1.8898,0.5344 2.0332,1.5138 0.1434,0.9795 -0.5343,1.8898 -1.5138,2.0333 -0.0115,0.002 -0.023,0.003 -0.0346,0.005 -2.169,0.2746 -4.3569,0.4156 -6.5436,0.3765 v 0 c -0.9637,-0.0172 -1.7311,-0.8125 -1.7139,-1.7762 0.0171,-0.9571 0.8018,-1.7218 1.759,-1.7142 z m 6.0137,-0.4379 c 2.0774,-0.3042 4.1409,-0.704 6.1783,-1.2117 v 1e-4 c 0.9817,-0.2447 1.976,0.3529 2.2206,1.3346 0.2447,0.9818 -0.3529,1.976 -1.3347,2.2206 -0.003,7e-4 -0.005,10e-4 -0.008,0.002 -2.1647,0.5287 -4.3607,0.9261 -6.5711,1.2061 v 0 c -0.9821,0.1244 -1.8791,-0.571 -2.0035,-1.5531 -0.1226,-0.9686 0.5525,-1.8573 1.5186,-1.9987 z m 6.1782,-1.2116 c 1.8767,-0.4677 3.7336,-1.0202 5.5491,-1.6882 v 0 c 0.9534,-0.3508 2.0106,0.1376 2.3614,1.091 0.3508,0.9533 -0.1376,2.0105 -1.091,2.3613 -1.9427,0.715 -3.9312,1.3021 -5.9417,1.7932 v 0 c -0.9829,0.2401 -1.9743,-0.3621 -2.2144,-1.345 -0.2393,-0.9797 0.3581,-1.9685 1.3366,-2.2123 z m 5.5491,-1.6882 c 1.6822,-0.619 3.328,-1.3374 4.9219,-2.1575 v 0 c 0.8655,-0.4454 1.9282,-0.1048 2.3735,0.7607 0.428,0.8318 0.1316,1.8529 -0.675,2.3264 -1.7029,0.9994 -3.4971,1.8409 -5.35,2.5227 v 0 c -0.9533,0.3509 -2.0105,-0.1376 -2.3614,-1.0909 -0.3508,-0.9534 0.1377,-2.0106 1.091,-2.3614 0,0 0,0 0,0 z m 4.9219,-2.1575 c 1.5139,-0.779 2.9734,-1.6659 4.3482,-2.671 v 0 c 0.7303,-0.5339 1.7551,-0.3747 2.289,0.3556 0.5202,0.7115 0.3841,1.7071 -0.308,2.2529 -1.4672,1.1569 -3.0196,2.204 -4.6307,3.1496 v 0 c -0.8395,0.4927 -1.9194,0.2115 -2.4121,-0.6279 -0.4927,-0.8395 -0.2116,-1.9194 0.6279,-2.4121 0.0281,-0.0165 0.0567,-0.0322 0.0857,-0.0471 z m 4.3481,-2.6709 c 1.2643,-0.9244 2.4627,-1.9425 3.5508,-3.07 v 0 c 0.6047,-0.6265 1.6028,-0.6443 2.2294,-0.0396 0.6214,0.5997 0.6447,1.5878 0.0523,2.2161 -1.1916,1.2639 -2.4879,2.4267 -3.8514,3.5019 v 0 c -0.7104,0.5601 -1.7403,0.4384 -2.3005,-0.272 -0.5601,-0.7103 -0.4384,-1.7403 0.272,-2.3004 0.0156,-0.0123 0.0314,-0.0243 0.0474,-0.0361 z m 3.5508,-3.07 c 1.0598,-1.0982 2.0088,-2.3008 2.8504,-3.5734 v -10e-5 c 0.4733,-0.7156 1.437,-0.912 2.1526,-0.4388 0.7118,0.4707 0.9106,1.4275 0.4453,2.1428 -0.9352,1.4375 -1.9899,2.7979 -3.1666,4.046 v 0 c -0.5974,0.6336 -1.5952,0.663 -2.2288,0.0656 -0.6336,-0.5973 -0.663,-1.5952 -0.0656,-2.2287 0.004,-0.005 0.008,-0.009 0.0127,-0.0134 z m 2.8504,-3.5734 c 0.8434,-1.2753 1.5692,-2.629 2.1464,-4.0452 v 0 c 0.3339,-0.8193 1.2687,-1.2128 2.088,-0.8789 0.8193,0.3339 1.2128,1.2688 0.8789,2.0881 -0.01,0.0238 -0.02,0.0474 -0.0309,0.0707 -0.7192,1.547 -1.5543,3.0393 -2.4845,4.4692 v 0 c -0.4678,0.7192 -1.4301,0.9229 -2.1492,0.4551 -0.7192,-0.4679 -0.9229,-1.4301 -0.4551,-2.1493 0.002,-0.003 0.004,-0.007 0.006,-0.01 v 10e-5 z m 2.1464,-4.0452 c 0.5504,-1.3505 1.0171,-2.7363 1.3705,-4.1516 v 0 c 0.2266,-0.9077 1.146,-1.4598 2.0537,-1.2332 0.9076,0.2266 1.4597,1.1461 1.2331,2.0537 -0.004,0.0168 -0.009,0.0335 -0.0133,0.0502 -0.4419,1.5642 -1.0229,3.0875 -1.708,4.5609 v 0 c -0.373,0.8022 -1.3258,1.1502 -2.128,0.7771 -0.775,-0.3603 -1.1306,-1.2656 -0.808,-2.0571 z m 1.3705,-4.1516 c 0.3469,-1.3897 0.5584,-2.8112 0.6608,-4.2393 v 0 c 0.0697,-0.9716 0.9137,-1.7028 1.8853,-1.6331 0.9716,0.0696 1.7028,0.9137 1.6331,1.8853 -0.001,0.0176 -0.003,0.0352 -0.005,0.0528 -0.1655,1.623 -0.4576,3.2345 -0.9011,4.805 v 0 c -0.2543,0.9002 -1.1903,1.4239 -2.0905,1.1696 -0.8809,-0.2488 -1.4047,-1.1523 -1.183,-2.0403 z m 0.6608,-4.2394 c 0.1057,-1.4743 0.1302,-2.9551 0.0587,-4.4317 v 0 c -0.0499,-1.0303 0.7449,-1.906 1.7752,-1.9559 1.0302,-0.0499 1.9059,0.7449 1.9558,1.7752 0.002,0.0373 0.002,0.0747 0.002,0.1121 -0.0187,1.6049 -0.1151,3.2087 -0.2779,4.8054 v 0 c -0.0988,0.9691 -0.9644,1.6745 -1.9335,1.5757 -0.9485,-0.0967 -1.6485,-0.9297 -1.5803,-1.8808 z m 3.1474,-9.4045 c 0.4558,1.5921 0.6636,3.2491 0.6444,4.9041 h -1e-4 c -0.0119,1.0314 -0.8578,1.8578 -1.8892,1.8459 -0.9879,-0.0115 -1.7959,-0.7904 -1.8438,-1.7772 -0.0622,-1.2827 -0.2934,-2.557 -0.7138,-3.7715 v 0 c -0.3603,-1.041 0.1915,-2.1769 1.2325,-2.5372 1.041,-0.3603 2.177,0.1915 2.5373,1.2325 0.0118,0.0341 0.0227,0.0686 0.0327,0.1034 z m -2.0742,-4.7577 c 0.8685,1.4997 1.5965,3.0891 2.0742,4.7577 v 0 c 0.3032,1.059 -0.3096,2.1633 -1.3686,2.4665 -1.0185,0.2916 -2.0873,-0.264 -2.4339,-1.2652 -0.4572,-1.3209 -1.1215,-2.5642 -1.8859,-3.7314 v 0 c -0.6425,-0.9811 -0.368,-2.2974 0.6131,-2.9399 0.9812,-0.6426 2.2975,-0.3681 2.94,0.6131 0.0213,0.0325 0.0417,0.0656 0.0611,0.0992 z m -3.5304,-4.5938 c 1.3594,1.3791 2.5594,2.917 3.5304,4.5938 v 0 c 0.5878,1.0149 0.2415,2.3141 -0.7734,2.9019 -0.9758,0.5651 -2.2231,0.269 -2.8408,-0.6744 -0.8564,-1.3077 -1.8977,-2.4881 -3.0587,-3.533 v 1e-4 c -0.934,-0.8407 -1.0097,-2.2793 -0.1691,-3.2133 0.8406,-0.934 2.2792,-1.0097 3.2132,-0.1691 0.0337,0.0303 0.0665,0.0617 0.0984,0.094 z m -5.0292,-3.8979 c 1.8225,1.0936 3.5353,2.3824 5.0291,3.8979 v 0 c 0.8822,0.8949 0.8718,2.3355 -0.0231,3.2176 -0.8573,0.845 -2.2245,0.8761 -3.1193,0.0708 -1.3149,-1.1834 -2.7753,-2.1983 -4.3048,-3.0836 v 0 c -1.1382,-0.6588 -1.5269,-2.1156 -0.8681,-3.2538 0.6588,-1.1382 2.1156,-1.5268 3.2538,-0.868 0.0108,0.006 0.0216,0.0126 0.0324,0.0191 z m -6.6872,-3.0288 c 2.3169,0.7933 4.5845,1.767 6.6872,3.0288 v 0 c 1.1277,0.6767 1.4932,2.1394 0.8165,3.2671 -0.6691,1.115 -2.1092,1.487 -3.2347,0.8356 -1.8201,-1.0535 -3.7915,-1.8331 -5.7961,-2.4565 v 0 c -1.2969,-0.4034 -2.0213,-1.7817 -1.618,-3.0787 0.4034,-1.297 1.7818,-2.0214 3.0788,-1.618 0.0222,0.007 0.0443,0.0141 0.0663,0.0217 z m -8.3537,-1.9835 c 2.8328,0.4251 5.6417,1.0548 8.3537,1.9835 v 0 c 1.285,0.44 1.97,1.8384 1.53,3.1234 -0.4312,1.2592 -1.786,1.9469 -3.0571,1.5516 -2.4494,-0.7618 -4.9789,-1.2517 -7.5228,-1.5656 v 0 c -1.4089,-0.1738 -2.4101,-1.4569 -2.2363,-2.8658 0.1738,-1.4089 1.4569,-2.4101 2.8658,-2.2362 0.0223,0.003 0.0445,0.006 0.0667,0.009 z m -8.8219,-0.7621 c 2.9533,0.0592 5.9012,0.3238 8.8219,0.7621 v 0 c 1.4039,0.2106 2.3711,1.5195 2.1605,2.9234 -0.2068,1.3779 -1.4738,2.3402 -2.8567,2.1695 -2.7313,-0.337 -5.4792,-0.5454 -8.2309,-0.6005 v 0 c -1.451,-0.0291 -2.6037,-1.2289 -2.5747,-2.6799 0.0291,-1.451 1.2289,-2.6037 2.6799,-2.5746 0,0 0,0 0,0 z m -8.5074,0.4674 c 2.8182,-0.3761 5.6652,-0.5244 8.5074,-0.4674 v 0 c 1.451,0.029 2.6037,1.2289 2.5746,2.6799 -0.029,1.451 -1.2289,2.6037 -2.6798,2.5746 -2.5921,-0.0519 -5.188,0.0598 -7.7639,0.3555 v 0 c -1.4217,0.1632 -2.7066,-0.8571 -2.8698,-2.2788 -0.161,-1.4032 0.8314,-2.677 2.2315,-2.8638 z m -7.6608,1.3885 c 2.5271,-0.5958 5.0877,-1.0452 7.6609,-1.3886 v 1e-4 c 1.4185,-0.1893 2.7218,0.8071 2.9111,2.2256 0.1892,1.4185 -0.8072,2.7218 -2.2257,2.9111 -0.0157,0.002 -0.0315,0.004 -0.0472,0.006 -2.4218,0.278 -4.8352,0.6429 -7.2238,1.1314 v 1e-4 c -1.3535,0.2768 -2.6752,-0.596 -2.952,-1.9496 -0.271,-1.325 0.5603,-2.6256 1.8767,-2.9359 v -1e-4 z m -6.4608,1.7109 c 2.1344,-0.6396 4.2923,-1.1996 6.4608,-1.7109 v 1e-4 c 1.3447,-0.3171 2.6918,0.516 3.0088,1.8606 0.3171,1.3447 -0.516,2.6918 -1.8607,3.0088 -0.0242,0.006 -0.0484,0.0111 -0.0728,0.0161 -2.0915,0.4277 -4.1752,0.8977 -6.2404,1.4392 v 0 c -1.2803,0.3357 -2.5903,-0.4301 -2.926,-1.7104 -0.3274,-1.249 0.3934,-2.5329 1.6303,-2.9035 z m -11.754,7.2649 c 2.2693,-1.6795 4.568,-3.3309 6.9613,-4.8305 0.8804,-0.5515 1.7754,-1.0833 2.7011,-1.5556 0.673,-0.3433 1.3665,-0.6615 2.0916,-0.8788 v 0 c 1.2678,-0.38 2.6037,0.3398 2.9836,1.6077 0.38,1.2679 -0.3398,2.6037 -1.6077,2.9837 -0.0266,0.008 -0.0534,0.0155 -0.0802,0.0225 -1.5154,0.3973 -3.0173,0.8478 -4.5187,1.2943 -2.6681,0.7935 -5.3297,1.6081 -7.9899,2.4274 v 0 c -0.3212,0.0989 -0.6618,-0.0813 -0.7607,-0.4025 -0.076,-0.2468 0.012,-0.5146 0.2196,-0.6682 z" /><path
       inkscape:connector-curvature="0"
       id="path227"
       style="fill:#00a9d3;fill-opacity:1;fill-rule:nonzero;stroke:none"
       d="m 263.8667,284.0048 c 0.7468,0.1866 1.5271,0.2628 2.2903,0.3474 v 0 c 0.3017,0.0334 0.5191,0.305 0.4857,0.6067 -0.0335,0.3016 -0.3051,0.519 -0.6067,0.4856 -0.4554,-0.0505 -0.9133,-0.0892 -1.3717,-0.0923 -0.269,-0.002 -0.5481,0.001 -0.8117,0.0615 v 0 c -0.39,0.0893 -0.7785,-0.1546 -0.8677,-0.5446 -0.0892,-0.39 0.1546,-0.7785 0.5446,-0.8677 0.1111,-0.0254 0.2266,-0.0242 0.3372,0.003 z m -1.6152,-0.1397 c 0.5412,-0.0541 1.0891,0.008 1.6151,0.1397 v 0 c 0.3882,0.0969 0.6242,0.4902 0.5273,0.8783 -0.0661,0.2647 -0.2753,0.4698 -0.5412,0.5306 -0.4,0.0916 -0.7972,0.1984 -1.1847,0.3337 v 0 c -0.5061,0.1767 -1.0597,-0.0904 -1.2363,-0.5965 -0.1767,-0.5061 0.0904,-1.0597 0.5965,-1.2363 0.0722,-0.0253 0.1472,-0.0418 0.2233,-0.0495 z m -1.6709,0.3475 c 0.5465,-0.1552 1.1045,-0.2908 1.6709,-0.3474 v -1e-4 c 0.5334,-0.0533 1.0091,0.3359 1.0624,0.8693 0.0447,0.4464 -0.2224,0.8652 -0.6459,1.013 -0.4214,0.1471 -0.8211,0.3588 -1.2093,0.5767 v 0 c -0.5545,0.3113 -1.2563,0.1141 -1.5675,-0.4403 -0.3113,-0.5545 -0.1142,-1.2563 0.4403,-1.5676 0.0787,-0.0442 0.1623,-0.0789 0.2491,-0.1036 z m -2.186,0.8357 c 0.7078,-0.3278 1.4348,-0.6223 2.186,-0.8357 v 0 c 0.6116,-0.1737 1.2483,0.1813 1.422,0.793 0.1456,0.5124 -0.0794,1.0577 -0.5439,1.3185 -0.611,0.343 -1.2131,0.7021 -1.8111,1.0674 v 0 c -0.6271,0.3831 -1.4462,0.1853 -1.8293,-0.4419 -0.3832,-0.6272 -0.1854,-1.4462 0.4418,-1.8294 0.0434,-0.0265 0.0883,-0.0505 0.1345,-0.0719 z m -2.5815,1.3959 c 0.8367,-0.507 1.6934,-0.9845 2.5815,-1.3958 l -1e-4,-1e-4 c 0.6669,-0.3089 1.458,-0.0187 1.7669,0.6482 0.2842,0.6135 0.0632,1.3425 -0.5137,1.695 -0.7761,0.4741 -1.5395,0.969 -2.2965,1.473 v 0 c -0.6593,0.439 -1.5496,0.2603 -1.9886,-0.399 -0.4389,-0.6593 -0.2603,-1.5496 0.399,-1.9885 0.017,-0.0113 0.0341,-0.0222 0.0515,-0.0328 z m -2.8886,1.8837 c 0.9445,-0.6553 1.9054,-1.2878 2.8886,-1.8837 v 0 c 0.6774,-0.4105 1.5593,-0.1942 1.9698,0.4832 0.3982,0.6571 0.2079,1.5113 -0.4317,1.9371 -0.905,0.6025 -1.7856,1.2413 -2.6489,1.902 v 0 c -0.6619,0.5067 -1.6093,0.3808 -2.1159,-0.2811 -0.5067,-0.662 -0.3808,-1.6093 0.2811,-2.1159 0.0187,-0.0143 0.0377,-0.0282 0.057,-0.0416 z m -4.1931,3.2058 c 1.3696,-1.1022 2.748,-2.2031 4.1931,-3.2058 v 0 c 0.6848,-0.4752 1.6253,-0.3052 2.1005,0.3797 0.4596,0.6623 0.3175,1.569 -0.3227,2.059 -1.3427,1.0276 -2.6254,2.1353 -3.9021,3.2427 v 0 c -0.6731,0.5839 -1.6921,0.5116 -2.276,-0.1615 -0.5838,-0.6731 -0.5115,-1.6921 0.1616,-2.276 0.015,-0.013 0.0302,-0.0257 0.0456,-0.0381 z m -4.6288,3.8202 c 1.5223,-1.2979 3.0704,-2.5659 4.6288,-3.8202 v 0 c 0.6942,-0.5587 1.7098,-0.4488 2.2684,0.2453 0.5442,0.6761 0.456,1.6616 -0.1996,2.2303 -1.4817,1.2852 -2.9479,2.5892 -4.3752,3.9347 v 0 c -0.6993,0.6592 -1.8005,0.6267 -2.4596,-0.0725 -0.6592,-0.6992 -0.6267,-1.8004 0.0725,-2.4596 0.0211,-0.0199 0.0426,-0.0392 0.0647,-0.058 z m -4.1671,3.7659 c 1.3567,-1.2903 2.7422,-2.551 4.167,-3.7659 v 0 c 0.7313,-0.6234 1.8295,-0.5361 2.453,0.1952 0.6016,0.7055 0.5441,1.7589 -0.1306,2.3949 -1.3228,1.2471 -2.6182,2.5231 -3.8945,3.8177 v 0 c -0.7179,0.7283 -1.8904,0.7367 -2.6187,0.0187 -0.7284,-0.7179 -0.7368,-1.8904 -0.0188,-2.6187 0.014,-0.0142 0.0282,-0.0282 0.0426,-0.0419 z m -4.5234,4.5074 c 1.4769,-1.533 2.9809,-3.0403 4.5234,-4.5074 v 0 c 0.7411,-0.7048 1.9132,-0.6754 2.618,0.0657 0.6888,0.7242 0.6786,1.8644 -0.0231,2.5762 -1.451,1.4719 -2.8539,2.9908 -4.2235,4.5385 v 0 c -0.7212,0.815 -1.9666,0.891 -2.7816,0.1698 -0.8149,-0.7212 -0.891,-1.9666 -0.1697,-2.7815 0.0184,-0.0209 0.0373,-0.0413 0.0565,-0.0613 z m -4.7116,5.0699 c 1.541,-1.7172 3.1109,-3.4084 4.7116,-5.0699 v 0 c 0.7551,-0.7838 2.0026,-0.807 2.7863,-0.0519 0.7603,0.7325 0.8082,1.9342 0.1085,2.7249 -1.4933,1.6874 -2.9477,3.4092 -4.3659,5.1601 v 0 c -0.7404,0.9142 -2.0817,1.055 -2.9958,0.3146 -0.9142,-0.7404 -1.055,-2.0817 -0.3146,-2.9958 0.0226,-0.028 0.0459,-0.0553 0.0699,-0.082 z m -4.8001,5.3948 c 1.5928,-1.8046 3.1925,-3.6034 4.8001,-5.3948 v 0 c 0.7857,-0.8756 2.1324,-0.9484 3.0079,-0.1627 0.8444,0.7577 0.9467,2.0443 0.2326,2.9259 -1.5217,1.8788 -3.0666,3.7386 -4.6305,5.5824 v 0 c -0.8055,0.9497 -2.2285,1.0665 -3.1782,0.261 -0.9497,-0.8056 -1.0666,-2.2285 -0.261,-3.1782 0.01,-0.0113 0.0193,-0.0225 0.029,-0.0336 z m -5.0329,5.741 c 1.6714,-1.9191 3.3488,-3.833 5.0329,-5.741 h -1e-4 c 0.8241,-0.9336 2.2491,-1.0225 3.1827,-0.1984 0.9207,0.8127 1.0219,2.2127 0.2275,3.1492 -1.6401,1.9335 -3.2741,3.8722 -4.9029,5.8152 v 0 c -0.8261,0.9855 -2.2947,1.1147 -3.2801,0.2885 -0.9855,-0.8261 -1.1147,-2.2946 -0.2886,-3.2801 0.009,-0.0112 0.019,-0.0224 0.0286,-0.0334 z m -5.0792,5.8702 c 1.6866,-1.9623 3.3797,-3.919 5.0791,-5.8702 h 1e-4 c 0.8445,-0.9697 2.3153,-1.0712 3.285,-0.2266 0.9568,0.8333 1.0702,2.2793 0.2551,3.2516 -1.6564,1.9758 -3.3076,3.9559 -4.9537,5.9403 v 0 c -0.8458,1.0198 -2.3581,1.1607 -3.3778,0.3149 -1.0198,-0.8459 -1.1607,-2.3582 -0.3149,-3.3779 0.009,-0.0108 0.018,-0.0215 0.0271,-0.0321 z m -6.9548,8.0751 c 2.3198,-2.6903 4.6393,-5.3811 6.9548,-8.0751 v 0 c 0.8636,-1.0047 2.3781,-1.1192 3.3829,-0.2556 0.9923,0.8529 1.1181,2.3436 0.2827,3.3507 -2.2786,2.7471 -4.6053,5.4542 -6.936,8.1571 v 0 c -0.8773,1.0174 -2.4133,1.131 -3.4307,0.2537 -1.0174,-0.8774 -1.131,-2.4134 -0.2537,-3.4308 z m -6.2698,7.352 c 2.0573,-2.478 4.1667,-4.913 6.2698,-7.352 v 0 c 0.8773,-1.0174 2.4133,-1.131 3.4307,-0.2537 1.0175,0.8773 1.1311,2.4133 0.2537,3.4308 0,0 0,0 0,0 -2.1085,2.4453 -4.2105,4.9009 -6.3919,7.282 v 0 c -0.882,0.9628 -2.3775,1.0283 -3.3403,0.1463 -0.9297,-0.8518 -1.0274,-2.2833 -0.222,-3.2534 z m -3.4057,3.9455 c 1.1634,-1.2905 2.2959,-2.6088 3.4057,-3.9456 v 0 c 0.8341,-1.0046 2.3246,-1.1428 3.3292,-0.3088 1.0046,0.8341 1.1429,2.3246 0.3088,3.3292 -0.0245,0.0296 -0.0498,0.0585 -0.0757,0.0868 -1.1908,1.2998 -2.3773,2.6036 -3.5576,3.9129 v 0 c -0.849,0.9418 -2.3007,1.017 -3.2425,0.168 -0.9417,-0.849 -1.017,-2.3007 -0.168,-3.2425 10e-5,0 10e-5,0 10e-5,0 z m -3.1957,3.5537 c 1.0635,-1.1861 2.129,-2.3705 3.1957,-3.5537 v 0 c 0.849,-0.9418 2.3007,-1.017 3.2425,-0.168 0.9417,0.8491 1.0169,2.3008 0.1679,3.2425 -1.0864,1.2051 -2.194,2.391 -3.3292,3.5502 v 0 c -0.8679,0.8863 -2.29,0.9012 -3.1763,0.0332 -0.8588,-0.841 -0.9032,-2.2093 -0.1006,-3.1042 z m -3.8591,4.3101 c 1.2856,-1.4374 2.5716,-2.8745 3.8591,-4.3102 v 0 c 0.8282,-0.9235 2.2482,-1.0007 3.1717,-0.1725 0.9235,0.8281 1.0008,2.2482 0.1726,3.1717 -0.022,0.0244 -0.0444,0.0484 -0.0674,0.0719 -1.333,1.3612 -2.6323,2.7557 -3.9238,4.1563 v 0 c -0.8122,0.8809 -2.1848,0.9366 -3.0658,0.1243 -0.8715,-0.8036 -0.9367,-2.1579 -0.1464,-3.0415 z m -3.2727,3.7083 c 1.0701,-1.254 2.1738,-2.4796 3.2727,-3.7083 v 0 c 0.7988,-0.8931 2.1704,-0.9696 3.0636,-0.1707 0.8931,0.7988 0.9696,2.1704 0.1707,3.0635 -0.007,0.008 -0.0146,0.0163 -0.0221,0.0244 -1.0953,1.188 -2.1955,2.3728 -3.2644,3.5848 v 0 c -0.7787,0.883 -2.1258,0.9676 -3.0088,0.1888 -0.8728,-0.7697 -0.967,-2.0972 -0.2116,-2.9825 z m -2.4832,3.0909 c 0.8102,-1.0437 1.6255,-2.0856 2.4833,-3.0909 v 0 c 0.7642,-0.8956 2.1097,-1.0021 3.0053,-0.2379 0.8956,0.7642 1.0021,2.1098 0.2379,3.0053 -0.008,0.009 -0.0152,0.0176 -0.0228,0.0263 -0.8239,0.9342 -1.5949,1.916 -2.3605,2.898 h 1e-4 c -0.7192,0.9225 -2.05,1.0873 -2.9725,0.3682 -0.9211,-0.7181 -1.087,-2.0464 -0.3708,-2.969 z m -2.1113,3.1095 c 0.2185,-0.4758 0.5119,-0.9177 0.8081,-1.3478 0.4142,-0.6017 0.8554,-1.1848 1.3032,-1.7617 v 0 c 0.7173,-0.924 2.0477,-1.0915 2.9717,-0.3742 0.9239,0.7172 1.0915,2.0477 0.3742,2.9716 -9e-4,0.001 -0.002,0.002 -0.003,0.003 -0.4613,0.5917 -0.9351,1.1758 -1.4457,1.7259 -0.392,0.4223 -0.8098,0.8414 -1.299,1.1513 v 0 c -0.8756,0.5547 -2.0351,0.2945 -2.5897,-0.5811 -0.3402,-0.537 -0.3854,-1.2097 -0.1202,-1.7874 z" /><g
       transform="matrix(0.5454546,0,0,-0.5454546,0,841.89)"
       id="g229" /><g
       transform="matrix(0.5454546,0,0,-0.5454546,0,841.89)"
       id="g231" /><g
       transform="matrix(0.5454546,0,0,-0.5454546,0,841.89)"
       id="g233" /></g></svg>