<?xml version="1.0" encoding="UTF-8" standalone="no"?>
<!-- Created with Inkscape (http://www.inkscape.org/) -->

<svg
   xmlns:dc="http://purl.org/dc/elements/1.1/"
   xmlns:cc="http://creativecommons.org/ns#"
   xmlns:rdf="http://www.w3.org/1999/02/22-rdf-syntax-ns#"
   xmlns:svg="http://www.w3.org/2000/svg"
   xmlns="http://www.w3.org/2000/svg"
   xmlns:sodipodi="http://sodipodi.sourceforge.net/DTD/sodipodi-0.dtd"
   xmlns:inkscape="http://www.inkscape.org/namespaces/inkscape"
   width="51.044785mm"
   height="46.885433mm"
   viewBox="0 0 51.044785 46.885433"
   version="1.1"
   id="svg348"
   inkscape:version="0.92.3 (2405546, 2018-03-11)"
   sodipodi:docname="ufg_detail0.svg">
  <defs
     id="defs342" />
  <sodipodi:namedview
     id="base"
     pagecolor="#ffffff"
     bordercolor="#666666"
     borderopacity="1.0"
     inkscape:pageopacity="0.0"
     inkscape:pageshadow="2"
     inkscape:zoom="0.35"
     inkscape:cx="-214.9659"
     inkscape:cy="-108.54042"
     inkscape:document-units="mm"
     inkscape:current-layer="layer1"
     showgrid="false"
     fit-margin-top="0"
     fit-margin-left="0"
     fit-margin-right="0"
     fit-margin-bottom="0"
     inkscape:window-width="960"
     inkscape:window-height="1025"
     inkscape:window-x="960"
     inkscape:window-y="27"
     inkscape:window-maximized="0" />
  <metadata
     id="metadata345">
    <rdf:RDF>
      <cc:Work
         rdf:about="">
        <dc:format>image/svg+xml</dc:format>
        <dc:type
           rdf:resource="http://purl.org/dc/dcmitype/StillImage" />
        <dc:title />
      </cc:Work>
    </rdf:RDF>
  </metadata>
  <g
     inkscape:label="Layer 1"
     inkscape:groupmode="layer"
     id="layer1"
     transform="translate(-43.269253,-73.229916)">
    <path
       inkscape:connector-curvature="0"
       id="path225"
       style="fill:#000000;fill-opacity:1;fill-rule:nonzero;stroke:none;stroke-width:0.35277775"
       d="m 75.735735,117.21892 c 1.05537,-0.0179 2.111444,-0.0112 3.16692,-0.0118 v 0 c 0.107035,-7e-5 0.193781,-0.0869 0.193712,-0.19396 -7.1e-5,-0.10699 -0.08675,-0.19367 -0.193712,-0.19374 -0.688938,-2.6e-4 -1.378267,-0.004 -2.066782,-0.0299 -0.227261,-0.008 -0.45452,-0.0189 -0.68118,-0.0374 -0.125164,-0.0103 -0.251283,-0.0213 -0.374756,-0.045 v 0 c -0.140087,-0.0268 -0.275342,0.065 -0.302189,0.20507 -0.02681,0.14009 0.06502,0.27534 0.205071,0.30215 0.01744,0.004 0.03517,0.005 0.05292,0.005 z m -1.477115,-0.0559 c 0.491135,0.0382 0.984355,0.0643 1.477115,0.0559 v 0 c 0.142592,-0.002 0.256223,-0.11994 0.253823,-0.26254 -0.0021,-0.12223 -0.08957,-0.22627 -0.209621,-0.24927 -0.465032,-0.089 -0.924171,-0.20838 -1.379538,-0.3374 v 0 c -0.215159,-0.061 -0.438996,0.064 -0.499956,0.27916 -0.06096,0.21516 0.06403,0.439 0.279188,0.49996 0.0258,0.007 0.05225,0.0121 0.07899,0.0142 z m -1.504315,-0.26165 c 0.486092,0.15338 0.997585,0.22221 1.504315,0.26165 v 0 c 0.222953,0.0173 0.417758,-0.14936 0.43508,-0.37232 0.01495,-0.19223 -0.107775,-0.36837 -0.293301,-0.42093 -0.450673,-0.12774 -0.900499,-0.2594 -1.345951,-0.4045 v 0 c -0.258093,-0.0841 -0.535517,0.057 -0.619585,0.3151 -0.0841,0.25809 0.05697,0.53552 0.315102,0.61959 0.0013,2.6e-4 0.0028,0.001 0.0043,0.001 z m -1.13337,-0.49756 c 0.357505,0.20796 0.739069,0.37317 1.133404,0.49756 v 0 c 0.258868,0.0817 0.534953,-0.062 0.616619,-0.32089 0.08114,-0.25717 -0.06011,-0.53171 -0.31651,-0.61524 -0.321064,-0.10457 -0.630838,-0.24427 -0.918422,-0.4215 v 0 c -0.235691,-0.14528 -0.544512,-0.072 -0.689787,0.16369 -0.145275,0.23569 -0.07197,0.54454 0.16369,0.68982 0.0036,0.002 0.0073,0.004 0.01101,0.007 z m -0.976312,-0.79414 c 0.282292,0.31299 0.611891,0.58219 0.976312,0.79414 v 0 c 0.23929,0.13921 0.546169,0.0581 0.685377,-0.18126 0.1367,-0.23502 0.06117,-0.53615 -0.170251,-0.67881 -0.273439,-0.16856 -0.521335,-0.37659 -0.736423,-0.61507 h -3.7e-5 c -0.188029,-0.20849 -0.509482,-0.22504 -0.717973,-0.037 -0.208492,0.18806 -0.225071,0.50951 -0.03701,0.71801 0,0 0,0 0,0 z m -0.740058,-1.17376 c 0.188455,0.42376 0.428553,0.82843 0.740021,1.17376 h 3.7e-5 c 0.188029,0.20849 0.509482,0.22507 0.717973,0.037 0.208492,-0.18803 0.225071,-0.50952 0.037,-0.71801 -0.2413,-0.26751 -0.426577,-0.58208 -0.576686,-0.90826 v 0 c -0.11638,-0.25287 -0.415713,-0.3635 -0.668549,-0.24716 -0.250576,0.11533 -0.361913,0.41064 -0.249801,0.66266 z m -0.404178,-1.15729 c 0.08717,0.39956 0.238408,0.78455 0.404178,1.15729 v 0 c 0.113101,0.25432 0.410951,0.36879 0.665303,0.25569 0.254317,-0.1131 0.368794,-0.41098 0.255693,-0.6653 -7.94e-4,-0.002 -0.0019,-0.004 -0.0024,-0.006 -0.144286,-0.31352 -0.281305,-0.63549 -0.368652,-0.97021 v 0 c -0.06841,-0.26211 -0.336376,-0.41917 -0.598488,-0.35077 -0.254671,0.0665 -0.411481,0.32205 -0.355389,0.57919 z m -0.169121,-1.34105 c 0.03422,0.44803 0.07317,0.90121 0.169121,1.34105 v 0 c 0.05775,0.26466 0.319122,0.43244 0.583811,0.37469 0.264655,-0.0577 0.432435,-0.31912 0.374687,-0.58381 -0.0013,-0.007 -0.0028,-0.0129 -0.0046,-0.0193 -0.100576,-0.38538 -0.133527,-0.791 -0.164465,-1.18671 v 0 c -0.02072,-0.26469 -0.25206,-0.46246 -0.516713,-0.44175 -0.264337,0.0207 -0.461998,0.25146 -0.441819,0.51583 z m 0,0 v 0 c 0.02021,0.26469 0.251177,0.46288 0.515903,0.4427 0.264689,-0.0202 0.462915,-0.25121 0.442701,-0.5159 -3.7e-5,-2.6e-4 -7.2e-5,-7.9e-4 -7.2e-5,-7.9e-4 -0.04826,-0.61669 -0.05708,-1.23617 -0.04745,-1.85445 v 0 c 0.0041,-0.26479 -0.207221,-0.48281 -0.472016,-0.48694 -0.264655,-0.004 -0.482601,0.20694 -0.48694,0.4716 -0.01062,0.64808 -0.0014,1.29737 0.04787,1.94387 z m 0.911084,-1.92849 c 0.01069,-0.68502 0.09317,-1.36814 0.239358,-2.03729 v 0 c 0.05884,-0.26924 -0.111723,-0.5352 -0.380963,-0.59405 -0.26924,-0.0588 -0.5352,0.11176 -0.594043,0.381 -0.0014,0.006 -0.0025,0.0118 -0.0036,0.0178 -0.132221,0.73167 -0.207539,1.47366 -0.219746,2.21718 v 0 c -0.0043,0.26479 0.206799,0.48299 0.471596,0.48736 0.264795,0.004 0.482986,-0.2068 0.487362,-0.47163 0,-1e-4 0,-2.5e-4 0,-2.6e-4 z m 0.239358,-2.03729 c 0.144992,-0.66351 0.329354,-1.31879 0.561764,-1.95714 v 0 c 0.09895,-0.27189 -0.0412,-0.57253 -0.313055,-0.67152 -0.271886,-0.099 -0.572522,0.0412 -0.671513,0.31306 -7.94e-4,0.002 -0.0011,0.003 -0.0019,0.005 -0.242959,0.68823 -0.424251,1.39753 -0.554038,2.1155 v 0 c -0.049,0.27122 0.131127,0.53079 0.402342,0.57979 0.264231,0.0478 0.518901,-0.12216 0.576228,-0.38453 z m 0.561764,-1.95714 c 0.218511,-0.60026 0.484648,-1.18322 0.798338,-1.73976 v 0 c 0.144285,-0.25598 0.05373,-0.58046 -0.202248,-0.72475 -0.256011,-0.14428 -0.580461,-0.0537 -0.724747,0.20225 -7.93e-4,10e-4 -0.0011,0.002 -0.0019,0.003 -0.338455,0.60956 -0.623887,1.24823 -0.855945,1.90563 v 0 c -0.09631,0.27284 0.04678,0.5721 0.319616,0.66841 0.270934,0.0956 0.568362,-0.0448 0.666682,-0.31478 z m 0.798338,-1.7398 c 0.29411,-0.52186 0.648686,-1.0099 1.062423,-1.44353 v 0 c 0.209516,-0.21957 0.201367,-0.56741 -0.0182,-0.77692 -0.219567,-0.20952 -0.567407,-0.20133 -0.776922,0.0182 -0.0038,0.004 -0.0075,0.008 -0.01124,0.0121 -0.457306,0.5092 -0.852665,1.07244 -1.184733,1.67061 v 0 c -0.142629,0.25693 -0.04995,0.58081 0.206939,0.72344 0.255764,0.14196 0.578133,0.0509 0.721748,-0.20397 z m 1.06246,-1.44353 c 0.396627,-0.41571 0.84409,-0.78225 1.332442,-1.08525 v 0 c 0.264583,-0.16418 0.345969,-0.51174 0.181822,-0.77632 -0.164185,-0.26459 -0.511741,-0.34601 -0.776325,-0.18183 0,0 -3.4e-5,0 -3.4e-5,0 -0.573477,0.35585 -1.093399,0.79485 -1.54432,1.29685 v 0 c -0.202777,0.22578 -0.18415,0.57323 0.04163,0.77601 0.22098,0.19851 0.559718,0.18545 0.764788,-0.0295 z m 1.332405,-1.08525 c 0.496218,-0.30791 1.028031,-0.55665 1.580198,-0.74627 v 0 c 0.298238,-0.10241 0.456988,-0.42721 0.354578,-0.72545 -0.102412,-0.298235 -0.427215,-0.456985 -0.725453,-0.354575 -0.0028,0.0011 -0.0054,0.0019 -0.0081,0.0028 -0.626321,0.225605 -1.229926,0.514205 -1.795711,0.865295 v 0 c -0.264583,0.16414 -0.346003,0.51174 -0.181822,0.77632 0.164148,0.26458 0.511705,0.34597 0.776288,0.18182 z m 1.580198,-0.74627 c 0.596302,-0.20475 1.21726,-0.3327 1.843158,-0.40396 v 0 c 0.326107,-0.0371 0.560388,-0.33158 0.523275,-0.657719 -0.03715,-0.326109 -0.33161,-0.560389 -0.657754,-0.523276 -0.006,7.14e-4 -0.01188,0.0014 -0.01786,0.0025 -0.703863,0.101777 -1.400246,0.264266 -2.069782,0.505462 v 0 c -0.296688,0.106853 -0.450533,0.434023 -0.343641,0.730673 0.105727,0.29354 0.427495,0.44785 0.722593,0.3465 z m 1.843158,-0.40396 c 0.682202,-0.0776 1.368425,-0.11973 2.055038,-0.1252 v 0 c 0.340042,-0.003 0.613516,-0.28057 0.610798,-0.62061 -0.0028,-0.340041 -0.280564,-0.613515 -0.620606,-0.610798 -0.0021,0 -0.004,3.5e-5 -0.0061,7e-5 -0.733282,0.01309 -1.465615,0.07285 -2.191454,0.177871 v 0 c -0.32484,0.04699 -0.550087,0.348439 -0.503097,0.673277 0.046,0.31789 0.336267,0.54173 0.655426,0.50539 z m 2.055038,-0.1252 c 0.709787,-0.006 1.419436,0.0517 2.121498,0.15448 v 0 c 0.345546,0.0506 0.666681,-0.18852 0.717269,-0.53404 0.05059,-0.345542 -0.188489,-0.666675 -0.534035,-0.717299 -0.004,-7.14e-4 -0.0081,-0.0011 -0.0122,-0.0018 -0.765175,-0.09687 -1.537018,-0.146614 -2.308437,-0.13282 v 0 c -0.339971,0.0061 -0.610692,0.286632 -0.604626,0.626604 0.006,0.337645 0.282859,0.607415 0.620538,0.604735 z m 2.121498,0.15448 c 0.732861,0.10731 1.460817,0.24836 2.179566,0.42746 v -3e-5 c 0.346323,0.0863 0.69709,-0.1245 0.783378,-0.47082 0.08633,-0.34636 -0.124494,-0.697092 -0.470852,-0.783381 -0.0011,-2.46e-4 -0.0019,-2.64e-4 -0.0028,-7.93e-4 C 83.5622,99.610993 82.7875,99.470799 82.00772,99.372021 v 0 c -0.346462,-0.04388 -0.662903,0.201436 -0.70679,0.547899 -0.04325,0.3417 0.194911,0.65521 0.535729,0.7051 z m 2.179531,0.42743 c 0.662059,0.16499 1.317131,0.3599 1.9576,0.59555 v 0 c 0.336338,0.12376 0.709295,-0.0485 0.833048,-0.38488 0.123756,-0.3363 -0.04854,-0.70926 -0.384879,-0.83301 -0.685342,-0.25224 -1.38684,-0.459352 -2.0961,-0.632602 v 0 c -0.346745,-0.0847 -0.696489,0.127741 -0.781191,0.474482 -0.08442,0.34562 0.126328,0.69445 0.471522,0.78046 z m 1.9576,0.59555 c 0.593441,0.21837 1.174043,0.47181 1.736336,0.76112 v 0 c 0.305329,0.15713 0.680227,0.037 0.837319,-0.26836 0.150989,-0.29344 0.04643,-0.65366 -0.238125,-0.8207 -0.600745,-0.35256 -1.2337,-0.64943 -1.887361,-0.88995 v 0 c -0.336304,-0.12379 -0.70926,0.0485 -0.833051,0.38485 -0.123753,0.33633 0.04858,0.70929 0.384882,0.83304 0,0 0,0 0,0 z m 1.736336,0.76112 c 0.534072,0.27481 1.048951,0.5877 1.533948,0.94227 v 0 c 0.257635,0.18835 0.619162,0.13219 0.807508,-0.12545 0.183515,-0.251 0.135504,-0.60222 -0.108654,-0.79477 -0.517596,-0.40813 -1.065249,-0.77752 -1.633608,-1.11111 v 0 c -0.296157,-0.17381 -0.677122,-0.0746 -0.850935,0.22151 -0.173815,0.29616 -0.07465,0.67712 0.221509,0.85094 0.0099,0.006 0.02,0.0113 0.03023,0.0166 z m 1.533914,0.94224 c 0.446016,0.3261 0.868785,0.68527 1.252643,1.08302 v 0 c 0.213325,0.22102 0.565433,0.2273 0.786482,0.014 0.219218,-0.21156 0.227436,-0.56014 0.01844,-0.78179 -0.42037,-0.44587 -0.877676,-0.85608 -1.358688,-1.23539 v 0 c -0.250613,-0.19759 -0.613939,-0.15466 -0.811567,0.096 -0.197591,0.25058 -0.154657,0.61394 0.09596,0.81153 0.0055,0.004 0.01109,0.009 0.01672,0.0127 z m 1.252643,1.08302 c 0.373875,0.38743 0.70866,0.81167 1.005557,1.26062 v 4e-5 c 0.16697,0.25244 0.506941,0.32173 0.759391,0.15479 0.251105,-0.16605 0.321239,-0.50359 0.157091,-0.75593 -0.329917,-0.50712 -0.701992,-0.98704 -1.117105,-1.42734 v 0 c -0.210751,-0.22352 -0.562753,-0.23389 -0.786273,-0.0232 -0.22352,0.21072 -0.233892,0.56276 -0.02315,0.78624 0.0013,0.002 0.0028,0.003 0.0045,0.005 z m 1.005557,1.26062 c 0.297534,0.4499 0.55358,0.92745 0.757203,1.42706 v 0 c 0.117792,0.28903 0.447569,0.42785 0.7366,0.31005 0.289031,-0.11779 0.42785,-0.4476 0.310057,-0.73663 -0.0035,-0.008 -0.0071,-0.0167 -0.0109,-0.025 -0.253719,-0.54575 -0.548322,-1.0722 -0.876477,-1.57664 v 0 c -0.165029,-0.25371 -0.504507,-0.32558 -0.75819,-0.16054 -0.253717,0.16506 -0.325578,0.5045 -0.160549,0.75822 7.94e-4,0.001 0.0013,0.002 0.0021,0.004 v -3e-5 z m 0.757203,1.42706 c 0.19417,0.47642 0.358809,0.9653 0.483481,1.46459 v 0 c 0.07994,0.32022 0.404283,0.51498 0.724501,0.43505 0.32018,-0.0799 0.51495,-0.40433 0.435009,-0.72451 -0.0013,-0.006 -0.0032,-0.0118 -0.0047,-0.0177 -0.155893,-0.55181 -0.360857,-1.0892 -0.602544,-1.60898 v 0 c -0.131588,-0.283 -0.467714,-0.40577 -0.750713,-0.27415 -0.273402,0.12711 -0.398848,0.44648 -0.285043,0.7257 z m 0.483481,1.46459 c 0.12238,0.49025 0.196993,0.99173 0.233116,1.49553 v 0 c 0.02458,0.34276 0.322334,0.60071 0.665091,0.57612 0.34276,-0.0246 0.60071,-0.32233 0.576123,-0.66509 -2.65e-4,-0.006 -0.0011,-0.0124 -0.0019,-0.0186 -0.05838,-0.57256 -0.161431,-1.14106 -0.317887,-1.6951 v 0 c -0.08971,-0.31757 -0.419912,-0.50232 -0.737483,-0.41261 -0.310761,0.0878 -0.495546,0.40651 -0.417336,0.71978 z m 0.233116,1.49556 c 0.03729,0.52011 0.04593,1.0425 0.02072,1.56341 v 0 c -0.0176,0.36347 0.262784,0.67239 0.62625,0.69 0.363432,0.0176 0.67236,-0.26279 0.689962,-0.62625 7.94e-4,-0.0131 7.94e-4,-0.0263 7.94e-4,-0.0395 -0.0066,-0.56617 -0.04061,-1.13196 -0.09804,-1.69524 v 0 c -0.03486,-0.34188 -0.34022,-0.59073 -0.682096,-0.55587 -0.33461,0.0341 -0.581554,0.32798 -0.557495,0.6635 z m 1.110332,3.3177 c 0.160798,-0.56165 0.234104,-1.14621 0.22733,-1.73005 h -3.4e-5 c -0.0042,-0.36386 -0.302612,-0.65539 -0.666467,-0.6512 -0.348509,0.004 -0.633555,0.27884 -0.650452,0.62696 -0.02193,0.45251 -0.103505,0.90205 -0.251814,1.3305 v 0 c -0.127106,0.36724 0.06756,0.76796 0.4348,0.89507 0.367242,0.12711 0.767996,-0.0676 0.895101,-0.4348 0.0042,-0.012 0.008,-0.0242 0.01154,-0.0365 z m -0.731731,1.67841 c 0.306387,-0.52906 0.56321,-1.08976 0.731731,-1.67841 v 0 c 0.106963,-0.37359 -0.10922,-0.76316 -0.482811,-0.87012 -0.359305,-0.10287 -0.736352,0.0931 -0.858626,0.44633 -0.16129,0.46598 -0.39564,0.9046 -0.665303,1.31636 v 0 c -0.226661,0.34611 -0.129823,0.81047 0.216289,1.03713 0.346144,0.22669 0.810506,0.12986 1.037167,-0.21629 0.0075,-0.0115 0.01471,-0.0232 0.02156,-0.035 z m -1.245447,1.62059 c 0.479568,-0.48651 0.902901,-1.02905 1.245447,-1.62059 v 0 c 0.207364,-0.35803 0.0852,-0.81636 -0.272839,-1.02372 -0.344239,-0.19936 -0.784259,-0.0949 -1.00217,0.23791 -0.30212,0.46133 -0.669467,0.87775 -1.079042,1.24636 v -3e-5 c -0.329494,0.29658 -0.356198,0.80409 -0.05965,1.13358 0.296545,0.32949 0.80405,0.3562 1.133544,0.0596 0.01188,-0.0107 0.02347,-0.0218 0.03471,-0.0332 z m -1.77419,1.3751 c 0.642937,-0.3858 1.247177,-0.84046 1.774156,-1.3751 v 0 c 0.311221,-0.3157 0.307551,-0.82391 -0.0082,-1.13509 -0.302437,-0.2981 -0.784754,-0.30907 -1.10042,-0.025 -0.463868,0.41747 -0.979064,0.77551 -1.518637,1.08782 v 0 c -0.401532,0.23241 -0.538657,0.74634 -0.306247,1.14787 0.23241,0.40153 0.746336,0.53862 1.147868,0.30621 0.0038,-0.002 0.0076,-0.004 0.01143,-0.007 z m -2.359094,1.06849 c 0.817351,-0.27986 1.617308,-0.62336 2.359094,-1.06849 v 0 c 0.397827,-0.23873 0.526769,-0.75474 0.288044,-1.15256 -0.236043,-0.39335 -0.74408,-0.52458 -1.14113,-0.29479 -0.64209,0.37166 -1.337558,0.64668 -2.044737,0.8666 v 0 c -0.457517,0.14231 -0.713068,0.62855 -0.570793,1.0861 0.142311,0.45755 0.628578,0.71311 1.086133,0.57079 0.0078,-0.002 0.01564,-0.005 0.02339,-0.008 z m -2.947,0.69974 c 0.999349,-0.14997 1.990267,-0.37211 2.947,-0.69974 v 0 c 0.453319,-0.15522 0.694971,-0.64855 0.53975,-1.10187 -0.152119,-0.44421 -0.630063,-0.68682 -1.078479,-0.54737 -0.864092,0.26875 -1.756444,0.44158 -2.653876,0.55231 v 0 c -0.497028,0.0613 -0.850228,0.51397 -0.788916,1.01099 0.06131,0.49703 0.513961,0.85023 1.010991,0.78888 0.0079,-0.001 0.01569,-0.002 0.02352,-0.003 z m -3.11217,0.26885 c 1.041858,-0.0209 2.081811,-0.11423 3.11217,-0.26885 v 0 c 0.495265,-0.0743 0.836472,-0.53605 0.762177,-1.03132 -0.07296,-0.48609 -0.519925,-0.82557 -1.007782,-0.76535 -0.963541,0.11889 -1.93294,0.19241 -2.903678,0.21185 v 0 c -0.511879,0.0103 -0.918527,0.43352 -0.908296,0.9454 0.01027,0.51189 0.433528,0.91853 0.945409,0.90827 0,0 0,0 0,0 z m -3.001222,-0.16489 c 0.994199,0.13268 1.998557,0.18499 3.001222,0.16488 v 0 c 0.511882,-0.0102 0.918528,-0.43352 0.908262,-0.9454 -0.01024,-0.51189 -0.433528,-0.91853 -0.945375,-0.90827 -0.914434,0.0183 -1.83021,-0.0211 -2.73893,-0.12541 v 0 c -0.501544,-0.0576 -0.954828,0.30237 -1.012401,0.80391 -0.0568,0.49502 0.293298,0.94439 0.787222,1.01029 z m -2.70256,-0.48983 c 0.891506,0.21018 1.794828,0.36872 2.702595,0.48986 v -3e-5 c 0.500417,0.0668 0.960191,-0.28473 1.026972,-0.78515 0.06675,-0.50041 -0.284763,-0.96019 -0.785177,-1.02697 -0.0055,-7.9e-4 -0.01111,-0.001 -0.01664,-0.002 -0.854358,-0.0981 -1.705753,-0.2268 -2.548398,-0.39913 v -4e-5 c -0.477483,-0.0977 -0.94375,0.21026 -1.0414,0.68778 -0.0956,0.46743 0.197663,0.92625 0.662059,1.03572 v 4e-5 z M 73.93364,118.8529 c 0.75297,0.22563 1.514229,0.42319 2.279226,0.60357 v -4e-5 c 0.47438,0.11186 0.949609,-0.18204 1.061437,-0.65638 0.111866,-0.47438 -0.182033,-0.94961 -0.656412,-1.06144 -0.0085,-0.002 -0.01707,-0.004 -0.02569,-0.006 -0.737833,-0.15088 -1.472917,-0.31669 -2.201474,-0.50771 v 0 c -0.451662,-0.11843 -0.913799,0.15173 -1.032227,0.60339 -0.115501,0.44062 0.138782,0.89355 0.575133,1.02429 z M 69.78709,116.29 c 0.800558,0.59249 1.61149,1.17507 2.455791,1.70409 0.310586,0.19456 0.626322,0.38217 0.952889,0.54878 0.237418,0.12112 0.482071,0.23337 0.73787,0.31003 v 0 c 0.447251,0.13405 0.918527,-0.11988 1.052547,-0.56716 0.134056,-0.44729 -0.119872,-0.91853 -0.567161,-1.05259 -0.0094,-0.003 -0.01884,-0.005 -0.02829,-0.008 -0.534599,-0.14016 -1.064437,-0.29908 -1.594096,-0.4566 -0.941247,-0.27993 -1.880201,-0.5673 -2.818659,-0.85633 v 0 c -0.113313,-0.0349 -0.233469,0.0287 -0.268359,0.14199 -0.02681,0.0871 0.0042,0.18154 0.07747,0.23573 z" />
    <path
       inkscape:connector-curvature="0"
       id="path227"
       style="fill:#000000;fill-opacity:1;fill-rule:nonzero;stroke:none;stroke-width:0.35277775"
       d="m 71.421757,101.98241 c 0.263454,-0.0658 0.538726,-0.0927 0.807966,-0.12255 v 0 c 0.106434,-0.0118 0.183126,-0.1076 0.171344,-0.21403 -0.01183,-0.1064 -0.107632,-0.18309 -0.214029,-0.17131 -0.160655,0.0178 -0.322194,0.0315 -0.483907,0.0326 -0.0949,7.9e-4 -0.193358,-2.6e-4 -0.286348,-0.0217 v 0 c -0.137583,-0.0315 -0.274638,0.0545 -0.306107,0.19212 -0.03147,0.13759 0.05454,0.27464 0.192124,0.30611 0.03919,0.009 0.07994,0.008 0.118957,-10e-4 z m -0.569807,0.0493 c 0.190924,0.0191 0.38421,-0.003 0.56977,-0.0493 v 0 c 0.136948,-0.0342 0.220205,-0.17293 0.186021,-0.30984 -0.02331,-0.0934 -0.09712,-0.16573 -0.190924,-0.18718 -0.14111,-0.0323 -0.281233,-0.07 -0.417936,-0.11773 v 0 c -0.17854,-0.0623 -0.373837,0.0319 -0.436139,0.21044 -0.06234,0.17854 0.03189,0.37383 0.210431,0.43614 0.02548,0.009 0.05193,0.0147 0.07878,0.0175 z m -0.589457,-0.12259 c 0.192794,0.0547 0.389644,0.10259 0.589457,0.12256 v 3e-5 c 0.188172,0.0188 0.355987,-0.1185 0.374791,-0.30667 0.01577,-0.15748 -0.07846,-0.30522 -0.22786,-0.35736 -0.148661,-0.0519 -0.289665,-0.12658 -0.426614,-0.20345 v 0 c -0.195614,-0.10982 -0.443195,-0.0403 -0.552979,0.15533 -0.10982,0.19562 -0.04029,0.4432 0.155329,0.55301 0.02776,0.0156 0.05726,0.0278 0.08788,0.0365 z m -0.771172,-0.29481 c 0.249697,0.11564 0.506165,0.21953 0.771172,0.29481 v 0 c 0.21576,0.0613 0.440373,-0.064 0.50165,-0.27975 0.05136,-0.18076 -0.02801,-0.37313 -0.191876,-0.46514 -0.215548,-0.121 -0.427955,-0.24768 -0.638916,-0.37655 v 0 c -0.221227,-0.13515 -0.510187,-0.0654 -0.645336,0.15589 -0.135184,0.22126 -0.0654,0.51019 0.155857,0.64537 0.01531,0.009 0.03115,0.0178 0.04745,0.0254 z m -0.910696,-0.49245 c 0.295169,0.17886 0.597394,0.34732 0.910696,0.49241 l -3.5e-5,4e-5 c 0.235267,0.10897 0.51435,0.007 0.623324,-0.22867 0.100258,-0.21643 0.0223,-0.47361 -0.181224,-0.59796 -0.27379,-0.16725 -0.543101,-0.34184 -0.810154,-0.51964 v 0 c -0.232586,-0.15487 -0.546664,-0.0918 -0.701533,0.14075 -0.154835,0.23259 -0.09183,0.54667 0.140758,0.7015 0.006,0.004 0.01203,0.008 0.01817,0.0116 z m -1.019034,-0.66452 c 0.333199,0.23117 0.672183,0.45431 1.019034,0.66452 v 0 c 0.238972,0.14482 0.550086,0.0685 0.694902,-0.17046 0.140476,-0.23181 0.07334,-0.53315 -0.152295,-0.68336 -0.319263,-0.21255 -0.62992,-0.437905 -0.934473,-0.670986 v 0 c -0.233503,-0.178753 -0.567725,-0.134338 -0.746442,0.09916 -0.178753,0.233539 -0.134338,0.567726 0.09917,0.746446 0.0066,0.005 0.0133,0.01 0.02011,0.0147 z m -1.479232,-1.130938 c 0.483164,0.388832 0.969433,0.777208 1.479232,1.130938 v 0 c 0.241582,0.16764 0.57337,0.10766 0.74101,-0.13395 0.162136,-0.23365 0.112007,-0.553511 -0.113842,-0.726372 -0.473674,-0.362514 -0.926182,-0.753286 -1.376574,-1.143952 v 0 c -0.237454,-0.205987 -0.596935,-0.180481 -0.802922,0.05697 -0.205952,0.237455 -0.180446,0.596936 0.05701,0.802923 0.0053,0.0046 0.01065,0.0091 0.01609,0.01344 z m -1.632938,-1.347681 c 0.537034,0.45787 1.083169,0.905192 1.632938,1.347681 v 0 c 0.244898,0.197097 0.603179,0.158327 0.800241,-0.08654 0.191981,-0.238513 0.160866,-0.586175 -0.07042,-0.7868 -0.52271,-0.45339 -1.039953,-0.913412 -1.543473,-1.388075 v 0 c -0.246697,-0.232551 -0.635176,-0.221086 -0.867692,0.02558 -0.232551,0.246663 -0.221086,0.635141 0.02558,0.867693 0.0074,0.007 0.01503,0.01383 0.02283,0.02046 z m -1.47006,-1.328526 c 0.478613,0.455189 0.967387,0.899936 1.470025,1.328526 v 0 c 0.257986,0.219921 0.645406,0.189124 0.865364,-0.06886 0.212231,-0.248885 0.191946,-0.620501 -0.04607,-0.844868 -0.466655,-0.439949 -0.923643,-0.890094 -1.373893,-1.3468 v 0 c -0.253259,-0.256928 -0.666892,-0.259891 -0.923819,-0.0066 -0.256964,0.25326 -0.259927,0.666892 -0.0066,0.92382 0.0049,0.005 0.0099,0.0099 0.01503,0.01478 z m -1.595755,-1.59011 c 0.521017,0.540808 1.051595,1.07255 1.595755,1.59011 v 0 c 0.261443,0.248638 0.674934,0.238266 0.923572,-0.02318 0.242993,-0.255481 0.239395,-0.657718 -0.0081,-0.908826 -0.511881,-0.519253 -1.006793,-1.055087 -1.489957,-1.601081 v 0 c -0.254423,-0.287514 -0.693773,-0.314325 -0.981287,-0.0599 -0.287479,0.254423 -0.314325,0.693773 -0.05987,0.981251 0.0065,0.0074 0.01316,0.01457 0.01993,0.02163 z m -1.662148,-1.788549 c 0.543631,0.60579 1.097456,1.202408 1.662148,1.788549 v 0 c 0.266382,0.276507 0.706473,0.284691 0.982944,0.01831 0.268217,-0.25841 0.285115,-0.682343 0.03828,-0.961284 -0.526803,-0.595278 -1.039883,-1.20269 -1.540193,-1.820369 v 0 c -0.261196,-0.32251 -0.734377,-0.372181 -1.056851,-0.110984 -0.32251,0.261197 -0.372181,0.734378 -0.110984,1.056852 0.008,0.0099 0.01619,0.01951 0.02466,0.02893 z m -1.693369,-1.903165 c 0.561905,0.636623 1.126244,1.271199 1.693369,1.903165 v 0 c 0.277177,0.308893 0.752263,0.334575 1.06112,0.0574 0.297886,-0.267299 0.333975,-0.721183 0.08206,-1.032192 -0.536822,-0.662799 -1.081828,-1.318895 -1.633537,-1.969347 v 0 c -0.284163,-0.335033 -0.786165,-0.376237 -1.121198,-0.09208 -0.335034,0.284198 -0.376273,0.786166 -0.09207,1.121199 0.0035,0.004 0.0068,0.0079 0.01023,0.01185 z m -1.775495,-2.025293 c 0.589633,0.677016 1.181382,1.352197 1.775495,2.025297 h -3.5e-5 c 0.290724,0.329353 0.793433,0.360715 1.122786,0.06999 0.324803,-0.286702 0.360504,-0.780591 0.08026,-1.110968 -0.578591,-0.682095 -1.15503,-1.366026 -1.729634,-2.051473 v 0 c -0.29143,-0.347662 -0.809519,-0.393241 -1.157147,-0.101776 -0.347662,0.291429 -0.393241,0.809484 -0.101811,1.157146 0.0032,0.004 0.0067,0.0079 0.01009,0.01178 z m -1.791829,-2.070876 c 0.594995,0.692256 1.192283,1.382536 1.791794,2.070876 h 3.5e-5 c 0.297921,0.342088 0.816786,0.377895 1.158875,0.07994 0.337538,-0.293969 0.377543,-0.804086 0.08999,-1.147092 -0.584341,-0.697018 -1.166848,-1.395553 -1.747555,-2.095606 v 0 c -0.29838,-0.359762 -0.831886,-0.409469 -1.191613,-0.11109 -0.359763,0.298415 -0.409469,0.831921 -0.11109,1.191649 0.0032,0.0038 0.0064,0.0076 0.0096,0.01132 z m -2.453498,-2.848716 c 0.818373,0.949078 1.636641,1.898332 2.453498,2.848716 v 0 c 0.304659,0.354436 0.838941,0.394829 1.193412,0.09017 0.350062,-0.300884 0.394441,-0.82677 0.09973,-1.182053 -0.80384,-0.969116 -1.624648,-1.92412 -2.446867,-2.877643 v 0 c -0.309491,-0.358916 -0.851358,-0.398992 -1.210274,-0.0895 -0.358916,0.309527 -0.398991,0.851394 -0.0895,1.21031 z m -2.211846,-2.593622 c 0.725769,0.874183 1.469919,1.733197 2.211846,2.593622 v 0 c 0.309491,0.358916 0.851358,0.398992 1.210274,0.0895 0.358952,-0.309492 0.399027,-0.851359 0.0895,-1.21031 0,0 0,0 0,0 -0.743832,-0.862648 -1.485371,-1.728929 -2.25492,-2.568928 v 0 c -0.31115,-0.339654 -0.838729,-0.362761 -1.178384,-0.05161 -0.327977,0.300496 -0.362444,0.805497 -0.07832,1.147727 z m -1.201456,-1.391885 c 0.410422,0.45526 0.809943,0.920327 1.201456,1.39192 v 0 c 0.294251,0.354401 0.820067,0.403154 1.174467,0.108938 0.354401,-0.294252 0.40319,-0.820067 0.108938,-1.174468 -0.0086,-0.01044 -0.01757,-0.02064 -0.0267,-0.03062 -0.420088,-0.458541 -0.838659,-0.918492 -1.255043,-1.380384 v 0 c -0.299508,-0.332246 -0.811635,-0.358775 -1.143881,-0.05927 -0.332211,0.299508 -0.358775,0.811636 -0.05927,1.143882 3.5e-5,0 3.5e-5,0 3.5e-5,0 z m -1.127372,-1.253666 c 0.375179,0.418429 0.751064,0.836259 1.127372,1.253666 v 0 c 0.299509,0.332246 0.811636,0.358775 1.143882,0.05927 0.332211,-0.299544 0.35874,-0.811671 0.05923,-1.143882 -0.383257,-0.425133 -0.773994,-0.843492 -1.174467,-1.252432 v 0 c -0.306176,-0.312667 -0.807861,-0.317923 -1.120528,-0.01171 -0.302966,0.296686 -0.318629,0.779392 -0.03549,1.095093 z m -1.361404,-1.520508 c 0.453531,0.507083 0.907203,1.01406 1.361404,1.520543 v 0 c 0.292171,0.32579 0.793115,0.353025 1.118906,0.06085 0.32579,-0.292135 0.35306,-0.793115 0.06089,-1.118905 -0.0078,-0.0086 -0.01566,-0.01707 -0.02378,-0.02537 -0.470253,-0.480201 -0.928617,-0.972149 -1.384229,-1.46625 v 0 c -0.286526,-0.310762 -0.770749,-0.330412 -1.081546,-0.04385 -0.307446,0.283492 -0.330447,0.761259 -0.05165,1.072973 z m -1.154536,-1.308206 c 0.377507,0.442384 0.766868,0.874748 1.154536,1.308206 v 0 c 0.281798,0.315066 0.765668,0.342054 1.08077,0.06022 0.315066,-0.281799 0.342053,-0.765669 0.06022,-1.080735 -0.0025,-0.0028 -0.0052,-0.0058 -0.0078,-0.0086 -0.386395,-0.419096 -0.774521,-0.837067 -1.151605,-1.264634 v 0 c -0.274707,-0.311504 -0.749934,-0.341349 -1.061437,-0.0666 -0.307905,0.271533 -0.341136,0.739845 -0.07465,1.052159 z m -0.876018,-1.0904 c 0.285821,0.368194 0.57344,0.735753 0.876053,1.0904 v 0 c 0.269593,0.315948 0.744255,0.353519 1.060203,0.08393 0.315948,-0.269592 0.353519,-0.74429 0.08393,-1.060203 -0.0028,-0.0032 -0.0054,-0.0062 -0.008,-0.0093 -0.290657,-0.329563 -0.562649,-0.67592 -0.832735,-1.022348 h 3.5e-5 c -0.253718,-0.325437 -0.723194,-0.383575 -1.048632,-0.129893 -0.324944,0.25333 -0.383469,0.721925 -0.13081,1.047398 z m -0.74482,-1.096963 c 0.07708,0.167852 0.180587,0.323744 0.28508,0.475474 0.146121,0.212266 0.301766,0.417971 0.45974,0.621489 v 0 c 0.253048,0.325966 0.722383,0.385057 1.04835,0.132009 0.325931,-0.253012 0.385057,-0.722383 0.132009,-1.048314 -3.17e-4,-3.52e-4 -7.06e-4,-7.07e-4 -0.0011,-0.0011 -0.162736,-0.208738 -0.329883,-0.414796 -0.510011,-0.608859 -0.138289,-0.148978 -0.285679,-0.296827 -0.458258,-0.406153 v 0 c -0.308892,-0.195686 -0.717938,-0.103893 -0.913589,0.204999 -0.120015,0.189442 -0.13596,0.426756 -0.0424,0.630555 z" />
  </g>
</svg>
