<?xml version="1.0" encoding="UTF-8" standalone="no"?>
<!-- Created with Inkscape (http://www.inkscape.org/) -->

<svg
   xmlns:dc="http://purl.org/dc/elements/1.1/"
   xmlns:cc="http://creativecommons.org/ns#"
   xmlns:rdf="http://www.w3.org/1999/02/22-rdf-syntax-ns#"
   xmlns:svg="http://www.w3.org/2000/svg"
   xmlns="http://www.w3.org/2000/svg"
   xmlns:sodipodi="http://sodipodi.sourceforge.net/DTD/sodipodi-0.dtd"
   xmlns:inkscape="http://www.inkscape.org/namespaces/inkscape"
   width="68.500732mm"
   height="81.950615mm"
   viewBox="0 0 68.500733 81.950615"
   version="1.1"
   id="svg347"
   inkscape:version="0.92.3 (2405546, 2018-03-11)"
   sodipodi:docname="ufg_detail2.svg">
  <defs
     id="defs341" />
  <sodipodi:namedview
     id="base"
     pagecolor="#ffffff"
     bordercolor="#666666"
     borderopacity="1.0"
     inkscape:pageopacity="0.0"
     inkscape:pageshadow="2"
     inkscape:zoom="0.98994949"
     inkscape:cx="287.46973"
     inkscape:cy="76.045457"
     inkscape:document-units="mm"
     inkscape:current-layer="layer1"
     showgrid="false"
     inkscape:window-width="1920"
     inkscape:window-height="1025"
     inkscape:window-x="0"
     inkscape:window-y="27"
     inkscape:window-maximized="1"
     fit-margin-top="0"
     fit-margin-left="0"
     fit-margin-right="0"
     fit-margin-bottom="0" />
  <metadata
     id="metadata344">
    <rdf:RDF>
      <cc:Work
         rdf:about="">
        <dc:format>image/svg+xml</dc:format>
        <dc:type
           rdf:resource="http://purl.org/dc/dcmitype/StillImage" />
        <dc:title></dc:title>
      </cc:Work>
    </rdf:RDF>
  </metadata>
  <g
     inkscape:label="Layer 1"
     inkscape:groupmode="layer"
     id="layer1"
     transform="translate(-85.128085,-72.853208)">
    <path
       inkscape:connector-curvature="0"
       id="path221"
       style="fill:#00a9d3;fill-opacity:1;fill-rule:nonzero;stroke:none;stroke-width:0.35277775"
       d="m 103.05718,94.850059 v 0 c 0.16673,0.169918 0.43963,0.172516 0.60955,0.0058 0.16992,-0.166727 0.17246,-0.439641 0.006,-0.609554 -0.024,-0.02444 -0.0508,-0.04595 -0.0799,-0.06406 -0.19222,-0.119628 -0.35761,-0.274444 -0.39776,-0.506118 v 0 c -0.0183,-0.105463 -0.11866,-0.176161 -0.22413,-0.157864 -0.0558,0.0097 -0.10458,0.04328 -0.13353,0.09194 -0.10671,0.179526 -0.15128,0.38934 -0.12124,0.596515 0.0357,0.246564 0.16877,0.467605 0.34128,0.643394 z m 0,0 c 0.18095,0.184415 0.36502,0.368291 0.5318,0.565876 v 0 c 0.1853,0.219472 0.5134,0.247201 0.73287,0.06191 0.21946,-0.185253 0.2472,-0.513392 0.0619,-0.732867 -0.0189,-0.02244 -0.0398,-0.04325 -0.0623,-0.0622 -0.2249,-0.189501 -0.47987,-0.345589 -0.72895,-0.500591 v 0 c -0.20209,-0.125788 -0.4679,-0.0639 -0.5937,0.138222 -0.10505,0.168856 -0.0806,0.387766 0.0583,0.52964 z m 0.5318,0.565876 c 0.10804,0.127961 0.20865,0.262088 0.30556,0.398582 v 0 c 0.17922,0.252359 0.52905,0.31168 0.78141,0.13249 0.25238,-0.179184 0.31168,-0.529055 0.13245,-0.781416 -0.014,-0.01969 -0.0292,-0.03846 -0.0457,-0.0562 -0.13897,-0.150202 -0.28475,-0.294663 -0.44129,-0.426616 v 0 c -0.21961,-0.185082 -0.54769,-0.157059 -0.73281,0.06254 -0.16328,0.193745 -0.16317,0.476975 2.9e-4,0.670611 z m 0.30556,0.398582 c 0.20226,0.284836 0.38278,0.586151 0.56575,0.883467 v 0 c 0.1792,0.291201 0.56053,0.382015 0.85173,0.202815 0.29121,-0.179204 0.38202,-0.560538 0.20287,-0.851735 -0.0107,-0.01747 -0.0223,-0.03439 -0.0348,-0.05072 -0.23009,-0.302018 -0.45904,-0.609999 -0.71726,-0.888975 v 0 c -0.21024,-0.227155 -0.56482,-0.240825 -0.79198,-0.03059 -0.20662,0.191278 -0.23926,0.506173 -0.0762,0.735745 z m 0.56575,0.883467 c 0.21732,0.353148 0.43603,0.705983 0.667,1.050461 v 0 c 0.20536,0.306324 0.62014,0.388132 0.92643,0.182773 0.30632,-0.205361 0.38813,-0.620134 0.18277,-0.92646 -0.006,-0.0083 -0.0112,-0.01631 -0.0171,-0.02428 -0.24309,-0.329888 -0.49104,-0.656222 -0.73939,-0.982163 v 0 c -0.2072,-0.27201 -0.59564,-0.324494 -0.86765,-0.117293 -0.25304,0.192803 -0.31882,0.545963 -0.15163,0.817018 z m 0.667,1.050461 c 0.17001,0.253644 0.34508,0.503876 0.52449,0.750923 l 1e-5,-3.9e-5 c 0.22319,0.307353 0.65324,0.375544 0.96055,0.152356 0.30732,-0.223188 0.37554,-0.653275 0.15236,-0.960585 -0.006,-0.0082 -0.0124,-0.01662 -0.0188,-0.02472 -0.17976,-0.225301 -0.35541,-0.45383 -0.52641,-0.685842 v 0 c -0.21876,-0.296884 -0.63677,-0.360199 -0.93365,-0.141399 -0.28759,0.211906 -0.35744,0.612633 -0.15848,0.909349 z m 0.52449,0.750923 c 0.37641,0.518253 0.77016,1.024277 1.15985,1.532532 v 0 c 0.24532,0.31996 0.70359,0.38048 1.02355,0.13519 0.32,-0.245312 0.38051,-0.703586 0.13519,-1.023549 -0.007,-0.0083 -0.0133,-0.017 -0.0203,-0.02519 -0.40417,-0.481436 -0.81225,-0.960512 -1.20433,-1.451951 v 0 c -0.23688,-0.296881 -0.66956,-0.345575 -0.96648,-0.108707 -0.28745,0.229329 -0.34363,0.644199 -0.12753,0.941705 z m 1.15985,1.532532 c 0.50486,0.65851 1.01006,1.31678 1.51639,1.9742 v 0 c 0.26096,0.33888 0.74726,0.40201 1.08611,0.14103 0.33889,-0.26099 0.40206,-0.74725 0.14104,-1.08614 -0.004,-0.005 -0.007,-0.01 -0.0114,-0.0144 -0.52431,-0.64841 -1.05755,-1.289627 -1.59366,-1.928297 v 0 c -0.25925,-0.308824 -0.71971,-0.349014 -1.02853,-0.08984 -0.2992,0.251162 -0.34768,0.693351 -0.11002,1.003367 z m 1.51636,1.97419 c 0.32267,0.41899 0.64542,0.83793 0.97096,1.25472 v 0 c 0.27018,0.34586 0.76961,0.40725 1.11547,0.13708 0.34588,-0.27017 0.40724,-0.76957 0.13708,-1.11546 -0.005,-0.006 -0.01,-0.012 -0.0145,-0.018 -0.33429,-0.40326 -0.66385,-0.8105 -0.99319,-1.21782 v 0 c -0.26893,-0.3326 -0.75658,-0.38418 -1.08918,-0.11525 -0.32701,0.26444 -0.38324,0.74154 -0.12663,1.07474 z m 0.97096,1.25472 c 0.34944,0.44735 0.72101,0.87776 1.09166,1.30753 v 0 c 0.29644,0.34371 0.81537,0.38203 1.15908,0.0856 0.34369,-0.29645 0.38203,-0.81538 0.0856,-1.15907 -0.006,-0.007 -0.0124,-0.0141 -0.0187,-0.021 -0.36651,-0.39658 -0.73474,-0.79355 -1.0795,-1.20944 v 0 c -0.28012,-0.33786 -0.78112,-0.38469 -1.11898,-0.10458 -0.33096,0.2744 -0.38371,0.76219 -0.11906,1.101 z m 1.09166,1.30753 c 0.35866,0.41583 0.71776,0.83174 1.06511,1.25712 v 0 c 0.29758,0.36443 0.83428,0.41863 1.19872,0.12101 0.36443,-0.29757 0.41862,-0.83428 0.12101,-1.19872 -0.008,-0.009 -0.0144,-0.0173 -0.0218,-0.0257 -0.37292,-0.42151 -0.75514,-0.83489 -1.1371,-1.24825 v 0 c -0.30804,-0.33332 -0.82799,-0.35383 -1.16131,-0.0458 -0.32532,0.30062 -0.35385,0.80492 -0.0646,1.14031 z m 1.06511,1.25712 c 0.37917,0.46435 0.74006,0.94398 1.1023,1.42147 v 0 c 0.29829,0.39323 0.85889,0.47017 1.25209,0.17183 0.39322,-0.29831 0.47016,-0.85889 0.17183,-1.25211 -0.009,-0.0118 -0.0177,-0.0227 -0.0268,-0.0336 -0.39656,-0.4735 -0.79219,-0.94835 -1.20151,-1.41097 v 0 c -0.31178,-0.35238 -0.85018,-0.38525 -1.20257,-0.0735 -0.34256,0.30308 -0.38461,0.82258 -0.0953,1.17687 z m 1.1023,1.42147 c 0.39454,0.5201 0.78927,1.04012 1.18843,1.55668 v 0 c 0.31262,0.40462 0.89411,0.47916 1.2987,0.16649 0.40462,-0.31262 0.4792,-0.89409 0.16649,-1.29873 -8.4e-4,-9.6e-4 -0.002,-0.002 -0.003,-0.003 -0.40612,-0.52129 -0.83008,-1.02886 -1.25433,-1.53546 v 0 c -0.31688,-0.37839 -0.8805,-0.42823 -1.25889,-0.11135 -0.36554,0.30616 -0.42638,0.84537 -0.1382,1.22524 z m 1.18841,1.55664 c 0.2721,0.35217 0.54098,0.70683 0.80674,1.06378 v 0 c 0.30586,0.41072 0.88672,0.49574 1.29743,0.18995 0.41072,-0.30583 0.49573,-0.88672 0.18994,-1.29743 0,0 0,0 0,0 -0.27311,-0.36673 -0.55005,-0.73059 -0.83108,-1.09133 v 0 c -0.31425,-0.40337 -0.89598,-0.47563 -1.29934,-0.16142 -0.40225,0.31338 -0.47542,0.893 -0.16365,1.29649 z m 0.80678,1.06379 c 0.40708,0.54665 0.82302,1.08678 1.23899,1.62671 v 0 c 0.31177,0.40468 0.89258,0.48 1.29725,0.16826 0.40375,-0.31105 0.47978,-0.89008 0.17005,-1.29485 -0.40867,-0.53409 -0.81734,-1.06819 -1.21901,-1.60761 v 0 c -0.30582,-0.41071 -0.8867,-0.49573 -1.29742,-0.18994 -0.41069,0.30586 -0.4957,0.88671 -0.18985,1.29743 0,0 0,0 0,0 z m 1.23901,1.62672 c 0.41535,0.53914 0.83053,1.0786 1.23687,1.62461 v 0 c 0.30596,0.41111 0.88724,0.49633 1.29833,0.19042 0.41111,-0.30597 0.49633,-0.88725 0.19042,-1.29834 -0.002,-0.003 -0.006,-0.007 -0.008,-0.0107 -0.41715,-0.54394 -0.83369,-1.08828 -1.25026,-1.63263 v 0 c -0.31045,-0.40569 -0.89098,-0.48293 -1.29669,-0.17252 -0.40569,0.31045 -0.4829,0.89101 -0.17243,1.29669 6.4e-4,9.3e-4 8.1e-4,0.001 0.002,0.002 z m 1.23687,1.62457 c 0.44227,0.59432 0.89259,1.1827 1.34257,1.77116 l -3e-5,-1e-5 c 0.31393,0.41053 0.90117,0.48883 1.31171,0.17489 0.41052,-0.31393 0.48883,-0.90118 0.17488,-1.31171 -6.4e-4,-9.3e-4 -0.002,-10e-4 -0.002,-0.002 -0.44924,-0.58312 -0.8985,-1.16617 -1.34642,-1.75027 v 0 c -0.31185,-0.40666 -0.89431,-0.4835 -1.30097,-0.17169 -0.40249,0.30867 -0.48256,0.88336 -0.17968,1.29031 v -3e-5 z m 1.34254,1.77115 c 0.45561,0.59585 0.91122,1.19212 1.35284,1.79848 l 1e-5,-3e-5 c 0.30513,0.41895 0.8921,0.51122 1.31106,0.20609 0.41894,-0.3051 0.51121,-0.89211 0.20608,-1.31106 0,0 0,0 0,0 -0.45087,-0.61904 -0.91805,-1.22631 -1.38542,-1.83293 v 0 c -0.31539,-0.4094 -0.90297,-0.48557 -1.31232,-0.17022 -0.40831,0.31458 -0.48534,0.90017 -0.17226,1.30961 z m 1.35285,1.79845 c 0.30428,0.41775 0.61303,0.83227 0.92646,1.24318 v 0 c 0.31346,0.4109 0.90066,0.48991 1.31156,0.17649 0.4089,-0.31191 0.48945,-0.89526 0.1805,-1.30631 -0.30355,-0.40381 -0.60393,-0.80997 -0.90135,-1.21831 v 0 c -0.30512,-0.41896 -0.89209,-0.51122 -1.31105,-0.20609 -0.41895,0.30513 -0.51122,0.8921 -0.20609,1.31106 z m 0.92646,1.24318 c 0.30459,0.39929 0.60433,0.80237 0.89936,1.2088 v 0 c 0.30272,0.41703 0.88621,0.50971 1.30328,0.207 0.41704,-0.30274 0.50971,-0.88622 0.20699,-1.30329 -0.30241,-0.41662 -0.60824,-0.83082 -0.9176,-1.24233 v 0 c -0.31055,-0.41314 -0.89719,-0.49627 -1.3103,-0.18571 -0.4131,0.31054 -0.49623,0.89719 -0.1857,1.31028 0.002,0.001 0.002,0.004 0.004,0.005 z m 0.89936,1.2088 c 0.46656,0.64274 0.95163,1.27225 1.43614,1.90147 v 0 c 0.31308,0.40661 0.89648,0.48241 1.30304,0.16932 0.40515,-0.31198 0.4821,-0.89265 0.17221,-1.29936 -0.47169,-0.61893 -0.94393,-1.23793 -1.40107,-1.86773 v 0 c -0.30275,-0.41705 -0.88624,-0.50972 -1.30328,-0.207 -0.41706,0.30271 -0.50974,0.88621 -0.20699,1.30328 z m 1.43613,1.90151 c 0.62361,0.80986 1.24646,1.62039 1.86828,2.43161 v 0 c 0.30824,0.40212 0.88412,0.47825 1.28625,0.16999 0.39915,-0.30595 0.47756,-0.87625 0.17579,-1.27857 -0.61511,-0.82015 -1.23368,-1.6377 -1.85509,-2.45311 v 0 c -0.31105,-0.40813 -0.89405,-0.48688 -1.30219,-0.17578 -0.40817,0.31103 -0.48686,0.89404 -0.17578,1.30218 8.1e-4,0.001 0.002,0.002 0.002,0.003 h -4e-5 z m 1.86831,2.43162 c 0.46609,0.6081 0.93257,1.21592 1.40489,1.81919 v 0 c 0.31077,0.39695 0.88451,0.46681 1.28149,0.1561 0.39697,-0.31081 0.46682,-0.88454 0.156,-1.28151 -0.002,-0.002 -0.003,-0.004 -0.004,-0.006 -0.46972,-0.59019 -0.92336,-1.19324 -1.37594,-1.7966 v 0 c -0.30398,-0.40532 -0.87901,-0.48743 -1.28434,-0.18347 -0.40533,0.30402 -0.48747,0.87905 -0.18348,1.28437 0.002,0.002 0.004,0.005 0.006,0.008 z m 1.40489,1.81919 c 0.32299,0.41259 0.64882,0.82295 0.97807,1.2306 v 0 c 0.31787,0.3936 0.89461,0.45496 1.28822,0.1371 0.39357,-0.31789 0.45494,-0.89462 0.1371,-1.28822 0,0 0,0 0,0 -0.32494,-0.40234 -0.64829,-0.80596 -0.97034,-1.21062 v 0 c -0.31395,-0.39446 -0.88821,-0.45976 -1.2827,-0.14585 -0.39223,0.31217 -0.45936,0.88225 -0.15029,1.27699 z m 0.97807,1.2306 c 0.32716,0.40511 0.65022,0.81362 0.97011,1.22453 v 0 c 0.31294,0.40202 0.89252,0.47425 1.29456,0.16125 0.40203,-0.31295 0.47425,-0.89256 0.16126,-1.2946 -0.003,-0.004 -0.006,-0.007 -0.009,-0.0108 -0.33015,-0.41076 -0.66069,-0.82112 -0.99176,-1.23111 v 0 c -0.31788,-0.39356 -0.89464,-0.45498 -1.28822,-0.1371 -0.39361,0.31788 -0.45501,0.89462 -0.1371,1.28822 0,0 0,0 0,0 z m 0.97007,1.22452 c 0.32945,0.42322 0.65733,0.84765 0.98336,1.27351 v 0 c 0.31318,0.40909 0.89874,0.48683 1.3078,0.17366 0.40911,-0.31323 0.48684,-0.89876 0.17367,-1.30785 -0.002,-0.002 -0.004,-0.005 -0.006,-0.007 -0.33441,-0.4278 -0.67191,-0.85314 -1.01206,-1.2764 v 0 c -0.31916,-0.3971 -0.89983,-0.46031 -1.29694,-0.14115 -0.39273,0.31568 -0.45954,0.88807 -0.15006,1.28569 z m 0.98335,1.27354 c 0.49204,0.64263 0.99907,1.27389 1.50576,1.90498 v 0 c 0.32391,0.40347 0.91361,0.46794 1.3171,0.14395 0.40346,-0.32391 0.46794,-0.91361 0.14405,-1.31708 -0.4997,-0.62237 -0.99961,-1.24471 -1.49116,-1.87355 v 0 c -0.31729,-0.40591 -0.90356,-0.47779 -1.30953,-0.16045 -0.40304,0.31502 -0.4772,0.8959 -0.1662,1.30212 z m 1.50576,1.90498 c 0.50819,0.63294 1.01631,1.26598 1.51978,1.90271 v 0 c 0.32069,0.40561 0.90947,0.47444 1.31503,0.15374 0.40515,-0.32034 0.47435,-0.90822 0.15465,-1.31389 -0.50565,-0.64159 -1.01698,-1.27867 -1.52836,-1.91565 v 0 c -0.32396,-0.40347 -0.91361,-0.46793 -1.31712,-0.14405 -0.40347,0.32395 -0.46793,0.91361 -0.14405,1.31708 3e-5,4e-5 3e-5,4e-5 3e-5,4e-5 z m 1.5198,1.90276 c 0.32888,0.4159 0.65132,0.83686 0.96649,1.26325 v 0 c 0.3071,0.41551 0.89287,0.50341 1.30841,0.19634 0.4155,-0.30709 0.5034,-0.89285 0.19634,-1.30839 0,0 0,0 -4e-5,-1e-5 -0.3269,-0.44233 -0.66102,-0.87933 -1.00149,-1.31132 v 0 c -0.32002,-0.40612 -0.9087,-0.4759 -1.3148,-0.15583 -0.40609,0.32002 -0.47589,0.90869 -0.15583,1.31479 2.2e-4,3.1e-4 6.4e-4,9.2e-4 8e-4,0.001 z m 0.96649,1.26329 c 0.33882,0.45841 0.68342,0.91255 1.03201,1.36355 v 0 c 0.31336,0.40543 0.89609,0.48005 1.30152,0.1667 0.40051,-0.30957 0.47898,-0.88302 0.17636,-1.28881 -0.33597,-0.4505 -0.67119,-0.90165 -1.00522,-1.35358 v 0 c -0.30709,-0.41551 -0.8929,-0.50341 -1.30843,-0.19624 -0.4155,0.30709 -0.50336,0.8929 -0.19624,1.30842 0,0 0,0 0,0 z m 1.03201,1.36355 c 0.56747,0.73415 1.12352,1.47715 1.67994,2.21968 v 0 c 0.30509,0.40714 0.88252,0.48987 1.28967,0.18475 0.40715,-0.30511 0.48987,-0.88251 0.18475,-1.28965 -2e-4,-2.9e-4 -7.2e-4,-4.1e-4 -6.3e-4,-9.3e-4 -0.55947,-0.74474 -1.119,-1.4893 -1.67584,-2.236 v 0 c -0.30635,-0.41078 -0.88769,-0.49545 -1.29847,-0.18912 -0.41078,0.30634 -0.49545,0.88769 -0.18912,1.29846 0.003,0.005 0.007,0.008 0.01,0.0128 z m 1.67992,2.21967 c 0.57445,0.76655 1.14873,1.53361 1.7075,2.31176 v 0 c 0.29705,0.4137 0.87327,0.50825 1.287,0.21121 0.41362,-0.297 0.50821,-0.87307 0.21127,-1.28678 -0.56608,-0.78883 -1.14889,-1.56571 -1.73204,-2.34193 v 0 c -0.30557,-0.4068 -0.8831,-0.48883 -1.28985,-0.18326 -0.40644,0.30535 -0.48874,0.88218 -0.18392,1.28898 z m 1.7075,2.31176 c 0.384,0.53479 0.77006,1.06813 1.15817,1.59999 l 3e-5,-3e-5 c 0.30093,0.41239 0.87918,0.50274 1.29155,0.20178 0.4124,-0.30093 0.50274,-0.87917 0.20179,-1.29158 -8.1e-4,-0.001 -0.002,-0.002 -0.002,-0.004 -0.38689,-0.52499 -0.77041,-1.05252 -1.15066,-1.58235 v 0 c -0.29698,-0.41378 -0.87317,-0.50849 -1.28695,-0.21151 -0.41379,0.29697 -0.5085,0.87317 -0.21151,1.28695 6e-5,6e-5 8e-5,1.3e-4 1.4e-4,1.7e-4 v 4e-5 z m 1.15819,1.6 c 0.38949,0.53368 0.7874,1.06117 1.19376,1.58212 v 0 c 0.31476,0.40349 0.89704,0.47546 1.30054,0.16073 0.40355,-0.31476 0.4755,-0.89701 0.16073,-1.30056 -0.39506,-0.50652 -0.78317,-1.01846 -1.16426,-1.53557 v 0 c -0.30284,-0.41096 -0.88152,-0.49861 -1.29248,-0.19575 -0.40963,0.30187 -0.49826,0.87804 -0.19827,1.28904 z m 1.19372,1.58211 c 0.3998,0.51255 0.80829,1.01842 1.22597,1.51652 v 0 c 0.32936,0.39282 0.91478,0.44424 1.30757,0.11487 0.39278,-0.32937 0.44423,-0.91478 0.11487,-1.30756 -6.4e-4,-9.3e-4 -8e-4,-10e-4 -0.002,-0.002 -0.40453,-0.47932 -0.79938,-0.96679 -1.1851,-1.46136 v 0 c -0.31475,-0.40354 -0.89703,-0.47551 -1.30058,-0.16074 -0.40354,0.31476 -0.47555,0.89703 -0.16084,1.30057 0,0 0,0 0,3e-5 z m 1.22597,1.51652 c 0.3992,0.47611 0.80361,0.9479 1.2138,1.41456 v 0 c 0.3393,0.38601 0.9273,0.42387 1.31331,0.0845 0.386,-0.33929 0.42386,-0.92729 0.0845,-1.3133 -2.2e-4,-3.1e-4 -8.4e-4,-9.6e-4 -8e-4,-0.001 -0.40185,-0.45532 -0.79824,-0.91538 -1.18995,-1.37941 v 0 c -0.33062,-0.39173 -0.91621,-0.44127 -1.30794,-0.11064 -0.3908,0.32987 -0.44113,0.91374 -0.11254,1.30563 z m 1.2138,1.41456 c 0.38637,0.43952 0.779,0.87364 1.17939,1.30042 v 0 c 0.35216,0.37539 0.94194,0.39425 1.31733,0.0421 0.37542,-0.35215 0.39425,-0.94193 0.0421,-1.31732 -2.1e-4,-2.9e-4 -7.2e-4,-4.1e-4 -8.4e-4,-9.6e-4 -0.3873,-0.41182 -0.76729,-0.83059 -1.14137,-1.25446 v 0 c -0.34006,-0.38532 -0.92812,-0.42201 -1.31344,-0.082 -0.38481,0.33959 -0.422,0.92664 -0.0832,1.31208 z m 1.17939,1.30042 c 0.3952,0.42131 0.80009,0.83336 1.2132,1.2371 v 0 c 0.37089,0.36251 0.96543,0.35571 1.32791,-0.0152 0.36253,-0.37089 0.35571,-0.96544 -0.0152,-1.32796 -0.004,-0.003 -0.007,-0.006 -0.0103,-0.01 -0.39639,-0.37579 -0.78278,-0.76222 -1.157,-1.16016 v 0 c -0.35263,-0.37494 -0.94244,-0.39304 -1.3174,-0.0404 -0.37464,0.35233 -0.39309,0.9415 -0.0412,1.31655 z m 1.21319,1.23713 c 0.3895,0.38066 0.7812,0.75907 1.17619,1.13403 v 0 c 0.38207,0.36275 0.98591,0.34704 1.34863,-0.0351 0.36275,-0.38207 0.34703,-0.98589 -0.035,-1.34861 -0.005,-0.005 -0.0102,-0.01 -0.0155,-0.0143 -0.39475,-0.35856 -0.78488,-0.72218 -1.1719,-1.08908 v 0 c -0.37634,-0.35682 -0.97072,-0.34097 -1.32753,0.0354 -0.35301,0.37236 -0.34181,0.95907 0.0251,1.3177 z m 1.17619,1.13403 c 0.51348,0.48745 1.03563,0.96586 1.5583,1.44334 v 0 c 0.40207,0.3673 1.02577,0.3391 1.39308,-0.063 0.36729,-0.40207 0.3391,-1.02575 -0.063,-1.39304 -0.009,-0.008 -0.0172,-0.0155 -0.026,-0.023 -0.52653,-0.44803 -1.05245,-0.89756 -1.56424,-1.36239 v 0 c -0.39003,-0.35422 -0.99334,-0.32521 -1.34754,0.0648 -0.34872,0.38393 -0.32677,0.97614 0.0494,1.33321 z m 1.5583,1.44334 c 0.47487,0.43381 0.94863,0.86993 1.43679,1.28883 v 0 c 0.42622,0.36571 1.06819,0.31668 1.43391,-0.10955 0.36572,-0.42618 0.31668,-1.06819 -0.10954,-1.43391 -0.006,-0.005 -0.0132,-0.0116 -0.0201,-0.0168 -0.4851,-0.39502 -0.96059,-0.80214 -1.43696,-1.20753 v 0 c -0.41477,-0.35292 -1.03706,-0.3028 -1.39001,0.11193 -0.34418,0.40447 -0.30618,1.00885 0.0859,1.36703 z m 1.43676,1.28878 c 0.27946,0.2398 0.56476,0.47276 0.85731,0.69645 v 0 c 0.44923,0.34348 1.09185,0.2578 1.43535,-0.19149 0.3435,-0.44923 0.25781,-1.09186 -0.19145,-1.43535 -4e-5,-1e-5 -4e-5,-1e-5 -3e-5,-5e-5 -0.26895,-0.20561 -0.53432,-0.41599 -0.79686,-0.62976 v 0 c -0.43551,-0.35464 -1.07601,-0.28905 -1.43063,0.14644 -0.34815,0.42756 -0.29214,1.0547 0.12631,1.41376 z m 0.85728,0.69644 c 0.33276,0.25444 0.67365,0.49814 1.01682,0.73817 v 0 c 0.46633,0.32616 1.10877,0.21252 1.43492,-0.25377 0.32616,-0.4663 0.21252,-1.10873 -0.25377,-1.43489 -0.006,-0.003 -0.0102,-0.007 -0.0155,-0.01 -0.31821,-0.21416 -0.63393,-0.43281 -0.93872,-0.66585 v 0 c -0.44922,-0.34349 -1.09188,-0.25781 -1.43539,0.19145 -0.34349,0.44926 -0.25781,1.09188 0.19146,1.43538 z m 1.01682,0.73817 c 0.50643,0.35422 1.07243,0.61884 1.65601,0.81846 v 0 c 0.45027,0.15408 0.94015,-0.0861 1.09418,-0.53637 0.11181,-0.32689 0.0176,-0.68894 -0.23934,-0.91987 -0.42493,-0.38184 -0.87078,-0.74226 -1.34499,-1.06137 v 0 c -0.47213,-0.31772 -1.11238,-0.19255 -1.4301,0.27956 -0.31371,0.46608 -0.19622,1.09757 0.26424,1.41959 z" />
    <path
       inkscape:connector-curvature="0"
       id="path223"
       style="fill:#00a9d3;fill-opacity:1;fill-rule:nonzero;stroke:none;stroke-width:0.35277775"
       d="m 92.704523,92.132805 c 0.308568,-0.04378 0.601707,-0.195539 0.871743,-0.343165 v 0 c 0.09396,-0.05134 0.128489,-0.169128 0.07707,-0.263086 -0.0476,-0.08712 -0.153377,-0.124192 -0.244975,-0.0858 -0.141142,0.0591 -0.286608,0.112035 -0.43664,0.143675 -0.08465,0.0179 -0.176058,0.03244 -0.262498,0.01858 v 0 c -0.146103,-0.02337 -0.283495,0.07606 -0.306907,0.222153 -0.02288,0.146193 0.07602,0.283484 0.222114,0.306899 0.02649,0.0042 0.05348,0.0045 0.07999,7.24e-4 z m -0.550306,0.03573 c 0.183861,0.0073 0.368414,-0.0099 0.550306,-0.03573 v 0 c 0.146501,-0.02082 0.248366,-0.156392 0.227588,-0.302886 -0.01649,-0.116323 -0.106847,-0.208311 -0.22284,-0.226895 -0.146034,-0.02336 -0.292651,-0.05212 -0.433163,-0.09904 v 0 c -0.178739,-0.05981 -0.372098,0.03659 -0.431904,0.215289 -0.05979,0.178706 0.03659,0.372066 0.215325,0.431882 0.03056,0.01021 0.06242,0.01608 0.09472,0.01739 z m -0.578609,-0.156484 c 0.180387,0.0886 0.376916,0.148438 0.578579,0.156479 v 0 c 0.188307,0.0075 0.34708,-0.139057 0.354571,-0.327368 0.0061,-0.151621 -0.08875,-0.289023 -0.232649,-0.337181 -0.103686,-0.03471 -0.19803,-0.0939 -0.284133,-0.160386 v 0 c -0.172993,-0.133623 -0.421508,-0.101697 -0.555132,0.07129 -0.133623,0.172988 -0.101697,0.421512 0.07129,0.555132 0.021,0.01625 0.04363,0.03032 0.0675,0.04203 z m -0.571854,-0.386365 c 0.175941,0.148299 0.364806,0.28474 0.571848,0.386399 l 3.9e-5,8e-6 c 0.196179,0.09632 0.433339,0.01534 0.529695,-0.18087 0.08288,-0.168818 0.03555,-0.372686 -0.113354,-0.487663 -0.133585,-0.103145 -0.251239,-0.22657 -0.36161,-0.353707 v 0 c -0.162118,-0.186717 -0.444887,-0.206664 -0.631594,-0.04458 -0.186714,0.162124 -0.206665,0.444886 -0.04454,0.631605 0.01528,0.01753 0.03179,0.03384 0.04957,0.04882 z m -0.85454,-0.877298 c 0.270572,0.302847 0.543243,0.614942 0.85454,0.877298 v 0 c 0.189082,0.159367 0.47153,0.135272 0.630852,-0.05378 0.142107,-0.16859 0.140355,-0.415535 -0.0042,-0.582053 -0.244467,-0.281569 -0.463127,-0.587187 -0.683304,-0.887667 v 0 c -0.16775,-0.228973 -0.489387,-0.278577 -0.718367,-0.110793 -0.228935,0.167759 -0.278573,0.489387 -0.110763,0.71837 0.0098,0.01336 0.02027,0.02626 0.03132,0.03863 z M 88.98161,89.339084 c 0.374252,0.481841 0.761062,0.954303 1.167604,1.409307 v 0 c 0.18912,0.211677 0.51402,0.229956 0.725686,0.04086 0.197371,-0.176304 0.228579,-0.473635 0.07215,-0.687068 -0.347214,-0.473844 -0.677937,-0.959642 -0.998561,-1.451793 v 0 c -0.179093,-0.274899 -0.54713,-0.352571 -0.822038,-0.173445 -0.2749,0.179087 -0.352537,0.547137 -0.173493,0.822026 0.009,0.01374 0.01848,0.02715 0.0286,0.0401 z m -0.904417,-1.213287 c 0.285934,0.415447 0.595161,0.815136 0.904417,1.213287 l -6e-6,3.4e-5 c 0.201269,0.259078 0.574478,0.305993 0.833586,0.10473 0.244045,-0.189545 0.302005,-0.534532 0.133347,-0.793446 -0.261542,-0.40148 -0.523663,-0.804287 -0.760669,-1.220939 v 0 c -0.179164,-0.314946 -0.579698,-0.42501 -0.89463,-0.245874 -0.314948,0.179166 -0.42501,0.579693 -0.245855,0.894637 0.0093,0.01628 0.01919,0.03216 0.02987,0.04758 z m -0.576277,-0.967232 c 0.171995,0.33382 0.363332,0.657861 0.576277,0.967232 v 0 c 0.205451,0.298448 0.613903,0.373884 0.912382,0.168437 0.280537,-0.193115 0.36664,-0.568752 0.198254,-0.864778 -0.155807,-0.273907 -0.290148,-0.559785 -0.406146,-0.85272 v 0 c -0.143197,-0.361621 -0.55239,-0.538675 -0.91402,-0.395485 -0.361613,0.143157 -0.538704,0.552386 -0.395517,0.914006 0.0085,0.02155 0.01816,0.0427 0.0288,0.06331 z m -0.450671,-1.203183 c 0.106058,0.415758 0.253992,0.821515 0.450671,1.203183 v 0 c 0.178153,0.345753 0.602831,0.481612 0.948585,0.303461 0.321818,-0.165847 0.465496,-0.548663 0.332221,-0.885282 -0.118029,-0.29808 -0.19762,-0.610455 -0.247511,-0.926896 v 0 c -0.06518,-0.413711 -0.453466,-0.696251 -0.867183,-0.631034 -0.413711,0.06518 -0.696284,0.453424 -0.63107,0.867176 0.0038,0.02338 0.0085,0.04651 0.01426,0.06938 z M 86.8378,84.604699 c 0.0316,0.455231 0.09959,0.908347 0.212445,1.350683 v 0 c 0.103547,0.405825 0.516461,0.650898 0.922319,0.547393 0.379244,-0.09675 0.622596,-0.46629 0.561647,-0.852927 -0.05712,-0.362507 -0.08054,-0.729922 -0.0785,-1.096733 v 0 c 0.0025,-0.447291 -0.358094,-0.811936 -0.805393,-0.81443 -0.447335,-0.0025 -0.811947,0.358134 -0.814435,0.805432 3.26e-4,0.0203 6.8e-4,0.04044 0.0019,0.06059 z m 0.0016,-1.421274 c -0.03279,0.472992 -0.03447,0.948239 -0.0016,1.421274 v 0 c 0.031,0.44626 0.417841,0.78288 0.864063,0.751887 0.42282,-0.02932 0.751485,-0.379647 0.753846,-0.803471 0.0022,-0.398306 0.03293,-0.796283 0.08851,-1.190674 v 0 c 0.06612,-0.469036 -0.260491,-0.902815 -0.729487,-0.968928 -0.469034,-0.06612 -0.902821,0.26049 -0.968928,0.729493 -0.003,0.02004 -0.0054,0.04015 -0.0061,0.06047 z m 0.145721,-1.384061 c -0.06516,0.45942 -0.11368,0.921191 -0.145727,1.384096 v 0 c -0.0327,0.472506 0.323787,0.88209 0.796318,0.914848 0.448985,0.03108 0.845657,-0.290184 0.908472,-0.735867 0.059,-0.418835 0.132189,-0.835703 0.21966,-1.249542 v 0 c 0.10316,-0.488259 -0.209074,-0.967672 -0.697344,-1.070771 -0.48826,-0.103101 -0.967633,0.20912 -1.070764,0.697377 -0.004,0.01985 -0.0077,0.0398 -0.01067,0.05984 z m 0,0 v 0 c -0.07003,0.494072 0.273699,0.951417 0.767772,1.021436 0.470749,0.06676 0.912678,-0.242747 1.010911,-0.707909 0.08516,-0.403503 0.215703,-0.796704 0.373662,-1.177283 v 0 c 0.198753,-0.478809 -0.0283,-1.028073 -0.507111,-1.226823 -0.478774,-0.198741 -1.028075,0.0283 -1.226788,0.50712 -0.0039,0.0099 -0.0077,0.01985 -0.0116,0.02982 -0.188521,0.501967 -0.331337,1.022368 -0.40664,1.553672 z m 2.152345,-0.863756 c 0.169038,-0.407305 0.37931,-0.797073 0.624514,-1.163577 v 0 c 0.2969,-0.443786 0.177842,-1.044206 -0.265975,-1.341071 -0.443751,-0.29689 -1.04417,-0.177846 -1.34107,0.265942 -0.0071,0.01072 -0.01414,0.02153 -0.02084,0.0325 -0.294472,0.480643 -0.544151,0.988592 -0.742367,1.516286 v 0 c -0.182301,0.485323 0.06339,1.026509 0.548716,1.208809 0.47361,0.177885 1.003025,-0.05161 1.196989,-0.518891 z m 0.624514,-1.163577 c 0.25922,-0.387489 0.55969,-0.746388 0.887247,-1.077803 v 0 c 0.385185,-0.389739 0.3815,-1.017965 -0.0082,-1.403152 -0.389769,-0.385191 -1.017967,-0.381501 -1.403152,0.0082 -0.0061,0.0057 -0.01131,0.01169 -0.01697,0.01761 -0.407718,0.433366 -0.775736,0.9049 -1.086755,1.412483 l 3e-5,5e-6 c -0.278955,0.455273 -0.135988,1.050487 0.319281,1.329411 0.44248,0.271077 1.020042,0.14452 1.308571,-0.286785 z m 0.887247,-1.077803 c 0.356703,-0.360946 0.752875,-0.681649 1.172308,-0.966856 v 0 c 0.465289,-0.316357 0.586012,-0.950026 0.270032,-1.415242 -0.316386,-0.465327 -0.950051,-0.586045 -1.415348,-0.269646 -0.01043,0.0069 -0.02041,0.01418 -0.03051,0.02153 -0.510201,0.37498 -0.990461,0.791638 -1.424505,1.252974 v 0 c -0.37547,0.399099 -0.356304,1.027022 0.04283,1.402532 0.392159,0.368916 1.007022,0.357746 1.385549,-0.02522 z m 1.172308,-0.966856 c 0.477313,-0.324544 0.969133,-0.627617 1.472447,-0.910131 v 0 c 0.498581,-0.279836 0.675892,-0.910858 0.39605,-1.409446 -0.279838,-0.498551 -0.910901,-0.675861 -1.409452,-0.39602 0,0 0,0 0,0 -0.56557,0.317458 -1.112574,0.668076 -1.635223,1.052168 v 0 c -0.453399,0.33322 -0.550823,0.970896 -0.217599,1.424261 0.324578,0.44169 0.940495,0.54737 1.393767,0.239168 z m 1.472447,-0.910131 c 0.496349,-0.278598 1.005346,-0.534955 1.526313,-0.764353 l 4e-5,7e-6 c 0.521033,-0.229422 0.757442,-0.83782 0.527986,-1.358866 -0.22785,-0.517451 -0.829936,-0.754816 -1.349607,-0.532065 -0.587561,0.251847 -1.160715,0.536914 -1.718134,0.849811 v 0 c -0.49858,0.279837 -0.675891,0.910858 -0.396049,1.409446 0.279877,0.498559 0.910901,0.675862 1.409451,0.39602 z m 1.526353,-0.764346 c 0.50562,-0.22265 1.017073,-0.432208 1.534662,-0.625568 v 0 c 0.514354,-0.192198 0.775547,-0.764926 0.583393,-1.279312 -0.181725,-0.486349 -0.707066,-0.751033 -1.206055,-0.607551 -0.590389,0.169717 -1.169042,0.379478 -1.733621,0.6215 v 0 c -0.523293,0.224307 -0.765654,0.830351 -0.541351,1.353641 0.224343,0.523297 0.830388,0.765659 1.353642,0.541346 0.0033,-0.0012 0.0066,-0.0027 0.0089,-0.0042 z m 1.534662,-0.625568 c 0.465319,-0.173867 0.93798,-0.328875 1.418038,-0.456979 v 0 c 0.500124,-0.13348 0.797336,-0.647088 0.663888,-1.147208 -0.127318,-0.477109 -0.602961,-0.773598 -1.087394,-0.677797 -0.54455,0.107714 -1.08374,0.241742 -1.617194,0.395121 v 0 c -0.527706,0.151713 -0.832521,0.702481 -0.680807,1.230218 0.151711,0.527701 0.702508,0.832521 1.230215,0.680808 0.0247,-0.0071 0.04917,-0.01519 0.07329,-0.02415 z m 1.418038,-0.456979 c 0.447119,-0.119325 0.900495,-0.215219 1.35792,-0.285365 l -3.9e-5,-7e-6 c 0.486291,-0.07455 0.820026,-0.529225 0.74547,-1.015477 -0.07146,-0.466057 -0.493718,-0.795682 -0.963173,-0.751897 -0.524683,0.04892 -1.046748,0.125519 -1.563684,0.227741 v 0 c -0.50777,0.100431 -0.838035,0.59349 -0.737601,1.101263 0.100427,0.507808 0.593492,0.838038 1.101262,0.737605 0.02004,-0.0039 0.04002,-0.0086 0.0598,-0.01387 z m 1.35792,-0.285365 c 0.429476,-0.06586 0.862488,-0.110806 1.296795,-0.126813 v 0 c 0.47039,-0.01732 0.83768,-0.412686 0.82035,-0.883044 -0.0167,-0.453918 -0.38646,-0.81494 -0.84062,-0.820852 -0.498756,-0.0065 -0.997722,0.017 -1.494267,0.06333 v 0 c -0.489864,0.04566 -0.849904,0.479811 -0.804243,0.969633 0.0457,0.489827 0.479814,0.849869 0.969637,0.804206 0.01749,-0.0017 0.03496,-0.0038 0.05234,-0.0065 z m 1.296795,-0.126813 c 0.39935,-0.0147 0.79977,-0.0033 1.19736,0.03709 v 0 c 0.44896,0.04559 0.84987,-0.281371 0.89551,-0.730328 0.0437,-0.43087 -0.25626,-0.821072 -0.68395,-0.889436 -0.47258,-0.07553 -0.95073,-0.114986 -1.42919,-0.121219 v 0 c -0.470657,-0.0061 -0.857189,0.370457 -0.863313,0.841119 -0.0061,0.470661 0.370465,0.857189 0.841123,0.863309 0.0142,7.9e-5 0.0284,4.2e-5 0.0425,-5.05e-4 z m 1.19736,0.03709 c 0.38952,0.03959 0.77779,0.09233 1.16306,0.162454 v 0 c 0.42362,0.07697 0.82951,-0.203803 0.90663,-0.627442 0.0736,-0.404565 -0.1796,-0.796752 -0.57861,-0.896133 -0.42238,-0.105193 -0.84975,-0.189931 -1.27953,-0.25864 v 0 c -0.4456,-0.0712 -0.86457,0.232279 -0.93581,0.677914 -0.0712,0.445615 0.23231,0.864583 0.67792,0.935784 0.0154,0.0025 0.0309,0.0046 0.0464,0.006 z m 1.16306,0.162454 c 0.31187,0.05677 0.61779,0.148608 0.90608,0.281027 v 0 c 0.37993,0.17453 0.82943,0.008 1.00393,-0.371926 0.17292,-0.376422 0.0112,-0.821923 -0.36294,-0.999759 -0.39025,-0.185471 -0.79994,-0.32854 -1.21905,-0.432917 v 0 c -0.41782,-0.104067 -0.8409,0.150299 -0.94497,0.56811 -0.10406,0.417812 0.1503,0.840892 0.56813,0.944924 0.0161,0.0041 0.0325,0.0074 0.0488,0.01042 z m 0.90608,0.281027 c 0.28765,0.132156 0.5634,0.290389 0.82086,0.474665 v 0 c 0.33901,0.242714 0.81053,0.164624 1.05321,-0.17437 0.2427,-0.338984 0.16466,-0.810525 -0.17437,-1.053207 -8.6e-4,-8.76e-4 -0.002,-0.0014 -0.004,-0.0025 -0.33308,-0.235664 -0.68698,-0.441233 -1.05539,-0.616367 v 0 c -0.37761,-0.179484 -0.82927,-0.01884 -1.00874,0.35877 -0.17949,0.377615 -0.0189,0.829263 0.35876,1.008746 0.003,0.0012 0.006,0.0029 0.009,0.0043 z m 0.82089,0.474707 c 0.23853,0.170742 0.45474,0.371949 0.64206,0.597679 v 0 c 0.27148,0.327156 0.75679,0.372278 1.08395,0.100771 0.32717,-0.271473 0.37228,-0.756793 0.10077,-1.083955 -0.008,-0.0099 -0.0166,-0.0195 -0.0253,-0.02891 -0.27872,-0.303739 -0.58962,-0.577502 -0.92612,-0.815627 v 0 c -0.34034,-0.240806 -0.81143,-0.160162 -1.05226,0.18014 -0.23989,0.339038 -0.16087,0.80814 0.17681,1.049891 z m 0.64205,0.597713 c 0.20847,0.251149 0.38485,0.527917 0.53673,0.816489 v 0 c 0.20492,0.389321 0.68664,0.538816 1.07596,0.333899 0.38932,-0.204915 0.53881,-0.686635 0.3339,-1.075954 -0.005,-0.01032 -0.0112,-0.02056 -0.017,-0.03068 -0.22003,-0.376755 -0.47481,-0.734193 -0.77007,-1.055904 v 0 c -0.28745,-0.313205 -0.77441,-0.334093 -1.08762,-0.0466 -0.30228,0.277388 -0.33388,0.743066 -0.0719,1.058754 z m 0.53673,0.816489 c 0.18661,0.354522 0.3249,0.733607 0.43893,1.117043 v 0 c 0.13152,0.442261 0.59665,0.694198 1.03891,0.562678 0.44226,-0.13152 0.6942,-0.596652 0.56268,-1.038913 -0.005,-0.01786 -0.0113,-0.0357 -0.0178,-0.05326 -0.17433,-0.468484 -0.37757,-0.9282 -0.62988,-1.360299 v 0 c -0.22185,-0.379923 -0.70969,-0.508055 -1.08963,-0.286203 -0.36813,0.214955 -0.50176,0.681663 -0.30321,1.058941 z m 0.43893,1.117043 c 0.13971,0.469814 0.24965,0.948202 0.33504,1.430747 l -1e-5,3.4e-5 c 0.0849,0.479619 0.5425,0.799617 1.02212,0.71473 0.47961,-0.08485 0.7996,-0.54246 0.71475,-1.022071 -0.002,-0.01492 -0.006,-0.02989 -0.009,-0.0447 -0.12586,-0.545357 -0.28378,-1.083564 -0.47899,-1.6082 v 0 c -0.16089,-0.43243 -0.64189,-0.652567 -1.07432,-0.491686 -0.41206,0.153337 -0.63479,0.599746 -0.50947,1.021137 z m 0.33504,1.430747 c 0.0902,0.50943 0.14469,1.024886 0.16911,1.541569 v 0 c 0.024,0.508576 0.4558,0.901369 0.96441,0.877356 0.50858,-0.02406 0.90137,-0.455833 0.87736,-0.964406 -5.6e-4,-0.01356 -0.002,-0.02725 -0.003,-0.04071 -0.0545,-0.593901 -0.14614,-1.184603 -0.28032,-1.765821 v 0 c -0.10952,-0.474582 -0.58304,-0.770502 -1.05766,-0.660981 -0.45731,0.105571 -0.75186,0.550831 -0.67008,1.013016 z m 0.16911,1.541569 c 0.028,0.592821 0.007,1.187499 -0.0402,1.778807 v 0 c -0.042,0.52884 0.35272,0.991562 0.88152,1.03351 0.52883,0.04199 0.99156,-0.352684 1.03351,-0.881526 10e-4,-0.01194 10e-4,-0.02407 0.003,-0.03597 0.028,-0.673893 0.0236,-1.350511 -0.0381,-2.022498 v 0 c -0.0465,-0.507024 -0.49526,-0.880338 -1.00228,-0.833827 -0.49122,0.04508 -0.85993,0.468815 -0.83665,0.961577 z m -0.0402,1.778807 c -0.0542,0.682169 -0.1408,1.361616 -0.25501,2.036303 l 2e-5,5e-6 c -0.0915,0.540688 0.27259,1.053233 0.81331,1.144765 0.54069,0.09153 1.05325,-0.272618 1.14477,-0.813307 10e-4,-0.0077 0.002,-0.01529 0.004,-0.02296 0.10741,-0.738788 0.1795,-1.482904 0.21055,-2.22888 v 0 c 0.0221,-0.530037 -0.38972,-0.977579 -0.91976,-0.999629 -0.51598,-0.02146 -0.95659,0.368885 -0.99746,0.883686 z m 1.31435,4.661336 c 0.14689,-0.769319 0.28005,-1.541314 0.39233,-2.316476 v 0 c 0.0789,-0.542696 -0.29709,-1.046594 -0.83978,-1.125467 -0.53376,-0.07759 -1.03186,0.285096 -1.12187,0.816919 -0.12523,0.73952 -0.27294,1.475184 -0.43821,2.206788 v 0 c -0.12451,0.552472 0.2224,1.101304 0.7749,1.225822 0.55247,0.124546 1.10131,-0.222397 1.22582,-0.774869 0.002,-0.0109 0.005,-0.02176 0.007,-0.03273 z m -0.65672,2.355483 c 0.2915,-0.762498 0.50333,-1.554178 0.65672,-2.355483 v 0 c 0.10659,-0.556206 -0.25817,-1.093478 -0.81441,-1.199958 -0.54347,-0.104046 -1.07147,0.241922 -1.19314,0.781718 -0.15506,0.68782 -0.34976,1.367864 -0.60195,2.026659 v 0 c -0.20643,0.539166 0.0633,1.143618 0.60252,1.350055 0.53917,0.206431 1.14362,-0.06332 1.35005,-0.602491 7e-5,-1.65e-4 1.3e-4,-3.25e-4 1.7e-4,-3.18e-4 z m -0.96627,2.050223 c 0.37338,-0.65769 0.69618,-1.343824 0.96622,-2.050196 l 4e-5,8e-6 c 0.20617,-0.539286 -0.0639,-1.14361 -0.60315,-1.349777 -0.53912,-0.206133 -1.14325,0.06368 -1.34962,0.602678 -0.23008,0.600954 -0.51085,1.182413 -0.84001,1.735437 v 0 c -0.29837,0.501378 -0.13384,1.149711 0.36754,1.448076 0.50137,0.298399 1.1497,0.133878 1.4481,-0.367497 0.003,-0.0063 0.007,-0.01245 0.0106,-0.01878 z m -1.37622,1.932685 c 0.51972,-0.597821 0.98499,-1.24356 1.37622,-1.932685 v 0 c 0.28806,-0.507367 0.11026,-1.152226 -0.39714,-1.440258 -0.50003,-0.28391 -1.13529,-0.115726 -1.42938,0.378408 -0.33,0.554519 -0.72485,1.069034 -1.16459,1.54087 v 0 c -0.40912,0.438992 -0.38491,1.126532 0.0541,1.535647 0.43898,0.409151 1.12652,0.38494 1.53568,-0.05404 0.009,-0.0091 0.0169,-0.01848 0.0252,-0.02793 z m -1.82033,1.646884 c 0.67158,-0.471575 1.28208,-1.027729 1.82033,-1.646884 v 0 c 0.39371,-0.452882 0.34573,-1.13917 -0.10715,-1.532875 -0.4418,-0.38413 -1.10856,-0.349093 -1.5077,0.07918 -0.44653,0.479087 -0.94049,0.913991 -1.47659,1.290474 v 0 c -0.49983,0.350991 -0.62052,1.040734 -0.26945,1.540614 0.35099,0.49983 1.04074,0.620483 1.54061,0.269501 z m -2.23962,1.178155 c 0.7892,-0.303246 1.54712,-0.691893 2.23962,-1.178155 v 0 c 0.49983,-0.350992 0.62053,-1.04077 0.26945,-1.540615 -0.35099,-0.499865 -1.04073,-0.620517 -1.54059,-0.269529 -0.54744,0.384439 -1.146,0.692335 -1.76753,0.937921 v 0 c -0.565148,0.223334 -0.842279,0.862501 -0.618941,1.427653 0.221805,0.561391 0.854491,0.839229 1.417951,0.622728 z m -2.879213,0.627709 c 0.980008,-0.08749 1.95864,-0.273921 2.879213,-0.627709 v 0 c 0.56725,-0.217958 0.8504,-0.85451 0.63243,-1.421724 -0.218,-0.567255 -0.85451,-0.850387 -1.42177,-0.632392 -0.003,0.0012 -0.007,0.0025 -0.01,0.0037 -0.726216,0.286983 -1.503923,0.43157 -2.278969,0.504077 v 0 c -0.600196,0.05617 -1.041257,0.588281 -0.985092,1.188478 0.056,0.598406 0.585219,1.038974 1.183846,0.985529 z M 94.55958,97.12585 c 1.128364,0.164783 2.276019,0.223973 3.413197,0.122441 v 0 c 0.600476,-0.0536 1.043771,-0.583826 0.990164,-1.184272 -0.05361,-0.600447 -0.583842,-1.043744 -1.184289,-0.990135 -10e-4,1.57e-4 -0.0031,1.59e-4 -0.0041,3.57e-4 -0.965466,0.09035 -1.940885,0.03711 -2.89893,-0.103552 l -5e-6,2.9e-5 c -0.595032,-0.08742 -1.148273,0.324231 -1.235619,0.919316 -0.08743,0.595071 0.32423,1.148273 0.919309,1.235658 2.92e-4,1.4e-5 7.05e-4,9e-5 7.05e-4,9e-5 z m -3.568375,-1.099551 c 1.125701,0.544349 2.330816,0.918809 3.568346,1.099546 v 0 c 0.595162,0.08693 1.148065,-0.325092 1.234993,-0.920225 0.08687,-0.594847 -0.324648,-1.147556 -0.919419,-1.234844 -1.018196,-0.149457 -2.008971,-0.458539 -2.935204,-0.906425 v 0 c -0.541775,-0.261976 -1.193377,-0.03517 -1.455351,0.5066 -0.26198,0.541805 -0.03516,1.193369 0.506635,1.455348 z M 85.193183,89.64638 c 0.602932,0.832172 1.217474,1.656189 1.853869,2.463106 0.472459,0.599059 0.956694,1.189455 1.464589,1.758958 0.425552,0.477202 0.867296,0.943356 1.348279,1.365382 0.345377,0.303042 0.715838,0.591581 1.131317,0.792509 v 0 c 0.541805,0.26198 1.193385,0.03513 1.455365,-0.506673 0.261973,-0.541765 0.03512,-1.193341 -0.506642,-1.455314 -0.313623,-0.151657 -0.606693,-0.348844 -0.893382,-0.545394 -0.446745,-0.306302 -0.879787,-0.632497 -1.307591,-0.964543 -1.385604,-1.075526 -2.720716,-2.216503 -4.044133,-3.367089 v 0 c -0.142652,-0.124015 -0.358803,-0.108899 -0.482812,0.03372 -0.104411,0.120152 -0.112301,0.296444 -0.01882,0.425347 z" />
  </g>
</svg>
